  0
SECTION
  2
HEADER
  9
$ANGBASE
  50
0.0
  9
$ANGDIR
  70
1
  9
$MEASUREMENT
  70
0
  0
ENDSEC
  0
SECTION
  2
TABLES
  0
TABLE
  2
LTYPE
  70
4
  0
LTYPE
  5
40F
  2
CONTINUOUS
  70
0
  3
Solid line
  72
65
  73
0
  40
0.0
  0
LTYPE
  5
410
  2
DASHDOT
 70
0
  3
Dash Dot ____ _ ____ _
 72
65
 73
4
 40
2.0
 49
1.25
 49
-0.25
 49
0.25
 49
-0.25
  0
LTYPE
  5
411
  2
DASHED
 70
0
  3
Dashed __ __ __ __ __
 72
65
 73
2
 40
0.75
 49
0.5
 49
-0.25
  0
LTYPE
  5
43B
  2
DOTTED
 70
0
  3
Dotted .  .  .  .
 72
65
 73
2
 40
0.2
 49
0.0
 49
-0.2
  0
ENDTAB
  0
TABLE
  2
STYLE
  70
4
  0
STYLE
  2
KICAD
  70
0
  40
0
  41
1
  42
1
  50
0
  71
0
  3
isocp.shx
  0
STYLE
  2
KICADB
  70
0
  40
0
  41
1
  42
1
  50
0
  71
0
  3
isocp.shx
  0
STYLE
  2
KICADI
  70
0
  40
0
  41
1
  42
1
  50
15
  71
0
  3
isocp.shx
  0
STYLE
  2
KICADBI
  70
0
  40
0
  41
1
  42
1
  50
15
  71
0
  3
isocp.shx
  0
ENDTAB
  0
TABLE
  2
LAYER
  70
1
  0
LAYER
  2
BLACK
  70
0
  62
7
  6
CONTINUOUS
  0
ENDTAB
  0
ENDSEC
  0
SECTION
  2
ENTITIES
0
LINE
8
BLACK
6
CONTINUOUS
10
0.609528
20
0.30563
11
0.549528
21
0.30563
0
LINE
8
BLACK
6
CONTINUOUS
10
0.549528
20
0.30563
11
0.549528
21
0.36563
0
LINE
8
BLACK
6
CONTINUOUS
10
0.549528
20
0.36563
11
0.609528
21
0.36563
0
LINE
8
BLACK
6
CONTINUOUS
10
0.609528
20
0.36563
11
0.609528
21
0.30563
0
LINE
8
BLACK
6
CONTINUOUS
10
0.709528
20
0.30563
11
0.649528
21
0.30563
0
LINE
8
BLACK
6
CONTINUOUS
10
0.649528
20
0.30563
11
0.649528
21
0.36563
0
LINE
8
BLACK
6
CONTINUOUS
10
0.649528
20
0.36563
11
0.709528
21
0.36563
0
LINE
8
BLACK
6
CONTINUOUS
10
0.709528
20
0.36563
11
0.709528
21
0.30563
0
LINE
8
BLACK
6
CONTINUOUS
10
1.14365
20
0.715765
11
1.14804
21
0.713528
0
LINE
8
BLACK
6
CONTINUOUS
10
1.14804
20
0.713528
11
1.15152
21
0.710044
0
LINE
8
BLACK
6
CONTINUOUS
10
1.15152
20
0.710044
11
1.15376
21
0.705654
0
LINE
8
BLACK
6
CONTINUOUS
10
1.15376
20
0.705654
11
1.15453
21
0.700787
0
LINE
8
BLACK
6
CONTINUOUS
10
1.15453
20
0.700787
11
1.15376
21
0.695921
0
LINE
8
BLACK
6
CONTINUOUS
10
1.15376
20
0.695921
11
1.15152
21
0.691531
0
LINE
8
BLACK
6
CONTINUOUS
10
1.15152
20
0.691531
11
1.14804
21
0.688047
0
LINE
8
BLACK
6
CONTINUOUS
10
1.14804
20
0.688047
11
1.14365
21
0.68581
0
LINE
8
BLACK
6
CONTINUOUS
10
1.14365
20
0.68581
11
1.13878
21
0.685039
0
LINE
8
BLACK
6
CONTINUOUS
10
1.13878
20
0.685039
11
1.13391
21
0.68581
0
LINE
8
BLACK
6
CONTINUOUS
10
1.13391
20
0.68581
11
1.12952
21
0.688047
0
LINE
8
BLACK
6
CONTINUOUS
10
1.12952
20
0.688047
11
1.12604
21
0.691531
0
LINE
8
BLACK
6
CONTINUOUS
10
1.12604
20
0.691531
11
1.12483
21
0.693898
0
LINE
8
BLACK
6
CONTINUOUS
10
1.12483
20
0.693898
11
0.807564
21
0.693898
0
LINE
8
BLACK
6
CONTINUOUS
10
0.807564
20
0.693898
11
0.588583
21
0.474916
0
LINE
8
BLACK
6
CONTINUOUS
10
0.588583
20
0.474916
11
0.588583
21
0.46563
0
LINE
8
BLACK
6
CONTINUOUS
10
0.588583
20
0.46563
11
0.609528
21
0.46563
0
LINE
8
BLACK
6
CONTINUOUS
10
0.609528
20
0.46563
11
0.609528
21
0.40563
0
LINE
8
BLACK
6
CONTINUOUS
10
0.609528
20
0.40563
11
0.549528
21
0.40563
0
LINE
8
BLACK
6
CONTINUOUS
10
0.549528
20
0.40563
11
0.549528
21
0.46563
0
LINE
8
BLACK
6
CONTINUOUS
10
0.549528
20
0.46563
11
0.576772
21
0.46563
0
LINE
8
BLACK
6
CONTINUOUS
10
0.576772
20
0.46563
11
0.576772
21
0.477362
0
LINE
8
BLACK
6
CONTINUOUS
10
0.576772
20
0.477362
11
0.576973
21
0.478113
0
LINE
8
BLACK
6
CONTINUOUS
10
0.576973
20
0.478113
11
0.576973
21
0.478891
0
LINE
8
BLACK
6
CONTINUOUS
10
0.576973
20
0.478891
11
0.577362
21
0.479564
0
LINE
8
BLACK
6
CONTINUOUS
10
0.577362
20
0.479564
11
0.577563
21
0.480315
0
LINE
8
BLACK
6
CONTINUOUS
10
0.577563
20
0.480315
11
0.578113
21
0.480865
0
LINE
8
BLACK
6
CONTINUOUS
10
0.578113
20
0.480865
11
0.578501
21
0.481538
0
LINE
8
BLACK
6
CONTINUOUS
10
0.578501
20
0.481538
11
0.800942
21
0.703979
0
LINE
8
BLACK
6
CONTINUOUS
10
0.800942
20
0.703979
11
0.801616
21
0.704368
0
LINE
8
BLACK
6
CONTINUOUS
10
0.801616
20
0.704368
11
0.802165
21
0.704917
0
LINE
8
BLACK
6
CONTINUOUS
10
0.802165
20
0.704917
11
0.802916
21
0.705119
0
LINE
8
BLACK
6
CONTINUOUS
10
0.802916
20
0.705119
11
0.80359
21
0.705507
0
LINE
8
BLACK
6
CONTINUOUS
10
0.80359
20
0.705507
11
0.804367
21
0.705507
0
LINE
8
BLACK
6
CONTINUOUS
10
0.804367
20
0.705507
11
0.805118
21
0.705709
0
LINE
8
BLACK
6
CONTINUOUS
10
0.805118
20
0.705709
11
1.12383
21
0.705709
0
LINE
8
BLACK
6
CONTINUOUS
10
1.12383
20
0.705709
11
1.12604
21
0.710044
0
LINE
8
BLACK
6
CONTINUOUS
10
1.12604
20
0.710044
11
1.12952
21
0.713528
0
LINE
8
BLACK
6
CONTINUOUS
10
1.12952
20
0.713528
11
1.13391
21
0.715765
0
LINE
8
BLACK
6
CONTINUOUS
10
1.13391
20
0.715765
11
1.13878
21
0.716535
0
LINE
8
BLACK
6
CONTINUOUS
10
1.13878
20
0.716535
11
1.14365
21
0.715765
0
LINE
8
BLACK
6
CONTINUOUS
10
1.07573
20
0.562221
11
1.08012
21
0.559985
0
LINE
8
BLACK
6
CONTINUOUS
10
1.08012
20
0.559985
11
1.08361
21
0.556501
0
LINE
8
BLACK
6
CONTINUOUS
10
1.08361
20
0.556501
11
1.08531
21
0.55315
0
LINE
8
BLACK
6
CONTINUOUS
10
1.08531
20
0.55315
11
1.20965
21
0.55315
0
LINE
8
BLACK
6
CONTINUOUS
10
1.20965
20
0.55315
11
1.2104
21
0.552948
0
LINE
8
BLACK
6
CONTINUOUS
10
1.2104
20
0.552948
11
1.21117
21
0.552948
0
LINE
8
BLACK
6
CONTINUOUS
10
1.21117
20
0.552948
11
1.21185
21
0.55256
0
LINE
8
BLACK
6
CONTINUOUS
10
1.21185
20
0.55256
11
1.2126
21
0.552358
0
LINE
8
BLACK
6
CONTINUOUS
10
1.2126
20
0.552358
11
1.21315
21
0.551809
0
LINE
8
BLACK
6
CONTINUOUS
10
1.21315
20
0.551809
11
1.21382
21
0.55142
0
LINE
8
BLACK
6
CONTINUOUS
10
1.21382
20
0.55142
11
1.28292
21
0.482325
0
LINE
8
BLACK
6
CONTINUOUS
10
1.28292
20
0.482325
11
1.2833
21
0.481652
0
LINE
8
BLACK
6
CONTINUOUS
10
1.2833
20
0.481652
11
1.28385
21
0.481102
0
LINE
8
BLACK
6
CONTINUOUS
10
1.28385
20
0.481102
11
1.28406
21
0.480351
0
LINE
8
BLACK
6
CONTINUOUS
10
1.28406
20
0.480351
11
1.28444
21
0.479678
0
LINE
8
BLACK
6
CONTINUOUS
10
1.28444
20
0.479678
11
1.28444
21
0.478901
0
LINE
8
BLACK
6
CONTINUOUS
10
1.28444
20
0.478901
11
1.28465
21
0.47815
0
LINE
8
BLACK
6
CONTINUOUS
10
1.28465
20
0.47815
11
1.28465
21
0.466073
0
LINE
8
BLACK
6
CONTINUOUS
10
1.28465
20
0.466073
11
1.30874
21
0.466073
0
LINE
8
BLACK
6
CONTINUOUS
10
1.30874
20
0.466073
11
1.30874
21
0.406073
0
LINE
8
BLACK
6
CONTINUOUS
10
1.30874
20
0.406073
11
1.24874
21
0.406073
0
LINE
8
BLACK
6
CONTINUOUS
10
1.24874
20
0.406073
11
1.24874
21
0.466073
0
LINE
8
BLACK
6
CONTINUOUS
10
1.24874
20
0.466073
11
1.27283
21
0.466073
0
LINE
8
BLACK
6
CONTINUOUS
10
1.27283
20
0.466073
11
1.27283
21
0.475703
0
LINE
8
BLACK
6
CONTINUOUS
10
1.27283
20
0.475703
11
1.2072
21
0.541339
0
LINE
8
BLACK
6
CONTINUOUS
10
1.2072
20
0.541339
11
1.08531
21
0.541339
0
LINE
8
BLACK
6
CONTINUOUS
10
1.08531
20
0.541339
11
1.08361
21
0.537988
0
LINE
8
BLACK
6
CONTINUOUS
10
1.08361
20
0.537988
11
1.08012
21
0.534504
0
LINE
8
BLACK
6
CONTINUOUS
10
1.08012
20
0.534504
11
1.07573
21
0.532267
0
LINE
8
BLACK
6
CONTINUOUS
10
1.07573
20
0.532267
11
1.07087
21
0.531496
0
LINE
8
BLACK
6
CONTINUOUS
10
1.07087
20
0.531496
11
1.066
21
0.532267
0
LINE
8
BLACK
6
CONTINUOUS
10
1.066
20
0.532267
11
1.06161
21
0.534504
0
LINE
8
BLACK
6
CONTINUOUS
10
1.06161
20
0.534504
11
1.05813
21
0.537988
0
LINE
8
BLACK
6
CONTINUOUS
10
1.05813
20
0.537988
11
1.05589
21
0.542378
0
LINE
8
BLACK
6
CONTINUOUS
10
1.05589
20
0.542378
11
1.05512
21
0.547244
0
LINE
8
BLACK
6
CONTINUOUS
10
1.05512
20
0.547244
11
1.05589
21
0.552111
0
LINE
8
BLACK
6
CONTINUOUS
10
1.05589
20
0.552111
11
1.05813
21
0.556501
0
LINE
8
BLACK
6
CONTINUOUS
10
1.05813
20
0.556501
11
1.06161
21
0.559985
0
LINE
8
BLACK
6
CONTINUOUS
10
1.06161
20
0.559985
11
1.066
21
0.562221
0
LINE
8
BLACK
6
CONTINUOUS
10
1.066
20
0.562221
11
1.07087
21
0.562992
0
LINE
8
BLACK
6
CONTINUOUS
10
1.07087
20
0.562992
11
1.07573
21
0.562221
0
LINE
8
BLACK
6
CONTINUOUS
10
1.20369
20
0.677379
11
1.20808
21
0.675142
0
LINE
8
BLACK
6
CONTINUOUS
10
1.20808
20
0.675142
11
1.21156
21
0.671658
0
LINE
8
BLACK
6
CONTINUOUS
10
1.21156
20
0.671658
11
1.2138
21
0.667268
0
LINE
8
BLACK
6
CONTINUOUS
10
1.2138
20
0.667268
11
1.21457
21
0.662402
0
LINE
8
BLACK
6
CONTINUOUS
10
1.21457
20
0.662402
11
1.2138
21
0.657535
0
LINE
8
BLACK
6
CONTINUOUS
10
1.2138
20
0.657535
11
1.21156
21
0.653145
0
LINE
8
BLACK
6
CONTINUOUS
10
1.21156
20
0.653145
11
1.20808
21
0.649661
0
LINE
8
BLACK
6
CONTINUOUS
10
1.20808
20
0.649661
11
1.20369
21
0.647424
0
LINE
8
BLACK
6
CONTINUOUS
10
1.20369
20
0.647424
11
1.19882
21
0.646654
0
LINE
8
BLACK
6
CONTINUOUS
10
1.19882
20
0.646654
11
1.19395
21
0.647424
0
LINE
8
BLACK
6
CONTINUOUS
10
1.19395
20
0.647424
11
1.19279
21
0.648018
0
LINE
8
BLACK
6
CONTINUOUS
10
1.19279
20
0.648018
11
1.18626
21
0.641493
0
LINE
8
BLACK
6
CONTINUOUS
10
1.18626
20
0.641493
11
1.18559
21
0.641105
0
LINE
8
BLACK
6
CONTINUOUS
10
1.18559
20
0.641105
11
1.18504
21
0.640555
0
LINE
8
BLACK
6
CONTINUOUS
10
1.18504
20
0.640555
11
1.18429
21
0.640354
0
LINE
8
BLACK
6
CONTINUOUS
10
1.18429
20
0.640354
11
1.18362
21
0.639965
0
LINE
8
BLACK
6
CONTINUOUS
10
1.18362
20
0.639965
11
1.18284
21
0.639965
0
LINE
8
BLACK
6
CONTINUOUS
10
1.18284
20
0.639965
11
1.18209
21
0.639764
0
LINE
8
BLACK
6
CONTINUOUS
10
1.18209
20
0.639764
11
0.857761
21
0.639764
0
LINE
8
BLACK
6
CONTINUOUS
10
0.857761
20
0.639764
11
0.685433
21
0.467436
0
LINE
8
BLACK
6
CONTINUOUS
10
0.685433
20
0.467436
11
0.685433
21
0.46563
0
LINE
8
BLACK
6
CONTINUOUS
10
0.685433
20
0.46563
11
0.709528
21
0.46563
0
LINE
8
BLACK
6
CONTINUOUS
10
0.709528
20
0.46563
11
0.709528
21
0.40563
0
LINE
8
BLACK
6
CONTINUOUS
10
0.709528
20
0.40563
11
0.649528
21
0.40563
0
LINE
8
BLACK
6
CONTINUOUS
10
0.649528
20
0.40563
11
0.649528
21
0.46563
0
LINE
8
BLACK
6
CONTINUOUS
10
0.649528
20
0.46563
11
0.673622
21
0.46563
0
LINE
8
BLACK
6
CONTINUOUS
10
0.673622
20
0.46563
11
0.673622
21
0.469882
0
LINE
8
BLACK
6
CONTINUOUS
10
0.673622
20
0.469882
11
0.673823
21
0.470633
0
LINE
8
BLACK
6
CONTINUOUS
10
0.673823
20
0.470633
11
0.673823
21
0.47141
0
LINE
8
BLACK
6
CONTINUOUS
10
0.673823
20
0.47141
11
0.674212
21
0.472084
0
LINE
8
BLACK
6
CONTINUOUS
10
0.674212
20
0.472084
11
0.674413
21
0.472835
0
LINE
8
BLACK
6
CONTINUOUS
10
0.674413
20
0.472835
11
0.674963
21
0.473384
0
LINE
8
BLACK
6
CONTINUOUS
10
0.674963
20
0.473384
11
0.675352
21
0.474058
0
LINE
8
BLACK
6
CONTINUOUS
10
0.675352
20
0.474058
11
0.851139
21
0.649845
0
LINE
8
BLACK
6
CONTINUOUS
10
0.851139
20
0.649845
11
0.851812
21
0.650234
0
LINE
8
BLACK
6
CONTINUOUS
10
0.851812
20
0.650234
11
0.852362
21
0.650784
0
LINE
8
BLACK
6
CONTINUOUS
10
0.852362
20
0.650784
11
0.853113
21
0.650985
0
LINE
8
BLACK
6
CONTINUOUS
10
0.853113
20
0.650985
11
0.853786
21
0.651374
0
LINE
8
BLACK
6
CONTINUOUS
10
0.853786
20
0.651374
11
0.854564
21
0.651374
0
LINE
8
BLACK
6
CONTINUOUS
10
0.854564
20
0.651374
11
0.855315
21
0.651575
0
LINE
8
BLACK
6
CONTINUOUS
10
0.855315
20
0.651575
11
1.17964
21
0.651575
0
LINE
8
BLACK
6
CONTINUOUS
10
1.17964
20
0.651575
11
1.18444
21
0.65637
0
LINE
8
BLACK
6
CONTINUOUS
10
1.18444
20
0.65637
11
1.18384
21
0.657535
0
LINE
8
BLACK
6
CONTINUOUS
10
1.18384
20
0.657535
11
1.18307
21
0.662402
0
LINE
8
BLACK
6
CONTINUOUS
10
1.18307
20
0.662402
11
1.18384
21
0.667268
0
LINE
8
BLACK
6
CONTINUOUS
10
1.18384
20
0.667268
11
1.18608
21
0.671658
0
LINE
8
BLACK
6
CONTINUOUS
10
1.18608
20
0.671658
11
1.18956
21
0.675142
0
LINE
8
BLACK
6
CONTINUOUS
10
1.18956
20
0.675142
11
1.19395
21
0.677379
0
LINE
8
BLACK
6
CONTINUOUS
10
1.19395
20
0.677379
11
1.19882
21
0.67815
0
LINE
8
BLACK
6
CONTINUOUS
10
1.19882
20
0.67815
11
1.20369
21
0.677379
0
LINE
8
BLACK
6
CONTINUOUS
10
1.40874
20
0.406073
11
1.34874
21
0.406073
0
LINE
8
BLACK
6
CONTINUOUS
10
1.34874
20
0.406073
11
1.34874
21
0.466073
0
LINE
8
BLACK
6
CONTINUOUS
10
1.34874
20
0.466073
11
1.40874
21
0.466073
0
LINE
8
BLACK
6
CONTINUOUS
10
1.40874
20
0.466073
11
1.40874
21
0.406073
0
LINE
8
BLACK
6
CONTINUOUS
10
1.90067
20
0.62748
11
1.84067
21
0.62748
0
LINE
8
BLACK
6
CONTINUOUS
10
1.84067
20
0.62748
11
1.84067
21
0.68748
0
LINE
8
BLACK
6
CONTINUOUS
10
1.84067
20
0.68748
11
1.90067
21
0.68748
0
LINE
8
BLACK
6
CONTINUOUS
10
1.90067
20
0.68748
11
1.90067
21
0.62748
0
LINE
8
BLACK
6
CONTINUOUS
10
1.90067
20
0.72748
11
1.84067
21
0.72748
0
LINE
8
BLACK
6
CONTINUOUS
10
1.84067
20
0.72748
11
1.84067
21
0.78748
0
LINE
8
BLACK
6
CONTINUOUS
10
1.84067
20
0.78748
11
1.90067
21
0.78748
0
LINE
8
BLACK
6
CONTINUOUS
10
1.90067
20
0.78748
11
1.90067
21
0.72748
0
LINE
8
BLACK
6
CONTINUOUS
10
0.991614
20
0.737717
11
0.931614
21
0.737717
0
LINE
8
BLACK
6
CONTINUOUS
10
0.931614
20
0.737717
11
0.931614
21
0.797717
0
LINE
8
BLACK
6
CONTINUOUS
10
0.931614
20
0.797717
11
0.991614
21
0.797717
0
LINE
8
BLACK
6
CONTINUOUS
10
0.991614
20
0.797717
11
0.991614
21
0.737717
0
LINE
8
BLACK
6
CONTINUOUS
10
1.09161
20
0.737717
11
1.03161
21
0.737717
0
LINE
8
BLACK
6
CONTINUOUS
10
1.03161
20
0.737717
11
1.03161
21
0.797717
0
LINE
8
BLACK
6
CONTINUOUS
10
1.03161
20
0.797717
11
1.09161
21
0.797717
0
LINE
8
BLACK
6
CONTINUOUS
10
1.09161
20
0.797717
11
1.09161
21
0.737717
0
LINE
8
BLACK
6
CONTINUOUS
10
0.991614
20
0.837717
11
0.931614
21
0.837717
0
LINE
8
BLACK
6
CONTINUOUS
10
0.931614
20
0.837717
11
0.931614
21
0.897717
0
LINE
8
BLACK
6
CONTINUOUS
10
0.931614
20
0.897717
11
0.991614
21
0.897717
0
LINE
8
BLACK
6
CONTINUOUS
10
0.991614
20
0.897717
11
0.991614
21
0.837717
0
LINE
8
BLACK
6
CONTINUOUS
10
1.09161
20
0.837717
11
1.03161
21
0.837717
0
LINE
8
BLACK
6
CONTINUOUS
10
1.03161
20
0.837717
11
1.03161
21
0.897717
0
LINE
8
BLACK
6
CONTINUOUS
10
1.03161
20
0.897717
11
1.09161
21
0.897717
0
LINE
8
BLACK
6
CONTINUOUS
10
1.09161
20
0.897717
11
1.09161
21
0.837717
0
LINE
8
BLACK
6
CONTINUOUS
10
1.31274
20
1.08447
11
1.31713
21
1.08223
0
LINE
8
BLACK
6
CONTINUOUS
10
1.31713
20
1.08223
11
1.32061
21
1.07874
0
LINE
8
BLACK
6
CONTINUOUS
10
1.32061
20
1.07874
11
1.32232
21
1.07539
0
LINE
8
BLACK
6
CONTINUOUS
10
1.32232
20
1.07539
11
1.34902
21
1.07539
0
LINE
8
BLACK
6
CONTINUOUS
10
1.34902
20
1.07539
11
1.34977
21
1.07519
0
LINE
8
BLACK
6
CONTINUOUS
10
1.34977
20
1.07519
11
1.35054
21
1.07519
0
LINE
8
BLACK
6
CONTINUOUS
10
1.35054
20
1.07519
11
1.35122
21
1.0748
0
LINE
8
BLACK
6
CONTINUOUS
10
1.35122
20
1.0748
11
1.35197
21
1.0746
0
LINE
8
BLACK
6
CONTINUOUS
10
1.35197
20
1.0746
11
1.35252
21
1.07405
0
LINE
8
BLACK
6
CONTINUOUS
10
1.35252
20
1.07405
11
1.35319
21
1.07366
0
LINE
8
BLACK
6
CONTINUOUS
10
1.35319
20
1.07366
11
1.41405
21
1.01281
0
LINE
8
BLACK
6
CONTINUOUS
10
1.41405
20
1.01281
11
1.41521
21
1.0134
0
LINE
8
BLACK
6
CONTINUOUS
10
1.41521
20
1.0134
11
1.42008
21
1.01417
0
LINE
8
BLACK
6
CONTINUOUS
10
1.42008
20
1.01417
11
1.42495
21
1.0134
0
LINE
8
BLACK
6
CONTINUOUS
10
1.42495
20
1.0134
11
1.42934
21
1.01117
0
LINE
8
BLACK
6
CONTINUOUS
10
1.42934
20
1.01117
11
1.43282
21
1.00768
0
LINE
8
BLACK
6
CONTINUOUS
10
1.43282
20
1.00768
11
1.43506
21
1.00329
0
LINE
8
BLACK
6
CONTINUOUS
10
1.43506
20
1.00329
11
1.43583
21
0.998425
0
LINE
8
BLACK
6
CONTINUOUS
10
1.43583
20
0.998425
11
1.43506
21
0.993559
0
LINE
8
BLACK
6
CONTINUOUS
10
1.43506
20
0.993559
11
1.43282
21
0.989169
0
LINE
8
BLACK
6
CONTINUOUS
10
1.43282
20
0.989169
11
1.42934
21
0.985685
0
LINE
8
BLACK
6
CONTINUOUS
10
1.42934
20
0.985685
11
1.42495
21
0.983448
0
LINE
8
BLACK
6
CONTINUOUS
10
1.42495
20
0.983448
11
1.42008
21
0.982677
0
LINE
8
BLACK
6
CONTINUOUS
10
1.42008
20
0.982677
11
1.41521
21
0.983448
0
LINE
8
BLACK
6
CONTINUOUS
10
1.41521
20
0.983448
11
1.41082
21
0.985685
0
LINE
8
BLACK
6
CONTINUOUS
10
1.41082
20
0.985685
11
1.40734
21
0.989169
0
LINE
8
BLACK
6
CONTINUOUS
10
1.40734
20
0.989169
11
1.4051
21
0.993559
0
LINE
8
BLACK
6
CONTINUOUS
10
1.4051
20
0.993559
11
1.40433
21
0.998425
0
LINE
8
BLACK
6
CONTINUOUS
10
1.40433
20
0.998425
11
1.4051
21
1.00329
0
LINE
8
BLACK
6
CONTINUOUS
10
1.4051
20
1.00329
11
1.4057
21
1.00446
0
LINE
8
BLACK
6
CONTINUOUS
10
1.4057
20
1.00446
11
1.34657
21
1.06358
0
LINE
8
BLACK
6
CONTINUOUS
10
1.34657
20
1.06358
11
1.32232
21
1.06358
0
LINE
8
BLACK
6
CONTINUOUS
10
1.32232
20
1.06358
11
1.32061
21
1.06023
0
LINE
8
BLACK
6
CONTINUOUS
10
1.32061
20
1.06023
11
1.31713
21
1.05675
0
LINE
8
BLACK
6
CONTINUOUS
10
1.31713
20
1.05675
11
1.31274
21
1.05451
0
LINE
8
BLACK
6
CONTINUOUS
10
1.31274
20
1.05451
11
1.30787
21
1.05374
0
LINE
8
BLACK
6
CONTINUOUS
10
1.30787
20
1.05374
11
1.30301
21
1.05451
0
LINE
8
BLACK
6
CONTINUOUS
10
1.30301
20
1.05451
11
1.29862
21
1.05675
0
LINE
8
BLACK
6
CONTINUOUS
10
1.29862
20
1.05675
11
1.29513
21
1.06023
0
LINE
8
BLACK
6
CONTINUOUS
10
1.29513
20
1.06023
11
1.2929
21
1.06462
0
LINE
8
BLACK
6
CONTINUOUS
10
1.2929
20
1.06462
11
1.29213
21
1.06949
0
LINE
8
BLACK
6
CONTINUOUS
10
1.29213
20
1.06949
11
1.2929
21
1.07435
0
LINE
8
BLACK
6
CONTINUOUS
10
1.2929
20
1.07435
11
1.29513
21
1.07874
0
LINE
8
BLACK
6
CONTINUOUS
10
1.29513
20
1.07874
11
1.29862
21
1.08223
0
LINE
8
BLACK
6
CONTINUOUS
10
1.29862
20
1.08223
11
1.30301
21
1.08447
0
LINE
8
BLACK
6
CONTINUOUS
10
1.30301
20
1.08447
11
1.30787
21
1.08524
0
LINE
8
BLACK
6
CONTINUOUS
10
1.30787
20
1.08524
11
1.31274
21
1.08447
0
LINE
8
BLACK
6
CONTINUOUS
10
1.25119
20
1.45034
11
1.25776
21
1.44837
0
LINE
8
BLACK
6
CONTINUOUS
10
1.25776
20
1.44837
11
1.2637
21
1.44494
0
LINE
8
BLACK
6
CONTINUOUS
10
1.2637
20
1.44494
11
1.26868
21
1.44024
0
LINE
8
BLACK
6
CONTINUOUS
10
1.26868
20
1.44024
11
1.27245
21
1.43451
0
LINE
8
BLACK
6
CONTINUOUS
10
1.27245
20
1.43451
11
1.27479
21
1.42807
0
LINE
8
BLACK
6
CONTINUOUS
10
1.27479
20
1.42807
11
1.27559
21
1.42126
0
LINE
8
BLACK
6
CONTINUOUS
10
1.27559
20
1.42126
11
1.27559
21
1.3622
0
LINE
8
BLACK
6
CONTINUOUS
10
1.27559
20
1.3622
11
1.27539
21
1.35878
0
LINE
8
BLACK
6
CONTINUOUS
10
1.27539
20
1.35878
11
1.27381
21
1.35211
0
LINE
8
BLACK
6
CONTINUOUS
10
1.27381
20
1.35211
11
1.27073
21
1.34598
0
LINE
8
BLACK
6
CONTINUOUS
10
1.27073
20
1.34598
11
1.26633
21
1.34073
0
LINE
8
BLACK
6
CONTINUOUS
10
1.26633
20
1.34073
11
1.26083
21
1.33663
0
LINE
8
BLACK
6
CONTINUOUS
10
1.26083
20
1.33663
11
1.25453
21
1.33392
0
LINE
8
BLACK
6
CONTINUOUS
10
1.25453
20
1.33392
11
1.24778
21
1.33273
0
LINE
8
BLACK
6
CONTINUOUS
10
1.24778
20
1.33273
11
1.24094
21
1.33313
0
LINE
8
BLACK
6
CONTINUOUS
10
1.24094
20
1.33313
11
1.23437
21
1.33509
0
LINE
8
BLACK
6
CONTINUOUS
10
1.23437
20
1.33509
11
1.22843
21
1.33852
0
LINE
8
BLACK
6
CONTINUOUS
10
1.22843
20
1.33852
11
1.22344
21
1.34322
0
LINE
8
BLACK
6
CONTINUOUS
10
1.22344
20
1.34322
11
1.21968
21
1.34895
0
LINE
8
BLACK
6
CONTINUOUS
10
1.21968
20
1.34895
11
1.21733
21
1.3554
0
LINE
8
BLACK
6
CONTINUOUS
10
1.21733
20
1.3554
11
1.21654
21
1.3622
0
LINE
8
BLACK
6
CONTINUOUS
10
1.21654
20
1.3622
11
1.21654
21
1.42126
0
LINE
8
BLACK
6
CONTINUOUS
10
1.21654
20
1.42126
11
1.21674
21
1.42469
0
LINE
8
BLACK
6
CONTINUOUS
10
1.21674
20
1.42469
11
1.21832
21
1.43136
0
LINE
8
BLACK
6
CONTINUOUS
10
1.21832
20
1.43136
11
1.22139
21
1.43749
0
LINE
8
BLACK
6
CONTINUOUS
10
1.22139
20
1.43749
11
1.2258
21
1.44274
0
LINE
8
BLACK
6
CONTINUOUS
10
1.2258
20
1.44274
11
1.2313
21
1.44683
0
LINE
8
BLACK
6
CONTINUOUS
10
1.2313
20
1.44683
11
1.23759
21
1.44955
0
LINE
8
BLACK
6
CONTINUOUS
10
1.23759
20
1.44955
11
1.24435
21
1.45074
0
LINE
8
BLACK
6
CONTINUOUS
10
1.24435
20
1.45074
11
1.25119
21
1.45034
0
LINE
8
BLACK
6
CONTINUOUS
10
0.825276
20
1.57
11
0.765276
21
1.57
0
LINE
8
BLACK
6
CONTINUOUS
10
0.765276
20
1.57
11
0.765276
21
1.63
0
LINE
8
BLACK
6
CONTINUOUS
10
0.765276
20
1.63
11
0.825276
21
1.63
0
LINE
8
BLACK
6
CONTINUOUS
10
0.825276
20
1.63
11
0.825276
21
1.57
0
LINE
8
BLACK
6
CONTINUOUS
10
0.925276
20
1.57
11
0.865276
21
1.57
0
LINE
8
BLACK
6
CONTINUOUS
10
0.865276
20
1.57
11
0.865276
21
1.63
0
LINE
8
BLACK
6
CONTINUOUS
10
0.865276
20
1.63
11
0.925276
21
1.63
0
LINE
8
BLACK
6
CONTINUOUS
10
0.925276
20
1.63
11
0.925276
21
1.57
0
LINE
8
BLACK
6
CONTINUOUS
10
2.07868
20
1.78881
11
2.08048
21
1.78673
0
LINE
8
BLACK
6
CONTINUOUS
10
2.08048
20
1.78673
11
2.08093
21
1.7847
0
LINE
8
BLACK
6
CONTINUOUS
10
2.08093
20
1.7847
11
2.08093
21
0.215295
0
LINE
8
BLACK
6
CONTINUOUS
10
2.08093
20
0.215295
11
2.08015
21
0.212656
0
LINE
8
BLACK
6
CONTINUOUS
10
2.08015
20
0.212656
11
2.07807
21
0.210855
0
LINE
8
BLACK
6
CONTINUOUS
10
2.07807
20
0.210855
11
2.07604
21
0.210413
0
LINE
8
BLACK
6
CONTINUOUS
10
2.07604
20
0.210413
11
0.106634
21
0.210413
0
LINE
8
BLACK
6
CONTINUOUS
10
0.106634
20
0.210413
11
0.103995
21
0.211188
0
LINE
8
BLACK
6
CONTINUOUS
10
0.103995
20
0.211188
11
0.102193
21
0.213267
0
LINE
8
BLACK
6
CONTINUOUS
10
0.102193
20
0.213267
11
0.101752
21
0.215295
0
LINE
8
BLACK
6
CONTINUOUS
10
0.101752
20
0.215295
11
0.101752
21
0.304852
0
LINE
8
BLACK
6
CONTINUOUS
10
0.101752
20
0.304852
11
0.101752
21
0.404852
0
LINE
8
BLACK
6
CONTINUOUS
10
0.101752
20
0.404852
11
0.101752
21
0.726703
0
LINE
8
BLACK
6
CONTINUOUS
10
0.101752
20
0.726703
11
0.101752
21
0.736939
0
LINE
8
BLACK
6
CONTINUOUS
10
0.101752
20
0.736939
11
0.101752
21
0.80715
0
LINE
8
BLACK
6
CONTINUOUS
10
0.101752
20
0.80715
11
0.101752
21
0.936939
0
LINE
8
BLACK
6
CONTINUOUS
10
0.101752
20
0.936939
11
0.101752
21
1.004
0
LINE
8
BLACK
6
CONTINUOUS
10
0.101752
20
1.004
11
0.101752
21
1.06949
0
LINE
8
BLACK
6
CONTINUOUS
10
0.101752
20
1.06949
11
0.101752
21
1.17245
0
LINE
8
BLACK
6
CONTINUOUS
10
0.101752
20
1.17245
11
0.101752
21
1.36031
0
LINE
8
BLACK
6
CONTINUOUS
10
0.101752
20
1.36031
11
0.101752
21
1.46922
0
LINE
8
BLACK
6
CONTINUOUS
10
0.101752
20
1.46922
11
0.101752
21
1.56922
0
LINE
8
BLACK
6
CONTINUOUS
10
0.101752
20
1.56922
11
0.101752
21
1.7847
0
LINE
8
BLACK
6
CONTINUOUS
10
0.101752
20
1.7847
11
0.102527
21
1.78734
0
LINE
8
BLACK
6
CONTINUOUS
10
0.102527
20
1.78734
11
0.104606
21
1.78915
0
LINE
8
BLACK
6
CONTINUOUS
10
0.104606
20
1.78915
11
0.106634
21
1.78959
0
LINE
8
BLACK
6
CONTINUOUS
10
0.106634
20
1.78959
11
2.07604
21
1.78959
0
LINE
8
BLACK
6
CONTINUOUS
10
2.07604
20
1.78959
11
2.07868
21
1.78881
0
LINE
8
BLACK
6
CONTINUOUS
10
0.617421
20
0.304852
11
0.617421
21
0.366408
0
LINE
8
BLACK
6
CONTINUOUS
10
0.617421
20
0.366408
11
0.617421
21
0.366408
0
LINE
8
BLACK
6
CONTINUOUS
10
0.617421
20
0.366408
11
0.616963
21
0.36871
0
LINE
8
BLACK
6
CONTINUOUS
10
0.616963
20
0.36871
11
0.616963
21
0.36871
0
LINE
8
BLACK
6
CONTINUOUS
10
0.616963
20
0.36871
11
0.615219
21
0.371321
0
LINE
8
BLACK
6
CONTINUOUS
10
0.615219
20
0.371321
11
0.612607
21
0.373066
0
LINE
8
BLACK
6
CONTINUOUS
10
0.612607
20
0.373066
11
0.612607
21
0.373066
0
LINE
8
BLACK
6
CONTINUOUS
10
0.612607
20
0.373066
11
0.610305
21
0.373524
0
LINE
8
BLACK
6
CONTINUOUS
10
0.610305
20
0.373524
11
0.610305
21
0.373524
0
LINE
8
BLACK
6
CONTINUOUS
10
0.610305
20
0.373524
11
0.54875
21
0.373524
0
LINE
8
BLACK
6
CONTINUOUS
10
0.54875
20
0.373524
11
0.54875
21
0.373524
0
LINE
8
BLACK
6
CONTINUOUS
10
0.54875
20
0.373524
11
0.546448
21
0.373066
0
LINE
8
BLACK
6
CONTINUOUS
10
0.546448
20
0.373066
11
0.546448
21
0.373066
0
LINE
8
BLACK
6
CONTINUOUS
10
0.546448
20
0.373066
11
0.543836
21
0.371321
0
LINE
8
BLACK
6
CONTINUOUS
10
0.543836
20
0.371321
11
0.542092
21
0.36871
0
LINE
8
BLACK
6
CONTINUOUS
10
0.542092
20
0.36871
11
0.542092
21
0.36871
0
LINE
8
BLACK
6
CONTINUOUS
10
0.542092
20
0.36871
11
0.541634
21
0.366408
0
LINE
8
BLACK
6
CONTINUOUS
10
0.541634
20
0.366408
11
0.541634
21
0.304852
0
LINE
8
BLACK
6
CONTINUOUS
10
0.541634
20
0.304852
11
0.542092
21
0.30255
0
LINE
8
BLACK
6
CONTINUOUS
10
0.542092
20
0.30255
11
0.542092
21
0.30255
0
LINE
8
BLACK
6
CONTINUOUS
10
0.542092
20
0.30255
11
0.543836
21
0.299939
0
LINE
8
BLACK
6
CONTINUOUS
10
0.543836
20
0.299939
11
0.546448
21
0.298194
0
LINE
8
BLACK
6
CONTINUOUS
10
0.546448
20
0.298194
11
0.546448
21
0.298194
0
LINE
8
BLACK
6
CONTINUOUS
10
0.546448
20
0.298194
11
0.54875
21
0.297736
0
LINE
8
BLACK
6
CONTINUOUS
10
0.54875
20
0.297736
11
0.54875
21
0.297736
0
LINE
8
BLACK
6
CONTINUOUS
10
0.54875
20
0.297736
11
0.54875
21
0.297736
0
LINE
8
BLACK
6
CONTINUOUS
10
0.54875
20
0.297736
11
0.610305
21
0.297736
0
LINE
8
BLACK
6
CONTINUOUS
10
0.610305
20
0.297736
11
0.610305
21
0.297736
0
LINE
8
BLACK
6
CONTINUOUS
10
0.610305
20
0.297736
11
0.610889
21
0.297852
0
LINE
8
BLACK
6
CONTINUOUS
10
0.610889
20
0.297852
11
0.612607
21
0.298194
0
LINE
8
BLACK
6
CONTINUOUS
10
0.612607
20
0.298194
11
0.612607
21
0.298194
0
LINE
8
BLACK
6
CONTINUOUS
10
0.612607
20
0.298194
11
0.612608
21
0.298194
0
LINE
8
BLACK
6
CONTINUOUS
10
0.612608
20
0.298194
11
0.615219
21
0.299939
0
LINE
8
BLACK
6
CONTINUOUS
10
0.615219
20
0.299939
11
0.616963
21
0.30255
0
LINE
8
BLACK
6
CONTINUOUS
10
0.616963
20
0.30255
11
0.616963
21
0.30255
0
LINE
8
BLACK
6
CONTINUOUS
10
0.616963
20
0.30255
11
0.616963
21
0.30255
0
LINE
8
BLACK
6
CONTINUOUS
10
0.616963
20
0.30255
11
0.617421
21
0.304852
0
LINE
8
BLACK
6
CONTINUOUS
10
0.617421
20
0.304852
11
0.617421
21
0.304852
0
LINE
8
BLACK
6
CONTINUOUS
10
0.642092
20
0.30255
11
0.642092
21
0.30255
0
LINE
8
BLACK
6
CONTINUOUS
10
0.642092
20
0.30255
11
0.643836
21
0.299939
0
LINE
8
BLACK
6
CONTINUOUS
10
0.643836
20
0.299939
11
0.646448
21
0.298194
0
LINE
8
BLACK
6
CONTINUOUS
10
0.646448
20
0.298194
11
0.646448
21
0.298194
0
LINE
8
BLACK
6
CONTINUOUS
10
0.646448
20
0.298194
11
0.64875
21
0.297736
0
LINE
8
BLACK
6
CONTINUOUS
10
0.64875
20
0.297736
11
0.64875
21
0.297736
0
LINE
8
BLACK
6
CONTINUOUS
10
0.64875
20
0.297736
11
0.64875
21
0.297736
0
LINE
8
BLACK
6
CONTINUOUS
10
0.64875
20
0.297736
11
0.710305
21
0.297736
0
LINE
8
BLACK
6
CONTINUOUS
10
0.710305
20
0.297736
11
0.710305
21
0.297736
0
LINE
8
BLACK
6
CONTINUOUS
10
0.710305
20
0.297736
11
0.710889
21
0.297852
0
LINE
8
BLACK
6
CONTINUOUS
10
0.710889
20
0.297852
11
0.712607
21
0.298194
0
LINE
8
BLACK
6
CONTINUOUS
10
0.712607
20
0.298194
11
0.712607
21
0.298194
0
LINE
8
BLACK
6
CONTINUOUS
10
0.712607
20
0.298194
11
0.712608
21
0.298194
0
LINE
8
BLACK
6
CONTINUOUS
10
0.712608
20
0.298194
11
0.715219
21
0.299939
0
LINE
8
BLACK
6
CONTINUOUS
10
0.715219
20
0.299939
11
0.716963
21
0.30255
0
LINE
8
BLACK
6
CONTINUOUS
10
0.716963
20
0.30255
11
0.716963
21
0.30255
0
LINE
8
BLACK
6
CONTINUOUS
10
0.716963
20
0.30255
11
0.716963
21
0.30255
0
LINE
8
BLACK
6
CONTINUOUS
10
0.716963
20
0.30255
11
0.717421
21
0.304852
0
LINE
8
BLACK
6
CONTINUOUS
10
0.717421
20
0.304852
11
0.717421
21
0.304852
0
LINE
8
BLACK
6
CONTINUOUS
10
0.717421
20
0.304852
11
0.717421
21
0.366408
0
LINE
8
BLACK
6
CONTINUOUS
10
0.717421
20
0.366408
11
0.717421
21
0.366408
0
LINE
8
BLACK
6
CONTINUOUS
10
0.717421
20
0.366408
11
0.716963
21
0.36871
0
LINE
8
BLACK
6
CONTINUOUS
10
0.716963
20
0.36871
11
0.716963
21
0.36871
0
LINE
8
BLACK
6
CONTINUOUS
10
0.716963
20
0.36871
11
0.715219
21
0.371321
0
LINE
8
BLACK
6
CONTINUOUS
10
0.715219
20
0.371321
11
0.712607
21
0.373066
0
LINE
8
BLACK
6
CONTINUOUS
10
0.712607
20
0.373066
11
0.712607
21
0.373066
0
LINE
8
BLACK
6
CONTINUOUS
10
0.712607
20
0.373066
11
0.710305
21
0.373524
0
LINE
8
BLACK
6
CONTINUOUS
10
0.710305
20
0.373524
11
0.710305
21
0.373524
0
LINE
8
BLACK
6
CONTINUOUS
10
0.710305
20
0.373524
11
0.64875
21
0.373524
0
LINE
8
BLACK
6
CONTINUOUS
10
0.64875
20
0.373524
11
0.64875
21
0.373524
0
LINE
8
BLACK
6
CONTINUOUS
10
0.64875
20
0.373524
11
0.646448
21
0.373066
0
LINE
8
BLACK
6
CONTINUOUS
10
0.646448
20
0.373066
11
0.646448
21
0.373066
0
LINE
8
BLACK
6
CONTINUOUS
10
0.646448
20
0.373066
11
0.643836
21
0.371321
0
LINE
8
BLACK
6
CONTINUOUS
10
0.643836
20
0.371321
11
0.642092
21
0.36871
0
LINE
8
BLACK
6
CONTINUOUS
10
0.642092
20
0.36871
11
0.642092
21
0.36871
0
LINE
8
BLACK
6
CONTINUOUS
10
0.642092
20
0.36871
11
0.641634
21
0.366408
0
LINE
8
BLACK
6
CONTINUOUS
10
0.641634
20
0.366408
11
0.641634
21
0.304852
0
LINE
8
BLACK
6
CONTINUOUS
10
0.641634
20
0.304852
11
0.642092
21
0.30255
0
LINE
8
BLACK
6
CONTINUOUS
10
1.34857
20
0.647655
11
1.35296
21
0.645419
0
LINE
8
BLACK
6
CONTINUOUS
10
1.35296
20
0.645419
11
1.35644
21
0.641935
0
LINE
8
BLACK
6
CONTINUOUS
10
1.35644
20
0.641935
11
1.35868
21
0.637544
0
LINE
8
BLACK
6
CONTINUOUS
10
1.35868
20
0.637544
11
1.35945
21
0.632678
0
LINE
8
BLACK
6
CONTINUOUS
10
1.35945
20
0.632678
11
1.35868
21
0.627812
0
LINE
8
BLACK
6
CONTINUOUS
10
1.35868
20
0.627812
11
1.35644
21
0.623422
0
LINE
8
BLACK
6
CONTINUOUS
10
1.35644
20
0.623422
11
1.35296
21
0.619938
0
LINE
8
BLACK
6
CONTINUOUS
10
1.35296
20
0.619938
11
1.34857
21
0.617701
0
LINE
8
BLACK
6
CONTINUOUS
10
1.34857
20
0.617701
11
1.3437
21
0.61693
0
LINE
8
BLACK
6
CONTINUOUS
10
1.3437
20
0.61693
11
1.33883
21
0.617701
0
LINE
8
BLACK
6
CONTINUOUS
10
1.33883
20
0.617701
11
1.33676
21
0.618759
0
LINE
8
BLACK
6
CONTINUOUS
10
1.33676
20
0.618759
11
1.31323
21
0.595234
0
LINE
8
BLACK
6
CONTINUOUS
10
1.31323
20
0.595234
11
1.31256
21
0.594845
0
LINE
8
BLACK
6
CONTINUOUS
10
1.31256
20
0.594845
11
1.31201
21
0.594295
0
LINE
8
BLACK
6
CONTINUOUS
10
1.31201
20
0.594295
11
1.31126
21
0.594094
0
LINE
8
BLACK
6
CONTINUOUS
10
1.31126
20
0.594094
11
1.31058
21
0.593705
0
LINE
8
BLACK
6
CONTINUOUS
10
1.31058
20
0.593705
11
1.30981
21
0.593705
0
LINE
8
BLACK
6
CONTINUOUS
10
1.30981
20
0.593705
11
1.30906
21
0.593504
0
LINE
8
BLACK
6
CONTINUOUS
10
1.30906
20
0.593504
11
0.911895
21
0.593504
0
LINE
8
BLACK
6
CONTINUOUS
10
0.911895
20
0.593504
11
0.785827
21
0.467436
0
LINE
8
BLACK
6
CONTINUOUS
10
0.785827
20
0.467436
11
0.785827
21
0.46563
0
LINE
8
BLACK
6
CONTINUOUS
10
0.785827
20
0.46563
11
0.809528
21
0.46563
0
LINE
8
BLACK
6
CONTINUOUS
10
0.809528
20
0.46563
11
0.809528
21
0.40563
0
LINE
8
BLACK
6
CONTINUOUS
10
0.809528
20
0.40563
11
0.785827
21
0.40563
0
LINE
8
BLACK
6
CONTINUOUS
10
0.785827
20
0.40563
11
0.785827
21
0.36563
0
LINE
8
BLACK
6
CONTINUOUS
10
0.785827
20
0.36563
11
0.809528
21
0.36563
0
LINE
8
BLACK
6
CONTINUOUS
10
0.809528
20
0.36563
11
0.809528
21
0.30563
0
LINE
8
BLACK
6
CONTINUOUS
10
0.809528
20
0.30563
11
0.749528
21
0.30563
0
LINE
8
BLACK
6
CONTINUOUS
10
0.749528
20
0.30563
11
0.749528
21
0.36563
0
LINE
8
BLACK
6
CONTINUOUS
10
0.749528
20
0.36563
11
0.774016
21
0.36563
0
LINE
8
BLACK
6
CONTINUOUS
10
0.774016
20
0.36563
11
0.774016
21
0.40563
0
LINE
8
BLACK
6
CONTINUOUS
10
0.774016
20
0.40563
11
0.749528
21
0.40563
0
LINE
8
BLACK
6
CONTINUOUS
10
0.749528
20
0.40563
11
0.749528
21
0.46563
0
LINE
8
BLACK
6
CONTINUOUS
10
0.749528
20
0.46563
11
0.774016
21
0.46563
0
LINE
8
BLACK
6
CONTINUOUS
10
0.774016
20
0.46563
11
0.774016
21
0.469882
0
LINE
8
BLACK
6
CONTINUOUS
10
0.774016
20
0.469882
11
0.774217
21
0.470633
0
LINE
8
BLACK
6
CONTINUOUS
10
0.774217
20
0.470633
11
0.774217
21
0.47141
0
LINE
8
BLACK
6
CONTINUOUS
10
0.774217
20
0.47141
11
0.774606
21
0.472084
0
LINE
8
BLACK
6
CONTINUOUS
10
0.774606
20
0.472084
11
0.774807
21
0.472835
0
LINE
8
BLACK
6
CONTINUOUS
10
0.774807
20
0.472835
11
0.775357
21
0.473384
0
LINE
8
BLACK
6
CONTINUOUS
10
0.775357
20
0.473384
11
0.775745
21
0.474058
0
LINE
8
BLACK
6
CONTINUOUS
10
0.775745
20
0.474058
11
0.905273
21
0.603585
0
LINE
8
BLACK
6
CONTINUOUS
10
0.905273
20
0.603585
11
0.905946
21
0.603974
0
LINE
8
BLACK
6
CONTINUOUS
10
0.905946
20
0.603974
11
0.906496
21
0.604524
0
LINE
8
BLACK
6
CONTINUOUS
10
0.906496
20
0.604524
11
0.907247
21
0.604725
0
LINE
8
BLACK
6
CONTINUOUS
10
0.907247
20
0.604725
11
0.90792
21
0.605114
0
LINE
8
BLACK
6
CONTINUOUS
10
0.90792
20
0.605114
11
0.908698
21
0.605114
0
LINE
8
BLACK
6
CONTINUOUS
10
0.908698
20
0.605114
11
0.909449
21
0.605315
0
LINE
8
BLACK
6
CONTINUOUS
10
0.909449
20
0.605315
11
1.30661
21
0.605315
0
LINE
8
BLACK
6
CONTINUOUS
10
1.30661
20
0.605315
11
1.32885
21
0.627558
0
LINE
8
BLACK
6
CONTINUOUS
10
1.32885
20
0.627558
11
1.32872
21
0.627812
0
LINE
8
BLACK
6
CONTINUOUS
10
1.32872
20
0.627812
11
1.32795
21
0.632678
0
LINE
8
BLACK
6
CONTINUOUS
10
1.32795
20
0.632678
11
1.32872
21
0.637544
0
LINE
8
BLACK
6
CONTINUOUS
10
1.32872
20
0.637544
11
1.33096
21
0.641935
0
LINE
8
BLACK
6
CONTINUOUS
10
1.33096
20
0.641935
11
1.33444
21
0.645419
0
LINE
8
BLACK
6
CONTINUOUS
10
1.33444
20
0.645419
11
1.33883
21
0.647655
0
LINE
8
BLACK
6
CONTINUOUS
10
1.33883
20
0.647655
11
1.3437
21
0.648426
0
LINE
8
BLACK
6
CONTINUOUS
10
1.3437
20
0.648426
11
1.34857
21
0.647655
0
LINE
8
BLACK
6
CONTINUOUS
10
1.20874
20
0.306073
11
1.14874
21
0.306073
0
LINE
8
BLACK
6
CONTINUOUS
10
1.14874
20
0.306073
11
1.14874
21
0.366073
0
LINE
8
BLACK
6
CONTINUOUS
10
1.14874
20
0.366073
11
1.20874
21
0.366073
0
LINE
8
BLACK
6
CONTINUOUS
10
1.20874
20
0.366073
11
1.20874
21
0.306073
0
LINE
8
BLACK
6
CONTINUOUS
10
1.30874
20
0.306073
11
1.24874
21
0.306073
0
LINE
8
BLACK
6
CONTINUOUS
10
1.24874
20
0.306073
11
1.24874
21
0.366073
0
LINE
8
BLACK
6
CONTINUOUS
10
1.24874
20
0.366073
11
1.30874
21
0.366073
0
LINE
8
BLACK
6
CONTINUOUS
10
1.30874
20
0.366073
11
1.30874
21
0.306073
0
LINE
8
BLACK
6
CONTINUOUS
10
1.40874
20
0.306073
11
1.34874
21
0.306073
0
LINE
8
BLACK
6
CONTINUOUS
10
1.34874
20
0.306073
11
1.34874
21
0.366073
0
LINE
8
BLACK
6
CONTINUOUS
10
1.34874
20
0.366073
11
1.40874
21
0.366073
0
LINE
8
BLACK
6
CONTINUOUS
10
1.40874
20
0.366073
11
1.40874
21
0.306073
0
LINE
8
BLACK
6
CONTINUOUS
10
1.13261
20
0.723821
11
1.13261
21
0.723821
0
LINE
8
BLACK
6
CONTINUOUS
10
1.13261
20
0.723821
11
1.12686
21
0.721438
0
LINE
8
BLACK
6
CONTINUOUS
10
1.12686
20
0.721438
11
1.12192
21
0.717649
0
LINE
8
BLACK
6
CONTINUOUS
10
1.12192
20
0.717649
11
1.12028
21
0.715512
0
LINE
8
BLACK
6
CONTINUOUS
10
1.12028
20
0.715512
11
1.11806
21
0.71389
0
LINE
8
BLACK
6
CONTINUOUS
10
1.11806
20
0.71389
11
1.11641
21
0.713602
0
LINE
8
BLACK
6
CONTINUOUS
10
1.11641
20
0.713602
11
0.807056
21
0.713602
0
LINE
8
BLACK
6
CONTINUOUS
10
0.807056
20
0.713602
11
0.806054
21
0.713706
0
LINE
8
BLACK
6
CONTINUOUS
10
0.806054
20
0.713706
11
0.805696
21
0.713781
0
LINE
8
BLACK
6
CONTINUOUS
10
0.805696
20
0.713781
11
0.805696
21
0.713781
0
LINE
8
BLACK
6
CONTINUOUS
10
0.805696
20
0.713781
11
0.805696
21
0.713781
0
LINE
8
BLACK
6
CONTINUOUS
10
0.805696
20
0.713781
11
0.804412
21
0.713621
0
LINE
8
BLACK
6
CONTINUOUS
10
0.804412
20
0.713621
11
0.80411
21
0.713602
0
LINE
8
BLACK
6
CONTINUOUS
10
0.80411
20
0.713602
11
0.803975
21
0.713602
0
LINE
8
BLACK
6
CONTINUOUS
10
0.803975
20
0.713602
11
0.803178
21
0.713469
0
LINE
8
BLACK
6
CONTINUOUS
10
0.803178
20
0.713469
11
0.803079
21
0.713455
0
LINE
8
BLACK
6
CONTINUOUS
10
0.803079
20
0.713455
11
0.801126
21
0.713212
0
LINE
8
BLACK
6
CONTINUOUS
10
0.801126
20
0.713212
11
0.800849
21
0.713129
0
LINE
8
BLACK
6
CONTINUOUS
10
0.800849
20
0.713129
11
0.800575
21
0.713035
0
LINE
8
BLACK
6
CONTINUOUS
10
0.800575
20
0.713035
11
0.798846
21
0.712099
0
LINE
8
BLACK
6
CONTINUOUS
10
0.798846
20
0.712099
11
0.798756
21
0.712053
0
LINE
8
BLACK
6
CONTINUOUS
10
0.798756
20
0.712053
11
0.796989
21
0.711189
0
LINE
8
BLACK
6
CONTINUOUS
10
0.796989
20
0.711189
11
0.796753
21
0.711021
0
LINE
8
BLACK
6
CONTINUOUS
10
0.796753
20
0.711021
11
0.796525
21
0.710843
0
LINE
8
BLACK
6
CONTINUOUS
10
0.796525
20
0.710843
11
0.795193
21
0.709396
0
LINE
8
BLACK
6
CONTINUOUS
10
0.795193
20
0.709396
11
0.795123
21
0.709323
0
LINE
8
BLACK
6
CONTINUOUS
10
0.795123
20
0.709323
11
0.57429
21
0.48849
0
LINE
8
BLACK
6
CONTINUOUS
10
0.57429
20
0.48849
11
0.573508
21
0.487855
0
LINE
8
BLACK
6
CONTINUOUS
10
0.573508
20
0.487855
11
0.573202
21
0.487655
0
LINE
8
BLACK
6
CONTINUOUS
10
0.573202
20
0.487655
11
0.572407
21
0.486634
0
LINE
8
BLACK
6
CONTINUOUS
10
0.572407
20
0.486634
11
0.572207
21
0.486408
0
LINE
8
BLACK
6
CONTINUOUS
10
0.572207
20
0.486408
11
0.572112
21
0.486312
0
LINE
8
BLACK
6
CONTINUOUS
10
0.572112
20
0.486312
11
0.572111
21
0.486311
0
LINE
8
BLACK
6
CONTINUOUS
10
0.572111
20
0.486311
11
0.571642
21
0.485654
0
LINE
8
BLACK
6
CONTINUOUS
10
0.571642
20
0.485654
11
0.571581
21
0.485573
0
LINE
8
BLACK
6
CONTINUOUS
10
0.571581
20
0.485573
11
0.570373
21
0.484021
0
LINE
8
BLACK
6
CONTINUOUS
10
0.570373
20
0.484021
11
0.570235
21
0.483766
0
LINE
8
BLACK
6
CONTINUOUS
10
0.570235
20
0.483766
11
0.570109
21
0.483507
0
LINE
8
BLACK
6
CONTINUOUS
10
0.570109
20
0.483507
11
0.569547
21
0.481622
0
LINE
8
BLACK
6
CONTINUOUS
10
0.569547
20
0.481622
11
0.569517
21
0.481526
0
LINE
8
BLACK
6
CONTINUOUS
10
0.569517
20
0.481526
11
0.568878
21
0.479665
0
LINE
8
BLACK
6
CONTINUOUS
10
0.568878
20
0.479665
11
0.56883
21
0.479381
0
LINE
8
BLACK
6
CONTINUOUS
10
0.56883
20
0.479381
11
0.568795
21
0.479093
0
LINE
8
BLACK
6
CONTINUOUS
10
0.568795
20
0.479093
11
0.568815
21
0.478607
0
LINE
8
BLACK
6
CONTINUOUS
10
0.568815
20
0.478607
11
0.568149
21
0.475938
0
LINE
8
BLACK
6
CONTINUOUS
10
0.568149
20
0.475938
11
0.566147
21
0.474052
0
LINE
8
BLACK
6
CONTINUOUS
10
0.566147
20
0.474052
11
0.563937
21
0.473524
0
LINE
8
BLACK
6
CONTINUOUS
10
0.563937
20
0.473524
11
0.54875
21
0.473524
0
LINE
8
BLACK
6
CONTINUOUS
10
0.54875
20
0.473524
11
0.546448
21
0.473066
0
LINE
8
BLACK
6
CONTINUOUS
10
0.546448
20
0.473066
11
0.546448
21
0.473066
0
LINE
8
BLACK
6
CONTINUOUS
10
0.546448
20
0.473066
11
0.543836
21
0.471321
0
LINE
8
BLACK
6
CONTINUOUS
10
0.543836
20
0.471321
11
0.542092
21
0.46871
0
LINE
8
BLACK
6
CONTINUOUS
10
0.542092
20
0.46871
11
0.542092
21
0.46871
0
LINE
8
BLACK
6
CONTINUOUS
10
0.542092
20
0.46871
11
0.541634
21
0.466408
0
LINE
8
BLACK
6
CONTINUOUS
10
0.541634
20
0.466408
11
0.541634
21
0.404852
0
LINE
8
BLACK
6
CONTINUOUS
10
0.541634
20
0.404852
11
0.542092
21
0.40255
0
LINE
8
BLACK
6
CONTINUOUS
10
0.542092
20
0.40255
11
0.542092
21
0.40255
0
LINE
8
BLACK
6
CONTINUOUS
10
0.542092
20
0.40255
11
0.543836
21
0.399939
0
LINE
8
BLACK
6
CONTINUOUS
10
0.543836
20
0.399939
11
0.546448
21
0.398194
0
LINE
8
BLACK
6
CONTINUOUS
10
0.546448
20
0.398194
11
0.546448
21
0.398194
0
LINE
8
BLACK
6
CONTINUOUS
10
0.546448
20
0.398194
11
0.54875
21
0.397736
0
LINE
8
BLACK
6
CONTINUOUS
10
0.54875
20
0.397736
11
0.54875
21
0.397736
0
LINE
8
BLACK
6
CONTINUOUS
10
0.54875
20
0.397736
11
0.54875
21
0.397736
0
LINE
8
BLACK
6
CONTINUOUS
10
0.54875
20
0.397736
11
0.610305
21
0.397736
0
LINE
8
BLACK
6
CONTINUOUS
10
0.610305
20
0.397736
11
0.610305
21
0.397736
0
LINE
8
BLACK
6
CONTINUOUS
10
0.610305
20
0.397736
11
0.610889
21
0.397852
0
LINE
8
BLACK
6
CONTINUOUS
10
0.610889
20
0.397852
11
0.612607
21
0.398194
0
LINE
8
BLACK
6
CONTINUOUS
10
0.612607
20
0.398194
11
0.612607
21
0.398194
0
LINE
8
BLACK
6
CONTINUOUS
10
0.612607
20
0.398194
11
0.612608
21
0.398194
0
LINE
8
BLACK
6
CONTINUOUS
10
0.612608
20
0.398194
11
0.615219
21
0.399939
0
LINE
8
BLACK
6
CONTINUOUS
10
0.615219
20
0.399939
11
0.616963
21
0.40255
0
LINE
8
BLACK
6
CONTINUOUS
10
0.616963
20
0.40255
11
0.616963
21
0.40255
0
LINE
8
BLACK
6
CONTINUOUS
10
0.616963
20
0.40255
11
0.616963
21
0.40255
0
LINE
8
BLACK
6
CONTINUOUS
10
0.616963
20
0.40255
11
0.617421
21
0.404852
0
LINE
8
BLACK
6
CONTINUOUS
10
0.617421
20
0.404852
11
0.617421
21
0.404852
0
LINE
8
BLACK
6
CONTINUOUS
10
0.617421
20
0.404852
11
0.617421
21
0.466408
0
LINE
8
BLACK
6
CONTINUOUS
10
0.617421
20
0.466408
11
0.617421
21
0.466408
0
LINE
8
BLACK
6
CONTINUOUS
10
0.617421
20
0.466408
11
0.616963
21
0.46871
0
LINE
8
BLACK
6
CONTINUOUS
10
0.616963
20
0.46871
11
0.616963
21
0.46871
0
LINE
8
BLACK
6
CONTINUOUS
10
0.616963
20
0.46871
11
0.615219
21
0.471321
0
LINE
8
BLACK
6
CONTINUOUS
10
0.615219
20
0.471321
11
0.612607
21
0.473066
0
LINE
8
BLACK
6
CONTINUOUS
10
0.612607
20
0.473066
11
0.612607
21
0.473066
0
LINE
8
BLACK
6
CONTINUOUS
10
0.612607
20
0.473066
11
0.610305
21
0.473524
0
LINE
8
BLACK
6
CONTINUOUS
10
0.610305
20
0.473524
11
0.610305
21
0.473524
0
LINE
8
BLACK
6
CONTINUOUS
10
0.610305
20
0.473524
11
0.61014
21
0.473524
0
LINE
8
BLACK
6
CONTINUOUS
10
0.61014
20
0.473524
11
0.6075
21
0.474299
0
LINE
8
BLACK
6
CONTINUOUS
10
0.6075
20
0.474299
11
0.605699
21
0.476378
0
LINE
8
BLACK
6
CONTINUOUS
10
0.605699
20
0.476378
11
0.605307
21
0.4791
0
LINE
8
BLACK
6
CONTINUOUS
10
0.605307
20
0.4791
11
0.60645
21
0.481602
0
LINE
8
BLACK
6
CONTINUOUS
10
0.60645
20
0.481602
11
0.606688
21
0.481858
0
LINE
8
BLACK
6
CONTINUOUS
10
0.606688
20
0.481858
11
0.809404
21
0.684574
0
LINE
8
BLACK
6
CONTINUOUS
10
0.809404
20
0.684574
11
0.811818
21
0.685892
0
LINE
8
BLACK
6
CONTINUOUS
10
0.811818
20
0.685892
11
0.812856
21
0.686004
0
LINE
8
BLACK
6
CONTINUOUS
10
0.812856
20
0.686004
11
1.11792
21
0.686004
0
LINE
8
BLACK
6
CONTINUOUS
10
1.11792
20
0.686004
11
1.12056
21
0.685229
0
LINE
8
BLACK
6
CONTINUOUS
10
1.12056
20
0.685229
11
1.12179
21
0.684094
0
LINE
8
BLACK
6
CONTINUOUS
10
1.12179
20
0.684094
11
1.1219
21
0.683946
0
LINE
8
BLACK
6
CONTINUOUS
10
1.1219
20
0.683946
11
1.12192
21
0.683926
0
LINE
8
BLACK
6
CONTINUOUS
10
1.12192
20
0.683926
11
1.12686
21
0.680136
0
LINE
8
BLACK
6
CONTINUOUS
10
1.12686
20
0.680136
11
1.13261
21
0.677754
0
LINE
8
BLACK
6
CONTINUOUS
10
1.13261
20
0.677754
11
1.13569
21
0.677348
0
LINE
8
BLACK
6
CONTINUOUS
10
1.13569
20
0.677348
11
1.13878
21
0.676942
0
LINE
8
BLACK
6
CONTINUOUS
10
1.13878
20
0.676942
11
1.13878
21
0.676942
0
LINE
8
BLACK
6
CONTINUOUS
10
1.13878
20
0.676942
11
1.13878
21
0.676942
0
LINE
8
BLACK
6
CONTINUOUS
10
1.13878
20
0.676942
11
1.14084
21
0.677213
0
LINE
8
BLACK
6
CONTINUOUS
10
1.14084
20
0.677213
11
1.14495
21
0.677754
0
LINE
8
BLACK
6
CONTINUOUS
10
1.14495
20
0.677754
11
1.1507
21
0.680136
0
LINE
8
BLACK
6
CONTINUOUS
10
1.1507
20
0.680136
11
1.15564
21
0.683926
0
LINE
8
BLACK
6
CONTINUOUS
10
1.15564
20
0.683926
11
1.15943
21
0.688865
0
LINE
8
BLACK
6
CONTINUOUS
10
1.15943
20
0.688865
11
1.16181
21
0.694616
0
LINE
8
BLACK
6
CONTINUOUS
10
1.16181
20
0.694616
11
1.16263
21
0.700787
0
LINE
8
BLACK
6
CONTINUOUS
10
1.16263
20
0.700787
11
1.16181
21
0.706959
0
LINE
8
BLACK
6
CONTINUOUS
10
1.16181
20
0.706959
11
1.15943
21
0.71271
0
LINE
8
BLACK
6
CONTINUOUS
10
1.15943
20
0.71271
11
1.15564
21
0.717649
0
LINE
8
BLACK
6
CONTINUOUS
10
1.15564
20
0.717649
11
1.1507
21
0.721438
0
LINE
8
BLACK
6
CONTINUOUS
10
1.1507
20
0.721438
11
1.14495
21
0.723821
0
LINE
8
BLACK
6
CONTINUOUS
10
1.14495
20
0.723821
11
1.14495
21
0.723821
0
LINE
8
BLACK
6
CONTINUOUS
10
1.14495
20
0.723821
11
1.13878
21
0.724633
0
LINE
8
BLACK
6
CONTINUOUS
10
1.13878
20
0.724633
11
1.13878
21
0.724633
0
LINE
8
BLACK
6
CONTINUOUS
10
1.13878
20
0.724633
11
1.13261
21
0.723821
0
LINE
8
BLACK
6
CONTINUOUS
10
1.06469
20
0.570277
11
1.06469
21
0.570277
0
LINE
8
BLACK
6
CONTINUOUS
10
1.06469
20
0.570277
11
1.05894
21
0.567895
0
LINE
8
BLACK
6
CONTINUOUS
10
1.05894
20
0.567895
11
1.054
21
0.564106
0
LINE
8
BLACK
6
CONTINUOUS
10
1.054
20
0.564106
11
1.05022
21
0.559167
0
LINE
8
BLACK
6
CONTINUOUS
10
1.05022
20
0.559167
11
1.04783
21
0.553416
0
LINE
8
BLACK
6
CONTINUOUS
10
1.04783
20
0.553416
11
1.04783
21
0.553416
0
LINE
8
BLACK
6
CONTINUOUS
10
1.04783
20
0.553416
11
1.04702
21
0.547244
0
LINE
8
BLACK
6
CONTINUOUS
10
1.04702
20
0.547244
11
1.04702
21
0.547244
0
LINE
8
BLACK
6
CONTINUOUS
10
1.04702
20
0.547244
11
1.04783
21
0.541072
0
LINE
8
BLACK
6
CONTINUOUS
10
1.04783
20
0.541072
11
1.04783
21
0.541072
0
LINE
8
BLACK
6
CONTINUOUS
10
1.04783
20
0.541072
11
1.05022
21
0.535321
0
LINE
8
BLACK
6
CONTINUOUS
10
1.05022
20
0.535321
11
1.054
21
0.530383
0
LINE
8
BLACK
6
CONTINUOUS
10
1.054
20
0.530383
11
1.05894
21
0.526593
0
LINE
8
BLACK
6
CONTINUOUS
10
1.05894
20
0.526593
11
1.06469
21
0.524211
0
LINE
8
BLACK
6
CONTINUOUS
10
1.06469
20
0.524211
11
1.06778
21
0.523805
0
LINE
8
BLACK
6
CONTINUOUS
10
1.06778
20
0.523805
11
1.07087
21
0.523398
0
LINE
8
BLACK
6
CONTINUOUS
10
1.07087
20
0.523398
11
1.07087
21
0.523398
0
LINE
8
BLACK
6
CONTINUOUS
10
1.07087
20
0.523398
11
1.07087
21
0.523398
0
LINE
8
BLACK
6
CONTINUOUS
10
1.07087
20
0.523398
11
1.07292
21
0.523669
0
LINE
8
BLACK
6
CONTINUOUS
10
1.07292
20
0.523669
11
1.07704
21
0.524211
0
LINE
8
BLACK
6
CONTINUOUS
10
1.07704
20
0.524211
11
1.08279
21
0.526593
0
LINE
8
BLACK
6
CONTINUOUS
10
1.08279
20
0.526593
11
1.08773
21
0.530383
0
LINE
8
BLACK
6
CONTINUOUS
10
1.08773
20
0.530383
11
1.08861
21
0.531535
0
LINE
8
BLACK
6
CONTINUOUS
10
1.08861
20
0.531535
11
1.09083
21
0.533157
0
LINE
8
BLACK
6
CONTINUOUS
10
1.09083
20
0.533157
11
1.09248
21
0.533445
0
LINE
8
BLACK
6
CONTINUOUS
10
1.09248
20
0.533445
11
1.20191
21
0.533445
0
LINE
8
BLACK
6
CONTINUOUS
10
1.20191
20
0.533445
11
1.20455
21
0.53267
0
LINE
8
BLACK
6
CONTINUOUS
10
1.20455
20
0.53267
11
1.20536
21
0.532015
0
LINE
8
BLACK
6
CONTINUOUS
10
1.20536
20
0.532015
11
1.25507
21
0.4823
0
LINE
8
BLACK
6
CONTINUOUS
10
1.25507
20
0.4823
11
1.25639
21
0.479886
0
LINE
8
BLACK
6
CONTINUOUS
10
1.25639
20
0.479886
11
1.2562
21
0.477142
0
LINE
8
BLACK
6
CONTINUOUS
10
1.2562
20
0.477142
11
1.25455
21
0.47494
0
LINE
8
BLACK
6
CONTINUOUS
10
1.25455
20
0.47494
11
1.25197
21
0.473979
0
LINE
8
BLACK
6
CONTINUOUS
10
1.25197
20
0.473979
11
1.25162
21
0.473967
0
LINE
8
BLACK
6
CONTINUOUS
10
1.25162
20
0.473967
11
1.24796
21
0.473967
0
LINE
8
BLACK
6
CONTINUOUS
10
1.24796
20
0.473967
11
1.24566
21
0.473509
0
LINE
8
BLACK
6
CONTINUOUS
10
1.24566
20
0.473509
11
1.24566
21
0.473509
0
LINE
8
BLACK
6
CONTINUOUS
10
1.24566
20
0.473509
11
1.24305
21
0.471764
0
LINE
8
BLACK
6
CONTINUOUS
10
1.24305
20
0.471764
11
1.2413
21
0.469153
0
LINE
8
BLACK
6
CONTINUOUS
10
1.2413
20
0.469153
11
1.2413
21
0.469153
0
LINE
8
BLACK
6
CONTINUOUS
10
1.2413
20
0.469153
11
1.24085
21
0.466851
0
LINE
8
BLACK
6
CONTINUOUS
10
1.24085
20
0.466851
11
1.24085
21
0.405295
0
LINE
8
BLACK
6
CONTINUOUS
10
1.24085
20
0.405295
11
1.2413
21
0.402993
0
LINE
8
BLACK
6
CONTINUOUS
10
1.2413
20
0.402993
11
1.2413
21
0.402993
0
LINE
8
BLACK
6
CONTINUOUS
10
1.2413
20
0.402993
11
1.24305
21
0.400382
0
LINE
8
BLACK
6
CONTINUOUS
10
1.24305
20
0.400382
11
1.24566
21
0.398637
0
LINE
8
BLACK
6
CONTINUOUS
10
1.24566
20
0.398637
11
1.24566
21
0.398637
0
LINE
8
BLACK
6
CONTINUOUS
10
1.24566
20
0.398637
11
1.24796
21
0.398179
0
LINE
8
BLACK
6
CONTINUOUS
10
1.24796
20
0.398179
11
1.24796
21
0.398179
0
LINE
8
BLACK
6
CONTINUOUS
10
1.24796
20
0.398179
11
1.24796
21
0.398179
0
LINE
8
BLACK
6
CONTINUOUS
10
1.24796
20
0.398179
11
1.30952
21
0.398179
0
LINE
8
BLACK
6
CONTINUOUS
10
1.30952
20
0.398179
11
1.30952
21
0.398179
0
LINE
8
BLACK
6
CONTINUOUS
10
1.30952
20
0.398179
11
1.3101
21
0.398295
0
LINE
8
BLACK
6
CONTINUOUS
10
1.3101
20
0.398295
11
1.31182
21
0.398637
0
LINE
8
BLACK
6
CONTINUOUS
10
1.31182
20
0.398637
11
1.31182
21
0.398637
0
LINE
8
BLACK
6
CONTINUOUS
10
1.31182
20
0.398637
11
1.31182
21
0.398637
0
LINE
8
BLACK
6
CONTINUOUS
10
1.31182
20
0.398637
11
1.31443
21
0.400382
0
LINE
8
BLACK
6
CONTINUOUS
10
1.31443
20
0.400382
11
1.31618
21
0.402993
0
LINE
8
BLACK
6
CONTINUOUS
10
1.31618
20
0.402993
11
1.31618
21
0.402993
0
LINE
8
BLACK
6
CONTINUOUS
10
1.31618
20
0.402993
11
1.31618
21
0.402993
0
LINE
8
BLACK
6
CONTINUOUS
10
1.31618
20
0.402993
11
1.31663
21
0.405295
0
LINE
8
BLACK
6
CONTINUOUS
10
1.31663
20
0.405295
11
1.31663
21
0.405295
0
LINE
8
BLACK
6
CONTINUOUS
10
1.31663
20
0.405295
11
1.31663
21
0.46685
0
LINE
8
BLACK
6
CONTINUOUS
10
1.31663
20
0.46685
11
1.31663
21
0.466851
0
LINE
8
BLACK
6
CONTINUOUS
10
1.31663
20
0.466851
11
1.31618
21
0.469153
0
LINE
8
BLACK
6
CONTINUOUS
10
1.31618
20
0.469153
11
1.31618
21
0.469153
0
LINE
8
BLACK
6
CONTINUOUS
10
1.31618
20
0.469153
11
1.31443
21
0.471764
0
LINE
8
BLACK
6
CONTINUOUS
10
1.31443
20
0.471764
11
1.31182
21
0.473509
0
LINE
8
BLACK
6
CONTINUOUS
10
1.31182
20
0.473509
11
1.31182
21
0.473509
0
LINE
8
BLACK
6
CONTINUOUS
10
1.31182
20
0.473509
11
1.30952
21
0.473967
0
LINE
8
BLACK
6
CONTINUOUS
10
1.30952
20
0.473967
11
1.30952
21
0.473967
0
LINE
8
BLACK
6
CONTINUOUS
10
1.30952
20
0.473967
11
1.29748
21
0.473967
0
LINE
8
BLACK
6
CONTINUOUS
10
1.29748
20
0.473967
11
1.29484
21
0.474742
0
LINE
8
BLACK
6
CONTINUOUS
10
1.29484
20
0.474742
11
1.29304
21
0.47682
0
LINE
8
BLACK
6
CONTINUOUS
10
1.29304
20
0.47682
11
1.29263
21
0.478244
0
LINE
8
BLACK
6
CONTINUOUS
10
1.29263
20
0.478244
11
1.29256
21
0.478856
0
LINE
8
BLACK
6
CONTINUOUS
10
1.29256
20
0.478856
11
1.29254
21
0.479158
0
LINE
8
BLACK
6
CONTINUOUS
10
1.29254
20
0.479158
11
1.29254
21
0.479293
0
LINE
8
BLACK
6
CONTINUOUS
10
1.29254
20
0.479293
11
1.29248
21
0.479665
0
LINE
8
BLACK
6
CONTINUOUS
10
1.29248
20
0.479665
11
1.29241
21
0.480091
0
LINE
8
BLACK
6
CONTINUOUS
10
1.29241
20
0.480091
11
1.29239
21
0.480189
0
LINE
8
BLACK
6
CONTINUOUS
10
1.29239
20
0.480189
11
1.29215
21
0.482141
0
LINE
8
BLACK
6
CONTINUOUS
10
1.29215
20
0.482141
11
1.29207
21
0.482419
0
LINE
8
BLACK
6
CONTINUOUS
10
1.29207
20
0.482419
11
1.29197
21
0.482692
0
LINE
8
BLACK
6
CONTINUOUS
10
1.29197
20
0.482692
11
1.29104
21
0.484422
0
LINE
8
BLACK
6
CONTINUOUS
10
1.29104
20
0.484422
11
1.29099
21
0.48451
0
LINE
8
BLACK
6
CONTINUOUS
10
1.29099
20
0.48451
11
1.29043
21
0.485654
0
LINE
8
BLACK
6
CONTINUOUS
10
1.29043
20
0.485654
11
1.29013
21
0.486279
0
LINE
8
BLACK
6
CONTINUOUS
10
1.29013
20
0.486279
11
1.28996
21
0.486515
0
LINE
8
BLACK
6
CONTINUOUS
10
1.28996
20
0.486515
11
1.28978
21
0.486742
0
LINE
8
BLACK
6
CONTINUOUS
10
1.28978
20
0.486742
11
1.28978
21
0.486742
0
LINE
8
BLACK
6
CONTINUOUS
10
1.28978
20
0.486742
11
1.28833
21
0.488075
0
LINE
8
BLACK
6
CONTINUOUS
10
1.28833
20
0.488075
11
1.28826
21
0.488144
0
LINE
8
BLACK
6
CONTINUOUS
10
1.28826
20
0.488144
11
1.22077
21
0.555632
0
LINE
8
BLACK
6
CONTINUOUS
10
1.22077
20
0.555632
11
1.22014
21
0.556413
0
LINE
8
BLACK
6
CONTINUOUS
10
1.22014
20
0.556413
11
1.21994
21
0.556719
0
LINE
8
BLACK
6
CONTINUOUS
10
1.21994
20
0.556719
11
1.21892
21
0.557514
0
LINE
8
BLACK
6
CONTINUOUS
10
1.21892
20
0.557514
11
1.21869
21
0.557714
0
LINE
8
BLACK
6
CONTINUOUS
10
1.21869
20
0.557714
11
1.21859
21
0.55781
0
LINE
8
BLACK
6
CONTINUOUS
10
1.21859
20
0.55781
11
1.21794
21
0.558279
0
LINE
8
BLACK
6
CONTINUOUS
10
1.21794
20
0.558279
11
1.21786
21
0.55834
0
LINE
8
BLACK
6
CONTINUOUS
10
1.21786
20
0.55834
11
1.21679
21
0.559167
0
LINE
8
BLACK
6
CONTINUOUS
10
1.21679
20
0.559167
11
1.2163
21
0.559548
0
LINE
8
BLACK
6
CONTINUOUS
10
1.2163
20
0.559548
11
1.2163
21
0.559548
0
LINE
8
BLACK
6
CONTINUOUS
10
1.2163
20
0.559548
11
1.21605
21
0.559686
0
LINE
8
BLACK
6
CONTINUOUS
10
1.21605
20
0.559686
11
1.21579
21
0.559813
0
LINE
8
BLACK
6
CONTINUOUS
10
1.21579
20
0.559813
11
1.2139
21
0.560374
0
LINE
8
BLACK
6
CONTINUOUS
10
1.2139
20
0.560374
11
1.21381
21
0.560405
0
LINE
8
BLACK
6
CONTINUOUS
10
1.21381
20
0.560405
11
1.21195
21
0.561043
0
LINE
8
BLACK
6
CONTINUOUS
10
1.21195
20
0.561043
11
1.21166
21
0.561091
0
LINE
8
BLACK
6
CONTINUOUS
10
1.21166
20
0.561091
11
1.21138
21
0.561127
0
LINE
8
BLACK
6
CONTINUOUS
10
1.21138
20
0.561127
11
1.20945
21
0.561047
0
LINE
8
BLACK
6
CONTINUOUS
10
1.20945
20
0.561047
11
1.20941
21
0.561045
0
LINE
8
BLACK
6
CONTINUOUS
10
1.20941
20
0.561045
11
1.20931
21
0.561043
0
LINE
8
BLACK
6
CONTINUOUS
10
1.20931
20
0.561043
11
1.09248
21
0.561043
0
LINE
8
BLACK
6
CONTINUOUS
10
1.09248
20
0.561043
11
1.08985
21
0.561818
0
LINE
8
BLACK
6
CONTINUOUS
10
1.08985
20
0.561818
11
1.08861
21
0.562953
0
LINE
8
BLACK
6
CONTINUOUS
10
1.08861
20
0.562953
11
1.08773
21
0.564106
0
LINE
8
BLACK
6
CONTINUOUS
10
1.08773
20
0.564106
11
1.08279
21
0.567895
0
LINE
8
BLACK
6
CONTINUOUS
10
1.08279
20
0.567895
11
1.07704
21
0.570277
0
LINE
8
BLACK
6
CONTINUOUS
10
1.07704
20
0.570277
11
1.07704
21
0.570277
0
LINE
8
BLACK
6
CONTINUOUS
10
1.07704
20
0.570277
11
1.07087
21
0.57109
0
LINE
8
BLACK
6
CONTINUOUS
10
1.07087
20
0.57109
11
1.07087
21
0.57109
0
LINE
8
BLACK
6
CONTINUOUS
10
1.07087
20
0.57109
11
1.06469
21
0.570277
0
LINE
8
BLACK
6
CONTINUOUS
10
0.642092
20
0.40255
11
0.642092
21
0.40255
0
LINE
8
BLACK
6
CONTINUOUS
10
0.642092
20
0.40255
11
0.643836
21
0.399939
0
LINE
8
BLACK
6
CONTINUOUS
10
0.643836
20
0.399939
11
0.646448
21
0.398194
0
LINE
8
BLACK
6
CONTINUOUS
10
0.646448
20
0.398194
11
0.646448
21
0.398194
0
LINE
8
BLACK
6
CONTINUOUS
10
0.646448
20
0.398194
11
0.64875
21
0.397736
0
LINE
8
BLACK
6
CONTINUOUS
10
0.64875
20
0.397736
11
0.64875
21
0.397736
0
LINE
8
BLACK
6
CONTINUOUS
10
0.64875
20
0.397736
11
0.64875
21
0.397736
0
LINE
8
BLACK
6
CONTINUOUS
10
0.64875
20
0.397736
11
0.710305
21
0.397736
0
LINE
8
BLACK
6
CONTINUOUS
10
0.710305
20
0.397736
11
0.710305
21
0.397736
0
LINE
8
BLACK
6
CONTINUOUS
10
0.710305
20
0.397736
11
0.710889
21
0.397852
0
LINE
8
BLACK
6
CONTINUOUS
10
0.710889
20
0.397852
11
0.712607
21
0.398194
0
LINE
8
BLACK
6
CONTINUOUS
10
0.712607
20
0.398194
11
0.712607
21
0.398194
0
LINE
8
BLACK
6
CONTINUOUS
10
0.712607
20
0.398194
11
0.712608
21
0.398194
0
LINE
8
BLACK
6
CONTINUOUS
10
0.712608
20
0.398194
11
0.715219
21
0.399939
0
LINE
8
BLACK
6
CONTINUOUS
10
0.715219
20
0.399939
11
0.716963
21
0.40255
0
LINE
8
BLACK
6
CONTINUOUS
10
0.716963
20
0.40255
11
0.716963
21
0.40255
0
LINE
8
BLACK
6
CONTINUOUS
10
0.716963
20
0.40255
11
0.716963
21
0.40255
0
LINE
8
BLACK
6
CONTINUOUS
10
0.716963
20
0.40255
11
0.717421
21
0.404852
0
LINE
8
BLACK
6
CONTINUOUS
10
0.717421
20
0.404852
11
0.717421
21
0.404852
0
LINE
8
BLACK
6
CONTINUOUS
10
0.717421
20
0.404852
11
0.717421
21
0.466408
0
LINE
8
BLACK
6
CONTINUOUS
10
0.717421
20
0.466408
11
0.717421
21
0.466408
0
LINE
8
BLACK
6
CONTINUOUS
10
0.717421
20
0.466408
11
0.716963
21
0.46871
0
LINE
8
BLACK
6
CONTINUOUS
10
0.716963
20
0.46871
11
0.716963
21
0.46871
0
LINE
8
BLACK
6
CONTINUOUS
10
0.716963
20
0.46871
11
0.715219
21
0.471321
0
LINE
8
BLACK
6
CONTINUOUS
10
0.715219
20
0.471321
11
0.712607
21
0.473066
0
LINE
8
BLACK
6
CONTINUOUS
10
0.712607
20
0.473066
11
0.712163
21
0.47325
0
LINE
8
BLACK
6
CONTINUOUS
10
0.712163
20
0.47325
11
0.712213
21
0.473369
0
LINE
8
BLACK
6
CONTINUOUS
10
0.712213
20
0.473369
11
0.710469
21
0.474281
0
LINE
8
BLACK
6
CONTINUOUS
10
0.710469
20
0.474281
11
0.709108
21
0.476672
0
LINE
8
BLACK
6
CONTINUOUS
10
0.709108
20
0.476672
11
0.709255
21
0.479418
0
LINE
8
BLACK
6
CONTINUOUS
10
0.709255
20
0.479418
11
0.710407
21
0.481246
0
LINE
8
BLACK
6
CONTINUOUS
10
0.710407
20
0.481246
11
0.859601
21
0.63044
0
LINE
8
BLACK
6
CONTINUOUS
10
0.859601
20
0.63044
11
0.862015
21
0.631759
0
LINE
8
BLACK
6
CONTINUOUS
10
0.862015
20
0.631759
11
0.863053
21
0.63187
0
LINE
8
BLACK
6
CONTINUOUS
10
0.863053
20
0.63187
11
1.18015
21
0.63187
0
LINE
8
BLACK
6
CONTINUOUS
10
1.18015
20
0.63187
11
1.18115
21
0.631766
0
LINE
8
BLACK
6
CONTINUOUS
10
1.18115
20
0.631766
11
1.18151
21
0.631691
0
LINE
8
BLACK
6
CONTINUOUS
10
1.18151
20
0.631691
11
1.18213
21
0.631768
0
LINE
8
BLACK
6
CONTINUOUS
10
1.18213
20
0.631768
11
1.18279
21
0.631851
0
LINE
8
BLACK
6
CONTINUOUS
10
1.18279
20
0.631851
11
1.1831
21
0.63187
0
LINE
8
BLACK
6
CONTINUOUS
10
1.1831
20
0.63187
11
1.18323
21
0.63187
0
LINE
8
BLACK
6
CONTINUOUS
10
1.18323
20
0.63187
11
1.18323
21
0.63187
0
LINE
8
BLACK
6
CONTINUOUS
10
1.18323
20
0.63187
11
1.18359
21
0.631931
0
LINE
8
BLACK
6
CONTINUOUS
10
1.18359
20
0.631931
11
1.18403
21
0.632003
0
LINE
8
BLACK
6
CONTINUOUS
10
1.18403
20
0.632003
11
1.18413
21
0.632018
0
LINE
8
BLACK
6
CONTINUOUS
10
1.18413
20
0.632018
11
1.18608
21
0.632261
0
LINE
8
BLACK
6
CONTINUOUS
10
1.18608
20
0.632261
11
1.18608
21
0.632261
0
LINE
8
BLACK
6
CONTINUOUS
10
1.18608
20
0.632261
11
1.18636
21
0.632344
0
LINE
8
BLACK
6
CONTINUOUS
10
1.18636
20
0.632344
11
1.18663
21
0.632437
0
LINE
8
BLACK
6
CONTINUOUS
10
1.18663
20
0.632437
11
1.18663
21
0.632437
0
LINE
8
BLACK
6
CONTINUOUS
10
1.18663
20
0.632437
11
1.18777
21
0.633053
0
LINE
8
BLACK
6
CONTINUOUS
10
1.18777
20
0.633053
11
1.18836
21
0.633374
0
LINE
8
BLACK
6
CONTINUOUS
10
1.18836
20
0.633374
11
1.18845
21
0.63342
0
LINE
8
BLACK
6
CONTINUOUS
10
1.18845
20
0.63342
11
1.19022
21
0.634284
0
LINE
8
BLACK
6
CONTINUOUS
10
1.19022
20
0.634284
11
1.19022
21
0.634284
0
LINE
8
BLACK
6
CONTINUOUS
10
1.19022
20
0.634284
11
1.19045
21
0.634451
0
LINE
8
BLACK
6
CONTINUOUS
10
1.19045
20
0.634451
11
1.19068
21
0.634629
0
LINE
8
BLACK
6
CONTINUOUS
10
1.19068
20
0.634629
11
1.19068
21
0.634629
0
LINE
8
BLACK
6
CONTINUOUS
10
1.19068
20
0.634629
11
1.19201
21
0.636077
0
LINE
8
BLACK
6
CONTINUOUS
10
1.19201
20
0.636077
11
1.19208
21
0.636148
0
LINE
8
BLACK
6
CONTINUOUS
10
1.19208
20
0.636148
11
1.19329
21
0.637357
0
LINE
8
BLACK
6
CONTINUOUS
10
1.19329
20
0.637357
11
1.1957
21
0.638676
0
LINE
8
BLACK
6
CONTINUOUS
10
1.1957
20
0.638676
11
1.19738
21
0.638745
0
LINE
8
BLACK
6
CONTINUOUS
10
1.19738
20
0.638745
11
1.19882
21
0.638556
0
LINE
8
BLACK
6
CONTINUOUS
10
1.19882
20
0.638556
11
1.20499
21
0.639368
0
LINE
8
BLACK
6
CONTINUOUS
10
1.20499
20
0.639368
11
1.21074
21
0.641751
0
LINE
8
BLACK
6
CONTINUOUS
10
1.21074
20
0.641751
11
1.21568
21
0.64554
0
LINE
8
BLACK
6
CONTINUOUS
10
1.21568
20
0.64554
11
1.21947
21
0.650479
0
LINE
8
BLACK
6
CONTINUOUS
10
1.21947
20
0.650479
11
1.22185
21
0.65623
0
LINE
8
BLACK
6
CONTINUOUS
10
1.22185
20
0.65623
11
1.22266
21
0.662402
0
LINE
8
BLACK
6
CONTINUOUS
10
1.22266
20
0.662402
11
1.22185
21
0.668573
0
LINE
8
BLACK
6
CONTINUOUS
10
1.22185
20
0.668573
11
1.21947
21
0.674324
0
LINE
8
BLACK
6
CONTINUOUS
10
1.21947
20
0.674324
11
1.21568
21
0.679263
0
LINE
8
BLACK
6
CONTINUOUS
10
1.21568
20
0.679263
11
1.21074
21
0.683053
0
LINE
8
BLACK
6
CONTINUOUS
10
1.21074
20
0.683053
11
1.20863
21
0.683926
0
LINE
8
BLACK
6
CONTINUOUS
10
1.20863
20
0.683926
11
1.20499
21
0.685435
0
LINE
8
BLACK
6
CONTINUOUS
10
1.20499
20
0.685435
11
1.20499
21
0.685435
0
LINE
8
BLACK
6
CONTINUOUS
10
1.20499
20
0.685435
11
1.19882
21
0.686247
0
LINE
8
BLACK
6
CONTINUOUS
10
1.19882
20
0.686247
11
1.19882
21
0.686247
0
LINE
8
BLACK
6
CONTINUOUS
10
1.19882
20
0.686247
11
1.19265
21
0.685435
0
LINE
8
BLACK
6
CONTINUOUS
10
1.19265
20
0.685435
11
1.19265
21
0.685435
0
LINE
8
BLACK
6
CONTINUOUS
10
1.19265
20
0.685435
11
1.1869
21
0.683053
0
LINE
8
BLACK
6
CONTINUOUS
10
1.1869
20
0.683053
11
1.18196
21
0.679263
0
LINE
8
BLACK
6
CONTINUOUS
10
1.18196
20
0.679263
11
1.17817
21
0.674324
0
LINE
8
BLACK
6
CONTINUOUS
10
1.17817
20
0.674324
11
1.17579
21
0.668573
0
LINE
8
BLACK
6
CONTINUOUS
10
1.17579
20
0.668573
11
1.17579
21
0.668573
0
LINE
8
BLACK
6
CONTINUOUS
10
1.17579
20
0.668573
11
1.17515
21
0.663713
0
LINE
8
BLACK
6
CONTINUOUS
10
1.17515
20
0.663713
11
1.17403
21
0.661198
0
LINE
8
BLACK
6
CONTINUOUS
10
1.17403
20
0.661198
11
1.17174
21
0.659683
0
LINE
8
BLACK
6
CONTINUOUS
10
1.17174
20
0.659683
11
1.17031
21
0.659469
0
LINE
8
BLACK
6
CONTINUOUS
10
1.17031
20
0.659469
11
0.857252
21
0.659469
0
LINE
8
BLACK
6
CONTINUOUS
10
0.857252
20
0.659469
11
0.856251
21
0.659572
0
LINE
8
BLACK
6
CONTINUOUS
10
0.856251
20
0.659572
11
0.855893
21
0.659647
0
LINE
8
BLACK
6
CONTINUOUS
10
0.855893
20
0.659647
11
0.855893
21
0.659647
0
LINE
8
BLACK
6
CONTINUOUS
10
0.855893
20
0.659647
11
0.855893
21
0.659647
0
LINE
8
BLACK
6
CONTINUOUS
10
0.855893
20
0.659647
11
0.854609
21
0.659487
0
LINE
8
BLACK
6
CONTINUOUS
10
0.854609
20
0.659487
11
0.854307
21
0.659469
0
LINE
8
BLACK
6
CONTINUOUS
10
0.854307
20
0.659469
11
0.854172
21
0.659469
0
LINE
8
BLACK
6
CONTINUOUS
10
0.854172
20
0.659469
11
0.853375
21
0.659336
0
LINE
8
BLACK
6
CONTINUOUS
10
0.853375
20
0.659336
11
0.853276
21
0.659321
0
LINE
8
BLACK
6
CONTINUOUS
10
0.853276
20
0.659321
11
0.851323
21
0.659078
0
LINE
8
BLACK
6
CONTINUOUS
10
0.851323
20
0.659078
11
0.851045
21
0.658995
0
LINE
8
BLACK
6
CONTINUOUS
10
0.851045
20
0.658995
11
0.850772
21
0.658901
0
LINE
8
BLACK
6
CONTINUOUS
10
0.850772
20
0.658901
11
0.849042
21
0.657965
0
LINE
8
BLACK
6
CONTINUOUS
10
0.849042
20
0.657965
11
0.848953
21
0.657919
0
LINE
8
BLACK
6
CONTINUOUS
10
0.848953
20
0.657919
11
0.847186
21
0.657055
0
LINE
8
BLACK
6
CONTINUOUS
10
0.847186
20
0.657055
11
0.846951
21
0.656888
0
LINE
8
BLACK
6
CONTINUOUS
10
0.846951
20
0.656888
11
0.846722
21
0.656709
0
LINE
8
BLACK
6
CONTINUOUS
10
0.846722
20
0.656709
11
0.84539
21
0.655263
0
LINE
8
BLACK
6
CONTINUOUS
10
0.84539
20
0.655263
11
0.84532
21
0.65519
0
LINE
8
BLACK
6
CONTINUOUS
10
0.84532
20
0.65519
11
0.67114
21
0.481009
0
LINE
8
BLACK
6
CONTINUOUS
10
0.67114
20
0.481009
11
0.670359
21
0.480375
0
LINE
8
BLACK
6
CONTINUOUS
10
0.670359
20
0.480375
11
0.670052
21
0.480175
0
LINE
8
BLACK
6
CONTINUOUS
10
0.670052
20
0.480175
11
0.669258
21
0.479154
0
LINE
8
BLACK
6
CONTINUOUS
10
0.669258
20
0.479154
11
0.669058
21
0.478927
0
LINE
8
BLACK
6
CONTINUOUS
10
0.669058
20
0.478927
11
0.668962
21
0.478831
0
LINE
8
BLACK
6
CONTINUOUS
10
0.668962
20
0.478831
11
0.668962
21
0.478831
0
LINE
8
BLACK
6
CONTINUOUS
10
0.668962
20
0.478831
11
0.668492
21
0.478173
0
LINE
8
BLACK
6
CONTINUOUS
10
0.668492
20
0.478173
11
0.668432
21
0.478092
0
LINE
8
BLACK
6
CONTINUOUS
10
0.668432
20
0.478092
11
0.667224
21
0.47654
0
LINE
8
BLACK
6
CONTINUOUS
10
0.667224
20
0.47654
11
0.667086
21
0.476285
0
LINE
8
BLACK
6
CONTINUOUS
10
0.667086
20
0.476285
11
0.667075
21
0.476263
0
LINE
8
BLACK
6
CONTINUOUS
10
0.667075
20
0.476263
11
0.667072
21
0.47626
0
LINE
8
BLACK
6
CONTINUOUS
10
0.667072
20
0.47626
11
0.666976
21
0.476083
0
LINE
8
BLACK
6
CONTINUOUS
10
0.666976
20
0.476083
11
0.66682
21
0.475832
0
LINE
8
BLACK
6
CONTINUOUS
10
0.66682
20
0.475832
11
0.666731
21
0.475707
0
LINE
8
BLACK
6
CONTINUOUS
10
0.666731
20
0.475707
11
0.666632
21
0.475778
0
LINE
8
BLACK
6
CONTINUOUS
10
0.666632
20
0.475778
11
0.66522
21
0.474232
0
LINE
8
BLACK
6
CONTINUOUS
10
0.66522
20
0.474232
11
0.662688
21
0.473524
0
LINE
8
BLACK
6
CONTINUOUS
10
0.662688
20
0.473524
11
0.64875
21
0.473524
0
LINE
8
BLACK
6
CONTINUOUS
10
0.64875
20
0.473524
11
0.646448
21
0.473066
0
LINE
8
BLACK
6
CONTINUOUS
10
0.646448
20
0.473066
11
0.646448
21
0.473066
0
LINE
8
BLACK
6
CONTINUOUS
10
0.646448
20
0.473066
11
0.643836
21
0.471321
0
LINE
8
BLACK
6
CONTINUOUS
10
0.643836
20
0.471321
11
0.642092
21
0.46871
0
LINE
8
BLACK
6
CONTINUOUS
10
0.642092
20
0.46871
11
0.642092
21
0.46871
0
LINE
8
BLACK
6
CONTINUOUS
10
0.642092
20
0.46871
11
0.641634
21
0.466408
0
LINE
8
BLACK
6
CONTINUOUS
10
0.641634
20
0.466408
11
0.641634
21
0.404852
0
LINE
8
BLACK
6
CONTINUOUS
10
0.641634
20
0.404852
11
0.642092
21
0.40255
0
LINE
8
BLACK
6
CONTINUOUS
10
1.20874
20
0.406073
11
1.14874
21
0.406073
0
LINE
8
BLACK
6
CONTINUOUS
10
1.14874
20
0.406073
11
1.14874
21
0.466073
0
LINE
8
BLACK
6
CONTINUOUS
10
1.14874
20
0.466073
11
1.20874
21
0.466073
0
LINE
8
BLACK
6
CONTINUOUS
10
1.20874
20
0.466073
11
1.20874
21
0.406073
0
LINE
8
BLACK
6
CONTINUOUS
10
1.3413
20
0.402993
11
1.3413
21
0.402993
0
LINE
8
BLACK
6
CONTINUOUS
10
1.3413
20
0.402993
11
1.34305
21
0.400382
0
LINE
8
BLACK
6
CONTINUOUS
10
1.34305
20
0.400382
11
1.34566
21
0.398637
0
LINE
8
BLACK
6
CONTINUOUS
10
1.34566
20
0.398637
11
1.34566
21
0.398637
0
LINE
8
BLACK
6
CONTINUOUS
10
1.34566
20
0.398637
11
1.34796
21
0.398179
0
LINE
8
BLACK
6
CONTINUOUS
10
1.34796
20
0.398179
11
1.34796
21
0.398179
0
LINE
8
BLACK
6
CONTINUOUS
10
1.34796
20
0.398179
11
1.34796
21
0.398179
0
LINE
8
BLACK
6
CONTINUOUS
10
1.34796
20
0.398179
11
1.40952
21
0.398179
0
LINE
8
BLACK
6
CONTINUOUS
10
1.40952
20
0.398179
11
1.40952
21
0.398179
0
LINE
8
BLACK
6
CONTINUOUS
10
1.40952
20
0.398179
11
1.4101
21
0.398295
0
LINE
8
BLACK
6
CONTINUOUS
10
1.4101
20
0.398295
11
1.41182
21
0.398637
0
LINE
8
BLACK
6
CONTINUOUS
10
1.41182
20
0.398637
11
1.41182
21
0.398637
0
LINE
8
BLACK
6
CONTINUOUS
10
1.41182
20
0.398637
11
1.41182
21
0.398637
0
LINE
8
BLACK
6
CONTINUOUS
10
1.41182
20
0.398637
11
1.41443
21
0.400382
0
LINE
8
BLACK
6
CONTINUOUS
10
1.41443
20
0.400382
11
1.41618
21
0.402993
0
LINE
8
BLACK
6
CONTINUOUS
10
1.41618
20
0.402993
11
1.41618
21
0.402993
0
LINE
8
BLACK
6
CONTINUOUS
10
1.41618
20
0.402993
11
1.41618
21
0.402993
0
LINE
8
BLACK
6
CONTINUOUS
10
1.41618
20
0.402993
11
1.41663
21
0.405295
0
LINE
8
BLACK
6
CONTINUOUS
10
1.41663
20
0.405295
11
1.41663
21
0.405295
0
LINE
8
BLACK
6
CONTINUOUS
10
1.41663
20
0.405295
11
1.41663
21
0.46685
0
LINE
8
BLACK
6
CONTINUOUS
10
1.41663
20
0.46685
11
1.41663
21
0.466851
0
LINE
8
BLACK
6
CONTINUOUS
10
1.41663
20
0.466851
11
1.41618
21
0.469153
0
LINE
8
BLACK
6
CONTINUOUS
10
1.41618
20
0.469153
11
1.41618
21
0.469153
0
LINE
8
BLACK
6
CONTINUOUS
10
1.41618
20
0.469153
11
1.41443
21
0.471764
0
LINE
8
BLACK
6
CONTINUOUS
10
1.41443
20
0.471764
11
1.41182
21
0.473509
0
LINE
8
BLACK
6
CONTINUOUS
10
1.41182
20
0.473509
11
1.41182
21
0.473509
0
LINE
8
BLACK
6
CONTINUOUS
10
1.41182
20
0.473509
11
1.40952
21
0.473967
0
LINE
8
BLACK
6
CONTINUOUS
10
1.40952
20
0.473967
11
1.40952
21
0.473967
0
LINE
8
BLACK
6
CONTINUOUS
10
1.40952
20
0.473967
11
1.34796
21
0.473967
0
LINE
8
BLACK
6
CONTINUOUS
10
1.34796
20
0.473967
11
1.34796
21
0.473967
0
LINE
8
BLACK
6
CONTINUOUS
10
1.34796
20
0.473967
11
1.34566
21
0.473509
0
LINE
8
BLACK
6
CONTINUOUS
10
1.34566
20
0.473509
11
1.34566
21
0.473509
0
LINE
8
BLACK
6
CONTINUOUS
10
1.34566
20
0.473509
11
1.34305
21
0.471764
0
LINE
8
BLACK
6
CONTINUOUS
10
1.34305
20
0.471764
11
1.3413
21
0.469153
0
LINE
8
BLACK
6
CONTINUOUS
10
1.3413
20
0.469153
11
1.3413
21
0.469153
0
LINE
8
BLACK
6
CONTINUOUS
10
1.3413
20
0.469153
11
1.34085
21
0.466851
0
LINE
8
BLACK
6
CONTINUOUS
10
1.34085
20
0.466851
11
1.34085
21
0.405295
0
LINE
8
BLACK
6
CONTINUOUS
10
1.34085
20
0.405295
11
1.3413
21
0.402993
0
LINE
8
BLACK
6
CONTINUOUS
10
1.83759
20
0.694916
11
1.83759
21
0.694916
0
LINE
8
BLACK
6
CONTINUOUS
10
1.83759
20
0.694916
11
1.83498
21
0.693171
0
LINE
8
BLACK
6
CONTINUOUS
10
1.83498
20
0.693171
11
1.83323
21
0.69056
0
LINE
8
BLACK
6
CONTINUOUS
10
1.83323
20
0.69056
11
1.83323
21
0.69056
0
LINE
8
BLACK
6
CONTINUOUS
10
1.83323
20
0.69056
11
1.83278
21
0.688258
0
LINE
8
BLACK
6
CONTINUOUS
10
1.83278
20
0.688258
11
1.83278
21
0.626703
0
LINE
8
BLACK
6
CONTINUOUS
10
1.83278
20
0.626703
11
1.83323
21
0.6244
0
LINE
8
BLACK
6
CONTINUOUS
10
1.83323
20
0.6244
11
1.83323
21
0.6244
0
LINE
8
BLACK
6
CONTINUOUS
10
1.83323
20
0.6244
11
1.83498
21
0.621789
0
LINE
8
BLACK
6
CONTINUOUS
10
1.83498
20
0.621789
11
1.83759
21
0.620045
0
LINE
8
BLACK
6
CONTINUOUS
10
1.83759
20
0.620045
11
1.83759
21
0.620045
0
LINE
8
BLACK
6
CONTINUOUS
10
1.83759
20
0.620045
11
1.83989
21
0.619587
0
LINE
8
BLACK
6
CONTINUOUS
10
1.83989
20
0.619587
11
1.83989
21
0.619587
0
LINE
8
BLACK
6
CONTINUOUS
10
1.83989
20
0.619587
11
1.83989
21
0.619587
0
LINE
8
BLACK
6
CONTINUOUS
10
1.83989
20
0.619587
11
1.90145
21
0.619587
0
LINE
8
BLACK
6
CONTINUOUS
10
1.90145
20
0.619587
11
1.90145
21
0.619587
0
LINE
8
BLACK
6
CONTINUOUS
10
1.90145
20
0.619587
11
1.90203
21
0.619703
0
LINE
8
BLACK
6
CONTINUOUS
10
1.90203
20
0.619703
11
1.90375
21
0.620045
0
LINE
8
BLACK
6
CONTINUOUS
10
1.90375
20
0.620045
11
1.90375
21
0.620045
0
LINE
8
BLACK
6
CONTINUOUS
10
1.90375
20
0.620045
11
1.90375
21
0.620045
0
LINE
8
BLACK
6
CONTINUOUS
10
1.90375
20
0.620045
11
1.90636
21
0.621789
0
LINE
8
BLACK
6
CONTINUOUS
10
1.90636
20
0.621789
11
1.9081
21
0.6244
0
LINE
8
BLACK
6
CONTINUOUS
10
1.9081
20
0.6244
11
1.9081
21
0.6244
0
LINE
8
BLACK
6
CONTINUOUS
10
1.9081
20
0.6244
11
1.90811
21
0.6244
0
LINE
8
BLACK
6
CONTINUOUS
10
1.90811
20
0.6244
11
1.90852
21
0.626506
0
LINE
8
BLACK
6
CONTINUOUS
10
1.90852
20
0.626506
11
1.90856
21
0.626703
0
LINE
8
BLACK
6
CONTINUOUS
10
1.90856
20
0.626703
11
1.90856
21
0.688258
0
LINE
8
BLACK
6
CONTINUOUS
10
1.90856
20
0.688258
11
1.90856
21
0.688258
0
LINE
8
BLACK
6
CONTINUOUS
10
1.90856
20
0.688258
11
1.90856
21
0.688258
0
LINE
8
BLACK
6
CONTINUOUS
10
1.90856
20
0.688258
11
1.90811
21
0.69056
0
LINE
8
BLACK
6
CONTINUOUS
10
1.90811
20
0.69056
11
1.9081
21
0.69056
0
LINE
8
BLACK
6
CONTINUOUS
10
1.9081
20
0.69056
11
1.90636
21
0.693171
0
LINE
8
BLACK
6
CONTINUOUS
10
1.90636
20
0.693171
11
1.90375
21
0.694916
0
LINE
8
BLACK
6
CONTINUOUS
10
1.90375
20
0.694916
11
1.90375
21
0.694916
0
LINE
8
BLACK
6
CONTINUOUS
10
1.90375
20
0.694916
11
1.90145
21
0.695374
0
LINE
8
BLACK
6
CONTINUOUS
10
1.90145
20
0.695374
11
1.90145
21
0.695374
0
LINE
8
BLACK
6
CONTINUOUS
10
1.90145
20
0.695374
11
1.83989
21
0.695374
0
LINE
8
BLACK
6
CONTINUOUS
10
1.83989
20
0.695374
11
1.83989
21
0.695374
0
LINE
8
BLACK
6
CONTINUOUS
10
1.83989
20
0.695374
11
1.83759
21
0.694916
0
LINE
8
BLACK
6
CONTINUOUS
10
1.83759
20
0.794916
11
1.83759
21
0.794916
0
LINE
8
BLACK
6
CONTINUOUS
10
1.83759
20
0.794916
11
1.83498
21
0.793171
0
LINE
8
BLACK
6
CONTINUOUS
10
1.83498
20
0.793171
11
1.83323
21
0.79056
0
LINE
8
BLACK
6
CONTINUOUS
10
1.83323
20
0.79056
11
1.83323
21
0.79056
0
LINE
8
BLACK
6
CONTINUOUS
10
1.83323
20
0.79056
11
1.83278
21
0.788258
0
LINE
8
BLACK
6
CONTINUOUS
10
1.83278
20
0.788258
11
1.83278
21
0.726703
0
LINE
8
BLACK
6
CONTINUOUS
10
1.83278
20
0.726703
11
1.83323
21
0.7244
0
LINE
8
BLACK
6
CONTINUOUS
10
1.83323
20
0.7244
11
1.83323
21
0.7244
0
LINE
8
BLACK
6
CONTINUOUS
10
1.83323
20
0.7244
11
1.83498
21
0.721789
0
LINE
8
BLACK
6
CONTINUOUS
10
1.83498
20
0.721789
11
1.83759
21
0.720045
0
LINE
8
BLACK
6
CONTINUOUS
10
1.83759
20
0.720045
11
1.83759
21
0.720045
0
LINE
8
BLACK
6
CONTINUOUS
10
1.83759
20
0.720045
11
1.83989
21
0.719587
0
LINE
8
BLACK
6
CONTINUOUS
10
1.83989
20
0.719587
11
1.83989
21
0.719587
0
LINE
8
BLACK
6
CONTINUOUS
10
1.83989
20
0.719587
11
1.83989
21
0.719587
0
LINE
8
BLACK
6
CONTINUOUS
10
1.83989
20
0.719587
11
1.90145
21
0.719587
0
LINE
8
BLACK
6
CONTINUOUS
10
1.90145
20
0.719587
11
1.90145
21
0.719587
0
LINE
8
BLACK
6
CONTINUOUS
10
1.90145
20
0.719587
11
1.90203
21
0.719703
0
LINE
8
BLACK
6
CONTINUOUS
10
1.90203
20
0.719703
11
1.90375
21
0.720045
0
LINE
8
BLACK
6
CONTINUOUS
10
1.90375
20
0.720045
11
1.90375
21
0.720045
0
LINE
8
BLACK
6
CONTINUOUS
10
1.90375
20
0.720045
11
1.90375
21
0.720045
0
LINE
8
BLACK
6
CONTINUOUS
10
1.90375
20
0.720045
11
1.90636
21
0.721789
0
LINE
8
BLACK
6
CONTINUOUS
10
1.90636
20
0.721789
11
1.9081
21
0.7244
0
LINE
8
BLACK
6
CONTINUOUS
10
1.9081
20
0.7244
11
1.9081
21
0.7244
0
LINE
8
BLACK
6
CONTINUOUS
10
1.9081
20
0.7244
11
1.90811
21
0.7244
0
LINE
8
BLACK
6
CONTINUOUS
10
1.90811
20
0.7244
11
1.90856
21
0.726703
0
LINE
8
BLACK
6
CONTINUOUS
10
1.90856
20
0.726703
11
1.90856
21
0.726703
0
LINE
8
BLACK
6
CONTINUOUS
10
1.90856
20
0.726703
11
1.90856
21
0.788258
0
LINE
8
BLACK
6
CONTINUOUS
10
1.90856
20
0.788258
11
1.90856
21
0.788258
0
LINE
8
BLACK
6
CONTINUOUS
10
1.90856
20
0.788258
11
1.90811
21
0.79056
0
LINE
8
BLACK
6
CONTINUOUS
10
1.90811
20
0.79056
11
1.9081
21
0.79056
0
LINE
8
BLACK
6
CONTINUOUS
10
1.9081
20
0.79056
11
1.90636
21
0.793171
0
LINE
8
BLACK
6
CONTINUOUS
10
1.90636
20
0.793171
11
1.90375
21
0.794916
0
LINE
8
BLACK
6
CONTINUOUS
10
1.90375
20
0.794916
11
1.90375
21
0.794916
0
LINE
8
BLACK
6
CONTINUOUS
10
1.90375
20
0.794916
11
1.90145
21
0.795374
0
LINE
8
BLACK
6
CONTINUOUS
10
1.90145
20
0.795374
11
1.90145
21
0.795374
0
LINE
8
BLACK
6
CONTINUOUS
10
1.90145
20
0.795374
11
1.83989
21
0.795374
0
LINE
8
BLACK
6
CONTINUOUS
10
1.83989
20
0.795374
11
1.83989
21
0.795374
0
LINE
8
BLACK
6
CONTINUOUS
10
1.83989
20
0.795374
11
1.83759
21
0.794916
0
LINE
8
BLACK
6
CONTINUOUS
10
0.928534
20
0.805152
11
0.928534
21
0.805152
0
LINE
8
BLACK
6
CONTINUOUS
10
0.928534
20
0.805152
11
0.925923
21
0.803408
0
LINE
8
BLACK
6
CONTINUOUS
10
0.925923
20
0.803408
11
0.924178
21
0.800796
0
LINE
8
BLACK
6
CONTINUOUS
10
0.924178
20
0.800796
11
0.924178
21
0.800796
0
LINE
8
BLACK
6
CONTINUOUS
10
0.924178
20
0.800796
11
0.92372
21
0.798494
0
LINE
8
BLACK
6
CONTINUOUS
10
0.92372
20
0.798494
11
0.92372
21
0.736939
0
LINE
8
BLACK
6
CONTINUOUS
10
0.92372
20
0.736939
11
0.924178
21
0.734637
0
LINE
8
BLACK
6
CONTINUOUS
10
0.924178
20
0.734637
11
0.924178
21
0.734637
0
LINE
8
BLACK
6
CONTINUOUS
10
0.924178
20
0.734637
11
0.925923
21
0.732026
0
LINE
8
BLACK
6
CONTINUOUS
10
0.925923
20
0.732026
11
0.928534
21
0.730281
0
LINE
8
BLACK
6
CONTINUOUS
10
0.928534
20
0.730281
11
0.928534
21
0.730281
0
LINE
8
BLACK
6
CONTINUOUS
10
0.928534
20
0.730281
11
0.930836
21
0.729823
0
LINE
8
BLACK
6
CONTINUOUS
10
0.930836
20
0.729823
11
0.930837
21
0.729823
0
LINE
8
BLACK
6
CONTINUOUS
10
0.930837
20
0.729823
11
0.930837
21
0.729823
0
LINE
8
BLACK
6
CONTINUOUS
10
0.930837
20
0.729823
11
0.992392
21
0.729823
0
LINE
8
BLACK
6
CONTINUOUS
10
0.992392
20
0.729823
11
0.992392
21
0.729823
0
LINE
8
BLACK
6
CONTINUOUS
10
0.992392
20
0.729823
11
0.992975
21
0.729939
0
LINE
8
BLACK
6
CONTINUOUS
10
0.992975
20
0.729939
11
0.994694
21
0.730281
0
LINE
8
BLACK
6
CONTINUOUS
10
0.994694
20
0.730281
11
0.994694
21
0.730281
0
LINE
8
BLACK
6
CONTINUOUS
10
0.994694
20
0.730281
11
0.994694
21
0.730281
0
LINE
8
BLACK
6
CONTINUOUS
10
0.994694
20
0.730281
11
0.997305
21
0.732026
0
LINE
8
BLACK
6
CONTINUOUS
10
0.997305
20
0.732026
11
0.99905
21
0.734637
0
LINE
8
BLACK
6
CONTINUOUS
10
0.99905
20
0.734637
11
0.99905
21
0.734637
0
LINE
8
BLACK
6
CONTINUOUS
10
0.99905
20
0.734637
11
0.99905
21
0.734637
0
LINE
8
BLACK
6
CONTINUOUS
10
0.99905
20
0.734637
11
0.999508
21
0.736939
0
LINE
8
BLACK
6
CONTINUOUS
10
0.999508
20
0.736939
11
0.999508
21
0.736939
0
LINE
8
BLACK
6
CONTINUOUS
10
0.999508
20
0.736939
11
0.999508
21
0.798494
0
LINE
8
BLACK
6
CONTINUOUS
10
0.999508
20
0.798494
11
0.999508
21
0.798494
0
LINE
8
BLACK
6
CONTINUOUS
10
0.999508
20
0.798494
11
0.99905
21
0.800796
0
LINE
8
BLACK
6
CONTINUOUS
10
0.99905
20
0.800796
11
0.99905
21
0.800796
0
LINE
8
BLACK
6
CONTINUOUS
10
0.99905
20
0.800796
11
0.997305
21
0.803408
0
LINE
8
BLACK
6
CONTINUOUS
10
0.997305
20
0.803408
11
0.994694
21
0.805152
0
LINE
8
BLACK
6
CONTINUOUS
10
0.994694
20
0.805152
11
0.994694
21
0.805152
0
LINE
8
BLACK
6
CONTINUOUS
10
0.994694
20
0.805152
11
0.992392
21
0.80561
0
LINE
8
BLACK
6
CONTINUOUS
10
0.992392
20
0.80561
11
0.992392
21
0.80561
0
LINE
8
BLACK
6
CONTINUOUS
10
0.992392
20
0.80561
11
0.930837
21
0.80561
0
LINE
8
BLACK
6
CONTINUOUS
10
0.930837
20
0.80561
11
0.930836
21
0.80561
0
LINE
8
BLACK
6
CONTINUOUS
10
0.930836
20
0.80561
11
0.928534
21
0.805152
0
LINE
8
BLACK
6
CONTINUOUS
10
1.02418
20
0.734637
11
1.02418
21
0.734637
0
LINE
8
BLACK
6
CONTINUOUS
10
1.02418
20
0.734637
11
1.02592
21
0.732026
0
LINE
8
BLACK
6
CONTINUOUS
10
1.02592
20
0.732026
11
1.02853
21
0.730281
0
LINE
8
BLACK
6
CONTINUOUS
10
1.02853
20
0.730281
11
1.02853
21
0.730281
0
LINE
8
BLACK
6
CONTINUOUS
10
1.02853
20
0.730281
11
1.03084
21
0.729823
0
LINE
8
BLACK
6
CONTINUOUS
10
1.03084
20
0.729823
11
1.03084
21
0.729823
0
LINE
8
BLACK
6
CONTINUOUS
10
1.03084
20
0.729823
11
1.03084
21
0.729823
0
LINE
8
BLACK
6
CONTINUOUS
10
1.03084
20
0.729823
11
1.09239
21
0.729823
0
LINE
8
BLACK
6
CONTINUOUS
10
1.09239
20
0.729823
11
1.09239
21
0.729823
0
LINE
8
BLACK
6
CONTINUOUS
10
1.09239
20
0.729823
11
1.09298
21
0.729939
0
LINE
8
BLACK
6
CONTINUOUS
10
1.09298
20
0.729939
11
1.09469
21
0.730281
0
LINE
8
BLACK
6
CONTINUOUS
10
1.09469
20
0.730281
11
1.09469
21
0.730281
0
LINE
8
BLACK
6
CONTINUOUS
10
1.09469
20
0.730281
11
1.09469
21
0.730281
0
LINE
8
BLACK
6
CONTINUOUS
10
1.09469
20
0.730281
11
1.09731
21
0.732026
0
LINE
8
BLACK
6
CONTINUOUS
10
1.09731
20
0.732026
11
1.09905
21
0.734637
0
LINE
8
BLACK
6
CONTINUOUS
10
1.09905
20
0.734637
11
1.09905
21
0.734637
0
LINE
8
BLACK
6
CONTINUOUS
10
1.09905
20
0.734637
11
1.09905
21
0.734637
0
LINE
8
BLACK
6
CONTINUOUS
10
1.09905
20
0.734637
11
1.09951
21
0.736939
0
LINE
8
BLACK
6
CONTINUOUS
10
1.09951
20
0.736939
11
1.09951
21
0.736939
0
LINE
8
BLACK
6
CONTINUOUS
10
1.09951
20
0.736939
11
1.09951
21
0.798494
0
LINE
8
BLACK
6
CONTINUOUS
10
1.09951
20
0.798494
11
1.09951
21
0.798494
0
LINE
8
BLACK
6
CONTINUOUS
10
1.09951
20
0.798494
11
1.09905
21
0.800796
0
LINE
8
BLACK
6
CONTINUOUS
10
1.09905
20
0.800796
11
1.09905
21
0.800796
0
LINE
8
BLACK
6
CONTINUOUS
10
1.09905
20
0.800796
11
1.09731
21
0.803408
0
LINE
8
BLACK
6
CONTINUOUS
10
1.09731
20
0.803408
11
1.09469
21
0.805152
0
LINE
8
BLACK
6
CONTINUOUS
10
1.09469
20
0.805152
11
1.09469
21
0.805152
0
LINE
8
BLACK
6
CONTINUOUS
10
1.09469
20
0.805152
11
1.09239
21
0.80561
0
LINE
8
BLACK
6
CONTINUOUS
10
1.09239
20
0.80561
11
1.09239
21
0.80561
0
LINE
8
BLACK
6
CONTINUOUS
10
1.09239
20
0.80561
11
1.03084
21
0.80561
0
LINE
8
BLACK
6
CONTINUOUS
10
1.03084
20
0.80561
11
1.03084
21
0.80561
0
LINE
8
BLACK
6
CONTINUOUS
10
1.03084
20
0.80561
11
1.02853
21
0.805152
0
LINE
8
BLACK
6
CONTINUOUS
10
1.02853
20
0.805152
11
1.02853
21
0.805152
0
LINE
8
BLACK
6
CONTINUOUS
10
1.02853
20
0.805152
11
1.02592
21
0.803408
0
LINE
8
BLACK
6
CONTINUOUS
10
1.02592
20
0.803408
11
1.02418
21
0.800796
0
LINE
8
BLACK
6
CONTINUOUS
10
1.02418
20
0.800796
11
1.02418
21
0.800796
0
LINE
8
BLACK
6
CONTINUOUS
10
1.02418
20
0.800796
11
1.02372
21
0.798494
0
LINE
8
BLACK
6
CONTINUOUS
10
1.02372
20
0.798494
11
1.02372
21
0.736939
0
LINE
8
BLACK
6
CONTINUOUS
10
1.02372
20
0.736939
11
1.02418
21
0.734637
0
LINE
8
BLACK
6
CONTINUOUS
10
0.522129
20
0.838383
11
0.5288
21
0.836802
0
LINE
8
BLACK
6
CONTINUOUS
10
0.5288
20
0.836802
11
0.534926
21
0.833725
0
LINE
8
BLACK
6
CONTINUOUS
10
0.534926
20
0.833725
11
0.540178
21
0.829318
0
LINE
8
BLACK
6
CONTINUOUS
10
0.540178
20
0.829318
11
0.544272
21
0.823819
0
LINE
8
BLACK
6
CONTINUOUS
10
0.544272
20
0.823819
11
0.546988
21
0.817524
0
LINE
8
BLACK
6
CONTINUOUS
10
0.546988
20
0.817524
11
0.548178
21
0.810772
0
LINE
8
BLACK
6
CONTINUOUS
10
0.548178
20
0.810772
11
0.54778
21
0.803928
0
LINE
8
BLACK
6
CONTINUOUS
10
0.54778
20
0.803928
11
0.545813
21
0.79736
0
LINE
8
BLACK
6
CONTINUOUS
10
0.545813
20
0.79736
11
0.542386
21
0.791422
0
LINE
8
BLACK
6
CONTINUOUS
10
0.542386
20
0.791422
11
0.537681
21
0.786436
0
LINE
8
BLACK
6
CONTINUOUS
10
0.537681
20
0.786436
11
0.531953
21
0.782668
0
LINE
8
BLACK
6
CONTINUOUS
10
0.531953
20
0.782668
11
0.52551
21
0.780323
0
LINE
8
BLACK
6
CONTINUOUS
10
0.52551
20
0.780323
11
0.518701
21
0.779528
0
LINE
8
BLACK
6
CONTINUOUS
10
0.518701
20
0.779528
11
0.459646
21
0.779528
0
LINE
8
BLACK
6
CONTINUOUS
10
0.459646
20
0.779528
11
0.456218
21
0.779727
0
LINE
8
BLACK
6
CONTINUOUS
10
0.456218
20
0.779727
11
0.449547
21
0.781308
0
LINE
8
BLACK
6
CONTINUOUS
10
0.449547
20
0.781308
11
0.44342
21
0.784385
0
LINE
8
BLACK
6
CONTINUOUS
10
0.44342
20
0.784385
11
0.438168
21
0.788792
0
LINE
8
BLACK
6
CONTINUOUS
10
0.438168
20
0.788792
11
0.434074
21
0.794291
0
LINE
8
BLACK
6
CONTINUOUS
10
0.434074
20
0.794291
11
0.431359
21
0.800587
0
LINE
8
BLACK
6
CONTINUOUS
10
0.431359
20
0.800587
11
0.430168
21
0.807338
0
LINE
8
BLACK
6
CONTINUOUS
10
0.430168
20
0.807338
11
0.430567
21
0.814183
0
LINE
8
BLACK
6
CONTINUOUS
10
0.430567
20
0.814183
11
0.432533
21
0.82075
0
LINE
8
BLACK
6
CONTINUOUS
10
0.432533
20
0.82075
11
0.435961
21
0.826688
0
LINE
8
BLACK
6
CONTINUOUS
10
0.435961
20
0.826688
11
0.440666
21
0.831675
0
LINE
8
BLACK
6
CONTINUOUS
10
0.440666
20
0.831675
11
0.446394
21
0.835442
0
LINE
8
BLACK
6
CONTINUOUS
10
0.446394
20
0.835442
11
0.452836
21
0.837787
0
LINE
8
BLACK
6
CONTINUOUS
10
0.452836
20
0.837787
11
0.459646
21
0.838583
0
LINE
8
BLACK
6
CONTINUOUS
10
0.459646
20
0.838583
11
0.518701
21
0.838583
0
LINE
8
BLACK
6
CONTINUOUS
10
0.518701
20
0.838583
11
0.522129
21
0.838383
0
LINE
8
BLACK
6
CONTINUOUS
10
0.928534
20
0.905152
11
0.928534
21
0.905152
0
LINE
8
BLACK
6
CONTINUOUS
10
0.928534
20
0.905152
11
0.925923
21
0.903408
0
LINE
8
BLACK
6
CONTINUOUS
10
0.925923
20
0.903408
11
0.924178
21
0.900796
0
LINE
8
BLACK
6
CONTINUOUS
10
0.924178
20
0.900796
11
0.924178
21
0.900796
0
LINE
8
BLACK
6
CONTINUOUS
10
0.924178
20
0.900796
11
0.92372
21
0.898494
0
LINE
8
BLACK
6
CONTINUOUS
10
0.92372
20
0.898494
11
0.92372
21
0.836939
0
LINE
8
BLACK
6
CONTINUOUS
10
0.92372
20
0.836939
11
0.924178
21
0.834637
0
LINE
8
BLACK
6
CONTINUOUS
10
0.924178
20
0.834637
11
0.924178
21
0.834637
0
LINE
8
BLACK
6
CONTINUOUS
10
0.924178
20
0.834637
11
0.925923
21
0.832026
0
LINE
8
BLACK
6
CONTINUOUS
10
0.925923
20
0.832026
11
0.928534
21
0.830281
0
LINE
8
BLACK
6
CONTINUOUS
10
0.928534
20
0.830281
11
0.928534
21
0.830281
0
LINE
8
BLACK
6
CONTINUOUS
10
0.928534
20
0.830281
11
0.930836
21
0.829823
0
LINE
8
BLACK
6
CONTINUOUS
10
0.930836
20
0.829823
11
0.930837
21
0.829823
0
LINE
8
BLACK
6
CONTINUOUS
10
0.930837
20
0.829823
11
0.930837
21
0.829823
0
LINE
8
BLACK
6
CONTINUOUS
10
0.930837
20
0.829823
11
0.992392
21
0.829823
0
LINE
8
BLACK
6
CONTINUOUS
10
0.992392
20
0.829823
11
0.992392
21
0.829823
0
LINE
8
BLACK
6
CONTINUOUS
10
0.992392
20
0.829823
11
0.992975
21
0.829939
0
LINE
8
BLACK
6
CONTINUOUS
10
0.992975
20
0.829939
11
0.994694
21
0.830281
0
LINE
8
BLACK
6
CONTINUOUS
10
0.994694
20
0.830281
11
0.994694
21
0.830281
0
LINE
8
BLACK
6
CONTINUOUS
10
0.994694
20
0.830281
11
0.994694
21
0.830281
0
LINE
8
BLACK
6
CONTINUOUS
10
0.994694
20
0.830281
11
0.997305
21
0.832026
0
LINE
8
BLACK
6
CONTINUOUS
10
0.997305
20
0.832026
11
0.99905
21
0.834637
0
LINE
8
BLACK
6
CONTINUOUS
10
0.99905
20
0.834637
11
0.99905
21
0.834637
0
LINE
8
BLACK
6
CONTINUOUS
10
0.99905
20
0.834637
11
0.99905
21
0.834637
0
LINE
8
BLACK
6
CONTINUOUS
10
0.99905
20
0.834637
11
0.999508
21
0.836939
0
LINE
8
BLACK
6
CONTINUOUS
10
0.999508
20
0.836939
11
0.999508
21
0.836939
0
LINE
8
BLACK
6
CONTINUOUS
10
0.999508
20
0.836939
11
0.999508
21
0.898494
0
LINE
8
BLACK
6
CONTINUOUS
10
0.999508
20
0.898494
11
0.999508
21
0.898494
0
LINE
8
BLACK
6
CONTINUOUS
10
0.999508
20
0.898494
11
0.99905
21
0.900796
0
LINE
8
BLACK
6
CONTINUOUS
10
0.99905
20
0.900796
11
0.99905
21
0.900796
0
LINE
8
BLACK
6
CONTINUOUS
10
0.99905
20
0.900796
11
0.997305
21
0.903408
0
LINE
8
BLACK
6
CONTINUOUS
10
0.997305
20
0.903408
11
0.994694
21
0.905152
0
LINE
8
BLACK
6
CONTINUOUS
10
0.994694
20
0.905152
11
0.994694
21
0.905152
0
LINE
8
BLACK
6
CONTINUOUS
10
0.994694
20
0.905152
11
0.992392
21
0.90561
0
LINE
8
BLACK
6
CONTINUOUS
10
0.992392
20
0.90561
11
0.992392
21
0.90561
0
LINE
8
BLACK
6
CONTINUOUS
10
0.992392
20
0.90561
11
0.930837
21
0.90561
0
LINE
8
BLACK
6
CONTINUOUS
10
0.930837
20
0.90561
11
0.930836
21
0.90561
0
LINE
8
BLACK
6
CONTINUOUS
10
0.930836
20
0.90561
11
0.928534
21
0.905152
0
LINE
8
BLACK
6
CONTINUOUS
10
1.02418
20
0.834637
11
1.02418
21
0.834637
0
LINE
8
BLACK
6
CONTINUOUS
10
1.02418
20
0.834637
11
1.02592
21
0.832026
0
LINE
8
BLACK
6
CONTINUOUS
10
1.02592
20
0.832026
11
1.02853
21
0.830281
0
LINE
8
BLACK
6
CONTINUOUS
10
1.02853
20
0.830281
11
1.02853
21
0.830281
0
LINE
8
BLACK
6
CONTINUOUS
10
1.02853
20
0.830281
11
1.03084
21
0.829823
0
LINE
8
BLACK
6
CONTINUOUS
10
1.03084
20
0.829823
11
1.03084
21
0.829823
0
LINE
8
BLACK
6
CONTINUOUS
10
1.03084
20
0.829823
11
1.03084
21
0.829823
0
LINE
8
BLACK
6
CONTINUOUS
10
1.03084
20
0.829823
11
1.09239
21
0.829823
0
LINE
8
BLACK
6
CONTINUOUS
10
1.09239
20
0.829823
11
1.09239
21
0.829823
0
LINE
8
BLACK
6
CONTINUOUS
10
1.09239
20
0.829823
11
1.09298
21
0.829939
0
LINE
8
BLACK
6
CONTINUOUS
10
1.09298
20
0.829939
11
1.09469
21
0.830281
0
LINE
8
BLACK
6
CONTINUOUS
10
1.09469
20
0.830281
11
1.09469
21
0.830281
0
LINE
8
BLACK
6
CONTINUOUS
10
1.09469
20
0.830281
11
1.09469
21
0.830281
0
LINE
8
BLACK
6
CONTINUOUS
10
1.09469
20
0.830281
11
1.09731
21
0.832026
0
LINE
8
BLACK
6
CONTINUOUS
10
1.09731
20
0.832026
11
1.09905
21
0.834637
0
LINE
8
BLACK
6
CONTINUOUS
10
1.09905
20
0.834637
11
1.09905
21
0.834637
0
LINE
8
BLACK
6
CONTINUOUS
10
1.09905
20
0.834637
11
1.09905
21
0.834637
0
LINE
8
BLACK
6
CONTINUOUS
10
1.09905
20
0.834637
11
1.09951
21
0.836939
0
LINE
8
BLACK
6
CONTINUOUS
10
1.09951
20
0.836939
11
1.09951
21
0.836939
0
LINE
8
BLACK
6
CONTINUOUS
10
1.09951
20
0.836939
11
1.09951
21
0.898494
0
LINE
8
BLACK
6
CONTINUOUS
10
1.09951
20
0.898494
11
1.09951
21
0.898494
0
LINE
8
BLACK
6
CONTINUOUS
10
1.09951
20
0.898494
11
1.09905
21
0.900796
0
LINE
8
BLACK
6
CONTINUOUS
10
1.09905
20
0.900796
11
1.09905
21
0.900796
0
LINE
8
BLACK
6
CONTINUOUS
10
1.09905
20
0.900796
11
1.09731
21
0.903408
0
LINE
8
BLACK
6
CONTINUOUS
10
1.09731
20
0.903408
11
1.09469
21
0.905152
0
LINE
8
BLACK
6
CONTINUOUS
10
1.09469
20
0.905152
11
1.09469
21
0.905152
0
LINE
8
BLACK
6
CONTINUOUS
10
1.09469
20
0.905152
11
1.09239
21
0.90561
0
LINE
8
BLACK
6
CONTINUOUS
10
1.09239
20
0.90561
11
1.09239
21
0.90561
0
LINE
8
BLACK
6
CONTINUOUS
10
1.09239
20
0.90561
11
1.03084
21
0.90561
0
LINE
8
BLACK
6
CONTINUOUS
10
1.03084
20
0.90561
11
1.03084
21
0.90561
0
LINE
8
BLACK
6
CONTINUOUS
10
1.03084
20
0.90561
11
1.02853
21
0.905152
0
LINE
8
BLACK
6
CONTINUOUS
10
1.02853
20
0.905152
11
1.02853
21
0.905152
0
LINE
8
BLACK
6
CONTINUOUS
10
1.02853
20
0.905152
11
1.02592
21
0.903408
0
LINE
8
BLACK
6
CONTINUOUS
10
1.02592
20
0.903408
11
1.02418
21
0.900796
0
LINE
8
BLACK
6
CONTINUOUS
10
1.02418
20
0.900796
11
1.02418
21
0.900796
0
LINE
8
BLACK
6
CONTINUOUS
10
1.02418
20
0.900796
11
1.02372
21
0.898494
0
LINE
8
BLACK
6
CONTINUOUS
10
1.02372
20
0.898494
11
1.02372
21
0.836939
0
LINE
8
BLACK
6
CONTINUOUS
10
1.02372
20
0.836939
11
1.02418
21
0.834637
0
LINE
8
BLACK
6
CONTINUOUS
10
0.991614
20
0.937717
11
0.931614
21
0.937717
0
LINE
8
BLACK
6
CONTINUOUS
10
0.931614
20
0.937717
11
0.931614
21
0.997717
0
LINE
8
BLACK
6
CONTINUOUS
10
0.931614
20
0.997717
11
0.991614
21
0.997717
0
LINE
8
BLACK
6
CONTINUOUS
10
0.991614
20
0.997717
11
0.991614
21
0.937717
0
LINE
8
BLACK
6
CONTINUOUS
10
1.09161
20
0.937717
11
1.03161
21
0.937717
0
LINE
8
BLACK
6
CONTINUOUS
10
1.03161
20
0.937717
11
1.03161
21
0.997717
0
LINE
8
BLACK
6
CONTINUOUS
10
1.03161
20
0.997717
11
1.09161
21
0.997717
0
LINE
8
BLACK
6
CONTINUOUS
10
1.09161
20
0.997717
11
1.09161
21
0.937717
0
LINE
8
BLACK
6
CONTINUOUS
10
1.3017
20
1.09252
11
1.3017
21
1.09252
0
LINE
8
BLACK
6
CONTINUOUS
10
1.3017
20
1.09252
11
1.29595
21
1.09014
0
LINE
8
BLACK
6
CONTINUOUS
10
1.29595
20
1.09014
11
1.29101
21
1.08635
0
LINE
8
BLACK
6
CONTINUOUS
10
1.29101
20
1.08635
11
1.28722
21
1.08141
0
LINE
8
BLACK
6
CONTINUOUS
10
1.28722
20
1.08141
11
1.28484
21
1.07566
0
LINE
8
BLACK
6
CONTINUOUS
10
1.28484
20
1.07566
11
1.28484
21
1.07566
0
LINE
8
BLACK
6
CONTINUOUS
10
1.28484
20
1.07566
11
1.28403
21
1.06949
0
LINE
8
BLACK
6
CONTINUOUS
10
1.28403
20
1.06949
11
1.28403
21
1.06949
0
LINE
8
BLACK
6
CONTINUOUS
10
1.28403
20
1.06949
11
1.28484
21
1.06332
0
LINE
8
BLACK
6
CONTINUOUS
10
1.28484
20
1.06332
11
1.28484
21
1.06332
0
LINE
8
BLACK
6
CONTINUOUS
10
1.28484
20
1.06332
11
1.28722
21
1.05757
0
LINE
8
BLACK
6
CONTINUOUS
10
1.28722
20
1.05757
11
1.29101
21
1.05263
0
LINE
8
BLACK
6
CONTINUOUS
10
1.29101
20
1.05263
11
1.29595
21
1.04884
0
LINE
8
BLACK
6
CONTINUOUS
10
1.29595
20
1.04884
11
1.3017
21
1.04645
0
LINE
8
BLACK
6
CONTINUOUS
10
1.3017
20
1.04645
11
1.30479
21
1.04605
0
LINE
8
BLACK
6
CONTINUOUS
10
1.30479
20
1.04605
11
1.30787
21
1.04564
0
LINE
8
BLACK
6
CONTINUOUS
10
1.30787
20
1.04564
11
1.30787
21
1.04564
0
LINE
8
BLACK
6
CONTINUOUS
10
1.30787
20
1.04564
11
1.30787
21
1.04564
0
LINE
8
BLACK
6
CONTINUOUS
10
1.30787
20
1.04564
11
1.30993
21
1.04591
0
LINE
8
BLACK
6
CONTINUOUS
10
1.30993
20
1.04591
11
1.31405
21
1.04645
0
LINE
8
BLACK
6
CONTINUOUS
10
1.31405
20
1.04645
11
1.3198
21
1.04884
0
LINE
8
BLACK
6
CONTINUOUS
10
1.3198
20
1.04884
11
1.32474
21
1.05263
0
LINE
8
BLACK
6
CONTINUOUS
10
1.32474
20
1.05263
11
1.32562
21
1.05378
0
LINE
8
BLACK
6
CONTINUOUS
10
1.32562
20
1.05378
11
1.32784
21
1.0554
0
LINE
8
BLACK
6
CONTINUOUS
10
1.32784
20
1.0554
11
1.32949
21
1.05569
0
LINE
8
BLACK
6
CONTINUOUS
10
1.32949
20
1.05569
11
1.34128
21
1.05569
0
LINE
8
BLACK
6
CONTINUOUS
10
1.34128
20
1.05569
11
1.34392
21
1.05491
0
LINE
8
BLACK
6
CONTINUOUS
10
1.34392
20
1.05491
11
1.34473
21
1.05426
0
LINE
8
BLACK
6
CONTINUOUS
10
1.34473
20
1.05426
11
1.39503
21
1.00395
0
LINE
8
BLACK
6
CONTINUOUS
10
1.39503
20
1.00395
11
1.39635
21
1.00154
0
LINE
8
BLACK
6
CONTINUOUS
10
1.39635
20
1.00154
11
1.39642
21
0.999865
0
LINE
8
BLACK
6
CONTINUOUS
10
1.39642
20
0.999865
11
1.39623
21
0.998425
0
LINE
8
BLACK
6
CONTINUOUS
10
1.39623
20
0.998425
11
1.39623
21
0.998425
0
LINE
8
BLACK
6
CONTINUOUS
10
1.39623
20
0.998425
11
1.39705
21
0.992254
0
LINE
8
BLACK
6
CONTINUOUS
10
1.39705
20
0.992254
11
1.39705
21
0.992253
0
LINE
8
BLACK
6
CONTINUOUS
10
1.39705
20
0.992253
11
1.39943
21
0.986502
0
LINE
8
BLACK
6
CONTINUOUS
10
1.39943
20
0.986502
11
1.40322
21
0.981564
0
LINE
8
BLACK
6
CONTINUOUS
10
1.40322
20
0.981564
11
1.40816
21
0.977774
0
LINE
8
BLACK
6
CONTINUOUS
10
1.40816
20
0.977774
11
1.41391
21
0.975392
0
LINE
8
BLACK
6
CONTINUOUS
10
1.41391
20
0.975392
11
1.41663
21
0.975033
0
LINE
8
BLACK
6
CONTINUOUS
10
1.41663
20
0.975033
11
1.42008
21
0.974579
0
LINE
8
BLACK
6
CONTINUOUS
10
1.42008
20
0.974579
11
1.42008
21
0.974579
0
LINE
8
BLACK
6
CONTINUOUS
10
1.42008
20
0.974579
11
1.42008
21
0.974579
0
LINE
8
BLACK
6
CONTINUOUS
10
1.42008
20
0.974579
11
1.42214
21
0.97485
0
LINE
8
BLACK
6
CONTINUOUS
10
1.42214
20
0.97485
11
1.42625
21
0.975392
0
LINE
8
BLACK
6
CONTINUOUS
10
1.42625
20
0.975392
11
1.432
21
0.977774
0
LINE
8
BLACK
6
CONTINUOUS
10
1.432
20
0.977774
11
1.43694
21
0.981564
0
LINE
8
BLACK
6
CONTINUOUS
10
1.43694
20
0.981564
11
1.44073
21
0.986502
0
LINE
8
BLACK
6
CONTINUOUS
10
1.44073
20
0.986502
11
1.44311
21
0.992253
0
LINE
8
BLACK
6
CONTINUOUS
10
1.44311
20
0.992253
11
1.44392
21
0.998425
0
LINE
8
BLACK
6
CONTINUOUS
10
1.44392
20
0.998425
11
1.44392
21
0.998494
0
LINE
8
BLACK
6
CONTINUOUS
10
1.44392
20
0.998494
11
1.44311
21
1.0046
0
LINE
8
BLACK
6
CONTINUOUS
10
1.44311
20
1.0046
11
1.44311
21
1.0046
0
LINE
8
BLACK
6
CONTINUOUS
10
1.44311
20
1.0046
11
1.44073
21
1.01035
0
LINE
8
BLACK
6
CONTINUOUS
10
1.44073
20
1.01035
11
1.43694
21
1.01529
0
LINE
8
BLACK
6
CONTINUOUS
10
1.43694
20
1.01529
11
1.432
21
1.01908
0
LINE
8
BLACK
6
CONTINUOUS
10
1.432
20
1.01908
11
1.42625
21
1.02146
0
LINE
8
BLACK
6
CONTINUOUS
10
1.42625
20
1.02146
11
1.42625
21
1.02146
0
LINE
8
BLACK
6
CONTINUOUS
10
1.42625
20
1.02146
11
1.42008
21
1.02227
0
LINE
8
BLACK
6
CONTINUOUS
10
1.42008
20
1.02227
11
1.42008
21
1.02227
0
LINE
8
BLACK
6
CONTINUOUS
10
1.42008
20
1.02227
11
1.41864
21
1.02208
0
LINE
8
BLACK
6
CONTINUOUS
10
1.41864
20
1.02208
11
1.41592
21
1.02251
0
LINE
8
BLACK
6
CONTINUOUS
10
1.41592
20
1.02251
11
1.41455
21
1.02347
0
LINE
8
BLACK
6
CONTINUOUS
10
1.41455
20
1.02347
11
1.36014
21
1.07788
0
LINE
8
BLACK
6
CONTINUOUS
10
1.36014
20
1.07788
11
1.35951
21
1.07866
0
LINE
8
BLACK
6
CONTINUOUS
10
1.35951
20
1.07866
11
1.35931
21
1.07896
0
LINE
8
BLACK
6
CONTINUOUS
10
1.35931
20
1.07896
11
1.35829
21
1.07976
0
LINE
8
BLACK
6
CONTINUOUS
10
1.35829
20
1.07976
11
1.35806
21
1.07996
0
LINE
8
BLACK
6
CONTINUOUS
10
1.35806
20
1.07996
11
1.35796
21
1.08005
0
LINE
8
BLACK
6
CONTINUOUS
10
1.35796
20
1.08005
11
1.35731
21
1.08052
0
LINE
8
BLACK
6
CONTINUOUS
10
1.35731
20
1.08052
11
1.35723
21
1.08058
0
LINE
8
BLACK
6
CONTINUOUS
10
1.35723
20
1.08058
11
1.35616
21
1.08141
0
LINE
8
BLACK
6
CONTINUOUS
10
1.35616
20
1.08141
11
1.35567
21
1.08179
0
LINE
8
BLACK
6
CONTINUOUS
10
1.35567
20
1.08179
11
1.35567
21
1.08179
0
LINE
8
BLACK
6
CONTINUOUS
10
1.35567
20
1.08179
11
1.35542
21
1.08193
0
LINE
8
BLACK
6
CONTINUOUS
10
1.35542
20
1.08193
11
1.35516
21
1.08206
0
LINE
8
BLACK
6
CONTINUOUS
10
1.35516
20
1.08206
11
1.35327
21
1.08262
0
LINE
8
BLACK
6
CONTINUOUS
10
1.35327
20
1.08262
11
1.35318
21
1.08265
0
LINE
8
BLACK
6
CONTINUOUS
10
1.35318
20
1.08265
11
1.35132
21
1.08329
0
LINE
8
BLACK
6
CONTINUOUS
10
1.35132
20
1.08329
11
1.35103
21
1.08333
0
LINE
8
BLACK
6
CONTINUOUS
10
1.35103
20
1.08333
11
1.35075
21
1.08337
0
LINE
8
BLACK
6
CONTINUOUS
10
1.35075
20
1.08337
11
1.34882
21
1.08329
0
LINE
8
BLACK
6
CONTINUOUS
10
1.34882
20
1.08329
11
1.34878
21
1.08329
0
LINE
8
BLACK
6
CONTINUOUS
10
1.34878
20
1.08329
11
1.34868
21
1.08329
0
LINE
8
BLACK
6
CONTINUOUS
10
1.34868
20
1.08329
11
1.32949
21
1.08329
0
LINE
8
BLACK
6
CONTINUOUS
10
1.32949
20
1.08329
11
1.32685
21
1.08406
0
LINE
8
BLACK
6
CONTINUOUS
10
1.32685
20
1.08406
11
1.32562
21
1.0852
0
LINE
8
BLACK
6
CONTINUOUS
10
1.32562
20
1.0852
11
1.32474
21
1.08635
0
LINE
8
BLACK
6
CONTINUOUS
10
1.32474
20
1.08635
11
1.3198
21
1.09014
0
LINE
8
BLACK
6
CONTINUOUS
10
1.3198
20
1.09014
11
1.31405
21
1.09252
0
LINE
8
BLACK
6
CONTINUOUS
10
1.31405
20
1.09252
11
1.31405
21
1.09252
0
LINE
8
BLACK
6
CONTINUOUS
10
1.31405
20
1.09252
11
1.30787
21
1.09333
0
LINE
8
BLACK
6
CONTINUOUS
10
1.30787
20
1.09333
11
1.30787
21
1.09333
0
LINE
8
BLACK
6
CONTINUOUS
10
1.30787
20
1.09333
11
1.3017
21
1.09252
0
LINE
8
BLACK
6
CONTINUOUS
10
0.522129
20
1.03523
11
0.5288
21
1.03365
0
LINE
8
BLACK
6
CONTINUOUS
10
0.5288
20
1.03365
11
0.534926
21
1.03058
0
LINE
8
BLACK
6
CONTINUOUS
10
0.534926
20
1.03058
11
0.540178
21
1.02617
0
LINE
8
BLACK
6
CONTINUOUS
10
0.540178
20
1.02617
11
0.544272
21
1.02067
0
LINE
8
BLACK
6
CONTINUOUS
10
0.544272
20
1.02067
11
0.546988
21
1.01437
0
LINE
8
BLACK
6
CONTINUOUS
10
0.546988
20
1.01437
11
0.548178
21
1.00762
0
LINE
8
BLACK
6
CONTINUOUS
10
0.548178
20
1.00762
11
0.54778
21
1.00078
0
LINE
8
BLACK
6
CONTINUOUS
10
0.54778
20
1.00078
11
0.545813
21
0.99421
0
LINE
8
BLACK
6
CONTINUOUS
10
0.545813
20
0.99421
11
0.542386
21
0.988273
0
LINE
8
BLACK
6
CONTINUOUS
10
0.542386
20
0.988273
11
0.537681
21
0.983286
0
LINE
8
BLACK
6
CONTINUOUS
10
0.537681
20
0.983286
11
0.531953
21
0.979519
0
LINE
8
BLACK
6
CONTINUOUS
10
0.531953
20
0.979519
11
0.52551
21
0.977174
0
LINE
8
BLACK
6
CONTINUOUS
10
0.52551
20
0.977174
11
0.518701
21
0.976378
0
LINE
8
BLACK
6
CONTINUOUS
10
0.518701
20
0.976378
11
0.459646
21
0.976378
0
LINE
8
BLACK
6
CONTINUOUS
10
0.459646
20
0.976378
11
0.456218
21
0.976578
0
LINE
8
BLACK
6
CONTINUOUS
10
0.456218
20
0.976578
11
0.449547
21
0.978159
0
LINE
8
BLACK
6
CONTINUOUS
10
0.449547
20
0.978159
11
0.44342
21
0.981236
0
LINE
8
BLACK
6
CONTINUOUS
10
0.44342
20
0.981236
11
0.438168
21
0.985642
0
LINE
8
BLACK
6
CONTINUOUS
10
0.438168
20
0.985642
11
0.434074
21
0.991142
0
LINE
8
BLACK
6
CONTINUOUS
10
0.434074
20
0.991142
11
0.431359
21
0.997437
0
LINE
8
BLACK
6
CONTINUOUS
10
0.431359
20
0.997437
11
0.430168
21
1.00419
0
LINE
8
BLACK
6
CONTINUOUS
10
0.430168
20
1.00419
11
0.430567
21
1.01103
0
LINE
8
BLACK
6
CONTINUOUS
10
0.430567
20
1.01103
11
0.432533
21
1.0176
0
LINE
8
BLACK
6
CONTINUOUS
10
0.432533
20
1.0176
11
0.435961
21
1.02354
0
LINE
8
BLACK
6
CONTINUOUS
10
0.435961
20
1.02354
11
0.440666
21
1.02852
0
LINE
8
BLACK
6
CONTINUOUS
10
0.440666
20
1.02852
11
0.446394
21
1.03229
0
LINE
8
BLACK
6
CONTINUOUS
10
0.446394
20
1.03229
11
0.452836
21
1.03464
0
LINE
8
BLACK
6
CONTINUOUS
10
0.452836
20
1.03464
11
0.459646
21
1.03543
0
LINE
8
BLACK
6
CONTINUOUS
10
0.459646
20
1.03543
11
0.518701
21
1.03543
0
LINE
8
BLACK
6
CONTINUOUS
10
0.518701
20
1.03543
11
0.522129
21
1.03523
0
LINE
8
BLACK
6
CONTINUOUS
10
0.548228
20
1.17323
11
0.430118
21
1.17323
0
LINE
8
BLACK
6
CONTINUOUS
10
0.430118
20
1.17323
11
0.430118
21
1.23228
0
LINE
8
BLACK
6
CONTINUOUS
10
0.430118
20
1.23228
11
0.548228
21
1.23228
0
LINE
8
BLACK
6
CONTINUOUS
10
0.548228
20
1.23228
11
0.548228
21
1.17323
0
LINE
8
BLACK
6
CONTINUOUS
10
1.23664
20
1.45767
11
1.23663
21
1.45767
0
LINE
8
BLACK
6
CONTINUOUS
10
1.23663
20
1.45767
11
1.2295
21
1.45503
0
LINE
8
BLACK
6
CONTINUOUS
10
1.2295
20
1.45503
11
1.2295
21
1.45503
0
LINE
8
BLACK
6
CONTINUOUS
10
1.2295
20
1.45503
11
1.22304
21
1.451
0
LINE
8
BLACK
6
CONTINUOUS
10
1.22304
20
1.451
11
1.21752
21
1.44576
0
LINE
8
BLACK
6
CONTINUOUS
10
1.21752
20
1.44576
11
1.21318
21
1.43951
0
LINE
8
BLACK
6
CONTINUOUS
10
1.21318
20
1.43951
11
1.21017
21
1.43252
0
LINE
8
BLACK
6
CONTINUOUS
10
1.21017
20
1.43252
11
1.20864
21
1.42507
0
LINE
8
BLACK
6
CONTINUOUS
10
1.20864
20
1.42507
11
1.20864
21
1.36031
0
LINE
8
BLACK
6
CONTINUOUS
10
1.20864
20
1.36031
11
1.20922
21
1.35463
0
LINE
8
BLACK
6
CONTINUOUS
10
1.20922
20
1.35463
11
1.2115
21
1.34737
0
LINE
8
BLACK
6
CONTINUOUS
10
1.2115
20
1.34737
11
1.2115
21
1.34737
0
LINE
8
BLACK
6
CONTINUOUS
10
1.2115
20
1.34737
11
1.21519
21
1.34072
0
LINE
8
BLACK
6
CONTINUOUS
10
1.21519
20
1.34072
11
1.21519
21
1.34072
0
LINE
8
BLACK
6
CONTINUOUS
10
1.21519
20
1.34072
11
1.22015
21
1.33494
0
LINE
8
BLACK
6
CONTINUOUS
10
1.22015
20
1.33494
11
1.22015
21
1.33494
0
LINE
8
BLACK
6
CONTINUOUS
10
1.22015
20
1.33494
11
1.22617
21
1.33028
0
LINE
8
BLACK
6
CONTINUOUS
10
1.22617
20
1.33028
11
1.22617
21
1.33028
0
LINE
8
BLACK
6
CONTINUOUS
10
1.22617
20
1.33028
11
1.233
21
1.32693
0
LINE
8
BLACK
6
CONTINUOUS
10
1.233
20
1.32693
11
1.233
21
1.32693
0
LINE
8
BLACK
6
CONTINUOUS
10
1.233
20
1.32693
11
1.233
21
1.32693
0
LINE
8
BLACK
6
CONTINUOUS
10
1.233
20
1.32693
11
1.24037
21
1.32502
0
LINE
8
BLACK
6
CONTINUOUS
10
1.24037
20
1.32502
11
1.24037
21
1.32502
0
LINE
8
BLACK
6
CONTINUOUS
10
1.24037
20
1.32502
11
1.24037
21
1.32502
0
LINE
8
BLACK
6
CONTINUOUS
10
1.24037
20
1.32502
11
1.24797
21
1.32464
0
LINE
8
BLACK
6
CONTINUOUS
10
1.24797
20
1.32464
11
1.25549
21
1.32579
0
LINE
8
BLACK
6
CONTINUOUS
10
1.25549
20
1.32579
11
1.26263
21
1.32843
0
LINE
8
BLACK
6
CONTINUOUS
10
1.26263
20
1.32843
11
1.26264
21
1.32844
0
LINE
8
BLACK
6
CONTINUOUS
10
1.26264
20
1.32844
11
1.26909
21
1.33246
0
LINE
8
BLACK
6
CONTINUOUS
10
1.26909
20
1.33246
11
1.2746
21
1.3377
0
LINE
8
BLACK
6
CONTINUOUS
10
1.2746
20
1.3377
11
1.27895
21
1.34395
0
LINE
8
BLACK
6
CONTINUOUS
10
1.27895
20
1.34395
11
1.28195
21
1.35094
0
LINE
8
BLACK
6
CONTINUOUS
10
1.28195
20
1.35094
11
1.28348
21
1.3584
0
LINE
8
BLACK
6
CONTINUOUS
10
1.28348
20
1.3584
11
1.28348
21
1.42316
0
LINE
8
BLACK
6
CONTINUOUS
10
1.28348
20
1.42316
11
1.28291
21
1.42883
0
LINE
8
BLACK
6
CONTINUOUS
10
1.28291
20
1.42883
11
1.28291
21
1.42883
0
LINE
8
BLACK
6
CONTINUOUS
10
1.28291
20
1.42883
11
1.28063
21
1.43609
0
LINE
8
BLACK
6
CONTINUOUS
10
1.28063
20
1.43609
11
1.28063
21
1.43609
0
LINE
8
BLACK
6
CONTINUOUS
10
1.28063
20
1.43609
11
1.28063
21
1.43609
0
LINE
8
BLACK
6
CONTINUOUS
10
1.28063
20
1.43609
11
1.27694
21
1.44275
0
LINE
8
BLACK
6
CONTINUOUS
10
1.27694
20
1.44275
11
1.27694
21
1.44275
0
LINE
8
BLACK
6
CONTINUOUS
10
1.27694
20
1.44275
11
1.27694
21
1.44275
0
LINE
8
BLACK
6
CONTINUOUS
10
1.27694
20
1.44275
11
1.27198
21
1.44852
0
LINE
8
BLACK
6
CONTINUOUS
10
1.27198
20
1.44852
11
1.27198
21
1.44852
0
LINE
8
BLACK
6
CONTINUOUS
10
1.27198
20
1.44852
11
1.26596
21
1.45318
0
LINE
8
BLACK
6
CONTINUOUS
10
1.26596
20
1.45318
11
1.26596
21
1.45318
0
LINE
8
BLACK
6
CONTINUOUS
10
1.26596
20
1.45318
11
1.26568
21
1.45332
0
LINE
8
BLACK
6
CONTINUOUS
10
1.26568
20
1.45332
11
1.25913
21
1.45653
0
LINE
8
BLACK
6
CONTINUOUS
10
1.25913
20
1.45653
11
1.25913
21
1.45653
0
LINE
8
BLACK
6
CONTINUOUS
10
1.25913
20
1.45653
11
1.25913
21
1.45653
0
LINE
8
BLACK
6
CONTINUOUS
10
1.25913
20
1.45653
11
1.25913
21
1.45653
0
LINE
8
BLACK
6
CONTINUOUS
10
1.25913
20
1.45653
11
1.25176
21
1.45844
0
LINE
8
BLACK
6
CONTINUOUS
10
1.25176
20
1.45844
11
1.25176
21
1.45844
0
LINE
8
BLACK
6
CONTINUOUS
10
1.25176
20
1.45844
11
1.24669
21
1.4587
0
LINE
8
BLACK
6
CONTINUOUS
10
1.24669
20
1.4587
11
1.24416
21
1.45883
0
LINE
8
BLACK
6
CONTINUOUS
10
1.24416
20
1.45883
11
1.24416
21
1.45883
0
LINE
8
BLACK
6
CONTINUOUS
10
1.24416
20
1.45883
11
1.24416
21
1.45883
0
LINE
8
BLACK
6
CONTINUOUS
10
1.24416
20
1.45883
11
1.23664
21
1.45767
0
LINE
8
BLACK
6
CONTINUOUS
10
0.825276
20
1.47
11
0.765276
21
1.47
0
LINE
8
BLACK
6
CONTINUOUS
10
0.765276
20
1.47
11
0.765276
21
1.53
0
LINE
8
BLACK
6
CONTINUOUS
10
0.765276
20
1.53
11
0.825276
21
1.53
0
LINE
8
BLACK
6
CONTINUOUS
10
0.825276
20
1.53
11
0.825276
21
1.47
0
LINE
8
BLACK
6
CONTINUOUS
10
0.925276
20
1.47
11
0.865276
21
1.47
0
LINE
8
BLACK
6
CONTINUOUS
10
0.865276
20
1.47
11
0.865276
21
1.53
0
LINE
8
BLACK
6
CONTINUOUS
10
0.865276
20
1.53
11
0.925276
21
1.53
0
LINE
8
BLACK
6
CONTINUOUS
10
0.925276
20
1.53
11
0.925276
21
1.47
0
LINE
8
BLACK
6
CONTINUOUS
10
0.762196
20
1.63744
11
0.762196
21
1.63744
0
LINE
8
BLACK
6
CONTINUOUS
10
0.762196
20
1.63744
11
0.759585
21
1.63569
0
LINE
8
BLACK
6
CONTINUOUS
10
0.759585
20
1.63569
11
0.75784
21
1.63308
0
LINE
8
BLACK
6
CONTINUOUS
10
0.75784
20
1.63308
11
0.75784
21
1.63308
0
LINE
8
BLACK
6
CONTINUOUS
10
0.75784
20
1.63308
11
0.757382
21
1.63078
0
LINE
8
BLACK
6
CONTINUOUS
10
0.757382
20
1.63078
11
0.757382
21
1.56922
0
LINE
8
BLACK
6
CONTINUOUS
10
0.757382
20
1.56922
11
0.75784
21
1.56692
0
LINE
8
BLACK
6
CONTINUOUS
10
0.75784
20
1.56692
11
0.75784
21
1.56692
0
LINE
8
BLACK
6
CONTINUOUS
10
0.75784
20
1.56692
11
0.759585
21
1.56431
0
LINE
8
BLACK
6
CONTINUOUS
10
0.759585
20
1.56431
11
0.762196
21
1.56256
0
LINE
8
BLACK
6
CONTINUOUS
10
0.762196
20
1.56256
11
0.762196
21
1.56256
0
LINE
8
BLACK
6
CONTINUOUS
10
0.762196
20
1.56256
11
0.764498
21
1.56211
0
LINE
8
BLACK
6
CONTINUOUS
10
0.764498
20
1.56211
11
0.764498
21
1.56211
0
LINE
8
BLACK
6
CONTINUOUS
10
0.764498
20
1.56211
11
0.764498
21
1.56211
0
LINE
8
BLACK
6
CONTINUOUS
10
0.764498
20
1.56211
11
0.826053
21
1.56211
0
LINE
8
BLACK
6
CONTINUOUS
10
0.826053
20
1.56211
11
0.826053
21
1.56211
0
LINE
8
BLACK
6
CONTINUOUS
10
0.826053
20
1.56211
11
0.826637
21
1.56222
0
LINE
8
BLACK
6
CONTINUOUS
10
0.826637
20
1.56222
11
0.828355
21
1.56256
0
LINE
8
BLACK
6
CONTINUOUS
10
0.828355
20
1.56256
11
0.828355
21
1.56256
0
LINE
8
BLACK
6
CONTINUOUS
10
0.828355
20
1.56256
11
0.828356
21
1.56256
0
LINE
8
BLACK
6
CONTINUOUS
10
0.828356
20
1.56256
11
0.830967
21
1.56431
0
LINE
8
BLACK
6
CONTINUOUS
10
0.830967
20
1.56431
11
0.832711
21
1.56692
0
LINE
8
BLACK
6
CONTINUOUS
10
0.832711
20
1.56692
11
0.832711
21
1.56692
0
LINE
8
BLACK
6
CONTINUOUS
10
0.832711
20
1.56692
11
0.832711
21
1.56692
0
LINE
8
BLACK
6
CONTINUOUS
10
0.832711
20
1.56692
11
0.833169
21
1.56922
0
LINE
8
BLACK
6
CONTINUOUS
10
0.833169
20
1.56922
11
0.833169
21
1.56922
0
LINE
8
BLACK
6
CONTINUOUS
10
0.833169
20
1.56922
11
0.833169
21
1.63078
0
LINE
8
BLACK
6
CONTINUOUS
10
0.833169
20
1.63078
11
0.833169
21
1.63078
0
LINE
8
BLACK
6
CONTINUOUS
10
0.833169
20
1.63078
11
0.832711
21
1.63308
0
LINE
8
BLACK
6
CONTINUOUS
10
0.832711
20
1.63308
11
0.832711
21
1.63308
0
LINE
8
BLACK
6
CONTINUOUS
10
0.832711
20
1.63308
11
0.830967
21
1.63569
0
LINE
8
BLACK
6
CONTINUOUS
10
0.830967
20
1.63569
11
0.828356
21
1.63744
0
LINE
8
BLACK
6
CONTINUOUS
10
0.828356
20
1.63744
11
0.828355
21
1.63744
0
LINE
8
BLACK
6
CONTINUOUS
10
0.828355
20
1.63744
11
0.826053
21
1.63789
0
LINE
8
BLACK
6
CONTINUOUS
10
0.826053
20
1.63789
11
0.826053
21
1.63789
0
LINE
8
BLACK
6
CONTINUOUS
10
0.826053
20
1.63789
11
0.764498
21
1.63789
0
LINE
8
BLACK
6
CONTINUOUS
10
0.764498
20
1.63789
11
0.764498
21
1.63789
0
LINE
8
BLACK
6
CONTINUOUS
10
0.764498
20
1.63789
11
0.762196
21
1.63744
0
LINE
8
BLACK
6
CONTINUOUS
10
0.85784
20
1.56692
11
0.85784
21
1.56692
0
LINE
8
BLACK
6
CONTINUOUS
10
0.85784
20
1.56692
11
0.859585
21
1.56431
0
LINE
8
BLACK
6
CONTINUOUS
10
0.859585
20
1.56431
11
0.862196
21
1.56256
0
LINE
8
BLACK
6
CONTINUOUS
10
0.862196
20
1.56256
11
0.862196
21
1.56256
0
LINE
8
BLACK
6
CONTINUOUS
10
0.862196
20
1.56256
11
0.864498
21
1.56211
0
LINE
8
BLACK
6
CONTINUOUS
10
0.864498
20
1.56211
11
0.864498
21
1.56211
0
LINE
8
BLACK
6
CONTINUOUS
10
0.864498
20
1.56211
11
0.864498
21
1.56211
0
LINE
8
BLACK
6
CONTINUOUS
10
0.864498
20
1.56211
11
0.926053
21
1.56211
0
LINE
8
BLACK
6
CONTINUOUS
10
0.926053
20
1.56211
11
0.926053
21
1.56211
0
LINE
8
BLACK
6
CONTINUOUS
10
0.926053
20
1.56211
11
0.926637
21
1.56222
0
LINE
8
BLACK
6
CONTINUOUS
10
0.926637
20
1.56222
11
0.928355
21
1.56256
0
LINE
8
BLACK
6
CONTINUOUS
10
0.928355
20
1.56256
11
0.928355
21
1.56256
0
LINE
8
BLACK
6
CONTINUOUS
10
0.928355
20
1.56256
11
0.928356
21
1.56256
0
LINE
8
BLACK
6
CONTINUOUS
10
0.928356
20
1.56256
11
0.930967
21
1.56431
0
LINE
8
BLACK
6
CONTINUOUS
10
0.930967
20
1.56431
11
0.932711
21
1.56692
0
LINE
8
BLACK
6
CONTINUOUS
10
0.932711
20
1.56692
11
0.932711
21
1.56692
0
LINE
8
BLACK
6
CONTINUOUS
10
0.932711
20
1.56692
11
0.932711
21
1.56692
0
LINE
8
BLACK
6
CONTINUOUS
10
0.932711
20
1.56692
11
0.933169
21
1.56922
0
LINE
8
BLACK
6
CONTINUOUS
10
0.933169
20
1.56922
11
0.933169
21
1.56922
0
LINE
8
BLACK
6
CONTINUOUS
10
0.933169
20
1.56922
11
0.933169
21
1.63078
0
LINE
8
BLACK
6
CONTINUOUS
10
0.933169
20
1.63078
11
0.933169
21
1.63078
0
LINE
8
BLACK
6
CONTINUOUS
10
0.933169
20
1.63078
11
0.932711
21
1.63308
0
LINE
8
BLACK
6
CONTINUOUS
10
0.932711
20
1.63308
11
0.932711
21
1.63308
0
LINE
8
BLACK
6
CONTINUOUS
10
0.932711
20
1.63308
11
0.930967
21
1.63569
0
LINE
8
BLACK
6
CONTINUOUS
10
0.930967
20
1.63569
11
0.928356
21
1.63744
0
LINE
8
BLACK
6
CONTINUOUS
10
0.928356
20
1.63744
11
0.928355
21
1.63744
0
LINE
8
BLACK
6
CONTINUOUS
10
0.928355
20
1.63744
11
0.926053
21
1.63789
0
LINE
8
BLACK
6
CONTINUOUS
10
0.926053
20
1.63789
11
0.926053
21
1.63789
0
LINE
8
BLACK
6
CONTINUOUS
10
0.926053
20
1.63789
11
0.864498
21
1.63789
0
LINE
8
BLACK
6
CONTINUOUS
10
0.864498
20
1.63789
11
0.864498
21
1.63789
0
LINE
8
BLACK
6
CONTINUOUS
10
0.864498
20
1.63789
11
0.862196
21
1.63744
0
LINE
8
BLACK
6
CONTINUOUS
10
0.862196
20
1.63744
11
0.862196
21
1.63744
0
LINE
8
BLACK
6
CONTINUOUS
10
0.862196
20
1.63744
11
0.859585
21
1.63569
0
LINE
8
BLACK
6
CONTINUOUS
10
0.859585
20
1.63569
11
0.85784
21
1.63308
0
LINE
8
BLACK
6
CONTINUOUS
10
0.85784
20
1.63308
11
0.85784
21
1.63308
0
LINE
8
BLACK
6
CONTINUOUS
10
0.85784
20
1.63308
11
0.857382
21
1.63078
0
LINE
8
BLACK
6
CONTINUOUS
10
0.857382
20
1.63078
11
0.857382
21
1.56922
0
LINE
8
BLACK
6
CONTINUOUS
10
0.857382
20
1.56922
11
0.85784
21
1.56692
0
LINE
8
BLACK
6
CONTINUOUS
10
0.742092
20
0.30255
11
0.742092
21
0.30255
0
LINE
8
BLACK
6
CONTINUOUS
10
0.742092
20
0.30255
11
0.743836
21
0.299939
0
LINE
8
BLACK
6
CONTINUOUS
10
0.743836
20
0.299939
11
0.746448
21
0.298194
0
LINE
8
BLACK
6
CONTINUOUS
10
0.746448
20
0.298194
11
0.746448
21
0.298194
0
LINE
8
BLACK
6
CONTINUOUS
10
0.746448
20
0.298194
11
0.74875
21
0.297736
0
LINE
8
BLACK
6
CONTINUOUS
10
0.74875
20
0.297736
11
0.74875
21
0.297736
0
LINE
8
BLACK
6
CONTINUOUS
10
0.74875
20
0.297736
11
0.74875
21
0.297736
0
LINE
8
BLACK
6
CONTINUOUS
10
0.74875
20
0.297736
11
0.810305
21
0.297736
0
LINE
8
BLACK
6
CONTINUOUS
10
0.810305
20
0.297736
11
0.810305
21
0.297736
0
LINE
8
BLACK
6
CONTINUOUS
10
0.810305
20
0.297736
11
0.810889
21
0.297852
0
LINE
8
BLACK
6
CONTINUOUS
10
0.810889
20
0.297852
11
0.812607
21
0.298194
0
LINE
8
BLACK
6
CONTINUOUS
10
0.812607
20
0.298194
11
0.812607
21
0.298194
0
LINE
8
BLACK
6
CONTINUOUS
10
0.812607
20
0.298194
11
0.812608
21
0.298194
0
LINE
8
BLACK
6
CONTINUOUS
10
0.812608
20
0.298194
11
0.815219
21
0.299939
0
LINE
8
BLACK
6
CONTINUOUS
10
0.815219
20
0.299939
11
0.816963
21
0.30255
0
LINE
8
BLACK
6
CONTINUOUS
10
0.816963
20
0.30255
11
0.816963
21
0.30255
0
LINE
8
BLACK
6
CONTINUOUS
10
0.816963
20
0.30255
11
0.816963
21
0.30255
0
LINE
8
BLACK
6
CONTINUOUS
10
0.816963
20
0.30255
11
0.817421
21
0.304852
0
LINE
8
BLACK
6
CONTINUOUS
10
0.817421
20
0.304852
11
0.817421
21
0.304852
0
LINE
8
BLACK
6
CONTINUOUS
10
0.817421
20
0.304852
11
0.817421
21
0.305295
0
LINE
8
BLACK
6
CONTINUOUS
10
0.817421
20
0.305295
11
0.817421
21
0.366408
0
LINE
8
BLACK
6
CONTINUOUS
10
0.817421
20
0.366408
11
0.817421
21
0.366408
0
LINE
8
BLACK
6
CONTINUOUS
10
0.817421
20
0.366408
11
0.816963
21
0.36871
0
LINE
8
BLACK
6
CONTINUOUS
10
0.816963
20
0.36871
11
0.816963
21
0.36871
0
LINE
8
BLACK
6
CONTINUOUS
10
0.816963
20
0.36871
11
0.815219
21
0.371321
0
LINE
8
BLACK
6
CONTINUOUS
10
0.815219
20
0.371321
11
0.812607
21
0.373066
0
LINE
8
BLACK
6
CONTINUOUS
10
0.812607
20
0.373066
11
0.812607
21
0.373066
0
LINE
8
BLACK
6
CONTINUOUS
10
0.812607
20
0.373066
11
0.810305
21
0.373524
0
LINE
8
BLACK
6
CONTINUOUS
10
0.810305
20
0.373524
11
0.810305
21
0.373524
0
LINE
8
BLACK
6
CONTINUOUS
10
0.810305
20
0.373524
11
0.798602
21
0.373524
0
LINE
8
BLACK
6
CONTINUOUS
10
0.798602
20
0.373524
11
0.795963
21
0.374299
0
LINE
8
BLACK
6
CONTINUOUS
10
0.795963
20
0.374299
11
0.794162
21
0.376378
0
LINE
8
BLACK
6
CONTINUOUS
10
0.794162
20
0.376378
11
0.79372
21
0.378406
0
LINE
8
BLACK
6
CONTINUOUS
10
0.79372
20
0.378406
11
0.79372
21
0.392854
0
LINE
8
BLACK
6
CONTINUOUS
10
0.79372
20
0.392854
11
0.794495
21
0.395494
0
LINE
8
BLACK
6
CONTINUOUS
10
0.794495
20
0.395494
11
0.796574
21
0.397295
0
LINE
8
BLACK
6
CONTINUOUS
10
0.796574
20
0.397295
11
0.798602
21
0.397736
0
LINE
8
BLACK
6
CONTINUOUS
10
0.798602
20
0.397736
11
0.810305
21
0.397736
0
LINE
8
BLACK
6
CONTINUOUS
10
0.810305
20
0.397736
11
0.810305
21
0.397736
0
LINE
8
BLACK
6
CONTINUOUS
10
0.810305
20
0.397736
11
0.810889
21
0.397852
0
LINE
8
BLACK
6
CONTINUOUS
10
0.810889
20
0.397852
11
0.812607
21
0.398194
0
LINE
8
BLACK
6
CONTINUOUS
10
0.812607
20
0.398194
11
0.812607
21
0.398194
0
LINE
8
BLACK
6
CONTINUOUS
10
0.812607
20
0.398194
11
0.812608
21
0.398194
0
LINE
8
BLACK
6
CONTINUOUS
10
0.812608
20
0.398194
11
0.815219
21
0.399939
0
LINE
8
BLACK
6
CONTINUOUS
10
0.815219
20
0.399939
11
0.816963
21
0.40255
0
LINE
8
BLACK
6
CONTINUOUS
10
0.816963
20
0.40255
11
0.816963
21
0.40255
0
LINE
8
BLACK
6
CONTINUOUS
10
0.816963
20
0.40255
11
0.816963
21
0.40255
0
LINE
8
BLACK
6
CONTINUOUS
10
0.816963
20
0.40255
11
0.817421
21
0.404852
0
LINE
8
BLACK
6
CONTINUOUS
10
0.817421
20
0.404852
11
0.817421
21
0.404852
0
LINE
8
BLACK
6
CONTINUOUS
10
0.817421
20
0.404852
11
0.817421
21
0.405295
0
LINE
8
BLACK
6
CONTINUOUS
10
0.817421
20
0.405295
11
0.817421
21
0.466408
0
LINE
8
BLACK
6
CONTINUOUS
10
0.817421
20
0.466408
11
0.817421
21
0.466408
0
LINE
8
BLACK
6
CONTINUOUS
10
0.817421
20
0.466408
11
0.816963
21
0.46871
0
LINE
8
BLACK
6
CONTINUOUS
10
0.816963
20
0.46871
11
0.816963
21
0.46871
0
LINE
8
BLACK
6
CONTINUOUS
10
0.816963
20
0.46871
11
0.815219
21
0.471321
0
LINE
8
BLACK
6
CONTINUOUS
10
0.815219
20
0.471321
11
0.812607
21
0.473066
0
LINE
8
BLACK
6
CONTINUOUS
10
0.812607
20
0.473066
11
0.812295
21
0.473195
0
LINE
8
BLACK
6
CONTINUOUS
10
0.812295
20
0.473195
11
0.810153
21
0.474921
0
LINE
8
BLACK
6
CONTINUOUS
10
0.810153
20
0.474921
11
0.809285
21
0.477531
0
LINE
8
BLACK
6
CONTINUOUS
10
0.809285
20
0.477531
11
0.809965
21
0.480197
0
LINE
8
BLACK
6
CONTINUOUS
10
0.809965
20
0.480197
11
0.810711
21
0.481157
0
LINE
8
BLACK
6
CONTINUOUS
10
0.810711
20
0.481157
11
0.876798
21
0.547244
0
LINE
8
BLACK
6
CONTINUOUS
10
0.876798
20
0.547244
11
0.913735
21
0.58418
0
LINE
8
BLACK
6
CONTINUOUS
10
0.913735
20
0.58418
11
0.916149
21
0.585499
0
LINE
8
BLACK
6
CONTINUOUS
10
0.916149
20
0.585499
11
0.917187
21
0.58561
0
LINE
8
BLACK
6
CONTINUOUS
10
0.917187
20
0.58561
11
1.30712
21
0.58561
0
LINE
8
BLACK
6
CONTINUOUS
10
1.30712
20
0.58561
11
1.30812
21
0.585506
0
LINE
8
BLACK
6
CONTINUOUS
10
1.30812
20
0.585506
11
1.30848
21
0.585431
0
LINE
8
BLACK
6
CONTINUOUS
10
1.30848
20
0.585431
11
1.30909
21
0.585508
0
LINE
8
BLACK
6
CONTINUOUS
10
1.30909
20
0.585508
11
1.30976
21
0.585591
0
LINE
8
BLACK
6
CONTINUOUS
10
1.30976
20
0.585591
11
1.31006
21
0.58561
0
LINE
8
BLACK
6
CONTINUOUS
10
1.31006
20
0.58561
11
1.3102
21
0.58561
0
LINE
8
BLACK
6
CONTINUOUS
10
1.3102
20
0.58561
11
1.3102
21
0.58561
0
LINE
8
BLACK
6
CONTINUOUS
10
1.3102
20
0.58561
11
1.31056
21
0.585671
0
LINE
8
BLACK
6
CONTINUOUS
10
1.31056
20
0.585671
11
1.311
21
0.585743
0
LINE
8
BLACK
6
CONTINUOUS
10
1.311
20
0.585743
11
1.31109
21
0.585758
0
LINE
8
BLACK
6
CONTINUOUS
10
1.31109
20
0.585758
11
1.31305
21
0.586001
0
LINE
8
BLACK
6
CONTINUOUS
10
1.31305
20
0.586001
11
1.31305
21
0.586001
0
LINE
8
BLACK
6
CONTINUOUS
10
1.31305
20
0.586001
11
1.31332
21
0.586084
0
LINE
8
BLACK
6
CONTINUOUS
10
1.31332
20
0.586084
11
1.3136
21
0.586177
0
LINE
8
BLACK
6
CONTINUOUS
10
1.3136
20
0.586177
11
1.3136
21
0.586177
0
LINE
8
BLACK
6
CONTINUOUS
10
1.3136
20
0.586177
11
1.31473
21
0.586793
0
LINE
8
BLACK
6
CONTINUOUS
10
1.31473
20
0.586793
11
1.31533
21
0.587114
0
LINE
8
BLACK
6
CONTINUOUS
10
1.31533
20
0.587114
11
1.31542
21
0.58716
0
LINE
8
BLACK
6
CONTINUOUS
10
1.31542
20
0.58716
11
1.31718
21
0.588024
0
LINE
8
BLACK
6
CONTINUOUS
10
1.31718
20
0.588024
11
1.31718
21
0.588024
0
LINE
8
BLACK
6
CONTINUOUS
10
1.31718
20
0.588024
11
1.31742
21
0.588192
0
LINE
8
BLACK
6
CONTINUOUS
10
1.31742
20
0.588192
11
1.31765
21
0.588369
0
LINE
8
BLACK
6
CONTINUOUS
10
1.31765
20
0.588369
11
1.31765
21
0.588369
0
LINE
8
BLACK
6
CONTINUOUS
10
1.31765
20
0.588369
11
1.31898
21
0.589817
0
LINE
8
BLACK
6
CONTINUOUS
10
1.31898
20
0.589817
11
1.31905
21
0.589888
0
LINE
8
BLACK
6
CONTINUOUS
10
1.31905
20
0.589888
11
1.33695
21
0.607794
0
LINE
8
BLACK
6
CONTINUOUS
10
1.33695
20
0.607794
11
1.33937
21
0.609112
0
LINE
8
BLACK
6
CONTINUOUS
10
1.33937
20
0.609112
11
1.34104
21
0.609182
0
LINE
8
BLACK
6
CONTINUOUS
10
1.34104
20
0.609182
11
1.3437
21
0.608832
0
LINE
8
BLACK
6
CONTINUOUS
10
1.3437
20
0.608832
11
1.3437
21
0.608832
0
LINE
8
BLACK
6
CONTINUOUS
10
1.3437
20
0.608832
11
1.3437
21
0.608832
0
LINE
8
BLACK
6
CONTINUOUS
10
1.3437
20
0.608832
11
1.34636
21
0.609182
0
LINE
8
BLACK
6
CONTINUOUS
10
1.34636
20
0.609182
11
1.34987
21
0.609645
0
LINE
8
BLACK
6
CONTINUOUS
10
1.34987
20
0.609645
11
1.35562
21
0.612027
0
LINE
8
BLACK
6
CONTINUOUS
10
1.35562
20
0.612027
11
1.36056
21
0.615817
0
LINE
8
BLACK
6
CONTINUOUS
10
1.36056
20
0.615817
11
1.36435
21
0.620755
0
LINE
8
BLACK
6
CONTINUOUS
10
1.36435
20
0.620755
11
1.36673
21
0.626506
0
LINE
8
BLACK
6
CONTINUOUS
10
1.36673
20
0.626506
11
1.36676
21
0.626703
0
LINE
8
BLACK
6
CONTINUOUS
10
1.36676
20
0.626703
11
1.36746
21
0.632003
0
LINE
8
BLACK
6
CONTINUOUS
10
1.36746
20
0.632003
11
1.36755
21
0.632678
0
LINE
8
BLACK
6
CONTINUOUS
10
1.36755
20
0.632678
11
1.36755
21
0.632678
0
LINE
8
BLACK
6
CONTINUOUS
10
1.36755
20
0.632678
11
1.36673
21
0.63885
0
LINE
8
BLACK
6
CONTINUOUS
10
1.36673
20
0.63885
11
1.36673
21
0.63885
0
LINE
8
BLACK
6
CONTINUOUS
10
1.36673
20
0.63885
11
1.36435
21
0.644601
0
LINE
8
BLACK
6
CONTINUOUS
10
1.36435
20
0.644601
11
1.36056
21
0.64954
0
LINE
8
BLACK
6
CONTINUOUS
10
1.36056
20
0.64954
11
1.35562
21
0.653329
0
LINE
8
BLACK
6
CONTINUOUS
10
1.35562
20
0.653329
11
1.34987
21
0.655711
0
LINE
8
BLACK
6
CONTINUOUS
10
1.34987
20
0.655711
11
1.34987
21
0.655711
0
LINE
8
BLACK
6
CONTINUOUS
10
1.34987
20
0.655711
11
1.3437
21
0.656524
0
LINE
8
BLACK
6
CONTINUOUS
10
1.3437
20
0.656524
11
1.3437
21
0.656524
0
LINE
8
BLACK
6
CONTINUOUS
10
1.3437
20
0.656524
11
1.33753
21
0.655711
0
LINE
8
BLACK
6
CONTINUOUS
10
1.33753
20
0.655711
11
1.33753
21
0.655711
0
LINE
8
BLACK
6
CONTINUOUS
10
1.33753
20
0.655711
11
1.33178
21
0.653329
0
LINE
8
BLACK
6
CONTINUOUS
10
1.33178
20
0.653329
11
1.32684
21
0.64954
0
LINE
8
BLACK
6
CONTINUOUS
10
1.32684
20
0.64954
11
1.32305
21
0.644601
0
LINE
8
BLACK
6
CONTINUOUS
10
1.32305
20
0.644601
11
1.32067
21
0.63885
0
LINE
8
BLACK
6
CONTINUOUS
10
1.32067
20
0.63885
11
1.32067
21
0.63885
0
LINE
8
BLACK
6
CONTINUOUS
10
1.32067
20
0.63885
11
1.31985
21
0.632678
0
LINE
8
BLACK
6
CONTINUOUS
10
1.31985
20
0.632678
11
1.31985
21
0.632678
0
LINE
8
BLACK
6
CONTINUOUS
10
1.31985
20
0.632678
11
1.31988
21
0.632454
0
LINE
8
BLACK
6
CONTINUOUS
10
1.31988
20
0.632454
11
1.31946
21
0.629736
0
LINE
8
BLACK
6
CONTINUOUS
10
1.31946
20
0.629736
11
1.3185
21
0.628365
0
LINE
8
BLACK
6
CONTINUOUS
10
1.3185
20
0.628365
11
1.30477
21
0.614639
0
LINE
8
BLACK
6
CONTINUOUS
10
1.30477
20
0.614639
11
1.30235
21
0.61332
0
LINE
8
BLACK
6
CONTINUOUS
10
1.30235
20
0.61332
11
1.30132
21
0.613209
0
LINE
8
BLACK
6
CONTINUOUS
10
1.30132
20
0.613209
11
0.911386
21
0.613209
0
LINE
8
BLACK
6
CONTINUOUS
10
0.911386
20
0.613209
11
0.910384
21
0.613313
0
LINE
8
BLACK
6
CONTINUOUS
10
0.910384
20
0.613313
11
0.910348
21
0.61332
0
LINE
8
BLACK
6
CONTINUOUS
10
0.910348
20
0.61332
11
0.910027
21
0.613388
0
LINE
8
BLACK
6
CONTINUOUS
10
0.910027
20
0.613388
11
0.910027
21
0.613388
0
LINE
8
BLACK
6
CONTINUOUS
10
0.910027
20
0.613388
11
0.910027
21
0.613388
0
LINE
8
BLACK
6
CONTINUOUS
10
0.910027
20
0.613388
11
0.908743
21
0.613227
0
LINE
8
BLACK
6
CONTINUOUS
10
0.908743
20
0.613227
11
0.90844
21
0.613209
0
LINE
8
BLACK
6
CONTINUOUS
10
0.90844
20
0.613209
11
0.908306
21
0.613209
0
LINE
8
BLACK
6
CONTINUOUS
10
0.908306
20
0.613209
11
0.907509
21
0.613076
0
LINE
8
BLACK
6
CONTINUOUS
10
0.907509
20
0.613076
11
0.907409
21
0.613061
0
LINE
8
BLACK
6
CONTINUOUS
10
0.907409
20
0.613061
11
0.905457
21
0.612818
0
LINE
8
BLACK
6
CONTINUOUS
10
0.905457
20
0.612818
11
0.90518
21
0.612735
0
LINE
8
BLACK
6
CONTINUOUS
10
0.90518
20
0.612735
11
0.904906
21
0.612641
0
LINE
8
BLACK
6
CONTINUOUS
10
0.904906
20
0.612641
11
0.903176
21
0.611705
0
LINE
8
BLACK
6
CONTINUOUS
10
0.903176
20
0.611705
11
0.903087
21
0.611659
0
LINE
8
BLACK
6
CONTINUOUS
10
0.903087
20
0.611659
11
0.901319
21
0.610795
0
LINE
8
BLACK
6
CONTINUOUS
10
0.901319
20
0.610795
11
0.901084
21
0.610627
0
LINE
8
BLACK
6
CONTINUOUS
10
0.901084
20
0.610627
11
0.900856
21
0.61045
0
LINE
8
BLACK
6
CONTINUOUS
10
0.900856
20
0.61045
11
0.899524
21
0.609002
0
LINE
8
BLACK
6
CONTINUOUS
10
0.899524
20
0.609002
11
0.899454
21
0.60893
0
LINE
8
BLACK
6
CONTINUOUS
10
0.899454
20
0.60893
11
0.771534
21
0.481009
0
LINE
8
BLACK
6
CONTINUOUS
10
0.771534
20
0.481009
11
0.770752
21
0.480375
0
LINE
8
BLACK
6
CONTINUOUS
10
0.770752
20
0.480375
11
0.770446
21
0.480175
0
LINE
8
BLACK
6
CONTINUOUS
10
0.770446
20
0.480175
11
0.769651
21
0.479154
0
LINE
8
BLACK
6
CONTINUOUS
10
0.769651
20
0.479154
11
0.769451
21
0.478927
0
LINE
8
BLACK
6
CONTINUOUS
10
0.769451
20
0.478927
11
0.769356
21
0.478831
0
LINE
8
BLACK
6
CONTINUOUS
10
0.769356
20
0.478831
11
0.769355
21
0.478831
0
LINE
8
BLACK
6
CONTINUOUS
10
0.769355
20
0.478831
11
0.768886
21
0.478173
0
LINE
8
BLACK
6
CONTINUOUS
10
0.768886
20
0.478173
11
0.768825
21
0.478092
0
LINE
8
BLACK
6
CONTINUOUS
10
0.768825
20
0.478092
11
0.767617
21
0.47654
0
LINE
8
BLACK
6
CONTINUOUS
10
0.767617
20
0.47654
11
0.767479
21
0.476285
0
LINE
8
BLACK
6
CONTINUOUS
10
0.767479
20
0.476285
11
0.767468
21
0.476263
0
LINE
8
BLACK
6
CONTINUOUS
10
0.767468
20
0.476263
11
0.767466
21
0.47626
0
LINE
8
BLACK
6
CONTINUOUS
10
0.767466
20
0.47626
11
0.76737
21
0.476083
0
LINE
8
BLACK
6
CONTINUOUS
10
0.76737
20
0.476083
11
0.767214
21
0.475832
0
LINE
8
BLACK
6
CONTINUOUS
10
0.767214
20
0.475832
11
0.767125
21
0.475707
0
LINE
8
BLACK
6
CONTINUOUS
10
0.767125
20
0.475707
11
0.767026
21
0.475778
0
LINE
8
BLACK
6
CONTINUOUS
10
0.767026
20
0.475778
11
0.765614
21
0.474232
0
LINE
8
BLACK
6
CONTINUOUS
10
0.765614
20
0.474232
11
0.763082
21
0.473524
0
LINE
8
BLACK
6
CONTINUOUS
10
0.763082
20
0.473524
11
0.74875
21
0.473524
0
LINE
8
BLACK
6
CONTINUOUS
10
0.74875
20
0.473524
11
0.746448
21
0.473066
0
LINE
8
BLACK
6
CONTINUOUS
10
0.746448
20
0.473066
11
0.746448
21
0.473066
0
LINE
8
BLACK
6
CONTINUOUS
10
0.746448
20
0.473066
11
0.743836
21
0.471321
0
LINE
8
BLACK
6
CONTINUOUS
10
0.743836
20
0.471321
11
0.742092
21
0.46871
0
LINE
8
BLACK
6
CONTINUOUS
10
0.742092
20
0.46871
11
0.742092
21
0.46871
0
LINE
8
BLACK
6
CONTINUOUS
10
0.742092
20
0.46871
11
0.741634
21
0.466408
0
LINE
8
BLACK
6
CONTINUOUS
10
0.741634
20
0.466408
11
0.741634
21
0.404852
0
LINE
8
BLACK
6
CONTINUOUS
10
0.741634
20
0.404852
11
0.742092
21
0.40255
0
LINE
8
BLACK
6
CONTINUOUS
10
0.742092
20
0.40255
11
0.742092
21
0.40255
0
LINE
8
BLACK
6
CONTINUOUS
10
0.742092
20
0.40255
11
0.743836
21
0.399939
0
LINE
8
BLACK
6
CONTINUOUS
10
0.743836
20
0.399939
11
0.746448
21
0.398194
0
LINE
8
BLACK
6
CONTINUOUS
10
0.746448
20
0.398194
11
0.746448
21
0.398194
0
LINE
8
BLACK
6
CONTINUOUS
10
0.746448
20
0.398194
11
0.74875
21
0.397736
0
LINE
8
BLACK
6
CONTINUOUS
10
0.74875
20
0.397736
11
0.74875
21
0.397736
0
LINE
8
BLACK
6
CONTINUOUS
10
0.74875
20
0.397736
11
0.74875
21
0.397736
0
LINE
8
BLACK
6
CONTINUOUS
10
0.74875
20
0.397736
11
0.76124
21
0.397736
0
LINE
8
BLACK
6
CONTINUOUS
10
0.76124
20
0.397736
11
0.763879
21
0.396961
0
LINE
8
BLACK
6
CONTINUOUS
10
0.763879
20
0.396961
11
0.765681
21
0.394882
0
LINE
8
BLACK
6
CONTINUOUS
10
0.765681
20
0.394882
11
0.766122
21
0.392854
0
LINE
8
BLACK
6
CONTINUOUS
10
0.766122
20
0.392854
11
0.766122
21
0.378406
0
LINE
8
BLACK
6
CONTINUOUS
10
0.766122
20
0.378406
11
0.765347
21
0.375766
0
LINE
8
BLACK
6
CONTINUOUS
10
0.765347
20
0.375766
11
0.763268
21
0.373965
0
LINE
8
BLACK
6
CONTINUOUS
10
0.763268
20
0.373965
11
0.76124
21
0.373524
0
LINE
8
BLACK
6
CONTINUOUS
10
0.76124
20
0.373524
11
0.74875
21
0.373524
0
LINE
8
BLACK
6
CONTINUOUS
10
0.74875
20
0.373524
11
0.746448
21
0.373066
0
LINE
8
BLACK
6
CONTINUOUS
10
0.746448
20
0.373066
11
0.746448
21
0.373066
0
LINE
8
BLACK
6
CONTINUOUS
10
0.746448
20
0.373066
11
0.743836
21
0.371321
0
LINE
8
BLACK
6
CONTINUOUS
10
0.743836
20
0.371321
11
0.742092
21
0.36871
0
LINE
8
BLACK
6
CONTINUOUS
10
0.742092
20
0.36871
11
0.742092
21
0.36871
0
LINE
8
BLACK
6
CONTINUOUS
10
0.742092
20
0.36871
11
0.741634
21
0.366408
0
LINE
8
BLACK
6
CONTINUOUS
10
0.741634
20
0.366408
11
0.741634
21
0.304852
0
LINE
8
BLACK
6
CONTINUOUS
10
0.741634
20
0.304852
11
0.742092
21
0.30255
0
LINE
8
BLACK
6
CONTINUOUS
10
1.1413
20
0.302993
11
1.1413
21
0.302993
0
LINE
8
BLACK
6
CONTINUOUS
10
1.1413
20
0.302993
11
1.14305
21
0.300382
0
LINE
8
BLACK
6
CONTINUOUS
10
1.14305
20
0.300382
11
1.14566
21
0.298637
0
LINE
8
BLACK
6
CONTINUOUS
10
1.14566
20
0.298637
11
1.14566
21
0.298637
0
LINE
8
BLACK
6
CONTINUOUS
10
1.14566
20
0.298637
11
1.14796
21
0.298179
0
LINE
8
BLACK
6
CONTINUOUS
10
1.14796
20
0.298179
11
1.14796
21
0.298179
0
LINE
8
BLACK
6
CONTINUOUS
10
1.14796
20
0.298179
11
1.14796
21
0.298179
0
LINE
8
BLACK
6
CONTINUOUS
10
1.14796
20
0.298179
11
1.20952
21
0.298179
0
LINE
8
BLACK
6
CONTINUOUS
10
1.20952
20
0.298179
11
1.20952
21
0.298179
0
LINE
8
BLACK
6
CONTINUOUS
10
1.20952
20
0.298179
11
1.2101
21
0.298295
0
LINE
8
BLACK
6
CONTINUOUS
10
1.2101
20
0.298295
11
1.21182
21
0.298637
0
LINE
8
BLACK
6
CONTINUOUS
10
1.21182
20
0.298637
11
1.21182
21
0.298637
0
LINE
8
BLACK
6
CONTINUOUS
10
1.21182
20
0.298637
11
1.21182
21
0.298637
0
LINE
8
BLACK
6
CONTINUOUS
10
1.21182
20
0.298637
11
1.21443
21
0.300382
0
LINE
8
BLACK
6
CONTINUOUS
10
1.21443
20
0.300382
11
1.21618
21
0.302993
0
LINE
8
BLACK
6
CONTINUOUS
10
1.21618
20
0.302993
11
1.21618
21
0.302993
0
LINE
8
BLACK
6
CONTINUOUS
10
1.21618
20
0.302993
11
1.21618
21
0.302993
0
LINE
8
BLACK
6
CONTINUOUS
10
1.21618
20
0.302993
11
1.21663
21
0.305295
0
LINE
8
BLACK
6
CONTINUOUS
10
1.21663
20
0.305295
11
1.21663
21
0.305295
0
LINE
8
BLACK
6
CONTINUOUS
10
1.21663
20
0.305295
11
1.21663
21
0.36685
0
LINE
8
BLACK
6
CONTINUOUS
10
1.21663
20
0.36685
11
1.21663
21
0.366851
0
LINE
8
BLACK
6
CONTINUOUS
10
1.21663
20
0.366851
11
1.21618
21
0.369153
0
LINE
8
BLACK
6
CONTINUOUS
10
1.21618
20
0.369153
11
1.21618
21
0.369153
0
LINE
8
BLACK
6
CONTINUOUS
10
1.21618
20
0.369153
11
1.21443
21
0.371764
0
LINE
8
BLACK
6
CONTINUOUS
10
1.21443
20
0.371764
11
1.21182
21
0.373509
0
LINE
8
BLACK
6
CONTINUOUS
10
1.21182
20
0.373509
11
1.21182
21
0.373509
0
LINE
8
BLACK
6
CONTINUOUS
10
1.21182
20
0.373509
11
1.20952
21
0.373967
0
LINE
8
BLACK
6
CONTINUOUS
10
1.20952
20
0.373967
11
1.20952
21
0.373967
0
LINE
8
BLACK
6
CONTINUOUS
10
1.20952
20
0.373967
11
1.14796
21
0.373967
0
LINE
8
BLACK
6
CONTINUOUS
10
1.14796
20
0.373967
11
1.14796
21
0.373967
0
LINE
8
BLACK
6
CONTINUOUS
10
1.14796
20
0.373967
11
1.14566
21
0.373509
0
LINE
8
BLACK
6
CONTINUOUS
10
1.14566
20
0.373509
11
1.14566
21
0.373509
0
LINE
8
BLACK
6
CONTINUOUS
10
1.14566
20
0.373509
11
1.14305
21
0.371764
0
LINE
8
BLACK
6
CONTINUOUS
10
1.14305
20
0.371764
11
1.1413
21
0.369153
0
LINE
8
BLACK
6
CONTINUOUS
10
1.1413
20
0.369153
11
1.1413
21
0.369153
0
LINE
8
BLACK
6
CONTINUOUS
10
1.1413
20
0.369153
11
1.14085
21
0.366851
0
LINE
8
BLACK
6
CONTINUOUS
10
1.14085
20
0.366851
11
1.14085
21
0.305295
0
LINE
8
BLACK
6
CONTINUOUS
10
1.14085
20
0.305295
11
1.1413
21
0.302993
0
LINE
8
BLACK
6
CONTINUOUS
10
1.2413
20
0.302993
11
1.2413
21
0.302993
0
LINE
8
BLACK
6
CONTINUOUS
10
1.2413
20
0.302993
11
1.24305
21
0.300382
0
LINE
8
BLACK
6
CONTINUOUS
10
1.24305
20
0.300382
11
1.24566
21
0.298637
0
LINE
8
BLACK
6
CONTINUOUS
10
1.24566
20
0.298637
11
1.24566
21
0.298637
0
LINE
8
BLACK
6
CONTINUOUS
10
1.24566
20
0.298637
11
1.24796
21
0.298179
0
LINE
8
BLACK
6
CONTINUOUS
10
1.24796
20
0.298179
11
1.24796
21
0.298179
0
LINE
8
BLACK
6
CONTINUOUS
10
1.24796
20
0.298179
11
1.24796
21
0.298179
0
LINE
8
BLACK
6
CONTINUOUS
10
1.24796
20
0.298179
11
1.30952
21
0.298179
0
LINE
8
BLACK
6
CONTINUOUS
10
1.30952
20
0.298179
11
1.30952
21
0.298179
0
LINE
8
BLACK
6
CONTINUOUS
10
1.30952
20
0.298179
11
1.3101
21
0.298295
0
LINE
8
BLACK
6
CONTINUOUS
10
1.3101
20
0.298295
11
1.31182
21
0.298637
0
LINE
8
BLACK
6
CONTINUOUS
10
1.31182
20
0.298637
11
1.31182
21
0.298637
0
LINE
8
BLACK
6
CONTINUOUS
10
1.31182
20
0.298637
11
1.31182
21
0.298637
0
LINE
8
BLACK
6
CONTINUOUS
10
1.31182
20
0.298637
11
1.31443
21
0.300382
0
LINE
8
BLACK
6
CONTINUOUS
10
1.31443
20
0.300382
11
1.31618
21
0.302993
0
LINE
8
BLACK
6
CONTINUOUS
10
1.31618
20
0.302993
11
1.31618
21
0.302993
0
LINE
8
BLACK
6
CONTINUOUS
10
1.31618
20
0.302993
11
1.31618
21
0.302993
0
LINE
8
BLACK
6
CONTINUOUS
10
1.31618
20
0.302993
11
1.31663
21
0.305295
0
LINE
8
BLACK
6
CONTINUOUS
10
1.31663
20
0.305295
11
1.31663
21
0.305295
0
LINE
8
BLACK
6
CONTINUOUS
10
1.31663
20
0.305295
11
1.31663
21
0.36685
0
LINE
8
BLACK
6
CONTINUOUS
10
1.31663
20
0.36685
11
1.31663
21
0.366851
0
LINE
8
BLACK
6
CONTINUOUS
10
1.31663
20
0.366851
11
1.31618
21
0.369153
0
LINE
8
BLACK
6
CONTINUOUS
10
1.31618
20
0.369153
11
1.31618
21
0.369153
0
LINE
8
BLACK
6
CONTINUOUS
10
1.31618
20
0.369153
11
1.31443
21
0.371764
0
LINE
8
BLACK
6
CONTINUOUS
10
1.31443
20
0.371764
11
1.31182
21
0.373509
0
LINE
8
BLACK
6
CONTINUOUS
10
1.31182
20
0.373509
11
1.31182
21
0.373509
0
LINE
8
BLACK
6
CONTINUOUS
10
1.31182
20
0.373509
11
1.30952
21
0.373967
0
LINE
8
BLACK
6
CONTINUOUS
10
1.30952
20
0.373967
11
1.30952
21
0.373967
0
LINE
8
BLACK
6
CONTINUOUS
10
1.30952
20
0.373967
11
1.24796
21
0.373967
0
LINE
8
BLACK
6
CONTINUOUS
10
1.24796
20
0.373967
11
1.24796
21
0.373967
0
LINE
8
BLACK
6
CONTINUOUS
10
1.24796
20
0.373967
11
1.24566
21
0.373509
0
LINE
8
BLACK
6
CONTINUOUS
10
1.24566
20
0.373509
11
1.24566
21
0.373509
0
LINE
8
BLACK
6
CONTINUOUS
10
1.24566
20
0.373509
11
1.24305
21
0.371764
0
LINE
8
BLACK
6
CONTINUOUS
10
1.24305
20
0.371764
11
1.2413
21
0.369153
0
LINE
8
BLACK
6
CONTINUOUS
10
1.2413
20
0.369153
11
1.2413
21
0.369153
0
LINE
8
BLACK
6
CONTINUOUS
10
1.2413
20
0.369153
11
1.24085
21
0.366851
0
LINE
8
BLACK
6
CONTINUOUS
10
1.24085
20
0.366851
11
1.24085
21
0.305295
0
LINE
8
BLACK
6
CONTINUOUS
10
1.24085
20
0.305295
11
1.2413
21
0.302993
0
LINE
8
BLACK
6
CONTINUOUS
10
1.3413
20
0.302993
11
1.3413
21
0.302993
0
LINE
8
BLACK
6
CONTINUOUS
10
1.3413
20
0.302993
11
1.34305
21
0.300382
0
LINE
8
BLACK
6
CONTINUOUS
10
1.34305
20
0.300382
11
1.34566
21
0.298637
0
LINE
8
BLACK
6
CONTINUOUS
10
1.34566
20
0.298637
11
1.34566
21
0.298637
0
LINE
8
BLACK
6
CONTINUOUS
10
1.34566
20
0.298637
11
1.34796
21
0.298179
0
LINE
8
BLACK
6
CONTINUOUS
10
1.34796
20
0.298179
11
1.34796
21
0.298179
0
LINE
8
BLACK
6
CONTINUOUS
10
1.34796
20
0.298179
11
1.34796
21
0.298179
0
LINE
8
BLACK
6
CONTINUOUS
10
1.34796
20
0.298179
11
1.40952
21
0.298179
0
LINE
8
BLACK
6
CONTINUOUS
10
1.40952
20
0.298179
11
1.40952
21
0.298179
0
LINE
8
BLACK
6
CONTINUOUS
10
1.40952
20
0.298179
11
1.4101
21
0.298295
0
LINE
8
BLACK
6
CONTINUOUS
10
1.4101
20
0.298295
11
1.41182
21
0.298637
0
LINE
8
BLACK
6
CONTINUOUS
10
1.41182
20
0.298637
11
1.41182
21
0.298637
0
LINE
8
BLACK
6
CONTINUOUS
10
1.41182
20
0.298637
11
1.41182
21
0.298637
0
LINE
8
BLACK
6
CONTINUOUS
10
1.41182
20
0.298637
11
1.41443
21
0.300382
0
LINE
8
BLACK
6
CONTINUOUS
10
1.41443
20
0.300382
11
1.41618
21
0.302993
0
LINE
8
BLACK
6
CONTINUOUS
10
1.41618
20
0.302993
11
1.41618
21
0.302993
0
LINE
8
BLACK
6
CONTINUOUS
10
1.41618
20
0.302993
11
1.41618
21
0.302993
0
LINE
8
BLACK
6
CONTINUOUS
10
1.41618
20
0.302993
11
1.41663
21
0.305295
0
LINE
8
BLACK
6
CONTINUOUS
10
1.41663
20
0.305295
11
1.41663
21
0.305295
0
LINE
8
BLACK
6
CONTINUOUS
10
1.41663
20
0.305295
11
1.41663
21
0.36685
0
LINE
8
BLACK
6
CONTINUOUS
10
1.41663
20
0.36685
11
1.41663
21
0.366851
0
LINE
8
BLACK
6
CONTINUOUS
10
1.41663
20
0.366851
11
1.41618
21
0.369153
0
LINE
8
BLACK
6
CONTINUOUS
10
1.41618
20
0.369153
11
1.41618
21
0.369153
0
LINE
8
BLACK
6
CONTINUOUS
10
1.41618
20
0.369153
11
1.41443
21
0.371764
0
LINE
8
BLACK
6
CONTINUOUS
10
1.41443
20
0.371764
11
1.41182
21
0.373509
0
LINE
8
BLACK
6
CONTINUOUS
10
1.41182
20
0.373509
11
1.41182
21
0.373509
0
LINE
8
BLACK
6
CONTINUOUS
10
1.41182
20
0.373509
11
1.40952
21
0.373967
0
LINE
8
BLACK
6
CONTINUOUS
10
1.40952
20
0.373967
11
1.40952
21
0.373967
0
LINE
8
BLACK
6
CONTINUOUS
10
1.40952
20
0.373967
11
1.34796
21
0.373967
0
LINE
8
BLACK
6
CONTINUOUS
10
1.34796
20
0.373967
11
1.34796
21
0.373967
0
LINE
8
BLACK
6
CONTINUOUS
10
1.34796
20
0.373967
11
1.34566
21
0.373509
0
LINE
8
BLACK
6
CONTINUOUS
10
1.34566
20
0.373509
11
1.34566
21
0.373509
0
LINE
8
BLACK
6
CONTINUOUS
10
1.34566
20
0.373509
11
1.34305
21
0.371764
0
LINE
8
BLACK
6
CONTINUOUS
10
1.34305
20
0.371764
11
1.3413
21
0.369153
0
LINE
8
BLACK
6
CONTINUOUS
10
1.3413
20
0.369153
11
1.3413
21
0.369153
0
LINE
8
BLACK
6
CONTINUOUS
10
1.3413
20
0.369153
11
1.34085
21
0.366851
0
LINE
8
BLACK
6
CONTINUOUS
10
1.34085
20
0.366851
11
1.34085
21
0.305295
0
LINE
8
BLACK
6
CONTINUOUS
10
1.34085
20
0.305295
11
1.3413
21
0.302993
0
LINE
8
BLACK
6
CONTINUOUS
10
1.1413
20
0.402993
11
1.1413
21
0.402993
0
LINE
8
BLACK
6
CONTINUOUS
10
1.1413
20
0.402993
11
1.14305
21
0.400382
0
LINE
8
BLACK
6
CONTINUOUS
10
1.14305
20
0.400382
11
1.14566
21
0.398637
0
LINE
8
BLACK
6
CONTINUOUS
10
1.14566
20
0.398637
11
1.14566
21
0.398637
0
LINE
8
BLACK
6
CONTINUOUS
10
1.14566
20
0.398637
11
1.14796
21
0.398179
0
LINE
8
BLACK
6
CONTINUOUS
10
1.14796
20
0.398179
11
1.14796
21
0.398179
0
LINE
8
BLACK
6
CONTINUOUS
10
1.14796
20
0.398179
11
1.14796
21
0.398179
0
LINE
8
BLACK
6
CONTINUOUS
10
1.14796
20
0.398179
11
1.20952
21
0.398179
0
LINE
8
BLACK
6
CONTINUOUS
10
1.20952
20
0.398179
11
1.20952
21
0.398179
0
LINE
8
BLACK
6
CONTINUOUS
10
1.20952
20
0.398179
11
1.2101
21
0.398295
0
LINE
8
BLACK
6
CONTINUOUS
10
1.2101
20
0.398295
11
1.21182
21
0.398637
0
LINE
8
BLACK
6
CONTINUOUS
10
1.21182
20
0.398637
11
1.21182
21
0.398637
0
LINE
8
BLACK
6
CONTINUOUS
10
1.21182
20
0.398637
11
1.21182
21
0.398637
0
LINE
8
BLACK
6
CONTINUOUS
10
1.21182
20
0.398637
11
1.21443
21
0.400382
0
LINE
8
BLACK
6
CONTINUOUS
10
1.21443
20
0.400382
11
1.21618
21
0.402993
0
LINE
8
BLACK
6
CONTINUOUS
10
1.21618
20
0.402993
11
1.21618
21
0.402993
0
LINE
8
BLACK
6
CONTINUOUS
10
1.21618
20
0.402993
11
1.21618
21
0.402993
0
LINE
8
BLACK
6
CONTINUOUS
10
1.21618
20
0.402993
11
1.21663
21
0.405295
0
LINE
8
BLACK
6
CONTINUOUS
10
1.21663
20
0.405295
11
1.21663
21
0.405295
0
LINE
8
BLACK
6
CONTINUOUS
10
1.21663
20
0.405295
11
1.21663
21
0.46685
0
LINE
8
BLACK
6
CONTINUOUS
10
1.21663
20
0.46685
11
1.21663
21
0.466851
0
LINE
8
BLACK
6
CONTINUOUS
10
1.21663
20
0.466851
11
1.21618
21
0.469153
0
LINE
8
BLACK
6
CONTINUOUS
10
1.21618
20
0.469153
11
1.21618
21
0.469153
0
LINE
8
BLACK
6
CONTINUOUS
10
1.21618
20
0.469153
11
1.21443
21
0.471764
0
LINE
8
BLACK
6
CONTINUOUS
10
1.21443
20
0.471764
11
1.21182
21
0.473509
0
LINE
8
BLACK
6
CONTINUOUS
10
1.21182
20
0.473509
11
1.21182
21
0.473509
0
LINE
8
BLACK
6
CONTINUOUS
10
1.21182
20
0.473509
11
1.20952
21
0.473967
0
LINE
8
BLACK
6
CONTINUOUS
10
1.20952
20
0.473967
11
1.20952
21
0.473967
0
LINE
8
BLACK
6
CONTINUOUS
10
1.20952
20
0.473967
11
1.14796
21
0.473967
0
LINE
8
BLACK
6
CONTINUOUS
10
1.14796
20
0.473967
11
1.14796
21
0.473967
0
LINE
8
BLACK
6
CONTINUOUS
10
1.14796
20
0.473967
11
1.14566
21
0.473509
0
LINE
8
BLACK
6
CONTINUOUS
10
1.14566
20
0.473509
11
1.14566
21
0.473509
0
LINE
8
BLACK
6
CONTINUOUS
10
1.14566
20
0.473509
11
1.14305
21
0.471764
0
LINE
8
BLACK
6
CONTINUOUS
10
1.14305
20
0.471764
11
1.1413
21
0.469153
0
LINE
8
BLACK
6
CONTINUOUS
10
1.1413
20
0.469153
11
1.1413
21
0.469153
0
LINE
8
BLACK
6
CONTINUOUS
10
1.1413
20
0.469153
11
1.14085
21
0.466851
0
LINE
8
BLACK
6
CONTINUOUS
10
1.14085
20
0.466851
11
1.14085
21
0.405295
0
LINE
8
BLACK
6
CONTINUOUS
10
1.14085
20
0.405295
11
1.1413
21
0.402993
0
LINE
8
BLACK
6
CONTINUOUS
10
0.423232
20
0.799627
11
0.423232
21
0.799627
0
LINE
8
BLACK
6
CONTINUOUS
10
0.423232
20
0.799627
11
0.425875
21
0.79249
0
LINE
8
BLACK
6
CONTINUOUS
10
0.425875
20
0.79249
11
0.425876
21
0.79249
0
LINE
8
BLACK
6
CONTINUOUS
10
0.425876
20
0.79249
11
0.429901
21
0.786031
0
LINE
8
BLACK
6
CONTINUOUS
10
0.429901
20
0.786031
11
0.429901
21
0.786031
0
LINE
8
BLACK
6
CONTINUOUS
10
0.429901
20
0.786031
11
0.429901
21
0.786031
0
LINE
8
BLACK
6
CONTINUOUS
10
0.429901
20
0.786031
11
0.435145
21
0.780515
0
LINE
8
BLACK
6
CONTINUOUS
10
0.435145
20
0.780515
11
0.441391
21
0.776167
0
LINE
8
BLACK
6
CONTINUOUS
10
0.441391
20
0.776167
11
0.448385
21
0.773166
0
LINE
8
BLACK
6
CONTINUOUS
10
0.448385
20
0.773166
11
0.45584
21
0.771634
0
LINE
8
BLACK
6
CONTINUOUS
10
0.45584
20
0.771634
11
0.520599
21
0.771634
0
LINE
8
BLACK
6
CONTINUOUS
10
0.520599
20
0.771634
11
0.526273
21
0.772211
0
LINE
8
BLACK
6
CONTINUOUS
10
0.526273
20
0.772211
11
0.533534
21
0.774489
0
LINE
8
BLACK
6
CONTINUOUS
10
0.533534
20
0.774489
11
0.533534
21
0.774489
0
LINE
8
BLACK
6
CONTINUOUS
10
0.533534
20
0.774489
11
0.533534
21
0.774489
0
LINE
8
BLACK
6
CONTINUOUS
10
0.533534
20
0.774489
11
0.540189
21
0.778183
0
LINE
8
BLACK
6
CONTINUOUS
10
0.540189
20
0.778183
11
0.545963
21
0.78314
0
LINE
8
BLACK
6
CONTINUOUS
10
0.545963
20
0.78314
11
0.550622
21
0.789159
0
LINE
8
BLACK
6
CONTINUOUS
10
0.550622
20
0.789159
11
0.553974
21
0.795991
0
LINE
8
BLACK
6
CONTINUOUS
10
0.553974
20
0.795991
11
0.555881
21
0.803359
0
LINE
8
BLACK
6
CONTINUOUS
10
0.555881
20
0.803359
11
0.556267
21
0.81096
0
LINE
8
BLACK
6
CONTINUOUS
10
0.556267
20
0.81096
11
0.555114
21
0.818483
0
LINE
8
BLACK
6
CONTINUOUS
10
0.555114
20
0.818483
11
0.552471
21
0.82562
0
LINE
8
BLACK
6
CONTINUOUS
10
0.552471
20
0.82562
11
0.550394
21
0.828952
0
LINE
8
BLACK
6
CONTINUOUS
10
0.550394
20
0.828952
11
0.548445
21
0.832079
0
LINE
8
BLACK
6
CONTINUOUS
10
0.548445
20
0.832079
11
0.548445
21
0.832079
0
LINE
8
BLACK
6
CONTINUOUS
10
0.548445
20
0.832079
11
0.548445
21
0.832079
0
LINE
8
BLACK
6
CONTINUOUS
10
0.548445
20
0.832079
11
0.543826
21
0.836939
0
LINE
8
BLACK
6
CONTINUOUS
10
0.543826
20
0.836939
11
0.543202
21
0.837595
0
LINE
8
BLACK
6
CONTINUOUS
10
0.543202
20
0.837595
11
0.539851
21
0.839928
0
LINE
8
BLACK
6
CONTINUOUS
10
0.539851
20
0.839928
11
0.536955
21
0.841943
0
LINE
8
BLACK
6
CONTINUOUS
10
0.536955
20
0.841943
11
0.529961
21
0.844944
0
LINE
8
BLACK
6
CONTINUOUS
10
0.529961
20
0.844944
11
0.522506
21
0.846476
0
LINE
8
BLACK
6
CONTINUOUS
10
0.522506
20
0.846476
11
0.457748
21
0.846476
0
LINE
8
BLACK
6
CONTINUOUS
10
0.457748
20
0.846476
11
0.457748
21
0.846476
0
LINE
8
BLACK
6
CONTINUOUS
10
0.457748
20
0.846476
11
0.452074
21
0.845899
0
LINE
8
BLACK
6
CONTINUOUS
10
0.452074
20
0.845899
11
0.444813
21
0.843621
0
LINE
8
BLACK
6
CONTINUOUS
10
0.444813
20
0.843621
11
0.444812
21
0.843621
0
LINE
8
BLACK
6
CONTINUOUS
10
0.444812
20
0.843621
11
0.438158
21
0.839928
0
LINE
8
BLACK
6
CONTINUOUS
10
0.438158
20
0.839928
11
0.438158
21
0.839927
0
LINE
8
BLACK
6
CONTINUOUS
10
0.438158
20
0.839927
11
0.432383
21
0.83497
0
LINE
8
BLACK
6
CONTINUOUS
10
0.432383
20
0.83497
11
0.432383
21
0.83497
0
LINE
8
BLACK
6
CONTINUOUS
10
0.432383
20
0.83497
11
0.427725
21
0.828952
0
LINE
8
BLACK
6
CONTINUOUS
10
0.427725
20
0.828952
11
0.427725
21
0.828952
0
LINE
8
BLACK
6
CONTINUOUS
10
0.427725
20
0.828952
11
0.424373
21
0.822119
0
LINE
8
BLACK
6
CONTINUOUS
10
0.424373
20
0.822119
11
0.422465
21
0.814751
0
LINE
8
BLACK
6
CONTINUOUS
10
0.422465
20
0.814751
11
0.422465
21
0.814751
0
LINE
8
BLACK
6
CONTINUOUS
10
0.422465
20
0.814751
11
0.42208
21
0.80715
0
LINE
8
BLACK
6
CONTINUOUS
10
0.42208
20
0.80715
11
0.423232
21
0.799627
0
LINE
8
BLACK
6
CONTINUOUS
10
0.924178
20
0.934637
11
0.924178
21
0.934637
0
LINE
8
BLACK
6
CONTINUOUS
10
0.924178
20
0.934637
11
0.925923
21
0.932026
0
LINE
8
BLACK
6
CONTINUOUS
10
0.925923
20
0.932026
11
0.928534
21
0.930281
0
LINE
8
BLACK
6
CONTINUOUS
10
0.928534
20
0.930281
11
0.928534
21
0.930281
0
LINE
8
BLACK
6
CONTINUOUS
10
0.928534
20
0.930281
11
0.930836
21
0.929823
0
LINE
8
BLACK
6
CONTINUOUS
10
0.930836
20
0.929823
11
0.930837
21
0.929823
0
LINE
8
BLACK
6
CONTINUOUS
10
0.930837
20
0.929823
11
0.930837
21
0.929823
0
LINE
8
BLACK
6
CONTINUOUS
10
0.930837
20
0.929823
11
0.992392
21
0.929823
0
LINE
8
BLACK
6
CONTINUOUS
10
0.992392
20
0.929823
11
0.992392
21
0.929823
0
LINE
8
BLACK
6
CONTINUOUS
10
0.992392
20
0.929823
11
0.992975
21
0.929939
0
LINE
8
BLACK
6
CONTINUOUS
10
0.992975
20
0.929939
11
0.994694
21
0.930281
0
LINE
8
BLACK
6
CONTINUOUS
10
0.994694
20
0.930281
11
0.994694
21
0.930281
0
LINE
8
BLACK
6
CONTINUOUS
10
0.994694
20
0.930281
11
0.994694
21
0.930281
0
LINE
8
BLACK
6
CONTINUOUS
10
0.994694
20
0.930281
11
0.997305
21
0.932026
0
LINE
8
BLACK
6
CONTINUOUS
10
0.997305
20
0.932026
11
0.99905
21
0.934637
0
LINE
8
BLACK
6
CONTINUOUS
10
0.99905
20
0.934637
11
0.99905
21
0.934637
0
LINE
8
BLACK
6
CONTINUOUS
10
0.99905
20
0.934637
11
0.99905
21
0.934637
0
LINE
8
BLACK
6
CONTINUOUS
10
0.99905
20
0.934637
11
0.999508
21
0.936939
0
LINE
8
BLACK
6
CONTINUOUS
10
0.999508
20
0.936939
11
0.999508
21
0.936939
0
LINE
8
BLACK
6
CONTINUOUS
10
0.999508
20
0.936939
11
0.999508
21
0.998494
0
LINE
8
BLACK
6
CONTINUOUS
10
0.999508
20
0.998494
11
0.999508
21
0.998494
0
LINE
8
BLACK
6
CONTINUOUS
10
0.999508
20
0.998494
11
0.99905
21
1.0008
0
LINE
8
BLACK
6
CONTINUOUS
10
0.99905
20
1.0008
11
0.99905
21
1.0008
0
LINE
8
BLACK
6
CONTINUOUS
10
0.99905
20
1.0008
11
0.997305
21
1.00341
0
LINE
8
BLACK
6
CONTINUOUS
10
0.997305
20
1.00341
11
0.994694
21
1.00515
0
LINE
8
BLACK
6
CONTINUOUS
10
0.994694
20
1.00515
11
0.994694
21
1.00515
0
LINE
8
BLACK
6
CONTINUOUS
10
0.994694
20
1.00515
11
0.992392
21
1.00561
0
LINE
8
BLACK
6
CONTINUOUS
10
0.992392
20
1.00561
11
0.992392
21
1.00561
0
LINE
8
BLACK
6
CONTINUOUS
10
0.992392
20
1.00561
11
0.930837
21
1.00561
0
LINE
8
BLACK
6
CONTINUOUS
10
0.930837
20
1.00561
11
0.930836
21
1.00561
0
LINE
8
BLACK
6
CONTINUOUS
10
0.930836
20
1.00561
11
0.928534
21
1.00515
0
LINE
8
BLACK
6
CONTINUOUS
10
0.928534
20
1.00515
11
0.928534
21
1.00515
0
LINE
8
BLACK
6
CONTINUOUS
10
0.928534
20
1.00515
11
0.925923
21
1.00341
0
LINE
8
BLACK
6
CONTINUOUS
10
0.925923
20
1.00341
11
0.924178
21
1.0008
0
LINE
8
BLACK
6
CONTINUOUS
10
0.924178
20
1.0008
11
0.924178
21
1.0008
0
LINE
8
BLACK
6
CONTINUOUS
10
0.924178
20
1.0008
11
0.92372
21
0.998494
0
LINE
8
BLACK
6
CONTINUOUS
10
0.92372
20
0.998494
11
0.92372
21
0.936939
0
LINE
8
BLACK
6
CONTINUOUS
10
0.92372
20
0.936939
11
0.924178
21
0.934637
0
LINE
8
BLACK
6
CONTINUOUS
10
1.02418
20
0.934637
11
1.02418
21
0.934637
0
LINE
8
BLACK
6
CONTINUOUS
10
1.02418
20
0.934637
11
1.02592
21
0.932026
0
LINE
8
BLACK
6
CONTINUOUS
10
1.02592
20
0.932026
11
1.02853
21
0.930281
0
LINE
8
BLACK
6
CONTINUOUS
10
1.02853
20
0.930281
11
1.02853
21
0.930281
0
LINE
8
BLACK
6
CONTINUOUS
10
1.02853
20
0.930281
11
1.03084
21
0.929823
0
LINE
8
BLACK
6
CONTINUOUS
10
1.03084
20
0.929823
11
1.03084
21
0.929823
0
LINE
8
BLACK
6
CONTINUOUS
10
1.03084
20
0.929823
11
1.03084
21
0.929823
0
LINE
8
BLACK
6
CONTINUOUS
10
1.03084
20
0.929823
11
1.09239
21
0.929823
0
LINE
8
BLACK
6
CONTINUOUS
10
1.09239
20
0.929823
11
1.09239
21
0.929823
0
LINE
8
BLACK
6
CONTINUOUS
10
1.09239
20
0.929823
11
1.09298
21
0.929939
0
LINE
8
BLACK
6
CONTINUOUS
10
1.09298
20
0.929939
11
1.09469
21
0.930281
0
LINE
8
BLACK
6
CONTINUOUS
10
1.09469
20
0.930281
11
1.09469
21
0.930281
0
LINE
8
BLACK
6
CONTINUOUS
10
1.09469
20
0.930281
11
1.09469
21
0.930281
0
LINE
8
BLACK
6
CONTINUOUS
10
1.09469
20
0.930281
11
1.09731
21
0.932026
0
LINE
8
BLACK
6
CONTINUOUS
10
1.09731
20
0.932026
11
1.09905
21
0.934637
0
LINE
8
BLACK
6
CONTINUOUS
10
1.09905
20
0.934637
11
1.09905
21
0.934637
0
LINE
8
BLACK
6
CONTINUOUS
10
1.09905
20
0.934637
11
1.09905
21
0.934637
0
LINE
8
BLACK
6
CONTINUOUS
10
1.09905
20
0.934637
11
1.09951
21
0.936939
0
LINE
8
BLACK
6
CONTINUOUS
10
1.09951
20
0.936939
11
1.09951
21
0.936939
0
LINE
8
BLACK
6
CONTINUOUS
10
1.09951
20
0.936939
11
1.09951
21
0.998494
0
LINE
8
BLACK
6
CONTINUOUS
10
1.09951
20
0.998494
11
1.09951
21
0.998494
0
LINE
8
BLACK
6
CONTINUOUS
10
1.09951
20
0.998494
11
1.09905
21
1.0008
0
LINE
8
BLACK
6
CONTINUOUS
10
1.09905
20
1.0008
11
1.09905
21
1.0008
0
LINE
8
BLACK
6
CONTINUOUS
10
1.09905
20
1.0008
11
1.09731
21
1.00341
0
LINE
8
BLACK
6
CONTINUOUS
10
1.09731
20
1.00341
11
1.09469
21
1.00515
0
LINE
8
BLACK
6
CONTINUOUS
10
1.09469
20
1.00515
11
1.09469
21
1.00515
0
LINE
8
BLACK
6
CONTINUOUS
10
1.09469
20
1.00515
11
1.09239
21
1.00561
0
LINE
8
BLACK
6
CONTINUOUS
10
1.09239
20
1.00561
11
1.09239
21
1.00561
0
LINE
8
BLACK
6
CONTINUOUS
10
1.09239
20
1.00561
11
1.03084
21
1.00561
0
LINE
8
BLACK
6
CONTINUOUS
10
1.03084
20
1.00561
11
1.03084
21
1.00561
0
LINE
8
BLACK
6
CONTINUOUS
10
1.03084
20
1.00561
11
1.02853
21
1.00515
0
LINE
8
BLACK
6
CONTINUOUS
10
1.02853
20
1.00515
11
1.02853
21
1.00515
0
LINE
8
BLACK
6
CONTINUOUS
10
1.02853
20
1.00515
11
1.02592
21
1.00341
0
LINE
8
BLACK
6
CONTINUOUS
10
1.02592
20
1.00341
11
1.02418
21
1.0008
0
LINE
8
BLACK
6
CONTINUOUS
10
1.02418
20
1.0008
11
1.02418
21
1.0008
0
LINE
8
BLACK
6
CONTINUOUS
10
1.02418
20
1.0008
11
1.02372
21
0.998494
0
LINE
8
BLACK
6
CONTINUOUS
10
1.02372
20
0.998494
11
1.02372
21
0.936939
0
LINE
8
BLACK
6
CONTINUOUS
10
1.02372
20
0.936939
11
1.02418
21
0.934637
0
LINE
8
BLACK
6
CONTINUOUS
10
0.423232
20
0.996478
11
0.423232
21
0.996477
0
LINE
8
BLACK
6
CONTINUOUS
10
0.423232
20
0.996477
11
0.425875
21
0.989341
0
LINE
8
BLACK
6
CONTINUOUS
10
0.425875
20
0.989341
11
0.425876
21
0.98934
0
LINE
8
BLACK
6
CONTINUOUS
10
0.425876
20
0.98934
11
0.429901
21
0.982882
0
LINE
8
BLACK
6
CONTINUOUS
10
0.429901
20
0.982882
11
0.429901
21
0.982882
0
LINE
8
BLACK
6
CONTINUOUS
10
0.429901
20
0.982882
11
0.429901
21
0.982882
0
LINE
8
BLACK
6
CONTINUOUS
10
0.429901
20
0.982882
11
0.435145
21
0.977365
0
LINE
8
BLACK
6
CONTINUOUS
10
0.435145
20
0.977365
11
0.441391
21
0.973018
0
LINE
8
BLACK
6
CONTINUOUS
10
0.441391
20
0.973018
11
0.448385
21
0.970016
0
LINE
8
BLACK
6
CONTINUOUS
10
0.448385
20
0.970016
11
0.45584
21
0.968484
0
LINE
8
BLACK
6
CONTINUOUS
10
0.45584
20
0.968484
11
0.520599
21
0.968484
0
LINE
8
BLACK
6
CONTINUOUS
10
0.520599
20
0.968484
11
0.526273
21
0.969061
0
LINE
8
BLACK
6
CONTINUOUS
10
0.526273
20
0.969061
11
0.533534
21
0.971339
0
LINE
8
BLACK
6
CONTINUOUS
10
0.533534
20
0.971339
11
0.533534
21
0.97134
0
LINE
8
BLACK
6
CONTINUOUS
10
0.533534
20
0.97134
11
0.533534
21
0.97134
0
LINE
8
BLACK
6
CONTINUOUS
10
0.533534
20
0.97134
11
0.540189
21
0.975033
0
LINE
8
BLACK
6
CONTINUOUS
10
0.540189
20
0.975033
11
0.545963
21
0.979991
0
LINE
8
BLACK
6
CONTINUOUS
10
0.545963
20
0.979991
11
0.550622
21
0.986009
0
LINE
8
BLACK
6
CONTINUOUS
10
0.550622
20
0.986009
11
0.553974
21
0.992842
0
LINE
8
BLACK
6
CONTINUOUS
10
0.553974
20
0.992842
11
0.555881
21
1.00021
0
LINE
8
BLACK
6
CONTINUOUS
10
0.555881
20
1.00021
11
0.556267
21
1.00781
0
LINE
8
BLACK
6
CONTINUOUS
10
0.556267
20
1.00781
11
0.555114
21
1.01533
0
LINE
8
BLACK
6
CONTINUOUS
10
0.555114
20
1.01533
11
0.552471
21
1.02247
0
LINE
8
BLACK
6
CONTINUOUS
10
0.552471
20
1.02247
11
0.552471
21
1.02247
0
LINE
8
BLACK
6
CONTINUOUS
10
0.552471
20
1.02247
11
0.548445
21
1.02893
0
LINE
8
BLACK
6
CONTINUOUS
10
0.548445
20
1.02893
11
0.548445
21
1.02893
0
LINE
8
BLACK
6
CONTINUOUS
10
0.548445
20
1.02893
11
0.548445
21
1.02893
0
LINE
8
BLACK
6
CONTINUOUS
10
0.548445
20
1.02893
11
0.543202
21
1.03445
0
LINE
8
BLACK
6
CONTINUOUS
10
0.543202
20
1.03445
11
0.539851
21
1.03678
0
LINE
8
BLACK
6
CONTINUOUS
10
0.539851
20
1.03678
11
0.536955
21
1.03879
0
LINE
8
BLACK
6
CONTINUOUS
10
0.536955
20
1.03879
11
0.529961
21
1.04179
0
LINE
8
BLACK
6
CONTINUOUS
10
0.529961
20
1.04179
11
0.522506
21
1.04333
0
LINE
8
BLACK
6
CONTINUOUS
10
0.522506
20
1.04333
11
0.457748
21
1.04333
0
LINE
8
BLACK
6
CONTINUOUS
10
0.457748
20
1.04333
11
0.457748
21
1.04333
0
LINE
8
BLACK
6
CONTINUOUS
10
0.457748
20
1.04333
11
0.452074
21
1.04275
0
LINE
8
BLACK
6
CONTINUOUS
10
0.452074
20
1.04275
11
0.444813
21
1.04047
0
LINE
8
BLACK
6
CONTINUOUS
10
0.444813
20
1.04047
11
0.444812
21
1.04047
0
LINE
8
BLACK
6
CONTINUOUS
10
0.444812
20
1.04047
11
0.438158
21
1.03678
0
LINE
8
BLACK
6
CONTINUOUS
10
0.438158
20
1.03678
11
0.438158
21
1.03678
0
LINE
8
BLACK
6
CONTINUOUS
10
0.438158
20
1.03678
11
0.432383
21
1.03182
0
LINE
8
BLACK
6
CONTINUOUS
10
0.432383
20
1.03182
11
0.432383
21
1.03182
0
LINE
8
BLACK
6
CONTINUOUS
10
0.432383
20
1.03182
11
0.427725
21
1.0258
0
LINE
8
BLACK
6
CONTINUOUS
10
0.427725
20
1.0258
11
0.427725
21
1.0258
0
LINE
8
BLACK
6
CONTINUOUS
10
0.427725
20
1.0258
11
0.424373
21
1.01897
0
LINE
8
BLACK
6
CONTINUOUS
10
0.424373
20
1.01897
11
0.422465
21
1.0116
0
LINE
8
BLACK
6
CONTINUOUS
10
0.422465
20
1.0116
11
0.422465
21
1.0116
0
LINE
8
BLACK
6
CONTINUOUS
10
0.422465
20
1.0116
11
0.42208
21
1.004
0
LINE
8
BLACK
6
CONTINUOUS
10
0.42208
20
1.004
11
0.423232
21
0.996478
0
LINE
8
BLACK
6
CONTINUOUS
10
0.422682
20
1.17015
11
0.422682
21
1.17015
0
LINE
8
BLACK
6
CONTINUOUS
10
0.422682
20
1.17015
11
0.424427
21
1.16754
0
LINE
8
BLACK
6
CONTINUOUS
10
0.424427
20
1.16754
11
0.427038
21
1.16579
0
LINE
8
BLACK
6
CONTINUOUS
10
0.427038
20
1.16579
11
0.427038
21
1.16579
0
LINE
8
BLACK
6
CONTINUOUS
10
0.427038
20
1.16579
11
0.42934
21
1.16533
0
LINE
8
BLACK
6
CONTINUOUS
10
0.42934
20
1.16533
11
0.429341
21
1.16533
0
LINE
8
BLACK
6
CONTINUOUS
10
0.429341
20
1.16533
11
0.429341
21
1.16533
0
LINE
8
BLACK
6
CONTINUOUS
10
0.429341
20
1.16533
11
0.549006
21
1.16533
0
LINE
8
BLACK
6
CONTINUOUS
10
0.549006
20
1.16533
11
0.549006
21
1.16533
0
LINE
8
BLACK
6
CONTINUOUS
10
0.549006
20
1.16533
11
0.549589
21
1.16545
0
LINE
8
BLACK
6
CONTINUOUS
10
0.549589
20
1.16545
11
0.551308
21
1.16579
0
LINE
8
BLACK
6
CONTINUOUS
10
0.551308
20
1.16579
11
0.551308
21
1.16579
0
LINE
8
BLACK
6
CONTINUOUS
10
0.551308
20
1.16579
11
0.551308
21
1.16579
0
LINE
8
BLACK
6
CONTINUOUS
10
0.551308
20
1.16579
11
0.553919
21
1.16754
0
LINE
8
BLACK
6
CONTINUOUS
10
0.553919
20
1.16754
11
0.555664
21
1.17015
0
LINE
8
BLACK
6
CONTINUOUS
10
0.555664
20
1.17015
11
0.555664
21
1.17015
0
LINE
8
BLACK
6
CONTINUOUS
10
0.555664
20
1.17015
11
0.555664
21
1.17015
0
LINE
8
BLACK
6
CONTINUOUS
10
0.555664
20
1.17015
11
0.556122
21
1.17245
0
LINE
8
BLACK
6
CONTINUOUS
10
0.556122
20
1.17245
11
0.556122
21
1.17245
0
LINE
8
BLACK
6
CONTINUOUS
10
0.556122
20
1.17245
11
0.556122
21
1.23306
0
LINE
8
BLACK
6
CONTINUOUS
10
0.556122
20
1.23306
11
0.556122
21
1.23306
0
LINE
8
BLACK
6
CONTINUOUS
10
0.556122
20
1.23306
11
0.555664
21
1.23536
0
LINE
8
BLACK
6
CONTINUOUS
10
0.555664
20
1.23536
11
0.555664
21
1.23536
0
LINE
8
BLACK
6
CONTINUOUS
10
0.555664
20
1.23536
11
0.553919
21
1.23797
0
LINE
8
BLACK
6
CONTINUOUS
10
0.553919
20
1.23797
11
0.551308
21
1.23972
0
LINE
8
BLACK
6
CONTINUOUS
10
0.551308
20
1.23972
11
0.551308
21
1.23972
0
LINE
8
BLACK
6
CONTINUOUS
10
0.551308
20
1.23972
11
0.549006
21
1.24018
0
LINE
8
BLACK
6
CONTINUOUS
10
0.549006
20
1.24018
11
0.549006
21
1.24018
0
LINE
8
BLACK
6
CONTINUOUS
10
0.549006
20
1.24018
11
0.429341
21
1.24018
0
LINE
8
BLACK
6
CONTINUOUS
10
0.429341
20
1.24018
11
0.42934
21
1.24018
0
LINE
8
BLACK
6
CONTINUOUS
10
0.42934
20
1.24018
11
0.427038
21
1.23972
0
LINE
8
BLACK
6
CONTINUOUS
10
0.427038
20
1.23972
11
0.427038
21
1.23972
0
LINE
8
BLACK
6
CONTINUOUS
10
0.427038
20
1.23972
11
0.424427
21
1.23797
0
LINE
8
BLACK
6
CONTINUOUS
10
0.424427
20
1.23797
11
0.422682
21
1.23536
0
LINE
8
BLACK
6
CONTINUOUS
10
0.422682
20
1.23536
11
0.422682
21
1.23536
0
LINE
8
BLACK
6
CONTINUOUS
10
0.422682
20
1.23536
11
0.422224
21
1.23306
0
LINE
8
BLACK
6
CONTINUOUS
10
0.422224
20
1.23306
11
0.422224
21
1.17245
0
LINE
8
BLACK
6
CONTINUOUS
10
0.422224
20
1.17245
11
0.422682
21
1.17015
0
LINE
8
BLACK
6
CONTINUOUS
10
1.84863
20
1.32403
11
1.85059
21
1.31995
0
LINE
8
BLACK
6
CONTINUOUS
10
1.85059
20
1.31995
11
1.85059
21
1.31995
0
LINE
8
BLACK
6
CONTINUOUS
10
1.85059
20
1.31995
11
1.85341
21
1.31641
0
LINE
8
BLACK
6
CONTINUOUS
10
1.85341
20
1.31641
11
1.85696
21
1.31358
0
LINE
8
BLACK
6
CONTINUOUS
10
1.85696
20
1.31358
11
1.85696
21
1.31358
0
LINE
8
BLACK
6
CONTINUOUS
10
1.85696
20
1.31358
11
1.85696
21
1.31358
0
LINE
8
BLACK
6
CONTINUOUS
10
1.85696
20
1.31358
11
1.86104
21
1.31162
0
LINE
8
BLACK
6
CONTINUOUS
10
1.86104
20
1.31162
11
1.86104
21
1.31162
0
LINE
8
BLACK
6
CONTINUOUS
10
1.86104
20
1.31162
11
1.86104
21
1.31162
0
LINE
8
BLACK
6
CONTINUOUS
10
1.86104
20
1.31162
11
1.86545
21
1.31061
0
LINE
8
BLACK
6
CONTINUOUS
10
1.86545
20
1.31061
11
1.91723
21
1.31061
0
LINE
8
BLACK
6
CONTINUOUS
10
1.91723
20
1.31061
11
1.92164
21
1.31162
0
LINE
8
BLACK
6
CONTINUOUS
10
1.92164
20
1.31162
11
1.92572
21
1.31358
0
LINE
8
BLACK
6
CONTINUOUS
10
1.92572
20
1.31358
11
1.92926
21
1.31641
0
LINE
8
BLACK
6
CONTINUOUS
10
1.92926
20
1.31641
11
1.93209
21
1.31995
0
LINE
8
BLACK
6
CONTINUOUS
10
1.93209
20
1.31995
11
1.93405
21
1.32403
0
LINE
8
BLACK
6
CONTINUOUS
10
1.93405
20
1.32403
11
1.93506
21
1.32844
0
LINE
8
BLACK
6
CONTINUOUS
10
1.93506
20
1.32844
11
1.93506
21
1.33071
0
LINE
8
BLACK
6
CONTINUOUS
10
1.93506
20
1.33071
11
1.93506
21
1.33084
0
LINE
8
BLACK
6
CONTINUOUS
10
1.93506
20
1.33084
11
1.93506
21
1.33084
0
LINE
8
BLACK
6
CONTINUOUS
10
1.93506
20
1.33084
11
1.93506
21
1.38591
0
LINE
8
BLACK
6
CONTINUOUS
10
1.93506
20
1.38591
11
1.93506
21
1.38809
0
LINE
8
BLACK
6
CONTINUOUS
10
1.93506
20
1.38809
11
1.93405
21
1.39251
0
LINE
8
BLACK
6
CONTINUOUS
10
1.93405
20
1.39251
11
1.93209
21
1.39659
0
LINE
8
BLACK
6
CONTINUOUS
10
1.93209
20
1.39659
11
1.92926
21
1.40013
0
LINE
8
BLACK
6
CONTINUOUS
10
1.92926
20
1.40013
11
1.92572
21
1.40295
0
LINE
8
BLACK
6
CONTINUOUS
10
1.92572
20
1.40295
11
1.92572
21
1.40295
0
LINE
8
BLACK
6
CONTINUOUS
10
1.92572
20
1.40295
11
1.92164
21
1.40492
0
LINE
8
BLACK
6
CONTINUOUS
10
1.92164
20
1.40492
11
1.92164
21
1.40492
0
LINE
8
BLACK
6
CONTINUOUS
10
1.92164
20
1.40492
11
1.91723
21
1.40593
0
LINE
8
BLACK
6
CONTINUOUS
10
1.91723
20
1.40593
11
1.91723
21
1.40593
0
LINE
8
BLACK
6
CONTINUOUS
10
1.91723
20
1.40593
11
1.91504
21
1.40593
0
LINE
8
BLACK
6
CONTINUOUS
10
1.91504
20
1.40593
11
1.86785
21
1.40593
0
LINE
8
BLACK
6
CONTINUOUS
10
1.86785
20
1.40593
11
1.86772
21
1.40593
0
LINE
8
BLACK
6
CONTINUOUS
10
1.86772
20
1.40593
11
1.86545
21
1.40593
0
LINE
8
BLACK
6
CONTINUOUS
10
1.86545
20
1.40593
11
1.86545
21
1.40593
0
LINE
8
BLACK
6
CONTINUOUS
10
1.86545
20
1.40593
11
1.86104
21
1.40492
0
LINE
8
BLACK
6
CONTINUOUS
10
1.86104
20
1.40492
11
1.85696
21
1.40295
0
LINE
8
BLACK
6
CONTINUOUS
10
1.85696
20
1.40295
11
1.85696
21
1.40295
0
LINE
8
BLACK
6
CONTINUOUS
10
1.85696
20
1.40295
11
1.85341
21
1.40013
0
LINE
8
BLACK
6
CONTINUOUS
10
1.85341
20
1.40013
11
1.85059
21
1.39659
0
LINE
8
BLACK
6
CONTINUOUS
10
1.85059
20
1.39659
11
1.85059
21
1.39659
0
LINE
8
BLACK
6
CONTINUOUS
10
1.85059
20
1.39659
11
1.84863
21
1.39251
0
LINE
8
BLACK
6
CONTINUOUS
10
1.84863
20
1.39251
11
1.84762
21
1.38809
0
LINE
8
BLACK
6
CONTINUOUS
10
1.84762
20
1.38809
11
1.84762
21
1.32844
0
LINE
8
BLACK
6
CONTINUOUS
10
1.84762
20
1.32844
11
1.84863
21
1.32403
0
LINE
8
BLACK
6
CONTINUOUS
10
0.75784
20
1.46692
11
0.75784
21
1.46692
0
LINE
8
BLACK
6
CONTINUOUS
10
0.75784
20
1.46692
11
0.759585
21
1.46431
0
LINE
8
BLACK
6
CONTINUOUS
10
0.759585
20
1.46431
11
0.762196
21
1.46256
0
LINE
8
BLACK
6
CONTINUOUS
10
0.762196
20
1.46256
11
0.762196
21
1.46256
0
LINE
8
BLACK
6
CONTINUOUS
10
0.762196
20
1.46256
11
0.764498
21
1.46211
0
LINE
8
BLACK
6
CONTINUOUS
10
0.764498
20
1.46211
11
0.764498
21
1.46211
0
LINE
8
BLACK
6
CONTINUOUS
10
0.764498
20
1.46211
11
0.764498
21
1.46211
0
LINE
8
BLACK
6
CONTINUOUS
10
0.764498
20
1.46211
11
0.826053
21
1.46211
0
LINE
8
BLACK
6
CONTINUOUS
10
0.826053
20
1.46211
11
0.826053
21
1.46211
0
LINE
8
BLACK
6
CONTINUOUS
10
0.826053
20
1.46211
11
0.826637
21
1.46222
0
LINE
8
BLACK
6
CONTINUOUS
10
0.826637
20
1.46222
11
0.828355
21
1.46256
0
LINE
8
BLACK
6
CONTINUOUS
10
0.828355
20
1.46256
11
0.828355
21
1.46256
0
LINE
8
BLACK
6
CONTINUOUS
10
0.828355
20
1.46256
11
0.828356
21
1.46256
0
LINE
8
BLACK
6
CONTINUOUS
10
0.828356
20
1.46256
11
0.830967
21
1.46431
0
LINE
8
BLACK
6
CONTINUOUS
10
0.830967
20
1.46431
11
0.832711
21
1.46692
0
LINE
8
BLACK
6
CONTINUOUS
10
0.832711
20
1.46692
11
0.832711
21
1.46692
0
LINE
8
BLACK
6
CONTINUOUS
10
0.832711
20
1.46692
11
0.832711
21
1.46692
0
LINE
8
BLACK
6
CONTINUOUS
10
0.832711
20
1.46692
11
0.833169
21
1.46922
0
LINE
8
BLACK
6
CONTINUOUS
10
0.833169
20
1.46922
11
0.833169
21
1.46922
0
LINE
8
BLACK
6
CONTINUOUS
10
0.833169
20
1.46922
11
0.833169
21
1.53078
0
LINE
8
BLACK
6
CONTINUOUS
10
0.833169
20
1.53078
11
0.833169
21
1.53078
0
LINE
8
BLACK
6
CONTINUOUS
10
0.833169
20
1.53078
11
0.832711
21
1.53308
0
LINE
8
BLACK
6
CONTINUOUS
10
0.832711
20
1.53308
11
0.832711
21
1.53308
0
LINE
8
BLACK
6
CONTINUOUS
10
0.832711
20
1.53308
11
0.830967
21
1.53569
0
LINE
8
BLACK
6
CONTINUOUS
10
0.830967
20
1.53569
11
0.828356
21
1.53744
0
LINE
8
BLACK
6
CONTINUOUS
10
0.828356
20
1.53744
11
0.828355
21
1.53744
0
LINE
8
BLACK
6
CONTINUOUS
10
0.828355
20
1.53744
11
0.826053
21
1.53789
0
LINE
8
BLACK
6
CONTINUOUS
10
0.826053
20
1.53789
11
0.826053
21
1.53789
0
LINE
8
BLACK
6
CONTINUOUS
10
0.826053
20
1.53789
11
0.764498
21
1.53789
0
LINE
8
BLACK
6
CONTINUOUS
10
0.764498
20
1.53789
11
0.764498
21
1.53789
0
LINE
8
BLACK
6
CONTINUOUS
10
0.764498
20
1.53789
11
0.762196
21
1.53744
0
LINE
8
BLACK
6
CONTINUOUS
10
0.762196
20
1.53744
11
0.762196
21
1.53744
0
LINE
8
BLACK
6
CONTINUOUS
10
0.762196
20
1.53744
11
0.759585
21
1.53569
0
LINE
8
BLACK
6
CONTINUOUS
10
0.759585
20
1.53569
11
0.75784
21
1.53308
0
LINE
8
BLACK
6
CONTINUOUS
10
0.75784
20
1.53308
11
0.75784
21
1.53308
0
LINE
8
BLACK
6
CONTINUOUS
10
0.75784
20
1.53308
11
0.757382
21
1.53078
0
LINE
8
BLACK
6
CONTINUOUS
10
0.757382
20
1.53078
11
0.757382
21
1.46922
0
LINE
8
BLACK
6
CONTINUOUS
10
0.757382
20
1.46922
11
0.75784
21
1.46692
0
LINE
8
BLACK
6
CONTINUOUS
10
0.85784
20
1.46692
11
0.85784
21
1.46692
0
LINE
8
BLACK
6
CONTINUOUS
10
0.85784
20
1.46692
11
0.859585
21
1.46431
0
LINE
8
BLACK
6
CONTINUOUS
10
0.859585
20
1.46431
11
0.862196
21
1.46256
0
LINE
8
BLACK
6
CONTINUOUS
10
0.862196
20
1.46256
11
0.862196
21
1.46256
0
LINE
8
BLACK
6
CONTINUOUS
10
0.862196
20
1.46256
11
0.864498
21
1.46211
0
LINE
8
BLACK
6
CONTINUOUS
10
0.864498
20
1.46211
11
0.864498
21
1.46211
0
LINE
8
BLACK
6
CONTINUOUS
10
0.864498
20
1.46211
11
0.864498
21
1.46211
0
LINE
8
BLACK
6
CONTINUOUS
10
0.864498
20
1.46211
11
0.926053
21
1.46211
0
LINE
8
BLACK
6
CONTINUOUS
10
0.926053
20
1.46211
11
0.926053
21
1.46211
0
LINE
8
BLACK
6
CONTINUOUS
10
0.926053
20
1.46211
11
0.926637
21
1.46222
0
LINE
8
BLACK
6
CONTINUOUS
10
0.926637
20
1.46222
11
0.928355
21
1.46256
0
LINE
8
BLACK
6
CONTINUOUS
10
0.928355
20
1.46256
11
0.928355
21
1.46256
0
LINE
8
BLACK
6
CONTINUOUS
10
0.928355
20
1.46256
11
0.928356
21
1.46256
0
LINE
8
BLACK
6
CONTINUOUS
10
0.928356
20
1.46256
11
0.930967
21
1.46431
0
LINE
8
BLACK
6
CONTINUOUS
10
0.930967
20
1.46431
11
0.932711
21
1.46692
0
LINE
8
BLACK
6
CONTINUOUS
10
0.932711
20
1.46692
11
0.932711
21
1.46692
0
LINE
8
BLACK
6
CONTINUOUS
10
0.932711
20
1.46692
11
0.932711
21
1.46692
0
LINE
8
BLACK
6
CONTINUOUS
10
0.932711
20
1.46692
11
0.933169
21
1.46922
0
LINE
8
BLACK
6
CONTINUOUS
10
0.933169
20
1.46922
11
0.933169
21
1.46922
0
LINE
8
BLACK
6
CONTINUOUS
10
0.933169
20
1.46922
11
0.933169
21
1.53078
0
LINE
8
BLACK
6
CONTINUOUS
10
0.933169
20
1.53078
11
0.933169
21
1.53078
0
LINE
8
BLACK
6
CONTINUOUS
10
0.933169
20
1.53078
11
0.932711
21
1.53308
0
LINE
8
BLACK
6
CONTINUOUS
10
0.932711
20
1.53308
11
0.932711
21
1.53308
0
LINE
8
BLACK
6
CONTINUOUS
10
0.932711
20
1.53308
11
0.930967
21
1.53569
0
LINE
8
BLACK
6
CONTINUOUS
10
0.930967
20
1.53569
11
0.928356
21
1.53744
0
LINE
8
BLACK
6
CONTINUOUS
10
0.928356
20
1.53744
11
0.928355
21
1.53744
0
LINE
8
BLACK
6
CONTINUOUS
10
0.928355
20
1.53744
11
0.926053
21
1.53789
0
LINE
8
BLACK
6
CONTINUOUS
10
0.926053
20
1.53789
11
0.926053
21
1.53789
0
LINE
8
BLACK
6
CONTINUOUS
10
0.926053
20
1.53789
11
0.864498
21
1.53789
0
LINE
8
BLACK
6
CONTINUOUS
10
0.864498
20
1.53789
11
0.864498
21
1.53789
0
LINE
8
BLACK
6
CONTINUOUS
10
0.864498
20
1.53789
11
0.862196
21
1.53744
0
LINE
8
BLACK
6
CONTINUOUS
10
0.862196
20
1.53744
11
0.862196
21
1.53744
0
LINE
8
BLACK
6
CONTINUOUS
10
0.862196
20
1.53744
11
0.859585
21
1.53569
0
LINE
8
BLACK
6
CONTINUOUS
10
0.859585
20
1.53569
11
0.85784
21
1.53308
0
LINE
8
BLACK
6
CONTINUOUS
10
0.85784
20
1.53308
11
0.85784
21
1.53308
0
LINE
8
BLACK
6
CONTINUOUS
10
0.85784
20
1.53308
11
0.857382
21
1.53078
0
LINE
8
BLACK
6
CONTINUOUS
10
0.857382
20
1.53078
11
0.857382
21
1.46922
0
LINE
8
BLACK
6
CONTINUOUS
10
0.857382
20
1.46922
11
0.85784
21
1.46692
0
CIRCLE
8
BLACK
10
0.291339
20
1.6
40
0.00688976
0
CIRCLE
8
BLACK
10
1.44291
20
1.39173
40
0.00688976
0
CIRCLE
8
BLACK
10
1.24606
20
1.39173
40
0.00688976
0
CIRCLE
8
BLACK
10
0.291339
20
0.4
40
0.00688976
0
CIRCLE
8
BLACK
10
1.77067
20
0.65748
40
0.00688976
0
CIRCLE
8
BLACK
10
1.77067
20
0.75748
40
0.00688976
0
CIRCLE
8
BLACK
10
1.87067
20
0.65748
40
0.00688976
0
CIRCLE
8
BLACK
10
1.87067
20
0.75748
40
0.00688976
0
CIRCLE
8
BLACK
10
1.97067
20
0.65748
40
0.00688976
0
CIRCLE
8
BLACK
10
1.97067
20
0.75748
40
0.00688976
0
CIRCLE
8
BLACK
10
1.89134
20
0.4
40
0.00688976
0
CIRCLE
8
BLACK
10
1.07874
20
0.336073
40
0.00688976
0
CIRCLE
8
BLACK
10
1.07874
20
0.436073
40
0.00688976
0
CIRCLE
8
BLACK
10
1.17874
20
0.336073
40
0.00688976
0
CIRCLE
8
BLACK
10
1.17874
20
0.436073
40
0.00688976
0
CIRCLE
8
BLACK
10
1.27874
20
0.336073
40
0.00688976
0
CIRCLE
8
BLACK
10
1.27874
20
0.436073
40
0.00688976
0
CIRCLE
8
BLACK
10
1.37874
20
0.336073
40
0.00688976
0
CIRCLE
8
BLACK
10
1.37874
20
0.436073
40
0.00688976
0
CIRCLE
8
BLACK
10
1.47874
20
0.336073
40
0.00688976
0
CIRCLE
8
BLACK
10
1.47874
20
0.436073
40
0.00688976
0
CIRCLE
8
BLACK
10
1.89134
20
1.6
40
0.00688976
0
CIRCLE
8
BLACK
10
0.579528
20
0.33563
40
0.00688976
0
CIRCLE
8
BLACK
10
0.579528
20
0.43563
40
0.00688976
0
CIRCLE
8
BLACK
10
0.679528
20
0.33563
40
0.00688976
0
CIRCLE
8
BLACK
10
0.679528
20
0.43563
40
0.00688976
0
CIRCLE
8
BLACK
10
0.779528
20
0.33563
40
0.00688976
0
CIRCLE
8
BLACK
10
0.779528
20
0.43563
40
0.00688976
0
CIRCLE
8
BLACK
10
0.489173
20
1.20276
40
0.00688976
0
CIRCLE
8
BLACK
10
0.489173
20
1.00591
40
0.00688976
0
CIRCLE
8
BLACK
10
0.489173
20
0.809055
40
0.00688976
0
CIRCLE
8
BLACK
10
1.06161
20
0.767717
40
0.00688976
0
CIRCLE
8
BLACK
10
0.961614
20
0.767717
40
0.00688976
0
CIRCLE
8
BLACK
10
1.06161
20
0.867717
40
0.00688976
0
CIRCLE
8
BLACK
10
0.961614
20
0.867717
40
0.00688976
0
CIRCLE
8
BLACK
10
1.06161
20
0.967717
40
0.00688976
0
CIRCLE
8
BLACK
10
0.961614
20
0.967717
40
0.00688976
0
CIRCLE
8
BLACK
10
0.795276
20
1.7
40
0.00688976
0
CIRCLE
8
BLACK
10
0.895276
20
1.7
40
0.00688976
0
CIRCLE
8
BLACK
10
0.795276
20
1.6
40
0.00688976
0
CIRCLE
8
BLACK
10
0.895276
20
1.6
40
0.00688976
0
CIRCLE
8
BLACK
10
0.795276
20
1.5
40
0.00688976
0
CIRCLE
8
BLACK
10
0.895276
20
1.5
40
0.00688976
0
CIRCLE
8
BLACK
10
0.795276
20
1.4
40
0.00688976
0
CIRCLE
8
BLACK
10
0.895276
20
1.4
40
0.00688976
0
CIRCLE
8
BLACK
10
1.35856
20
0.734646
40
0.00393701
0
CIRCLE
8
BLACK
10
1.35856
20
0.78189
40
0.00393701
0
CIRCLE
8
BLACK
10
1.35856
20
0.829134
40
0.00393701
0
CIRCLE
8
BLACK
10
1.35856
20
0.876378
40
0.00393701
0
CIRCLE
8
BLACK
10
1.35856
20
0.923622
40
0.00393701
0
CIRCLE
8
BLACK
10
1.31132
20
0.734646
40
0.00393701
0
CIRCLE
8
BLACK
10
1.31132
20
0.78189
40
0.00393701
0
CIRCLE
8
BLACK
10
1.31132
20
0.829134
40
0.00393701
0
CIRCLE
8
BLACK
10
1.31132
20
0.876378
40
0.00393701
0
CIRCLE
8
BLACK
10
1.31132
20
0.923622
40
0.00393701
0
CIRCLE
8
BLACK
10
1.26407
20
0.734646
40
0.00393701
0
CIRCLE
8
BLACK
10
1.26407
20
0.78189
40
0.00393701
0
CIRCLE
8
BLACK
10
1.26407
20
0.829134
40
0.00393701
0
CIRCLE
8
BLACK
10
1.26407
20
0.876378
40
0.00393701
0
CIRCLE
8
BLACK
10
1.26407
20
0.923622
40
0.00393701
0
CIRCLE
8
BLACK
10
0.73
20
0.707
40
0.00787402
0
CIRCLE
8
BLACK
10
1.635
20
0.319
40
0.00787402
0
CIRCLE
8
BLACK
10
0.926
20
0.444
40
0.00787402
0
CIRCLE
8
BLACK
10
1.15256
20
1.59744
40
0.00787402
0
CIRCLE
8
BLACK
10
1.317
20
0.966
40
0.00787402
0
CIRCLE
8
BLACK
10
1.516
20
0.535
40
0.00787402
0
CIRCLE
8
BLACK
10
0.913386
20
0.541339
40
0.00787402
0
CIRCLE
8
BLACK
10
2.027
20
1.057
40
0.00787402
0
CIRCLE
8
BLACK
10
1.357
20
0.966
40
0.00787402
0
CIRCLE
8
BLACK
10
0.712
20
1.065
40
0.00787402
0
CIRCLE
8
BLACK
10
1.635
20
0.377
40
0.00787402
0
CIRCLE
8
BLACK
10
1.26378
20
1.14862
40
0.00787402
0
CIRCLE
8
BLACK
10
0.926
20
0.353
40
0.00787402
0
CIRCLE
8
BLACK
10
2.035
20
0.916
40
0.00787402
0
CIRCLE
8
BLACK
10
0.47
20
0.723
40
0.00787402
0
CIRCLE
8
BLACK
10
1.27067
20
1.51378
40
0.00787402
0
CIRCLE
8
BLACK
10
1.303
20
0.695
40
0.00787402
0
CIRCLE
8
BLACK
10
0.925197
20
1.04626
40
0.00787402
0
CIRCLE
8
BLACK
10
1.09646
20
1.35335
40
0.00787402
0
CIRCLE
8
BLACK
10
1.561
20
0.613
40
0.00787402
0
CIRCLE
8
BLACK
10
0.758
20
0.841
40
0.00787402
0
CIRCLE
8
BLACK
10
2.003
20
1.132
40
0.00787402
0
CIRCLE
8
BLACK
10
1.27
20
1.011
40
0.00787402
0
CIRCLE
8
BLACK
10
1.004
20
1.305
40
0.00787402
0
CIRCLE
8
BLACK
10
1.654
20
1.5
40
0.00787402
0
CIRCLE
8
BLACK
10
0.979331
20
0.540354
40
0.00787402
0
CIRCLE
8
BLACK
10
0.612
20
1.274
40
0.00787402
0
CIRCLE
8
BLACK
10
0.475
20
1.118
40
0.00787402
0
CIRCLE
8
BLACK
10
1.569
20
0.481
40
0.00787402
0
CIRCLE
8
BLACK
10
1.09547
20
1.18504
40
0.00787402
0
CIRCLE
8
BLACK
10
1.263
20
0.695
40
0.00787402
0
CIRCLE
8
BLACK
10
0.61122
20
0.730315
40
0.00787402
0
CIRCLE
8
BLACK
10
0.527
20
1.452
40
0.00787402
0
CIRCLE
8
BLACK
10
0.526
20
1.608
40
0.00787402
0
CIRCLE
8
BLACK
10
0.471
20
0.915
40
0.00787402
0
CIRCLE
8
BLACK
10
0.814
20
1.275
40
0.00787402
0
CIRCLE
8
BLACK
10
1.27
20
0.966
40
0.00787402
0
CIRCLE
8
BLACK
10
1.248
20
0.643
40
0.00787402
0
CIRCLE
8
BLACK
10
1.56791
20
0.75689
40
0.00787402
0
CIRCLE
8
BLACK
10
0.96
20
1.213
40
0.00787402
0
CIRCLE
8
BLACK
10
1.42008
20
0.998425
40
0.00787402
0
CIRCLE
8
BLACK
10
1.30787
20
1.06949
40
0.00787402
0
CIRCLE
8
BLACK
10
1.19882
20
0.662402
40
0.00787402
0
CIRCLE
8
BLACK
10
1.13878
20
0.700787
40
0.00787402
0
CIRCLE
8
BLACK
10
1.3437
20
0.632678
40
0.00787402
0
CIRCLE
8
BLACK
10
1.07087
20
0.547244
40
0.00787402
  0
ENDSEC
  0
EOF
