  0
SECTION
  2
HEADER
  9
$ANGBASE
  50
0.0
  9
$ANGDIR
  70
1
  9
$MEASUREMENT
  70
0
  0
ENDSEC
  0
SECTION
  2
TABLES
  0
TABLE
  2
LTYPE
  70
4
  0
LTYPE
  5
40F
  2
CONTINUOUS
  70
0
  3
Solid line
  72
65
  73
0
  40
0.0
  0
LTYPE
  5
410
  2
DASHDOT
 70
0
  3
Dash Dot ____ _ ____ _
 72
65
 73
4
 40
2.0
 49
1.25
 49
-0.25
 49
0.25
 49
-0.25
  0
LTYPE
  5
411
  2
DASHED
 70
0
  3
Dashed __ __ __ __ __
 72
65
 73
2
 40
0.75
 49
0.5
 49
-0.25
  0
LTYPE
  5
43B
  2
DOTTED
 70
0
  3
Dotted .  .  .  .
 72
65
 73
2
 40
0.2
 49
0.0
 49
-0.2
  0
ENDTAB
  0
TABLE
  2
STYLE
  70
4
  0
STYLE
  2
KICAD
  70
0
  40
0
  41
1
  42
1
  50
0
  71
0
  3
isocp.shx
  0
STYLE
  2
KICADB
  70
0
  40
0
  41
1
  42
1
  50
0
  71
0
  3
isocp.shx
  0
STYLE
  2
KICADI
  70
0
  40
0
  41
1
  42
1
  50
15
  71
0
  3
isocp.shx
  0
STYLE
  2
KICADBI
  70
0
  40
0
  41
1
  42
1
  50
15
  71
0
  3
isocp.shx
  0
ENDTAB
  0
TABLE
  2
LAYER
  70
1
  0
LAYER
  2
BLACK
  70
0
  62
7
  6
CONTINUOUS
  0
ENDTAB
  0
ENDSEC
  0
SECTION
  2
ENTITIES
0
LINE
8
BLACK
6
CONTINUOUS
10
1.20049
20
0.541704
11
1.20086
21
0.541678
0
LINE
8
BLACK
6
CONTINUOUS
10
1.20086
20
0.541678
11
1.20273
21
0.540741
0
LINE
8
BLACK
6
CONTINUOUS
10
1.20273
20
0.540741
11
1.2029
21
0.540545
0
LINE
8
BLACK
6
CONTINUOUS
10
1.2029
20
0.540545
11
1.20314
21
0.540446
0
LINE
8
BLACK
6
CONTINUOUS
10
1.20314
20
0.540446
11
1.20408
21
0.539509
0
LINE
8
BLACK
6
CONTINUOUS
10
1.20408
20
0.539509
11
1.20454
21
0.538395
0
LINE
8
BLACK
6
CONTINUOUS
10
1.20454
20
0.538395
11
1.20408
21
0.537281
0
LINE
8
BLACK
6
CONTINUOUS
10
1.20408
20
0.537281
11
1.20297
21
0.53682
0
LINE
8
BLACK
6
CONTINUOUS
10
1.20297
20
0.53682
11
1.20185
21
0.537281
0
LINE
8
BLACK
6
CONTINUOUS
10
1.20185
20
0.537281
11
1.2011
21
0.538038
0
LINE
8
BLACK
6
CONTINUOUS
10
1.2011
20
0.538038
11
1.19978
21
0.538695
0
LINE
8
BLACK
6
CONTINUOUS
10
1.19978
20
0.538695
11
1.19584
21
0.538695
0
LINE
8
BLACK
6
CONTINUOUS
10
1.19584
20
0.538695
11
1.19453
21
0.538038
0
LINE
8
BLACK
6
CONTINUOUS
10
1.19453
20
0.538038
11
1.19395
21
0.537462
0
LINE
8
BLACK
6
CONTINUOUS
10
1.19395
20
0.537462
11
1.19329
21
0.536148
0
LINE
8
BLACK
6
CONTINUOUS
10
1.19329
20
0.536148
11
1.19329
21
0.534901
0
LINE
8
BLACK
6
CONTINUOUS
10
1.19329
20
0.534901
11
1.19403
21
0.532684
0
LINE
8
BLACK
6
CONTINUOUS
10
1.19403
20
0.532684
11
1.20502
21
0.521698
0
LINE
8
BLACK
6
CONTINUOUS
10
1.20502
20
0.521698
11
1.20548
21
0.520585
0
LINE
8
BLACK
6
CONTINUOUS
10
1.20548
20
0.520585
11
1.20502
21
0.519471
0
LINE
8
BLACK
6
CONTINUOUS
10
1.20502
20
0.519471
11
1.2039
21
0.51901
0
LINE
8
BLACK
6
CONTINUOUS
10
1.2039
20
0.51901
11
1.19172
21
0.51901
0
LINE
8
BLACK
6
CONTINUOUS
10
1.19172
20
0.51901
11
1.1906
21
0.519471
0
LINE
8
BLACK
6
CONTINUOUS
10
1.1906
20
0.519471
11
1.19014
21
0.520585
0
LINE
8
BLACK
6
CONTINUOUS
10
1.19014
20
0.520585
11
1.1906
21
0.521698
0
LINE
8
BLACK
6
CONTINUOUS
10
1.1906
20
0.521698
11
1.19172
21
0.522159
0
LINE
8
BLACK
6
CONTINUOUS
10
1.19172
20
0.522159
11
1.2001
21
0.522159
0
LINE
8
BLACK
6
CONTINUOUS
10
1.2001
20
0.522159
11
1.19154
21
0.53072
0
LINE
8
BLACK
6
CONTINUOUS
10
1.19154
20
0.53072
11
1.1914
21
0.531058
0
LINE
8
BLACK
6
CONTINUOUS
10
1.1914
20
0.531058
11
1.19116
21
0.531335
0
LINE
8
BLACK
6
CONTINUOUS
10
1.19116
20
0.531335
11
1.19022
21
0.534147
0
LINE
8
BLACK
6
CONTINUOUS
10
1.19022
20
0.534147
11
1.19024
21
0.534406
0
LINE
8
BLACK
6
CONTINUOUS
10
1.19024
20
0.534406
11
1.19014
21
0.534645
0
LINE
8
BLACK
6
CONTINUOUS
10
1.19014
20
0.534645
11
1.19014
21
0.53652
0
LINE
8
BLACK
6
CONTINUOUS
10
1.19014
20
0.53652
11
1.19028
21
0.536859
0
LINE
8
BLACK
6
CONTINUOUS
10
1.19028
20
0.536859
11
1.19031
21
0.537224
0
LINE
8
BLACK
6
CONTINUOUS
10
1.19031
20
0.537224
11
1.19125
21
0.539099
0
LINE
8
BLACK
6
CONTINUOUS
10
1.19125
20
0.539099
11
1.19144
21
0.539269
0
LINE
8
BLACK
6
CONTINUOUS
10
1.19144
20
0.539269
11
1.19154
21
0.539509
0
LINE
8
BLACK
6
CONTINUOUS
10
1.19154
20
0.539509
11
1.19248
21
0.540446
0
LINE
8
BLACK
6
CONTINUOUS
10
1.19248
20
0.540446
11
1.19272
21
0.540545
0
LINE
8
BLACK
6
CONTINUOUS
10
1.19272
20
0.540545
11
1.19289
21
0.540741
0
LINE
8
BLACK
6
CONTINUOUS
10
1.19289
20
0.540741
11
1.19476
21
0.541678
0
LINE
8
BLACK
6
CONTINUOUS
10
1.19476
20
0.541678
11
1.19513
21
0.541704
0
LINE
8
BLACK
6
CONTINUOUS
10
1.19513
20
0.541704
11
1.19547
21
0.541845
0
LINE
8
BLACK
6
CONTINUOUS
10
1.19547
20
0.541845
11
1.20015
21
0.541845
0
LINE
8
BLACK
6
CONTINUOUS
10
1.20015
20
0.541845
11
1.20049
21
0.541704
0
LINE
8
BLACK
6
CONTINUOUS
10
1.22283
20
0.541383
11
1.22329
21
0.54027
0
LINE
8
BLACK
6
CONTINUOUS
10
1.22329
20
0.54027
11
1.22329
21
0.520585
0
LINE
8
BLACK
6
CONTINUOUS
10
1.22329
20
0.520585
11
1.22283
21
0.519471
0
LINE
8
BLACK
6
CONTINUOUS
10
1.22283
20
0.519471
11
1.22171
21
0.51901
0
LINE
8
BLACK
6
CONTINUOUS
10
1.22171
20
0.51901
11
1.2206
21
0.519471
0
LINE
8
BLACK
6
CONTINUOUS
10
1.2206
20
0.519471
11
1.22014
21
0.520585
0
LINE
8
BLACK
6
CONTINUOUS
10
1.22014
20
0.520585
11
1.22014
21
0.528384
0
LINE
8
BLACK
6
CONTINUOUS
10
1.22014
20
0.528384
11
1.21785
21
0.528384
0
LINE
8
BLACK
6
CONTINUOUS
10
1.21785
20
0.528384
11
1.21176
21
0.519682
0
LINE
8
BLACK
6
CONTINUOUS
10
1.21176
20
0.519682
11
1.21074
21
0.519034
0
LINE
8
BLACK
6
CONTINUOUS
10
1.21074
20
0.519034
11
1.20956
21
0.519295
0
LINE
8
BLACK
6
CONTINUOUS
10
1.20956
20
0.519295
11
1.20892
21
0.520311
0
LINE
8
BLACK
6
CONTINUOUS
10
1.20892
20
0.520311
11
1.20918
21
0.521488
0
LINE
8
BLACK
6
CONTINUOUS
10
1.20918
20
0.521488
11
1.21405
21
0.528452
0
LINE
8
BLACK
6
CONTINUOUS
10
1.21405
20
0.528452
11
1.21388
21
0.528524
0
LINE
8
BLACK
6
CONTINUOUS
10
1.21388
20
0.528524
11
1.21351
21
0.52855
0
LINE
8
BLACK
6
CONTINUOUS
10
1.21351
20
0.52855
11
1.21164
21
0.529487
0
LINE
8
BLACK
6
CONTINUOUS
10
1.21164
20
0.529487
11
1.21147
21
0.529683
0
LINE
8
BLACK
6
CONTINUOUS
10
1.21147
20
0.529683
11
1.21123
21
0.529782
0
LINE
8
BLACK
6
CONTINUOUS
10
1.21123
20
0.529782
11
1.21029
21
0.53072
0
LINE
8
BLACK
6
CONTINUOUS
10
1.21029
20
0.53072
11
1.21019
21
0.530959
0
LINE
8
BLACK
6
CONTINUOUS
10
1.21019
20
0.530959
11
1.20999
21
0.531129
0
LINE
8
BLACK
6
CONTINUOUS
10
1.20999
20
0.531129
11
1.20906
21
0.533004
0
LINE
8
BLACK
6
CONTINUOUS
10
1.20906
20
0.533004
11
1.20903
21
0.533369
0
LINE
8
BLACK
6
CONTINUOUS
10
1.20903
20
0.533369
11
1.20889
21
0.533708
0
LINE
8
BLACK
6
CONTINUOUS
10
1.20889
20
0.533708
11
1.20889
21
0.53652
0
LINE
8
BLACK
6
CONTINUOUS
10
1.20889
20
0.53652
11
1.20903
21
0.536859
0
LINE
8
BLACK
6
CONTINUOUS
10
1.20903
20
0.536859
11
1.20906
21
0.537224
0
LINE
8
BLACK
6
CONTINUOUS
10
1.20906
20
0.537224
11
1.20999
21
0.539099
0
LINE
8
BLACK
6
CONTINUOUS
10
1.20999
20
0.539099
11
1.21019
21
0.539269
0
LINE
8
BLACK
6
CONTINUOUS
10
1.21019
20
0.539269
11
1.21029
21
0.539509
0
LINE
8
BLACK
6
CONTINUOUS
10
1.21029
20
0.539509
11
1.21123
21
0.540446
0
LINE
8
BLACK
6
CONTINUOUS
10
1.21123
20
0.540446
11
1.21147
21
0.540545
0
LINE
8
BLACK
6
CONTINUOUS
10
1.21147
20
0.540545
11
1.21164
21
0.540741
0
LINE
8
BLACK
6
CONTINUOUS
10
1.21164
20
0.540741
11
1.21351
21
0.541678
0
LINE
8
BLACK
6
CONTINUOUS
10
1.21351
20
0.541678
11
1.21388
21
0.541704
0
LINE
8
BLACK
6
CONTINUOUS
10
1.21388
20
0.541704
11
1.21422
21
0.541845
0
LINE
8
BLACK
6
CONTINUOUS
10
1.21422
20
0.541845
11
1.22171
21
0.541845
0
LINE
8
BLACK
6
CONTINUOUS
10
1.22171
20
0.541845
11
1.22283
21
0.541383
0
LINE
8
BLACK
6
CONTINUOUS
10
1.21327
20
0.538038
11
1.2127
21
0.537462
0
LINE
8
BLACK
6
CONTINUOUS
10
1.2127
20
0.537462
11
1.21204
21
0.536148
0
LINE
8
BLACK
6
CONTINUOUS
10
1.21204
20
0.536148
11
1.21204
21
0.53408
0
LINE
8
BLACK
6
CONTINUOUS
10
1.21204
20
0.53408
11
1.2127
21
0.532766
0
LINE
8
BLACK
6
CONTINUOUS
10
1.2127
20
0.532766
11
1.21327
21
0.53219
0
LINE
8
BLACK
6
CONTINUOUS
10
1.21327
20
0.53219
11
1.21459
21
0.531533
0
LINE
8
BLACK
6
CONTINUOUS
10
1.21459
20
0.531533
11
1.22014
21
0.531533
0
LINE
8
BLACK
6
CONTINUOUS
10
1.22014
20
0.531533
11
1.22014
21
0.538695
0
LINE
8
BLACK
6
CONTINUOUS
10
1.22014
20
0.538695
11
1.21459
21
0.538695
0
LINE
8
BLACK
6
CONTINUOUS
10
1.21459
20
0.538695
11
1.21327
21
0.538038
0
LINE
8
BLACK
6
CONTINUOUS
10
1.24656
20
0.556102
11
1.24795
21
0.555526
0
LINE
8
BLACK
6
CONTINUOUS
10
1.24795
20
0.555526
11
1.24852
21
0.554134
0
LINE
8
BLACK
6
CONTINUOUS
10
1.24852
20
0.554134
11
1.24852
21
0.504921
0
LINE
8
BLACK
6
CONTINUOUS
10
1.24852
20
0.504921
11
1.24795
21
0.503529
0
LINE
8
BLACK
6
CONTINUOUS
10
1.24795
20
0.503529
11
1.24656
21
0.502953
0
LINE
8
BLACK
6
CONTINUOUS
10
1.24656
20
0.502953
11
1.16781
21
0.502953
0
LINE
8
BLACK
6
CONTINUOUS
10
1.16781
20
0.502953
11
1.16642
21
0.503529
0
LINE
8
BLACK
6
CONTINUOUS
10
1.16642
20
0.503529
11
1.16585
21
0.504921
0
LINE
8
BLACK
6
CONTINUOUS
10
1.16585
20
0.504921
11
1.16585
21
0.554134
0
LINE
8
BLACK
6
CONTINUOUS
10
1.16585
20
0.554134
11
1.16642
21
0.555526
0
LINE
8
BLACK
6
CONTINUOUS
10
1.16642
20
0.555526
11
1.16781
21
0.556102
0
LINE
8
BLACK
6
CONTINUOUS
10
1.16781
20
0.556102
11
1.24656
21
0.556102
0
LINE
8
BLACK
6
CONTINUOUS
10
1.16978
20
0.552165
11
1.16978
21
0.50689
0
LINE
8
BLACK
6
CONTINUOUS
10
1.16978
20
0.50689
11
1.24459
21
0.50689
0
LINE
8
BLACK
6
CONTINUOUS
10
1.24459
20
0.50689
11
1.24459
21
0.552165
0
LINE
8
BLACK
6
CONTINUOUS
10
1.24459
20
0.552165
11
1.16978
21
0.552165
0
LINE
8
BLACK
6
CONTINUOUS
10
1.34021
20
0.541782
11
1.34037
21
0.541814
0
LINE
8
BLACK
6
CONTINUOUS
10
1.34037
20
0.541814
11
1.34075
21
0.541559
0
LINE
8
BLACK
6
CONTINUOUS
10
1.34075
20
0.541559
11
1.34117
21
0.541383
0
LINE
8
BLACK
6
CONTINUOUS
10
1.34117
20
0.541383
11
1.34123
21
0.541234
0
LINE
8
BLACK
6
CONTINUOUS
10
1.34123
20
0.541234
11
1.34137
21
0.541143
0
LINE
8
BLACK
6
CONTINUOUS
10
1.34137
20
0.541143
11
1.34316
21
0.538461
0
LINE
8
BLACK
6
CONTINUOUS
10
1.34316
20
0.538461
11
1.34474
21
0.536877
0
LINE
8
BLACK
6
CONTINUOUS
10
1.34474
20
0.536877
11
1.34639
21
0.536054
0
LINE
8
BLACK
6
CONTINUOUS
10
1.34639
20
0.536054
11
1.34718
21
0.535143
0
LINE
8
BLACK
6
CONTINUOUS
10
1.34718
20
0.535143
11
1.34709
21
0.533941
0
LINE
8
BLACK
6
CONTINUOUS
10
1.34709
20
0.533941
11
1.34618
21
0.533151
0
LINE
8
BLACK
6
CONTINUOUS
10
1.34618
20
0.533151
11
1.34498
21
0.533237
0
LINE
8
BLACK
6
CONTINUOUS
10
1.34498
20
0.533237
11
1.3431
21
0.534174
0
LINE
8
BLACK
6
CONTINUOUS
10
1.3431
20
0.534174
11
1.34293
21
0.53437
0
LINE
8
BLACK
6
CONTINUOUS
10
1.34293
20
0.53437
11
1.34269
21
0.534469
0
LINE
8
BLACK
6
CONTINUOUS
10
1.34269
20
0.534469
11
1.34163
21
0.53553
0
LINE
8
BLACK
6
CONTINUOUS
10
1.34163
20
0.53553
11
1.34163
21
0.522159
0
LINE
8
BLACK
6
CONTINUOUS
10
1.34163
20
0.522159
11
1.34568
21
0.522159
0
LINE
8
BLACK
6
CONTINUOUS
10
1.34568
20
0.522159
11
1.3468
21
0.521698
0
LINE
8
BLACK
6
CONTINUOUS
10
1.3468
20
0.521698
11
1.34726
21
0.520585
0
LINE
8
BLACK
6
CONTINUOUS
10
1.34726
20
0.520585
11
1.3468
21
0.519471
0
LINE
8
BLACK
6
CONTINUOUS
10
1.3468
20
0.519471
11
1.34568
21
0.51901
0
LINE
8
BLACK
6
CONTINUOUS
10
1.34568
20
0.51901
11
1.34006
21
0.51901
0
LINE
8
BLACK
6
CONTINUOUS
10
1.34006
20
0.51901
11
1.33443
21
0.51901
0
LINE
8
BLACK
6
CONTINUOUS
10
1.33443
20
0.51901
11
1.33332
21
0.519471
0
LINE
8
BLACK
6
CONTINUOUS
10
1.33332
20
0.519471
11
1.33286
21
0.520585
0
LINE
8
BLACK
6
CONTINUOUS
10
1.33286
20
0.520585
11
1.33332
21
0.521698
0
LINE
8
BLACK
6
CONTINUOUS
10
1.33332
20
0.521698
11
1.33443
21
0.522159
0
LINE
8
BLACK
6
CONTINUOUS
10
1.33443
20
0.522159
11
1.33848
21
0.522159
0
LINE
8
BLACK
6
CONTINUOUS
10
1.33848
20
0.522159
11
1.33848
21
0.54027
0
LINE
8
BLACK
6
CONTINUOUS
10
1.33848
20
0.54027
11
1.33855
21
0.54042
0
LINE
8
BLACK
6
CONTINUOUS
10
1.33855
20
0.54042
11
1.33851
21
0.540579
0
LINE
8
BLACK
6
CONTINUOUS
10
1.33851
20
0.540579
11
1.33877
21
0.54096
0
LINE
8
BLACK
6
CONTINUOUS
10
1.33877
20
0.54096
11
1.33895
21
0.541383
0
LINE
8
BLACK
6
CONTINUOUS
10
1.33895
20
0.541383
11
1.3391
21
0.541445
0
LINE
8
BLACK
6
CONTINUOUS
10
1.3391
20
0.541445
11
1.33919
21
0.54158
0
LINE
8
BLACK
6
CONTINUOUS
10
1.33919
20
0.54158
11
1.33964
21
0.541669
0
LINE
8
BLACK
6
CONTINUOUS
10
1.33964
20
0.541669
11
1.34006
21
0.541845
0
LINE
8
BLACK
6
CONTINUOUS
10
1.34006
20
0.541845
11
1.34021
21
0.541782
0
LINE
8
BLACK
6
CONTINUOUS
10
1.36554
20
0.541383
11
1.36601
21
0.54027
0
LINE
8
BLACK
6
CONTINUOUS
10
1.36601
20
0.54027
11
1.36601
21
0.520585
0
LINE
8
BLACK
6
CONTINUOUS
10
1.36601
20
0.520585
11
1.36554
21
0.519471
0
LINE
8
BLACK
6
CONTINUOUS
10
1.36554
20
0.519471
11
1.36443
21
0.51901
0
LINE
8
BLACK
6
CONTINUOUS
10
1.36443
20
0.51901
11
1.36332
21
0.519471
0
LINE
8
BLACK
6
CONTINUOUS
10
1.36332
20
0.519471
11
1.36286
21
0.520585
0
LINE
8
BLACK
6
CONTINUOUS
10
1.36286
20
0.520585
11
1.36286
21
0.528384
0
LINE
8
BLACK
6
CONTINUOUS
10
1.36286
20
0.528384
11
1.36056
21
0.528384
0
LINE
8
BLACK
6
CONTINUOUS
10
1.36056
20
0.528384
11
1.35447
21
0.519682
0
LINE
8
BLACK
6
CONTINUOUS
10
1.35447
20
0.519682
11
1.35346
21
0.519034
0
LINE
8
BLACK
6
CONTINUOUS
10
1.35346
20
0.519034
11
1.35228
21
0.519295
0
LINE
8
BLACK
6
CONTINUOUS
10
1.35228
20
0.519295
11
1.35163
21
0.520311
0
LINE
8
BLACK
6
CONTINUOUS
10
1.35163
20
0.520311
11
1.35189
21
0.521488
0
LINE
8
BLACK
6
CONTINUOUS
10
1.35189
20
0.521488
11
1.35677
21
0.528452
0
LINE
8
BLACK
6
CONTINUOUS
10
1.35677
20
0.528452
11
1.35659
21
0.528524
0
LINE
8
BLACK
6
CONTINUOUS
10
1.35659
20
0.528524
11
1.35623
21
0.52855
0
LINE
8
BLACK
6
CONTINUOUS
10
1.35623
20
0.52855
11
1.35435
21
0.529487
0
LINE
8
BLACK
6
CONTINUOUS
10
1.35435
20
0.529487
11
1.35418
21
0.529683
0
LINE
8
BLACK
6
CONTINUOUS
10
1.35418
20
0.529683
11
1.35394
21
0.529782
0
LINE
8
BLACK
6
CONTINUOUS
10
1.35394
20
0.529782
11
1.35301
21
0.53072
0
LINE
8
BLACK
6
CONTINUOUS
10
1.35301
20
0.53072
11
1.35291
21
0.530959
0
LINE
8
BLACK
6
CONTINUOUS
10
1.35291
20
0.530959
11
1.35271
21
0.531129
0
LINE
8
BLACK
6
CONTINUOUS
10
1.35271
20
0.531129
11
1.35177
21
0.533004
0
LINE
8
BLACK
6
CONTINUOUS
10
1.35177
20
0.533004
11
1.35175
21
0.533369
0
LINE
8
BLACK
6
CONTINUOUS
10
1.35175
20
0.533369
11
1.35161
21
0.533708
0
LINE
8
BLACK
6
CONTINUOUS
10
1.35161
20
0.533708
11
1.35161
21
0.53652
0
LINE
8
BLACK
6
CONTINUOUS
10
1.35161
20
0.53652
11
1.35175
21
0.536859
0
LINE
8
BLACK
6
CONTINUOUS
10
1.35175
20
0.536859
11
1.35177
21
0.537224
0
LINE
8
BLACK
6
CONTINUOUS
10
1.35177
20
0.537224
11
1.35271
21
0.539099
0
LINE
8
BLACK
6
CONTINUOUS
10
1.35271
20
0.539099
11
1.35291
21
0.539269
0
LINE
8
BLACK
6
CONTINUOUS
10
1.35291
20
0.539269
11
1.35301
21
0.539509
0
LINE
8
BLACK
6
CONTINUOUS
10
1.35301
20
0.539509
11
1.35394
21
0.540446
0
LINE
8
BLACK
6
CONTINUOUS
10
1.35394
20
0.540446
11
1.35418
21
0.540545
0
LINE
8
BLACK
6
CONTINUOUS
10
1.35418
20
0.540545
11
1.35435
21
0.540741
0
LINE
8
BLACK
6
CONTINUOUS
10
1.35435
20
0.540741
11
1.35623
21
0.541678
0
LINE
8
BLACK
6
CONTINUOUS
10
1.35623
20
0.541678
11
1.35659
21
0.541704
0
LINE
8
BLACK
6
CONTINUOUS
10
1.35659
20
0.541704
11
1.35693
21
0.541845
0
LINE
8
BLACK
6
CONTINUOUS
10
1.35693
20
0.541845
11
1.36443
21
0.541845
0
LINE
8
BLACK
6
CONTINUOUS
10
1.36443
20
0.541845
11
1.36554
21
0.541383
0
LINE
8
BLACK
6
CONTINUOUS
10
1.35599
20
0.538038
11
1.35541
21
0.537462
0
LINE
8
BLACK
6
CONTINUOUS
10
1.35541
20
0.537462
11
1.35476
21
0.536149
0
LINE
8
BLACK
6
CONTINUOUS
10
1.35476
20
0.536149
11
1.35476
21
0.53408
0
LINE
8
BLACK
6
CONTINUOUS
10
1.35476
20
0.53408
11
1.35541
21
0.532766
0
LINE
8
BLACK
6
CONTINUOUS
10
1.35541
20
0.532766
11
1.35599
21
0.53219
0
LINE
8
BLACK
6
CONTINUOUS
10
1.35599
20
0.53219
11
1.3573
21
0.531533
0
LINE
8
BLACK
6
CONTINUOUS
10
1.3573
20
0.531533
11
1.36286
21
0.531533
0
LINE
8
BLACK
6
CONTINUOUS
10
1.36286
20
0.531533
11
1.36286
21
0.538695
0
LINE
8
BLACK
6
CONTINUOUS
10
1.36286
20
0.538695
11
1.3573
21
0.538695
0
LINE
8
BLACK
6
CONTINUOUS
10
1.3573
20
0.538695
11
1.35599
21
0.538038
0
LINE
8
BLACK
6
CONTINUOUS
10
1.38927
20
0.556102
11
1.39066
21
0.555526
0
LINE
8
BLACK
6
CONTINUOUS
10
1.39066
20
0.555526
11
1.39124
21
0.554134
0
LINE
8
BLACK
6
CONTINUOUS
10
1.39124
20
0.554134
11
1.39124
21
0.504921
0
LINE
8
BLACK
6
CONTINUOUS
10
1.39124
20
0.504921
11
1.39066
21
0.503529
0
LINE
8
BLACK
6
CONTINUOUS
10
1.39066
20
0.503529
11
1.38927
21
0.502953
0
LINE
8
BLACK
6
CONTINUOUS
10
1.38927
20
0.502953
11
1.31053
21
0.502953
0
LINE
8
BLACK
6
CONTINUOUS
10
1.31053
20
0.502953
11
1.30914
21
0.503529
0
LINE
8
BLACK
6
CONTINUOUS
10
1.30914
20
0.503529
11
1.30856
21
0.504921
0
LINE
8
BLACK
6
CONTINUOUS
10
1.30856
20
0.504921
11
1.30856
21
0.504921
0
LINE
8
BLACK
6
CONTINUOUS
10
1.30856
20
0.504921
11
1.30856
21
0.554134
0
LINE
8
BLACK
6
CONTINUOUS
10
1.30856
20
0.554134
11
1.30914
21
0.555526
0
LINE
8
BLACK
6
CONTINUOUS
10
1.30914
20
0.555526
11
1.31053
21
0.556102
0
LINE
8
BLACK
6
CONTINUOUS
10
1.31053
20
0.556102
11
1.38927
21
0.556102
0
LINE
8
BLACK
6
CONTINUOUS
10
1.3125
20
0.552165
11
1.3125
21
0.50689
0
LINE
8
BLACK
6
CONTINUOUS
10
1.3125
20
0.50689
11
1.3873
21
0.50689
0
LINE
8
BLACK
6
CONTINUOUS
10
1.3873
20
0.50689
11
1.3873
21
0.552165
0
LINE
8
BLACK
6
CONTINUOUS
10
1.3873
20
0.552165
11
1.3125
21
0.552165
0
LINE
8
BLACK
6
CONTINUOUS
10
1.65517
20
0.573045
11
1.65575
21
0.571654
0
LINE
8
BLACK
6
CONTINUOUS
10
1.65575
20
0.571654
11
1.65575
21
0.551969
0
LINE
8
BLACK
6
CONTINUOUS
10
1.65575
20
0.551969
11
1.66953
21
0.551969
0
LINE
8
BLACK
6
CONTINUOUS
10
1.66953
20
0.551969
11
1.67092
21
0.551392
0
LINE
8
BLACK
6
CONTINUOUS
10
1.67092
20
0.551392
11
1.6715
21
0.55
0
LINE
8
BLACK
6
CONTINUOUS
10
1.6715
20
0.55
11
1.67092
21
0.548608
0
LINE
8
BLACK
6
CONTINUOUS
10
1.67092
20
0.548608
11
1.66953
21
0.548031
0
LINE
8
BLACK
6
CONTINUOUS
10
1.66953
20
0.548031
11
1.65575
21
0.548031
0
LINE
8
BLACK
6
CONTINUOUS
10
1.65575
20
0.548031
11
1.65575
21
0.528346
0
LINE
8
BLACK
6
CONTINUOUS
10
1.65575
20
0.528346
11
1.65517
21
0.526955
0
LINE
8
BLACK
6
CONTINUOUS
10
1.65517
20
0.526955
11
1.65378
21
0.526378
0
LINE
8
BLACK
6
CONTINUOUS
10
1.65378
20
0.526378
11
1.65239
21
0.526955
0
LINE
8
BLACK
6
CONTINUOUS
10
1.65239
20
0.526955
11
1.65181
21
0.528346
0
LINE
8
BLACK
6
CONTINUOUS
10
1.65181
20
0.528346
11
1.65181
21
0.546322
0
LINE
8
BLACK
6
CONTINUOUS
10
1.65181
20
0.546322
11
1.63125
21
0.532614
0
LINE
8
BLACK
6
CONTINUOUS
10
1.63125
20
0.532614
11
1.63069
21
0.532503
0
LINE
8
BLACK
6
CONTINUOUS
10
1.63069
20
0.532503
11
1.63016
21
0.532283
0
LINE
8
BLACK
6
CONTINUOUS
10
1.63016
20
0.532283
11
1.62997
21
0.532361
0
LINE
8
BLACK
6
CONTINUOUS
10
1.62997
20
0.532361
11
1.62977
21
0.532322
0
LINE
8
BLACK
6
CONTINUOUS
10
1.62977
20
0.532322
11
1.6293
21
0.532641
0
LINE
8
BLACK
6
CONTINUOUS
10
1.6293
20
0.532641
11
1.62877
21
0.53286
0
LINE
8
BLACK
6
CONTINUOUS
10
1.62877
20
0.53286
11
1.62869
21
0.533047
0
LINE
8
BLACK
6
CONTINUOUS
10
1.62869
20
0.533047
11
1.62852
21
0.53316
0
LINE
8
BLACK
6
CONTINUOUS
10
1.62852
20
0.53316
11
1.62841
21
0.533722
0
LINE
8
BLACK
6
CONTINUOUS
10
1.62841
20
0.533722
11
1.62819
21
0.534252
0
LINE
8
BLACK
6
CONTINUOUS
10
1.62819
20
0.534252
11
1.62819
21
0.548031
0
LINE
8
BLACK
6
CONTINUOUS
10
1.62819
20
0.548031
11
1.61047
21
0.548031
0
LINE
8
BLACK
6
CONTINUOUS
10
1.61047
20
0.548031
11
1.60908
21
0.548608
0
LINE
8
BLACK
6
CONTINUOUS
10
1.60908
20
0.548608
11
1.6085
21
0.55
0
LINE
8
BLACK
6
CONTINUOUS
10
1.6085
20
0.55
11
1.60908
21
0.551392
0
LINE
8
BLACK
6
CONTINUOUS
10
1.60908
20
0.551392
11
1.61047
21
0.551969
0
LINE
8
BLACK
6
CONTINUOUS
10
1.61047
20
0.551969
11
1.62819
21
0.551969
0
LINE
8
BLACK
6
CONTINUOUS
10
1.62819
20
0.551969
11
1.62819
21
0.565748
0
LINE
8
BLACK
6
CONTINUOUS
10
1.62819
20
0.565748
11
1.62841
21
0.566278
0
LINE
8
BLACK
6
CONTINUOUS
10
1.62841
20
0.566278
11
1.62852
21
0.56684
0
LINE
8
BLACK
6
CONTINUOUS
10
1.62852
20
0.56684
11
1.62869
21
0.566953
0
LINE
8
BLACK
6
CONTINUOUS
10
1.62869
20
0.566953
11
1.62877
21
0.56714
0
LINE
8
BLACK
6
CONTINUOUS
10
1.62877
20
0.56714
11
1.6293
21
0.567359
0
LINE
8
BLACK
6
CONTINUOUS
10
1.6293
20
0.567359
11
1.62977
21
0.567678
0
LINE
8
BLACK
6
CONTINUOUS
10
1.62977
20
0.567678
11
1.62997
21
0.567639
0
LINE
8
BLACK
6
CONTINUOUS
10
1.62997
20
0.567639
11
1.63016
21
0.567717
0
LINE
8
BLACK
6
CONTINUOUS
10
1.63016
20
0.567717
11
1.63069
21
0.567497
0
LINE
8
BLACK
6
CONTINUOUS
10
1.63069
20
0.567497
11
1.63125
21
0.567386
0
LINE
8
BLACK
6
CONTINUOUS
10
1.63125
20
0.567386
11
1.65181
21
0.553678
0
LINE
8
BLACK
6
CONTINUOUS
10
1.65181
20
0.553678
11
1.65181
21
0.571654
0
LINE
8
BLACK
6
CONTINUOUS
10
1.65181
20
0.571654
11
1.65239
21
0.573045
0
LINE
8
BLACK
6
CONTINUOUS
10
1.65239
20
0.573045
11
1.65378
21
0.573622
0
LINE
8
BLACK
6
CONTINUOUS
10
1.65378
20
0.573622
11
1.65517
21
0.573045
0
LINE
8
BLACK
6
CONTINUOUS
10
1.63213
20
0.53793
11
1.65023
21
0.55
0
LINE
8
BLACK
6
CONTINUOUS
10
1.65023
20
0.55
11
1.63213
21
0.56207
0
LINE
8
BLACK
6
CONTINUOUS
10
1.63213
20
0.56207
11
1.63213
21
0.53793
0
LINE
8
BLACK
6
CONTINUOUS
10
1.70496
20
0.583465
11
1.70635
21
0.582888
0
LINE
8
BLACK
6
CONTINUOUS
10
1.70635
20
0.582888
11
1.70693
21
0.581496
0
LINE
8
BLACK
6
CONTINUOUS
10
1.70693
20
0.581496
11
1.70693
21
0.518504
0
LINE
8
BLACK
6
CONTINUOUS
10
1.70693
20
0.518504
11
1.70635
21
0.517112
0
LINE
8
BLACK
6
CONTINUOUS
10
1.70635
20
0.517112
11
1.70496
21
0.516535
0
LINE
8
BLACK
6
CONTINUOUS
10
1.70496
20
0.516535
11
1.57504
21
0.516535
0
LINE
8
BLACK
6
CONTINUOUS
10
1.57504
20
0.516535
11
1.57365
21
0.517112
0
LINE
8
BLACK
6
CONTINUOUS
10
1.57365
20
0.517112
11
1.57307
21
0.518504
0
LINE
8
BLACK
6
CONTINUOUS
10
1.57307
20
0.518504
11
1.57307
21
0.581496
0
LINE
8
BLACK
6
CONTINUOUS
10
1.57307
20
0.581496
11
1.57365
21
0.582888
0
LINE
8
BLACK
6
CONTINUOUS
10
1.57365
20
0.582888
11
1.57504
21
0.583465
0
LINE
8
BLACK
6
CONTINUOUS
10
1.57504
20
0.583465
11
1.70496
21
0.583465
0
LINE
8
BLACK
6
CONTINUOUS
10
1.57701
20
0.579528
11
1.57701
21
0.520472
0
LINE
8
BLACK
6
CONTINUOUS
10
1.57701
20
0.520472
11
1.70299
21
0.520472
0
LINE
8
BLACK
6
CONTINUOUS
10
1.70299
20
0.520472
11
1.70299
21
0.579528
0
LINE
8
BLACK
6
CONTINUOUS
10
1.70299
20
0.579528
11
1.57701
21
0.579528
0
LINE
8
BLACK
6
CONTINUOUS
10
0.580476
20
0.559716
11
0.580841
21
0.55969
0
LINE
8
BLACK
6
CONTINUOUS
10
0.580841
20
0.55969
11
0.581011
21
0.559494
0
LINE
8
BLACK
6
CONTINUOUS
10
0.581011
20
0.559494
11
0.581251
21
0.559395
0
LINE
8
BLACK
6
CONTINUOUS
10
0.581251
20
0.559395
11
0.581391
21
0.559057
0
LINE
8
BLACK
6
CONTINUOUS
10
0.581391
20
0.559057
11
0.581631
21
0.55878
0
LINE
8
BLACK
6
CONTINUOUS
10
0.581631
20
0.55878
11
0.581613
21
0.558521
0
LINE
8
BLACK
6
CONTINUOUS
10
0.581613
20
0.558521
11
0.581712
21
0.558282
0
LINE
8
BLACK
6
CONTINUOUS
10
0.581712
20
0.558282
11
0.581712
21
0.550483
0
LINE
8
BLACK
6
CONTINUOUS
10
0.581712
20
0.550483
11
0.586699
21
0.550483
0
LINE
8
BLACK
6
CONTINUOUS
10
0.586699
20
0.550483
11
0.587812
21
0.550021
0
LINE
8
BLACK
6
CONTINUOUS
10
0.587812
20
0.550021
11
0.588274
21
0.548908
0
LINE
8
BLACK
6
CONTINUOUS
10
0.588274
20
0.548908
11
0.587812
21
0.547794
0
LINE
8
BLACK
6
CONTINUOUS
10
0.587812
20
0.547794
11
0.586699
21
0.547333
0
LINE
8
BLACK
6
CONTINUOUS
10
0.586699
20
0.547333
11
0.581712
21
0.547333
0
LINE
8
BLACK
6
CONTINUOUS
10
0.581712
20
0.547333
11
0.581712
21
0.546096
0
LINE
8
BLACK
6
CONTINUOUS
10
0.581712
20
0.546096
11
0.581251
21
0.544982
0
LINE
8
BLACK
6
CONTINUOUS
10
0.581251
20
0.544982
11
0.580137
21
0.544521
0
LINE
8
BLACK
6
CONTINUOUS
10
0.580137
20
0.544521
11
0.579024
21
0.544982
0
LINE
8
BLACK
6
CONTINUOUS
10
0.579024
20
0.544982
11
0.578562
21
0.546096
0
LINE
8
BLACK
6
CONTINUOUS
10
0.578562
20
0.546096
11
0.578562
21
0.547333
0
LINE
8
BLACK
6
CONTINUOUS
10
0.578562
20
0.547333
11
0.573575
21
0.547333
0
LINE
8
BLACK
6
CONTINUOUS
10
0.573575
20
0.547333
11
0.572462
21
0.547794
0
LINE
8
BLACK
6
CONTINUOUS
10
0.572462
20
0.547794
11
0.572001
21
0.548908
0
LINE
8
BLACK
6
CONTINUOUS
10
0.572001
20
0.548908
11
0.572462
21
0.550021
0
LINE
8
BLACK
6
CONTINUOUS
10
0.572462
20
0.550021
11
0.573575
21
0.550483
0
LINE
8
BLACK
6
CONTINUOUS
10
0.573575
20
0.550483
11
0.578562
21
0.550483
0
LINE
8
BLACK
6
CONTINUOUS
10
0.578562
20
0.550483
11
0.578562
21
0.556097
0
LINE
8
BLACK
6
CONTINUOUS
10
0.578562
20
0.556097
11
0.566574
21
0.552101
0
LINE
8
BLACK
6
CONTINUOUS
10
0.566574
20
0.552101
11
0.565372
21
0.552186
0
LINE
8
BLACK
6
CONTINUOUS
10
0.565372
20
0.552186
11
0.564582
21
0.553097
0
LINE
8
BLACK
6
CONTINUOUS
10
0.564582
20
0.553097
11
0.564668
21
0.554299
0
LINE
8
BLACK
6
CONTINUOUS
10
0.564668
20
0.554299
11
0.565578
21
0.555089
0
LINE
8
BLACK
6
CONTINUOUS
10
0.565578
20
0.555089
11
0.579639
21
0.559776
0
LINE
8
BLACK
6
CONTINUOUS
10
0.579639
20
0.559776
11
0.579898
21
0.559757
0
LINE
8
BLACK
6
CONTINUOUS
10
0.579898
20
0.559757
11
0.580137
21
0.559857
0
LINE
8
BLACK
6
CONTINUOUS
10
0.580137
20
0.559857
11
0.580476
21
0.559716
0
LINE
8
BLACK
6
CONTINUOUS
10
0.587812
20
0.578143
11
0.588274
21
0.577029
0
LINE
8
BLACK
6
CONTINUOUS
10
0.588274
20
0.577029
11
0.587812
21
0.575916
0
LINE
8
BLACK
6
CONTINUOUS
10
0.587812
20
0.575916
11
0.586699
21
0.575455
0
LINE
8
BLACK
6
CONTINUOUS
10
0.586699
20
0.575455
11
0.5789
21
0.575455
0
LINE
8
BLACK
6
CONTINUOUS
10
0.5789
20
0.575455
11
0.5789
21
0.573162
0
LINE
8
BLACK
6
CONTINUOUS
10
0.5789
20
0.573162
11
0.587602
21
0.567071
0
LINE
8
BLACK
6
CONTINUOUS
10
0.587602
20
0.567071
11
0.58825
21
0.566055
0
LINE
8
BLACK
6
CONTINUOUS
10
0.58825
20
0.566055
11
0.587989
21
0.564878
0
LINE
8
BLACK
6
CONTINUOUS
10
0.587989
20
0.564878
11
0.586972
21
0.56423
0
LINE
8
BLACK
6
CONTINUOUS
10
0.586972
20
0.56423
11
0.585796
21
0.564491
0
LINE
8
BLACK
6
CONTINUOUS
10
0.585796
20
0.564491
11
0.578831
21
0.569366
0
LINE
8
BLACK
6
CONTINUOUS
10
0.578831
20
0.569366
11
0.578759
21
0.569192
0
LINE
8
BLACK
6
CONTINUOUS
10
0.578759
20
0.569192
11
0.578734
21
0.568826
0
LINE
8
BLACK
6
CONTINUOUS
10
0.578734
20
0.568826
11
0.577796
21
0.566951
0
LINE
8
BLACK
6
CONTINUOUS
10
0.577796
20
0.566951
11
0.5776
21
0.566782
0
LINE
8
BLACK
6
CONTINUOUS
10
0.5776
20
0.566782
11
0.577501
21
0.566542
0
LINE
8
BLACK
6
CONTINUOUS
10
0.577501
20
0.566542
11
0.576564
21
0.565605
0
LINE
8
BLACK
6
CONTINUOUS
10
0.576564
20
0.565605
11
0.576324
21
0.565505
0
LINE
8
BLACK
6
CONTINUOUS
10
0.576324
20
0.565505
11
0.576154
21
0.56531
0
LINE
8
BLACK
6
CONTINUOUS
10
0.576154
20
0.56531
11
0.57428
21
0.564372
0
LINE
8
BLACK
6
CONTINUOUS
10
0.57428
20
0.564372
11
0.573914
21
0.564346
0
LINE
8
BLACK
6
CONTINUOUS
10
0.573914
20
0.564346
11
0.573575
21
0.564206
0
LINE
8
BLACK
6
CONTINUOUS
10
0.573575
20
0.564206
11
0.570763
21
0.564206
0
LINE
8
BLACK
6
CONTINUOUS
10
0.570763
20
0.564206
11
0.570425
21
0.564346
0
LINE
8
BLACK
6
CONTINUOUS
10
0.570425
20
0.564346
11
0.570059
21
0.564372
0
LINE
8
BLACK
6
CONTINUOUS
10
0.570059
20
0.564372
11
0.568184
21
0.56531
0
LINE
8
BLACK
6
CONTINUOUS
10
0.568184
20
0.56531
11
0.568014
21
0.565505
0
LINE
8
BLACK
6
CONTINUOUS
10
0.568014
20
0.565505
11
0.567775
21
0.565605
0
LINE
8
BLACK
6
CONTINUOUS
10
0.567775
20
0.565605
11
0.566838
21
0.566542
0
LINE
8
BLACK
6
CONTINUOUS
10
0.566838
20
0.566542
11
0.566738
21
0.566782
0
LINE
8
BLACK
6
CONTINUOUS
10
0.566738
20
0.566782
11
0.566543
21
0.566951
0
LINE
8
BLACK
6
CONTINUOUS
10
0.566543
20
0.566951
11
0.565605
21
0.568826
0
LINE
8
BLACK
6
CONTINUOUS
10
0.565605
20
0.568826
11
0.565579
21
0.569192
0
LINE
8
BLACK
6
CONTINUOUS
10
0.565579
20
0.569192
11
0.565439
21
0.56953
0
LINE
8
BLACK
6
CONTINUOUS
10
0.565439
20
0.56953
11
0.565439
21
0.577029
0
LINE
8
BLACK
6
CONTINUOUS
10
0.565439
20
0.577029
11
0.5659
21
0.578143
0
LINE
8
BLACK
6
CONTINUOUS
10
0.5659
20
0.578143
11
0.567014
21
0.578604
0
LINE
8
BLACK
6
CONTINUOUS
10
0.567014
20
0.578604
11
0.586699
21
0.578604
0
LINE
8
BLACK
6
CONTINUOUS
10
0.586699
20
0.578604
11
0.587812
21
0.578143
0
LINE
8
BLACK
6
CONTINUOUS
10
0.568589
20
0.569902
11
0.569245
21
0.568589
0
LINE
8
BLACK
6
CONTINUOUS
10
0.569245
20
0.568589
11
0.569821
21
0.568012
0
LINE
8
BLACK
6
CONTINUOUS
10
0.569821
20
0.568012
11
0.571135
21
0.567356
0
LINE
8
BLACK
6
CONTINUOUS
10
0.571135
20
0.567356
11
0.573204
21
0.567356
0
LINE
8
BLACK
6
CONTINUOUS
10
0.573204
20
0.567356
11
0.574517
21
0.568012
0
LINE
8
BLACK
6
CONTINUOUS
10
0.574517
20
0.568012
11
0.575093
21
0.568589
0
LINE
8
BLACK
6
CONTINUOUS
10
0.575093
20
0.568589
11
0.57575
21
0.569902
0
LINE
8
BLACK
6
CONTINUOUS
10
0.57575
20
0.569902
11
0.57575
21
0.575455
0
LINE
8
BLACK
6
CONTINUOUS
10
0.57575
20
0.575455
11
0.568589
21
0.575455
0
LINE
8
BLACK
6
CONTINUOUS
10
0.568589
20
0.575455
11
0.568589
21
0.569902
0
LINE
8
BLACK
6
CONTINUOUS
10
0.602362
20
0.603839
11
0.603754
21
0.603262
0
LINE
8
BLACK
6
CONTINUOUS
10
0.603754
20
0.603262
11
0.604331
21
0.60187
0
LINE
8
BLACK
6
CONTINUOUS
10
0.604331
20
0.60187
11
0.604331
21
0.52313
0
LINE
8
BLACK
6
CONTINUOUS
10
0.604331
20
0.52313
11
0.603754
21
0.521738
0
LINE
8
BLACK
6
CONTINUOUS
10
0.603754
20
0.521738
11
0.602362
21
0.521161
0
LINE
8
BLACK
6
CONTINUOUS
10
0.602362
20
0.521161
11
0.55315
21
0.521161
0
LINE
8
BLACK
6
CONTINUOUS
10
0.55315
20
0.521161
11
0.551758
21
0.521738
0
LINE
8
BLACK
6
CONTINUOUS
10
0.551758
20
0.521738
11
0.551181
21
0.52313
0
LINE
8
BLACK
6
CONTINUOUS
10
0.551181
20
0.52313
11
0.551181
21
0.52313
0
LINE
8
BLACK
6
CONTINUOUS
10
0.551181
20
0.52313
11
0.551181
21
0.60187
0
LINE
8
BLACK
6
CONTINUOUS
10
0.551181
20
0.60187
11
0.551758
21
0.603262
0
LINE
8
BLACK
6
CONTINUOUS
10
0.551758
20
0.603262
11
0.55315
21
0.603839
0
LINE
8
BLACK
6
CONTINUOUS
10
0.55315
20
0.603839
11
0.602362
21
0.603839
0
LINE
8
BLACK
6
CONTINUOUS
10
0.555118
20
0.599902
11
0.555118
21
0.525098
0
LINE
8
BLACK
6
CONTINUOUS
10
0.555118
20
0.525098
11
0.600394
21
0.525098
0
LINE
8
BLACK
6
CONTINUOUS
10
0.600394
20
0.525098
11
0.600394
21
0.599902
0
LINE
8
BLACK
6
CONTINUOUS
10
0.600394
20
0.599902
11
0.555118
21
0.599902
0
LINE
8
BLACK
6
CONTINUOUS
10
0.687316
20
0.559395
11
0.688253
21
0.558458
0
LINE
8
BLACK
6
CONTINUOUS
10
0.688253
20
0.558458
11
0.688352
21
0.558218
0
LINE
8
BLACK
6
CONTINUOUS
10
0.688352
20
0.558218
11
0.688548
21
0.558049
0
LINE
8
BLACK
6
CONTINUOUS
10
0.688548
20
0.558049
11
0.689485
21
0.556174
0
LINE
8
BLACK
6
CONTINUOUS
10
0.689485
20
0.556174
11
0.689511
21
0.555808
0
LINE
8
BLACK
6
CONTINUOUS
10
0.689511
20
0.555808
11
0.689652
21
0.55547
0
LINE
8
BLACK
6
CONTINUOUS
10
0.689652
20
0.55547
11
0.689652
21
0.550783
0
LINE
8
BLACK
6
CONTINUOUS
10
0.689652
20
0.550783
11
0.689511
21
0.550444
0
LINE
8
BLACK
6
CONTINUOUS
10
0.689511
20
0.550444
11
0.689485
21
0.550078
0
LINE
8
BLACK
6
CONTINUOUS
10
0.689485
20
0.550078
11
0.688548
21
0.548204
0
LINE
8
BLACK
6
CONTINUOUS
10
0.688548
20
0.548204
11
0.688352
21
0.548034
0
LINE
8
BLACK
6
CONTINUOUS
10
0.688352
20
0.548034
11
0.688253
21
0.547794
0
LINE
8
BLACK
6
CONTINUOUS
10
0.688253
20
0.547794
11
0.687316
21
0.546857
0
LINE
8
BLACK
6
CONTINUOUS
10
0.687316
20
0.546857
11
0.687076
21
0.546758
0
LINE
8
BLACK
6
CONTINUOUS
10
0.687076
20
0.546758
11
0.686906
21
0.546562
0
LINE
8
BLACK
6
CONTINUOUS
10
0.686906
20
0.546562
11
0.685031
21
0.545625
0
LINE
8
BLACK
6
CONTINUOUS
10
0.685031
20
0.545625
11
0.684666
21
0.545599
0
LINE
8
BLACK
6
CONTINUOUS
10
0.684666
20
0.545599
11
0.684327
21
0.545458
0
LINE
8
BLACK
6
CONTINUOUS
10
0.684327
20
0.545458
11
0.67964
21
0.545458
0
LINE
8
BLACK
6
CONTINUOUS
10
0.67964
20
0.545458
11
0.679302
21
0.545599
0
LINE
8
BLACK
6
CONTINUOUS
10
0.679302
20
0.545599
11
0.678936
21
0.545625
0
LINE
8
BLACK
6
CONTINUOUS
10
0.678936
20
0.545625
11
0.677061
21
0.546562
0
LINE
8
BLACK
6
CONTINUOUS
10
0.677061
20
0.546562
11
0.676891
21
0.546758
0
LINE
8
BLACK
6
CONTINUOUS
10
0.676891
20
0.546758
11
0.676652
21
0.546857
0
LINE
8
BLACK
6
CONTINUOUS
10
0.676652
20
0.546857
11
0.675715
21
0.547794
0
LINE
8
BLACK
6
CONTINUOUS
10
0.675715
20
0.547794
11
0.675615
21
0.548034
0
LINE
8
BLACK
6
CONTINUOUS
10
0.675615
20
0.548034
11
0.67542
21
0.548204
0
LINE
8
BLACK
6
CONTINUOUS
10
0.67542
20
0.548204
11
0.674482
21
0.550078
0
LINE
8
BLACK
6
CONTINUOUS
10
0.674482
20
0.550078
11
0.674456
21
0.550444
0
LINE
8
BLACK
6
CONTINUOUS
10
0.674456
20
0.550444
11
0.674316
21
0.550783
0
LINE
8
BLACK
6
CONTINUOUS
10
0.674316
20
0.550783
11
0.674316
21
0.55547
0
LINE
8
BLACK
6
CONTINUOUS
10
0.674316
20
0.55547
11
0.674456
21
0.555808
0
LINE
8
BLACK
6
CONTINUOUS
10
0.674456
20
0.555808
11
0.674482
21
0.556174
0
LINE
8
BLACK
6
CONTINUOUS
10
0.674482
20
0.556174
11
0.674586
21
0.556381
0
LINE
8
BLACK
6
CONTINUOUS
10
0.674586
20
0.556381
11
0.669966
21
0.555919
0
LINE
8
BLACK
6
CONTINUOUS
10
0.669966
20
0.555919
11
0.669966
21
0.547971
0
LINE
8
BLACK
6
CONTINUOUS
10
0.669966
20
0.547971
11
0.669505
21
0.546857
0
LINE
8
BLACK
6
CONTINUOUS
10
0.669505
20
0.546857
11
0.668392
21
0.546396
0
LINE
8
BLACK
6
CONTINUOUS
10
0.668392
20
0.546396
11
0.667278
21
0.546857
0
LINE
8
BLACK
6
CONTINUOUS
10
0.667278
20
0.546857
11
0.666817
21
0.547971
0
LINE
8
BLACK
6
CONTINUOUS
10
0.666817
20
0.547971
11
0.666817
21
0.557344
0
LINE
8
BLACK
6
CONTINUOUS
10
0.666817
20
0.557344
11
0.66702
21
0.557834
0
LINE
8
BLACK
6
CONTINUOUS
10
0.66702
20
0.557834
11
0.667173
21
0.558342
0
LINE
8
BLACK
6
CONTINUOUS
10
0.667173
20
0.558342
11
0.667246
21
0.558381
0
LINE
8
BLACK
6
CONTINUOUS
10
0.667246
20
0.558381
11
0.667278
21
0.558458
0
LINE
8
BLACK
6
CONTINUOUS
10
0.667278
20
0.558458
11
0.667768
21
0.558661
0
LINE
8
BLACK
6
CONTINUOUS
10
0.667768
20
0.558661
11
0.668235
21
0.558911
0
LINE
8
BLACK
6
CONTINUOUS
10
0.668235
20
0.558911
11
0.677609
21
0.559849
0
LINE
8
BLACK
6
CONTINUOUS
10
0.677609
20
0.559849
11
0.677689
21
0.559825
0
LINE
8
BLACK
6
CONTINUOUS
10
0.677689
20
0.559825
11
0.677766
21
0.559857
0
LINE
8
BLACK
6
CONTINUOUS
10
0.677766
20
0.559857
11
0.678255
21
0.559654
0
LINE
8
BLACK
6
CONTINUOUS
10
0.678255
20
0.559654
11
0.678763
21
0.559501
0
LINE
8
BLACK
6
CONTINUOUS
10
0.678763
20
0.559501
11
0.678802
21
0.559427
0
LINE
8
BLACK
6
CONTINUOUS
10
0.678802
20
0.559427
11
0.678879
21
0.559395
0
LINE
8
BLACK
6
CONTINUOUS
10
0.678879
20
0.559395
11
0.679082
21
0.558905
0
LINE
8
BLACK
6
CONTINUOUS
10
0.679082
20
0.558905
11
0.679332
21
0.558438
0
LINE
8
BLACK
6
CONTINUOUS
10
0.679332
20
0.558438
11
0.679308
21
0.558359
0
LINE
8
BLACK
6
CONTINUOUS
10
0.679308
20
0.558359
11
0.67934
21
0.558282
0
LINE
8
BLACK
6
CONTINUOUS
10
0.67934
20
0.558282
11
0.679137
21
0.557792
0
LINE
8
BLACK
6
CONTINUOUS
10
0.679137
20
0.557792
11
0.678984
21
0.557285
0
LINE
8
BLACK
6
CONTINUOUS
10
0.678984
20
0.557285
11
0.678911
21
0.557245
0
LINE
8
BLACK
6
CONTINUOUS
10
0.678911
20
0.557245
11
0.678879
21
0.557168
0
LINE
8
BLACK
6
CONTINUOUS
10
0.678879
20
0.557168
11
0.678122
21
0.556412
0
LINE
8
BLACK
6
CONTINUOUS
10
0.678122
20
0.556412
11
0.677466
21
0.555098
0
LINE
8
BLACK
6
CONTINUOUS
10
0.677466
20
0.555098
11
0.677466
21
0.551155
0
LINE
8
BLACK
6
CONTINUOUS
10
0.677466
20
0.551155
11
0.678122
21
0.549841
0
LINE
8
BLACK
6
CONTINUOUS
10
0.678122
20
0.549841
11
0.678698
21
0.549265
0
LINE
8
BLACK
6
CONTINUOUS
10
0.678698
20
0.549265
11
0.680012
21
0.548608
0
LINE
8
BLACK
6
CONTINUOUS
10
0.680012
20
0.548608
11
0.683955
21
0.548608
0
LINE
8
BLACK
6
CONTINUOUS
10
0.683955
20
0.548608
11
0.685269
21
0.549265
0
LINE
8
BLACK
6
CONTINUOUS
10
0.685269
20
0.549265
11
0.685845
21
0.549841
0
LINE
8
BLACK
6
CONTINUOUS
10
0.685845
20
0.549841
11
0.686502
21
0.551154
0
LINE
8
BLACK
6
CONTINUOUS
10
0.686502
20
0.551154
11
0.686502
21
0.555098
0
LINE
8
BLACK
6
CONTINUOUS
10
0.686502
20
0.555098
11
0.685845
21
0.556412
0
LINE
8
BLACK
6
CONTINUOUS
10
0.685845
20
0.556412
11
0.685088
21
0.557168
0
LINE
8
BLACK
6
CONTINUOUS
10
0.685088
20
0.557168
11
0.684627
21
0.558282
0
LINE
8
BLACK
6
CONTINUOUS
10
0.684627
20
0.558282
11
0.685088
21
0.559395
0
LINE
8
BLACK
6
CONTINUOUS
10
0.685088
20
0.559395
11
0.686202
21
0.559857
0
LINE
8
BLACK
6
CONTINUOUS
10
0.686202
20
0.559857
11
0.687316
21
0.559395
0
LINE
8
BLACK
6
CONTINUOUS
10
0.68919
20
0.578143
11
0.689652
21
0.577029
0
LINE
8
BLACK
6
CONTINUOUS
10
0.689652
20
0.577029
11
0.68919
21
0.575916
0
LINE
8
BLACK
6
CONTINUOUS
10
0.68919
20
0.575916
11
0.688077
21
0.575455
0
LINE
8
BLACK
6
CONTINUOUS
10
0.688077
20
0.575455
11
0.680278
21
0.575455
0
LINE
8
BLACK
6
CONTINUOUS
10
0.680278
20
0.575455
11
0.680278
21
0.573162
0
LINE
8
BLACK
6
CONTINUOUS
10
0.680278
20
0.573162
11
0.68898
21
0.567071
0
LINE
8
BLACK
6
CONTINUOUS
10
0.68898
20
0.567071
11
0.689628
21
0.566055
0
LINE
8
BLACK
6
CONTINUOUS
10
0.689628
20
0.566055
11
0.689367
21
0.564878
0
LINE
8
BLACK
6
CONTINUOUS
10
0.689367
20
0.564878
11
0.68835
21
0.56423
0
LINE
8
BLACK
6
CONTINUOUS
10
0.68835
20
0.56423
11
0.687174
21
0.564491
0
LINE
8
BLACK
6
CONTINUOUS
10
0.687174
20
0.564491
11
0.680209
21
0.569366
0
LINE
8
BLACK
6
CONTINUOUS
10
0.680209
20
0.569366
11
0.680137
21
0.569192
0
LINE
8
BLACK
6
CONTINUOUS
10
0.680137
20
0.569192
11
0.680111
21
0.568826
0
LINE
8
BLACK
6
CONTINUOUS
10
0.680111
20
0.568826
11
0.679174
21
0.566951
0
LINE
8
BLACK
6
CONTINUOUS
10
0.679174
20
0.566951
11
0.678978
21
0.566782
0
LINE
8
BLACK
6
CONTINUOUS
10
0.678978
20
0.566782
11
0.678879
21
0.566542
0
LINE
8
BLACK
6
CONTINUOUS
10
0.678879
20
0.566542
11
0.677942
21
0.565605
0
LINE
8
BLACK
6
CONTINUOUS
10
0.677942
20
0.565605
11
0.677702
21
0.565505
0
LINE
8
BLACK
6
CONTINUOUS
10
0.677702
20
0.565505
11
0.677532
21
0.56531
0
LINE
8
BLACK
6
CONTINUOUS
10
0.677532
20
0.56531
11
0.675658
21
0.564372
0
LINE
8
BLACK
6
CONTINUOUS
10
0.675658
20
0.564372
11
0.675292
21
0.564346
0
LINE
8
BLACK
6
CONTINUOUS
10
0.675292
20
0.564346
11
0.674953
21
0.564206
0
LINE
8
BLACK
6
CONTINUOUS
10
0.674953
20
0.564206
11
0.672141
21
0.564206
0
LINE
8
BLACK
6
CONTINUOUS
10
0.672141
20
0.564206
11
0.671803
21
0.564346
0
LINE
8
BLACK
6
CONTINUOUS
10
0.671803
20
0.564346
11
0.671437
21
0.564372
0
LINE
8
BLACK
6
CONTINUOUS
10
0.671437
20
0.564372
11
0.669562
21
0.56531
0
LINE
8
BLACK
6
CONTINUOUS
10
0.669562
20
0.56531
11
0.669392
21
0.565505
0
LINE
8
BLACK
6
CONTINUOUS
10
0.669392
20
0.565505
11
0.669153
21
0.565605
0
LINE
8
BLACK
6
CONTINUOUS
10
0.669153
20
0.565605
11
0.668216
21
0.566542
0
LINE
8
BLACK
6
CONTINUOUS
10
0.668216
20
0.566542
11
0.668116
21
0.566782
0
LINE
8
BLACK
6
CONTINUOUS
10
0.668116
20
0.566782
11
0.667921
21
0.566951
0
LINE
8
BLACK
6
CONTINUOUS
10
0.667921
20
0.566951
11
0.666983
21
0.568826
0
LINE
8
BLACK
6
CONTINUOUS
10
0.666983
20
0.568826
11
0.666957
21
0.569192
0
LINE
8
BLACK
6
CONTINUOUS
10
0.666957
20
0.569192
11
0.666817
21
0.56953
0
LINE
8
BLACK
6
CONTINUOUS
10
0.666817
20
0.56953
11
0.666817
21
0.577029
0
LINE
8
BLACK
6
CONTINUOUS
10
0.666817
20
0.577029
11
0.667278
21
0.578143
0
LINE
8
BLACK
6
CONTINUOUS
10
0.667278
20
0.578143
11
0.668392
21
0.578604
0
LINE
8
BLACK
6
CONTINUOUS
10
0.668392
20
0.578604
11
0.688077
21
0.578604
0
LINE
8
BLACK
6
CONTINUOUS
10
0.688077
20
0.578604
11
0.68919
21
0.578143
0
LINE
8
BLACK
6
CONTINUOUS
10
0.669966
20
0.569902
11
0.670623
21
0.568589
0
LINE
8
BLACK
6
CONTINUOUS
10
0.670623
20
0.568589
11
0.671199
21
0.568012
0
LINE
8
BLACK
6
CONTINUOUS
10
0.671199
20
0.568012
11
0.672513
21
0.567356
0
LINE
8
BLACK
6
CONTINUOUS
10
0.672513
20
0.567356
11
0.674582
21
0.567356
0
LINE
8
BLACK
6
CONTINUOUS
10
0.674582
20
0.567356
11
0.675895
21
0.568012
0
LINE
8
BLACK
6
CONTINUOUS
10
0.675895
20
0.568012
11
0.676471
21
0.568589
0
LINE
8
BLACK
6
CONTINUOUS
10
0.676471
20
0.568589
11
0.677128
21
0.569902
0
LINE
8
BLACK
6
CONTINUOUS
10
0.677128
20
0.569902
11
0.677128
21
0.575455
0
LINE
8
BLACK
6
CONTINUOUS
10
0.677128
20
0.575455
11
0.669966
21
0.575455
0
LINE
8
BLACK
6
CONTINUOUS
10
0.669966
20
0.575455
11
0.669966
21
0.569902
0
LINE
8
BLACK
6
CONTINUOUS
10
0.70374
20
0.603839
11
0.705132
21
0.603262
0
LINE
8
BLACK
6
CONTINUOUS
10
0.705132
20
0.603262
11
0.705709
21
0.60187
0
LINE
8
BLACK
6
CONTINUOUS
10
0.705709
20
0.60187
11
0.705709
21
0.52313
0
LINE
8
BLACK
6
CONTINUOUS
10
0.705709
20
0.52313
11
0.705132
21
0.521738
0
LINE
8
BLACK
6
CONTINUOUS
10
0.705132
20
0.521738
11
0.70374
21
0.521161
0
LINE
8
BLACK
6
CONTINUOUS
10
0.70374
20
0.521161
11
0.654528
21
0.521161
0
LINE
8
BLACK
6
CONTINUOUS
10
0.654528
20
0.521161
11
0.653136
21
0.521738
0
LINE
8
BLACK
6
CONTINUOUS
10
0.653136
20
0.521738
11
0.652559
21
0.52313
0
LINE
8
BLACK
6
CONTINUOUS
10
0.652559
20
0.52313
11
0.652559
21
0.60187
0
LINE
8
BLACK
6
CONTINUOUS
10
0.652559
20
0.60187
11
0.653136
21
0.603262
0
LINE
8
BLACK
6
CONTINUOUS
10
0.653136
20
0.603262
11
0.654528
21
0.603839
0
LINE
8
BLACK
6
CONTINUOUS
10
0.654528
20
0.603839
11
0.70374
21
0.603839
0
LINE
8
BLACK
6
CONTINUOUS
10
0.656496
20
0.599902
11
0.656496
21
0.525098
0
LINE
8
BLACK
6
CONTINUOUS
10
0.656496
20
0.525098
11
0.701772
21
0.525098
0
LINE
8
BLACK
6
CONTINUOUS
10
0.701772
20
0.525098
11
0.701772
21
0.599902
0
LINE
8
BLACK
6
CONTINUOUS
10
0.701772
20
0.599902
11
0.656496
21
0.599902
0
LINE
8
BLACK
6
CONTINUOUS
10
0.796567
20
0.560333
11
0.797505
21
0.559395
0
LINE
8
BLACK
6
CONTINUOUS
10
0.797505
20
0.559395
11
0.797604
21
0.559156
0
LINE
8
BLACK
6
CONTINUOUS
10
0.797604
20
0.559156
11
0.7978
21
0.558986
0
LINE
8
BLACK
6
CONTINUOUS
10
0.7978
20
0.558986
11
0.798737
21
0.557111
0
LINE
8
BLACK
6
CONTINUOUS
10
0.798737
20
0.557111
11
0.798763
21
0.556746
0
LINE
8
BLACK
6
CONTINUOUS
10
0.798763
20
0.556746
11
0.798904
21
0.556407
0
LINE
8
BLACK
6
CONTINUOUS
10
0.798904
20
0.556407
11
0.798904
21
0.550783
0
LINE
8
BLACK
6
CONTINUOUS
10
0.798904
20
0.550783
11
0.798763
21
0.550444
0
LINE
8
BLACK
6
CONTINUOUS
10
0.798763
20
0.550444
11
0.798737
21
0.550078
0
LINE
8
BLACK
6
CONTINUOUS
10
0.798737
20
0.550078
11
0.7978
21
0.548204
0
LINE
8
BLACK
6
CONTINUOUS
10
0.7978
20
0.548204
11
0.797604
21
0.548034
0
LINE
8
BLACK
6
CONTINUOUS
10
0.797604
20
0.548034
11
0.797505
21
0.547794
0
LINE
8
BLACK
6
CONTINUOUS
10
0.797505
20
0.547794
11
0.796567
21
0.546857
0
LINE
8
BLACK
6
CONTINUOUS
10
0.796567
20
0.546857
11
0.796328
21
0.546758
0
LINE
8
BLACK
6
CONTINUOUS
10
0.796328
20
0.546758
11
0.796158
21
0.546562
0
LINE
8
BLACK
6
CONTINUOUS
10
0.796158
20
0.546562
11
0.794283
21
0.545625
0
LINE
8
BLACK
6
CONTINUOUS
10
0.794283
20
0.545625
11
0.793918
21
0.545599
0
LINE
8
BLACK
6
CONTINUOUS
10
0.793918
20
0.545599
11
0.793579
21
0.545458
0
LINE
8
BLACK
6
CONTINUOUS
10
0.793579
20
0.545458
11
0.788892
21
0.545458
0
LINE
8
BLACK
6
CONTINUOUS
10
0.788892
20
0.545458
11
0.788554
21
0.545599
0
LINE
8
BLACK
6
CONTINUOUS
10
0.788554
20
0.545599
11
0.788188
21
0.545625
0
LINE
8
BLACK
6
CONTINUOUS
10
0.788188
20
0.545625
11
0.786313
21
0.546562
0
LINE
8
BLACK
6
CONTINUOUS
10
0.786313
20
0.546562
11
0.786143
21
0.546758
0
LINE
8
BLACK
6
CONTINUOUS
10
0.786143
20
0.546758
11
0.785904
21
0.546857
0
LINE
8
BLACK
6
CONTINUOUS
10
0.785904
20
0.546857
11
0.784967
21
0.547794
0
LINE
8
BLACK
6
CONTINUOUS
10
0.784967
20
0.547794
11
0.784867
21
0.548034
0
LINE
8
BLACK
6
CONTINUOUS
10
0.784867
20
0.548034
11
0.784672
21
0.548204
0
LINE
8
BLACK
6
CONTINUOUS
10
0.784672
20
0.548204
11
0.783734
21
0.550078
0
LINE
8
BLACK
6
CONTINUOUS
10
0.783734
20
0.550078
11
0.783721
21
0.550259
0
LINE
8
BLACK
6
CONTINUOUS
10
0.783721
20
0.550259
11
0.778681
21
0.545848
0
LINE
8
BLACK
6
CONTINUOUS
10
0.778681
20
0.545848
11
0.778156
21
0.545671
0
LINE
8
BLACK
6
CONTINUOUS
10
0.778156
20
0.545671
11
0.777644
21
0.545458
0
LINE
8
BLACK
6
CONTINUOUS
10
0.777644
20
0.545458
11
0.777592
21
0.54548
0
LINE
8
BLACK
6
CONTINUOUS
10
0.777592
20
0.54548
11
0.777539
21
0.545462
0
LINE
8
BLACK
6
CONTINUOUS
10
0.777539
20
0.545462
11
0.777042
21
0.545708
0
LINE
8
BLACK
6
CONTINUOUS
10
0.777042
20
0.545708
11
0.77653
21
0.54592
0
LINE
8
BLACK
6
CONTINUOUS
10
0.77653
20
0.54592
11
0.776509
21
0.545971
0
LINE
8
BLACK
6
CONTINUOUS
10
0.776509
20
0.545971
11
0.776459
21
0.545996
0
LINE
8
BLACK
6
CONTINUOUS
10
0.776459
20
0.545996
11
0.776281
21
0.546521
0
LINE
8
BLACK
6
CONTINUOUS
10
0.776281
20
0.546521
11
0.776069
21
0.547033
0
LINE
8
BLACK
6
CONTINUOUS
10
0.776069
20
0.547033
11
0.776069
21
0.559219
0
LINE
8
BLACK
6
CONTINUOUS
10
0.776069
20
0.559219
11
0.77653
21
0.560333
0
LINE
8
BLACK
6
CONTINUOUS
10
0.77653
20
0.560333
11
0.777644
21
0.560794
0
LINE
8
BLACK
6
CONTINUOUS
10
0.777644
20
0.560794
11
0.778757
21
0.560333
0
LINE
8
BLACK
6
CONTINUOUS
10
0.778757
20
0.560333
11
0.779218
21
0.559219
0
LINE
8
BLACK
6
CONTINUOUS
10
0.779218
20
0.559219
11
0.779218
21
0.550504
0
LINE
8
BLACK
6
CONTINUOUS
10
0.779218
20
0.550504
11
0.784106
21
0.55478
0
LINE
8
BLACK
6
CONTINUOUS
10
0.784106
20
0.55478
11
0.784631
21
0.554958
0
LINE
8
BLACK
6
CONTINUOUS
10
0.784631
20
0.554958
11
0.785143
21
0.55517
0
LINE
8
BLACK
6
CONTINUOUS
10
0.785143
20
0.55517
11
0.785194
21
0.555148
0
LINE
8
BLACK
6
CONTINUOUS
10
0.785194
20
0.555148
11
0.785247
21
0.555166
0
LINE
8
BLACK
6
CONTINUOUS
10
0.785247
20
0.555166
11
0.785744
21
0.554921
0
LINE
8
BLACK
6
CONTINUOUS
10
0.785744
20
0.554921
11
0.786256
21
0.554708
0
LINE
8
BLACK
6
CONTINUOUS
10
0.786256
20
0.554708
11
0.786278
21
0.554657
0
LINE
8
BLACK
6
CONTINUOUS
10
0.786278
20
0.554657
11
0.786328
21
0.554632
0
LINE
8
BLACK
6
CONTINUOUS
10
0.786328
20
0.554632
11
0.786505
21
0.554107
0
LINE
8
BLACK
6
CONTINUOUS
10
0.786505
20
0.554107
11
0.786718
21
0.553595
0
LINE
8
BLACK
6
CONTINUOUS
10
0.786718
20
0.553595
11
0.786718
21
0.551155
0
LINE
8
BLACK
6
CONTINUOUS
10
0.786718
20
0.551155
11
0.787374
21
0.549841
0
LINE
8
BLACK
6
CONTINUOUS
10
0.787374
20
0.549841
11
0.78795
21
0.549265
0
LINE
8
BLACK
6
CONTINUOUS
10
0.78795
20
0.549265
11
0.789264
21
0.548608
0
LINE
8
BLACK
6
CONTINUOUS
10
0.789264
20
0.548608
11
0.793207
21
0.548608
0
LINE
8
BLACK
6
CONTINUOUS
10
0.793207
20
0.548608
11
0.794521
21
0.549265
0
LINE
8
BLACK
6
CONTINUOUS
10
0.794521
20
0.549265
11
0.795097
21
0.549841
0
LINE
8
BLACK
6
CONTINUOUS
10
0.795097
20
0.549841
11
0.795754
21
0.551154
0
LINE
8
BLACK
6
CONTINUOUS
10
0.795754
20
0.551154
11
0.795754
21
0.556035
0
LINE
8
BLACK
6
CONTINUOUS
10
0.795754
20
0.556035
11
0.795097
21
0.557349
0
LINE
8
BLACK
6
CONTINUOUS
10
0.795097
20
0.557349
11
0.79434
21
0.558106
0
LINE
8
BLACK
6
CONTINUOUS
10
0.79434
20
0.558106
11
0.793879
21
0.559219
0
LINE
8
BLACK
6
CONTINUOUS
10
0.793879
20
0.559219
11
0.79434
21
0.560333
0
LINE
8
BLACK
6
CONTINUOUS
10
0.79434
20
0.560333
11
0.795454
21
0.560794
0
LINE
8
BLACK
6
CONTINUOUS
10
0.795454
20
0.560794
11
0.796567
21
0.560333
0
LINE
8
BLACK
6
CONTINUOUS
10
0.798442
20
0.578143
11
0.798904
21
0.577029
0
LINE
8
BLACK
6
CONTINUOUS
10
0.798904
20
0.577029
11
0.798442
21
0.575916
0
LINE
8
BLACK
6
CONTINUOUS
10
0.798442
20
0.575916
11
0.797329
21
0.575455
0
LINE
8
BLACK
6
CONTINUOUS
10
0.797329
20
0.575455
11
0.78953
21
0.575455
0
LINE
8
BLACK
6
CONTINUOUS
10
0.78953
20
0.575455
11
0.78953
21
0.573162
0
LINE
8
BLACK
6
CONTINUOUS
10
0.78953
20
0.573162
11
0.798232
21
0.567071
0
LINE
8
BLACK
6
CONTINUOUS
10
0.798232
20
0.567071
11
0.79888
21
0.566055
0
LINE
8
BLACK
6
CONTINUOUS
10
0.79888
20
0.566055
11
0.798619
21
0.564878
0
LINE
8
BLACK
6
CONTINUOUS
10
0.798619
20
0.564878
11
0.797602
21
0.56423
0
LINE
8
BLACK
6
CONTINUOUS
10
0.797602
20
0.56423
11
0.796426
21
0.564491
0
LINE
8
BLACK
6
CONTINUOUS
10
0.796426
20
0.564491
11
0.789461
21
0.569366
0
LINE
8
BLACK
6
CONTINUOUS
10
0.789461
20
0.569366
11
0.789389
21
0.569192
0
LINE
8
BLACK
6
CONTINUOUS
10
0.789389
20
0.569192
11
0.789363
21
0.568826
0
LINE
8
BLACK
6
CONTINUOUS
10
0.789363
20
0.568826
11
0.788426
21
0.566951
0
LINE
8
BLACK
6
CONTINUOUS
10
0.788426
20
0.566951
11
0.78823
21
0.566782
0
LINE
8
BLACK
6
CONTINUOUS
10
0.78823
20
0.566782
11
0.788131
21
0.566542
0
LINE
8
BLACK
6
CONTINUOUS
10
0.788131
20
0.566542
11
0.787194
21
0.565605
0
LINE
8
BLACK
6
CONTINUOUS
10
0.787194
20
0.565605
11
0.786954
21
0.565505
0
LINE
8
BLACK
6
CONTINUOUS
10
0.786954
20
0.565505
11
0.786784
21
0.56531
0
LINE
8
BLACK
6
CONTINUOUS
10
0.786784
20
0.56531
11
0.78491
21
0.564372
0
LINE
8
BLACK
6
CONTINUOUS
10
0.78491
20
0.564372
11
0.784544
21
0.564346
0
LINE
8
BLACK
6
CONTINUOUS
10
0.784544
20
0.564346
11
0.784205
21
0.564206
0
LINE
8
BLACK
6
CONTINUOUS
10
0.784205
20
0.564206
11
0.781393
21
0.564206
0
LINE
8
BLACK
6
CONTINUOUS
10
0.781393
20
0.564206
11
0.781055
21
0.564346
0
LINE
8
BLACK
6
CONTINUOUS
10
0.781055
20
0.564346
11
0.780689
21
0.564372
0
LINE
8
BLACK
6
CONTINUOUS
10
0.780689
20
0.564372
11
0.778814
21
0.56531
0
LINE
8
BLACK
6
CONTINUOUS
10
0.778814
20
0.56531
11
0.778644
21
0.565505
0
LINE
8
BLACK
6
CONTINUOUS
10
0.778644
20
0.565505
11
0.778405
21
0.565605
0
LINE
8
BLACK
6
CONTINUOUS
10
0.778405
20
0.565605
11
0.777467
21
0.566542
0
LINE
8
BLACK
6
CONTINUOUS
10
0.777467
20
0.566542
11
0.777368
21
0.566782
0
LINE
8
BLACK
6
CONTINUOUS
10
0.777368
20
0.566782
11
0.777173
21
0.566951
0
LINE
8
BLACK
6
CONTINUOUS
10
0.777173
20
0.566951
11
0.776235
21
0.568826
0
LINE
8
BLACK
6
CONTINUOUS
10
0.776235
20
0.568826
11
0.776209
21
0.569192
0
LINE
8
BLACK
6
CONTINUOUS
10
0.776209
20
0.569192
11
0.776069
21
0.56953
0
LINE
8
BLACK
6
CONTINUOUS
10
0.776069
20
0.56953
11
0.776069
21
0.577029
0
LINE
8
BLACK
6
CONTINUOUS
10
0.776069
20
0.577029
11
0.77653
21
0.578143
0
LINE
8
BLACK
6
CONTINUOUS
10
0.77653
20
0.578143
11
0.777644
21
0.578604
0
LINE
8
BLACK
6
CONTINUOUS
10
0.777644
20
0.578604
11
0.797329
21
0.578604
0
LINE
8
BLACK
6
CONTINUOUS
10
0.797329
20
0.578604
11
0.798442
21
0.578143
0
LINE
8
BLACK
6
CONTINUOUS
10
0.779218
20
0.569902
11
0.779875
21
0.568589
0
LINE
8
BLACK
6
CONTINUOUS
10
0.779875
20
0.568589
11
0.780451
21
0.568012
0
LINE
8
BLACK
6
CONTINUOUS
10
0.780451
20
0.568012
11
0.781765
21
0.567356
0
LINE
8
BLACK
6
CONTINUOUS
10
0.781765
20
0.567356
11
0.783834
21
0.567356
0
LINE
8
BLACK
6
CONTINUOUS
10
0.783834
20
0.567356
11
0.785147
21
0.568012
0
LINE
8
BLACK
6
CONTINUOUS
10
0.785147
20
0.568012
11
0.785723
21
0.568589
0
LINE
8
BLACK
6
CONTINUOUS
10
0.785723
20
0.568589
11
0.78638
21
0.569902
0
LINE
8
BLACK
6
CONTINUOUS
10
0.78638
20
0.569902
11
0.78638
21
0.575455
0
LINE
8
BLACK
6
CONTINUOUS
10
0.78638
20
0.575455
11
0.779218
21
0.575455
0
LINE
8
BLACK
6
CONTINUOUS
10
0.779218
20
0.575455
11
0.779218
21
0.569902
0
LINE
8
BLACK
6
CONTINUOUS
10
0.812992
20
0.603839
11
0.814384
21
0.603262
0
LINE
8
BLACK
6
CONTINUOUS
10
0.814384
20
0.603262
11
0.814961
21
0.60187
0
LINE
8
BLACK
6
CONTINUOUS
10
0.814961
20
0.60187
11
0.814961
21
0.52313
0
LINE
8
BLACK
6
CONTINUOUS
10
0.814961
20
0.52313
11
0.814384
21
0.521738
0
LINE
8
BLACK
6
CONTINUOUS
10
0.814384
20
0.521738
11
0.812992
21
0.521161
0
LINE
8
BLACK
6
CONTINUOUS
10
0.812992
20
0.521161
11
0.76378
21
0.521161
0
LINE
8
BLACK
6
CONTINUOUS
10
0.76378
20
0.521161
11
0.762388
21
0.521738
0
LINE
8
BLACK
6
CONTINUOUS
10
0.762388
20
0.521738
11
0.761811
21
0.52313
0
LINE
8
BLACK
6
CONTINUOUS
10
0.761811
20
0.52313
11
0.761811
21
0.52313
0
LINE
8
BLACK
6
CONTINUOUS
10
0.761811
20
0.52313
11
0.761811
21
0.60187
0
LINE
8
BLACK
6
CONTINUOUS
10
0.761811
20
0.60187
11
0.762388
21
0.603262
0
LINE
8
BLACK
6
CONTINUOUS
10
0.762388
20
0.603262
11
0.76378
21
0.603839
0
LINE
8
BLACK
6
CONTINUOUS
10
0.76378
20
0.603839
11
0.812992
21
0.603839
0
LINE
8
BLACK
6
CONTINUOUS
10
0.765748
20
0.599902
11
0.765748
21
0.525098
0
LINE
8
BLACK
6
CONTINUOUS
10
0.765748
20
0.525098
11
0.811024
21
0.525098
0
LINE
8
BLACK
6
CONTINUOUS
10
0.811024
20
0.525098
11
0.811024
21
0.599902
0
LINE
8
BLACK
6
CONTINUOUS
10
0.811024
20
0.599902
11
0.765748
21
0.599902
0
LINE
8
BLACK
6
CONTINUOUS
10
1.4561
20
0.618155
11
1.45656
21
0.617041
0
LINE
8
BLACK
6
CONTINUOUS
10
1.45656
20
0.617041
11
1.45656
21
0.597356
0
LINE
8
BLACK
6
CONTINUOUS
10
1.45656
20
0.597356
11
1.4561
21
0.596243
0
LINE
8
BLACK
6
CONTINUOUS
10
1.4561
20
0.596243
11
1.45498
21
0.595782
0
LINE
8
BLACK
6
CONTINUOUS
10
1.45498
20
0.595782
11
1.45387
21
0.596243
0
LINE
8
BLACK
6
CONTINUOUS
10
1.45387
20
0.596243
11
1.45341
21
0.597356
0
LINE
8
BLACK
6
CONTINUOUS
10
1.45341
20
0.597356
11
1.45341
21
0.605155
0
LINE
8
BLACK
6
CONTINUOUS
10
1.45341
20
0.605155
11
1.45112
21
0.605155
0
LINE
8
BLACK
6
CONTINUOUS
10
1.45112
20
0.605155
11
1.44502
21
0.596453
0
LINE
8
BLACK
6
CONTINUOUS
10
1.44502
20
0.596453
11
1.44401
21
0.595806
0
LINE
8
BLACK
6
CONTINUOUS
10
1.44401
20
0.595806
11
1.44283
21
0.596066
0
LINE
8
BLACK
6
CONTINUOUS
10
1.44283
20
0.596066
11
1.44218
21
0.597083
0
LINE
8
BLACK
6
CONTINUOUS
10
1.44218
20
0.597083
11
1.44244
21
0.598259
0
LINE
8
BLACK
6
CONTINUOUS
10
1.44244
20
0.598259
11
1.44732
21
0.605224
0
LINE
8
BLACK
6
CONTINUOUS
10
1.44732
20
0.605224
11
1.44714
21
0.605296
0
LINE
8
BLACK
6
CONTINUOUS
10
1.44714
20
0.605296
11
1.44678
21
0.605322
0
LINE
8
BLACK
6
CONTINUOUS
10
1.44678
20
0.605322
11
1.4449
21
0.606259
0
LINE
8
BLACK
6
CONTINUOUS
10
1.4449
20
0.606259
11
1.44473
21
0.606455
0
LINE
8
BLACK
6
CONTINUOUS
10
1.44473
20
0.606455
11
1.44449
21
0.606554
0
LINE
8
BLACK
6
CONTINUOUS
10
1.44449
20
0.606554
11
1.44356
21
0.607491
0
LINE
8
BLACK
6
CONTINUOUS
10
1.44356
20
0.607491
11
1.44346
21
0.607731
0
LINE
8
BLACK
6
CONTINUOUS
10
1.44346
20
0.607731
11
1.44326
21
0.607901
0
LINE
8
BLACK
6
CONTINUOUS
10
1.44326
20
0.607901
11
1.44233
21
0.609775
0
LINE
8
BLACK
6
CONTINUOUS
10
1.44233
20
0.609775
11
1.4423
21
0.610141
0
LINE
8
BLACK
6
CONTINUOUS
10
1.4423
20
0.610141
11
1.44216
21
0.61048
0
LINE
8
BLACK
6
CONTINUOUS
10
1.44216
20
0.61048
11
1.44216
21
0.613292
0
LINE
8
BLACK
6
CONTINUOUS
10
1.44216
20
0.613292
11
1.4423
21
0.613631
0
LINE
8
BLACK
6
CONTINUOUS
10
1.4423
20
0.613631
11
1.44233
21
0.613996
0
LINE
8
BLACK
6
CONTINUOUS
10
1.44233
20
0.613996
11
1.44326
21
0.615871
0
LINE
8
BLACK
6
CONTINUOUS
10
1.44326
20
0.615871
11
1.44346
21
0.616041
0
LINE
8
BLACK
6
CONTINUOUS
10
1.44346
20
0.616041
11
1.44356
21
0.61628
0
LINE
8
BLACK
6
CONTINUOUS
10
1.44356
20
0.61628
11
1.44449
21
0.617218
0
LINE
8
BLACK
6
CONTINUOUS
10
1.44449
20
0.617218
11
1.44473
21
0.617317
0
LINE
8
BLACK
6
CONTINUOUS
10
1.44473
20
0.617317
11
1.4449
21
0.617513
0
LINE
8
BLACK
6
CONTINUOUS
10
1.4449
20
0.617513
11
1.44678
21
0.61845
0
LINE
8
BLACK
6
CONTINUOUS
10
1.44678
20
0.61845
11
1.44714
21
0.618476
0
LINE
8
BLACK
6
CONTINUOUS
10
1.44714
20
0.618476
11
1.44748
21
0.618616
0
LINE
8
BLACK
6
CONTINUOUS
10
1.44748
20
0.618616
11
1.45498
21
0.618616
0
LINE
8
BLACK
6
CONTINUOUS
10
1.45498
20
0.618616
11
1.4561
21
0.618155
0
LINE
8
BLACK
6
CONTINUOUS
10
1.44654
20
0.61481
11
1.44597
21
0.614234
0
LINE
8
BLACK
6
CONTINUOUS
10
1.44597
20
0.614234
11
1.44531
21
0.61292
0
LINE
8
BLACK
6
CONTINUOUS
10
1.44531
20
0.61292
11
1.44531
21
0.610851
0
LINE
8
BLACK
6
CONTINUOUS
10
1.44531
20
0.610851
11
1.44597
21
0.609538
0
LINE
8
BLACK
6
CONTINUOUS
10
1.44597
20
0.609538
11
1.44654
21
0.608962
0
LINE
8
BLACK
6
CONTINUOUS
10
1.44654
20
0.608962
11
1.44785
21
0.608305
0
LINE
8
BLACK
6
CONTINUOUS
10
1.44785
20
0.608305
11
1.45341
21
0.608305
0
LINE
8
BLACK
6
CONTINUOUS
10
1.45341
20
0.608305
11
1.45341
21
0.615467
0
LINE
8
BLACK
6
CONTINUOUS
10
1.45341
20
0.615467
11
1.44785
21
0.615467
0
LINE
8
BLACK
6
CONTINUOUS
10
1.44785
20
0.615467
11
1.44654
21
0.61481
0
LINE
8
BLACK
6
CONTINUOUS
10
1.43829
20
0.618155
11
1.43875
21
0.617041
0
LINE
8
BLACK
6
CONTINUOUS
10
1.43875
20
0.617041
11
1.43829
21
0.615928
0
LINE
8
BLACK
6
CONTINUOUS
10
1.43829
20
0.615928
11
1.43717
21
0.615467
0
LINE
8
BLACK
6
CONTINUOUS
10
1.43717
20
0.615467
11
1.42644
21
0.615467
0
LINE
8
BLACK
6
CONTINUOUS
10
1.42644
20
0.615467
11
1.43393
21
0.597977
0
LINE
8
BLACK
6
CONTINUOUS
10
1.43393
20
0.597977
11
1.43395
21
0.596771
0
LINE
8
BLACK
6
CONTINUOUS
10
1.43395
20
0.596771
11
1.43311
21
0.595909
0
LINE
8
BLACK
6
CONTINUOUS
10
1.43311
20
0.595909
11
1.4319
21
0.595894
0
LINE
8
BLACK
6
CONTINUOUS
10
1.4319
20
0.595894
11
1.43104
21
0.596736
0
LINE
8
BLACK
6
CONTINUOUS
10
1.43104
20
0.596736
11
1.4226
21
0.616421
0
LINE
8
BLACK
6
CONTINUOUS
10
1.4226
20
0.616421
11
1.4226
21
0.616744
0
LINE
8
BLACK
6
CONTINUOUS
10
1.4226
20
0.616744
11
1.42247
21
0.617041
0
LINE
8
BLACK
6
CONTINUOUS
10
1.42247
20
0.617041
11
1.42259
21
0.617322
0
LINE
8
BLACK
6
CONTINUOUS
10
1.42259
20
0.617322
11
1.42259
21
0.617626
0
LINE
8
BLACK
6
CONTINUOUS
10
1.42259
20
0.617626
11
1.42281
21
0.617857
0
LINE
8
BLACK
6
CONTINUOUS
10
1.42281
20
0.617857
11
1.42294
21
0.618155
0
LINE
8
BLACK
6
CONTINUOUS
10
1.42294
20
0.618155
11
1.42322
21
0.618271
0
LINE
8
BLACK
6
CONTINUOUS
10
1.42322
20
0.618271
11
1.42343
21
0.618489
0
LINE
8
BLACK
6
CONTINUOUS
10
1.42343
20
0.618489
11
1.42375
21
0.618493
0
LINE
8
BLACK
6
CONTINUOUS
10
1.42375
20
0.618493
11
1.42405
21
0.618616
0
LINE
8
BLACK
6
CONTINUOUS
10
1.42405
20
0.618616
11
1.43717
21
0.618616
0
LINE
8
BLACK
6
CONTINUOUS
10
1.43717
20
0.618616
11
1.43829
21
0.618155
0
LINE
8
BLACK
6
CONTINUOUS
10
1.47982
20
0.632874
11
1.48121
21
0.632297
0
LINE
8
BLACK
6
CONTINUOUS
10
1.48121
20
0.632297
11
1.48179
21
0.630906
0
LINE
8
BLACK
6
CONTINUOUS
10
1.48179
20
0.630906
11
1.48179
21
0.581693
0
LINE
8
BLACK
6
CONTINUOUS
10
1.48179
20
0.581693
11
1.48121
21
0.580301
0
LINE
8
BLACK
6
CONTINUOUS
10
1.48121
20
0.580301
11
1.47982
21
0.579724
0
LINE
8
BLACK
6
CONTINUOUS
10
1.47982
20
0.579724
11
1.40108
21
0.579724
0
LINE
8
BLACK
6
CONTINUOUS
10
1.40108
20
0.579724
11
1.39969
21
0.580301
0
LINE
8
BLACK
6
CONTINUOUS
10
1.39969
20
0.580301
11
1.39911
21
0.581693
0
LINE
8
BLACK
6
CONTINUOUS
10
1.39911
20
0.581693
11
1.39911
21
0.630906
0
LINE
8
BLACK
6
CONTINUOUS
10
1.39911
20
0.630906
11
1.39969
21
0.632297
0
LINE
8
BLACK
6
CONTINUOUS
10
1.39969
20
0.632297
11
1.40108
21
0.632874
0
LINE
8
BLACK
6
CONTINUOUS
10
1.40108
20
0.632874
11
1.47982
21
0.632874
0
LINE
8
BLACK
6
CONTINUOUS
10
1.40305
20
0.628937
11
1.40305
21
0.583661
0
LINE
8
BLACK
6
CONTINUOUS
10
1.40305
20
0.583661
11
1.47785
21
0.583661
0
LINE
8
BLACK
6
CONTINUOUS
10
1.47785
20
0.583661
11
1.47785
21
0.628937
0
LINE
8
BLACK
6
CONTINUOUS
10
1.47785
20
0.628937
11
1.40305
21
0.628937
0
LINE
8
BLACK
6
CONTINUOUS
10
1.62097
20
0.653027
11
1.62114
21
0.653038
0
LINE
8
BLACK
6
CONTINUOUS
10
1.62114
20
0.653038
11
1.62183
21
0.65253
0
LINE
8
BLACK
6
CONTINUOUS
10
1.62183
20
0.65253
11
1.62258
21
0.652102
0
LINE
8
BLACK
6
CONTINUOUS
10
1.62258
20
0.652102
11
1.62263
21
0.651942
0
LINE
8
BLACK
6
CONTINUOUS
10
1.62263
20
0.651942
11
1.62277
21
0.651842
0
LINE
8
BLACK
6
CONTINUOUS
10
1.62277
20
0.651842
11
1.62636
21
0.646461
0
LINE
8
BLACK
6
CONTINUOUS
10
1.62636
20
0.646461
11
1.62956
21
0.643257
0
LINE
8
BLACK
6
CONTINUOUS
10
1.62956
20
0.643257
11
1.63288
21
0.641596
0
LINE
8
BLACK
6
CONTINUOUS
10
1.63288
20
0.641596
11
1.63371
21
0.640986
0
LINE
8
BLACK
6
CONTINUOUS
10
1.63371
20
0.640986
11
1.63451
21
0.639132
0
LINE
8
BLACK
6
CONTINUOUS
10
1.63451
20
0.639132
11
1.63394
21
0.637196
0
LINE
8
BLACK
6
CONTINUOUS
10
1.63394
20
0.637196
11
1.63225
21
0.636083
0
LINE
8
BLACK
6
CONTINUOUS
10
1.63225
20
0.636083
11
1.63024
21
0.636314
0
LINE
8
BLACK
6
CONTINUOUS
10
1.63024
20
0.636314
11
1.62649
21
0.638189
0
LINE
8
BLACK
6
CONTINUOUS
10
1.62649
20
0.638189
11
1.62578
21
0.638715
0
LINE
8
BLACK
6
CONTINUOUS
10
1.62578
20
0.638715
11
1.62573
21
0.638742
0
LINE
8
BLACK
6
CONTINUOUS
10
1.62573
20
0.638742
11
1.62327
21
0.641201
0
LINE
8
BLACK
6
CONTINUOUS
10
1.62327
20
0.641201
11
1.62327
21
0.613787
0
LINE
8
BLACK
6
CONTINUOUS
10
1.62327
20
0.613787
11
1.63156
21
0.613787
0
LINE
8
BLACK
6
CONTINUOUS
10
1.63156
20
0.613787
11
1.63257
21
0.613609
0
LINE
8
BLACK
6
CONTINUOUS
10
1.63257
20
0.613609
11
1.63412
21
0.61231
0
LINE
8
BLACK
6
CONTINUOUS
10
1.63412
20
0.61231
11
1.63447
21
0.610321
0
LINE
8
BLACK
6
CONTINUOUS
10
1.63447
20
0.610321
11
1.63346
21
0.608572
0
LINE
8
BLACK
6
CONTINUOUS
10
1.63346
20
0.608572
11
1.63156
21
0.607881
0
LINE
8
BLACK
6
CONTINUOUS
10
1.63156
20
0.607881
11
1.60907
21
0.607881
0
LINE
8
BLACK
6
CONTINUOUS
10
1.60907
20
0.607881
11
1.60806
21
0.608059
0
LINE
8
BLACK
6
CONTINUOUS
10
1.60806
20
0.608059
11
1.60651
21
0.609358
0
LINE
8
BLACK
6
CONTINUOUS
10
1.60651
20
0.609358
11
1.60616
21
0.611347
0
LINE
8
BLACK
6
CONTINUOUS
10
1.60616
20
0.611347
11
1.60717
21
0.613096
0
LINE
8
BLACK
6
CONTINUOUS
10
1.60717
20
0.613096
11
1.60907
21
0.613787
0
LINE
8
BLACK
6
CONTINUOUS
10
1.60907
20
0.613787
11
1.61736
21
0.613787
0
LINE
8
BLACK
6
CONTINUOUS
10
1.61736
20
0.613787
11
1.61736
21
0.650204
0
LINE
8
BLACK
6
CONTINUOUS
10
1.61736
20
0.650204
11
1.61754
21
0.651214
0
LINE
8
BLACK
6
CONTINUOUS
10
1.61754
20
0.651214
11
1.61765
21
0.651344
0
LINE
8
BLACK
6
CONTINUOUS
10
1.61765
20
0.651344
11
1.61767
21
0.651513
0
LINE
8
BLACK
6
CONTINUOUS
10
1.61767
20
0.651513
11
1.61829
21
0.652105
0
LINE
8
BLACK
6
CONTINUOUS
10
1.61829
20
0.652105
11
1.61884
21
0.652761
0
LINE
8
BLACK
6
CONTINUOUS
10
1.61884
20
0.652761
11
1.61901
21
0.652791
0
LINE
8
BLACK
6
CONTINUOUS
10
1.61901
20
0.652791
11
1.61913
21
0.652908
0
LINE
8
BLACK
6
CONTINUOUS
10
1.61913
20
0.652908
11
1.61998
21
0.652963
0
LINE
8
BLACK
6
CONTINUOUS
10
1.61998
20
0.652963
11
1.62083
21
0.653112
0
LINE
8
BLACK
6
CONTINUOUS
10
1.62083
20
0.653112
11
1.62097
21
0.653027
0
LINE
8
BLACK
6
CONTINUOUS
10
1.66944
20
0.653089
11
1.66957
21
0.653112
0
LINE
8
BLACK
6
CONTINUOUS
10
1.66957
20
0.653112
11
1.66969
21
0.653046
0
LINE
8
BLACK
6
CONTINUOUS
10
1.66969
20
0.653046
11
1.67007
21
0.652979
0
LINE
8
BLACK
6
CONTINUOUS
10
1.67007
20
0.652979
11
1.67066
21
0.652486
0
LINE
8
BLACK
6
CONTINUOUS
10
1.67066
20
0.652486
11
1.67132
21
0.652102
0
LINE
8
BLACK
6
CONTINUOUS
10
1.67132
20
0.652102
11
1.67141
21
0.651852
0
LINE
8
BLACK
6
CONTINUOUS
10
1.67141
20
0.651852
11
1.67162
21
0.65168
0
LINE
8
BLACK
6
CONTINUOUS
10
1.67162
20
0.65168
11
1.67175
21
0.650925
0
LINE
8
BLACK
6
CONTINUOUS
10
1.67175
20
0.650925
11
1.67201
21
0.650204
0
LINE
8
BLACK
6
CONTINUOUS
10
1.67201
20
0.650204
11
1.67201
21
0.610834
0
LINE
8
BLACK
6
CONTINUOUS
10
1.67201
20
0.610834
11
1.67194
21
0.61045
0
LINE
8
BLACK
6
CONTINUOUS
10
1.67194
20
0.61045
11
1.67197
21
0.610321
0
LINE
8
BLACK
6
CONTINUOUS
10
1.67197
20
0.610321
11
1.6719
21
0.610208
0
LINE
8
BLACK
6
CONTINUOUS
10
1.6719
20
0.610208
11
1.67183
21
0.609824
0
LINE
8
BLACK
6
CONTINUOUS
10
1.67183
20
0.609824
11
1.67134
21
0.609236
0
LINE
8
BLACK
6
CONTINUOUS
10
1.67134
20
0.609236
11
1.67096
21
0.608572
0
LINE
8
BLACK
6
CONTINUOUS
10
1.67096
20
0.608572
11
1.67071
21
0.608481
0
LINE
8
BLACK
6
CONTINUOUS
10
1.67071
20
0.608481
11
1.67054
21
0.608277
0
LINE
8
BLACK
6
CONTINUOUS
10
1.67054
20
0.608277
11
1.66978
21
0.608144
0
LINE
8
BLACK
6
CONTINUOUS
10
1.66978
20
0.608144
11
1.66906
21
0.607881
0
LINE
8
BLACK
6
CONTINUOUS
10
1.66906
20
0.607881
11
1.65968
21
0.607881
0
LINE
8
BLACK
6
CONTINUOUS
10
1.65968
20
0.607881
11
1.65882
21
0.608034
0
LINE
8
BLACK
6
CONTINUOUS
10
1.65882
20
0.608034
11
1.65875
21
0.608033
0
LINE
8
BLACK
6
CONTINUOUS
10
1.65875
20
0.608033
11
1.65313
21
0.609907
0
LINE
8
BLACK
6
CONTINUOUS
10
1.65313
20
0.609907
11
1.65223
21
0.610396
0
LINE
8
BLACK
6
CONTINUOUS
10
1.65223
20
0.610396
11
1.65213
21
0.610546
0
LINE
8
BLACK
6
CONTINUOUS
10
1.65213
20
0.610546
11
1.65197
21
0.610621
0
LINE
8
BLACK
6
CONTINUOUS
10
1.65197
20
0.610621
11
1.64822
21
0.61437
0
LINE
8
BLACK
6
CONTINUOUS
10
1.64822
20
0.61437
11
1.64772
21
0.615094
0
LINE
8
BLACK
6
CONTINUOUS
10
1.64772
20
0.615094
11
1.64767
21
0.615138
0
LINE
8
BLACK
6
CONTINUOUS
10
1.64767
20
0.615138
11
1.6458
21
0.618887
0
LINE
8
BLACK
6
CONTINUOUS
10
1.6458
20
0.618887
11
1.64565
21
0.619376
0
LINE
8
BLACK
6
CONTINUOUS
10
1.64565
20
0.619376
11
1.64557
21
0.619492
0
LINE
8
BLACK
6
CONTINUOUS
10
1.64557
20
0.619492
11
1.6437
21
0.626991
0
LINE
8
BLACK
6
CONTINUOUS
10
1.6437
20
0.626991
11
1.64366
21
0.627579
0
LINE
8
BLACK
6
CONTINUOUS
10
1.64366
20
0.627579
11
1.64361
21
0.627707
0
LINE
8
BLACK
6
CONTINUOUS
10
1.64361
20
0.627707
11
1.64361
21
0.633331
0
LINE
8
BLACK
6
CONTINUOUS
10
1.64361
20
0.633331
11
1.64371
21
0.633911
0
LINE
8
BLACK
6
CONTINUOUS
10
1.64371
20
0.633911
11
1.6437
21
0.634047
0
LINE
8
BLACK
6
CONTINUOUS
10
1.6437
20
0.634047
11
1.64557
21
0.641546
0
LINE
8
BLACK
6
CONTINUOUS
10
1.64557
20
0.641546
11
1.64578
21
0.642012
0
LINE
8
BLACK
6
CONTINUOUS
10
1.64578
20
0.642012
11
1.6458
21
0.642151
0
LINE
8
BLACK
6
CONTINUOUS
10
1.6458
20
0.642151
11
1.64767
21
0.6459
0
LINE
8
BLACK
6
CONTINUOUS
10
1.64767
20
0.6459
11
1.6482
21
0.646609
0
LINE
8
BLACK
6
CONTINUOUS
10
1.6482
20
0.646609
11
1.64822
21
0.646668
0
LINE
8
BLACK
6
CONTINUOUS
10
1.64822
20
0.646668
11
1.65197
21
0.650417
0
LINE
8
BLACK
6
CONTINUOUS
10
1.65197
20
0.650417
11
1.65281
21
0.651005
0
LINE
8
BLACK
6
CONTINUOUS
10
1.65281
20
0.651005
11
1.65299
21
0.651021
0
LINE
8
BLACK
6
CONTINUOUS
10
1.65299
20
0.651021
11
1.65313
21
0.65113
0
LINE
8
BLACK
6
CONTINUOUS
10
1.65313
20
0.65113
11
1.65875
21
0.653005
0
LINE
8
BLACK
6
CONTINUOUS
10
1.65875
20
0.653005
11
1.65962
21
0.653135
0
LINE
8
BLACK
6
CONTINUOUS
10
1.65962
20
0.653135
11
1.65968
21
0.653157
0
LINE
8
BLACK
6
CONTINUOUS
10
1.65968
20
0.653157
11
1.66906
21
0.653157
0
LINE
8
BLACK
6
CONTINUOUS
10
1.66906
20
0.653157
11
1.66944
21
0.653089
0
LINE
8
BLACK
6
CONTINUOUS
10
1.65566
20
0.645748
11
1.65274
21
0.642831
0
LINE
8
BLACK
6
CONTINUOUS
10
1.65274
20
0.642831
11
1.65122
21
0.6398
0
LINE
8
BLACK
6
CONTINUOUS
10
1.65122
20
0.6398
11
1.64951
21
0.632968
0
LINE
8
BLACK
6
CONTINUOUS
10
1.64951
20
0.632968
11
1.64951
21
0.62807
0
LINE
8
BLACK
6
CONTINUOUS
10
1.64951
20
0.62807
11
1.65122
21
0.621238
0
LINE
8
BLACK
6
CONTINUOUS
10
1.65122
20
0.621238
11
1.65274
21
0.618207
0
LINE
8
BLACK
6
CONTINUOUS
10
1.65274
20
0.618207
11
1.65566
21
0.615289
0
LINE
8
BLACK
6
CONTINUOUS
10
1.65566
20
0.615289
11
1.66016
21
0.613787
0
LINE
8
BLACK
6
CONTINUOUS
10
1.66016
20
0.613787
11
1.66611
21
0.613787
0
LINE
8
BLACK
6
CONTINUOUS
10
1.66611
20
0.613787
11
1.66611
21
0.647251
0
LINE
8
BLACK
6
CONTINUOUS
10
1.66611
20
0.647251
11
1.66016
21
0.647251
0
LINE
8
BLACK
6
CONTINUOUS
10
1.66016
20
0.647251
11
1.65566
21
0.645748
0
LINE
8
BLACK
6
CONTINUOUS
10
1.29985
20
0.853421
11
1.30002
21
0.853432
0
LINE
8
BLACK
6
CONTINUOUS
10
1.30002
20
0.853432
11
1.30071
21
0.852924
0
LINE
8
BLACK
6
CONTINUOUS
10
1.30071
20
0.852924
11
1.30145
21
0.852496
0
LINE
8
BLACK
6
CONTINUOUS
10
1.30145
20
0.852496
11
1.30151
21
0.852336
0
LINE
8
BLACK
6
CONTINUOUS
10
1.30151
20
0.852336
11
1.30165
21
0.852236
0
LINE
8
BLACK
6
CONTINUOUS
10
1.30165
20
0.852236
11
1.30523
21
0.846855
0
LINE
8
BLACK
6
CONTINUOUS
10
1.30523
20
0.846855
11
1.30844
21
0.843651
0
LINE
8
BLACK
6
CONTINUOUS
10
1.30844
20
0.843651
11
1.31176
21
0.84199
0
LINE
8
BLACK
6
CONTINUOUS
10
1.31176
20
0.84199
11
1.31258
21
0.841379
0
LINE
8
BLACK
6
CONTINUOUS
10
1.31258
20
0.841379
11
1.31339
21
0.839526
0
LINE
8
BLACK
6
CONTINUOUS
10
1.31339
20
0.839526
11
1.31281
21
0.83759
0
LINE
8
BLACK
6
CONTINUOUS
10
1.31281
20
0.83759
11
1.31112
21
0.836477
0
LINE
8
BLACK
6
CONTINUOUS
10
1.31112
20
0.836477
11
1.30912
21
0.836708
0
LINE
8
BLACK
6
CONTINUOUS
10
1.30912
20
0.836708
11
1.30537
21
0.838583
0
LINE
8
BLACK
6
CONTINUOUS
10
1.30537
20
0.838583
11
1.30466
21
0.839109
0
LINE
8
BLACK
6
CONTINUOUS
10
1.30466
20
0.839109
11
1.3046
21
0.839136
0
LINE
8
BLACK
6
CONTINUOUS
10
1.3046
20
0.839136
11
1.30214
21
0.841594
0
LINE
8
BLACK
6
CONTINUOUS
10
1.30214
20
0.841594
11
1.30214
21
0.81418
0
LINE
8
BLACK
6
CONTINUOUS
10
1.30214
20
0.81418
11
1.31044
21
0.81418
0
LINE
8
BLACK
6
CONTINUOUS
10
1.31044
20
0.81418
11
1.31145
21
0.814002
0
LINE
8
BLACK
6
CONTINUOUS
10
1.31145
20
0.814002
11
1.31299
21
0.812704
0
LINE
8
BLACK
6
CONTINUOUS
10
1.31299
20
0.812704
11
1.31335
21
0.810715
0
LINE
8
BLACK
6
CONTINUOUS
10
1.31335
20
0.810715
11
1.31234
21
0.808966
0
LINE
8
BLACK
6
CONTINUOUS
10
1.31234
20
0.808966
11
1.31044
21
0.808275
0
LINE
8
BLACK
6
CONTINUOUS
10
1.31044
20
0.808275
11
1.28794
21
0.808275
0
LINE
8
BLACK
6
CONTINUOUS
10
1.28794
20
0.808275
11
1.28693
21
0.808453
0
LINE
8
BLACK
6
CONTINUOUS
10
1.28693
20
0.808453
11
1.28538
21
0.809751
0
LINE
8
BLACK
6
CONTINUOUS
10
1.28538
20
0.809751
11
1.28503
21
0.81174
0
LINE
8
BLACK
6
CONTINUOUS
10
1.28503
20
0.81174
11
1.28604
21
0.81349
0
LINE
8
BLACK
6
CONTINUOUS
10
1.28604
20
0.81349
11
1.28794
21
0.81418
0
LINE
8
BLACK
6
CONTINUOUS
10
1.28794
20
0.81418
11
1.29624
21
0.81418
0
LINE
8
BLACK
6
CONTINUOUS
10
1.29624
20
0.81418
11
1.29624
21
0.850598
0
LINE
8
BLACK
6
CONTINUOUS
10
1.29624
20
0.850598
11
1.29641
21
0.851608
0
LINE
8
BLACK
6
CONTINUOUS
10
1.29641
20
0.851608
11
1.29652
21
0.851738
0
LINE
8
BLACK
6
CONTINUOUS
10
1.29652
20
0.851738
11
1.29654
21
0.851906
0
LINE
8
BLACK
6
CONTINUOUS
10
1.29654
20
0.851906
11
1.29716
21
0.852498
0
LINE
8
BLACK
6
CONTINUOUS
10
1.29716
20
0.852498
11
1.29771
21
0.853155
0
LINE
8
BLACK
6
CONTINUOUS
10
1.29771
20
0.853155
11
1.29788
21
0.853184
0
LINE
8
BLACK
6
CONTINUOUS
10
1.29788
20
0.853184
11
1.298
21
0.853302
0
LINE
8
BLACK
6
CONTINUOUS
10
1.298
20
0.853302
11
1.29886
21
0.853357
0
LINE
8
BLACK
6
CONTINUOUS
10
1.29886
20
0.853357
11
1.2997
21
0.853506
0
LINE
8
BLACK
6
CONTINUOUS
10
1.2997
20
0.853506
11
1.29985
21
0.853421
0
LINE
8
BLACK
6
CONTINUOUS
10
1.33755
20
0.853397
11
1.33762
21
0.853399
0
LINE
8
BLACK
6
CONTINUOUS
10
1.33762
20
0.853399
11
1.34324
21
0.851524
0
LINE
8
BLACK
6
CONTINUOUS
10
1.34324
20
0.851524
11
1.34414
21
0.851036
0
LINE
8
BLACK
6
CONTINUOUS
10
1.34414
20
0.851036
11
1.34424
21
0.850885
0
LINE
8
BLACK
6
CONTINUOUS
10
1.34424
20
0.850885
11
1.3444
21
0.850811
0
LINE
8
BLACK
6
CONTINUOUS
10
1.3444
20
0.850811
11
1.34815
21
0.847061
0
LINE
8
BLACK
6
CONTINUOUS
10
1.34815
20
0.847061
11
1.34865
21
0.846338
0
LINE
8
BLACK
6
CONTINUOUS
10
1.34865
20
0.846338
11
1.3487
21
0.846294
0
LINE
8
BLACK
6
CONTINUOUS
10
1.3487
20
0.846294
11
1.35057
21
0.842544
0
LINE
8
BLACK
6
CONTINUOUS
10
1.35057
20
0.842544
11
1.35072
21
0.842056
0
LINE
8
BLACK
6
CONTINUOUS
10
1.35072
20
0.842056
11
1.3508
21
0.84194
0
LINE
8
BLACK
6
CONTINUOUS
10
1.3508
20
0.84194
11
1.35267
21
0.834441
0
LINE
8
BLACK
6
CONTINUOUS
10
1.35267
20
0.834441
11
1.35271
21
0.833853
0
LINE
8
BLACK
6
CONTINUOUS
10
1.35271
20
0.833853
11
1.35276
21
0.833725
0
LINE
8
BLACK
6
CONTINUOUS
10
1.35276
20
0.833725
11
1.35276
21
0.828101
0
LINE
8
BLACK
6
CONTINUOUS
10
1.35276
20
0.828101
11
1.35266
21
0.82752
0
LINE
8
BLACK
6
CONTINUOUS
10
1.35266
20
0.82752
11
1.35267
21
0.827384
0
LINE
8
BLACK
6
CONTINUOUS
10
1.35267
20
0.827384
11
1.3508
21
0.819885
0
LINE
8
BLACK
6
CONTINUOUS
10
1.3508
20
0.819885
11
1.35059
21
0.81942
0
LINE
8
BLACK
6
CONTINUOUS
10
1.35059
20
0.81942
11
1.35057
21
0.819281
0
LINE
8
BLACK
6
CONTINUOUS
10
1.35057
20
0.819281
11
1.3487
21
0.815531
0
LINE
8
BLACK
6
CONTINUOUS
10
1.3487
20
0.815531
11
1.34817
21
0.814822
0
LINE
8
BLACK
6
CONTINUOUS
10
1.34817
20
0.814822
11
1.34815
21
0.814764
0
LINE
8
BLACK
6
CONTINUOUS
10
1.34815
20
0.814764
11
1.3444
21
0.811014
0
LINE
8
BLACK
6
CONTINUOUS
10
1.3444
20
0.811014
11
1.34356
21
0.810426
0
LINE
8
BLACK
6
CONTINUOUS
10
1.34356
20
0.810426
11
1.34338
21
0.810411
0
LINE
8
BLACK
6
CONTINUOUS
10
1.34338
20
0.810411
11
1.34324
21
0.810301
0
LINE
8
BLACK
6
CONTINUOUS
10
1.34324
20
0.810301
11
1.33762
21
0.808426
0
LINE
8
BLACK
6
CONTINUOUS
10
1.33762
20
0.808426
11
1.33675
21
0.808297
0
LINE
8
BLACK
6
CONTINUOUS
10
1.33675
20
0.808297
11
1.33668
21
0.808275
0
LINE
8
BLACK
6
CONTINUOUS
10
1.33668
20
0.808275
11
1.33293
21
0.808275
0
LINE
8
BLACK
6
CONTINUOUS
10
1.33293
20
0.808275
11
1.33207
21
0.808428
0
LINE
8
BLACK
6
CONTINUOUS
10
1.33207
20
0.808428
11
1.332
21
0.808426
0
LINE
8
BLACK
6
CONTINUOUS
10
1.332
20
0.808426
11
1.32638
21
0.810301
0
LINE
8
BLACK
6
CONTINUOUS
10
1.32638
20
0.810301
11
1.32548
21
0.810789
0
LINE
8
BLACK
6
CONTINUOUS
10
1.32548
20
0.810789
11
1.32538
21
0.81094
0
LINE
8
BLACK
6
CONTINUOUS
10
1.32538
20
0.81094
11
1.32522
21
0.811014
0
LINE
8
BLACK
6
CONTINUOUS
10
1.32522
20
0.811014
11
1.32335
21
0.812889
0
LINE
8
BLACK
6
CONTINUOUS
10
1.32335
20
0.812889
11
1.32276
21
0.813729
0
LINE
8
BLACK
6
CONTINUOUS
10
1.32276
20
0.813729
11
1.32258
21
0.815741
0
LINE
8
BLACK
6
CONTINUOUS
10
1.32258
20
0.815741
11
1.32374
21
0.817396
0
LINE
8
BLACK
6
CONTINUOUS
10
1.32374
20
0.817396
11
1.32569
21
0.817919
0
LINE
8
BLACK
6
CONTINUOUS
10
1.32569
20
0.817919
11
1.32752
21
0.817065
0
LINE
8
BLACK
6
CONTINUOUS
10
1.32752
20
0.817065
11
1.32891
21
0.815683
0
LINE
8
BLACK
6
CONTINUOUS
10
1.32891
20
0.815683
11
1.33341
21
0.81418
0
LINE
8
BLACK
6
CONTINUOUS
10
1.33341
20
0.81418
11
1.33621
21
0.81418
0
LINE
8
BLACK
6
CONTINUOUS
10
1.33621
20
0.81418
11
1.34071
21
0.815683
0
LINE
8
BLACK
6
CONTINUOUS
10
1.34071
20
0.815683
11
1.34363
21
0.818601
0
LINE
8
BLACK
6
CONTINUOUS
10
1.34363
20
0.818601
11
1.34515
21
0.821632
0
LINE
8
BLACK
6
CONTINUOUS
10
1.34515
20
0.821632
11
1.34686
21
0.828464
0
LINE
8
BLACK
6
CONTINUOUS
10
1.34686
20
0.828464
11
1.34686
21
0.833361
0
LINE
8
BLACK
6
CONTINUOUS
10
1.34686
20
0.833361
11
1.34515
21
0.840193
0
LINE
8
BLACK
6
CONTINUOUS
10
1.34515
20
0.840193
11
1.34363
21
0.843224
0
LINE
8
BLACK
6
CONTINUOUS
10
1.34363
20
0.843224
11
1.34071
21
0.846142
0
LINE
8
BLACK
6
CONTINUOUS
10
1.34071
20
0.846142
11
1.33621
21
0.847645
0
LINE
8
BLACK
6
CONTINUOUS
10
1.33621
20
0.847645
11
1.33341
21
0.847645
0
LINE
8
BLACK
6
CONTINUOUS
10
1.33341
20
0.847645
11
1.32891
21
0.846142
0
LINE
8
BLACK
6
CONTINUOUS
10
1.32891
20
0.846142
11
1.32752
21
0.84476
0
LINE
8
BLACK
6
CONTINUOUS
10
1.32752
20
0.84476
11
1.32668
21
0.844172
0
LINE
8
BLACK
6
CONTINUOUS
10
1.32668
20
0.844172
11
1.32467
21
0.843996
0
LINE
8
BLACK
6
CONTINUOUS
10
1.32467
20
0.843996
11
1.32302
21
0.845155
0
LINE
8
BLACK
6
CONTINUOUS
10
1.32302
20
0.845155
11
1.32249
21
0.847105
0
LINE
8
BLACK
6
CONTINUOUS
10
1.32249
20
0.847105
11
1.32335
21
0.848936
0
LINE
8
BLACK
6
CONTINUOUS
10
1.32335
20
0.848936
11
1.32522
21
0.850811
0
LINE
8
BLACK
6
CONTINUOUS
10
1.32522
20
0.850811
11
1.32606
21
0.851399
0
LINE
8
BLACK
6
CONTINUOUS
10
1.32606
20
0.851399
11
1.32624
21
0.851414
0
LINE
8
BLACK
6
CONTINUOUS
10
1.32624
20
0.851414
11
1.32638
21
0.851524
0
LINE
8
BLACK
6
CONTINUOUS
10
1.32638
20
0.851524
11
1.332
21
0.853399
0
LINE
8
BLACK
6
CONTINUOUS
10
1.332
20
0.853399
11
1.33287
21
0.853528
0
LINE
8
BLACK
6
CONTINUOUS
10
1.33287
20
0.853528
11
1.33293
21
0.85355
0
LINE
8
BLACK
6
CONTINUOUS
10
1.33293
20
0.85355
11
1.33668
21
0.85355
0
LINE
8
BLACK
6
CONTINUOUS
10
1.33668
20
0.85355
11
1.33755
21
0.853397
0
LINE
8
BLACK
6
CONTINUOUS
10
1.36894
20
0.852496
11
1.36963
21
0.850598
0
LINE
8
BLACK
6
CONTINUOUS
10
1.36963
20
0.850598
11
1.36963
21
0.811228
0
LINE
8
BLACK
6
CONTINUOUS
10
1.36963
20
0.811228
11
1.36946
21
0.810218
0
LINE
8
BLACK
6
CONTINUOUS
10
1.36946
20
0.810218
11
1.36816
21
0.80867
0
LINE
8
BLACK
6
CONTINUOUS
10
1.36816
20
0.80867
11
1.36617
21
0.80832
0
LINE
8
BLACK
6
CONTINUOUS
10
1.36617
20
0.80832
11
1.36442
21
0.80933
0
LINE
8
BLACK
6
CONTINUOUS
10
1.36442
20
0.80933
11
1.36373
21
0.811228
0
LINE
8
BLACK
6
CONTINUOUS
10
1.36373
20
0.811228
11
1.36373
21
0.850598
0
LINE
8
BLACK
6
CONTINUOUS
10
1.36373
20
0.850598
11
1.36391
21
0.851608
0
LINE
8
BLACK
6
CONTINUOUS
10
1.36391
20
0.851608
11
1.3652
21
0.853155
0
LINE
8
BLACK
6
CONTINUOUS
10
1.3652
20
0.853155
11
1.36719
21
0.853506
0
LINE
8
BLACK
6
CONTINUOUS
10
1.36719
20
0.853506
11
1.36894
21
0.852496
0
LINE
8
BLACK
6
CONTINUOUS
10
1.35856
20
0.984646
11
1.35995
21
0.984069
0
LINE
8
BLACK
6
CONTINUOUS
10
1.35995
20
0.984069
11
1.39933
21
0.944699
0
LINE
8
BLACK
6
CONTINUOUS
10
1.39933
20
0.944699
11
1.39961
21
0.944002
0
LINE
8
BLACK
6
CONTINUOUS
10
1.39961
20
0.944002
11
1.3999
21
0.943307
0
LINE
8
BLACK
6
CONTINUOUS
10
1.3999
20
0.943307
11
1.3999
21
0.675591
0
LINE
8
BLACK
6
CONTINUOUS
10
1.3999
20
0.675591
11
1.39932
21
0.674199
0
LINE
8
BLACK
6
CONTINUOUS
10
1.39932
20
0.674199
11
1.39793
21
0.673622
0
LINE
8
BLACK
6
CONTINUOUS
10
1.39793
20
0.673622
11
1.2247
21
0.673622
0
LINE
8
BLACK
6
CONTINUOUS
10
1.2247
20
0.673622
11
1.22331
21
0.674199
0
LINE
8
BLACK
6
CONTINUOUS
10
1.22331
20
0.674199
11
1.22274
21
0.675591
0
LINE
8
BLACK
6
CONTINUOUS
10
1.22274
20
0.675591
11
1.22274
21
0.675591
0
LINE
8
BLACK
6
CONTINUOUS
10
1.22274
20
0.675591
11
1.22274
21
0.982677
0
LINE
8
BLACK
6
CONTINUOUS
10
1.22274
20
0.982677
11
1.22331
21
0.984069
0
LINE
8
BLACK
6
CONTINUOUS
10
1.22331
20
0.984069
11
1.2247
21
0.984646
0
LINE
8
BLACK
6
CONTINUOUS
10
1.2247
20
0.984646
11
1.35856
21
0.984646
0
LINE
8
BLACK
6
CONTINUOUS
10
1.22667
20
0.980709
11
1.22667
21
0.677559
0
LINE
8
BLACK
6
CONTINUOUS
10
1.22667
20
0.677559
11
1.39596
21
0.677559
0
LINE
8
BLACK
6
CONTINUOUS
10
1.39596
20
0.677559
11
1.39596
21
0.942492
0
LINE
8
BLACK
6
CONTINUOUS
10
1.39596
20
0.942492
11
1.35775
21
0.980709
0
LINE
8
BLACK
6
CONTINUOUS
10
1.35775
20
0.980709
11
1.22667
21
0.980709
0
LINE
8
BLACK
6
CONTINUOUS
10
1.55558
20
0.724112
11
1.55637
21
0.723201
0
LINE
8
BLACK
6
CONTINUOUS
10
1.55637
20
0.723201
11
1.56106
21
0.70914
0
LINE
8
BLACK
6
CONTINUOUS
10
1.56106
20
0.70914
11
1.56104
21
0.708882
0
LINE
8
BLACK
6
CONTINUOUS
10
1.56104
20
0.708882
11
1.56114
21
0.708642
0
LINE
8
BLACK
6
CONTINUOUS
10
1.56114
20
0.708642
11
1.561
21
0.708304
0
LINE
8
BLACK
6
CONTINUOUS
10
1.561
20
0.708304
11
1.56097
21
0.707938
0
LINE
8
BLACK
6
CONTINUOUS
10
1.56097
20
0.707938
11
1.56077
21
0.707768
0
LINE
8
BLACK
6
CONTINUOUS
10
1.56077
20
0.707768
11
1.56067
21
0.707529
0
LINE
8
BLACK
6
CONTINUOUS
10
1.56067
20
0.707529
11
1.56034
21
0.707389
0
LINE
8
BLACK
6
CONTINUOUS
10
1.56034
20
0.707389
11
1.56006
21
0.707148
0
LINE
8
BLACK
6
CONTINUOUS
10
1.56006
20
0.707148
11
1.5598
21
0.707167
0
LINE
8
BLACK
6
CONTINUOUS
10
1.5598
20
0.707167
11
1.55956
21
0.707068
0
LINE
8
BLACK
6
CONTINUOUS
10
1.55956
20
0.707068
11
1.55176
21
0.707068
0
LINE
8
BLACK
6
CONTINUOUS
10
1.55176
20
0.707068
11
1.55176
21
0.702081
0
LINE
8
BLACK
6
CONTINUOUS
10
1.55176
20
0.702081
11
1.5513
21
0.700967
0
LINE
8
BLACK
6
CONTINUOUS
10
1.5513
20
0.700967
11
1.55019
21
0.700506
0
LINE
8
BLACK
6
CONTINUOUS
10
1.55019
20
0.700506
11
1.54907
21
0.700967
0
LINE
8
BLACK
6
CONTINUOUS
10
1.54907
20
0.700967
11
1.54861
21
0.702081
0
LINE
8
BLACK
6
CONTINUOUS
10
1.54861
20
0.702081
11
1.54861
21
0.707068
0
LINE
8
BLACK
6
CONTINUOUS
10
1.54861
20
0.707068
11
1.54738
21
0.707068
0
LINE
8
BLACK
6
CONTINUOUS
10
1.54738
20
0.707068
11
1.54626
21
0.707529
0
LINE
8
BLACK
6
CONTINUOUS
10
1.54626
20
0.707529
11
1.5458
21
0.708642
0
LINE
8
BLACK
6
CONTINUOUS
10
1.5458
20
0.708642
11
1.54626
21
0.709756
0
LINE
8
BLACK
6
CONTINUOUS
10
1.54626
20
0.709756
11
1.54738
21
0.710217
0
LINE
8
BLACK
6
CONTINUOUS
10
1.54738
20
0.710217
11
1.54861
21
0.710217
0
LINE
8
BLACK
6
CONTINUOUS
10
1.54861
20
0.710217
11
1.54861
21
0.715204
0
LINE
8
BLACK
6
CONTINUOUS
10
1.54861
20
0.715204
11
1.54907
21
0.716318
0
LINE
8
BLACK
6
CONTINUOUS
10
1.54907
20
0.716318
11
1.55019
21
0.716779
0
LINE
8
BLACK
6
CONTINUOUS
10
1.55019
20
0.716779
11
1.5513
21
0.716318
0
LINE
8
BLACK
6
CONTINUOUS
10
1.5513
20
0.716318
11
1.55176
21
0.715204
0
LINE
8
BLACK
6
CONTINUOUS
10
1.55176
20
0.715204
11
1.55176
21
0.710217
0
LINE
8
BLACK
6
CONTINUOUS
10
1.55176
20
0.710217
11
1.55738
21
0.710217
0
LINE
8
BLACK
6
CONTINUOUS
10
1.55738
20
0.710217
11
1.55338
21
0.722205
0
LINE
8
BLACK
6
CONTINUOUS
10
1.55338
20
0.722205
11
1.55347
21
0.723407
0
LINE
8
BLACK
6
CONTINUOUS
10
1.55347
20
0.723407
11
1.55438
21
0.724197
0
LINE
8
BLACK
6
CONTINUOUS
10
1.55438
20
0.724197
11
1.55558
21
0.724112
0
LINE
8
BLACK
6
CONTINUOUS
10
1.57292
20
0.723241
11
1.57318
21
0.72326
0
LINE
8
BLACK
6
CONTINUOUS
10
1.57318
20
0.72326
11
1.57599
21
0.722322
0
LINE
8
BLACK
6
CONTINUOUS
10
1.57599
20
0.722322
11
1.57627
21
0.722082
0
LINE
8
BLACK
6
CONTINUOUS
10
1.57627
20
0.722082
11
1.57661
21
0.721942
0
LINE
8
BLACK
6
CONTINUOUS
10
1.57661
20
0.721942
11
1.57849
21
0.720067
0
LINE
8
BLACK
6
CONTINUOUS
10
1.57849
20
0.720067
11
1.57858
21
0.719828
0
LINE
8
BLACK
6
CONTINUOUS
10
1.57858
20
0.719828
11
1.57878
21
0.719658
0
LINE
8
BLACK
6
CONTINUOUS
10
1.57878
20
0.719658
11
1.57972
21
0.717783
0
LINE
8
BLACK
6
CONTINUOUS
10
1.57972
20
0.717783
11
1.57973
21
0.717605
0
LINE
8
BLACK
6
CONTINUOUS
10
1.57973
20
0.717605
11
1.57984
21
0.717461
0
LINE
8
BLACK
6
CONTINUOUS
10
1.57984
20
0.717461
11
1.58077
21
0.713711
0
LINE
8
BLACK
6
CONTINUOUS
10
1.58077
20
0.713711
11
1.58074
21
0.713514
0
LINE
8
BLACK
6
CONTINUOUS
10
1.58074
20
0.713514
11
1.58082
21
0.713329
0
LINE
8
BLACK
6
CONTINUOUS
10
1.58082
20
0.713329
11
1.58082
21
0.710517
0
LINE
8
BLACK
6
CONTINUOUS
10
1.58082
20
0.710517
11
1.58074
21
0.710333
0
LINE
8
BLACK
6
CONTINUOUS
10
1.58074
20
0.710333
11
1.58077
21
0.710135
0
LINE
8
BLACK
6
CONTINUOUS
10
1.58077
20
0.710135
11
1.57984
21
0.706386
0
LINE
8
BLACK
6
CONTINUOUS
10
1.57984
20
0.706386
11
1.57973
21
0.706242
0
LINE
8
BLACK
6
CONTINUOUS
10
1.57973
20
0.706242
11
1.57972
21
0.706063
0
LINE
8
BLACK
6
CONTINUOUS
10
1.57972
20
0.706063
11
1.57878
21
0.704189
0
LINE
8
BLACK
6
CONTINUOUS
10
1.57878
20
0.704189
11
1.57858
21
0.704019
0
LINE
8
BLACK
6
CONTINUOUS
10
1.57858
20
0.704019
11
1.57849
21
0.703779
0
LINE
8
BLACK
6
CONTINUOUS
10
1.57849
20
0.703779
11
1.57661
21
0.701905
0
LINE
8
BLACK
6
CONTINUOUS
10
1.57661
20
0.701905
11
1.57627
21
0.701764
0
LINE
8
BLACK
6
CONTINUOUS
10
1.57627
20
0.701764
11
1.57599
21
0.701524
0
LINE
8
BLACK
6
CONTINUOUS
10
1.57599
20
0.701524
11
1.57318
21
0.700587
0
LINE
8
BLACK
6
CONTINUOUS
10
1.57318
20
0.700587
11
1.57292
21
0.700605
0
LINE
8
BLACK
6
CONTINUOUS
10
1.57292
20
0.700605
11
1.57268
21
0.700506
0
LINE
8
BLACK
6
CONTINUOUS
10
1.57268
20
0.700506
11
1.57081
21
0.700506
0
LINE
8
BLACK
6
CONTINUOUS
10
1.57081
20
0.700506
11
1.57057
21
0.700605
0
LINE
8
BLACK
6
CONTINUOUS
10
1.57057
20
0.700605
11
1.57031
21
0.700587
0
LINE
8
BLACK
6
CONTINUOUS
10
1.57031
20
0.700587
11
1.5675
21
0.701524
0
LINE
8
BLACK
6
CONTINUOUS
10
1.5675
20
0.701524
11
1.56722
21
0.701764
0
LINE
8
BLACK
6
CONTINUOUS
10
1.56722
20
0.701764
11
1.56688
21
0.701905
0
LINE
8
BLACK
6
CONTINUOUS
10
1.56688
20
0.701905
11
1.56595
21
0.702842
0
LINE
8
BLACK
6
CONTINUOUS
10
1.56595
20
0.702842
11
1.56549
21
0.703956
0
LINE
8
BLACK
6
CONTINUOUS
10
1.56549
20
0.703956
11
1.56595
21
0.705069
0
LINE
8
BLACK
6
CONTINUOUS
10
1.56595
20
0.705069
11
1.56706
21
0.70553
0
LINE
8
BLACK
6
CONTINUOUS
10
1.56706
20
0.70553
11
1.56817
21
0.705069
0
LINE
8
BLACK
6
CONTINUOUS
10
1.56817
20
0.705069
11
1.56885
21
0.704395
0
LINE
8
BLACK
6
CONTINUOUS
10
1.56885
20
0.704395
11
1.57107
21
0.703656
0
LINE
8
BLACK
6
CONTINUOUS
10
1.57107
20
0.703656
11
1.57243
21
0.703656
0
LINE
8
BLACK
6
CONTINUOUS
10
1.57243
20
0.703656
11
1.57465
21
0.704395
0
LINE
8
BLACK
6
CONTINUOUS
10
1.57465
20
0.704395
11
1.57608
21
0.705826
0
LINE
8
BLACK
6
CONTINUOUS
10
1.57608
20
0.705826
11
1.57682
21
0.707317
0
LINE
8
BLACK
6
CONTINUOUS
10
1.57682
20
0.707317
11
1.57767
21
0.710711
0
LINE
8
BLACK
6
CONTINUOUS
10
1.57767
20
0.710711
11
1.57767
21
0.713135
0
LINE
8
BLACK
6
CONTINUOUS
10
1.57767
20
0.713135
11
1.57682
21
0.716529
0
LINE
8
BLACK
6
CONTINUOUS
10
1.57682
20
0.716529
11
1.57608
21
0.718021
0
LINE
8
BLACK
6
CONTINUOUS
10
1.57608
20
0.718021
11
1.57465
21
0.719452
0
LINE
8
BLACK
6
CONTINUOUS
10
1.57465
20
0.719452
11
1.57243
21
0.720191
0
LINE
8
BLACK
6
CONTINUOUS
10
1.57243
20
0.720191
11
1.57107
21
0.720191
0
LINE
8
BLACK
6
CONTINUOUS
10
1.57107
20
0.720191
11
1.56885
21
0.719452
0
LINE
8
BLACK
6
CONTINUOUS
10
1.56885
20
0.719452
11
1.56817
21
0.718777
0
LINE
8
BLACK
6
CONTINUOUS
10
1.56817
20
0.718777
11
1.56706
21
0.718316
0
LINE
8
BLACK
6
CONTINUOUS
10
1.56706
20
0.718316
11
1.56595
21
0.718777
0
LINE
8
BLACK
6
CONTINUOUS
10
1.56595
20
0.718777
11
1.56549
21
0.719891
0
LINE
8
BLACK
6
CONTINUOUS
10
1.56549
20
0.719891
11
1.56595
21
0.721005
0
LINE
8
BLACK
6
CONTINUOUS
10
1.56595
20
0.721005
11
1.56688
21
0.721942
0
LINE
8
BLACK
6
CONTINUOUS
10
1.56688
20
0.721942
11
1.56722
21
0.722082
0
LINE
8
BLACK
6
CONTINUOUS
10
1.56722
20
0.722082
11
1.5675
21
0.722322
0
LINE
8
BLACK
6
CONTINUOUS
10
1.5675
20
0.722322
11
1.57031
21
0.72326
0
LINE
8
BLACK
6
CONTINUOUS
10
1.57031
20
0.72326
11
1.57057
21
0.723241
0
LINE
8
BLACK
6
CONTINUOUS
10
1.57057
20
0.723241
11
1.57081
21
0.723341
0
LINE
8
BLACK
6
CONTINUOUS
10
1.57081
20
0.723341
11
1.57268
21
0.723341
0
LINE
8
BLACK
6
CONTINUOUS
10
1.57268
20
0.723341
11
1.57292
21
0.723241
0
LINE
8
BLACK
6
CONTINUOUS
10
1.60315
20
0.737598
11
1.60454
21
0.737022
0
LINE
8
BLACK
6
CONTINUOUS
10
1.60454
20
0.737022
11
1.60512
21
0.73563
0
LINE
8
BLACK
6
CONTINUOUS
10
1.60512
20
0.73563
11
1.60512
21
0.686417
0
LINE
8
BLACK
6
CONTINUOUS
10
1.60512
20
0.686417
11
1.60454
21
0.685025
0
LINE
8
BLACK
6
CONTINUOUS
10
1.60454
20
0.685025
11
1.60315
21
0.684449
0
LINE
8
BLACK
6
CONTINUOUS
10
1.60315
20
0.684449
11
1.52441
21
0.684449
0
LINE
8
BLACK
6
CONTINUOUS
10
1.52441
20
0.684449
11
1.52302
21
0.685025
0
LINE
8
BLACK
6
CONTINUOUS
10
1.52302
20
0.685025
11
1.52244
21
0.686417
0
LINE
8
BLACK
6
CONTINUOUS
10
1.52244
20
0.686417
11
1.52244
21
0.73563
0
LINE
8
BLACK
6
CONTINUOUS
10
1.52244
20
0.73563
11
1.52302
21
0.737022
0
LINE
8
BLACK
6
CONTINUOUS
10
1.52302
20
0.737022
11
1.52441
21
0.737598
0
LINE
8
BLACK
6
CONTINUOUS
10
1.52441
20
0.737598
11
1.60315
21
0.737598
0
LINE
8
BLACK
6
CONTINUOUS
10
1.52638
20
0.733661
11
1.52638
21
0.688386
0
LINE
8
BLACK
6
CONTINUOUS
10
1.52638
20
0.688386
11
1.60118
21
0.688386
0
LINE
8
BLACK
6
CONTINUOUS
10
1.60118
20
0.688386
11
1.60118
21
0.733661
0
LINE
8
BLACK
6
CONTINUOUS
10
1.60118
20
0.733661
11
1.52638
21
0.733661
0
LINE
8
BLACK
6
CONTINUOUS
10
1.68427
20
0.770517
11
1.68473
21
0.769404
0
LINE
8
BLACK
6
CONTINUOUS
10
1.68473
20
0.769404
11
1.68473
21
0.758155
0
LINE
8
BLACK
6
CONTINUOUS
10
1.68473
20
0.758155
11
1.68427
21
0.757042
0
LINE
8
BLACK
6
CONTINUOUS
10
1.68427
20
0.757042
11
1.68316
21
0.75658
0
LINE
8
BLACK
6
CONTINUOUS
10
1.68316
20
0.75658
11
1.68204
21
0.757042
0
LINE
8
BLACK
6
CONTINUOUS
10
1.68204
20
0.757042
11
1.68158
21
0.758155
0
LINE
8
BLACK
6
CONTINUOUS
10
1.68158
20
0.758155
11
1.68158
21
0.762205
0
LINE
8
BLACK
6
CONTINUOUS
10
1.68158
20
0.762205
11
1.66347
21
0.762205
0
LINE
8
BLACK
6
CONTINUOUS
10
1.66347
20
0.762205
11
1.66332
21
0.762267
0
LINE
8
BLACK
6
CONTINUOUS
10
1.66332
20
0.762267
11
1.66316
21
0.762235
0
LINE
8
BLACK
6
CONTINUOUS
10
1.66316
20
0.762235
11
1.66278
21
0.762491
0
LINE
8
BLACK
6
CONTINUOUS
10
1.66278
20
0.762491
11
1.66236
21
0.762666
0
LINE
8
BLACK
6
CONTINUOUS
10
1.66236
20
0.762666
11
1.66229
21
0.762816
0
LINE
8
BLACK
6
CONTINUOUS
10
1.66229
20
0.762816
11
1.66216
21
0.762906
0
LINE
8
BLACK
6
CONTINUOUS
10
1.66216
20
0.762906
11
1.66207
21
0.763356
0
LINE
8
BLACK
6
CONTINUOUS
10
1.66207
20
0.763356
11
1.6619
21
0.76378
0
LINE
8
BLACK
6
CONTINUOUS
10
1.6619
20
0.76378
11
1.66196
21
0.763929
0
LINE
8
BLACK
6
CONTINUOUS
10
1.66196
20
0.763929
11
1.66193
21
0.764088
0
LINE
8
BLACK
6
CONTINUOUS
10
1.66193
20
0.764088
11
1.66218
21
0.764469
0
LINE
8
BLACK
6
CONTINUOUS
10
1.66218
20
0.764469
11
1.66236
21
0.764893
0
LINE
8
BLACK
6
CONTINUOUS
10
1.66236
20
0.764893
11
1.66251
21
0.764955
0
LINE
8
BLACK
6
CONTINUOUS
10
1.66251
20
0.764955
11
1.6626
21
0.76509
0
LINE
8
BLACK
6
CONTINUOUS
10
1.6626
20
0.76509
11
1.66528
21
0.766878
0
LINE
8
BLACK
6
CONTINUOUS
10
1.66528
20
0.766878
11
1.66686
21
0.768462
0
LINE
8
BLACK
6
CONTINUOUS
10
1.66686
20
0.768462
11
1.66769
21
0.770108
0
LINE
8
BLACK
6
CONTINUOUS
10
1.66769
20
0.770108
11
1.6686
21
0.770898
0
LINE
8
BLACK
6
CONTINUOUS
10
1.6686
20
0.770898
11
1.6698
21
0.770812
0
LINE
8
BLACK
6
CONTINUOUS
10
1.6698
20
0.770812
11
1.67059
21
0.769902
0
LINE
8
BLACK
6
CONTINUOUS
10
1.67059
20
0.769902
11
1.6705
21
0.7687
0
LINE
8
BLACK
6
CONTINUOUS
10
1.6705
20
0.7687
11
1.66957
21
0.766825
0
LINE
8
BLACK
6
CONTINUOUS
10
1.66957
20
0.766825
11
1.66937
21
0.766655
0
LINE
8
BLACK
6
CONTINUOUS
10
1.66937
20
0.766655
11
1.66927
21
0.766415
0
LINE
8
BLACK
6
CONTINUOUS
10
1.66927
20
0.766415
11
1.66821
21
0.765354
0
LINE
8
BLACK
6
CONTINUOUS
10
1.66821
20
0.765354
11
1.68158
21
0.765354
0
LINE
8
BLACK
6
CONTINUOUS
10
1.68158
20
0.765354
11
1.68158
21
0.769404
0
LINE
8
BLACK
6
CONTINUOUS
10
1.68158
20
0.769404
11
1.68204
21
0.770517
0
LINE
8
BLACK
6
CONTINUOUS
10
1.68204
20
0.770517
11
1.68316
21
0.770979
0
LINE
8
BLACK
6
CONTINUOUS
10
1.68316
20
0.770979
11
1.68427
21
0.770517
0
LINE
8
BLACK
6
CONTINUOUS
10
1.6749
20
0.790587
11
1.6751
21
0.790617
0
LINE
8
BLACK
6
CONTINUOUS
10
1.6751
20
0.790617
11
1.67885
21
0.789679
0
LINE
8
BLACK
6
CONTINUOUS
10
1.67885
20
0.789679
11
1.67899
21
0.789573
0
LINE
8
BLACK
6
CONTINUOUS
10
1.67899
20
0.789573
11
1.67917
21
0.78956
0
LINE
8
BLACK
6
CONTINUOUS
10
1.67917
20
0.78956
11
1.68105
21
0.788623
0
LINE
8
BLACK
6
CONTINUOUS
10
1.68105
20
0.788623
11
1.68122
21
0.788427
0
LINE
8
BLACK
6
CONTINUOUS
10
1.68122
20
0.788427
11
1.68146
21
0.788328
0
LINE
8
BLACK
6
CONTINUOUS
10
1.68146
20
0.788328
11
1.68333
21
0.786453
0
LINE
8
BLACK
6
CONTINUOUS
10
1.68333
20
0.786453
11
1.68347
21
0.786114
0
LINE
8
BLACK
6
CONTINUOUS
10
1.68347
20
0.786114
11
1.68371
21
0.785837
0
LINE
8
BLACK
6
CONTINUOUS
10
1.68371
20
0.785837
11
1.68465
21
0.783025
0
LINE
8
BLACK
6
CONTINUOUS
10
1.68465
20
0.783025
11
1.68463
21
0.782767
0
LINE
8
BLACK
6
CONTINUOUS
10
1.68463
20
0.782767
11
1.68473
21
0.782527
0
LINE
8
BLACK
6
CONTINUOUS
10
1.68473
20
0.782527
11
1.68473
21
0.780652
0
LINE
8
BLACK
6
CONTINUOUS
10
1.68473
20
0.780652
11
1.68463
21
0.780413
0
LINE
8
BLACK
6
CONTINUOUS
10
1.68463
20
0.780413
11
1.68465
21
0.780154
0
LINE
8
BLACK
6
CONTINUOUS
10
1.68465
20
0.780154
11
1.68371
21
0.777342
0
LINE
8
BLACK
6
CONTINUOUS
10
1.68371
20
0.777342
11
1.68347
21
0.777065
0
LINE
8
BLACK
6
CONTINUOUS
10
1.68347
20
0.777065
11
1.68333
21
0.776727
0
LINE
8
BLACK
6
CONTINUOUS
10
1.68333
20
0.776727
11
1.68239
21
0.775789
0
LINE
8
BLACK
6
CONTINUOUS
10
1.68239
20
0.775789
11
1.68128
21
0.775328
0
LINE
8
BLACK
6
CONTINUOUS
10
1.68128
20
0.775328
11
1.68017
21
0.775789
0
LINE
8
BLACK
6
CONTINUOUS
10
1.68017
20
0.775789
11
1.67971
21
0.776903
0
LINE
8
BLACK
6
CONTINUOUS
10
1.67971
20
0.776903
11
1.68017
21
0.778016
0
LINE
8
BLACK
6
CONTINUOUS
10
1.68017
20
0.778016
11
1.68084
21
0.778691
0
LINE
8
BLACK
6
CONTINUOUS
10
1.68084
20
0.778691
11
1.68158
21
0.780908
0
LINE
8
BLACK
6
CONTINUOUS
10
1.68158
20
0.780908
11
1.68158
21
0.782272
0
LINE
8
BLACK
6
CONTINUOUS
10
1.68158
20
0.782272
11
1.68084
21
0.784489
0
LINE
8
BLACK
6
CONTINUOUS
10
1.68084
20
0.784489
11
1.67941
21
0.78592
0
LINE
8
BLACK
6
CONTINUOUS
10
1.67941
20
0.78592
11
1.67792
21
0.786666
0
LINE
8
BLACK
6
CONTINUOUS
10
1.67792
20
0.786666
11
1.67453
21
0.787514
0
LINE
8
BLACK
6
CONTINUOUS
10
1.67453
20
0.787514
11
1.6721
21
0.787514
0
LINE
8
BLACK
6
CONTINUOUS
10
1.6721
20
0.787514
11
1.66871
21
0.786666
0
LINE
8
BLACK
6
CONTINUOUS
10
1.66871
20
0.786666
11
1.66722
21
0.78592
0
LINE
8
BLACK
6
CONTINUOUS
10
1.66722
20
0.78592
11
1.66578
21
0.784489
0
LINE
8
BLACK
6
CONTINUOUS
10
1.66578
20
0.784489
11
1.66505
21
0.782272
0
LINE
8
BLACK
6
CONTINUOUS
10
1.66505
20
0.782272
11
1.66505
21
0.780908
0
LINE
8
BLACK
6
CONTINUOUS
10
1.66505
20
0.780908
11
1.66578
21
0.778691
0
LINE
8
BLACK
6
CONTINUOUS
10
1.66578
20
0.778691
11
1.66646
21
0.778016
0
LINE
8
BLACK
6
CONTINUOUS
10
1.66646
20
0.778016
11
1.66692
21
0.776903
0
LINE
8
BLACK
6
CONTINUOUS
10
1.66692
20
0.776903
11
1.66646
21
0.775789
0
LINE
8
BLACK
6
CONTINUOUS
10
1.66646
20
0.775789
11
1.66535
21
0.775328
0
LINE
8
BLACK
6
CONTINUOUS
10
1.66535
20
0.775328
11
1.66423
21
0.775789
0
LINE
8
BLACK
6
CONTINUOUS
10
1.66423
20
0.775789
11
1.66329
21
0.776727
0
LINE
8
BLACK
6
CONTINUOUS
10
1.66329
20
0.776727
11
1.66315
21
0.777065
0
LINE
8
BLACK
6
CONTINUOUS
10
1.66315
20
0.777065
11
1.66291
21
0.777342
0
LINE
8
BLACK
6
CONTINUOUS
10
1.66291
20
0.777342
11
1.66198
21
0.780154
0
LINE
8
BLACK
6
CONTINUOUS
10
1.66198
20
0.780154
11
1.66199
21
0.780413
0
LINE
8
BLACK
6
CONTINUOUS
10
1.66199
20
0.780413
11
1.6619
21
0.780652
0
LINE
8
BLACK
6
CONTINUOUS
10
1.6619
20
0.780652
11
1.6619
21
0.782527
0
LINE
8
BLACK
6
CONTINUOUS
10
1.6619
20
0.782527
11
1.66199
21
0.782767
0
LINE
8
BLACK
6
CONTINUOUS
10
1.66199
20
0.782767
11
1.66198
21
0.783025
0
LINE
8
BLACK
6
CONTINUOUS
10
1.66198
20
0.783025
11
1.66291
21
0.785837
0
LINE
8
BLACK
6
CONTINUOUS
10
1.66291
20
0.785837
11
1.66315
21
0.786114
0
LINE
8
BLACK
6
CONTINUOUS
10
1.66315
20
0.786114
11
1.66329
21
0.786453
0
LINE
8
BLACK
6
CONTINUOUS
10
1.66329
20
0.786453
11
1.66517
21
0.788328
0
LINE
8
BLACK
6
CONTINUOUS
10
1.66517
20
0.788328
11
1.66541
21
0.788427
0
LINE
8
BLACK
6
CONTINUOUS
10
1.66541
20
0.788427
11
1.66558
21
0.788623
0
LINE
8
BLACK
6
CONTINUOUS
10
1.66558
20
0.788623
11
1.66745
21
0.78956
0
LINE
8
BLACK
6
CONTINUOUS
10
1.66745
20
0.78956
11
1.66763
21
0.789573
0
LINE
8
BLACK
6
CONTINUOUS
10
1.66763
20
0.789573
11
1.66778
21
0.789679
0
LINE
8
BLACK
6
CONTINUOUS
10
1.66778
20
0.789679
11
1.67152
21
0.790617
0
LINE
8
BLACK
6
CONTINUOUS
10
1.67152
20
0.790617
11
1.67172
21
0.790587
0
LINE
8
BLACK
6
CONTINUOUS
10
1.67172
20
0.790587
11
1.67191
21
0.790664
0
LINE
8
BLACK
6
CONTINUOUS
10
1.67191
20
0.790664
11
1.67472
21
0.790664
0
LINE
8
BLACK
6
CONTINUOUS
10
1.67472
20
0.790664
11
1.6749
21
0.790587
0
LINE
8
BLACK
6
CONTINUOUS
10
1.69882
20
0.814961
11
1.70021
21
0.814384
0
LINE
8
BLACK
6
CONTINUOUS
10
1.70021
20
0.814384
11
1.70079
21
0.812992
0
LINE
8
BLACK
6
CONTINUOUS
10
1.70079
20
0.812992
11
1.70079
21
0.734252
0
LINE
8
BLACK
6
CONTINUOUS
10
1.70079
20
0.734252
11
1.70021
21
0.73286
0
LINE
8
BLACK
6
CONTINUOUS
10
1.70021
20
0.73286
11
1.69882
21
0.732283
0
LINE
8
BLACK
6
CONTINUOUS
10
1.69882
20
0.732283
11
1.64961
21
0.732283
0
LINE
8
BLACK
6
CONTINUOUS
10
1.64961
20
0.732283
11
1.64821
21
0.73286
0
LINE
8
BLACK
6
CONTINUOUS
10
1.64821
20
0.73286
11
1.64764
21
0.734252
0
LINE
8
BLACK
6
CONTINUOUS
10
1.64764
20
0.734252
11
1.64764
21
0.812992
0
LINE
8
BLACK
6
CONTINUOUS
10
1.64764
20
0.812992
11
1.64821
21
0.814384
0
LINE
8
BLACK
6
CONTINUOUS
10
1.64821
20
0.814384
11
1.64961
21
0.814961
0
LINE
8
BLACK
6
CONTINUOUS
10
1.64961
20
0.814961
11
1.69882
21
0.814961
0
LINE
8
BLACK
6
CONTINUOUS
10
1.65157
20
0.811024
11
1.65157
21
0.73622
0
LINE
8
BLACK
6
CONTINUOUS
10
1.65157
20
0.73622
11
1.69685
21
0.73622
0
LINE
8
BLACK
6
CONTINUOUS
10
1.69685
20
0.73622
11
1.69685
21
0.811024
0
LINE
8
BLACK
6
CONTINUOUS
10
1.69685
20
0.811024
11
1.65157
21
0.811024
0
LINE
8
BLACK
6
CONTINUOUS
10
1.55911
20
0.813689
11
1.55962
21
0.813536
0
LINE
8
BLACK
6
CONTINUOUS
10
1.55962
20
0.813536
11
1.55966
21
0.813462
0
LINE
8
BLACK
6
CONTINUOUS
10
1.55966
20
0.813462
11
1.55974
21
0.813431
0
LINE
8
BLACK
6
CONTINUOUS
10
1.55974
20
0.813431
11
1.55994
21
0.812941
0
LINE
8
BLACK
6
CONTINUOUS
10
1.55994
20
0.812941
11
1.56019
21
0.812474
0
LINE
8
BLACK
6
CONTINUOUS
10
1.56019
20
0.812474
11
1.56113
21
0.8031
0
LINE
8
BLACK
6
CONTINUOUS
10
1.56113
20
0.8031
11
1.5611
21
0.80302
0
LINE
8
BLACK
6
CONTINUOUS
10
1.5611
20
0.80302
11
1.56114
21
0.802943
0
LINE
8
BLACK
6
CONTINUOUS
10
1.56114
20
0.802943
11
1.56093
21
0.802453
0
LINE
8
BLACK
6
CONTINUOUS
10
1.56093
20
0.802453
11
1.56078
21
0.801946
0
LINE
8
BLACK
6
CONTINUOUS
10
1.56078
20
0.801946
11
1.56071
21
0.801907
0
LINE
8
BLACK
6
CONTINUOUS
10
1.56071
20
0.801907
11
1.56067
21
0.80183
0
LINE
8
BLACK
6
CONTINUOUS
10
1.56067
20
0.80183
11
1.56018
21
0.801627
0
LINE
8
BLACK
6
CONTINUOUS
10
1.56018
20
0.801627
11
1.55972
21
0.801376
0
LINE
8
BLACK
6
CONTINUOUS
10
1.55972
20
0.801376
11
1.55964
21
0.8014
0
LINE
8
BLACK
6
CONTINUOUS
10
1.55964
20
0.8014
11
1.55956
21
0.801368
0
LINE
8
BLACK
6
CONTINUOUS
10
1.55956
20
0.801368
11
1.55907
21
0.801571
0
LINE
8
BLACK
6
CONTINUOUS
10
1.55907
20
0.801571
11
1.55856
21
0.801724
0
LINE
8
BLACK
6
CONTINUOUS
10
1.55856
20
0.801724
11
1.55852
21
0.801798
0
LINE
8
BLACK
6
CONTINUOUS
10
1.55852
20
0.801798
11
1.55845
21
0.80183
0
LINE
8
BLACK
6
CONTINUOUS
10
1.55845
20
0.80183
11
1.55769
21
0.802586
0
LINE
8
BLACK
6
CONTINUOUS
10
1.55769
20
0.802586
11
1.55638
21
0.803243
0
LINE
8
BLACK
6
CONTINUOUS
10
1.55638
20
0.803243
11
1.55243
21
0.803243
0
LINE
8
BLACK
6
CONTINUOUS
10
1.55243
20
0.803243
11
1.55112
21
0.802586
0
LINE
8
BLACK
6
CONTINUOUS
10
1.55112
20
0.802586
11
1.55054
21
0.80201
0
LINE
8
BLACK
6
CONTINUOUS
10
1.55054
20
0.80201
11
1.54989
21
0.800697
0
LINE
8
BLACK
6
CONTINUOUS
10
1.54989
20
0.800697
11
1.54989
21
0.796753
0
LINE
8
BLACK
6
CONTINUOUS
10
1.54989
20
0.796753
11
1.55054
21
0.79544
0
LINE
8
BLACK
6
CONTINUOUS
10
1.55054
20
0.79544
11
1.55112
21
0.794864
0
LINE
8
BLACK
6
CONTINUOUS
10
1.55112
20
0.794864
11
1.55243
21
0.794207
0
LINE
8
BLACK
6
CONTINUOUS
10
1.55243
20
0.794207
11
1.55638
21
0.794207
0
LINE
8
BLACK
6
CONTINUOUS
10
1.55638
20
0.794207
11
1.55769
21
0.794864
0
LINE
8
BLACK
6
CONTINUOUS
10
1.55769
20
0.794864
11
1.55845
21
0.79562
0
LINE
8
BLACK
6
CONTINUOUS
10
1.55845
20
0.79562
11
1.55956
21
0.796081
0
LINE
8
BLACK
6
CONTINUOUS
10
1.55956
20
0.796081
11
1.56067
21
0.79562
0
LINE
8
BLACK
6
CONTINUOUS
10
1.56067
20
0.79562
11
1.56114
21
0.794507
0
LINE
8
BLACK
6
CONTINUOUS
10
1.56114
20
0.794507
11
1.56067
21
0.793393
0
LINE
8
BLACK
6
CONTINUOUS
10
1.56067
20
0.793393
11
1.55974
21
0.792456
0
LINE
8
BLACK
6
CONTINUOUS
10
1.55974
20
0.792456
11
1.5595
21
0.792357
0
LINE
8
BLACK
6
CONTINUOUS
10
1.5595
20
0.792357
11
1.55933
21
0.792161
0
LINE
8
BLACK
6
CONTINUOUS
10
1.55933
20
0.792161
11
1.55745
21
0.791223
0
LINE
8
BLACK
6
CONTINUOUS
10
1.55745
20
0.791223
11
1.55709
21
0.791197
0
LINE
8
BLACK
6
CONTINUOUS
10
1.55709
20
0.791197
11
1.55675
21
0.791057
0
LINE
8
BLACK
6
CONTINUOUS
10
1.55675
20
0.791057
11
1.55206
21
0.791057
0
LINE
8
BLACK
6
CONTINUOUS
10
1.55206
20
0.791057
11
1.55172
21
0.791197
0
LINE
8
BLACK
6
CONTINUOUS
10
1.55172
20
0.791197
11
1.55136
21
0.791223
0
LINE
8
BLACK
6
CONTINUOUS
10
1.55136
20
0.791223
11
1.54948
21
0.792161
0
LINE
8
BLACK
6
CONTINUOUS
10
1.54948
20
0.792161
11
1.54931
21
0.792357
0
LINE
8
BLACK
6
CONTINUOUS
10
1.54931
20
0.792357
11
1.54907
21
0.792456
0
LINE
8
BLACK
6
CONTINUOUS
10
1.54907
20
0.792456
11
1.54814
21
0.793393
0
LINE
8
BLACK
6
CONTINUOUS
10
1.54814
20
0.793393
11
1.54804
21
0.793633
0
LINE
8
BLACK
6
CONTINUOUS
10
1.54804
20
0.793633
11
1.54784
21
0.793802
0
LINE
8
BLACK
6
CONTINUOUS
10
1.54784
20
0.793802
11
1.5469
21
0.795677
0
LINE
8
BLACK
6
CONTINUOUS
10
1.5469
20
0.795677
11
1.54688
21
0.796043
0
LINE
8
BLACK
6
CONTINUOUS
10
1.54688
20
0.796043
11
1.54674
21
0.796381
0
LINE
8
BLACK
6
CONTINUOUS
10
1.54674
20
0.796381
11
1.54674
21
0.801068
0
LINE
8
BLACK
6
CONTINUOUS
10
1.54674
20
0.801068
11
1.54688
21
0.801407
0
LINE
8
BLACK
6
CONTINUOUS
10
1.54688
20
0.801407
11
1.5469
21
0.801773
0
LINE
8
BLACK
6
CONTINUOUS
10
1.5469
20
0.801773
11
1.54784
21
0.803647
0
LINE
8
BLACK
6
CONTINUOUS
10
1.54784
20
0.803647
11
1.54804
21
0.803817
0
LINE
8
BLACK
6
CONTINUOUS
10
1.54804
20
0.803817
11
1.54814
21
0.804057
0
LINE
8
BLACK
6
CONTINUOUS
10
1.54814
20
0.804057
11
1.54907
21
0.804994
0
LINE
8
BLACK
6
CONTINUOUS
10
1.54907
20
0.804994
11
1.54931
21
0.805093
0
LINE
8
BLACK
6
CONTINUOUS
10
1.54931
20
0.805093
11
1.54948
21
0.805289
0
LINE
8
BLACK
6
CONTINUOUS
10
1.54948
20
0.805289
11
1.55136
21
0.806226
0
LINE
8
BLACK
6
CONTINUOUS
10
1.55136
20
0.806226
11
1.55172
21
0.806252
0
LINE
8
BLACK
6
CONTINUOUS
10
1.55172
20
0.806252
11
1.55206
21
0.806393
0
LINE
8
BLACK
6
CONTINUOUS
10
1.55206
20
0.806393
11
1.55675
21
0.806393
0
LINE
8
BLACK
6
CONTINUOUS
10
1.55675
20
0.806393
11
1.55709
21
0.806252
0
LINE
8
BLACK
6
CONTINUOUS
10
1.55709
20
0.806252
11
1.55745
21
0.806226
0
LINE
8
BLACK
6
CONTINUOUS
10
1.55745
20
0.806226
11
1.55766
21
0.806123
0
LINE
8
BLACK
6
CONTINUOUS
10
1.55766
20
0.806123
11
1.5572
21
0.810742
0
LINE
8
BLACK
6
CONTINUOUS
10
1.5572
20
0.810742
11
1.54925
21
0.810742
0
LINE
8
BLACK
6
CONTINUOUS
10
1.54925
20
0.810742
11
1.54814
21
0.811203
0
LINE
8
BLACK
6
CONTINUOUS
10
1.54814
20
0.811203
11
1.54768
21
0.812317
0
LINE
8
BLACK
6
CONTINUOUS
10
1.54768
20
0.812317
11
1.54814
21
0.813431
0
LINE
8
BLACK
6
CONTINUOUS
10
1.54814
20
0.813431
11
1.54925
21
0.813892
0
LINE
8
BLACK
6
CONTINUOUS
10
1.54925
20
0.813892
11
1.55862
21
0.813892
0
LINE
8
BLACK
6
CONTINUOUS
10
1.55862
20
0.813892
11
1.55911
21
0.813689
0
LINE
8
BLACK
6
CONTINUOUS
10
1.57292
20
0.813793
11
1.57318
21
0.813811
0
LINE
8
BLACK
6
CONTINUOUS
10
1.57318
20
0.813811
11
1.57599
21
0.812874
0
LINE
8
BLACK
6
CONTINUOUS
10
1.57599
20
0.812874
11
1.57627
21
0.812633
0
LINE
8
BLACK
6
CONTINUOUS
10
1.57627
20
0.812633
11
1.57661
21
0.812493
0
LINE
8
BLACK
6
CONTINUOUS
10
1.57661
20
0.812493
11
1.57849
21
0.810618
0
LINE
8
BLACK
6
CONTINUOUS
10
1.57849
20
0.810618
11
1.57858
21
0.810379
0
LINE
8
BLACK
6
CONTINUOUS
10
1.57858
20
0.810379
11
1.57878
21
0.810209
0
LINE
8
BLACK
6
CONTINUOUS
10
1.57878
20
0.810209
11
1.57972
21
0.808334
0
LINE
8
BLACK
6
CONTINUOUS
10
1.57972
20
0.808334
11
1.57973
21
0.808156
0
LINE
8
BLACK
6
CONTINUOUS
10
1.57973
20
0.808156
11
1.57984
21
0.808012
0
LINE
8
BLACK
6
CONTINUOUS
10
1.57984
20
0.808012
11
1.58077
21
0.804262
0
LINE
8
BLACK
6
CONTINUOUS
10
1.58077
20
0.804262
11
1.58074
21
0.804065
0
LINE
8
BLACK
6
CONTINUOUS
10
1.58074
20
0.804065
11
1.58082
21
0.803881
0
LINE
8
BLACK
6
CONTINUOUS
10
1.58082
20
0.803881
11
1.58082
21
0.801068
0
LINE
8
BLACK
6
CONTINUOUS
10
1.58082
20
0.801068
11
1.58074
21
0.800884
0
LINE
8
BLACK
6
CONTINUOUS
10
1.58074
20
0.800884
11
1.58077
21
0.800686
0
LINE
8
BLACK
6
CONTINUOUS
10
1.58077
20
0.800686
11
1.57984
21
0.796937
0
LINE
8
BLACK
6
CONTINUOUS
10
1.57984
20
0.796937
11
1.57973
21
0.796793
0
LINE
8
BLACK
6
CONTINUOUS
10
1.57973
20
0.796793
11
1.57972
21
0.796615
0
LINE
8
BLACK
6
CONTINUOUS
10
1.57972
20
0.796615
11
1.57878
21
0.79474
0
LINE
8
BLACK
6
CONTINUOUS
10
1.57878
20
0.79474
11
1.57858
21
0.79457
0
LINE
8
BLACK
6
CONTINUOUS
10
1.57858
20
0.79457
11
1.57849
21
0.794331
0
LINE
8
BLACK
6
CONTINUOUS
10
1.57849
20
0.794331
11
1.57661
21
0.792456
0
LINE
8
BLACK
6
CONTINUOUS
10
1.57661
20
0.792456
11
1.57627
21
0.792315
0
LINE
8
BLACK
6
CONTINUOUS
10
1.57627
20
0.792315
11
1.57599
21
0.792075
0
LINE
8
BLACK
6
CONTINUOUS
10
1.57599
20
0.792075
11
1.57318
21
0.791138
0
LINE
8
BLACK
6
CONTINUOUS
10
1.57318
20
0.791138
11
1.57292
21
0.791156
0
LINE
8
BLACK
6
CONTINUOUS
10
1.57292
20
0.791156
11
1.57268
21
0.791057
0
LINE
8
BLACK
6
CONTINUOUS
10
1.57268
20
0.791057
11
1.57081
21
0.791057
0
LINE
8
BLACK
6
CONTINUOUS
10
1.57081
20
0.791057
11
1.57057
21
0.791156
0
LINE
8
BLACK
6
CONTINUOUS
10
1.57057
20
0.791156
11
1.57031
21
0.791138
0
LINE
8
BLACK
6
CONTINUOUS
10
1.57031
20
0.791138
11
1.5675
21
0.792075
0
LINE
8
BLACK
6
CONTINUOUS
10
1.5675
20
0.792075
11
1.56722
21
0.792315
0
LINE
8
BLACK
6
CONTINUOUS
10
1.56722
20
0.792315
11
1.56688
21
0.792456
0
LINE
8
BLACK
6
CONTINUOUS
10
1.56688
20
0.792456
11
1.56595
21
0.793393
0
LINE
8
BLACK
6
CONTINUOUS
10
1.56595
20
0.793393
11
1.56549
21
0.794507
0
LINE
8
BLACK
6
CONTINUOUS
10
1.56549
20
0.794507
11
1.56595
21
0.79562
0
LINE
8
BLACK
6
CONTINUOUS
10
1.56595
20
0.79562
11
1.56706
21
0.796081
0
LINE
8
BLACK
6
CONTINUOUS
10
1.56706
20
0.796081
11
1.56817
21
0.79562
0
LINE
8
BLACK
6
CONTINUOUS
10
1.56817
20
0.79562
11
1.56885
21
0.794946
0
LINE
8
BLACK
6
CONTINUOUS
10
1.56885
20
0.794946
11
1.57107
21
0.794207
0
LINE
8
BLACK
6
CONTINUOUS
10
1.57107
20
0.794207
11
1.57243
21
0.794207
0
LINE
8
BLACK
6
CONTINUOUS
10
1.57243
20
0.794207
11
1.57465
21
0.794946
0
LINE
8
BLACK
6
CONTINUOUS
10
1.57465
20
0.794946
11
1.57608
21
0.796377
0
LINE
8
BLACK
6
CONTINUOUS
10
1.57608
20
0.796377
11
1.57682
21
0.797869
0
LINE
8
BLACK
6
CONTINUOUS
10
1.57682
20
0.797869
11
1.57767
21
0.801262
0
LINE
8
BLACK
6
CONTINUOUS
10
1.57767
20
0.801262
11
1.57767
21
0.803687
0
LINE
8
BLACK
6
CONTINUOUS
10
1.57767
20
0.803687
11
1.57682
21
0.80708
0
LINE
8
BLACK
6
CONTINUOUS
10
1.57682
20
0.80708
11
1.57608
21
0.808572
0
LINE
8
BLACK
6
CONTINUOUS
10
1.57608
20
0.808572
11
1.57465
21
0.810003
0
LINE
8
BLACK
6
CONTINUOUS
10
1.57465
20
0.810003
11
1.57243
21
0.810742
0
LINE
8
BLACK
6
CONTINUOUS
10
1.57243
20
0.810742
11
1.57107
21
0.810742
0
LINE
8
BLACK
6
CONTINUOUS
10
1.57107
20
0.810742
11
1.56885
21
0.810003
0
LINE
8
BLACK
6
CONTINUOUS
10
1.56885
20
0.810003
11
1.56817
21
0.809329
0
LINE
8
BLACK
6
CONTINUOUS
10
1.56817
20
0.809329
11
1.56706
21
0.808867
0
LINE
8
BLACK
6
CONTINUOUS
10
1.56706
20
0.808867
11
1.56595
21
0.809329
0
LINE
8
BLACK
6
CONTINUOUS
10
1.56595
20
0.809329
11
1.56549
21
0.810442
0
LINE
8
BLACK
6
CONTINUOUS
10
1.56549
20
0.810442
11
1.56595
21
0.811556
0
LINE
8
BLACK
6
CONTINUOUS
10
1.56595
20
0.811556
11
1.56688
21
0.812493
0
LINE
8
BLACK
6
CONTINUOUS
10
1.56688
20
0.812493
11
1.56722
21
0.812633
0
LINE
8
BLACK
6
CONTINUOUS
10
1.56722
20
0.812633
11
1.5675
21
0.812874
0
LINE
8
BLACK
6
CONTINUOUS
10
1.5675
20
0.812874
11
1.57031
21
0.813811
0
LINE
8
BLACK
6
CONTINUOUS
10
1.57031
20
0.813811
11
1.57057
21
0.813793
0
LINE
8
BLACK
6
CONTINUOUS
10
1.57057
20
0.813793
11
1.57081
21
0.813892
0
LINE
8
BLACK
6
CONTINUOUS
10
1.57081
20
0.813892
11
1.57268
21
0.813892
0
LINE
8
BLACK
6
CONTINUOUS
10
1.57268
20
0.813892
11
1.57292
21
0.813793
0
LINE
8
BLACK
6
CONTINUOUS
10
1.60315
20
0.82815
11
1.60454
21
0.827573
0
LINE
8
BLACK
6
CONTINUOUS
10
1.60454
20
0.827573
11
1.60512
21
0.826181
0
LINE
8
BLACK
6
CONTINUOUS
10
1.60512
20
0.826181
11
1.60512
21
0.776969
0
LINE
8
BLACK
6
CONTINUOUS
10
1.60512
20
0.776969
11
1.60454
21
0.775577
0
LINE
8
BLACK
6
CONTINUOUS
10
1.60454
20
0.775577
11
1.60315
21
0.775
0
LINE
8
BLACK
6
CONTINUOUS
10
1.60315
20
0.775
11
1.52441
21
0.775
0
LINE
8
BLACK
6
CONTINUOUS
10
1.52441
20
0.775
11
1.52302
21
0.775577
0
LINE
8
BLACK
6
CONTINUOUS
10
1.52302
20
0.775577
11
1.52244
21
0.776969
0
LINE
8
BLACK
6
CONTINUOUS
10
1.52244
20
0.776969
11
1.52244
21
0.776969
0
LINE
8
BLACK
6
CONTINUOUS
10
1.52244
20
0.776969
11
1.52244
21
0.826181
0
LINE
8
BLACK
6
CONTINUOUS
10
1.52244
20
0.826181
11
1.52302
21
0.827573
0
LINE
8
BLACK
6
CONTINUOUS
10
1.52302
20
0.827573
11
1.52441
21
0.82815
0
LINE
8
BLACK
6
CONTINUOUS
10
1.52441
20
0.82815
11
1.60315
21
0.82815
0
LINE
8
BLACK
6
CONTINUOUS
10
1.52638
20
0.824213
11
1.52638
21
0.778937
0
LINE
8
BLACK
6
CONTINUOUS
10
1.52638
20
0.778937
11
1.60118
21
0.778937
0
LINE
8
BLACK
6
CONTINUOUS
10
1.60118
20
0.778937
11
1.60118
21
0.824213
0
LINE
8
BLACK
6
CONTINUOUS
10
1.60118
20
0.824213
11
1.52638
21
0.824213
0
LINE
8
BLACK
6
CONTINUOUS
10
1.96714
20
0.872218
11
1.9674
21
0.872236
0
LINE
8
BLACK
6
CONTINUOUS
10
1.9674
20
0.872236
11
1.97022
21
0.871299
0
LINE
8
BLACK
6
CONTINUOUS
10
1.97022
20
0.871299
11
1.97049
21
0.871059
0
LINE
8
BLACK
6
CONTINUOUS
10
1.97049
20
0.871059
11
1.97083
21
0.870918
0
LINE
8
BLACK
6
CONTINUOUS
10
1.97083
20
0.870918
11
1.97271
21
0.869044
0
LINE
8
BLACK
6
CONTINUOUS
10
1.97271
20
0.869044
11
1.9728
21
0.868804
0
LINE
8
BLACK
6
CONTINUOUS
10
1.9728
20
0.868804
11
1.973
21
0.868634
0
LINE
8
BLACK
6
CONTINUOUS
10
1.973
20
0.868634
11
1.97394
21
0.86676
0
LINE
8
BLACK
6
CONTINUOUS
10
1.97394
20
0.86676
11
1.97395
21
0.866581
0
LINE
8
BLACK
6
CONTINUOUS
10
1.97395
20
0.866581
11
1.97406
21
0.866437
0
LINE
8
BLACK
6
CONTINUOUS
10
1.97406
20
0.866437
11
1.97499
21
0.862688
0
LINE
8
BLACK
6
CONTINUOUS
10
1.97499
20
0.862688
11
1.97497
21
0.86249
0
LINE
8
BLACK
6
CONTINUOUS
10
1.97497
20
0.86249
11
1.97504
21
0.862306
0
LINE
8
BLACK
6
CONTINUOUS
10
1.97504
20
0.862306
11
1.97504
21
0.859494
0
LINE
8
BLACK
6
CONTINUOUS
10
1.97504
20
0.859494
11
1.97497
21
0.859309
0
LINE
8
BLACK
6
CONTINUOUS
10
1.97497
20
0.859309
11
1.97499
21
0.859112
0
LINE
8
BLACK
6
CONTINUOUS
10
1.97499
20
0.859112
11
1.97406
21
0.855362
0
LINE
8
BLACK
6
CONTINUOUS
10
1.97406
20
0.855362
11
1.97395
21
0.855218
0
LINE
8
BLACK
6
CONTINUOUS
10
1.97395
20
0.855218
11
1.97394
21
0.85504
0
LINE
8
BLACK
6
CONTINUOUS
10
1.97394
20
0.85504
11
1.973
21
0.853165
0
LINE
8
BLACK
6
CONTINUOUS
10
1.973
20
0.853165
11
1.9728
21
0.852995
0
LINE
8
BLACK
6
CONTINUOUS
10
1.9728
20
0.852995
11
1.97271
21
0.852756
0
LINE
8
BLACK
6
CONTINUOUS
10
1.97271
20
0.852756
11
1.97083
21
0.850881
0
LINE
8
BLACK
6
CONTINUOUS
10
1.97083
20
0.850881
11
1.97049
21
0.850741
0
LINE
8
BLACK
6
CONTINUOUS
10
1.97049
20
0.850741
11
1.97022
21
0.850501
0
LINE
8
BLACK
6
CONTINUOUS
10
1.97022
20
0.850501
11
1.9674
21
0.849563
0
LINE
8
BLACK
6
CONTINUOUS
10
1.9674
20
0.849563
11
1.96714
21
0.849582
0
LINE
8
BLACK
6
CONTINUOUS
10
1.96714
20
0.849582
11
1.96691
21
0.849482
0
LINE
8
BLACK
6
CONTINUOUS
10
1.96691
20
0.849482
11
1.96503
21
0.849482
0
LINE
8
BLACK
6
CONTINUOUS
10
1.96503
20
0.849482
11
1.96479
21
0.849581
0
LINE
8
BLACK
6
CONTINUOUS
10
1.96479
20
0.849581
11
1.96453
21
0.849563
0
LINE
8
BLACK
6
CONTINUOUS
10
1.96453
20
0.849563
11
1.96172
21
0.850501
0
LINE
8
BLACK
6
CONTINUOUS
10
1.96172
20
0.850501
11
1.96144
21
0.850741
0
LINE
8
BLACK
6
CONTINUOUS
10
1.96144
20
0.850741
11
1.9611
21
0.850881
0
LINE
8
BLACK
6
CONTINUOUS
10
1.9611
20
0.850881
11
1.96017
21
0.851818
0
LINE
8
BLACK
6
CONTINUOUS
10
1.96017
20
0.851818
11
1.95971
21
0.852932
0
LINE
8
BLACK
6
CONTINUOUS
10
1.95971
20
0.852932
11
1.96017
21
0.854045
0
LINE
8
BLACK
6
CONTINUOUS
10
1.96017
20
0.854045
11
1.96128
21
0.854507
0
LINE
8
BLACK
6
CONTINUOUS
10
1.96128
20
0.854507
11
1.96239
21
0.854045
0
LINE
8
BLACK
6
CONTINUOUS
10
1.96239
20
0.854045
11
1.96307
21
0.853371
0
LINE
8
BLACK
6
CONTINUOUS
10
1.96307
20
0.853371
11
1.96529
21
0.852632
0
LINE
8
BLACK
6
CONTINUOUS
10
1.96529
20
0.852632
11
1.96665
21
0.852632
0
LINE
8
BLACK
6
CONTINUOUS
10
1.96665
20
0.852632
11
1.96887
21
0.853371
0
LINE
8
BLACK
6
CONTINUOUS
10
1.96887
20
0.853371
11
1.9703
21
0.854802
0
LINE
8
BLACK
6
CONTINUOUS
10
1.9703
20
0.854802
11
1.97104
21
0.856294
0
LINE
8
BLACK
6
CONTINUOUS
10
1.97104
20
0.856294
11
1.97189
21
0.859687
0
LINE
8
BLACK
6
CONTINUOUS
10
1.97189
20
0.859687
11
1.97189
21
0.862112
0
LINE
8
BLACK
6
CONTINUOUS
10
1.97189
20
0.862112
11
1.97104
21
0.865506
0
LINE
8
BLACK
6
CONTINUOUS
10
1.97104
20
0.865506
11
1.9703
21
0.866997
0
LINE
8
BLACK
6
CONTINUOUS
10
1.9703
20
0.866997
11
1.96887
21
0.868428
0
LINE
8
BLACK
6
CONTINUOUS
10
1.96887
20
0.868428
11
1.96665
21
0.869167
0
LINE
8
BLACK
6
CONTINUOUS
10
1.96665
20
0.869167
11
1.96529
21
0.869167
0
LINE
8
BLACK
6
CONTINUOUS
10
1.96529
20
0.869167
11
1.96307
21
0.868428
0
LINE
8
BLACK
6
CONTINUOUS
10
1.96307
20
0.868428
11
1.96239
21
0.867754
0
LINE
8
BLACK
6
CONTINUOUS
10
1.96239
20
0.867754
11
1.96128
21
0.867293
0
LINE
8
BLACK
6
CONTINUOUS
10
1.96128
20
0.867293
11
1.96017
21
0.867754
0
LINE
8
BLACK
6
CONTINUOUS
10
1.96017
20
0.867754
11
1.95971
21
0.868867
0
LINE
8
BLACK
6
CONTINUOUS
10
1.95971
20
0.868867
11
1.96017
21
0.869981
0
LINE
8
BLACK
6
CONTINUOUS
10
1.96017
20
0.869981
11
1.9611
21
0.870918
0
LINE
8
BLACK
6
CONTINUOUS
10
1.9611
20
0.870918
11
1.96144
21
0.871059
0
LINE
8
BLACK
6
CONTINUOUS
10
1.96144
20
0.871059
11
1.96172
21
0.871299
0
LINE
8
BLACK
6
CONTINUOUS
10
1.96172
20
0.871299
11
1.96453
21
0.872236
0
LINE
8
BLACK
6
CONTINUOUS
10
1.96453
20
0.872236
11
1.96479
21
0.872218
0
LINE
8
BLACK
6
CONTINUOUS
10
1.96479
20
0.872218
11
1.96503
21
0.872317
0
LINE
8
BLACK
6
CONTINUOUS
10
1.96503
20
0.872317
11
1.96691
21
0.872317
0
LINE
8
BLACK
6
CONTINUOUS
10
1.96691
20
0.872317
11
1.96714
21
0.872218
0
LINE
8
BLACK
6
CONTINUOUS
10
1.95583
20
0.871856
11
1.95629
21
0.870742
0
LINE
8
BLACK
6
CONTINUOUS
10
1.95629
20
0.870742
11
1.95583
21
0.869629
0
LINE
8
BLACK
6
CONTINUOUS
10
1.95583
20
0.869629
11
1.95472
21
0.869167
0
LINE
8
BLACK
6
CONTINUOUS
10
1.95472
20
0.869167
11
1.94398
21
0.869167
0
LINE
8
BLACK
6
CONTINUOUS
10
1.94398
20
0.869167
11
1.95148
21
0.851677
0
LINE
8
BLACK
6
CONTINUOUS
10
1.95148
20
0.851677
11
1.95149
21
0.850472
0
LINE
8
BLACK
6
CONTINUOUS
10
1.95149
20
0.850472
11
1.95065
21
0.84961
0
LINE
8
BLACK
6
CONTINUOUS
10
1.95065
20
0.84961
11
1.94945
21
0.849595
0
LINE
8
BLACK
6
CONTINUOUS
10
1.94945
20
0.849595
11
1.94858
21
0.850437
0
LINE
8
BLACK
6
CONTINUOUS
10
1.94858
20
0.850437
11
1.94015
21
0.870122
0
LINE
8
BLACK
6
CONTINUOUS
10
1.94015
20
0.870122
11
1.94014
21
0.870444
0
LINE
8
BLACK
6
CONTINUOUS
10
1.94014
20
0.870444
11
1.94002
21
0.870742
0
LINE
8
BLACK
6
CONTINUOUS
10
1.94002
20
0.870742
11
1.94014
21
0.871023
0
LINE
8
BLACK
6
CONTINUOUS
10
1.94014
20
0.871023
11
1.94013
21
0.871327
0
LINE
8
BLACK
6
CONTINUOUS
10
1.94013
20
0.871327
11
1.94036
21
0.871558
0
LINE
8
BLACK
6
CONTINUOUS
10
1.94036
20
0.871558
11
1.94048
21
0.871856
0
LINE
8
BLACK
6
CONTINUOUS
10
1.94048
20
0.871856
11
1.94076
21
0.871972
0
LINE
8
BLACK
6
CONTINUOUS
10
1.94076
20
0.871972
11
1.94098
21
0.87219
0
LINE
8
BLACK
6
CONTINUOUS
10
1.94098
20
0.87219
11
1.9413
21
0.872194
0
LINE
8
BLACK
6
CONTINUOUS
10
1.9413
20
0.872194
11
1.9416
21
0.872317
0
LINE
8
BLACK
6
CONTINUOUS
10
1.9416
20
0.872317
11
1.95472
21
0.872317
0
LINE
8
BLACK
6
CONTINUOUS
10
1.95472
20
0.872317
11
1.95583
21
0.871856
0
LINE
8
BLACK
6
CONTINUOUS
10
1.99737
20
0.886575
11
1.99876
21
0.885998
0
LINE
8
BLACK
6
CONTINUOUS
10
1.99876
20
0.885998
11
1.99934
21
0.884606
0
LINE
8
BLACK
6
CONTINUOUS
10
1.99934
20
0.884606
11
1.99934
21
0.835394
0
LINE
8
BLACK
6
CONTINUOUS
10
1.99934
20
0.835394
11
1.99876
21
0.834002
0
LINE
8
BLACK
6
CONTINUOUS
10
1.99876
20
0.834002
11
1.99737
21
0.833425
0
LINE
8
BLACK
6
CONTINUOUS
10
1.99737
20
0.833425
11
1.91863
21
0.833425
0
LINE
8
BLACK
6
CONTINUOUS
10
1.91863
20
0.833425
11
1.91724
21
0.834002
0
LINE
8
BLACK
6
CONTINUOUS
10
1.91724
20
0.834002
11
1.91666
21
0.835394
0
LINE
8
BLACK
6
CONTINUOUS
10
1.91666
20
0.835394
11
1.91666
21
0.884606
0
LINE
8
BLACK
6
CONTINUOUS
10
1.91666
20
0.884606
11
1.91724
21
0.885998
0
LINE
8
BLACK
6
CONTINUOUS
10
1.91724
20
0.885998
11
1.91863
21
0.886575
0
LINE
8
BLACK
6
CONTINUOUS
10
1.91863
20
0.886575
11
1.99737
21
0.886575
0
LINE
8
BLACK
6
CONTINUOUS
10
1.9206
20
0.882638
11
1.9206
21
0.837362
0
LINE
8
BLACK
6
CONTINUOUS
10
1.9206
20
0.837362
11
1.9954
21
0.837362
0
LINE
8
BLACK
6
CONTINUOUS
10
1.9954
20
0.837362
11
1.9954
21
0.882638
0
LINE
8
BLACK
6
CONTINUOUS
10
1.9954
20
0.882638
11
1.9206
21
0.882638
0
LINE
8
BLACK
6
CONTINUOUS
10
1.70513
20
1.02328
11
1.70624
21
1.02159
0
LINE
8
BLACK
6
CONTINUOUS
10
1.70624
20
1.02159
11
1.70601
21
1.01958
0
LINE
8
BLACK
6
CONTINUOUS
10
1.70601
20
1.01958
11
1.70413
21
1.01583
0
LINE
8
BLACK
6
CONTINUOUS
10
1.70413
20
1.01583
11
1.70361
21
1.01512
0
LINE
8
BLACK
6
CONTINUOUS
10
1.70361
20
1.01512
11
1.70358
21
1.01507
0
LINE
8
BLACK
6
CONTINUOUS
10
1.70358
20
1.01507
11
1.70112
21
1.01261
0
LINE
8
BLACK
6
CONTINUOUS
10
1.70112
20
1.01261
11
1.72854
21
1.01261
0
LINE
8
BLACK
6
CONTINUOUS
10
1.72854
20
1.01261
11
1.72854
21
1.0209
0
LINE
8
BLACK
6
CONTINUOUS
10
1.72854
20
1.0209
11
1.72871
21
1.02191
0
LINE
8
BLACK
6
CONTINUOUS
10
1.72871
20
1.02191
11
1.73001
21
1.02346
0
LINE
8
BLACK
6
CONTINUOUS
10
1.73001
20
1.02346
11
1.732
21
1.02381
0
LINE
8
BLACK
6
CONTINUOUS
10
1.732
20
1.02381
11
1.73375
21
1.0228
0
LINE
8
BLACK
6
CONTINUOUS
10
1.73375
20
1.0228
11
1.73444
21
1.0209
0
LINE
8
BLACK
6
CONTINUOUS
10
1.73444
20
1.0209
11
1.73444
21
0.998406
0
LINE
8
BLACK
6
CONTINUOUS
10
1.73444
20
0.998406
11
1.73426
21
0.997397
0
LINE
8
BLACK
6
CONTINUOUS
10
1.73426
20
0.997397
11
1.73297
21
0.995849
0
LINE
8
BLACK
6
CONTINUOUS
10
1.73297
20
0.995849
11
1.73098
21
0.995499
0
LINE
8
BLACK
6
CONTINUOUS
10
1.73098
20
0.995499
11
1.72923
21
0.996508
0
LINE
8
BLACK
6
CONTINUOUS
10
1.72923
20
0.996508
11
1.72854
21
0.998406
0
LINE
8
BLACK
6
CONTINUOUS
10
1.72854
20
0.998406
11
1.72854
21
1.0067
0
LINE
8
BLACK
6
CONTINUOUS
10
1.72854
20
1.0067
11
1.69212
21
1.0067
0
LINE
8
BLACK
6
CONTINUOUS
10
1.69212
20
1.0067
11
1.69111
21
1.00688
0
LINE
8
BLACK
6
CONTINUOUS
10
1.69111
20
1.00688
11
1.69098
21
1.00699
0
LINE
8
BLACK
6
CONTINUOUS
10
1.69098
20
1.00699
11
1.69081
21
1.00701
0
LINE
8
BLACK
6
CONTINUOUS
10
1.69081
20
1.00701
11
1.69022
21
1.00763
0
LINE
8
BLACK
6
CONTINUOUS
10
1.69022
20
1.00763
11
1.68956
21
1.00818
0
LINE
8
BLACK
6
CONTINUOUS
10
1.68956
20
1.00818
11
1.68953
21
1.00835
0
LINE
8
BLACK
6
CONTINUOUS
10
1.68953
20
1.00835
11
1.68941
21
1.00847
0
LINE
8
BLACK
6
CONTINUOUS
10
1.68941
20
1.00847
11
1.68936
21
1.00932
0
LINE
8
BLACK
6
CONTINUOUS
10
1.68936
20
1.00932
11
1.68921
21
1.01017
0
LINE
8
BLACK
6
CONTINUOUS
10
1.68921
20
1.01017
11
1.6893
21
1.01031
0
LINE
8
BLACK
6
CONTINUOUS
10
1.6893
20
1.01031
11
1.68928
21
1.01048
0
LINE
8
BLACK
6
CONTINUOUS
10
1.68928
20
1.01048
11
1.68979
21
1.01117
0
LINE
8
BLACK
6
CONTINUOUS
10
1.68979
20
1.01117
11
1.69022
21
1.01192
0
LINE
8
BLACK
6
CONTINUOUS
10
1.69022
20
1.01192
11
1.69038
21
1.01198
0
LINE
8
BLACK
6
CONTINUOUS
10
1.69038
20
1.01198
11
1.69048
21
1.01211
0
LINE
8
BLACK
6
CONTINUOUS
10
1.69048
20
1.01211
11
1.69586
21
1.0157
0
LINE
8
BLACK
6
CONTINUOUS
10
1.69586
20
1.0157
11
1.69907
21
1.0189
0
LINE
8
BLACK
6
CONTINUOUS
10
1.69907
20
1.0189
11
1.70073
21
1.02222
0
LINE
8
BLACK
6
CONTINUOUS
10
1.70073
20
1.02222
11
1.70134
21
1.02305
0
LINE
8
BLACK
6
CONTINUOUS
10
1.70134
20
1.02305
11
1.70319
21
1.02385
0
LINE
8
BLACK
6
CONTINUOUS
10
1.70319
20
1.02385
11
1.70513
21
1.02328
0
LINE
8
BLACK
6
CONTINUOUS
10
1.73187
20
1.05379
11
1.732
21
1.05381
0
LINE
8
BLACK
6
CONTINUOUS
10
1.732
20
1.05381
11
1.73212
21
1.05374
0
LINE
8
BLACK
6
CONTINUOUS
10
1.73212
20
1.05374
11
1.7325
21
1.05367
0
LINE
8
BLACK
6
CONTINUOUS
10
1.7325
20
1.05367
11
1.73309
21
1.05318
0
LINE
8
BLACK
6
CONTINUOUS
10
1.73309
20
1.05318
11
1.73375
21
1.0528
0
LINE
8
BLACK
6
CONTINUOUS
10
1.73375
20
1.0528
11
1.73384
21
1.05255
0
LINE
8
BLACK
6
CONTINUOUS
10
1.73384
20
1.05255
11
1.73405
21
1.05238
0
LINE
8
BLACK
6
CONTINUOUS
10
1.73405
20
1.05238
11
1.73418
21
1.05162
0
LINE
8
BLACK
6
CONTINUOUS
10
1.73418
20
1.05162
11
1.73444
21
1.0509
0
LINE
8
BLACK
6
CONTINUOUS
10
1.73444
20
1.0509
11
1.73444
21
1.03215
0
LINE
8
BLACK
6
CONTINUOUS
10
1.73444
20
1.03215
11
1.73426
21
1.03114
0
LINE
8
BLACK
6
CONTINUOUS
10
1.73426
20
1.03114
11
1.73297
21
1.0296
0
LINE
8
BLACK
6
CONTINUOUS
10
1.73297
20
1.0296
11
1.73098
21
1.02924
0
LINE
8
BLACK
6
CONTINUOUS
10
1.73098
20
1.02924
11
1.72923
21
1.03025
0
LINE
8
BLACK
6
CONTINUOUS
10
1.72923
20
1.03025
11
1.72854
21
1.03215
0
LINE
8
BLACK
6
CONTINUOUS
10
1.72854
20
1.03215
11
1.72854
21
1.04795
0
LINE
8
BLACK
6
CONTINUOUS
10
1.72854
20
1.04795
11
1.69212
21
1.04795
0
LINE
8
BLACK
6
CONTINUOUS
10
1.69212
20
1.04795
11
1.69111
21
1.04813
0
LINE
8
BLACK
6
CONTINUOUS
10
1.69111
20
1.04813
11
1.68956
21
1.04942
0
LINE
8
BLACK
6
CONTINUOUS
10
1.68956
20
1.04942
11
1.68921
21
1.05141
0
LINE
8
BLACK
6
CONTINUOUS
10
1.68921
20
1.05141
11
1.69022
21
1.05316
0
LINE
8
BLACK
6
CONTINUOUS
10
1.69022
20
1.05316
11
1.69212
21
1.05385
0
LINE
8
BLACK
6
CONTINUOUS
10
1.69212
20
1.05385
11
1.73149
21
1.05385
0
LINE
8
BLACK
6
CONTINUOUS
10
1.73149
20
1.05385
11
1.73187
21
1.05379
0
LINE
8
BLACK
6
CONTINUOUS
10
1.73536
20
1.17942
11
1.74963
21
1.17646
0
LINE
8
BLACK
6
CONTINUOUS
10
1.74963
20
1.17646
11
1.76352
21
1.17205
0
LINE
8
BLACK
6
CONTINUOUS
10
1.76352
20
1.17205
11
1.77688
21
1.16624
0
LINE
8
BLACK
6
CONTINUOUS
10
1.77688
20
1.16624
11
1.78958
21
1.15909
0
LINE
8
BLACK
6
CONTINUOUS
10
1.78958
20
1.15909
11
1.80148
21
1.15069
0
LINE
8
BLACK
6
CONTINUOUS
10
1.80148
20
1.15069
11
1.81246
21
1.14111
0
LINE
8
BLACK
6
CONTINUOUS
10
1.81246
20
1.14111
11
1.8224
21
1.13045
0
LINE
8
BLACK
6
CONTINUOUS
10
1.8224
20
1.13045
11
1.83119
21
1.11884
0
LINE
8
BLACK
6
CONTINUOUS
10
1.83119
20
1.11884
11
1.83876
21
1.10638
0
LINE
8
BLACK
6
CONTINUOUS
10
1.83876
20
1.10638
11
1.845
21
1.09322
0
LINE
8
BLACK
6
CONTINUOUS
10
1.845
20
1.09322
11
1.84987
21
1.07949
0
LINE
8
BLACK
6
CONTINUOUS
10
1.84987
20
1.07949
11
1.85331
21
1.06533
0
LINE
8
BLACK
6
CONTINUOUS
10
1.85331
20
1.06533
11
1.85331
21
1.06533
0
LINE
8
BLACK
6
CONTINUOUS
10
1.85331
20
1.06533
11
1.85328
21
1.06511
0
LINE
8
BLACK
6
CONTINUOUS
10
1.85328
20
1.06511
11
1.85335
21
1.06496
0
LINE
8
BLACK
6
CONTINUOUS
10
1.85335
20
1.06496
11
1.85335
21
0.98622
0
LINE
8
BLACK
6
CONTINUOUS
10
1.85335
20
0.98622
11
1.85328
21
0.986071
0
LINE
8
BLACK
6
CONTINUOUS
10
1.85328
20
0.986071
11
1.85331
21
0.985855
0
LINE
8
BLACK
6
CONTINUOUS
10
1.85331
20
0.985855
11
1.85331
21
0.985855
0
LINE
8
BLACK
6
CONTINUOUS
10
1.85331
20
0.985855
11
1.84987
21
0.971695
0
LINE
8
BLACK
6
CONTINUOUS
10
1.84987
20
0.971695
11
1.845
21
0.957962
0
LINE
8
BLACK
6
CONTINUOUS
10
1.845
20
0.957962
11
1.83876
21
0.944799
0
LINE
8
BLACK
6
CONTINUOUS
10
1.83876
20
0.944799
11
1.83119
21
0.932345
0
LINE
8
BLACK
6
CONTINUOUS
10
1.83119
20
0.932345
11
1.8224
21
0.920729
0
LINE
8
BLACK
6
CONTINUOUS
10
1.8224
20
0.920729
11
1.81246
21
0.910075
0
LINE
8
BLACK
6
CONTINUOUS
10
1.81246
20
0.910075
11
1.80148
21
0.900494
0
LINE
8
BLACK
6
CONTINUOUS
10
1.80148
20
0.900494
11
1.78958
21
0.892087
0
LINE
8
BLACK
6
CONTINUOUS
10
1.78958
20
0.892087
11
1.77688
21
0.884942
0
LINE
8
BLACK
6
CONTINUOUS
10
1.77688
20
0.884942
11
1.76352
21
0.879133
0
LINE
8
BLACK
6
CONTINUOUS
10
1.76352
20
0.879133
11
1.74963
21
0.874723
0
LINE
8
BLACK
6
CONTINUOUS
10
1.74963
20
0.874723
11
1.73536
21
0.871757
0
LINE
8
BLACK
6
CONTINUOUS
10
1.73536
20
0.871757
11
1.72087
21
0.870266
0
LINE
8
BLACK
6
CONTINUOUS
10
1.72087
20
0.870266
11
1.7063
21
0.870266
0
LINE
8
BLACK
6
CONTINUOUS
10
1.7063
20
0.870266
11
1.6918
21
0.871757
0
LINE
8
BLACK
6
CONTINUOUS
10
1.6918
20
0.871757
11
1.67754
21
0.874723
0
LINE
8
BLACK
6
CONTINUOUS
10
1.67754
20
0.874723
11
1.66365
21
0.879133
0
LINE
8
BLACK
6
CONTINUOUS
10
1.66365
20
0.879133
11
1.65029
21
0.884942
0
LINE
8
BLACK
6
CONTINUOUS
10
1.65029
20
0.884942
11
1.63759
21
0.892087
0
LINE
8
BLACK
6
CONTINUOUS
10
1.63759
20
0.892087
11
1.62569
21
0.900494
0
LINE
8
BLACK
6
CONTINUOUS
10
1.62569
20
0.900494
11
1.61471
21
0.910075
0
LINE
8
BLACK
6
CONTINUOUS
10
1.61471
20
0.910075
11
1.60477
21
0.920729
0
LINE
8
BLACK
6
CONTINUOUS
10
1.60477
20
0.920729
11
1.59597
21
0.932345
0
LINE
8
BLACK
6
CONTINUOUS
10
1.59597
20
0.932345
11
1.58841
21
0.944799
0
LINE
8
BLACK
6
CONTINUOUS
10
1.58841
20
0.944799
11
1.58216
21
0.957962
0
LINE
8
BLACK
6
CONTINUOUS
10
1.58216
20
0.957962
11
1.57729
21
0.971695
0
LINE
8
BLACK
6
CONTINUOUS
10
1.57729
20
0.971695
11
1.57385
21
0.985855
0
LINE
8
BLACK
6
CONTINUOUS
10
1.57385
20
0.985855
11
1.57385
21
0.985855
0
LINE
8
BLACK
6
CONTINUOUS
10
1.57385
20
0.985855
11
1.57388
21
0.986071
0
LINE
8
BLACK
6
CONTINUOUS
10
1.57388
20
0.986071
11
1.57382
21
0.98622
0
LINE
8
BLACK
6
CONTINUOUS
10
1.57382
20
0.98622
11
1.57382
21
1.06496
0
LINE
8
BLACK
6
CONTINUOUS
10
1.57382
20
1.06496
11
1.57388
21
1.06511
0
LINE
8
BLACK
6
CONTINUOUS
10
1.57388
20
1.06511
11
1.57385
21
1.06533
0
LINE
8
BLACK
6
CONTINUOUS
10
1.57385
20
1.06533
11
1.57385
21
1.06533
0
LINE
8
BLACK
6
CONTINUOUS
10
1.57385
20
1.06533
11
1.57729
21
1.07949
0
LINE
8
BLACK
6
CONTINUOUS
10
1.57729
20
1.07949
11
1.58216
21
1.09322
0
LINE
8
BLACK
6
CONTINUOUS
10
1.58216
20
1.09322
11
1.58841
21
1.10638
0
LINE
8
BLACK
6
CONTINUOUS
10
1.58841
20
1.10638
11
1.59597
21
1.11884
0
LINE
8
BLACK
6
CONTINUOUS
10
1.59597
20
1.11884
11
1.60477
21
1.13045
0
LINE
8
BLACK
6
CONTINUOUS
10
1.60477
20
1.13045
11
1.61471
21
1.14111
0
LINE
8
BLACK
6
CONTINUOUS
10
1.61471
20
1.14111
11
1.62569
21
1.15069
0
LINE
8
BLACK
6
CONTINUOUS
10
1.62569
20
1.15069
11
1.63759
21
1.15909
0
LINE
8
BLACK
6
CONTINUOUS
10
1.63759
20
1.15909
11
1.65029
21
1.16624
0
LINE
8
BLACK
6
CONTINUOUS
10
1.65029
20
1.16624
11
1.66365
21
1.17205
0
LINE
8
BLACK
6
CONTINUOUS
10
1.66365
20
1.17205
11
1.67754
21
1.17646
0
LINE
8
BLACK
6
CONTINUOUS
10
1.67754
20
1.17646
11
1.6918
21
1.17942
0
LINE
8
BLACK
6
CONTINUOUS
10
1.6918
20
1.17942
11
1.7063
21
1.18092
0
LINE
8
BLACK
6
CONTINUOUS
10
1.7063
20
1.18092
11
1.72087
21
1.18092
0
LINE
8
BLACK
6
CONTINUOUS
10
1.72087
20
1.18092
11
1.73536
21
1.17942
0
LINE
8
BLACK
6
CONTINUOUS
10
1.69942
20
1.17662
11
1.6854
21
1.17445
0
LINE
8
BLACK
6
CONTINUOUS
10
1.6854
20
1.17445
11
1.67167
21
1.17085
0
LINE
8
BLACK
6
CONTINUOUS
10
1.67167
20
1.17085
11
1.65839
21
1.16587
0
LINE
8
BLACK
6
CONTINUOUS
10
1.65839
20
1.16587
11
1.64569
21
1.15956
0
LINE
8
BLACK
6
CONTINUOUS
10
1.64569
20
1.15956
11
1.6337
21
1.15198
0
LINE
8
BLACK
6
CONTINUOUS
10
1.6337
20
1.15198
11
1.62254
21
1.14321
0
LINE
8
BLACK
6
CONTINUOUS
10
1.62254
20
1.14321
11
1.61235
21
1.13335
0
LINE
8
BLACK
6
CONTINUOUS
10
1.61235
20
1.13335
11
1.60321
21
1.12249
0
LINE
8
BLACK
6
CONTINUOUS
10
1.60321
20
1.12249
11
1.59524
21
1.11076
0
LINE
8
BLACK
6
CONTINUOUS
10
1.59524
20
1.11076
11
1.58851
21
1.09827
0
LINE
8
BLACK
6
CONTINUOUS
10
1.58851
20
1.09827
11
1.58309
21
1.08516
0
LINE
8
BLACK
6
CONTINUOUS
10
1.58309
20
1.08516
11
1.57904
21
1.07156
0
LINE
8
BLACK
6
CONTINUOUS
10
1.57904
20
1.07156
11
1.57776
21
1.06478
0
LINE
8
BLACK
6
CONTINUOUS
10
1.57776
20
1.06478
11
1.57776
21
0.986405
0
LINE
8
BLACK
6
CONTINUOUS
10
1.57776
20
0.986405
11
1.57904
21
0.979616
0
LINE
8
BLACK
6
CONTINUOUS
10
1.57904
20
0.979616
11
1.58309
21
0.96602
0
LINE
8
BLACK
6
CONTINUOUS
10
1.58309
20
0.96602
11
1.58851
21
0.95291
0
LINE
8
BLACK
6
CONTINUOUS
10
1.58851
20
0.95291
11
1.59524
21
0.940423
0
LINE
8
BLACK
6
CONTINUOUS
10
1.59524
20
0.940423
11
1.60321
21
0.92869
0
LINE
8
BLACK
6
CONTINUOUS
10
1.60321
20
0.92869
11
1.61235
21
0.917836
0
LINE
8
BLACK
6
CONTINUOUS
10
1.61235
20
0.917836
11
1.62254
21
0.907972
0
LINE
8
BLACK
6
CONTINUOUS
10
1.62254
20
0.907972
11
1.6337
21
0.899204
0
LINE
8
BLACK
6
CONTINUOUS
10
1.6337
20
0.899204
11
1.64569
21
0.891623
0
LINE
8
BLACK
6
CONTINUOUS
10
1.64569
20
0.891623
11
1.65839
21
0.885309
0
LINE
8
BLACK
6
CONTINUOUS
10
1.65839
20
0.885309
11
1.67167
21
0.880327
0
LINE
8
BLACK
6
CONTINUOUS
10
1.67167
20
0.880327
11
1.6854
21
0.876732
0
LINE
8
BLACK
6
CONTINUOUS
10
1.6854
20
0.876732
11
1.69942
21
0.874559
0
LINE
8
BLACK
6
CONTINUOUS
10
1.69942
20
0.874559
11
1.71358
21
0.873832
0
LINE
8
BLACK
6
CONTINUOUS
10
1.71358
20
0.873832
11
1.72775
21
0.874559
0
LINE
8
BLACK
6
CONTINUOUS
10
1.72775
20
0.874559
11
1.74177
21
0.876732
0
LINE
8
BLACK
6
CONTINUOUS
10
1.74177
20
0.876732
11
1.75549
21
0.880327
0
LINE
8
BLACK
6
CONTINUOUS
10
1.75549
20
0.880327
11
1.76878
21
0.885309
0
LINE
8
BLACK
6
CONTINUOUS
10
1.76878
20
0.885309
11
1.78148
21
0.891623
0
LINE
8
BLACK
6
CONTINUOUS
10
1.78148
20
0.891623
11
1.79347
21
0.899204
0
LINE
8
BLACK
6
CONTINUOUS
10
1.79347
20
0.899204
11
1.80462
21
0.907972
0
LINE
8
BLACK
6
CONTINUOUS
10
1.80462
20
0.907972
11
1.81482
21
0.917836
0
LINE
8
BLACK
6
CONTINUOUS
10
1.81482
20
0.917836
11
1.82395
21
0.92869
0
LINE
8
BLACK
6
CONTINUOUS
10
1.82395
20
0.92869
11
1.83193
21
0.940423
0
LINE
8
BLACK
6
CONTINUOUS
10
1.83193
20
0.940423
11
1.83866
21
0.95291
0
LINE
8
BLACK
6
CONTINUOUS
10
1.83866
20
0.95291
11
1.84408
21
0.96602
0
LINE
8
BLACK
6
CONTINUOUS
10
1.84408
20
0.96602
11
1.84813
21
0.979616
0
LINE
8
BLACK
6
CONTINUOUS
10
1.84813
20
0.979616
11
1.84941
21
0.986405
0
LINE
8
BLACK
6
CONTINUOUS
10
1.84941
20
0.986405
11
1.84941
21
1.06478
0
LINE
8
BLACK
6
CONTINUOUS
10
1.84941
20
1.06478
11
1.84813
21
1.07156
0
LINE
8
BLACK
6
CONTINUOUS
10
1.84813
20
1.07156
11
1.84408
21
1.08516
0
LINE
8
BLACK
6
CONTINUOUS
10
1.84408
20
1.08516
11
1.83866
21
1.09827
0
LINE
8
BLACK
6
CONTINUOUS
10
1.83866
20
1.09827
11
1.83193
21
1.11076
0
LINE
8
BLACK
6
CONTINUOUS
10
1.83193
20
1.11076
11
1.82395
21
1.12249
0
LINE
8
BLACK
6
CONTINUOUS
10
1.82395
20
1.12249
11
1.81482
21
1.13335
0
LINE
8
BLACK
6
CONTINUOUS
10
1.81482
20
1.13335
11
1.80462
21
1.14321
0
LINE
8
BLACK
6
CONTINUOUS
10
1.80462
20
1.14321
11
1.79347
21
1.15198
0
LINE
8
BLACK
6
CONTINUOUS
10
1.79347
20
1.15198
11
1.78148
21
1.15956
0
LINE
8
BLACK
6
CONTINUOUS
10
1.78148
20
1.15956
11
1.76878
21
1.16587
0
LINE
8
BLACK
6
CONTINUOUS
10
1.76878
20
1.16587
11
1.75549
21
1.17085
0
LINE
8
BLACK
6
CONTINUOUS
10
1.75549
20
1.17085
11
1.74177
21
1.17445
0
LINE
8
BLACK
6
CONTINUOUS
10
1.74177
20
1.17445
11
1.72775
21
1.17662
0
LINE
8
BLACK
6
CONTINUOUS
10
1.72775
20
1.17662
11
1.71358
21
1.17735
0
LINE
8
BLACK
6
CONTINUOUS
10
1.71358
20
1.17735
11
1.69942
21
1.17662
0
LINE
8
BLACK
6
CONTINUOUS
10
1.95037
20
0.982177
11
1.95074
21
0.982151
0
LINE
8
BLACK
6
CONTINUOUS
10
1.95074
20
0.982151
11
1.95261
21
0.981213
0
LINE
8
BLACK
6
CONTINUOUS
10
1.95261
20
0.981213
11
1.95278
21
0.981018
0
LINE
8
BLACK
6
CONTINUOUS
10
1.95278
20
0.981018
11
1.95302
21
0.980918
0
LINE
8
BLACK
6
CONTINUOUS
10
1.95302
20
0.980918
11
1.95396
21
0.979981
0
LINE
8
BLACK
6
CONTINUOUS
10
1.95396
20
0.979981
11
1.95406
21
0.979741
0
LINE
8
BLACK
6
CONTINUOUS
10
1.95406
20
0.979741
11
1.95425
21
0.979572
0
LINE
8
BLACK
6
CONTINUOUS
10
1.95425
20
0.979572
11
1.95519
21
0.977697
0
LINE
8
BLACK
6
CONTINUOUS
10
1.95519
20
0.977697
11
1.95522
21
0.977331
0
LINE
8
BLACK
6
CONTINUOUS
10
1.95522
20
0.977331
11
1.95536
21
0.976993
0
LINE
8
BLACK
6
CONTINUOUS
10
1.95536
20
0.976993
11
1.95536
21
0.976055
0
LINE
8
BLACK
6
CONTINUOUS
10
1.95536
20
0.976055
11
1.95522
21
0.975717
0
LINE
8
BLACK
6
CONTINUOUS
10
1.95522
20
0.975717
11
1.95519
21
0.975351
0
LINE
8
BLACK
6
CONTINUOUS
10
1.95519
20
0.975351
11
1.95425
21
0.973476
0
LINE
8
BLACK
6
CONTINUOUS
10
1.95425
20
0.973476
11
1.95406
21
0.973306
0
LINE
8
BLACK
6
CONTINUOUS
10
1.95406
20
0.973306
11
1.95396
21
0.973067
0
LINE
8
BLACK
6
CONTINUOUS
10
1.95396
20
0.973067
11
1.9532
21
0.972306
0
LINE
8
BLACK
6
CONTINUOUS
10
1.9532
20
0.972306
11
1.95396
21
0.971545
0
LINE
8
BLACK
6
CONTINUOUS
10
1.95396
20
0.971545
11
1.95406
21
0.971305
0
LINE
8
BLACK
6
CONTINUOUS
10
1.95406
20
0.971305
11
1.95425
21
0.971135
0
LINE
8
BLACK
6
CONTINUOUS
10
1.95425
20
0.971135
11
1.95519
21
0.96926
0
LINE
8
BLACK
6
CONTINUOUS
10
1.95519
20
0.96926
11
1.95522
21
0.968895
0
LINE
8
BLACK
6
CONTINUOUS
10
1.95522
20
0.968895
11
1.95536
21
0.968556
0
LINE
8
BLACK
6
CONTINUOUS
10
1.95536
20
0.968556
11
1.95536
21
0.964807
0
LINE
8
BLACK
6
CONTINUOUS
10
1.95536
20
0.964807
11
1.95522
21
0.964468
0
LINE
8
BLACK
6
CONTINUOUS
10
1.95522
20
0.964468
11
1.95519
21
0.964102
0
LINE
8
BLACK
6
CONTINUOUS
10
1.95519
20
0.964102
11
1.95425
21
0.962228
0
LINE
8
BLACK
6
CONTINUOUS
10
1.95425
20
0.962228
11
1.95406
21
0.962058
0
LINE
8
BLACK
6
CONTINUOUS
10
1.95406
20
0.962058
11
1.95396
21
0.961818
0
LINE
8
BLACK
6
CONTINUOUS
10
1.95396
20
0.961818
11
1.95302
21
0.960881
0
LINE
8
BLACK
6
CONTINUOUS
10
1.95302
20
0.960881
11
1.95278
21
0.960782
0
LINE
8
BLACK
6
CONTINUOUS
10
1.95278
20
0.960782
11
1.95261
21
0.960586
0
LINE
8
BLACK
6
CONTINUOUS
10
1.95261
20
0.960586
11
1.95074
21
0.959649
0
LINE
8
BLACK
6
CONTINUOUS
10
1.95074
20
0.959649
11
1.95037
21
0.959623
0
LINE
8
BLACK
6
CONTINUOUS
10
1.95037
20
0.959623
11
1.95003
21
0.959482
0
LINE
8
BLACK
6
CONTINUOUS
10
1.95003
20
0.959482
11
1.94628
21
0.959482
0
LINE
8
BLACK
6
CONTINUOUS
10
1.94628
20
0.959482
11
1.94594
21
0.959623
0
LINE
8
BLACK
6
CONTINUOUS
10
1.94594
20
0.959623
11
1.94558
21
0.959649
0
LINE
8
BLACK
6
CONTINUOUS
10
1.94558
20
0.959649
11
1.9437
21
0.960586
0
LINE
8
BLACK
6
CONTINUOUS
10
1.9437
20
0.960586
11
1.94353
21
0.960782
0
LINE
8
BLACK
6
CONTINUOUS
10
1.94353
20
0.960782
11
1.94329
21
0.960881
0
LINE
8
BLACK
6
CONTINUOUS
10
1.94329
20
0.960881
11
1.94236
21
0.961818
0
LINE
8
BLACK
6
CONTINUOUS
10
1.94236
20
0.961818
11
1.94226
21
0.962058
0
LINE
8
BLACK
6
CONTINUOUS
10
1.94226
20
0.962058
11
1.94206
21
0.962228
0
LINE
8
BLACK
6
CONTINUOUS
10
1.94206
20
0.962228
11
1.94112
21
0.964102
0
LINE
8
BLACK
6
CONTINUOUS
10
1.94112
20
0.964102
11
1.9411
21
0.964468
0
LINE
8
BLACK
6
CONTINUOUS
10
1.9411
20
0.964468
11
1.94096
21
0.964807
0
LINE
8
BLACK
6
CONTINUOUS
10
1.94096
20
0.964807
11
1.94096
21
0.968556
0
LINE
8
BLACK
6
CONTINUOUS
10
1.94096
20
0.968556
11
1.9411
21
0.968895
0
LINE
8
BLACK
6
CONTINUOUS
10
1.9411
20
0.968895
11
1.94112
21
0.96926
0
LINE
8
BLACK
6
CONTINUOUS
10
1.94112
20
0.96926
11
1.94206
21
0.971135
0
LINE
8
BLACK
6
CONTINUOUS
10
1.94206
20
0.971135
11
1.94226
21
0.971305
0
LINE
8
BLACK
6
CONTINUOUS
10
1.94226
20
0.971305
11
1.94236
21
0.971544
0
LINE
8
BLACK
6
CONTINUOUS
10
1.94236
20
0.971544
11
1.94312
21
0.972306
0
LINE
8
BLACK
6
CONTINUOUS
10
1.94312
20
0.972306
11
1.94236
21
0.973067
0
LINE
8
BLACK
6
CONTINUOUS
10
1.94236
20
0.973067
11
1.94226
21
0.973306
0
LINE
8
BLACK
6
CONTINUOUS
10
1.94226
20
0.973306
11
1.94206
21
0.973476
0
LINE
8
BLACK
6
CONTINUOUS
10
1.94206
20
0.973476
11
1.94112
21
0.975351
0
LINE
8
BLACK
6
CONTINUOUS
10
1.94112
20
0.975351
11
1.9411
21
0.975717
0
LINE
8
BLACK
6
CONTINUOUS
10
1.9411
20
0.975717
11
1.94096
21
0.976055
0
LINE
8
BLACK
6
CONTINUOUS
10
1.94096
20
0.976055
11
1.94096
21
0.976993
0
LINE
8
BLACK
6
CONTINUOUS
10
1.94096
20
0.976993
11
1.9411
21
0.977331
0
LINE
8
BLACK
6
CONTINUOUS
10
1.9411
20
0.977331
11
1.94112
21
0.977697
0
LINE
8
BLACK
6
CONTINUOUS
10
1.94112
20
0.977697
11
1.94206
21
0.979572
0
LINE
8
BLACK
6
CONTINUOUS
10
1.94206
20
0.979572
11
1.94226
21
0.979742
0
LINE
8
BLACK
6
CONTINUOUS
10
1.94226
20
0.979742
11
1.94236
21
0.979981
0
LINE
8
BLACK
6
CONTINUOUS
10
1.94236
20
0.979981
11
1.94329
21
0.980918
0
LINE
8
BLACK
6
CONTINUOUS
10
1.94329
20
0.980918
11
1.94353
21
0.981018
0
LINE
8
BLACK
6
CONTINUOUS
10
1.94353
20
0.981018
11
1.9437
21
0.981213
0
LINE
8
BLACK
6
CONTINUOUS
10
1.9437
20
0.981213
11
1.94558
21
0.982151
0
LINE
8
BLACK
6
CONTINUOUS
10
1.94558
20
0.982151
11
1.94594
21
0.982177
0
LINE
8
BLACK
6
CONTINUOUS
10
1.94594
20
0.982177
11
1.94628
21
0.982317
0
LINE
8
BLACK
6
CONTINUOUS
10
1.94628
20
0.982317
11
1.95003
21
0.982317
0
LINE
8
BLACK
6
CONTINUOUS
10
1.95003
20
0.982317
11
1.95037
21
0.982177
0
LINE
8
BLACK
6
CONTINUOUS
10
1.94534
20
0.970074
11
1.94476
21
0.969498
0
LINE
8
BLACK
6
CONTINUOUS
10
1.94476
20
0.969498
11
1.94411
21
0.968184
0
LINE
8
BLACK
6
CONTINUOUS
10
1.94411
20
0.968184
11
1.94411
21
0.965178
0
LINE
8
BLACK
6
CONTINUOUS
10
1.94411
20
0.965178
11
1.94476
21
0.963865
0
LINE
8
BLACK
6
CONTINUOUS
10
1.94476
20
0.963865
11
1.94534
21
0.963289
0
LINE
8
BLACK
6
CONTINUOUS
10
1.94534
20
0.963289
11
1.94665
21
0.962632
0
LINE
8
BLACK
6
CONTINUOUS
10
1.94665
20
0.962632
11
1.94966
21
0.962632
0
LINE
8
BLACK
6
CONTINUOUS
10
1.94966
20
0.962632
11
1.95097
21
0.963289
0
LINE
8
BLACK
6
CONTINUOUS
10
1.95097
20
0.963289
11
1.95155
21
0.963865
0
LINE
8
BLACK
6
CONTINUOUS
10
1.95155
20
0.963865
11
1.95221
21
0.965178
0
LINE
8
BLACK
6
CONTINUOUS
10
1.95221
20
0.965178
11
1.95221
21
0.968184
0
LINE
8
BLACK
6
CONTINUOUS
10
1.95221
20
0.968184
11
1.95155
21
0.969498
0
LINE
8
BLACK
6
CONTINUOUS
10
1.95155
20
0.969498
11
1.95097
21
0.970074
0
LINE
8
BLACK
6
CONTINUOUS
10
1.95097
20
0.970074
11
1.94966
21
0.970731
0
LINE
8
BLACK
6
CONTINUOUS
10
1.94966
20
0.970731
11
1.94665
21
0.970731
0
LINE
8
BLACK
6
CONTINUOUS
10
1.94665
20
0.970731
11
1.94534
21
0.970074
0
LINE
8
BLACK
6
CONTINUOUS
10
1.94534
20
0.978511
11
1.94476
21
0.977935
0
LINE
8
BLACK
6
CONTINUOUS
10
1.94476
20
0.977935
11
1.94411
21
0.976621
0
LINE
8
BLACK
6
CONTINUOUS
10
1.94411
20
0.976621
11
1.94411
21
0.976427
0
LINE
8
BLACK
6
CONTINUOUS
10
1.94411
20
0.976427
11
1.94476
21
0.975113
0
LINE
8
BLACK
6
CONTINUOUS
10
1.94476
20
0.975113
11
1.94534
21
0.974537
0
LINE
8
BLACK
6
CONTINUOUS
10
1.94534
20
0.974537
11
1.94665
21
0.973881
0
LINE
8
BLACK
6
CONTINUOUS
10
1.94665
20
0.973881
11
1.94966
21
0.973881
0
LINE
8
BLACK
6
CONTINUOUS
10
1.94966
20
0.973881
11
1.95097
21
0.974537
0
LINE
8
BLACK
6
CONTINUOUS
10
1.95097
20
0.974537
11
1.95155
21
0.975113
0
LINE
8
BLACK
6
CONTINUOUS
10
1.95155
20
0.975113
11
1.95221
21
0.976427
0
LINE
8
BLACK
6
CONTINUOUS
10
1.95221
20
0.976427
11
1.95221
21
0.976621
0
LINE
8
BLACK
6
CONTINUOUS
10
1.95221
20
0.976621
11
1.95155
21
0.977935
0
LINE
8
BLACK
6
CONTINUOUS
10
1.95155
20
0.977935
11
1.95097
21
0.978511
0
LINE
8
BLACK
6
CONTINUOUS
10
1.95097
20
0.978511
11
1.94966
21
0.979167
0
LINE
8
BLACK
6
CONTINUOUS
10
1.94966
20
0.979167
11
1.94665
21
0.979167
0
LINE
8
BLACK
6
CONTINUOUS
10
1.94665
20
0.979167
11
1.94534
21
0.978511
0
LINE
8
BLACK
6
CONTINUOUS
10
1.96714
20
0.982218
11
1.9674
21
0.982236
0
LINE
8
BLACK
6
CONTINUOUS
10
1.9674
20
0.982236
11
1.97022
21
0.981299
0
LINE
8
BLACK
6
CONTINUOUS
10
1.97022
20
0.981299
11
1.97049
21
0.981059
0
LINE
8
BLACK
6
CONTINUOUS
10
1.97049
20
0.981059
11
1.97083
21
0.980918
0
LINE
8
BLACK
6
CONTINUOUS
10
1.97083
20
0.980918
11
1.97271
21
0.979044
0
LINE
8
BLACK
6
CONTINUOUS
10
1.97271
20
0.979044
11
1.9728
21
0.978804
0
LINE
8
BLACK
6
CONTINUOUS
10
1.9728
20
0.978804
11
1.973
21
0.978634
0
LINE
8
BLACK
6
CONTINUOUS
10
1.973
20
0.978634
11
1.97394
21
0.97676
0
LINE
8
BLACK
6
CONTINUOUS
10
1.97394
20
0.97676
11
1.97395
21
0.976581
0
LINE
8
BLACK
6
CONTINUOUS
10
1.97395
20
0.976581
11
1.97406
21
0.976437
0
LINE
8
BLACK
6
CONTINUOUS
10
1.97406
20
0.976437
11
1.97499
21
0.972688
0
LINE
8
BLACK
6
CONTINUOUS
10
1.97499
20
0.972688
11
1.97497
21
0.97249
0
LINE
8
BLACK
6
CONTINUOUS
10
1.97497
20
0.97249
11
1.97504
21
0.972306
0
LINE
8
BLACK
6
CONTINUOUS
10
1.97504
20
0.972306
11
1.97504
21
0.969494
0
LINE
8
BLACK
6
CONTINUOUS
10
1.97504
20
0.969494
11
1.97497
21
0.969309
0
LINE
8
BLACK
6
CONTINUOUS
10
1.97497
20
0.969309
11
1.97499
21
0.969112
0
LINE
8
BLACK
6
CONTINUOUS
10
1.97499
20
0.969112
11
1.97406
21
0.965362
0
LINE
8
BLACK
6
CONTINUOUS
10
1.97406
20
0.965362
11
1.97395
21
0.965218
0
LINE
8
BLACK
6
CONTINUOUS
10
1.97395
20
0.965218
11
1.97394
21
0.96504
0
LINE
8
BLACK
6
CONTINUOUS
10
1.97394
20
0.96504
11
1.973
21
0.963165
0
LINE
8
BLACK
6
CONTINUOUS
10
1.973
20
0.963165
11
1.9728
21
0.962995
0
LINE
8
BLACK
6
CONTINUOUS
10
1.9728
20
0.962995
11
1.97271
21
0.962756
0
LINE
8
BLACK
6
CONTINUOUS
10
1.97271
20
0.962756
11
1.97083
21
0.960881
0
LINE
8
BLACK
6
CONTINUOUS
10
1.97083
20
0.960881
11
1.97049
21
0.960741
0
LINE
8
BLACK
6
CONTINUOUS
10
1.97049
20
0.960741
11
1.97022
21
0.960501
0
LINE
8
BLACK
6
CONTINUOUS
10
1.97022
20
0.960501
11
1.9674
21
0.959563
0
LINE
8
BLACK
6
CONTINUOUS
10
1.9674
20
0.959563
11
1.96714
21
0.959582
0
LINE
8
BLACK
6
CONTINUOUS
10
1.96714
20
0.959582
11
1.96691
21
0.959482
0
LINE
8
BLACK
6
CONTINUOUS
10
1.96691
20
0.959482
11
1.96503
21
0.959482
0
LINE
8
BLACK
6
CONTINUOUS
10
1.96503
20
0.959482
11
1.96479
21
0.959581
0
LINE
8
BLACK
6
CONTINUOUS
10
1.96479
20
0.959581
11
1.96453
21
0.959563
0
LINE
8
BLACK
6
CONTINUOUS
10
1.96453
20
0.959563
11
1.96172
21
0.960501
0
LINE
8
BLACK
6
CONTINUOUS
10
1.96172
20
0.960501
11
1.96144
21
0.960741
0
LINE
8
BLACK
6
CONTINUOUS
10
1.96144
20
0.960741
11
1.9611
21
0.960881
0
LINE
8
BLACK
6
CONTINUOUS
10
1.9611
20
0.960881
11
1.96017
21
0.961818
0
LINE
8
BLACK
6
CONTINUOUS
10
1.96017
20
0.961818
11
1.95971
21
0.962932
0
LINE
8
BLACK
6
CONTINUOUS
10
1.95971
20
0.962932
11
1.96017
21
0.964045
0
LINE
8
BLACK
6
CONTINUOUS
10
1.96017
20
0.964045
11
1.96128
21
0.964507
0
LINE
8
BLACK
6
CONTINUOUS
10
1.96128
20
0.964507
11
1.96239
21
0.964045
0
LINE
8
BLACK
6
CONTINUOUS
10
1.96239
20
0.964045
11
1.96307
21
0.963371
0
LINE
8
BLACK
6
CONTINUOUS
10
1.96307
20
0.963371
11
1.96529
21
0.962632
0
LINE
8
BLACK
6
CONTINUOUS
10
1.96529
20
0.962632
11
1.96665
21
0.962632
0
LINE
8
BLACK
6
CONTINUOUS
10
1.96665
20
0.962632
11
1.96887
21
0.963371
0
LINE
8
BLACK
6
CONTINUOUS
10
1.96887
20
0.963371
11
1.9703
21
0.964802
0
LINE
8
BLACK
6
CONTINUOUS
10
1.9703
20
0.964802
11
1.97104
21
0.966294
0
LINE
8
BLACK
6
CONTINUOUS
10
1.97104
20
0.966294
11
1.97189
21
0.969687
0
LINE
8
BLACK
6
CONTINUOUS
10
1.97189
20
0.969687
11
1.97189
21
0.972112
0
LINE
8
BLACK
6
CONTINUOUS
10
1.97189
20
0.972112
11
1.97104
21
0.975506
0
LINE
8
BLACK
6
CONTINUOUS
10
1.97104
20
0.975506
11
1.9703
21
0.976997
0
LINE
8
BLACK
6
CONTINUOUS
10
1.9703
20
0.976997
11
1.96887
21
0.978428
0
LINE
8
BLACK
6
CONTINUOUS
10
1.96887
20
0.978428
11
1.96665
21
0.979167
0
LINE
8
BLACK
6
CONTINUOUS
10
1.96665
20
0.979167
11
1.96529
21
0.979167
0
LINE
8
BLACK
6
CONTINUOUS
10
1.96529
20
0.979167
11
1.96307
21
0.978428
0
LINE
8
BLACK
6
CONTINUOUS
10
1.96307
20
0.978428
11
1.96239
21
0.977754
0
LINE
8
BLACK
6
CONTINUOUS
10
1.96239
20
0.977754
11
1.96128
21
0.977293
0
LINE
8
BLACK
6
CONTINUOUS
10
1.96128
20
0.977293
11
1.96017
21
0.977754
0
LINE
8
BLACK
6
CONTINUOUS
10
1.96017
20
0.977754
11
1.95971
21
0.978867
0
LINE
8
BLACK
6
CONTINUOUS
10
1.95971
20
0.978867
11
1.96017
21
0.979981
0
LINE
8
BLACK
6
CONTINUOUS
10
1.96017
20
0.979981
11
1.9611
21
0.980918
0
LINE
8
BLACK
6
CONTINUOUS
10
1.9611
20
0.980918
11
1.96144
21
0.981059
0
LINE
8
BLACK
6
CONTINUOUS
10
1.96144
20
0.981059
11
1.96172
21
0.981299
0
LINE
8
BLACK
6
CONTINUOUS
10
1.96172
20
0.981299
11
1.96453
21
0.982236
0
LINE
8
BLACK
6
CONTINUOUS
10
1.96453
20
0.982236
11
1.96479
21
0.982218
0
LINE
8
BLACK
6
CONTINUOUS
10
1.96479
20
0.982218
11
1.96503
21
0.982317
0
LINE
8
BLACK
6
CONTINUOUS
10
1.96503
20
0.982317
11
1.96691
21
0.982317
0
LINE
8
BLACK
6
CONTINUOUS
10
1.96691
20
0.982317
11
1.96714
21
0.982218
0
LINE
8
BLACK
6
CONTINUOUS
10
1.99737
20
0.996575
11
1.99876
21
0.995998
0
LINE
8
BLACK
6
CONTINUOUS
10
1.99876
20
0.995998
11
1.99934
21
0.994606
0
LINE
8
BLACK
6
CONTINUOUS
10
1.99934
20
0.994606
11
1.99934
21
0.945394
0
LINE
8
BLACK
6
CONTINUOUS
10
1.99934
20
0.945394
11
1.99876
21
0.944002
0
LINE
8
BLACK
6
CONTINUOUS
10
1.99876
20
0.944002
11
1.99737
21
0.943425
0
LINE
8
BLACK
6
CONTINUOUS
10
1.99737
20
0.943425
11
1.91863
21
0.943425
0
LINE
8
BLACK
6
CONTINUOUS
10
1.91863
20
0.943425
11
1.91724
21
0.944002
0
LINE
8
BLACK
6
CONTINUOUS
10
1.91724
20
0.944002
11
1.91666
21
0.945394
0
LINE
8
BLACK
6
CONTINUOUS
10
1.91666
20
0.945394
11
1.91666
21
0.994606
0
LINE
8
BLACK
6
CONTINUOUS
10
1.91666
20
0.994606
11
1.91724
21
0.995998
0
LINE
8
BLACK
6
CONTINUOUS
10
1.91724
20
0.995998
11
1.91863
21
0.996575
0
LINE
8
BLACK
6
CONTINUOUS
10
1.91863
20
0.996575
11
1.99737
21
0.996575
0
LINE
8
BLACK
6
CONTINUOUS
10
1.9206
20
0.992638
11
1.9206
21
0.947362
0
LINE
8
BLACK
6
CONTINUOUS
10
1.9206
20
0.947362
11
1.9954
21
0.947362
0
LINE
8
BLACK
6
CONTINUOUS
10
1.9954
20
0.947362
11
1.9954
21
0.992638
0
LINE
8
BLACK
6
CONTINUOUS
10
1.9954
20
0.992638
11
1.9206
21
0.992638
0
LINE
8
BLACK
6
CONTINUOUS
10
1.45788
20
1.07714
11
1.45824
21
1.07711
0
LINE
8
BLACK
6
CONTINUOUS
10
1.45824
20
1.07711
11
1.46012
21
1.07617
0
LINE
8
BLACK
6
CONTINUOUS
10
1.46012
20
1.07617
11
1.46029
21
1.07598
0
LINE
8
BLACK
6
CONTINUOUS
10
1.46029
20
1.07598
11
1.46052
21
1.07588
0
LINE
8
BLACK
6
CONTINUOUS
10
1.46052
20
1.07588
11
1.46146
21
1.07494
0
LINE
8
BLACK
6
CONTINUOUS
10
1.46146
20
1.07494
11
1.46192
21
1.07383
0
LINE
8
BLACK
6
CONTINUOUS
10
1.46192
20
1.07383
11
1.46146
21
1.07271
0
LINE
8
BLACK
6
CONTINUOUS
10
1.46146
20
1.07271
11
1.46035
21
1.07225
0
LINE
8
BLACK
6
CONTINUOUS
10
1.46035
20
1.07225
11
1.45924
21
1.07271
0
LINE
8
BLACK
6
CONTINUOUS
10
1.45924
20
1.07271
11
1.45848
21
1.07347
0
LINE
8
BLACK
6
CONTINUOUS
10
1.45848
20
1.07347
11
1.45716
21
1.07413
0
LINE
8
BLACK
6
CONTINUOUS
10
1.45716
20
1.07413
11
1.45322
21
1.07413
0
LINE
8
BLACK
6
CONTINUOUS
10
1.45322
20
1.07413
11
1.45191
21
1.07347
0
LINE
8
BLACK
6
CONTINUOUS
10
1.45191
20
1.07347
11
1.45133
21
1.0729
0
LINE
8
BLACK
6
CONTINUOUS
10
1.45133
20
1.0729
11
1.45067
21
1.07158
0
LINE
8
BLACK
6
CONTINUOUS
10
1.45067
20
1.07158
11
1.45067
21
1.07033
0
LINE
8
BLACK
6
CONTINUOUS
10
1.45067
20
1.07033
11
1.45141
21
1.06812
0
LINE
8
BLACK
6
CONTINUOUS
10
1.45141
20
1.06812
11
1.4624
21
1.05713
0
LINE
8
BLACK
6
CONTINUOUS
10
1.4624
20
1.05713
11
1.46286
21
1.05602
0
LINE
8
BLACK
6
CONTINUOUS
10
1.46286
20
1.05602
11
1.4624
21
1.0549
0
LINE
8
BLACK
6
CONTINUOUS
10
1.4624
20
1.0549
11
1.46129
21
1.05444
0
LINE
8
BLACK
6
CONTINUOUS
10
1.46129
20
1.05444
11
1.4491
21
1.05444
0
LINE
8
BLACK
6
CONTINUOUS
10
1.4491
20
1.05444
11
1.44799
21
1.0549
0
LINE
8
BLACK
6
CONTINUOUS
10
1.44799
20
1.0549
11
1.44753
21
1.05602
0
LINE
8
BLACK
6
CONTINUOUS
10
1.44753
20
1.05602
11
1.44799
21
1.05713
0
LINE
8
BLACK
6
CONTINUOUS
10
1.44799
20
1.05713
11
1.4491
21
1.05759
0
LINE
8
BLACK
6
CONTINUOUS
10
1.4491
20
1.05759
11
1.45748
21
1.05759
0
LINE
8
BLACK
6
CONTINUOUS
10
1.45748
20
1.05759
11
1.44892
21
1.06615
0
LINE
8
BLACK
6
CONTINUOUS
10
1.44892
20
1.06615
11
1.44878
21
1.06649
0
LINE
8
BLACK
6
CONTINUOUS
10
1.44878
20
1.06649
11
1.44854
21
1.06677
0
LINE
8
BLACK
6
CONTINUOUS
10
1.44854
20
1.06677
11
1.44761
21
1.06958
0
LINE
8
BLACK
6
CONTINUOUS
10
1.44761
20
1.06958
11
1.44762
21
1.06984
0
LINE
8
BLACK
6
CONTINUOUS
10
1.44762
20
1.06984
11
1.44753
21
1.07008
0
LINE
8
BLACK
6
CONTINUOUS
10
1.44753
20
1.07008
11
1.44753
21
1.07195
0
LINE
8
BLACK
6
CONTINUOUS
10
1.44753
20
1.07195
11
1.44767
21
1.07229
0
LINE
8
BLACK
6
CONTINUOUS
10
1.44767
20
1.07229
11
1.44769
21
1.07266
0
LINE
8
BLACK
6
CONTINUOUS
10
1.44769
20
1.07266
11
1.44863
21
1.07453
0
LINE
8
BLACK
6
CONTINUOUS
10
1.44863
20
1.07453
11
1.44882
21
1.0747
0
LINE
8
BLACK
6
CONTINUOUS
10
1.44882
20
1.0747
11
1.44892
21
1.07494
0
LINE
8
BLACK
6
CONTINUOUS
10
1.44892
20
1.07494
11
1.44986
21
1.07588
0
LINE
8
BLACK
6
CONTINUOUS
10
1.44986
20
1.07588
11
1.4501
21
1.07598
0
LINE
8
BLACK
6
CONTINUOUS
10
1.4501
20
1.07598
11
1.45027
21
1.07617
0
LINE
8
BLACK
6
CONTINUOUS
10
1.45027
20
1.07617
11
1.45215
21
1.07711
0
LINE
8
BLACK
6
CONTINUOUS
10
1.45215
20
1.07711
11
1.45251
21
1.07714
0
LINE
8
BLACK
6
CONTINUOUS
10
1.45251
20
1.07714
11
1.45285
21
1.07728
0
LINE
8
BLACK
6
CONTINUOUS
10
1.45285
20
1.07728
11
1.45754
21
1.07728
0
LINE
8
BLACK
6
CONTINUOUS
10
1.45754
20
1.07728
11
1.45788
21
1.07714
0
LINE
8
BLACK
6
CONTINUOUS
10
1.47371
20
1.07718
11
1.47397
21
1.0772
0
LINE
8
BLACK
6
CONTINUOUS
10
1.47397
20
1.0772
11
1.47678
21
1.07626
0
LINE
8
BLACK
6
CONTINUOUS
10
1.47678
20
1.07626
11
1.47706
21
1.07602
0
LINE
8
BLACK
6
CONTINUOUS
10
1.47706
20
1.07602
11
1.4774
21
1.07588
0
LINE
8
BLACK
6
CONTINUOUS
10
1.4774
20
1.07588
11
1.47927
21
1.074
0
LINE
8
BLACK
6
CONTINUOUS
10
1.47927
20
1.074
11
1.47937
21
1.07376
0
LINE
8
BLACK
6
CONTINUOUS
10
1.47937
20
1.07376
11
1.47957
21
1.07359
0
LINE
8
BLACK
6
CONTINUOUS
10
1.47957
20
1.07359
11
1.4805
21
1.07172
0
LINE
8
BLACK
6
CONTINUOUS
10
1.4805
20
1.07172
11
1.48052
21
1.07154
0
LINE
8
BLACK
6
CONTINUOUS
10
1.48052
20
1.07154
11
1.48062
21
1.0714
0
LINE
8
BLACK
6
CONTINUOUS
10
1.48062
20
1.0714
11
1.48156
21
1.06765
0
LINE
8
BLACK
6
CONTINUOUS
10
1.48156
20
1.06765
11
1.48153
21
1.06745
0
LINE
8
BLACK
6
CONTINUOUS
10
1.48153
20
1.06745
11
1.48161
21
1.06727
0
LINE
8
BLACK
6
CONTINUOUS
10
1.48161
20
1.06727
11
1.48161
21
1.06445
0
LINE
8
BLACK
6
CONTINUOUS
10
1.48161
20
1.06445
11
1.48153
21
1.06427
0
LINE
8
BLACK
6
CONTINUOUS
10
1.48153
20
1.06427
11
1.48156
21
1.06407
0
LINE
8
BLACK
6
CONTINUOUS
10
1.48156
20
1.06407
11
1.48062
21
1.06032
0
LINE
8
BLACK
6
CONTINUOUS
10
1.48062
20
1.06032
11
1.48052
21
1.06018
0
LINE
8
BLACK
6
CONTINUOUS
10
1.48052
20
1.06018
11
1.4805
21
1.06
0
LINE
8
BLACK
6
CONTINUOUS
10
1.4805
20
1.06
11
1.47957
21
1.05813
0
LINE
8
BLACK
6
CONTINUOUS
10
1.47957
20
1.05813
11
1.47937
21
1.05796
0
LINE
8
BLACK
6
CONTINUOUS
10
1.47937
20
1.05796
11
1.47927
21
1.05772
0
LINE
8
BLACK
6
CONTINUOUS
10
1.47927
20
1.05772
11
1.4774
21
1.05584
0
LINE
8
BLACK
6
CONTINUOUS
10
1.4774
20
1.05584
11
1.47706
21
1.0557
0
LINE
8
BLACK
6
CONTINUOUS
10
1.47706
20
1.0557
11
1.47678
21
1.05546
0
LINE
8
BLACK
6
CONTINUOUS
10
1.47678
20
1.05546
11
1.47397
21
1.05452
0
LINE
8
BLACK
6
CONTINUOUS
10
1.47397
20
1.05452
11
1.47371
21
1.05454
0
LINE
8
BLACK
6
CONTINUOUS
10
1.47371
20
1.05454
11
1.47347
21
1.05444
0
LINE
8
BLACK
6
CONTINUOUS
10
1.47347
20
1.05444
11
1.4716
21
1.05444
0
LINE
8
BLACK
6
CONTINUOUS
10
1.4716
20
1.05444
11
1.47136
21
1.05454
0
LINE
8
BLACK
6
CONTINUOUS
10
1.47136
20
1.05454
11
1.4711
21
1.05452
0
LINE
8
BLACK
6
CONTINUOUS
10
1.4711
20
1.05452
11
1.46829
21
1.05546
0
LINE
8
BLACK
6
CONTINUOUS
10
1.46829
20
1.05546
11
1.46801
21
1.0557
0
LINE
8
BLACK
6
CONTINUOUS
10
1.46801
20
1.0557
11
1.46767
21
1.05584
0
LINE
8
BLACK
6
CONTINUOUS
10
1.46767
20
1.05584
11
1.46673
21
1.05678
0
LINE
8
BLACK
6
CONTINUOUS
10
1.46673
20
1.05678
11
1.46627
21
1.05789
0
LINE
8
BLACK
6
CONTINUOUS
10
1.46627
20
1.05789
11
1.46673
21
1.05901
0
LINE
8
BLACK
6
CONTINUOUS
10
1.46673
20
1.05901
11
1.46785
21
1.05947
0
LINE
8
BLACK
6
CONTINUOUS
10
1.46785
20
1.05947
11
1.46896
21
1.05901
0
LINE
8
BLACK
6
CONTINUOUS
10
1.46896
20
1.05901
11
1.46964
21
1.05833
0
LINE
8
BLACK
6
CONTINUOUS
10
1.46964
20
1.05833
11
1.47185
21
1.05759
0
LINE
8
BLACK
6
CONTINUOUS
10
1.47185
20
1.05759
11
1.47322
21
1.05759
0
LINE
8
BLACK
6
CONTINUOUS
10
1.47322
20
1.05759
11
1.47543
21
1.05833
0
LINE
8
BLACK
6
CONTINUOUS
10
1.47543
20
1.05833
11
1.47686
21
1.05976
0
LINE
8
BLACK
6
CONTINUOUS
10
1.47686
20
1.05976
11
1.47761
21
1.06125
0
LINE
8
BLACK
6
CONTINUOUS
10
1.47761
20
1.06125
11
1.47846
21
1.06465
0
LINE
8
BLACK
6
CONTINUOUS
10
1.47846
20
1.06465
11
1.47846
21
1.06707
0
LINE
8
BLACK
6
CONTINUOUS
10
1.47846
20
1.06707
11
1.47761
21
1.07047
0
LINE
8
BLACK
6
CONTINUOUS
10
1.47761
20
1.07047
11
1.47686
21
1.07196
0
LINE
8
BLACK
6
CONTINUOUS
10
1.47686
20
1.07196
11
1.47543
21
1.07339
0
LINE
8
BLACK
6
CONTINUOUS
10
1.47543
20
1.07339
11
1.47322
21
1.07413
0
LINE
8
BLACK
6
CONTINUOUS
10
1.47322
20
1.07413
11
1.47185
21
1.07413
0
LINE
8
BLACK
6
CONTINUOUS
10
1.47185
20
1.07413
11
1.46964
21
1.07339
0
LINE
8
BLACK
6
CONTINUOUS
10
1.46964
20
1.07339
11
1.46896
21
1.07271
0
LINE
8
BLACK
6
CONTINUOUS
10
1.46896
20
1.07271
11
1.46785
21
1.07225
0
LINE
8
BLACK
6
CONTINUOUS
10
1.46785
20
1.07225
11
1.46673
21
1.07271
0
LINE
8
BLACK
6
CONTINUOUS
10
1.46673
20
1.07271
11
1.46627
21
1.07383
0
LINE
8
BLACK
6
CONTINUOUS
10
1.46627
20
1.07383
11
1.46673
21
1.07494
0
LINE
8
BLACK
6
CONTINUOUS
10
1.46673
20
1.07494
11
1.46767
21
1.07588
0
LINE
8
BLACK
6
CONTINUOUS
10
1.46767
20
1.07588
11
1.46801
21
1.07602
0
LINE
8
BLACK
6
CONTINUOUS
10
1.46801
20
1.07602
11
1.46829
21
1.07626
0
LINE
8
BLACK
6
CONTINUOUS
10
1.46829
20
1.07626
11
1.4711
21
1.0772
0
LINE
8
BLACK
6
CONTINUOUS
10
1.4711
20
1.0772
11
1.47136
21
1.07718
0
LINE
8
BLACK
6
CONTINUOUS
10
1.47136
20
1.07718
11
1.4716
21
1.07728
0
LINE
8
BLACK
6
CONTINUOUS
10
1.4716
20
1.07728
11
1.47347
21
1.07728
0
LINE
8
BLACK
6
CONTINUOUS
10
1.47347
20
1.07728
11
1.47371
21
1.07718
0
LINE
8
BLACK
6
CONTINUOUS
10
1.50394
20
1.09154
11
1.50533
21
1.09096
0
LINE
8
BLACK
6
CONTINUOUS
10
1.50533
20
1.09096
11
1.50591
21
1.08957
0
LINE
8
BLACK
6
CONTINUOUS
10
1.50591
20
1.08957
11
1.50591
21
1.04035
0
LINE
8
BLACK
6
CONTINUOUS
10
1.50591
20
1.04035
11
1.50533
21
1.03896
0
LINE
8
BLACK
6
CONTINUOUS
10
1.50533
20
1.03896
11
1.50394
21
1.03839
0
LINE
8
BLACK
6
CONTINUOUS
10
1.50394
20
1.03839
11
1.4252
21
1.03839
0
LINE
8
BLACK
6
CONTINUOUS
10
1.4252
20
1.03839
11
1.4238
21
1.03896
0
LINE
8
BLACK
6
CONTINUOUS
10
1.4238
20
1.03896
11
1.42323
21
1.04035
0
LINE
8
BLACK
6
CONTINUOUS
10
1.42323
20
1.04035
11
1.42323
21
1.04035
0
LINE
8
BLACK
6
CONTINUOUS
10
1.42323
20
1.04035
11
1.42323
21
1.08957
0
LINE
8
BLACK
6
CONTINUOUS
10
1.42323
20
1.08957
11
1.4238
21
1.09096
0
LINE
8
BLACK
6
CONTINUOUS
10
1.4238
20
1.09096
11
1.4252
21
1.09154
0
LINE
8
BLACK
6
CONTINUOUS
10
1.4252
20
1.09154
11
1.50394
21
1.09154
0
LINE
8
BLACK
6
CONTINUOUS
10
1.42717
20
1.0876
11
1.42717
21
1.04232
0
LINE
8
BLACK
6
CONTINUOUS
10
1.42717
20
1.04232
11
1.50197
21
1.04232
0
LINE
8
BLACK
6
CONTINUOUS
10
1.50197
20
1.04232
11
1.50197
21
1.0876
0
LINE
8
BLACK
6
CONTINUOUS
10
1.50197
20
1.0876
11
1.42717
21
1.0876
0
LINE
8
BLACK
6
CONTINUOUS
10
1.0925
20
1.08304
11
1.09286
21
1.08302
0
LINE
8
BLACK
6
CONTINUOUS
10
1.09286
20
1.08302
11
1.09474
21
1.08208
0
LINE
8
BLACK
6
CONTINUOUS
10
1.09474
20
1.08208
11
1.09491
21
1.08188
0
LINE
8
BLACK
6
CONTINUOUS
10
1.09491
20
1.08188
11
1.09515
21
1.08178
0
LINE
8
BLACK
6
CONTINUOUS
10
1.09515
20
1.08178
11
1.09608
21
1.08085
0
LINE
8
BLACK
6
CONTINUOUS
10
1.09608
20
1.08085
11
1.09615
21
1.0807
0
LINE
8
BLACK
6
CONTINUOUS
10
1.09615
20
1.0807
11
1.09628
21
1.08061
0
LINE
8
BLACK
6
CONTINUOUS
10
1.09628
20
1.08061
11
1.09815
21
1.07779
0
LINE
8
BLACK
6
CONTINUOUS
10
1.09815
20
1.07779
11
1.09821
21
1.07752
0
LINE
8
BLACK
6
CONTINUOUS
10
1.09821
20
1.07752
11
1.09837
21
1.0773
0
LINE
8
BLACK
6
CONTINUOUS
10
1.09837
20
1.0773
11
1.09931
21
1.07355
0
LINE
8
BLACK
6
CONTINUOUS
10
1.09931
20
1.07355
11
1.09928
21
1.07336
0
LINE
8
BLACK
6
CONTINUOUS
10
1.09928
20
1.07336
11
1.09936
21
1.07317
0
LINE
8
BLACK
6
CONTINUOUS
10
1.09936
20
1.07317
11
1.09936
21
1.06567
0
LINE
8
BLACK
6
CONTINUOUS
10
1.09936
20
1.06567
11
1.09922
21
1.06533
0
LINE
8
BLACK
6
CONTINUOUS
10
1.09922
20
1.06533
11
1.09919
21
1.06497
0
LINE
8
BLACK
6
CONTINUOUS
10
1.09919
20
1.06497
11
1.09825
21
1.06309
0
LINE
8
BLACK
6
CONTINUOUS
10
1.09825
20
1.06309
11
1.09806
21
1.06292
0
LINE
8
BLACK
6
CONTINUOUS
10
1.09806
20
1.06292
11
1.09796
21
1.06268
0
LINE
8
BLACK
6
CONTINUOUS
10
1.09796
20
1.06268
11
1.09702
21
1.06175
0
LINE
8
BLACK
6
CONTINUOUS
10
1.09702
20
1.06175
11
1.09678
21
1.06165
0
LINE
8
BLACK
6
CONTINUOUS
10
1.09678
20
1.06165
11
1.09661
21
1.06145
0
LINE
8
BLACK
6
CONTINUOUS
10
1.09661
20
1.06145
11
1.09474
21
1.06051
0
LINE
8
BLACK
6
CONTINUOUS
10
1.09474
20
1.06051
11
1.09437
21
1.06049
0
LINE
8
BLACK
6
CONTINUOUS
10
1.09437
20
1.06049
11
1.09403
21
1.06035
0
LINE
8
BLACK
6
CONTINUOUS
10
1.09403
20
1.06035
11
1.09028
21
1.06035
0
LINE
8
BLACK
6
CONTINUOUS
10
1.09028
20
1.06035
11
1.08994
21
1.06049
0
LINE
8
BLACK
6
CONTINUOUS
10
1.08994
20
1.06049
11
1.08958
21
1.06051
0
LINE
8
BLACK
6
CONTINUOUS
10
1.08958
20
1.06051
11
1.0877
21
1.06145
0
LINE
8
BLACK
6
CONTINUOUS
10
1.0877
20
1.06145
11
1.08753
21
1.06165
0
LINE
8
BLACK
6
CONTINUOUS
10
1.08753
20
1.06165
11
1.08729
21
1.06175
0
LINE
8
BLACK
6
CONTINUOUS
10
1.08729
20
1.06175
11
1.08636
21
1.06268
0
LINE
8
BLACK
6
CONTINUOUS
10
1.08636
20
1.06268
11
1.08626
21
1.06292
0
LINE
8
BLACK
6
CONTINUOUS
10
1.08626
20
1.06292
11
1.08606
21
1.06309
0
LINE
8
BLACK
6
CONTINUOUS
10
1.08606
20
1.06309
11
1.08512
21
1.06497
0
LINE
8
BLACK
6
CONTINUOUS
10
1.08512
20
1.06497
11
1.0851
21
1.06533
0
LINE
8
BLACK
6
CONTINUOUS
10
1.0851
20
1.06533
11
1.08496
21
1.06567
0
LINE
8
BLACK
6
CONTINUOUS
10
1.08496
20
1.06567
11
1.08496
21
1.07036
0
LINE
8
BLACK
6
CONTINUOUS
10
1.08496
20
1.07036
11
1.0851
21
1.0707
0
LINE
8
BLACK
6
CONTINUOUS
10
1.0851
20
1.0707
11
1.08512
21
1.07106
0
LINE
8
BLACK
6
CONTINUOUS
10
1.08512
20
1.07106
11
1.08606
21
1.07294
0
LINE
8
BLACK
6
CONTINUOUS
10
1.08606
20
1.07294
11
1.08626
21
1.07311
0
LINE
8
BLACK
6
CONTINUOUS
10
1.08626
20
1.07311
11
1.08636
21
1.07335
0
LINE
8
BLACK
6
CONTINUOUS
10
1.08636
20
1.07335
11
1.08729
21
1.07429
0
LINE
8
BLACK
6
CONTINUOUS
10
1.08729
20
1.07429
11
1.08753
21
1.07438
0
LINE
8
BLACK
6
CONTINUOUS
10
1.08753
20
1.07438
11
1.0877
21
1.07458
0
LINE
8
BLACK
6
CONTINUOUS
10
1.0877
20
1.07458
11
1.08958
21
1.07552
0
LINE
8
BLACK
6
CONTINUOUS
10
1.08958
20
1.07552
11
1.08994
21
1.07554
0
LINE
8
BLACK
6
CONTINUOUS
10
1.08994
20
1.07554
11
1.09028
21
1.07568
0
LINE
8
BLACK
6
CONTINUOUS
10
1.09028
20
1.07568
11
1.09403
21
1.07568
0
LINE
8
BLACK
6
CONTINUOUS
10
1.09403
20
1.07568
11
1.09437
21
1.07554
0
LINE
8
BLACK
6
CONTINUOUS
10
1.09437
20
1.07554
11
1.09474
21
1.07552
0
LINE
8
BLACK
6
CONTINUOUS
10
1.09474
20
1.07552
11
1.09569
21
1.07504
0
LINE
8
BLACK
6
CONTINUOUS
10
1.09569
20
1.07504
11
1.09538
21
1.07627
0
LINE
8
BLACK
6
CONTINUOUS
10
1.09538
20
1.07627
11
1.09375
21
1.07873
0
LINE
8
BLACK
6
CONTINUOUS
10
1.09375
20
1.07873
11
1.0931
21
1.07938
0
LINE
8
BLACK
6
CONTINUOUS
10
1.0931
20
1.07938
11
1.09179
21
1.08003
0
LINE
8
BLACK
6
CONTINUOUS
10
1.09179
20
1.08003
11
1.08841
21
1.08003
0
LINE
8
BLACK
6
CONTINUOUS
10
1.08841
20
1.08003
11
1.08729
21
1.08049
0
LINE
8
BLACK
6
CONTINUOUS
10
1.08729
20
1.08049
11
1.08683
21
1.08161
0
LINE
8
BLACK
6
CONTINUOUS
10
1.08683
20
1.08161
11
1.08729
21
1.08272
0
LINE
8
BLACK
6
CONTINUOUS
10
1.08729
20
1.08272
11
1.08841
21
1.08318
0
LINE
8
BLACK
6
CONTINUOUS
10
1.08841
20
1.08318
11
1.09216
21
1.08318
0
LINE
8
BLACK
6
CONTINUOUS
10
1.09216
20
1.08318
11
1.0925
21
1.08304
0
LINE
8
BLACK
6
CONTINUOUS
10
1.08934
20
1.07188
11
1.08876
21
1.0713
0
LINE
8
BLACK
6
CONTINUOUS
10
1.08876
20
1.0713
11
1.08811
21
1.06999
0
LINE
8
BLACK
6
CONTINUOUS
10
1.08811
20
1.06999
11
1.08811
21
1.06604
0
LINE
8
BLACK
6
CONTINUOUS
10
1.08811
20
1.06604
11
1.08876
21
1.06473
0
LINE
8
BLACK
6
CONTINUOUS
10
1.08876
20
1.06473
11
1.08934
21
1.06415
0
LINE
8
BLACK
6
CONTINUOUS
10
1.08934
20
1.06415
11
1.09065
21
1.0635
0
LINE
8
BLACK
6
CONTINUOUS
10
1.09065
20
1.0635
11
1.09366
21
1.0635
0
LINE
8
BLACK
6
CONTINUOUS
10
1.09366
20
1.0635
11
1.09497
21
1.06415
0
LINE
8
BLACK
6
CONTINUOUS
10
1.09497
20
1.06415
11
1.09555
21
1.06473
0
LINE
8
BLACK
6
CONTINUOUS
10
1.09555
20
1.06473
11
1.09621
21
1.06604
0
LINE
8
BLACK
6
CONTINUOUS
10
1.09621
20
1.06604
11
1.09621
21
1.06999
0
LINE
8
BLACK
6
CONTINUOUS
10
1.09621
20
1.06999
11
1.09555
21
1.0713
0
LINE
8
BLACK
6
CONTINUOUS
10
1.09555
20
1.0713
11
1.09497
21
1.07188
0
LINE
8
BLACK
6
CONTINUOUS
10
1.09497
20
1.07188
11
1.09366
21
1.07253
0
LINE
8
BLACK
6
CONTINUOUS
10
1.09366
20
1.07253
11
1.09065
21
1.07253
0
LINE
8
BLACK
6
CONTINUOUS
10
1.09065
20
1.07253
11
1.08934
21
1.07188
0
LINE
8
BLACK
6
CONTINUOUS
10
1.11114
20
1.08308
11
1.1114
21
1.0831
0
LINE
8
BLACK
6
CONTINUOUS
10
1.1114
20
1.0831
11
1.11422
21
1.08216
0
LINE
8
BLACK
6
CONTINUOUS
10
1.11422
20
1.08216
11
1.11449
21
1.08192
0
LINE
8
BLACK
6
CONTINUOUS
10
1.11449
20
1.08192
11
1.11483
21
1.08178
0
LINE
8
BLACK
6
CONTINUOUS
10
1.11483
20
1.08178
11
1.11671
21
1.07991
0
LINE
8
BLACK
6
CONTINUOUS
10
1.11671
20
1.07991
11
1.1168
21
1.07967
0
LINE
8
BLACK
6
CONTINUOUS
10
1.1168
20
1.07967
11
1.117
21
1.0795
0
LINE
8
BLACK
6
CONTINUOUS
10
1.117
20
1.0795
11
1.11794
21
1.07763
0
LINE
8
BLACK
6
CONTINUOUS
10
1.11794
20
1.07763
11
1.11795
21
1.07745
0
LINE
8
BLACK
6
CONTINUOUS
10
1.11795
20
1.07745
11
1.11806
21
1.0773
0
LINE
8
BLACK
6
CONTINUOUS
10
1.11806
20
1.0773
11
1.11899
21
1.07355
0
LINE
8
BLACK
6
CONTINUOUS
10
1.11899
20
1.07355
11
1.11897
21
1.07336
0
LINE
8
BLACK
6
CONTINUOUS
10
1.11897
20
1.07336
11
1.11904
21
1.07317
0
LINE
8
BLACK
6
CONTINUOUS
10
1.11904
20
1.07317
11
1.11904
21
1.07036
0
LINE
8
BLACK
6
CONTINUOUS
10
1.11904
20
1.07036
11
1.11897
21
1.07018
0
LINE
8
BLACK
6
CONTINUOUS
10
1.11897
20
1.07018
11
1.11899
21
1.06998
0
LINE
8
BLACK
6
CONTINUOUS
10
1.11899
20
1.06998
11
1.11806
21
1.06623
0
LINE
8
BLACK
6
CONTINUOUS
10
1.11806
20
1.06623
11
1.11795
21
1.06608
0
LINE
8
BLACK
6
CONTINUOUS
10
1.11795
20
1.06608
11
1.11794
21
1.06591
0
LINE
8
BLACK
6
CONTINUOUS
10
1.11794
20
1.06591
11
1.117
21
1.06403
0
LINE
8
BLACK
6
CONTINUOUS
10
1.117
20
1.06403
11
1.1168
21
1.06386
0
LINE
8
BLACK
6
CONTINUOUS
10
1.1168
20
1.06386
11
1.11671
21
1.06362
0
LINE
8
BLACK
6
CONTINUOUS
10
1.11671
20
1.06362
11
1.11483
21
1.06175
0
LINE
8
BLACK
6
CONTINUOUS
10
1.11483
20
1.06175
11
1.11449
21
1.06161
0
LINE
8
BLACK
6
CONTINUOUS
10
1.11449
20
1.06161
11
1.11422
21
1.06137
0
LINE
8
BLACK
6
CONTINUOUS
10
1.11422
20
1.06137
11
1.1114
21
1.06043
0
LINE
8
BLACK
6
CONTINUOUS
10
1.1114
20
1.06043
11
1.11114
21
1.06045
0
LINE
8
BLACK
6
CONTINUOUS
10
1.11114
20
1.06045
11
1.11091
21
1.06035
0
LINE
8
BLACK
6
CONTINUOUS
10
1.11091
20
1.06035
11
1.10903
21
1.06035
0
LINE
8
BLACK
6
CONTINUOUS
10
1.10903
20
1.06035
11
1.10879
21
1.06045
0
LINE
8
BLACK
6
CONTINUOUS
10
1.10879
20
1.06045
11
1.10853
21
1.06043
0
LINE
8
BLACK
6
CONTINUOUS
10
1.10853
20
1.06043
11
1.10572
21
1.06137
0
LINE
8
BLACK
6
CONTINUOUS
10
1.10572
20
1.06137
11
1.10544
21
1.06161
0
LINE
8
BLACK
6
CONTINUOUS
10
1.10544
20
1.06161
11
1.1051
21
1.06175
0
LINE
8
BLACK
6
CONTINUOUS
10
1.1051
20
1.06175
11
1.10417
21
1.06268
0
LINE
8
BLACK
6
CONTINUOUS
10
1.10417
20
1.06268
11
1.10371
21
1.0638
0
LINE
8
BLACK
6
CONTINUOUS
10
1.10371
20
1.0638
11
1.10417
21
1.06491
0
LINE
8
BLACK
6
CONTINUOUS
10
1.10417
20
1.06491
11
1.10528
21
1.06537
0
LINE
8
BLACK
6
CONTINUOUS
10
1.10528
20
1.06537
11
1.10639
21
1.06491
0
LINE
8
BLACK
6
CONTINUOUS
10
1.10639
20
1.06491
11
1.10707
21
1.06424
0
LINE
8
BLACK
6
CONTINUOUS
10
1.10707
20
1.06424
11
1.10929
21
1.0635
0
LINE
8
BLACK
6
CONTINUOUS
10
1.10929
20
1.0635
11
1.11065
21
1.0635
0
LINE
8
BLACK
6
CONTINUOUS
10
1.11065
20
1.0635
11
1.11287
21
1.06424
0
LINE
8
BLACK
6
CONTINUOUS
10
1.11287
20
1.06424
11
1.1143
21
1.06567
0
LINE
8
BLACK
6
CONTINUOUS
10
1.1143
20
1.06567
11
1.11504
21
1.06716
0
LINE
8
BLACK
6
CONTINUOUS
10
1.11504
20
1.06716
11
1.11589
21
1.07055
0
LINE
8
BLACK
6
CONTINUOUS
10
1.11589
20
1.07055
11
1.11589
21
1.07298
0
LINE
8
BLACK
6
CONTINUOUS
10
1.11589
20
1.07298
11
1.11504
21
1.07637
0
LINE
8
BLACK
6
CONTINUOUS
10
1.11504
20
1.07637
11
1.1143
21
1.07786
0
LINE
8
BLACK
6
CONTINUOUS
10
1.1143
20
1.07786
11
1.11287
21
1.07929
0
LINE
8
BLACK
6
CONTINUOUS
10
1.11287
20
1.07929
11
1.11065
21
1.08003
0
LINE
8
BLACK
6
CONTINUOUS
10
1.11065
20
1.08003
11
1.10929
21
1.08003
0
LINE
8
BLACK
6
CONTINUOUS
10
1.10929
20
1.08003
11
1.10707
21
1.07929
0
LINE
8
BLACK
6
CONTINUOUS
10
1.10707
20
1.07929
11
1.10639
21
1.07862
0
LINE
8
BLACK
6
CONTINUOUS
10
1.10639
20
1.07862
11
1.10528
21
1.07816
0
LINE
8
BLACK
6
CONTINUOUS
10
1.10528
20
1.07816
11
1.10417
21
1.07862
0
LINE
8
BLACK
6
CONTINUOUS
10
1.10417
20
1.07862
11
1.10371
21
1.07973
0
LINE
8
BLACK
6
CONTINUOUS
10
1.10371
20
1.07973
11
1.10417
21
1.08085
0
LINE
8
BLACK
6
CONTINUOUS
10
1.10417
20
1.08085
11
1.1051
21
1.08178
0
LINE
8
BLACK
6
CONTINUOUS
10
1.1051
20
1.08178
11
1.10544
21
1.08192
0
LINE
8
BLACK
6
CONTINUOUS
10
1.10544
20
1.08192
11
1.10572
21
1.08216
0
LINE
8
BLACK
6
CONTINUOUS
10
1.10572
20
1.08216
11
1.10853
21
1.0831
0
LINE
8
BLACK
6
CONTINUOUS
10
1.10853
20
1.0831
11
1.10879
21
1.08308
0
LINE
8
BLACK
6
CONTINUOUS
10
1.10879
20
1.08308
11
1.10903
21
1.08318
0
LINE
8
BLACK
6
CONTINUOUS
10
1.10903
20
1.08318
11
1.11091
21
1.08318
0
LINE
8
BLACK
6
CONTINUOUS
10
1.11091
20
1.08318
11
1.11114
21
1.08308
0
LINE
8
BLACK
6
CONTINUOUS
10
1.14137
20
1.09744
11
1.14276
21
1.09686
0
LINE
8
BLACK
6
CONTINUOUS
10
1.14276
20
1.09686
11
1.14334
21
1.09547
0
LINE
8
BLACK
6
CONTINUOUS
10
1.14334
20
1.09547
11
1.14334
21
1.04626
0
LINE
8
BLACK
6
CONTINUOUS
10
1.14334
20
1.04626
11
1.14276
21
1.04487
0
LINE
8
BLACK
6
CONTINUOUS
10
1.14276
20
1.04487
11
1.14137
21
1.04429
0
LINE
8
BLACK
6
CONTINUOUS
10
1.14137
20
1.04429
11
1.06263
21
1.04429
0
LINE
8
BLACK
6
CONTINUOUS
10
1.06263
20
1.04429
11
1.06124
21
1.04487
0
LINE
8
BLACK
6
CONTINUOUS
10
1.06124
20
1.04487
11
1.06066
21
1.04626
0
LINE
8
BLACK
6
CONTINUOUS
10
1.06066
20
1.04626
11
1.06066
21
1.04626
0
LINE
8
BLACK
6
CONTINUOUS
10
1.06066
20
1.04626
11
1.06066
21
1.09547
0
LINE
8
BLACK
6
CONTINUOUS
10
1.06066
20
1.09547
11
1.06124
21
1.09686
0
LINE
8
BLACK
6
CONTINUOUS
10
1.06124
20
1.09686
11
1.06263
21
1.09744
0
LINE
8
BLACK
6
CONTINUOUS
10
1.06263
20
1.09744
11
1.14137
21
1.09744
0
LINE
8
BLACK
6
CONTINUOUS
10
1.0646
20
1.0935
11
1.0646
21
1.04823
0
LINE
8
BLACK
6
CONTINUOUS
10
1.0646
20
1.04823
11
1.1394
21
1.04823
0
LINE
8
BLACK
6
CONTINUOUS
10
1.1394
20
1.04823
11
1.1394
21
1.0935
0
LINE
8
BLACK
6
CONTINUOUS
10
1.1394
20
1.0935
11
1.0646
21
1.0935
0
LINE
8
BLACK
6
CONTINUOUS
10
1.24271
20
1.08331
11
1.24318
21
1.0822
0
LINE
8
BLACK
6
CONTINUOUS
10
1.24318
20
1.0822
11
1.24271
21
1.08109
0
LINE
8
BLACK
6
CONTINUOUS
10
1.24271
20
1.08109
11
1.2416
21
1.08062
0
LINE
8
BLACK
6
CONTINUOUS
10
1.2416
20
1.08062
11
1.23289
21
1.08062
0
LINE
8
BLACK
6
CONTINUOUS
10
1.23289
20
1.08062
11
1.23716
21
1.07574
0
LINE
8
BLACK
6
CONTINUOUS
10
1.23716
20
1.07574
11
1.23734
21
1.07521
0
LINE
8
BLACK
6
CONTINUOUS
10
1.23734
20
1.07521
11
1.23755
21
1.0747
0
LINE
8
BLACK
6
CONTINUOUS
10
1.23755
20
1.0747
11
1.23753
21
1.07465
0
LINE
8
BLACK
6
CONTINUOUS
10
1.23753
20
1.07465
11
1.23755
21
1.0746
0
LINE
8
BLACK
6
CONTINUOUS
10
1.23755
20
1.0746
11
1.2373
21
1.0741
0
LINE
8
BLACK
6
CONTINUOUS
10
1.2373
20
1.0741
11
1.23709
21
1.07359
0
LINE
8
BLACK
6
CONTINUOUS
10
1.23709
20
1.07359
11
1.23704
21
1.07356
0
LINE
8
BLACK
6
CONTINUOUS
10
1.23704
20
1.07356
11
1.23701
21
1.07351
0
LINE
8
BLACK
6
CONTINUOUS
10
1.23701
20
1.07351
11
1.23649
21
1.07334
0
LINE
8
BLACK
6
CONTINUOUS
10
1.23649
20
1.07334
11
1.23598
21
1.07312
0
LINE
8
BLACK
6
CONTINUOUS
10
1.23598
20
1.07312
11
1.23354
21
1.07312
0
LINE
8
BLACK
6
CONTINUOUS
10
1.23354
20
1.07312
11
1.23222
21
1.07247
0
LINE
8
BLACK
6
CONTINUOUS
10
1.23222
20
1.07247
11
1.23165
21
1.07189
0
LINE
8
BLACK
6
CONTINUOUS
10
1.23165
20
1.07189
11
1.23099
21
1.07058
0
LINE
8
BLACK
6
CONTINUOUS
10
1.23099
20
1.07058
11
1.23099
21
1.06664
0
LINE
8
BLACK
6
CONTINUOUS
10
1.23099
20
1.06664
11
1.23165
21
1.06532
0
LINE
8
BLACK
6
CONTINUOUS
10
1.23165
20
1.06532
11
1.23222
21
1.06475
0
LINE
8
BLACK
6
CONTINUOUS
10
1.23222
20
1.06475
11
1.23354
21
1.06409
0
LINE
8
BLACK
6
CONTINUOUS
10
1.23354
20
1.06409
11
1.23842
21
1.06409
0
LINE
8
BLACK
6
CONTINUOUS
10
1.23842
20
1.06409
11
1.23973
21
1.06475
0
LINE
8
BLACK
6
CONTINUOUS
10
1.23973
20
1.06475
11
1.24049
21
1.0655
0
LINE
8
BLACK
6
CONTINUOUS
10
1.24049
20
1.0655
11
1.2416
21
1.06596
0
LINE
8
BLACK
6
CONTINUOUS
10
1.2416
20
1.06596
11
1.24271
21
1.0655
0
LINE
8
BLACK
6
CONTINUOUS
10
1.24271
20
1.0655
11
1.24318
21
1.06439
0
LINE
8
BLACK
6
CONTINUOUS
10
1.24318
20
1.06439
11
1.24271
21
1.06327
0
LINE
8
BLACK
6
CONTINUOUS
10
1.24271
20
1.06327
11
1.24178
21
1.06234
0
LINE
8
BLACK
6
CONTINUOUS
10
1.24178
20
1.06234
11
1.24154
21
1.06224
0
LINE
8
BLACK
6
CONTINUOUS
10
1.24154
20
1.06224
11
1.24137
21
1.06204
0
LINE
8
BLACK
6
CONTINUOUS
10
1.24137
20
1.06204
11
1.23949
21
1.06111
0
LINE
8
BLACK
6
CONTINUOUS
10
1.23949
20
1.06111
11
1.23913
21
1.06108
0
LINE
8
BLACK
6
CONTINUOUS
10
1.23913
20
1.06108
11
1.23879
21
1.06094
0
LINE
8
BLACK
6
CONTINUOUS
10
1.23879
20
1.06094
11
1.23316
21
1.06094
0
LINE
8
BLACK
6
CONTINUOUS
10
1.23316
20
1.06094
11
1.23283
21
1.06108
0
LINE
8
BLACK
6
CONTINUOUS
10
1.23283
20
1.06108
11
1.23246
21
1.06111
0
LINE
8
BLACK
6
CONTINUOUS
10
1.23246
20
1.06111
11
1.23059
21
1.06204
0
LINE
8
BLACK
6
CONTINUOUS
10
1.23059
20
1.06204
11
1.23042
21
1.06224
0
LINE
8
BLACK
6
CONTINUOUS
10
1.23042
20
1.06224
11
1.23018
21
1.06234
0
LINE
8
BLACK
6
CONTINUOUS
10
1.23018
20
1.06234
11
1.22924
21
1.06328
0
LINE
8
BLACK
6
CONTINUOUS
10
1.22924
20
1.06328
11
1.22914
21
1.06351
0
LINE
8
BLACK
6
CONTINUOUS
10
1.22914
20
1.06351
11
1.22894
21
1.06368
0
LINE
8
BLACK
6
CONTINUOUS
10
1.22894
20
1.06368
11
1.22801
21
1.06556
0
LINE
8
BLACK
6
CONTINUOUS
10
1.22801
20
1.06556
11
1.22798
21
1.06592
0
LINE
8
BLACK
6
CONTINUOUS
10
1.22798
20
1.06592
11
1.22784
21
1.06626
0
LINE
8
BLACK
6
CONTINUOUS
10
1.22784
20
1.06626
11
1.22784
21
1.07095
0
LINE
8
BLACK
6
CONTINUOUS
10
1.22784
20
1.07095
11
1.22798
21
1.07129
0
LINE
8
BLACK
6
CONTINUOUS
10
1.22798
20
1.07129
11
1.22801
21
1.07165
0
LINE
8
BLACK
6
CONTINUOUS
10
1.22801
20
1.07165
11
1.22894
21
1.07353
0
LINE
8
BLACK
6
CONTINUOUS
10
1.22894
20
1.07353
11
1.22914
21
1.0737
0
LINE
8
BLACK
6
CONTINUOUS
10
1.22914
20
1.0737
11
1.22924
21
1.07394
0
LINE
8
BLACK
6
CONTINUOUS
10
1.22924
20
1.07394
11
1.23018
21
1.07488
0
LINE
8
BLACK
6
CONTINUOUS
10
1.23018
20
1.07488
11
1.23042
21
1.07498
0
LINE
8
BLACK
6
CONTINUOUS
10
1.23042
20
1.07498
11
1.23059
21
1.07517
0
LINE
8
BLACK
6
CONTINUOUS
10
1.23059
20
1.07517
11
1.23246
21
1.07611
0
LINE
8
BLACK
6
CONTINUOUS
10
1.23246
20
1.07611
11
1.23264
21
1.07612
0
LINE
8
BLACK
6
CONTINUOUS
10
1.23264
20
1.07612
11
1.22823
21
1.08116
0
LINE
8
BLACK
6
CONTINUOUS
10
1.22823
20
1.08116
11
1.22805
21
1.08169
0
LINE
8
BLACK
6
CONTINUOUS
10
1.22805
20
1.08169
11
1.22784
21
1.0822
0
LINE
8
BLACK
6
CONTINUOUS
10
1.22784
20
1.0822
11
1.22786
21
1.08225
0
LINE
8
BLACK
6
CONTINUOUS
10
1.22786
20
1.08225
11
1.22784
21
1.0823
0
LINE
8
BLACK
6
CONTINUOUS
10
1.22784
20
1.0823
11
1.22809
21
1.0828
0
LINE
8
BLACK
6
CONTINUOUS
10
1.22809
20
1.0828
11
1.2283
21
1.08331
0
LINE
8
BLACK
6
CONTINUOUS
10
1.2283
20
1.08331
11
1.22835
21
1.08333
0
LINE
8
BLACK
6
CONTINUOUS
10
1.22835
20
1.08333
11
1.22838
21
1.08338
0
LINE
8
BLACK
6
CONTINUOUS
10
1.22838
20
1.08338
11
1.2289
21
1.08356
0
LINE
8
BLACK
6
CONTINUOUS
10
1.2289
20
1.08356
11
1.22942
21
1.08377
0
LINE
8
BLACK
6
CONTINUOUS
10
1.22942
20
1.08377
11
1.2416
21
1.08377
0
LINE
8
BLACK
6
CONTINUOUS
10
1.2416
20
1.08377
11
1.24271
21
1.08331
0
LINE
8
BLACK
6
CONTINUOUS
10
1.25403
20
1.08367
11
1.25428
21
1.08369
0
LINE
8
BLACK
6
CONTINUOUS
10
1.25428
20
1.08369
11
1.2571
21
1.08276
0
LINE
8
BLACK
6
CONTINUOUS
10
1.2571
20
1.08276
11
1.25737
21
1.08252
0
LINE
8
BLACK
6
CONTINUOUS
10
1.25737
20
1.08252
11
1.25771
21
1.08237
0
LINE
8
BLACK
6
CONTINUOUS
10
1.25771
20
1.08237
11
1.25959
21
1.0805
0
LINE
8
BLACK
6
CONTINUOUS
10
1.25959
20
1.0805
11
1.25969
21
1.08026
0
LINE
8
BLACK
6
CONTINUOUS
10
1.25969
20
1.08026
11
1.25988
21
1.08009
0
LINE
8
BLACK
6
CONTINUOUS
10
1.25988
20
1.08009
11
1.26082
21
1.07822
0
LINE
8
BLACK
6
CONTINUOUS
10
1.26082
20
1.07822
11
1.26083
21
1.07804
0
LINE
8
BLACK
6
CONTINUOUS
10
1.26083
20
1.07804
11
1.26094
21
1.07789
0
LINE
8
BLACK
6
CONTINUOUS
10
1.26094
20
1.07789
11
1.26188
21
1.07414
0
LINE
8
BLACK
6
CONTINUOUS
10
1.26188
20
1.07414
11
1.26185
21
1.07395
0
LINE
8
BLACK
6
CONTINUOUS
10
1.26185
20
1.07395
11
1.26192
21
1.07376
0
LINE
8
BLACK
6
CONTINUOUS
10
1.26192
20
1.07376
11
1.26192
21
1.07095
0
LINE
8
BLACK
6
CONTINUOUS
10
1.26192
20
1.07095
11
1.26185
21
1.07077
0
LINE
8
BLACK
6
CONTINUOUS
10
1.26185
20
1.07077
11
1.26188
21
1.07057
0
LINE
8
BLACK
6
CONTINUOUS
10
1.26188
20
1.07057
11
1.26094
21
1.06682
0
LINE
8
BLACK
6
CONTINUOUS
10
1.26094
20
1.06682
11
1.26083
21
1.06668
0
LINE
8
BLACK
6
CONTINUOUS
10
1.26083
20
1.06668
11
1.26082
21
1.0665
0
LINE
8
BLACK
6
CONTINUOUS
10
1.26082
20
1.0665
11
1.25988
21
1.06462
0
LINE
8
BLACK
6
CONTINUOUS
10
1.25988
20
1.06462
11
1.25969
21
1.06445
0
LINE
8
BLACK
6
CONTINUOUS
10
1.25969
20
1.06445
11
1.25959
21
1.06421
0
LINE
8
BLACK
6
CONTINUOUS
10
1.25959
20
1.06421
11
1.25771
21
1.06234
0
LINE
8
BLACK
6
CONTINUOUS
10
1.25771
20
1.06234
11
1.25737
21
1.0622
0
LINE
8
BLACK
6
CONTINUOUS
10
1.25737
20
1.0622
11
1.2571
21
1.06196
0
LINE
8
BLACK
6
CONTINUOUS
10
1.2571
20
1.06196
11
1.25428
21
1.06102
0
LINE
8
BLACK
6
CONTINUOUS
10
1.25428
20
1.06102
11
1.25403
21
1.06104
0
LINE
8
BLACK
6
CONTINUOUS
10
1.25403
20
1.06104
11
1.25379
21
1.06094
0
LINE
8
BLACK
6
CONTINUOUS
10
1.25379
20
1.06094
11
1.25191
21
1.06094
0
LINE
8
BLACK
6
CONTINUOUS
10
1.25191
20
1.06094
11
1.25167
21
1.06104
0
LINE
8
BLACK
6
CONTINUOUS
10
1.25167
20
1.06104
11
1.25141
21
1.06102
0
LINE
8
BLACK
6
CONTINUOUS
10
1.25141
20
1.06102
11
1.2486
21
1.06196
0
LINE
8
BLACK
6
CONTINUOUS
10
1.2486
20
1.06196
11
1.24833
21
1.0622
0
LINE
8
BLACK
6
CONTINUOUS
10
1.24833
20
1.0622
11
1.24799
21
1.06234
0
LINE
8
BLACK
6
CONTINUOUS
10
1.24799
20
1.06234
11
1.24705
21
1.06328
0
LINE
8
BLACK
6
CONTINUOUS
10
1.24705
20
1.06328
11
1.24659
21
1.06439
0
LINE
8
BLACK
6
CONTINUOUS
10
1.24659
20
1.06439
11
1.24705
21
1.0655
0
LINE
8
BLACK
6
CONTINUOUS
10
1.24705
20
1.0655
11
1.24816
21
1.06596
0
LINE
8
BLACK
6
CONTINUOUS
10
1.24816
20
1.06596
11
1.24928
21
1.0655
0
LINE
8
BLACK
6
CONTINUOUS
10
1.24928
20
1.0655
11
1.24995
21
1.06483
0
LINE
8
BLACK
6
CONTINUOUS
10
1.24995
20
1.06483
11
1.25217
21
1.06409
0
LINE
8
BLACK
6
CONTINUOUS
10
1.25217
20
1.06409
11
1.25353
21
1.06409
0
LINE
8
BLACK
6
CONTINUOUS
10
1.25353
20
1.06409
11
1.25575
21
1.06483
0
LINE
8
BLACK
6
CONTINUOUS
10
1.25575
20
1.06483
11
1.25718
21
1.06626
0
LINE
8
BLACK
6
CONTINUOUS
10
1.25718
20
1.06626
11
1.25793
21
1.06775
0
LINE
8
BLACK
6
CONTINUOUS
10
1.25793
20
1.06775
11
1.25877
21
1.07114
0
LINE
8
BLACK
6
CONTINUOUS
10
1.25877
20
1.07114
11
1.25877
21
1.07357
0
LINE
8
BLACK
6
CONTINUOUS
10
1.25877
20
1.07357
11
1.25793
21
1.07696
0
LINE
8
BLACK
6
CONTINUOUS
10
1.25793
20
1.07696
11
1.25718
21
1.07845
0
LINE
8
BLACK
6
CONTINUOUS
10
1.25718
20
1.07845
11
1.25575
21
1.07989
0
LINE
8
BLACK
6
CONTINUOUS
10
1.25575
20
1.07989
11
1.25353
21
1.08062
0
LINE
8
BLACK
6
CONTINUOUS
10
1.25353
20
1.08062
11
1.25217
21
1.08062
0
LINE
8
BLACK
6
CONTINUOUS
10
1.25217
20
1.08062
11
1.24995
21
1.07989
0
LINE
8
BLACK
6
CONTINUOUS
10
1.24995
20
1.07989
11
1.24928
21
1.07921
0
LINE
8
BLACK
6
CONTINUOUS
10
1.24928
20
1.07921
11
1.24816
21
1.07875
0
LINE
8
BLACK
6
CONTINUOUS
10
1.24816
20
1.07875
11
1.24705
21
1.07921
0
LINE
8
BLACK
6
CONTINUOUS
10
1.24705
20
1.07921
11
1.24659
21
1.08032
0
LINE
8
BLACK
6
CONTINUOUS
10
1.24659
20
1.08032
11
1.24705
21
1.08144
0
LINE
8
BLACK
6
CONTINUOUS
10
1.24705
20
1.08144
11
1.24799
21
1.08237
0
LINE
8
BLACK
6
CONTINUOUS
10
1.24799
20
1.08237
11
1.24833
21
1.08252
0
LINE
8
BLACK
6
CONTINUOUS
10
1.24833
20
1.08252
11
1.2486
21
1.08276
0
LINE
8
BLACK
6
CONTINUOUS
10
1.2486
20
1.08276
11
1.25141
21
1.08369
0
LINE
8
BLACK
6
CONTINUOUS
10
1.25141
20
1.08369
11
1.25167
21
1.08367
0
LINE
8
BLACK
6
CONTINUOUS
10
1.25167
20
1.08367
11
1.25191
21
1.08377
0
LINE
8
BLACK
6
CONTINUOUS
10
1.25191
20
1.08377
11
1.25379
21
1.08377
0
LINE
8
BLACK
6
CONTINUOUS
10
1.25379
20
1.08377
11
1.25403
21
1.08367
0
LINE
8
BLACK
6
CONTINUOUS
10
1.28425
20
1.09803
11
1.28564
21
1.09745
0
LINE
8
BLACK
6
CONTINUOUS
10
1.28564
20
1.09745
11
1.28622
21
1.09606
0
LINE
8
BLACK
6
CONTINUOUS
10
1.28622
20
1.09606
11
1.28622
21
1.04685
0
LINE
8
BLACK
6
CONTINUOUS
10
1.28622
20
1.04685
11
1.28564
21
1.04546
0
LINE
8
BLACK
6
CONTINUOUS
10
1.28564
20
1.04546
11
1.28425
21
1.04488
0
LINE
8
BLACK
6
CONTINUOUS
10
1.28425
20
1.04488
11
1.20551
21
1.04488
0
LINE
8
BLACK
6
CONTINUOUS
10
1.20551
20
1.04488
11
1.20412
21
1.04546
0
LINE
8
BLACK
6
CONTINUOUS
10
1.20412
20
1.04546
11
1.20354
21
1.04685
0
LINE
8
BLACK
6
CONTINUOUS
10
1.20354
20
1.04685
11
1.20354
21
1.04685
0
LINE
8
BLACK
6
CONTINUOUS
10
1.20354
20
1.04685
11
1.20354
21
1.09606
0
LINE
8
BLACK
6
CONTINUOUS
10
1.20354
20
1.09606
11
1.20412
21
1.09745
0
LINE
8
BLACK
6
CONTINUOUS
10
1.20412
20
1.09745
11
1.20551
21
1.09803
0
LINE
8
BLACK
6
CONTINUOUS
10
1.20551
20
1.09803
11
1.28425
21
1.09803
0
LINE
8
BLACK
6
CONTINUOUS
10
1.20748
20
1.09409
11
1.20748
21
1.04882
0
LINE
8
BLACK
6
CONTINUOUS
10
1.20748
20
1.04882
11
1.28228
21
1.04882
0
LINE
8
BLACK
6
CONTINUOUS
10
1.28228
20
1.04882
11
1.28228
21
1.09409
0
LINE
8
BLACK
6
CONTINUOUS
10
1.28228
20
1.09409
11
1.20748
21
1.09409
0
LINE
8
BLACK
6
CONTINUOUS
10
1.865
20
1.26808
11
1.86537
21
1.26806
0
LINE
8
BLACK
6
CONTINUOUS
10
1.86537
20
1.26806
11
1.86724
21
1.26712
0
LINE
8
BLACK
6
CONTINUOUS
10
1.86724
20
1.26712
11
1.86741
21
1.26692
0
LINE
8
BLACK
6
CONTINUOUS
10
1.86741
20
1.26692
11
1.86765
21
1.26682
0
LINE
8
BLACK
6
CONTINUOUS
10
1.86765
20
1.26682
11
1.86859
21
1.26589
0
LINE
8
BLACK
6
CONTINUOUS
10
1.86859
20
1.26589
11
1.86865
21
1.26574
0
LINE
8
BLACK
6
CONTINUOUS
10
1.86865
20
1.26574
11
1.86879
21
1.26565
0
LINE
8
BLACK
6
CONTINUOUS
10
1.86879
20
1.26565
11
1.87066
21
1.26283
0
LINE
8
BLACK
6
CONTINUOUS
10
1.87066
20
1.26283
11
1.87072
21
1.26256
0
LINE
8
BLACK
6
CONTINUOUS
10
1.87072
20
1.26256
11
1.87088
21
1.26234
0
LINE
8
BLACK
6
CONTINUOUS
10
1.87088
20
1.26234
11
1.87182
21
1.25859
0
LINE
8
BLACK
6
CONTINUOUS
10
1.87182
20
1.25859
11
1.87179
21
1.2584
0
LINE
8
BLACK
6
CONTINUOUS
10
1.87179
20
1.2584
11
1.87186
21
1.25821
0
LINE
8
BLACK
6
CONTINUOUS
10
1.87186
20
1.25821
11
1.87186
21
1.25071
0
LINE
8
BLACK
6
CONTINUOUS
10
1.87186
20
1.25071
11
1.87172
21
1.25037
0
LINE
8
BLACK
6
CONTINUOUS
10
1.87172
20
1.25037
11
1.8717
21
1.25001
0
LINE
8
BLACK
6
CONTINUOUS
10
1.8717
20
1.25001
11
1.87076
21
1.24813
0
LINE
8
BLACK
6
CONTINUOUS
10
1.87076
20
1.24813
11
1.87056
21
1.24796
0
LINE
8
BLACK
6
CONTINUOUS
10
1.87056
20
1.24796
11
1.87047
21
1.24772
0
LINE
8
BLACK
6
CONTINUOUS
10
1.87047
20
1.24772
11
1.86953
21
1.24679
0
LINE
8
BLACK
6
CONTINUOUS
10
1.86953
20
1.24679
11
1.86929
21
1.24669
0
LINE
8
BLACK
6
CONTINUOUS
10
1.86929
20
1.24669
11
1.86912
21
1.24649
0
LINE
8
BLACK
6
CONTINUOUS
10
1.86912
20
1.24649
11
1.86724
21
1.24555
0
LINE
8
BLACK
6
CONTINUOUS
10
1.86724
20
1.24555
11
1.86688
21
1.24553
0
LINE
8
BLACK
6
CONTINUOUS
10
1.86688
20
1.24553
11
1.86654
21
1.24539
0
LINE
8
BLACK
6
CONTINUOUS
10
1.86654
20
1.24539
11
1.86279
21
1.24539
0
LINE
8
BLACK
6
CONTINUOUS
10
1.86279
20
1.24539
11
1.86245
21
1.24553
0
LINE
8
BLACK
6
CONTINUOUS
10
1.86245
20
1.24553
11
1.86209
21
1.24555
0
LINE
8
BLACK
6
CONTINUOUS
10
1.86209
20
1.24555
11
1.86021
21
1.24649
0
LINE
8
BLACK
6
CONTINUOUS
10
1.86021
20
1.24649
11
1.86004
21
1.24669
0
LINE
8
BLACK
6
CONTINUOUS
10
1.86004
20
1.24669
11
1.8598
21
1.24679
0
LINE
8
BLACK
6
CONTINUOUS
10
1.8598
20
1.24679
11
1.85886
21
1.24772
0
LINE
8
BLACK
6
CONTINUOUS
10
1.85886
20
1.24772
11
1.85877
21
1.24796
0
LINE
8
BLACK
6
CONTINUOUS
10
1.85877
20
1.24796
11
1.85857
21
1.24813
0
LINE
8
BLACK
6
CONTINUOUS
10
1.85857
20
1.24813
11
1.85763
21
1.25001
0
LINE
8
BLACK
6
CONTINUOUS
10
1.85763
20
1.25001
11
1.85761
21
1.25037
0
LINE
8
BLACK
6
CONTINUOUS
10
1.85761
20
1.25037
11
1.85747
21
1.25071
0
LINE
8
BLACK
6
CONTINUOUS
10
1.85747
20
1.25071
11
1.85747
21
1.2554
0
LINE
8
BLACK
6
CONTINUOUS
10
1.85747
20
1.2554
11
1.85761
21
1.25574
0
LINE
8
BLACK
6
CONTINUOUS
10
1.85761
20
1.25574
11
1.85763
21
1.2561
0
LINE
8
BLACK
6
CONTINUOUS
10
1.85763
20
1.2561
11
1.85857
21
1.25798
0
LINE
8
BLACK
6
CONTINUOUS
10
1.85857
20
1.25798
11
1.85877
21
1.25815
0
LINE
8
BLACK
6
CONTINUOUS
10
1.85877
20
1.25815
11
1.85886
21
1.25839
0
LINE
8
BLACK
6
CONTINUOUS
10
1.85886
20
1.25839
11
1.8598
21
1.25932
0
LINE
8
BLACK
6
CONTINUOUS
10
1.8598
20
1.25932
11
1.86004
21
1.25942
0
LINE
8
BLACK
6
CONTINUOUS
10
1.86004
20
1.25942
11
1.86021
21
1.25962
0
LINE
8
BLACK
6
CONTINUOUS
10
1.86021
20
1.25962
11
1.86209
21
1.26056
0
LINE
8
BLACK
6
CONTINUOUS
10
1.86209
20
1.26056
11
1.86245
21
1.26058
0
LINE
8
BLACK
6
CONTINUOUS
10
1.86245
20
1.26058
11
1.86279
21
1.26072
0
LINE
8
BLACK
6
CONTINUOUS
10
1.86279
20
1.26072
11
1.86654
21
1.26072
0
LINE
8
BLACK
6
CONTINUOUS
10
1.86654
20
1.26072
11
1.86688
21
1.26058
0
LINE
8
BLACK
6
CONTINUOUS
10
1.86688
20
1.26058
11
1.86724
21
1.26056
0
LINE
8
BLACK
6
CONTINUOUS
10
1.86724
20
1.26056
11
1.8682
21
1.26008
0
LINE
8
BLACK
6
CONTINUOUS
10
1.8682
20
1.26008
11
1.86789
21
1.26131
0
LINE
8
BLACK
6
CONTINUOUS
10
1.86789
20
1.26131
11
1.86625
21
1.26377
0
LINE
8
BLACK
6
CONTINUOUS
10
1.86625
20
1.26377
11
1.86561
21
1.26442
0
LINE
8
BLACK
6
CONTINUOUS
10
1.86561
20
1.26442
11
1.86429
21
1.26507
0
LINE
8
BLACK
6
CONTINUOUS
10
1.86429
20
1.26507
11
1.86092
21
1.26507
0
LINE
8
BLACK
6
CONTINUOUS
10
1.86092
20
1.26507
11
1.8598
21
1.26553
0
LINE
8
BLACK
6
CONTINUOUS
10
1.8598
20
1.26553
11
1.85934
21
1.26665
0
LINE
8
BLACK
6
CONTINUOUS
10
1.85934
20
1.26665
11
1.8598
21
1.26776
0
LINE
8
BLACK
6
CONTINUOUS
10
1.8598
20
1.26776
11
1.86092
21
1.26822
0
LINE
8
BLACK
6
CONTINUOUS
10
1.86092
20
1.26822
11
1.86467
21
1.26822
0
LINE
8
BLACK
6
CONTINUOUS
10
1.86467
20
1.26822
11
1.865
21
1.26808
0
LINE
8
BLACK
6
CONTINUOUS
10
1.86185
20
1.25692
11
1.86127
21
1.25634
0
LINE
8
BLACK
6
CONTINUOUS
10
1.86127
20
1.25634
11
1.86062
21
1.25503
0
LINE
8
BLACK
6
CONTINUOUS
10
1.86062
20
1.25503
11
1.86062
21
1.25108
0
LINE
8
BLACK
6
CONTINUOUS
10
1.86062
20
1.25108
11
1.86127
21
1.24977
0
LINE
8
BLACK
6
CONTINUOUS
10
1.86127
20
1.24977
11
1.86185
21
1.24919
0
LINE
8
BLACK
6
CONTINUOUS
10
1.86185
20
1.24919
11
1.86316
21
1.24854
0
LINE
8
BLACK
6
CONTINUOUS
10
1.86316
20
1.24854
11
1.86617
21
1.24854
0
LINE
8
BLACK
6
CONTINUOUS
10
1.86617
20
1.24854
11
1.86748
21
1.24919
0
LINE
8
BLACK
6
CONTINUOUS
10
1.86748
20
1.24919
11
1.86806
21
1.24977
0
LINE
8
BLACK
6
CONTINUOUS
10
1.86806
20
1.24977
11
1.86871
21
1.25108
0
LINE
8
BLACK
6
CONTINUOUS
10
1.86871
20
1.25108
11
1.86871
21
1.25503
0
LINE
8
BLACK
6
CONTINUOUS
10
1.86871
20
1.25503
11
1.86806
21
1.25634
0
LINE
8
BLACK
6
CONTINUOUS
10
1.86806
20
1.25634
11
1.86748
21
1.25692
0
LINE
8
BLACK
6
CONTINUOUS
10
1.86748
20
1.25692
11
1.86617
21
1.25757
0
LINE
8
BLACK
6
CONTINUOUS
10
1.86617
20
1.25757
11
1.86316
21
1.25757
0
LINE
8
BLACK
6
CONTINUOUS
10
1.86316
20
1.25757
11
1.86185
21
1.25692
0
LINE
8
BLACK
6
CONTINUOUS
10
1.89015
20
1.26776
11
1.89061
21
1.26665
0
LINE
8
BLACK
6
CONTINUOUS
10
1.89061
20
1.26665
11
1.89061
21
1.24696
0
LINE
8
BLACK
6
CONTINUOUS
10
1.89061
20
1.24696
11
1.89015
21
1.24585
0
LINE
8
BLACK
6
CONTINUOUS
10
1.89015
20
1.24585
11
1.88904
21
1.24539
0
LINE
8
BLACK
6
CONTINUOUS
10
1.88904
20
1.24539
11
1.88792
21
1.24585
0
LINE
8
BLACK
6
CONTINUOUS
10
1.88792
20
1.24585
11
1.88746
21
1.24696
0
LINE
8
BLACK
6
CONTINUOUS
10
1.88746
20
1.24696
11
1.88746
21
1.25476
0
LINE
8
BLACK
6
CONTINUOUS
10
1.88746
20
1.25476
11
1.88517
21
1.25476
0
LINE
8
BLACK
6
CONTINUOUS
10
1.88517
20
1.25476
11
1.87908
21
1.24606
0
LINE
8
BLACK
6
CONTINUOUS
10
1.87908
20
1.24606
11
1.87806
21
1.24541
0
LINE
8
BLACK
6
CONTINUOUS
10
1.87806
20
1.24541
11
1.87689
21
1.24567
0
LINE
8
BLACK
6
CONTINUOUS
10
1.87689
20
1.24567
11
1.87624
21
1.24669
0
LINE
8
BLACK
6
CONTINUOUS
10
1.87624
20
1.24669
11
1.8765
21
1.24787
0
LINE
8
BLACK
6
CONTINUOUS
10
1.8765
20
1.24787
11
1.88137
21
1.25483
0
LINE
8
BLACK
6
CONTINUOUS
10
1.88137
20
1.25483
11
1.8812
21
1.2549
0
LINE
8
BLACK
6
CONTINUOUS
10
1.8812
20
1.2549
11
1.88083
21
1.25493
0
LINE
8
BLACK
6
CONTINUOUS
10
1.88083
20
1.25493
11
1.87896
21
1.25587
0
LINE
8
BLACK
6
CONTINUOUS
10
1.87896
20
1.25587
11
1.87879
21
1.25606
0
LINE
8
BLACK
6
CONTINUOUS
10
1.87879
20
1.25606
11
1.87855
21
1.25616
0
LINE
8
BLACK
6
CONTINUOUS
10
1.87855
20
1.25616
11
1.87761
21
1.2571
0
LINE
8
BLACK
6
CONTINUOUS
10
1.87761
20
1.2571
11
1.87751
21
1.25734
0
LINE
8
BLACK
6
CONTINUOUS
10
1.87751
20
1.25734
11
1.87732
21
1.25751
0
LINE
8
BLACK
6
CONTINUOUS
10
1.87732
20
1.25751
11
1.87638
21
1.25938
0
LINE
8
BLACK
6
CONTINUOUS
10
1.87638
20
1.25938
11
1.87635
21
1.25975
0
LINE
8
BLACK
6
CONTINUOUS
10
1.87635
20
1.25975
11
1.87621
21
1.26009
0
LINE
8
BLACK
6
CONTINUOUS
10
1.87621
20
1.26009
11
1.87621
21
1.2629
0
LINE
8
BLACK
6
CONTINUOUS
10
1.87621
20
1.2629
11
1.87635
21
1.26324
0
LINE
8
BLACK
6
CONTINUOUS
10
1.87635
20
1.26324
11
1.87638
21
1.2636
0
LINE
8
BLACK
6
CONTINUOUS
10
1.87638
20
1.2636
11
1.87732
21
1.26548
0
LINE
8
BLACK
6
CONTINUOUS
10
1.87732
20
1.26548
11
1.87751
21
1.26565
0
LINE
8
BLACK
6
CONTINUOUS
10
1.87751
20
1.26565
11
1.87761
21
1.26589
0
LINE
8
BLACK
6
CONTINUOUS
10
1.87761
20
1.26589
11
1.87855
21
1.26682
0
LINE
8
BLACK
6
CONTINUOUS
10
1.87855
20
1.26682
11
1.87879
21
1.26692
0
LINE
8
BLACK
6
CONTINUOUS
10
1.87879
20
1.26692
11
1.87896
21
1.26712
0
LINE
8
BLACK
6
CONTINUOUS
10
1.87896
20
1.26712
11
1.88083
21
1.26806
0
LINE
8
BLACK
6
CONTINUOUS
10
1.88083
20
1.26806
11
1.8812
21
1.26808
0
LINE
8
BLACK
6
CONTINUOUS
10
1.8812
20
1.26808
11
1.88154
21
1.26822
0
LINE
8
BLACK
6
CONTINUOUS
10
1.88154
20
1.26822
11
1.88904
21
1.26822
0
LINE
8
BLACK
6
CONTINUOUS
10
1.88904
20
1.26822
11
1.89015
21
1.26776
0
LINE
8
BLACK
6
CONTINUOUS
10
1.8806
20
1.26442
11
1.88002
21
1.26384
0
LINE
8
BLACK
6
CONTINUOUS
10
1.88002
20
1.26384
11
1.87936
21
1.26253
0
LINE
8
BLACK
6
CONTINUOUS
10
1.87936
20
1.26253
11
1.87936
21
1.26046
0
LINE
8
BLACK
6
CONTINUOUS
10
1.87936
20
1.26046
11
1.88002
21
1.25914
0
LINE
8
BLACK
6
CONTINUOUS
10
1.88002
20
1.25914
11
1.8806
21
1.25857
0
LINE
8
BLACK
6
CONTINUOUS
10
1.8806
20
1.25857
11
1.88191
21
1.25791
0
LINE
8
BLACK
6
CONTINUOUS
10
1.88191
20
1.25791
11
1.88746
21
1.25791
0
LINE
8
BLACK
6
CONTINUOUS
10
1.88746
20
1.25791
11
1.88746
21
1.26507
0
LINE
8
BLACK
6
CONTINUOUS
10
1.88746
20
1.26507
11
1.88191
21
1.26507
0
LINE
8
BLACK
6
CONTINUOUS
10
1.88191
20
1.26507
11
1.8806
21
1.26442
0
LINE
8
BLACK
6
CONTINUOUS
10
1.91388
20
1.28248
11
1.91527
21
1.2819
0
LINE
8
BLACK
6
CONTINUOUS
10
1.91527
20
1.2819
11
1.91585
21
1.28051
0
LINE
8
BLACK
6
CONTINUOUS
10
1.91585
20
1.28051
11
1.91585
21
1.2313
0
LINE
8
BLACK
6
CONTINUOUS
10
1.91585
20
1.2313
11
1.91527
21
1.22991
0
LINE
8
BLACK
6
CONTINUOUS
10
1.91527
20
1.22991
11
1.91388
21
1.22933
0
LINE
8
BLACK
6
CONTINUOUS
10
1.91388
20
1.22933
11
1.83514
21
1.22933
0
LINE
8
BLACK
6
CONTINUOUS
10
1.83514
20
1.22933
11
1.83375
21
1.22991
0
LINE
8
BLACK
6
CONTINUOUS
10
1.83375
20
1.22991
11
1.83317
21
1.2313
0
LINE
8
BLACK
6
CONTINUOUS
10
1.83317
20
1.2313
11
1.83317
21
1.28051
0
LINE
8
BLACK
6
CONTINUOUS
10
1.83317
20
1.28051
11
1.83375
21
1.2819
0
LINE
8
BLACK
6
CONTINUOUS
10
1.83375
20
1.2819
11
1.83514
21
1.28248
0
LINE
8
BLACK
6
CONTINUOUS
10
1.83514
20
1.28248
11
1.91388
21
1.28248
0
LINE
8
BLACK
6
CONTINUOUS
10
1.83711
20
1.27854
11
1.83711
21
1.23327
0
LINE
8
BLACK
6
CONTINUOUS
10
1.83711
20
1.23327
11
1.91191
21
1.23327
0
LINE
8
BLACK
6
CONTINUOUS
10
1.91191
20
1.23327
11
1.91191
21
1.27854
0
LINE
8
BLACK
6
CONTINUOUS
10
1.91191
20
1.27854
11
1.83711
21
1.27854
0
LINE
8
BLACK
6
CONTINUOUS
10
1.95095
20
1.38953
11
1.97448
21
1.366
0
LINE
8
BLACK
6
CONTINUOUS
10
1.97448
20
1.366
11
1.97448
21
1.38744
0
LINE
8
BLACK
6
CONTINUOUS
10
1.97448
20
1.38744
11
1.97466
21
1.38845
0
LINE
8
BLACK
6
CONTINUOUS
10
1.97466
20
1.38845
11
1.97596
21
1.39
0
LINE
8
BLACK
6
CONTINUOUS
10
1.97596
20
1.39
11
1.97795
21
1.39035
0
LINE
8
BLACK
6
CONTINUOUS
10
1.97795
20
1.39035
11
1.9797
21
1.38934
0
LINE
8
BLACK
6
CONTINUOUS
10
1.9797
20
1.38934
11
1.98039
21
1.38744
0
LINE
8
BLACK
6
CONTINUOUS
10
1.98039
20
1.38744
11
1.98039
21
1.33744
0
LINE
8
BLACK
6
CONTINUOUS
10
1.98039
20
1.33744
11
1.98021
21
1.33643
0
LINE
8
BLACK
6
CONTINUOUS
10
1.98021
20
1.33643
11
1.97891
21
1.33489
0
LINE
8
BLACK
6
CONTINUOUS
10
1.97891
20
1.33489
11
1.97692
21
1.33454
0
LINE
8
BLACK
6
CONTINUOUS
10
1.97692
20
1.33454
11
1.97517
21
1.33555
0
LINE
8
BLACK
6
CONTINUOUS
10
1.97517
20
1.33555
11
1.97448
21
1.33744
0
LINE
8
BLACK
6
CONTINUOUS
10
1.97448
20
1.33744
11
1.97448
21
1.35765
0
LINE
8
BLACK
6
CONTINUOUS
10
1.97448
20
1.35765
11
1.97061
21
1.36152
0
LINE
8
BLACK
6
CONTINUOUS
10
1.97061
20
1.36152
11
1.95122
21
1.33567
0
LINE
8
BLACK
6
CONTINUOUS
10
1.95122
20
1.33567
11
1.95048
21
1.33497
0
LINE
8
BLACK
6
CONTINUOUS
10
1.95048
20
1.33497
11
1.94851
21
1.33451
0
LINE
8
BLACK
6
CONTINUOUS
10
1.94851
20
1.33451
11
1.94671
21
1.33543
0
LINE
8
BLACK
6
CONTINUOUS
10
1.94671
20
1.33543
11
1.94591
21
1.33728
0
LINE
8
BLACK
6
CONTINUOUS
10
1.94591
20
1.33728
11
1.9465
21
1.33922
0
LINE
8
BLACK
6
CONTINUOUS
10
1.9465
20
1.33922
11
1.96639
21
1.36574
0
LINE
8
BLACK
6
CONTINUOUS
10
1.96639
20
1.36574
11
1.94677
21
1.38536
0
LINE
8
BLACK
6
CONTINUOUS
10
1.94677
20
1.38536
11
1.94619
21
1.3862
0
LINE
8
BLACK
6
CONTINUOUS
10
1.94619
20
1.3862
11
1.94601
21
1.38821
0
LINE
8
BLACK
6
CONTINUOUS
10
1.94601
20
1.38821
11
1.94717
21
1.38986
0
LINE
8
BLACK
6
CONTINUOUS
10
1.94717
20
1.38986
11
1.94912
21
1.39039
0
LINE
8
BLACK
6
CONTINUOUS
10
1.94912
20
1.39039
11
1.95095
21
1.38953
0
LINE
8
BLACK
6
CONTINUOUS
10
1.98835
20
1.41704
11
1.98876
21
1.4167
0
LINE
8
BLACK
6
CONTINUOUS
10
1.98876
20
1.4167
11
1.98886
21
1.41682
0
LINE
8
BLACK
6
CONTINUOUS
10
1.98886
20
1.41682
11
1.99085
21
1.41718
0
LINE
8
BLACK
6
CONTINUOUS
10
1.99085
20
1.41718
11
1.9926
21
1.41617
0
LINE
8
BLACK
6
CONTINUOUS
10
1.9926
20
1.41617
11
1.99329
21
1.41427
0
LINE
8
BLACK
6
CONTINUOUS
10
1.99329
20
1.41427
11
1.99329
21
1.30227
0
LINE
8
BLACK
6
CONTINUOUS
10
1.99329
20
1.30227
11
1.99311
21
1.30126
0
LINE
8
BLACK
6
CONTINUOUS
10
1.99311
20
1.30126
11
1.99181
21
1.29971
0
LINE
8
BLACK
6
CONTINUOUS
10
1.99181
20
1.29971
11
1.98983
21
1.29936
0
LINE
8
BLACK
6
CONTINUOUS
10
1.98983
20
1.29936
11
1.98969
21
1.29944
0
LINE
8
BLACK
6
CONTINUOUS
10
1.98969
20
1.29944
11
1.98934
21
1.29931
0
LINE
8
BLACK
6
CONTINUOUS
10
1.98934
20
1.29931
11
1.79434
21
1.29931
0
LINE
8
BLACK
6
CONTINUOUS
10
1.79434
20
1.29931
11
1.79333
21
1.29949
0
LINE
8
BLACK
6
CONTINUOUS
10
1.79333
20
1.29949
11
1.7932
21
1.2996
0
LINE
8
BLACK
6
CONTINUOUS
10
1.7932
20
1.2996
11
1.79183
21
1.29936
0
LINE
8
BLACK
6
CONTINUOUS
10
1.79183
20
1.29936
11
1.79008
21
1.30037
0
LINE
8
BLACK
6
CONTINUOUS
10
1.79008
20
1.30037
11
1.78939
21
1.30227
0
LINE
8
BLACK
6
CONTINUOUS
10
1.78939
20
1.30227
11
1.78939
21
1.41427
0
LINE
8
BLACK
6
CONTINUOUS
10
1.78939
20
1.41427
11
1.78945
21
1.41465
0
LINE
8
BLACK
6
CONTINUOUS
10
1.78945
20
1.41465
11
1.78943
21
1.41478
0
LINE
8
BLACK
6
CONTINUOUS
10
1.78943
20
1.41478
11
1.7895
21
1.41489
0
LINE
8
BLACK
6
CONTINUOUS
10
1.7895
20
1.41489
11
1.78956
21
1.41528
0
LINE
8
BLACK
6
CONTINUOUS
10
1.78956
20
1.41528
11
1.79006
21
1.41587
0
LINE
8
BLACK
6
CONTINUOUS
10
1.79006
20
1.41587
11
1.79044
21
1.41653
0
LINE
8
BLACK
6
CONTINUOUS
10
1.79044
20
1.41653
11
1.79069
21
1.41662
0
LINE
8
BLACK
6
CONTINUOUS
10
1.79069
20
1.41662
11
1.79086
21
1.41682
0
LINE
8
BLACK
6
CONTINUOUS
10
1.79086
20
1.41682
11
1.79162
21
1.41696
0
LINE
8
BLACK
6
CONTINUOUS
10
1.79162
20
1.41696
11
1.79234
21
1.41722
0
LINE
8
BLACK
6
CONTINUOUS
10
1.79234
20
1.41722
11
1.98734
21
1.41722
0
LINE
8
BLACK
6
CONTINUOUS
10
1.98734
20
1.41722
11
1.98835
21
1.41704
0
LINE
8
BLACK
6
CONTINUOUS
10
1.98734
20
1.41131
11
1.79529
21
1.41131
0
LINE
8
BLACK
6
CONTINUOUS
10
1.79529
20
1.41131
11
1.79529
21
1.30522
0
LINE
8
BLACK
6
CONTINUOUS
10
1.79529
20
1.30522
11
1.98739
21
1.30522
0
LINE
8
BLACK
6
CONTINUOUS
10
1.98739
20
1.30522
11
1.98739
21
1.41133
0
LINE
8
BLACK
6
CONTINUOUS
10
1.98739
20
1.41133
11
1.98734
21
1.41131
0
LINE
8
BLACK
6
CONTINUOUS
10
1.71622
20
1.38428
11
1.71636
21
1.38417
0
LINE
8
BLACK
6
CONTINUOUS
10
1.71636
20
1.38417
11
1.71653
21
1.38415
0
LINE
8
BLACK
6
CONTINUOUS
10
1.71653
20
1.38415
11
1.7213
21
1.38177
0
LINE
8
BLACK
6
CONTINUOUS
10
1.7213
20
1.38177
11
1.72201
21
1.38124
0
LINE
8
BLACK
6
CONTINUOUS
10
1.72201
20
1.38124
11
1.72206
21
1.38121
0
LINE
8
BLACK
6
CONTINUOUS
10
1.72206
20
1.38121
11
1.72444
21
1.37883
0
LINE
8
BLACK
6
CONTINUOUS
10
1.72444
20
1.37883
11
1.72503
21
1.37799
0
LINE
8
BLACK
6
CONTINUOUS
10
1.72503
20
1.37799
11
1.72521
21
1.37598
0
LINE
8
BLACK
6
CONTINUOUS
10
1.72521
20
1.37598
11
1.72405
21
1.37433
0
LINE
8
BLACK
6
CONTINUOUS
10
1.72405
20
1.37433
11
1.7221
21
1.3738
0
LINE
8
BLACK
6
CONTINUOUS
10
1.7221
20
1.3738
11
1.72027
21
1.37466
0
LINE
8
BLACK
6
CONTINUOUS
10
1.72027
20
1.37466
11
1.71823
21
1.3767
0
LINE
8
BLACK
6
CONTINUOUS
10
1.71823
20
1.3767
11
1.71452
21
1.37855
0
LINE
8
BLACK
6
CONTINUOUS
10
1.71452
20
1.37855
11
1.70401
21
1.37855
0
LINE
8
BLACK
6
CONTINUOUS
10
1.70401
20
1.37855
11
1.7003
21
1.3767
0
LINE
8
BLACK
6
CONTINUOUS
10
1.7003
20
1.3767
11
1.69859
21
1.375
0
LINE
8
BLACK
6
CONTINUOUS
10
1.69859
20
1.375
11
1.69674
21
1.37129
0
LINE
8
BLACK
6
CONTINUOUS
10
1.69674
20
1.37129
11
1.69674
21
1.3677
0
LINE
8
BLACK
6
CONTINUOUS
10
1.69674
20
1.3677
11
1.69875
21
1.36167
0
LINE
8
BLACK
6
CONTINUOUS
10
1.69875
20
1.36167
11
1.72683
21
1.33359
0
LINE
8
BLACK
6
CONTINUOUS
10
1.72683
20
1.33359
11
1.7272
21
1.33307
0
LINE
8
BLACK
6
CONTINUOUS
10
1.7272
20
1.33307
11
1.72729
21
1.33298
0
LINE
8
BLACK
6
CONTINUOUS
10
1.72729
20
1.33298
11
1.72731
21
1.3329
0
LINE
8
BLACK
6
CONTINUOUS
10
1.72731
20
1.3329
11
1.72741
21
1.33275
0
LINE
8
BLACK
6
CONTINUOUS
10
1.72741
20
1.33275
11
1.72749
21
1.33187
0
LINE
8
BLACK
6
CONTINUOUS
10
1.72749
20
1.33187
11
1.72765
21
1.33099
0
LINE
8
BLACK
6
CONTINUOUS
10
1.72765
20
1.33099
11
1.72758
21
1.33088
0
LINE
8
BLACK
6
CONTINUOUS
10
1.72758
20
1.33088
11
1.72759
21
1.33074
0
LINE
8
BLACK
6
CONTINUOUS
10
1.72759
20
1.33074
11
1.72708
21
1.33001
0
LINE
8
BLACK
6
CONTINUOUS
10
1.72708
20
1.33001
11
1.72664
21
1.32924
0
LINE
8
BLACK
6
CONTINUOUS
10
1.72664
20
1.32924
11
1.72651
21
1.3292
0
LINE
8
BLACK
6
CONTINUOUS
10
1.72651
20
1.3292
11
1.72643
21
1.32909
0
LINE
8
BLACK
6
CONTINUOUS
10
1.72643
20
1.32909
11
1.72557
21
1.32886
0
LINE
8
BLACK
6
CONTINUOUS
10
1.72557
20
1.32886
11
1.72474
21
1.32855
0
LINE
8
BLACK
6
CONTINUOUS
10
1.72474
20
1.32855
11
1.69379
21
1.32855
0
LINE
8
BLACK
6
CONTINUOUS
10
1.69379
20
1.32855
11
1.69278
21
1.32873
0
LINE
8
BLACK
6
CONTINUOUS
10
1.69278
20
1.32873
11
1.69123
21
1.33003
0
LINE
8
BLACK
6
CONTINUOUS
10
1.69123
20
1.33003
11
1.69088
21
1.33202
0
LINE
8
BLACK
6
CONTINUOUS
10
1.69088
20
1.33202
11
1.69189
21
1.33377
0
LINE
8
BLACK
6
CONTINUOUS
10
1.69189
20
1.33377
11
1.69379
21
1.33446
0
LINE
8
BLACK
6
CONTINUOUS
10
1.69379
20
1.33446
11
1.71761
21
1.33446
0
LINE
8
BLACK
6
CONTINUOUS
10
1.71761
20
1.33446
11
1.69408
21
1.35799
0
LINE
8
BLACK
6
CONTINUOUS
10
1.69408
20
1.35799
11
1.69349
21
1.35883
0
LINE
8
BLACK
6
CONTINUOUS
10
1.69349
20
1.35883
11
1.69347
21
1.35901
0
LINE
8
BLACK
6
CONTINUOUS
10
1.69347
20
1.35901
11
1.69336
21
1.35914
0
LINE
8
BLACK
6
CONTINUOUS
10
1.69336
20
1.35914
11
1.69098
21
1.36629
0
LINE
8
BLACK
6
CONTINUOUS
10
1.69098
20
1.36629
11
1.69085
21
1.36716
0
LINE
8
BLACK
6
CONTINUOUS
10
1.69085
20
1.36716
11
1.69083
21
1.36722
0
LINE
8
BLACK
6
CONTINUOUS
10
1.69083
20
1.36722
11
1.69083
21
1.37198
0
LINE
8
BLACK
6
CONTINUOUS
10
1.69083
20
1.37198
11
1.69101
21
1.37299
0
LINE
8
BLACK
6
CONTINUOUS
10
1.69101
20
1.37299
11
1.69112
21
1.37313
0
LINE
8
BLACK
6
CONTINUOUS
10
1.69112
20
1.37313
11
1.69114
21
1.3733
0
LINE
8
BLACK
6
CONTINUOUS
10
1.69114
20
1.3733
11
1.69353
21
1.37807
0
LINE
8
BLACK
6
CONTINUOUS
10
1.69353
20
1.37807
11
1.69405
21
1.37877
0
LINE
8
BLACK
6
CONTINUOUS
10
1.69405
20
1.37877
11
1.69408
21
1.37883
0
LINE
8
BLACK
6
CONTINUOUS
10
1.69408
20
1.37883
11
1.69646
21
1.38121
0
LINE
8
BLACK
6
CONTINUOUS
10
1.69646
20
1.38121
11
1.69718
21
1.38172
0
LINE
8
BLACK
6
CONTINUOUS
10
1.69718
20
1.38172
11
1.69723
21
1.38177
0
LINE
8
BLACK
6
CONTINUOUS
10
1.69723
20
1.38177
11
1.70199
21
1.38415
0
LINE
8
BLACK
6
CONTINUOUS
10
1.70199
20
1.38415
11
1.70297
21
1.38444
0
LINE
8
BLACK
6
CONTINUOUS
10
1.70297
20
1.38444
11
1.70314
21
1.3844
0
LINE
8
BLACK
6
CONTINUOUS
10
1.70314
20
1.3844
11
1.70331
21
1.38446
0
LINE
8
BLACK
6
CONTINUOUS
10
1.70331
20
1.38446
11
1.71521
21
1.38446
0
LINE
8
BLACK
6
CONTINUOUS
10
1.71521
20
1.38446
11
1.71622
21
1.38428
0
LINE
8
BLACK
6
CONTINUOUS
10
1.77036
20
1.38439
11
1.77049
21
1.38441
0
LINE
8
BLACK
6
CONTINUOUS
10
1.77049
20
1.38441
11
1.7706
21
1.38435
0
LINE
8
BLACK
6
CONTINUOUS
10
1.7706
20
1.38435
11
1.77099
21
1.38428
0
LINE
8
BLACK
6
CONTINUOUS
10
1.77099
20
1.38428
11
1.77157
21
1.38379
0
LINE
8
BLACK
6
CONTINUOUS
10
1.77157
20
1.38379
11
1.77224
21
1.3834
0
LINE
8
BLACK
6
CONTINUOUS
10
1.77224
20
1.3834
11
1.77233
21
1.38315
0
LINE
8
BLACK
6
CONTINUOUS
10
1.77233
20
1.38315
11
1.77253
21
1.38298
0
LINE
8
BLACK
6
CONTINUOUS
10
1.77253
20
1.38298
11
1.77267
21
1.38223
0
LINE
8
BLACK
6
CONTINUOUS
10
1.77267
20
1.38223
11
1.77293
21
1.38151
0
LINE
8
BLACK
6
CONTINUOUS
10
1.77293
20
1.38151
11
1.77293
21
1.33151
0
LINE
8
BLACK
6
CONTINUOUS
10
1.77293
20
1.33151
11
1.77286
21
1.33112
0
LINE
8
BLACK
6
CONTINUOUS
10
1.77286
20
1.33112
11
1.77288
21
1.33099
0
LINE
8
BLACK
6
CONTINUOUS
10
1.77288
20
1.33099
11
1.77282
21
1.33088
0
LINE
8
BLACK
6
CONTINUOUS
10
1.77282
20
1.33088
11
1.77275
21
1.3305
0
LINE
8
BLACK
6
CONTINUOUS
10
1.77275
20
1.3305
11
1.77226
21
1.32991
0
LINE
8
BLACK
6
CONTINUOUS
10
1.77226
20
1.32991
11
1.77187
21
1.32924
0
LINE
8
BLACK
6
CONTINUOUS
10
1.77187
20
1.32924
11
1.77162
21
1.32915
0
LINE
8
BLACK
6
CONTINUOUS
10
1.77162
20
1.32915
11
1.77145
21
1.32895
0
LINE
8
BLACK
6
CONTINUOUS
10
1.77145
20
1.32895
11
1.7707
21
1.32882
0
LINE
8
BLACK
6
CONTINUOUS
10
1.7707
20
1.32882
11
1.76998
21
1.32855
0
LINE
8
BLACK
6
CONTINUOUS
10
1.76998
20
1.32855
11
1.75807
21
1.32855
0
LINE
8
BLACK
6
CONTINUOUS
10
1.75807
20
1.32855
11
1.7572
21
1.32871
0
LINE
8
BLACK
6
CONTINUOUS
10
1.7572
20
1.32871
11
1.75714
21
1.32871
0
LINE
8
BLACK
6
CONTINUOUS
10
1.75714
20
1.32871
11
1.74999
21
1.33109
0
LINE
8
BLACK
6
CONTINUOUS
10
1.74999
20
1.33109
11
1.74909
21
1.33157
0
LINE
8
BLACK
6
CONTINUOUS
10
1.74909
20
1.33157
11
1.749
21
1.33173
0
LINE
8
BLACK
6
CONTINUOUS
10
1.749
20
1.33173
11
1.74884
21
1.3318
0
LINE
8
BLACK
6
CONTINUOUS
10
1.74884
20
1.3318
11
1.74408
21
1.33656
0
LINE
8
BLACK
6
CONTINUOUS
10
1.74408
20
1.33656
11
1.74357
21
1.33728
0
LINE
8
BLACK
6
CONTINUOUS
10
1.74357
20
1.33728
11
1.74353
21
1.33733
0
LINE
8
BLACK
6
CONTINUOUS
10
1.74353
20
1.33733
11
1.74114
21
1.34209
0
LINE
8
BLACK
6
CONTINUOUS
10
1.74114
20
1.34209
11
1.741
21
1.34258
0
LINE
8
BLACK
6
CONTINUOUS
10
1.741
20
1.34258
11
1.74092
21
1.3427
0
LINE
8
BLACK
6
CONTINUOUS
10
1.74092
20
1.3427
11
1.73854
21
1.35222
0
LINE
8
BLACK
6
CONTINUOUS
10
1.73854
20
1.35222
11
1.7385
21
1.35281
0
LINE
8
BLACK
6
CONTINUOUS
10
1.7385
20
1.35281
11
1.73845
21
1.35294
0
LINE
8
BLACK
6
CONTINUOUS
10
1.73845
20
1.35294
11
1.73845
21
1.36008
0
LINE
8
BLACK
6
CONTINUOUS
10
1.73845
20
1.36008
11
1.73855
21
1.36066
0
LINE
8
BLACK
6
CONTINUOUS
10
1.73855
20
1.36066
11
1.73854
21
1.36079
0
LINE
8
BLACK
6
CONTINUOUS
10
1.73854
20
1.36079
11
1.74092
21
1.37032
0
LINE
8
BLACK
6
CONTINUOUS
10
1.74092
20
1.37032
11
1.74113
21
1.37078
0
LINE
8
BLACK
6
CONTINUOUS
10
1.74113
20
1.37078
11
1.74114
21
1.37092
0
LINE
8
BLACK
6
CONTINUOUS
10
1.74114
20
1.37092
11
1.74353
21
1.37568
0
LINE
8
BLACK
6
CONTINUOUS
10
1.74353
20
1.37568
11
1.74405
21
1.37639
0
LINE
8
BLACK
6
CONTINUOUS
10
1.74405
20
1.37639
11
1.74408
21
1.37645
0
LINE
8
BLACK
6
CONTINUOUS
10
1.74408
20
1.37645
11
1.74884
21
1.38121
0
LINE
8
BLACK
6
CONTINUOUS
10
1.74884
20
1.38121
11
1.74968
21
1.3818
0
LINE
8
BLACK
6
CONTINUOUS
10
1.74968
20
1.3818
11
1.74986
21
1.38182
0
LINE
8
BLACK
6
CONTINUOUS
10
1.74986
20
1.38182
11
1.74999
21
1.38193
0
LINE
8
BLACK
6
CONTINUOUS
10
1.74999
20
1.38193
11
1.75714
21
1.38431
0
LINE
8
BLACK
6
CONTINUOUS
10
1.75714
20
1.38431
11
1.75801
21
1.38444
0
LINE
8
BLACK
6
CONTINUOUS
10
1.75801
20
1.38444
11
1.75807
21
1.38446
0
LINE
8
BLACK
6
CONTINUOUS
10
1.75807
20
1.38446
11
1.76998
21
1.38446
0
LINE
8
BLACK
6
CONTINUOUS
10
1.76998
20
1.38446
11
1.77036
21
1.38439
0
LINE
8
BLACK
6
CONTINUOUS
10
1.75252
20
1.37655
11
1.74859
21
1.37261
0
LINE
8
BLACK
6
CONTINUOUS
10
1.74859
20
1.37261
11
1.74657
21
1.36857
0
LINE
8
BLACK
6
CONTINUOUS
10
1.74657
20
1.36857
11
1.74436
21
1.35971
0
LINE
8
BLACK
6
CONTINUOUS
10
1.74436
20
1.35971
11
1.74436
21
1.3533
0
LINE
8
BLACK
6
CONTINUOUS
10
1.74436
20
1.3533
11
1.74657
21
1.34444
0
LINE
8
BLACK
6
CONTINUOUS
10
1.74657
20
1.34444
11
1.74859
21
1.3404
0
LINE
8
BLACK
6
CONTINUOUS
10
1.74859
20
1.3404
11
1.75252
21
1.33647
0
LINE
8
BLACK
6
CONTINUOUS
10
1.75252
20
1.33647
11
1.75855
21
1.33446
0
LINE
8
BLACK
6
CONTINUOUS
10
1.75855
20
1.33446
11
1.76702
21
1.33446
0
LINE
8
BLACK
6
CONTINUOUS
10
1.76702
20
1.33446
11
1.76702
21
1.37855
0
LINE
8
BLACK
6
CONTINUOUS
10
1.76702
20
1.37855
11
1.75855
21
1.37855
0
LINE
8
BLACK
6
CONTINUOUS
10
1.75855
20
1.37855
11
1.75252
21
1.37655
  0
ENDSEC
  0
EOF
