  0
SECTION
  2
HEADER
  9
$ANGBASE
  50
0.0
  9
$ANGDIR
  70
1
  9
$MEASUREMENT
  70
0
  0
ENDSEC
  0
SECTION
  2
TABLES
  0
TABLE
  2
LTYPE
  70
4
  0
LTYPE
  5
40F
  2
CONTINUOUS
  70
0
  3
Solid line
  72
65
  73
0
  40
0.0
  0
LTYPE
  5
410
  2
DASHDOT
 70
0
  3
Dash Dot ____ _ ____ _
 72
65
 73
4
 40
2.0
 49
1.25
 49
-0.25
 49
0.25
 49
-0.25
  0
LTYPE
  5
411
  2
DASHED
 70
0
  3
Dashed __ __ __ __ __
 72
65
 73
2
 40
0.75
 49
0.5
 49
-0.25
  0
LTYPE
  5
43B
  2
DOTTED
 70
0
  3
Dotted .  .  .  .
 72
65
 73
2
 40
0.2
 49
0.0
 49
-0.2
  0
ENDTAB
  0
TABLE
  2
STYLE
  70
4
  0
STYLE
  2
KICAD
  70
0
  40
0
  41
1
  42
1
  50
0
  71
0
  3
isocp.shx
  0
STYLE
  2
KICADB
  70
0
  40
0
  41
1
  42
1
  50
0
  71
0
  3
isocp.shx
  0
STYLE
  2
KICADI
  70
0
  40
0
  41
1
  42
1
  50
15
  71
0
  3
isocp.shx
  0
STYLE
  2
KICADBI
  70
0
  40
0
  41
1
  42
1
  50
15
  71
0
  3
isocp.shx
  0
ENDTAB
  0
TABLE
  2
LAYER
  70
1
  0
LAYER
  2
BLACK
  70
0
  62
7
  6
CONTINUOUS
  0
ENDTAB
  0
ENDSEC
  0
SECTION
  2
ENTITIES
0
LINE
8
BLACK
6
CONTINUOUS
10
1.18536
20
0.556337
11
1.18855
21
0.554204
0
LINE
8
BLACK
6
CONTINUOUS
10
1.18855
20
0.554204
11
1.19069
21
0.551011
0
LINE
8
BLACK
6
CONTINUOUS
10
1.19069
20
0.551011
11
1.19144
21
0.547244
0
LINE
8
BLACK
6
CONTINUOUS
10
1.19144
20
0.547244
11
1.19144
21
0.511811
0
LINE
8
BLACK
6
CONTINUOUS
10
1.19144
20
0.511811
11
1.19069
21
0.508044
0
LINE
8
BLACK
6
CONTINUOUS
10
1.19069
20
0.508044
11
1.18855
21
0.504851
0
LINE
8
BLACK
6
CONTINUOUS
10
1.18855
20
0.504851
11
1.18536
21
0.502718
0
LINE
8
BLACK
6
CONTINUOUS
10
1.18536
20
0.502718
11
1.18159
21
0.501969
0
LINE
8
BLACK
6
CONTINUOUS
10
1.18159
20
0.501969
11
1.16093
21
0.501969
0
LINE
8
BLACK
6
CONTINUOUS
10
1.16093
20
0.501969
11
1.15716
21
0.502718
0
LINE
8
BLACK
6
CONTINUOUS
10
1.15716
20
0.502718
11
1.15397
21
0.504851
0
LINE
8
BLACK
6
CONTINUOUS
10
1.15397
20
0.504851
11
1.15183
21
0.508044
0
LINE
8
BLACK
6
CONTINUOUS
10
1.15183
20
0.508044
11
1.15108
21
0.511811
0
LINE
8
BLACK
6
CONTINUOUS
10
1.15108
20
0.511811
11
1.15108
21
0.547244
0
LINE
8
BLACK
6
CONTINUOUS
10
1.15108
20
0.547244
11
1.15183
21
0.551011
0
LINE
8
BLACK
6
CONTINUOUS
10
1.15183
20
0.551011
11
1.15397
21
0.554204
0
LINE
8
BLACK
6
CONTINUOUS
10
1.15397
20
0.554204
11
1.15716
21
0.556337
0
LINE
8
BLACK
6
CONTINUOUS
10
1.15716
20
0.556337
11
1.16093
21
0.557087
0
LINE
8
BLACK
6
CONTINUOUS
10
1.16093
20
0.557087
11
1.18159
21
0.557087
0
LINE
8
BLACK
6
CONTINUOUS
10
1.18159
20
0.557087
11
1.18536
21
0.556337
0
LINE
8
BLACK
6
CONTINUOUS
10
1.25721
20
0.556337
11
1.2604
21
0.554204
0
LINE
8
BLACK
6
CONTINUOUS
10
1.2604
20
0.554204
11
1.26254
21
0.551011
0
LINE
8
BLACK
6
CONTINUOUS
10
1.26254
20
0.551011
11
1.26329
21
0.547244
0
LINE
8
BLACK
6
CONTINUOUS
10
1.26329
20
0.547244
11
1.26329
21
0.511811
0
LINE
8
BLACK
6
CONTINUOUS
10
1.26329
20
0.511811
11
1.26254
21
0.508044
0
LINE
8
BLACK
6
CONTINUOUS
10
1.26254
20
0.508044
11
1.2604
21
0.504851
0
LINE
8
BLACK
6
CONTINUOUS
10
1.2604
20
0.504851
11
1.25721
21
0.502718
0
LINE
8
BLACK
6
CONTINUOUS
10
1.25721
20
0.502718
11
1.25344
21
0.501969
0
LINE
8
BLACK
6
CONTINUOUS
10
1.25344
20
0.501969
11
1.23278
21
0.501969
0
LINE
8
BLACK
6
CONTINUOUS
10
1.23278
20
0.501969
11
1.22901
21
0.502718
0
LINE
8
BLACK
6
CONTINUOUS
10
1.22901
20
0.502718
11
1.22582
21
0.504851
0
LINE
8
BLACK
6
CONTINUOUS
10
1.22582
20
0.504851
11
1.22368
21
0.508044
0
LINE
8
BLACK
6
CONTINUOUS
10
1.22368
20
0.508044
11
1.22293
21
0.511811
0
LINE
8
BLACK
6
CONTINUOUS
10
1.22293
20
0.511811
11
1.22293
21
0.547244
0
LINE
8
BLACK
6
CONTINUOUS
10
1.22293
20
0.547244
11
1.22368
21
0.551011
0
LINE
8
BLACK
6
CONTINUOUS
10
1.22368
20
0.551011
11
1.22582
21
0.554204
0
LINE
8
BLACK
6
CONTINUOUS
10
1.22582
20
0.554204
11
1.22901
21
0.556337
0
LINE
8
BLACK
6
CONTINUOUS
10
1.22901
20
0.556337
11
1.23278
21
0.557087
0
LINE
8
BLACK
6
CONTINUOUS
10
1.23278
20
0.557087
11
1.25344
21
0.557087
0
LINE
8
BLACK
6
CONTINUOUS
10
1.25344
20
0.557087
11
1.25721
21
0.556337
0
LINE
8
BLACK
6
CONTINUOUS
10
1.32808
20
0.556337
11
1.33127
21
0.554204
0
LINE
8
BLACK
6
CONTINUOUS
10
1.33127
20
0.554204
11
1.3334
21
0.551011
0
LINE
8
BLACK
6
CONTINUOUS
10
1.3334
20
0.551011
11
1.33415
21
0.547244
0
LINE
8
BLACK
6
CONTINUOUS
10
1.33415
20
0.547244
11
1.33415
21
0.511811
0
LINE
8
BLACK
6
CONTINUOUS
10
1.33415
20
0.511811
11
1.3334
21
0.508044
0
LINE
8
BLACK
6
CONTINUOUS
10
1.3334
20
0.508044
11
1.33127
21
0.504851
0
LINE
8
BLACK
6
CONTINUOUS
10
1.33127
20
0.504851
11
1.32808
21
0.502718
0
LINE
8
BLACK
6
CONTINUOUS
10
1.32808
20
0.502718
11
1.32431
21
0.501969
0
LINE
8
BLACK
6
CONTINUOUS
10
1.32431
20
0.501969
11
1.30364
21
0.501969
0
LINE
8
BLACK
6
CONTINUOUS
10
1.30364
20
0.501969
11
1.29988
21
0.502718
0
LINE
8
BLACK
6
CONTINUOUS
10
1.29988
20
0.502718
11
1.29668
21
0.504851
0
LINE
8
BLACK
6
CONTINUOUS
10
1.29668
20
0.504851
11
1.29455
21
0.508044
0
LINE
8
BLACK
6
CONTINUOUS
10
1.29455
20
0.508044
11
1.2938
21
0.511811
0
LINE
8
BLACK
6
CONTINUOUS
10
1.2938
20
0.511811
11
1.2938
21
0.547244
0
LINE
8
BLACK
6
CONTINUOUS
10
1.2938
20
0.547244
11
1.29455
21
0.551011
0
LINE
8
BLACK
6
CONTINUOUS
10
1.29455
20
0.551011
11
1.29668
21
0.554204
0
LINE
8
BLACK
6
CONTINUOUS
10
1.29668
20
0.554204
11
1.29988
21
0.556337
0
LINE
8
BLACK
6
CONTINUOUS
10
1.29988
20
0.556337
11
1.30364
21
0.557087
0
LINE
8
BLACK
6
CONTINUOUS
10
1.30364
20
0.557087
11
1.32431
21
0.557087
0
LINE
8
BLACK
6
CONTINUOUS
10
1.32431
20
0.557087
11
1.32808
21
0.556337
0
LINE
8
BLACK
6
CONTINUOUS
10
1.39993
20
0.556337
11
1.40312
21
0.554204
0
LINE
8
BLACK
6
CONTINUOUS
10
1.40312
20
0.554204
11
1.40525
21
0.551011
0
LINE
8
BLACK
6
CONTINUOUS
10
1.40525
20
0.551011
11
1.406
21
0.547244
0
LINE
8
BLACK
6
CONTINUOUS
10
1.406
20
0.547244
11
1.406
21
0.511811
0
LINE
8
BLACK
6
CONTINUOUS
10
1.406
20
0.511811
11
1.40525
21
0.508044
0
LINE
8
BLACK
6
CONTINUOUS
10
1.40525
20
0.508044
11
1.40312
21
0.504851
0
LINE
8
BLACK
6
CONTINUOUS
10
1.40312
20
0.504851
11
1.39993
21
0.502718
0
LINE
8
BLACK
6
CONTINUOUS
10
1.39993
20
0.502718
11
1.39616
21
0.501969
0
LINE
8
BLACK
6
CONTINUOUS
10
1.39616
20
0.501969
11
1.37549
21
0.501969
0
LINE
8
BLACK
6
CONTINUOUS
10
1.37549
20
0.501969
11
1.37173
21
0.502718
0
LINE
8
BLACK
6
CONTINUOUS
10
1.37173
20
0.502718
11
1.36853
21
0.504851
0
LINE
8
BLACK
6
CONTINUOUS
10
1.36853
20
0.504851
11
1.3664
21
0.508044
0
LINE
8
BLACK
6
CONTINUOUS
10
1.3664
20
0.508044
11
1.36565
21
0.511811
0
LINE
8
BLACK
6
CONTINUOUS
10
1.36565
20
0.511811
11
1.36565
21
0.547244
0
LINE
8
BLACK
6
CONTINUOUS
10
1.36565
20
0.547244
11
1.3664
21
0.551011
0
LINE
8
BLACK
6
CONTINUOUS
10
1.3664
20
0.551011
11
1.36853
21
0.554204
0
LINE
8
BLACK
6
CONTINUOUS
10
1.36853
20
0.554204
11
1.37173
21
0.556337
0
LINE
8
BLACK
6
CONTINUOUS
10
1.37173
20
0.556337
11
1.37549
21
0.557087
0
LINE
8
BLACK
6
CONTINUOUS
10
1.37549
20
0.557087
11
1.39616
21
0.557087
0
LINE
8
BLACK
6
CONTINUOUS
10
1.39616
20
0.557087
11
1.39993
21
0.556337
0
LINE
8
BLACK
6
CONTINUOUS
10
0.599239
20
0.546003
11
0.602432
21
0.543869
0
LINE
8
BLACK
6
CONTINUOUS
10
0.602432
20
0.543869
11
0.604566
21
0.540676
0
LINE
8
BLACK
6
CONTINUOUS
10
0.604566
20
0.540676
11
0.605315
21
0.536909
0
LINE
8
BLACK
6
CONTINUOUS
10
0.605315
20
0.536909
11
0.605315
21
0.51624
0
LINE
8
BLACK
6
CONTINUOUS
10
0.605315
20
0.51624
11
0.604566
21
0.512474
0
LINE
8
BLACK
6
CONTINUOUS
10
0.604566
20
0.512474
11
0.602432
21
0.50928
0
LINE
8
BLACK
6
CONTINUOUS
10
0.602432
20
0.50928
11
0.599239
21
0.507147
0
LINE
8
BLACK
6
CONTINUOUS
10
0.599239
20
0.507147
11
0.595472
21
0.506398
0
LINE
8
BLACK
6
CONTINUOUS
10
0.595472
20
0.506398
11
0.560039
21
0.506398
0
LINE
8
BLACK
6
CONTINUOUS
10
0.560039
20
0.506398
11
0.556273
21
0.507147
0
LINE
8
BLACK
6
CONTINUOUS
10
0.556273
20
0.507147
11
0.55308
21
0.50928
0
LINE
8
BLACK
6
CONTINUOUS
10
0.55308
20
0.50928
11
0.550946
21
0.512474
0
LINE
8
BLACK
6
CONTINUOUS
10
0.550946
20
0.512474
11
0.550197
21
0.51624
0
LINE
8
BLACK
6
CONTINUOUS
10
0.550197
20
0.51624
11
0.550197
21
0.536909
0
LINE
8
BLACK
6
CONTINUOUS
10
0.550197
20
0.536909
11
0.550946
21
0.540676
0
LINE
8
BLACK
6
CONTINUOUS
10
0.550946
20
0.540676
11
0.55308
21
0.543869
0
LINE
8
BLACK
6
CONTINUOUS
10
0.55308
20
0.543869
11
0.556273
21
0.546003
0
LINE
8
BLACK
6
CONTINUOUS
10
0.556273
20
0.546003
11
0.560039
21
0.546752
0
LINE
8
BLACK
6
CONTINUOUS
10
0.560039
20
0.546752
11
0.595472
21
0.546752
0
LINE
8
BLACK
6
CONTINUOUS
10
0.595472
20
0.546752
11
0.599239
21
0.546003
0
LINE
8
BLACK
6
CONTINUOUS
10
0.700617
20
0.546003
11
0.70381
21
0.543869
0
LINE
8
BLACK
6
CONTINUOUS
10
0.70381
20
0.543869
11
0.705944
21
0.540676
0
LINE
8
BLACK
6
CONTINUOUS
10
0.705944
20
0.540676
11
0.706693
21
0.536909
0
LINE
8
BLACK
6
CONTINUOUS
10
0.706693
20
0.536909
11
0.706693
21
0.51624
0
LINE
8
BLACK
6
CONTINUOUS
10
0.706693
20
0.51624
11
0.705944
21
0.512474
0
LINE
8
BLACK
6
CONTINUOUS
10
0.705944
20
0.512474
11
0.70381
21
0.50928
0
LINE
8
BLACK
6
CONTINUOUS
10
0.70381
20
0.50928
11
0.700617
21
0.507147
0
LINE
8
BLACK
6
CONTINUOUS
10
0.700617
20
0.507147
11
0.69685
21
0.506398
0
LINE
8
BLACK
6
CONTINUOUS
10
0.69685
20
0.506398
11
0.661417
21
0.506398
0
LINE
8
BLACK
6
CONTINUOUS
10
0.661417
20
0.506398
11
0.657651
21
0.507147
0
LINE
8
BLACK
6
CONTINUOUS
10
0.657651
20
0.507147
11
0.654458
21
0.50928
0
LINE
8
BLACK
6
CONTINUOUS
10
0.654458
20
0.50928
11
0.652324
21
0.512474
0
LINE
8
BLACK
6
CONTINUOUS
10
0.652324
20
0.512474
11
0.651575
21
0.51624
0
LINE
8
BLACK
6
CONTINUOUS
10
0.651575
20
0.51624
11
0.651575
21
0.536909
0
LINE
8
BLACK
6
CONTINUOUS
10
0.651575
20
0.536909
11
0.652324
21
0.540676
0
LINE
8
BLACK
6
CONTINUOUS
10
0.652324
20
0.540676
11
0.654458
21
0.543869
0
LINE
8
BLACK
6
CONTINUOUS
10
0.654458
20
0.543869
11
0.657651
21
0.546003
0
LINE
8
BLACK
6
CONTINUOUS
10
0.657651
20
0.546003
11
0.661417
21
0.546752
0
LINE
8
BLACK
6
CONTINUOUS
10
0.661417
20
0.546752
11
0.69685
21
0.546752
0
LINE
8
BLACK
6
CONTINUOUS
10
0.69685
20
0.546752
11
0.700617
21
0.546003
0
LINE
8
BLACK
6
CONTINUOUS
10
0.809869
20
0.546003
11
0.813062
21
0.543869
0
LINE
8
BLACK
6
CONTINUOUS
10
0.813062
20
0.543869
11
0.815196
21
0.540676
0
LINE
8
BLACK
6
CONTINUOUS
10
0.815196
20
0.540676
11
0.815945
21
0.536909
0
LINE
8
BLACK
6
CONTINUOUS
10
0.815945
20
0.536909
11
0.815945
21
0.51624
0
LINE
8
BLACK
6
CONTINUOUS
10
0.815945
20
0.51624
11
0.815196
21
0.512474
0
LINE
8
BLACK
6
CONTINUOUS
10
0.815196
20
0.512474
11
0.813062
21
0.50928
0
LINE
8
BLACK
6
CONTINUOUS
10
0.813062
20
0.50928
11
0.809869
21
0.507147
0
LINE
8
BLACK
6
CONTINUOUS
10
0.809869
20
0.507147
11
0.806102
21
0.506398
0
LINE
8
BLACK
6
CONTINUOUS
10
0.806102
20
0.506398
11
0.770669
21
0.506398
0
LINE
8
BLACK
6
CONTINUOUS
10
0.770669
20
0.506398
11
0.766903
21
0.507147
0
LINE
8
BLACK
6
CONTINUOUS
10
0.766903
20
0.507147
11
0.76371
21
0.50928
0
LINE
8
BLACK
6
CONTINUOUS
10
0.76371
20
0.50928
11
0.761576
21
0.512474
0
LINE
8
BLACK
6
CONTINUOUS
10
0.761576
20
0.512474
11
0.760827
21
0.51624
0
LINE
8
BLACK
6
CONTINUOUS
10
0.760827
20
0.51624
11
0.760827
21
0.536909
0
LINE
8
BLACK
6
CONTINUOUS
10
0.760827
20
0.536909
11
0.761576
21
0.540676
0
LINE
8
BLACK
6
CONTINUOUS
10
0.761576
20
0.540676
11
0.76371
21
0.543869
0
LINE
8
BLACK
6
CONTINUOUS
10
0.76371
20
0.543869
11
0.766903
21
0.546003
0
LINE
8
BLACK
6
CONTINUOUS
10
0.766903
20
0.546003
11
0.770669
21
0.546752
0
LINE
8
BLACK
6
CONTINUOUS
10
0.770669
20
0.546752
11
0.806102
21
0.546752
0
LINE
8
BLACK
6
CONTINUOUS
10
0.806102
20
0.546752
11
0.809869
21
0.546003
0
LINE
8
BLACK
6
CONTINUOUS
10
1.59062
20
0.582715
11
1.59381
21
0.580582
0
LINE
8
BLACK
6
CONTINUOUS
10
1.59381
20
0.580582
11
1.59594
21
0.577389
0
LINE
8
BLACK
6
CONTINUOUS
10
1.59594
20
0.577389
11
1.59669
21
0.573622
0
LINE
8
BLACK
6
CONTINUOUS
10
1.59669
20
0.573622
11
1.59669
21
0.526378
0
LINE
8
BLACK
6
CONTINUOUS
10
1.59669
20
0.526378
11
1.59594
21
0.522611
0
LINE
8
BLACK
6
CONTINUOUS
10
1.59594
20
0.522611
11
1.59381
21
0.519418
0
LINE
8
BLACK
6
CONTINUOUS
10
1.59381
20
0.519418
11
1.59062
21
0.517285
0
LINE
8
BLACK
6
CONTINUOUS
10
1.59062
20
0.517285
11
1.58685
21
0.516535
0
LINE
8
BLACK
6
CONTINUOUS
10
1.58685
20
0.516535
11
1.55535
21
0.516535
0
LINE
8
BLACK
6
CONTINUOUS
10
1.55535
20
0.516535
11
1.55159
21
0.517285
0
LINE
8
BLACK
6
CONTINUOUS
10
1.55159
20
0.517285
11
1.54839
21
0.519418
0
LINE
8
BLACK
6
CONTINUOUS
10
1.54839
20
0.519418
11
1.54626
21
0.522611
0
LINE
8
BLACK
6
CONTINUOUS
10
1.54626
20
0.522611
11
1.54551
21
0.526378
0
LINE
8
BLACK
6
CONTINUOUS
10
1.54551
20
0.526378
11
1.54551
21
0.573622
0
LINE
8
BLACK
6
CONTINUOUS
10
1.54551
20
0.573622
11
1.54626
21
0.577389
0
LINE
8
BLACK
6
CONTINUOUS
10
1.54626
20
0.577389
11
1.54839
21
0.580582
0
LINE
8
BLACK
6
CONTINUOUS
10
1.54839
20
0.580582
11
1.55159
21
0.582715
0
LINE
8
BLACK
6
CONTINUOUS
10
1.55159
20
0.582715
11
1.55535
21
0.583465
0
LINE
8
BLACK
6
CONTINUOUS
10
1.55535
20
0.583465
11
1.58685
21
0.583465
0
LINE
8
BLACK
6
CONTINUOUS
10
1.58685
20
0.583465
11
1.59062
21
0.582715
0
LINE
8
BLACK
6
CONTINUOUS
10
1.72841
20
0.582715
11
1.73161
21
0.580582
0
LINE
8
BLACK
6
CONTINUOUS
10
1.73161
20
0.580582
11
1.73374
21
0.577389
0
LINE
8
BLACK
6
CONTINUOUS
10
1.73374
20
0.577389
11
1.73449
21
0.573622
0
LINE
8
BLACK
6
CONTINUOUS
10
1.73449
20
0.573622
11
1.73449
21
0.526378
0
LINE
8
BLACK
6
CONTINUOUS
10
1.73449
20
0.526378
11
1.73374
21
0.522611
0
LINE
8
BLACK
6
CONTINUOUS
10
1.73374
20
0.522611
11
1.73161
21
0.519418
0
LINE
8
BLACK
6
CONTINUOUS
10
1.73161
20
0.519418
11
1.72841
21
0.517285
0
LINE
8
BLACK
6
CONTINUOUS
10
1.72841
20
0.517285
11
1.72465
21
0.516535
0
LINE
8
BLACK
6
CONTINUOUS
10
1.72465
20
0.516535
11
1.69315
21
0.516535
0
LINE
8
BLACK
6
CONTINUOUS
10
1.69315
20
0.516535
11
1.68938
21
0.517285
0
LINE
8
BLACK
6
CONTINUOUS
10
1.68938
20
0.517285
11
1.68619
21
0.519418
0
LINE
8
BLACK
6
CONTINUOUS
10
1.68619
20
0.519418
11
1.68406
21
0.522611
0
LINE
8
BLACK
6
CONTINUOUS
10
1.68406
20
0.522611
11
1.68331
21
0.526378
0
LINE
8
BLACK
6
CONTINUOUS
10
1.68331
20
0.526378
11
1.68331
21
0.573622
0
LINE
8
BLACK
6
CONTINUOUS
10
1.68331
20
0.573622
11
1.68406
21
0.577389
0
LINE
8
BLACK
6
CONTINUOUS
10
1.68406
20
0.577389
11
1.68619
21
0.580582
0
LINE
8
BLACK
6
CONTINUOUS
10
1.68619
20
0.580582
11
1.68938
21
0.582715
0
LINE
8
BLACK
6
CONTINUOUS
10
1.68938
20
0.582715
11
1.69315
21
0.583465
0
LINE
8
BLACK
6
CONTINUOUS
10
1.69315
20
0.583465
11
1.72465
21
0.583465
0
LINE
8
BLACK
6
CONTINUOUS
10
1.72465
20
0.583465
11
1.72841
21
0.582715
0
LINE
8
BLACK
6
CONTINUOUS
10
0.599239
20
0.617853
11
0.602432
21
0.61572
0
LINE
8
BLACK
6
CONTINUOUS
10
0.602432
20
0.61572
11
0.604566
21
0.612526
0
LINE
8
BLACK
6
CONTINUOUS
10
0.604566
20
0.612526
11
0.605315
21
0.60876
0
LINE
8
BLACK
6
CONTINUOUS
10
0.605315
20
0.60876
11
0.605315
21
0.588091
0
LINE
8
BLACK
6
CONTINUOUS
10
0.605315
20
0.588091
11
0.604566
21
0.584324
0
LINE
8
BLACK
6
CONTINUOUS
10
0.604566
20
0.584324
11
0.602432
21
0.581131
0
LINE
8
BLACK
6
CONTINUOUS
10
0.602432
20
0.581131
11
0.599239
21
0.578997
0
LINE
8
BLACK
6
CONTINUOUS
10
0.599239
20
0.578997
11
0.595472
21
0.578248
0
LINE
8
BLACK
6
CONTINUOUS
10
0.595472
20
0.578248
11
0.560039
21
0.578248
0
LINE
8
BLACK
6
CONTINUOUS
10
0.560039
20
0.578248
11
0.556273
21
0.578997
0
LINE
8
BLACK
6
CONTINUOUS
10
0.556273
20
0.578997
11
0.55308
21
0.581131
0
LINE
8
BLACK
6
CONTINUOUS
10
0.55308
20
0.581131
11
0.550946
21
0.584324
0
LINE
8
BLACK
6
CONTINUOUS
10
0.550946
20
0.584324
11
0.550197
21
0.588091
0
LINE
8
BLACK
6
CONTINUOUS
10
0.550197
20
0.588091
11
0.550197
21
0.60876
0
LINE
8
BLACK
6
CONTINUOUS
10
0.550197
20
0.60876
11
0.550946
21
0.612526
0
LINE
8
BLACK
6
CONTINUOUS
10
0.550946
20
0.612526
11
0.55308
21
0.61572
0
LINE
8
BLACK
6
CONTINUOUS
10
0.55308
20
0.61572
11
0.556273
21
0.617853
0
LINE
8
BLACK
6
CONTINUOUS
10
0.556273
20
0.617853
11
0.560039
21
0.618602
0
LINE
8
BLACK
6
CONTINUOUS
10
0.560039
20
0.618602
11
0.595472
21
0.618602
0
LINE
8
BLACK
6
CONTINUOUS
10
0.595472
20
0.618602
11
0.599239
21
0.617853
0
LINE
8
BLACK
6
CONTINUOUS
10
0.700617
20
0.617853
11
0.70381
21
0.61572
0
LINE
8
BLACK
6
CONTINUOUS
10
0.70381
20
0.61572
11
0.705944
21
0.612526
0
LINE
8
BLACK
6
CONTINUOUS
10
0.705944
20
0.612526
11
0.706693
21
0.60876
0
LINE
8
BLACK
6
CONTINUOUS
10
0.706693
20
0.60876
11
0.706693
21
0.588091
0
LINE
8
BLACK
6
CONTINUOUS
10
0.706693
20
0.588091
11
0.705944
21
0.584324
0
LINE
8
BLACK
6
CONTINUOUS
10
0.705944
20
0.584324
11
0.70381
21
0.581131
0
LINE
8
BLACK
6
CONTINUOUS
10
0.70381
20
0.581131
11
0.700617
21
0.578997
0
LINE
8
BLACK
6
CONTINUOUS
10
0.700617
20
0.578997
11
0.69685
21
0.578248
0
LINE
8
BLACK
6
CONTINUOUS
10
0.69685
20
0.578248
11
0.661417
21
0.578248
0
LINE
8
BLACK
6
CONTINUOUS
10
0.661417
20
0.578248
11
0.657651
21
0.578997
0
LINE
8
BLACK
6
CONTINUOUS
10
0.657651
20
0.578997
11
0.654458
21
0.581131
0
LINE
8
BLACK
6
CONTINUOUS
10
0.654458
20
0.581131
11
0.652324
21
0.584324
0
LINE
8
BLACK
6
CONTINUOUS
10
0.652324
20
0.584324
11
0.651575
21
0.588091
0
LINE
8
BLACK
6
CONTINUOUS
10
0.651575
20
0.588091
11
0.651575
21
0.60876
0
LINE
8
BLACK
6
CONTINUOUS
10
0.651575
20
0.60876
11
0.652324
21
0.612526
0
LINE
8
BLACK
6
CONTINUOUS
10
0.652324
20
0.612526
11
0.654458
21
0.61572
0
LINE
8
BLACK
6
CONTINUOUS
10
0.654458
20
0.61572
11
0.657651
21
0.617853
0
LINE
8
BLACK
6
CONTINUOUS
10
0.657651
20
0.617853
11
0.661417
21
0.618602
0
LINE
8
BLACK
6
CONTINUOUS
10
0.661417
20
0.618602
11
0.69685
21
0.618602
0
LINE
8
BLACK
6
CONTINUOUS
10
0.69685
20
0.618602
11
0.700617
21
0.617853
0
LINE
8
BLACK
6
CONTINUOUS
10
0.809869
20
0.617853
11
0.813062
21
0.61572
0
LINE
8
BLACK
6
CONTINUOUS
10
0.813062
20
0.61572
11
0.815196
21
0.612526
0
LINE
8
BLACK
6
CONTINUOUS
10
0.815196
20
0.612526
11
0.815945
21
0.60876
0
LINE
8
BLACK
6
CONTINUOUS
10
0.815945
20
0.60876
11
0.815945
21
0.588091
0
LINE
8
BLACK
6
CONTINUOUS
10
0.815945
20
0.588091
11
0.815196
21
0.584324
0
LINE
8
BLACK
6
CONTINUOUS
10
0.815196
20
0.584324
11
0.813062
21
0.581131
0
LINE
8
BLACK
6
CONTINUOUS
10
0.813062
20
0.581131
11
0.809869
21
0.578997
0
LINE
8
BLACK
6
CONTINUOUS
10
0.809869
20
0.578997
11
0.806102
21
0.578248
0
LINE
8
BLACK
6
CONTINUOUS
10
0.806102
20
0.578248
11
0.770669
21
0.578248
0
LINE
8
BLACK
6
CONTINUOUS
10
0.770669
20
0.578248
11
0.766903
21
0.578997
0
LINE
8
BLACK
6
CONTINUOUS
10
0.766903
20
0.578997
11
0.76371
21
0.581131
0
LINE
8
BLACK
6
CONTINUOUS
10
0.76371
20
0.581131
11
0.761576
21
0.584324
0
LINE
8
BLACK
6
CONTINUOUS
10
0.761576
20
0.584324
11
0.760827
21
0.588091
0
LINE
8
BLACK
6
CONTINUOUS
10
0.760827
20
0.588091
11
0.760827
21
0.60876
0
LINE
8
BLACK
6
CONTINUOUS
10
0.760827
20
0.60876
11
0.761576
21
0.612526
0
LINE
8
BLACK
6
CONTINUOUS
10
0.761576
20
0.612526
11
0.76371
21
0.61572
0
LINE
8
BLACK
6
CONTINUOUS
10
0.76371
20
0.61572
11
0.766903
21
0.617853
0
LINE
8
BLACK
6
CONTINUOUS
10
0.766903
20
0.617853
11
0.770669
21
0.618602
0
LINE
8
BLACK
6
CONTINUOUS
10
0.770669
20
0.618602
11
0.806102
21
0.618602
0
LINE
8
BLACK
6
CONTINUOUS
10
0.806102
20
0.618602
11
0.809869
21
0.617853
0
LINE
8
BLACK
6
CONTINUOUS
10
1.41863
20
0.633109
11
1.42182
21
0.630975
0
LINE
8
BLACK
6
CONTINUOUS
10
1.42182
20
0.630975
11
1.42396
21
0.627782
0
LINE
8
BLACK
6
CONTINUOUS
10
1.42396
20
0.627782
11
1.4247
21
0.624016
0
LINE
8
BLACK
6
CONTINUOUS
10
1.4247
20
0.624016
11
1.4247
21
0.588583
0
LINE
8
BLACK
6
CONTINUOUS
10
1.4247
20
0.588583
11
1.42396
21
0.584816
0
LINE
8
BLACK
6
CONTINUOUS
10
1.42396
20
0.584816
11
1.42182
21
0.581623
0
LINE
8
BLACK
6
CONTINUOUS
10
1.42182
20
0.581623
11
1.41863
21
0.579489
0
LINE
8
BLACK
6
CONTINUOUS
10
1.41863
20
0.579489
11
1.41486
21
0.57874
0
LINE
8
BLACK
6
CONTINUOUS
10
1.41486
20
0.57874
11
1.39419
21
0.57874
0
LINE
8
BLACK
6
CONTINUOUS
10
1.39419
20
0.57874
11
1.39043
21
0.579489
0
LINE
8
BLACK
6
CONTINUOUS
10
1.39043
20
0.579489
11
1.38723
21
0.581623
0
LINE
8
BLACK
6
CONTINUOUS
10
1.38723
20
0.581623
11
1.3851
21
0.584816
0
LINE
8
BLACK
6
CONTINUOUS
10
1.3851
20
0.584816
11
1.38435
21
0.588583
0
LINE
8
BLACK
6
CONTINUOUS
10
1.38435
20
0.588583
11
1.38435
21
0.624016
0
LINE
8
BLACK
6
CONTINUOUS
10
1.38435
20
0.624016
11
1.3851
21
0.627782
0
LINE
8
BLACK
6
CONTINUOUS
10
1.3851
20
0.627782
11
1.38723
21
0.630975
0
LINE
8
BLACK
6
CONTINUOUS
10
1.38723
20
0.630975
11
1.39043
21
0.633109
0
LINE
8
BLACK
6
CONTINUOUS
10
1.39043
20
0.633109
11
1.39419
21
0.633858
0
LINE
8
BLACK
6
CONTINUOUS
10
1.39419
20
0.633858
11
1.41486
21
0.633858
0
LINE
8
BLACK
6
CONTINUOUS
10
1.41486
20
0.633858
11
1.41863
21
0.633109
0
LINE
8
BLACK
6
CONTINUOUS
10
1.49048
20
0.633109
11
1.49367
21
0.630975
0
LINE
8
BLACK
6
CONTINUOUS
10
1.49367
20
0.630975
11
1.49581
21
0.627782
0
LINE
8
BLACK
6
CONTINUOUS
10
1.49581
20
0.627782
11
1.49656
21
0.624016
0
LINE
8
BLACK
6
CONTINUOUS
10
1.49656
20
0.624016
11
1.49656
21
0.588583
0
LINE
8
BLACK
6
CONTINUOUS
10
1.49656
20
0.588583
11
1.49581
21
0.584816
0
LINE
8
BLACK
6
CONTINUOUS
10
1.49581
20
0.584816
11
1.49367
21
0.581623
0
LINE
8
BLACK
6
CONTINUOUS
10
1.49367
20
0.581623
11
1.49048
21
0.579489
0
LINE
8
BLACK
6
CONTINUOUS
10
1.49048
20
0.579489
11
1.48671
21
0.57874
0
LINE
8
BLACK
6
CONTINUOUS
10
1.48671
20
0.57874
11
1.46604
21
0.57874
0
LINE
8
BLACK
6
CONTINUOUS
10
1.46604
20
0.57874
11
1.46228
21
0.579489
0
LINE
8
BLACK
6
CONTINUOUS
10
1.46228
20
0.579489
11
1.45908
21
0.581623
0
LINE
8
BLACK
6
CONTINUOUS
10
1.45908
20
0.581623
11
1.45695
21
0.584816
0
LINE
8
BLACK
6
CONTINUOUS
10
1.45695
20
0.584816
11
1.4562
21
0.588583
0
LINE
8
BLACK
6
CONTINUOUS
10
1.4562
20
0.588583
11
1.4562
21
0.624016
0
LINE
8
BLACK
6
CONTINUOUS
10
1.4562
20
0.624016
11
1.45695
21
0.627782
0
LINE
8
BLACK
6
CONTINUOUS
10
1.45695
20
0.627782
11
1.45908
21
0.630975
0
LINE
8
BLACK
6
CONTINUOUS
10
1.45908
20
0.630975
11
1.46228
21
0.633109
0
LINE
8
BLACK
6
CONTINUOUS
10
1.46228
20
0.633109
11
1.46604
21
0.633858
0
LINE
8
BLACK
6
CONTINUOUS
10
1.46604
20
0.633858
11
1.48671
21
0.633858
0
LINE
8
BLACK
6
CONTINUOUS
10
1.48671
20
0.633858
11
1.49048
21
0.633109
0
LINE
8
BLACK
6
CONTINUOUS
10
1.22523
20
0.69596
11
1.2265
21
0.695107
0
LINE
8
BLACK
6
CONTINUOUS
10
1.2265
20
0.695107
11
1.22736
21
0.693829
0
LINE
8
BLACK
6
CONTINUOUS
10
1.22736
20
0.693829
11
1.22766
21
0.692323
0
LINE
8
BLACK
6
CONTINUOUS
10
1.22766
20
0.692323
11
1.22766
21
0.684449
0
LINE
8
BLACK
6
CONTINUOUS
10
1.22766
20
0.684449
11
1.22736
21
0.682942
0
LINE
8
BLACK
6
CONTINUOUS
10
1.22736
20
0.682942
11
1.2265
21
0.681665
0
LINE
8
BLACK
6
CONTINUOUS
10
1.2265
20
0.681665
11
1.22523
21
0.680811
0
LINE
8
BLACK
6
CONTINUOUS
10
1.22523
20
0.680811
11
1.22372
21
0.680512
0
LINE
8
BLACK
6
CONTINUOUS
10
1.22372
20
0.680512
11
1.17352
21
0.680512
0
LINE
8
BLACK
6
CONTINUOUS
10
1.17352
20
0.680512
11
1.17202
21
0.680811
0
LINE
8
BLACK
6
CONTINUOUS
10
1.17202
20
0.680811
11
1.17074
21
0.681665
0
LINE
8
BLACK
6
CONTINUOUS
10
1.17074
20
0.681665
11
1.16989
21
0.682942
0
LINE
8
BLACK
6
CONTINUOUS
10
1.16989
20
0.682942
11
1.16959
21
0.684449
0
LINE
8
BLACK
6
CONTINUOUS
10
1.16959
20
0.684449
11
1.16959
21
0.692323
0
LINE
8
BLACK
6
CONTINUOUS
10
1.16959
20
0.692323
11
1.16989
21
0.693829
0
LINE
8
BLACK
6
CONTINUOUS
10
1.16989
20
0.693829
11
1.17074
21
0.695107
0
LINE
8
BLACK
6
CONTINUOUS
10
1.17074
20
0.695107
11
1.17202
21
0.69596
0
LINE
8
BLACK
6
CONTINUOUS
10
1.17202
20
0.69596
11
1.17352
21
0.69626
0
LINE
8
BLACK
6
CONTINUOUS
10
1.17352
20
0.69626
11
1.22372
21
0.69626
0
LINE
8
BLACK
6
CONTINUOUS
10
1.22372
20
0.69626
11
1.22523
21
0.69596
0
LINE
8
BLACK
6
CONTINUOUS
10
1.45062
20
0.69596
11
1.4519
21
0.695107
0
LINE
8
BLACK
6
CONTINUOUS
10
1.4519
20
0.695107
11
1.45275
21
0.693829
0
LINE
8
BLACK
6
CONTINUOUS
10
1.45275
20
0.693829
11
1.45305
21
0.692323
0
LINE
8
BLACK
6
CONTINUOUS
10
1.45305
20
0.692323
11
1.45305
21
0.684449
0
LINE
8
BLACK
6
CONTINUOUS
10
1.45305
20
0.684449
11
1.45275
21
0.682942
0
LINE
8
BLACK
6
CONTINUOUS
10
1.45275
20
0.682942
11
1.4519
21
0.681665
0
LINE
8
BLACK
6
CONTINUOUS
10
1.4519
20
0.681665
11
1.45062
21
0.680811
0
LINE
8
BLACK
6
CONTINUOUS
10
1.45062
20
0.680811
11
1.44911
21
0.680512
0
LINE
8
BLACK
6
CONTINUOUS
10
1.44911
20
0.680512
11
1.39892
21
0.680512
0
LINE
8
BLACK
6
CONTINUOUS
10
1.39892
20
0.680512
11
1.39741
21
0.680811
0
LINE
8
BLACK
6
CONTINUOUS
10
1.39741
20
0.680811
11
1.39613
21
0.681665
0
LINE
8
BLACK
6
CONTINUOUS
10
1.39613
20
0.681665
11
1.39528
21
0.682942
0
LINE
8
BLACK
6
CONTINUOUS
10
1.39528
20
0.682942
11
1.39498
21
0.684449
0
LINE
8
BLACK
6
CONTINUOUS
10
1.39498
20
0.684449
11
1.39498
21
0.692323
0
LINE
8
BLACK
6
CONTINUOUS
10
1.39498
20
0.692323
11
1.39528
21
0.693829
0
LINE
8
BLACK
6
CONTINUOUS
10
1.39528
20
0.693829
11
1.39613
21
0.695107
0
LINE
8
BLACK
6
CONTINUOUS
10
1.39613
20
0.695107
11
1.39741
21
0.69596
0
LINE
8
BLACK
6
CONTINUOUS
10
1.39741
20
0.69596
11
1.39892
21
0.69626
0
LINE
8
BLACK
6
CONTINUOUS
10
1.39892
20
0.69626
11
1.44911
21
0.69626
0
LINE
8
BLACK
6
CONTINUOUS
10
1.44911
20
0.69626
11
1.45062
21
0.69596
0
LINE
8
BLACK
6
CONTINUOUS
10
1.53999
20
0.738818
11
1.54318
21
0.736684
0
LINE
8
BLACK
6
CONTINUOUS
10
1.54318
20
0.736684
11
1.54531
21
0.733491
0
LINE
8
BLACK
6
CONTINUOUS
10
1.54531
20
0.733491
11
1.54606
21
0.729724
0
LINE
8
BLACK
6
CONTINUOUS
10
1.54606
20
0.729724
11
1.54606
21
0.692323
0
LINE
8
BLACK
6
CONTINUOUS
10
1.54606
20
0.692323
11
1.54531
21
0.688556
0
LINE
8
BLACK
6
CONTINUOUS
10
1.54531
20
0.688556
11
1.54318
21
0.685363
0
LINE
8
BLACK
6
CONTINUOUS
10
1.54318
20
0.685363
11
1.53999
21
0.68323
0
LINE
8
BLACK
6
CONTINUOUS
10
1.53999
20
0.68323
11
1.53622
21
0.68248
0
LINE
8
BLACK
6
CONTINUOUS
10
1.53622
20
0.68248
11
1.51654
21
0.68248
0
LINE
8
BLACK
6
CONTINUOUS
10
1.51654
20
0.68248
11
1.51277
21
0.68323
0
LINE
8
BLACK
6
CONTINUOUS
10
1.51277
20
0.68323
11
1.50958
21
0.685363
0
LINE
8
BLACK
6
CONTINUOUS
10
1.50958
20
0.685363
11
1.50744
21
0.688556
0
LINE
8
BLACK
6
CONTINUOUS
10
1.50744
20
0.688556
11
1.50669
21
0.692323
0
LINE
8
BLACK
6
CONTINUOUS
10
1.50669
20
0.692323
11
1.50669
21
0.729724
0
LINE
8
BLACK
6
CONTINUOUS
10
1.50669
20
0.729724
11
1.50744
21
0.733491
0
LINE
8
BLACK
6
CONTINUOUS
10
1.50744
20
0.733491
11
1.50958
21
0.736684
0
LINE
8
BLACK
6
CONTINUOUS
10
1.50958
20
0.736684
11
1.51277
21
0.738818
0
LINE
8
BLACK
6
CONTINUOUS
10
1.51277
20
0.738818
11
1.51654
21
0.739567
0
LINE
8
BLACK
6
CONTINUOUS
10
1.51654
20
0.739567
11
1.53622
21
0.739567
0
LINE
8
BLACK
6
CONTINUOUS
10
1.53622
20
0.739567
11
1.53999
21
0.738818
0
LINE
8
BLACK
6
CONTINUOUS
10
1.61479
20
0.738818
11
1.61798
21
0.736684
0
LINE
8
BLACK
6
CONTINUOUS
10
1.61798
20
0.736684
11
1.62012
21
0.733491
0
LINE
8
BLACK
6
CONTINUOUS
10
1.62012
20
0.733491
11
1.62087
21
0.729724
0
LINE
8
BLACK
6
CONTINUOUS
10
1.62087
20
0.729724
11
1.62087
21
0.692323
0
LINE
8
BLACK
6
CONTINUOUS
10
1.62087
20
0.692323
11
1.62012
21
0.688556
0
LINE
8
BLACK
6
CONTINUOUS
10
1.62012
20
0.688556
11
1.61798
21
0.685363
0
LINE
8
BLACK
6
CONTINUOUS
10
1.61798
20
0.685363
11
1.61479
21
0.68323
0
LINE
8
BLACK
6
CONTINUOUS
10
1.61479
20
0.68323
11
1.61102
21
0.68248
0
LINE
8
BLACK
6
CONTINUOUS
10
1.61102
20
0.68248
11
1.59134
21
0.68248
0
LINE
8
BLACK
6
CONTINUOUS
10
1.59134
20
0.68248
11
1.58757
21
0.68323
0
LINE
8
BLACK
6
CONTINUOUS
10
1.58757
20
0.68323
11
1.58438
21
0.685363
0
LINE
8
BLACK
6
CONTINUOUS
10
1.58438
20
0.685363
11
1.58225
21
0.688556
0
LINE
8
BLACK
6
CONTINUOUS
10
1.58225
20
0.688556
11
1.5815
21
0.692323
0
LINE
8
BLACK
6
CONTINUOUS
10
1.5815
20
0.692323
11
1.5815
21
0.729724
0
LINE
8
BLACK
6
CONTINUOUS
10
1.5815
20
0.729724
11
1.58225
21
0.733491
0
LINE
8
BLACK
6
CONTINUOUS
10
1.58225
20
0.733491
11
1.58438
21
0.736684
0
LINE
8
BLACK
6
CONTINUOUS
10
1.58438
20
0.736684
11
1.58757
21
0.738818
0
LINE
8
BLACK
6
CONTINUOUS
10
1.58757
20
0.738818
11
1.59134
21
0.739567
0
LINE
8
BLACK
6
CONTINUOUS
10
1.59134
20
0.739567
11
1.61102
21
0.739567
0
LINE
8
BLACK
6
CONTINUOUS
10
1.61102
20
0.739567
11
1.61479
21
0.738818
0
LINE
8
BLACK
6
CONTINUOUS
10
1.22523
20
0.721551
11
1.2265
21
0.720697
0
LINE
8
BLACK
6
CONTINUOUS
10
1.2265
20
0.720697
11
1.22736
21
0.71942
0
LINE
8
BLACK
6
CONTINUOUS
10
1.22736
20
0.71942
11
1.22766
21
0.717913
0
LINE
8
BLACK
6
CONTINUOUS
10
1.22766
20
0.717913
11
1.22766
21
0.710039
0
LINE
8
BLACK
6
CONTINUOUS
10
1.22766
20
0.710039
11
1.22736
21
0.708533
0
LINE
8
BLACK
6
CONTINUOUS
10
1.22736
20
0.708533
11
1.2265
21
0.707255
0
LINE
8
BLACK
6
CONTINUOUS
10
1.2265
20
0.707255
11
1.22523
21
0.706402
0
LINE
8
BLACK
6
CONTINUOUS
10
1.22523
20
0.706402
11
1.22372
21
0.706102
0
LINE
8
BLACK
6
CONTINUOUS
10
1.22372
20
0.706102
11
1.17352
21
0.706102
0
LINE
8
BLACK
6
CONTINUOUS
10
1.17352
20
0.706102
11
1.17202
21
0.706402
0
LINE
8
BLACK
6
CONTINUOUS
10
1.17202
20
0.706402
11
1.17074
21
0.707255
0
LINE
8
BLACK
6
CONTINUOUS
10
1.17074
20
0.707255
11
1.16989
21
0.708533
0
LINE
8
BLACK
6
CONTINUOUS
10
1.16989
20
0.708533
11
1.16959
21
0.710039
0
LINE
8
BLACK
6
CONTINUOUS
10
1.16959
20
0.710039
11
1.16959
21
0.717913
0
LINE
8
BLACK
6
CONTINUOUS
10
1.16959
20
0.717913
11
1.16989
21
0.71942
0
LINE
8
BLACK
6
CONTINUOUS
10
1.16989
20
0.71942
11
1.17074
21
0.720697
0
LINE
8
BLACK
6
CONTINUOUS
10
1.17074
20
0.720697
11
1.17202
21
0.721551
0
LINE
8
BLACK
6
CONTINUOUS
10
1.17202
20
0.721551
11
1.17352
21
0.72185
0
LINE
8
BLACK
6
CONTINUOUS
10
1.17352
20
0.72185
11
1.22372
21
0.72185
0
LINE
8
BLACK
6
CONTINUOUS
10
1.22372
20
0.72185
11
1.22523
21
0.721551
0
LINE
8
BLACK
6
CONTINUOUS
10
1.45062
20
0.721551
11
1.4519
21
0.720697
0
LINE
8
BLACK
6
CONTINUOUS
10
1.4519
20
0.720697
11
1.45275
21
0.71942
0
LINE
8
BLACK
6
CONTINUOUS
10
1.45275
20
0.71942
11
1.45305
21
0.717913
0
LINE
8
BLACK
6
CONTINUOUS
10
1.45305
20
0.717913
11
1.45305
21
0.710039
0
LINE
8
BLACK
6
CONTINUOUS
10
1.45305
20
0.710039
11
1.45275
21
0.708533
0
LINE
8
BLACK
6
CONTINUOUS
10
1.45275
20
0.708533
11
1.4519
21
0.707255
0
LINE
8
BLACK
6
CONTINUOUS
10
1.4519
20
0.707255
11
1.45062
21
0.706402
0
LINE
8
BLACK
6
CONTINUOUS
10
1.45062
20
0.706402
11
1.44911
21
0.706102
0
LINE
8
BLACK
6
CONTINUOUS
10
1.44911
20
0.706102
11
1.39892
21
0.706102
0
LINE
8
BLACK
6
CONTINUOUS
10
1.39892
20
0.706102
11
1.39741
21
0.706402
0
LINE
8
BLACK
6
CONTINUOUS
10
1.39741
20
0.706402
11
1.39613
21
0.707255
0
LINE
8
BLACK
6
CONTINUOUS
10
1.39613
20
0.707255
11
1.39528
21
0.708533
0
LINE
8
BLACK
6
CONTINUOUS
10
1.39528
20
0.708533
11
1.39498
21
0.710039
0
LINE
8
BLACK
6
CONTINUOUS
10
1.39498
20
0.710039
11
1.39498
21
0.717913
0
LINE
8
BLACK
6
CONTINUOUS
10
1.39498
20
0.717913
11
1.39528
21
0.71942
0
LINE
8
BLACK
6
CONTINUOUS
10
1.39528
20
0.71942
11
1.39613
21
0.720697
0
LINE
8
BLACK
6
CONTINUOUS
10
1.39613
20
0.720697
11
1.39741
21
0.721551
0
LINE
8
BLACK
6
CONTINUOUS
10
1.39741
20
0.721551
11
1.39892
21
0.72185
0
LINE
8
BLACK
6
CONTINUOUS
10
1.39892
20
0.72185
11
1.44911
21
0.72185
0
LINE
8
BLACK
6
CONTINUOUS
10
1.44911
20
0.72185
11
1.45062
21
0.721551
0
LINE
8
BLACK
6
CONTINUOUS
10
1.69668
20
0.755156
11
1.69987
21
0.753023
0
LINE
8
BLACK
6
CONTINUOUS
10
1.69987
20
0.753023
11
1.70201
21
0.74983
0
LINE
8
BLACK
6
CONTINUOUS
10
1.70201
20
0.74983
11
1.70276
21
0.746063
0
LINE
8
BLACK
6
CONTINUOUS
10
1.70276
20
0.746063
11
1.70276
21
0.726378
0
LINE
8
BLACK
6
CONTINUOUS
10
1.70276
20
0.726378
11
1.70201
21
0.722611
0
LINE
8
BLACK
6
CONTINUOUS
10
1.70201
20
0.722611
11
1.69987
21
0.719418
0
LINE
8
BLACK
6
CONTINUOUS
10
1.69987
20
0.719418
11
1.69668
21
0.717285
0
LINE
8
BLACK
6
CONTINUOUS
10
1.69668
20
0.717285
11
1.69291
21
0.716535
0
LINE
8
BLACK
6
CONTINUOUS
10
1.69291
20
0.716535
11
1.65551
21
0.716535
0
LINE
8
BLACK
6
CONTINUOUS
10
1.65551
20
0.716535
11
1.65175
21
0.717285
0
LINE
8
BLACK
6
CONTINUOUS
10
1.65175
20
0.717285
11
1.64855
21
0.719418
0
LINE
8
BLACK
6
CONTINUOUS
10
1.64855
20
0.719418
11
1.64642
21
0.722611
0
LINE
8
BLACK
6
CONTINUOUS
10
1.64642
20
0.722611
11
1.64567
21
0.726378
0
LINE
8
BLACK
6
CONTINUOUS
10
1.64567
20
0.726378
11
1.64567
21
0.746063
0
LINE
8
BLACK
6
CONTINUOUS
10
1.64567
20
0.746063
11
1.64642
21
0.74983
0
LINE
8
BLACK
6
CONTINUOUS
10
1.64642
20
0.74983
11
1.64855
21
0.753023
0
LINE
8
BLACK
6
CONTINUOUS
10
1.64855
20
0.753023
11
1.65175
21
0.755156
0
LINE
8
BLACK
6
CONTINUOUS
10
1.65175
20
0.755156
11
1.65551
21
0.755906
0
LINE
8
BLACK
6
CONTINUOUS
10
1.65551
20
0.755906
11
1.69291
21
0.755906
0
LINE
8
BLACK
6
CONTINUOUS
10
1.69291
20
0.755906
11
1.69668
21
0.755156
0
LINE
8
BLACK
6
CONTINUOUS
10
1.37188
20
0.932377
11
1.37316
21
0.931524
0
LINE
8
BLACK
6
CONTINUOUS
10
1.37316
20
0.931524
11
1.37401
21
0.930247
0
LINE
8
BLACK
6
CONTINUOUS
10
1.37401
20
0.930247
11
1.37431
21
0.92874
0
LINE
8
BLACK
6
CONTINUOUS
10
1.37431
20
0.92874
11
1.37431
21
0.729528
0
LINE
8
BLACK
6
CONTINUOUS
10
1.37431
20
0.729528
11
1.37401
21
0.728021
0
LINE
8
BLACK
6
CONTINUOUS
10
1.37401
20
0.728021
11
1.37316
21
0.726744
0
LINE
8
BLACK
6
CONTINUOUS
10
1.37316
20
0.726744
11
1.37188
21
0.72589
0
LINE
8
BLACK
6
CONTINUOUS
10
1.37188
20
0.72589
11
1.37037
21
0.725591
0
LINE
8
BLACK
6
CONTINUOUS
10
1.37037
20
0.725591
11
1.25226
21
0.725591
0
LINE
8
BLACK
6
CONTINUOUS
10
1.25226
20
0.725591
11
1.25076
21
0.72589
0
LINE
8
BLACK
6
CONTINUOUS
10
1.25076
20
0.72589
11
1.24948
21
0.726744
0
LINE
8
BLACK
6
CONTINUOUS
10
1.24948
20
0.726744
11
1.24863
21
0.728021
0
LINE
8
BLACK
6
CONTINUOUS
10
1.24863
20
0.728021
11
1.24833
21
0.729528
0
LINE
8
BLACK
6
CONTINUOUS
10
1.24833
20
0.729528
11
1.24833
21
0.92874
0
LINE
8
BLACK
6
CONTINUOUS
10
1.24833
20
0.92874
11
1.24863
21
0.930247
0
LINE
8
BLACK
6
CONTINUOUS
10
1.24863
20
0.930247
11
1.24948
21
0.931524
0
LINE
8
BLACK
6
CONTINUOUS
10
1.24948
20
0.931524
11
1.25076
21
0.932377
0
LINE
8
BLACK
6
CONTINUOUS
10
1.25076
20
0.932377
11
1.25226
21
0.932677
0
LINE
8
BLACK
6
CONTINUOUS
10
1.25226
20
0.932677
11
1.37037
21
0.932677
0
LINE
8
BLACK
6
CONTINUOUS
10
1.37037
20
0.932677
11
1.37188
21
0.932377
0
LINE
8
BLACK
6
CONTINUOUS
10
1.22523
20
0.747141
11
1.2265
21
0.746288
0
LINE
8
BLACK
6
CONTINUOUS
10
1.2265
20
0.746288
11
1.22736
21
0.745011
0
LINE
8
BLACK
6
CONTINUOUS
10
1.22736
20
0.745011
11
1.22766
21
0.743504
0
LINE
8
BLACK
6
CONTINUOUS
10
1.22766
20
0.743504
11
1.22766
21
0.73563
0
LINE
8
BLACK
6
CONTINUOUS
10
1.22766
20
0.73563
11
1.22736
21
0.734123
0
LINE
8
BLACK
6
CONTINUOUS
10
1.22736
20
0.734123
11
1.2265
21
0.732846
0
LINE
8
BLACK
6
CONTINUOUS
10
1.2265
20
0.732846
11
1.22523
21
0.731993
0
LINE
8
BLACK
6
CONTINUOUS
10
1.22523
20
0.731993
11
1.22372
21
0.731693
0
LINE
8
BLACK
6
CONTINUOUS
10
1.22372
20
0.731693
11
1.17352
21
0.731693
0
LINE
8
BLACK
6
CONTINUOUS
10
1.17352
20
0.731693
11
1.17202
21
0.731993
0
LINE
8
BLACK
6
CONTINUOUS
10
1.17202
20
0.731993
11
1.17074
21
0.732846
0
LINE
8
BLACK
6
CONTINUOUS
10
1.17074
20
0.732846
11
1.16989
21
0.734123
0
LINE
8
BLACK
6
CONTINUOUS
10
1.16989
20
0.734123
11
1.16959
21
0.73563
0
LINE
8
BLACK
6
CONTINUOUS
10
1.16959
20
0.73563
11
1.16959
21
0.743504
0
LINE
8
BLACK
6
CONTINUOUS
10
1.16959
20
0.743504
11
1.16989
21
0.745011
0
LINE
8
BLACK
6
CONTINUOUS
10
1.16989
20
0.745011
11
1.17074
21
0.746288
0
LINE
8
BLACK
6
CONTINUOUS
10
1.17074
20
0.746288
11
1.17202
21
0.747141
0
LINE
8
BLACK
6
CONTINUOUS
10
1.17202
20
0.747141
11
1.17352
21
0.747441
0
LINE
8
BLACK
6
CONTINUOUS
10
1.17352
20
0.747441
11
1.22372
21
0.747441
0
LINE
8
BLACK
6
CONTINUOUS
10
1.22372
20
0.747441
11
1.22523
21
0.747141
0
LINE
8
BLACK
6
CONTINUOUS
10
1.45062
20
0.747141
11
1.4519
21
0.746288
0
LINE
8
BLACK
6
CONTINUOUS
10
1.4519
20
0.746288
11
1.45275
21
0.745011
0
LINE
8
BLACK
6
CONTINUOUS
10
1.45275
20
0.745011
11
1.45305
21
0.743504
0
LINE
8
BLACK
6
CONTINUOUS
10
1.45305
20
0.743504
11
1.45305
21
0.73563
0
LINE
8
BLACK
6
CONTINUOUS
10
1.45305
20
0.73563
11
1.45275
21
0.734123
0
LINE
8
BLACK
6
CONTINUOUS
10
1.45275
20
0.734123
11
1.4519
21
0.732846
0
LINE
8
BLACK
6
CONTINUOUS
10
1.4519
20
0.732846
11
1.45062
21
0.731993
0
LINE
8
BLACK
6
CONTINUOUS
10
1.45062
20
0.731993
11
1.44911
21
0.731693
0
LINE
8
BLACK
6
CONTINUOUS
10
1.44911
20
0.731693
11
1.39892
21
0.731693
0
LINE
8
BLACK
6
CONTINUOUS
10
1.39892
20
0.731693
11
1.39741
21
0.731993
0
LINE
8
BLACK
6
CONTINUOUS
10
1.39741
20
0.731993
11
1.39613
21
0.732846
0
LINE
8
BLACK
6
CONTINUOUS
10
1.39613
20
0.732846
11
1.39528
21
0.734123
0
LINE
8
BLACK
6
CONTINUOUS
10
1.39528
20
0.734123
11
1.39498
21
0.73563
0
LINE
8
BLACK
6
CONTINUOUS
10
1.39498
20
0.73563
11
1.39498
21
0.743504
0
LINE
8
BLACK
6
CONTINUOUS
10
1.39498
20
0.743504
11
1.39528
21
0.745011
0
LINE
8
BLACK
6
CONTINUOUS
10
1.39528
20
0.745011
11
1.39613
21
0.746288
0
LINE
8
BLACK
6
CONTINUOUS
10
1.39613
20
0.746288
11
1.39741
21
0.747141
0
LINE
8
BLACK
6
CONTINUOUS
10
1.39741
20
0.747141
11
1.39892
21
0.747441
0
LINE
8
BLACK
6
CONTINUOUS
10
1.39892
20
0.747441
11
1.44911
21
0.747441
0
LINE
8
BLACK
6
CONTINUOUS
10
1.44911
20
0.747441
11
1.45062
21
0.747141
0
LINE
8
BLACK
6
CONTINUOUS
10
1.22523
20
0.772732
11
1.2265
21
0.771878
0
LINE
8
BLACK
6
CONTINUOUS
10
1.2265
20
0.771878
11
1.22736
21
0.770601
0
LINE
8
BLACK
6
CONTINUOUS
10
1.22736
20
0.770601
11
1.22766
21
0.769094
0
LINE
8
BLACK
6
CONTINUOUS
10
1.22766
20
0.769094
11
1.22766
21
0.76122
0
LINE
8
BLACK
6
CONTINUOUS
10
1.22766
20
0.76122
11
1.22736
21
0.759714
0
LINE
8
BLACK
6
CONTINUOUS
10
1.22736
20
0.759714
11
1.2265
21
0.758437
0
LINE
8
BLACK
6
CONTINUOUS
10
1.2265
20
0.758437
11
1.22523
21
0.757583
0
LINE
8
BLACK
6
CONTINUOUS
10
1.22523
20
0.757583
11
1.22372
21
0.757283
0
LINE
8
BLACK
6
CONTINUOUS
10
1.22372
20
0.757283
11
1.17352
21
0.757283
0
LINE
8
BLACK
6
CONTINUOUS
10
1.17352
20
0.757283
11
1.17202
21
0.757583
0
LINE
8
BLACK
6
CONTINUOUS
10
1.17202
20
0.757583
11
1.17074
21
0.758437
0
LINE
8
BLACK
6
CONTINUOUS
10
1.17074
20
0.758437
11
1.16989
21
0.759714
0
LINE
8
BLACK
6
CONTINUOUS
10
1.16989
20
0.759714
11
1.16959
21
0.76122
0
LINE
8
BLACK
6
CONTINUOUS
10
1.16959
20
0.76122
11
1.16959
21
0.769094
0
LINE
8
BLACK
6
CONTINUOUS
10
1.16959
20
0.769094
11
1.16989
21
0.770601
0
LINE
8
BLACK
6
CONTINUOUS
10
1.16989
20
0.770601
11
1.17074
21
0.771878
0
LINE
8
BLACK
6
CONTINUOUS
10
1.17074
20
0.771878
11
1.17202
21
0.772732
0
LINE
8
BLACK
6
CONTINUOUS
10
1.17202
20
0.772732
11
1.17352
21
0.773031
0
LINE
8
BLACK
6
CONTINUOUS
10
1.17352
20
0.773031
11
1.22372
21
0.773031
0
LINE
8
BLACK
6
CONTINUOUS
10
1.22372
20
0.773031
11
1.22523
21
0.772732
0
LINE
8
BLACK
6
CONTINUOUS
10
1.45062
20
0.772732
11
1.4519
21
0.771878
0
LINE
8
BLACK
6
CONTINUOUS
10
1.4519
20
0.771878
11
1.45275
21
0.770601
0
LINE
8
BLACK
6
CONTINUOUS
10
1.45275
20
0.770601
11
1.45305
21
0.769094
0
LINE
8
BLACK
6
CONTINUOUS
10
1.45305
20
0.769094
11
1.45305
21
0.76122
0
LINE
8
BLACK
6
CONTINUOUS
10
1.45305
20
0.76122
11
1.45275
21
0.759714
0
LINE
8
BLACK
6
CONTINUOUS
10
1.45275
20
0.759714
11
1.4519
21
0.758437
0
LINE
8
BLACK
6
CONTINUOUS
10
1.4519
20
0.758437
11
1.45062
21
0.757583
0
LINE
8
BLACK
6
CONTINUOUS
10
1.45062
20
0.757583
11
1.44911
21
0.757283
0
LINE
8
BLACK
6
CONTINUOUS
10
1.44911
20
0.757283
11
1.39892
21
0.757283
0
LINE
8
BLACK
6
CONTINUOUS
10
1.39892
20
0.757283
11
1.39741
21
0.757583
0
LINE
8
BLACK
6
CONTINUOUS
10
1.39741
20
0.757583
11
1.39613
21
0.758437
0
LINE
8
BLACK
6
CONTINUOUS
10
1.39613
20
0.758437
11
1.39528
21
0.759714
0
LINE
8
BLACK
6
CONTINUOUS
10
1.39528
20
0.759714
11
1.39498
21
0.76122
0
LINE
8
BLACK
6
CONTINUOUS
10
1.39498
20
0.76122
11
1.39498
21
0.769094
0
LINE
8
BLACK
6
CONTINUOUS
10
1.39498
20
0.769094
11
1.39528
21
0.770601
0
LINE
8
BLACK
6
CONTINUOUS
10
1.39528
20
0.770601
11
1.39613
21
0.771878
0
LINE
8
BLACK
6
CONTINUOUS
10
1.39613
20
0.771878
11
1.39741
21
0.772732
0
LINE
8
BLACK
6
CONTINUOUS
10
1.39741
20
0.772732
11
1.39892
21
0.773031
0
LINE
8
BLACK
6
CONTINUOUS
10
1.39892
20
0.773031
11
1.44911
21
0.773031
0
LINE
8
BLACK
6
CONTINUOUS
10
1.44911
20
0.773031
11
1.45062
21
0.772732
0
LINE
8
BLACK
6
CONTINUOUS
10
1.53999
20
0.829369
11
1.54318
21
0.827235
0
LINE
8
BLACK
6
CONTINUOUS
10
1.54318
20
0.827235
11
1.54531
21
0.824042
0
LINE
8
BLACK
6
CONTINUOUS
10
1.54531
20
0.824042
11
1.54606
21
0.820276
0
LINE
8
BLACK
6
CONTINUOUS
10
1.54606
20
0.820276
11
1.54606
21
0.782874
0
LINE
8
BLACK
6
CONTINUOUS
10
1.54606
20
0.782874
11
1.54531
21
0.779107
0
LINE
8
BLACK
6
CONTINUOUS
10
1.54531
20
0.779107
11
1.54318
21
0.775914
0
LINE
8
BLACK
6
CONTINUOUS
10
1.54318
20
0.775914
11
1.53999
21
0.773781
0
LINE
8
BLACK
6
CONTINUOUS
10
1.53999
20
0.773781
11
1.53622
21
0.773031
0
LINE
8
BLACK
6
CONTINUOUS
10
1.53622
20
0.773031
11
1.51654
21
0.773031
0
LINE
8
BLACK
6
CONTINUOUS
10
1.51654
20
0.773031
11
1.51277
21
0.773781
0
LINE
8
BLACK
6
CONTINUOUS
10
1.51277
20
0.773781
11
1.50958
21
0.775914
0
LINE
8
BLACK
6
CONTINUOUS
10
1.50958
20
0.775914
11
1.50744
21
0.779107
0
LINE
8
BLACK
6
CONTINUOUS
10
1.50744
20
0.779107
11
1.50669
21
0.782874
0
LINE
8
BLACK
6
CONTINUOUS
10
1.50669
20
0.782874
11
1.50669
21
0.820276
0
LINE
8
BLACK
6
CONTINUOUS
10
1.50669
20
0.820276
11
1.50744
21
0.824042
0
LINE
8
BLACK
6
CONTINUOUS
10
1.50744
20
0.824042
11
1.50958
21
0.827235
0
LINE
8
BLACK
6
CONTINUOUS
10
1.50958
20
0.827235
11
1.51277
21
0.829369
0
LINE
8
BLACK
6
CONTINUOUS
10
1.51277
20
0.829369
11
1.51654
21
0.830118
0
LINE
8
BLACK
6
CONTINUOUS
10
1.51654
20
0.830118
11
1.53622
21
0.830118
0
LINE
8
BLACK
6
CONTINUOUS
10
1.53622
20
0.830118
11
1.53999
21
0.829369
0
LINE
8
BLACK
6
CONTINUOUS
10
1.61479
20
0.829369
11
1.61798
21
0.827235
0
LINE
8
BLACK
6
CONTINUOUS
10
1.61798
20
0.827235
11
1.62012
21
0.824042
0
LINE
8
BLACK
6
CONTINUOUS
10
1.62012
20
0.824042
11
1.62087
21
0.820276
0
LINE
8
BLACK
6
CONTINUOUS
10
1.62087
20
0.820276
11
1.62087
21
0.782874
0
LINE
8
BLACK
6
CONTINUOUS
10
1.62087
20
0.782874
11
1.62012
21
0.779107
0
LINE
8
BLACK
6
CONTINUOUS
10
1.62012
20
0.779107
11
1.61798
21
0.775914
0
LINE
8
BLACK
6
CONTINUOUS
10
1.61798
20
0.775914
11
1.61479
21
0.773781
0
LINE
8
BLACK
6
CONTINUOUS
10
1.61479
20
0.773781
11
1.61102
21
0.773031
0
LINE
8
BLACK
6
CONTINUOUS
10
1.61102
20
0.773031
11
1.59134
21
0.773031
0
LINE
8
BLACK
6
CONTINUOUS
10
1.59134
20
0.773031
11
1.58757
21
0.773781
0
LINE
8
BLACK
6
CONTINUOUS
10
1.58757
20
0.773781
11
1.58438
21
0.775914
0
LINE
8
BLACK
6
CONTINUOUS
10
1.58438
20
0.775914
11
1.58225
21
0.779107
0
LINE
8
BLACK
6
CONTINUOUS
10
1.58225
20
0.779107
11
1.5815
21
0.782874
0
LINE
8
BLACK
6
CONTINUOUS
10
1.5815
20
0.782874
11
1.5815
21
0.820276
0
LINE
8
BLACK
6
CONTINUOUS
10
1.5815
20
0.820276
11
1.58225
21
0.824042
0
LINE
8
BLACK
6
CONTINUOUS
10
1.58225
20
0.824042
11
1.58438
21
0.827235
0
LINE
8
BLACK
6
CONTINUOUS
10
1.58438
20
0.827235
11
1.58757
21
0.829369
0
LINE
8
BLACK
6
CONTINUOUS
10
1.58757
20
0.829369
11
1.59134
21
0.830118
0
LINE
8
BLACK
6
CONTINUOUS
10
1.59134
20
0.830118
11
1.61102
21
0.830118
0
LINE
8
BLACK
6
CONTINUOUS
10
1.61102
20
0.830118
11
1.61479
21
0.829369
0
LINE
8
BLACK
6
CONTINUOUS
10
1.22523
20
0.798322
11
1.2265
21
0.797469
0
LINE
8
BLACK
6
CONTINUOUS
10
1.2265
20
0.797469
11
1.22736
21
0.796192
0
LINE
8
BLACK
6
CONTINUOUS
10
1.22736
20
0.796192
11
1.22766
21
0.794685
0
LINE
8
BLACK
6
CONTINUOUS
10
1.22766
20
0.794685
11
1.22766
21
0.786811
0
LINE
8
BLACK
6
CONTINUOUS
10
1.22766
20
0.786811
11
1.22736
21
0.785304
0
LINE
8
BLACK
6
CONTINUOUS
10
1.22736
20
0.785304
11
1.2265
21
0.784027
0
LINE
8
BLACK
6
CONTINUOUS
10
1.2265
20
0.784027
11
1.22523
21
0.783174
0
LINE
8
BLACK
6
CONTINUOUS
10
1.22523
20
0.783174
11
1.22372
21
0.782874
0
LINE
8
BLACK
6
CONTINUOUS
10
1.22372
20
0.782874
11
1.17352
21
0.782874
0
LINE
8
BLACK
6
CONTINUOUS
10
1.17352
20
0.782874
11
1.17202
21
0.783174
0
LINE
8
BLACK
6
CONTINUOUS
10
1.17202
20
0.783174
11
1.17074
21
0.784027
0
LINE
8
BLACK
6
CONTINUOUS
10
1.17074
20
0.784027
11
1.16989
21
0.785304
0
LINE
8
BLACK
6
CONTINUOUS
10
1.16989
20
0.785304
11
1.16959
21
0.786811
0
LINE
8
BLACK
6
CONTINUOUS
10
1.16959
20
0.786811
11
1.16959
21
0.794685
0
LINE
8
BLACK
6
CONTINUOUS
10
1.16959
20
0.794685
11
1.16989
21
0.796192
0
LINE
8
BLACK
6
CONTINUOUS
10
1.16989
20
0.796192
11
1.17074
21
0.797469
0
LINE
8
BLACK
6
CONTINUOUS
10
1.17074
20
0.797469
11
1.17202
21
0.798322
0
LINE
8
BLACK
6
CONTINUOUS
10
1.17202
20
0.798322
11
1.17352
21
0.798622
0
LINE
8
BLACK
6
CONTINUOUS
10
1.17352
20
0.798622
11
1.22372
21
0.798622
0
LINE
8
BLACK
6
CONTINUOUS
10
1.22372
20
0.798622
11
1.22523
21
0.798322
0
LINE
8
BLACK
6
CONTINUOUS
10
1.45062
20
0.798322
11
1.4519
21
0.797469
0
LINE
8
BLACK
6
CONTINUOUS
10
1.4519
20
0.797469
11
1.45275
21
0.796192
0
LINE
8
BLACK
6
CONTINUOUS
10
1.45275
20
0.796192
11
1.45305
21
0.794685
0
LINE
8
BLACK
6
CONTINUOUS
10
1.45305
20
0.794685
11
1.45305
21
0.786811
0
LINE
8
BLACK
6
CONTINUOUS
10
1.45305
20
0.786811
11
1.45275
21
0.785304
0
LINE
8
BLACK
6
CONTINUOUS
10
1.45275
20
0.785304
11
1.4519
21
0.784027
0
LINE
8
BLACK
6
CONTINUOUS
10
1.4519
20
0.784027
11
1.45062
21
0.783174
0
LINE
8
BLACK
6
CONTINUOUS
10
1.45062
20
0.783174
11
1.44911
21
0.782874
0
LINE
8
BLACK
6
CONTINUOUS
10
1.44911
20
0.782874
11
1.39892
21
0.782874
0
LINE
8
BLACK
6
CONTINUOUS
10
1.39892
20
0.782874
11
1.39741
21
0.783174
0
LINE
8
BLACK
6
CONTINUOUS
10
1.39741
20
0.783174
11
1.39613
21
0.784027
0
LINE
8
BLACK
6
CONTINUOUS
10
1.39613
20
0.784027
11
1.39528
21
0.785304
0
LINE
8
BLACK
6
CONTINUOUS
10
1.39528
20
0.785304
11
1.39498
21
0.786811
0
LINE
8
BLACK
6
CONTINUOUS
10
1.39498
20
0.786811
11
1.39498
21
0.794685
0
LINE
8
BLACK
6
CONTINUOUS
10
1.39498
20
0.794685
11
1.39528
21
0.796192
0
LINE
8
BLACK
6
CONTINUOUS
10
1.39528
20
0.796192
11
1.39613
21
0.797469
0
LINE
8
BLACK
6
CONTINUOUS
10
1.39613
20
0.797469
11
1.39741
21
0.798322
0
LINE
8
BLACK
6
CONTINUOUS
10
1.39741
20
0.798322
11
1.39892
21
0.798622
0
LINE
8
BLACK
6
CONTINUOUS
10
1.39892
20
0.798622
11
1.44911
21
0.798622
0
LINE
8
BLACK
6
CONTINUOUS
10
1.44911
20
0.798622
11
1.45062
21
0.798322
0
LINE
8
BLACK
6
CONTINUOUS
10
1.69668
20
0.829959
11
1.69987
21
0.827826
0
LINE
8
BLACK
6
CONTINUOUS
10
1.69987
20
0.827826
11
1.70201
21
0.824633
0
LINE
8
BLACK
6
CONTINUOUS
10
1.70201
20
0.824633
11
1.70276
21
0.820866
0
LINE
8
BLACK
6
CONTINUOUS
10
1.70276
20
0.820866
11
1.70276
21
0.801181
0
LINE
8
BLACK
6
CONTINUOUS
10
1.70276
20
0.801181
11
1.70201
21
0.797415
0
LINE
8
BLACK
6
CONTINUOUS
10
1.70201
20
0.797415
11
1.69987
21
0.794221
0
LINE
8
BLACK
6
CONTINUOUS
10
1.69987
20
0.794221
11
1.69668
21
0.792088
0
LINE
8
BLACK
6
CONTINUOUS
10
1.69668
20
0.792088
11
1.69291
21
0.791339
0
LINE
8
BLACK
6
CONTINUOUS
10
1.69291
20
0.791339
11
1.65551
21
0.791339
0
LINE
8
BLACK
6
CONTINUOUS
10
1.65551
20
0.791339
11
1.65175
21
0.792088
0
LINE
8
BLACK
6
CONTINUOUS
10
1.65175
20
0.792088
11
1.64855
21
0.794221
0
LINE
8
BLACK
6
CONTINUOUS
10
1.64855
20
0.794221
11
1.64642
21
0.797415
0
LINE
8
BLACK
6
CONTINUOUS
10
1.64642
20
0.797415
11
1.64567
21
0.801181
0
LINE
8
BLACK
6
CONTINUOUS
10
1.64567
20
0.801181
11
1.64567
21
0.820866
0
LINE
8
BLACK
6
CONTINUOUS
10
1.64567
20
0.820866
11
1.64642
21
0.824633
0
LINE
8
BLACK
6
CONTINUOUS
10
1.64642
20
0.824633
11
1.64855
21
0.827826
0
LINE
8
BLACK
6
CONTINUOUS
10
1.64855
20
0.827826
11
1.65175
21
0.829959
0
LINE
8
BLACK
6
CONTINUOUS
10
1.65175
20
0.829959
11
1.65551
21
0.830709
0
LINE
8
BLACK
6
CONTINUOUS
10
1.65551
20
0.830709
11
1.69291
21
0.830709
0
LINE
8
BLACK
6
CONTINUOUS
10
1.69291
20
0.830709
11
1.69668
21
0.829959
0
LINE
8
BLACK
6
CONTINUOUS
10
1.22523
20
0.823913
11
1.2265
21
0.823059
0
LINE
8
BLACK
6
CONTINUOUS
10
1.2265
20
0.823059
11
1.22736
21
0.821782
0
LINE
8
BLACK
6
CONTINUOUS
10
1.22736
20
0.821782
11
1.22766
21
0.820276
0
LINE
8
BLACK
6
CONTINUOUS
10
1.22766
20
0.820276
11
1.22766
21
0.812402
0
LINE
8
BLACK
6
CONTINUOUS
10
1.22766
20
0.812402
11
1.22736
21
0.810895
0
LINE
8
BLACK
6
CONTINUOUS
10
1.22736
20
0.810895
11
1.2265
21
0.809618
0
LINE
8
BLACK
6
CONTINUOUS
10
1.2265
20
0.809618
11
1.22523
21
0.808764
0
LINE
8
BLACK
6
CONTINUOUS
10
1.22523
20
0.808764
11
1.22372
21
0.808465
0
LINE
8
BLACK
6
CONTINUOUS
10
1.22372
20
0.808465
11
1.17352
21
0.808465
0
LINE
8
BLACK
6
CONTINUOUS
10
1.17352
20
0.808465
11
1.17202
21
0.808764
0
LINE
8
BLACK
6
CONTINUOUS
10
1.17202
20
0.808764
11
1.17074
21
0.809618
0
LINE
8
BLACK
6
CONTINUOUS
10
1.17074
20
0.809618
11
1.16989
21
0.810895
0
LINE
8
BLACK
6
CONTINUOUS
10
1.16989
20
0.810895
11
1.16959
21
0.812402
0
LINE
8
BLACK
6
CONTINUOUS
10
1.16959
20
0.812402
11
1.16959
21
0.820276
0
LINE
8
BLACK
6
CONTINUOUS
10
1.16959
20
0.820276
11
1.16989
21
0.821782
0
LINE
8
BLACK
6
CONTINUOUS
10
1.16989
20
0.821782
11
1.17074
21
0.823059
0
LINE
8
BLACK
6
CONTINUOUS
10
1.17074
20
0.823059
11
1.17202
21
0.823913
0
LINE
8
BLACK
6
CONTINUOUS
10
1.17202
20
0.823913
11
1.17352
21
0.824213
0
LINE
8
BLACK
6
CONTINUOUS
10
1.17352
20
0.824213
11
1.22372
21
0.824213
0
LINE
8
BLACK
6
CONTINUOUS
10
1.22372
20
0.824213
11
1.22523
21
0.823913
0
LINE
8
BLACK
6
CONTINUOUS
10
1.45062
20
0.823913
11
1.4519
21
0.823059
0
LINE
8
BLACK
6
CONTINUOUS
10
1.4519
20
0.823059
11
1.45275
21
0.821782
0
LINE
8
BLACK
6
CONTINUOUS
10
1.45275
20
0.821782
11
1.45305
21
0.820276
0
LINE
8
BLACK
6
CONTINUOUS
10
1.45305
20
0.820276
11
1.45305
21
0.812402
0
LINE
8
BLACK
6
CONTINUOUS
10
1.45305
20
0.812402
11
1.45275
21
0.810895
0
LINE
8
BLACK
6
CONTINUOUS
10
1.45275
20
0.810895
11
1.4519
21
0.809618
0
LINE
8
BLACK
6
CONTINUOUS
10
1.4519
20
0.809618
11
1.45062
21
0.808764
0
LINE
8
BLACK
6
CONTINUOUS
10
1.45062
20
0.808764
11
1.44911
21
0.808465
0
LINE
8
BLACK
6
CONTINUOUS
10
1.44911
20
0.808465
11
1.39892
21
0.808465
0
LINE
8
BLACK
6
CONTINUOUS
10
1.39892
20
0.808465
11
1.39741
21
0.808764
0
LINE
8
BLACK
6
CONTINUOUS
10
1.39741
20
0.808764
11
1.39613
21
0.809618
0
LINE
8
BLACK
6
CONTINUOUS
10
1.39613
20
0.809618
11
1.39528
21
0.810895
0
LINE
8
BLACK
6
CONTINUOUS
10
1.39528
20
0.810895
11
1.39498
21
0.812402
0
LINE
8
BLACK
6
CONTINUOUS
10
1.39498
20
0.812402
11
1.39498
21
0.820276
0
LINE
8
BLACK
6
CONTINUOUS
10
1.39498
20
0.820276
11
1.39528
21
0.821782
0
LINE
8
BLACK
6
CONTINUOUS
10
1.39528
20
0.821782
11
1.39613
21
0.823059
0
LINE
8
BLACK
6
CONTINUOUS
10
1.39613
20
0.823059
11
1.39741
21
0.823913
0
LINE
8
BLACK
6
CONTINUOUS
10
1.39741
20
0.823913
11
1.39892
21
0.824213
0
LINE
8
BLACK
6
CONTINUOUS
10
1.39892
20
0.824213
11
1.44911
21
0.824213
0
LINE
8
BLACK
6
CONTINUOUS
10
1.44911
20
0.824213
11
1.45062
21
0.823913
0
LINE
8
BLACK
6
CONTINUOUS
10
1.93421
20
0.887794
11
1.9374
21
0.885661
0
LINE
8
BLACK
6
CONTINUOUS
10
1.9374
20
0.885661
11
1.93953
21
0.882467
0
LINE
8
BLACK
6
CONTINUOUS
10
1.93953
20
0.882467
11
1.94028
21
0.878701
0
LINE
8
BLACK
6
CONTINUOUS
10
1.94028
20
0.878701
11
1.94028
21
0.841299
0
LINE
8
BLACK
6
CONTINUOUS
10
1.94028
20
0.841299
11
1.93953
21
0.837533
0
LINE
8
BLACK
6
CONTINUOUS
10
1.93953
20
0.837533
11
1.9374
21
0.834339
0
LINE
8
BLACK
6
CONTINUOUS
10
1.9374
20
0.834339
11
1.93421
21
0.832206
0
LINE
8
BLACK
6
CONTINUOUS
10
1.93421
20
0.832206
11
1.93044
21
0.831457
0
LINE
8
BLACK
6
CONTINUOUS
10
1.93044
20
0.831457
11
1.91076
21
0.831457
0
LINE
8
BLACK
6
CONTINUOUS
10
1.91076
20
0.831457
11
1.90699
21
0.832206
0
LINE
8
BLACK
6
CONTINUOUS
10
1.90699
20
0.832206
11
1.9038
21
0.834339
0
LINE
8
BLACK
6
CONTINUOUS
10
1.9038
20
0.834339
11
1.90166
21
0.837533
0
LINE
8
BLACK
6
CONTINUOUS
10
1.90166
20
0.837533
11
1.90091
21
0.841299
0
LINE
8
BLACK
6
CONTINUOUS
10
1.90091
20
0.841299
11
1.90091
21
0.878701
0
LINE
8
BLACK
6
CONTINUOUS
10
1.90091
20
0.878701
11
1.90166
21
0.882467
0
LINE
8
BLACK
6
CONTINUOUS
10
1.90166
20
0.882467
11
1.9038
21
0.885661
0
LINE
8
BLACK
6
CONTINUOUS
10
1.9038
20
0.885661
11
1.90699
21
0.887794
0
LINE
8
BLACK
6
CONTINUOUS
10
1.90699
20
0.887794
11
1.91076
21
0.888543
0
LINE
8
BLACK
6
CONTINUOUS
10
1.91076
20
0.888543
11
1.93044
21
0.888543
0
LINE
8
BLACK
6
CONTINUOUS
10
1.93044
20
0.888543
11
1.93421
21
0.887794
0
LINE
8
BLACK
6
CONTINUOUS
10
2.00901
20
0.887794
11
2.0122
21
0.885661
0
LINE
8
BLACK
6
CONTINUOUS
10
2.0122
20
0.885661
11
2.01434
21
0.882467
0
LINE
8
BLACK
6
CONTINUOUS
10
2.01434
20
0.882467
11
2.01509
21
0.878701
0
LINE
8
BLACK
6
CONTINUOUS
10
2.01509
20
0.878701
11
2.01509
21
0.841299
0
LINE
8
BLACK
6
CONTINUOUS
10
2.01509
20
0.841299
11
2.01434
21
0.837533
0
LINE
8
BLACK
6
CONTINUOUS
10
2.01434
20
0.837533
11
2.0122
21
0.834339
0
LINE
8
BLACK
6
CONTINUOUS
10
2.0122
20
0.834339
11
2.00901
21
0.832206
0
LINE
8
BLACK
6
CONTINUOUS
10
2.00901
20
0.832206
11
2.00524
21
0.831457
0
LINE
8
BLACK
6
CONTINUOUS
10
2.00524
20
0.831457
11
1.98556
21
0.831457
0
LINE
8
BLACK
6
CONTINUOUS
10
1.98556
20
0.831457
11
1.98179
21
0.832206
0
LINE
8
BLACK
6
CONTINUOUS
10
1.98179
20
0.832206
11
1.9786
21
0.834339
0
LINE
8
BLACK
6
CONTINUOUS
10
1.9786
20
0.834339
11
1.97647
21
0.837533
0
LINE
8
BLACK
6
CONTINUOUS
10
1.97647
20
0.837533
11
1.97572
21
0.841299
0
LINE
8
BLACK
6
CONTINUOUS
10
1.97572
20
0.841299
11
1.97572
21
0.878701
0
LINE
8
BLACK
6
CONTINUOUS
10
1.97572
20
0.878701
11
1.97647
21
0.882467
0
LINE
8
BLACK
6
CONTINUOUS
10
1.97647
20
0.882467
11
1.9786
21
0.885661
0
LINE
8
BLACK
6
CONTINUOUS
10
1.9786
20
0.885661
11
1.98179
21
0.887794
0
LINE
8
BLACK
6
CONTINUOUS
10
1.98179
20
0.887794
11
1.98556
21
0.888543
0
LINE
8
BLACK
6
CONTINUOUS
10
1.98556
20
0.888543
11
2.00524
21
0.888543
0
LINE
8
BLACK
6
CONTINUOUS
10
2.00524
20
0.888543
11
2.00901
21
0.887794
0
LINE
8
BLACK
6
CONTINUOUS
10
1.22523
20
0.849503
11
1.2265
21
0.84865
0
LINE
8
BLACK
6
CONTINUOUS
10
1.2265
20
0.84865
11
1.22736
21
0.847373
0
LINE
8
BLACK
6
CONTINUOUS
10
1.22736
20
0.847373
11
1.22766
21
0.845866
0
LINE
8
BLACK
6
CONTINUOUS
10
1.22766
20
0.845866
11
1.22766
21
0.837992
0
LINE
8
BLACK
6
CONTINUOUS
10
1.22766
20
0.837992
11
1.22736
21
0.836486
0
LINE
8
BLACK
6
CONTINUOUS
10
1.22736
20
0.836486
11
1.2265
21
0.835208
0
LINE
8
BLACK
6
CONTINUOUS
10
1.2265
20
0.835208
11
1.22523
21
0.834355
0
LINE
8
BLACK
6
CONTINUOUS
10
1.22523
20
0.834355
11
1.22372
21
0.834055
0
LINE
8
BLACK
6
CONTINUOUS
10
1.22372
20
0.834055
11
1.17352
21
0.834055
0
LINE
8
BLACK
6
CONTINUOUS
10
1.17352
20
0.834055
11
1.17202
21
0.834355
0
LINE
8
BLACK
6
CONTINUOUS
10
1.17202
20
0.834355
11
1.17074
21
0.835208
0
LINE
8
BLACK
6
CONTINUOUS
10
1.17074
20
0.835208
11
1.16989
21
0.836486
0
LINE
8
BLACK
6
CONTINUOUS
10
1.16989
20
0.836486
11
1.16959
21
0.837992
0
LINE
8
BLACK
6
CONTINUOUS
10
1.16959
20
0.837992
11
1.16959
21
0.845866
0
LINE
8
BLACK
6
CONTINUOUS
10
1.16959
20
0.845866
11
1.16989
21
0.847373
0
LINE
8
BLACK
6
CONTINUOUS
10
1.16989
20
0.847373
11
1.17074
21
0.84865
0
LINE
8
BLACK
6
CONTINUOUS
10
1.17074
20
0.84865
11
1.17202
21
0.849503
0
LINE
8
BLACK
6
CONTINUOUS
10
1.17202
20
0.849503
11
1.17352
21
0.849803
0
LINE
8
BLACK
6
CONTINUOUS
10
1.17352
20
0.849803
11
1.22372
21
0.849803
0
LINE
8
BLACK
6
CONTINUOUS
10
1.22372
20
0.849803
11
1.22523
21
0.849503
0
LINE
8
BLACK
6
CONTINUOUS
10
1.45062
20
0.849503
11
1.4519
21
0.84865
0
LINE
8
BLACK
6
CONTINUOUS
10
1.4519
20
0.84865
11
1.45275
21
0.847373
0
LINE
8
BLACK
6
CONTINUOUS
10
1.45275
20
0.847373
11
1.45305
21
0.845866
0
LINE
8
BLACK
6
CONTINUOUS
10
1.45305
20
0.845866
11
1.45305
21
0.837992
0
LINE
8
BLACK
6
CONTINUOUS
10
1.45305
20
0.837992
11
1.45275
21
0.836486
0
LINE
8
BLACK
6
CONTINUOUS
10
1.45275
20
0.836486
11
1.4519
21
0.835208
0
LINE
8
BLACK
6
CONTINUOUS
10
1.4519
20
0.835208
11
1.45062
21
0.834355
0
LINE
8
BLACK
6
CONTINUOUS
10
1.45062
20
0.834355
11
1.44911
21
0.834055
0
LINE
8
BLACK
6
CONTINUOUS
10
1.44911
20
0.834055
11
1.39892
21
0.834055
0
LINE
8
BLACK
6
CONTINUOUS
10
1.39892
20
0.834055
11
1.39741
21
0.834355
0
LINE
8
BLACK
6
CONTINUOUS
10
1.39741
20
0.834355
11
1.39613
21
0.835208
0
LINE
8
BLACK
6
CONTINUOUS
10
1.39613
20
0.835208
11
1.39528
21
0.836486
0
LINE
8
BLACK
6
CONTINUOUS
10
1.39528
20
0.836486
11
1.39498
21
0.837992
0
LINE
8
BLACK
6
CONTINUOUS
10
1.39498
20
0.837992
11
1.39498
21
0.845866
0
LINE
8
BLACK
6
CONTINUOUS
10
1.39498
20
0.845866
11
1.39528
21
0.847373
0
LINE
8
BLACK
6
CONTINUOUS
10
1.39528
20
0.847373
11
1.39613
21
0.84865
0
LINE
8
BLACK
6
CONTINUOUS
10
1.39613
20
0.84865
11
1.39741
21
0.849503
0
LINE
8
BLACK
6
CONTINUOUS
10
1.39741
20
0.849503
11
1.39892
21
0.849803
0
LINE
8
BLACK
6
CONTINUOUS
10
1.39892
20
0.849803
11
1.44911
21
0.849803
0
LINE
8
BLACK
6
CONTINUOUS
10
1.44911
20
0.849803
11
1.45062
21
0.849503
0
LINE
8
BLACK
6
CONTINUOUS
10
1.22523
20
0.875094
11
1.2265
21
0.874241
0
LINE
8
BLACK
6
CONTINUOUS
10
1.2265
20
0.874241
11
1.22736
21
0.872963
0
LINE
8
BLACK
6
CONTINUOUS
10
1.22736
20
0.872963
11
1.22766
21
0.871457
0
LINE
8
BLACK
6
CONTINUOUS
10
1.22766
20
0.871457
11
1.22766
21
0.863583
0
LINE
8
BLACK
6
CONTINUOUS
10
1.22766
20
0.863583
11
1.22736
21
0.862076
0
LINE
8
BLACK
6
CONTINUOUS
10
1.22736
20
0.862076
11
1.2265
21
0.860799
0
LINE
8
BLACK
6
CONTINUOUS
10
1.2265
20
0.860799
11
1.22523
21
0.859945
0
LINE
8
BLACK
6
CONTINUOUS
10
1.22523
20
0.859945
11
1.22372
21
0.859646
0
LINE
8
BLACK
6
CONTINUOUS
10
1.22372
20
0.859646
11
1.17352
21
0.859646
0
LINE
8
BLACK
6
CONTINUOUS
10
1.17352
20
0.859646
11
1.17202
21
0.859945
0
LINE
8
BLACK
6
CONTINUOUS
10
1.17202
20
0.859945
11
1.17074
21
0.860799
0
LINE
8
BLACK
6
CONTINUOUS
10
1.17074
20
0.860799
11
1.16989
21
0.862076
0
LINE
8
BLACK
6
CONTINUOUS
10
1.16989
20
0.862076
11
1.16959
21
0.863583
0
LINE
8
BLACK
6
CONTINUOUS
10
1.16959
20
0.863583
11
1.16959
21
0.871457
0
LINE
8
BLACK
6
CONTINUOUS
10
1.16959
20
0.871457
11
1.16989
21
0.872963
0
LINE
8
BLACK
6
CONTINUOUS
10
1.16989
20
0.872963
11
1.17074
21
0.874241
0
LINE
8
BLACK
6
CONTINUOUS
10
1.17074
20
0.874241
11
1.17202
21
0.875094
0
LINE
8
BLACK
6
CONTINUOUS
10
1.17202
20
0.875094
11
1.17352
21
0.875394
0
LINE
8
BLACK
6
CONTINUOUS
10
1.17352
20
0.875394
11
1.22372
21
0.875394
0
LINE
8
BLACK
6
CONTINUOUS
10
1.22372
20
0.875394
11
1.22523
21
0.875094
0
LINE
8
BLACK
6
CONTINUOUS
10
1.45062
20
0.875094
11
1.4519
21
0.874241
0
LINE
8
BLACK
6
CONTINUOUS
10
1.4519
20
0.874241
11
1.45275
21
0.872963
0
LINE
8
BLACK
6
CONTINUOUS
10
1.45275
20
0.872963
11
1.45305
21
0.871457
0
LINE
8
BLACK
6
CONTINUOUS
10
1.45305
20
0.871457
11
1.45305
21
0.863583
0
LINE
8
BLACK
6
CONTINUOUS
10
1.45305
20
0.863583
11
1.45275
21
0.862076
0
LINE
8
BLACK
6
CONTINUOUS
10
1.45275
20
0.862076
11
1.4519
21
0.860799
0
LINE
8
BLACK
6
CONTINUOUS
10
1.4519
20
0.860799
11
1.45062
21
0.859945
0
LINE
8
BLACK
6
CONTINUOUS
10
1.45062
20
0.859945
11
1.44911
21
0.859646
0
LINE
8
BLACK
6
CONTINUOUS
10
1.44911
20
0.859646
11
1.39892
21
0.859646
0
LINE
8
BLACK
6
CONTINUOUS
10
1.39892
20
0.859646
11
1.39741
21
0.859945
0
LINE
8
BLACK
6
CONTINUOUS
10
1.39741
20
0.859945
11
1.39613
21
0.860799
0
LINE
8
BLACK
6
CONTINUOUS
10
1.39613
20
0.860799
11
1.39528
21
0.862076
0
LINE
8
BLACK
6
CONTINUOUS
10
1.39528
20
0.862076
11
1.39498
21
0.863583
0
LINE
8
BLACK
6
CONTINUOUS
10
1.39498
20
0.863583
11
1.39498
21
0.871457
0
LINE
8
BLACK
6
CONTINUOUS
10
1.39498
20
0.871457
11
1.39528
21
0.872963
0
LINE
8
BLACK
6
CONTINUOUS
10
1.39528
20
0.872963
11
1.39613
21
0.874241
0
LINE
8
BLACK
6
CONTINUOUS
10
1.39613
20
0.874241
11
1.39741
21
0.875094
0
LINE
8
BLACK
6
CONTINUOUS
10
1.39741
20
0.875094
11
1.39892
21
0.875394
0
LINE
8
BLACK
6
CONTINUOUS
10
1.39892
20
0.875394
11
1.44911
21
0.875394
0
LINE
8
BLACK
6
CONTINUOUS
10
1.44911
20
0.875394
11
1.45062
21
0.875094
0
LINE
8
BLACK
6
CONTINUOUS
10
1.86122
20
0.86811
11
1.56594
21
0.86811
0
LINE
8
BLACK
6
CONTINUOUS
10
1.56594
20
0.86811
11
1.56594
21
0.98622
0
LINE
8
BLACK
6
CONTINUOUS
10
1.56594
20
0.98622
11
1.86122
21
0.98622
0
LINE
8
BLACK
6
CONTINUOUS
10
1.86122
20
0.98622
11
1.86122
21
0.86811
0
LINE
8
BLACK
6
CONTINUOUS
10
1.22523
20
0.900685
11
1.2265
21
0.899831
0
LINE
8
BLACK
6
CONTINUOUS
10
1.2265
20
0.899831
11
1.22736
21
0.898554
0
LINE
8
BLACK
6
CONTINUOUS
10
1.22736
20
0.898554
11
1.22766
21
0.897047
0
LINE
8
BLACK
6
CONTINUOUS
10
1.22766
20
0.897047
11
1.22766
21
0.889173
0
LINE
8
BLACK
6
CONTINUOUS
10
1.22766
20
0.889173
11
1.22736
21
0.887667
0
LINE
8
BLACK
6
CONTINUOUS
10
1.22736
20
0.887667
11
1.2265
21
0.886389
0
LINE
8
BLACK
6
CONTINUOUS
10
1.2265
20
0.886389
11
1.22523
21
0.885536
0
LINE
8
BLACK
6
CONTINUOUS
10
1.22523
20
0.885536
11
1.22372
21
0.885236
0
LINE
8
BLACK
6
CONTINUOUS
10
1.22372
20
0.885236
11
1.17352
21
0.885236
0
LINE
8
BLACK
6
CONTINUOUS
10
1.17352
20
0.885236
11
1.17202
21
0.885536
0
LINE
8
BLACK
6
CONTINUOUS
10
1.17202
20
0.885536
11
1.17074
21
0.886389
0
LINE
8
BLACK
6
CONTINUOUS
10
1.17074
20
0.886389
11
1.16989
21
0.887667
0
LINE
8
BLACK
6
CONTINUOUS
10
1.16989
20
0.887667
11
1.16959
21
0.889173
0
LINE
8
BLACK
6
CONTINUOUS
10
1.16959
20
0.889173
11
1.16959
21
0.897047
0
LINE
8
BLACK
6
CONTINUOUS
10
1.16959
20
0.897047
11
1.16989
21
0.898554
0
LINE
8
BLACK
6
CONTINUOUS
10
1.16989
20
0.898554
11
1.17074
21
0.899831
0
LINE
8
BLACK
6
CONTINUOUS
10
1.17074
20
0.899831
11
1.17202
21
0.900685
0
LINE
8
BLACK
6
CONTINUOUS
10
1.17202
20
0.900685
11
1.17352
21
0.900984
0
LINE
8
BLACK
6
CONTINUOUS
10
1.17352
20
0.900984
11
1.22372
21
0.900984
0
LINE
8
BLACK
6
CONTINUOUS
10
1.22372
20
0.900984
11
1.22523
21
0.900685
0
LINE
8
BLACK
6
CONTINUOUS
10
1.45062
20
0.900685
11
1.4519
21
0.899831
0
LINE
8
BLACK
6
CONTINUOUS
10
1.4519
20
0.899831
11
1.45275
21
0.898554
0
LINE
8
BLACK
6
CONTINUOUS
10
1.45275
20
0.898554
11
1.45305
21
0.897047
0
LINE
8
BLACK
6
CONTINUOUS
10
1.45305
20
0.897047
11
1.45305
21
0.889173
0
LINE
8
BLACK
6
CONTINUOUS
10
1.45305
20
0.889173
11
1.45275
21
0.887667
0
LINE
8
BLACK
6
CONTINUOUS
10
1.45275
20
0.887667
11
1.4519
21
0.886389
0
LINE
8
BLACK
6
CONTINUOUS
10
1.4519
20
0.886389
11
1.45062
21
0.885536
0
LINE
8
BLACK
6
CONTINUOUS
10
1.45062
20
0.885536
11
1.44911
21
0.885236
0
LINE
8
BLACK
6
CONTINUOUS
10
1.44911
20
0.885236
11
1.39892
21
0.885236
0
LINE
8
BLACK
6
CONTINUOUS
10
1.39892
20
0.885236
11
1.39741
21
0.885536
0
LINE
8
BLACK
6
CONTINUOUS
10
1.39741
20
0.885536
11
1.39613
21
0.886389
0
LINE
8
BLACK
6
CONTINUOUS
10
1.39613
20
0.886389
11
1.39528
21
0.887667
0
LINE
8
BLACK
6
CONTINUOUS
10
1.39528
20
0.887667
11
1.39498
21
0.889173
0
LINE
8
BLACK
6
CONTINUOUS
10
1.39498
20
0.889173
11
1.39498
21
0.897047
0
LINE
8
BLACK
6
CONTINUOUS
10
1.39498
20
0.897047
11
1.39528
21
0.898554
0
LINE
8
BLACK
6
CONTINUOUS
10
1.39528
20
0.898554
11
1.39613
21
0.899831
0
LINE
8
BLACK
6
CONTINUOUS
10
1.39613
20
0.899831
11
1.39741
21
0.900685
0
LINE
8
BLACK
6
CONTINUOUS
10
1.39741
20
0.900685
11
1.39892
21
0.900984
0
LINE
8
BLACK
6
CONTINUOUS
10
1.39892
20
0.900984
11
1.44911
21
0.900984
0
LINE
8
BLACK
6
CONTINUOUS
10
1.44911
20
0.900984
11
1.45062
21
0.900685
0
LINE
8
BLACK
6
CONTINUOUS
10
1.22523
20
0.926275
11
1.2265
21
0.925422
0
LINE
8
BLACK
6
CONTINUOUS
10
1.2265
20
0.925422
11
1.22736
21
0.924144
0
LINE
8
BLACK
6
CONTINUOUS
10
1.22736
20
0.924144
11
1.22766
21
0.922638
0
LINE
8
BLACK
6
CONTINUOUS
10
1.22766
20
0.922638
11
1.22766
21
0.914764
0
LINE
8
BLACK
6
CONTINUOUS
10
1.22766
20
0.914764
11
1.22736
21
0.913257
0
LINE
8
BLACK
6
CONTINUOUS
10
1.22736
20
0.913257
11
1.2265
21
0.91198
0
LINE
8
BLACK
6
CONTINUOUS
10
1.2265
20
0.91198
11
1.22523
21
0.911126
0
LINE
8
BLACK
6
CONTINUOUS
10
1.22523
20
0.911126
11
1.22372
21
0.910827
0
LINE
8
BLACK
6
CONTINUOUS
10
1.22372
20
0.910827
11
1.17352
21
0.910827
0
LINE
8
BLACK
6
CONTINUOUS
10
1.17352
20
0.910827
11
1.17202
21
0.911126
0
LINE
8
BLACK
6
CONTINUOUS
10
1.17202
20
0.911126
11
1.17074
21
0.91198
0
LINE
8
BLACK
6
CONTINUOUS
10
1.17074
20
0.91198
11
1.16989
21
0.913257
0
LINE
8
BLACK
6
CONTINUOUS
10
1.16989
20
0.913257
11
1.16959
21
0.914764
0
LINE
8
BLACK
6
CONTINUOUS
10
1.16959
20
0.914764
11
1.16959
21
0.922638
0
LINE
8
BLACK
6
CONTINUOUS
10
1.16959
20
0.922638
11
1.16989
21
0.924144
0
LINE
8
BLACK
6
CONTINUOUS
10
1.16989
20
0.924144
11
1.17074
21
0.925422
0
LINE
8
BLACK
6
CONTINUOUS
10
1.17074
20
0.925422
11
1.17202
21
0.926275
0
LINE
8
BLACK
6
CONTINUOUS
10
1.17202
20
0.926275
11
1.17352
21
0.926575
0
LINE
8
BLACK
6
CONTINUOUS
10
1.17352
20
0.926575
11
1.22372
21
0.926575
0
LINE
8
BLACK
6
CONTINUOUS
10
1.22372
20
0.926575
11
1.22523
21
0.926275
0
LINE
8
BLACK
6
CONTINUOUS
10
1.45062
20
0.926275
11
1.4519
21
0.925422
0
LINE
8
BLACK
6
CONTINUOUS
10
1.4519
20
0.925422
11
1.45275
21
0.924144
0
LINE
8
BLACK
6
CONTINUOUS
10
1.45275
20
0.924144
11
1.45305
21
0.922638
0
LINE
8
BLACK
6
CONTINUOUS
10
1.45305
20
0.922638
11
1.45305
21
0.914764
0
LINE
8
BLACK
6
CONTINUOUS
10
1.45305
20
0.914764
11
1.45275
21
0.913257
0
LINE
8
BLACK
6
CONTINUOUS
10
1.45275
20
0.913257
11
1.4519
21
0.91198
0
LINE
8
BLACK
6
CONTINUOUS
10
1.4519
20
0.91198
11
1.45062
21
0.911126
0
LINE
8
BLACK
6
CONTINUOUS
10
1.45062
20
0.911126
11
1.44911
21
0.910827
0
LINE
8
BLACK
6
CONTINUOUS
10
1.44911
20
0.910827
11
1.39892
21
0.910827
0
LINE
8
BLACK
6
CONTINUOUS
10
1.39892
20
0.910827
11
1.39741
21
0.911126
0
LINE
8
BLACK
6
CONTINUOUS
10
1.39741
20
0.911126
11
1.39613
21
0.91198
0
LINE
8
BLACK
6
CONTINUOUS
10
1.39613
20
0.91198
11
1.39528
21
0.913257
0
LINE
8
BLACK
6
CONTINUOUS
10
1.39528
20
0.913257
11
1.39498
21
0.914764
0
LINE
8
BLACK
6
CONTINUOUS
10
1.39498
20
0.914764
11
1.39498
21
0.922638
0
LINE
8
BLACK
6
CONTINUOUS
10
1.39498
20
0.922638
11
1.39528
21
0.924144
0
LINE
8
BLACK
6
CONTINUOUS
10
1.39528
20
0.924144
11
1.39613
21
0.925422
0
LINE
8
BLACK
6
CONTINUOUS
10
1.39613
20
0.925422
11
1.39741
21
0.926275
0
LINE
8
BLACK
6
CONTINUOUS
10
1.39741
20
0.926275
11
1.39892
21
0.926575
0
LINE
8
BLACK
6
CONTINUOUS
10
1.39892
20
0.926575
11
1.44911
21
0.926575
0
LINE
8
BLACK
6
CONTINUOUS
10
1.44911
20
0.926575
11
1.45062
21
0.926275
0
LINE
8
BLACK
6
CONTINUOUS
10
1.22523
20
0.951866
11
1.2265
21
0.951012
0
LINE
8
BLACK
6
CONTINUOUS
10
1.2265
20
0.951012
11
1.22736
21
0.949735
0
LINE
8
BLACK
6
CONTINUOUS
10
1.22736
20
0.949735
11
1.22766
21
0.948228
0
LINE
8
BLACK
6
CONTINUOUS
10
1.22766
20
0.948228
11
1.22766
21
0.940354
0
LINE
8
BLACK
6
CONTINUOUS
10
1.22766
20
0.940354
11
1.22736
21
0.938848
0
LINE
8
BLACK
6
CONTINUOUS
10
1.22736
20
0.938848
11
1.2265
21
0.93757
0
LINE
8
BLACK
6
CONTINUOUS
10
1.2265
20
0.93757
11
1.22523
21
0.936717
0
LINE
8
BLACK
6
CONTINUOUS
10
1.22523
20
0.936717
11
1.22372
21
0.936417
0
LINE
8
BLACK
6
CONTINUOUS
10
1.22372
20
0.936417
11
1.17352
21
0.936417
0
LINE
8
BLACK
6
CONTINUOUS
10
1.17352
20
0.936417
11
1.17202
21
0.936717
0
LINE
8
BLACK
6
CONTINUOUS
10
1.17202
20
0.936717
11
1.17074
21
0.93757
0
LINE
8
BLACK
6
CONTINUOUS
10
1.17074
20
0.93757
11
1.16989
21
0.938848
0
LINE
8
BLACK
6
CONTINUOUS
10
1.16989
20
0.938848
11
1.16959
21
0.940354
0
LINE
8
BLACK
6
CONTINUOUS
10
1.16959
20
0.940354
11
1.16959
21
0.948228
0
LINE
8
BLACK
6
CONTINUOUS
10
1.16959
20
0.948228
11
1.16989
21
0.949735
0
LINE
8
BLACK
6
CONTINUOUS
10
1.16989
20
0.949735
11
1.17074
21
0.951012
0
LINE
8
BLACK
6
CONTINUOUS
10
1.17074
20
0.951012
11
1.17202
21
0.951866
0
LINE
8
BLACK
6
CONTINUOUS
10
1.17202
20
0.951866
11
1.17352
21
0.952165
0
LINE
8
BLACK
6
CONTINUOUS
10
1.17352
20
0.952165
11
1.22372
21
0.952165
0
LINE
8
BLACK
6
CONTINUOUS
10
1.22372
20
0.952165
11
1.22523
21
0.951866
0
LINE
8
BLACK
6
CONTINUOUS
10
1.45062
20
0.951866
11
1.4519
21
0.951012
0
LINE
8
BLACK
6
CONTINUOUS
10
1.4519
20
0.951012
11
1.45275
21
0.949735
0
LINE
8
BLACK
6
CONTINUOUS
10
1.45275
20
0.949735
11
1.45305
21
0.948228
0
LINE
8
BLACK
6
CONTINUOUS
10
1.45305
20
0.948228
11
1.45305
21
0.940354
0
LINE
8
BLACK
6
CONTINUOUS
10
1.45305
20
0.940354
11
1.45275
21
0.938848
0
LINE
8
BLACK
6
CONTINUOUS
10
1.45275
20
0.938848
11
1.4519
21
0.93757
0
LINE
8
BLACK
6
CONTINUOUS
10
1.4519
20
0.93757
11
1.45062
21
0.936717
0
LINE
8
BLACK
6
CONTINUOUS
10
1.45062
20
0.936717
11
1.44911
21
0.936417
0
LINE
8
BLACK
6
CONTINUOUS
10
1.44911
20
0.936417
11
1.39892
21
0.936417
0
LINE
8
BLACK
6
CONTINUOUS
10
1.39892
20
0.936417
11
1.39741
21
0.936717
0
LINE
8
BLACK
6
CONTINUOUS
10
1.39741
20
0.936717
11
1.39613
21
0.93757
0
LINE
8
BLACK
6
CONTINUOUS
10
1.39613
20
0.93757
11
1.39528
21
0.938848
0
LINE
8
BLACK
6
CONTINUOUS
10
1.39528
20
0.938848
11
1.39498
21
0.940354
0
LINE
8
BLACK
6
CONTINUOUS
10
1.39498
20
0.940354
11
1.39498
21
0.948228
0
LINE
8
BLACK
6
CONTINUOUS
10
1.39498
20
0.948228
11
1.39528
21
0.949735
0
LINE
8
BLACK
6
CONTINUOUS
10
1.39528
20
0.949735
11
1.39613
21
0.951012
0
LINE
8
BLACK
6
CONTINUOUS
10
1.39613
20
0.951012
11
1.39741
21
0.951866
0
LINE
8
BLACK
6
CONTINUOUS
10
1.39741
20
0.951866
11
1.39892
21
0.952165
0
LINE
8
BLACK
6
CONTINUOUS
10
1.39892
20
0.952165
11
1.44911
21
0.952165
0
LINE
8
BLACK
6
CONTINUOUS
10
1.44911
20
0.952165
11
1.45062
21
0.951866
0
LINE
8
BLACK
6
CONTINUOUS
10
1.93421
20
0.997794
11
1.9374
21
0.995661
0
LINE
8
BLACK
6
CONTINUOUS
10
1.9374
20
0.995661
11
1.93953
21
0.992467
0
LINE
8
BLACK
6
CONTINUOUS
10
1.93953
20
0.992467
11
1.94028
21
0.988701
0
LINE
8
BLACK
6
CONTINUOUS
10
1.94028
20
0.988701
11
1.94028
21
0.951299
0
LINE
8
BLACK
6
CONTINUOUS
10
1.94028
20
0.951299
11
1.93953
21
0.947533
0
LINE
8
BLACK
6
CONTINUOUS
10
1.93953
20
0.947533
11
1.9374
21
0.944339
0
LINE
8
BLACK
6
CONTINUOUS
10
1.9374
20
0.944339
11
1.93421
21
0.942206
0
LINE
8
BLACK
6
CONTINUOUS
10
1.93421
20
0.942206
11
1.93044
21
0.941457
0
LINE
8
BLACK
6
CONTINUOUS
10
1.93044
20
0.941457
11
1.91076
21
0.941457
0
LINE
8
BLACK
6
CONTINUOUS
10
1.91076
20
0.941457
11
1.90699
21
0.942206
0
LINE
8
BLACK
6
CONTINUOUS
10
1.90699
20
0.942206
11
1.9038
21
0.944339
0
LINE
8
BLACK
6
CONTINUOUS
10
1.9038
20
0.944339
11
1.90166
21
0.947533
0
LINE
8
BLACK
6
CONTINUOUS
10
1.90166
20
0.947533
11
1.90091
21
0.951299
0
LINE
8
BLACK
6
CONTINUOUS
10
1.90091
20
0.951299
11
1.90091
21
0.988701
0
LINE
8
BLACK
6
CONTINUOUS
10
1.90091
20
0.988701
11
1.90166
21
0.992467
0
LINE
8
BLACK
6
CONTINUOUS
10
1.90166
20
0.992467
11
1.9038
21
0.995661
0
LINE
8
BLACK
6
CONTINUOUS
10
1.9038
20
0.995661
11
1.90699
21
0.997794
0
LINE
8
BLACK
6
CONTINUOUS
10
1.90699
20
0.997794
11
1.91076
21
0.998543
0
LINE
8
BLACK
6
CONTINUOUS
10
1.91076
20
0.998543
11
1.93044
21
0.998543
0
LINE
8
BLACK
6
CONTINUOUS
10
1.93044
20
0.998543
11
1.93421
21
0.997794
0
LINE
8
BLACK
6
CONTINUOUS
10
2.00901
20
0.997794
11
2.0122
21
0.995661
0
LINE
8
BLACK
6
CONTINUOUS
10
2.0122
20
0.995661
11
2.01434
21
0.992467
0
LINE
8
BLACK
6
CONTINUOUS
10
2.01434
20
0.992467
11
2.01509
21
0.988701
0
LINE
8
BLACK
6
CONTINUOUS
10
2.01509
20
0.988701
11
2.01509
21
0.951299
0
LINE
8
BLACK
6
CONTINUOUS
10
2.01509
20
0.951299
11
2.01434
21
0.947533
0
LINE
8
BLACK
6
CONTINUOUS
10
2.01434
20
0.947533
11
2.0122
21
0.944339
0
LINE
8
BLACK
6
CONTINUOUS
10
2.0122
20
0.944339
11
2.00901
21
0.942206
0
LINE
8
BLACK
6
CONTINUOUS
10
2.00901
20
0.942206
11
2.00524
21
0.941457
0
LINE
8
BLACK
6
CONTINUOUS
10
2.00524
20
0.941457
11
1.98556
21
0.941457
0
LINE
8
BLACK
6
CONTINUOUS
10
1.98556
20
0.941457
11
1.98179
21
0.942206
0
LINE
8
BLACK
6
CONTINUOUS
10
1.98179
20
0.942206
11
1.9786
21
0.944339
0
LINE
8
BLACK
6
CONTINUOUS
10
1.9786
20
0.944339
11
1.97647
21
0.947533
0
LINE
8
BLACK
6
CONTINUOUS
10
1.97647
20
0.947533
11
1.97572
21
0.951299
0
LINE
8
BLACK
6
CONTINUOUS
10
1.97572
20
0.951299
11
1.97572
21
0.988701
0
LINE
8
BLACK
6
CONTINUOUS
10
1.97572
20
0.988701
11
1.97647
21
0.992467
0
LINE
8
BLACK
6
CONTINUOUS
10
1.97647
20
0.992467
11
1.9786
21
0.995661
0
LINE
8
BLACK
6
CONTINUOUS
10
1.9786
20
0.995661
11
1.98179
21
0.997794
0
LINE
8
BLACK
6
CONTINUOUS
10
1.98179
20
0.997794
11
1.98556
21
0.998543
0
LINE
8
BLACK
6
CONTINUOUS
10
1.98556
20
0.998543
11
2.00524
21
0.998543
0
LINE
8
BLACK
6
CONTINUOUS
10
2.00524
20
0.998543
11
2.00901
21
0.997794
0
LINE
8
BLACK
6
CONTINUOUS
10
1.22523
20
0.977456
11
1.2265
21
0.976603
0
LINE
8
BLACK
6
CONTINUOUS
10
1.2265
20
0.976603
11
1.22736
21
0.975326
0
LINE
8
BLACK
6
CONTINUOUS
10
1.22736
20
0.975326
11
1.22766
21
0.973819
0
LINE
8
BLACK
6
CONTINUOUS
10
1.22766
20
0.973819
11
1.22766
21
0.965945
0
LINE
8
BLACK
6
CONTINUOUS
10
1.22766
20
0.965945
11
1.22736
21
0.964438
0
LINE
8
BLACK
6
CONTINUOUS
10
1.22736
20
0.964438
11
1.2265
21
0.963161
0
LINE
8
BLACK
6
CONTINUOUS
10
1.2265
20
0.963161
11
1.22523
21
0.962308
0
LINE
8
BLACK
6
CONTINUOUS
10
1.22523
20
0.962308
11
1.22372
21
0.962008
0
LINE
8
BLACK
6
CONTINUOUS
10
1.22372
20
0.962008
11
1.17352
21
0.962008
0
LINE
8
BLACK
6
CONTINUOUS
10
1.17352
20
0.962008
11
1.17202
21
0.962308
0
LINE
8
BLACK
6
CONTINUOUS
10
1.17202
20
0.962308
11
1.17074
21
0.963161
0
LINE
8
BLACK
6
CONTINUOUS
10
1.17074
20
0.963161
11
1.16989
21
0.964438
0
LINE
8
BLACK
6
CONTINUOUS
10
1.16989
20
0.964438
11
1.16959
21
0.965945
0
LINE
8
BLACK
6
CONTINUOUS
10
1.16959
20
0.965945
11
1.16959
21
0.973819
0
LINE
8
BLACK
6
CONTINUOUS
10
1.16959
20
0.973819
11
1.16989
21
0.975326
0
LINE
8
BLACK
6
CONTINUOUS
10
1.16989
20
0.975326
11
1.17074
21
0.976603
0
LINE
8
BLACK
6
CONTINUOUS
10
1.17074
20
0.976603
11
1.17202
21
0.977456
0
LINE
8
BLACK
6
CONTINUOUS
10
1.17202
20
0.977456
11
1.17352
21
0.977756
0
LINE
8
BLACK
6
CONTINUOUS
10
1.17352
20
0.977756
11
1.22372
21
0.977756
0
LINE
8
BLACK
6
CONTINUOUS
10
1.22372
20
0.977756
11
1.22523
21
0.977456
0
LINE
8
BLACK
6
CONTINUOUS
10
1.45062
20
0.977456
11
1.4519
21
0.976603
0
LINE
8
BLACK
6
CONTINUOUS
10
1.4519
20
0.976603
11
1.45275
21
0.975326
0
LINE
8
BLACK
6
CONTINUOUS
10
1.45275
20
0.975326
11
1.45305
21
0.973819
0
LINE
8
BLACK
6
CONTINUOUS
10
1.45305
20
0.973819
11
1.45305
21
0.965945
0
LINE
8
BLACK
6
CONTINUOUS
10
1.45305
20
0.965945
11
1.45275
21
0.964438
0
LINE
8
BLACK
6
CONTINUOUS
10
1.45275
20
0.964438
11
1.4519
21
0.963161
0
LINE
8
BLACK
6
CONTINUOUS
10
1.4519
20
0.963161
11
1.45062
21
0.962308
0
LINE
8
BLACK
6
CONTINUOUS
10
1.45062
20
0.962308
11
1.44911
21
0.962008
0
LINE
8
BLACK
6
CONTINUOUS
10
1.44911
20
0.962008
11
1.39892
21
0.962008
0
LINE
8
BLACK
6
CONTINUOUS
10
1.39892
20
0.962008
11
1.39741
21
0.962308
0
LINE
8
BLACK
6
CONTINUOUS
10
1.39741
20
0.962308
11
1.39613
21
0.963161
0
LINE
8
BLACK
6
CONTINUOUS
10
1.39613
20
0.963161
11
1.39528
21
0.964438
0
LINE
8
BLACK
6
CONTINUOUS
10
1.39528
20
0.964438
11
1.39498
21
0.965945
0
LINE
8
BLACK
6
CONTINUOUS
10
1.39498
20
0.965945
11
1.39498
21
0.973819
0
LINE
8
BLACK
6
CONTINUOUS
10
1.39498
20
0.973819
11
1.39528
21
0.975326
0
LINE
8
BLACK
6
CONTINUOUS
10
1.39528
20
0.975326
11
1.39613
21
0.976603
0
LINE
8
BLACK
6
CONTINUOUS
10
1.39613
20
0.976603
11
1.39741
21
0.977456
0
LINE
8
BLACK
6
CONTINUOUS
10
1.39741
20
0.977456
11
1.39892
21
0.977756
0
LINE
8
BLACK
6
CONTINUOUS
10
1.39892
20
0.977756
11
1.44911
21
0.977756
0
LINE
8
BLACK
6
CONTINUOUS
10
1.44911
20
0.977756
11
1.45062
21
0.977456
0
LINE
8
BLACK
6
CONTINUOUS
10
1.44077
20
1.09275
11
1.44397
21
1.09062
0
LINE
8
BLACK
6
CONTINUOUS
10
1.44397
20
1.09062
11
1.4461
21
1.08743
0
LINE
8
BLACK
6
CONTINUOUS
10
1.4461
20
1.08743
11
1.44685
21
1.08366
0
LINE
8
BLACK
6
CONTINUOUS
10
1.44685
20
1.08366
11
1.44685
21
1.04626
0
LINE
8
BLACK
6
CONTINUOUS
10
1.44685
20
1.04626
11
1.4461
21
1.04249
0
LINE
8
BLACK
6
CONTINUOUS
10
1.4461
20
1.04249
11
1.44397
21
1.0393
0
LINE
8
BLACK
6
CONTINUOUS
10
1.44397
20
1.0393
11
1.44077
21
1.03717
0
LINE
8
BLACK
6
CONTINUOUS
10
1.44077
20
1.03717
11
1.43701
21
1.03642
0
LINE
8
BLACK
6
CONTINUOUS
10
1.43701
20
1.03642
11
1.41732
21
1.03642
0
LINE
8
BLACK
6
CONTINUOUS
10
1.41732
20
1.03642
11
1.41356
21
1.03717
0
LINE
8
BLACK
6
CONTINUOUS
10
1.41356
20
1.03717
11
1.41036
21
1.0393
0
LINE
8
BLACK
6
CONTINUOUS
10
1.41036
20
1.0393
11
1.40823
21
1.04249
0
LINE
8
BLACK
6
CONTINUOUS
10
1.40823
20
1.04249
11
1.40748
21
1.04626
0
LINE
8
BLACK
6
CONTINUOUS
10
1.40748
20
1.04626
11
1.40748
21
1.08366
0
LINE
8
BLACK
6
CONTINUOUS
10
1.40748
20
1.08366
11
1.40823
21
1.08743
0
LINE
8
BLACK
6
CONTINUOUS
10
1.40823
20
1.08743
11
1.41036
21
1.09062
0
LINE
8
BLACK
6
CONTINUOUS
10
1.41036
20
1.09062
11
1.41356
21
1.09275
0
LINE
8
BLACK
6
CONTINUOUS
10
1.41356
20
1.09275
11
1.41732
21
1.0935
0
LINE
8
BLACK
6
CONTINUOUS
10
1.41732
20
1.0935
11
1.43701
21
1.0935
0
LINE
8
BLACK
6
CONTINUOUS
10
1.43701
20
1.0935
11
1.44077
21
1.09275
0
LINE
8
BLACK
6
CONTINUOUS
10
1.51558
20
1.09275
11
1.51877
21
1.09062
0
LINE
8
BLACK
6
CONTINUOUS
10
1.51877
20
1.09062
11
1.5209
21
1.08743
0
LINE
8
BLACK
6
CONTINUOUS
10
1.5209
20
1.08743
11
1.52165
21
1.08366
0
LINE
8
BLACK
6
CONTINUOUS
10
1.52165
20
1.08366
11
1.52165
21
1.04626
0
LINE
8
BLACK
6
CONTINUOUS
10
1.52165
20
1.04626
11
1.5209
21
1.04249
0
LINE
8
BLACK
6
CONTINUOUS
10
1.5209
20
1.04249
11
1.51877
21
1.0393
0
LINE
8
BLACK
6
CONTINUOUS
10
1.51877
20
1.0393
11
1.51558
21
1.03717
0
LINE
8
BLACK
6
CONTINUOUS
10
1.51558
20
1.03717
11
1.51181
21
1.03642
0
LINE
8
BLACK
6
CONTINUOUS
10
1.51181
20
1.03642
11
1.49213
21
1.03642
0
LINE
8
BLACK
6
CONTINUOUS
10
1.49213
20
1.03642
11
1.48836
21
1.03717
0
LINE
8
BLACK
6
CONTINUOUS
10
1.48836
20
1.03717
11
1.48517
21
1.0393
0
LINE
8
BLACK
6
CONTINUOUS
10
1.48517
20
1.0393
11
1.48303
21
1.04249
0
LINE
8
BLACK
6
CONTINUOUS
10
1.48303
20
1.04249
11
1.48228
21
1.04626
0
LINE
8
BLACK
6
CONTINUOUS
10
1.48228
20
1.04626
11
1.48228
21
1.08366
0
LINE
8
BLACK
6
CONTINUOUS
10
1.48228
20
1.08366
11
1.48303
21
1.08743
0
LINE
8
BLACK
6
CONTINUOUS
10
1.48303
20
1.08743
11
1.48517
21
1.09062
0
LINE
8
BLACK
6
CONTINUOUS
10
1.48517
20
1.09062
11
1.48836
21
1.09275
0
LINE
8
BLACK
6
CONTINUOUS
10
1.48836
20
1.09275
11
1.49213
21
1.0935
0
LINE
8
BLACK
6
CONTINUOUS
10
1.49213
20
1.0935
11
1.51181
21
1.0935
0
LINE
8
BLACK
6
CONTINUOUS
10
1.51181
20
1.0935
11
1.51558
21
1.09275
0
LINE
8
BLACK
6
CONTINUOUS
10
1.07821
20
1.09866
11
1.0814
21
1.09653
0
LINE
8
BLACK
6
CONTINUOUS
10
1.0814
20
1.09653
11
1.08353
21
1.09333
0
LINE
8
BLACK
6
CONTINUOUS
10
1.08353
20
1.09333
11
1.08428
21
1.08957
0
LINE
8
BLACK
6
CONTINUOUS
10
1.08428
20
1.08957
11
1.08428
21
1.05217
0
LINE
8
BLACK
6
CONTINUOUS
10
1.08428
20
1.05217
11
1.08353
21
1.0484
0
LINE
8
BLACK
6
CONTINUOUS
10
1.08353
20
1.0484
11
1.0814
21
1.04521
0
LINE
8
BLACK
6
CONTINUOUS
10
1.0814
20
1.04521
11
1.07821
21
1.04307
0
LINE
8
BLACK
6
CONTINUOUS
10
1.07821
20
1.04307
11
1.07444
21
1.04232
0
LINE
8
BLACK
6
CONTINUOUS
10
1.07444
20
1.04232
11
1.05476
21
1.04232
0
LINE
8
BLACK
6
CONTINUOUS
10
1.05476
20
1.04232
11
1.05099
21
1.04307
0
LINE
8
BLACK
6
CONTINUOUS
10
1.05099
20
1.04307
11
1.0478
21
1.04521
0
LINE
8
BLACK
6
CONTINUOUS
10
1.0478
20
1.04521
11
1.04566
21
1.0484
0
LINE
8
BLACK
6
CONTINUOUS
10
1.04566
20
1.0484
11
1.04491
21
1.05217
0
LINE
8
BLACK
6
CONTINUOUS
10
1.04491
20
1.05217
11
1.04491
21
1.08957
0
LINE
8
BLACK
6
CONTINUOUS
10
1.04491
20
1.08957
11
1.04566
21
1.09333
0
LINE
8
BLACK
6
CONTINUOUS
10
1.04566
20
1.09333
11
1.0478
21
1.09653
0
LINE
8
BLACK
6
CONTINUOUS
10
1.0478
20
1.09653
11
1.05099
21
1.09866
0
LINE
8
BLACK
6
CONTINUOUS
10
1.05099
20
1.09866
11
1.05476
21
1.09941
0
LINE
8
BLACK
6
CONTINUOUS
10
1.05476
20
1.09941
11
1.07444
21
1.09941
0
LINE
8
BLACK
6
CONTINUOUS
10
1.07444
20
1.09941
11
1.07821
21
1.09866
0
LINE
8
BLACK
6
CONTINUOUS
10
1.15301
20
1.09866
11
1.1562
21
1.09653
0
LINE
8
BLACK
6
CONTINUOUS
10
1.1562
20
1.09653
11
1.15834
21
1.09333
0
LINE
8
BLACK
6
CONTINUOUS
10
1.15834
20
1.09333
11
1.15909
21
1.08957
0
LINE
8
BLACK
6
CONTINUOUS
10
1.15909
20
1.08957
11
1.15909
21
1.05217
0
LINE
8
BLACK
6
CONTINUOUS
10
1.15909
20
1.05217
11
1.15834
21
1.0484
0
LINE
8
BLACK
6
CONTINUOUS
10
1.15834
20
1.0484
11
1.1562
21
1.04521
0
LINE
8
BLACK
6
CONTINUOUS
10
1.1562
20
1.04521
11
1.15301
21
1.04307
0
LINE
8
BLACK
6
CONTINUOUS
10
1.15301
20
1.04307
11
1.14924
21
1.04232
0
LINE
8
BLACK
6
CONTINUOUS
10
1.14924
20
1.04232
11
1.12956
21
1.04232
0
LINE
8
BLACK
6
CONTINUOUS
10
1.12956
20
1.04232
11
1.12579
21
1.04307
0
LINE
8
BLACK
6
CONTINUOUS
10
1.12579
20
1.04307
11
1.1226
21
1.04521
0
LINE
8
BLACK
6
CONTINUOUS
10
1.1226
20
1.04521
11
1.12047
21
1.0484
0
LINE
8
BLACK
6
CONTINUOUS
10
1.12047
20
1.0484
11
1.11972
21
1.05217
0
LINE
8
BLACK
6
CONTINUOUS
10
1.11972
20
1.05217
11
1.11972
21
1.08957
0
LINE
8
BLACK
6
CONTINUOUS
10
1.11972
20
1.08957
11
1.12047
21
1.09333
0
LINE
8
BLACK
6
CONTINUOUS
10
1.12047
20
1.09333
11
1.1226
21
1.09653
0
LINE
8
BLACK
6
CONTINUOUS
10
1.1226
20
1.09653
11
1.12579
21
1.09866
0
LINE
8
BLACK
6
CONTINUOUS
10
1.12579
20
1.09866
11
1.12956
21
1.09941
0
LINE
8
BLACK
6
CONTINUOUS
10
1.12956
20
1.09941
11
1.14924
21
1.09941
0
LINE
8
BLACK
6
CONTINUOUS
10
1.14924
20
1.09941
11
1.15301
21
1.09866
0
LINE
8
BLACK
6
CONTINUOUS
10
1.22109
20
1.09925
11
1.22428
21
1.09712
0
LINE
8
BLACK
6
CONTINUOUS
10
1.22428
20
1.09712
11
1.22642
21
1.09392
0
LINE
8
BLACK
6
CONTINUOUS
10
1.22642
20
1.09392
11
1.22717
21
1.09016
0
LINE
8
BLACK
6
CONTINUOUS
10
1.22717
20
1.09016
11
1.22717
21
1.05276
0
LINE
8
BLACK
6
CONTINUOUS
10
1.22717
20
1.05276
11
1.22642
21
1.04899
0
LINE
8
BLACK
6
CONTINUOUS
10
1.22642
20
1.04899
11
1.22428
21
1.0458
0
LINE
8
BLACK
6
CONTINUOUS
10
1.22428
20
1.0458
11
1.22109
21
1.04366
0
LINE
8
BLACK
6
CONTINUOUS
10
1.22109
20
1.04366
11
1.21732
21
1.04291
0
LINE
8
BLACK
6
CONTINUOUS
10
1.21732
20
1.04291
11
1.19764
21
1.04291
0
LINE
8
BLACK
6
CONTINUOUS
10
1.19764
20
1.04291
11
1.19387
21
1.04366
0
LINE
8
BLACK
6
CONTINUOUS
10
1.19387
20
1.04366
11
1.19068
21
1.0458
0
LINE
8
BLACK
6
CONTINUOUS
10
1.19068
20
1.0458
11
1.18854
21
1.04899
0
LINE
8
BLACK
6
CONTINUOUS
10
1.18854
20
1.04899
11
1.1878
21
1.05276
0
LINE
8
BLACK
6
CONTINUOUS
10
1.1878
20
1.05276
11
1.1878
21
1.09016
0
LINE
8
BLACK
6
CONTINUOUS
10
1.1878
20
1.09016
11
1.18854
21
1.09392
0
LINE
8
BLACK
6
CONTINUOUS
10
1.18854
20
1.09392
11
1.19068
21
1.09712
0
LINE
8
BLACK
6
CONTINUOUS
10
1.19068
20
1.09712
11
1.19387
21
1.09925
0
LINE
8
BLACK
6
CONTINUOUS
10
1.19387
20
1.09925
11
1.19764
21
1.1
0
LINE
8
BLACK
6
CONTINUOUS
10
1.19764
20
1.1
11
1.21732
21
1.1
0
LINE
8
BLACK
6
CONTINUOUS
10
1.21732
20
1.1
11
1.22109
21
1.09925
0
LINE
8
BLACK
6
CONTINUOUS
10
1.29589
20
1.09925
11
1.29909
21
1.09712
0
LINE
8
BLACK
6
CONTINUOUS
10
1.29909
20
1.09712
11
1.30122
21
1.09392
0
LINE
8
BLACK
6
CONTINUOUS
10
1.30122
20
1.09392
11
1.30197
21
1.09016
0
LINE
8
BLACK
6
CONTINUOUS
10
1.30197
20
1.09016
11
1.30197
21
1.05276
0
LINE
8
BLACK
6
CONTINUOUS
10
1.30197
20
1.05276
11
1.30122
21
1.04899
0
LINE
8
BLACK
6
CONTINUOUS
10
1.30122
20
1.04899
11
1.29909
21
1.0458
0
LINE
8
BLACK
6
CONTINUOUS
10
1.29909
20
1.0458
11
1.29589
21
1.04366
0
LINE
8
BLACK
6
CONTINUOUS
10
1.29589
20
1.04366
11
1.29213
21
1.04291
0
LINE
8
BLACK
6
CONTINUOUS
10
1.29213
20
1.04291
11
1.27244
21
1.04291
0
LINE
8
BLACK
6
CONTINUOUS
10
1.27244
20
1.04291
11
1.26867
21
1.04366
0
LINE
8
BLACK
6
CONTINUOUS
10
1.26867
20
1.04366
11
1.26548
21
1.0458
0
LINE
8
BLACK
6
CONTINUOUS
10
1.26548
20
1.0458
11
1.26335
21
1.04899
0
LINE
8
BLACK
6
CONTINUOUS
10
1.26335
20
1.04899
11
1.2626
21
1.05276
0
LINE
8
BLACK
6
CONTINUOUS
10
1.2626
20
1.05276
11
1.2626
21
1.09016
0
LINE
8
BLACK
6
CONTINUOUS
10
1.2626
20
1.09016
11
1.26335
21
1.09392
0
LINE
8
BLACK
6
CONTINUOUS
10
1.26335
20
1.09392
11
1.26548
21
1.09712
0
LINE
8
BLACK
6
CONTINUOUS
10
1.26548
20
1.09712
11
1.26867
21
1.09925
0
LINE
8
BLACK
6
CONTINUOUS
10
1.26867
20
1.09925
11
1.27244
21
1.1
0
LINE
8
BLACK
6
CONTINUOUS
10
1.27244
20
1.1
11
1.29213
21
1.1
0
LINE
8
BLACK
6
CONTINUOUS
10
1.29213
20
1.1
11
1.29589
21
1.09925
0
LINE
8
BLACK
6
CONTINUOUS
10
1.86122
20
1.06496
11
1.56594
21
1.06496
0
LINE
8
BLACK
6
CONTINUOUS
10
1.56594
20
1.06496
11
1.56594
21
1.18307
0
LINE
8
BLACK
6
CONTINUOUS
10
1.56594
20
1.18307
11
1.86122
21
1.18307
0
LINE
8
BLACK
6
CONTINUOUS
10
1.86122
20
1.18307
11
1.86122
21
1.06496
0
LINE
8
BLACK
6
CONTINUOUS
10
1.85268
20
1.28272
11
1.85588
21
1.28058
0
LINE
8
BLACK
6
CONTINUOUS
10
1.85588
20
1.28058
11
1.85801
21
1.27739
0
LINE
8
BLACK
6
CONTINUOUS
10
1.85801
20
1.27739
11
1.85876
21
1.27362
0
LINE
8
BLACK
6
CONTINUOUS
10
1.85876
20
1.27362
11
1.85876
21
1.23819
0
LINE
8
BLACK
6
CONTINUOUS
10
1.85876
20
1.23819
11
1.85801
21
1.23442
0
LINE
8
BLACK
6
CONTINUOUS
10
1.85801
20
1.23442
11
1.85588
21
1.23123
0
LINE
8
BLACK
6
CONTINUOUS
10
1.85588
20
1.23123
11
1.85268
21
1.2291
0
LINE
8
BLACK
6
CONTINUOUS
10
1.85268
20
1.2291
11
1.84892
21
1.22835
0
LINE
8
BLACK
6
CONTINUOUS
10
1.84892
20
1.22835
11
1.82825
21
1.22835
0
LINE
8
BLACK
6
CONTINUOUS
10
1.82825
20
1.22835
11
1.82448
21
1.2291
0
LINE
8
BLACK
6
CONTINUOUS
10
1.82448
20
1.2291
11
1.82129
21
1.23123
0
LINE
8
BLACK
6
CONTINUOUS
10
1.82129
20
1.23123
11
1.81915
21
1.23442
0
LINE
8
BLACK
6
CONTINUOUS
10
1.81915
20
1.23442
11
1.81841
21
1.23819
0
LINE
8
BLACK
6
CONTINUOUS
10
1.81841
20
1.23819
11
1.81841
21
1.27362
0
LINE
8
BLACK
6
CONTINUOUS
10
1.81841
20
1.27362
11
1.81915
21
1.27739
0
LINE
8
BLACK
6
CONTINUOUS
10
1.81915
20
1.27739
11
1.82129
21
1.28058
0
LINE
8
BLACK
6
CONTINUOUS
10
1.82129
20
1.28058
11
1.82448
21
1.28272
0
LINE
8
BLACK
6
CONTINUOUS
10
1.82448
20
1.28272
11
1.82825
21
1.28346
0
LINE
8
BLACK
6
CONTINUOUS
10
1.82825
20
1.28346
11
1.84892
21
1.28346
0
LINE
8
BLACK
6
CONTINUOUS
10
1.84892
20
1.28346
11
1.85268
21
1.28272
0
LINE
8
BLACK
6
CONTINUOUS
10
1.92453
20
1.28272
11
1.92773
21
1.28058
0
LINE
8
BLACK
6
CONTINUOUS
10
1.92773
20
1.28058
11
1.92986
21
1.27739
0
LINE
8
BLACK
6
CONTINUOUS
10
1.92986
20
1.27739
11
1.93061
21
1.27362
0
LINE
8
BLACK
6
CONTINUOUS
10
1.93061
20
1.27362
11
1.93061
21
1.23819
0
LINE
8
BLACK
6
CONTINUOUS
10
1.93061
20
1.23819
11
1.92986
21
1.23442
0
LINE
8
BLACK
6
CONTINUOUS
10
1.92986
20
1.23442
11
1.92773
21
1.23123
0
LINE
8
BLACK
6
CONTINUOUS
10
1.92773
20
1.23123
11
1.92453
21
1.2291
0
LINE
8
BLACK
6
CONTINUOUS
10
1.92453
20
1.2291
11
1.92077
21
1.22835
0
LINE
8
BLACK
6
CONTINUOUS
10
1.92077
20
1.22835
11
1.9001
21
1.22835
0
LINE
8
BLACK
6
CONTINUOUS
10
1.9001
20
1.22835
11
1.89633
21
1.2291
0
LINE
8
BLACK
6
CONTINUOUS
10
1.89633
20
1.2291
11
1.89314
21
1.23123
0
LINE
8
BLACK
6
CONTINUOUS
10
1.89314
20
1.23123
11
1.89101
21
1.23442
0
LINE
8
BLACK
6
CONTINUOUS
10
1.89101
20
1.23442
11
1.89026
21
1.23819
0
LINE
8
BLACK
6
CONTINUOUS
10
1.89026
20
1.23819
11
1.89026
21
1.27362
0
LINE
8
BLACK
6
CONTINUOUS
10
1.89026
20
1.27362
11
1.89101
21
1.27739
0
LINE
8
BLACK
6
CONTINUOUS
10
1.89101
20
1.27739
11
1.89314
21
1.28058
0
LINE
8
BLACK
6
CONTINUOUS
10
1.89314
20
1.28058
11
1.89633
21
1.28272
0
LINE
8
BLACK
6
CONTINUOUS
10
1.89633
20
1.28272
11
1.9001
21
1.28346
0
LINE
8
BLACK
6
CONTINUOUS
10
1.9001
20
1.28346
11
1.92077
21
1.28346
0
LINE
8
BLACK
6
CONTINUOUS
10
1.92077
20
1.28346
11
1.92453
21
1.28272
0
LINE
8
BLACK
6
CONTINUOUS
10
1.84685
20
1.32874
11
1.7878
21
1.32874
0
LINE
8
BLACK
6
CONTINUOUS
10
1.7878
20
1.32874
11
1.7878
21
1.3878
0
LINE
8
BLACK
6
CONTINUOUS
10
1.7878
20
1.3878
11
1.84685
21
1.3878
0
LINE
8
BLACK
6
CONTINUOUS
10
1.84685
20
1.3878
11
1.84685
21
1.32874
0
LINE
8
BLACK
6
CONTINUOUS
10
1.99488
20
1.32874
11
1.93583
21
1.32874
0
LINE
8
BLACK
6
CONTINUOUS
10
1.93583
20
1.32874
11
1.93583
21
1.3878
0
LINE
8
BLACK
6
CONTINUOUS
10
1.93583
20
1.3878
11
1.99488
21
1.3878
0
LINE
8
BLACK
6
CONTINUOUS
10
1.99488
20
1.3878
11
1.99488
21
1.32874
  0
ENDSEC
  0
EOF
