  0
SECTION
  2
HEADER
  9
$ANGBASE
  50
0.0
  9
$ANGDIR
  70
1
  9
$MEASUREMENT
  70
0
  0
ENDSEC
  0
SECTION
  2
TABLES
  0
TABLE
  2
LTYPE
  70
4
  0
LTYPE
  5
40F
  2
CONTINUOUS
  70
0
  3
Solid line
  72
65
  73
0
  40
0.0
  0
LTYPE
  5
410
  2
DASHDOT
 70
0
  3
Dash Dot ____ _ ____ _
 72
65
 73
4
 40
2.0
 49
1.25
 49
-0.25
 49
0.25
 49
-0.25
  0
LTYPE
  5
411
  2
DASHED
 70
0
  3
Dashed __ __ __ __ __
 72
65
 73
2
 40
0.75
 49
0.5
 49
-0.25
  0
LTYPE
  5
43B
  2
DOTTED
 70
0
  3
Dotted .  .  .  .
 72
65
 73
2
 40
0.2
 49
0.0
 49
-0.2
  0
ENDTAB
  0
TABLE
  2
STYLE
  70
4
  0
STYLE
  2
KICAD
  70
0
  40
0
  41
1
  42
1
  50
0
  71
0
  3
isocp.shx
  0
STYLE
  2
KICADB
  70
0
  40
0
  41
1
  42
1
  50
0
  71
0
  3
isocp.shx
  0
STYLE
  2
KICADI
  70
0
  40
0
  41
1
  42
1
  50
15
  71
0
  3
isocp.shx
  0
STYLE
  2
KICADBI
  70
0
  40
0
  41
1
  42
1
  50
15
  71
0
  3
isocp.shx
  0
ENDTAB
  0
TABLE
  2
LAYER
  70
1
  0
LAYER
  2
BLACK
  70
0
  62
7
  6
CONTINUOUS
  0
ENDTAB
  0
ENDSEC
  0
SECTION
  2
ENTITIES
0
LINE
8
BLACK
6
CONTINUOUS
10
2.17618
20
1.36122
11
2.17688
21
1.36093
0
LINE
8
BLACK
6
CONTINUOUS
10
2.17688
20
1.36093
11
2.17717
21
1.36024
0
LINE
8
BLACK
6
CONTINUOUS
10
2.17717
20
1.36024
11
2.17717
21
0.639764
0
LINE
8
BLACK
6
CONTINUOUS
10
2.17717
20
0.639764
11
2.17688
21
0.639068
0
LINE
8
BLACK
6
CONTINUOUS
10
2.17688
20
0.639068
11
2.17618
21
0.63878
0
LINE
8
BLACK
6
CONTINUOUS
10
2.17618
20
0.63878
11
1.58563
21
0.63878
0
LINE
8
BLACK
6
CONTINUOUS
10
1.58563
20
0.63878
11
1.58493
21
0.639068
0
LINE
8
BLACK
6
CONTINUOUS
10
1.58493
20
0.639068
11
1.58465
21
0.639764
0
LINE
8
BLACK
6
CONTINUOUS
10
1.58465
20
0.639764
11
1.58465
21
0.639764
0
LINE
8
BLACK
6
CONTINUOUS
10
1.58465
20
0.639764
11
1.58465
21
1.36024
0
LINE
8
BLACK
6
CONTINUOUS
10
1.58465
20
1.36024
11
1.58493
21
1.36093
0
LINE
8
BLACK
6
CONTINUOUS
10
1.58493
20
1.36093
11
1.58563
21
1.36122
0
LINE
8
BLACK
6
CONTINUOUS
10
1.58563
20
1.36122
11
2.17618
21
1.36122
0
LINE
8
BLACK
6
CONTINUOUS
10
1.58661
20
1.35925
11
1.58661
21
0.640748
0
LINE
8
BLACK
6
CONTINUOUS
10
1.58661
20
0.640748
11
2.1752
21
0.640748
0
LINE
8
BLACK
6
CONTINUOUS
10
2.1752
20
0.640748
11
2.1752
21
1.35925
0
LINE
8
BLACK
6
CONTINUOUS
10
2.1752
20
1.35925
11
1.58661
21
1.35925
0
LINE
8
BLACK
6
CONTINUOUS
10
1.21457
20
1.76673
11
1.21526
21
1.76644
0
LINE
8
BLACK
6
CONTINUOUS
10
1.21526
20
1.76644
11
1.21555
21
1.76575
0
LINE
8
BLACK
6
CONTINUOUS
10
1.21555
20
1.76575
11
1.21555
21
1.1752
0
LINE
8
BLACK
6
CONTINUOUS
10
1.21555
20
1.1752
11
1.21526
21
1.1745
0
LINE
8
BLACK
6
CONTINUOUS
10
1.21526
20
1.1745
11
1.21457
21
1.17421
0
LINE
8
BLACK
6
CONTINUOUS
10
1.21457
20
1.17421
11
0.690945
21
1.17421
0
LINE
8
BLACK
6
CONTINUOUS
10
0.690945
20
1.17421
11
0.690249
21
1.1745
0
LINE
8
BLACK
6
CONTINUOUS
10
0.690249
20
1.1745
11
0.689961
21
1.1752
0
LINE
8
BLACK
6
CONTINUOUS
10
0.689961
20
1.1752
11
0.689961
21
1.76575
0
LINE
8
BLACK
6
CONTINUOUS
10
0.689961
20
1.76575
11
0.690249
21
1.76644
0
LINE
8
BLACK
6
CONTINUOUS
10
0.690249
20
1.76644
11
0.690945
21
1.76673
0
LINE
8
BLACK
6
CONTINUOUS
10
0.690945
20
1.76673
11
1.21457
21
1.76673
0
LINE
8
BLACK
6
CONTINUOUS
10
0.691929
20
1.76476
11
0.691929
21
1.17618
0
LINE
8
BLACK
6
CONTINUOUS
10
0.691929
20
1.17618
11
1.21358
21
1.17618
0
LINE
8
BLACK
6
CONTINUOUS
10
1.21358
20
1.17618
11
1.21358
21
1.76476
0
LINE
8
BLACK
6
CONTINUOUS
10
1.21358
20
1.76476
11
0.691929
21
1.76476
  0
ENDSEC
  0
EOF
