  0
SECTION
  2
HEADER
  9
$ANGBASE
  50
0.0
  9
$ANGDIR
  70
1
  9
$MEASUREMENT
  70
0
  0
ENDSEC
  0
SECTION
  2
TABLES
  0
TABLE
  2
LTYPE
  70
4
  0
LTYPE
  5
40F
  2
CONTINUOUS
  70
0
  3
Solid line
  72
65
  73
0
  40
0.0
  0
LTYPE
  5
410
  2
DASHDOT
 70
0
  3
Dash Dot ____ _ ____ _
 72
65
 73
4
 40
2.0
 49
1.25
 49
-0.25
 49
0.25
 49
-0.25
  0
LTYPE
  5
411
  2
DASHED
 70
0
  3
Dashed __ __ __ __ __
 72
65
 73
2
 40
0.75
 49
0.5
 49
-0.25
  0
LTYPE
  5
43B
  2
DOTTED
 70
0
  3
Dotted .  .  .  .
 72
65
 73
2
 40
0.2
 49
0.0
 49
-0.2
  0
ENDTAB
  0
TABLE
  2
STYLE
  70
4
  0
STYLE
  2
KICAD
  70
0
  40
0
  41
1
  42
1
  50
0
  71
0
  3
isocp.shx
  0
STYLE
  2
KICADB
  70
0
  40
0
  41
1
  42
1
  50
0
  71
0
  3
isocp.shx
  0
STYLE
  2
KICADI
  70
0
  40
0
  41
1
  42
1
  50
15
  71
0
  3
isocp.shx
  0
STYLE
  2
KICADBI
  70
0
  40
0
  41
1
  42
1
  50
15
  71
0
  3
isocp.shx
  0
ENDTAB
  0
TABLE
  2
LAYER
  70
1
  0
LAYER
  2
BLACK
  70
0
  62
7
  6
CONTINUOUS
  0
ENDTAB
  0
ENDSEC
  0
SECTION
  2
ENTITIES
0
LINE
8
BLACK
6
CONTINUOUS
10
0.42051
20
0.516316
11
0.433874
21
0.513148
0
LINE
8
BLACK
6
CONTINUOUS
10
0.433874
20
0.513148
11
0.446781
21
0.508451
0
LINE
8
BLACK
6
CONTINUOUS
10
0.446781
20
0.508451
11
0.459055
21
0.502286
0
LINE
8
BLACK
6
CONTINUOUS
10
0.459055
20
0.502286
11
0.470531
21
0.494739
0
LINE
8
BLACK
6
CONTINUOUS
10
0.470531
20
0.494739
11
0.481052
21
0.48591
0
LINE
8
BLACK
6
CONTINUOUS
10
0.481052
20
0.48591
11
0.490478
21
0.47592
0
LINE
8
BLACK
6
CONTINUOUS
10
0.490478
20
0.47592
11
0.49868
21
0.464903
0
LINE
8
BLACK
6
CONTINUOUS
10
0.49868
20
0.464903
11
0.505547
21
0.453008
0
LINE
8
BLACK
6
CONTINUOUS
10
0.505547
20
0.453008
11
0.510987
21
0.440396
0
LINE
8
BLACK
6
CONTINUOUS
10
0.510987
20
0.440396
11
0.514927
21
0.427238
0
LINE
8
BLACK
6
CONTINUOUS
10
0.514927
20
0.427238
11
0.517312
21
0.413712
0
LINE
8
BLACK
6
CONTINUOUS
10
0.517312
20
0.413712
11
0.51811
21
0.4
0
LINE
8
BLACK
6
CONTINUOUS
10
0.51811
20
0.4
11
0.517312
21
0.386288
0
LINE
8
BLACK
6
CONTINUOUS
10
0.517312
20
0.386288
11
0.514927
21
0.372762
0
LINE
8
BLACK
6
CONTINUOUS
10
0.514927
20
0.372762
11
0.510987
21
0.359604
0
LINE
8
BLACK
6
CONTINUOUS
10
0.510987
20
0.359604
11
0.505547
21
0.346992
0
LINE
8
BLACK
6
CONTINUOUS
10
0.505547
20
0.346992
11
0.49868
21
0.335097
0
LINE
8
BLACK
6
CONTINUOUS
10
0.49868
20
0.335097
11
0.490478
21
0.32408
0
LINE
8
BLACK
6
CONTINUOUS
10
0.490478
20
0.32408
11
0.481052
21
0.31409
0
LINE
8
BLACK
6
CONTINUOUS
10
0.481052
20
0.31409
11
0.470531
21
0.305261
0
LINE
8
BLACK
6
CONTINUOUS
10
0.470531
20
0.305261
11
0.459055
21
0.297714
0
LINE
8
BLACK
6
CONTINUOUS
10
0.459055
20
0.297714
11
0.446781
21
0.291549
0
LINE
8
BLACK
6
CONTINUOUS
10
0.446781
20
0.291549
11
0.433874
21
0.286852
0
LINE
8
BLACK
6
CONTINUOUS
10
0.433874
20
0.286852
11
0.42051
21
0.283684
0
LINE
8
BLACK
6
CONTINUOUS
10
0.42051
20
0.283684
11
0.406867
21
0.28209
0
LINE
8
BLACK
6
CONTINUOUS
10
0.406867
20
0.28209
11
0.393133
21
0.28209
0
LINE
8
BLACK
6
CONTINUOUS
10
0.393133
20
0.28209
11
0.37949
21
0.283684
0
LINE
8
BLACK
6
CONTINUOUS
10
0.37949
20
0.283684
11
0.366126
21
0.286852
0
LINE
8
BLACK
6
CONTINUOUS
10
0.366126
20
0.286852
11
0.353219
21
0.291549
0
LINE
8
BLACK
6
CONTINUOUS
10
0.353219
20
0.291549
11
0.340945
21
0.297714
0
LINE
8
BLACK
6
CONTINUOUS
10
0.340945
20
0.297714
11
0.329469
21
0.305261
0
LINE
8
BLACK
6
CONTINUOUS
10
0.329469
20
0.305261
11
0.318948
21
0.31409
0
LINE
8
BLACK
6
CONTINUOUS
10
0.318948
20
0.31409
11
0.309522
21
0.32408
0
LINE
8
BLACK
6
CONTINUOUS
10
0.309522
20
0.32408
11
0.30132
21
0.335097
0
LINE
8
BLACK
6
CONTINUOUS
10
0.30132
20
0.335097
11
0.294453
21
0.346992
0
LINE
8
BLACK
6
CONTINUOUS
10
0.294453
20
0.346992
11
0.289013
21
0.359604
0
LINE
8
BLACK
6
CONTINUOUS
10
0.289013
20
0.359604
11
0.285073
21
0.372762
0
LINE
8
BLACK
6
CONTINUOUS
10
0.285073
20
0.372762
11
0.282688
21
0.386288
0
LINE
8
BLACK
6
CONTINUOUS
10
0.282688
20
0.386288
11
0.28189
21
0.4
0
LINE
8
BLACK
6
CONTINUOUS
10
0.28189
20
0.4
11
0.282688
21
0.413712
0
LINE
8
BLACK
6
CONTINUOUS
10
0.282688
20
0.413712
11
0.285073
21
0.427238
0
LINE
8
BLACK
6
CONTINUOUS
10
0.285073
20
0.427238
11
0.289013
21
0.440396
0
LINE
8
BLACK
6
CONTINUOUS
10
0.289013
20
0.440396
11
0.294453
21
0.453008
0
LINE
8
BLACK
6
CONTINUOUS
10
0.294453
20
0.453008
11
0.30132
21
0.464903
0
LINE
8
BLACK
6
CONTINUOUS
10
0.30132
20
0.464903
11
0.309522
21
0.47592
0
LINE
8
BLACK
6
CONTINUOUS
10
0.309522
20
0.47592
11
0.318948
21
0.48591
0
LINE
8
BLACK
6
CONTINUOUS
10
0.318948
20
0.48591
11
0.329469
21
0.494739
0
LINE
8
BLACK
6
CONTINUOUS
10
0.329469
20
0.494739
11
0.340945
21
0.502286
0
LINE
8
BLACK
6
CONTINUOUS
10
0.340945
20
0.502286
11
0.353219
21
0.508451
0
LINE
8
BLACK
6
CONTINUOUS
10
0.353219
20
0.508451
11
0.366126
21
0.513148
0
LINE
8
BLACK
6
CONTINUOUS
10
0.366126
20
0.513148
11
0.37949
21
0.516316
0
LINE
8
BLACK
6
CONTINUOUS
10
0.37949
20
0.516316
11
0.393133
21
0.51791
0
LINE
8
BLACK
6
CONTINUOUS
10
0.393133
20
0.51791
11
0.406867
21
0.51791
0
LINE
8
BLACK
6
CONTINUOUS
10
0.406867
20
0.51791
11
0.42051
21
0.516316
0
LINE
8
BLACK
6
CONTINUOUS
10
2.02051
20
0.516316
11
2.03387
21
0.513148
0
LINE
8
BLACK
6
CONTINUOUS
10
2.03387
20
0.513148
11
2.04678
21
0.508451
0
LINE
8
BLACK
6
CONTINUOUS
10
2.04678
20
0.508451
11
2.05906
21
0.502286
0
LINE
8
BLACK
6
CONTINUOUS
10
2.05906
20
0.502286
11
2.07053
21
0.494739
0
LINE
8
BLACK
6
CONTINUOUS
10
2.07053
20
0.494739
11
2.08105
21
0.48591
0
LINE
8
BLACK
6
CONTINUOUS
10
2.08105
20
0.48591
11
2.09048
21
0.47592
0
LINE
8
BLACK
6
CONTINUOUS
10
2.09048
20
0.47592
11
2.09868
21
0.464903
0
LINE
8
BLACK
6
CONTINUOUS
10
2.09868
20
0.464903
11
2.10555
21
0.453008
0
LINE
8
BLACK
6
CONTINUOUS
10
2.10555
20
0.453008
11
2.11099
21
0.440396
0
LINE
8
BLACK
6
CONTINUOUS
10
2.11099
20
0.440396
11
2.11493
21
0.427238
0
LINE
8
BLACK
6
CONTINUOUS
10
2.11493
20
0.427238
11
2.11731
21
0.413712
0
LINE
8
BLACK
6
CONTINUOUS
10
2.11731
20
0.413712
11
2.11811
21
0.4
0
LINE
8
BLACK
6
CONTINUOUS
10
2.11811
20
0.4
11
2.11731
21
0.386288
0
LINE
8
BLACK
6
CONTINUOUS
10
2.11731
20
0.386288
11
2.11493
21
0.372762
0
LINE
8
BLACK
6
CONTINUOUS
10
2.11493
20
0.372762
11
2.11099
21
0.359604
0
LINE
8
BLACK
6
CONTINUOUS
10
2.11099
20
0.359604
11
2.10555
21
0.346992
0
LINE
8
BLACK
6
CONTINUOUS
10
2.10555
20
0.346992
11
2.09868
21
0.335097
0
LINE
8
BLACK
6
CONTINUOUS
10
2.09868
20
0.335097
11
2.09048
21
0.32408
0
LINE
8
BLACK
6
CONTINUOUS
10
2.09048
20
0.32408
11
2.08105
21
0.31409
0
LINE
8
BLACK
6
CONTINUOUS
10
2.08105
20
0.31409
11
2.07053
21
0.305261
0
LINE
8
BLACK
6
CONTINUOUS
10
2.07053
20
0.305261
11
2.05906
21
0.297714
0
LINE
8
BLACK
6
CONTINUOUS
10
2.05906
20
0.297714
11
2.04678
21
0.291549
0
LINE
8
BLACK
6
CONTINUOUS
10
2.04678
20
0.291549
11
2.03387
21
0.286852
0
LINE
8
BLACK
6
CONTINUOUS
10
2.03387
20
0.286852
11
2.02051
21
0.283684
0
LINE
8
BLACK
6
CONTINUOUS
10
2.02051
20
0.283684
11
2.00687
21
0.28209
0
LINE
8
BLACK
6
CONTINUOUS
10
2.00687
20
0.28209
11
1.99313
21
0.28209
0
LINE
8
BLACK
6
CONTINUOUS
10
1.99313
20
0.28209
11
1.97949
21
0.283684
0
LINE
8
BLACK
6
CONTINUOUS
10
1.97949
20
0.283684
11
1.96613
21
0.286852
0
LINE
8
BLACK
6
CONTINUOUS
10
1.96613
20
0.286852
11
1.95322
21
0.291549
0
LINE
8
BLACK
6
CONTINUOUS
10
1.95322
20
0.291549
11
1.94094
21
0.297714
0
LINE
8
BLACK
6
CONTINUOUS
10
1.94094
20
0.297714
11
1.92947
21
0.305261
0
LINE
8
BLACK
6
CONTINUOUS
10
1.92947
20
0.305261
11
1.91895
21
0.31409
0
LINE
8
BLACK
6
CONTINUOUS
10
1.91895
20
0.31409
11
1.90952
21
0.32408
0
LINE
8
BLACK
6
CONTINUOUS
10
1.90952
20
0.32408
11
1.90132
21
0.335097
0
LINE
8
BLACK
6
CONTINUOUS
10
1.90132
20
0.335097
11
1.89445
21
0.346992
0
LINE
8
BLACK
6
CONTINUOUS
10
1.89445
20
0.346992
11
1.88901
21
0.359604
0
LINE
8
BLACK
6
CONTINUOUS
10
1.88901
20
0.359604
11
1.88507
21
0.372762
0
LINE
8
BLACK
6
CONTINUOUS
10
1.88507
20
0.372762
11
1.88269
21
0.386288
0
LINE
8
BLACK
6
CONTINUOUS
10
1.88269
20
0.386288
11
1.88189
21
0.4
0
LINE
8
BLACK
6
CONTINUOUS
10
1.88189
20
0.4
11
1.88269
21
0.413712
0
LINE
8
BLACK
6
CONTINUOUS
10
1.88269
20
0.413712
11
1.88507
21
0.427238
0
LINE
8
BLACK
6
CONTINUOUS
10
1.88507
20
0.427238
11
1.88901
21
0.440396
0
LINE
8
BLACK
6
CONTINUOUS
10
1.88901
20
0.440396
11
1.89445
21
0.453008
0
LINE
8
BLACK
6
CONTINUOUS
10
1.89445
20
0.453008
11
1.90132
21
0.464903
0
LINE
8
BLACK
6
CONTINUOUS
10
1.90132
20
0.464903
11
1.90952
21
0.47592
0
LINE
8
BLACK
6
CONTINUOUS
10
1.90952
20
0.47592
11
1.91895
21
0.48591
0
LINE
8
BLACK
6
CONTINUOUS
10
1.91895
20
0.48591
11
1.92947
21
0.494739
0
LINE
8
BLACK
6
CONTINUOUS
10
1.92947
20
0.494739
11
1.94094
21
0.502286
0
LINE
8
BLACK
6
CONTINUOUS
10
1.94094
20
0.502286
11
1.95322
21
0.508451
0
LINE
8
BLACK
6
CONTINUOUS
10
1.95322
20
0.508451
11
1.96613
21
0.513148
0
LINE
8
BLACK
6
CONTINUOUS
10
1.96613
20
0.513148
11
1.97949
21
0.516316
0
LINE
8
BLACK
6
CONTINUOUS
10
1.97949
20
0.516316
11
1.99313
21
0.51791
0
LINE
8
BLACK
6
CONTINUOUS
10
1.99313
20
0.51791
11
2.00687
21
0.51791
0
LINE
8
BLACK
6
CONTINUOUS
10
2.00687
20
0.51791
11
2.02051
21
0.516316
0
LINE
8
BLACK
6
CONTINUOUS
10
1.54181
20
0.30563
11
1.48181
21
0.30563
0
LINE
8
BLACK
6
CONTINUOUS
10
1.48181
20
0.30563
11
1.48181
21
0.36563
0
LINE
8
BLACK
6
CONTINUOUS
10
1.48181
20
0.36563
11
1.54181
21
0.36563
0
LINE
8
BLACK
6
CONTINUOUS
10
1.54181
20
0.36563
11
1.54181
21
0.30563
0
LINE
8
BLACK
6
CONTINUOUS
10
1.64181
20
0.30563
11
1.58181
21
0.30563
0
LINE
8
BLACK
6
CONTINUOUS
10
1.58181
20
0.30563
11
1.58181
21
0.36563
0
LINE
8
BLACK
6
CONTINUOUS
10
1.58181
20
0.36563
11
1.64181
21
0.36563
0
LINE
8
BLACK
6
CONTINUOUS
10
1.64181
20
0.36563
11
1.64181
21
0.30563
0
LINE
8
BLACK
6
CONTINUOUS
10
1.74181
20
0.30563
11
1.68181
21
0.30563
0
LINE
8
BLACK
6
CONTINUOUS
10
1.68181
20
0.30563
11
1.68181
21
0.36563
0
LINE
8
BLACK
6
CONTINUOUS
10
1.68181
20
0.36563
11
1.74181
21
0.36563
0
LINE
8
BLACK
6
CONTINUOUS
10
1.74181
20
0.36563
11
1.74181
21
0.30563
0
LINE
8
BLACK
6
CONTINUOUS
10
0.842598
20
0.306073
11
0.782598
21
0.306073
0
LINE
8
BLACK
6
CONTINUOUS
10
0.782598
20
0.306073
11
0.782598
21
0.366073
0
LINE
8
BLACK
6
CONTINUOUS
10
0.782598
20
0.366073
11
0.842598
21
0.366073
0
LINE
8
BLACK
6
CONTINUOUS
10
0.842598
20
0.366073
11
0.842598
21
0.306073
0
LINE
8
BLACK
6
CONTINUOUS
10
0.942598
20
0.306073
11
0.882598
21
0.306073
0
LINE
8
BLACK
6
CONTINUOUS
10
0.882598
20
0.306073
11
0.882598
21
0.366073
0
LINE
8
BLACK
6
CONTINUOUS
10
0.882598
20
0.366073
11
0.942598
21
0.366073
0
LINE
8
BLACK
6
CONTINUOUS
10
0.942598
20
0.366073
11
0.942598
21
0.306073
0
LINE
8
BLACK
6
CONTINUOUS
10
1.0426
20
0.306073
11
0.982598
21
0.306073
0
LINE
8
BLACK
6
CONTINUOUS
10
0.982598
20
0.306073
11
0.982598
21
0.366073
0
LINE
8
BLACK
6
CONTINUOUS
10
0.982598
20
0.366073
11
1.0426
21
0.366073
0
LINE
8
BLACK
6
CONTINUOUS
10
1.0426
20
0.366073
11
1.0426
21
0.306073
0
LINE
8
BLACK
6
CONTINUOUS
10
1.1426
20
0.306073
11
1.0826
21
0.306073
0
LINE
8
BLACK
6
CONTINUOUS
10
1.0826
20
0.306073
11
1.0826
21
0.366073
0
LINE
8
BLACK
6
CONTINUOUS
10
1.0826
20
0.366073
11
1.1426
21
0.366073
0
LINE
8
BLACK
6
CONTINUOUS
10
1.1426
20
0.366073
11
1.1426
21
0.306073
0
LINE
8
BLACK
6
CONTINUOUS
10
1.2426
20
0.306073
11
1.1826
21
0.306073
0
LINE
8
BLACK
6
CONTINUOUS
10
1.1826
20
0.306073
11
1.1826
21
0.366073
0
LINE
8
BLACK
6
CONTINUOUS
10
1.1826
20
0.366073
11
1.2426
21
0.366073
0
LINE
8
BLACK
6
CONTINUOUS
10
1.2426
20
0.366073
11
1.2426
21
0.306073
0
LINE
8
BLACK
6
CONTINUOUS
10
1.54181
20
0.40563
11
1.48181
21
0.40563
0
LINE
8
BLACK
6
CONTINUOUS
10
1.48181
20
0.40563
11
1.48181
21
0.46563
0
LINE
8
BLACK
6
CONTINUOUS
10
1.48181
20
0.46563
11
1.54181
21
0.46563
0
LINE
8
BLACK
6
CONTINUOUS
10
1.54181
20
0.46563
11
1.54181
21
0.40563
0
LINE
8
BLACK
6
CONTINUOUS
10
1.64181
20
0.40563
11
1.58181
21
0.40563
0
LINE
8
BLACK
6
CONTINUOUS
10
1.58181
20
0.40563
11
1.58181
21
0.46563
0
LINE
8
BLACK
6
CONTINUOUS
10
1.58181
20
0.46563
11
1.64181
21
0.46563
0
LINE
8
BLACK
6
CONTINUOUS
10
1.64181
20
0.46563
11
1.64181
21
0.40563
0
LINE
8
BLACK
6
CONTINUOUS
10
1.74181
20
0.40563
11
1.68181
21
0.40563
0
LINE
8
BLACK
6
CONTINUOUS
10
1.68181
20
0.40563
11
1.68181
21
0.46563
0
LINE
8
BLACK
6
CONTINUOUS
10
1.68181
20
0.46563
11
1.74181
21
0.46563
0
LINE
8
BLACK
6
CONTINUOUS
10
1.74181
20
0.46563
11
1.74181
21
0.40563
0
LINE
8
BLACK
6
CONTINUOUS
10
0.842598
20
0.406073
11
0.782598
21
0.406073
0
LINE
8
BLACK
6
CONTINUOUS
10
0.782598
20
0.406073
11
0.782598
21
0.466073
0
LINE
8
BLACK
6
CONTINUOUS
10
0.782598
20
0.466073
11
0.842598
21
0.466073
0
LINE
8
BLACK
6
CONTINUOUS
10
0.842598
20
0.466073
11
0.842598
21
0.406073
0
LINE
8
BLACK
6
CONTINUOUS
10
0.942598
20
0.406073
11
0.882598
21
0.406073
0
LINE
8
BLACK
6
CONTINUOUS
10
0.882598
20
0.406073
11
0.882598
21
0.466073
0
LINE
8
BLACK
6
CONTINUOUS
10
0.882598
20
0.466073
11
0.942598
21
0.466073
0
LINE
8
BLACK
6
CONTINUOUS
10
0.942598
20
0.466073
11
0.942598
21
0.406073
0
LINE
8
BLACK
6
CONTINUOUS
10
1.0426
20
0.406073
11
0.982598
21
0.406073
0
LINE
8
BLACK
6
CONTINUOUS
10
0.982598
20
0.406073
11
0.982598
21
0.466073
0
LINE
8
BLACK
6
CONTINUOUS
10
0.982598
20
0.466073
11
1.0426
21
0.466073
0
LINE
8
BLACK
6
CONTINUOUS
10
1.0426
20
0.466073
11
1.0426
21
0.406073
0
LINE
8
BLACK
6
CONTINUOUS
10
1.1426
20
0.406073
11
1.0826
21
0.406073
0
LINE
8
BLACK
6
CONTINUOUS
10
1.0826
20
0.406073
11
1.0826
21
0.466073
0
LINE
8
BLACK
6
CONTINUOUS
10
1.0826
20
0.466073
11
1.1426
21
0.466073
0
LINE
8
BLACK
6
CONTINUOUS
10
1.1426
20
0.466073
11
1.1426
21
0.406073
0
LINE
8
BLACK
6
CONTINUOUS
10
1.2426
20
0.406073
11
1.1826
21
0.406073
0
LINE
8
BLACK
6
CONTINUOUS
10
1.1826
20
0.406073
11
1.1826
21
0.466073
0
LINE
8
BLACK
6
CONTINUOUS
10
1.1826
20
0.466073
11
1.2426
21
0.466073
0
LINE
8
BLACK
6
CONTINUOUS
10
1.2426
20
0.466073
11
1.2426
21
0.406073
0
LINE
8
BLACK
6
CONTINUOUS
10
0.350669
20
0.62748
11
0.290669
21
0.62748
0
LINE
8
BLACK
6
CONTINUOUS
10
0.290669
20
0.62748
11
0.290669
21
0.68748
0
LINE
8
BLACK
6
CONTINUOUS
10
0.290669
20
0.68748
11
0.350669
21
0.68748
0
LINE
8
BLACK
6
CONTINUOUS
10
0.350669
20
0.68748
11
0.350669
21
0.62748
0
LINE
8
BLACK
6
CONTINUOUS
10
0.450669
20
0.62748
11
0.390669
21
0.62748
0
LINE
8
BLACK
6
CONTINUOUS
10
0.390669
20
0.62748
11
0.390669
21
0.68748
0
LINE
8
BLACK
6
CONTINUOUS
10
0.390669
20
0.68748
11
0.450669
21
0.68748
0
LINE
8
BLACK
6
CONTINUOUS
10
0.450669
20
0.68748
11
0.450669
21
0.62748
0
LINE
8
BLACK
6
CONTINUOUS
10
0.550669
20
0.62748
11
0.490669
21
0.62748
0
LINE
8
BLACK
6
CONTINUOUS
10
0.490669
20
0.62748
11
0.490669
21
0.68748
0
LINE
8
BLACK
6
CONTINUOUS
10
0.490669
20
0.68748
11
0.550669
21
0.68748
0
LINE
8
BLACK
6
CONTINUOUS
10
0.550669
20
0.68748
11
0.550669
21
0.62748
0
LINE
8
BLACK
6
CONTINUOUS
10
0.350669
20
0.72748
11
0.290669
21
0.72748
0
LINE
8
BLACK
6
CONTINUOUS
10
0.290669
20
0.72748
11
0.290669
21
0.78748
0
LINE
8
BLACK
6
CONTINUOUS
10
0.290669
20
0.78748
11
0.350669
21
0.78748
0
LINE
8
BLACK
6
CONTINUOUS
10
0.350669
20
0.78748
11
0.350669
21
0.72748
0
LINE
8
BLACK
6
CONTINUOUS
10
0.450669
20
0.72748
11
0.390669
21
0.72748
0
LINE
8
BLACK
6
CONTINUOUS
10
0.390669
20
0.72748
11
0.390669
21
0.78748
0
LINE
8
BLACK
6
CONTINUOUS
10
0.390669
20
0.78748
11
0.450669
21
0.78748
0
LINE
8
BLACK
6
CONTINUOUS
10
0.450669
20
0.78748
11
0.450669
21
0.72748
0
LINE
8
BLACK
6
CONTINUOUS
10
0.550669
20
0.72748
11
0.490669
21
0.72748
0
LINE
8
BLACK
6
CONTINUOUS
10
0.490669
20
0.72748
11
0.490669
21
0.78748
0
LINE
8
BLACK
6
CONTINUOUS
10
0.490669
20
0.78748
11
0.550669
21
0.78748
0
LINE
8
BLACK
6
CONTINUOUS
10
0.550669
20
0.78748
11
0.550669
21
0.72748
0
LINE
8
BLACK
6
CONTINUOUS
10
1.25972
20
0.737717
11
1.19972
21
0.737717
0
LINE
8
BLACK
6
CONTINUOUS
10
1.19972
20
0.737717
11
1.19972
21
0.797717
0
LINE
8
BLACK
6
CONTINUOUS
10
1.19972
20
0.797717
11
1.25972
21
0.797717
0
LINE
8
BLACK
6
CONTINUOUS
10
1.25972
20
0.797717
11
1.25972
21
0.737717
0
LINE
8
BLACK
6
CONTINUOUS
10
1.35972
20
0.737717
11
1.29972
21
0.737717
0
LINE
8
BLACK
6
CONTINUOUS
10
1.29972
20
0.737717
11
1.29972
21
0.797717
0
LINE
8
BLACK
6
CONTINUOUS
10
1.29972
20
0.797717
11
1.35972
21
0.797717
0
LINE
8
BLACK
6
CONTINUOUS
10
1.35972
20
0.797717
11
1.35972
21
0.737717
0
LINE
8
BLACK
6
CONTINUOUS
10
1.83512
20
0.838383
11
1.84179
21
0.836802
0
LINE
8
BLACK
6
CONTINUOUS
10
1.84179
20
0.836802
11
1.84792
21
0.833725
0
LINE
8
BLACK
6
CONTINUOUS
10
1.84792
20
0.833725
11
1.85317
21
0.829318
0
LINE
8
BLACK
6
CONTINUOUS
10
1.85317
20
0.829318
11
1.85726
21
0.823819
0
LINE
8
BLACK
6
CONTINUOUS
10
1.85726
20
0.823819
11
1.85998
21
0.817524
0
LINE
8
BLACK
6
CONTINUOUS
10
1.85998
20
0.817524
11
1.86117
21
0.810772
0
LINE
8
BLACK
6
CONTINUOUS
10
1.86117
20
0.810772
11
1.86077
21
0.803928
0
LINE
8
BLACK
6
CONTINUOUS
10
1.86077
20
0.803928
11
1.85881
21
0.79736
0
LINE
8
BLACK
6
CONTINUOUS
10
1.85881
20
0.79736
11
1.85538
21
0.791422
0
LINE
8
BLACK
6
CONTINUOUS
10
1.85538
20
0.791422
11
1.85067
21
0.786436
0
LINE
8
BLACK
6
CONTINUOUS
10
1.85067
20
0.786436
11
1.84494
21
0.782668
0
LINE
8
BLACK
6
CONTINUOUS
10
1.84494
20
0.782668
11
1.8385
21
0.780323
0
LINE
8
BLACK
6
CONTINUOUS
10
1.8385
20
0.780323
11
1.83169
21
0.779528
0
LINE
8
BLACK
6
CONTINUOUS
10
1.83169
20
0.779528
11
1.77264
21
0.779528
0
LINE
8
BLACK
6
CONTINUOUS
10
1.77264
20
0.779528
11
1.76921
21
0.779727
0
LINE
8
BLACK
6
CONTINUOUS
10
1.76921
20
0.779727
11
1.76254
21
0.781308
0
LINE
8
BLACK
6
CONTINUOUS
10
1.76254
20
0.781308
11
1.75641
21
0.784385
0
LINE
8
BLACK
6
CONTINUOUS
10
1.75641
20
0.784385
11
1.75116
21
0.788792
0
LINE
8
BLACK
6
CONTINUOUS
10
1.75116
20
0.788792
11
1.74707
21
0.794291
0
LINE
8
BLACK
6
CONTINUOUS
10
1.74707
20
0.794291
11
1.74435
21
0.800587
0
LINE
8
BLACK
6
CONTINUOUS
10
1.74435
20
0.800587
11
1.74316
21
0.807338
0
LINE
8
BLACK
6
CONTINUOUS
10
1.74316
20
0.807338
11
1.74356
21
0.814183
0
LINE
8
BLACK
6
CONTINUOUS
10
1.74356
20
0.814183
11
1.74553
21
0.82075
0
LINE
8
BLACK
6
CONTINUOUS
10
1.74553
20
0.82075
11
1.74895
21
0.826688
0
LINE
8
BLACK
6
CONTINUOUS
10
1.74895
20
0.826688
11
1.75366
21
0.831675
0
LINE
8
BLACK
6
CONTINUOUS
10
1.75366
20
0.831675
11
1.75939
21
0.835442
0
LINE
8
BLACK
6
CONTINUOUS
10
1.75939
20
0.835442
11
1.76583
21
0.837787
0
LINE
8
BLACK
6
CONTINUOUS
10
1.76583
20
0.837787
11
1.77264
21
0.838583
0
LINE
8
BLACK
6
CONTINUOUS
10
1.77264
20
0.838583
11
1.83169
21
0.838583
0
LINE
8
BLACK
6
CONTINUOUS
10
1.83169
20
0.838583
11
1.83512
21
0.838383
0
LINE
8
BLACK
6
CONTINUOUS
10
1.25972
20
0.837717
11
1.19972
21
0.837717
0
LINE
8
BLACK
6
CONTINUOUS
10
1.19972
20
0.837717
11
1.19972
21
0.897717
0
LINE
8
BLACK
6
CONTINUOUS
10
1.19972
20
0.897717
11
1.25972
21
0.897717
0
LINE
8
BLACK
6
CONTINUOUS
10
1.25972
20
0.897717
11
1.25972
21
0.837717
0
LINE
8
BLACK
6
CONTINUOUS
10
1.35972
20
0.837717
11
1.29972
21
0.837717
0
LINE
8
BLACK
6
CONTINUOUS
10
1.29972
20
0.837717
11
1.29972
21
0.897717
0
LINE
8
BLACK
6
CONTINUOUS
10
1.29972
20
0.897717
11
1.35972
21
0.897717
0
LINE
8
BLACK
6
CONTINUOUS
10
1.35972
20
0.897717
11
1.35972
21
0.837717
0
LINE
8
BLACK
6
CONTINUOUS
10
1.25972
20
0.937717
11
1.19972
21
0.937717
0
LINE
8
BLACK
6
CONTINUOUS
10
1.19972
20
0.937717
11
1.19972
21
0.997717
0
LINE
8
BLACK
6
CONTINUOUS
10
1.19972
20
0.997717
11
1.25972
21
0.997717
0
LINE
8
BLACK
6
CONTINUOUS
10
1.25972
20
0.997717
11
1.25972
21
0.937717
0
LINE
8
BLACK
6
CONTINUOUS
10
1.35972
20
0.937717
11
1.29972
21
0.937717
0
LINE
8
BLACK
6
CONTINUOUS
10
1.29972
20
0.937717
11
1.29972
21
0.997717
0
LINE
8
BLACK
6
CONTINUOUS
10
1.29972
20
0.997717
11
1.35972
21
0.997717
0
LINE
8
BLACK
6
CONTINUOUS
10
1.35972
20
0.997717
11
1.35972
21
0.937717
0
LINE
8
BLACK
6
CONTINUOUS
10
1.83512
20
1.03523
11
1.84179
21
1.03365
0
LINE
8
BLACK
6
CONTINUOUS
10
1.84179
20
1.03365
11
1.84792
21
1.03058
0
LINE
8
BLACK
6
CONTINUOUS
10
1.84792
20
1.03058
11
1.85317
21
1.02617
0
LINE
8
BLACK
6
CONTINUOUS
10
1.85317
20
1.02617
11
1.85726
21
1.02067
0
LINE
8
BLACK
6
CONTINUOUS
10
1.85726
20
1.02067
11
1.85998
21
1.01437
0
LINE
8
BLACK
6
CONTINUOUS
10
1.85998
20
1.01437
11
1.86117
21
1.00762
0
LINE
8
BLACK
6
CONTINUOUS
10
1.86117
20
1.00762
11
1.86077
21
1.00078
0
LINE
8
BLACK
6
CONTINUOUS
10
1.86077
20
1.00078
11
1.85881
21
0.99421
0
LINE
8
BLACK
6
CONTINUOUS
10
1.85881
20
0.99421
11
1.85538
21
0.988273
0
LINE
8
BLACK
6
CONTINUOUS
10
1.85538
20
0.988273
11
1.85067
21
0.983286
0
LINE
8
BLACK
6
CONTINUOUS
10
1.85067
20
0.983286
11
1.84494
21
0.979519
0
LINE
8
BLACK
6
CONTINUOUS
10
1.84494
20
0.979519
11
1.8385
21
0.977174
0
LINE
8
BLACK
6
CONTINUOUS
10
1.8385
20
0.977174
11
1.83169
21
0.976378
0
LINE
8
BLACK
6
CONTINUOUS
10
1.83169
20
0.976378
11
1.77264
21
0.976378
0
LINE
8
BLACK
6
CONTINUOUS
10
1.77264
20
0.976378
11
1.76921
21
0.976578
0
LINE
8
BLACK
6
CONTINUOUS
10
1.76921
20
0.976578
11
1.76254
21
0.978159
0
LINE
8
BLACK
6
CONTINUOUS
10
1.76254
20
0.978159
11
1.75641
21
0.981236
0
LINE
8
BLACK
6
CONTINUOUS
10
1.75641
20
0.981236
11
1.75116
21
0.985642
0
LINE
8
BLACK
6
CONTINUOUS
10
1.75116
20
0.985642
11
1.74707
21
0.991142
0
LINE
8
BLACK
6
CONTINUOUS
10
1.74707
20
0.991142
11
1.74435
21
0.997437
0
LINE
8
BLACK
6
CONTINUOUS
10
1.74435
20
0.997437
11
1.74316
21
1.00419
0
LINE
8
BLACK
6
CONTINUOUS
10
1.74316
20
1.00419
11
1.74356
21
1.01103
0
LINE
8
BLACK
6
CONTINUOUS
10
1.74356
20
1.01103
11
1.74553
21
1.0176
0
LINE
8
BLACK
6
CONTINUOUS
10
1.74553
20
1.0176
11
1.74895
21
1.02354
0
LINE
8
BLACK
6
CONTINUOUS
10
1.74895
20
1.02354
11
1.75366
21
1.02852
0
LINE
8
BLACK
6
CONTINUOUS
10
1.75366
20
1.02852
11
1.75939
21
1.03229
0
LINE
8
BLACK
6
CONTINUOUS
10
1.75939
20
1.03229
11
1.76583
21
1.03464
0
LINE
8
BLACK
6
CONTINUOUS
10
1.76583
20
1.03464
11
1.77264
21
1.03543
0
LINE
8
BLACK
6
CONTINUOUS
10
1.77264
20
1.03543
11
1.83169
21
1.03543
0
LINE
8
BLACK
6
CONTINUOUS
10
1.83169
20
1.03543
11
1.83512
21
1.03523
0
LINE
8
BLACK
6
CONTINUOUS
10
1.86122
20
1.17323
11
1.74311
21
1.17323
0
LINE
8
BLACK
6
CONTINUOUS
10
1.74311
20
1.17323
11
1.74311
21
1.23228
0
LINE
8
BLACK
6
CONTINUOUS
10
1.74311
20
1.23228
11
1.86122
21
1.23228
0
LINE
8
BLACK
6
CONTINUOUS
10
1.86122
20
1.23228
11
1.86122
21
1.17323
0
LINE
8
BLACK
6
CONTINUOUS
10
0.877953
20
1.33268
11
0.818898
21
1.33268
0
LINE
8
BLACK
6
CONTINUOUS
10
0.818898
20
1.33268
11
0.818898
21
1.45079
0
LINE
8
BLACK
6
CONTINUOUS
10
0.818898
20
1.45079
11
0.877953
21
1.45079
0
LINE
8
BLACK
6
CONTINUOUS
10
0.877953
20
1.45079
11
0.877953
21
1.33268
0
LINE
8
BLACK
6
CONTINUOUS
10
1.0504
20
1.45034
11
1.05697
21
1.44837
0
LINE
8
BLACK
6
CONTINUOUS
10
1.05697
20
1.44837
11
1.06291
21
1.44494
0
LINE
8
BLACK
6
CONTINUOUS
10
1.06291
20
1.44494
11
1.0679
21
1.44024
0
LINE
8
BLACK
6
CONTINUOUS
10
1.0679
20
1.44024
11
1.07166
21
1.43451
0
LINE
8
BLACK
6
CONTINUOUS
10
1.07166
20
1.43451
11
1.07401
21
1.42807
0
LINE
8
BLACK
6
CONTINUOUS
10
1.07401
20
1.42807
11
1.0748
21
1.42126
0
LINE
8
BLACK
6
CONTINUOUS
10
1.0748
20
1.42126
11
1.0748
21
1.3622
0
LINE
8
BLACK
6
CONTINUOUS
10
1.0748
20
1.3622
11
1.0746
21
1.35878
0
LINE
8
BLACK
6
CONTINUOUS
10
1.0746
20
1.35878
11
1.07302
21
1.35211
0
LINE
8
BLACK
6
CONTINUOUS
10
1.07302
20
1.35211
11
1.06995
21
1.34598
0
LINE
8
BLACK
6
CONTINUOUS
10
1.06995
20
1.34598
11
1.06554
21
1.34073
0
LINE
8
BLACK
6
CONTINUOUS
10
1.06554
20
1.34073
11
1.06004
21
1.33663
0
LINE
8
BLACK
6
CONTINUOUS
10
1.06004
20
1.33663
11
1.05374
21
1.33392
0
LINE
8
BLACK
6
CONTINUOUS
10
1.05374
20
1.33392
11
1.04699
21
1.33273
0
LINE
8
BLACK
6
CONTINUOUS
10
1.04699
20
1.33273
11
1.04015
21
1.33313
0
LINE
8
BLACK
6
CONTINUOUS
10
1.04015
20
1.33313
11
1.03358
21
1.33509
0
LINE
8
BLACK
6
CONTINUOUS
10
1.03358
20
1.33509
11
1.02764
21
1.33852
0
LINE
8
BLACK
6
CONTINUOUS
10
1.02764
20
1.33852
11
1.02266
21
1.34322
0
LINE
8
BLACK
6
CONTINUOUS
10
1.02266
20
1.34322
11
1.01889
21
1.34895
0
LINE
8
BLACK
6
CONTINUOUS
10
1.01889
20
1.34895
11
1.01654
21
1.3554
0
LINE
8
BLACK
6
CONTINUOUS
10
1.01654
20
1.3554
11
1.01575
21
1.3622
0
LINE
8
BLACK
6
CONTINUOUS
10
1.01575
20
1.3622
11
1.01575
21
1.42126
0
LINE
8
BLACK
6
CONTINUOUS
10
1.01575
20
1.42126
11
1.01595
21
1.42469
0
LINE
8
BLACK
6
CONTINUOUS
10
1.01595
20
1.42469
11
1.01753
21
1.43136
0
LINE
8
BLACK
6
CONTINUOUS
10
1.01753
20
1.43136
11
1.02061
21
1.43749
0
LINE
8
BLACK
6
CONTINUOUS
10
1.02061
20
1.43749
11
1.02501
21
1.44274
0
LINE
8
BLACK
6
CONTINUOUS
10
1.02501
20
1.44274
11
1.03051
21
1.44683
0
LINE
8
BLACK
6
CONTINUOUS
10
1.03051
20
1.44683
11
1.03681
21
1.44955
0
LINE
8
BLACK
6
CONTINUOUS
10
1.03681
20
1.44955
11
1.04356
21
1.45074
0
LINE
8
BLACK
6
CONTINUOUS
10
1.04356
20
1.45074
11
1.0504
21
1.45034
0
LINE
8
BLACK
6
CONTINUOUS
10
1.42606
20
1.37
11
1.36606
21
1.37
0
LINE
8
BLACK
6
CONTINUOUS
10
1.36606
20
1.37
11
1.36606
21
1.43
0
LINE
8
BLACK
6
CONTINUOUS
10
1.36606
20
1.43
11
1.42606
21
1.43
0
LINE
8
BLACK
6
CONTINUOUS
10
1.42606
20
1.43
11
1.42606
21
1.37
0
LINE
8
BLACK
6
CONTINUOUS
10
1.52606
20
1.37
11
1.46606
21
1.37
0
LINE
8
BLACK
6
CONTINUOUS
10
1.46606
20
1.37
11
1.46606
21
1.43
0
LINE
8
BLACK
6
CONTINUOUS
10
1.46606
20
1.43
11
1.52606
21
1.43
0
LINE
8
BLACK
6
CONTINUOUS
10
1.52606
20
1.43
11
1.52606
21
1.37
0
LINE
8
BLACK
6
CONTINUOUS
10
1.42606
20
1.47
11
1.36606
21
1.47
0
LINE
8
BLACK
6
CONTINUOUS
10
1.36606
20
1.47
11
1.36606
21
1.53
0
LINE
8
BLACK
6
CONTINUOUS
10
1.36606
20
1.53
11
1.42606
21
1.53
0
LINE
8
BLACK
6
CONTINUOUS
10
1.42606
20
1.53
11
1.42606
21
1.47
0
LINE
8
BLACK
6
CONTINUOUS
10
1.52606
20
1.47
11
1.46606
21
1.47
0
LINE
8
BLACK
6
CONTINUOUS
10
1.46606
20
1.47
11
1.46606
21
1.53
0
LINE
8
BLACK
6
CONTINUOUS
10
1.46606
20
1.53
11
1.52606
21
1.53
0
LINE
8
BLACK
6
CONTINUOUS
10
1.52606
20
1.53
11
1.52606
21
1.47
0
LINE
8
BLACK
6
CONTINUOUS
10
0.42051
20
1.71632
11
0.433874
21
1.71315
0
LINE
8
BLACK
6
CONTINUOUS
10
0.433874
20
1.71315
11
0.446781
21
1.70845
0
LINE
8
BLACK
6
CONTINUOUS
10
0.446781
20
1.70845
11
0.459055
21
1.70229
0
LINE
8
BLACK
6
CONTINUOUS
10
0.459055
20
1.70229
11
0.470531
21
1.69474
0
LINE
8
BLACK
6
CONTINUOUS
10
0.470531
20
1.69474
11
0.481052
21
1.68591
0
LINE
8
BLACK
6
CONTINUOUS
10
0.481052
20
1.68591
11
0.490478
21
1.67592
0
LINE
8
BLACK
6
CONTINUOUS
10
0.490478
20
1.67592
11
0.49868
21
1.6649
0
LINE
8
BLACK
6
CONTINUOUS
10
0.49868
20
1.6649
11
0.505547
21
1.65301
0
LINE
8
BLACK
6
CONTINUOUS
10
0.505547
20
1.65301
11
0.510987
21
1.6404
0
LINE
8
BLACK
6
CONTINUOUS
10
0.510987
20
1.6404
11
0.514927
21
1.62724
0
LINE
8
BLACK
6
CONTINUOUS
10
0.514927
20
1.62724
11
0.517312
21
1.61371
0
LINE
8
BLACK
6
CONTINUOUS
10
0.517312
20
1.61371
11
0.51811
21
1.6
0
LINE
8
BLACK
6
CONTINUOUS
10
0.51811
20
1.6
11
0.517312
21
1.58629
0
LINE
8
BLACK
6
CONTINUOUS
10
0.517312
20
1.58629
11
0.514927
21
1.57276
0
LINE
8
BLACK
6
CONTINUOUS
10
0.514927
20
1.57276
11
0.510987
21
1.5596
0
LINE
8
BLACK
6
CONTINUOUS
10
0.510987
20
1.5596
11
0.505547
21
1.54699
0
LINE
8
BLACK
6
CONTINUOUS
10
0.505547
20
1.54699
11
0.49868
21
1.5351
0
LINE
8
BLACK
6
CONTINUOUS
10
0.49868
20
1.5351
11
0.490478
21
1.52408
0
LINE
8
BLACK
6
CONTINUOUS
10
0.490478
20
1.52408
11
0.481052
21
1.51409
0
LINE
8
BLACK
6
CONTINUOUS
10
0.481052
20
1.51409
11
0.470531
21
1.50526
0
LINE
8
BLACK
6
CONTINUOUS
10
0.470531
20
1.50526
11
0.459055
21
1.49771
0
LINE
8
BLACK
6
CONTINUOUS
10
0.459055
20
1.49771
11
0.446781
21
1.49155
0
LINE
8
BLACK
6
CONTINUOUS
10
0.446781
20
1.49155
11
0.433874
21
1.48685
0
LINE
8
BLACK
6
CONTINUOUS
10
0.433874
20
1.48685
11
0.42051
21
1.48368
0
LINE
8
BLACK
6
CONTINUOUS
10
0.42051
20
1.48368
11
0.406867
21
1.48209
0
LINE
8
BLACK
6
CONTINUOUS
10
0.406867
20
1.48209
11
0.393133
21
1.48209
0
LINE
8
BLACK
6
CONTINUOUS
10
0.393133
20
1.48209
11
0.37949
21
1.48368
0
LINE
8
BLACK
6
CONTINUOUS
10
0.37949
20
1.48368
11
0.366126
21
1.48685
0
LINE
8
BLACK
6
CONTINUOUS
10
0.366126
20
1.48685
11
0.353219
21
1.49155
0
LINE
8
BLACK
6
CONTINUOUS
10
0.353219
20
1.49155
11
0.340945
21
1.49771
0
LINE
8
BLACK
6
CONTINUOUS
10
0.340945
20
1.49771
11
0.329469
21
1.50526
0
LINE
8
BLACK
6
CONTINUOUS
10
0.329469
20
1.50526
11
0.318948
21
1.51409
0
LINE
8
BLACK
6
CONTINUOUS
10
0.318948
20
1.51409
11
0.309522
21
1.52408
0
LINE
8
BLACK
6
CONTINUOUS
10
0.309522
20
1.52408
11
0.30132
21
1.5351
0
LINE
8
BLACK
6
CONTINUOUS
10
0.30132
20
1.5351
11
0.294453
21
1.54699
0
LINE
8
BLACK
6
CONTINUOUS
10
0.294453
20
1.54699
11
0.289013
21
1.5596
0
LINE
8
BLACK
6
CONTINUOUS
10
0.289013
20
1.5596
11
0.285073
21
1.57276
0
LINE
8
BLACK
6
CONTINUOUS
10
0.285073
20
1.57276
11
0.282688
21
1.58629
0
LINE
8
BLACK
6
CONTINUOUS
10
0.282688
20
1.58629
11
0.28189
21
1.6
0
LINE
8
BLACK
6
CONTINUOUS
10
0.28189
20
1.6
11
0.282688
21
1.61371
0
LINE
8
BLACK
6
CONTINUOUS
10
0.282688
20
1.61371
11
0.285073
21
1.62724
0
LINE
8
BLACK
6
CONTINUOUS
10
0.285073
20
1.62724
11
0.289013
21
1.6404
0
LINE
8
BLACK
6
CONTINUOUS
10
0.289013
20
1.6404
11
0.294453
21
1.65301
0
LINE
8
BLACK
6
CONTINUOUS
10
0.294453
20
1.65301
11
0.30132
21
1.6649
0
LINE
8
BLACK
6
CONTINUOUS
10
0.30132
20
1.6649
11
0.309522
21
1.67592
0
LINE
8
BLACK
6
CONTINUOUS
10
0.309522
20
1.67592
11
0.318948
21
1.68591
0
LINE
8
BLACK
6
CONTINUOUS
10
0.318948
20
1.68591
11
0.329469
21
1.69474
0
LINE
8
BLACK
6
CONTINUOUS
10
0.329469
20
1.69474
11
0.340945
21
1.70229
0
LINE
8
BLACK
6
CONTINUOUS
10
0.340945
20
1.70229
11
0.353219
21
1.70845
0
LINE
8
BLACK
6
CONTINUOUS
10
0.353219
20
1.70845
11
0.366126
21
1.71315
0
LINE
8
BLACK
6
CONTINUOUS
10
0.366126
20
1.71315
11
0.37949
21
1.71632
0
LINE
8
BLACK
6
CONTINUOUS
10
0.37949
20
1.71632
11
0.393133
21
1.71791
0
LINE
8
BLACK
6
CONTINUOUS
10
0.393133
20
1.71791
11
0.406867
21
1.71791
0
LINE
8
BLACK
6
CONTINUOUS
10
0.406867
20
1.71791
11
0.42051
21
1.71632
0
LINE
8
BLACK
6
CONTINUOUS
10
2.02051
20
1.71632
11
2.03387
21
1.71315
0
LINE
8
BLACK
6
CONTINUOUS
10
2.03387
20
1.71315
11
2.04678
21
1.70845
0
LINE
8
BLACK
6
CONTINUOUS
10
2.04678
20
1.70845
11
2.05906
21
1.70229
0
LINE
8
BLACK
6
CONTINUOUS
10
2.05906
20
1.70229
11
2.07053
21
1.69474
0
LINE
8
BLACK
6
CONTINUOUS
10
2.07053
20
1.69474
11
2.08105
21
1.68591
0
LINE
8
BLACK
6
CONTINUOUS
10
2.08105
20
1.68591
11
2.09048
21
1.67592
0
LINE
8
BLACK
6
CONTINUOUS
10
2.09048
20
1.67592
11
2.09868
21
1.6649
0
LINE
8
BLACK
6
CONTINUOUS
10
2.09868
20
1.6649
11
2.10555
21
1.65301
0
LINE
8
BLACK
6
CONTINUOUS
10
2.10555
20
1.65301
11
2.11099
21
1.6404
0
LINE
8
BLACK
6
CONTINUOUS
10
2.11099
20
1.6404
11
2.11493
21
1.62724
0
LINE
8
BLACK
6
CONTINUOUS
10
2.11493
20
1.62724
11
2.11731
21
1.61371
0
LINE
8
BLACK
6
CONTINUOUS
10
2.11731
20
1.61371
11
2.11811
21
1.6
0
LINE
8
BLACK
6
CONTINUOUS
10
2.11811
20
1.6
11
2.11731
21
1.58629
0
LINE
8
BLACK
6
CONTINUOUS
10
2.11731
20
1.58629
11
2.11493
21
1.57276
0
LINE
8
BLACK
6
CONTINUOUS
10
2.11493
20
1.57276
11
2.11099
21
1.5596
0
LINE
8
BLACK
6
CONTINUOUS
10
2.11099
20
1.5596
11
2.10555
21
1.54699
0
LINE
8
BLACK
6
CONTINUOUS
10
2.10555
20
1.54699
11
2.09868
21
1.5351
0
LINE
8
BLACK
6
CONTINUOUS
10
2.09868
20
1.5351
11
2.09048
21
1.52408
0
LINE
8
BLACK
6
CONTINUOUS
10
2.09048
20
1.52408
11
2.08105
21
1.51409
0
LINE
8
BLACK
6
CONTINUOUS
10
2.08105
20
1.51409
11
2.07053
21
1.50526
0
LINE
8
BLACK
6
CONTINUOUS
10
2.07053
20
1.50526
11
2.05906
21
1.49771
0
LINE
8
BLACK
6
CONTINUOUS
10
2.05906
20
1.49771
11
2.04678
21
1.49155
0
LINE
8
BLACK
6
CONTINUOUS
10
2.04678
20
1.49155
11
2.03387
21
1.48685
0
LINE
8
BLACK
6
CONTINUOUS
10
2.03387
20
1.48685
11
2.02051
21
1.48368
0
LINE
8
BLACK
6
CONTINUOUS
10
2.02051
20
1.48368
11
2.00687
21
1.48209
0
LINE
8
BLACK
6
CONTINUOUS
10
2.00687
20
1.48209
11
1.99313
21
1.48209
0
LINE
8
BLACK
6
CONTINUOUS
10
1.99313
20
1.48209
11
1.97949
21
1.48368
0
LINE
8
BLACK
6
CONTINUOUS
10
1.97949
20
1.48368
11
1.96613
21
1.48685
0
LINE
8
BLACK
6
CONTINUOUS
10
1.96613
20
1.48685
11
1.95322
21
1.49155
0
LINE
8
BLACK
6
CONTINUOUS
10
1.95322
20
1.49155
11
1.94094
21
1.49771
0
LINE
8
BLACK
6
CONTINUOUS
10
1.94094
20
1.49771
11
1.92947
21
1.50526
0
LINE
8
BLACK
6
CONTINUOUS
10
1.92947
20
1.50526
11
1.91895
21
1.51409
0
LINE
8
BLACK
6
CONTINUOUS
10
1.91895
20
1.51409
11
1.90952
21
1.52408
0
LINE
8
BLACK
6
CONTINUOUS
10
1.90952
20
1.52408
11
1.90132
21
1.5351
0
LINE
8
BLACK
6
CONTINUOUS
10
1.90132
20
1.5351
11
1.89445
21
1.54699
0
LINE
8
BLACK
6
CONTINUOUS
10
1.89445
20
1.54699
11
1.88901
21
1.5596
0
LINE
8
BLACK
6
CONTINUOUS
10
1.88901
20
1.5596
11
1.88507
21
1.57276
0
LINE
8
BLACK
6
CONTINUOUS
10
1.88507
20
1.57276
11
1.88269
21
1.58629
0
LINE
8
BLACK
6
CONTINUOUS
10
1.88269
20
1.58629
11
1.88189
21
1.6
0
LINE
8
BLACK
6
CONTINUOUS
10
1.88189
20
1.6
11
1.88269
21
1.61371
0
LINE
8
BLACK
6
CONTINUOUS
10
1.88269
20
1.61371
11
1.88507
21
1.62724
0
LINE
8
BLACK
6
CONTINUOUS
10
1.88507
20
1.62724
11
1.88901
21
1.6404
0
LINE
8
BLACK
6
CONTINUOUS
10
1.88901
20
1.6404
11
1.89445
21
1.65301
0
LINE
8
BLACK
6
CONTINUOUS
10
1.89445
20
1.65301
11
1.90132
21
1.6649
0
LINE
8
BLACK
6
CONTINUOUS
10
1.90132
20
1.6649
11
1.90952
21
1.67592
0
LINE
8
BLACK
6
CONTINUOUS
10
1.90952
20
1.67592
11
1.91895
21
1.68591
0
LINE
8
BLACK
6
CONTINUOUS
10
1.91895
20
1.68591
11
1.92947
21
1.69474
0
LINE
8
BLACK
6
CONTINUOUS
10
1.92947
20
1.69474
11
1.94094
21
1.70229
0
LINE
8
BLACK
6
CONTINUOUS
10
1.94094
20
1.70229
11
1.95322
21
1.70845
0
LINE
8
BLACK
6
CONTINUOUS
10
1.95322
20
1.70845
11
1.96613
21
1.71315
0
LINE
8
BLACK
6
CONTINUOUS
10
1.96613
20
1.71315
11
1.97949
21
1.71632
0
LINE
8
BLACK
6
CONTINUOUS
10
1.97949
20
1.71632
11
1.99313
21
1.71791
0
LINE
8
BLACK
6
CONTINUOUS
10
1.99313
20
1.71791
11
2.00687
21
1.71791
0
LINE
8
BLACK
6
CONTINUOUS
10
2.00687
20
1.71791
11
2.02051
21
1.71632
0
LINE
8
BLACK
6
CONTINUOUS
10
1.42606
20
1.57
11
1.36606
21
1.57
0
LINE
8
BLACK
6
CONTINUOUS
10
1.36606
20
1.57
11
1.36606
21
1.63
0
LINE
8
BLACK
6
CONTINUOUS
10
1.36606
20
1.63
11
1.42606
21
1.63
0
LINE
8
BLACK
6
CONTINUOUS
10
1.42606
20
1.63
11
1.42606
21
1.57
0
LINE
8
BLACK
6
CONTINUOUS
10
1.52606
20
1.57
11
1.46606
21
1.57
0
LINE
8
BLACK
6
CONTINUOUS
10
1.46606
20
1.57
11
1.46606
21
1.63
0
LINE
8
BLACK
6
CONTINUOUS
10
1.46606
20
1.63
11
1.52606
21
1.63
0
LINE
8
BLACK
6
CONTINUOUS
10
1.52606
20
1.63
11
1.52606
21
1.57
0
LINE
8
BLACK
6
CONTINUOUS
10
1.42606
20
1.67
11
1.36606
21
1.67
0
LINE
8
BLACK
6
CONTINUOUS
10
1.36606
20
1.67
11
1.36606
21
1.73
0
LINE
8
BLACK
6
CONTINUOUS
10
1.36606
20
1.73
11
1.42606
21
1.73
0
LINE
8
BLACK
6
CONTINUOUS
10
1.42606
20
1.73
11
1.42606
21
1.67
0
LINE
8
BLACK
6
CONTINUOUS
10
1.52606
20
1.67
11
1.46606
21
1.67
0
LINE
8
BLACK
6
CONTINUOUS
10
1.46606
20
1.67
11
1.46606
21
1.73
0
LINE
8
BLACK
6
CONTINUOUS
10
1.46606
20
1.73
11
1.52606
21
1.73
0
LINE
8
BLACK
6
CONTINUOUS
10
1.52606
20
1.73
11
1.52606
21
1.67
  0
ENDSEC
  0
EOF
