  0
SECTION
  2
HEADER
  9
$ANGBASE
  50
0.0
  9
$ANGDIR
  70
1
  9
$MEASUREMENT
  70
0
  0
ENDSEC
  0
SECTION
  2
TABLES
  0
TABLE
  2
LTYPE
  70
4
  0
LTYPE
  5
40F
  2
CONTINUOUS
  70
0
  3
Solid line
  72
65
  73
0
  40
0.0
  0
LTYPE
  5
410
  2
DASHDOT
 70
0
  3
Dash Dot ____ _ ____ _
 72
65
 73
4
 40
2.0
 49
1.25
 49
-0.25
 49
0.25
 49
-0.25
  0
LTYPE
  5
411
  2
DASHED
 70
0
  3
Dashed __ __ __ __ __
 72
65
 73
2
 40
0.75
 49
0.5
 49
-0.25
  0
LTYPE
  5
43B
  2
DOTTED
 70
0
  3
Dotted .  .  .  .
 72
65
 73
2
 40
0.2
 49
0.0
 49
-0.2
  0
ENDTAB
  0
TABLE
  2
STYLE
  70
4
  0
STYLE
  2
KICAD
  70
0
  40
0
  41
1
  42
1
  50
0
  71
0
  3
isocp.shx
  0
STYLE
  2
KICADB
  70
0
  40
0
  41
1
  42
1
  50
0
  71
0
  3
isocp.shx
  0
STYLE
  2
KICADI
  70
0
  40
0
  41
1
  42
1
  50
15
  71
0
  3
isocp.shx
  0
STYLE
  2
KICADBI
  70
0
  40
0
  41
1
  42
1
  50
15
  71
0
  3
isocp.shx
  0
ENDTAB
  0
TABLE
  2
LAYER
  70
1
  0
LAYER
  2
BLACK
  70
0
  62
7
  6
CONTINUOUS
  0
ENDTAB
  0
ENDSEC
  0
SECTION
  2
ENTITIES
0
LINE
8
BLACK
6
CONTINUOUS
10
0.305401
20
0.52481
11
0.319287
21
0.522451
0
LINE
8
BLACK
6
CONTINUOUS
10
0.319287
20
0.522451
11
0.332822
21
0.518552
0
LINE
8
BLACK
6
CONTINUOUS
10
0.332822
20
0.518552
11
0.345834
21
0.513162
0
LINE
8
BLACK
6
CONTINUOUS
10
0.345834
20
0.513162
11
0.358162
21
0.506349
0
LINE
8
BLACK
6
CONTINUOUS
10
0.358162
20
0.506349
11
0.369649
21
0.498198
0
LINE
8
BLACK
6
CONTINUOUS
10
0.369649
20
0.498198
11
0.380151
21
0.488813
0
LINE
8
BLACK
6
CONTINUOUS
10
0.380151
20
0.488813
11
0.389537
21
0.47831
0
LINE
8
BLACK
6
CONTINUOUS
10
0.389537
20
0.47831
11
0.397687
21
0.466823
0
LINE
8
BLACK
6
CONTINUOUS
10
0.397687
20
0.466823
11
0.4045
21
0.454496
0
LINE
8
BLACK
6
CONTINUOUS
10
0.4045
20
0.454496
11
0.40989
21
0.441483
0
LINE
8
BLACK
6
CONTINUOUS
10
0.40989
20
0.441483
11
0.41379
21
0.427949
0
LINE
8
BLACK
6
CONTINUOUS
10
0.41379
20
0.427949
11
0.416149
21
0.414063
0
LINE
8
BLACK
6
CONTINUOUS
10
0.416149
20
0.414063
11
0.416939
21
0.4
0
LINE
8
BLACK
6
CONTINUOUS
10
0.416939
20
0.4
11
0.416149
21
0.385937
0
LINE
8
BLACK
6
CONTINUOUS
10
0.416149
20
0.385937
11
0.41379
21
0.372051
0
LINE
8
BLACK
6
CONTINUOUS
10
0.41379
20
0.372051
11
0.40989
21
0.358517
0
LINE
8
BLACK
6
CONTINUOUS
10
0.40989
20
0.358517
11
0.4045
21
0.345504
0
LINE
8
BLACK
6
CONTINUOUS
10
0.4045
20
0.345504
11
0.397687
21
0.333177
0
LINE
8
BLACK
6
CONTINUOUS
10
0.397687
20
0.333177
11
0.389537
21
0.32169
0
LINE
8
BLACK
6
CONTINUOUS
10
0.389537
20
0.32169
11
0.380151
21
0.311187
0
LINE
8
BLACK
6
CONTINUOUS
10
0.380151
20
0.311187
11
0.369649
21
0.301802
0
LINE
8
BLACK
6
CONTINUOUS
10
0.369649
20
0.301802
11
0.358162
21
0.293651
0
LINE
8
BLACK
6
CONTINUOUS
10
0.358162
20
0.293651
11
0.345834
21
0.286838
0
LINE
8
BLACK
6
CONTINUOUS
10
0.345834
20
0.286838
11
0.332822
21
0.281448
0
LINE
8
BLACK
6
CONTINUOUS
10
0.332822
20
0.281448
11
0.319287
21
0.277549
0
LINE
8
BLACK
6
CONTINUOUS
10
0.319287
20
0.277549
11
0.305401
21
0.27519
0
LINE
8
BLACK
6
CONTINUOUS
10
0.305401
20
0.27519
11
0.291339
21
0.2744
0
LINE
8
BLACK
6
CONTINUOUS
10
0.291339
20
0.2744
11
0.277276
21
0.27519
0
LINE
8
BLACK
6
CONTINUOUS
10
0.277276
20
0.27519
11
0.26339
21
0.277549
0
LINE
8
BLACK
6
CONTINUOUS
10
0.26339
20
0.277549
11
0.249856
21
0.281448
0
LINE
8
BLACK
6
CONTINUOUS
10
0.249856
20
0.281448
11
0.236843
21
0.286838
0
LINE
8
BLACK
6
CONTINUOUS
10
0.236843
20
0.286838
11
0.224515
21
0.293651
0
LINE
8
BLACK
6
CONTINUOUS
10
0.224515
20
0.293651
11
0.213028
21
0.301802
0
LINE
8
BLACK
6
CONTINUOUS
10
0.213028
20
0.301802
11
0.202526
21
0.311187
0
LINE
8
BLACK
6
CONTINUOUS
10
0.202526
20
0.311187
11
0.193141
21
0.32169
0
LINE
8
BLACK
6
CONTINUOUS
10
0.193141
20
0.32169
11
0.18499
21
0.333177
0
LINE
8
BLACK
6
CONTINUOUS
10
0.18499
20
0.333177
11
0.178177
21
0.345504
0
LINE
8
BLACK
6
CONTINUOUS
10
0.178177
20
0.345504
11
0.172787
21
0.358517
0
LINE
8
BLACK
6
CONTINUOUS
10
0.172787
20
0.358517
11
0.168888
21
0.372051
0
LINE
8
BLACK
6
CONTINUOUS
10
0.168888
20
0.372051
11
0.166528
21
0.385937
0
LINE
8
BLACK
6
CONTINUOUS
10
0.166528
20
0.385937
11
0.165739
21
0.4
0
LINE
8
BLACK
6
CONTINUOUS
10
0.165739
20
0.4
11
0.166528
21
0.414063
0
LINE
8
BLACK
6
CONTINUOUS
10
0.166528
20
0.414063
11
0.168888
21
0.427949
0
LINE
8
BLACK
6
CONTINUOUS
10
0.168888
20
0.427949
11
0.172787
21
0.441483
0
LINE
8
BLACK
6
CONTINUOUS
10
0.172787
20
0.441483
11
0.178177
21
0.454496
0
LINE
8
BLACK
6
CONTINUOUS
10
0.178177
20
0.454496
11
0.18499
21
0.466823
0
LINE
8
BLACK
6
CONTINUOUS
10
0.18499
20
0.466823
11
0.193141
21
0.47831
0
LINE
8
BLACK
6
CONTINUOUS
10
0.193141
20
0.47831
11
0.202526
21
0.488813
0
LINE
8
BLACK
6
CONTINUOUS
10
0.202526
20
0.488813
11
0.213028
21
0.498198
0
LINE
8
BLACK
6
CONTINUOUS
10
0.213028
20
0.498198
11
0.224515
21
0.506349
0
LINE
8
BLACK
6
CONTINUOUS
10
0.224515
20
0.506349
11
0.236843
21
0.513162
0
LINE
8
BLACK
6
CONTINUOUS
10
0.236843
20
0.513162
11
0.249856
21
0.518552
0
LINE
8
BLACK
6
CONTINUOUS
10
0.249856
20
0.518552
11
0.26339
21
0.522451
0
LINE
8
BLACK
6
CONTINUOUS
10
0.26339
20
0.522451
11
0.277276
21
0.52481
0
LINE
8
BLACK
6
CONTINUOUS
10
0.277276
20
0.52481
11
0.291339
21
0.5256
0
LINE
8
BLACK
6
CONTINUOUS
10
0.291339
20
0.5256
11
0.305401
21
0.52481
0
LINE
8
BLACK
6
CONTINUOUS
10
0.1813
20
0.387138
11
0.183537
21
0.374451
0
LINE
8
BLACK
6
CONTINUOUS
10
0.183537
20
0.374451
11
0.187232
21
0.362108
0
LINE
8
BLACK
6
CONTINUOUS
10
0.187232
20
0.362108
11
0.192335
21
0.350279
0
LINE
8
BLACK
6
CONTINUOUS
10
0.192335
20
0.350279
11
0.198777
21
0.339121
0
LINE
8
BLACK
6
CONTINUOUS
10
0.198777
20
0.339121
11
0.20647
21
0.328787
0
LINE
8
BLACK
6
CONTINUOUS
10
0.20647
20
0.328787
11
0.215312
21
0.319416
0
LINE
8
BLACK
6
CONTINUOUS
10
0.215312
20
0.319416
11
0.225181
21
0.311135
0
LINE
8
BLACK
6
CONTINUOUS
10
0.225181
20
0.311135
11
0.235945
21
0.304055
0
LINE
8
BLACK
6
CONTINUOUS
10
0.235945
20
0.304055
11
0.247458
21
0.298273
0
LINE
8
BLACK
6
CONTINUOUS
10
0.247458
20
0.298273
11
0.259564
21
0.293867
0
LINE
8
BLACK
6
CONTINUOUS
10
0.259564
20
0.293867
11
0.272101
21
0.290896
0
LINE
8
BLACK
6
CONTINUOUS
10
0.272101
20
0.290896
11
0.284897
21
0.2894
0
LINE
8
BLACK
6
CONTINUOUS
10
0.284897
20
0.2894
11
0.29778
21
0.2894
0
LINE
8
BLACK
6
CONTINUOUS
10
0.29778
20
0.2894
11
0.310577
21
0.290896
0
LINE
8
BLACK
6
CONTINUOUS
10
0.310577
20
0.290896
11
0.323113
21
0.293867
0
LINE
8
BLACK
6
CONTINUOUS
10
0.323113
20
0.293867
11
0.335219
21
0.298273
0
LINE
8
BLACK
6
CONTINUOUS
10
0.335219
20
0.298273
11
0.346732
21
0.304055
0
LINE
8
BLACK
6
CONTINUOUS
10
0.346732
20
0.304055
11
0.357496
21
0.311135
0
LINE
8
BLACK
6
CONTINUOUS
10
0.357496
20
0.311135
11
0.367366
21
0.319416
0
LINE
8
BLACK
6
CONTINUOUS
10
0.367366
20
0.319416
11
0.376207
21
0.328787
0
LINE
8
BLACK
6
CONTINUOUS
10
0.376207
20
0.328787
11
0.3839
21
0.339121
0
LINE
8
BLACK
6
CONTINUOUS
10
0.3839
20
0.339121
11
0.390342
21
0.350279
0
LINE
8
BLACK
6
CONTINUOUS
10
0.390342
20
0.350279
11
0.395445
21
0.362108
0
LINE
8
BLACK
6
CONTINUOUS
10
0.395445
20
0.362108
11
0.39914
21
0.374451
0
LINE
8
BLACK
6
CONTINUOUS
10
0.39914
20
0.374451
11
0.401377
21
0.387138
0
LINE
8
BLACK
6
CONTINUOUS
10
0.401377
20
0.387138
11
0.402126
21
0.4
0
LINE
8
BLACK
6
CONTINUOUS
10
0.402126
20
0.4
11
0.401377
21
0.412862
0
LINE
8
BLACK
6
CONTINUOUS
10
0.401377
20
0.412862
11
0.39914
21
0.425549
0
LINE
8
BLACK
6
CONTINUOUS
10
0.39914
20
0.425549
11
0.395445
21
0.437892
0
LINE
8
BLACK
6
CONTINUOUS
10
0.395445
20
0.437892
11
0.390342
21
0.449721
0
LINE
8
BLACK
6
CONTINUOUS
10
0.390342
20
0.449721
11
0.3839
21
0.460879
0
LINE
8
BLACK
6
CONTINUOUS
10
0.3839
20
0.460879
11
0.376207
21
0.471213
0
LINE
8
BLACK
6
CONTINUOUS
10
0.376207
20
0.471213
11
0.367366
21
0.480584
0
LINE
8
BLACK
6
CONTINUOUS
10
0.367366
20
0.480584
11
0.357496
21
0.488865
0
LINE
8
BLACK
6
CONTINUOUS
10
0.357496
20
0.488865
11
0.346732
21
0.495945
0
LINE
8
BLACK
6
CONTINUOUS
10
0.346732
20
0.495945
11
0.335219
21
0.501727
0
LINE
8
BLACK
6
CONTINUOUS
10
0.335219
20
0.501727
11
0.323113
21
0.506133
0
LINE
8
BLACK
6
CONTINUOUS
10
0.323113
20
0.506133
11
0.310577
21
0.509104
0
LINE
8
BLACK
6
CONTINUOUS
10
0.310577
20
0.509104
11
0.29778
21
0.5106
0
LINE
8
BLACK
6
CONTINUOUS
10
0.29778
20
0.5106
11
0.284897
21
0.5106
0
LINE
8
BLACK
6
CONTINUOUS
10
0.284897
20
0.5106
11
0.272101
21
0.509104
0
LINE
8
BLACK
6
CONTINUOUS
10
0.272101
20
0.509104
11
0.259564
21
0.506133
0
LINE
8
BLACK
6
CONTINUOUS
10
0.259564
20
0.506133
11
0.247458
21
0.501727
0
LINE
8
BLACK
6
CONTINUOUS
10
0.247458
20
0.501727
11
0.235945
21
0.495945
0
LINE
8
BLACK
6
CONTINUOUS
10
0.235945
20
0.495945
11
0.225181
21
0.488865
0
LINE
8
BLACK
6
CONTINUOUS
10
0.225181
20
0.488865
11
0.215312
21
0.480584
0
LINE
8
BLACK
6
CONTINUOUS
10
0.215312
20
0.480584
11
0.20647
21
0.471213
0
LINE
8
BLACK
6
CONTINUOUS
10
0.20647
20
0.471213
11
0.198777
21
0.460879
0
LINE
8
BLACK
6
CONTINUOUS
10
0.198777
20
0.460879
11
0.192335
21
0.449721
0
LINE
8
BLACK
6
CONTINUOUS
10
0.192335
20
0.449721
11
0.187232
21
0.437892
0
LINE
8
BLACK
6
CONTINUOUS
10
0.187232
20
0.437892
11
0.183537
21
0.425549
0
LINE
8
BLACK
6
CONTINUOUS
10
0.183537
20
0.425549
11
0.1813
21
0.412862
0
LINE
8
BLACK
6
CONTINUOUS
10
0.1813
20
0.412862
11
0.180551
21
0.4
0
LINE
8
BLACK
6
CONTINUOUS
10
0.180551
20
0.4
11
0.1813
21
0.387138
0
LINE
8
BLACK
6
CONTINUOUS
10
1.9054
20
0.52481
11
1.91929
21
0.522451
0
LINE
8
BLACK
6
CONTINUOUS
10
1.91929
20
0.522451
11
1.93282
21
0.518552
0
LINE
8
BLACK
6
CONTINUOUS
10
1.93282
20
0.518552
11
1.94583
21
0.513162
0
LINE
8
BLACK
6
CONTINUOUS
10
1.94583
20
0.513162
11
1.95816
21
0.506349
0
LINE
8
BLACK
6
CONTINUOUS
10
1.95816
20
0.506349
11
1.96965
21
0.498198
0
LINE
8
BLACK
6
CONTINUOUS
10
1.96965
20
0.498198
11
1.98015
21
0.488813
0
LINE
8
BLACK
6
CONTINUOUS
10
1.98015
20
0.488813
11
1.98954
21
0.47831
0
LINE
8
BLACK
6
CONTINUOUS
10
1.98954
20
0.47831
11
1.99769
21
0.466823
0
LINE
8
BLACK
6
CONTINUOUS
10
1.99769
20
0.466823
11
2.0045
21
0.454496
0
LINE
8
BLACK
6
CONTINUOUS
10
2.0045
20
0.454496
11
2.00989
21
0.441483
0
LINE
8
BLACK
6
CONTINUOUS
10
2.00989
20
0.441483
11
2.01379
21
0.427949
0
LINE
8
BLACK
6
CONTINUOUS
10
2.01379
20
0.427949
11
2.01615
21
0.414063
0
LINE
8
BLACK
6
CONTINUOUS
10
2.01615
20
0.414063
11
2.01694
21
0.4
0
LINE
8
BLACK
6
CONTINUOUS
10
2.01694
20
0.4
11
2.01615
21
0.385937
0
LINE
8
BLACK
6
CONTINUOUS
10
2.01615
20
0.385937
11
2.01379
21
0.372051
0
LINE
8
BLACK
6
CONTINUOUS
10
2.01379
20
0.372051
11
2.00989
21
0.358517
0
LINE
8
BLACK
6
CONTINUOUS
10
2.00989
20
0.358517
11
2.0045
21
0.345504
0
LINE
8
BLACK
6
CONTINUOUS
10
2.0045
20
0.345504
11
1.99769
21
0.333177
0
LINE
8
BLACK
6
CONTINUOUS
10
1.99769
20
0.333177
11
1.98954
21
0.32169
0
LINE
8
BLACK
6
CONTINUOUS
10
1.98954
20
0.32169
11
1.98015
21
0.311187
0
LINE
8
BLACK
6
CONTINUOUS
10
1.98015
20
0.311187
11
1.96965
21
0.301802
0
LINE
8
BLACK
6
CONTINUOUS
10
1.96965
20
0.301802
11
1.95816
21
0.293651
0
LINE
8
BLACK
6
CONTINUOUS
10
1.95816
20
0.293651
11
1.94583
21
0.286838
0
LINE
8
BLACK
6
CONTINUOUS
10
1.94583
20
0.286838
11
1.93282
21
0.281448
0
LINE
8
BLACK
6
CONTINUOUS
10
1.93282
20
0.281448
11
1.91929
21
0.277549
0
LINE
8
BLACK
6
CONTINUOUS
10
1.91929
20
0.277549
11
1.9054
21
0.27519
0
LINE
8
BLACK
6
CONTINUOUS
10
1.9054
20
0.27519
11
1.89134
21
0.2744
0
LINE
8
BLACK
6
CONTINUOUS
10
1.89134
20
0.2744
11
1.87728
21
0.27519
0
LINE
8
BLACK
6
CONTINUOUS
10
1.87728
20
0.27519
11
1.86339
21
0.277549
0
LINE
8
BLACK
6
CONTINUOUS
10
1.86339
20
0.277549
11
1.84986
21
0.281448
0
LINE
8
BLACK
6
CONTINUOUS
10
1.84986
20
0.281448
11
1.83684
21
0.286838
0
LINE
8
BLACK
6
CONTINUOUS
10
1.83684
20
0.286838
11
1.82452
21
0.293651
0
LINE
8
BLACK
6
CONTINUOUS
10
1.82452
20
0.293651
11
1.81303
21
0.301802
0
LINE
8
BLACK
6
CONTINUOUS
10
1.81303
20
0.301802
11
1.80253
21
0.311187
0
LINE
8
BLACK
6
CONTINUOUS
10
1.80253
20
0.311187
11
1.79314
21
0.32169
0
LINE
8
BLACK
6
CONTINUOUS
10
1.79314
20
0.32169
11
1.78499
21
0.333177
0
LINE
8
BLACK
6
CONTINUOUS
10
1.78499
20
0.333177
11
1.77818
21
0.345504
0
LINE
8
BLACK
6
CONTINUOUS
10
1.77818
20
0.345504
11
1.77279
21
0.358517
0
LINE
8
BLACK
6
CONTINUOUS
10
1.77279
20
0.358517
11
1.76889
21
0.372051
0
LINE
8
BLACK
6
CONTINUOUS
10
1.76889
20
0.372051
11
1.76653
21
0.385937
0
LINE
8
BLACK
6
CONTINUOUS
10
1.76653
20
0.385937
11
1.76574
21
0.4
0
LINE
8
BLACK
6
CONTINUOUS
10
1.76574
20
0.4
11
1.76653
21
0.414063
0
LINE
8
BLACK
6
CONTINUOUS
10
1.76653
20
0.414063
11
1.76889
21
0.427949
0
LINE
8
BLACK
6
CONTINUOUS
10
1.76889
20
0.427949
11
1.77279
21
0.441483
0
LINE
8
BLACK
6
CONTINUOUS
10
1.77279
20
0.441483
11
1.77818
21
0.454496
0
LINE
8
BLACK
6
CONTINUOUS
10
1.77818
20
0.454496
11
1.78499
21
0.466823
0
LINE
8
BLACK
6
CONTINUOUS
10
1.78499
20
0.466823
11
1.79314
21
0.47831
0
LINE
8
BLACK
6
CONTINUOUS
10
1.79314
20
0.47831
11
1.80253
21
0.488813
0
LINE
8
BLACK
6
CONTINUOUS
10
1.80253
20
0.488813
11
1.81303
21
0.498198
0
LINE
8
BLACK
6
CONTINUOUS
10
1.81303
20
0.498198
11
1.82452
21
0.506349
0
LINE
8
BLACK
6
CONTINUOUS
10
1.82452
20
0.506349
11
1.83684
21
0.513162
0
LINE
8
BLACK
6
CONTINUOUS
10
1.83684
20
0.513162
11
1.84986
21
0.518552
0
LINE
8
BLACK
6
CONTINUOUS
10
1.84986
20
0.518552
11
1.86339
21
0.522451
0
LINE
8
BLACK
6
CONTINUOUS
10
1.86339
20
0.522451
11
1.87728
21
0.52481
0
LINE
8
BLACK
6
CONTINUOUS
10
1.87728
20
0.52481
11
1.89134
21
0.5256
0
LINE
8
BLACK
6
CONTINUOUS
10
1.89134
20
0.5256
11
1.9054
21
0.52481
0
LINE
8
BLACK
6
CONTINUOUS
10
1.7813
20
0.387138
11
1.78354
21
0.374451
0
LINE
8
BLACK
6
CONTINUOUS
10
1.78354
20
0.374451
11
1.78723
21
0.362108
0
LINE
8
BLACK
6
CONTINUOUS
10
1.78723
20
0.362108
11
1.79234
21
0.350279
0
LINE
8
BLACK
6
CONTINUOUS
10
1.79234
20
0.350279
11
1.79878
21
0.339121
0
LINE
8
BLACK
6
CONTINUOUS
10
1.79878
20
0.339121
11
1.80647
21
0.328787
0
LINE
8
BLACK
6
CONTINUOUS
10
1.80647
20
0.328787
11
1.81531
21
0.319416
0
LINE
8
BLACK
6
CONTINUOUS
10
1.81531
20
0.319416
11
1.82518
21
0.311135
0
LINE
8
BLACK
6
CONTINUOUS
10
1.82518
20
0.311135
11
1.83594
21
0.304055
0
LINE
8
BLACK
6
CONTINUOUS
10
1.83594
20
0.304055
11
1.84746
21
0.298273
0
LINE
8
BLACK
6
CONTINUOUS
10
1.84746
20
0.298273
11
1.85956
21
0.293867
0
LINE
8
BLACK
6
CONTINUOUS
10
1.85956
20
0.293867
11
1.8721
21
0.290896
0
LINE
8
BLACK
6
CONTINUOUS
10
1.8721
20
0.290896
11
1.8849
21
0.2894
0
LINE
8
BLACK
6
CONTINUOUS
10
1.8849
20
0.2894
11
1.89778
21
0.2894
0
LINE
8
BLACK
6
CONTINUOUS
10
1.89778
20
0.2894
11
1.91058
21
0.290896
0
LINE
8
BLACK
6
CONTINUOUS
10
1.91058
20
0.290896
11
1.92311
21
0.293867
0
LINE
8
BLACK
6
CONTINUOUS
10
1.92311
20
0.293867
11
1.93522
21
0.298273
0
LINE
8
BLACK
6
CONTINUOUS
10
1.93522
20
0.298273
11
1.94673
21
0.304055
0
LINE
8
BLACK
6
CONTINUOUS
10
1.94673
20
0.304055
11
1.9575
21
0.311135
0
LINE
8
BLACK
6
CONTINUOUS
10
1.9575
20
0.311135
11
1.96737
21
0.319416
0
LINE
8
BLACK
6
CONTINUOUS
10
1.96737
20
0.319416
11
1.97621
21
0.328787
0
LINE
8
BLACK
6
CONTINUOUS
10
1.97621
20
0.328787
11
1.9839
21
0.339121
0
LINE
8
BLACK
6
CONTINUOUS
10
1.9839
20
0.339121
11
1.99034
21
0.350279
0
LINE
8
BLACK
6
CONTINUOUS
10
1.99034
20
0.350279
11
1.99544
21
0.362108
0
LINE
8
BLACK
6
CONTINUOUS
10
1.99544
20
0.362108
11
1.99914
21
0.374451
0
LINE
8
BLACK
6
CONTINUOUS
10
1.99914
20
0.374451
11
2.00138
21
0.387138
0
LINE
8
BLACK
6
CONTINUOUS
10
2.00138
20
0.387138
11
2.00213
21
0.4
0
LINE
8
BLACK
6
CONTINUOUS
10
2.00213
20
0.4
11
2.00138
21
0.412862
0
LINE
8
BLACK
6
CONTINUOUS
10
2.00138
20
0.412862
11
1.99914
21
0.425549
0
LINE
8
BLACK
6
CONTINUOUS
10
1.99914
20
0.425549
11
1.99544
21
0.437892
0
LINE
8
BLACK
6
CONTINUOUS
10
1.99544
20
0.437892
11
1.99034
21
0.449721
0
LINE
8
BLACK
6
CONTINUOUS
10
1.99034
20
0.449721
11
1.9839
21
0.460879
0
LINE
8
BLACK
6
CONTINUOUS
10
1.9839
20
0.460879
11
1.97621
21
0.471213
0
LINE
8
BLACK
6
CONTINUOUS
10
1.97621
20
0.471213
11
1.96737
21
0.480584
0
LINE
8
BLACK
6
CONTINUOUS
10
1.96737
20
0.480584
11
1.9575
21
0.488865
0
LINE
8
BLACK
6
CONTINUOUS
10
1.9575
20
0.488865
11
1.94673
21
0.495945
0
LINE
8
BLACK
6
CONTINUOUS
10
1.94673
20
0.495945
11
1.93522
21
0.501727
0
LINE
8
BLACK
6
CONTINUOUS
10
1.93522
20
0.501727
11
1.92311
21
0.506133
0
LINE
8
BLACK
6
CONTINUOUS
10
1.92311
20
0.506133
11
1.91058
21
0.509104
0
LINE
8
BLACK
6
CONTINUOUS
10
1.91058
20
0.509104
11
1.89778
21
0.5106
0
LINE
8
BLACK
6
CONTINUOUS
10
1.89778
20
0.5106
11
1.8849
21
0.5106
0
LINE
8
BLACK
6
CONTINUOUS
10
1.8849
20
0.5106
11
1.8721
21
0.509104
0
LINE
8
BLACK
6
CONTINUOUS
10
1.8721
20
0.509104
11
1.85956
21
0.506133
0
LINE
8
BLACK
6
CONTINUOUS
10
1.85956
20
0.506133
11
1.84746
21
0.501727
0
LINE
8
BLACK
6
CONTINUOUS
10
1.84746
20
0.501727
11
1.83594
21
0.495945
0
LINE
8
BLACK
6
CONTINUOUS
10
1.83594
20
0.495945
11
1.82518
21
0.488865
0
LINE
8
BLACK
6
CONTINUOUS
10
1.82518
20
0.488865
11
1.81531
21
0.480584
0
LINE
8
BLACK
6
CONTINUOUS
10
1.81531
20
0.480584
11
1.80647
21
0.471213
0
LINE
8
BLACK
6
CONTINUOUS
10
1.80647
20
0.471213
11
1.79878
21
0.460879
0
LINE
8
BLACK
6
CONTINUOUS
10
1.79878
20
0.460879
11
1.79234
21
0.449721
0
LINE
8
BLACK
6
CONTINUOUS
10
1.79234
20
0.449721
11
1.78723
21
0.437892
0
LINE
8
BLACK
6
CONTINUOUS
10
1.78723
20
0.437892
11
1.78354
21
0.425549
0
LINE
8
BLACK
6
CONTINUOUS
10
1.78354
20
0.425549
11
1.7813
21
0.412862
0
LINE
8
BLACK
6
CONTINUOUS
10
1.7813
20
0.412862
11
1.78055
21
0.4
0
LINE
8
BLACK
6
CONTINUOUS
10
1.78055
20
0.4
11
1.7813
21
0.387138
0
LINE
8
BLACK
6
CONTINUOUS
10
0.829911
20
0.488515
11
0.83004
21
0.488538
0
LINE
8
BLACK
6
CONTINUOUS
10
0.83004
20
0.488538
11
0.830154
21
0.488472
0
LINE
8
BLACK
6
CONTINUOUS
10
0.830154
20
0.488472
11
0.830537
21
0.488405
0
LINE
8
BLACK
6
CONTINUOUS
10
0.830537
20
0.488405
11
0.831125
21
0.487911
0
LINE
8
BLACK
6
CONTINUOUS
10
0.831125
20
0.487911
11
0.831789
21
0.487528
0
LINE
8
BLACK
6
CONTINUOUS
10
0.831789
20
0.487528
11
0.831881
21
0.487278
0
LINE
8
BLACK
6
CONTINUOUS
10
0.831881
20
0.487278
11
0.832085
21
0.487106
0
LINE
8
BLACK
6
CONTINUOUS
10
0.832085
20
0.487106
11
0.832218
21
0.486351
0
LINE
8
BLACK
6
CONTINUOUS
10
0.832218
20
0.486351
11
0.83248
21
0.48563
0
LINE
8
BLACK
6
CONTINUOUS
10
0.83248
20
0.48563
11
0.83248
21
0.28563
0
LINE
8
BLACK
6
CONTINUOUS
10
0.83248
20
0.28563
11
0.832413
21
0.285246
0
LINE
8
BLACK
6
CONTINUOUS
10
0.832413
20
0.285246
11
0.832435
21
0.285117
0
LINE
8
BLACK
6
CONTINUOUS
10
0.832435
20
0.285117
11
0.83237
21
0.285004
0
LINE
8
BLACK
6
CONTINUOUS
10
0.83237
20
0.285004
11
0.832302
21
0.28462
0
LINE
8
BLACK
6
CONTINUOUS
10
0.832302
20
0.28462
11
0.831809
21
0.284032
0
LINE
8
BLACK
6
CONTINUOUS
10
0.831809
20
0.284032
11
0.831426
21
0.283368
0
LINE
8
BLACK
6
CONTINUOUS
10
0.831426
20
0.283368
11
0.831175
21
0.283277
0
LINE
8
BLACK
6
CONTINUOUS
10
0.831175
20
0.283277
11
0.831004
21
0.283073
0
LINE
8
BLACK
6
CONTINUOUS
10
0.831004
20
0.283073
11
0.830248
21
0.28294
0
LINE
8
BLACK
6
CONTINUOUS
10
0.830248
20
0.28294
11
0.829528
21
0.282677
0
LINE
8
BLACK
6
CONTINUOUS
10
0.829528
20
0.282677
11
0.529528
21
0.282677
0
LINE
8
BLACK
6
CONTINUOUS
10
0.529528
20
0.282677
11
0.529144
21
0.282745
0
LINE
8
BLACK
6
CONTINUOUS
10
0.529144
20
0.282745
11
0.529015
21
0.282722
0
LINE
8
BLACK
6
CONTINUOUS
10
0.529015
20
0.282722
11
0.528901
21
0.282788
0
LINE
8
BLACK
6
CONTINUOUS
10
0.528901
20
0.282788
11
0.528518
21
0.282855
0
LINE
8
BLACK
6
CONTINUOUS
10
0.528518
20
0.282855
11
0.52793
21
0.283348
0
LINE
8
BLACK
6
CONTINUOUS
10
0.52793
20
0.283348
11
0.527266
21
0.283732
0
LINE
8
BLACK
6
CONTINUOUS
10
0.527266
20
0.283732
11
0.527174
21
0.283982
0
LINE
8
BLACK
6
CONTINUOUS
10
0.527174
20
0.283982
11
0.52697
21
0.284154
0
LINE
8
BLACK
6
CONTINUOUS
10
0.52697
20
0.284154
11
0.526837
21
0.284909
0
LINE
8
BLACK
6
CONTINUOUS
10
0.526837
20
0.284909
11
0.526575
21
0.28563
0
LINE
8
BLACK
6
CONTINUOUS
10
0.526575
20
0.28563
11
0.526575
21
0.48563
0
LINE
8
BLACK
6
CONTINUOUS
10
0.526575
20
0.48563
11
0.526642
21
0.486013
0
LINE
8
BLACK
6
CONTINUOUS
10
0.526642
20
0.486013
11
0.52662
21
0.486143
0
LINE
8
BLACK
6
CONTINUOUS
10
0.52662
20
0.486143
11
0.526685
21
0.486256
0
LINE
8
BLACK
6
CONTINUOUS
10
0.526685
20
0.486256
11
0.526753
21
0.48664
0
LINE
8
BLACK
6
CONTINUOUS
10
0.526753
20
0.48664
11
0.527246
21
0.487228
0
LINE
8
BLACK
6
CONTINUOUS
10
0.527246
20
0.487228
11
0.52763
21
0.487892
0
LINE
8
BLACK
6
CONTINUOUS
10
0.52763
20
0.487892
11
0.52788
21
0.487983
0
LINE
8
BLACK
6
CONTINUOUS
10
0.52788
20
0.487983
11
0.528051
21
0.488187
0
LINE
8
BLACK
6
CONTINUOUS
10
0.528051
20
0.488187
11
0.528807
21
0.48832
0
LINE
8
BLACK
6
CONTINUOUS
10
0.528807
20
0.48832
11
0.529528
21
0.488583
0
LINE
8
BLACK
6
CONTINUOUS
10
0.529528
20
0.488583
11
0.829528
21
0.488583
0
LINE
8
BLACK
6
CONTINUOUS
10
0.829528
20
0.488583
11
0.829911
21
0.488515
0
LINE
8
BLACK
6
CONTINUOUS
10
0.53248
20
0.482677
11
0.53248
21
0.288583
0
LINE
8
BLACK
6
CONTINUOUS
10
0.53248
20
0.288583
11
0.826575
21
0.288583
0
LINE
8
BLACK
6
CONTINUOUS
10
0.826575
20
0.288583
11
0.826575
21
0.482677
0
LINE
8
BLACK
6
CONTINUOUS
10
0.826575
20
0.482677
11
0.53248
21
0.482677
0
LINE
8
BLACK
6
CONTINUOUS
10
2.02105
20
0.810365
11
2.02118
21
0.810388
0
LINE
8
BLACK
6
CONTINUOUS
10
2.02118
20
0.810388
11
2.0213
21
0.810323
0
LINE
8
BLACK
6
CONTINUOUS
10
2.0213
20
0.810323
11
2.02168
21
0.810255
0
LINE
8
BLACK
6
CONTINUOUS
10
2.02168
20
0.810255
11
2.02227
21
0.809762
0
LINE
8
BLACK
6
CONTINUOUS
10
2.02227
20
0.809762
11
2.02293
21
0.809378
0
LINE
8
BLACK
6
CONTINUOUS
10
2.02293
20
0.809378
11
2.02302
21
0.809128
0
LINE
8
BLACK
6
CONTINUOUS
10
2.02302
20
0.809128
11
2.02323
21
0.808957
0
LINE
8
BLACK
6
CONTINUOUS
10
2.02323
20
0.808957
11
2.02336
21
0.808201
0
LINE
8
BLACK
6
CONTINUOUS
10
2.02336
20
0.808201
11
2.02362
21
0.80748
0
LINE
8
BLACK
6
CONTINUOUS
10
2.02362
20
0.80748
11
2.02362
21
0.60748
0
LINE
8
BLACK
6
CONTINUOUS
10
2.02362
20
0.60748
11
2.02355
21
0.607097
0
LINE
8
BLACK
6
CONTINUOUS
10
2.02355
20
0.607097
11
2.02358
21
0.606968
0
LINE
8
BLACK
6
CONTINUOUS
10
2.02358
20
0.606968
11
2.02351
21
0.606854
0
LINE
8
BLACK
6
CONTINUOUS
10
2.02351
20
0.606854
11
2.02344
21
0.60647
0
LINE
8
BLACK
6
CONTINUOUS
10
2.02344
20
0.60647
11
2.02295
21
0.605883
0
LINE
8
BLACK
6
CONTINUOUS
10
2.02295
20
0.605883
11
2.02257
21
0.605218
0
LINE
8
BLACK
6
CONTINUOUS
10
2.02257
20
0.605218
11
2.02232
21
0.605127
0
LINE
8
BLACK
6
CONTINUOUS
10
2.02232
20
0.605127
11
2.02215
21
0.604923
0
LINE
8
BLACK
6
CONTINUOUS
10
2.02215
20
0.604923
11
2.02139
21
0.60479
0
LINE
8
BLACK
6
CONTINUOUS
10
2.02139
20
0.60479
11
2.02067
21
0.604528
0
LINE
8
BLACK
6
CONTINUOUS
10
2.02067
20
0.604528
11
1.72067
21
0.604528
0
LINE
8
BLACK
6
CONTINUOUS
10
1.72067
20
0.604528
11
1.72029
21
0.604595
0
LINE
8
BLACK
6
CONTINUOUS
10
1.72029
20
0.604595
11
1.72016
21
0.604572
0
LINE
8
BLACK
6
CONTINUOUS
10
1.72016
20
0.604572
11
1.72004
21
0.604638
0
LINE
8
BLACK
6
CONTINUOUS
10
1.72004
20
0.604638
11
1.71966
21
0.604706
0
LINE
8
BLACK
6
CONTINUOUS
10
1.71966
20
0.604706
11
1.71907
21
0.605199
0
LINE
8
BLACK
6
CONTINUOUS
10
1.71907
20
0.605199
11
1.71841
21
0.605582
0
LINE
8
BLACK
6
CONTINUOUS
10
1.71841
20
0.605582
11
1.71832
21
0.605833
0
LINE
8
BLACK
6
CONTINUOUS
10
1.71832
20
0.605833
11
1.71811
21
0.606004
0
LINE
8
BLACK
6
CONTINUOUS
10
1.71811
20
0.606004
11
1.71798
21
0.60676
0
LINE
8
BLACK
6
CONTINUOUS
10
1.71798
20
0.60676
11
1.71772
21
0.60748
0
LINE
8
BLACK
6
CONTINUOUS
10
1.71772
20
0.60748
11
1.71772
21
0.80748
0
LINE
8
BLACK
6
CONTINUOUS
10
1.71772
20
0.80748
11
1.71778
21
0.807864
0
LINE
8
BLACK
6
CONTINUOUS
10
1.71778
20
0.807864
11
1.71776
21
0.807993
0
LINE
8
BLACK
6
CONTINUOUS
10
1.71776
20
0.807993
11
1.71783
21
0.808107
0
LINE
8
BLACK
6
CONTINUOUS
10
1.71783
20
0.808107
11
1.71789
21
0.80849
0
LINE
8
BLACK
6
CONTINUOUS
10
1.71789
20
0.80849
11
1.71839
21
0.809078
0
LINE
8
BLACK
6
CONTINUOUS
10
1.71839
20
0.809078
11
1.71877
21
0.809742
0
LINE
8
BLACK
6
CONTINUOUS
10
1.71877
20
0.809742
11
1.71902
21
0.809833
0
LINE
8
BLACK
6
CONTINUOUS
10
1.71902
20
0.809833
11
1.71919
21
0.810037
0
LINE
8
BLACK
6
CONTINUOUS
10
1.71919
20
0.810037
11
1.71995
21
0.810171
0
LINE
8
BLACK
6
CONTINUOUS
10
1.71995
20
0.810171
11
1.72067
21
0.810433
0
LINE
8
BLACK
6
CONTINUOUS
10
1.72067
20
0.810433
11
2.02067
21
0.810433
0
LINE
8
BLACK
6
CONTINUOUS
10
2.02067
20
0.810433
11
2.02105
21
0.810365
0
LINE
8
BLACK
6
CONTINUOUS
10
1.72362
20
0.804528
11
1.72362
21
0.610433
0
LINE
8
BLACK
6
CONTINUOUS
10
1.72362
20
0.610433
11
2.01772
21
0.610433
0
LINE
8
BLACK
6
CONTINUOUS
10
2.01772
20
0.610433
11
2.01772
21
0.804528
0
LINE
8
BLACK
6
CONTINUOUS
10
2.01772
20
0.804528
11
1.72362
21
0.804528
0
LINE
8
BLACK
6
CONTINUOUS
10
0.315945
20
0.870079
11
0.317337
21
0.869502
0
LINE
8
BLACK
6
CONTINUOUS
10
0.317337
20
0.869502
11
0.317913
21
0.86811
0
LINE
8
BLACK
6
CONTINUOUS
10
0.317913
20
0.86811
11
0.317913
21
0.71063
0
LINE
8
BLACK
6
CONTINUOUS
10
0.317913
20
0.71063
11
0.317337
21
0.709238
0
LINE
8
BLACK
6
CONTINUOUS
10
0.317337
20
0.709238
11
0.315945
21
0.708661
0
LINE
8
BLACK
6
CONTINUOUS
10
0.315945
20
0.708661
11
0.186024
21
0.708661
0
LINE
8
BLACK
6
CONTINUOUS
10
0.186024
20
0.708661
11
0.184632
21
0.709238
0
LINE
8
BLACK
6
CONTINUOUS
10
0.184632
20
0.709238
11
0.184055
21
0.71063
0
LINE
8
BLACK
6
CONTINUOUS
10
0.184055
20
0.71063
11
0.184055
21
0.86811
0
LINE
8
BLACK
6
CONTINUOUS
10
0.184055
20
0.86811
11
0.184632
21
0.869502
0
LINE
8
BLACK
6
CONTINUOUS
10
0.184632
20
0.869502
11
0.186024
21
0.870079
0
LINE
8
BLACK
6
CONTINUOUS
10
0.186024
20
0.870079
11
0.315945
21
0.870079
0
LINE
8
BLACK
6
CONTINUOUS
10
0.187992
20
0.866142
11
0.187992
21
0.712598
0
LINE
8
BLACK
6
CONTINUOUS
10
0.187992
20
0.712598
11
0.313976
21
0.712598
0
LINE
8
BLACK
6
CONTINUOUS
10
0.313976
20
0.712598
11
0.313976
21
0.866142
0
LINE
8
BLACK
6
CONTINUOUS
10
0.313976
20
0.866142
11
0.187992
21
0.866142
0
LINE
8
BLACK
6
CONTINUOUS
10
0.382874
20
0.870079
11
0.384266
21
0.869502
0
LINE
8
BLACK
6
CONTINUOUS
10
0.384266
20
0.869502
11
0.384843
21
0.86811
0
LINE
8
BLACK
6
CONTINUOUS
10
0.384843
20
0.86811
11
0.384843
21
0.71063
0
LINE
8
BLACK
6
CONTINUOUS
10
0.384843
20
0.71063
11
0.384266
21
0.709238
0
LINE
8
BLACK
6
CONTINUOUS
10
0.384266
20
0.709238
11
0.382874
21
0.708661
0
LINE
8
BLACK
6
CONTINUOUS
10
0.382874
20
0.708661
11
0.343504
21
0.708661
0
LINE
8
BLACK
6
CONTINUOUS
10
0.343504
20
0.708661
11
0.342112
21
0.709238
0
LINE
8
BLACK
6
CONTINUOUS
10
0.342112
20
0.709238
11
0.341535
21
0.71063
0
LINE
8
BLACK
6
CONTINUOUS
10
0.341535
20
0.71063
11
0.341535
21
0.86811
0
LINE
8
BLACK
6
CONTINUOUS
10
0.341535
20
0.86811
11
0.342112
21
0.869502
0
LINE
8
BLACK
6
CONTINUOUS
10
0.342112
20
0.869502
11
0.343504
21
0.870079
0
LINE
8
BLACK
6
CONTINUOUS
10
0.343504
20
0.870079
11
0.382874
21
0.870079
0
LINE
8
BLACK
6
CONTINUOUS
10
0.345472
20
0.866142
11
0.345472
21
0.712598
0
LINE
8
BLACK
6
CONTINUOUS
10
0.345472
20
0.712598
11
0.380906
21
0.712598
0
LINE
8
BLACK
6
CONTINUOUS
10
0.380906
20
0.712598
11
0.380906
21
0.866142
0
LINE
8
BLACK
6
CONTINUOUS
10
0.380906
20
0.866142
11
0.345472
21
0.866142
0
LINE
8
BLACK
6
CONTINUOUS
10
0.672244
20
0.811024
11
0.673636
21
0.810447
0
LINE
8
BLACK
6
CONTINUOUS
10
0.673636
20
0.810447
11
0.674213
21
0.809055
0
LINE
8
BLACK
6
CONTINUOUS
10
0.674213
20
0.809055
11
0.674213
21
0.769685
0
LINE
8
BLACK
6
CONTINUOUS
10
0.674213
20
0.769685
11
0.673636
21
0.768293
0
LINE
8
BLACK
6
CONTINUOUS
10
0.673636
20
0.768293
11
0.672244
21
0.767717
0
LINE
8
BLACK
6
CONTINUOUS
10
0.672244
20
0.767717
11
0.573819
21
0.767717
0
LINE
8
BLACK
6
CONTINUOUS
10
0.573819
20
0.767717
11
0.572427
21
0.768293
0
LINE
8
BLACK
6
CONTINUOUS
10
0.572427
20
0.768293
11
0.57185
21
0.769685
0
LINE
8
BLACK
6
CONTINUOUS
10
0.57185
20
0.769685
11
0.57185
21
0.769685
0
LINE
8
BLACK
6
CONTINUOUS
10
0.57185
20
0.769685
11
0.57185
21
0.809055
0
LINE
8
BLACK
6
CONTINUOUS
10
0.57185
20
0.809055
11
0.572427
21
0.810447
0
LINE
8
BLACK
6
CONTINUOUS
10
0.572427
20
0.810447
11
0.573819
21
0.811024
0
LINE
8
BLACK
6
CONTINUOUS
10
0.573819
20
0.811024
11
0.672244
21
0.811024
0
LINE
8
BLACK
6
CONTINUOUS
10
0.575787
20
0.807087
11
0.575787
21
0.771654
0
LINE
8
BLACK
6
CONTINUOUS
10
0.575787
20
0.771654
11
0.670276
21
0.771654
0
LINE
8
BLACK
6
CONTINUOUS
10
0.670276
20
0.771654
11
0.670276
21
0.807087
0
LINE
8
BLACK
6
CONTINUOUS
10
0.670276
20
0.807087
11
0.575787
21
0.807087
0
LINE
8
BLACK
6
CONTINUOUS
10
0.315945
20
1.06693
11
0.317337
21
1.06635
0
LINE
8
BLACK
6
CONTINUOUS
10
0.317337
20
1.06635
11
0.317913
21
1.06496
0
LINE
8
BLACK
6
CONTINUOUS
10
0.317913
20
1.06496
11
0.317913
21
0.90748
0
LINE
8
BLACK
6
CONTINUOUS
10
0.317913
20
0.90748
11
0.317337
21
0.906088
0
LINE
8
BLACK
6
CONTINUOUS
10
0.317337
20
0.906088
11
0.315945
21
0.905512
0
LINE
8
BLACK
6
CONTINUOUS
10
0.315945
20
0.905512
11
0.186024
21
0.905512
0
LINE
8
BLACK
6
CONTINUOUS
10
0.186024
20
0.905512
11
0.184632
21
0.906088
0
LINE
8
BLACK
6
CONTINUOUS
10
0.184632
20
0.906088
11
0.184055
21
0.90748
0
LINE
8
BLACK
6
CONTINUOUS
10
0.184055
20
0.90748
11
0.184055
21
1.06496
0
LINE
8
BLACK
6
CONTINUOUS
10
0.184055
20
1.06496
11
0.184632
21
1.06635
0
LINE
8
BLACK
6
CONTINUOUS
10
0.184632
20
1.06635
11
0.186024
21
1.06693
0
LINE
8
BLACK
6
CONTINUOUS
10
0.186024
20
1.06693
11
0.315945
21
1.06693
0
LINE
8
BLACK
6
CONTINUOUS
10
0.187992
20
1.06299
11
0.187992
21
0.909449
0
LINE
8
BLACK
6
CONTINUOUS
10
0.187992
20
0.909449
11
0.313976
21
0.909449
0
LINE
8
BLACK
6
CONTINUOUS
10
0.313976
20
0.909449
11
0.313976
21
1.06299
0
LINE
8
BLACK
6
CONTINUOUS
10
0.313976
20
1.06299
11
0.187992
21
1.06299
0
LINE
8
BLACK
6
CONTINUOUS
10
0.382874
20
1.06693
11
0.384266
21
1.06635
0
LINE
8
BLACK
6
CONTINUOUS
10
0.384266
20
1.06635
11
0.384843
21
1.06496
0
LINE
8
BLACK
6
CONTINUOUS
10
0.384843
20
1.06496
11
0.384843
21
0.90748
0
LINE
8
BLACK
6
CONTINUOUS
10
0.384843
20
0.90748
11
0.384266
21
0.906088
0
LINE
8
BLACK
6
CONTINUOUS
10
0.384266
20
0.906088
11
0.382874
21
0.905512
0
LINE
8
BLACK
6
CONTINUOUS
10
0.382874
20
0.905512
11
0.343504
21
0.905512
0
LINE
8
BLACK
6
CONTINUOUS
10
0.343504
20
0.905512
11
0.342112
21
0.906088
0
LINE
8
BLACK
6
CONTINUOUS
10
0.342112
20
0.906088
11
0.341535
21
0.90748
0
LINE
8
BLACK
6
CONTINUOUS
10
0.341535
20
0.90748
11
0.341535
21
1.06496
0
LINE
8
BLACK
6
CONTINUOUS
10
0.341535
20
1.06496
11
0.342112
21
1.06635
0
LINE
8
BLACK
6
CONTINUOUS
10
0.342112
20
1.06635
11
0.343504
21
1.06693
0
LINE
8
BLACK
6
CONTINUOUS
10
0.343504
20
1.06693
11
0.382874
21
1.06693
0
LINE
8
BLACK
6
CONTINUOUS
10
0.345472
20
1.06299
11
0.345472
21
0.909449
0
LINE
8
BLACK
6
CONTINUOUS
10
0.345472
20
0.909449
11
0.380906
21
0.909449
0
LINE
8
BLACK
6
CONTINUOUS
10
0.380906
20
0.909449
11
0.380906
21
1.06299
0
LINE
8
BLACK
6
CONTINUOUS
10
0.380906
20
1.06299
11
0.345472
21
1.06299
0
LINE
8
BLACK
6
CONTINUOUS
10
0.45733
20
0.970929
11
0.457395
21
0.97093
0
LINE
8
BLACK
6
CONTINUOUS
10
0.457395
20
0.97093
11
0.463019
21
0.969055
0
LINE
8
BLACK
6
CONTINUOUS
10
0.463019
20
0.969055
11
0.463921
21
0.968567
0
LINE
8
BLACK
6
CONTINUOUS
10
0.463921
20
0.968567
11
0.464013
21
0.968417
0
LINE
8
BLACK
6
CONTINUOUS
10
0.464013
20
0.968417
11
0.464173
21
0.968342
0
LINE
8
BLACK
6
CONTINUOUS
10
0.464173
20
0.968342
11
0.467923
21
0.964593
0
LINE
8
BLACK
6
CONTINUOUS
10
0.467923
20
0.964593
11
0.468511
21
0.963753
0
LINE
8
BLACK
6
CONTINUOUS
10
0.468511
20
0.963753
11
0.468526
21
0.963577
0
LINE
8
BLACK
6
CONTINUOUS
10
0.468526
20
0.963577
11
0.468636
21
0.963438
0
LINE
8
BLACK
6
CONTINUOUS
10
0.468636
20
0.963438
11
0.470511
21
0.957814
0
LINE
8
BLACK
6
CONTINUOUS
10
0.470511
20
0.957814
11
0.47064
21
0.956941
0
LINE
8
BLACK
6
CONTINUOUS
10
0.47064
20
0.956941
11
0.470662
21
0.95688
0
LINE
8
BLACK
6
CONTINUOUS
10
0.470662
20
0.95688
11
0.470662
21
0.953131
0
LINE
8
BLACK
6
CONTINUOUS
10
0.470662
20
0.953131
11
0.470484
21
0.952121
0
LINE
8
BLACK
6
CONTINUOUS
10
0.470484
20
0.952121
11
0.469186
21
0.950574
0
LINE
8
BLACK
6
CONTINUOUS
10
0.469186
20
0.950574
11
0.467197
21
0.950223
0
LINE
8
BLACK
6
CONTINUOUS
10
0.467197
20
0.950223
11
0.465447
21
0.951233
0
LINE
8
BLACK
6
CONTINUOUS
10
0.465447
20
0.951233
11
0.464757
21
0.953131
0
LINE
8
BLACK
6
CONTINUOUS
10
0.464757
20
0.953131
11
0.464757
21
0.956401
0
LINE
8
BLACK
6
CONTINUOUS
10
0.464757
20
0.956401
11
0.463254
21
0.96091
0
LINE
8
BLACK
6
CONTINUOUS
10
0.463254
20
0.96091
11
0.46049
21
0.963673
0
LINE
8
BLACK
6
CONTINUOUS
10
0.46049
20
0.963673
11
0.455982
21
0.965176
0
LINE
8
BLACK
6
CONTINUOUS
10
0.455982
20
0.965176
11
0.428339
21
0.965176
0
LINE
8
BLACK
6
CONTINUOUS
10
0.428339
20
0.965176
11
0.427329
21
0.965354
0
LINE
8
BLACK
6
CONTINUOUS
10
0.427329
20
0.965354
11
0.425782
21
0.966653
0
LINE
8
BLACK
6
CONTINUOUS
10
0.425782
20
0.966653
11
0.425431
21
0.968642
0
LINE
8
BLACK
6
CONTINUOUS
10
0.425431
20
0.968642
11
0.426441
21
0.970391
0
LINE
8
BLACK
6
CONTINUOUS
10
0.426441
20
0.970391
11
0.428339
21
0.971082
0
LINE
8
BLACK
6
CONTINUOUS
10
0.428339
20
0.971082
11
0.456461
21
0.971082
0
LINE
8
BLACK
6
CONTINUOUS
10
0.456461
20
0.971082
11
0.45733
21
0.970929
0
LINE
8
BLACK
6
CONTINUOUS
10
0.469971
20
1.0094
11
0.470662
21
1.0075
0
LINE
8
BLACK
6
CONTINUOUS
10
0.470662
20
1.0075
11
0.470662
21
0.985002
0
LINE
8
BLACK
6
CONTINUOUS
10
0.470662
20
0.985002
11
0.470484
21
0.983992
0
LINE
8
BLACK
6
CONTINUOUS
10
0.470484
20
0.983992
11
0.469186
21
0.982445
0
LINE
8
BLACK
6
CONTINUOUS
10
0.469186
20
0.982445
11
0.467197
21
0.982094
0
LINE
8
BLACK
6
CONTINUOUS
10
0.467197
20
0.982094
11
0.465447
21
0.983104
0
LINE
8
BLACK
6
CONTINUOUS
10
0.465447
20
0.983104
11
0.464757
21
0.985002
0
LINE
8
BLACK
6
CONTINUOUS
10
0.464757
20
0.985002
11
0.464757
21
0.993298
0
LINE
8
BLACK
6
CONTINUOUS
10
0.464757
20
0.993298
11
0.437343
21
0.993298
0
LINE
8
BLACK
6
CONTINUOUS
10
0.437343
20
0.993298
11
0.439801
21
0.990839
0
LINE
8
BLACK
6
CONTINUOUS
10
0.439801
20
0.990839
11
0.440307
21
0.990116
0
LINE
8
BLACK
6
CONTINUOUS
10
0.440307
20
0.990116
11
0.440354
21
0.990072
0
LINE
8
BLACK
6
CONTINUOUS
10
0.440354
20
0.990072
11
0.442229
21
0.986322
0
LINE
8
BLACK
6
CONTINUOUS
10
0.442229
20
0.986322
11
0.442521
21
0.98534
0
LINE
8
BLACK
6
CONTINUOUS
10
0.442521
20
0.98534
11
0.442052
21
0.983375
0
LINE
8
BLACK
6
CONTINUOUS
10
0.442052
20
0.983375
11
0.44043
21
0.982172
0
LINE
8
BLACK
6
CONTINUOUS
10
0.44043
20
0.982172
11
0.438414
21
0.982293
0
LINE
8
BLACK
6
CONTINUOUS
10
0.438414
20
0.982293
11
0.436947
21
0.983681
0
LINE
8
BLACK
6
CONTINUOUS
10
0.436947
20
0.983681
11
0.435286
21
0.987002
0
LINE
8
BLACK
6
CONTINUOUS
10
0.435286
20
0.987002
11
0.432082
21
0.990206
0
LINE
8
BLACK
6
CONTINUOUS
10
0.432082
20
0.990206
11
0.426701
21
0.993794
0
LINE
8
BLACK
6
CONTINUOUS
10
0.426701
20
0.993794
11
0.42596
21
0.994502
0
LINE
8
BLACK
6
CONTINUOUS
10
0.42596
20
0.994502
11
0.425912
21
0.994665
0
LINE
8
BLACK
6
CONTINUOUS
10
0.425912
20
0.994665
11
0.425782
21
0.994774
0
LINE
8
BLACK
6
CONTINUOUS
10
0.425782
20
0.994774
11
0.425633
21
0.995618
0
LINE
8
BLACK
6
CONTINUOUS
10
0.425633
20
0.995618
11
0.425393
21
0.996441
0
LINE
8
BLACK
6
CONTINUOUS
10
0.425393
20
0.996441
11
0.425461
21
0.996596
0
LINE
8
BLACK
6
CONTINUOUS
10
0.425461
20
0.996596
11
0.425431
21
0.996763
0
LINE
8
BLACK
6
CONTINUOUS
10
0.425431
20
0.996763
11
0.42586
21
0.997505
0
LINE
8
BLACK
6
CONTINUOUS
10
0.42586
20
0.997505
11
0.426204
21
0.99829
0
LINE
8
BLACK
6
CONTINUOUS
10
0.426204
20
0.99829
11
0.426356
21
0.998365
0
LINE
8
BLACK
6
CONTINUOUS
10
0.426356
20
0.998365
11
0.426441
21
0.998512
0
LINE
8
BLACK
6
CONTINUOUS
10
0.426441
20
0.998512
11
0.427247
21
0.998806
0
LINE
8
BLACK
6
CONTINUOUS
10
0.427247
20
0.998806
11
0.428015
21
0.999185
0
LINE
8
BLACK
6
CONTINUOUS
10
0.428015
20
0.999185
11
0.42818
21
0.999145
0
LINE
8
BLACK
6
CONTINUOUS
10
0.42818
20
0.999145
11
0.428339
21
0.999203
0
LINE
8
BLACK
6
CONTINUOUS
10
0.428339
20
0.999203
11
0.464757
21
0.999203
0
LINE
8
BLACK
6
CONTINUOUS
10
0.464757
20
0.999203
11
0.464757
21
1.0075
0
LINE
8
BLACK
6
CONTINUOUS
10
0.464757
20
1.0075
11
0.464935
21
1.00851
0
LINE
8
BLACK
6
CONTINUOUS
10
0.464935
20
1.00851
11
0.466233
21
1.01006
0
LINE
8
BLACK
6
CONTINUOUS
10
0.466233
20
1.01006
11
0.468222
21
1.01041
0
LINE
8
BLACK
6
CONTINUOUS
10
0.468222
20
1.01041
11
0.469971
21
1.0094
0
LINE
8
BLACK
6
CONTINUOUS
10
0.440457
20
1.04779
11
0.440522
21
1.0478
0
LINE
8
BLACK
6
CONTINUOUS
10
0.440522
20
1.0478
11
0.446146
21
1.04592
0
LINE
8
BLACK
6
CONTINUOUS
10
0.446146
20
1.04592
11
0.447048
21
1.04543
0
LINE
8
BLACK
6
CONTINUOUS
10
0.447048
20
1.04543
11
0.44714
21
1.04528
0
LINE
8
BLACK
6
CONTINUOUS
10
0.44714
20
1.04528
11
0.4473
21
1.04521
0
LINE
8
BLACK
6
CONTINUOUS
10
0.4473
20
1.04521
11
0.464757
21
1.02775
0
LINE
8
BLACK
6
CONTINUOUS
10
0.464757
20
1.02775
11
0.464757
21
1.04499
0
LINE
8
BLACK
6
CONTINUOUS
10
0.464757
20
1.04499
11
0.464935
21
1.046
0
LINE
8
BLACK
6
CONTINUOUS
10
0.464935
20
1.046
11
0.466233
21
1.04755
0
LINE
8
BLACK
6
CONTINUOUS
10
0.466233
20
1.04755
11
0.468222
21
1.0479
0
LINE
8
BLACK
6
CONTINUOUS
10
0.468222
20
1.0479
11
0.469971
21
1.04689
0
LINE
8
BLACK
6
CONTINUOUS
10
0.469971
20
1.04689
11
0.470662
21
1.04499
0
LINE
8
BLACK
6
CONTINUOUS
10
0.470662
20
1.04499
11
0.470662
21
1.02062
0
LINE
8
BLACK
6
CONTINUOUS
10
0.470662
20
1.02062
11
0.47055
21
1.01999
0
LINE
8
BLACK
6
CONTINUOUS
10
0.47055
20
1.01999
11
0.470562
21
1.01986
0
LINE
8
BLACK
6
CONTINUOUS
10
0.470562
20
1.01986
11
0.470516
21
1.01979
0
LINE
8
BLACK
6
CONTINUOUS
10
0.470516
20
1.01979
11
0.470484
21
1.01961
0
LINE
8
BLACK
6
CONTINUOUS
10
0.470484
20
1.01961
11
0.469913
21
1.01893
0
LINE
8
BLACK
6
CONTINUOUS
10
0.469913
20
1.01893
11
0.469403
21
1.0182
0
LINE
8
BLACK
6
CONTINUOUS
10
0.469403
20
1.0182
11
0.469273
21
1.01817
0
LINE
8
BLACK
6
CONTINUOUS
10
0.469273
20
1.01817
11
0.469186
21
1.01807
0
LINE
8
BLACK
6
CONTINUOUS
10
0.469186
20
1.01807
11
0.46831
21
1.01791
0
LINE
8
BLACK
6
CONTINUOUS
10
0.46831
20
1.01791
11
0.467452
21
1.01768
0
LINE
8
BLACK
6
CONTINUOUS
10
0.467452
20
1.01768
11
0.46733
21
1.01774
0
LINE
8
BLACK
6
CONTINUOUS
10
0.46733
20
1.01774
11
0.467197
21
1.01771
0
LINE
8
BLACK
6
CONTINUOUS
10
0.467197
20
1.01771
11
0.466427
21
1.01816
0
LINE
8
BLACK
6
CONTINUOUS
10
0.466427
20
1.01816
11
0.465621
21
1.01853
0
LINE
8
BLACK
6
CONTINUOUS
10
0.465621
20
1.01853
11
0.443617
21
1.04054
0
LINE
8
BLACK
6
CONTINUOUS
10
0.443617
20
1.04054
11
0.439109
21
1.04204
0
LINE
8
BLACK
6
CONTINUOUS
10
0.439109
20
1.04204
11
0.436535
21
1.04204
0
LINE
8
BLACK
6
CONTINUOUS
10
0.436535
20
1.04204
11
0.433838
21
1.04069
0
LINE
8
BLACK
6
CONTINUOUS
10
0.433838
20
1.04069
11
0.432641
21
1.0395
0
LINE
8
BLACK
6
CONTINUOUS
10
0.432641
20
1.0395
11
0.431292
21
1.0368
0
LINE
8
BLACK
6
CONTINUOUS
10
0.431292
20
1.0368
11
0.431292
21
1.02882
0
LINE
8
BLACK
6
CONTINUOUS
10
0.431292
20
1.02882
11
0.432641
21
1.02612
0
LINE
8
BLACK
6
CONTINUOUS
10
0.432641
20
1.02612
11
0.434177
21
1.02459
0
LINE
8
BLACK
6
CONTINUOUS
10
0.434177
20
1.02459
11
0.434765
21
1.02375
0
LINE
8
BLACK
6
CONTINUOUS
10
0.434765
20
1.02375
11
0.434941
21
1.02173
0
LINE
8
BLACK
6
CONTINUOUS
10
0.434941
20
1.02173
11
0.433782
21
1.02008
0
LINE
8
BLACK
6
CONTINUOUS
10
0.433782
20
1.02008
11
0.431831
21
1.01956
0
LINE
8
BLACK
6
CONTINUOUS
10
0.431831
20
1.01956
11
0.430001
21
1.02041
0
LINE
8
BLACK
6
CONTINUOUS
10
0.430001
20
1.02041
11
0.428126
21
1.02228
0
LINE
8
BLACK
6
CONTINUOUS
10
0.428126
20
1.02228
11
0.42762
21
1.02301
0
LINE
8
BLACK
6
CONTINUOUS
10
0.42762
20
1.02301
11
0.427573
21
1.02305
0
LINE
8
BLACK
6
CONTINUOUS
10
0.427573
20
1.02305
11
0.425698
21
1.0268
0
LINE
8
BLACK
6
CONTINUOUS
10
0.425698
20
1.0268
11
0.425406
21
1.02778
0
LINE
8
BLACK
6
CONTINUOUS
10
0.425406
20
1.02778
11
0.425447
21
1.02796
0
LINE
8
BLACK
6
CONTINUOUS
10
0.425447
20
1.02796
11
0.425387
21
1.02812
0
LINE
8
BLACK
6
CONTINUOUS
10
0.425387
20
1.02812
11
0.425387
21
1.0375
0
LINE
8
BLACK
6
CONTINUOUS
10
0.425387
20
1.0375
11
0.425565
21
1.03851
0
LINE
8
BLACK
6
CONTINUOUS
10
0.425565
20
1.03851
11
0.425678
21
1.03864
0
LINE
8
BLACK
6
CONTINUOUS
10
0.425678
20
1.03864
11
0.425698
21
1.03882
0
LINE
8
BLACK
6
CONTINUOUS
10
0.425698
20
1.03882
11
0.427573
21
1.04257
0
LINE
8
BLACK
6
CONTINUOUS
10
0.427573
20
1.04257
11
0.428099
21
1.04327
0
LINE
8
BLACK
6
CONTINUOUS
10
0.428099
20
1.04327
11
0.428126
21
1.04333
0
LINE
8
BLACK
6
CONTINUOUS
10
0.428126
20
1.04333
11
0.430001
21
1.04521
0
LINE
8
BLACK
6
CONTINUOUS
10
0.430001
20
1.04521
11
0.430724
21
1.04571
0
LINE
8
BLACK
6
CONTINUOUS
10
0.430724
20
1.04571
11
0.430768
21
1.04576
0
LINE
8
BLACK
6
CONTINUOUS
10
0.430768
20
1.04576
11
0.434518
21
1.04764
0
LINE
8
BLACK
6
CONTINUOUS
10
0.434518
20
1.04764
11
0.435501
21
1.04793
0
LINE
8
BLACK
6
CONTINUOUS
10
0.435501
20
1.04793
11
0.435672
21
1.04789
0
LINE
8
BLACK
6
CONTINUOUS
10
0.435672
20
1.04789
11
0.435838
21
1.04795
0
LINE
8
BLACK
6
CONTINUOUS
10
0.435838
20
1.04795
11
0.439588
21
1.04795
0
LINE
8
BLACK
6
CONTINUOUS
10
0.439588
20
1.04795
11
0.440457
21
1.04779
0
LINE
8
BLACK
6
CONTINUOUS
10
0.672244
20
1.00787
11
0.673636
21
1.0073
0
LINE
8
BLACK
6
CONTINUOUS
10
0.673636
20
1.0073
11
0.674213
21
1.00591
0
LINE
8
BLACK
6
CONTINUOUS
10
0.674213
20
1.00591
11
0.674213
21
0.966535
0
LINE
8
BLACK
6
CONTINUOUS
10
0.674213
20
0.966535
11
0.673636
21
0.965144
0
LINE
8
BLACK
6
CONTINUOUS
10
0.673636
20
0.965144
11
0.672244
21
0.964567
0
LINE
8
BLACK
6
CONTINUOUS
10
0.672244
20
0.964567
11
0.573819
21
0.964567
0
LINE
8
BLACK
6
CONTINUOUS
10
0.573819
20
0.964567
11
0.572427
21
0.965144
0
LINE
8
BLACK
6
CONTINUOUS
10
0.572427
20
0.965144
11
0.57185
21
0.966535
0
LINE
8
BLACK
6
CONTINUOUS
10
0.57185
20
0.966535
11
0.57185
21
0.966535
0
LINE
8
BLACK
6
CONTINUOUS
10
0.57185
20
0.966535
11
0.57185
21
1.00591
0
LINE
8
BLACK
6
CONTINUOUS
10
0.57185
20
1.00591
11
0.572427
21
1.0073
0
LINE
8
BLACK
6
CONTINUOUS
10
0.572427
20
1.0073
11
0.573819
21
1.00787
0
LINE
8
BLACK
6
CONTINUOUS
10
0.573819
20
1.00787
11
0.672244
21
1.00787
0
LINE
8
BLACK
6
CONTINUOUS
10
0.575787
20
1.00394
11
0.575787
21
0.968504
0
LINE
8
BLACK
6
CONTINUOUS
10
0.575787
20
0.968504
11
0.670276
21
0.968504
0
LINE
8
BLACK
6
CONTINUOUS
10
0.670276
20
0.968504
11
0.670276
21
1.00394
0
LINE
8
BLACK
6
CONTINUOUS
10
0.670276
20
1.00394
11
0.575787
21
1.00394
0
LINE
8
BLACK
6
CONTINUOUS
10
0.315945
20
1.26378
11
0.317337
21
1.2632
0
LINE
8
BLACK
6
CONTINUOUS
10
0.317337
20
1.2632
11
0.317913
21
1.26181
0
LINE
8
BLACK
6
CONTINUOUS
10
0.317913
20
1.26181
11
0.317913
21
1.10433
0
LINE
8
BLACK
6
CONTINUOUS
10
0.317913
20
1.10433
11
0.317337
21
1.10294
0
LINE
8
BLACK
6
CONTINUOUS
10
0.317337
20
1.10294
11
0.315945
21
1.10236
0
LINE
8
BLACK
6
CONTINUOUS
10
0.315945
20
1.10236
11
0.186024
21
1.10236
0
LINE
8
BLACK
6
CONTINUOUS
10
0.186024
20
1.10236
11
0.184632
21
1.10294
0
LINE
8
BLACK
6
CONTINUOUS
10
0.184632
20
1.10294
11
0.184055
21
1.10433
0
LINE
8
BLACK
6
CONTINUOUS
10
0.184055
20
1.10433
11
0.184055
21
1.26181
0
LINE
8
BLACK
6
CONTINUOUS
10
0.184055
20
1.26181
11
0.184632
21
1.2632
0
LINE
8
BLACK
6
CONTINUOUS
10
0.184632
20
1.2632
11
0.186024
21
1.26378
0
LINE
8
BLACK
6
CONTINUOUS
10
0.186024
20
1.26378
11
0.315945
21
1.26378
0
LINE
8
BLACK
6
CONTINUOUS
10
0.187992
20
1.25984
11
0.187992
21
1.1063
0
LINE
8
BLACK
6
CONTINUOUS
10
0.187992
20
1.1063
11
0.313976
21
1.1063
0
LINE
8
BLACK
6
CONTINUOUS
10
0.313976
20
1.1063
11
0.313976
21
1.25984
0
LINE
8
BLACK
6
CONTINUOUS
10
0.313976
20
1.25984
11
0.187992
21
1.25984
0
LINE
8
BLACK
6
CONTINUOUS
10
0.382874
20
1.26378
11
0.384266
21
1.2632
0
LINE
8
BLACK
6
CONTINUOUS
10
0.384266
20
1.2632
11
0.384843
21
1.26181
0
LINE
8
BLACK
6
CONTINUOUS
10
0.384843
20
1.26181
11
0.384843
21
1.10433
0
LINE
8
BLACK
6
CONTINUOUS
10
0.384843
20
1.10433
11
0.384266
21
1.10294
0
LINE
8
BLACK
6
CONTINUOUS
10
0.384266
20
1.10294
11
0.382874
21
1.10236
0
LINE
8
BLACK
6
CONTINUOUS
10
0.382874
20
1.10236
11
0.343504
21
1.10236
0
LINE
8
BLACK
6
CONTINUOUS
10
0.343504
20
1.10236
11
0.342112
21
1.10294
0
LINE
8
BLACK
6
CONTINUOUS
10
0.342112
20
1.10294
11
0.341535
21
1.10433
0
LINE
8
BLACK
6
CONTINUOUS
10
0.341535
20
1.10433
11
0.341535
21
1.26181
0
LINE
8
BLACK
6
CONTINUOUS
10
0.341535
20
1.26181
11
0.342112
21
1.2632
0
LINE
8
BLACK
6
CONTINUOUS
10
0.342112
20
1.2632
11
0.343504
21
1.26378
0
LINE
8
BLACK
6
CONTINUOUS
10
0.343504
20
1.26378
11
0.382874
21
1.26378
0
LINE
8
BLACK
6
CONTINUOUS
10
0.345472
20
1.25984
11
0.345472
21
1.1063
0
LINE
8
BLACK
6
CONTINUOUS
10
0.345472
20
1.1063
11
0.380906
21
1.1063
0
LINE
8
BLACK
6
CONTINUOUS
10
0.380906
20
1.1063
11
0.380906
21
1.25984
0
LINE
8
BLACK
6
CONTINUOUS
10
0.380906
20
1.25984
11
0.345472
21
1.25984
0
LINE
8
BLACK
6
CONTINUOUS
10
0.672244
20
1.20472
11
0.673636
21
1.20415
0
LINE
8
BLACK
6
CONTINUOUS
10
0.673636
20
1.20415
11
0.674213
21
1.20276
0
LINE
8
BLACK
6
CONTINUOUS
10
0.674213
20
1.20276
11
0.674213
21
1.16339
0
LINE
8
BLACK
6
CONTINUOUS
10
0.674213
20
1.16339
11
0.673636
21
1.16199
0
LINE
8
BLACK
6
CONTINUOUS
10
0.673636
20
1.16199
11
0.672244
21
1.16142
0
LINE
8
BLACK
6
CONTINUOUS
10
0.672244
20
1.16142
11
0.573819
21
1.16142
0
LINE
8
BLACK
6
CONTINUOUS
10
0.573819
20
1.16142
11
0.572427
21
1.16199
0
LINE
8
BLACK
6
CONTINUOUS
10
0.572427
20
1.16199
11
0.57185
21
1.16339
0
LINE
8
BLACK
6
CONTINUOUS
10
0.57185
20
1.16339
11
0.57185
21
1.16339
0
LINE
8
BLACK
6
CONTINUOUS
10
0.57185
20
1.16339
11
0.57185
21
1.20276
0
LINE
8
BLACK
6
CONTINUOUS
10
0.57185
20
1.20276
11
0.572427
21
1.20415
0
LINE
8
BLACK
6
CONTINUOUS
10
0.572427
20
1.20415
11
0.573819
21
1.20472
0
LINE
8
BLACK
6
CONTINUOUS
10
0.573819
20
1.20472
11
0.672244
21
1.20472
0
LINE
8
BLACK
6
CONTINUOUS
10
0.575787
20
1.20079
11
0.575787
21
1.16535
0
LINE
8
BLACK
6
CONTINUOUS
10
0.575787
20
1.16535
11
0.670276
21
1.16535
0
LINE
8
BLACK
6
CONTINUOUS
10
0.670276
20
1.16535
11
0.670276
21
1.20079
0
LINE
8
BLACK
6
CONTINUOUS
10
0.670276
20
1.20079
11
0.575787
21
1.20079
0
LINE
8
BLACK
6
CONTINUOUS
10
0.686024
20
1.34252
11
0.687416
21
1.34194
0
LINE
8
BLACK
6
CONTINUOUS
10
0.687416
20
1.34194
11
0.687992
21
1.34055
0
LINE
8
BLACK
6
CONTINUOUS
10
0.687992
20
1.34055
11
0.687992
21
0.659449
0
LINE
8
BLACK
6
CONTINUOUS
10
0.687992
20
0.659449
11
0.687416
21
0.658057
0
LINE
8
BLACK
6
CONTINUOUS
10
0.687416
20
0.658057
11
0.686024
21
0.65748
0
LINE
8
BLACK
6
CONTINUOUS
10
0.686024
20
0.65748
11
0.508858
21
0.65748
0
LINE
8
BLACK
6
CONTINUOUS
10
0.508858
20
0.65748
11
0.398622
21
0.65748
0
LINE
8
BLACK
6
CONTINUOUS
10
0.398622
20
0.65748
11
0.174213
21
0.65748
0
LINE
8
BLACK
6
CONTINUOUS
10
0.174213
20
0.65748
11
0.134843
21
0.65748
0
LINE
8
BLACK
6
CONTINUOUS
10
0.134843
20
0.65748
11
0.133451
21
0.658057
0
LINE
8
BLACK
6
CONTINUOUS
10
0.133451
20
0.658057
11
0.132874
21
0.659449
0
LINE
8
BLACK
6
CONTINUOUS
10
0.132874
20
0.659449
11
0.132874
21
1.30118
0
LINE
8
BLACK
6
CONTINUOUS
10
0.132874
20
1.30118
11
0.133451
21
1.30257
0
LINE
8
BLACK
6
CONTINUOUS
10
0.133451
20
1.30257
11
0.133451
21
1.30257
0
LINE
8
BLACK
6
CONTINUOUS
10
0.133451
20
1.30257
11
0.172821
21
1.34194
0
LINE
8
BLACK
6
CONTINUOUS
10
0.172821
20
1.34194
11
0.174213
21
1.34252
0
LINE
8
BLACK
6
CONTINUOUS
10
0.174213
20
1.34252
11
0.686024
21
1.34252
0
LINE
8
BLACK
6
CONTINUOUS
10
0.136811
20
0.688976
11
0.136811
21
0.661417
0
LINE
8
BLACK
6
CONTINUOUS
10
0.136811
20
0.661417
11
0.172244
21
0.661417
0
LINE
8
BLACK
6
CONTINUOUS
10
0.172244
20
0.661417
11
0.172244
21
0.688976
0
LINE
8
BLACK
6
CONTINUOUS
10
0.172244
20
0.688976
11
0.136811
21
0.688976
0
LINE
8
BLACK
6
CONTINUOUS
10
0.176181
20
0.688976
11
0.176181
21
0.661417
0
LINE
8
BLACK
6
CONTINUOUS
10
0.176181
20
0.661417
11
0.396654
21
0.661417
0
LINE
8
BLACK
6
CONTINUOUS
10
0.396654
20
0.661417
11
0.396654
21
0.688976
0
LINE
8
BLACK
6
CONTINUOUS
10
0.396654
20
0.688976
11
0.176181
21
0.688976
0
LINE
8
BLACK
6
CONTINUOUS
10
0.400591
20
0.688976
11
0.400591
21
0.661417
0
LINE
8
BLACK
6
CONTINUOUS
10
0.400591
20
0.661417
11
0.50689
21
0.661417
0
LINE
8
BLACK
6
CONTINUOUS
10
0.50689
20
0.661417
11
0.50689
21
0.688976
0
LINE
8
BLACK
6
CONTINUOUS
10
0.50689
20
0.688976
11
0.400591
21
0.688976
0
LINE
8
BLACK
6
CONTINUOUS
10
0.510827
20
0.688976
11
0.510827
21
0.661417
0
LINE
8
BLACK
6
CONTINUOUS
10
0.510827
20
0.661417
11
0.684055
21
0.661417
0
LINE
8
BLACK
6
CONTINUOUS
10
0.684055
20
0.661417
11
0.684055
21
0.688976
0
LINE
8
BLACK
6
CONTINUOUS
10
0.684055
20
0.688976
11
0.510827
21
0.688976
0
LINE
8
BLACK
6
CONTINUOUS
10
0.136811
20
0.885827
11
0.136811
21
0.692913
0
LINE
8
BLACK
6
CONTINUOUS
10
0.136811
20
0.692913
11
0.172244
21
0.692913
0
LINE
8
BLACK
6
CONTINUOUS
10
0.172244
20
0.692913
11
0.172244
21
0.885827
0
LINE
8
BLACK
6
CONTINUOUS
10
0.172244
20
0.885827
11
0.136811
21
0.885827
0
LINE
8
BLACK
6
CONTINUOUS
10
0.176181
20
0.885827
11
0.176181
21
0.692913
0
LINE
8
BLACK
6
CONTINUOUS
10
0.176181
20
0.692913
11
0.396654
21
0.692913
0
LINE
8
BLACK
6
CONTINUOUS
10
0.396654
20
0.692913
11
0.396654
21
0.885827
0
LINE
8
BLACK
6
CONTINUOUS
10
0.396654
20
0.885827
11
0.176181
21
0.885827
0
LINE
8
BLACK
6
CONTINUOUS
10
0.400591
20
0.885827
11
0.400591
21
0.692913
0
LINE
8
BLACK
6
CONTINUOUS
10
0.400591
20
0.692913
11
0.50689
21
0.692913
0
LINE
8
BLACK
6
CONTINUOUS
10
0.50689
20
0.692913
11
0.50689
21
0.885827
0
LINE
8
BLACK
6
CONTINUOUS
10
0.50689
20
0.885827
11
0.400591
21
0.885827
0
LINE
8
BLACK
6
CONTINUOUS
10
0.510827
20
0.885827
11
0.510827
21
0.692913
0
LINE
8
BLACK
6
CONTINUOUS
10
0.510827
20
0.692913
11
0.684055
21
0.692913
0
LINE
8
BLACK
6
CONTINUOUS
10
0.684055
20
0.692913
11
0.684055
21
0.885827
0
LINE
8
BLACK
6
CONTINUOUS
10
0.684055
20
0.885827
11
0.510827
21
0.885827
0
LINE
8
BLACK
6
CONTINUOUS
10
0.136811
20
1.08268
11
0.136811
21
0.889764
0
LINE
8
BLACK
6
CONTINUOUS
10
0.136811
20
0.889764
11
0.172244
21
0.889764
0
LINE
8
BLACK
6
CONTINUOUS
10
0.172244
20
0.889764
11
0.172244
21
1.08268
0
LINE
8
BLACK
6
CONTINUOUS
10
0.172244
20
1.08268
11
0.136811
21
1.08268
0
LINE
8
BLACK
6
CONTINUOUS
10
0.176181
20
1.08268
11
0.176181
21
0.889764
0
LINE
8
BLACK
6
CONTINUOUS
10
0.176181
20
0.889764
11
0.396654
21
0.889764
0
LINE
8
BLACK
6
CONTINUOUS
10
0.396654
20
0.889764
11
0.396654
21
1.08268
0
LINE
8
BLACK
6
CONTINUOUS
10
0.396654
20
1.08268
11
0.176181
21
1.08268
0
LINE
8
BLACK
6
CONTINUOUS
10
0.400591
20
1.08268
11
0.400591
21
0.889764
0
LINE
8
BLACK
6
CONTINUOUS
10
0.400591
20
0.889764
11
0.50689
21
0.889764
0
LINE
8
BLACK
6
CONTINUOUS
10
0.50689
20
0.889764
11
0.50689
21
1.08268
0
LINE
8
BLACK
6
CONTINUOUS
10
0.50689
20
1.08268
11
0.400591
21
1.08268
0
LINE
8
BLACK
6
CONTINUOUS
10
0.510827
20
1.08268
11
0.510827
21
0.889764
0
LINE
8
BLACK
6
CONTINUOUS
10
0.510827
20
0.889764
11
0.684055
21
0.889764
0
LINE
8
BLACK
6
CONTINUOUS
10
0.684055
20
0.889764
11
0.684055
21
1.08268
0
LINE
8
BLACK
6
CONTINUOUS
10
0.684055
20
1.08268
11
0.510827
21
1.08268
0
LINE
8
BLACK
6
CONTINUOUS
10
0.136811
20
1.27953
11
0.136811
21
1.08661
0
LINE
8
BLACK
6
CONTINUOUS
10
0.136811
20
1.08661
11
0.172244
21
1.08661
0
LINE
8
BLACK
6
CONTINUOUS
10
0.172244
20
1.08661
11
0.172244
21
1.27953
0
LINE
8
BLACK
6
CONTINUOUS
10
0.172244
20
1.27953
11
0.136811
21
1.27953
0
LINE
8
BLACK
6
CONTINUOUS
10
0.176181
20
1.27953
11
0.176181
21
1.08661
0
LINE
8
BLACK
6
CONTINUOUS
10
0.176181
20
1.08661
11
0.396654
21
1.08661
0
LINE
8
BLACK
6
CONTINUOUS
10
0.396654
20
1.08661
11
0.396654
21
1.27953
0
LINE
8
BLACK
6
CONTINUOUS
10
0.396654
20
1.27953
11
0.176181
21
1.27953
0
LINE
8
BLACK
6
CONTINUOUS
10
0.400591
20
1.27953
11
0.400591
21
1.08661
0
LINE
8
BLACK
6
CONTINUOUS
10
0.400591
20
1.08661
11
0.50689
21
1.08661
0
LINE
8
BLACK
6
CONTINUOUS
10
0.50689
20
1.08661
11
0.50689
21
1.27953
0
LINE
8
BLACK
6
CONTINUOUS
10
0.50689
20
1.27953
11
0.400591
21
1.27953
0
LINE
8
BLACK
6
CONTINUOUS
10
0.510827
20
1.27953
11
0.510827
21
1.08661
0
LINE
8
BLACK
6
CONTINUOUS
10
0.510827
20
1.08661
11
0.684055
21
1.08661
0
LINE
8
BLACK
6
CONTINUOUS
10
0.684055
20
1.08661
11
0.684055
21
1.27953
0
LINE
8
BLACK
6
CONTINUOUS
10
0.684055
20
1.27953
11
0.510827
21
1.27953
0
LINE
8
BLACK
6
CONTINUOUS
10
0.136811
20
1.30037
11
0.136811
21
1.28346
0
LINE
8
BLACK
6
CONTINUOUS
10
0.136811
20
1.28346
11
0.172244
21
1.28346
0
LINE
8
BLACK
6
CONTINUOUS
10
0.172244
20
1.28346
11
0.172244
21
1.3358
0
LINE
8
BLACK
6
CONTINUOUS
10
0.172244
20
1.3358
11
0.136811
21
1.30037
0
LINE
8
BLACK
6
CONTINUOUS
10
0.176181
20
1.33858
11
0.176181
21
1.28346
0
LINE
8
BLACK
6
CONTINUOUS
10
0.176181
20
1.28346
11
0.396654
21
1.28346
0
LINE
8
BLACK
6
CONTINUOUS
10
0.396654
20
1.28346
11
0.396654
21
1.33858
0
LINE
8
BLACK
6
CONTINUOUS
10
0.396654
20
1.33858
11
0.176181
21
1.33858
0
LINE
8
BLACK
6
CONTINUOUS
10
0.400591
20
1.33858
11
0.400591
21
1.28346
0
LINE
8
BLACK
6
CONTINUOUS
10
0.400591
20
1.28346
11
0.50689
21
1.28346
0
LINE
8
BLACK
6
CONTINUOUS
10
0.50689
20
1.28346
11
0.50689
21
1.33858
0
LINE
8
BLACK
6
CONTINUOUS
10
0.50689
20
1.33858
11
0.400591
21
1.33858
0
LINE
8
BLACK
6
CONTINUOUS
10
0.510827
20
1.33858
11
0.510827
21
1.28346
0
LINE
8
BLACK
6
CONTINUOUS
10
0.510827
20
1.28346
11
0.684055
21
1.28346
0
LINE
8
BLACK
6
CONTINUOUS
10
0.684055
20
1.28346
11
0.684055
21
1.33858
0
LINE
8
BLACK
6
CONTINUOUS
10
0.684055
20
1.33858
11
0.510827
21
1.33858
0
LINE
8
BLACK
6
CONTINUOUS
10
1.112
20
1.0206
11
1.11213
21
1.02062
0
LINE
8
BLACK
6
CONTINUOUS
10
1.11213
20
1.02062
11
1.11224
21
1.02056
0
LINE
8
BLACK
6
CONTINUOUS
10
1.11224
20
1.02056
11
1.11262
21
1.02049
0
LINE
8
BLACK
6
CONTINUOUS
10
1.11262
20
1.02049
11
1.11321
21
1.02
0
LINE
8
BLACK
6
CONTINUOUS
10
1.11321
20
1.02
11
1.11388
21
1.01961
0
LINE
8
BLACK
6
CONTINUOUS
10
1.11388
20
1.01961
11
1.11397
21
1.01936
0
LINE
8
BLACK
6
CONTINUOUS
10
1.11397
20
1.01936
11
1.11417
21
1.01919
0
LINE
8
BLACK
6
CONTINUOUS
10
1.11417
20
1.01919
11
1.1143
21
1.01844
0
LINE
8
BLACK
6
CONTINUOUS
10
1.1143
20
1.01844
11
1.11457
21
1.01772
0
LINE
8
BLACK
6
CONTINUOUS
10
1.11457
20
1.01772
11
1.11457
21
0.717717
0
LINE
8
BLACK
6
CONTINUOUS
10
1.11457
20
0.717717
11
1.1145
21
0.717333
0
LINE
8
BLACK
6
CONTINUOUS
10
1.1145
20
0.717333
11
1.11452
21
0.717204
0
LINE
8
BLACK
6
CONTINUOUS
10
1.11452
20
0.717204
11
1.11446
21
0.71709
0
LINE
8
BLACK
6
CONTINUOUS
10
1.11446
20
0.71709
11
1.11439
21
0.716707
0
LINE
8
BLACK
6
CONTINUOUS
10
1.11439
20
0.716707
11
1.1139
21
0.716119
0
LINE
8
BLACK
6
CONTINUOUS
10
1.1139
20
0.716119
11
1.11351
21
0.715455
0
LINE
8
BLACK
6
CONTINUOUS
10
1.11351
20
0.715455
11
1.11326
21
0.715364
0
LINE
8
BLACK
6
CONTINUOUS
10
1.11326
20
0.715364
11
1.11309
21
0.715159
0
LINE
8
BLACK
6
CONTINUOUS
10
1.11309
20
0.715159
11
1.11233
21
0.715026
0
LINE
8
BLACK
6
CONTINUOUS
10
1.11233
20
0.715026
11
1.11161
21
0.714764
0
LINE
8
BLACK
6
CONTINUOUS
10
1.11161
20
0.714764
11
0.911614
21
0.714764
0
LINE
8
BLACK
6
CONTINUOUS
10
0.911614
20
0.714764
11
0.911231
21
0.714831
0
LINE
8
BLACK
6
CONTINUOUS
10
0.911231
20
0.714831
11
0.911101
21
0.714809
0
LINE
8
BLACK
6
CONTINUOUS
10
0.911101
20
0.714809
11
0.910988
21
0.714874
0
LINE
8
BLACK
6
CONTINUOUS
10
0.910988
20
0.714874
11
0.910604
21
0.714942
0
LINE
8
BLACK
6
CONTINUOUS
10
0.910604
20
0.714942
11
0.910017
21
0.715435
0
LINE
8
BLACK
6
CONTINUOUS
10
0.910017
20
0.715435
11
0.909352
21
0.715819
0
LINE
8
BLACK
6
CONTINUOUS
10
0.909352
20
0.715819
11
0.909261
21
0.716069
0
LINE
8
BLACK
6
CONTINUOUS
10
0.909261
20
0.716069
11
0.909057
21
0.71624
0
LINE
8
BLACK
6
CONTINUOUS
10
0.909057
20
0.71624
11
0.908924
21
0.716996
0
LINE
8
BLACK
6
CONTINUOUS
10
0.908924
20
0.716996
11
0.908661
21
0.717717
0
LINE
8
BLACK
6
CONTINUOUS
10
0.908661
20
0.717717
11
0.908661
21
1.01772
0
LINE
8
BLACK
6
CONTINUOUS
10
0.908661
20
1.01772
11
0.908729
21
1.0181
0
LINE
8
BLACK
6
CONTINUOUS
10
0.908729
20
1.0181
11
0.908706
21
1.01823
0
LINE
8
BLACK
6
CONTINUOUS
10
0.908706
20
1.01823
11
0.908772
21
1.01834
0
LINE
8
BLACK
6
CONTINUOUS
10
0.908772
20
1.01834
11
0.908839
21
1.01873
0
LINE
8
BLACK
6
CONTINUOUS
10
0.908839
20
1.01873
11
0.909333
21
1.01931
0
LINE
8
BLACK
6
CONTINUOUS
10
0.909333
20
1.01931
11
0.909716
21
1.01998
0
LINE
8
BLACK
6
CONTINUOUS
10
0.909716
20
1.01998
11
0.909966
21
1.02007
0
LINE
8
BLACK
6
CONTINUOUS
10
0.909966
20
1.02007
11
0.910138
21
1.02027
0
LINE
8
BLACK
6
CONTINUOUS
10
0.910138
20
1.02027
11
0.910893
21
1.02041
0
LINE
8
BLACK
6
CONTINUOUS
10
0.910893
20
1.02041
11
0.911614
21
1.02067
0
LINE
8
BLACK
6
CONTINUOUS
10
0.911614
20
1.02067
11
1.11161
21
1.02067
0
LINE
8
BLACK
6
CONTINUOUS
10
1.11161
20
1.02067
11
1.112
21
1.0206
0
LINE
8
BLACK
6
CONTINUOUS
10
0.914567
20
1.01476
11
0.914567
21
0.720669
0
LINE
8
BLACK
6
CONTINUOUS
10
0.914567
20
0.720669
11
1.10866
21
0.720669
0
LINE
8
BLACK
6
CONTINUOUS
10
1.10866
20
0.720669
11
1.10866
21
1.01476
0
LINE
8
BLACK
6
CONTINUOUS
10
1.10866
20
1.01476
11
0.914567
21
1.01476
0
LINE
8
BLACK
6
CONTINUOUS
10
1.24606
20
1.30906
11
1.24745
21
1.30848
0
LINE
8
BLACK
6
CONTINUOUS
10
1.24745
20
1.30848
11
1.24803
21
1.30709
0
LINE
8
BLACK
6
CONTINUOUS
10
1.24803
20
1.30709
11
1.24803
21
1.20866
0
LINE
8
BLACK
6
CONTINUOUS
10
1.24803
20
1.20866
11
1.24745
21
1.20727
0
LINE
8
BLACK
6
CONTINUOUS
10
1.24745
20
1.20727
11
1.24606
21
1.20669
0
LINE
8
BLACK
6
CONTINUOUS
10
1.24606
20
1.20669
11
1.20669
21
1.20669
0
LINE
8
BLACK
6
CONTINUOUS
10
1.20669
20
1.20669
11
1.2053
21
1.20727
0
LINE
8
BLACK
6
CONTINUOUS
10
1.2053
20
1.20727
11
1.20472
21
1.20866
0
LINE
8
BLACK
6
CONTINUOUS
10
1.20472
20
1.20866
11
1.20472
21
1.30709
0
LINE
8
BLACK
6
CONTINUOUS
10
1.20472
20
1.30709
11
1.2053
21
1.30848
0
LINE
8
BLACK
6
CONTINUOUS
10
1.2053
20
1.30848
11
1.20669
21
1.30906
0
LINE
8
BLACK
6
CONTINUOUS
10
1.20669
20
1.30906
11
1.24606
21
1.30906
0
LINE
8
BLACK
6
CONTINUOUS
10
1.20866
20
1.30512
11
1.20866
21
1.21063
0
LINE
8
BLACK
6
CONTINUOUS
10
1.20866
20
1.21063
11
1.24409
21
1.21063
0
LINE
8
BLACK
6
CONTINUOUS
10
1.24409
20
1.21063
11
1.24409
21
1.30512
0
LINE
8
BLACK
6
CONTINUOUS
10
1.24409
20
1.30512
11
1.20866
21
1.30512
0
LINE
8
BLACK
6
CONTINUOUS
10
1.44291
20
1.30906
11
1.44431
21
1.30848
0
LINE
8
BLACK
6
CONTINUOUS
10
1.44431
20
1.30848
11
1.44488
21
1.30709
0
LINE
8
BLACK
6
CONTINUOUS
10
1.44488
20
1.30709
11
1.44488
21
1.20866
0
LINE
8
BLACK
6
CONTINUOUS
10
1.44488
20
1.20866
11
1.44431
21
1.20727
0
LINE
8
BLACK
6
CONTINUOUS
10
1.44431
20
1.20727
11
1.44291
21
1.20669
0
LINE
8
BLACK
6
CONTINUOUS
10
1.44291
20
1.20669
11
1.40354
21
1.20669
0
LINE
8
BLACK
6
CONTINUOUS
10
1.40354
20
1.20669
11
1.40215
21
1.20727
0
LINE
8
BLACK
6
CONTINUOUS
10
1.40215
20
1.20727
11
1.40157
21
1.20866
0
LINE
8
BLACK
6
CONTINUOUS
10
1.40157
20
1.20866
11
1.40157
21
1.20866
0
LINE
8
BLACK
6
CONTINUOUS
10
1.40157
20
1.20866
11
1.40157
21
1.30709
0
LINE
8
BLACK
6
CONTINUOUS
10
1.40157
20
1.30709
11
1.40215
21
1.30848
0
LINE
8
BLACK
6
CONTINUOUS
10
1.40215
20
1.30848
11
1.40354
21
1.30906
0
LINE
8
BLACK
6
CONTINUOUS
10
1.40354
20
1.30906
11
1.44291
21
1.30906
0
LINE
8
BLACK
6
CONTINUOUS
10
1.40551
20
1.30512
11
1.40551
21
1.21063
0
LINE
8
BLACK
6
CONTINUOUS
10
1.40551
20
1.21063
11
1.44094
21
1.21063
0
LINE
8
BLACK
6
CONTINUOUS
10
1.44094
20
1.21063
11
1.44094
21
1.30512
0
LINE
8
BLACK
6
CONTINUOUS
10
1.44094
20
1.30512
11
1.40551
21
1.30512
0
LINE
8
BLACK
6
CONTINUOUS
10
1.30897
20
1.45446
11
1.30966
21
1.45257
0
LINE
8
BLACK
6
CONTINUOUS
10
1.30966
20
1.45257
11
1.30966
21
1.42444
0
LINE
8
BLACK
6
CONTINUOUS
10
1.30966
20
1.42444
11
1.30951
21
1.42358
0
LINE
8
BLACK
6
CONTINUOUS
10
1.30951
20
1.42358
11
1.30951
21
1.42351
0
LINE
8
BLACK
6
CONTINUOUS
10
1.30951
20
1.42351
11
1.30764
21
1.41789
0
LINE
8
BLACK
6
CONTINUOUS
10
1.30764
20
1.41789
11
1.30715
21
1.41698
0
LINE
8
BLACK
6
CONTINUOUS
10
1.30715
20
1.41698
11
1.307
21
1.41689
0
LINE
8
BLACK
6
CONTINUOUS
10
1.307
20
1.41689
11
1.30692
21
1.41673
0
LINE
8
BLACK
6
CONTINUOUS
10
1.30692
20
1.41673
11
1.30318
21
1.41298
0
LINE
8
BLACK
6
CONTINUOUS
10
1.30318
20
1.41298
11
1.30234
21
1.41239
0
LINE
8
BLACK
6
CONTINUOUS
10
1.30234
20
1.41239
11
1.30216
21
1.41238
0
LINE
8
BLACK
6
CONTINUOUS
10
1.30216
20
1.41238
11
1.30202
21
1.41227
0
LINE
8
BLACK
6
CONTINUOUS
10
1.30202
20
1.41227
11
1.2964
21
1.41039
0
LINE
8
BLACK
6
CONTINUOUS
10
1.2964
20
1.41039
11
1.29552
21
1.41027
0
LINE
8
BLACK
6
CONTINUOUS
10
1.29552
20
1.41027
11
1.29546
21
1.41024
0
LINE
8
BLACK
6
CONTINUOUS
10
1.29546
20
1.41024
11
1.29171
21
1.41024
0
LINE
8
BLACK
6
CONTINUOUS
10
1.29171
20
1.41024
11
1.2907
21
1.41042
0
LINE
8
BLACK
6
CONTINUOUS
10
1.2907
20
1.41042
11
1.28916
21
1.41172
0
LINE
8
BLACK
6
CONTINUOUS
10
1.28916
20
1.41172
11
1.28881
21
1.41371
0
LINE
8
BLACK
6
CONTINUOUS
10
1.28881
20
1.41371
11
1.28982
21
1.41546
0
LINE
8
BLACK
6
CONTINUOUS
10
1.28982
20
1.41546
11
1.29171
21
1.41615
0
LINE
8
BLACK
6
CONTINUOUS
10
1.29171
20
1.41615
11
1.29498
21
1.41615
0
LINE
8
BLACK
6
CONTINUOUS
10
1.29498
20
1.41615
11
1.29949
21
1.41765
0
LINE
8
BLACK
6
CONTINUOUS
10
1.29949
20
1.41765
11
1.30226
21
1.42042
0
LINE
8
BLACK
6
CONTINUOUS
10
1.30226
20
1.42042
11
1.30376
21
1.42492
0
LINE
8
BLACK
6
CONTINUOUS
10
1.30376
20
1.42492
11
1.30376
21
1.45257
0
LINE
8
BLACK
6
CONTINUOUS
10
1.30376
20
1.45257
11
1.30394
21
1.45358
0
LINE
8
BLACK
6
CONTINUOUS
10
1.30394
20
1.45358
11
1.30524
21
1.45512
0
LINE
8
BLACK
6
CONTINUOUS
10
1.30524
20
1.45512
11
1.30722
21
1.45547
0
LINE
8
BLACK
6
CONTINUOUS
10
1.30722
20
1.45547
11
1.30897
21
1.45446
0
LINE
8
BLACK
6
CONTINUOUS
10
1.37267
20
1.45544
11
1.37284
21
1.45547
0
LINE
8
BLACK
6
CONTINUOUS
10
1.37284
20
1.45547
11
1.37358
21
1.45505
0
LINE
8
BLACK
6
CONTINUOUS
10
1.37358
20
1.45505
11
1.37437
21
1.4547
0
LINE
8
BLACK
6
CONTINUOUS
10
1.37437
20
1.4547
11
1.37444
21
1.45455
0
LINE
8
BLACK
6
CONTINUOUS
10
1.37444
20
1.45455
11
1.37459
21
1.45446
0
LINE
8
BLACK
6
CONTINUOUS
10
1.37459
20
1.45446
11
1.37488
21
1.45366
0
LINE
8
BLACK
6
CONTINUOUS
10
1.37488
20
1.45366
11
1.37526
21
1.45289
0
LINE
8
BLACK
6
CONTINUOUS
10
1.37526
20
1.45289
11
1.37522
21
1.45273
0
LINE
8
BLACK
6
CONTINUOUS
10
1.37522
20
1.45273
11
1.37528
21
1.45257
0
LINE
8
BLACK
6
CONTINUOUS
10
1.37528
20
1.45257
11
1.37528
21
1.41615
0
LINE
8
BLACK
6
CONTINUOUS
10
1.37528
20
1.41615
11
1.38358
21
1.41615
0
LINE
8
BLACK
6
CONTINUOUS
10
1.38358
20
1.41615
11
1.38459
21
1.41597
0
LINE
8
BLACK
6
CONTINUOUS
10
1.38459
20
1.41597
11
1.38613
21
1.41467
0
LINE
8
BLACK
6
CONTINUOUS
10
1.38613
20
1.41467
11
1.38648
21
1.41268
0
LINE
8
BLACK
6
CONTINUOUS
10
1.38648
20
1.41268
11
1.38548
21
1.41093
0
LINE
8
BLACK
6
CONTINUOUS
10
1.38548
20
1.41093
11
1.38358
21
1.41024
0
LINE
8
BLACK
6
CONTINUOUS
10
1.38358
20
1.41024
11
1.36108
21
1.41024
0
LINE
8
BLACK
6
CONTINUOUS
10
1.36108
20
1.41024
11
1.36007
21
1.41042
0
LINE
8
BLACK
6
CONTINUOUS
10
1.36007
20
1.41042
11
1.35852
21
1.41172
0
LINE
8
BLACK
6
CONTINUOUS
10
1.35852
20
1.41172
11
1.35817
21
1.41371
0
LINE
8
BLACK
6
CONTINUOUS
10
1.35817
20
1.41371
11
1.35918
21
1.41546
0
LINE
8
BLACK
6
CONTINUOUS
10
1.35918
20
1.41546
11
1.36108
21
1.41615
0
LINE
8
BLACK
6
CONTINUOUS
10
1.36108
20
1.41615
11
1.36938
21
1.41615
0
LINE
8
BLACK
6
CONTINUOUS
10
1.36938
20
1.41615
11
1.36938
21
1.44356
0
LINE
8
BLACK
6
CONTINUOUS
10
1.36938
20
1.44356
11
1.36692
21
1.4411
0
LINE
8
BLACK
6
CONTINUOUS
10
1.36692
20
1.4411
11
1.36619
21
1.4406
0
LINE
8
BLACK
6
CONTINUOUS
10
1.36619
20
1.4406
11
1.36615
21
1.44055
0
LINE
8
BLACK
6
CONTINUOUS
10
1.36615
20
1.44055
11
1.3624
21
1.43868
0
LINE
8
BLACK
6
CONTINUOUS
10
1.3624
20
1.43868
11
1.36142
21
1.43838
0
LINE
8
BLACK
6
CONTINUOUS
10
1.36142
20
1.43838
11
1.35945
21
1.43885
0
LINE
8
BLACK
6
CONTINUOUS
10
1.35945
20
1.43885
11
1.35825
21
1.44048
0
LINE
8
BLACK
6
CONTINUOUS
10
1.35825
20
1.44048
11
1.35837
21
1.44249
0
LINE
8
BLACK
6
CONTINUOUS
10
1.35837
20
1.44249
11
1.35976
21
1.44396
0
LINE
8
BLACK
6
CONTINUOUS
10
1.35976
20
1.44396
11
1.36308
21
1.44562
0
LINE
8
BLACK
6
CONTINUOUS
10
1.36308
20
1.44562
11
1.36628
21
1.44882
0
LINE
8
BLACK
6
CONTINUOUS
10
1.36628
20
1.44882
11
1.36987
21
1.4542
0
LINE
8
BLACK
6
CONTINUOUS
10
1.36987
20
1.4542
11
1.37058
21
1.45495
0
LINE
8
BLACK
6
CONTINUOUS
10
1.37058
20
1.45495
11
1.37074
21
1.45499
0
LINE
8
BLACK
6
CONTINUOUS
10
1.37074
20
1.45499
11
1.37085
21
1.45512
0
LINE
8
BLACK
6
CONTINUOUS
10
1.37085
20
1.45512
11
1.3717
21
1.45527
0
LINE
8
BLACK
6
CONTINUOUS
10
1.3717
20
1.45527
11
1.37252
21
1.45551
0
LINE
8
BLACK
6
CONTINUOUS
10
1.37252
20
1.45551
11
1.37267
21
1.45544
0
LINE
8
BLACK
6
CONTINUOUS
10
1.30512
20
1.53937
11
1.30651
21
1.53879
0
LINE
8
BLACK
6
CONTINUOUS
10
1.30651
20
1.53879
11
1.30709
21
1.5374
0
LINE
8
BLACK
6
CONTINUOUS
10
1.30709
20
1.5374
11
1.30709
21
1.49803
0
LINE
8
BLACK
6
CONTINUOUS
10
1.30709
20
1.49803
11
1.30651
21
1.49664
0
LINE
8
BLACK
6
CONTINUOUS
10
1.30651
20
1.49664
11
1.30512
21
1.49606
0
LINE
8
BLACK
6
CONTINUOUS
10
1.30512
20
1.49606
11
1.14764
21
1.49606
0
LINE
8
BLACK
6
CONTINUOUS
10
1.14764
20
1.49606
11
1.14625
21
1.49664
0
LINE
8
BLACK
6
CONTINUOUS
10
1.14625
20
1.49664
11
1.14567
21
1.49803
0
LINE
8
BLACK
6
CONTINUOUS
10
1.14567
20
1.49803
11
1.14567
21
1.5374
0
LINE
8
BLACK
6
CONTINUOUS
10
1.14567
20
1.5374
11
1.14625
21
1.53879
0
LINE
8
BLACK
6
CONTINUOUS
10
1.14625
20
1.53879
11
1.14764
21
1.53937
0
LINE
8
BLACK
6
CONTINUOUS
10
1.14764
20
1.53937
11
1.30512
21
1.53937
0
LINE
8
BLACK
6
CONTINUOUS
10
1.14961
20
1.53543
11
1.14961
21
1.5
0
LINE
8
BLACK
6
CONTINUOUS
10
1.14961
20
1.5
11
1.30315
21
1.5
0
LINE
8
BLACK
6
CONTINUOUS
10
1.30315
20
1.5
11
1.30315
21
1.53543
0
LINE
8
BLACK
6
CONTINUOUS
10
1.30315
20
1.53543
11
1.14961
21
1.53543
0
LINE
8
BLACK
6
CONTINUOUS
10
1.30512
20
1.69685
11
1.30651
21
1.69627
0
LINE
8
BLACK
6
CONTINUOUS
10
1.30651
20
1.69627
11
1.30709
21
1.69488
0
LINE
8
BLACK
6
CONTINUOUS
10
1.30709
20
1.69488
11
1.30709
21
1.56496
0
LINE
8
BLACK
6
CONTINUOUS
10
1.30709
20
1.56496
11
1.30651
21
1.56357
0
LINE
8
BLACK
6
CONTINUOUS
10
1.30651
20
1.56357
11
1.30512
21
1.56299
0
LINE
8
BLACK
6
CONTINUOUS
10
1.30512
20
1.56299
11
1.14764
21
1.56299
0
LINE
8
BLACK
6
CONTINUOUS
10
1.14764
20
1.56299
11
1.14625
21
1.56357
0
LINE
8
BLACK
6
CONTINUOUS
10
1.14625
20
1.56357
11
1.14567
21
1.56496
0
LINE
8
BLACK
6
CONTINUOUS
10
1.14567
20
1.56496
11
1.14567
21
1.56496
0
LINE
8
BLACK
6
CONTINUOUS
10
1.14567
20
1.56496
11
1.14567
21
1.69488
0
LINE
8
BLACK
6
CONTINUOUS
10
1.14567
20
1.69488
11
1.14625
21
1.69627
0
LINE
8
BLACK
6
CONTINUOUS
10
1.14625
20
1.69627
11
1.14764
21
1.69685
0
LINE
8
BLACK
6
CONTINUOUS
10
1.14764
20
1.69685
11
1.30512
21
1.69685
0
LINE
8
BLACK
6
CONTINUOUS
10
1.14961
20
1.69291
11
1.14961
21
1.56693
0
LINE
8
BLACK
6
CONTINUOUS
10
1.14961
20
1.56693
11
1.30315
21
1.56693
0
LINE
8
BLACK
6
CONTINUOUS
10
1.30315
20
1.56693
11
1.30315
21
1.69291
0
LINE
8
BLACK
6
CONTINUOUS
10
1.30315
20
1.69291
11
1.14961
21
1.69291
0
LINE
8
BLACK
6
CONTINUOUS
10
1.50197
20
1.53937
11
1.50336
21
1.53879
0
LINE
8
BLACK
6
CONTINUOUS
10
1.50336
20
1.53879
11
1.50394
21
1.5374
0
LINE
8
BLACK
6
CONTINUOUS
10
1.50394
20
1.5374
11
1.50394
21
1.49803
0
LINE
8
BLACK
6
CONTINUOUS
10
1.50394
20
1.49803
11
1.50336
21
1.49664
0
LINE
8
BLACK
6
CONTINUOUS
10
1.50336
20
1.49664
11
1.50197
21
1.49606
0
LINE
8
BLACK
6
CONTINUOUS
10
1.50197
20
1.49606
11
1.34449
21
1.49606
0
LINE
8
BLACK
6
CONTINUOUS
10
1.34449
20
1.49606
11
1.3431
21
1.49664
0
LINE
8
BLACK
6
CONTINUOUS
10
1.3431
20
1.49664
11
1.34252
21
1.49803
0
LINE
8
BLACK
6
CONTINUOUS
10
1.34252
20
1.49803
11
1.34252
21
1.5374
0
LINE
8
BLACK
6
CONTINUOUS
10
1.34252
20
1.5374
11
1.3431
21
1.53879
0
LINE
8
BLACK
6
CONTINUOUS
10
1.3431
20
1.53879
11
1.34449
21
1.53937
0
LINE
8
BLACK
6
CONTINUOUS
10
1.34449
20
1.53937
11
1.50197
21
1.53937
0
LINE
8
BLACK
6
CONTINUOUS
10
1.34646
20
1.53543
11
1.34646
21
1.5
0
LINE
8
BLACK
6
CONTINUOUS
10
1.34646
20
1.5
11
1.5
21
1.5
0
LINE
8
BLACK
6
CONTINUOUS
10
1.5
20
1.5
11
1.5
21
1.53543
0
LINE
8
BLACK
6
CONTINUOUS
10
1.5
20
1.53543
11
1.34646
21
1.53543
0
LINE
8
BLACK
6
CONTINUOUS
10
1.50197
20
1.69685
11
1.50336
21
1.69627
0
LINE
8
BLACK
6
CONTINUOUS
10
1.50336
20
1.69627
11
1.50394
21
1.69488
0
LINE
8
BLACK
6
CONTINUOUS
10
1.50394
20
1.69488
11
1.50394
21
1.56496
0
LINE
8
BLACK
6
CONTINUOUS
10
1.50394
20
1.56496
11
1.50336
21
1.56357
0
LINE
8
BLACK
6
CONTINUOUS
10
1.50336
20
1.56357
11
1.50197
21
1.56299
0
LINE
8
BLACK
6
CONTINUOUS
10
1.50197
20
1.56299
11
1.34449
21
1.56299
0
LINE
8
BLACK
6
CONTINUOUS
10
1.34449
20
1.56299
11
1.3431
21
1.56357
0
LINE
8
BLACK
6
CONTINUOUS
10
1.3431
20
1.56357
11
1.34252
21
1.56496
0
LINE
8
BLACK
6
CONTINUOUS
10
1.34252
20
1.56496
11
1.34252
21
1.69488
0
LINE
8
BLACK
6
CONTINUOUS
10
1.34252
20
1.69488
11
1.3431
21
1.69627
0
LINE
8
BLACK
6
CONTINUOUS
10
1.3431
20
1.69627
11
1.34449
21
1.69685
0
LINE
8
BLACK
6
CONTINUOUS
10
1.34449
20
1.69685
11
1.50197
21
1.69685
0
LINE
8
BLACK
6
CONTINUOUS
10
1.34646
20
1.69291
11
1.34646
21
1.56693
0
LINE
8
BLACK
6
CONTINUOUS
10
1.34646
20
1.56693
11
1.5
21
1.56693
0
LINE
8
BLACK
6
CONTINUOUS
10
1.5
20
1.56693
11
1.5
21
1.69291
0
LINE
8
BLACK
6
CONTINUOUS
10
1.5
20
1.69291
11
1.34646
21
1.69291
0
LINE
8
BLACK
6
CONTINUOUS
10
1.54134
20
1.74803
11
1.54273
21
1.74745
0
LINE
8
BLACK
6
CONTINUOUS
10
1.54273
20
1.74745
11
1.5821
21
1.70808
0
LINE
8
BLACK
6
CONTINUOUS
10
1.5821
20
1.70808
11
1.58268
21
1.70669
0
LINE
8
BLACK
6
CONTINUOUS
10
1.58268
20
1.70669
11
1.58268
21
1.70669
0
LINE
8
BLACK
6
CONTINUOUS
10
1.58268
20
1.70669
11
1.58268
21
1.19488
0
LINE
8
BLACK
6
CONTINUOUS
10
1.58268
20
1.19488
11
1.5821
21
1.19349
0
LINE
8
BLACK
6
CONTINUOUS
10
1.5821
20
1.19349
11
1.58071
21
1.19291
0
LINE
8
BLACK
6
CONTINUOUS
10
1.58071
20
1.19291
11
1.52165
21
1.19291
0
LINE
8
BLACK
6
CONTINUOUS
10
1.52165
20
1.19291
11
1.3248
21
1.19291
0
LINE
8
BLACK
6
CONTINUOUS
10
1.3248
20
1.19291
11
1.12795
21
1.19291
0
LINE
8
BLACK
6
CONTINUOUS
10
1.12795
20
1.19291
11
1.09646
21
1.19291
0
LINE
8
BLACK
6
CONTINUOUS
10
1.09646
20
1.19291
11
1.09506
21
1.19349
0
LINE
8
BLACK
6
CONTINUOUS
10
1.09506
20
1.19349
11
1.09449
21
1.19488
0
LINE
8
BLACK
6
CONTINUOUS
10
1.09449
20
1.19488
11
1.09449
21
1.74606
0
LINE
8
BLACK
6
CONTINUOUS
10
1.09449
20
1.74606
11
1.09506
21
1.74745
0
LINE
8
BLACK
6
CONTINUOUS
10
1.09506
20
1.74745
11
1.09646
21
1.74803
0
LINE
8
BLACK
6
CONTINUOUS
10
1.09646
20
1.74803
11
1.54134
21
1.74803
0
LINE
8
BLACK
6
CONTINUOUS
10
1.09843
20
1.37008
11
1.09843
21
1.19685
0
LINE
8
BLACK
6
CONTINUOUS
10
1.09843
20
1.19685
11
1.12598
21
1.19685
0
LINE
8
BLACK
6
CONTINUOUS
10
1.12598
20
1.19685
11
1.12598
21
1.37008
0
LINE
8
BLACK
6
CONTINUOUS
10
1.12598
20
1.37008
11
1.09843
21
1.37008
0
LINE
8
BLACK
6
CONTINUOUS
10
1.12992
20
1.37008
11
1.12992
21
1.19685
0
LINE
8
BLACK
6
CONTINUOUS
10
1.12992
20
1.19685
11
1.32283
21
1.19685
0
LINE
8
BLACK
6
CONTINUOUS
10
1.32283
20
1.19685
11
1.32283
21
1.37008
0
LINE
8
BLACK
6
CONTINUOUS
10
1.32283
20
1.37008
11
1.12992
21
1.37008
0
LINE
8
BLACK
6
CONTINUOUS
10
1.32677
20
1.37008
11
1.32677
21
1.19685
0
LINE
8
BLACK
6
CONTINUOUS
10
1.32677
20
1.19685
11
1.51969
21
1.19685
0
LINE
8
BLACK
6
CONTINUOUS
10
1.51969
20
1.19685
11
1.51969
21
1.37008
0
LINE
8
BLACK
6
CONTINUOUS
10
1.51969
20
1.37008
11
1.32677
21
1.37008
0
LINE
8
BLACK
6
CONTINUOUS
10
1.52362
20
1.37008
11
1.52362
21
1.19685
0
LINE
8
BLACK
6
CONTINUOUS
10
1.52362
20
1.19685
11
1.57874
21
1.19685
0
LINE
8
BLACK
6
CONTINUOUS
10
1.57874
20
1.19685
11
1.57874
21
1.37008
0
LINE
8
BLACK
6
CONTINUOUS
10
1.57874
20
1.37008
11
1.52362
21
1.37008
0
LINE
8
BLACK
6
CONTINUOUS
10
1.09843
20
1.48031
11
1.09843
21
1.37402
0
LINE
8
BLACK
6
CONTINUOUS
10
1.09843
20
1.37402
11
1.12598
21
1.37402
0
LINE
8
BLACK
6
CONTINUOUS
10
1.12598
20
1.37402
11
1.12598
21
1.48031
0
LINE
8
BLACK
6
CONTINUOUS
10
1.12598
20
1.48031
11
1.09843
21
1.48031
0
LINE
8
BLACK
6
CONTINUOUS
10
1.12992
20
1.48031
11
1.12992
21
1.37402
0
LINE
8
BLACK
6
CONTINUOUS
10
1.12992
20
1.37402
11
1.32283
21
1.37402
0
LINE
8
BLACK
6
CONTINUOUS
10
1.32283
20
1.37402
11
1.32283
21
1.41038
0
LINE
8
BLACK
6
CONTINUOUS
10
1.32283
20
1.41038
11
1.32257
21
1.41042
0
LINE
8
BLACK
6
CONTINUOUS
10
1.32257
20
1.41042
11
1.32103
21
1.41172
0
LINE
8
BLACK
6
CONTINUOUS
10
1.32103
20
1.41172
11
1.32068
21
1.41371
0
LINE
8
BLACK
6
CONTINUOUS
10
1.32068
20
1.41371
11
1.32169
21
1.41546
0
LINE
8
BLACK
6
CONTINUOUS
10
1.32169
20
1.41546
11
1.32283
21
1.41588
0
LINE
8
BLACK
6
CONTINUOUS
10
1.32283
20
1.41588
11
1.32283
21
1.43864
0
LINE
8
BLACK
6
CONTINUOUS
10
1.32283
20
1.43864
11
1.32196
21
1.43885
0
LINE
8
BLACK
6
CONTINUOUS
10
1.32196
20
1.43885
11
1.32075
21
1.44048
0
LINE
8
BLACK
6
CONTINUOUS
10
1.32075
20
1.44048
11
1.32088
21
1.44249
0
LINE
8
BLACK
6
CONTINUOUS
10
1.32088
20
1.44249
11
1.32226
21
1.44396
0
LINE
8
BLACK
6
CONTINUOUS
10
1.32226
20
1.44396
11
1.32283
21
1.44424
0
LINE
8
BLACK
6
CONTINUOUS
10
1.32283
20
1.44424
11
1.32283
21
1.48031
0
LINE
8
BLACK
6
CONTINUOUS
10
1.32283
20
1.48031
11
1.12992
21
1.48031
0
LINE
8
BLACK
6
CONTINUOUS
10
1.32677
20
1.48031
11
1.32677
21
1.44681
0
LINE
8
BLACK
6
CONTINUOUS
10
1.32677
20
1.44681
11
1.32879
21
1.44882
0
LINE
8
BLACK
6
CONTINUOUS
10
1.32879
20
1.44882
11
1.33238
21
1.4542
0
LINE
8
BLACK
6
CONTINUOUS
10
1.33238
20
1.4542
11
1.33308
21
1.45495
0
LINE
8
BLACK
6
CONTINUOUS
10
1.33308
20
1.45495
11
1.33325
21
1.45499
0
LINE
8
BLACK
6
CONTINUOUS
10
1.33325
20
1.45499
11
1.33336
21
1.45512
0
LINE
8
BLACK
6
CONTINUOUS
10
1.33336
20
1.45512
11
1.3342
21
1.45527
0
LINE
8
BLACK
6
CONTINUOUS
10
1.3342
20
1.45527
11
1.33502
21
1.45551
0
LINE
8
BLACK
6
CONTINUOUS
10
1.33502
20
1.45551
11
1.33518
21
1.45544
0
LINE
8
BLACK
6
CONTINUOUS
10
1.33518
20
1.45544
11
1.33535
21
1.45547
0
LINE
8
BLACK
6
CONTINUOUS
10
1.33535
20
1.45547
11
1.33609
21
1.45505
0
LINE
8
BLACK
6
CONTINUOUS
10
1.33609
20
1.45505
11
1.33687
21
1.4547
0
LINE
8
BLACK
6
CONTINUOUS
10
1.33687
20
1.4547
11
1.33695
21
1.45455
0
LINE
8
BLACK
6
CONTINUOUS
10
1.33695
20
1.45455
11
1.3371
21
1.45446
0
LINE
8
BLACK
6
CONTINUOUS
10
1.3371
20
1.45446
11
1.33739
21
1.45366
0
LINE
8
BLACK
6
CONTINUOUS
10
1.33739
20
1.45366
11
1.33777
21
1.45289
0
LINE
8
BLACK
6
CONTINUOUS
10
1.33777
20
1.45289
11
1.33773
21
1.45273
0
LINE
8
BLACK
6
CONTINUOUS
10
1.33773
20
1.45273
11
1.33779
21
1.45257
0
LINE
8
BLACK
6
CONTINUOUS
10
1.33779
20
1.45257
11
1.33779
21
1.41615
0
LINE
8
BLACK
6
CONTINUOUS
10
1.33779
20
1.41615
11
1.34608
21
1.41615
0
LINE
8
BLACK
6
CONTINUOUS
10
1.34608
20
1.41615
11
1.34709
21
1.41597
0
LINE
8
BLACK
6
CONTINUOUS
10
1.34709
20
1.41597
11
1.34864
21
1.41467
0
LINE
8
BLACK
6
CONTINUOUS
10
1.34864
20
1.41467
11
1.34899
21
1.41268
0
LINE
8
BLACK
6
CONTINUOUS
10
1.34899
20
1.41268
11
1.34798
21
1.41093
0
LINE
8
BLACK
6
CONTINUOUS
10
1.34798
20
1.41093
11
1.34608
21
1.41024
0
LINE
8
BLACK
6
CONTINUOUS
10
1.34608
20
1.41024
11
1.32677
21
1.41024
0
LINE
8
BLACK
6
CONTINUOUS
10
1.32677
20
1.41024
11
1.32677
21
1.37402
0
LINE
8
BLACK
6
CONTINUOUS
10
1.32677
20
1.37402
11
1.51969
21
1.37402
0
LINE
8
BLACK
6
CONTINUOUS
10
1.51969
20
1.37402
11
1.51969
21
1.48031
0
LINE
8
BLACK
6
CONTINUOUS
10
1.51969
20
1.48031
11
1.32677
21
1.48031
0
LINE
8
BLACK
6
CONTINUOUS
10
1.52362
20
1.48031
11
1.52362
21
1.37402
0
LINE
8
BLACK
6
CONTINUOUS
10
1.52362
20
1.37402
11
1.57874
21
1.37402
0
LINE
8
BLACK
6
CONTINUOUS
10
1.57874
20
1.37402
11
1.57874
21
1.48031
0
LINE
8
BLACK
6
CONTINUOUS
10
1.57874
20
1.48031
11
1.52362
21
1.48031
0
LINE
8
BLACK
6
CONTINUOUS
10
1.32942
20
1.4411
11
1.3287
21
1.4406
0
LINE
8
BLACK
6
CONTINUOUS
10
1.3287
20
1.4406
11
1.32865
21
1.44055
0
LINE
8
BLACK
6
CONTINUOUS
10
1.32865
20
1.44055
11
1.32677
21
1.43961
0
LINE
8
BLACK
6
CONTINUOUS
10
1.32677
20
1.43961
11
1.32677
21
1.41615
0
LINE
8
BLACK
6
CONTINUOUS
10
1.32677
20
1.41615
11
1.33188
21
1.41615
0
LINE
8
BLACK
6
CONTINUOUS
10
1.33188
20
1.41615
11
1.33188
21
1.44356
0
LINE
8
BLACK
6
CONTINUOUS
10
1.33188
20
1.44356
11
1.32942
21
1.4411
0
LINE
8
BLACK
6
CONTINUOUS
10
1.09843
20
1.70472
11
1.09843
21
1.48425
0
LINE
8
BLACK
6
CONTINUOUS
10
1.09843
20
1.48425
11
1.12598
21
1.48425
0
LINE
8
BLACK
6
CONTINUOUS
10
1.12598
20
1.48425
11
1.12598
21
1.70472
0
LINE
8
BLACK
6
CONTINUOUS
10
1.12598
20
1.70472
11
1.09843
21
1.70472
0
LINE
8
BLACK
6
CONTINUOUS
10
1.12992
20
1.70472
11
1.12992
21
1.48425
0
LINE
8
BLACK
6
CONTINUOUS
10
1.12992
20
1.48425
11
1.32283
21
1.48425
0
LINE
8
BLACK
6
CONTINUOUS
10
1.32283
20
1.48425
11
1.32283
21
1.70472
0
LINE
8
BLACK
6
CONTINUOUS
10
1.32283
20
1.70472
11
1.12992
21
1.70472
0
LINE
8
BLACK
6
CONTINUOUS
10
1.32677
20
1.70472
11
1.32677
21
1.48425
0
LINE
8
BLACK
6
CONTINUOUS
10
1.32677
20
1.48425
11
1.51969
21
1.48425
0
LINE
8
BLACK
6
CONTINUOUS
10
1.51969
20
1.48425
11
1.51969
21
1.70472
0
LINE
8
BLACK
6
CONTINUOUS
10
1.51969
20
1.70472
11
1.32677
21
1.70472
0
LINE
8
BLACK
6
CONTINUOUS
10
1.52362
20
1.70472
11
1.52362
21
1.48425
0
LINE
8
BLACK
6
CONTINUOUS
10
1.52362
20
1.48425
11
1.57874
21
1.48425
0
LINE
8
BLACK
6
CONTINUOUS
10
1.57874
20
1.48425
11
1.57874
21
1.70472
0
LINE
8
BLACK
6
CONTINUOUS
10
1.57874
20
1.70472
11
1.52362
21
1.70472
0
LINE
8
BLACK
6
CONTINUOUS
10
1.09843
20
1.74409
11
1.09843
21
1.70866
0
LINE
8
BLACK
6
CONTINUOUS
10
1.09843
20
1.70866
11
1.12598
21
1.70866
0
LINE
8
BLACK
6
CONTINUOUS
10
1.12598
20
1.70866
11
1.12598
21
1.74409
0
LINE
8
BLACK
6
CONTINUOUS
10
1.12598
20
1.74409
11
1.09843
21
1.74409
0
LINE
8
BLACK
6
CONTINUOUS
10
1.12992
20
1.74409
11
1.12992
21
1.70866
0
LINE
8
BLACK
6
CONTINUOUS
10
1.12992
20
1.70866
11
1.32283
21
1.70866
0
LINE
8
BLACK
6
CONTINUOUS
10
1.32283
20
1.70866
11
1.32283
21
1.74409
0
LINE
8
BLACK
6
CONTINUOUS
10
1.32283
20
1.74409
11
1.12992
21
1.74409
0
LINE
8
BLACK
6
CONTINUOUS
10
1.32677
20
1.74409
11
1.32677
21
1.70866
0
LINE
8
BLACK
6
CONTINUOUS
10
1.32677
20
1.70866
11
1.51969
21
1.70866
0
LINE
8
BLACK
6
CONTINUOUS
10
1.51969
20
1.70866
11
1.51969
21
1.74409
0
LINE
8
BLACK
6
CONTINUOUS
10
1.51969
20
1.74409
11
1.32677
21
1.74409
0
LINE
8
BLACK
6
CONTINUOUS
10
1.52362
20
1.74409
11
1.52362
21
1.70866
0
LINE
8
BLACK
6
CONTINUOUS
10
1.52362
20
1.70866
11
1.57596
21
1.70866
0
LINE
8
BLACK
6
CONTINUOUS
10
1.57596
20
1.70866
11
1.54052
21
1.74409
0
LINE
8
BLACK
6
CONTINUOUS
10
1.54052
20
1.74409
11
1.52362
21
1.74409
0
LINE
8
BLACK
6
CONTINUOUS
10
1.98568
20
1.38019
11
1.98647
21
1.37834
0
LINE
8
BLACK
6
CONTINUOUS
10
1.98647
20
1.37834
11
1.98589
21
1.3764
0
LINE
8
BLACK
6
CONTINUOUS
10
1.98589
20
1.3764
11
1.97055
21
1.35595
0
LINE
8
BLACK
6
CONTINUOUS
10
1.97055
20
1.35595
11
1.98561
21
1.34089
0
LINE
8
BLACK
6
CONTINUOUS
10
1.98561
20
1.34089
11
1.9862
21
1.34005
0
LINE
8
BLACK
6
CONTINUOUS
10
1.9862
20
1.34005
11
1.98638
21
1.33804
0
LINE
8
BLACK
6
CONTINUOUS
10
1.98638
20
1.33804
11
1.98522
21
1.33639
0
LINE
8
BLACK
6
CONTINUOUS
10
1.98522
20
1.33639
11
1.98327
21
1.33586
0
LINE
8
BLACK
6
CONTINUOUS
10
1.98327
20
1.33586
11
1.98144
21
1.33672
0
LINE
8
BLACK
6
CONTINUOUS
10
1.98144
20
1.33672
11
1.96398
21
1.35417
0
LINE
8
BLACK
6
CONTINUOUS
10
1.96398
20
1.35417
11
1.96398
21
1.3388
0
LINE
8
BLACK
6
CONTINUOUS
10
1.96398
20
1.3388
11
1.9638
21
1.33779
0
LINE
8
BLACK
6
CONTINUOUS
10
1.9638
20
1.33779
11
1.9625
21
1.33625
0
LINE
8
BLACK
6
CONTINUOUS
10
1.9625
20
1.33625
11
1.96051
21
1.3359
0
LINE
8
BLACK
6
CONTINUOUS
10
1.96051
20
1.3359
11
1.95877
21
1.33691
0
LINE
8
BLACK
6
CONTINUOUS
10
1.95877
20
1.33691
11
1.95807
21
1.3388
0
LINE
8
BLACK
6
CONTINUOUS
10
1.95807
20
1.3388
11
1.95807
21
1.37817
0
LINE
8
BLACK
6
CONTINUOUS
10
1.95807
20
1.37817
11
1.95825
21
1.37918
0
LINE
8
BLACK
6
CONTINUOUS
10
1.95825
20
1.37918
11
1.95955
21
1.38073
0
LINE
8
BLACK
6
CONTINUOUS
10
1.95955
20
1.38073
11
1.96154
21
1.38108
0
LINE
8
BLACK
6
CONTINUOUS
10
1.96154
20
1.38108
11
1.96329
21
1.38007
0
LINE
8
BLACK
6
CONTINUOUS
10
1.96329
20
1.38007
11
1.96398
21
1.37817
0
LINE
8
BLACK
6
CONTINUOUS
10
1.96398
20
1.37817
11
1.96398
21
1.36252
0
LINE
8
BLACK
6
CONTINUOUS
10
1.96398
20
1.36252
11
1.96633
21
1.36017
0
LINE
8
BLACK
6
CONTINUOUS
10
1.96633
20
1.36017
11
1.98116
21
1.37995
0
LINE
8
BLACK
6
CONTINUOUS
10
1.98116
20
1.37995
11
1.98191
21
1.38065
0
LINE
8
BLACK
6
CONTINUOUS
10
1.98191
20
1.38065
11
1.98388
21
1.38111
0
LINE
8
BLACK
6
CONTINUOUS
10
1.98388
20
1.38111
11
1.98568
21
1.38019
0
LINE
8
BLACK
6
CONTINUOUS
10
0.305401
20
1.72481
11
0.319287
21
1.72245
0
LINE
8
BLACK
6
CONTINUOUS
10
0.319287
20
1.72245
11
0.332822
21
1.71855
0
LINE
8
BLACK
6
CONTINUOUS
10
0.332822
20
1.71855
11
0.345834
21
1.71316
0
LINE
8
BLACK
6
CONTINUOUS
10
0.345834
20
1.71316
11
0.358162
21
1.70635
0
LINE
8
BLACK
6
CONTINUOUS
10
0.358162
20
1.70635
11
0.369649
21
1.6982
0
LINE
8
BLACK
6
CONTINUOUS
10
0.369649
20
1.6982
11
0.380151
21
1.68881
0
LINE
8
BLACK
6
CONTINUOUS
10
0.380151
20
1.68881
11
0.389537
21
1.67831
0
LINE
8
BLACK
6
CONTINUOUS
10
0.389537
20
1.67831
11
0.397687
21
1.66682
0
LINE
8
BLACK
6
CONTINUOUS
10
0.397687
20
1.66682
11
0.4045
21
1.6545
0
LINE
8
BLACK
6
CONTINUOUS
10
0.4045
20
1.6545
11
0.40989
21
1.64148
0
LINE
8
BLACK
6
CONTINUOUS
10
0.40989
20
1.64148
11
0.41379
21
1.62795
0
LINE
8
BLACK
6
CONTINUOUS
10
0.41379
20
1.62795
11
0.416149
21
1.61406
0
LINE
8
BLACK
6
CONTINUOUS
10
0.416149
20
1.61406
11
0.416939
21
1.6
0
LINE
8
BLACK
6
CONTINUOUS
10
0.416939
20
1.6
11
0.416149
21
1.58594
0
LINE
8
BLACK
6
CONTINUOUS
10
0.416149
20
1.58594
11
0.41379
21
1.57205
0
LINE
8
BLACK
6
CONTINUOUS
10
0.41379
20
1.57205
11
0.40989
21
1.55852
0
LINE
8
BLACK
6
CONTINUOUS
10
0.40989
20
1.55852
11
0.4045
21
1.5455
0
LINE
8
BLACK
6
CONTINUOUS
10
0.4045
20
1.5455
11
0.397687
21
1.53318
0
LINE
8
BLACK
6
CONTINUOUS
10
0.397687
20
1.53318
11
0.389537
21
1.52169
0
LINE
8
BLACK
6
CONTINUOUS
10
0.389537
20
1.52169
11
0.380151
21
1.51119
0
LINE
8
BLACK
6
CONTINUOUS
10
0.380151
20
1.51119
11
0.369649
21
1.5018
0
LINE
8
BLACK
6
CONTINUOUS
10
0.369649
20
1.5018
11
0.358162
21
1.49365
0
LINE
8
BLACK
6
CONTINUOUS
10
0.358162
20
1.49365
11
0.345834
21
1.48684
0
LINE
8
BLACK
6
CONTINUOUS
10
0.345834
20
1.48684
11
0.332822
21
1.48145
0
LINE
8
BLACK
6
CONTINUOUS
10
0.332822
20
1.48145
11
0.319287
21
1.47755
0
LINE
8
BLACK
6
CONTINUOUS
10
0.319287
20
1.47755
11
0.305401
21
1.47519
0
LINE
8
BLACK
6
CONTINUOUS
10
0.305401
20
1.47519
11
0.291339
21
1.4744
0
LINE
8
BLACK
6
CONTINUOUS
10
0.291339
20
1.4744
11
0.277276
21
1.47519
0
LINE
8
BLACK
6
CONTINUOUS
10
0.277276
20
1.47519
11
0.26339
21
1.47755
0
LINE
8
BLACK
6
CONTINUOUS
10
0.26339
20
1.47755
11
0.249856
21
1.48145
0
LINE
8
BLACK
6
CONTINUOUS
10
0.249856
20
1.48145
11
0.236843
21
1.48684
0
LINE
8
BLACK
6
CONTINUOUS
10
0.236843
20
1.48684
11
0.224515
21
1.49365
0
LINE
8
BLACK
6
CONTINUOUS
10
0.224515
20
1.49365
11
0.213028
21
1.5018
0
LINE
8
BLACK
6
CONTINUOUS
10
0.213028
20
1.5018
11
0.202526
21
1.51119
0
LINE
8
BLACK
6
CONTINUOUS
10
0.202526
20
1.51119
11
0.193141
21
1.52169
0
LINE
8
BLACK
6
CONTINUOUS
10
0.193141
20
1.52169
11
0.18499
21
1.53318
0
LINE
8
BLACK
6
CONTINUOUS
10
0.18499
20
1.53318
11
0.178177
21
1.5455
0
LINE
8
BLACK
6
CONTINUOUS
10
0.178177
20
1.5455
11
0.172787
21
1.55852
0
LINE
8
BLACK
6
CONTINUOUS
10
0.172787
20
1.55852
11
0.168888
21
1.57205
0
LINE
8
BLACK
6
CONTINUOUS
10
0.168888
20
1.57205
11
0.166528
21
1.58594
0
LINE
8
BLACK
6
CONTINUOUS
10
0.166528
20
1.58594
11
0.165739
21
1.6
0
LINE
8
BLACK
6
CONTINUOUS
10
0.165739
20
1.6
11
0.166528
21
1.61406
0
LINE
8
BLACK
6
CONTINUOUS
10
0.166528
20
1.61406
11
0.168888
21
1.62795
0
LINE
8
BLACK
6
CONTINUOUS
10
0.168888
20
1.62795
11
0.172787
21
1.64148
0
LINE
8
BLACK
6
CONTINUOUS
10
0.172787
20
1.64148
11
0.178177
21
1.6545
0
LINE
8
BLACK
6
CONTINUOUS
10
0.178177
20
1.6545
11
0.18499
21
1.66682
0
LINE
8
BLACK
6
CONTINUOUS
10
0.18499
20
1.66682
11
0.193141
21
1.67831
0
LINE
8
BLACK
6
CONTINUOUS
10
0.193141
20
1.67831
11
0.202526
21
1.68881
0
LINE
8
BLACK
6
CONTINUOUS
10
0.202526
20
1.68881
11
0.213028
21
1.6982
0
LINE
8
BLACK
6
CONTINUOUS
10
0.213028
20
1.6982
11
0.224515
21
1.70635
0
LINE
8
BLACK
6
CONTINUOUS
10
0.224515
20
1.70635
11
0.236843
21
1.71316
0
LINE
8
BLACK
6
CONTINUOUS
10
0.236843
20
1.71316
11
0.249856
21
1.71855
0
LINE
8
BLACK
6
CONTINUOUS
10
0.249856
20
1.71855
11
0.26339
21
1.72245
0
LINE
8
BLACK
6
CONTINUOUS
10
0.26339
20
1.72245
11
0.277276
21
1.72481
0
LINE
8
BLACK
6
CONTINUOUS
10
0.277276
20
1.72481
11
0.291339
21
1.7256
0
LINE
8
BLACK
6
CONTINUOUS
10
0.291339
20
1.7256
11
0.305401
21
1.72481
0
LINE
8
BLACK
6
CONTINUOUS
10
0.1813
20
1.58714
11
0.183537
21
1.57445
0
LINE
8
BLACK
6
CONTINUOUS
10
0.183537
20
1.57445
11
0.187232
21
1.56211
0
LINE
8
BLACK
6
CONTINUOUS
10
0.187232
20
1.56211
11
0.192335
21
1.55028
0
LINE
8
BLACK
6
CONTINUOUS
10
0.192335
20
1.55028
11
0.198777
21
1.53912
0
LINE
8
BLACK
6
CONTINUOUS
10
0.198777
20
1.53912
11
0.20647
21
1.52879
0
LINE
8
BLACK
6
CONTINUOUS
10
0.20647
20
1.52879
11
0.215312
21
1.51942
0
LINE
8
BLACK
6
CONTINUOUS
10
0.215312
20
1.51942
11
0.225181
21
1.51113
0
LINE
8
BLACK
6
CONTINUOUS
10
0.225181
20
1.51113
11
0.235945
21
1.50406
0
LINE
8
BLACK
6
CONTINUOUS
10
0.235945
20
1.50406
11
0.247458
21
1.49827
0
LINE
8
BLACK
6
CONTINUOUS
10
0.247458
20
1.49827
11
0.259564
21
1.49387
0
LINE
8
BLACK
6
CONTINUOUS
10
0.259564
20
1.49387
11
0.272101
21
1.4909
0
LINE
8
BLACK
6
CONTINUOUS
10
0.272101
20
1.4909
11
0.284897
21
1.4894
0
LINE
8
BLACK
6
CONTINUOUS
10
0.284897
20
1.4894
11
0.29778
21
1.4894
0
LINE
8
BLACK
6
CONTINUOUS
10
0.29778
20
1.4894
11
0.310577
21
1.4909
0
LINE
8
BLACK
6
CONTINUOUS
10
0.310577
20
1.4909
11
0.323113
21
1.49387
0
LINE
8
BLACK
6
CONTINUOUS
10
0.323113
20
1.49387
11
0.335219
21
1.49827
0
LINE
8
BLACK
6
CONTINUOUS
10
0.335219
20
1.49827
11
0.346732
21
1.50406
0
LINE
8
BLACK
6
CONTINUOUS
10
0.346732
20
1.50406
11
0.357496
21
1.51113
0
LINE
8
BLACK
6
CONTINUOUS
10
0.357496
20
1.51113
11
0.367366
21
1.51942
0
LINE
8
BLACK
6
CONTINUOUS
10
0.367366
20
1.51942
11
0.376207
21
1.52879
0
LINE
8
BLACK
6
CONTINUOUS
10
0.376207
20
1.52879
11
0.3839
21
1.53912
0
LINE
8
BLACK
6
CONTINUOUS
10
0.3839
20
1.53912
11
0.390342
21
1.55028
0
LINE
8
BLACK
6
CONTINUOUS
10
0.390342
20
1.55028
11
0.395445
21
1.56211
0
LINE
8
BLACK
6
CONTINUOUS
10
0.395445
20
1.56211
11
0.39914
21
1.57445
0
LINE
8
BLACK
6
CONTINUOUS
10
0.39914
20
1.57445
11
0.401377
21
1.58714
0
LINE
8
BLACK
6
CONTINUOUS
10
0.401377
20
1.58714
11
0.402126
21
1.6
0
LINE
8
BLACK
6
CONTINUOUS
10
0.402126
20
1.6
11
0.401377
21
1.61286
0
LINE
8
BLACK
6
CONTINUOUS
10
0.401377
20
1.61286
11
0.39914
21
1.62555
0
LINE
8
BLACK
6
CONTINUOUS
10
0.39914
20
1.62555
11
0.395445
21
1.63789
0
LINE
8
BLACK
6
CONTINUOUS
10
0.395445
20
1.63789
11
0.390342
21
1.64972
0
LINE
8
BLACK
6
CONTINUOUS
10
0.390342
20
1.64972
11
0.3839
21
1.66088
0
LINE
8
BLACK
6
CONTINUOUS
10
0.3839
20
1.66088
11
0.376207
21
1.67121
0
LINE
8
BLACK
6
CONTINUOUS
10
0.376207
20
1.67121
11
0.367366
21
1.68058
0
LINE
8
BLACK
6
CONTINUOUS
10
0.367366
20
1.68058
11
0.357496
21
1.68887
0
LINE
8
BLACK
6
CONTINUOUS
10
0.357496
20
1.68887
11
0.346732
21
1.69594
0
LINE
8
BLACK
6
CONTINUOUS
10
0.346732
20
1.69594
11
0.335219
21
1.70173
0
LINE
8
BLACK
6
CONTINUOUS
10
0.335219
20
1.70173
11
0.323113
21
1.70613
0
LINE
8
BLACK
6
CONTINUOUS
10
0.323113
20
1.70613
11
0.310577
21
1.7091
0
LINE
8
BLACK
6
CONTINUOUS
10
0.310577
20
1.7091
11
0.29778
21
1.7106
0
LINE
8
BLACK
6
CONTINUOUS
10
0.29778
20
1.7106
11
0.284897
21
1.7106
0
LINE
8
BLACK
6
CONTINUOUS
10
0.284897
20
1.7106
11
0.272101
21
1.7091
0
LINE
8
BLACK
6
CONTINUOUS
10
0.272101
20
1.7091
11
0.259564
21
1.70613
0
LINE
8
BLACK
6
CONTINUOUS
10
0.259564
20
1.70613
11
0.247458
21
1.70173
0
LINE
8
BLACK
6
CONTINUOUS
10
0.247458
20
1.70173
11
0.235945
21
1.69594
0
LINE
8
BLACK
6
CONTINUOUS
10
0.235945
20
1.69594
11
0.225181
21
1.68887
0
LINE
8
BLACK
6
CONTINUOUS
10
0.225181
20
1.68887
11
0.215312
21
1.68058
0
LINE
8
BLACK
6
CONTINUOUS
10
0.215312
20
1.68058
11
0.20647
21
1.67121
0
LINE
8
BLACK
6
CONTINUOUS
10
0.20647
20
1.67121
11
0.198777
21
1.66088
0
LINE
8
BLACK
6
CONTINUOUS
10
0.198777
20
1.66088
11
0.192335
21
1.64972
0
LINE
8
BLACK
6
CONTINUOUS
10
0.192335
20
1.64972
11
0.187232
21
1.63789
0
LINE
8
BLACK
6
CONTINUOUS
10
0.187232
20
1.63789
11
0.183537
21
1.62555
0
LINE
8
BLACK
6
CONTINUOUS
10
0.183537
20
1.62555
11
0.1813
21
1.61286
0
LINE
8
BLACK
6
CONTINUOUS
10
0.1813
20
1.61286
11
0.180551
21
1.6
0
LINE
8
BLACK
6
CONTINUOUS
10
0.180551
20
1.6
11
0.1813
21
1.58714
0
LINE
8
BLACK
6
CONTINUOUS
10
1.9054
20
1.72481
11
1.91929
21
1.72245
0
LINE
8
BLACK
6
CONTINUOUS
10
1.91929
20
1.72245
11
1.93282
21
1.71855
0
LINE
8
BLACK
6
CONTINUOUS
10
1.93282
20
1.71855
11
1.94583
21
1.71316
0
LINE
8
BLACK
6
CONTINUOUS
10
1.94583
20
1.71316
11
1.95816
21
1.70635
0
LINE
8
BLACK
6
CONTINUOUS
10
1.95816
20
1.70635
11
1.96965
21
1.6982
0
LINE
8
BLACK
6
CONTINUOUS
10
1.96965
20
1.6982
11
1.98015
21
1.68881
0
LINE
8
BLACK
6
CONTINUOUS
10
1.98015
20
1.68881
11
1.98954
21
1.67831
0
LINE
8
BLACK
6
CONTINUOUS
10
1.98954
20
1.67831
11
1.99769
21
1.66682
0
LINE
8
BLACK
6
CONTINUOUS
10
1.99769
20
1.66682
11
2.0045
21
1.6545
0
LINE
8
BLACK
6
CONTINUOUS
10
2.0045
20
1.6545
11
2.00989
21
1.64148
0
LINE
8
BLACK
6
CONTINUOUS
10
2.00989
20
1.64148
11
2.01379
21
1.62795
0
LINE
8
BLACK
6
CONTINUOUS
10
2.01379
20
1.62795
11
2.01615
21
1.61406
0
LINE
8
BLACK
6
CONTINUOUS
10
2.01615
20
1.61406
11
2.01694
21
1.6
0
LINE
8
BLACK
6
CONTINUOUS
10
2.01694
20
1.6
11
2.01615
21
1.58594
0
LINE
8
BLACK
6
CONTINUOUS
10
2.01615
20
1.58594
11
2.01379
21
1.57205
0
LINE
8
BLACK
6
CONTINUOUS
10
2.01379
20
1.57205
11
2.00989
21
1.55852
0
LINE
8
BLACK
6
CONTINUOUS
10
2.00989
20
1.55852
11
2.0045
21
1.5455
0
LINE
8
BLACK
6
CONTINUOUS
10
2.0045
20
1.5455
11
1.99769
21
1.53318
0
LINE
8
BLACK
6
CONTINUOUS
10
1.99769
20
1.53318
11
1.98954
21
1.52169
0
LINE
8
BLACK
6
CONTINUOUS
10
1.98954
20
1.52169
11
1.98015
21
1.51119
0
LINE
8
BLACK
6
CONTINUOUS
10
1.98015
20
1.51119
11
1.96965
21
1.5018
0
LINE
8
BLACK
6
CONTINUOUS
10
1.96965
20
1.5018
11
1.95816
21
1.49365
0
LINE
8
BLACK
6
CONTINUOUS
10
1.95816
20
1.49365
11
1.94583
21
1.48684
0
LINE
8
BLACK
6
CONTINUOUS
10
1.94583
20
1.48684
11
1.93282
21
1.48145
0
LINE
8
BLACK
6
CONTINUOUS
10
1.93282
20
1.48145
11
1.91929
21
1.47755
0
LINE
8
BLACK
6
CONTINUOUS
10
1.91929
20
1.47755
11
1.9054
21
1.47519
0
LINE
8
BLACK
6
CONTINUOUS
10
1.9054
20
1.47519
11
1.89134
21
1.4744
0
LINE
8
BLACK
6
CONTINUOUS
10
1.89134
20
1.4744
11
1.87728
21
1.47519
0
LINE
8
BLACK
6
CONTINUOUS
10
1.87728
20
1.47519
11
1.86339
21
1.47755
0
LINE
8
BLACK
6
CONTINUOUS
10
1.86339
20
1.47755
11
1.84986
21
1.48145
0
LINE
8
BLACK
6
CONTINUOUS
10
1.84986
20
1.48145
11
1.83684
21
1.48684
0
LINE
8
BLACK
6
CONTINUOUS
10
1.83684
20
1.48684
11
1.82452
21
1.49365
0
LINE
8
BLACK
6
CONTINUOUS
10
1.82452
20
1.49365
11
1.81303
21
1.5018
0
LINE
8
BLACK
6
CONTINUOUS
10
1.81303
20
1.5018
11
1.80253
21
1.51119
0
LINE
8
BLACK
6
CONTINUOUS
10
1.80253
20
1.51119
11
1.79314
21
1.52169
0
LINE
8
BLACK
6
CONTINUOUS
10
1.79314
20
1.52169
11
1.78499
21
1.53318
0
LINE
8
BLACK
6
CONTINUOUS
10
1.78499
20
1.53318
11
1.77818
21
1.5455
0
LINE
8
BLACK
6
CONTINUOUS
10
1.77818
20
1.5455
11
1.77279
21
1.55852
0
LINE
8
BLACK
6
CONTINUOUS
10
1.77279
20
1.55852
11
1.76889
21
1.57205
0
LINE
8
BLACK
6
CONTINUOUS
10
1.76889
20
1.57205
11
1.76653
21
1.58594
0
LINE
8
BLACK
6
CONTINUOUS
10
1.76653
20
1.58594
11
1.76574
21
1.6
0
LINE
8
BLACK
6
CONTINUOUS
10
1.76574
20
1.6
11
1.76653
21
1.61406
0
LINE
8
BLACK
6
CONTINUOUS
10
1.76653
20
1.61406
11
1.76889
21
1.62795
0
LINE
8
BLACK
6
CONTINUOUS
10
1.76889
20
1.62795
11
1.77279
21
1.64148
0
LINE
8
BLACK
6
CONTINUOUS
10
1.77279
20
1.64148
11
1.77818
21
1.6545
0
LINE
8
BLACK
6
CONTINUOUS
10
1.77818
20
1.6545
11
1.78499
21
1.66682
0
LINE
8
BLACK
6
CONTINUOUS
10
1.78499
20
1.66682
11
1.79314
21
1.67831
0
LINE
8
BLACK
6
CONTINUOUS
10
1.79314
20
1.67831
11
1.80253
21
1.68881
0
LINE
8
BLACK
6
CONTINUOUS
10
1.80253
20
1.68881
11
1.81303
21
1.6982
0
LINE
8
BLACK
6
CONTINUOUS
10
1.81303
20
1.6982
11
1.82452
21
1.70635
0
LINE
8
BLACK
6
CONTINUOUS
10
1.82452
20
1.70635
11
1.83684
21
1.71316
0
LINE
8
BLACK
6
CONTINUOUS
10
1.83684
20
1.71316
11
1.84986
21
1.71855
0
LINE
8
BLACK
6
CONTINUOUS
10
1.84986
20
1.71855
11
1.86339
21
1.72245
0
LINE
8
BLACK
6
CONTINUOUS
10
1.86339
20
1.72245
11
1.87728
21
1.72481
0
LINE
8
BLACK
6
CONTINUOUS
10
1.87728
20
1.72481
11
1.89134
21
1.7256
0
LINE
8
BLACK
6
CONTINUOUS
10
1.89134
20
1.7256
11
1.9054
21
1.72481
0
LINE
8
BLACK
6
CONTINUOUS
10
1.7813
20
1.58714
11
1.78354
21
1.57445
0
LINE
8
BLACK
6
CONTINUOUS
10
1.78354
20
1.57445
11
1.78723
21
1.56211
0
LINE
8
BLACK
6
CONTINUOUS
10
1.78723
20
1.56211
11
1.79234
21
1.55028
0
LINE
8
BLACK
6
CONTINUOUS
10
1.79234
20
1.55028
11
1.79878
21
1.53912
0
LINE
8
BLACK
6
CONTINUOUS
10
1.79878
20
1.53912
11
1.80647
21
1.52879
0
LINE
8
BLACK
6
CONTINUOUS
10
1.80647
20
1.52879
11
1.81531
21
1.51942
0
LINE
8
BLACK
6
CONTINUOUS
10
1.81531
20
1.51942
11
1.82518
21
1.51113
0
LINE
8
BLACK
6
CONTINUOUS
10
1.82518
20
1.51113
11
1.83594
21
1.50406
0
LINE
8
BLACK
6
CONTINUOUS
10
1.83594
20
1.50406
11
1.84746
21
1.49827
0
LINE
8
BLACK
6
CONTINUOUS
10
1.84746
20
1.49827
11
1.85956
21
1.49387
0
LINE
8
BLACK
6
CONTINUOUS
10
1.85956
20
1.49387
11
1.8721
21
1.4909
0
LINE
8
BLACK
6
CONTINUOUS
10
1.8721
20
1.4909
11
1.8849
21
1.4894
0
LINE
8
BLACK
6
CONTINUOUS
10
1.8849
20
1.4894
11
1.89778
21
1.4894
0
LINE
8
BLACK
6
CONTINUOUS
10
1.89778
20
1.4894
11
1.91058
21
1.4909
0
LINE
8
BLACK
6
CONTINUOUS
10
1.91058
20
1.4909
11
1.92311
21
1.49387
0
LINE
8
BLACK
6
CONTINUOUS
10
1.92311
20
1.49387
11
1.93522
21
1.49827
0
LINE
8
BLACK
6
CONTINUOUS
10
1.93522
20
1.49827
11
1.94673
21
1.50406
0
LINE
8
BLACK
6
CONTINUOUS
10
1.94673
20
1.50406
11
1.9575
21
1.51113
0
LINE
8
BLACK
6
CONTINUOUS
10
1.9575
20
1.51113
11
1.96737
21
1.51942
0
LINE
8
BLACK
6
CONTINUOUS
10
1.96737
20
1.51942
11
1.97621
21
1.52879
0
LINE
8
BLACK
6
CONTINUOUS
10
1.97621
20
1.52879
11
1.9839
21
1.53912
0
LINE
8
BLACK
6
CONTINUOUS
10
1.9839
20
1.53912
11
1.99034
21
1.55028
0
LINE
8
BLACK
6
CONTINUOUS
10
1.99034
20
1.55028
11
1.99544
21
1.56211
0
LINE
8
BLACK
6
CONTINUOUS
10
1.99544
20
1.56211
11
1.99914
21
1.57445
0
LINE
8
BLACK
6
CONTINUOUS
10
1.99914
20
1.57445
11
2.00138
21
1.58714
0
LINE
8
BLACK
6
CONTINUOUS
10
2.00138
20
1.58714
11
2.00213
21
1.6
0
LINE
8
BLACK
6
CONTINUOUS
10
2.00213
20
1.6
11
2.00138
21
1.61286
0
LINE
8
BLACK
6
CONTINUOUS
10
2.00138
20
1.61286
11
1.99914
21
1.62555
0
LINE
8
BLACK
6
CONTINUOUS
10
1.99914
20
1.62555
11
1.99544
21
1.63789
0
LINE
8
BLACK
6
CONTINUOUS
10
1.99544
20
1.63789
11
1.99034
21
1.64972
0
LINE
8
BLACK
6
CONTINUOUS
10
1.99034
20
1.64972
11
1.9839
21
1.66088
0
LINE
8
BLACK
6
CONTINUOUS
10
1.9839
20
1.66088
11
1.97621
21
1.67121
0
LINE
8
BLACK
6
CONTINUOUS
10
1.97621
20
1.67121
11
1.96737
21
1.68058
0
LINE
8
BLACK
6
CONTINUOUS
10
1.96737
20
1.68058
11
1.9575
21
1.68887
0
LINE
8
BLACK
6
CONTINUOUS
10
1.9575
20
1.68887
11
1.94673
21
1.69594
0
LINE
8
BLACK
6
CONTINUOUS
10
1.94673
20
1.69594
11
1.93522
21
1.70173
0
LINE
8
BLACK
6
CONTINUOUS
10
1.93522
20
1.70173
11
1.92311
21
1.70613
0
LINE
8
BLACK
6
CONTINUOUS
10
1.92311
20
1.70613
11
1.91058
21
1.7091
0
LINE
8
BLACK
6
CONTINUOUS
10
1.91058
20
1.7091
11
1.89778
21
1.7106
0
LINE
8
BLACK
6
CONTINUOUS
10
1.89778
20
1.7106
11
1.8849
21
1.7106
0
LINE
8
BLACK
6
CONTINUOUS
10
1.8849
20
1.7106
11
1.8721
21
1.7091
0
LINE
8
BLACK
6
CONTINUOUS
10
1.8721
20
1.7091
11
1.85956
21
1.70613
0
LINE
8
BLACK
6
CONTINUOUS
10
1.85956
20
1.70613
11
1.84746
21
1.70173
0
LINE
8
BLACK
6
CONTINUOUS
10
1.84746
20
1.70173
11
1.83594
21
1.69594
0
LINE
8
BLACK
6
CONTINUOUS
10
1.83594
20
1.69594
11
1.82518
21
1.68887
0
LINE
8
BLACK
6
CONTINUOUS
10
1.82518
20
1.68887
11
1.81531
21
1.68058
0
LINE
8
BLACK
6
CONTINUOUS
10
1.81531
20
1.68058
11
1.80647
21
1.67121
0
LINE
8
BLACK
6
CONTINUOUS
10
1.80647
20
1.67121
11
1.79878
21
1.66088
0
LINE
8
BLACK
6
CONTINUOUS
10
1.79878
20
1.66088
11
1.79234
21
1.64972
0
LINE
8
BLACK
6
CONTINUOUS
10
1.79234
20
1.64972
11
1.78723
21
1.63789
0
LINE
8
BLACK
6
CONTINUOUS
10
1.78723
20
1.63789
11
1.78354
21
1.62555
0
LINE
8
BLACK
6
CONTINUOUS
10
1.78354
20
1.62555
11
1.7813
21
1.61286
0
LINE
8
BLACK
6
CONTINUOUS
10
1.7813
20
1.61286
11
1.78055
21
1.6
0
LINE
8
BLACK
6
CONTINUOUS
10
1.78055
20
1.6
11
1.7813
21
1.58714
0
LINE
8
BLACK
6
CONTINUOUS
10
1.3649
20
1.8144
11
1.36504
21
1.81428
0
LINE
8
BLACK
6
CONTINUOUS
10
1.36504
20
1.81428
11
1.36521
21
1.81426
0
LINE
8
BLACK
6
CONTINUOUS
10
1.36521
20
1.81426
11
1.36896
21
1.81239
0
LINE
8
BLACK
6
CONTINUOUS
10
1.36896
20
1.81239
11
1.36979
21
1.81178
0
LINE
8
BLACK
6
CONTINUOUS
10
1.36979
20
1.81178
11
1.37059
21
1.80992
0
LINE
8
BLACK
6
CONTINUOUS
10
1.37059
20
1.80992
11
1.37001
21
1.80799
0
LINE
8
BLACK
6
CONTINUOUS
10
1.37001
20
1.80799
11
1.36833
21
1.80687
0
LINE
8
BLACK
6
CONTINUOUS
10
1.36833
20
1.80687
11
1.36632
21
1.80711
0
LINE
8
BLACK
6
CONTINUOUS
10
1.36632
20
1.80711
11
1.36319
21
1.80867
0
LINE
8
BLACK
6
CONTINUOUS
10
1.36319
20
1.80867
11
1.35875
21
1.80867
0
LINE
8
BLACK
6
CONTINUOUS
10
1.35875
20
1.80867
11
1.35424
21
1.80717
0
LINE
8
BLACK
6
CONTINUOUS
10
1.35424
20
1.80717
11
1.35132
21
1.80425
0
LINE
8
BLACK
6
CONTINUOUS
10
1.35132
20
1.80425
11
1.34981
21
1.80122
0
LINE
8
BLACK
6
CONTINUOUS
10
1.34981
20
1.80122
11
1.3481
21
1.79438
0
LINE
8
BLACK
6
CONTINUOUS
10
1.3481
20
1.79438
11
1.3481
21
1.78949
0
LINE
8
BLACK
6
CONTINUOUS
10
1.3481
20
1.78949
11
1.34981
21
1.78266
0
LINE
8
BLACK
6
CONTINUOUS
10
1.34981
20
1.78266
11
1.35132
21
1.77962
0
LINE
8
BLACK
6
CONTINUOUS
10
1.35132
20
1.77962
11
1.35424
21
1.77671
0
LINE
8
BLACK
6
CONTINUOUS
10
1.35424
20
1.77671
11
1.35875
21
1.7752
0
LINE
8
BLACK
6
CONTINUOUS
10
1.35875
20
1.7752
11
1.36154
21
1.7752
0
LINE
8
BLACK
6
CONTINUOUS
10
1.36154
20
1.7752
11
1.36605
21
1.77671
0
LINE
8
BLACK
6
CONTINUOUS
10
1.36605
20
1.77671
11
1.36656
21
1.77722
0
LINE
8
BLACK
6
CONTINUOUS
10
1.36656
20
1.77722
11
1.36656
21
1.78617
0
LINE
8
BLACK
6
CONTINUOUS
10
1.36656
20
1.78617
11
1.36202
21
1.78617
0
LINE
8
BLACK
6
CONTINUOUS
10
1.36202
20
1.78617
11
1.36101
21
1.78635
0
LINE
8
BLACK
6
CONTINUOUS
10
1.36101
20
1.78635
11
1.35946
21
1.78765
0
LINE
8
BLACK
6
CONTINUOUS
10
1.35946
20
1.78765
11
1.35911
21
1.78964
0
LINE
8
BLACK
6
CONTINUOUS
10
1.35911
20
1.78964
11
1.36012
21
1.79139
0
LINE
8
BLACK
6
CONTINUOUS
10
1.36012
20
1.79139
11
1.36202
21
1.79208
0
LINE
8
BLACK
6
CONTINUOUS
10
1.36202
20
1.79208
11
1.36952
21
1.79208
0
LINE
8
BLACK
6
CONTINUOUS
10
1.36952
20
1.79208
11
1.3699
21
1.79201
0
LINE
8
BLACK
6
CONTINUOUS
10
1.3699
20
1.79201
11
1.37003
21
1.79203
0
LINE
8
BLACK
6
CONTINUOUS
10
1.37003
20
1.79203
11
1.37014
21
1.79197
0
LINE
8
BLACK
6
CONTINUOUS
10
1.37014
20
1.79197
11
1.37053
21
1.7919
0
LINE
8
BLACK
6
CONTINUOUS
10
1.37053
20
1.7919
11
1.37111
21
1.79141
0
LINE
8
BLACK
6
CONTINUOUS
10
1.37111
20
1.79141
11
1.37178
21
1.79102
0
LINE
8
BLACK
6
CONTINUOUS
10
1.37178
20
1.79102
11
1.37187
21
1.79077
0
LINE
8
BLACK
6
CONTINUOUS
10
1.37187
20
1.79077
11
1.37207
21
1.7906
0
LINE
8
BLACK
6
CONTINUOUS
10
1.37207
20
1.7906
11
1.37221
21
1.78984
0
LINE
8
BLACK
6
CONTINUOUS
10
1.37221
20
1.78984
11
1.37247
21
1.78912
0
LINE
8
BLACK
6
CONTINUOUS
10
1.37247
20
1.78912
11
1.37247
21
1.776
0
LINE
8
BLACK
6
CONTINUOUS
10
1.37247
20
1.776
11
1.37244
21
1.77582
0
LINE
8
BLACK
6
CONTINUOUS
10
1.37244
20
1.77582
11
1.37246
21
1.77574
0
LINE
8
BLACK
6
CONTINUOUS
10
1.37246
20
1.77574
11
1.3724
21
1.77563
0
LINE
8
BLACK
6
CONTINUOUS
10
1.3724
20
1.77563
11
1.37229
21
1.77499
0
LINE
8
BLACK
6
CONTINUOUS
10
1.37229
20
1.77499
11
1.37188
21
1.7745
0
LINE
8
BLACK
6
CONTINUOUS
10
1.37188
20
1.7745
11
1.3716
21
1.77391
0
LINE
8
BLACK
6
CONTINUOUS
10
1.3716
20
1.77391
11
1.36973
21
1.77204
0
LINE
8
BLACK
6
CONTINUOUS
10
1.36973
20
1.77204
11
1.36889
21
1.77145
0
LINE
8
BLACK
6
CONTINUOUS
10
1.36889
20
1.77145
11
1.36871
21
1.77143
0
LINE
8
BLACK
6
CONTINUOUS
10
1.36871
20
1.77143
11
1.36858
21
1.77132
0
LINE
8
BLACK
6
CONTINUOUS
10
1.36858
20
1.77132
11
1.36295
21
1.76945
0
LINE
8
BLACK
6
CONTINUOUS
10
1.36295
20
1.76945
11
1.36208
21
1.76932
0
LINE
8
BLACK
6
CONTINUOUS
10
1.36208
20
1.76932
11
1.36202
21
1.7693
0
LINE
8
BLACK
6
CONTINUOUS
10
1.36202
20
1.7693
11
1.35827
21
1.7693
0
LINE
8
BLACK
6
CONTINUOUS
10
1.35827
20
1.7693
11
1.3574
21
1.76945
0
LINE
8
BLACK
6
CONTINUOUS
10
1.3574
20
1.76945
11
1.35733
21
1.76945
0
LINE
8
BLACK
6
CONTINUOUS
10
1.35733
20
1.76945
11
1.35171
21
1.77132
0
LINE
8
BLACK
6
CONTINUOUS
10
1.35171
20
1.77132
11
1.35081
21
1.77181
0
LINE
8
BLACK
6
CONTINUOUS
10
1.35081
20
1.77181
11
1.35072
21
1.77196
0
LINE
8
BLACK
6
CONTINUOUS
10
1.35072
20
1.77196
11
1.35056
21
1.77204
0
LINE
8
BLACK
6
CONTINUOUS
10
1.35056
20
1.77204
11
1.34681
21
1.77579
0
LINE
8
BLACK
6
CONTINUOUS
10
1.34681
20
1.77579
11
1.3463
21
1.77651
0
LINE
8
BLACK
6
CONTINUOUS
10
1.3463
20
1.77651
11
1.34625
21
1.77656
0
LINE
8
BLACK
6
CONTINUOUS
10
1.34625
20
1.77656
11
1.34438
21
1.7803
0
LINE
8
BLACK
6
CONTINUOUS
10
1.34438
20
1.7803
11
1.34423
21
1.78079
0
LINE
8
BLACK
6
CONTINUOUS
10
1.34423
20
1.78079
11
1.34415
21
1.78091
0
LINE
8
BLACK
6
CONTINUOUS
10
1.34415
20
1.78091
11
1.34228
21
1.78841
0
LINE
8
BLACK
6
CONTINUOUS
10
1.34228
20
1.78841
11
1.34224
21
1.789
0
LINE
8
BLACK
6
CONTINUOUS
10
1.34224
20
1.789
11
1.34219
21
1.78912
0
LINE
8
BLACK
6
CONTINUOUS
10
1.34219
20
1.78912
11
1.34219
21
1.79475
0
LINE
8
BLACK
6
CONTINUOUS
10
1.34219
20
1.79475
11
1.34229
21
1.79533
0
LINE
8
BLACK
6
CONTINUOUS
10
1.34229
20
1.79533
11
1.34228
21
1.79546
0
LINE
8
BLACK
6
CONTINUOUS
10
1.34228
20
1.79546
11
1.34415
21
1.80296
0
LINE
8
BLACK
6
CONTINUOUS
10
1.34415
20
1.80296
11
1.34436
21
1.80343
0
LINE
8
BLACK
6
CONTINUOUS
10
1.34436
20
1.80343
11
1.34438
21
1.80357
0
LINE
8
BLACK
6
CONTINUOUS
10
1.34438
20
1.80357
11
1.34625
21
1.80732
0
LINE
8
BLACK
6
CONTINUOUS
10
1.34625
20
1.80732
11
1.34678
21
1.80803
0
LINE
8
BLACK
6
CONTINUOUS
10
1.34678
20
1.80803
11
1.34681
21
1.80808
0
LINE
8
BLACK
6
CONTINUOUS
10
1.34681
20
1.80808
11
1.35056
21
1.81183
0
LINE
8
BLACK
6
CONTINUOUS
10
1.35056
20
1.81183
11
1.3514
21
1.81242
0
LINE
8
BLACK
6
CONTINUOUS
10
1.3514
20
1.81242
11
1.35157
21
1.81244
0
LINE
8
BLACK
6
CONTINUOUS
10
1.35157
20
1.81244
11
1.35171
21
1.81255
0
LINE
8
BLACK
6
CONTINUOUS
10
1.35171
20
1.81255
11
1.35733
21
1.81442
0
LINE
8
BLACK
6
CONTINUOUS
10
1.35733
20
1.81442
11
1.35821
21
1.81455
0
LINE
8
BLACK
6
CONTINUOUS
10
1.35821
20
1.81455
11
1.35827
21
1.81457
0
LINE
8
BLACK
6
CONTINUOUS
10
1.35827
20
1.81457
11
1.36389
21
1.81457
0
LINE
8
BLACK
6
CONTINUOUS
10
1.36389
20
1.81457
11
1.3649
21
1.8144
0
LINE
8
BLACK
6
CONTINUOUS
10
1.4024
20
1.8144
11
1.40253
21
1.81428
0
LINE
8
BLACK
6
CONTINUOUS
10
1.40253
20
1.81428
11
1.40271
21
1.81426
0
LINE
8
BLACK
6
CONTINUOUS
10
1.40271
20
1.81426
11
1.40646
21
1.81239
0
LINE
8
BLACK
6
CONTINUOUS
10
1.40646
20
1.81239
11
1.40717
21
1.81186
0
LINE
8
BLACK
6
CONTINUOUS
10
1.40717
20
1.81186
11
1.40722
21
1.81183
0
LINE
8
BLACK
6
CONTINUOUS
10
1.40722
20
1.81183
11
1.41097
21
1.80808
0
LINE
8
BLACK
6
CONTINUOUS
10
1.41097
20
1.80808
11
1.41156
21
1.80724
0
LINE
8
BLACK
6
CONTINUOUS
10
1.41156
20
1.80724
11
1.41159
21
1.80695
0
LINE
8
BLACK
6
CONTINUOUS
10
1.41159
20
1.80695
11
1.41175
21
1.80671
0
LINE
8
BLACK
6
CONTINUOUS
10
1.41175
20
1.80671
11
1.41363
21
1.79921
0
LINE
8
BLACK
6
CONTINUOUS
10
1.41363
20
1.79921
11
1.41367
21
1.79863
0
LINE
8
BLACK
6
CONTINUOUS
10
1.41367
20
1.79863
11
1.41371
21
1.7985
0
LINE
8
BLACK
6
CONTINUOUS
10
1.41371
20
1.7985
11
1.41371
21
1.78537
0
LINE
8
BLACK
6
CONTINUOUS
10
1.41371
20
1.78537
11
1.41361
21
1.78479
0
LINE
8
BLACK
6
CONTINUOUS
10
1.41361
20
1.78479
11
1.41363
21
1.78466
0
LINE
8
BLACK
6
CONTINUOUS
10
1.41363
20
1.78466
11
1.41175
21
1.77716
0
LINE
8
BLACK
6
CONTINUOUS
10
1.41175
20
1.77716
11
1.41133
21
1.77622
0
LINE
8
BLACK
6
CONTINUOUS
10
1.41133
20
1.77622
11
1.4111
21
1.77605
0
LINE
8
BLACK
6
CONTINUOUS
10
1.4111
20
1.77605
11
1.41097
21
1.77579
0
LINE
8
BLACK
6
CONTINUOUS
10
1.41097
20
1.77579
11
1.40722
21
1.77204
0
LINE
8
BLACK
6
CONTINUOUS
10
1.40722
20
1.77204
11
1.4065
21
1.77153
0
LINE
8
BLACK
6
CONTINUOUS
10
1.4065
20
1.77153
11
1.40646
21
1.77148
0
LINE
8
BLACK
6
CONTINUOUS
10
1.40646
20
1.77148
11
1.40271
21
1.76961
0
LINE
8
BLACK
6
CONTINUOUS
10
1.40271
20
1.76961
11
1.40172
21
1.76932
0
LINE
8
BLACK
6
CONTINUOUS
10
1.40172
20
1.76932
11
1.40155
21
1.76936
0
LINE
8
BLACK
6
CONTINUOUS
10
1.40155
20
1.76936
11
1.40139
21
1.7693
0
LINE
8
BLACK
6
CONTINUOUS
10
1.40139
20
1.7693
11
1.39389
21
1.7693
0
LINE
8
BLACK
6
CONTINUOUS
10
1.39389
20
1.7693
11
1.39288
21
1.76948
0
LINE
8
BLACK
6
CONTINUOUS
10
1.39288
20
1.76948
11
1.39274
21
1.76959
0
LINE
8
BLACK
6
CONTINUOUS
10
1.39274
20
1.76959
11
1.39257
21
1.76961
0
LINE
8
BLACK
6
CONTINUOUS
10
1.39257
20
1.76961
11
1.38882
21
1.77148
0
LINE
8
BLACK
6
CONTINUOUS
10
1.38882
20
1.77148
11
1.38811
21
1.77201
0
LINE
8
BLACK
6
CONTINUOUS
10
1.38811
20
1.77201
11
1.38805
21
1.77204
0
LINE
8
BLACK
6
CONTINUOUS
10
1.38805
20
1.77204
11
1.3843
21
1.77579
0
LINE
8
BLACK
6
CONTINUOUS
10
1.3843
20
1.77579
11
1.38371
21
1.77663
0
LINE
8
BLACK
6
CONTINUOUS
10
1.38371
20
1.77663
11
1.38369
21
1.77692
0
LINE
8
BLACK
6
CONTINUOUS
10
1.38369
20
1.77692
11
1.38352
21
1.77716
0
LINE
8
BLACK
6
CONTINUOUS
10
1.38352
20
1.77716
11
1.38165
21
1.78466
0
LINE
8
BLACK
6
CONTINUOUS
10
1.38165
20
1.78466
11
1.38161
21
1.78525
0
LINE
8
BLACK
6
CONTINUOUS
10
1.38161
20
1.78525
11
1.38156
21
1.78537
0
LINE
8
BLACK
6
CONTINUOUS
10
1.38156
20
1.78537
11
1.38156
21
1.7985
0
LINE
8
BLACK
6
CONTINUOUS
10
1.38156
20
1.7985
11
1.38166
21
1.79908
0
LINE
8
BLACK
6
CONTINUOUS
10
1.38166
20
1.79908
11
1.38165
21
1.79921
0
LINE
8
BLACK
6
CONTINUOUS
10
1.38165
20
1.79921
11
1.38352
21
1.80671
0
LINE
8
BLACK
6
CONTINUOUS
10
1.38352
20
1.80671
11
1.38394
21
1.80765
0
LINE
8
BLACK
6
CONTINUOUS
10
1.38394
20
1.80765
11
1.38418
21
1.80782
0
LINE
8
BLACK
6
CONTINUOUS
10
1.38418
20
1.80782
11
1.3843
21
1.80808
0
LINE
8
BLACK
6
CONTINUOUS
10
1.3843
20
1.80808
11
1.38805
21
1.81183
0
LINE
8
BLACK
6
CONTINUOUS
10
1.38805
20
1.81183
11
1.38877
21
1.81234
0
LINE
8
BLACK
6
CONTINUOUS
10
1.38877
20
1.81234
11
1.38882
21
1.81239
0
LINE
8
BLACK
6
CONTINUOUS
10
1.38882
20
1.81239
11
1.39257
21
1.81426
0
LINE
8
BLACK
6
CONTINUOUS
10
1.39257
20
1.81426
11
1.39355
21
1.81455
0
LINE
8
BLACK
6
CONTINUOUS
10
1.39355
20
1.81455
11
1.39372
21
1.81451
0
LINE
8
BLACK
6
CONTINUOUS
10
1.39372
20
1.81451
11
1.39389
21
1.81457
0
LINE
8
BLACK
6
CONTINUOUS
10
1.39389
20
1.81457
11
1.40139
21
1.81457
0
LINE
8
BLACK
6
CONTINUOUS
10
1.40139
20
1.81457
11
1.4024
21
1.8144
0
LINE
8
BLACK
6
CONTINUOUS
10
1.39189
20
1.80732
11
1.38906
21
1.80449
0
LINE
8
BLACK
6
CONTINUOUS
10
1.38906
20
1.80449
11
1.38747
21
1.79813
0
LINE
8
BLACK
6
CONTINUOUS
10
1.38747
20
1.79813
11
1.38747
21
1.78574
0
LINE
8
BLACK
6
CONTINUOUS
10
1.38747
20
1.78574
11
1.38906
21
1.77939
0
LINE
8
BLACK
6
CONTINUOUS
10
1.38906
20
1.77939
11
1.39189
21
1.77655
0
LINE
8
BLACK
6
CONTINUOUS
10
1.39189
20
1.77655
11
1.39459
21
1.7752
0
LINE
8
BLACK
6
CONTINUOUS
10
1.39459
20
1.7752
11
1.40069
21
1.7752
0
LINE
8
BLACK
6
CONTINUOUS
10
1.40069
20
1.7752
11
1.40339
21
1.77655
0
LINE
8
BLACK
6
CONTINUOUS
10
1.40339
20
1.77655
11
1.40622
21
1.77939
0
LINE
8
BLACK
6
CONTINUOUS
10
1.40622
20
1.77939
11
1.40781
21
1.78574
0
LINE
8
BLACK
6
CONTINUOUS
10
1.40781
20
1.78574
11
1.40781
21
1.79813
0
LINE
8
BLACK
6
CONTINUOUS
10
1.40781
20
1.79813
11
1.40622
21
1.80449
0
LINE
8
BLACK
6
CONTINUOUS
10
1.40622
20
1.80449
11
1.40339
21
1.80732
0
LINE
8
BLACK
6
CONTINUOUS
10
1.40339
20
1.80732
11
1.40069
21
1.80867
0
LINE
8
BLACK
6
CONTINUOUS
10
1.40069
20
1.80867
11
1.39459
21
1.80867
0
LINE
8
BLACK
6
CONTINUOUS
10
1.39459
20
1.80867
11
1.39189
21
1.80732
0
LINE
8
BLACK
6
CONTINUOUS
10
1.26629
20
1.81399
11
1.2674
21
1.81231
0
LINE
8
BLACK
6
CONTINUOUS
10
1.2674
20
1.81231
11
1.27407
21
1.78432
0
LINE
8
BLACK
6
CONTINUOUS
10
1.27407
20
1.78432
11
1.27855
21
1.80113
0
LINE
8
BLACK
6
CONTINUOUS
10
1.27855
20
1.80113
11
1.27898
21
1.80206
0
LINE
8
BLACK
6
CONTINUOUS
10
1.27898
20
1.80206
11
1.2792
21
1.80222
0
LINE
8
BLACK
6
CONTINUOUS
10
1.2792
20
1.80222
11
1.27932
21
1.80246
0
LINE
8
BLACK
6
CONTINUOUS
10
1.27932
20
1.80246
11
1.28001
21
1.80279
0
LINE
8
BLACK
6
CONTINUOUS
10
1.28001
20
1.80279
11
1.28063
21
1.80322
0
LINE
8
BLACK
6
CONTINUOUS
10
1.28063
20
1.80322
11
1.2809
21
1.8032
0
LINE
8
BLACK
6
CONTINUOUS
10
1.2809
20
1.8032
11
1.28115
21
1.80331
0
LINE
8
BLACK
6
CONTINUOUS
10
1.28115
20
1.80331
11
1.28189
21
1.80312
0
LINE
8
BLACK
6
CONTINUOUS
10
1.28189
20
1.80312
11
1.28265
21
1.80305
0
LINE
8
BLACK
6
CONTINUOUS
10
1.28265
20
1.80305
11
1.28284
21
1.80286
0
LINE
8
BLACK
6
CONTINUOUS
10
1.28284
20
1.80286
11
1.2831
21
1.80279
0
LINE
8
BLACK
6
CONTINUOUS
10
1.2831
20
1.80279
11
1.28354
21
1.80216
0
LINE
8
BLACK
6
CONTINUOUS
10
1.28354
20
1.80216
11
1.28408
21
1.80162
0
LINE
8
BLACK
6
CONTINUOUS
10
1.28408
20
1.80162
11
1.2841
21
1.80135
0
LINE
8
BLACK
6
CONTINUOUS
10
1.2841
20
1.80135
11
1.28426
21
1.80113
0
LINE
8
BLACK
6
CONTINUOUS
10
1.28426
20
1.80113
11
1.28874
21
1.78432
0
LINE
8
BLACK
6
CONTINUOUS
10
1.28874
20
1.78432
11
1.2954
21
1.81231
0
LINE
8
BLACK
6
CONTINUOUS
10
1.2954
20
1.81231
11
1.29581
21
1.81325
0
LINE
8
BLACK
6
CONTINUOUS
10
1.29581
20
1.81325
11
1.29743
21
1.81445
0
LINE
8
BLACK
6
CONTINUOUS
10
1.29743
20
1.81445
11
1.29945
21
1.81433
0
LINE
8
BLACK
6
CONTINUOUS
10
1.29945
20
1.81433
11
1.30092
21
1.81294
0
LINE
8
BLACK
6
CONTINUOUS
10
1.30092
20
1.81294
11
1.30115
21
1.81094
0
LINE
8
BLACK
6
CONTINUOUS
10
1.30115
20
1.81094
11
1.29177
21
1.77157
0
LINE
8
BLACK
6
CONTINUOUS
10
1.29177
20
1.77157
11
1.29137
21
1.77063
0
LINE
8
BLACK
6
CONTINUOUS
10
1.29137
20
1.77063
11
1.29112
21
1.77044
0
LINE
8
BLACK
6
CONTINUOUS
10
1.29112
20
1.77044
11
1.29099
21
1.77016
0
LINE
8
BLACK
6
CONTINUOUS
10
1.29099
20
1.77016
11
1.29033
21
1.76985
0
LINE
8
BLACK
6
CONTINUOUS
10
1.29033
20
1.76985
11
1.28975
21
1.76942
0
LINE
8
BLACK
6
CONTINUOUS
10
1.28975
20
1.76942
11
1.28944
21
1.76944
0
LINE
8
BLACK
6
CONTINUOUS
10
1.28944
20
1.76944
11
1.28916
21
1.76931
0
LINE
8
BLACK
6
CONTINUOUS
10
1.28916
20
1.76931
11
1.28845
21
1.7695
0
LINE
8
BLACK
6
CONTINUOUS
10
1.28845
20
1.7695
11
1.28773
21
1.76954
0
LINE
8
BLACK
6
CONTINUOUS
10
1.28773
20
1.76954
11
1.2875
21
1.76975
0
LINE
8
BLACK
6
CONTINUOUS
10
1.2875
20
1.76975
11
1.2872
21
1.76983
0
LINE
8
BLACK
6
CONTINUOUS
10
1.2872
20
1.76983
11
1.28679
21
1.77043
0
LINE
8
BLACK
6
CONTINUOUS
10
1.28679
20
1.77043
11
1.28626
21
1.77093
0
LINE
8
BLACK
6
CONTINUOUS
10
1.28626
20
1.77093
11
1.28623
21
1.77124
0
LINE
8
BLACK
6
CONTINUOUS
10
1.28623
20
1.77124
11
1.28605
21
1.77149
0
LINE
8
BLACK
6
CONTINUOUS
10
1.28605
20
1.77149
11
1.2814
21
1.78891
0
LINE
8
BLACK
6
CONTINUOUS
10
1.2814
20
1.78891
11
1.27676
21
1.77149
0
LINE
8
BLACK
6
CONTINUOUS
10
1.27676
20
1.77149
11
1.27632
21
1.77056
0
LINE
8
BLACK
6
CONTINUOUS
10
1.27632
20
1.77056
11
1.27607
21
1.77038
0
LINE
8
BLACK
6
CONTINUOUS
10
1.27607
20
1.77038
11
1.27593
21
1.77011
0
LINE
8
BLACK
6
CONTINUOUS
10
1.27593
20
1.77011
11
1.27527
21
1.76982
0
LINE
8
BLACK
6
CONTINUOUS
10
1.27527
20
1.76982
11
1.27467
21
1.7694
0
LINE
8
BLACK
6
CONTINUOUS
10
1.27467
20
1.7694
11
1.27436
21
1.76943
0
LINE
8
BLACK
6
CONTINUOUS
10
1.27436
20
1.76943
11
1.27408
21
1.7693
0
LINE
8
BLACK
6
CONTINUOUS
10
1.27408
20
1.7693
11
1.27338
21
1.76951
0
LINE
8
BLACK
6
CONTINUOUS
10
1.27338
20
1.76951
11
1.27266
21
1.76957
0
LINE
8
BLACK
6
CONTINUOUS
10
1.27266
20
1.76957
11
1.27244
21
1.76979
0
LINE
8
BLACK
6
CONTINUOUS
10
1.27244
20
1.76979
11
1.27214
21
1.76988
0
LINE
8
BLACK
6
CONTINUOUS
10
1.27214
20
1.76988
11
1.27174
21
1.77049
0
LINE
8
BLACK
6
CONTINUOUS
10
1.27174
20
1.77049
11
1.27123
21
1.771
0
LINE
8
BLACK
6
CONTINUOUS
10
1.27123
20
1.771
11
1.2712
21
1.77131
0
LINE
8
BLACK
6
CONTINUOUS
10
1.2712
20
1.77131
11
1.27103
21
1.77157
0
LINE
8
BLACK
6
CONTINUOUS
10
1.27103
20
1.77157
11
1.26166
21
1.81094
0
LINE
8
BLACK
6
CONTINUOUS
10
1.26166
20
1.81094
11
1.2616
21
1.81196
0
LINE
8
BLACK
6
CONTINUOUS
10
1.2616
20
1.81196
11
1.2625
21
1.81377
0
LINE
8
BLACK
6
CONTINUOUS
10
1.2625
20
1.81377
11
1.26435
21
1.81457
0
LINE
8
BLACK
6
CONTINUOUS
10
1.26435
20
1.81457
11
1.26629
21
1.81399
0
LINE
8
BLACK
6
CONTINUOUS
10
1.32125
20
1.81435
11
1.32218
21
1.81422
0
LINE
8
BLACK
6
CONTINUOUS
10
1.32218
20
1.81422
11
1.32223
21
1.81415
0
LINE
8
BLACK
6
CONTINUOUS
10
1.32223
20
1.81415
11
1.32232
21
1.81414
0
LINE
8
BLACK
6
CONTINUOUS
10
1.32232
20
1.81414
11
1.3229
21
1.81341
0
LINE
8
BLACK
6
CONTINUOUS
10
1.3229
20
1.81341
11
1.32352
21
1.81271
0
LINE
8
BLACK
6
CONTINUOUS
10
1.32352
20
1.81271
11
1.32352
21
1.81262
0
LINE
8
BLACK
6
CONTINUOUS
10
1.32352
20
1.81262
11
1.32357
21
1.81256
0
LINE
8
BLACK
6
CONTINUOUS
10
1.32357
20
1.81256
11
1.3367
21
1.77318
0
LINE
8
BLACK
6
CONTINUOUS
10
1.3367
20
1.77318
11
1.33685
21
1.77217
0
LINE
8
BLACK
6
CONTINUOUS
10
1.33685
20
1.77217
11
1.3361
21
1.77029
0
LINE
8
BLACK
6
CONTINUOUS
10
1.3361
20
1.77029
11
1.33433
21
1.76933
0
LINE
8
BLACK
6
CONTINUOUS
10
1.33433
20
1.76933
11
1.33235
21
1.76974
0
LINE
8
BLACK
6
CONTINUOUS
10
1.33235
20
1.76974
11
1.33109
21
1.77132
0
LINE
8
BLACK
6
CONTINUOUS
10
1.33109
20
1.77132
11
1.32802
21
1.78055
0
LINE
8
BLACK
6
CONTINUOUS
10
1.32802
20
1.78055
11
1.31353
21
1.78055
0
LINE
8
BLACK
6
CONTINUOUS
10
1.31353
20
1.78055
11
1.31045
21
1.77132
0
LINE
8
BLACK
6
CONTINUOUS
10
1.31045
20
1.77132
11
1.30996
21
1.77042
0
LINE
8
BLACK
6
CONTINUOUS
10
1.30996
20
1.77042
11
1.30824
21
1.76936
0
LINE
8
BLACK
6
CONTINUOUS
10
1.30824
20
1.76936
11
1.30624
21
1.76965
0
LINE
8
BLACK
6
CONTINUOUS
10
1.30624
20
1.76965
11
1.3049
21
1.77117
0
LINE
8
BLACK
6
CONTINUOUS
10
1.3049
20
1.77117
11
1.30485
21
1.77318
0
LINE
8
BLACK
6
CONTINUOUS
10
1.30485
20
1.77318
11
1.31797
21
1.81256
0
LINE
8
BLACK
6
CONTINUOUS
10
1.31797
20
1.81256
11
1.31846
21
1.81346
0
LINE
8
BLACK
6
CONTINUOUS
10
1.31846
20
1.81346
11
1.31853
21
1.8135
0
LINE
8
BLACK
6
CONTINUOUS
10
1.31853
20
1.8135
11
1.31856
21
1.81358
0
LINE
8
BLACK
6
CONTINUOUS
10
1.31856
20
1.81358
11
1.31938
21
1.81403
0
LINE
8
BLACK
6
CONTINUOUS
10
1.31938
20
1.81403
11
1.32018
21
1.81451
0
LINE
8
BLACK
6
CONTINUOUS
10
1.32018
20
1.81451
11
1.32026
21
1.8145
0
LINE
8
BLACK
6
CONTINUOUS
10
1.32026
20
1.8145
11
1.32034
21
1.81454
0
LINE
8
BLACK
6
CONTINUOUS
10
1.32034
20
1.81454
11
1.32125
21
1.81435
0
LINE
8
BLACK
6
CONTINUOUS
10
1.3155
20
1.78645
11
1.32605
21
1.78645
0
LINE
8
BLACK
6
CONTINUOUS
10
1.32605
20
1.78645
11
1.32077
21
1.80228
0
LINE
8
BLACK
6
CONTINUOUS
10
1.32077
20
1.80228
11
1.3155
21
1.78645
  0
ENDSEC
  0
EOF
