  0
SECTION
  2
HEADER
  9
$ANGBASE
  50
0.0
  9
$ANGDIR
  70
1
  9
$MEASUREMENT
  70
0
  0
ENDSEC
  0
SECTION
  2
TABLES
  0
TABLE
  2
LTYPE
  70
4
  0
LTYPE
  5
40F
  2
CONTINUOUS
  70
0
  3
Solid line
  72
65
  73
0
  40
0.0
  0
LTYPE
  5
410
  2
DASHDOT
 70
0
  3
Dash Dot ____ _ ____ _
 72
65
 73
4
 40
2.0
 49
1.25
 49
-0.25
 49
0.25
 49
-0.25
  0
LTYPE
  5
411
  2
DASHED
 70
0
  3
Dashed __ __ __ __ __
 72
65
 73
2
 40
0.75
 49
0.5
 49
-0.25
  0
LTYPE
  5
43B
  2
DOTTED
 70
0
  3
Dotted .  .  .  .
 72
65
 73
2
 40
0.2
 49
0.0
 49
-0.2
  0
ENDTAB
  0
TABLE
  2
STYLE
  70
4
  0
STYLE
  2
KICAD
  70
0
  40
0
  41
1
  42
1
  50
0
  71
0
  3
isocp.shx
  0
STYLE
  2
KICADB
  70
0
  40
0
  41
1
  42
1
  50
0
  71
0
  3
isocp.shx
  0
STYLE
  2
KICADI
  70
0
  40
0
  41
1
  42
1
  50
15
  71
0
  3
isocp.shx
  0
STYLE
  2
KICADBI
  70
0
  40
0
  41
1
  42
1
  50
15
  71
0
  3
isocp.shx
  0
ENDTAB
  0
TABLE
  2
LAYER
  70
1
  0
LAYER
  2
BLACK
  70
0
  62
7
  6
CONTINUOUS
  0
ENDTAB
  0
ENDSEC
  0
SECTION
  2
ENTITIES
0
LINE
8
BLACK
6
CONTINUOUS
10
2.19038
20
1.79289
11
2.19051
21
1.79291
0
LINE
8
BLACK
6
CONTINUOUS
10
2.19051
20
1.79291
11
2.19063
21
1.79284
0
LINE
8
BLACK
6
CONTINUOUS
10
2.19063
20
1.79284
11
2.19101
21
1.79277
0
LINE
8
BLACK
6
CONTINUOUS
10
2.19101
20
1.79277
11
2.1916
21
1.79228
0
LINE
8
BLACK
6
CONTINUOUS
10
2.1916
20
1.79228
11
2.19226
21
1.7919
0
LINE
8
BLACK
6
CONTINUOUS
10
2.19226
20
1.7919
11
2.19235
21
1.79165
0
LINE
8
BLACK
6
CONTINUOUS
10
2.19235
20
1.79165
11
2.19256
21
1.79148
0
LINE
8
BLACK
6
CONTINUOUS
10
2.19256
20
1.79148
11
2.19269
21
1.79072
0
LINE
8
BLACK
6
CONTINUOUS
10
2.19269
20
1.79072
11
2.19295
21
1.79
0
LINE
8
BLACK
6
CONTINUOUS
10
2.19295
20
1.79
11
2.19295
21
0.21
0
LINE
8
BLACK
6
CONTINUOUS
10
2.19295
20
0.21
11
2.19289
21
0.209616
0
LINE
8
BLACK
6
CONTINUOUS
10
2.19289
20
0.209616
11
2.19291
21
0.209487
0
LINE
8
BLACK
6
CONTINUOUS
10
2.19291
20
0.209487
11
2.19284
21
0.209374
0
LINE
8
BLACK
6
CONTINUOUS
10
2.19284
20
0.209374
11
2.19277
21
0.20899
0
LINE
8
BLACK
6
CONTINUOUS
10
2.19277
20
0.20899
11
2.19228
21
0.208402
0
LINE
8
BLACK
6
CONTINUOUS
10
2.19228
20
0.208402
11
2.1919
21
0.207738
0
LINE
8
BLACK
6
CONTINUOUS
10
2.1919
20
0.207738
11
2.19165
21
0.207647
0
LINE
8
BLACK
6
CONTINUOUS
10
2.19165
20
0.207647
11
2.19148
21
0.207443
0
LINE
8
BLACK
6
CONTINUOUS
10
2.19148
20
0.207443
11
2.19072
21
0.20731
0
LINE
8
BLACK
6
CONTINUOUS
10
2.19072
20
0.20731
11
2.19
21
0.207047
0
LINE
8
BLACK
6
CONTINUOUS
10
2.19
20
0.207047
11
0.21
21
0.207047
0
LINE
8
BLACK
6
CONTINUOUS
10
0.21
20
0.207047
11
0.209616
21
0.207115
0
LINE
8
BLACK
6
CONTINUOUS
10
0.209616
20
0.207115
11
0.209487
21
0.207092
0
LINE
8
BLACK
6
CONTINUOUS
10
0.209487
20
0.207092
11
0.209374
21
0.207158
0
LINE
8
BLACK
6
CONTINUOUS
10
0.209374
20
0.207158
11
0.20899
21
0.207225
0
LINE
8
BLACK
6
CONTINUOUS
10
0.20899
20
0.207225
11
0.208402
21
0.207718
0
LINE
8
BLACK
6
CONTINUOUS
10
0.208402
20
0.207718
11
0.207738
21
0.208102
0
LINE
8
BLACK
6
CONTINUOUS
10
0.207738
20
0.208102
11
0.207647
21
0.208352
0
LINE
8
BLACK
6
CONTINUOUS
10
0.207647
20
0.208352
11
0.207443
21
0.208524
0
LINE
8
BLACK
6
CONTINUOUS
10
0.207443
20
0.208524
11
0.20731
21
0.209279
0
LINE
8
BLACK
6
CONTINUOUS
10
0.20731
20
0.209279
11
0.207047
21
0.21
0
LINE
8
BLACK
6
CONTINUOUS
10
0.207047
20
0.21
11
0.207047
21
1.79
0
LINE
8
BLACK
6
CONTINUOUS
10
0.207047
20
1.79
11
0.207115
21
1.79038
0
LINE
8
BLACK
6
CONTINUOUS
10
0.207115
20
1.79038
11
0.207092
21
1.79051
0
LINE
8
BLACK
6
CONTINUOUS
10
0.207092
20
1.79051
11
0.207158
21
1.79063
0
LINE
8
BLACK
6
CONTINUOUS
10
0.207158
20
1.79063
11
0.207225
21
1.79101
0
LINE
8
BLACK
6
CONTINUOUS
10
0.207225
20
1.79101
11
0.207718
21
1.7916
0
LINE
8
BLACK
6
CONTINUOUS
10
0.207718
20
1.7916
11
0.208102
21
1.79226
0
LINE
8
BLACK
6
CONTINUOUS
10
0.208102
20
1.79226
11
0.208352
21
1.79235
0
LINE
8
BLACK
6
CONTINUOUS
10
0.208352
20
1.79235
11
0.208524
21
1.79256
0
LINE
8
BLACK
6
CONTINUOUS
10
0.208524
20
1.79256
11
0.209279
21
1.79269
0
LINE
8
BLACK
6
CONTINUOUS
10
0.209279
20
1.79269
11
0.21
21
1.79295
0
LINE
8
BLACK
6
CONTINUOUS
10
0.21
20
1.79295
11
2.19
21
1.79295
0
LINE
8
BLACK
6
CONTINUOUS
10
2.19
20
1.79295
11
2.19038
21
1.79289
0
LINE
8
BLACK
6
CONTINUOUS
10
0.212953
20
1.78705
11
0.212953
21
0.212953
0
LINE
8
BLACK
6
CONTINUOUS
10
0.212953
20
0.212953
11
2.18705
21
0.212953
0
LINE
8
BLACK
6
CONTINUOUS
10
2.18705
20
0.212953
11
2.18705
21
1.78705
0
LINE
8
BLACK
6
CONTINUOUS
10
2.18705
20
1.78705
11
0.212953
21
1.78705
  0
ENDSEC
  0
EOF
