  0
SECTION
  2
HEADER
  9
$ANGBASE
  50
0.0
  9
$ANGDIR
  70
1
  9
$MEASUREMENT
  70
0
  0
ENDSEC
  0
SECTION
  2
TABLES
  0
TABLE
  2
LTYPE
  70
4
  0
LTYPE
  5
40F
  2
CONTINUOUS
  70
0
  3
Solid line
  72
65
  73
0
  40
0.0
  0
LTYPE
  5
410
  2
DASHDOT
 70
0
  3
Dash Dot ____ _ ____ _
 72
65
 73
4
 40
2.0
 49
1.25
 49
-0.25
 49
0.25
 49
-0.25
  0
LTYPE
  5
411
  2
DASHED
 70
0
  3
Dashed __ __ __ __ __
 72
65
 73
2
 40
0.75
 49
0.5
 49
-0.25
  0
LTYPE
  5
43B
  2
DOTTED
 70
0
  3
Dotted .  .  .  .
 72
65
 73
2
 40
0.2
 49
0.0
 49
-0.2
  0
ENDTAB
  0
TABLE
  2
STYLE
  70
4
  0
STYLE
  2
KICAD
  70
0
  40
0
  41
1
  42
1
  50
0
  71
0
  3
isocp.shx
  0
STYLE
  2
KICADB
  70
0
  40
0
  41
1
  42
1
  50
0
  71
0
  3
isocp.shx
  0
STYLE
  2
KICADI
  70
0
  40
0
  41
1
  42
1
  50
15
  71
0
  3
isocp.shx
  0
STYLE
  2
KICADBI
  70
0
  40
0
  41
1
  42
1
  50
15
  71
0
  3
isocp.shx
  0
ENDTAB
  0
TABLE
  2
LAYER
  70
1
  0
LAYER
  2
BLACK
  70
0
  62
7
  6
CONTINUOUS
  0
ENDTAB
  0
ENDSEC
  0
SECTION
  2
ENTITIES
0
LINE
8
BLACK
6
CONTINUOUS
10
1.91496
20
1.4065
11
1.91956
21
1.40598
0
LINE
8
BLACK
6
CONTINUOUS
10
1.91956
20
1.40598
11
1.92393
21
1.40445
0
LINE
8
BLACK
6
CONTINUOUS
10
1.92393
20
1.40445
11
1.92785
21
1.40199
0
LINE
8
BLACK
6
CONTINUOUS
10
1.92785
20
1.40199
11
1.93112
21
1.39871
0
LINE
8
BLACK
6
CONTINUOUS
10
1.93112
20
1.39871
11
1.93358
21
1.39479
0
LINE
8
BLACK
6
CONTINUOUS
10
1.93358
20
1.39479
11
1.93511
21
1.39043
0
LINE
8
BLACK
6
CONTINUOUS
10
1.93511
20
1.39043
11
1.93563
21
1.38583
0
LINE
8
BLACK
6
CONTINUOUS
10
1.93563
20
1.38583
11
1.93563
21
1.33071
0
LINE
8
BLACK
6
CONTINUOUS
10
1.93563
20
1.33071
11
1.93511
21
1.32611
0
LINE
8
BLACK
6
CONTINUOUS
10
1.93511
20
1.32611
11
1.93358
21
1.32174
0
LINE
8
BLACK
6
CONTINUOUS
10
1.93358
20
1.32174
11
1.93112
21
1.31782
0
LINE
8
BLACK
6
CONTINUOUS
10
1.93112
20
1.31782
11
1.92785
21
1.31455
0
LINE
8
BLACK
6
CONTINUOUS
10
1.92785
20
1.31455
11
1.92393
21
1.31209
0
LINE
8
BLACK
6
CONTINUOUS
10
1.92393
20
1.31209
11
1.91956
21
1.31056
0
LINE
8
BLACK
6
CONTINUOUS
10
1.91956
20
1.31056
11
1.91496
21
1.31004
0
LINE
8
BLACK
6
CONTINUOUS
10
1.91496
20
1.31004
11
1.86772
21
1.31004
0
LINE
8
BLACK
6
CONTINUOUS
10
1.86772
20
1.31004
11
1.86312
21
1.31056
0
LINE
8
BLACK
6
CONTINUOUS
10
1.86312
20
1.31056
11
1.85875
21
1.31209
0
LINE
8
BLACK
6
CONTINUOUS
10
1.85875
20
1.31209
11
1.85483
21
1.31455
0
LINE
8
BLACK
6
CONTINUOUS
10
1.85483
20
1.31455
11
1.85156
21
1.31782
0
LINE
8
BLACK
6
CONTINUOUS
10
1.85156
20
1.31782
11
1.84909
21
1.32174
0
LINE
8
BLACK
6
CONTINUOUS
10
1.84909
20
1.32174
11
1.84757
21
1.32611
0
LINE
8
BLACK
6
CONTINUOUS
10
1.84757
20
1.32611
11
1.84705
21
1.33071
0
LINE
8
BLACK
6
CONTINUOUS
10
1.84705
20
1.33071
11
1.84705
21
1.38583
0
LINE
8
BLACK
6
CONTINUOUS
10
1.84705
20
1.38583
11
1.84705
21
1.38583
0
LINE
8
BLACK
6
CONTINUOUS
10
1.84705
20
1.38583
11
1.84757
21
1.39043
0
LINE
8
BLACK
6
CONTINUOUS
10
1.84757
20
1.39043
11
1.84909
21
1.39479
0
LINE
8
BLACK
6
CONTINUOUS
10
1.84909
20
1.39479
11
1.85156
21
1.39871
0
LINE
8
BLACK
6
CONTINUOUS
10
1.85156
20
1.39871
11
1.85483
21
1.40199
0
LINE
8
BLACK
6
CONTINUOUS
10
1.85483
20
1.40199
11
1.85875
21
1.40445
0
LINE
8
BLACK
6
CONTINUOUS
10
1.85875
20
1.40445
11
1.86312
21
1.40598
0
LINE
8
BLACK
6
CONTINUOUS
10
1.86312
20
1.40598
11
1.86772
21
1.4065
0
LINE
8
BLACK
6
CONTINUOUS
10
1.86772
20
1.4065
11
1.91496
21
1.4065
0
LINE
8
BLACK
6
CONTINUOUS
10
1.86772
20
1.40453
11
1.86525
21
1.40453
0
LINE
8
BLACK
6
CONTINUOUS
10
1.86525
20
1.40453
11
1.8605
21
1.40325
0
LINE
8
BLACK
6
CONTINUOUS
10
1.8605
20
1.40325
11
1.85623
21
1.40079
0
LINE
8
BLACK
6
CONTINUOUS
10
1.85623
20
1.40079
11
1.85275
21
1.39731
0
LINE
8
BLACK
6
CONTINUOUS
10
1.85275
20
1.39731
11
1.85029
21
1.39304
0
LINE
8
BLACK
6
CONTINUOUS
10
1.85029
20
1.39304
11
1.84902
21
1.38829
0
LINE
8
BLACK
6
CONTINUOUS
10
1.84902
20
1.38829
11
1.84902
21
1.38583
0
LINE
8
BLACK
6
CONTINUOUS
10
1.84902
20
1.38583
11
1.84902
21
1.38583
0
LINE
8
BLACK
6
CONTINUOUS
10
1.84902
20
1.38583
11
1.84902
21
1.33071
0
LINE
8
BLACK
6
CONTINUOUS
10
1.84902
20
1.33071
11
1.84902
21
1.32825
0
LINE
8
BLACK
6
CONTINUOUS
10
1.84902
20
1.32825
11
1.85029
21
1.32349
0
LINE
8
BLACK
6
CONTINUOUS
10
1.85029
20
1.32349
11
1.85275
21
1.31923
0
LINE
8
BLACK
6
CONTINUOUS
10
1.85275
20
1.31923
11
1.85623
21
1.31574
0
LINE
8
BLACK
6
CONTINUOUS
10
1.85623
20
1.31574
11
1.8605
21
1.31328
0
LINE
8
BLACK
6
CONTINUOUS
10
1.8605
20
1.31328
11
1.86525
21
1.31201
0
LINE
8
BLACK
6
CONTINUOUS
10
1.86525
20
1.31201
11
1.86772
21
1.31201
0
LINE
8
BLACK
6
CONTINUOUS
10
1.86772
20
1.31201
11
1.91496
21
1.31201
0
LINE
8
BLACK
6
CONTINUOUS
10
1.91496
20
1.31201
11
1.91742
21
1.31201
0
LINE
8
BLACK
6
CONTINUOUS
10
1.91742
20
1.31201
11
1.92218
21
1.31328
0
LINE
8
BLACK
6
CONTINUOUS
10
1.92218
20
1.31328
11
1.92644
21
1.31574
0
LINE
8
BLACK
6
CONTINUOUS
10
1.92644
20
1.31574
11
1.92992
21
1.31923
0
LINE
8
BLACK
6
CONTINUOUS
10
1.92992
20
1.31923
11
1.93239
21
1.32349
0
LINE
8
BLACK
6
CONTINUOUS
10
1.93239
20
1.32349
11
1.93366
21
1.32825
0
LINE
8
BLACK
6
CONTINUOUS
10
1.93366
20
1.32825
11
1.93366
21
1.33071
0
LINE
8
BLACK
6
CONTINUOUS
10
1.93366
20
1.33071
11
1.93366
21
1.38583
0
LINE
8
BLACK
6
CONTINUOUS
10
1.93366
20
1.38583
11
1.93366
21
1.38829
0
LINE
8
BLACK
6
CONTINUOUS
10
1.93366
20
1.38829
11
1.93239
21
1.39304
0
LINE
8
BLACK
6
CONTINUOUS
10
1.93239
20
1.39304
11
1.92992
21
1.39731
0
LINE
8
BLACK
6
CONTINUOUS
10
1.92992
20
1.39731
11
1.92644
21
1.40079
0
LINE
8
BLACK
6
CONTINUOUS
10
1.92644
20
1.40079
11
1.92218
21
1.40325
0
LINE
8
BLACK
6
CONTINUOUS
10
1.92218
20
1.40325
11
1.91742
21
1.40453
0
LINE
8
BLACK
6
CONTINUOUS
10
1.91742
20
1.40453
11
1.91496
21
1.40453
0
LINE
8
BLACK
6
CONTINUOUS
10
1.91496
20
1.40453
11
1.86772
21
1.40453
0
LINE
8
BLACK
6
CONTINUOUS
10
2.08172
20
1.79289
11
2.08185
21
1.79291
0
LINE
8
BLACK
6
CONTINUOUS
10
2.08185
20
1.79291
11
2.08196
21
1.79284
0
LINE
8
BLACK
6
CONTINUOUS
10
2.08196
20
1.79284
11
2.08235
21
1.79277
0
LINE
8
BLACK
6
CONTINUOUS
10
2.08235
20
1.79277
11
2.08294
21
1.79228
0
LINE
8
BLACK
6
CONTINUOUS
10
2.08294
20
1.79228
11
2.0836
21
1.7919
0
LINE
8
BLACK
6
CONTINUOUS
10
2.0836
20
1.7919
11
2.08369
21
1.79165
0
LINE
8
BLACK
6
CONTINUOUS
10
2.08369
20
1.79165
11
2.0839
21
1.79148
0
LINE
8
BLACK
6
CONTINUOUS
10
2.0839
20
1.79148
11
2.08403
21
1.79072
0
LINE
8
BLACK
6
CONTINUOUS
10
2.08403
20
1.79072
11
2.08429
21
1.79
0
LINE
8
BLACK
6
CONTINUOUS
10
2.08429
20
1.79
11
2.08429
21
0.21
0
LINE
8
BLACK
6
CONTINUOUS
10
2.08429
20
0.21
11
2.08422
21
0.209616
0
LINE
8
BLACK
6
CONTINUOUS
10
2.08422
20
0.209616
11
2.08425
21
0.209487
0
LINE
8
BLACK
6
CONTINUOUS
10
2.08425
20
0.209487
11
2.08418
21
0.209374
0
LINE
8
BLACK
6
CONTINUOUS
10
2.08418
20
0.209374
11
2.08411
21
0.20899
0
LINE
8
BLACK
6
CONTINUOUS
10
2.08411
20
0.20899
11
2.08362
21
0.208402
0
LINE
8
BLACK
6
CONTINUOUS
10
2.08362
20
0.208402
11
2.08324
21
0.207738
0
LINE
8
BLACK
6
CONTINUOUS
10
2.08324
20
0.207738
11
2.08299
21
0.207647
0
LINE
8
BLACK
6
CONTINUOUS
10
2.08299
20
0.207647
11
2.08281
21
0.207443
0
LINE
8
BLACK
6
CONTINUOUS
10
2.08281
20
0.207443
11
2.08206
21
0.20731
0
LINE
8
BLACK
6
CONTINUOUS
10
2.08206
20
0.20731
11
2.08134
21
0.207047
0
LINE
8
BLACK
6
CONTINUOUS
10
2.08134
20
0.207047
11
0.101339
21
0.207047
0
LINE
8
BLACK
6
CONTINUOUS
10
0.101339
20
0.207047
11
0.100955
21
0.207115
0
LINE
8
BLACK
6
CONTINUOUS
10
0.100955
20
0.207115
11
0.100826
21
0.207092
0
LINE
8
BLACK
6
CONTINUOUS
10
0.100826
20
0.207092
11
0.100712
21
0.207158
0
LINE
8
BLACK
6
CONTINUOUS
10
0.100712
20
0.207158
11
0.100329
21
0.207225
0
LINE
8
BLACK
6
CONTINUOUS
10
0.100329
20
0.207225
11
0.0997409
21
0.207718
0
LINE
8
BLACK
6
CONTINUOUS
10
0.0997409
20
0.207718
11
0.0990767
21
0.208102
0
LINE
8
BLACK
6
CONTINUOUS
10
0.0990767
20
0.208102
11
0.0989855
21
0.208352
0
LINE
8
BLACK
6
CONTINUOUS
10
0.0989855
20
0.208352
11
0.0987814
21
0.208524
0
LINE
8
BLACK
6
CONTINUOUS
10
0.0987814
20
0.208524
11
0.0986481
21
0.209279
0
LINE
8
BLACK
6
CONTINUOUS
10
0.0986481
20
0.209279
11
0.0983858
21
0.21
0
LINE
8
BLACK
6
CONTINUOUS
10
0.0983858
20
0.21
11
0.0983858
21
1.79
0
LINE
8
BLACK
6
CONTINUOUS
10
0.0983858
20
1.79
11
0.0984534
21
1.79038
0
LINE
8
BLACK
6
CONTINUOUS
10
0.0984534
20
1.79038
11
0.0984307
21
1.79051
0
LINE
8
BLACK
6
CONTINUOUS
10
0.0984307
20
1.79051
11
0.0984963
21
1.79063
0
LINE
8
BLACK
6
CONTINUOUS
10
0.0984963
20
1.79063
11
0.0985639
21
1.79101
0
LINE
8
BLACK
6
CONTINUOUS
10
0.0985639
20
1.79101
11
0.099057
21
1.7916
0
LINE
8
BLACK
6
CONTINUOUS
10
0.099057
20
1.7916
11
0.0994406
21
1.79226
0
LINE
8
BLACK
6
CONTINUOUS
10
0.0994406
20
1.79226
11
0.0996909
21
1.79235
0
LINE
8
BLACK
6
CONTINUOUS
10
0.0996909
20
1.79235
11
0.0998622
21
1.79256
0
LINE
8
BLACK
6
CONTINUOUS
10
0.0998622
20
1.79256
11
0.100618
21
1.79269
0
LINE
8
BLACK
6
CONTINUOUS
10
0.100618
20
1.79269
11
0.101339
21
1.79295
0
LINE
8
BLACK
6
CONTINUOUS
10
0.101339
20
1.79295
11
2.08134
21
1.79295
0
LINE
8
BLACK
6
CONTINUOUS
10
2.08134
20
1.79295
11
2.08172
21
1.79289
0
LINE
8
BLACK
6
CONTINUOUS
10
0.104291
20
1.78705
11
0.104291
21
0.212953
0
LINE
8
BLACK
6
CONTINUOUS
10
0.104291
20
0.212953
11
2.07839
21
0.212953
0
LINE
8
BLACK
6
CONTINUOUS
10
2.07839
20
0.212953
11
2.07839
21
1.78705
0
LINE
8
BLACK
6
CONTINUOUS
10
2.07839
20
1.78705
11
0.104291
21
1.78705
  0
ENDSEC
  0
EOF
