  0
SECTION
  2
HEADER
  9
$ANGBASE
  50
0.0
  9
$ANGDIR
  70
1
  9
$MEASUREMENT
  70
0
  0
ENDSEC
  0
SECTION
  2
TABLES
  0
TABLE
  2
LTYPE
  70
4
  0
LTYPE
  5
40F
  2
CONTINUOUS
  70
0
  3
Solid line
  72
65
  73
0
  40
0.0
  0
LTYPE
  5
410
  2
DASHDOT
 70
0
  3
Dash Dot ____ _ ____ _
 72
65
 73
4
 40
2.0
 49
1.25
 49
-0.25
 49
0.25
 49
-0.25
  0
LTYPE
  5
411
  2
DASHED
 70
0
  3
Dashed __ __ __ __ __
 72
65
 73
2
 40
0.75
 49
0.5
 49
-0.25
  0
LTYPE
  5
43B
  2
DOTTED
 70
0
  3
Dotted .  .  .  .
 72
65
 73
2
 40
0.2
 49
0.0
 49
-0.2
  0
ENDTAB
  0
TABLE
  2
STYLE
  70
4
  0
STYLE
  2
KICAD
  70
0
  40
0
  41
1
  42
1
  50
0
  71
0
  3
isocp.shx
  0
STYLE
  2
KICADB
  70
0
  40
0
  41
1
  42
1
  50
0
  71
0
  3
isocp.shx
  0
STYLE
  2
KICADI
  70
0
  40
0
  41
1
  42
1
  50
15
  71
0
  3
isocp.shx
  0
STYLE
  2
KICADBI
  70
0
  40
0
  41
1
  42
1
  50
15
  71
0
  3
isocp.shx
  0
ENDTAB
  0
TABLE
  2
LAYER
  70
1
  0
LAYER
  2
BLACK
  70
0
  62
7
  6
CONTINUOUS
  0
ENDTAB
  0
ENDSEC
  0
SECTION
  2
ENTITIES
0
LINE
8
BLACK
6
CONTINUOUS
10
0.305444
20
0.525192
11
0.319373
21
0.522826
0
LINE
8
BLACK
6
CONTINUOUS
10
0.319373
20
0.522826
11
0.332949
21
0.518914
0
LINE
8
BLACK
6
CONTINUOUS
10
0.332949
20
0.518914
11
0.346001
21
0.513508
0
LINE
8
BLACK
6
CONTINUOUS
10
0.346001
20
0.513508
11
0.358366
21
0.506674
0
LINE
8
BLACK
6
CONTINUOUS
10
0.358366
20
0.506674
11
0.369888
21
0.498498
0
LINE
8
BLACK
6
CONTINUOUS
10
0.369888
20
0.498498
11
0.380423
21
0.489084
0
LINE
8
BLACK
6
CONTINUOUS
10
0.380423
20
0.489084
11
0.389837
21
0.47855
0
LINE
8
BLACK
6
CONTINUOUS
10
0.389837
20
0.47855
11
0.398012
21
0.467028
0
LINE
8
BLACK
6
CONTINUOUS
10
0.398012
20
0.467028
11
0.404846
21
0.454663
0
LINE
8
BLACK
6
CONTINUOUS
10
0.404846
20
0.454663
11
0.410253
21
0.44161
0
LINE
8
BLACK
6
CONTINUOUS
10
0.410253
20
0.44161
11
0.414164
21
0.428034
0
LINE
8
BLACK
6
CONTINUOUS
10
0.414164
20
0.428034
11
0.416531
21
0.414106
0
LINE
8
BLACK
6
CONTINUOUS
10
0.416531
20
0.414106
11
0.417323
21
0.4
0
LINE
8
BLACK
6
CONTINUOUS
10
0.417323
20
0.4
11
0.416531
21
0.385894
0
LINE
8
BLACK
6
CONTINUOUS
10
0.416531
20
0.385894
11
0.414164
21
0.371966
0
LINE
8
BLACK
6
CONTINUOUS
10
0.414164
20
0.371966
11
0.410253
21
0.35839
0
LINE
8
BLACK
6
CONTINUOUS
10
0.410253
20
0.35839
11
0.404846
21
0.345337
0
LINE
8
BLACK
6
CONTINUOUS
10
0.404846
20
0.345337
11
0.398012
21
0.332972
0
LINE
8
BLACK
6
CONTINUOUS
10
0.398012
20
0.332972
11
0.389837
21
0.32145
0
LINE
8
BLACK
6
CONTINUOUS
10
0.389837
20
0.32145
11
0.380423
21
0.310916
0
LINE
8
BLACK
6
CONTINUOUS
10
0.380423
20
0.310916
11
0.369888
21
0.301502
0
LINE
8
BLACK
6
CONTINUOUS
10
0.369888
20
0.301502
11
0.358366
21
0.293326
0
LINE
8
BLACK
6
CONTINUOUS
10
0.358366
20
0.293326
11
0.346001
21
0.286492
0
LINE
8
BLACK
6
CONTINUOUS
10
0.346001
20
0.286492
11
0.332949
21
0.281086
0
LINE
8
BLACK
6
CONTINUOUS
10
0.332949
20
0.281086
11
0.319373
21
0.277174
0
LINE
8
BLACK
6
CONTINUOUS
10
0.319373
20
0.277174
11
0.305444
21
0.274808
0
LINE
8
BLACK
6
CONTINUOUS
10
0.305444
20
0.274808
11
0.291339
21
0.274016
0
LINE
8
BLACK
6
CONTINUOUS
10
0.291339
20
0.274016
11
0.277233
21
0.274808
0
LINE
8
BLACK
6
CONTINUOUS
10
0.277233
20
0.274808
11
0.263304
21
0.277174
0
LINE
8
BLACK
6
CONTINUOUS
10
0.263304
20
0.277174
11
0.249729
21
0.281086
0
LINE
8
BLACK
6
CONTINUOUS
10
0.249729
20
0.281086
11
0.236676
21
0.286492
0
LINE
8
BLACK
6
CONTINUOUS
10
0.236676
20
0.286492
11
0.224311
21
0.293326
0
LINE
8
BLACK
6
CONTINUOUS
10
0.224311
20
0.293326
11
0.212789
21
0.301502
0
LINE
8
BLACK
6
CONTINUOUS
10
0.212789
20
0.301502
11
0.202254
21
0.310916
0
LINE
8
BLACK
6
CONTINUOUS
10
0.202254
20
0.310916
11
0.19284
21
0.32145
0
LINE
8
BLACK
6
CONTINUOUS
10
0.19284
20
0.32145
11
0.184665
21
0.332972
0
LINE
8
BLACK
6
CONTINUOUS
10
0.184665
20
0.332972
11
0.177831
21
0.345337
0
LINE
8
BLACK
6
CONTINUOUS
10
0.177831
20
0.345337
11
0.172424
21
0.35839
0
LINE
8
BLACK
6
CONTINUOUS
10
0.172424
20
0.35839
11
0.168513
21
0.371966
0
LINE
8
BLACK
6
CONTINUOUS
10
0.168513
20
0.371966
11
0.166146
21
0.385894
0
LINE
8
BLACK
6
CONTINUOUS
10
0.166146
20
0.385894
11
0.165354
21
0.4
0
LINE
8
BLACK
6
CONTINUOUS
10
0.165354
20
0.4
11
0.166146
21
0.414106
0
LINE
8
BLACK
6
CONTINUOUS
10
0.166146
20
0.414106
11
0.168513
21
0.428034
0
LINE
8
BLACK
6
CONTINUOUS
10
0.168513
20
0.428034
11
0.172424
21
0.44161
0
LINE
8
BLACK
6
CONTINUOUS
10
0.172424
20
0.44161
11
0.177831
21
0.454663
0
LINE
8
BLACK
6
CONTINUOUS
10
0.177831
20
0.454663
11
0.184665
21
0.467028
0
LINE
8
BLACK
6
CONTINUOUS
10
0.184665
20
0.467028
11
0.19284
21
0.47855
0
LINE
8
BLACK
6
CONTINUOUS
10
0.19284
20
0.47855
11
0.202254
21
0.489084
0
LINE
8
BLACK
6
CONTINUOUS
10
0.202254
20
0.489084
11
0.212789
21
0.498498
0
LINE
8
BLACK
6
CONTINUOUS
10
0.212789
20
0.498498
11
0.224311
21
0.506674
0
LINE
8
BLACK
6
CONTINUOUS
10
0.224311
20
0.506674
11
0.236676
21
0.513508
0
LINE
8
BLACK
6
CONTINUOUS
10
0.236676
20
0.513508
11
0.249729
21
0.518914
0
LINE
8
BLACK
6
CONTINUOUS
10
0.249729
20
0.518914
11
0.263304
21
0.522826
0
LINE
8
BLACK
6
CONTINUOUS
10
0.263304
20
0.522826
11
0.277233
21
0.525192
0
LINE
8
BLACK
6
CONTINUOUS
10
0.277233
20
0.525192
11
0.291339
21
0.525984
0
LINE
8
BLACK
6
CONTINUOUS
10
0.291339
20
0.525984
11
0.305444
21
0.525192
0
LINE
8
BLACK
6
CONTINUOUS
10
1.90544
20
0.525192
11
1.91937
21
0.522826
0
LINE
8
BLACK
6
CONTINUOUS
10
1.91937
20
0.522826
11
1.93295
21
0.518914
0
LINE
8
BLACK
6
CONTINUOUS
10
1.93295
20
0.518914
11
1.946
21
0.513508
0
LINE
8
BLACK
6
CONTINUOUS
10
1.946
20
0.513508
11
1.95837
21
0.506674
0
LINE
8
BLACK
6
CONTINUOUS
10
1.95837
20
0.506674
11
1.96989
21
0.498498
0
LINE
8
BLACK
6
CONTINUOUS
10
1.96989
20
0.498498
11
1.98042
21
0.489084
0
LINE
8
BLACK
6
CONTINUOUS
10
1.98042
20
0.489084
11
1.98984
21
0.47855
0
LINE
8
BLACK
6
CONTINUOUS
10
1.98984
20
0.47855
11
1.99801
21
0.467028
0
LINE
8
BLACK
6
CONTINUOUS
10
1.99801
20
0.467028
11
2.00485
21
0.454663
0
LINE
8
BLACK
6
CONTINUOUS
10
2.00485
20
0.454663
11
2.01025
21
0.44161
0
LINE
8
BLACK
6
CONTINUOUS
10
2.01025
20
0.44161
11
2.01416
21
0.428034
0
LINE
8
BLACK
6
CONTINUOUS
10
2.01416
20
0.428034
11
2.01653
21
0.414106
0
LINE
8
BLACK
6
CONTINUOUS
10
2.01653
20
0.414106
11
2.01732
21
0.4
0
LINE
8
BLACK
6
CONTINUOUS
10
2.01732
20
0.4
11
2.01653
21
0.385894
0
LINE
8
BLACK
6
CONTINUOUS
10
2.01653
20
0.385894
11
2.01416
21
0.371966
0
LINE
8
BLACK
6
CONTINUOUS
10
2.01416
20
0.371966
11
2.01025
21
0.35839
0
LINE
8
BLACK
6
CONTINUOUS
10
2.01025
20
0.35839
11
2.00485
21
0.345337
0
LINE
8
BLACK
6
CONTINUOUS
10
2.00485
20
0.345337
11
1.99801
21
0.332972
0
LINE
8
BLACK
6
CONTINUOUS
10
1.99801
20
0.332972
11
1.98984
21
0.32145
0
LINE
8
BLACK
6
CONTINUOUS
10
1.98984
20
0.32145
11
1.98042
21
0.310916
0
LINE
8
BLACK
6
CONTINUOUS
10
1.98042
20
0.310916
11
1.96989
21
0.301502
0
LINE
8
BLACK
6
CONTINUOUS
10
1.96989
20
0.301502
11
1.95837
21
0.293326
0
LINE
8
BLACK
6
CONTINUOUS
10
1.95837
20
0.293326
11
1.946
21
0.286492
0
LINE
8
BLACK
6
CONTINUOUS
10
1.946
20
0.286492
11
1.93295
21
0.281086
0
LINE
8
BLACK
6
CONTINUOUS
10
1.93295
20
0.281086
11
1.91937
21
0.277174
0
LINE
8
BLACK
6
CONTINUOUS
10
1.91937
20
0.277174
11
1.90544
21
0.274808
0
LINE
8
BLACK
6
CONTINUOUS
10
1.90544
20
0.274808
11
1.89134
21
0.274016
0
LINE
8
BLACK
6
CONTINUOUS
10
1.89134
20
0.274016
11
1.87723
21
0.274808
0
LINE
8
BLACK
6
CONTINUOUS
10
1.87723
20
0.274808
11
1.8633
21
0.277174
0
LINE
8
BLACK
6
CONTINUOUS
10
1.8633
20
0.277174
11
1.84973
21
0.281086
0
LINE
8
BLACK
6
CONTINUOUS
10
1.84973
20
0.281086
11
1.83668
21
0.286492
0
LINE
8
BLACK
6
CONTINUOUS
10
1.83668
20
0.286492
11
1.82431
21
0.293326
0
LINE
8
BLACK
6
CONTINUOUS
10
1.82431
20
0.293326
11
1.81279
21
0.301502
0
LINE
8
BLACK
6
CONTINUOUS
10
1.81279
20
0.301502
11
1.80225
21
0.310916
0
LINE
8
BLACK
6
CONTINUOUS
10
1.80225
20
0.310916
11
1.79284
21
0.32145
0
LINE
8
BLACK
6
CONTINUOUS
10
1.79284
20
0.32145
11
1.78466
21
0.332972
0
LINE
8
BLACK
6
CONTINUOUS
10
1.78466
20
0.332972
11
1.77783
21
0.345337
0
LINE
8
BLACK
6
CONTINUOUS
10
1.77783
20
0.345337
11
1.77242
21
0.35839
0
LINE
8
BLACK
6
CONTINUOUS
10
1.77242
20
0.35839
11
1.76851
21
0.371966
0
LINE
8
BLACK
6
CONTINUOUS
10
1.76851
20
0.371966
11
1.76615
21
0.385894
0
LINE
8
BLACK
6
CONTINUOUS
10
1.76615
20
0.385894
11
1.76535
21
0.4
0
LINE
8
BLACK
6
CONTINUOUS
10
1.76535
20
0.4
11
1.76615
21
0.414106
0
LINE
8
BLACK
6
CONTINUOUS
10
1.76615
20
0.414106
11
1.76851
21
0.428034
0
LINE
8
BLACK
6
CONTINUOUS
10
1.76851
20
0.428034
11
1.77242
21
0.44161
0
LINE
8
BLACK
6
CONTINUOUS
10
1.77242
20
0.44161
11
1.77783
21
0.454663
0
LINE
8
BLACK
6
CONTINUOUS
10
1.77783
20
0.454663
11
1.78466
21
0.467028
0
LINE
8
BLACK
6
CONTINUOUS
10
1.78466
20
0.467028
11
1.79284
21
0.47855
0
LINE
8
BLACK
6
CONTINUOUS
10
1.79284
20
0.47855
11
1.80225
21
0.489084
0
LINE
8
BLACK
6
CONTINUOUS
10
1.80225
20
0.489084
11
1.81279
21
0.498498
0
LINE
8
BLACK
6
CONTINUOUS
10
1.81279
20
0.498498
11
1.82431
21
0.506674
0
LINE
8
BLACK
6
CONTINUOUS
10
1.82431
20
0.506674
11
1.83668
21
0.513508
0
LINE
8
BLACK
6
CONTINUOUS
10
1.83668
20
0.513508
11
1.84973
21
0.518914
0
LINE
8
BLACK
6
CONTINUOUS
10
1.84973
20
0.518914
11
1.8633
21
0.522826
0
LINE
8
BLACK
6
CONTINUOUS
10
1.8633
20
0.522826
11
1.87723
21
0.525192
0
LINE
8
BLACK
6
CONTINUOUS
10
1.87723
20
0.525192
11
1.89134
21
0.525984
0
LINE
8
BLACK
6
CONTINUOUS
10
1.89134
20
0.525984
11
1.90544
21
0.525192
0
LINE
8
BLACK
6
CONTINUOUS
10
0.612541
20
0.372905
11
0.615095
21
0.371198
0
LINE
8
BLACK
6
CONTINUOUS
10
0.615095
20
0.371198
11
0.616802
21
0.368643
0
LINE
8
BLACK
6
CONTINUOUS
10
0.616802
20
0.368643
11
0.617402
21
0.36563
0
LINE
8
BLACK
6
CONTINUOUS
10
0.617402
20
0.36563
11
0.617402
21
0.30563
0
LINE
8
BLACK
6
CONTINUOUS
10
0.617402
20
0.30563
11
0.616802
21
0.302617
0
LINE
8
BLACK
6
CONTINUOUS
10
0.616802
20
0.302617
11
0.615095
21
0.300062
0
LINE
8
BLACK
6
CONTINUOUS
10
0.615095
20
0.300062
11
0.612541
21
0.298355
0
LINE
8
BLACK
6
CONTINUOUS
10
0.612541
20
0.298355
11
0.609528
21
0.297756
0
LINE
8
BLACK
6
CONTINUOUS
10
0.609528
20
0.297756
11
0.549528
21
0.297756
0
LINE
8
BLACK
6
CONTINUOUS
10
0.549528
20
0.297756
11
0.546514
21
0.298355
0
LINE
8
BLACK
6
CONTINUOUS
10
0.546514
20
0.298355
11
0.54396
21
0.300062
0
LINE
8
BLACK
6
CONTINUOUS
10
0.54396
20
0.300062
11
0.542253
21
0.302617
0
LINE
8
BLACK
6
CONTINUOUS
10
0.542253
20
0.302617
11
0.541654
21
0.30563
0
LINE
8
BLACK
6
CONTINUOUS
10
0.541654
20
0.30563
11
0.541654
21
0.36563
0
LINE
8
BLACK
6
CONTINUOUS
10
0.541654
20
0.36563
11
0.542253
21
0.368643
0
LINE
8
BLACK
6
CONTINUOUS
10
0.542253
20
0.368643
11
0.54396
21
0.371198
0
LINE
8
BLACK
6
CONTINUOUS
10
0.54396
20
0.371198
11
0.546514
21
0.372905
0
LINE
8
BLACK
6
CONTINUOUS
10
0.546514
20
0.372905
11
0.549528
21
0.373504
0
LINE
8
BLACK
6
CONTINUOUS
10
0.549528
20
0.373504
11
0.609528
21
0.373504
0
LINE
8
BLACK
6
CONTINUOUS
10
0.609528
20
0.373504
11
0.612541
21
0.372905
0
LINE
8
BLACK
6
CONTINUOUS
10
0.712541
20
0.372905
11
0.715095
21
0.371198
0
LINE
8
BLACK
6
CONTINUOUS
10
0.715095
20
0.371198
11
0.716802
21
0.368643
0
LINE
8
BLACK
6
CONTINUOUS
10
0.716802
20
0.368643
11
0.717402
21
0.36563
0
LINE
8
BLACK
6
CONTINUOUS
10
0.717402
20
0.36563
11
0.717402
21
0.30563
0
LINE
8
BLACK
6
CONTINUOUS
10
0.717402
20
0.30563
11
0.716802
21
0.302617
0
LINE
8
BLACK
6
CONTINUOUS
10
0.716802
20
0.302617
11
0.715095
21
0.300062
0
LINE
8
BLACK
6
CONTINUOUS
10
0.715095
20
0.300062
11
0.712541
21
0.298355
0
LINE
8
BLACK
6
CONTINUOUS
10
0.712541
20
0.298355
11
0.709528
21
0.297756
0
LINE
8
BLACK
6
CONTINUOUS
10
0.709528
20
0.297756
11
0.649528
21
0.297756
0
LINE
8
BLACK
6
CONTINUOUS
10
0.649528
20
0.297756
11
0.646514
21
0.298355
0
LINE
8
BLACK
6
CONTINUOUS
10
0.646514
20
0.298355
11
0.64396
21
0.300062
0
LINE
8
BLACK
6
CONTINUOUS
10
0.64396
20
0.300062
11
0.642253
21
0.302617
0
LINE
8
BLACK
6
CONTINUOUS
10
0.642253
20
0.302617
11
0.641654
21
0.30563
0
LINE
8
BLACK
6
CONTINUOUS
10
0.641654
20
0.30563
11
0.641654
21
0.36563
0
LINE
8
BLACK
6
CONTINUOUS
10
0.641654
20
0.36563
11
0.642253
21
0.368643
0
LINE
8
BLACK
6
CONTINUOUS
10
0.642253
20
0.368643
11
0.64396
21
0.371198
0
LINE
8
BLACK
6
CONTINUOUS
10
0.64396
20
0.371198
11
0.646514
21
0.372905
0
LINE
8
BLACK
6
CONTINUOUS
10
0.646514
20
0.372905
11
0.649528
21
0.373504
0
LINE
8
BLACK
6
CONTINUOUS
10
0.649528
20
0.373504
11
0.709528
21
0.373504
0
LINE
8
BLACK
6
CONTINUOUS
10
0.709528
20
0.373504
11
0.712541
21
0.372905
0
LINE
8
BLACK
6
CONTINUOUS
10
0.812541
20
0.372905
11
0.815095
21
0.371198
0
LINE
8
BLACK
6
CONTINUOUS
10
0.815095
20
0.371198
11
0.816802
21
0.368643
0
LINE
8
BLACK
6
CONTINUOUS
10
0.816802
20
0.368643
11
0.817402
21
0.36563
0
LINE
8
BLACK
6
CONTINUOUS
10
0.817402
20
0.36563
11
0.817402
21
0.30563
0
LINE
8
BLACK
6
CONTINUOUS
10
0.817402
20
0.30563
11
0.816802
21
0.302617
0
LINE
8
BLACK
6
CONTINUOUS
10
0.816802
20
0.302617
11
0.815095
21
0.300062
0
LINE
8
BLACK
6
CONTINUOUS
10
0.815095
20
0.300062
11
0.812541
21
0.298355
0
LINE
8
BLACK
6
CONTINUOUS
10
0.812541
20
0.298355
11
0.809528
21
0.297756
0
LINE
8
BLACK
6
CONTINUOUS
10
0.809528
20
0.297756
11
0.749528
21
0.297756
0
LINE
8
BLACK
6
CONTINUOUS
10
0.749528
20
0.297756
11
0.746514
21
0.298355
0
LINE
8
BLACK
6
CONTINUOUS
10
0.746514
20
0.298355
11
0.74396
21
0.300062
0
LINE
8
BLACK
6
CONTINUOUS
10
0.74396
20
0.300062
11
0.742253
21
0.302617
0
LINE
8
BLACK
6
CONTINUOUS
10
0.742253
20
0.302617
11
0.741654
21
0.30563
0
LINE
8
BLACK
6
CONTINUOUS
10
0.741654
20
0.30563
11
0.741654
21
0.36563
0
LINE
8
BLACK
6
CONTINUOUS
10
0.741654
20
0.36563
11
0.742253
21
0.368643
0
LINE
8
BLACK
6
CONTINUOUS
10
0.742253
20
0.368643
11
0.74396
21
0.371198
0
LINE
8
BLACK
6
CONTINUOUS
10
0.74396
20
0.371198
11
0.746514
21
0.372905
0
LINE
8
BLACK
6
CONTINUOUS
10
0.746514
20
0.372905
11
0.749528
21
0.373504
0
LINE
8
BLACK
6
CONTINUOUS
10
0.749528
20
0.373504
11
0.809528
21
0.373504
0
LINE
8
BLACK
6
CONTINUOUS
10
0.809528
20
0.373504
11
0.812541
21
0.372905
0
LINE
8
BLACK
6
CONTINUOUS
10
1.11175
20
0.373347
11
1.11431
21
0.371641
0
LINE
8
BLACK
6
CONTINUOUS
10
1.11431
20
0.371641
11
1.11601
21
0.369086
0
LINE
8
BLACK
6
CONTINUOUS
10
1.11601
20
0.369086
11
1.11661
21
0.366073
0
LINE
8
BLACK
6
CONTINUOUS
10
1.11661
20
0.366073
11
1.11661
21
0.306073
0
LINE
8
BLACK
6
CONTINUOUS
10
1.11661
20
0.306073
11
1.11601
21
0.30306
0
LINE
8
BLACK
6
CONTINUOUS
10
1.11601
20
0.30306
11
1.11431
21
0.300505
0
LINE
8
BLACK
6
CONTINUOUS
10
1.11431
20
0.300505
11
1.11175
21
0.298798
0
LINE
8
BLACK
6
CONTINUOUS
10
1.11175
20
0.298798
11
1.10874
21
0.298199
0
LINE
8
BLACK
6
CONTINUOUS
10
1.10874
20
0.298199
11
1.04874
21
0.298199
0
LINE
8
BLACK
6
CONTINUOUS
10
1.04874
20
0.298199
11
1.04573
21
0.298798
0
LINE
8
BLACK
6
CONTINUOUS
10
1.04573
20
0.298798
11
1.04317
21
0.300505
0
LINE
8
BLACK
6
CONTINUOUS
10
1.04317
20
0.300505
11
1.04147
21
0.30306
0
LINE
8
BLACK
6
CONTINUOUS
10
1.04147
20
0.30306
11
1.04087
21
0.306073
0
LINE
8
BLACK
6
CONTINUOUS
10
1.04087
20
0.306073
11
1.04087
21
0.366073
0
LINE
8
BLACK
6
CONTINUOUS
10
1.04087
20
0.366073
11
1.04147
21
0.369086
0
LINE
8
BLACK
6
CONTINUOUS
10
1.04147
20
0.369086
11
1.04317
21
0.371641
0
LINE
8
BLACK
6
CONTINUOUS
10
1.04317
20
0.371641
11
1.04573
21
0.373347
0
LINE
8
BLACK
6
CONTINUOUS
10
1.04573
20
0.373347
11
1.04874
21
0.373947
0
LINE
8
BLACK
6
CONTINUOUS
10
1.04874
20
0.373947
11
1.10874
21
0.373947
0
LINE
8
BLACK
6
CONTINUOUS
10
1.10874
20
0.373947
11
1.11175
21
0.373347
0
LINE
8
BLACK
6
CONTINUOUS
10
1.21175
20
0.373347
11
1.21431
21
0.371641
0
LINE
8
BLACK
6
CONTINUOUS
10
1.21431
20
0.371641
11
1.21601
21
0.369086
0
LINE
8
BLACK
6
CONTINUOUS
10
1.21601
20
0.369086
11
1.21661
21
0.366073
0
LINE
8
BLACK
6
CONTINUOUS
10
1.21661
20
0.366073
11
1.21661
21
0.306073
0
LINE
8
BLACK
6
CONTINUOUS
10
1.21661
20
0.306073
11
1.21601
21
0.30306
0
LINE
8
BLACK
6
CONTINUOUS
10
1.21601
20
0.30306
11
1.21431
21
0.300505
0
LINE
8
BLACK
6
CONTINUOUS
10
1.21431
20
0.300505
11
1.21175
21
0.298798
0
LINE
8
BLACK
6
CONTINUOUS
10
1.21175
20
0.298798
11
1.20874
21
0.298199
0
LINE
8
BLACK
6
CONTINUOUS
10
1.20874
20
0.298199
11
1.14874
21
0.298199
0
LINE
8
BLACK
6
CONTINUOUS
10
1.14874
20
0.298199
11
1.14573
21
0.298798
0
LINE
8
BLACK
6
CONTINUOUS
10
1.14573
20
0.298798
11
1.14317
21
0.300505
0
LINE
8
BLACK
6
CONTINUOUS
10
1.14317
20
0.300505
11
1.14147
21
0.30306
0
LINE
8
BLACK
6
CONTINUOUS
10
1.14147
20
0.30306
11
1.14087
21
0.306073
0
LINE
8
BLACK
6
CONTINUOUS
10
1.14087
20
0.306073
11
1.14087
21
0.366073
0
LINE
8
BLACK
6
CONTINUOUS
10
1.14087
20
0.366073
11
1.14147
21
0.369086
0
LINE
8
BLACK
6
CONTINUOUS
10
1.14147
20
0.369086
11
1.14317
21
0.371641
0
LINE
8
BLACK
6
CONTINUOUS
10
1.14317
20
0.371641
11
1.14573
21
0.373347
0
LINE
8
BLACK
6
CONTINUOUS
10
1.14573
20
0.373347
11
1.14874
21
0.373947
0
LINE
8
BLACK
6
CONTINUOUS
10
1.14874
20
0.373947
11
1.20874
21
0.373947
0
LINE
8
BLACK
6
CONTINUOUS
10
1.20874
20
0.373947
11
1.21175
21
0.373347
0
LINE
8
BLACK
6
CONTINUOUS
10
1.31175
20
0.373347
11
1.31431
21
0.371641
0
LINE
8
BLACK
6
CONTINUOUS
10
1.31431
20
0.371641
11
1.31601
21
0.369086
0
LINE
8
BLACK
6
CONTINUOUS
10
1.31601
20
0.369086
11
1.31661
21
0.366073
0
LINE
8
BLACK
6
CONTINUOUS
10
1.31661
20
0.366073
11
1.31661
21
0.306073
0
LINE
8
BLACK
6
CONTINUOUS
10
1.31661
20
0.306073
11
1.31601
21
0.30306
0
LINE
8
BLACK
6
CONTINUOUS
10
1.31601
20
0.30306
11
1.31431
21
0.300505
0
LINE
8
BLACK
6
CONTINUOUS
10
1.31431
20
0.300505
11
1.31175
21
0.298798
0
LINE
8
BLACK
6
CONTINUOUS
10
1.31175
20
0.298798
11
1.30874
21
0.298199
0
LINE
8
BLACK
6
CONTINUOUS
10
1.30874
20
0.298199
11
1.24874
21
0.298199
0
LINE
8
BLACK
6
CONTINUOUS
10
1.24874
20
0.298199
11
1.24573
21
0.298798
0
LINE
8
BLACK
6
CONTINUOUS
10
1.24573
20
0.298798
11
1.24317
21
0.300505
0
LINE
8
BLACK
6
CONTINUOUS
10
1.24317
20
0.300505
11
1.24147
21
0.30306
0
LINE
8
BLACK
6
CONTINUOUS
10
1.24147
20
0.30306
11
1.24087
21
0.306073
0
LINE
8
BLACK
6
CONTINUOUS
10
1.24087
20
0.306073
11
1.24087
21
0.366073
0
LINE
8
BLACK
6
CONTINUOUS
10
1.24087
20
0.366073
11
1.24147
21
0.369086
0
LINE
8
BLACK
6
CONTINUOUS
10
1.24147
20
0.369086
11
1.24317
21
0.371641
0
LINE
8
BLACK
6
CONTINUOUS
10
1.24317
20
0.371641
11
1.24573
21
0.373347
0
LINE
8
BLACK
6
CONTINUOUS
10
1.24573
20
0.373347
11
1.24874
21
0.373947
0
LINE
8
BLACK
6
CONTINUOUS
10
1.24874
20
0.373947
11
1.30874
21
0.373947
0
LINE
8
BLACK
6
CONTINUOUS
10
1.30874
20
0.373947
11
1.31175
21
0.373347
0
LINE
8
BLACK
6
CONTINUOUS
10
1.41175
20
0.373347
11
1.41431
21
0.371641
0
LINE
8
BLACK
6
CONTINUOUS
10
1.41431
20
0.371641
11
1.41601
21
0.369086
0
LINE
8
BLACK
6
CONTINUOUS
10
1.41601
20
0.369086
11
1.41661
21
0.366073
0
LINE
8
BLACK
6
CONTINUOUS
10
1.41661
20
0.366073
11
1.41661
21
0.306073
0
LINE
8
BLACK
6
CONTINUOUS
10
1.41661
20
0.306073
11
1.41601
21
0.30306
0
LINE
8
BLACK
6
CONTINUOUS
10
1.41601
20
0.30306
11
1.41431
21
0.300505
0
LINE
8
BLACK
6
CONTINUOUS
10
1.41431
20
0.300505
11
1.41175
21
0.298798
0
LINE
8
BLACK
6
CONTINUOUS
10
1.41175
20
0.298798
11
1.40874
21
0.298199
0
LINE
8
BLACK
6
CONTINUOUS
10
1.40874
20
0.298199
11
1.34874
21
0.298199
0
LINE
8
BLACK
6
CONTINUOUS
10
1.34874
20
0.298199
11
1.34573
21
0.298798
0
LINE
8
BLACK
6
CONTINUOUS
10
1.34573
20
0.298798
11
1.34317
21
0.300505
0
LINE
8
BLACK
6
CONTINUOUS
10
1.34317
20
0.300505
11
1.34147
21
0.30306
0
LINE
8
BLACK
6
CONTINUOUS
10
1.34147
20
0.30306
11
1.34087
21
0.306073
0
LINE
8
BLACK
6
CONTINUOUS
10
1.34087
20
0.306073
11
1.34087
21
0.366073
0
LINE
8
BLACK
6
CONTINUOUS
10
1.34087
20
0.366073
11
1.34147
21
0.369086
0
LINE
8
BLACK
6
CONTINUOUS
10
1.34147
20
0.369086
11
1.34317
21
0.371641
0
LINE
8
BLACK
6
CONTINUOUS
10
1.34317
20
0.371641
11
1.34573
21
0.373347
0
LINE
8
BLACK
6
CONTINUOUS
10
1.34573
20
0.373347
11
1.34874
21
0.373947
0
LINE
8
BLACK
6
CONTINUOUS
10
1.34874
20
0.373947
11
1.40874
21
0.373947
0
LINE
8
BLACK
6
CONTINUOUS
10
1.40874
20
0.373947
11
1.41175
21
0.373347
0
LINE
8
BLACK
6
CONTINUOUS
10
1.51175
20
0.373347
11
1.51431
21
0.371641
0
LINE
8
BLACK
6
CONTINUOUS
10
1.51431
20
0.371641
11
1.51601
21
0.369086
0
LINE
8
BLACK
6
CONTINUOUS
10
1.51601
20
0.369086
11
1.51661
21
0.366073
0
LINE
8
BLACK
6
CONTINUOUS
10
1.51661
20
0.366073
11
1.51661
21
0.306073
0
LINE
8
BLACK
6
CONTINUOUS
10
1.51661
20
0.306073
11
1.51601
21
0.30306
0
LINE
8
BLACK
6
CONTINUOUS
10
1.51601
20
0.30306
11
1.51431
21
0.300505
0
LINE
8
BLACK
6
CONTINUOUS
10
1.51431
20
0.300505
11
1.51175
21
0.298798
0
LINE
8
BLACK
6
CONTINUOUS
10
1.51175
20
0.298798
11
1.50874
21
0.298199
0
LINE
8
BLACK
6
CONTINUOUS
10
1.50874
20
0.298199
11
1.44874
21
0.298199
0
LINE
8
BLACK
6
CONTINUOUS
10
1.44874
20
0.298199
11
1.44573
21
0.298798
0
LINE
8
BLACK
6
CONTINUOUS
10
1.44573
20
0.298798
11
1.44317
21
0.300505
0
LINE
8
BLACK
6
CONTINUOUS
10
1.44317
20
0.300505
11
1.44147
21
0.30306
0
LINE
8
BLACK
6
CONTINUOUS
10
1.44147
20
0.30306
11
1.44087
21
0.306073
0
LINE
8
BLACK
6
CONTINUOUS
10
1.44087
20
0.306073
11
1.44087
21
0.366073
0
LINE
8
BLACK
6
CONTINUOUS
10
1.44087
20
0.366073
11
1.44147
21
0.369086
0
LINE
8
BLACK
6
CONTINUOUS
10
1.44147
20
0.369086
11
1.44317
21
0.371641
0
LINE
8
BLACK
6
CONTINUOUS
10
1.44317
20
0.371641
11
1.44573
21
0.373347
0
LINE
8
BLACK
6
CONTINUOUS
10
1.44573
20
0.373347
11
1.44874
21
0.373947
0
LINE
8
BLACK
6
CONTINUOUS
10
1.44874
20
0.373947
11
1.50874
21
0.373947
0
LINE
8
BLACK
6
CONTINUOUS
10
1.50874
20
0.373947
11
1.51175
21
0.373347
0
LINE
8
BLACK
6
CONTINUOUS
10
0.612541
20
0.472905
11
0.615095
21
0.471198
0
LINE
8
BLACK
6
CONTINUOUS
10
0.615095
20
0.471198
11
0.616802
21
0.468643
0
LINE
8
BLACK
6
CONTINUOUS
10
0.616802
20
0.468643
11
0.617402
21
0.46563
0
LINE
8
BLACK
6
CONTINUOUS
10
0.617402
20
0.46563
11
0.617402
21
0.40563
0
LINE
8
BLACK
6
CONTINUOUS
10
0.617402
20
0.40563
11
0.616802
21
0.402617
0
LINE
8
BLACK
6
CONTINUOUS
10
0.616802
20
0.402617
11
0.615095
21
0.400062
0
LINE
8
BLACK
6
CONTINUOUS
10
0.615095
20
0.400062
11
0.612541
21
0.398355
0
LINE
8
BLACK
6
CONTINUOUS
10
0.612541
20
0.398355
11
0.609528
21
0.397756
0
LINE
8
BLACK
6
CONTINUOUS
10
0.609528
20
0.397756
11
0.549528
21
0.397756
0
LINE
8
BLACK
6
CONTINUOUS
10
0.549528
20
0.397756
11
0.546514
21
0.398355
0
LINE
8
BLACK
6
CONTINUOUS
10
0.546514
20
0.398355
11
0.54396
21
0.400062
0
LINE
8
BLACK
6
CONTINUOUS
10
0.54396
20
0.400062
11
0.542253
21
0.402617
0
LINE
8
BLACK
6
CONTINUOUS
10
0.542253
20
0.402617
11
0.541654
21
0.40563
0
LINE
8
BLACK
6
CONTINUOUS
10
0.541654
20
0.40563
11
0.541654
21
0.46563
0
LINE
8
BLACK
6
CONTINUOUS
10
0.541654
20
0.46563
11
0.542253
21
0.468643
0
LINE
8
BLACK
6
CONTINUOUS
10
0.542253
20
0.468643
11
0.54396
21
0.471198
0
LINE
8
BLACK
6
CONTINUOUS
10
0.54396
20
0.471198
11
0.546514
21
0.472905
0
LINE
8
BLACK
6
CONTINUOUS
10
0.546514
20
0.472905
11
0.549528
21
0.473504
0
LINE
8
BLACK
6
CONTINUOUS
10
0.549528
20
0.473504
11
0.609528
21
0.473504
0
LINE
8
BLACK
6
CONTINUOUS
10
0.609528
20
0.473504
11
0.612541
21
0.472905
0
LINE
8
BLACK
6
CONTINUOUS
10
0.712541
20
0.472905
11
0.715095
21
0.471198
0
LINE
8
BLACK
6
CONTINUOUS
10
0.715095
20
0.471198
11
0.716802
21
0.468643
0
LINE
8
BLACK
6
CONTINUOUS
10
0.716802
20
0.468643
11
0.717402
21
0.46563
0
LINE
8
BLACK
6
CONTINUOUS
10
0.717402
20
0.46563
11
0.717402
21
0.40563
0
LINE
8
BLACK
6
CONTINUOUS
10
0.717402
20
0.40563
11
0.716802
21
0.402617
0
LINE
8
BLACK
6
CONTINUOUS
10
0.716802
20
0.402617
11
0.715095
21
0.400062
0
LINE
8
BLACK
6
CONTINUOUS
10
0.715095
20
0.400062
11
0.712541
21
0.398355
0
LINE
8
BLACK
6
CONTINUOUS
10
0.712541
20
0.398355
11
0.709528
21
0.397756
0
LINE
8
BLACK
6
CONTINUOUS
10
0.709528
20
0.397756
11
0.649528
21
0.397756
0
LINE
8
BLACK
6
CONTINUOUS
10
0.649528
20
0.397756
11
0.646514
21
0.398355
0
LINE
8
BLACK
6
CONTINUOUS
10
0.646514
20
0.398355
11
0.64396
21
0.400062
0
LINE
8
BLACK
6
CONTINUOUS
10
0.64396
20
0.400062
11
0.642253
21
0.402617
0
LINE
8
BLACK
6
CONTINUOUS
10
0.642253
20
0.402617
11
0.641654
21
0.40563
0
LINE
8
BLACK
6
CONTINUOUS
10
0.641654
20
0.40563
11
0.641654
21
0.46563
0
LINE
8
BLACK
6
CONTINUOUS
10
0.641654
20
0.46563
11
0.642253
21
0.468643
0
LINE
8
BLACK
6
CONTINUOUS
10
0.642253
20
0.468643
11
0.64396
21
0.471198
0
LINE
8
BLACK
6
CONTINUOUS
10
0.64396
20
0.471198
11
0.646514
21
0.472905
0
LINE
8
BLACK
6
CONTINUOUS
10
0.646514
20
0.472905
11
0.649528
21
0.473504
0
LINE
8
BLACK
6
CONTINUOUS
10
0.649528
20
0.473504
11
0.709528
21
0.473504
0
LINE
8
BLACK
6
CONTINUOUS
10
0.709528
20
0.473504
11
0.712541
21
0.472905
0
LINE
8
BLACK
6
CONTINUOUS
10
0.812541
20
0.472905
11
0.815095
21
0.471198
0
LINE
8
BLACK
6
CONTINUOUS
10
0.815095
20
0.471198
11
0.816802
21
0.468643
0
LINE
8
BLACK
6
CONTINUOUS
10
0.816802
20
0.468643
11
0.817402
21
0.46563
0
LINE
8
BLACK
6
CONTINUOUS
10
0.817402
20
0.46563
11
0.817402
21
0.40563
0
LINE
8
BLACK
6
CONTINUOUS
10
0.817402
20
0.40563
11
0.816802
21
0.402617
0
LINE
8
BLACK
6
CONTINUOUS
10
0.816802
20
0.402617
11
0.815095
21
0.400062
0
LINE
8
BLACK
6
CONTINUOUS
10
0.815095
20
0.400062
11
0.812541
21
0.398355
0
LINE
8
BLACK
6
CONTINUOUS
10
0.812541
20
0.398355
11
0.809528
21
0.397756
0
LINE
8
BLACK
6
CONTINUOUS
10
0.809528
20
0.397756
11
0.749528
21
0.397756
0
LINE
8
BLACK
6
CONTINUOUS
10
0.749528
20
0.397756
11
0.746514
21
0.398355
0
LINE
8
BLACK
6
CONTINUOUS
10
0.746514
20
0.398355
11
0.74396
21
0.400062
0
LINE
8
BLACK
6
CONTINUOUS
10
0.74396
20
0.400062
11
0.742253
21
0.402617
0
LINE
8
BLACK
6
CONTINUOUS
10
0.742253
20
0.402617
11
0.741654
21
0.40563
0
LINE
8
BLACK
6
CONTINUOUS
10
0.741654
20
0.40563
11
0.741654
21
0.46563
0
LINE
8
BLACK
6
CONTINUOUS
10
0.741654
20
0.46563
11
0.742253
21
0.468643
0
LINE
8
BLACK
6
CONTINUOUS
10
0.742253
20
0.468643
11
0.74396
21
0.471198
0
LINE
8
BLACK
6
CONTINUOUS
10
0.74396
20
0.471198
11
0.746514
21
0.472905
0
LINE
8
BLACK
6
CONTINUOUS
10
0.746514
20
0.472905
11
0.749528
21
0.473504
0
LINE
8
BLACK
6
CONTINUOUS
10
0.749528
20
0.473504
11
0.809528
21
0.473504
0
LINE
8
BLACK
6
CONTINUOUS
10
0.809528
20
0.473504
11
0.812541
21
0.472905
0
LINE
8
BLACK
6
CONTINUOUS
10
1.11175
20
0.473347
11
1.11431
21
0.471641
0
LINE
8
BLACK
6
CONTINUOUS
10
1.11431
20
0.471641
11
1.11601
21
0.469086
0
LINE
8
BLACK
6
CONTINUOUS
10
1.11601
20
0.469086
11
1.11661
21
0.466073
0
LINE
8
BLACK
6
CONTINUOUS
10
1.11661
20
0.466073
11
1.11661
21
0.406073
0
LINE
8
BLACK
6
CONTINUOUS
10
1.11661
20
0.406073
11
1.11601
21
0.40306
0
LINE
8
BLACK
6
CONTINUOUS
10
1.11601
20
0.40306
11
1.11431
21
0.400505
0
LINE
8
BLACK
6
CONTINUOUS
10
1.11431
20
0.400505
11
1.11175
21
0.398798
0
LINE
8
BLACK
6
CONTINUOUS
10
1.11175
20
0.398798
11
1.10874
21
0.398199
0
LINE
8
BLACK
6
CONTINUOUS
10
1.10874
20
0.398199
11
1.04874
21
0.398199
0
LINE
8
BLACK
6
CONTINUOUS
10
1.04874
20
0.398199
11
1.04573
21
0.398798
0
LINE
8
BLACK
6
CONTINUOUS
10
1.04573
20
0.398798
11
1.04317
21
0.400505
0
LINE
8
BLACK
6
CONTINUOUS
10
1.04317
20
0.400505
11
1.04147
21
0.40306
0
LINE
8
BLACK
6
CONTINUOUS
10
1.04147
20
0.40306
11
1.04087
21
0.406073
0
LINE
8
BLACK
6
CONTINUOUS
10
1.04087
20
0.406073
11
1.04087
21
0.466073
0
LINE
8
BLACK
6
CONTINUOUS
10
1.04087
20
0.466073
11
1.04147
21
0.469086
0
LINE
8
BLACK
6
CONTINUOUS
10
1.04147
20
0.469086
11
1.04317
21
0.471641
0
LINE
8
BLACK
6
CONTINUOUS
10
1.04317
20
0.471641
11
1.04573
21
0.473347
0
LINE
8
BLACK
6
CONTINUOUS
10
1.04573
20
0.473347
11
1.04874
21
0.473947
0
LINE
8
BLACK
6
CONTINUOUS
10
1.04874
20
0.473947
11
1.10874
21
0.473947
0
LINE
8
BLACK
6
CONTINUOUS
10
1.10874
20
0.473947
11
1.11175
21
0.473347
0
LINE
8
BLACK
6
CONTINUOUS
10
1.21175
20
0.473347
11
1.21431
21
0.471641
0
LINE
8
BLACK
6
CONTINUOUS
10
1.21431
20
0.471641
11
1.21601
21
0.469086
0
LINE
8
BLACK
6
CONTINUOUS
10
1.21601
20
0.469086
11
1.21661
21
0.466073
0
LINE
8
BLACK
6
CONTINUOUS
10
1.21661
20
0.466073
11
1.21661
21
0.406073
0
LINE
8
BLACK
6
CONTINUOUS
10
1.21661
20
0.406073
11
1.21601
21
0.40306
0
LINE
8
BLACK
6
CONTINUOUS
10
1.21601
20
0.40306
11
1.21431
21
0.400505
0
LINE
8
BLACK
6
CONTINUOUS
10
1.21431
20
0.400505
11
1.21175
21
0.398798
0
LINE
8
BLACK
6
CONTINUOUS
10
1.21175
20
0.398798
11
1.20874
21
0.398199
0
LINE
8
BLACK
6
CONTINUOUS
10
1.20874
20
0.398199
11
1.14874
21
0.398199
0
LINE
8
BLACK
6
CONTINUOUS
10
1.14874
20
0.398199
11
1.14573
21
0.398798
0
LINE
8
BLACK
6
CONTINUOUS
10
1.14573
20
0.398798
11
1.14317
21
0.400505
0
LINE
8
BLACK
6
CONTINUOUS
10
1.14317
20
0.400505
11
1.14147
21
0.40306
0
LINE
8
BLACK
6
CONTINUOUS
10
1.14147
20
0.40306
11
1.14087
21
0.406073
0
LINE
8
BLACK
6
CONTINUOUS
10
1.14087
20
0.406073
11
1.14087
21
0.466073
0
LINE
8
BLACK
6
CONTINUOUS
10
1.14087
20
0.466073
11
1.14147
21
0.469086
0
LINE
8
BLACK
6
CONTINUOUS
10
1.14147
20
0.469086
11
1.14317
21
0.471641
0
LINE
8
BLACK
6
CONTINUOUS
10
1.14317
20
0.471641
11
1.14573
21
0.473347
0
LINE
8
BLACK
6
CONTINUOUS
10
1.14573
20
0.473347
11
1.14874
21
0.473947
0
LINE
8
BLACK
6
CONTINUOUS
10
1.14874
20
0.473947
11
1.20874
21
0.473947
0
LINE
8
BLACK
6
CONTINUOUS
10
1.20874
20
0.473947
11
1.21175
21
0.473347
0
LINE
8
BLACK
6
CONTINUOUS
10
1.31175
20
0.473347
11
1.31431
21
0.471641
0
LINE
8
BLACK
6
CONTINUOUS
10
1.31431
20
0.471641
11
1.31601
21
0.469086
0
LINE
8
BLACK
6
CONTINUOUS
10
1.31601
20
0.469086
11
1.31661
21
0.466073
0
LINE
8
BLACK
6
CONTINUOUS
10
1.31661
20
0.466073
11
1.31661
21
0.406073
0
LINE
8
BLACK
6
CONTINUOUS
10
1.31661
20
0.406073
11
1.31601
21
0.40306
0
LINE
8
BLACK
6
CONTINUOUS
10
1.31601
20
0.40306
11
1.31431
21
0.400505
0
LINE
8
BLACK
6
CONTINUOUS
10
1.31431
20
0.400505
11
1.31175
21
0.398798
0
LINE
8
BLACK
6
CONTINUOUS
10
1.31175
20
0.398798
11
1.30874
21
0.398199
0
LINE
8
BLACK
6
CONTINUOUS
10
1.30874
20
0.398199
11
1.24874
21
0.398199
0
LINE
8
BLACK
6
CONTINUOUS
10
1.24874
20
0.398199
11
1.24573
21
0.398798
0
LINE
8
BLACK
6
CONTINUOUS
10
1.24573
20
0.398798
11
1.24317
21
0.400505
0
LINE
8
BLACK
6
CONTINUOUS
10
1.24317
20
0.400505
11
1.24147
21
0.40306
0
LINE
8
BLACK
6
CONTINUOUS
10
1.24147
20
0.40306
11
1.24087
21
0.406073
0
LINE
8
BLACK
6
CONTINUOUS
10
1.24087
20
0.406073
11
1.24087
21
0.466073
0
LINE
8
BLACK
6
CONTINUOUS
10
1.24087
20
0.466073
11
1.24147
21
0.469086
0
LINE
8
BLACK
6
CONTINUOUS
10
1.24147
20
0.469086
11
1.24317
21
0.471641
0
LINE
8
BLACK
6
CONTINUOUS
10
1.24317
20
0.471641
11
1.24573
21
0.473347
0
LINE
8
BLACK
6
CONTINUOUS
10
1.24573
20
0.473347
11
1.24874
21
0.473947
0
LINE
8
BLACK
6
CONTINUOUS
10
1.24874
20
0.473947
11
1.30874
21
0.473947
0
LINE
8
BLACK
6
CONTINUOUS
10
1.30874
20
0.473947
11
1.31175
21
0.473347
0
LINE
8
BLACK
6
CONTINUOUS
10
1.41175
20
0.473347
11
1.41431
21
0.471641
0
LINE
8
BLACK
6
CONTINUOUS
10
1.41431
20
0.471641
11
1.41601
21
0.469086
0
LINE
8
BLACK
6
CONTINUOUS
10
1.41601
20
0.469086
11
1.41661
21
0.466073
0
LINE
8
BLACK
6
CONTINUOUS
10
1.41661
20
0.466073
11
1.41661
21
0.406073
0
LINE
8
BLACK
6
CONTINUOUS
10
1.41661
20
0.406073
11
1.41601
21
0.40306
0
LINE
8
BLACK
6
CONTINUOUS
10
1.41601
20
0.40306
11
1.41431
21
0.400505
0
LINE
8
BLACK
6
CONTINUOUS
10
1.41431
20
0.400505
11
1.41175
21
0.398798
0
LINE
8
BLACK
6
CONTINUOUS
10
1.41175
20
0.398798
11
1.40874
21
0.398199
0
LINE
8
BLACK
6
CONTINUOUS
10
1.40874
20
0.398199
11
1.34874
21
0.398199
0
LINE
8
BLACK
6
CONTINUOUS
10
1.34874
20
0.398199
11
1.34573
21
0.398798
0
LINE
8
BLACK
6
CONTINUOUS
10
1.34573
20
0.398798
11
1.34317
21
0.400505
0
LINE
8
BLACK
6
CONTINUOUS
10
1.34317
20
0.400505
11
1.34147
21
0.40306
0
LINE
8
BLACK
6
CONTINUOUS
10
1.34147
20
0.40306
11
1.34087
21
0.406073
0
LINE
8
BLACK
6
CONTINUOUS
10
1.34087
20
0.406073
11
1.34087
21
0.466073
0
LINE
8
BLACK
6
CONTINUOUS
10
1.34087
20
0.466073
11
1.34147
21
0.469086
0
LINE
8
BLACK
6
CONTINUOUS
10
1.34147
20
0.469086
11
1.34317
21
0.471641
0
LINE
8
BLACK
6
CONTINUOUS
10
1.34317
20
0.471641
11
1.34573
21
0.473347
0
LINE
8
BLACK
6
CONTINUOUS
10
1.34573
20
0.473347
11
1.34874
21
0.473947
0
LINE
8
BLACK
6
CONTINUOUS
10
1.34874
20
0.473947
11
1.40874
21
0.473947
0
LINE
8
BLACK
6
CONTINUOUS
10
1.40874
20
0.473947
11
1.41175
21
0.473347
0
LINE
8
BLACK
6
CONTINUOUS
10
1.51175
20
0.473347
11
1.51431
21
0.471641
0
LINE
8
BLACK
6
CONTINUOUS
10
1.51431
20
0.471641
11
1.51601
21
0.469086
0
LINE
8
BLACK
6
CONTINUOUS
10
1.51601
20
0.469086
11
1.51661
21
0.466073
0
LINE
8
BLACK
6
CONTINUOUS
10
1.51661
20
0.466073
11
1.51661
21
0.406073
0
LINE
8
BLACK
6
CONTINUOUS
10
1.51661
20
0.406073
11
1.51601
21
0.40306
0
LINE
8
BLACK
6
CONTINUOUS
10
1.51601
20
0.40306
11
1.51431
21
0.400505
0
LINE
8
BLACK
6
CONTINUOUS
10
1.51431
20
0.400505
11
1.51175
21
0.398798
0
LINE
8
BLACK
6
CONTINUOUS
10
1.51175
20
0.398798
11
1.50874
21
0.398199
0
LINE
8
BLACK
6
CONTINUOUS
10
1.50874
20
0.398199
11
1.44874
21
0.398199
0
LINE
8
BLACK
6
CONTINUOUS
10
1.44874
20
0.398199
11
1.44573
21
0.398798
0
LINE
8
BLACK
6
CONTINUOUS
10
1.44573
20
0.398798
11
1.44317
21
0.400505
0
LINE
8
BLACK
6
CONTINUOUS
10
1.44317
20
0.400505
11
1.44147
21
0.40306
0
LINE
8
BLACK
6
CONTINUOUS
10
1.44147
20
0.40306
11
1.44087
21
0.406073
0
LINE
8
BLACK
6
CONTINUOUS
10
1.44087
20
0.406073
11
1.44087
21
0.466073
0
LINE
8
BLACK
6
CONTINUOUS
10
1.44087
20
0.466073
11
1.44147
21
0.469086
0
LINE
8
BLACK
6
CONTINUOUS
10
1.44147
20
0.469086
11
1.44317
21
0.471641
0
LINE
8
BLACK
6
CONTINUOUS
10
1.44317
20
0.471641
11
1.44573
21
0.473347
0
LINE
8
BLACK
6
CONTINUOUS
10
1.44573
20
0.473347
11
1.44874
21
0.473947
0
LINE
8
BLACK
6
CONTINUOUS
10
1.44874
20
0.473947
11
1.50874
21
0.473947
0
LINE
8
BLACK
6
CONTINUOUS
10
1.50874
20
0.473947
11
1.51175
21
0.473347
0
LINE
8
BLACK
6
CONTINUOUS
10
1.80368
20
0.694755
11
1.80624
21
0.693048
0
LINE
8
BLACK
6
CONTINUOUS
10
1.80624
20
0.693048
11
1.80794
21
0.690494
0
LINE
8
BLACK
6
CONTINUOUS
10
1.80794
20
0.690494
11
1.80854
21
0.68748
0
LINE
8
BLACK
6
CONTINUOUS
10
1.80854
20
0.68748
11
1.80854
21
0.62748
0
LINE
8
BLACK
6
CONTINUOUS
10
1.80854
20
0.62748
11
1.80794
21
0.624467
0
LINE
8
BLACK
6
CONTINUOUS
10
1.80794
20
0.624467
11
1.80624
21
0.621913
0
LINE
8
BLACK
6
CONTINUOUS
10
1.80624
20
0.621913
11
1.80368
21
0.620206
0
LINE
8
BLACK
6
CONTINUOUS
10
1.80368
20
0.620206
11
1.80067
21
0.619606
0
LINE
8
BLACK
6
CONTINUOUS
10
1.80067
20
0.619606
11
1.74067
21
0.619606
0
LINE
8
BLACK
6
CONTINUOUS
10
1.74067
20
0.619606
11
1.73766
21
0.620206
0
LINE
8
BLACK
6
CONTINUOUS
10
1.73766
20
0.620206
11
1.7351
21
0.621913
0
LINE
8
BLACK
6
CONTINUOUS
10
1.7351
20
0.621913
11
1.73339
21
0.624467
0
LINE
8
BLACK
6
CONTINUOUS
10
1.73339
20
0.624467
11
1.7328
21
0.62748
0
LINE
8
BLACK
6
CONTINUOUS
10
1.7328
20
0.62748
11
1.7328
21
0.68748
0
LINE
8
BLACK
6
CONTINUOUS
10
1.7328
20
0.68748
11
1.73339
21
0.690494
0
LINE
8
BLACK
6
CONTINUOUS
10
1.73339
20
0.690494
11
1.7351
21
0.693048
0
LINE
8
BLACK
6
CONTINUOUS
10
1.7351
20
0.693048
11
1.73766
21
0.694755
0
LINE
8
BLACK
6
CONTINUOUS
10
1.73766
20
0.694755
11
1.74067
21
0.695354
0
LINE
8
BLACK
6
CONTINUOUS
10
1.74067
20
0.695354
11
1.80067
21
0.695354
0
LINE
8
BLACK
6
CONTINUOUS
10
1.80067
20
0.695354
11
1.80368
21
0.694755
0
LINE
8
BLACK
6
CONTINUOUS
10
1.90368
20
0.694755
11
1.90624
21
0.693048
0
LINE
8
BLACK
6
CONTINUOUS
10
1.90624
20
0.693048
11
1.90794
21
0.690494
0
LINE
8
BLACK
6
CONTINUOUS
10
1.90794
20
0.690494
11
1.90854
21
0.68748
0
LINE
8
BLACK
6
CONTINUOUS
10
1.90854
20
0.68748
11
1.90854
21
0.62748
0
LINE
8
BLACK
6
CONTINUOUS
10
1.90854
20
0.62748
11
1.90794
21
0.624467
0
LINE
8
BLACK
6
CONTINUOUS
10
1.90794
20
0.624467
11
1.90624
21
0.621913
0
LINE
8
BLACK
6
CONTINUOUS
10
1.90624
20
0.621913
11
1.90368
21
0.620206
0
LINE
8
BLACK
6
CONTINUOUS
10
1.90368
20
0.620206
11
1.90067
21
0.619606
0
LINE
8
BLACK
6
CONTINUOUS
10
1.90067
20
0.619606
11
1.84067
21
0.619606
0
LINE
8
BLACK
6
CONTINUOUS
10
1.84067
20
0.619606
11
1.83766
21
0.620206
0
LINE
8
BLACK
6
CONTINUOUS
10
1.83766
20
0.620206
11
1.8351
21
0.621913
0
LINE
8
BLACK
6
CONTINUOUS
10
1.8351
20
0.621913
11
1.83339
21
0.624467
0
LINE
8
BLACK
6
CONTINUOUS
10
1.83339
20
0.624467
11
1.8328
21
0.62748
0
LINE
8
BLACK
6
CONTINUOUS
10
1.8328
20
0.62748
11
1.8328
21
0.68748
0
LINE
8
BLACK
6
CONTINUOUS
10
1.8328
20
0.68748
11
1.83339
21
0.690494
0
LINE
8
BLACK
6
CONTINUOUS
10
1.83339
20
0.690494
11
1.8351
21
0.693048
0
LINE
8
BLACK
6
CONTINUOUS
10
1.8351
20
0.693048
11
1.83766
21
0.694755
0
LINE
8
BLACK
6
CONTINUOUS
10
1.83766
20
0.694755
11
1.84067
21
0.695354
0
LINE
8
BLACK
6
CONTINUOUS
10
1.84067
20
0.695354
11
1.90067
21
0.695354
0
LINE
8
BLACK
6
CONTINUOUS
10
1.90067
20
0.695354
11
1.90368
21
0.694755
0
LINE
8
BLACK
6
CONTINUOUS
10
2.00368
20
0.694755
11
2.00624
21
0.693048
0
LINE
8
BLACK
6
CONTINUOUS
10
2.00624
20
0.693048
11
2.00794
21
0.690494
0
LINE
8
BLACK
6
CONTINUOUS
10
2.00794
20
0.690494
11
2.00854
21
0.68748
0
LINE
8
BLACK
6
CONTINUOUS
10
2.00854
20
0.68748
11
2.00854
21
0.62748
0
LINE
8
BLACK
6
CONTINUOUS
10
2.00854
20
0.62748
11
2.00794
21
0.624467
0
LINE
8
BLACK
6
CONTINUOUS
10
2.00794
20
0.624467
11
2.00624
21
0.621913
0
LINE
8
BLACK
6
CONTINUOUS
10
2.00624
20
0.621913
11
2.00368
21
0.620206
0
LINE
8
BLACK
6
CONTINUOUS
10
2.00368
20
0.620206
11
2.00067
21
0.619606
0
LINE
8
BLACK
6
CONTINUOUS
10
2.00067
20
0.619606
11
1.94067
21
0.619606
0
LINE
8
BLACK
6
CONTINUOUS
10
1.94067
20
0.619606
11
1.93766
21
0.620206
0
LINE
8
BLACK
6
CONTINUOUS
10
1.93766
20
0.620206
11
1.9351
21
0.621913
0
LINE
8
BLACK
6
CONTINUOUS
10
1.9351
20
0.621913
11
1.93339
21
0.624467
0
LINE
8
BLACK
6
CONTINUOUS
10
1.93339
20
0.624467
11
1.9328
21
0.62748
0
LINE
8
BLACK
6
CONTINUOUS
10
1.9328
20
0.62748
11
1.9328
21
0.68748
0
LINE
8
BLACK
6
CONTINUOUS
10
1.9328
20
0.68748
11
1.93339
21
0.690494
0
LINE
8
BLACK
6
CONTINUOUS
10
1.93339
20
0.690494
11
1.9351
21
0.693048
0
LINE
8
BLACK
6
CONTINUOUS
10
1.9351
20
0.693048
11
1.93766
21
0.694755
0
LINE
8
BLACK
6
CONTINUOUS
10
1.93766
20
0.694755
11
1.94067
21
0.695354
0
LINE
8
BLACK
6
CONTINUOUS
10
1.94067
20
0.695354
11
2.00067
21
0.695354
0
LINE
8
BLACK
6
CONTINUOUS
10
2.00067
20
0.695354
11
2.00368
21
0.694755
0
LINE
8
BLACK
6
CONTINUOUS
10
1.80368
20
0.794755
11
1.80624
21
0.793048
0
LINE
8
BLACK
6
CONTINUOUS
10
1.80624
20
0.793048
11
1.80794
21
0.790494
0
LINE
8
BLACK
6
CONTINUOUS
10
1.80794
20
0.790494
11
1.80854
21
0.78748
0
LINE
8
BLACK
6
CONTINUOUS
10
1.80854
20
0.78748
11
1.80854
21
0.72748
0
LINE
8
BLACK
6
CONTINUOUS
10
1.80854
20
0.72748
11
1.80794
21
0.724467
0
LINE
8
BLACK
6
CONTINUOUS
10
1.80794
20
0.724467
11
1.80624
21
0.721913
0
LINE
8
BLACK
6
CONTINUOUS
10
1.80624
20
0.721913
11
1.80368
21
0.720206
0
LINE
8
BLACK
6
CONTINUOUS
10
1.80368
20
0.720206
11
1.80067
21
0.719606
0
LINE
8
BLACK
6
CONTINUOUS
10
1.80067
20
0.719606
11
1.74067
21
0.719606
0
LINE
8
BLACK
6
CONTINUOUS
10
1.74067
20
0.719606
11
1.73766
21
0.720206
0
LINE
8
BLACK
6
CONTINUOUS
10
1.73766
20
0.720206
11
1.7351
21
0.721913
0
LINE
8
BLACK
6
CONTINUOUS
10
1.7351
20
0.721913
11
1.73339
21
0.724467
0
LINE
8
BLACK
6
CONTINUOUS
10
1.73339
20
0.724467
11
1.7328
21
0.72748
0
LINE
8
BLACK
6
CONTINUOUS
10
1.7328
20
0.72748
11
1.7328
21
0.78748
0
LINE
8
BLACK
6
CONTINUOUS
10
1.7328
20
0.78748
11
1.73339
21
0.790494
0
LINE
8
BLACK
6
CONTINUOUS
10
1.73339
20
0.790494
11
1.7351
21
0.793048
0
LINE
8
BLACK
6
CONTINUOUS
10
1.7351
20
0.793048
11
1.73766
21
0.794755
0
LINE
8
BLACK
6
CONTINUOUS
10
1.73766
20
0.794755
11
1.74067
21
0.795354
0
LINE
8
BLACK
6
CONTINUOUS
10
1.74067
20
0.795354
11
1.80067
21
0.795354
0
LINE
8
BLACK
6
CONTINUOUS
10
1.80067
20
0.795354
11
1.80368
21
0.794755
0
LINE
8
BLACK
6
CONTINUOUS
10
1.90368
20
0.794755
11
1.90624
21
0.793048
0
LINE
8
BLACK
6
CONTINUOUS
10
1.90624
20
0.793048
11
1.90794
21
0.790494
0
LINE
8
BLACK
6
CONTINUOUS
10
1.90794
20
0.790494
11
1.90854
21
0.78748
0
LINE
8
BLACK
6
CONTINUOUS
10
1.90854
20
0.78748
11
1.90854
21
0.72748
0
LINE
8
BLACK
6
CONTINUOUS
10
1.90854
20
0.72748
11
1.90794
21
0.724467
0
LINE
8
BLACK
6
CONTINUOUS
10
1.90794
20
0.724467
11
1.90624
21
0.721913
0
LINE
8
BLACK
6
CONTINUOUS
10
1.90624
20
0.721913
11
1.90368
21
0.720206
0
LINE
8
BLACK
6
CONTINUOUS
10
1.90368
20
0.720206
11
1.90067
21
0.719606
0
LINE
8
BLACK
6
CONTINUOUS
10
1.90067
20
0.719606
11
1.84067
21
0.719606
0
LINE
8
BLACK
6
CONTINUOUS
10
1.84067
20
0.719606
11
1.83766
21
0.720206
0
LINE
8
BLACK
6
CONTINUOUS
10
1.83766
20
0.720206
11
1.8351
21
0.721913
0
LINE
8
BLACK
6
CONTINUOUS
10
1.8351
20
0.721913
11
1.83339
21
0.724467
0
LINE
8
BLACK
6
CONTINUOUS
10
1.83339
20
0.724467
11
1.8328
21
0.72748
0
LINE
8
BLACK
6
CONTINUOUS
10
1.8328
20
0.72748
11
1.8328
21
0.78748
0
LINE
8
BLACK
6
CONTINUOUS
10
1.8328
20
0.78748
11
1.83339
21
0.790494
0
LINE
8
BLACK
6
CONTINUOUS
10
1.83339
20
0.790494
11
1.8351
21
0.793048
0
LINE
8
BLACK
6
CONTINUOUS
10
1.8351
20
0.793048
11
1.83766
21
0.794755
0
LINE
8
BLACK
6
CONTINUOUS
10
1.83766
20
0.794755
11
1.84067
21
0.795354
0
LINE
8
BLACK
6
CONTINUOUS
10
1.84067
20
0.795354
11
1.90067
21
0.795354
0
LINE
8
BLACK
6
CONTINUOUS
10
1.90067
20
0.795354
11
1.90368
21
0.794755
0
LINE
8
BLACK
6
CONTINUOUS
10
2.00368
20
0.794755
11
2.00624
21
0.793048
0
LINE
8
BLACK
6
CONTINUOUS
10
2.00624
20
0.793048
11
2.00794
21
0.790494
0
LINE
8
BLACK
6
CONTINUOUS
10
2.00794
20
0.790494
11
2.00854
21
0.78748
0
LINE
8
BLACK
6
CONTINUOUS
10
2.00854
20
0.78748
11
2.00854
21
0.72748
0
LINE
8
BLACK
6
CONTINUOUS
10
2.00854
20
0.72748
11
2.00794
21
0.724467
0
LINE
8
BLACK
6
CONTINUOUS
10
2.00794
20
0.724467
11
2.00624
21
0.721913
0
LINE
8
BLACK
6
CONTINUOUS
10
2.00624
20
0.721913
11
2.00368
21
0.720206
0
LINE
8
BLACK
6
CONTINUOUS
10
2.00368
20
0.720206
11
2.00067
21
0.719606
0
LINE
8
BLACK
6
CONTINUOUS
10
2.00067
20
0.719606
11
1.94067
21
0.719606
0
LINE
8
BLACK
6
CONTINUOUS
10
1.94067
20
0.719606
11
1.93766
21
0.720206
0
LINE
8
BLACK
6
CONTINUOUS
10
1.93766
20
0.720206
11
1.9351
21
0.721913
0
LINE
8
BLACK
6
CONTINUOUS
10
1.9351
20
0.721913
11
1.93339
21
0.724467
0
LINE
8
BLACK
6
CONTINUOUS
10
1.93339
20
0.724467
11
1.9328
21
0.72748
0
LINE
8
BLACK
6
CONTINUOUS
10
1.9328
20
0.72748
11
1.9328
21
0.78748
0
LINE
8
BLACK
6
CONTINUOUS
10
1.9328
20
0.78748
11
1.93339
21
0.790494
0
LINE
8
BLACK
6
CONTINUOUS
10
1.93339
20
0.790494
11
1.9351
21
0.793048
0
LINE
8
BLACK
6
CONTINUOUS
10
1.9351
20
0.793048
11
1.93766
21
0.794755
0
LINE
8
BLACK
6
CONTINUOUS
10
1.93766
20
0.794755
11
1.94067
21
0.795354
0
LINE
8
BLACK
6
CONTINUOUS
10
1.94067
20
0.795354
11
2.00067
21
0.795354
0
LINE
8
BLACK
6
CONTINUOUS
10
2.00067
20
0.795354
11
2.00368
21
0.794755
0
LINE
8
BLACK
6
CONTINUOUS
10
1.26833
20
0.747751
11
1.27217
21
0.745794
0
LINE
8
BLACK
6
CONTINUOUS
10
1.27217
20
0.745794
11
1.27522
21
0.742745
0
LINE
8
BLACK
6
CONTINUOUS
10
1.27522
20
0.742745
11
1.27718
21
0.738904
0
LINE
8
BLACK
6
CONTINUOUS
10
1.27718
20
0.738904
11
1.27785
21
0.734646
0
LINE
8
BLACK
6
CONTINUOUS
10
1.27785
20
0.734646
11
1.27718
21
0.730388
0
LINE
8
BLACK
6
CONTINUOUS
10
1.27718
20
0.730388
11
1.27522
21
0.726546
0
LINE
8
BLACK
6
CONTINUOUS
10
1.27522
20
0.726546
11
1.27217
21
0.723498
0
LINE
8
BLACK
6
CONTINUOUS
10
1.27217
20
0.723498
11
1.26833
21
0.721541
0
LINE
8
BLACK
6
CONTINUOUS
10
1.26833
20
0.721541
11
1.26407
21
0.720866
0
LINE
8
BLACK
6
CONTINUOUS
10
1.26407
20
0.720866
11
1.25982
21
0.721541
0
LINE
8
BLACK
6
CONTINUOUS
10
1.25982
20
0.721541
11
1.25598
21
0.723498
0
LINE
8
BLACK
6
CONTINUOUS
10
1.25598
20
0.723498
11
1.25293
21
0.726546
0
LINE
8
BLACK
6
CONTINUOUS
10
1.25293
20
0.726546
11
1.25097
21
0.730388
0
LINE
8
BLACK
6
CONTINUOUS
10
1.25097
20
0.730388
11
1.2503
21
0.734646
0
LINE
8
BLACK
6
CONTINUOUS
10
1.2503
20
0.734646
11
1.25097
21
0.738904
0
LINE
8
BLACK
6
CONTINUOUS
10
1.25097
20
0.738904
11
1.25293
21
0.742745
0
LINE
8
BLACK
6
CONTINUOUS
10
1.25293
20
0.742745
11
1.25598
21
0.745794
0
LINE
8
BLACK
6
CONTINUOUS
10
1.25598
20
0.745794
11
1.25982
21
0.747751
0
LINE
8
BLACK
6
CONTINUOUS
10
1.25982
20
0.747751
11
1.26407
21
0.748425
0
LINE
8
BLACK
6
CONTINUOUS
10
1.26407
20
0.748425
11
1.26833
21
0.747751
0
LINE
8
BLACK
6
CONTINUOUS
10
1.31558
20
0.747751
11
1.31942
21
0.745794
0
LINE
8
BLACK
6
CONTINUOUS
10
1.31942
20
0.745794
11
1.32247
21
0.742745
0
LINE
8
BLACK
6
CONTINUOUS
10
1.32247
20
0.742745
11
1.32442
21
0.738904
0
LINE
8
BLACK
6
CONTINUOUS
10
1.32442
20
0.738904
11
1.3251
21
0.734646
0
LINE
8
BLACK
6
CONTINUOUS
10
1.3251
20
0.734646
11
1.32442
21
0.730388
0
LINE
8
BLACK
6
CONTINUOUS
10
1.32442
20
0.730388
11
1.32247
21
0.726546
0
LINE
8
BLACK
6
CONTINUOUS
10
1.32247
20
0.726546
11
1.31942
21
0.723498
0
LINE
8
BLACK
6
CONTINUOUS
10
1.31942
20
0.723498
11
1.31558
21
0.721541
0
LINE
8
BLACK
6
CONTINUOUS
10
1.31558
20
0.721541
11
1.31132
21
0.720866
0
LINE
8
BLACK
6
CONTINUOUS
10
1.31132
20
0.720866
11
1.30706
21
0.721541
0
LINE
8
BLACK
6
CONTINUOUS
10
1.30706
20
0.721541
11
1.30322
21
0.723498
0
LINE
8
BLACK
6
CONTINUOUS
10
1.30322
20
0.723498
11
1.30017
21
0.726546
0
LINE
8
BLACK
6
CONTINUOUS
10
1.30017
20
0.726546
11
1.29821
21
0.730388
0
LINE
8
BLACK
6
CONTINUOUS
10
1.29821
20
0.730388
11
1.29754
21
0.734646
0
LINE
8
BLACK
6
CONTINUOUS
10
1.29754
20
0.734646
11
1.29821
21
0.738904
0
LINE
8
BLACK
6
CONTINUOUS
10
1.29821
20
0.738904
11
1.30017
21
0.742745
0
LINE
8
BLACK
6
CONTINUOUS
10
1.30017
20
0.742745
11
1.30322
21
0.745794
0
LINE
8
BLACK
6
CONTINUOUS
10
1.30322
20
0.745794
11
1.30706
21
0.747751
0
LINE
8
BLACK
6
CONTINUOUS
10
1.30706
20
0.747751
11
1.31132
21
0.748425
0
LINE
8
BLACK
6
CONTINUOUS
10
1.31132
20
0.748425
11
1.31558
21
0.747751
0
LINE
8
BLACK
6
CONTINUOUS
10
1.36282
20
0.747751
11
1.36666
21
0.745794
0
LINE
8
BLACK
6
CONTINUOUS
10
1.36666
20
0.745794
11
1.36971
21
0.742745
0
LINE
8
BLACK
6
CONTINUOUS
10
1.36971
20
0.742745
11
1.37167
21
0.738904
0
LINE
8
BLACK
6
CONTINUOUS
10
1.37167
20
0.738904
11
1.37234
21
0.734646
0
LINE
8
BLACK
6
CONTINUOUS
10
1.37234
20
0.734646
11
1.37167
21
0.730388
0
LINE
8
BLACK
6
CONTINUOUS
10
1.37167
20
0.730388
11
1.36971
21
0.726546
0
LINE
8
BLACK
6
CONTINUOUS
10
1.36971
20
0.726546
11
1.36666
21
0.723498
0
LINE
8
BLACK
6
CONTINUOUS
10
1.36666
20
0.723498
11
1.36282
21
0.721541
0
LINE
8
BLACK
6
CONTINUOUS
10
1.36282
20
0.721541
11
1.35856
21
0.720866
0
LINE
8
BLACK
6
CONTINUOUS
10
1.35856
20
0.720866
11
1.3543
21
0.721541
0
LINE
8
BLACK
6
CONTINUOUS
10
1.3543
20
0.721541
11
1.35046
21
0.723498
0
LINE
8
BLACK
6
CONTINUOUS
10
1.35046
20
0.723498
11
1.34742
21
0.726546
0
LINE
8
BLACK
6
CONTINUOUS
10
1.34742
20
0.726546
11
1.34546
21
0.730388
0
LINE
8
BLACK
6
CONTINUOUS
10
1.34546
20
0.730388
11
1.34478
21
0.734646
0
LINE
8
BLACK
6
CONTINUOUS
10
1.34478
20
0.734646
11
1.34546
21
0.738904
0
LINE
8
BLACK
6
CONTINUOUS
10
1.34546
20
0.738904
11
1.34742
21
0.742745
0
LINE
8
BLACK
6
CONTINUOUS
10
1.34742
20
0.742745
11
1.35046
21
0.745794
0
LINE
8
BLACK
6
CONTINUOUS
10
1.35046
20
0.745794
11
1.3543
21
0.747751
0
LINE
8
BLACK
6
CONTINUOUS
10
1.3543
20
0.747751
11
1.35856
21
0.748425
0
LINE
8
BLACK
6
CONTINUOUS
10
1.35856
20
0.748425
11
1.36282
21
0.747751
0
LINE
8
BLACK
6
CONTINUOUS
10
0.994627
20
0.804991
11
0.997182
21
0.803284
0
LINE
8
BLACK
6
CONTINUOUS
10
0.997182
20
0.803284
11
0.998889
21
0.80073
0
LINE
8
BLACK
6
CONTINUOUS
10
0.998889
20
0.80073
11
0.999488
21
0.797717
0
LINE
8
BLACK
6
CONTINUOUS
10
0.999488
20
0.797717
11
0.999488
21
0.737717
0
LINE
8
BLACK
6
CONTINUOUS
10
0.999488
20
0.737717
11
0.998889
21
0.734703
0
LINE
8
BLACK
6
CONTINUOUS
10
0.998889
20
0.734703
11
0.997182
21
0.732149
0
LINE
8
BLACK
6
CONTINUOUS
10
0.997182
20
0.732149
11
0.994627
21
0.730442
0
LINE
8
BLACK
6
CONTINUOUS
10
0.994627
20
0.730442
11
0.991614
21
0.729843
0
LINE
8
BLACK
6
CONTINUOUS
10
0.991614
20
0.729843
11
0.931614
21
0.729843
0
LINE
8
BLACK
6
CONTINUOUS
10
0.931614
20
0.729843
11
0.928601
21
0.730442
0
LINE
8
BLACK
6
CONTINUOUS
10
0.928601
20
0.730442
11
0.926046
21
0.732149
0
LINE
8
BLACK
6
CONTINUOUS
10
0.926046
20
0.732149
11
0.92434
21
0.734703
0
LINE
8
BLACK
6
CONTINUOUS
10
0.92434
20
0.734703
11
0.92374
21
0.737717
0
LINE
8
BLACK
6
CONTINUOUS
10
0.92374
20
0.737717
11
0.92374
21
0.797717
0
LINE
8
BLACK
6
CONTINUOUS
10
0.92374
20
0.797717
11
0.92434
21
0.80073
0
LINE
8
BLACK
6
CONTINUOUS
10
0.92434
20
0.80073
11
0.926046
21
0.803284
0
LINE
8
BLACK
6
CONTINUOUS
10
0.926046
20
0.803284
11
0.928601
21
0.804991
0
LINE
8
BLACK
6
CONTINUOUS
10
0.928601
20
0.804991
11
0.931614
21
0.805591
0
LINE
8
BLACK
6
CONTINUOUS
10
0.931614
20
0.805591
11
0.991614
21
0.805591
0
LINE
8
BLACK
6
CONTINUOUS
10
0.991614
20
0.805591
11
0.994627
21
0.804991
0
LINE
8
BLACK
6
CONTINUOUS
10
1.09463
20
0.804991
11
1.09718
21
0.803284
0
LINE
8
BLACK
6
CONTINUOUS
10
1.09718
20
0.803284
11
1.09889
21
0.80073
0
LINE
8
BLACK
6
CONTINUOUS
10
1.09889
20
0.80073
11
1.09949
21
0.797717
0
LINE
8
BLACK
6
CONTINUOUS
10
1.09949
20
0.797717
11
1.09949
21
0.737717
0
LINE
8
BLACK
6
CONTINUOUS
10
1.09949
20
0.737717
11
1.09889
21
0.734703
0
LINE
8
BLACK
6
CONTINUOUS
10
1.09889
20
0.734703
11
1.09718
21
0.732149
0
LINE
8
BLACK
6
CONTINUOUS
10
1.09718
20
0.732149
11
1.09463
21
0.730442
0
LINE
8
BLACK
6
CONTINUOUS
10
1.09463
20
0.730442
11
1.09161
21
0.729843
0
LINE
8
BLACK
6
CONTINUOUS
10
1.09161
20
0.729843
11
1.03161
21
0.729843
0
LINE
8
BLACK
6
CONTINUOUS
10
1.03161
20
0.729843
11
1.0286
21
0.730442
0
LINE
8
BLACK
6
CONTINUOUS
10
1.0286
20
0.730442
11
1.02605
21
0.732149
0
LINE
8
BLACK
6
CONTINUOUS
10
1.02605
20
0.732149
11
1.02434
21
0.734703
0
LINE
8
BLACK
6
CONTINUOUS
10
1.02434
20
0.734703
11
1.02374
21
0.737717
0
LINE
8
BLACK
6
CONTINUOUS
10
1.02374
20
0.737717
11
1.02374
21
0.797717
0
LINE
8
BLACK
6
CONTINUOUS
10
1.02374
20
0.797717
11
1.02434
21
0.80073
0
LINE
8
BLACK
6
CONTINUOUS
10
1.02434
20
0.80073
11
1.02605
21
0.803284
0
LINE
8
BLACK
6
CONTINUOUS
10
1.02605
20
0.803284
11
1.0286
21
0.804991
0
LINE
8
BLACK
6
CONTINUOUS
10
1.0286
20
0.804991
11
1.03161
21
0.805591
0
LINE
8
BLACK
6
CONTINUOUS
10
1.03161
20
0.805591
11
1.09161
21
0.805591
0
LINE
8
BLACK
6
CONTINUOUS
10
1.09161
20
0.805591
11
1.09463
21
0.804991
0
LINE
8
BLACK
6
CONTINUOUS
10
1.26833
20
0.794995
11
1.27217
21
0.793038
0
LINE
8
BLACK
6
CONTINUOUS
10
1.27217
20
0.793038
11
1.27522
21
0.789989
0
LINE
8
BLACK
6
CONTINUOUS
10
1.27522
20
0.789989
11
1.27718
21
0.786148
0
LINE
8
BLACK
6
CONTINUOUS
10
1.27718
20
0.786148
11
1.27785
21
0.78189
0
LINE
8
BLACK
6
CONTINUOUS
10
1.27785
20
0.78189
11
1.27718
21
0.777632
0
LINE
8
BLACK
6
CONTINUOUS
10
1.27718
20
0.777632
11
1.27522
21
0.77379
0
LINE
8
BLACK
6
CONTINUOUS
10
1.27522
20
0.77379
11
1.27217
21
0.770742
0
LINE
8
BLACK
6
CONTINUOUS
10
1.27217
20
0.770742
11
1.26833
21
0.768785
0
LINE
8
BLACK
6
CONTINUOUS
10
1.26833
20
0.768785
11
1.26407
21
0.76811
0
LINE
8
BLACK
6
CONTINUOUS
10
1.26407
20
0.76811
11
1.25982
21
0.768785
0
LINE
8
BLACK
6
CONTINUOUS
10
1.25982
20
0.768785
11
1.25598
21
0.770742
0
LINE
8
BLACK
6
CONTINUOUS
10
1.25598
20
0.770742
11
1.25293
21
0.77379
0
LINE
8
BLACK
6
CONTINUOUS
10
1.25293
20
0.77379
11
1.25097
21
0.777632
0
LINE
8
BLACK
6
CONTINUOUS
10
1.25097
20
0.777632
11
1.2503
21
0.78189
0
LINE
8
BLACK
6
CONTINUOUS
10
1.2503
20
0.78189
11
1.25097
21
0.786148
0
LINE
8
BLACK
6
CONTINUOUS
10
1.25097
20
0.786148
11
1.25293
21
0.789989
0
LINE
8
BLACK
6
CONTINUOUS
10
1.25293
20
0.789989
11
1.25598
21
0.793038
0
LINE
8
BLACK
6
CONTINUOUS
10
1.25598
20
0.793038
11
1.25982
21
0.794995
0
LINE
8
BLACK
6
CONTINUOUS
10
1.25982
20
0.794995
11
1.26407
21
0.795669
0
LINE
8
BLACK
6
CONTINUOUS
10
1.26407
20
0.795669
11
1.26833
21
0.794995
0
LINE
8
BLACK
6
CONTINUOUS
10
1.31558
20
0.794995
11
1.31942
21
0.793038
0
LINE
8
BLACK
6
CONTINUOUS
10
1.31942
20
0.793038
11
1.32247
21
0.789989
0
LINE
8
BLACK
6
CONTINUOUS
10
1.32247
20
0.789989
11
1.32442
21
0.786148
0
LINE
8
BLACK
6
CONTINUOUS
10
1.32442
20
0.786148
11
1.3251
21
0.78189
0
LINE
8
BLACK
6
CONTINUOUS
10
1.3251
20
0.78189
11
1.32442
21
0.777632
0
LINE
8
BLACK
6
CONTINUOUS
10
1.32442
20
0.777632
11
1.32247
21
0.77379
0
LINE
8
BLACK
6
CONTINUOUS
10
1.32247
20
0.77379
11
1.31942
21
0.770742
0
LINE
8
BLACK
6
CONTINUOUS
10
1.31942
20
0.770742
11
1.31558
21
0.768785
0
LINE
8
BLACK
6
CONTINUOUS
10
1.31558
20
0.768785
11
1.31132
21
0.76811
0
LINE
8
BLACK
6
CONTINUOUS
10
1.31132
20
0.76811
11
1.30706
21
0.768785
0
LINE
8
BLACK
6
CONTINUOUS
10
1.30706
20
0.768785
11
1.30322
21
0.770742
0
LINE
8
BLACK
6
CONTINUOUS
10
1.30322
20
0.770742
11
1.30017
21
0.77379
0
LINE
8
BLACK
6
CONTINUOUS
10
1.30017
20
0.77379
11
1.29821
21
0.777632
0
LINE
8
BLACK
6
CONTINUOUS
10
1.29821
20
0.777632
11
1.29754
21
0.78189
0
LINE
8
BLACK
6
CONTINUOUS
10
1.29754
20
0.78189
11
1.29821
21
0.786148
0
LINE
8
BLACK
6
CONTINUOUS
10
1.29821
20
0.786148
11
1.30017
21
0.789989
0
LINE
8
BLACK
6
CONTINUOUS
10
1.30017
20
0.789989
11
1.30322
21
0.793038
0
LINE
8
BLACK
6
CONTINUOUS
10
1.30322
20
0.793038
11
1.30706
21
0.794995
0
LINE
8
BLACK
6
CONTINUOUS
10
1.30706
20
0.794995
11
1.31132
21
0.795669
0
LINE
8
BLACK
6
CONTINUOUS
10
1.31132
20
0.795669
11
1.31558
21
0.794995
0
LINE
8
BLACK
6
CONTINUOUS
10
1.36282
20
0.794995
11
1.36666
21
0.793038
0
LINE
8
BLACK
6
CONTINUOUS
10
1.36666
20
0.793038
11
1.36971
21
0.789989
0
LINE
8
BLACK
6
CONTINUOUS
10
1.36971
20
0.789989
11
1.37167
21
0.786148
0
LINE
8
BLACK
6
CONTINUOUS
10
1.37167
20
0.786148
11
1.37234
21
0.78189
0
LINE
8
BLACK
6
CONTINUOUS
10
1.37234
20
0.78189
11
1.37167
21
0.777632
0
LINE
8
BLACK
6
CONTINUOUS
10
1.37167
20
0.777632
11
1.36971
21
0.77379
0
LINE
8
BLACK
6
CONTINUOUS
10
1.36971
20
0.77379
11
1.36666
21
0.770742
0
LINE
8
BLACK
6
CONTINUOUS
10
1.36666
20
0.770742
11
1.36282
21
0.768785
0
LINE
8
BLACK
6
CONTINUOUS
10
1.36282
20
0.768785
11
1.35856
21
0.76811
0
LINE
8
BLACK
6
CONTINUOUS
10
1.35856
20
0.76811
11
1.3543
21
0.768785
0
LINE
8
BLACK
6
CONTINUOUS
10
1.3543
20
0.768785
11
1.35046
21
0.770742
0
LINE
8
BLACK
6
CONTINUOUS
10
1.35046
20
0.770742
11
1.34742
21
0.77379
0
LINE
8
BLACK
6
CONTINUOUS
10
1.34742
20
0.77379
11
1.34546
21
0.777632
0
LINE
8
BLACK
6
CONTINUOUS
10
1.34546
20
0.777632
11
1.34478
21
0.78189
0
LINE
8
BLACK
6
CONTINUOUS
10
1.34478
20
0.78189
11
1.34546
21
0.786148
0
LINE
8
BLACK
6
CONTINUOUS
10
1.34546
20
0.786148
11
1.34742
21
0.789989
0
LINE
8
BLACK
6
CONTINUOUS
10
1.34742
20
0.789989
11
1.35046
21
0.793038
0
LINE
8
BLACK
6
CONTINUOUS
10
1.35046
20
0.793038
11
1.3543
21
0.794995
0
LINE
8
BLACK
6
CONTINUOUS
10
1.3543
20
0.794995
11
1.35856
21
0.795669
0
LINE
8
BLACK
6
CONTINUOUS
10
1.35856
20
0.795669
11
1.36282
21
0.794995
0
LINE
8
BLACK
6
CONTINUOUS
10
0.522485
20
0.846265
11
0.529897
21
0.844741
0
LINE
8
BLACK
6
CONTINUOUS
10
0.529897
20
0.844741
11
0.536852
21
0.841757
0
LINE
8
BLACK
6
CONTINUOUS
10
0.536852
20
0.841757
11
0.543063
21
0.837434
0
LINE
8
BLACK
6
CONTINUOUS
10
0.543063
20
0.837434
11
0.548277
21
0.831949
0
LINE
8
BLACK
6
CONTINUOUS
10
0.548277
20
0.831949
11
0.55228
21
0.825527
0
LINE
8
BLACK
6
CONTINUOUS
10
0.55228
20
0.825527
11
0.554908
21
0.81843
0
LINE
8
BLACK
6
CONTINUOUS
10
0.554908
20
0.81843
11
0.556054
21
0.810949
0
LINE
8
BLACK
6
CONTINUOUS
10
0.556054
20
0.810949
11
0.555671
21
0.803391
0
LINE
8
BLACK
6
CONTINUOUS
10
0.555671
20
0.803391
11
0.553774
21
0.796065
0
LINE
8
BLACK
6
CONTINUOUS
10
0.553774
20
0.796065
11
0.550441
21
0.789271
0
LINE
8
BLACK
6
CONTINUOUS
10
0.550441
20
0.789271
11
0.545809
21
0.783287
0
LINE
8
BLACK
6
CONTINUOUS
10
0.545809
20
0.783287
11
0.540067
21
0.778357
0
LINE
8
BLACK
6
CONTINUOUS
10
0.540067
20
0.778357
11
0.53345
21
0.774685
0
LINE
8
BLACK
6
CONTINUOUS
10
0.53345
20
0.774685
11
0.52623
21
0.772419
0
LINE
8
BLACK
6
CONTINUOUS
10
0.52623
20
0.772419
11
0.518701
21
0.771654
0
LINE
8
BLACK
6
CONTINUOUS
10
0.518701
20
0.771654
11
0.459646
21
0.771654
0
LINE
8
BLACK
6
CONTINUOUS
10
0.459646
20
0.771654
11
0.455862
21
0.771845
0
LINE
8
BLACK
6
CONTINUOUS
10
0.455862
20
0.771845
11
0.448449
21
0.773369
0
LINE
8
BLACK
6
CONTINUOUS
10
0.448449
20
0.773369
11
0.441495
21
0.776353
0
LINE
8
BLACK
6
CONTINUOUS
10
0.441495
20
0.776353
11
0.435283
21
0.780676
0
LINE
8
BLACK
6
CONTINUOUS
10
0.435283
20
0.780676
11
0.430069
21
0.786161
0
LINE
8
BLACK
6
CONTINUOUS
10
0.430069
20
0.786161
11
0.426066
21
0.792584
0
LINE
8
BLACK
6
CONTINUOUS
10
0.426066
20
0.792584
11
0.423438
21
0.79968
0
LINE
8
BLACK
6
CONTINUOUS
10
0.423438
20
0.79968
11
0.422292
21
0.807161
0
LINE
8
BLACK
6
CONTINUOUS
10
0.422292
20
0.807161
11
0.422675
21
0.814719
0
LINE
8
BLACK
6
CONTINUOUS
10
0.422675
20
0.814719
11
0.424572
21
0.822045
0
LINE
8
BLACK
6
CONTINUOUS
10
0.424572
20
0.822045
11
0.427905
21
0.828839
0
LINE
8
BLACK
6
CONTINUOUS
10
0.427905
20
0.828839
11
0.432537
21
0.834824
0
LINE
8
BLACK
6
CONTINUOUS
10
0.432537
20
0.834824
11
0.438279
21
0.839753
0
LINE
8
BLACK
6
CONTINUOUS
10
0.438279
20
0.839753
11
0.444896
21
0.843426
0
LINE
8
BLACK
6
CONTINUOUS
10
0.444896
20
0.843426
11
0.452117
21
0.845691
0
LINE
8
BLACK
6
CONTINUOUS
10
0.452117
20
0.845691
11
0.459646
21
0.846457
0
LINE
8
BLACK
6
CONTINUOUS
10
0.459646
20
0.846457
11
0.518701
21
0.846457
0
LINE
8
BLACK
6
CONTINUOUS
10
0.518701
20
0.846457
11
0.522485
21
0.846265
0
LINE
8
BLACK
6
CONTINUOUS
10
1.26833
20
0.842239
11
1.27217
21
0.840282
0
LINE
8
BLACK
6
CONTINUOUS
10
1.27217
20
0.840282
11
1.27522
21
0.837233
0
LINE
8
BLACK
6
CONTINUOUS
10
1.27522
20
0.837233
11
1.27718
21
0.833392
0
LINE
8
BLACK
6
CONTINUOUS
10
1.27718
20
0.833392
11
1.27785
21
0.829134
0
LINE
8
BLACK
6
CONTINUOUS
10
1.27785
20
0.829134
11
1.27718
21
0.824876
0
LINE
8
BLACK
6
CONTINUOUS
10
1.27718
20
0.824876
11
1.27522
21
0.821034
0
LINE
8
BLACK
6
CONTINUOUS
10
1.27522
20
0.821034
11
1.27217
21
0.817986
0
LINE
8
BLACK
6
CONTINUOUS
10
1.27217
20
0.817986
11
1.26833
21
0.816029
0
LINE
8
BLACK
6
CONTINUOUS
10
1.26833
20
0.816029
11
1.26407
21
0.815354
0
LINE
8
BLACK
6
CONTINUOUS
10
1.26407
20
0.815354
11
1.25982
21
0.816029
0
LINE
8
BLACK
6
CONTINUOUS
10
1.25982
20
0.816029
11
1.25598
21
0.817986
0
LINE
8
BLACK
6
CONTINUOUS
10
1.25598
20
0.817986
11
1.25293
21
0.821034
0
LINE
8
BLACK
6
CONTINUOUS
10
1.25293
20
0.821034
11
1.25097
21
0.824876
0
LINE
8
BLACK
6
CONTINUOUS
10
1.25097
20
0.824876
11
1.2503
21
0.829134
0
LINE
8
BLACK
6
CONTINUOUS
10
1.2503
20
0.829134
11
1.25097
21
0.833392
0
LINE
8
BLACK
6
CONTINUOUS
10
1.25097
20
0.833392
11
1.25293
21
0.837233
0
LINE
8
BLACK
6
CONTINUOUS
10
1.25293
20
0.837233
11
1.25598
21
0.840282
0
LINE
8
BLACK
6
CONTINUOUS
10
1.25598
20
0.840282
11
1.25982
21
0.842239
0
LINE
8
BLACK
6
CONTINUOUS
10
1.25982
20
0.842239
11
1.26407
21
0.842913
0
LINE
8
BLACK
6
CONTINUOUS
10
1.26407
20
0.842913
11
1.26833
21
0.842239
0
LINE
8
BLACK
6
CONTINUOUS
10
1.31558
20
0.842239
11
1.31942
21
0.840282
0
LINE
8
BLACK
6
CONTINUOUS
10
1.31942
20
0.840282
11
1.32247
21
0.837233
0
LINE
8
BLACK
6
CONTINUOUS
10
1.32247
20
0.837233
11
1.32442
21
0.833392
0
LINE
8
BLACK
6
CONTINUOUS
10
1.32442
20
0.833392
11
1.3251
21
0.829134
0
LINE
8
BLACK
6
CONTINUOUS
10
1.3251
20
0.829134
11
1.32442
21
0.824876
0
LINE
8
BLACK
6
CONTINUOUS
10
1.32442
20
0.824876
11
1.32247
21
0.821034
0
LINE
8
BLACK
6
CONTINUOUS
10
1.32247
20
0.821034
11
1.31942
21
0.817986
0
LINE
8
BLACK
6
CONTINUOUS
10
1.31942
20
0.817986
11
1.31558
21
0.816029
0
LINE
8
BLACK
6
CONTINUOUS
10
1.31558
20
0.816029
11
1.31132
21
0.815354
0
LINE
8
BLACK
6
CONTINUOUS
10
1.31132
20
0.815354
11
1.30706
21
0.816029
0
LINE
8
BLACK
6
CONTINUOUS
10
1.30706
20
0.816029
11
1.30322
21
0.817986
0
LINE
8
BLACK
6
CONTINUOUS
10
1.30322
20
0.817986
11
1.30017
21
0.821034
0
LINE
8
BLACK
6
CONTINUOUS
10
1.30017
20
0.821034
11
1.29821
21
0.824876
0
LINE
8
BLACK
6
CONTINUOUS
10
1.29821
20
0.824876
11
1.29754
21
0.829134
0
LINE
8
BLACK
6
CONTINUOUS
10
1.29754
20
0.829134
11
1.29821
21
0.833392
0
LINE
8
BLACK
6
CONTINUOUS
10
1.29821
20
0.833392
11
1.30017
21
0.837233
0
LINE
8
BLACK
6
CONTINUOUS
10
1.30017
20
0.837233
11
1.30322
21
0.840282
0
LINE
8
BLACK
6
CONTINUOUS
10
1.30322
20
0.840282
11
1.30706
21
0.842239
0
LINE
8
BLACK
6
CONTINUOUS
10
1.30706
20
0.842239
11
1.31132
21
0.842913
0
LINE
8
BLACK
6
CONTINUOUS
10
1.31132
20
0.842913
11
1.31558
21
0.842239
0
LINE
8
BLACK
6
CONTINUOUS
10
1.36282
20
0.842239
11
1.36666
21
0.840282
0
LINE
8
BLACK
6
CONTINUOUS
10
1.36666
20
0.840282
11
1.36971
21
0.837233
0
LINE
8
BLACK
6
CONTINUOUS
10
1.36971
20
0.837233
11
1.37167
21
0.833392
0
LINE
8
BLACK
6
CONTINUOUS
10
1.37167
20
0.833392
11
1.37234
21
0.829134
0
LINE
8
BLACK
6
CONTINUOUS
10
1.37234
20
0.829134
11
1.37167
21
0.824876
0
LINE
8
BLACK
6
CONTINUOUS
10
1.37167
20
0.824876
11
1.36971
21
0.821034
0
LINE
8
BLACK
6
CONTINUOUS
10
1.36971
20
0.821034
11
1.36666
21
0.817986
0
LINE
8
BLACK
6
CONTINUOUS
10
1.36666
20
0.817986
11
1.36282
21
0.816029
0
LINE
8
BLACK
6
CONTINUOUS
10
1.36282
20
0.816029
11
1.35856
21
0.815354
0
LINE
8
BLACK
6
CONTINUOUS
10
1.35856
20
0.815354
11
1.3543
21
0.816029
0
LINE
8
BLACK
6
CONTINUOUS
10
1.3543
20
0.816029
11
1.35046
21
0.817986
0
LINE
8
BLACK
6
CONTINUOUS
10
1.35046
20
0.817986
11
1.34742
21
0.821034
0
LINE
8
BLACK
6
CONTINUOUS
10
1.34742
20
0.821034
11
1.34546
21
0.824876
0
LINE
8
BLACK
6
CONTINUOUS
10
1.34546
20
0.824876
11
1.34478
21
0.829134
0
LINE
8
BLACK
6
CONTINUOUS
10
1.34478
20
0.829134
11
1.34546
21
0.833392
0
LINE
8
BLACK
6
CONTINUOUS
10
1.34546
20
0.833392
11
1.34742
21
0.837233
0
LINE
8
BLACK
6
CONTINUOUS
10
1.34742
20
0.837233
11
1.35046
21
0.840282
0
LINE
8
BLACK
6
CONTINUOUS
10
1.35046
20
0.840282
11
1.3543
21
0.842239
0
LINE
8
BLACK
6
CONTINUOUS
10
1.3543
20
0.842239
11
1.35856
21
0.842913
0
LINE
8
BLACK
6
CONTINUOUS
10
1.35856
20
0.842913
11
1.36282
21
0.842239
0
LINE
8
BLACK
6
CONTINUOUS
10
0.994627
20
0.904991
11
0.997182
21
0.903284
0
LINE
8
BLACK
6
CONTINUOUS
10
0.997182
20
0.903284
11
0.998889
21
0.90073
0
LINE
8
BLACK
6
CONTINUOUS
10
0.998889
20
0.90073
11
0.999488
21
0.897717
0
LINE
8
BLACK
6
CONTINUOUS
10
0.999488
20
0.897717
11
0.999488
21
0.837717
0
LINE
8
BLACK
6
CONTINUOUS
10
0.999488
20
0.837717
11
0.998889
21
0.834703
0
LINE
8
BLACK
6
CONTINUOUS
10
0.998889
20
0.834703
11
0.997182
21
0.832149
0
LINE
8
BLACK
6
CONTINUOUS
10
0.997182
20
0.832149
11
0.994627
21
0.830442
0
LINE
8
BLACK
6
CONTINUOUS
10
0.994627
20
0.830442
11
0.991614
21
0.829843
0
LINE
8
BLACK
6
CONTINUOUS
10
0.991614
20
0.829843
11
0.931614
21
0.829843
0
LINE
8
BLACK
6
CONTINUOUS
10
0.931614
20
0.829843
11
0.928601
21
0.830442
0
LINE
8
BLACK
6
CONTINUOUS
10
0.928601
20
0.830442
11
0.926046
21
0.832149
0
LINE
8
BLACK
6
CONTINUOUS
10
0.926046
20
0.832149
11
0.92434
21
0.834703
0
LINE
8
BLACK
6
CONTINUOUS
10
0.92434
20
0.834703
11
0.92374
21
0.837717
0
LINE
8
BLACK
6
CONTINUOUS
10
0.92374
20
0.837717
11
0.92374
21
0.897717
0
LINE
8
BLACK
6
CONTINUOUS
10
0.92374
20
0.897717
11
0.92434
21
0.90073
0
LINE
8
BLACK
6
CONTINUOUS
10
0.92434
20
0.90073
11
0.926046
21
0.903284
0
LINE
8
BLACK
6
CONTINUOUS
10
0.926046
20
0.903284
11
0.928601
21
0.904991
0
LINE
8
BLACK
6
CONTINUOUS
10
0.928601
20
0.904991
11
0.931614
21
0.905591
0
LINE
8
BLACK
6
CONTINUOUS
10
0.931614
20
0.905591
11
0.991614
21
0.905591
0
LINE
8
BLACK
6
CONTINUOUS
10
0.991614
20
0.905591
11
0.994627
21
0.904991
0
LINE
8
BLACK
6
CONTINUOUS
10
1.09463
20
0.904991
11
1.09718
21
0.903284
0
LINE
8
BLACK
6
CONTINUOUS
10
1.09718
20
0.903284
11
1.09889
21
0.90073
0
LINE
8
BLACK
6
CONTINUOUS
10
1.09889
20
0.90073
11
1.09949
21
0.897717
0
LINE
8
BLACK
6
CONTINUOUS
10
1.09949
20
0.897717
11
1.09949
21
0.837717
0
LINE
8
BLACK
6
CONTINUOUS
10
1.09949
20
0.837717
11
1.09889
21
0.834703
0
LINE
8
BLACK
6
CONTINUOUS
10
1.09889
20
0.834703
11
1.09718
21
0.832149
0
LINE
8
BLACK
6
CONTINUOUS
10
1.09718
20
0.832149
11
1.09463
21
0.830442
0
LINE
8
BLACK
6
CONTINUOUS
10
1.09463
20
0.830442
11
1.09161
21
0.829843
0
LINE
8
BLACK
6
CONTINUOUS
10
1.09161
20
0.829843
11
1.03161
21
0.829843
0
LINE
8
BLACK
6
CONTINUOUS
10
1.03161
20
0.829843
11
1.0286
21
0.830442
0
LINE
8
BLACK
6
CONTINUOUS
10
1.0286
20
0.830442
11
1.02605
21
0.832149
0
LINE
8
BLACK
6
CONTINUOUS
10
1.02605
20
0.832149
11
1.02434
21
0.834703
0
LINE
8
BLACK
6
CONTINUOUS
10
1.02434
20
0.834703
11
1.02374
21
0.837717
0
LINE
8
BLACK
6
CONTINUOUS
10
1.02374
20
0.837717
11
1.02374
21
0.897717
0
LINE
8
BLACK
6
CONTINUOUS
10
1.02374
20
0.897717
11
1.02434
21
0.90073
0
LINE
8
BLACK
6
CONTINUOUS
10
1.02434
20
0.90073
11
1.02605
21
0.903284
0
LINE
8
BLACK
6
CONTINUOUS
10
1.02605
20
0.903284
11
1.0286
21
0.904991
0
LINE
8
BLACK
6
CONTINUOUS
10
1.0286
20
0.904991
11
1.03161
21
0.905591
0
LINE
8
BLACK
6
CONTINUOUS
10
1.03161
20
0.905591
11
1.09161
21
0.905591
0
LINE
8
BLACK
6
CONTINUOUS
10
1.09161
20
0.905591
11
1.09463
21
0.904991
0
LINE
8
BLACK
6
CONTINUOUS
10
1.26833
20
0.889483
11
1.27217
21
0.887526
0
LINE
8
BLACK
6
CONTINUOUS
10
1.27217
20
0.887526
11
1.27522
21
0.884477
0
LINE
8
BLACK
6
CONTINUOUS
10
1.27522
20
0.884477
11
1.27718
21
0.880636
0
LINE
8
BLACK
6
CONTINUOUS
10
1.27718
20
0.880636
11
1.27785
21
0.876378
0
LINE
8
BLACK
6
CONTINUOUS
10
1.27785
20
0.876378
11
1.27718
21
0.87212
0
LINE
8
BLACK
6
CONTINUOUS
10
1.27718
20
0.87212
11
1.27522
21
0.868279
0
LINE
8
BLACK
6
CONTINUOUS
10
1.27522
20
0.868279
11
1.27217
21
0.86523
0
LINE
8
BLACK
6
CONTINUOUS
10
1.27217
20
0.86523
11
1.26833
21
0.863273
0
LINE
8
BLACK
6
CONTINUOUS
10
1.26833
20
0.863273
11
1.26407
21
0.862598
0
LINE
8
BLACK
6
CONTINUOUS
10
1.26407
20
0.862598
11
1.25982
21
0.863273
0
LINE
8
BLACK
6
CONTINUOUS
10
1.25982
20
0.863273
11
1.25598
21
0.86523
0
LINE
8
BLACK
6
CONTINUOUS
10
1.25598
20
0.86523
11
1.25293
21
0.868279
0
LINE
8
BLACK
6
CONTINUOUS
10
1.25293
20
0.868279
11
1.25097
21
0.87212
0
LINE
8
BLACK
6
CONTINUOUS
10
1.25097
20
0.87212
11
1.2503
21
0.876378
0
LINE
8
BLACK
6
CONTINUOUS
10
1.2503
20
0.876378
11
1.25097
21
0.880636
0
LINE
8
BLACK
6
CONTINUOUS
10
1.25097
20
0.880636
11
1.25293
21
0.884477
0
LINE
8
BLACK
6
CONTINUOUS
10
1.25293
20
0.884477
11
1.25598
21
0.887526
0
LINE
8
BLACK
6
CONTINUOUS
10
1.25598
20
0.887526
11
1.25982
21
0.889483
0
LINE
8
BLACK
6
CONTINUOUS
10
1.25982
20
0.889483
11
1.26407
21
0.890157
0
LINE
8
BLACK
6
CONTINUOUS
10
1.26407
20
0.890157
11
1.26833
21
0.889483
0
LINE
8
BLACK
6
CONTINUOUS
10
1.31558
20
0.889483
11
1.31942
21
0.887526
0
LINE
8
BLACK
6
CONTINUOUS
10
1.31942
20
0.887526
11
1.32247
21
0.884477
0
LINE
8
BLACK
6
CONTINUOUS
10
1.32247
20
0.884477
11
1.32442
21
0.880636
0
LINE
8
BLACK
6
CONTINUOUS
10
1.32442
20
0.880636
11
1.3251
21
0.876378
0
LINE
8
BLACK
6
CONTINUOUS
10
1.3251
20
0.876378
11
1.32442
21
0.87212
0
LINE
8
BLACK
6
CONTINUOUS
10
1.32442
20
0.87212
11
1.32247
21
0.868279
0
LINE
8
BLACK
6
CONTINUOUS
10
1.32247
20
0.868279
11
1.31942
21
0.86523
0
LINE
8
BLACK
6
CONTINUOUS
10
1.31942
20
0.86523
11
1.31558
21
0.863273
0
LINE
8
BLACK
6
CONTINUOUS
10
1.31558
20
0.863273
11
1.31132
21
0.862598
0
LINE
8
BLACK
6
CONTINUOUS
10
1.31132
20
0.862598
11
1.30706
21
0.863273
0
LINE
8
BLACK
6
CONTINUOUS
10
1.30706
20
0.863273
11
1.30322
21
0.86523
0
LINE
8
BLACK
6
CONTINUOUS
10
1.30322
20
0.86523
11
1.30017
21
0.868279
0
LINE
8
BLACK
6
CONTINUOUS
10
1.30017
20
0.868279
11
1.29821
21
0.87212
0
LINE
8
BLACK
6
CONTINUOUS
10
1.29821
20
0.87212
11
1.29754
21
0.876378
0
LINE
8
BLACK
6
CONTINUOUS
10
1.29754
20
0.876378
11
1.29821
21
0.880636
0
LINE
8
BLACK
6
CONTINUOUS
10
1.29821
20
0.880636
11
1.30017
21
0.884477
0
LINE
8
BLACK
6
CONTINUOUS
10
1.30017
20
0.884477
11
1.30322
21
0.887526
0
LINE
8
BLACK
6
CONTINUOUS
10
1.30322
20
0.887526
11
1.30706
21
0.889483
0
LINE
8
BLACK
6
CONTINUOUS
10
1.30706
20
0.889483
11
1.31132
21
0.890157
0
LINE
8
BLACK
6
CONTINUOUS
10
1.31132
20
0.890157
11
1.31558
21
0.889483
0
LINE
8
BLACK
6
CONTINUOUS
10
1.36282
20
0.889483
11
1.36666
21
0.887526
0
LINE
8
BLACK
6
CONTINUOUS
10
1.36666
20
0.887526
11
1.36971
21
0.884477
0
LINE
8
BLACK
6
CONTINUOUS
10
1.36971
20
0.884477
11
1.37167
21
0.880636
0
LINE
8
BLACK
6
CONTINUOUS
10
1.37167
20
0.880636
11
1.37234
21
0.876378
0
LINE
8
BLACK
6
CONTINUOUS
10
1.37234
20
0.876378
11
1.37167
21
0.87212
0
LINE
8
BLACK
6
CONTINUOUS
10
1.37167
20
0.87212
11
1.36971
21
0.868279
0
LINE
8
BLACK
6
CONTINUOUS
10
1.36971
20
0.868279
11
1.36666
21
0.86523
0
LINE
8
BLACK
6
CONTINUOUS
10
1.36666
20
0.86523
11
1.36282
21
0.863273
0
LINE
8
BLACK
6
CONTINUOUS
10
1.36282
20
0.863273
11
1.35856
21
0.862598
0
LINE
8
BLACK
6
CONTINUOUS
10
1.35856
20
0.862598
11
1.3543
21
0.863273
0
LINE
8
BLACK
6
CONTINUOUS
10
1.3543
20
0.863273
11
1.35046
21
0.86523
0
LINE
8
BLACK
6
CONTINUOUS
10
1.35046
20
0.86523
11
1.34742
21
0.868279
0
LINE
8
BLACK
6
CONTINUOUS
10
1.34742
20
0.868279
11
1.34546
21
0.87212
0
LINE
8
BLACK
6
CONTINUOUS
10
1.34546
20
0.87212
11
1.34478
21
0.876378
0
LINE
8
BLACK
6
CONTINUOUS
10
1.34478
20
0.876378
11
1.34546
21
0.880636
0
LINE
8
BLACK
6
CONTINUOUS
10
1.34546
20
0.880636
11
1.34742
21
0.884477
0
LINE
8
BLACK
6
CONTINUOUS
10
1.34742
20
0.884477
11
1.35046
21
0.887526
0
LINE
8
BLACK
6
CONTINUOUS
10
1.35046
20
0.887526
11
1.3543
21
0.889483
0
LINE
8
BLACK
6
CONTINUOUS
10
1.3543
20
0.889483
11
1.35856
21
0.890157
0
LINE
8
BLACK
6
CONTINUOUS
10
1.35856
20
0.890157
11
1.36282
21
0.889483
0
LINE
8
BLACK
6
CONTINUOUS
10
1.26833
20
0.936727
11
1.27217
21
0.93477
0
LINE
8
BLACK
6
CONTINUOUS
10
1.27217
20
0.93477
11
1.27522
21
0.931721
0
LINE
8
BLACK
6
CONTINUOUS
10
1.27522
20
0.931721
11
1.27718
21
0.92788
0
LINE
8
BLACK
6
CONTINUOUS
10
1.27718
20
0.92788
11
1.27785
21
0.923622
0
LINE
8
BLACK
6
CONTINUOUS
10
1.27785
20
0.923622
11
1.27718
21
0.919364
0
LINE
8
BLACK
6
CONTINUOUS
10
1.27718
20
0.919364
11
1.27522
21
0.915523
0
LINE
8
BLACK
6
CONTINUOUS
10
1.27522
20
0.915523
11
1.27217
21
0.912474
0
LINE
8
BLACK
6
CONTINUOUS
10
1.27217
20
0.912474
11
1.26833
21
0.910517
0
LINE
8
BLACK
6
CONTINUOUS
10
1.26833
20
0.910517
11
1.26407
21
0.909843
0
LINE
8
BLACK
6
CONTINUOUS
10
1.26407
20
0.909843
11
1.25982
21
0.910517
0
LINE
8
BLACK
6
CONTINUOUS
10
1.25982
20
0.910517
11
1.25598
21
0.912474
0
LINE
8
BLACK
6
CONTINUOUS
10
1.25598
20
0.912474
11
1.25293
21
0.915523
0
LINE
8
BLACK
6
CONTINUOUS
10
1.25293
20
0.915523
11
1.25097
21
0.919364
0
LINE
8
BLACK
6
CONTINUOUS
10
1.25097
20
0.919364
11
1.2503
21
0.923622
0
LINE
8
BLACK
6
CONTINUOUS
10
1.2503
20
0.923622
11
1.25097
21
0.92788
0
LINE
8
BLACK
6
CONTINUOUS
10
1.25097
20
0.92788
11
1.25293
21
0.931721
0
LINE
8
BLACK
6
CONTINUOUS
10
1.25293
20
0.931721
11
1.25598
21
0.93477
0
LINE
8
BLACK
6
CONTINUOUS
10
1.25598
20
0.93477
11
1.25982
21
0.936727
0
LINE
8
BLACK
6
CONTINUOUS
10
1.25982
20
0.936727
11
1.26407
21
0.937402
0
LINE
8
BLACK
6
CONTINUOUS
10
1.26407
20
0.937402
11
1.26833
21
0.936727
0
LINE
8
BLACK
6
CONTINUOUS
10
1.31558
20
0.936727
11
1.31942
21
0.93477
0
LINE
8
BLACK
6
CONTINUOUS
10
1.31942
20
0.93477
11
1.32247
21
0.931721
0
LINE
8
BLACK
6
CONTINUOUS
10
1.32247
20
0.931721
11
1.32442
21
0.92788
0
LINE
8
BLACK
6
CONTINUOUS
10
1.32442
20
0.92788
11
1.3251
21
0.923622
0
LINE
8
BLACK
6
CONTINUOUS
10
1.3251
20
0.923622
11
1.32442
21
0.919364
0
LINE
8
BLACK
6
CONTINUOUS
10
1.32442
20
0.919364
11
1.32247
21
0.915523
0
LINE
8
BLACK
6
CONTINUOUS
10
1.32247
20
0.915523
11
1.31942
21
0.912474
0
LINE
8
BLACK
6
CONTINUOUS
10
1.31942
20
0.912474
11
1.31558
21
0.910517
0
LINE
8
BLACK
6
CONTINUOUS
10
1.31558
20
0.910517
11
1.31132
21
0.909843
0
LINE
8
BLACK
6
CONTINUOUS
10
1.31132
20
0.909843
11
1.30706
21
0.910517
0
LINE
8
BLACK
6
CONTINUOUS
10
1.30706
20
0.910517
11
1.30322
21
0.912474
0
LINE
8
BLACK
6
CONTINUOUS
10
1.30322
20
0.912474
11
1.30017
21
0.915523
0
LINE
8
BLACK
6
CONTINUOUS
10
1.30017
20
0.915523
11
1.29821
21
0.919364
0
LINE
8
BLACK
6
CONTINUOUS
10
1.29821
20
0.919364
11
1.29754
21
0.923622
0
LINE
8
BLACK
6
CONTINUOUS
10
1.29754
20
0.923622
11
1.29821
21
0.92788
0
LINE
8
BLACK
6
CONTINUOUS
10
1.29821
20
0.92788
11
1.30017
21
0.931721
0
LINE
8
BLACK
6
CONTINUOUS
10
1.30017
20
0.931721
11
1.30322
21
0.93477
0
LINE
8
BLACK
6
CONTINUOUS
10
1.30322
20
0.93477
11
1.30706
21
0.936727
0
LINE
8
BLACK
6
CONTINUOUS
10
1.30706
20
0.936727
11
1.31132
21
0.937402
0
LINE
8
BLACK
6
CONTINUOUS
10
1.31132
20
0.937402
11
1.31558
21
0.936727
0
LINE
8
BLACK
6
CONTINUOUS
10
1.36282
20
0.936727
11
1.36666
21
0.93477
0
LINE
8
BLACK
6
CONTINUOUS
10
1.36666
20
0.93477
11
1.36971
21
0.931721
0
LINE
8
BLACK
6
CONTINUOUS
10
1.36971
20
0.931721
11
1.37167
21
0.92788
0
LINE
8
BLACK
6
CONTINUOUS
10
1.37167
20
0.92788
11
1.37234
21
0.923622
0
LINE
8
BLACK
6
CONTINUOUS
10
1.37234
20
0.923622
11
1.37167
21
0.919364
0
LINE
8
BLACK
6
CONTINUOUS
10
1.37167
20
0.919364
11
1.36971
21
0.915523
0
LINE
8
BLACK
6
CONTINUOUS
10
1.36971
20
0.915523
11
1.36666
21
0.912474
0
LINE
8
BLACK
6
CONTINUOUS
10
1.36666
20
0.912474
11
1.36282
21
0.910517
0
LINE
8
BLACK
6
CONTINUOUS
10
1.36282
20
0.910517
11
1.35856
21
0.909843
0
LINE
8
BLACK
6
CONTINUOUS
10
1.35856
20
0.909843
11
1.3543
21
0.910517
0
LINE
8
BLACK
6
CONTINUOUS
10
1.3543
20
0.910517
11
1.35046
21
0.912474
0
LINE
8
BLACK
6
CONTINUOUS
10
1.35046
20
0.912474
11
1.34742
21
0.915523
0
LINE
8
BLACK
6
CONTINUOUS
10
1.34742
20
0.915523
11
1.34546
21
0.919364
0
LINE
8
BLACK
6
CONTINUOUS
10
1.34546
20
0.919364
11
1.34478
21
0.923622
0
LINE
8
BLACK
6
CONTINUOUS
10
1.34478
20
0.923622
11
1.34546
21
0.92788
0
LINE
8
BLACK
6
CONTINUOUS
10
1.34546
20
0.92788
11
1.34742
21
0.931721
0
LINE
8
BLACK
6
CONTINUOUS
10
1.34742
20
0.931721
11
1.35046
21
0.93477
0
LINE
8
BLACK
6
CONTINUOUS
10
1.35046
20
0.93477
11
1.3543
21
0.936727
0
LINE
8
BLACK
6
CONTINUOUS
10
1.3543
20
0.936727
11
1.35856
21
0.937402
0
LINE
8
BLACK
6
CONTINUOUS
10
1.35856
20
0.937402
11
1.36282
21
0.936727
0
LINE
8
BLACK
6
CONTINUOUS
10
0.994627
20
1.00499
11
0.997182
21
1.00328
0
LINE
8
BLACK
6
CONTINUOUS
10
0.997182
20
1.00328
11
0.998889
21
1.00073
0
LINE
8
BLACK
6
CONTINUOUS
10
0.998889
20
1.00073
11
0.999488
21
0.997717
0
LINE
8
BLACK
6
CONTINUOUS
10
0.999488
20
0.997717
11
0.999488
21
0.937717
0
LINE
8
BLACK
6
CONTINUOUS
10
0.999488
20
0.937717
11
0.998889
21
0.934703
0
LINE
8
BLACK
6
CONTINUOUS
10
0.998889
20
0.934703
11
0.997182
21
0.932149
0
LINE
8
BLACK
6
CONTINUOUS
10
0.997182
20
0.932149
11
0.994627
21
0.930442
0
LINE
8
BLACK
6
CONTINUOUS
10
0.994627
20
0.930442
11
0.991614
21
0.929843
0
LINE
8
BLACK
6
CONTINUOUS
10
0.991614
20
0.929843
11
0.931614
21
0.929843
0
LINE
8
BLACK
6
CONTINUOUS
10
0.931614
20
0.929843
11
0.928601
21
0.930442
0
LINE
8
BLACK
6
CONTINUOUS
10
0.928601
20
0.930442
11
0.926046
21
0.932149
0
LINE
8
BLACK
6
CONTINUOUS
10
0.926046
20
0.932149
11
0.92434
21
0.934703
0
LINE
8
BLACK
6
CONTINUOUS
10
0.92434
20
0.934703
11
0.92374
21
0.937717
0
LINE
8
BLACK
6
CONTINUOUS
10
0.92374
20
0.937717
11
0.92374
21
0.997717
0
LINE
8
BLACK
6
CONTINUOUS
10
0.92374
20
0.997717
11
0.92434
21
1.00073
0
LINE
8
BLACK
6
CONTINUOUS
10
0.92434
20
1.00073
11
0.926046
21
1.00328
0
LINE
8
BLACK
6
CONTINUOUS
10
0.926046
20
1.00328
11
0.928601
21
1.00499
0
LINE
8
BLACK
6
CONTINUOUS
10
0.928601
20
1.00499
11
0.931614
21
1.00559
0
LINE
8
BLACK
6
CONTINUOUS
10
0.931614
20
1.00559
11
0.991614
21
1.00559
0
LINE
8
BLACK
6
CONTINUOUS
10
0.991614
20
1.00559
11
0.994627
21
1.00499
0
LINE
8
BLACK
6
CONTINUOUS
10
1.09463
20
1.00499
11
1.09718
21
1.00328
0
LINE
8
BLACK
6
CONTINUOUS
10
1.09718
20
1.00328
11
1.09889
21
1.00073
0
LINE
8
BLACK
6
CONTINUOUS
10
1.09889
20
1.00073
11
1.09949
21
0.997717
0
LINE
8
BLACK
6
CONTINUOUS
10
1.09949
20
0.997717
11
1.09949
21
0.937717
0
LINE
8
BLACK
6
CONTINUOUS
10
1.09949
20
0.937717
11
1.09889
21
0.934703
0
LINE
8
BLACK
6
CONTINUOUS
10
1.09889
20
0.934703
11
1.09718
21
0.932149
0
LINE
8
BLACK
6
CONTINUOUS
10
1.09718
20
0.932149
11
1.09463
21
0.930442
0
LINE
8
BLACK
6
CONTINUOUS
10
1.09463
20
0.930442
11
1.09161
21
0.929843
0
LINE
8
BLACK
6
CONTINUOUS
10
1.09161
20
0.929843
11
1.03161
21
0.929843
0
LINE
8
BLACK
6
CONTINUOUS
10
1.03161
20
0.929843
11
1.0286
21
0.930442
0
LINE
8
BLACK
6
CONTINUOUS
10
1.0286
20
0.930442
11
1.02605
21
0.932149
0
LINE
8
BLACK
6
CONTINUOUS
10
1.02605
20
0.932149
11
1.02434
21
0.934703
0
LINE
8
BLACK
6
CONTINUOUS
10
1.02434
20
0.934703
11
1.02374
21
0.937717
0
LINE
8
BLACK
6
CONTINUOUS
10
1.02374
20
0.937717
11
1.02374
21
0.997717
0
LINE
8
BLACK
6
CONTINUOUS
10
1.02374
20
0.997717
11
1.02434
21
1.00073
0
LINE
8
BLACK
6
CONTINUOUS
10
1.02434
20
1.00073
11
1.02605
21
1.00328
0
LINE
8
BLACK
6
CONTINUOUS
10
1.02605
20
1.00328
11
1.0286
21
1.00499
0
LINE
8
BLACK
6
CONTINUOUS
10
1.0286
20
1.00499
11
1.03161
21
1.00559
0
LINE
8
BLACK
6
CONTINUOUS
10
1.03161
20
1.00559
11
1.09161
21
1.00559
0
LINE
8
BLACK
6
CONTINUOUS
10
1.09161
20
1.00559
11
1.09463
21
1.00499
0
LINE
8
BLACK
6
CONTINUOUS
10
0.522485
20
1.04312
11
0.529897
21
1.04159
0
LINE
8
BLACK
6
CONTINUOUS
10
0.529897
20
1.04159
11
0.536852
21
1.03861
0
LINE
8
BLACK
6
CONTINUOUS
10
0.536852
20
1.03861
11
0.543063
21
1.03428
0
LINE
8
BLACK
6
CONTINUOUS
10
0.543063
20
1.03428
11
0.548277
21
1.0288
0
LINE
8
BLACK
6
CONTINUOUS
10
0.548277
20
1.0288
11
0.55228
21
1.02238
0
LINE
8
BLACK
6
CONTINUOUS
10
0.55228
20
1.02238
11
0.554908
21
1.01528
0
LINE
8
BLACK
6
CONTINUOUS
10
0.554908
20
1.01528
11
0.556054
21
1.0078
0
LINE
8
BLACK
6
CONTINUOUS
10
0.556054
20
1.0078
11
0.555671
21
1.00024
0
LINE
8
BLACK
6
CONTINUOUS
10
0.555671
20
1.00024
11
0.553774
21
0.992916
0
LINE
8
BLACK
6
CONTINUOUS
10
0.553774
20
0.992916
11
0.550441
21
0.986121
0
LINE
8
BLACK
6
CONTINUOUS
10
0.550441
20
0.986121
11
0.545809
21
0.980137
0
LINE
8
BLACK
6
CONTINUOUS
10
0.545809
20
0.980137
11
0.540067
21
0.975208
0
LINE
8
BLACK
6
CONTINUOUS
10
0.540067
20
0.975208
11
0.53345
21
0.971535
0
LINE
8
BLACK
6
CONTINUOUS
10
0.53345
20
0.971535
11
0.52623
21
0.96927
0
LINE
8
BLACK
6
CONTINUOUS
10
0.52623
20
0.96927
11
0.518701
21
0.968504
0
LINE
8
BLACK
6
CONTINUOUS
10
0.518701
20
0.968504
11
0.459646
21
0.968504
0
LINE
8
BLACK
6
CONTINUOUS
10
0.459646
20
0.968504
11
0.455862
21
0.968696
0
LINE
8
BLACK
6
CONTINUOUS
10
0.455862
20
0.968696
11
0.448449
21
0.970219
0
LINE
8
BLACK
6
CONTINUOUS
10
0.448449
20
0.970219
11
0.441495
21
0.973204
0
LINE
8
BLACK
6
CONTINUOUS
10
0.441495
20
0.973204
11
0.435283
21
0.977527
0
LINE
8
BLACK
6
CONTINUOUS
10
0.435283
20
0.977527
11
0.430069
21
0.983012
0
LINE
8
BLACK
6
CONTINUOUS
10
0.430069
20
0.983012
11
0.426066
21
0.989434
0
LINE
8
BLACK
6
CONTINUOUS
10
0.426066
20
0.989434
11
0.423438
21
0.996531
0
LINE
8
BLACK
6
CONTINUOUS
10
0.423438
20
0.996531
11
0.422292
21
1.00401
0
LINE
8
BLACK
6
CONTINUOUS
10
0.422292
20
1.00401
11
0.422675
21
1.01157
0
LINE
8
BLACK
6
CONTINUOUS
10
0.422675
20
1.01157
11
0.424572
21
1.0189
0
LINE
8
BLACK
6
CONTINUOUS
10
0.424572
20
1.0189
11
0.427905
21
1.02569
0
LINE
8
BLACK
6
CONTINUOUS
10
0.427905
20
1.02569
11
0.432537
21
1.03167
0
LINE
8
BLACK
6
CONTINUOUS
10
0.432537
20
1.03167
11
0.438279
21
1.0366
0
LINE
8
BLACK
6
CONTINUOUS
10
0.438279
20
1.0366
11
0.444896
21
1.04028
0
LINE
8
BLACK
6
CONTINUOUS
10
0.444896
20
1.04028
11
0.452117
21
1.04254
0
LINE
8
BLACK
6
CONTINUOUS
10
0.452117
20
1.04254
11
0.459646
21
1.04331
0
LINE
8
BLACK
6
CONTINUOUS
10
0.459646
20
1.04331
11
0.518701
21
1.04331
0
LINE
8
BLACK
6
CONTINUOUS
10
0.518701
20
1.04331
11
0.522485
21
1.04312
0
LINE
8
BLACK
6
CONTINUOUS
10
0.551242
20
1.23956
11
0.553796
21
1.23785
0
LINE
8
BLACK
6
CONTINUOUS
10
0.553796
20
1.23785
11
0.555503
21
1.2353
0
LINE
8
BLACK
6
CONTINUOUS
10
0.555503
20
1.2353
11
0.556102
21
1.23228
0
LINE
8
BLACK
6
CONTINUOUS
10
0.556102
20
1.23228
11
0.556102
21
1.17323
0
LINE
8
BLACK
6
CONTINUOUS
10
0.556102
20
1.17323
11
0.555503
21
1.17022
0
LINE
8
BLACK
6
CONTINUOUS
10
0.555503
20
1.17022
11
0.553796
21
1.16766
0
LINE
8
BLACK
6
CONTINUOUS
10
0.553796
20
1.16766
11
0.551242
21
1.16595
0
LINE
8
BLACK
6
CONTINUOUS
10
0.551242
20
1.16595
11
0.548228
21
1.16535
0
LINE
8
BLACK
6
CONTINUOUS
10
0.548228
20
1.16535
11
0.430118
21
1.16535
0
LINE
8
BLACK
6
CONTINUOUS
10
0.430118
20
1.16535
11
0.427105
21
1.16595
0
LINE
8
BLACK
6
CONTINUOUS
10
0.427105
20
1.16595
11
0.42455
21
1.16766
0
LINE
8
BLACK
6
CONTINUOUS
10
0.42455
20
1.16766
11
0.422843
21
1.17022
0
LINE
8
BLACK
6
CONTINUOUS
10
0.422843
20
1.17022
11
0.422244
21
1.17323
0
LINE
8
BLACK
6
CONTINUOUS
10
0.422244
20
1.17323
11
0.422244
21
1.23228
0
LINE
8
BLACK
6
CONTINUOUS
10
0.422244
20
1.23228
11
0.422843
21
1.2353
0
LINE
8
BLACK
6
CONTINUOUS
10
0.422843
20
1.2353
11
0.42455
21
1.23785
0
LINE
8
BLACK
6
CONTINUOUS
10
0.42455
20
1.23785
11
0.427105
21
1.23956
0
LINE
8
BLACK
6
CONTINUOUS
10
0.427105
20
1.23956
11
0.430118
21
1.24016
0
LINE
8
BLACK
6
CONTINUOUS
10
0.430118
20
1.24016
11
0.548228
21
1.24016
0
LINE
8
BLACK
6
CONTINUOUS
10
0.548228
20
1.24016
11
0.551242
21
1.23956
0
LINE
8
BLACK
6
CONTINUOUS
10
1.47545
20
1.45806
11
1.47801
21
1.45636
0
LINE
8
BLACK
6
CONTINUOUS
10
1.47801
20
1.45636
11
1.47972
21
1.4538
0
LINE
8
BLACK
6
CONTINUOUS
10
1.47972
20
1.4538
11
1.48031
21
1.45079
0
LINE
8
BLACK
6
CONTINUOUS
10
1.48031
20
1.45079
11
1.48031
21
1.33268
0
LINE
8
BLACK
6
CONTINUOUS
10
1.48031
20
1.33268
11
1.47972
21
1.32966
0
LINE
8
BLACK
6
CONTINUOUS
10
1.47972
20
1.32966
11
1.47801
21
1.32711
0
LINE
8
BLACK
6
CONTINUOUS
10
1.47801
20
1.32711
11
1.47545
21
1.3254
0
LINE
8
BLACK
6
CONTINUOUS
10
1.47545
20
1.3254
11
1.47244
21
1.3248
0
LINE
8
BLACK
6
CONTINUOUS
10
1.47244
20
1.3248
11
1.41339
21
1.3248
0
LINE
8
BLACK
6
CONTINUOUS
10
1.41339
20
1.3248
11
1.41037
21
1.3254
0
LINE
8
BLACK
6
CONTINUOUS
10
1.41037
20
1.3254
11
1.40782
21
1.32711
0
LINE
8
BLACK
6
CONTINUOUS
10
1.40782
20
1.32711
11
1.40611
21
1.32966
0
LINE
8
BLACK
6
CONTINUOUS
10
1.40611
20
1.32966
11
1.40551
21
1.33268
0
LINE
8
BLACK
6
CONTINUOUS
10
1.40551
20
1.33268
11
1.40551
21
1.45079
0
LINE
8
BLACK
6
CONTINUOUS
10
1.40551
20
1.45079
11
1.40611
21
1.4538
0
LINE
8
BLACK
6
CONTINUOUS
10
1.40611
20
1.4538
11
1.40782
21
1.45636
0
LINE
8
BLACK
6
CONTINUOUS
10
1.40782
20
1.45636
11
1.41037
21
1.45806
0
LINE
8
BLACK
6
CONTINUOUS
10
1.41037
20
1.45806
11
1.41339
21
1.45866
0
LINE
8
BLACK
6
CONTINUOUS
10
1.41339
20
1.45866
11
1.47244
21
1.45866
0
LINE
8
BLACK
6
CONTINUOUS
10
1.47244
20
1.45866
11
1.47545
21
1.45806
0
LINE
8
BLACK
6
CONTINUOUS
10
1.25173
20
1.45823
11
1.25905
21
1.45633
0
LINE
8
BLACK
6
CONTINUOUS
10
1.25905
20
1.45633
11
1.26585
21
1.453
0
LINE
8
BLACK
6
CONTINUOUS
10
1.26585
20
1.453
11
1.27183
21
1.44837
0
LINE
8
BLACK
6
CONTINUOUS
10
1.27183
20
1.44837
11
1.27676
21
1.44263
0
LINE
8
BLACK
6
CONTINUOUS
10
1.27676
20
1.44263
11
1.28043
21
1.43601
0
LINE
8
BLACK
6
CONTINUOUS
10
1.28043
20
1.43601
11
1.2827
21
1.42879
0
LINE
8
BLACK
6
CONTINUOUS
10
1.2827
20
1.42879
11
1.28346
21
1.42126
0
LINE
8
BLACK
6
CONTINUOUS
10
1.28346
20
1.42126
11
1.28346
21
1.3622
0
LINE
8
BLACK
6
CONTINUOUS
10
1.28346
20
1.3622
11
1.28327
21
1.35842
0
LINE
8
BLACK
6
CONTINUOUS
10
1.28327
20
1.35842
11
1.28175
21
1.35101
0
LINE
8
BLACK
6
CONTINUOUS
10
1.28175
20
1.35101
11
1.27876
21
1.34405
0
LINE
8
BLACK
6
CONTINUOUS
10
1.27876
20
1.34405
11
1.27444
21
1.33784
0
LINE
8
BLACK
6
CONTINUOUS
10
1.27444
20
1.33784
11
1.26896
21
1.33263
0
LINE
8
BLACK
6
CONTINUOUS
10
1.26896
20
1.33263
11
1.26253
21
1.32863
0
LINE
8
BLACK
6
CONTINUOUS
10
1.26253
20
1.32863
11
1.25544
21
1.326
0
LINE
8
BLACK
6
CONTINUOUS
10
1.25544
20
1.326
11
1.24796
21
1.32485
0
LINE
8
BLACK
6
CONTINUOUS
10
1.24796
20
1.32485
11
1.2404
21
1.32523
0
LINE
8
BLACK
6
CONTINUOUS
10
1.2404
20
1.32523
11
1.23307
21
1.32713
0
LINE
8
BLACK
6
CONTINUOUS
10
1.23307
20
1.32713
11
1.22628
21
1.33046
0
LINE
8
BLACK
6
CONTINUOUS
10
1.22628
20
1.33046
11
1.22029
21
1.3351
0
LINE
8
BLACK
6
CONTINUOUS
10
1.22029
20
1.3351
11
1.21537
21
1.34084
0
LINE
8
BLACK
6
CONTINUOUS
10
1.21537
20
1.34084
11
1.21169
21
1.34746
0
LINE
8
BLACK
6
CONTINUOUS
10
1.21169
20
1.34746
11
1.20943
21
1.35468
0
LINE
8
BLACK
6
CONTINUOUS
10
1.20943
20
1.35468
11
1.20866
21
1.3622
0
LINE
8
BLACK
6
CONTINUOUS
10
1.20866
20
1.3622
11
1.20866
21
1.42126
0
LINE
8
BLACK
6
CONTINUOUS
10
1.20866
20
1.42126
11
1.20885
21
1.42504
0
LINE
8
BLACK
6
CONTINUOUS
10
1.20885
20
1.42504
11
1.21038
21
1.43246
0
LINE
8
BLACK
6
CONTINUOUS
10
1.21038
20
1.43246
11
1.21336
21
1.43941
0
LINE
8
BLACK
6
CONTINUOUS
10
1.21336
20
1.43941
11
1.21768
21
1.44562
0
LINE
8
BLACK
6
CONTINUOUS
10
1.21768
20
1.44562
11
1.22317
21
1.45084
0
LINE
8
BLACK
6
CONTINUOUS
10
1.22317
20
1.45084
11
1.22959
21
1.45484
0
LINE
8
BLACK
6
CONTINUOUS
10
1.22959
20
1.45484
11
1.23669
21
1.45747
0
LINE
8
BLACK
6
CONTINUOUS
10
1.23669
20
1.45747
11
1.24417
21
1.45861
0
LINE
8
BLACK
6
CONTINUOUS
10
1.24417
20
1.45861
11
1.25173
21
1.45823
0
LINE
8
BLACK
6
CONTINUOUS
10
0.828289
20
1.43727
11
0.830843
21
1.43557
0
LINE
8
BLACK
6
CONTINUOUS
10
0.830843
20
1.43557
11
0.83255
21
1.43301
0
LINE
8
BLACK
6
CONTINUOUS
10
0.83255
20
1.43301
11
0.83315
21
1.43
0
LINE
8
BLACK
6
CONTINUOUS
10
0.83315
20
1.43
11
0.83315
21
1.37
0
LINE
8
BLACK
6
CONTINUOUS
10
0.83315
20
1.37
11
0.83255
21
1.36699
0
LINE
8
BLACK
6
CONTINUOUS
10
0.83255
20
1.36699
11
0.830843
21
1.36443
0
LINE
8
BLACK
6
CONTINUOUS
10
0.830843
20
1.36443
11
0.828289
21
1.36273
0
LINE
8
BLACK
6
CONTINUOUS
10
0.828289
20
1.36273
11
0.825276
21
1.36213
0
LINE
8
BLACK
6
CONTINUOUS
10
0.825276
20
1.36213
11
0.765276
21
1.36213
0
LINE
8
BLACK
6
CONTINUOUS
10
0.765276
20
1.36213
11
0.762262
21
1.36273
0
LINE
8
BLACK
6
CONTINUOUS
10
0.762262
20
1.36273
11
0.759708
21
1.36443
0
LINE
8
BLACK
6
CONTINUOUS
10
0.759708
20
1.36443
11
0.758001
21
1.36699
0
LINE
8
BLACK
6
CONTINUOUS
10
0.758001
20
1.36699
11
0.757402
21
1.37
0
LINE
8
BLACK
6
CONTINUOUS
10
0.757402
20
1.37
11
0.757402
21
1.43
0
LINE
8
BLACK
6
CONTINUOUS
10
0.757402
20
1.43
11
0.758001
21
1.43301
0
LINE
8
BLACK
6
CONTINUOUS
10
0.758001
20
1.43301
11
0.759708
21
1.43557
0
LINE
8
BLACK
6
CONTINUOUS
10
0.759708
20
1.43557
11
0.762262
21
1.43727
0
LINE
8
BLACK
6
CONTINUOUS
10
0.762262
20
1.43727
11
0.765276
21
1.43787
0
LINE
8
BLACK
6
CONTINUOUS
10
0.765276
20
1.43787
11
0.825276
21
1.43787
0
LINE
8
BLACK
6
CONTINUOUS
10
0.825276
20
1.43787
11
0.828289
21
1.43727
0
LINE
8
BLACK
6
CONTINUOUS
10
0.928289
20
1.43727
11
0.930843
21
1.43557
0
LINE
8
BLACK
6
CONTINUOUS
10
0.930843
20
1.43557
11
0.93255
21
1.43301
0
LINE
8
BLACK
6
CONTINUOUS
10
0.93255
20
1.43301
11
0.93315
21
1.43
0
LINE
8
BLACK
6
CONTINUOUS
10
0.93315
20
1.43
11
0.93315
21
1.37
0
LINE
8
BLACK
6
CONTINUOUS
10
0.93315
20
1.37
11
0.93255
21
1.36699
0
LINE
8
BLACK
6
CONTINUOUS
10
0.93255
20
1.36699
11
0.930843
21
1.36443
0
LINE
8
BLACK
6
CONTINUOUS
10
0.930843
20
1.36443
11
0.928289
21
1.36273
0
LINE
8
BLACK
6
CONTINUOUS
10
0.928289
20
1.36273
11
0.925276
21
1.36213
0
LINE
8
BLACK
6
CONTINUOUS
10
0.925276
20
1.36213
11
0.865276
21
1.36213
0
LINE
8
BLACK
6
CONTINUOUS
10
0.865276
20
1.36213
11
0.862262
21
1.36273
0
LINE
8
BLACK
6
CONTINUOUS
10
0.862262
20
1.36273
11
0.859708
21
1.36443
0
LINE
8
BLACK
6
CONTINUOUS
10
0.859708
20
1.36443
11
0.858001
21
1.36699
0
LINE
8
BLACK
6
CONTINUOUS
10
0.858001
20
1.36699
11
0.857402
21
1.37
0
LINE
8
BLACK
6
CONTINUOUS
10
0.857402
20
1.37
11
0.857402
21
1.43
0
LINE
8
BLACK
6
CONTINUOUS
10
0.857402
20
1.43
11
0.858001
21
1.43301
0
LINE
8
BLACK
6
CONTINUOUS
10
0.858001
20
1.43301
11
0.859708
21
1.43557
0
LINE
8
BLACK
6
CONTINUOUS
10
0.859708
20
1.43557
11
0.862262
21
1.43727
0
LINE
8
BLACK
6
CONTINUOUS
10
0.862262
20
1.43727
11
0.865276
21
1.43787
0
LINE
8
BLACK
6
CONTINUOUS
10
0.865276
20
1.43787
11
0.925276
21
1.43787
0
LINE
8
BLACK
6
CONTINUOUS
10
0.925276
20
1.43787
11
0.928289
21
1.43727
0
LINE
8
BLACK
6
CONTINUOUS
10
0.828289
20
1.53727
11
0.830843
21
1.53557
0
LINE
8
BLACK
6
CONTINUOUS
10
0.830843
20
1.53557
11
0.83255
21
1.53301
0
LINE
8
BLACK
6
CONTINUOUS
10
0.83255
20
1.53301
11
0.83315
21
1.53
0
LINE
8
BLACK
6
CONTINUOUS
10
0.83315
20
1.53
11
0.83315
21
1.47
0
LINE
8
BLACK
6
CONTINUOUS
10
0.83315
20
1.47
11
0.83255
21
1.46699
0
LINE
8
BLACK
6
CONTINUOUS
10
0.83255
20
1.46699
11
0.830843
21
1.46443
0
LINE
8
BLACK
6
CONTINUOUS
10
0.830843
20
1.46443
11
0.828289
21
1.46273
0
LINE
8
BLACK
6
CONTINUOUS
10
0.828289
20
1.46273
11
0.825276
21
1.46213
0
LINE
8
BLACK
6
CONTINUOUS
10
0.825276
20
1.46213
11
0.765276
21
1.46213
0
LINE
8
BLACK
6
CONTINUOUS
10
0.765276
20
1.46213
11
0.762262
21
1.46273
0
LINE
8
BLACK
6
CONTINUOUS
10
0.762262
20
1.46273
11
0.759708
21
1.46443
0
LINE
8
BLACK
6
CONTINUOUS
10
0.759708
20
1.46443
11
0.758001
21
1.46699
0
LINE
8
BLACK
6
CONTINUOUS
10
0.758001
20
1.46699
11
0.757402
21
1.47
0
LINE
8
BLACK
6
CONTINUOUS
10
0.757402
20
1.47
11
0.757402
21
1.53
0
LINE
8
BLACK
6
CONTINUOUS
10
0.757402
20
1.53
11
0.758001
21
1.53301
0
LINE
8
BLACK
6
CONTINUOUS
10
0.758001
20
1.53301
11
0.759708
21
1.53557
0
LINE
8
BLACK
6
CONTINUOUS
10
0.759708
20
1.53557
11
0.762262
21
1.53727
0
LINE
8
BLACK
6
CONTINUOUS
10
0.762262
20
1.53727
11
0.765276
21
1.53787
0
LINE
8
BLACK
6
CONTINUOUS
10
0.765276
20
1.53787
11
0.825276
21
1.53787
0
LINE
8
BLACK
6
CONTINUOUS
10
0.825276
20
1.53787
11
0.828289
21
1.53727
0
LINE
8
BLACK
6
CONTINUOUS
10
0.928289
20
1.53727
11
0.930843
21
1.53557
0
LINE
8
BLACK
6
CONTINUOUS
10
0.930843
20
1.53557
11
0.93255
21
1.53301
0
LINE
8
BLACK
6
CONTINUOUS
10
0.93255
20
1.53301
11
0.93315
21
1.53
0
LINE
8
BLACK
6
CONTINUOUS
10
0.93315
20
1.53
11
0.93315
21
1.47
0
LINE
8
BLACK
6
CONTINUOUS
10
0.93315
20
1.47
11
0.93255
21
1.46699
0
LINE
8
BLACK
6
CONTINUOUS
10
0.93255
20
1.46699
11
0.930843
21
1.46443
0
LINE
8
BLACK
6
CONTINUOUS
10
0.930843
20
1.46443
11
0.928289
21
1.46273
0
LINE
8
BLACK
6
CONTINUOUS
10
0.928289
20
1.46273
11
0.925276
21
1.46213
0
LINE
8
BLACK
6
CONTINUOUS
10
0.925276
20
1.46213
11
0.865276
21
1.46213
0
LINE
8
BLACK
6
CONTINUOUS
10
0.865276
20
1.46213
11
0.862262
21
1.46273
0
LINE
8
BLACK
6
CONTINUOUS
10
0.862262
20
1.46273
11
0.859708
21
1.46443
0
LINE
8
BLACK
6
CONTINUOUS
10
0.859708
20
1.46443
11
0.858001
21
1.46699
0
LINE
8
BLACK
6
CONTINUOUS
10
0.858001
20
1.46699
11
0.857402
21
1.47
0
LINE
8
BLACK
6
CONTINUOUS
10
0.857402
20
1.47
11
0.857402
21
1.53
0
LINE
8
BLACK
6
CONTINUOUS
10
0.857402
20
1.53
11
0.858001
21
1.53301
0
LINE
8
BLACK
6
CONTINUOUS
10
0.858001
20
1.53301
11
0.859708
21
1.53557
0
LINE
8
BLACK
6
CONTINUOUS
10
0.859708
20
1.53557
11
0.862262
21
1.53727
0
LINE
8
BLACK
6
CONTINUOUS
10
0.862262
20
1.53727
11
0.865276
21
1.53787
0
LINE
8
BLACK
6
CONTINUOUS
10
0.865276
20
1.53787
11
0.925276
21
1.53787
0
LINE
8
BLACK
6
CONTINUOUS
10
0.925276
20
1.53787
11
0.928289
21
1.53727
0
LINE
8
BLACK
6
CONTINUOUS
10
0.305444
20
1.72519
11
0.319373
21
1.72283
0
LINE
8
BLACK
6
CONTINUOUS
10
0.319373
20
1.72283
11
0.332949
21
1.71891
0
LINE
8
BLACK
6
CONTINUOUS
10
0.332949
20
1.71891
11
0.346001
21
1.71351
0
LINE
8
BLACK
6
CONTINUOUS
10
0.346001
20
1.71351
11
0.358366
21
1.70667
0
LINE
8
BLACK
6
CONTINUOUS
10
0.358366
20
1.70667
11
0.369888
21
1.6985
0
LINE
8
BLACK
6
CONTINUOUS
10
0.369888
20
1.6985
11
0.380423
21
1.68908
0
LINE
8
BLACK
6
CONTINUOUS
10
0.380423
20
1.68908
11
0.389837
21
1.67855
0
LINE
8
BLACK
6
CONTINUOUS
10
0.389837
20
1.67855
11
0.398012
21
1.66703
0
LINE
8
BLACK
6
CONTINUOUS
10
0.398012
20
1.66703
11
0.404846
21
1.65466
0
LINE
8
BLACK
6
CONTINUOUS
10
0.404846
20
1.65466
11
0.410253
21
1.64161
0
LINE
8
BLACK
6
CONTINUOUS
10
0.410253
20
1.64161
11
0.414164
21
1.62803
0
LINE
8
BLACK
6
CONTINUOUS
10
0.414164
20
1.62803
11
0.416531
21
1.61411
0
LINE
8
BLACK
6
CONTINUOUS
10
0.416531
20
1.61411
11
0.417323
21
1.6
0
LINE
8
BLACK
6
CONTINUOUS
10
0.417323
20
1.6
11
0.416531
21
1.58589
0
LINE
8
BLACK
6
CONTINUOUS
10
0.416531
20
1.58589
11
0.414164
21
1.57197
0
LINE
8
BLACK
6
CONTINUOUS
10
0.414164
20
1.57197
11
0.410253
21
1.55839
0
LINE
8
BLACK
6
CONTINUOUS
10
0.410253
20
1.55839
11
0.404846
21
1.54534
0
LINE
8
BLACK
6
CONTINUOUS
10
0.404846
20
1.54534
11
0.398012
21
1.53297
0
LINE
8
BLACK
6
CONTINUOUS
10
0.398012
20
1.53297
11
0.389837
21
1.52145
0
LINE
8
BLACK
6
CONTINUOUS
10
0.389837
20
1.52145
11
0.380423
21
1.51092
0
LINE
8
BLACK
6
CONTINUOUS
10
0.380423
20
1.51092
11
0.369888
21
1.5015
0
LINE
8
BLACK
6
CONTINUOUS
10
0.369888
20
1.5015
11
0.358366
21
1.49333
0
LINE
8
BLACK
6
CONTINUOUS
10
0.358366
20
1.49333
11
0.346001
21
1.48649
0
LINE
8
BLACK
6
CONTINUOUS
10
0.346001
20
1.48649
11
0.332949
21
1.48109
0
LINE
8
BLACK
6
CONTINUOUS
10
0.332949
20
1.48109
11
0.319373
21
1.47717
0
LINE
8
BLACK
6
CONTINUOUS
10
0.319373
20
1.47717
11
0.305444
21
1.47481
0
LINE
8
BLACK
6
CONTINUOUS
10
0.305444
20
1.47481
11
0.291339
21
1.47402
0
LINE
8
BLACK
6
CONTINUOUS
10
0.291339
20
1.47402
11
0.277233
21
1.47481
0
LINE
8
BLACK
6
CONTINUOUS
10
0.277233
20
1.47481
11
0.263304
21
1.47717
0
LINE
8
BLACK
6
CONTINUOUS
10
0.263304
20
1.47717
11
0.249729
21
1.48109
0
LINE
8
BLACK
6
CONTINUOUS
10
0.249729
20
1.48109
11
0.236676
21
1.48649
0
LINE
8
BLACK
6
CONTINUOUS
10
0.236676
20
1.48649
11
0.224311
21
1.49333
0
LINE
8
BLACK
6
CONTINUOUS
10
0.224311
20
1.49333
11
0.212789
21
1.5015
0
LINE
8
BLACK
6
CONTINUOUS
10
0.212789
20
1.5015
11
0.202254
21
1.51092
0
LINE
8
BLACK
6
CONTINUOUS
10
0.202254
20
1.51092
11
0.19284
21
1.52145
0
LINE
8
BLACK
6
CONTINUOUS
10
0.19284
20
1.52145
11
0.184665
21
1.53297
0
LINE
8
BLACK
6
CONTINUOUS
10
0.184665
20
1.53297
11
0.177831
21
1.54534
0
LINE
8
BLACK
6
CONTINUOUS
10
0.177831
20
1.54534
11
0.172424
21
1.55839
0
LINE
8
BLACK
6
CONTINUOUS
10
0.172424
20
1.55839
11
0.168513
21
1.57197
0
LINE
8
BLACK
6
CONTINUOUS
10
0.168513
20
1.57197
11
0.166146
21
1.58589
0
LINE
8
BLACK
6
CONTINUOUS
10
0.166146
20
1.58589
11
0.165354
21
1.6
0
LINE
8
BLACK
6
CONTINUOUS
10
0.165354
20
1.6
11
0.166146
21
1.61411
0
LINE
8
BLACK
6
CONTINUOUS
10
0.166146
20
1.61411
11
0.168513
21
1.62803
0
LINE
8
BLACK
6
CONTINUOUS
10
0.168513
20
1.62803
11
0.172424
21
1.64161
0
LINE
8
BLACK
6
CONTINUOUS
10
0.172424
20
1.64161
11
0.177831
21
1.65466
0
LINE
8
BLACK
6
CONTINUOUS
10
0.177831
20
1.65466
11
0.184665
21
1.66703
0
LINE
8
BLACK
6
CONTINUOUS
10
0.184665
20
1.66703
11
0.19284
21
1.67855
0
LINE
8
BLACK
6
CONTINUOUS
10
0.19284
20
1.67855
11
0.202254
21
1.68908
0
LINE
8
BLACK
6
CONTINUOUS
10
0.202254
20
1.68908
11
0.212789
21
1.6985
0
LINE
8
BLACK
6
CONTINUOUS
10
0.212789
20
1.6985
11
0.224311
21
1.70667
0
LINE
8
BLACK
6
CONTINUOUS
10
0.224311
20
1.70667
11
0.236676
21
1.71351
0
LINE
8
BLACK
6
CONTINUOUS
10
0.236676
20
1.71351
11
0.249729
21
1.71891
0
LINE
8
BLACK
6
CONTINUOUS
10
0.249729
20
1.71891
11
0.263304
21
1.72283
0
LINE
8
BLACK
6
CONTINUOUS
10
0.263304
20
1.72283
11
0.277233
21
1.72519
0
LINE
8
BLACK
6
CONTINUOUS
10
0.277233
20
1.72519
11
0.291339
21
1.72598
0
LINE
8
BLACK
6
CONTINUOUS
10
0.291339
20
1.72598
11
0.305444
21
1.72519
0
LINE
8
BLACK
6
CONTINUOUS
10
1.90544
20
1.72519
11
1.91937
21
1.72283
0
LINE
8
BLACK
6
CONTINUOUS
10
1.91937
20
1.72283
11
1.93295
21
1.71891
0
LINE
8
BLACK
6
CONTINUOUS
10
1.93295
20
1.71891
11
1.946
21
1.71351
0
LINE
8
BLACK
6
CONTINUOUS
10
1.946
20
1.71351
11
1.95837
21
1.70667
0
LINE
8
BLACK
6
CONTINUOUS
10
1.95837
20
1.70667
11
1.96989
21
1.6985
0
LINE
8
BLACK
6
CONTINUOUS
10
1.96989
20
1.6985
11
1.98042
21
1.68908
0
LINE
8
BLACK
6
CONTINUOUS
10
1.98042
20
1.68908
11
1.98984
21
1.67855
0
LINE
8
BLACK
6
CONTINUOUS
10
1.98984
20
1.67855
11
1.99801
21
1.66703
0
LINE
8
BLACK
6
CONTINUOUS
10
1.99801
20
1.66703
11
2.00485
21
1.65466
0
LINE
8
BLACK
6
CONTINUOUS
10
2.00485
20
1.65466
11
2.01025
21
1.64161
0
LINE
8
BLACK
6
CONTINUOUS
10
2.01025
20
1.64161
11
2.01416
21
1.62803
0
LINE
8
BLACK
6
CONTINUOUS
10
2.01416
20
1.62803
11
2.01653
21
1.61411
0
LINE
8
BLACK
6
CONTINUOUS
10
2.01653
20
1.61411
11
2.01732
21
1.6
0
LINE
8
BLACK
6
CONTINUOUS
10
2.01732
20
1.6
11
2.01653
21
1.58589
0
LINE
8
BLACK
6
CONTINUOUS
10
2.01653
20
1.58589
11
2.01416
21
1.57197
0
LINE
8
BLACK
6
CONTINUOUS
10
2.01416
20
1.57197
11
2.01025
21
1.55839
0
LINE
8
BLACK
6
CONTINUOUS
10
2.01025
20
1.55839
11
2.00485
21
1.54534
0
LINE
8
BLACK
6
CONTINUOUS
10
2.00485
20
1.54534
11
1.99801
21
1.53297
0
LINE
8
BLACK
6
CONTINUOUS
10
1.99801
20
1.53297
11
1.98984
21
1.52145
0
LINE
8
BLACK
6
CONTINUOUS
10
1.98984
20
1.52145
11
1.98042
21
1.51092
0
LINE
8
BLACK
6
CONTINUOUS
10
1.98042
20
1.51092
11
1.96989
21
1.5015
0
LINE
8
BLACK
6
CONTINUOUS
10
1.96989
20
1.5015
11
1.95837
21
1.49333
0
LINE
8
BLACK
6
CONTINUOUS
10
1.95837
20
1.49333
11
1.946
21
1.48649
0
LINE
8
BLACK
6
CONTINUOUS
10
1.946
20
1.48649
11
1.93295
21
1.48109
0
LINE
8
BLACK
6
CONTINUOUS
10
1.93295
20
1.48109
11
1.91937
21
1.47717
0
LINE
8
BLACK
6
CONTINUOUS
10
1.91937
20
1.47717
11
1.90544
21
1.47481
0
LINE
8
BLACK
6
CONTINUOUS
10
1.90544
20
1.47481
11
1.89134
21
1.47402
0
LINE
8
BLACK
6
CONTINUOUS
10
1.89134
20
1.47402
11
1.87723
21
1.47481
0
LINE
8
BLACK
6
CONTINUOUS
10
1.87723
20
1.47481
11
1.8633
21
1.47717
0
LINE
8
BLACK
6
CONTINUOUS
10
1.8633
20
1.47717
11
1.84973
21
1.48109
0
LINE
8
BLACK
6
CONTINUOUS
10
1.84973
20
1.48109
11
1.83668
21
1.48649
0
LINE
8
BLACK
6
CONTINUOUS
10
1.83668
20
1.48649
11
1.82431
21
1.49333
0
LINE
8
BLACK
6
CONTINUOUS
10
1.82431
20
1.49333
11
1.81279
21
1.5015
0
LINE
8
BLACK
6
CONTINUOUS
10
1.81279
20
1.5015
11
1.80225
21
1.51092
0
LINE
8
BLACK
6
CONTINUOUS
10
1.80225
20
1.51092
11
1.79284
21
1.52145
0
LINE
8
BLACK
6
CONTINUOUS
10
1.79284
20
1.52145
11
1.78466
21
1.53297
0
LINE
8
BLACK
6
CONTINUOUS
10
1.78466
20
1.53297
11
1.77783
21
1.54534
0
LINE
8
BLACK
6
CONTINUOUS
10
1.77783
20
1.54534
11
1.77242
21
1.55839
0
LINE
8
BLACK
6
CONTINUOUS
10
1.77242
20
1.55839
11
1.76851
21
1.57197
0
LINE
8
BLACK
6
CONTINUOUS
10
1.76851
20
1.57197
11
1.76615
21
1.58589
0
LINE
8
BLACK
6
CONTINUOUS
10
1.76615
20
1.58589
11
1.76535
21
1.6
0
LINE
8
BLACK
6
CONTINUOUS
10
1.76535
20
1.6
11
1.76615
21
1.61411
0
LINE
8
BLACK
6
CONTINUOUS
10
1.76615
20
1.61411
11
1.76851
21
1.62803
0
LINE
8
BLACK
6
CONTINUOUS
10
1.76851
20
1.62803
11
1.77242
21
1.64161
0
LINE
8
BLACK
6
CONTINUOUS
10
1.77242
20
1.64161
11
1.77783
21
1.65466
0
LINE
8
BLACK
6
CONTINUOUS
10
1.77783
20
1.65466
11
1.78466
21
1.66703
0
LINE
8
BLACK
6
CONTINUOUS
10
1.78466
20
1.66703
11
1.79284
21
1.67855
0
LINE
8
BLACK
6
CONTINUOUS
10
1.79284
20
1.67855
11
1.80225
21
1.68908
0
LINE
8
BLACK
6
CONTINUOUS
10
1.80225
20
1.68908
11
1.81279
21
1.6985
0
LINE
8
BLACK
6
CONTINUOUS
10
1.81279
20
1.6985
11
1.82431
21
1.70667
0
LINE
8
BLACK
6
CONTINUOUS
10
1.82431
20
1.70667
11
1.83668
21
1.71351
0
LINE
8
BLACK
6
CONTINUOUS
10
1.83668
20
1.71351
11
1.84973
21
1.71891
0
LINE
8
BLACK
6
CONTINUOUS
10
1.84973
20
1.71891
11
1.8633
21
1.72283
0
LINE
8
BLACK
6
CONTINUOUS
10
1.8633
20
1.72283
11
1.87723
21
1.72519
0
LINE
8
BLACK
6
CONTINUOUS
10
1.87723
20
1.72519
11
1.89134
21
1.72598
0
LINE
8
BLACK
6
CONTINUOUS
10
1.89134
20
1.72598
11
1.90544
21
1.72519
0
LINE
8
BLACK
6
CONTINUOUS
10
0.828289
20
1.63727
11
0.830843
21
1.63557
0
LINE
8
BLACK
6
CONTINUOUS
10
0.830843
20
1.63557
11
0.83255
21
1.63301
0
LINE
8
BLACK
6
CONTINUOUS
10
0.83255
20
1.63301
11
0.83315
21
1.63
0
LINE
8
BLACK
6
CONTINUOUS
10
0.83315
20
1.63
11
0.83315
21
1.57
0
LINE
8
BLACK
6
CONTINUOUS
10
0.83315
20
1.57
11
0.83255
21
1.56699
0
LINE
8
BLACK
6
CONTINUOUS
10
0.83255
20
1.56699
11
0.830843
21
1.56443
0
LINE
8
BLACK
6
CONTINUOUS
10
0.830843
20
1.56443
11
0.828289
21
1.56273
0
LINE
8
BLACK
6
CONTINUOUS
10
0.828289
20
1.56273
11
0.825276
21
1.56213
0
LINE
8
BLACK
6
CONTINUOUS
10
0.825276
20
1.56213
11
0.765276
21
1.56213
0
LINE
8
BLACK
6
CONTINUOUS
10
0.765276
20
1.56213
11
0.762262
21
1.56273
0
LINE
8
BLACK
6
CONTINUOUS
10
0.762262
20
1.56273
11
0.759708
21
1.56443
0
LINE
8
BLACK
6
CONTINUOUS
10
0.759708
20
1.56443
11
0.758001
21
1.56699
0
LINE
8
BLACK
6
CONTINUOUS
10
0.758001
20
1.56699
11
0.757402
21
1.57
0
LINE
8
BLACK
6
CONTINUOUS
10
0.757402
20
1.57
11
0.757402
21
1.63
0
LINE
8
BLACK
6
CONTINUOUS
10
0.757402
20
1.63
11
0.758001
21
1.63301
0
LINE
8
BLACK
6
CONTINUOUS
10
0.758001
20
1.63301
11
0.759708
21
1.63557
0
LINE
8
BLACK
6
CONTINUOUS
10
0.759708
20
1.63557
11
0.762262
21
1.63727
0
LINE
8
BLACK
6
CONTINUOUS
10
0.762262
20
1.63727
11
0.765276
21
1.63787
0
LINE
8
BLACK
6
CONTINUOUS
10
0.765276
20
1.63787
11
0.825276
21
1.63787
0
LINE
8
BLACK
6
CONTINUOUS
10
0.825276
20
1.63787
11
0.828289
21
1.63727
0
LINE
8
BLACK
6
CONTINUOUS
10
0.928289
20
1.63727
11
0.930843
21
1.63557
0
LINE
8
BLACK
6
CONTINUOUS
10
0.930843
20
1.63557
11
0.93255
21
1.63301
0
LINE
8
BLACK
6
CONTINUOUS
10
0.93255
20
1.63301
11
0.93315
21
1.63
0
LINE
8
BLACK
6
CONTINUOUS
10
0.93315
20
1.63
11
0.93315
21
1.57
0
LINE
8
BLACK
6
CONTINUOUS
10
0.93315
20
1.57
11
0.93255
21
1.56699
0
LINE
8
BLACK
6
CONTINUOUS
10
0.93255
20
1.56699
11
0.930843
21
1.56443
0
LINE
8
BLACK
6
CONTINUOUS
10
0.930843
20
1.56443
11
0.928289
21
1.56273
0
LINE
8
BLACK
6
CONTINUOUS
10
0.928289
20
1.56273
11
0.925276
21
1.56213
0
LINE
8
BLACK
6
CONTINUOUS
10
0.925276
20
1.56213
11
0.865276
21
1.56213
0
LINE
8
BLACK
6
CONTINUOUS
10
0.865276
20
1.56213
11
0.862262
21
1.56273
0
LINE
8
BLACK
6
CONTINUOUS
10
0.862262
20
1.56273
11
0.859708
21
1.56443
0
LINE
8
BLACK
6
CONTINUOUS
10
0.859708
20
1.56443
11
0.858001
21
1.56699
0
LINE
8
BLACK
6
CONTINUOUS
10
0.858001
20
1.56699
11
0.857402
21
1.57
0
LINE
8
BLACK
6
CONTINUOUS
10
0.857402
20
1.57
11
0.857402
21
1.63
0
LINE
8
BLACK
6
CONTINUOUS
10
0.857402
20
1.63
11
0.858001
21
1.63301
0
LINE
8
BLACK
6
CONTINUOUS
10
0.858001
20
1.63301
11
0.859708
21
1.63557
0
LINE
8
BLACK
6
CONTINUOUS
10
0.859708
20
1.63557
11
0.862262
21
1.63727
0
LINE
8
BLACK
6
CONTINUOUS
10
0.862262
20
1.63727
11
0.865276
21
1.63787
0
LINE
8
BLACK
6
CONTINUOUS
10
0.865276
20
1.63787
11
0.925276
21
1.63787
0
LINE
8
BLACK
6
CONTINUOUS
10
0.925276
20
1.63787
11
0.928289
21
1.63727
0
LINE
8
BLACK
6
CONTINUOUS
10
0.828289
20
1.73727
11
0.830843
21
1.73557
0
LINE
8
BLACK
6
CONTINUOUS
10
0.830843
20
1.73557
11
0.83255
21
1.73301
0
LINE
8
BLACK
6
CONTINUOUS
10
0.83255
20
1.73301
11
0.83315
21
1.73
0
LINE
8
BLACK
6
CONTINUOUS
10
0.83315
20
1.73
11
0.83315
21
1.67
0
LINE
8
BLACK
6
CONTINUOUS
10
0.83315
20
1.67
11
0.83255
21
1.66699
0
LINE
8
BLACK
6
CONTINUOUS
10
0.83255
20
1.66699
11
0.830843
21
1.66443
0
LINE
8
BLACK
6
CONTINUOUS
10
0.830843
20
1.66443
11
0.828289
21
1.66273
0
LINE
8
BLACK
6
CONTINUOUS
10
0.828289
20
1.66273
11
0.825276
21
1.66213
0
LINE
8
BLACK
6
CONTINUOUS
10
0.825276
20
1.66213
11
0.765276
21
1.66213
0
LINE
8
BLACK
6
CONTINUOUS
10
0.765276
20
1.66213
11
0.762262
21
1.66273
0
LINE
8
BLACK
6
CONTINUOUS
10
0.762262
20
1.66273
11
0.759708
21
1.66443
0
LINE
8
BLACK
6
CONTINUOUS
10
0.759708
20
1.66443
11
0.758001
21
1.66699
0
LINE
8
BLACK
6
CONTINUOUS
10
0.758001
20
1.66699
11
0.757402
21
1.67
0
LINE
8
BLACK
6
CONTINUOUS
10
0.757402
20
1.67
11
0.757402
21
1.73
0
LINE
8
BLACK
6
CONTINUOUS
10
0.757402
20
1.73
11
0.758001
21
1.73301
0
LINE
8
BLACK
6
CONTINUOUS
10
0.758001
20
1.73301
11
0.759708
21
1.73557
0
LINE
8
BLACK
6
CONTINUOUS
10
0.759708
20
1.73557
11
0.762262
21
1.73727
0
LINE
8
BLACK
6
CONTINUOUS
10
0.762262
20
1.73727
11
0.765276
21
1.73787
0
LINE
8
BLACK
6
CONTINUOUS
10
0.765276
20
1.73787
11
0.825276
21
1.73787
0
LINE
8
BLACK
6
CONTINUOUS
10
0.825276
20
1.73787
11
0.828289
21
1.73727
0
LINE
8
BLACK
6
CONTINUOUS
10
0.928289
20
1.73727
11
0.930843
21
1.73557
0
LINE
8
BLACK
6
CONTINUOUS
10
0.930843
20
1.73557
11
0.93255
21
1.73301
0
LINE
8
BLACK
6
CONTINUOUS
10
0.93255
20
1.73301
11
0.93315
21
1.73
0
LINE
8
BLACK
6
CONTINUOUS
10
0.93315
20
1.73
11
0.93315
21
1.67
0
LINE
8
BLACK
6
CONTINUOUS
10
0.93315
20
1.67
11
0.93255
21
1.66699
0
LINE
8
BLACK
6
CONTINUOUS
10
0.93255
20
1.66699
11
0.930843
21
1.66443
0
LINE
8
BLACK
6
CONTINUOUS
10
0.930843
20
1.66443
11
0.928289
21
1.66273
0
LINE
8
BLACK
6
CONTINUOUS
10
0.928289
20
1.66273
11
0.925276
21
1.66213
0
LINE
8
BLACK
6
CONTINUOUS
10
0.925276
20
1.66213
11
0.865276
21
1.66213
0
LINE
8
BLACK
6
CONTINUOUS
10
0.865276
20
1.66213
11
0.862262
21
1.66273
0
LINE
8
BLACK
6
CONTINUOUS
10
0.862262
20
1.66273
11
0.859708
21
1.66443
0
LINE
8
BLACK
6
CONTINUOUS
10
0.859708
20
1.66443
11
0.858001
21
1.66699
0
LINE
8
BLACK
6
CONTINUOUS
10
0.858001
20
1.66699
11
0.857402
21
1.67
0
LINE
8
BLACK
6
CONTINUOUS
10
0.857402
20
1.67
11
0.857402
21
1.73
0
LINE
8
BLACK
6
CONTINUOUS
10
0.857402
20
1.73
11
0.858001
21
1.73301
0
LINE
8
BLACK
6
CONTINUOUS
10
0.858001
20
1.73301
11
0.859708
21
1.73557
0
LINE
8
BLACK
6
CONTINUOUS
10
0.859708
20
1.73557
11
0.862262
21
1.73727
0
LINE
8
BLACK
6
CONTINUOUS
10
0.862262
20
1.73727
11
0.865276
21
1.73787
0
LINE
8
BLACK
6
CONTINUOUS
10
0.865276
20
1.73787
11
0.925276
21
1.73787
0
LINE
8
BLACK
6
CONTINUOUS
10
0.925276
20
1.73787
11
0.928289
21
1.73727
  0
ENDSEC
  0
EOF
