  0
SECTION
  2
HEADER
  9
$ANGBASE
  50
0.0
  9
$ANGDIR
  70
1
  9
$MEASUREMENT
  70
0
  0
ENDSEC
  0
SECTION
  2
TABLES
  0
TABLE
  2
LTYPE
  70
4
  0
LTYPE
  5
40F
  2
CONTINUOUS
  70
0
  3
Solid line
  72
65
  73
0
  40
0.0
  0
LTYPE
  5
410
  2
DASHDOT
 70
0
  3
Dash Dot ____ _ ____ _
 72
65
 73
4
 40
2.0
 49
1.25
 49
-0.25
 49
0.25
 49
-0.25
  0
LTYPE
  5
411
  2
DASHED
 70
0
  3
Dashed __ __ __ __ __
 72
65
 73
2
 40
0.75
 49
0.5
 49
-0.25
  0
LTYPE
  5
43B
  2
DOTTED
 70
0
  3
Dotted .  .  .  .
 72
65
 73
2
 40
0.2
 49
0.0
 49
-0.2
  0
ENDTAB
  0
TABLE
  2
STYLE
  70
4
  0
STYLE
  2
KICAD
  70
0
  40
0
  41
1
  42
1
  50
0
  71
0
  3
isocp.shx
  0
STYLE
  2
KICADB
  70
0
  40
0
  41
1
  42
1
  50
0
  71
0
  3
isocp.shx
  0
STYLE
  2
KICADI
  70
0
  40
0
  41
1
  42
1
  50
15
  71
0
  3
isocp.shx
  0
STYLE
  2
KICADBI
  70
0
  40
0
  41
1
  42
1
  50
15
  71
0
  3
isocp.shx
  0
ENDTAB
  0
TABLE
  2
LAYER
  70
1
  0
LAYER
  2
BLACK
  70
0
  62
7
  6
CONTINUOUS
  0
ENDTAB
  0
ENDSEC
  0
SECTION
  2
ENTITIES
0
LINE
8
BLACK
6
CONTINUOUS
10
0.42051
20
0.516316
11
0.433874
21
0.513148
0
LINE
8
BLACK
6
CONTINUOUS
10
0.433874
20
0.513148
11
0.446781
21
0.508451
0
LINE
8
BLACK
6
CONTINUOUS
10
0.446781
20
0.508451
11
0.459055
21
0.502286
0
LINE
8
BLACK
6
CONTINUOUS
10
0.459055
20
0.502286
11
0.470531
21
0.494739
0
LINE
8
BLACK
6
CONTINUOUS
10
0.470531
20
0.494739
11
0.481052
21
0.48591
0
LINE
8
BLACK
6
CONTINUOUS
10
0.481052
20
0.48591
11
0.490478
21
0.47592
0
LINE
8
BLACK
6
CONTINUOUS
10
0.490478
20
0.47592
11
0.49868
21
0.464903
0
LINE
8
BLACK
6
CONTINUOUS
10
0.49868
20
0.464903
11
0.505547
21
0.453008
0
LINE
8
BLACK
6
CONTINUOUS
10
0.505547
20
0.453008
11
0.510987
21
0.440396
0
LINE
8
BLACK
6
CONTINUOUS
10
0.510987
20
0.440396
11
0.514927
21
0.427238
0
LINE
8
BLACK
6
CONTINUOUS
10
0.514927
20
0.427238
11
0.517312
21
0.413712
0
LINE
8
BLACK
6
CONTINUOUS
10
0.517312
20
0.413712
11
0.51811
21
0.4
0
LINE
8
BLACK
6
CONTINUOUS
10
0.51811
20
0.4
11
0.517312
21
0.386288
0
LINE
8
BLACK
6
CONTINUOUS
10
0.517312
20
0.386288
11
0.514927
21
0.372762
0
LINE
8
BLACK
6
CONTINUOUS
10
0.514927
20
0.372762
11
0.510987
21
0.359604
0
LINE
8
BLACK
6
CONTINUOUS
10
0.510987
20
0.359604
11
0.505547
21
0.346992
0
LINE
8
BLACK
6
CONTINUOUS
10
0.505547
20
0.346992
11
0.49868
21
0.335097
0
LINE
8
BLACK
6
CONTINUOUS
10
0.49868
20
0.335097
11
0.490478
21
0.32408
0
LINE
8
BLACK
6
CONTINUOUS
10
0.490478
20
0.32408
11
0.481052
21
0.31409
0
LINE
8
BLACK
6
CONTINUOUS
10
0.481052
20
0.31409
11
0.470531
21
0.305261
0
LINE
8
BLACK
6
CONTINUOUS
10
0.470531
20
0.305261
11
0.459055
21
0.297714
0
LINE
8
BLACK
6
CONTINUOUS
10
0.459055
20
0.297714
11
0.446781
21
0.291549
0
LINE
8
BLACK
6
CONTINUOUS
10
0.446781
20
0.291549
11
0.433874
21
0.286852
0
LINE
8
BLACK
6
CONTINUOUS
10
0.433874
20
0.286852
11
0.42051
21
0.283684
0
LINE
8
BLACK
6
CONTINUOUS
10
0.42051
20
0.283684
11
0.406867
21
0.28209
0
LINE
8
BLACK
6
CONTINUOUS
10
0.406867
20
0.28209
11
0.393133
21
0.28209
0
LINE
8
BLACK
6
CONTINUOUS
10
0.393133
20
0.28209
11
0.37949
21
0.283684
0
LINE
8
BLACK
6
CONTINUOUS
10
0.37949
20
0.283684
11
0.366126
21
0.286852
0
LINE
8
BLACK
6
CONTINUOUS
10
0.366126
20
0.286852
11
0.353219
21
0.291549
0
LINE
8
BLACK
6
CONTINUOUS
10
0.353219
20
0.291549
11
0.340945
21
0.297714
0
LINE
8
BLACK
6
CONTINUOUS
10
0.340945
20
0.297714
11
0.329469
21
0.305261
0
LINE
8
BLACK
6
CONTINUOUS
10
0.329469
20
0.305261
11
0.318948
21
0.31409
0
LINE
8
BLACK
6
CONTINUOUS
10
0.318948
20
0.31409
11
0.309522
21
0.32408
0
LINE
8
BLACK
6
CONTINUOUS
10
0.309522
20
0.32408
11
0.30132
21
0.335097
0
LINE
8
BLACK
6
CONTINUOUS
10
0.30132
20
0.335097
11
0.294453
21
0.346992
0
LINE
8
BLACK
6
CONTINUOUS
10
0.294453
20
0.346992
11
0.289013
21
0.359604
0
LINE
8
BLACK
6
CONTINUOUS
10
0.289013
20
0.359604
11
0.285073
21
0.372762
0
LINE
8
BLACK
6
CONTINUOUS
10
0.285073
20
0.372762
11
0.282688
21
0.386288
0
LINE
8
BLACK
6
CONTINUOUS
10
0.282688
20
0.386288
11
0.28189
21
0.4
0
LINE
8
BLACK
6
CONTINUOUS
10
0.28189
20
0.4
11
0.282688
21
0.413712
0
LINE
8
BLACK
6
CONTINUOUS
10
0.282688
20
0.413712
11
0.285073
21
0.427238
0
LINE
8
BLACK
6
CONTINUOUS
10
0.285073
20
0.427238
11
0.289013
21
0.440396
0
LINE
8
BLACK
6
CONTINUOUS
10
0.289013
20
0.440396
11
0.294453
21
0.453008
0
LINE
8
BLACK
6
CONTINUOUS
10
0.294453
20
0.453008
11
0.30132
21
0.464903
0
LINE
8
BLACK
6
CONTINUOUS
10
0.30132
20
0.464903
11
0.309522
21
0.47592
0
LINE
8
BLACK
6
CONTINUOUS
10
0.309522
20
0.47592
11
0.318948
21
0.48591
0
LINE
8
BLACK
6
CONTINUOUS
10
0.318948
20
0.48591
11
0.329469
21
0.494739
0
LINE
8
BLACK
6
CONTINUOUS
10
0.329469
20
0.494739
11
0.340945
21
0.502286
0
LINE
8
BLACK
6
CONTINUOUS
10
0.340945
20
0.502286
11
0.353219
21
0.508451
0
LINE
8
BLACK
6
CONTINUOUS
10
0.353219
20
0.508451
11
0.366126
21
0.513148
0
LINE
8
BLACK
6
CONTINUOUS
10
0.366126
20
0.513148
11
0.37949
21
0.516316
0
LINE
8
BLACK
6
CONTINUOUS
10
0.37949
20
0.516316
11
0.393133
21
0.51791
0
LINE
8
BLACK
6
CONTINUOUS
10
0.393133
20
0.51791
11
0.406867
21
0.51791
0
LINE
8
BLACK
6
CONTINUOUS
10
0.406867
20
0.51791
11
0.42051
21
0.516316
0
LINE
8
BLACK
6
CONTINUOUS
10
2.02051
20
0.516316
11
2.03387
21
0.513148
0
LINE
8
BLACK
6
CONTINUOUS
10
2.03387
20
0.513148
11
2.04678
21
0.508451
0
LINE
8
BLACK
6
CONTINUOUS
10
2.04678
20
0.508451
11
2.05906
21
0.502286
0
LINE
8
BLACK
6
CONTINUOUS
10
2.05906
20
0.502286
11
2.07053
21
0.494739
0
LINE
8
BLACK
6
CONTINUOUS
10
2.07053
20
0.494739
11
2.08105
21
0.48591
0
LINE
8
BLACK
6
CONTINUOUS
10
2.08105
20
0.48591
11
2.09048
21
0.47592
0
LINE
8
BLACK
6
CONTINUOUS
10
2.09048
20
0.47592
11
2.09868
21
0.464903
0
LINE
8
BLACK
6
CONTINUOUS
10
2.09868
20
0.464903
11
2.10555
21
0.453008
0
LINE
8
BLACK
6
CONTINUOUS
10
2.10555
20
0.453008
11
2.11099
21
0.440396
0
LINE
8
BLACK
6
CONTINUOUS
10
2.11099
20
0.440396
11
2.11493
21
0.427238
0
LINE
8
BLACK
6
CONTINUOUS
10
2.11493
20
0.427238
11
2.11731
21
0.413712
0
LINE
8
BLACK
6
CONTINUOUS
10
2.11731
20
0.413712
11
2.11811
21
0.4
0
LINE
8
BLACK
6
CONTINUOUS
10
2.11811
20
0.4
11
2.11731
21
0.386288
0
LINE
8
BLACK
6
CONTINUOUS
10
2.11731
20
0.386288
11
2.11493
21
0.372762
0
LINE
8
BLACK
6
CONTINUOUS
10
2.11493
20
0.372762
11
2.11099
21
0.359604
0
LINE
8
BLACK
6
CONTINUOUS
10
2.11099
20
0.359604
11
2.10555
21
0.346992
0
LINE
8
BLACK
6
CONTINUOUS
10
2.10555
20
0.346992
11
2.09868
21
0.335097
0
LINE
8
BLACK
6
CONTINUOUS
10
2.09868
20
0.335097
11
2.09048
21
0.32408
0
LINE
8
BLACK
6
CONTINUOUS
10
2.09048
20
0.32408
11
2.08105
21
0.31409
0
LINE
8
BLACK
6
CONTINUOUS
10
2.08105
20
0.31409
11
2.07053
21
0.305261
0
LINE
8
BLACK
6
CONTINUOUS
10
2.07053
20
0.305261
11
2.05906
21
0.297714
0
LINE
8
BLACK
6
CONTINUOUS
10
2.05906
20
0.297714
11
2.04678
21
0.291549
0
LINE
8
BLACK
6
CONTINUOUS
10
2.04678
20
0.291549
11
2.03387
21
0.286852
0
LINE
8
BLACK
6
CONTINUOUS
10
2.03387
20
0.286852
11
2.02051
21
0.283684
0
LINE
8
BLACK
6
CONTINUOUS
10
2.02051
20
0.283684
11
2.00687
21
0.28209
0
LINE
8
BLACK
6
CONTINUOUS
10
2.00687
20
0.28209
11
1.99313
21
0.28209
0
LINE
8
BLACK
6
CONTINUOUS
10
1.99313
20
0.28209
11
1.97949
21
0.283684
0
LINE
8
BLACK
6
CONTINUOUS
10
1.97949
20
0.283684
11
1.96613
21
0.286852
0
LINE
8
BLACK
6
CONTINUOUS
10
1.96613
20
0.286852
11
1.95322
21
0.291549
0
LINE
8
BLACK
6
CONTINUOUS
10
1.95322
20
0.291549
11
1.94094
21
0.297714
0
LINE
8
BLACK
6
CONTINUOUS
10
1.94094
20
0.297714
11
1.92947
21
0.305261
0
LINE
8
BLACK
6
CONTINUOUS
10
1.92947
20
0.305261
11
1.91895
21
0.31409
0
LINE
8
BLACK
6
CONTINUOUS
10
1.91895
20
0.31409
11
1.90952
21
0.32408
0
LINE
8
BLACK
6
CONTINUOUS
10
1.90952
20
0.32408
11
1.90132
21
0.335097
0
LINE
8
BLACK
6
CONTINUOUS
10
1.90132
20
0.335097
11
1.89445
21
0.346992
0
LINE
8
BLACK
6
CONTINUOUS
10
1.89445
20
0.346992
11
1.88901
21
0.359604
0
LINE
8
BLACK
6
CONTINUOUS
10
1.88901
20
0.359604
11
1.88507
21
0.372762
0
LINE
8
BLACK
6
CONTINUOUS
10
1.88507
20
0.372762
11
1.88269
21
0.386288
0
LINE
8
BLACK
6
CONTINUOUS
10
1.88269
20
0.386288
11
1.88189
21
0.4
0
LINE
8
BLACK
6
CONTINUOUS
10
1.88189
20
0.4
11
1.88269
21
0.413712
0
LINE
8
BLACK
6
CONTINUOUS
10
1.88269
20
0.413712
11
1.88507
21
0.427238
0
LINE
8
BLACK
6
CONTINUOUS
10
1.88507
20
0.427238
11
1.88901
21
0.440396
0
LINE
8
BLACK
6
CONTINUOUS
10
1.88901
20
0.440396
11
1.89445
21
0.453008
0
LINE
8
BLACK
6
CONTINUOUS
10
1.89445
20
0.453008
11
1.90132
21
0.464903
0
LINE
8
BLACK
6
CONTINUOUS
10
1.90132
20
0.464903
11
1.90952
21
0.47592
0
LINE
8
BLACK
6
CONTINUOUS
10
1.90952
20
0.47592
11
1.91895
21
0.48591
0
LINE
8
BLACK
6
CONTINUOUS
10
1.91895
20
0.48591
11
1.92947
21
0.494739
0
LINE
8
BLACK
6
CONTINUOUS
10
1.92947
20
0.494739
11
1.94094
21
0.502286
0
LINE
8
BLACK
6
CONTINUOUS
10
1.94094
20
0.502286
11
1.95322
21
0.508451
0
LINE
8
BLACK
6
CONTINUOUS
10
1.95322
20
0.508451
11
1.96613
21
0.513148
0
LINE
8
BLACK
6
CONTINUOUS
10
1.96613
20
0.513148
11
1.97949
21
0.516316
0
LINE
8
BLACK
6
CONTINUOUS
10
1.97949
20
0.516316
11
1.99313
21
0.51791
0
LINE
8
BLACK
6
CONTINUOUS
10
1.99313
20
0.51791
11
2.00687
21
0.51791
0
LINE
8
BLACK
6
CONTINUOUS
10
2.00687
20
0.51791
11
2.02051
21
0.516316
0
LINE
8
BLACK
6
CONTINUOUS
10
1.54181
20
0.30563
11
1.48181
21
0.30563
0
LINE
8
BLACK
6
CONTINUOUS
10
1.48181
20
0.30563
11
1.48181
21
0.36563
0
LINE
8
BLACK
6
CONTINUOUS
10
1.48181
20
0.36563
11
1.54181
21
0.36563
0
LINE
8
BLACK
6
CONTINUOUS
10
1.54181
20
0.36563
11
1.54181
21
0.30563
0
LINE
8
BLACK
6
CONTINUOUS
10
1.64181
20
0.30563
11
1.58181
21
0.30563
0
LINE
8
BLACK
6
CONTINUOUS
10
1.58181
20
0.30563
11
1.58181
21
0.36563
0
LINE
8
BLACK
6
CONTINUOUS
10
1.58181
20
0.36563
11
1.64181
21
0.36563
0
LINE
8
BLACK
6
CONTINUOUS
10
1.64181
20
0.36563
11
1.64181
21
0.30563
0
LINE
8
BLACK
6
CONTINUOUS
10
1.74181
20
0.30563
11
1.68181
21
0.30563
0
LINE
8
BLACK
6
CONTINUOUS
10
1.68181
20
0.30563
11
1.68181
21
0.36563
0
LINE
8
BLACK
6
CONTINUOUS
10
1.68181
20
0.36563
11
1.74181
21
0.36563
0
LINE
8
BLACK
6
CONTINUOUS
10
1.74181
20
0.36563
11
1.74181
21
0.30563
0
LINE
8
BLACK
6
CONTINUOUS
10
0.842598
20
0.306073
11
0.782598
21
0.306073
0
LINE
8
BLACK
6
CONTINUOUS
10
0.782598
20
0.306073
11
0.782598
21
0.366073
0
LINE
8
BLACK
6
CONTINUOUS
10
0.782598
20
0.366073
11
0.842598
21
0.366073
0
LINE
8
BLACK
6
CONTINUOUS
10
0.842598
20
0.366073
11
0.842598
21
0.306073
0
LINE
8
BLACK
6
CONTINUOUS
10
0.942598
20
0.306073
11
0.882598
21
0.306073
0
LINE
8
BLACK
6
CONTINUOUS
10
0.882598
20
0.306073
11
0.882598
21
0.366073
0
LINE
8
BLACK
6
CONTINUOUS
10
0.882598
20
0.366073
11
0.942598
21
0.366073
0
LINE
8
BLACK
6
CONTINUOUS
10
0.942598
20
0.366073
11
0.942598
21
0.306073
0
LINE
8
BLACK
6
CONTINUOUS
10
1.0426
20
0.306073
11
0.982598
21
0.306073
0
LINE
8
BLACK
6
CONTINUOUS
10
0.982598
20
0.306073
11
0.982598
21
0.366073
0
LINE
8
BLACK
6
CONTINUOUS
10
0.982598
20
0.366073
11
1.0426
21
0.366073
0
LINE
8
BLACK
6
CONTINUOUS
10
1.0426
20
0.366073
11
1.0426
21
0.306073
0
LINE
8
BLACK
6
CONTINUOUS
10
1.1426
20
0.306073
11
1.0826
21
0.306073
0
LINE
8
BLACK
6
CONTINUOUS
10
1.0826
20
0.306073
11
1.0826
21
0.366073
0
LINE
8
BLACK
6
CONTINUOUS
10
1.0826
20
0.366073
11
1.1426
21
0.366073
0
LINE
8
BLACK
6
CONTINUOUS
10
1.1426
20
0.366073
11
1.1426
21
0.306073
0
LINE
8
BLACK
6
CONTINUOUS
10
1.2426
20
0.306073
11
1.1826
21
0.306073
0
LINE
8
BLACK
6
CONTINUOUS
10
1.1826
20
0.306073
11
1.1826
21
0.366073
0
LINE
8
BLACK
6
CONTINUOUS
10
1.1826
20
0.366073
11
1.2426
21
0.366073
0
LINE
8
BLACK
6
CONTINUOUS
10
1.2426
20
0.366073
11
1.2426
21
0.306073
0
LINE
8
BLACK
6
CONTINUOUS
10
1.54181
20
0.40563
11
1.48181
21
0.40563
0
LINE
8
BLACK
6
CONTINUOUS
10
1.48181
20
0.40563
11
1.48181
21
0.46563
0
LINE
8
BLACK
6
CONTINUOUS
10
1.48181
20
0.46563
11
1.54181
21
0.46563
0
LINE
8
BLACK
6
CONTINUOUS
10
1.54181
20
0.46563
11
1.54181
21
0.40563
0
LINE
8
BLACK
6
CONTINUOUS
10
1.64181
20
0.40563
11
1.58181
21
0.40563
0
LINE
8
BLACK
6
CONTINUOUS
10
1.58181
20
0.40563
11
1.58181
21
0.46563
0
LINE
8
BLACK
6
CONTINUOUS
10
1.58181
20
0.46563
11
1.64181
21
0.46563
0
LINE
8
BLACK
6
CONTINUOUS
10
1.64181
20
0.46563
11
1.64181
21
0.40563
0
LINE
8
BLACK
6
CONTINUOUS
10
1.74181
20
0.40563
11
1.68181
21
0.40563
0
LINE
8
BLACK
6
CONTINUOUS
10
1.68181
20
0.40563
11
1.68181
21
0.46563
0
LINE
8
BLACK
6
CONTINUOUS
10
1.68181
20
0.46563
11
1.74181
21
0.46563
0
LINE
8
BLACK
6
CONTINUOUS
10
1.74181
20
0.46563
11
1.74181
21
0.40563
0
LINE
8
BLACK
6
CONTINUOUS
10
0.842598
20
0.406073
11
0.782598
21
0.406073
0
LINE
8
BLACK
6
CONTINUOUS
10
0.782598
20
0.406073
11
0.782598
21
0.466073
0
LINE
8
BLACK
6
CONTINUOUS
10
0.782598
20
0.466073
11
0.842598
21
0.466073
0
LINE
8
BLACK
6
CONTINUOUS
10
0.842598
20
0.466073
11
0.842598
21
0.406073
0
LINE
8
BLACK
6
CONTINUOUS
10
0.942598
20
0.406073
11
0.882598
21
0.406073
0
LINE
8
BLACK
6
CONTINUOUS
10
0.882598
20
0.406073
11
0.882598
21
0.466073
0
LINE
8
BLACK
6
CONTINUOUS
10
0.882598
20
0.466073
11
0.942598
21
0.466073
0
LINE
8
BLACK
6
CONTINUOUS
10
0.942598
20
0.466073
11
0.942598
21
0.406073
0
LINE
8
BLACK
6
CONTINUOUS
10
1.0426
20
0.406073
11
0.982598
21
0.406073
0
LINE
8
BLACK
6
CONTINUOUS
10
0.982598
20
0.406073
11
0.982598
21
0.466073
0
LINE
8
BLACK
6
CONTINUOUS
10
0.982598
20
0.466073
11
1.0426
21
0.466073
0
LINE
8
BLACK
6
CONTINUOUS
10
1.0426
20
0.466073
11
1.0426
21
0.406073
0
LINE
8
BLACK
6
CONTINUOUS
10
1.1426
20
0.406073
11
1.0826
21
0.406073
0
LINE
8
BLACK
6
CONTINUOUS
10
1.0826
20
0.406073
11
1.0826
21
0.466073
0
LINE
8
BLACK
6
CONTINUOUS
10
1.0826
20
0.466073
11
1.1426
21
0.466073
0
LINE
8
BLACK
6
CONTINUOUS
10
1.1426
20
0.466073
11
1.1426
21
0.406073
0
LINE
8
BLACK
6
CONTINUOUS
10
1.2426
20
0.406073
11
1.1826
21
0.406073
0
LINE
8
BLACK
6
CONTINUOUS
10
1.1826
20
0.406073
11
1.1826
21
0.466073
0
LINE
8
BLACK
6
CONTINUOUS
10
1.1826
20
0.466073
11
1.2426
21
0.466073
0
LINE
8
BLACK
6
CONTINUOUS
10
1.2426
20
0.466073
11
1.2426
21
0.406073
0
LINE
8
BLACK
6
CONTINUOUS
10
0.919613
20
0.556337
11
0.922806
21
0.554204
0
LINE
8
BLACK
6
CONTINUOUS
10
0.922806
20
0.554204
11
0.92494
21
0.551011
0
LINE
8
BLACK
6
CONTINUOUS
10
0.92494
20
0.551011
11
0.925689
21
0.547244
0
LINE
8
BLACK
6
CONTINUOUS
10
0.925689
20
0.547244
11
0.925689
21
0.511811
0
LINE
8
BLACK
6
CONTINUOUS
10
0.925689
20
0.511811
11
0.92494
21
0.508044
0
LINE
8
BLACK
6
CONTINUOUS
10
0.92494
20
0.508044
11
0.922806
21
0.504851
0
LINE
8
BLACK
6
CONTINUOUS
10
0.922806
20
0.504851
11
0.919613
21
0.502718
0
LINE
8
BLACK
6
CONTINUOUS
10
0.919613
20
0.502718
11
0.915846
21
0.501969
0
LINE
8
BLACK
6
CONTINUOUS
10
0.915846
20
0.501969
11
0.895177
21
0.501969
0
LINE
8
BLACK
6
CONTINUOUS
10
0.895177
20
0.501969
11
0.891411
21
0.502718
0
LINE
8
BLACK
6
CONTINUOUS
10
0.891411
20
0.502718
11
0.888217
21
0.504851
0
LINE
8
BLACK
6
CONTINUOUS
10
0.888217
20
0.504851
11
0.886084
21
0.508044
0
LINE
8
BLACK
6
CONTINUOUS
10
0.886084
20
0.508044
11
0.885335
21
0.511811
0
LINE
8
BLACK
6
CONTINUOUS
10
0.885335
20
0.511811
11
0.885335
21
0.547244
0
LINE
8
BLACK
6
CONTINUOUS
10
0.885335
20
0.547244
11
0.886084
21
0.551011
0
LINE
8
BLACK
6
CONTINUOUS
10
0.886084
20
0.551011
11
0.888217
21
0.554204
0
LINE
8
BLACK
6
CONTINUOUS
10
0.888217
20
0.554204
11
0.891411
21
0.556337
0
LINE
8
BLACK
6
CONTINUOUS
10
0.891411
20
0.556337
11
0.895177
21
0.557087
0
LINE
8
BLACK
6
CONTINUOUS
10
0.895177
20
0.557087
11
0.915846
21
0.557087
0
LINE
8
BLACK
6
CONTINUOUS
10
0.915846
20
0.557087
11
0.919613
21
0.556337
0
LINE
8
BLACK
6
CONTINUOUS
10
0.991463
20
0.556337
11
0.994657
21
0.554204
0
LINE
8
BLACK
6
CONTINUOUS
10
0.994657
20
0.554204
11
0.99679
21
0.551011
0
LINE
8
BLACK
6
CONTINUOUS
10
0.99679
20
0.551011
11
0.997539
21
0.547244
0
LINE
8
BLACK
6
CONTINUOUS
10
0.997539
20
0.547244
11
0.997539
21
0.511811
0
LINE
8
BLACK
6
CONTINUOUS
10
0.997539
20
0.511811
11
0.99679
21
0.508044
0
LINE
8
BLACK
6
CONTINUOUS
10
0.99679
20
0.508044
11
0.994657
21
0.504851
0
LINE
8
BLACK
6
CONTINUOUS
10
0.994657
20
0.504851
11
0.991463
21
0.502718
0
LINE
8
BLACK
6
CONTINUOUS
10
0.991463
20
0.502718
11
0.987697
21
0.501969
0
LINE
8
BLACK
6
CONTINUOUS
10
0.987697
20
0.501969
11
0.967028
21
0.501969
0
LINE
8
BLACK
6
CONTINUOUS
10
0.967028
20
0.501969
11
0.963261
21
0.502718
0
LINE
8
BLACK
6
CONTINUOUS
10
0.963261
20
0.502718
11
0.960068
21
0.504851
0
LINE
8
BLACK
6
CONTINUOUS
10
0.960068
20
0.504851
11
0.957934
21
0.508044
0
LINE
8
BLACK
6
CONTINUOUS
10
0.957934
20
0.508044
11
0.957185
21
0.511811
0
LINE
8
BLACK
6
CONTINUOUS
10
0.957185
20
0.511811
11
0.957185
21
0.547244
0
LINE
8
BLACK
6
CONTINUOUS
10
0.957185
20
0.547244
11
0.957934
21
0.551011
0
LINE
8
BLACK
6
CONTINUOUS
10
0.957934
20
0.551011
11
0.960068
21
0.554204
0
LINE
8
BLACK
6
CONTINUOUS
10
0.960068
20
0.554204
11
0.963261
21
0.556337
0
LINE
8
BLACK
6
CONTINUOUS
10
0.963261
20
0.556337
11
0.967028
21
0.557087
0
LINE
8
BLACK
6
CONTINUOUS
10
0.967028
20
0.557087
11
0.987697
21
0.557087
0
LINE
8
BLACK
6
CONTINUOUS
10
0.987697
20
0.557087
11
0.991463
21
0.556337
0
LINE
8
BLACK
6
CONTINUOUS
10
1.06233
20
0.556337
11
1.06552
21
0.554204
0
LINE
8
BLACK
6
CONTINUOUS
10
1.06552
20
0.554204
11
1.06766
21
0.551011
0
LINE
8
BLACK
6
CONTINUOUS
10
1.06766
20
0.551011
11
1.06841
21
0.547244
0
LINE
8
BLACK
6
CONTINUOUS
10
1.06841
20
0.547244
11
1.06841
21
0.511811
0
LINE
8
BLACK
6
CONTINUOUS
10
1.06841
20
0.511811
11
1.06766
21
0.508044
0
LINE
8
BLACK
6
CONTINUOUS
10
1.06766
20
0.508044
11
1.06552
21
0.504851
0
LINE
8
BLACK
6
CONTINUOUS
10
1.06552
20
0.504851
11
1.06233
21
0.502718
0
LINE
8
BLACK
6
CONTINUOUS
10
1.06233
20
0.502718
11
1.05856
21
0.501969
0
LINE
8
BLACK
6
CONTINUOUS
10
1.05856
20
0.501969
11
1.03789
21
0.501969
0
LINE
8
BLACK
6
CONTINUOUS
10
1.03789
20
0.501969
11
1.03413
21
0.502718
0
LINE
8
BLACK
6
CONTINUOUS
10
1.03413
20
0.502718
11
1.03093
21
0.504851
0
LINE
8
BLACK
6
CONTINUOUS
10
1.03093
20
0.504851
11
1.0288
21
0.508044
0
LINE
8
BLACK
6
CONTINUOUS
10
1.0288
20
0.508044
11
1.02805
21
0.511811
0
LINE
8
BLACK
6
CONTINUOUS
10
1.02805
20
0.511811
11
1.02805
21
0.547244
0
LINE
8
BLACK
6
CONTINUOUS
10
1.02805
20
0.547244
11
1.0288
21
0.551011
0
LINE
8
BLACK
6
CONTINUOUS
10
1.0288
20
0.551011
11
1.03093
21
0.554204
0
LINE
8
BLACK
6
CONTINUOUS
10
1.03093
20
0.554204
11
1.03413
21
0.556337
0
LINE
8
BLACK
6
CONTINUOUS
10
1.03413
20
0.556337
11
1.03789
21
0.557087
0
LINE
8
BLACK
6
CONTINUOUS
10
1.03789
20
0.557087
11
1.05856
21
0.557087
0
LINE
8
BLACK
6
CONTINUOUS
10
1.05856
20
0.557087
11
1.06233
21
0.556337
0
LINE
8
BLACK
6
CONTINUOUS
10
1.13418
20
0.556337
11
1.13737
21
0.554204
0
LINE
8
BLACK
6
CONTINUOUS
10
1.13737
20
0.554204
11
1.13951
21
0.551011
0
LINE
8
BLACK
6
CONTINUOUS
10
1.13951
20
0.551011
11
1.14026
21
0.547244
0
LINE
8
BLACK
6
CONTINUOUS
10
1.14026
20
0.547244
11
1.14026
21
0.511811
0
LINE
8
BLACK
6
CONTINUOUS
10
1.14026
20
0.511811
11
1.13951
21
0.508044
0
LINE
8
BLACK
6
CONTINUOUS
10
1.13951
20
0.508044
11
1.13737
21
0.504851
0
LINE
8
BLACK
6
CONTINUOUS
10
1.13737
20
0.504851
11
1.13418
21
0.502718
0
LINE
8
BLACK
6
CONTINUOUS
10
1.13418
20
0.502718
11
1.13041
21
0.501969
0
LINE
8
BLACK
6
CONTINUOUS
10
1.13041
20
0.501969
11
1.10974
21
0.501969
0
LINE
8
BLACK
6
CONTINUOUS
10
1.10974
20
0.501969
11
1.10598
21
0.502718
0
LINE
8
BLACK
6
CONTINUOUS
10
1.10598
20
0.502718
11
1.10278
21
0.504851
0
LINE
8
BLACK
6
CONTINUOUS
10
1.10278
20
0.504851
11
1.10065
21
0.508044
0
LINE
8
BLACK
6
CONTINUOUS
10
1.10065
20
0.508044
11
1.0999
21
0.511811
0
LINE
8
BLACK
6
CONTINUOUS
10
1.0999
20
0.511811
11
1.0999
21
0.547244
0
LINE
8
BLACK
6
CONTINUOUS
10
1.0999
20
0.547244
11
1.10065
21
0.551011
0
LINE
8
BLACK
6
CONTINUOUS
10
1.10065
20
0.551011
11
1.10278
21
0.554204
0
LINE
8
BLACK
6
CONTINUOUS
10
1.10278
20
0.554204
11
1.10598
21
0.556337
0
LINE
8
BLACK
6
CONTINUOUS
10
1.10598
20
0.556337
11
1.10974
21
0.557087
0
LINE
8
BLACK
6
CONTINUOUS
10
1.10974
20
0.557087
11
1.13041
21
0.557087
0
LINE
8
BLACK
6
CONTINUOUS
10
1.13041
20
0.557087
11
1.13418
21
0.556337
0
LINE
8
BLACK
6
CONTINUOUS
10
1.52444
20
0.546003
11
1.52763
21
0.543869
0
LINE
8
BLACK
6
CONTINUOUS
10
1.52763
20
0.543869
11
1.52976
21
0.540676
0
LINE
8
BLACK
6
CONTINUOUS
10
1.52976
20
0.540676
11
1.53051
21
0.536909
0
LINE
8
BLACK
6
CONTINUOUS
10
1.53051
20
0.536909
11
1.53051
21
0.51624
0
LINE
8
BLACK
6
CONTINUOUS
10
1.53051
20
0.51624
11
1.52976
21
0.512474
0
LINE
8
BLACK
6
CONTINUOUS
10
1.52976
20
0.512474
11
1.52763
21
0.50928
0
LINE
8
BLACK
6
CONTINUOUS
10
1.52763
20
0.50928
11
1.52444
21
0.507147
0
LINE
8
BLACK
6
CONTINUOUS
10
1.52444
20
0.507147
11
1.52067
21
0.506398
0
LINE
8
BLACK
6
CONTINUOUS
10
1.52067
20
0.506398
11
1.48524
21
0.506398
0
LINE
8
BLACK
6
CONTINUOUS
10
1.48524
20
0.506398
11
1.48147
21
0.507147
0
LINE
8
BLACK
6
CONTINUOUS
10
1.48147
20
0.507147
11
1.47828
21
0.50928
0
LINE
8
BLACK
6
CONTINUOUS
10
1.47828
20
0.50928
11
1.47614
21
0.512474
0
LINE
8
BLACK
6
CONTINUOUS
10
1.47614
20
0.512474
11
1.47539
21
0.51624
0
LINE
8
BLACK
6
CONTINUOUS
10
1.47539
20
0.51624
11
1.47539
21
0.536909
0
LINE
8
BLACK
6
CONTINUOUS
10
1.47539
20
0.536909
11
1.47614
21
0.540676
0
LINE
8
BLACK
6
CONTINUOUS
10
1.47614
20
0.540676
11
1.47828
21
0.543869
0
LINE
8
BLACK
6
CONTINUOUS
10
1.47828
20
0.543869
11
1.48147
21
0.546003
0
LINE
8
BLACK
6
CONTINUOUS
10
1.48147
20
0.546003
11
1.48524
21
0.546752
0
LINE
8
BLACK
6
CONTINUOUS
10
1.48524
20
0.546752
11
1.52067
21
0.546752
0
LINE
8
BLACK
6
CONTINUOUS
10
1.52067
20
0.546752
11
1.52444
21
0.546003
0
LINE
8
BLACK
6
CONTINUOUS
10
1.63369
20
0.546003
11
1.63688
21
0.543869
0
LINE
8
BLACK
6
CONTINUOUS
10
1.63688
20
0.543869
11
1.63901
21
0.540676
0
LINE
8
BLACK
6
CONTINUOUS
10
1.63901
20
0.540676
11
1.63976
21
0.536909
0
LINE
8
BLACK
6
CONTINUOUS
10
1.63976
20
0.536909
11
1.63976
21
0.51624
0
LINE
8
BLACK
6
CONTINUOUS
10
1.63976
20
0.51624
11
1.63901
21
0.512474
0
LINE
8
BLACK
6
CONTINUOUS
10
1.63901
20
0.512474
11
1.63688
21
0.50928
0
LINE
8
BLACK
6
CONTINUOUS
10
1.63688
20
0.50928
11
1.63369
21
0.507147
0
LINE
8
BLACK
6
CONTINUOUS
10
1.63369
20
0.507147
11
1.62992
21
0.506398
0
LINE
8
BLACK
6
CONTINUOUS
10
1.62992
20
0.506398
11
1.59449
21
0.506398
0
LINE
8
BLACK
6
CONTINUOUS
10
1.59449
20
0.506398
11
1.59072
21
0.507147
0
LINE
8
BLACK
6
CONTINUOUS
10
1.59072
20
0.507147
11
1.58753
21
0.50928
0
LINE
8
BLACK
6
CONTINUOUS
10
1.58753
20
0.50928
11
1.58539
21
0.512474
0
LINE
8
BLACK
6
CONTINUOUS
10
1.58539
20
0.512474
11
1.58465
21
0.51624
0
LINE
8
BLACK
6
CONTINUOUS
10
1.58465
20
0.51624
11
1.58465
21
0.536909
0
LINE
8
BLACK
6
CONTINUOUS
10
1.58465
20
0.536909
11
1.58539
21
0.540676
0
LINE
8
BLACK
6
CONTINUOUS
10
1.58539
20
0.540676
11
1.58753
21
0.543869
0
LINE
8
BLACK
6
CONTINUOUS
10
1.58753
20
0.543869
11
1.59072
21
0.546003
0
LINE
8
BLACK
6
CONTINUOUS
10
1.59072
20
0.546003
11
1.59449
21
0.546752
0
LINE
8
BLACK
6
CONTINUOUS
10
1.59449
20
0.546752
11
1.62992
21
0.546752
0
LINE
8
BLACK
6
CONTINUOUS
10
1.62992
20
0.546752
11
1.63369
21
0.546003
0
LINE
8
BLACK
6
CONTINUOUS
10
1.73507
20
0.546003
11
1.73826
21
0.543869
0
LINE
8
BLACK
6
CONTINUOUS
10
1.73826
20
0.543869
11
1.74039
21
0.540676
0
LINE
8
BLACK
6
CONTINUOUS
10
1.74039
20
0.540676
11
1.74114
21
0.536909
0
LINE
8
BLACK
6
CONTINUOUS
10
1.74114
20
0.536909
11
1.74114
21
0.51624
0
LINE
8
BLACK
6
CONTINUOUS
10
1.74114
20
0.51624
11
1.74039
21
0.512474
0
LINE
8
BLACK
6
CONTINUOUS
10
1.74039
20
0.512474
11
1.73826
21
0.50928
0
LINE
8
BLACK
6
CONTINUOUS
10
1.73826
20
0.50928
11
1.73507
21
0.507147
0
LINE
8
BLACK
6
CONTINUOUS
10
1.73507
20
0.507147
11
1.7313
21
0.506398
0
LINE
8
BLACK
6
CONTINUOUS
10
1.7313
20
0.506398
11
1.69587
21
0.506398
0
LINE
8
BLACK
6
CONTINUOUS
10
1.69587
20
0.506398
11
1.6921
21
0.507147
0
LINE
8
BLACK
6
CONTINUOUS
10
1.6921
20
0.507147
11
1.68891
21
0.50928
0
LINE
8
BLACK
6
CONTINUOUS
10
1.68891
20
0.50928
11
1.68677
21
0.512474
0
LINE
8
BLACK
6
CONTINUOUS
10
1.68677
20
0.512474
11
1.68602
21
0.51624
0
LINE
8
BLACK
6
CONTINUOUS
10
1.68602
20
0.51624
11
1.68602
21
0.536909
0
LINE
8
BLACK
6
CONTINUOUS
10
1.68602
20
0.536909
11
1.68677
21
0.540676
0
LINE
8
BLACK
6
CONTINUOUS
10
1.68677
20
0.540676
11
1.68891
21
0.543869
0
LINE
8
BLACK
6
CONTINUOUS
10
1.68891
20
0.543869
11
1.6921
21
0.546003
0
LINE
8
BLACK
6
CONTINUOUS
10
1.6921
20
0.546003
11
1.69587
21
0.546752
0
LINE
8
BLACK
6
CONTINUOUS
10
1.69587
20
0.546752
11
1.7313
21
0.546752
0
LINE
8
BLACK
6
CONTINUOUS
10
1.7313
20
0.546752
11
1.73507
21
0.546003
0
LINE
8
BLACK
6
CONTINUOUS
10
0.651404
20
0.551416
11
0.654598
21
0.549283
0
LINE
8
BLACK
6
CONTINUOUS
10
0.654598
20
0.549283
11
0.656731
21
0.546089
0
LINE
8
BLACK
6
CONTINUOUS
10
0.656731
20
0.546089
11
0.65748
21
0.542323
0
LINE
8
BLACK
6
CONTINUOUS
10
0.65748
20
0.542323
11
0.65748
21
0.522638
0
LINE
8
BLACK
6
CONTINUOUS
10
0.65748
20
0.522638
11
0.656731
21
0.518871
0
LINE
8
BLACK
6
CONTINUOUS
10
0.656731
20
0.518871
11
0.654598
21
0.515678
0
LINE
8
BLACK
6
CONTINUOUS
10
0.654598
20
0.515678
11
0.651404
21
0.513544
0
LINE
8
BLACK
6
CONTINUOUS
10
0.651404
20
0.513544
11
0.647638
21
0.512795
0
LINE
8
BLACK
6
CONTINUOUS
10
0.647638
20
0.512795
11
0.610236
21
0.512795
0
LINE
8
BLACK
6
CONTINUOUS
10
0.610236
20
0.512795
11
0.60647
21
0.513544
0
LINE
8
BLACK
6
CONTINUOUS
10
0.60647
20
0.513544
11
0.603276
21
0.515678
0
LINE
8
BLACK
6
CONTINUOUS
10
0.603276
20
0.515678
11
0.601143
21
0.518871
0
LINE
8
BLACK
6
CONTINUOUS
10
0.601143
20
0.518871
11
0.600394
21
0.522638
0
LINE
8
BLACK
6
CONTINUOUS
10
0.600394
20
0.522638
11
0.600394
21
0.542323
0
LINE
8
BLACK
6
CONTINUOUS
10
0.600394
20
0.542323
11
0.601143
21
0.546089
0
LINE
8
BLACK
6
CONTINUOUS
10
0.601143
20
0.546089
11
0.603276
21
0.549283
0
LINE
8
BLACK
6
CONTINUOUS
10
0.603276
20
0.549283
11
0.60647
21
0.551416
0
LINE
8
BLACK
6
CONTINUOUS
10
0.60647
20
0.551416
11
0.610236
21
0.552165
0
LINE
8
BLACK
6
CONTINUOUS
10
0.610236
20
0.552165
11
0.647638
21
0.552165
0
LINE
8
BLACK
6
CONTINUOUS
10
0.647638
20
0.552165
11
0.651404
21
0.551416
0
LINE
8
BLACK
6
CONTINUOUS
10
0.73605
20
0.551416
11
0.739243
21
0.549283
0
LINE
8
BLACK
6
CONTINUOUS
10
0.739243
20
0.549283
11
0.741377
21
0.546089
0
LINE
8
BLACK
6
CONTINUOUS
10
0.741377
20
0.546089
11
0.742126
21
0.542323
0
LINE
8
BLACK
6
CONTINUOUS
10
0.742126
20
0.542323
11
0.742126
21
0.522638
0
LINE
8
BLACK
6
CONTINUOUS
10
0.742126
20
0.522638
11
0.741377
21
0.518871
0
LINE
8
BLACK
6
CONTINUOUS
10
0.741377
20
0.518871
11
0.739243
21
0.515678
0
LINE
8
BLACK
6
CONTINUOUS
10
0.739243
20
0.515678
11
0.73605
21
0.513544
0
LINE
8
BLACK
6
CONTINUOUS
10
0.73605
20
0.513544
11
0.732283
21
0.512795
0
LINE
8
BLACK
6
CONTINUOUS
10
0.732283
20
0.512795
11
0.694882
21
0.512795
0
LINE
8
BLACK
6
CONTINUOUS
10
0.694882
20
0.512795
11
0.691115
21
0.513544
0
LINE
8
BLACK
6
CONTINUOUS
10
0.691115
20
0.513544
11
0.687922
21
0.515678
0
LINE
8
BLACK
6
CONTINUOUS
10
0.687922
20
0.515678
11
0.685789
21
0.518871
0
LINE
8
BLACK
6
CONTINUOUS
10
0.685789
20
0.518871
11
0.685039
21
0.522638
0
LINE
8
BLACK
6
CONTINUOUS
10
0.685039
20
0.522638
11
0.685039
21
0.542323
0
LINE
8
BLACK
6
CONTINUOUS
10
0.685039
20
0.542323
11
0.685789
21
0.546089
0
LINE
8
BLACK
6
CONTINUOUS
10
0.685789
20
0.546089
11
0.687922
21
0.549283
0
LINE
8
BLACK
6
CONTINUOUS
10
0.687922
20
0.549283
11
0.691115
21
0.551416
0
LINE
8
BLACK
6
CONTINUOUS
10
0.691115
20
0.551416
11
0.694882
21
0.552165
0
LINE
8
BLACK
6
CONTINUOUS
10
0.694882
20
0.552165
11
0.732283
21
0.552165
0
LINE
8
BLACK
6
CONTINUOUS
10
0.732283
20
0.552165
11
0.73605
21
0.551416
0
LINE
8
BLACK
6
CONTINUOUS
10
1.52444
20
0.617853
11
1.52763
21
0.61572
0
LINE
8
BLACK
6
CONTINUOUS
10
1.52763
20
0.61572
11
1.52976
21
0.612526
0
LINE
8
BLACK
6
CONTINUOUS
10
1.52976
20
0.612526
11
1.53051
21
0.60876
0
LINE
8
BLACK
6
CONTINUOUS
10
1.53051
20
0.60876
11
1.53051
21
0.588091
0
LINE
8
BLACK
6
CONTINUOUS
10
1.53051
20
0.588091
11
1.52976
21
0.584324
0
LINE
8
BLACK
6
CONTINUOUS
10
1.52976
20
0.584324
11
1.52763
21
0.581131
0
LINE
8
BLACK
6
CONTINUOUS
10
1.52763
20
0.581131
11
1.52444
21
0.578997
0
LINE
8
BLACK
6
CONTINUOUS
10
1.52444
20
0.578997
11
1.52067
21
0.578248
0
LINE
8
BLACK
6
CONTINUOUS
10
1.52067
20
0.578248
11
1.48524
21
0.578248
0
LINE
8
BLACK
6
CONTINUOUS
10
1.48524
20
0.578248
11
1.48147
21
0.578997
0
LINE
8
BLACK
6
CONTINUOUS
10
1.48147
20
0.578997
11
1.47828
21
0.581131
0
LINE
8
BLACK
6
CONTINUOUS
10
1.47828
20
0.581131
11
1.47614
21
0.584324
0
LINE
8
BLACK
6
CONTINUOUS
10
1.47614
20
0.584324
11
1.47539
21
0.588091
0
LINE
8
BLACK
6
CONTINUOUS
10
1.47539
20
0.588091
11
1.47539
21
0.60876
0
LINE
8
BLACK
6
CONTINUOUS
10
1.47539
20
0.60876
11
1.47614
21
0.612526
0
LINE
8
BLACK
6
CONTINUOUS
10
1.47614
20
0.612526
11
1.47828
21
0.61572
0
LINE
8
BLACK
6
CONTINUOUS
10
1.47828
20
0.61572
11
1.48147
21
0.617853
0
LINE
8
BLACK
6
CONTINUOUS
10
1.48147
20
0.617853
11
1.48524
21
0.618602
0
LINE
8
BLACK
6
CONTINUOUS
10
1.48524
20
0.618602
11
1.52067
21
0.618602
0
LINE
8
BLACK
6
CONTINUOUS
10
1.52067
20
0.618602
11
1.52444
21
0.617853
0
LINE
8
BLACK
6
CONTINUOUS
10
1.63369
20
0.617853
11
1.63688
21
0.61572
0
LINE
8
BLACK
6
CONTINUOUS
10
1.63688
20
0.61572
11
1.63901
21
0.612526
0
LINE
8
BLACK
6
CONTINUOUS
10
1.63901
20
0.612526
11
1.63976
21
0.60876
0
LINE
8
BLACK
6
CONTINUOUS
10
1.63976
20
0.60876
11
1.63976
21
0.588091
0
LINE
8
BLACK
6
CONTINUOUS
10
1.63976
20
0.588091
11
1.63901
21
0.584324
0
LINE
8
BLACK
6
CONTINUOUS
10
1.63901
20
0.584324
11
1.63688
21
0.581131
0
LINE
8
BLACK
6
CONTINUOUS
10
1.63688
20
0.581131
11
1.63369
21
0.578997
0
LINE
8
BLACK
6
CONTINUOUS
10
1.63369
20
0.578997
11
1.62992
21
0.578248
0
LINE
8
BLACK
6
CONTINUOUS
10
1.62992
20
0.578248
11
1.59449
21
0.578248
0
LINE
8
BLACK
6
CONTINUOUS
10
1.59449
20
0.578248
11
1.59072
21
0.578997
0
LINE
8
BLACK
6
CONTINUOUS
10
1.59072
20
0.578997
11
1.58753
21
0.581131
0
LINE
8
BLACK
6
CONTINUOUS
10
1.58753
20
0.581131
11
1.58539
21
0.584324
0
LINE
8
BLACK
6
CONTINUOUS
10
1.58539
20
0.584324
11
1.58465
21
0.588091
0
LINE
8
BLACK
6
CONTINUOUS
10
1.58465
20
0.588091
11
1.58465
21
0.60876
0
LINE
8
BLACK
6
CONTINUOUS
10
1.58465
20
0.60876
11
1.58539
21
0.612526
0
LINE
8
BLACK
6
CONTINUOUS
10
1.58539
20
0.612526
11
1.58753
21
0.61572
0
LINE
8
BLACK
6
CONTINUOUS
10
1.58753
20
0.61572
11
1.59072
21
0.617853
0
LINE
8
BLACK
6
CONTINUOUS
10
1.59072
20
0.617853
11
1.59449
21
0.618602
0
LINE
8
BLACK
6
CONTINUOUS
10
1.59449
20
0.618602
11
1.62992
21
0.618602
0
LINE
8
BLACK
6
CONTINUOUS
10
1.62992
20
0.618602
11
1.63369
21
0.617853
0
LINE
8
BLACK
6
CONTINUOUS
10
1.73507
20
0.617853
11
1.73826
21
0.61572
0
LINE
8
BLACK
6
CONTINUOUS
10
1.73826
20
0.61572
11
1.74039
21
0.612526
0
LINE
8
BLACK
6
CONTINUOUS
10
1.74039
20
0.612526
11
1.74114
21
0.60876
0
LINE
8
BLACK
6
CONTINUOUS
10
1.74114
20
0.60876
11
1.74114
21
0.588091
0
LINE
8
BLACK
6
CONTINUOUS
10
1.74114
20
0.588091
11
1.74039
21
0.584324
0
LINE
8
BLACK
6
CONTINUOUS
10
1.74039
20
0.584324
11
1.73826
21
0.581131
0
LINE
8
BLACK
6
CONTINUOUS
10
1.73826
20
0.581131
11
1.73507
21
0.578997
0
LINE
8
BLACK
6
CONTINUOUS
10
1.73507
20
0.578997
11
1.7313
21
0.578248
0
LINE
8
BLACK
6
CONTINUOUS
10
1.7313
20
0.578248
11
1.69587
21
0.578248
0
LINE
8
BLACK
6
CONTINUOUS
10
1.69587
20
0.578248
11
1.6921
21
0.578997
0
LINE
8
BLACK
6
CONTINUOUS
10
1.6921
20
0.578997
11
1.68891
21
0.581131
0
LINE
8
BLACK
6
CONTINUOUS
10
1.68891
20
0.581131
11
1.68677
21
0.584324
0
LINE
8
BLACK
6
CONTINUOUS
10
1.68677
20
0.584324
11
1.68602
21
0.588091
0
LINE
8
BLACK
6
CONTINUOUS
10
1.68602
20
0.588091
11
1.68602
21
0.60876
0
LINE
8
BLACK
6
CONTINUOUS
10
1.68602
20
0.60876
11
1.68677
21
0.612526
0
LINE
8
BLACK
6
CONTINUOUS
10
1.68677
20
0.612526
11
1.68891
21
0.61572
0
LINE
8
BLACK
6
CONTINUOUS
10
1.68891
20
0.61572
11
1.6921
21
0.617853
0
LINE
8
BLACK
6
CONTINUOUS
10
1.6921
20
0.617853
11
1.69587
21
0.618602
0
LINE
8
BLACK
6
CONTINUOUS
10
1.69587
20
0.618602
11
1.7313
21
0.618602
0
LINE
8
BLACK
6
CONTINUOUS
10
1.7313
20
0.618602
11
1.73507
21
0.617853
0
LINE
8
BLACK
6
CONTINUOUS
10
0.829062
20
0.633109
11
0.832255
21
0.630975
0
LINE
8
BLACK
6
CONTINUOUS
10
0.832255
20
0.630975
11
0.834389
21
0.627782
0
LINE
8
BLACK
6
CONTINUOUS
10
0.834389
20
0.627782
11
0.835138
21
0.624016
0
LINE
8
BLACK
6
CONTINUOUS
10
0.835138
20
0.624016
11
0.835138
21
0.588583
0
LINE
8
BLACK
6
CONTINUOUS
10
0.835138
20
0.588583
11
0.834389
21
0.584816
0
LINE
8
BLACK
6
CONTINUOUS
10
0.834389
20
0.584816
11
0.832255
21
0.581623
0
LINE
8
BLACK
6
CONTINUOUS
10
0.832255
20
0.581623
11
0.829062
21
0.579489
0
LINE
8
BLACK
6
CONTINUOUS
10
0.829062
20
0.579489
11
0.825295
21
0.57874
0
LINE
8
BLACK
6
CONTINUOUS
10
0.825295
20
0.57874
11
0.804626
21
0.57874
0
LINE
8
BLACK
6
CONTINUOUS
10
0.804626
20
0.57874
11
0.800859
21
0.579489
0
LINE
8
BLACK
6
CONTINUOUS
10
0.800859
20
0.579489
11
0.797666
21
0.581623
0
LINE
8
BLACK
6
CONTINUOUS
10
0.797666
20
0.581623
11
0.795533
21
0.584816
0
LINE
8
BLACK
6
CONTINUOUS
10
0.795533
20
0.584816
11
0.794783
21
0.588583
0
LINE
8
BLACK
6
CONTINUOUS
10
0.794783
20
0.588583
11
0.794783
21
0.624016
0
LINE
8
BLACK
6
CONTINUOUS
10
0.794783
20
0.624016
11
0.795533
21
0.627782
0
LINE
8
BLACK
6
CONTINUOUS
10
0.795533
20
0.627782
11
0.797666
21
0.630975
0
LINE
8
BLACK
6
CONTINUOUS
10
0.797666
20
0.630975
11
0.800859
21
0.633109
0
LINE
8
BLACK
6
CONTINUOUS
10
0.800859
20
0.633109
11
0.804626
21
0.633858
0
LINE
8
BLACK
6
CONTINUOUS
10
0.804626
20
0.633858
11
0.825295
21
0.633858
0
LINE
8
BLACK
6
CONTINUOUS
10
0.825295
20
0.633858
11
0.829062
21
0.633109
0
LINE
8
BLACK
6
CONTINUOUS
10
0.900912
20
0.633109
11
0.904105
21
0.630975
0
LINE
8
BLACK
6
CONTINUOUS
10
0.904105
20
0.630975
11
0.906239
21
0.627782
0
LINE
8
BLACK
6
CONTINUOUS
10
0.906239
20
0.627782
11
0.906988
21
0.624016
0
LINE
8
BLACK
6
CONTINUOUS
10
0.906988
20
0.624016
11
0.906988
21
0.588583
0
LINE
8
BLACK
6
CONTINUOUS
10
0.906988
20
0.588583
11
0.906239
21
0.584816
0
LINE
8
BLACK
6
CONTINUOUS
10
0.906239
20
0.584816
11
0.904105
21
0.581623
0
LINE
8
BLACK
6
CONTINUOUS
10
0.904105
20
0.581623
11
0.900912
21
0.579489
0
LINE
8
BLACK
6
CONTINUOUS
10
0.900912
20
0.579489
11
0.897146
21
0.57874
0
LINE
8
BLACK
6
CONTINUOUS
10
0.897146
20
0.57874
11
0.876476
21
0.57874
0
LINE
8
BLACK
6
CONTINUOUS
10
0.876476
20
0.57874
11
0.87271
21
0.579489
0
LINE
8
BLACK
6
CONTINUOUS
10
0.87271
20
0.579489
11
0.869517
21
0.581623
0
LINE
8
BLACK
6
CONTINUOUS
10
0.869517
20
0.581623
11
0.867383
21
0.584816
0
LINE
8
BLACK
6
CONTINUOUS
10
0.867383
20
0.584816
11
0.866634
21
0.588583
0
LINE
8
BLACK
6
CONTINUOUS
10
0.866634
20
0.588583
11
0.866634
21
0.624016
0
LINE
8
BLACK
6
CONTINUOUS
10
0.866634
20
0.624016
11
0.867383
21
0.627782
0
LINE
8
BLACK
6
CONTINUOUS
10
0.867383
20
0.627782
11
0.869517
21
0.630975
0
LINE
8
BLACK
6
CONTINUOUS
10
0.869517
20
0.630975
11
0.87271
21
0.633109
0
LINE
8
BLACK
6
CONTINUOUS
10
0.87271
20
0.633109
11
0.876476
21
0.633858
0
LINE
8
BLACK
6
CONTINUOUS
10
0.876476
20
0.633858
11
0.897146
21
0.633858
0
LINE
8
BLACK
6
CONTINUOUS
10
0.897146
20
0.633858
11
0.900912
21
0.633109
0
LINE
8
BLACK
6
CONTINUOUS
10
0.651404
20
0.626219
11
0.654598
21
0.624086
0
LINE
8
BLACK
6
CONTINUOUS
10
0.654598
20
0.624086
11
0.656731
21
0.620893
0
LINE
8
BLACK
6
CONTINUOUS
10
0.656731
20
0.620893
11
0.65748
21
0.617126
0
LINE
8
BLACK
6
CONTINUOUS
10
0.65748
20
0.617126
11
0.65748
21
0.597441
0
LINE
8
BLACK
6
CONTINUOUS
10
0.65748
20
0.597441
11
0.656731
21
0.593674
0
LINE
8
BLACK
6
CONTINUOUS
10
0.656731
20
0.593674
11
0.654598
21
0.590481
0
LINE
8
BLACK
6
CONTINUOUS
10
0.654598
20
0.590481
11
0.651404
21
0.588348
0
LINE
8
BLACK
6
CONTINUOUS
10
0.651404
20
0.588348
11
0.647638
21
0.587598
0
LINE
8
BLACK
6
CONTINUOUS
10
0.647638
20
0.587598
11
0.610236
21
0.587598
0
LINE
8
BLACK
6
CONTINUOUS
10
0.610236
20
0.587598
11
0.60647
21
0.588348
0
LINE
8
BLACK
6
CONTINUOUS
10
0.60647
20
0.588348
11
0.603276
21
0.590481
0
LINE
8
BLACK
6
CONTINUOUS
10
0.603276
20
0.590481
11
0.601143
21
0.593674
0
LINE
8
BLACK
6
CONTINUOUS
10
0.601143
20
0.593674
11
0.600394
21
0.597441
0
LINE
8
BLACK
6
CONTINUOUS
10
0.600394
20
0.597441
11
0.600394
21
0.617126
0
LINE
8
BLACK
6
CONTINUOUS
10
0.600394
20
0.617126
11
0.601143
21
0.620893
0
LINE
8
BLACK
6
CONTINUOUS
10
0.601143
20
0.620893
11
0.603276
21
0.624086
0
LINE
8
BLACK
6
CONTINUOUS
10
0.603276
20
0.624086
11
0.60647
21
0.626219
0
LINE
8
BLACK
6
CONTINUOUS
10
0.60647
20
0.626219
11
0.610236
21
0.626969
0
LINE
8
BLACK
6
CONTINUOUS
10
0.610236
20
0.626969
11
0.647638
21
0.626969
0
LINE
8
BLACK
6
CONTINUOUS
10
0.647638
20
0.626969
11
0.651404
21
0.626219
0
LINE
8
BLACK
6
CONTINUOUS
10
0.73605
20
0.626219
11
0.739243
21
0.624086
0
LINE
8
BLACK
6
CONTINUOUS
10
0.739243
20
0.624086
11
0.741377
21
0.620893
0
LINE
8
BLACK
6
CONTINUOUS
10
0.741377
20
0.620893
11
0.742126
21
0.617126
0
LINE
8
BLACK
6
CONTINUOUS
10
0.742126
20
0.617126
11
0.742126
21
0.597441
0
LINE
8
BLACK
6
CONTINUOUS
10
0.742126
20
0.597441
11
0.741377
21
0.593674
0
LINE
8
BLACK
6
CONTINUOUS
10
0.741377
20
0.593674
11
0.739243
21
0.590481
0
LINE
8
BLACK
6
CONTINUOUS
10
0.739243
20
0.590481
11
0.73605
21
0.588348
0
LINE
8
BLACK
6
CONTINUOUS
10
0.73605
20
0.588348
11
0.732283
21
0.587598
0
LINE
8
BLACK
6
CONTINUOUS
10
0.732283
20
0.587598
11
0.694882
21
0.587598
0
LINE
8
BLACK
6
CONTINUOUS
10
0.694882
20
0.587598
11
0.691115
21
0.588348
0
LINE
8
BLACK
6
CONTINUOUS
10
0.691115
20
0.588348
11
0.687922
21
0.590481
0
LINE
8
BLACK
6
CONTINUOUS
10
0.687922
20
0.590481
11
0.685789
21
0.593674
0
LINE
8
BLACK
6
CONTINUOUS
10
0.685789
20
0.593674
11
0.685039
21
0.597441
0
LINE
8
BLACK
6
CONTINUOUS
10
0.685039
20
0.597441
11
0.685039
21
0.617126
0
LINE
8
BLACK
6
CONTINUOUS
10
0.685039
20
0.617126
11
0.685789
21
0.620893
0
LINE
8
BLACK
6
CONTINUOUS
10
0.685789
20
0.620893
11
0.687922
21
0.624086
0
LINE
8
BLACK
6
CONTINUOUS
10
0.687922
20
0.624086
11
0.691115
21
0.626219
0
LINE
8
BLACK
6
CONTINUOUS
10
0.691115
20
0.626219
11
0.694882
21
0.626969
0
LINE
8
BLACK
6
CONTINUOUS
10
0.694882
20
0.626969
11
0.732283
21
0.626969
0
LINE
8
BLACK
6
CONTINUOUS
10
0.732283
20
0.626969
11
0.73605
21
0.626219
0
LINE
8
BLACK
6
CONTINUOUS
10
0.350669
20
0.62748
11
0.290669
21
0.62748
0
LINE
8
BLACK
6
CONTINUOUS
10
0.290669
20
0.62748
11
0.290669
21
0.68748
0
LINE
8
BLACK
6
CONTINUOUS
10
0.290669
20
0.68748
11
0.350669
21
0.68748
0
LINE
8
BLACK
6
CONTINUOUS
10
0.350669
20
0.68748
11
0.350669
21
0.62748
0
LINE
8
BLACK
6
CONTINUOUS
10
0.450669
20
0.62748
11
0.390669
21
0.62748
0
LINE
8
BLACK
6
CONTINUOUS
10
0.390669
20
0.62748
11
0.390669
21
0.68748
0
LINE
8
BLACK
6
CONTINUOUS
10
0.390669
20
0.68748
11
0.450669
21
0.68748
0
LINE
8
BLACK
6
CONTINUOUS
10
0.450669
20
0.68748
11
0.450669
21
0.62748
0
LINE
8
BLACK
6
CONTINUOUS
10
0.550669
20
0.62748
11
0.490669
21
0.62748
0
LINE
8
BLACK
6
CONTINUOUS
10
0.490669
20
0.62748
11
0.490669
21
0.68748
0
LINE
8
BLACK
6
CONTINUOUS
10
0.490669
20
0.68748
11
0.550669
21
0.68748
0
LINE
8
BLACK
6
CONTINUOUS
10
0.550669
20
0.68748
11
0.550669
21
0.62748
0
LINE
8
BLACK
6
CONTINUOUS
10
0.893928
20
0.69596
11
0.895205
21
0.695107
0
LINE
8
BLACK
6
CONTINUOUS
10
0.895205
20
0.695107
11
0.896059
21
0.693829
0
LINE
8
BLACK
6
CONTINUOUS
10
0.896059
20
0.693829
11
0.896358
21
0.692323
0
LINE
8
BLACK
6
CONTINUOUS
10
0.896358
20
0.692323
11
0.896358
21
0.684449
0
LINE
8
BLACK
6
CONTINUOUS
10
0.896358
20
0.684449
11
0.896059
21
0.682942
0
LINE
8
BLACK
6
CONTINUOUS
10
0.896059
20
0.682942
11
0.895205
21
0.681665
0
LINE
8
BLACK
6
CONTINUOUS
10
0.895205
20
0.681665
11
0.893928
21
0.680811
0
LINE
8
BLACK
6
CONTINUOUS
10
0.893928
20
0.680811
11
0.892421
21
0.680512
0
LINE
8
BLACK
6
CONTINUOUS
10
0.892421
20
0.680512
11
0.842224
21
0.680512
0
LINE
8
BLACK
6
CONTINUOUS
10
0.842224
20
0.680512
11
0.840718
21
0.680811
0
LINE
8
BLACK
6
CONTINUOUS
10
0.840718
20
0.680811
11
0.839441
21
0.681665
0
LINE
8
BLACK
6
CONTINUOUS
10
0.839441
20
0.681665
11
0.838587
21
0.682942
0
LINE
8
BLACK
6
CONTINUOUS
10
0.838587
20
0.682942
11
0.838287
21
0.684449
0
LINE
8
BLACK
6
CONTINUOUS
10
0.838287
20
0.684449
11
0.838287
21
0.692323
0
LINE
8
BLACK
6
CONTINUOUS
10
0.838287
20
0.692323
11
0.838587
21
0.693829
0
LINE
8
BLACK
6
CONTINUOUS
10
0.838587
20
0.693829
11
0.839441
21
0.695107
0
LINE
8
BLACK
6
CONTINUOUS
10
0.839441
20
0.695107
11
0.840718
21
0.69596
0
LINE
8
BLACK
6
CONTINUOUS
10
0.840718
20
0.69596
11
0.842224
21
0.69626
0
LINE
8
BLACK
6
CONTINUOUS
10
0.842224
20
0.69626
11
0.892421
21
0.69626
0
LINE
8
BLACK
6
CONTINUOUS
10
0.892421
20
0.69626
11
0.893928
21
0.69596
0
LINE
8
BLACK
6
CONTINUOUS
10
1.11932
20
0.69596
11
1.1206
21
0.695107
0
LINE
8
BLACK
6
CONTINUOUS
10
1.1206
20
0.695107
11
1.12145
21
0.693829
0
LINE
8
BLACK
6
CONTINUOUS
10
1.12145
20
0.693829
11
1.12175
21
0.692323
0
LINE
8
BLACK
6
CONTINUOUS
10
1.12175
20
0.692323
11
1.12175
21
0.684449
0
LINE
8
BLACK
6
CONTINUOUS
10
1.12175
20
0.684449
11
1.12145
21
0.682942
0
LINE
8
BLACK
6
CONTINUOUS
10
1.12145
20
0.682942
11
1.1206
21
0.681665
0
LINE
8
BLACK
6
CONTINUOUS
10
1.1206
20
0.681665
11
1.11932
21
0.680811
0
LINE
8
BLACK
6
CONTINUOUS
10
1.11932
20
0.680811
11
1.11781
21
0.680512
0
LINE
8
BLACK
6
CONTINUOUS
10
1.11781
20
0.680512
11
1.06762
21
0.680512
0
LINE
8
BLACK
6
CONTINUOUS
10
1.06762
20
0.680512
11
1.06611
21
0.680811
0
LINE
8
BLACK
6
CONTINUOUS
10
1.06611
20
0.680811
11
1.06483
21
0.681665
0
LINE
8
BLACK
6
CONTINUOUS
10
1.06483
20
0.681665
11
1.06398
21
0.682942
0
LINE
8
BLACK
6
CONTINUOUS
10
1.06398
20
0.682942
11
1.06368
21
0.684449
0
LINE
8
BLACK
6
CONTINUOUS
10
1.06368
20
0.684449
11
1.06368
21
0.692323
0
LINE
8
BLACK
6
CONTINUOUS
10
1.06368
20
0.692323
11
1.06398
21
0.693829
0
LINE
8
BLACK
6
CONTINUOUS
10
1.06398
20
0.693829
11
1.06483
21
0.695107
0
LINE
8
BLACK
6
CONTINUOUS
10
1.06483
20
0.695107
11
1.06611
21
0.69596
0
LINE
8
BLACK
6
CONTINUOUS
10
1.06611
20
0.69596
11
1.06762
21
0.69626
0
LINE
8
BLACK
6
CONTINUOUS
10
1.06762
20
0.69626
11
1.11781
21
0.69626
0
LINE
8
BLACK
6
CONTINUOUS
10
1.11781
20
0.69626
11
1.11932
21
0.69596
0
LINE
8
BLACK
6
CONTINUOUS
10
0.703767
20
0.738818
11
0.70696
21
0.736684
0
LINE
8
BLACK
6
CONTINUOUS
10
0.70696
20
0.736684
11
0.709093
21
0.733491
0
LINE
8
BLACK
6
CONTINUOUS
10
0.709093
20
0.733491
11
0.709843
21
0.729724
0
LINE
8
BLACK
6
CONTINUOUS
10
0.709843
20
0.729724
11
0.709843
21
0.692323
0
LINE
8
BLACK
6
CONTINUOUS
10
0.709843
20
0.692323
11
0.709093
21
0.688556
0
LINE
8
BLACK
6
CONTINUOUS
10
0.709093
20
0.688556
11
0.70696
21
0.685363
0
LINE
8
BLACK
6
CONTINUOUS
10
0.70696
20
0.685363
11
0.703767
21
0.68323
0
LINE
8
BLACK
6
CONTINUOUS
10
0.703767
20
0.68323
11
0.7
21
0.68248
0
LINE
8
BLACK
6
CONTINUOUS
10
0.7
20
0.68248
11
0.680315
21
0.68248
0
LINE
8
BLACK
6
CONTINUOUS
10
0.680315
20
0.68248
11
0.676548
21
0.68323
0
LINE
8
BLACK
6
CONTINUOUS
10
0.676548
20
0.68323
11
0.673355
21
0.685363
0
LINE
8
BLACK
6
CONTINUOUS
10
0.673355
20
0.685363
11
0.671222
21
0.688556
0
LINE
8
BLACK
6
CONTINUOUS
10
0.671222
20
0.688556
11
0.670472
21
0.692323
0
LINE
8
BLACK
6
CONTINUOUS
10
0.670472
20
0.692323
11
0.670472
21
0.729724
0
LINE
8
BLACK
6
CONTINUOUS
10
0.670472
20
0.729724
11
0.671222
21
0.733491
0
LINE
8
BLACK
6
CONTINUOUS
10
0.671222
20
0.733491
11
0.673355
21
0.736684
0
LINE
8
BLACK
6
CONTINUOUS
10
0.673355
20
0.736684
11
0.676548
21
0.738818
0
LINE
8
BLACK
6
CONTINUOUS
10
0.676548
20
0.738818
11
0.680315
21
0.739567
0
LINE
8
BLACK
6
CONTINUOUS
10
0.680315
20
0.739567
11
0.7
21
0.739567
0
LINE
8
BLACK
6
CONTINUOUS
10
0.7
20
0.739567
11
0.703767
21
0.738818
0
LINE
8
BLACK
6
CONTINUOUS
10
0.77857
20
0.738818
11
0.781763
21
0.736684
0
LINE
8
BLACK
6
CONTINUOUS
10
0.781763
20
0.736684
11
0.783896
21
0.733491
0
LINE
8
BLACK
6
CONTINUOUS
10
0.783896
20
0.733491
11
0.784646
21
0.729724
0
LINE
8
BLACK
6
CONTINUOUS
10
0.784646
20
0.729724
11
0.784646
21
0.692323
0
LINE
8
BLACK
6
CONTINUOUS
10
0.784646
20
0.692323
11
0.783896
21
0.688556
0
LINE
8
BLACK
6
CONTINUOUS
10
0.783896
20
0.688556
11
0.781763
21
0.685363
0
LINE
8
BLACK
6
CONTINUOUS
10
0.781763
20
0.685363
11
0.77857
21
0.68323
0
LINE
8
BLACK
6
CONTINUOUS
10
0.77857
20
0.68323
11
0.774803
21
0.68248
0
LINE
8
BLACK
6
CONTINUOUS
10
0.774803
20
0.68248
11
0.755118
21
0.68248
0
LINE
8
BLACK
6
CONTINUOUS
10
0.755118
20
0.68248
11
0.751352
21
0.68323
0
LINE
8
BLACK
6
CONTINUOUS
10
0.751352
20
0.68323
11
0.748158
21
0.685363
0
LINE
8
BLACK
6
CONTINUOUS
10
0.748158
20
0.685363
11
0.746025
21
0.688556
0
LINE
8
BLACK
6
CONTINUOUS
10
0.746025
20
0.688556
11
0.745276
21
0.692323
0
LINE
8
BLACK
6
CONTINUOUS
10
0.745276
20
0.692323
11
0.745276
21
0.729724
0
LINE
8
BLACK
6
CONTINUOUS
10
0.745276
20
0.729724
11
0.746025
21
0.733491
0
LINE
8
BLACK
6
CONTINUOUS
10
0.746025
20
0.733491
11
0.748158
21
0.736684
0
LINE
8
BLACK
6
CONTINUOUS
10
0.748158
20
0.736684
11
0.751352
21
0.738818
0
LINE
8
BLACK
6
CONTINUOUS
10
0.751352
20
0.738818
11
0.755118
21
0.739567
0
LINE
8
BLACK
6
CONTINUOUS
10
0.755118
20
0.739567
11
0.774803
21
0.739567
0
LINE
8
BLACK
6
CONTINUOUS
10
0.774803
20
0.739567
11
0.77857
21
0.738818
0
LINE
8
BLACK
6
CONTINUOUS
10
0.893928
20
0.721551
11
0.895205
21
0.720697
0
LINE
8
BLACK
6
CONTINUOUS
10
0.895205
20
0.720697
11
0.896059
21
0.71942
0
LINE
8
BLACK
6
CONTINUOUS
10
0.896059
20
0.71942
11
0.896358
21
0.717913
0
LINE
8
BLACK
6
CONTINUOUS
10
0.896358
20
0.717913
11
0.896358
21
0.710039
0
LINE
8
BLACK
6
CONTINUOUS
10
0.896358
20
0.710039
11
0.896059
21
0.708533
0
LINE
8
BLACK
6
CONTINUOUS
10
0.896059
20
0.708533
11
0.895205
21
0.707255
0
LINE
8
BLACK
6
CONTINUOUS
10
0.895205
20
0.707255
11
0.893928
21
0.706402
0
LINE
8
BLACK
6
CONTINUOUS
10
0.893928
20
0.706402
11
0.892421
21
0.706102
0
LINE
8
BLACK
6
CONTINUOUS
10
0.892421
20
0.706102
11
0.842224
21
0.706102
0
LINE
8
BLACK
6
CONTINUOUS
10
0.842224
20
0.706102
11
0.840718
21
0.706402
0
LINE
8
BLACK
6
CONTINUOUS
10
0.840718
20
0.706402
11
0.839441
21
0.707255
0
LINE
8
BLACK
6
CONTINUOUS
10
0.839441
20
0.707255
11
0.838587
21
0.708533
0
LINE
8
BLACK
6
CONTINUOUS
10
0.838587
20
0.708533
11
0.838287
21
0.710039
0
LINE
8
BLACK
6
CONTINUOUS
10
0.838287
20
0.710039
11
0.838287
21
0.717913
0
LINE
8
BLACK
6
CONTINUOUS
10
0.838287
20
0.717913
11
0.838587
21
0.71942
0
LINE
8
BLACK
6
CONTINUOUS
10
0.838587
20
0.71942
11
0.839441
21
0.720697
0
LINE
8
BLACK
6
CONTINUOUS
10
0.839441
20
0.720697
11
0.840718
21
0.721551
0
LINE
8
BLACK
6
CONTINUOUS
10
0.840718
20
0.721551
11
0.842224
21
0.72185
0
LINE
8
BLACK
6
CONTINUOUS
10
0.842224
20
0.72185
11
0.892421
21
0.72185
0
LINE
8
BLACK
6
CONTINUOUS
10
0.892421
20
0.72185
11
0.893928
21
0.721551
0
LINE
8
BLACK
6
CONTINUOUS
10
1.11932
20
0.721551
11
1.1206
21
0.720697
0
LINE
8
BLACK
6
CONTINUOUS
10
1.1206
20
0.720697
11
1.12145
21
0.71942
0
LINE
8
BLACK
6
CONTINUOUS
10
1.12145
20
0.71942
11
1.12175
21
0.717913
0
LINE
8
BLACK
6
CONTINUOUS
10
1.12175
20
0.717913
11
1.12175
21
0.710039
0
LINE
8
BLACK
6
CONTINUOUS
10
1.12175
20
0.710039
11
1.12145
21
0.708533
0
LINE
8
BLACK
6
CONTINUOUS
10
1.12145
20
0.708533
11
1.1206
21
0.707255
0
LINE
8
BLACK
6
CONTINUOUS
10
1.1206
20
0.707255
11
1.11932
21
0.706402
0
LINE
8
BLACK
6
CONTINUOUS
10
1.11932
20
0.706402
11
1.11781
21
0.706102
0
LINE
8
BLACK
6
CONTINUOUS
10
1.11781
20
0.706102
11
1.06762
21
0.706102
0
LINE
8
BLACK
6
CONTINUOUS
10
1.06762
20
0.706102
11
1.06611
21
0.706402
0
LINE
8
BLACK
6
CONTINUOUS
10
1.06611
20
0.706402
11
1.06483
21
0.707255
0
LINE
8
BLACK
6
CONTINUOUS
10
1.06483
20
0.707255
11
1.06398
21
0.708533
0
LINE
8
BLACK
6
CONTINUOUS
10
1.06398
20
0.708533
11
1.06368
21
0.710039
0
LINE
8
BLACK
6
CONTINUOUS
10
1.06368
20
0.710039
11
1.06368
21
0.717913
0
LINE
8
BLACK
6
CONTINUOUS
10
1.06368
20
0.717913
11
1.06398
21
0.71942
0
LINE
8
BLACK
6
CONTINUOUS
10
1.06398
20
0.71942
11
1.06483
21
0.720697
0
LINE
8
BLACK
6
CONTINUOUS
10
1.06483
20
0.720697
11
1.06611
21
0.721551
0
LINE
8
BLACK
6
CONTINUOUS
10
1.06611
20
0.721551
11
1.06762
21
0.72185
0
LINE
8
BLACK
6
CONTINUOUS
10
1.06762
20
0.72185
11
1.11781
21
0.72185
0
LINE
8
BLACK
6
CONTINUOUS
10
1.11781
20
0.72185
11
1.11932
21
0.721551
0
LINE
8
BLACK
6
CONTINUOUS
10
0.639593
20
0.755156
11
0.642786
21
0.753023
0
LINE
8
BLACK
6
CONTINUOUS
10
0.642786
20
0.753023
11
0.64492
21
0.74983
0
LINE
8
BLACK
6
CONTINUOUS
10
0.64492
20
0.74983
11
0.645669
21
0.746063
0
LINE
8
BLACK
6
CONTINUOUS
10
0.645669
20
0.746063
11
0.645669
21
0.726378
0
LINE
8
BLACK
6
CONTINUOUS
10
0.645669
20
0.726378
11
0.64492
21
0.722611
0
LINE
8
BLACK
6
CONTINUOUS
10
0.64492
20
0.722611
11
0.642786
21
0.719418
0
LINE
8
BLACK
6
CONTINUOUS
10
0.642786
20
0.719418
11
0.639593
21
0.717285
0
LINE
8
BLACK
6
CONTINUOUS
10
0.639593
20
0.717285
11
0.635827
21
0.716535
0
LINE
8
BLACK
6
CONTINUOUS
10
0.635827
20
0.716535
11
0.598425
21
0.716535
0
LINE
8
BLACK
6
CONTINUOUS
10
0.598425
20
0.716535
11
0.594659
21
0.717285
0
LINE
8
BLACK
6
CONTINUOUS
10
0.594659
20
0.717285
11
0.591465
21
0.719418
0
LINE
8
BLACK
6
CONTINUOUS
10
0.591465
20
0.719418
11
0.589332
21
0.722611
0
LINE
8
BLACK
6
CONTINUOUS
10
0.589332
20
0.722611
11
0.588583
21
0.726378
0
LINE
8
BLACK
6
CONTINUOUS
10
0.588583
20
0.726378
11
0.588583
21
0.746063
0
LINE
8
BLACK
6
CONTINUOUS
10
0.588583
20
0.746063
11
0.589332
21
0.74983
0
LINE
8
BLACK
6
CONTINUOUS
10
0.589332
20
0.74983
11
0.591465
21
0.753023
0
LINE
8
BLACK
6
CONTINUOUS
10
0.591465
20
0.753023
11
0.594659
21
0.755156
0
LINE
8
BLACK
6
CONTINUOUS
10
0.594659
20
0.755156
11
0.598425
21
0.755906
0
LINE
8
BLACK
6
CONTINUOUS
10
0.598425
20
0.755906
11
0.635827
21
0.755906
0
LINE
8
BLACK
6
CONTINUOUS
10
0.635827
20
0.755906
11
0.639593
21
0.755156
0
LINE
8
BLACK
6
CONTINUOUS
10
1.04058
20
0.932377
11
1.04186
21
0.931524
0
LINE
8
BLACK
6
CONTINUOUS
10
1.04186
20
0.931524
11
1.04271
21
0.930247
0
LINE
8
BLACK
6
CONTINUOUS
10
1.04271
20
0.930247
11
1.04301
21
0.92874
0
LINE
8
BLACK
6
CONTINUOUS
10
1.04301
20
0.92874
11
1.04301
21
0.729528
0
LINE
8
BLACK
6
CONTINUOUS
10
1.04301
20
0.729528
11
1.04271
21
0.728021
0
LINE
8
BLACK
6
CONTINUOUS
10
1.04271
20
0.728021
11
1.04186
21
0.726744
0
LINE
8
BLACK
6
CONTINUOUS
10
1.04186
20
0.726744
11
1.04058
21
0.72589
0
LINE
8
BLACK
6
CONTINUOUS
10
1.04058
20
0.72589
11
1.03907
21
0.725591
0
LINE
8
BLACK
6
CONTINUOUS
10
1.03907
20
0.725591
11
0.920965
21
0.725591
0
LINE
8
BLACK
6
CONTINUOUS
10
0.920965
20
0.725591
11
0.919458
21
0.72589
0
LINE
8
BLACK
6
CONTINUOUS
10
0.919458
20
0.72589
11
0.918181
21
0.726744
0
LINE
8
BLACK
6
CONTINUOUS
10
0.918181
20
0.726744
11
0.917327
21
0.728021
0
LINE
8
BLACK
6
CONTINUOUS
10
0.917327
20
0.728021
11
0.917028
21
0.729528
0
LINE
8
BLACK
6
CONTINUOUS
10
0.917028
20
0.729528
11
0.917028
21
0.92874
0
LINE
8
BLACK
6
CONTINUOUS
10
0.917028
20
0.92874
11
0.917327
21
0.930247
0
LINE
8
BLACK
6
CONTINUOUS
10
0.917327
20
0.930247
11
0.918181
21
0.931524
0
LINE
8
BLACK
6
CONTINUOUS
10
0.918181
20
0.931524
11
0.919458
21
0.932377
0
LINE
8
BLACK
6
CONTINUOUS
10
0.919458
20
0.932377
11
0.920965
21
0.932677
0
LINE
8
BLACK
6
CONTINUOUS
10
0.920965
20
0.932677
11
1.03907
21
0.932677
0
LINE
8
BLACK
6
CONTINUOUS
10
1.03907
20
0.932677
11
1.04058
21
0.932377
0
LINE
8
BLACK
6
CONTINUOUS
10
0.350669
20
0.72748
11
0.290669
21
0.72748
0
LINE
8
BLACK
6
CONTINUOUS
10
0.290669
20
0.72748
11
0.290669
21
0.78748
0
LINE
8
BLACK
6
CONTINUOUS
10
0.290669
20
0.78748
11
0.350669
21
0.78748
0
LINE
8
BLACK
6
CONTINUOUS
10
0.350669
20
0.78748
11
0.350669
21
0.72748
0
LINE
8
BLACK
6
CONTINUOUS
10
0.450669
20
0.72748
11
0.390669
21
0.72748
0
LINE
8
BLACK
6
CONTINUOUS
10
0.390669
20
0.72748
11
0.390669
21
0.78748
0
LINE
8
BLACK
6
CONTINUOUS
10
0.390669
20
0.78748
11
0.450669
21
0.78748
0
LINE
8
BLACK
6
CONTINUOUS
10
0.450669
20
0.78748
11
0.450669
21
0.72748
0
LINE
8
BLACK
6
CONTINUOUS
10
0.550669
20
0.72748
11
0.490669
21
0.72748
0
LINE
8
BLACK
6
CONTINUOUS
10
0.490669
20
0.72748
11
0.490669
21
0.78748
0
LINE
8
BLACK
6
CONTINUOUS
10
0.490669
20
0.78748
11
0.550669
21
0.78748
0
LINE
8
BLACK
6
CONTINUOUS
10
0.550669
20
0.78748
11
0.550669
21
0.72748
0
LINE
8
BLACK
6
CONTINUOUS
10
0.893928
20
0.747141
11
0.895205
21
0.746288
0
LINE
8
BLACK
6
CONTINUOUS
10
0.895205
20
0.746288
11
0.896059
21
0.745011
0
LINE
8
BLACK
6
CONTINUOUS
10
0.896059
20
0.745011
11
0.896358
21
0.743504
0
LINE
8
BLACK
6
CONTINUOUS
10
0.896358
20
0.743504
11
0.896358
21
0.73563
0
LINE
8
BLACK
6
CONTINUOUS
10
0.896358
20
0.73563
11
0.896059
21
0.734123
0
LINE
8
BLACK
6
CONTINUOUS
10
0.896059
20
0.734123
11
0.895205
21
0.732846
0
LINE
8
BLACK
6
CONTINUOUS
10
0.895205
20
0.732846
11
0.893928
21
0.731993
0
LINE
8
BLACK
6
CONTINUOUS
10
0.893928
20
0.731993
11
0.892421
21
0.731693
0
LINE
8
BLACK
6
CONTINUOUS
10
0.892421
20
0.731693
11
0.842224
21
0.731693
0
LINE
8
BLACK
6
CONTINUOUS
10
0.842224
20
0.731693
11
0.840718
21
0.731993
0
LINE
8
BLACK
6
CONTINUOUS
10
0.840718
20
0.731993
11
0.839441
21
0.732846
0
LINE
8
BLACK
6
CONTINUOUS
10
0.839441
20
0.732846
11
0.838587
21
0.734123
0
LINE
8
BLACK
6
CONTINUOUS
10
0.838587
20
0.734123
11
0.838287
21
0.73563
0
LINE
8
BLACK
6
CONTINUOUS
10
0.838287
20
0.73563
11
0.838287
21
0.743504
0
LINE
8
BLACK
6
CONTINUOUS
10
0.838287
20
0.743504
11
0.838587
21
0.745011
0
LINE
8
BLACK
6
CONTINUOUS
10
0.838587
20
0.745011
11
0.839441
21
0.746288
0
LINE
8
BLACK
6
CONTINUOUS
10
0.839441
20
0.746288
11
0.840718
21
0.747141
0
LINE
8
BLACK
6
CONTINUOUS
10
0.840718
20
0.747141
11
0.842224
21
0.747441
0
LINE
8
BLACK
6
CONTINUOUS
10
0.842224
20
0.747441
11
0.892421
21
0.747441
0
LINE
8
BLACK
6
CONTINUOUS
10
0.892421
20
0.747441
11
0.893928
21
0.747141
0
LINE
8
BLACK
6
CONTINUOUS
10
1.11932
20
0.747141
11
1.1206
21
0.746288
0
LINE
8
BLACK
6
CONTINUOUS
10
1.1206
20
0.746288
11
1.12145
21
0.745011
0
LINE
8
BLACK
6
CONTINUOUS
10
1.12145
20
0.745011
11
1.12175
21
0.743504
0
LINE
8
BLACK
6
CONTINUOUS
10
1.12175
20
0.743504
11
1.12175
21
0.73563
0
LINE
8
BLACK
6
CONTINUOUS
10
1.12175
20
0.73563
11
1.12145
21
0.734123
0
LINE
8
BLACK
6
CONTINUOUS
10
1.12145
20
0.734123
11
1.1206
21
0.732846
0
LINE
8
BLACK
6
CONTINUOUS
10
1.1206
20
0.732846
11
1.11932
21
0.731993
0
LINE
8
BLACK
6
CONTINUOUS
10
1.11932
20
0.731993
11
1.11781
21
0.731693
0
LINE
8
BLACK
6
CONTINUOUS
10
1.11781
20
0.731693
11
1.06762
21
0.731693
0
LINE
8
BLACK
6
CONTINUOUS
10
1.06762
20
0.731693
11
1.06611
21
0.731993
0
LINE
8
BLACK
6
CONTINUOUS
10
1.06611
20
0.731993
11
1.06483
21
0.732846
0
LINE
8
BLACK
6
CONTINUOUS
10
1.06483
20
0.732846
11
1.06398
21
0.734123
0
LINE
8
BLACK
6
CONTINUOUS
10
1.06398
20
0.734123
11
1.06368
21
0.73563
0
LINE
8
BLACK
6
CONTINUOUS
10
1.06368
20
0.73563
11
1.06368
21
0.743504
0
LINE
8
BLACK
6
CONTINUOUS
10
1.06368
20
0.743504
11
1.06398
21
0.745011
0
LINE
8
BLACK
6
CONTINUOUS
10
1.06398
20
0.745011
11
1.06483
21
0.746288
0
LINE
8
BLACK
6
CONTINUOUS
10
1.06483
20
0.746288
11
1.06611
21
0.747141
0
LINE
8
BLACK
6
CONTINUOUS
10
1.06611
20
0.747141
11
1.06762
21
0.747441
0
LINE
8
BLACK
6
CONTINUOUS
10
1.06762
20
0.747441
11
1.11781
21
0.747441
0
LINE
8
BLACK
6
CONTINUOUS
10
1.11781
20
0.747441
11
1.11932
21
0.747141
0
LINE
8
BLACK
6
CONTINUOUS
10
1.25972
20
0.737717
11
1.19972
21
0.737717
0
LINE
8
BLACK
6
CONTINUOUS
10
1.19972
20
0.737717
11
1.19972
21
0.797717
0
LINE
8
BLACK
6
CONTINUOUS
10
1.19972
20
0.797717
11
1.25972
21
0.797717
0
LINE
8
BLACK
6
CONTINUOUS
10
1.25972
20
0.797717
11
1.25972
21
0.737717
0
LINE
8
BLACK
6
CONTINUOUS
10
1.35972
20
0.737717
11
1.29972
21
0.737717
0
LINE
8
BLACK
6
CONTINUOUS
10
1.29972
20
0.737717
11
1.29972
21
0.797717
0
LINE
8
BLACK
6
CONTINUOUS
10
1.29972
20
0.797717
11
1.35972
21
0.797717
0
LINE
8
BLACK
6
CONTINUOUS
10
1.35972
20
0.797717
11
1.35972
21
0.737717
0
LINE
8
BLACK
6
CONTINUOUS
10
0.893928
20
0.772732
11
0.895205
21
0.771878
0
LINE
8
BLACK
6
CONTINUOUS
10
0.895205
20
0.771878
11
0.896059
21
0.770601
0
LINE
8
BLACK
6
CONTINUOUS
10
0.896059
20
0.770601
11
0.896358
21
0.769094
0
LINE
8
BLACK
6
CONTINUOUS
10
0.896358
20
0.769094
11
0.896358
21
0.76122
0
LINE
8
BLACK
6
CONTINUOUS
10
0.896358
20
0.76122
11
0.896059
21
0.759714
0
LINE
8
BLACK
6
CONTINUOUS
10
0.896059
20
0.759714
11
0.895205
21
0.758437
0
LINE
8
BLACK
6
CONTINUOUS
10
0.895205
20
0.758437
11
0.893928
21
0.757583
0
LINE
8
BLACK
6
CONTINUOUS
10
0.893928
20
0.757583
11
0.892421
21
0.757283
0
LINE
8
BLACK
6
CONTINUOUS
10
0.892421
20
0.757283
11
0.842224
21
0.757283
0
LINE
8
BLACK
6
CONTINUOUS
10
0.842224
20
0.757283
11
0.840718
21
0.757583
0
LINE
8
BLACK
6
CONTINUOUS
10
0.840718
20
0.757583
11
0.839441
21
0.758437
0
LINE
8
BLACK
6
CONTINUOUS
10
0.839441
20
0.758437
11
0.838587
21
0.759714
0
LINE
8
BLACK
6
CONTINUOUS
10
0.838587
20
0.759714
11
0.838287
21
0.76122
0
LINE
8
BLACK
6
CONTINUOUS
10
0.838287
20
0.76122
11
0.838287
21
0.769094
0
LINE
8
BLACK
6
CONTINUOUS
10
0.838287
20
0.769094
11
0.838587
21
0.770601
0
LINE
8
BLACK
6
CONTINUOUS
10
0.838587
20
0.770601
11
0.839441
21
0.771878
0
LINE
8
BLACK
6
CONTINUOUS
10
0.839441
20
0.771878
11
0.840718
21
0.772732
0
LINE
8
BLACK
6
CONTINUOUS
10
0.840718
20
0.772732
11
0.842224
21
0.773031
0
LINE
8
BLACK
6
CONTINUOUS
10
0.842224
20
0.773031
11
0.892421
21
0.773031
0
LINE
8
BLACK
6
CONTINUOUS
10
0.892421
20
0.773031
11
0.893928
21
0.772732
0
LINE
8
BLACK
6
CONTINUOUS
10
1.11932
20
0.772732
11
1.1206
21
0.771878
0
LINE
8
BLACK
6
CONTINUOUS
10
1.1206
20
0.771878
11
1.12145
21
0.770601
0
LINE
8
BLACK
6
CONTINUOUS
10
1.12145
20
0.770601
11
1.12175
21
0.769094
0
LINE
8
BLACK
6
CONTINUOUS
10
1.12175
20
0.769094
11
1.12175
21
0.76122
0
LINE
8
BLACK
6
CONTINUOUS
10
1.12175
20
0.76122
11
1.12145
21
0.759714
0
LINE
8
BLACK
6
CONTINUOUS
10
1.12145
20
0.759714
11
1.1206
21
0.758437
0
LINE
8
BLACK
6
CONTINUOUS
10
1.1206
20
0.758437
11
1.11932
21
0.757583
0
LINE
8
BLACK
6
CONTINUOUS
10
1.11932
20
0.757583
11
1.11781
21
0.757283
0
LINE
8
BLACK
6
CONTINUOUS
10
1.11781
20
0.757283
11
1.06762
21
0.757283
0
LINE
8
BLACK
6
CONTINUOUS
10
1.06762
20
0.757283
11
1.06611
21
0.757583
0
LINE
8
BLACK
6
CONTINUOUS
10
1.06611
20
0.757583
11
1.06483
21
0.758437
0
LINE
8
BLACK
6
CONTINUOUS
10
1.06483
20
0.758437
11
1.06398
21
0.759714
0
LINE
8
BLACK
6
CONTINUOUS
10
1.06398
20
0.759714
11
1.06368
21
0.76122
0
LINE
8
BLACK
6
CONTINUOUS
10
1.06368
20
0.76122
11
1.06368
21
0.769094
0
LINE
8
BLACK
6
CONTINUOUS
10
1.06368
20
0.769094
11
1.06398
21
0.770601
0
LINE
8
BLACK
6
CONTINUOUS
10
1.06398
20
0.770601
11
1.06483
21
0.771878
0
LINE
8
BLACK
6
CONTINUOUS
10
1.06483
20
0.771878
11
1.06611
21
0.772732
0
LINE
8
BLACK
6
CONTINUOUS
10
1.06611
20
0.772732
11
1.06762
21
0.773031
0
LINE
8
BLACK
6
CONTINUOUS
10
1.06762
20
0.773031
11
1.11781
21
0.773031
0
LINE
8
BLACK
6
CONTINUOUS
10
1.11781
20
0.773031
11
1.11932
21
0.772732
0
LINE
8
BLACK
6
CONTINUOUS
10
0.703767
20
0.829369
11
0.70696
21
0.827235
0
LINE
8
BLACK
6
CONTINUOUS
10
0.70696
20
0.827235
11
0.709093
21
0.824042
0
LINE
8
BLACK
6
CONTINUOUS
10
0.709093
20
0.824042
11
0.709843
21
0.820276
0
LINE
8
BLACK
6
CONTINUOUS
10
0.709843
20
0.820276
11
0.709843
21
0.782874
0
LINE
8
BLACK
6
CONTINUOUS
10
0.709843
20
0.782874
11
0.709093
21
0.779107
0
LINE
8
BLACK
6
CONTINUOUS
10
0.709093
20
0.779107
11
0.70696
21
0.775914
0
LINE
8
BLACK
6
CONTINUOUS
10
0.70696
20
0.775914
11
0.703767
21
0.773781
0
LINE
8
BLACK
6
CONTINUOUS
10
0.703767
20
0.773781
11
0.7
21
0.773031
0
LINE
8
BLACK
6
CONTINUOUS
10
0.7
20
0.773031
11
0.680315
21
0.773031
0
LINE
8
BLACK
6
CONTINUOUS
10
0.680315
20
0.773031
11
0.676548
21
0.773781
0
LINE
8
BLACK
6
CONTINUOUS
10
0.676548
20
0.773781
11
0.673355
21
0.775914
0
LINE
8
BLACK
6
CONTINUOUS
10
0.673355
20
0.775914
11
0.671222
21
0.779107
0
LINE
8
BLACK
6
CONTINUOUS
10
0.671222
20
0.779107
11
0.670472
21
0.782874
0
LINE
8
BLACK
6
CONTINUOUS
10
0.670472
20
0.782874
11
0.670472
21
0.820276
0
LINE
8
BLACK
6
CONTINUOUS
10
0.670472
20
0.820276
11
0.671222
21
0.824042
0
LINE
8
BLACK
6
CONTINUOUS
10
0.671222
20
0.824042
11
0.673355
21
0.827235
0
LINE
8
BLACK
6
CONTINUOUS
10
0.673355
20
0.827235
11
0.676548
21
0.829369
0
LINE
8
BLACK
6
CONTINUOUS
10
0.676548
20
0.829369
11
0.680315
21
0.830118
0
LINE
8
BLACK
6
CONTINUOUS
10
0.680315
20
0.830118
11
0.7
21
0.830118
0
LINE
8
BLACK
6
CONTINUOUS
10
0.7
20
0.830118
11
0.703767
21
0.829369
0
LINE
8
BLACK
6
CONTINUOUS
10
0.77857
20
0.829369
11
0.781763
21
0.827235
0
LINE
8
BLACK
6
CONTINUOUS
10
0.781763
20
0.827235
11
0.783896
21
0.824042
0
LINE
8
BLACK
6
CONTINUOUS
10
0.783896
20
0.824042
11
0.784646
21
0.820276
0
LINE
8
BLACK
6
CONTINUOUS
10
0.784646
20
0.820276
11
0.784646
21
0.782874
0
LINE
8
BLACK
6
CONTINUOUS
10
0.784646
20
0.782874
11
0.783896
21
0.779107
0
LINE
8
BLACK
6
CONTINUOUS
10
0.783896
20
0.779107
11
0.781763
21
0.775914
0
LINE
8
BLACK
6
CONTINUOUS
10
0.781763
20
0.775914
11
0.77857
21
0.773781
0
LINE
8
BLACK
6
CONTINUOUS
10
0.77857
20
0.773781
11
0.774803
21
0.773031
0
LINE
8
BLACK
6
CONTINUOUS
10
0.774803
20
0.773031
11
0.755118
21
0.773031
0
LINE
8
BLACK
6
CONTINUOUS
10
0.755118
20
0.773031
11
0.751352
21
0.773781
0
LINE
8
BLACK
6
CONTINUOUS
10
0.751352
20
0.773781
11
0.748158
21
0.775914
0
LINE
8
BLACK
6
CONTINUOUS
10
0.748158
20
0.775914
11
0.746025
21
0.779107
0
LINE
8
BLACK
6
CONTINUOUS
10
0.746025
20
0.779107
11
0.745276
21
0.782874
0
LINE
8
BLACK
6
CONTINUOUS
10
0.745276
20
0.782874
11
0.745276
21
0.820276
0
LINE
8
BLACK
6
CONTINUOUS
10
0.745276
20
0.820276
11
0.746025
21
0.824042
0
LINE
8
BLACK
6
CONTINUOUS
10
0.746025
20
0.824042
11
0.748158
21
0.827235
0
LINE
8
BLACK
6
CONTINUOUS
10
0.748158
20
0.827235
11
0.751352
21
0.829369
0
LINE
8
BLACK
6
CONTINUOUS
10
0.751352
20
0.829369
11
0.755118
21
0.830118
0
LINE
8
BLACK
6
CONTINUOUS
10
0.755118
20
0.830118
11
0.774803
21
0.830118
0
LINE
8
BLACK
6
CONTINUOUS
10
0.774803
20
0.830118
11
0.77857
21
0.829369
0
LINE
8
BLACK
6
CONTINUOUS
10
1.83512
20
0.838383
11
1.84179
21
0.836802
0
LINE
8
BLACK
6
CONTINUOUS
10
1.84179
20
0.836802
11
1.84792
21
0.833725
0
LINE
8
BLACK
6
CONTINUOUS
10
1.84792
20
0.833725
11
1.85317
21
0.829318
0
LINE
8
BLACK
6
CONTINUOUS
10
1.85317
20
0.829318
11
1.85726
21
0.823819
0
LINE
8
BLACK
6
CONTINUOUS
10
1.85726
20
0.823819
11
1.85998
21
0.817524
0
LINE
8
BLACK
6
CONTINUOUS
10
1.85998
20
0.817524
11
1.86117
21
0.810772
0
LINE
8
BLACK
6
CONTINUOUS
10
1.86117
20
0.810772
11
1.86077
21
0.803928
0
LINE
8
BLACK
6
CONTINUOUS
10
1.86077
20
0.803928
11
1.85881
21
0.79736
0
LINE
8
BLACK
6
CONTINUOUS
10
1.85881
20
0.79736
11
1.85538
21
0.791422
0
LINE
8
BLACK
6
CONTINUOUS
10
1.85538
20
0.791422
11
1.85067
21
0.786436
0
LINE
8
BLACK
6
CONTINUOUS
10
1.85067
20
0.786436
11
1.84494
21
0.782668
0
LINE
8
BLACK
6
CONTINUOUS
10
1.84494
20
0.782668
11
1.8385
21
0.780323
0
LINE
8
BLACK
6
CONTINUOUS
10
1.8385
20
0.780323
11
1.83169
21
0.779528
0
LINE
8
BLACK
6
CONTINUOUS
10
1.83169
20
0.779528
11
1.77264
21
0.779528
0
LINE
8
BLACK
6
CONTINUOUS
10
1.77264
20
0.779528
11
1.76921
21
0.779727
0
LINE
8
BLACK
6
CONTINUOUS
10
1.76921
20
0.779727
11
1.76254
21
0.781308
0
LINE
8
BLACK
6
CONTINUOUS
10
1.76254
20
0.781308
11
1.75641
21
0.784385
0
LINE
8
BLACK
6
CONTINUOUS
10
1.75641
20
0.784385
11
1.75116
21
0.788792
0
LINE
8
BLACK
6
CONTINUOUS
10
1.75116
20
0.788792
11
1.74707
21
0.794291
0
LINE
8
BLACK
6
CONTINUOUS
10
1.74707
20
0.794291
11
1.74435
21
0.800587
0
LINE
8
BLACK
6
CONTINUOUS
10
1.74435
20
0.800587
11
1.74316
21
0.807338
0
LINE
8
BLACK
6
CONTINUOUS
10
1.74316
20
0.807338
11
1.74356
21
0.814183
0
LINE
8
BLACK
6
CONTINUOUS
10
1.74356
20
0.814183
11
1.74553
21
0.82075
0
LINE
8
BLACK
6
CONTINUOUS
10
1.74553
20
0.82075
11
1.74895
21
0.826688
0
LINE
8
BLACK
6
CONTINUOUS
10
1.74895
20
0.826688
11
1.75366
21
0.831675
0
LINE
8
BLACK
6
CONTINUOUS
10
1.75366
20
0.831675
11
1.75939
21
0.835442
0
LINE
8
BLACK
6
CONTINUOUS
10
1.75939
20
0.835442
11
1.76583
21
0.837787
0
LINE
8
BLACK
6
CONTINUOUS
10
1.76583
20
0.837787
11
1.77264
21
0.838583
0
LINE
8
BLACK
6
CONTINUOUS
10
1.77264
20
0.838583
11
1.83169
21
0.838583
0
LINE
8
BLACK
6
CONTINUOUS
10
1.83169
20
0.838583
11
1.83512
21
0.838383
0
LINE
8
BLACK
6
CONTINUOUS
10
0.893928
20
0.798322
11
0.895205
21
0.797469
0
LINE
8
BLACK
6
CONTINUOUS
10
0.895205
20
0.797469
11
0.896059
21
0.796192
0
LINE
8
BLACK
6
CONTINUOUS
10
0.896059
20
0.796192
11
0.896358
21
0.794685
0
LINE
8
BLACK
6
CONTINUOUS
10
0.896358
20
0.794685
11
0.896358
21
0.786811
0
LINE
8
BLACK
6
CONTINUOUS
10
0.896358
20
0.786811
11
0.896059
21
0.785304
0
LINE
8
BLACK
6
CONTINUOUS
10
0.896059
20
0.785304
11
0.895205
21
0.784027
0
LINE
8
BLACK
6
CONTINUOUS
10
0.895205
20
0.784027
11
0.893928
21
0.783174
0
LINE
8
BLACK
6
CONTINUOUS
10
0.893928
20
0.783174
11
0.892421
21
0.782874
0
LINE
8
BLACK
6
CONTINUOUS
10
0.892421
20
0.782874
11
0.842224
21
0.782874
0
LINE
8
BLACK
6
CONTINUOUS
10
0.842224
20
0.782874
11
0.840718
21
0.783174
0
LINE
8
BLACK
6
CONTINUOUS
10
0.840718
20
0.783174
11
0.839441
21
0.784027
0
LINE
8
BLACK
6
CONTINUOUS
10
0.839441
20
0.784027
11
0.838587
21
0.785304
0
LINE
8
BLACK
6
CONTINUOUS
10
0.838587
20
0.785304
11
0.838287
21
0.786811
0
LINE
8
BLACK
6
CONTINUOUS
10
0.838287
20
0.786811
11
0.838287
21
0.794685
0
LINE
8
BLACK
6
CONTINUOUS
10
0.838287
20
0.794685
11
0.838587
21
0.796192
0
LINE
8
BLACK
6
CONTINUOUS
10
0.838587
20
0.796192
11
0.839441
21
0.797469
0
LINE
8
BLACK
6
CONTINUOUS
10
0.839441
20
0.797469
11
0.840718
21
0.798322
0
LINE
8
BLACK
6
CONTINUOUS
10
0.840718
20
0.798322
11
0.842224
21
0.798622
0
LINE
8
BLACK
6
CONTINUOUS
10
0.842224
20
0.798622
11
0.892421
21
0.798622
0
LINE
8
BLACK
6
CONTINUOUS
10
0.892421
20
0.798622
11
0.893928
21
0.798322
0
LINE
8
BLACK
6
CONTINUOUS
10
1.11932
20
0.798322
11
1.1206
21
0.797469
0
LINE
8
BLACK
6
CONTINUOUS
10
1.1206
20
0.797469
11
1.12145
21
0.796192
0
LINE
8
BLACK
6
CONTINUOUS
10
1.12145
20
0.796192
11
1.12175
21
0.794685
0
LINE
8
BLACK
6
CONTINUOUS
10
1.12175
20
0.794685
11
1.12175
21
0.786811
0
LINE
8
BLACK
6
CONTINUOUS
10
1.12175
20
0.786811
11
1.12145
21
0.785304
0
LINE
8
BLACK
6
CONTINUOUS
10
1.12145
20
0.785304
11
1.1206
21
0.784027
0
LINE
8
BLACK
6
CONTINUOUS
10
1.1206
20
0.784027
11
1.11932
21
0.783174
0
LINE
8
BLACK
6
CONTINUOUS
10
1.11932
20
0.783174
11
1.11781
21
0.782874
0
LINE
8
BLACK
6
CONTINUOUS
10
1.11781
20
0.782874
11
1.06762
21
0.782874
0
LINE
8
BLACK
6
CONTINUOUS
10
1.06762
20
0.782874
11
1.06611
21
0.783174
0
LINE
8
BLACK
6
CONTINUOUS
10
1.06611
20
0.783174
11
1.06483
21
0.784027
0
LINE
8
BLACK
6
CONTINUOUS
10
1.06483
20
0.784027
11
1.06398
21
0.785304
0
LINE
8
BLACK
6
CONTINUOUS
10
1.06398
20
0.785304
11
1.06368
21
0.786811
0
LINE
8
BLACK
6
CONTINUOUS
10
1.06368
20
0.786811
11
1.06368
21
0.794685
0
LINE
8
BLACK
6
CONTINUOUS
10
1.06368
20
0.794685
11
1.06398
21
0.796192
0
LINE
8
BLACK
6
CONTINUOUS
10
1.06398
20
0.796192
11
1.06483
21
0.797469
0
LINE
8
BLACK
6
CONTINUOUS
10
1.06483
20
0.797469
11
1.06611
21
0.798322
0
LINE
8
BLACK
6
CONTINUOUS
10
1.06611
20
0.798322
11
1.06762
21
0.798622
0
LINE
8
BLACK
6
CONTINUOUS
10
1.06762
20
0.798622
11
1.11781
21
0.798622
0
LINE
8
BLACK
6
CONTINUOUS
10
1.11781
20
0.798622
11
1.11932
21
0.798322
0
LINE
8
BLACK
6
CONTINUOUS
10
0.639593
20
0.829959
11
0.642786
21
0.827826
0
LINE
8
BLACK
6
CONTINUOUS
10
0.642786
20
0.827826
11
0.64492
21
0.824633
0
LINE
8
BLACK
6
CONTINUOUS
10
0.64492
20
0.824633
11
0.645669
21
0.820866
0
LINE
8
BLACK
6
CONTINUOUS
10
0.645669
20
0.820866
11
0.645669
21
0.801181
0
LINE
8
BLACK
6
CONTINUOUS
10
0.645669
20
0.801181
11
0.64492
21
0.797415
0
LINE
8
BLACK
6
CONTINUOUS
10
0.64492
20
0.797415
11
0.642786
21
0.794221
0
LINE
8
BLACK
6
CONTINUOUS
10
0.642786
20
0.794221
11
0.639593
21
0.792088
0
LINE
8
BLACK
6
CONTINUOUS
10
0.639593
20
0.792088
11
0.635827
21
0.791339
0
LINE
8
BLACK
6
CONTINUOUS
10
0.635827
20
0.791339
11
0.598425
21
0.791339
0
LINE
8
BLACK
6
CONTINUOUS
10
0.598425
20
0.791339
11
0.594659
21
0.792088
0
LINE
8
BLACK
6
CONTINUOUS
10
0.594659
20
0.792088
11
0.591465
21
0.794221
0
LINE
8
BLACK
6
CONTINUOUS
10
0.591465
20
0.794221
11
0.589332
21
0.797415
0
LINE
8
BLACK
6
CONTINUOUS
10
0.589332
20
0.797415
11
0.588583
21
0.801181
0
LINE
8
BLACK
6
CONTINUOUS
10
0.588583
20
0.801181
11
0.588583
21
0.820866
0
LINE
8
BLACK
6
CONTINUOUS
10
0.588583
20
0.820866
11
0.589332
21
0.824633
0
LINE
8
BLACK
6
CONTINUOUS
10
0.589332
20
0.824633
11
0.591465
21
0.827826
0
LINE
8
BLACK
6
CONTINUOUS
10
0.591465
20
0.827826
11
0.594659
21
0.829959
0
LINE
8
BLACK
6
CONTINUOUS
10
0.594659
20
0.829959
11
0.598425
21
0.830709
0
LINE
8
BLACK
6
CONTINUOUS
10
0.598425
20
0.830709
11
0.635827
21
0.830709
0
LINE
8
BLACK
6
CONTINUOUS
10
0.635827
20
0.830709
11
0.639593
21
0.829959
0
LINE
8
BLACK
6
CONTINUOUS
10
0.893928
20
0.823913
11
0.895205
21
0.823059
0
LINE
8
BLACK
6
CONTINUOUS
10
0.895205
20
0.823059
11
0.896059
21
0.821782
0
LINE
8
BLACK
6
CONTINUOUS
10
0.896059
20
0.821782
11
0.896358
21
0.820276
0
LINE
8
BLACK
6
CONTINUOUS
10
0.896358
20
0.820276
11
0.896358
21
0.812402
0
LINE
8
BLACK
6
CONTINUOUS
10
0.896358
20
0.812402
11
0.896059
21
0.810895
0
LINE
8
BLACK
6
CONTINUOUS
10
0.896059
20
0.810895
11
0.895205
21
0.809618
0
LINE
8
BLACK
6
CONTINUOUS
10
0.895205
20
0.809618
11
0.893928
21
0.808764
0
LINE
8
BLACK
6
CONTINUOUS
10
0.893928
20
0.808764
11
0.892421
21
0.808465
0
LINE
8
BLACK
6
CONTINUOUS
10
0.892421
20
0.808465
11
0.842224
21
0.808465
0
LINE
8
BLACK
6
CONTINUOUS
10
0.842224
20
0.808465
11
0.840718
21
0.808764
0
LINE
8
BLACK
6
CONTINUOUS
10
0.840718
20
0.808764
11
0.839441
21
0.809618
0
LINE
8
BLACK
6
CONTINUOUS
10
0.839441
20
0.809618
11
0.838587
21
0.810895
0
LINE
8
BLACK
6
CONTINUOUS
10
0.838587
20
0.810895
11
0.838287
21
0.812402
0
LINE
8
BLACK
6
CONTINUOUS
10
0.838287
20
0.812402
11
0.838287
21
0.820276
0
LINE
8
BLACK
6
CONTINUOUS
10
0.838287
20
0.820276
11
0.838587
21
0.821782
0
LINE
8
BLACK
6
CONTINUOUS
10
0.838587
20
0.821782
11
0.839441
21
0.823059
0
LINE
8
BLACK
6
CONTINUOUS
10
0.839441
20
0.823059
11
0.840718
21
0.823913
0
LINE
8
BLACK
6
CONTINUOUS
10
0.840718
20
0.823913
11
0.842224
21
0.824213
0
LINE
8
BLACK
6
CONTINUOUS
10
0.842224
20
0.824213
11
0.892421
21
0.824213
0
LINE
8
BLACK
6
CONTINUOUS
10
0.892421
20
0.824213
11
0.893928
21
0.823913
0
LINE
8
BLACK
6
CONTINUOUS
10
1.11932
20
0.823913
11
1.1206
21
0.823059
0
LINE
8
BLACK
6
CONTINUOUS
10
1.1206
20
0.823059
11
1.12145
21
0.821782
0
LINE
8
BLACK
6
CONTINUOUS
10
1.12145
20
0.821782
11
1.12175
21
0.820276
0
LINE
8
BLACK
6
CONTINUOUS
10
1.12175
20
0.820276
11
1.12175
21
0.812402
0
LINE
8
BLACK
6
CONTINUOUS
10
1.12175
20
0.812402
11
1.12145
21
0.810895
0
LINE
8
BLACK
6
CONTINUOUS
10
1.12145
20
0.810895
11
1.1206
21
0.809618
0
LINE
8
BLACK
6
CONTINUOUS
10
1.1206
20
0.809618
11
1.11932
21
0.808764
0
LINE
8
BLACK
6
CONTINUOUS
10
1.11932
20
0.808764
11
1.11781
21
0.808465
0
LINE
8
BLACK
6
CONTINUOUS
10
1.11781
20
0.808465
11
1.06762
21
0.808465
0
LINE
8
BLACK
6
CONTINUOUS
10
1.06762
20
0.808465
11
1.06611
21
0.808764
0
LINE
8
BLACK
6
CONTINUOUS
10
1.06611
20
0.808764
11
1.06483
21
0.809618
0
LINE
8
BLACK
6
CONTINUOUS
10
1.06483
20
0.809618
11
1.06398
21
0.810895
0
LINE
8
BLACK
6
CONTINUOUS
10
1.06398
20
0.810895
11
1.06368
21
0.812402
0
LINE
8
BLACK
6
CONTINUOUS
10
1.06368
20
0.812402
11
1.06368
21
0.820276
0
LINE
8
BLACK
6
CONTINUOUS
10
1.06368
20
0.820276
11
1.06398
21
0.821782
0
LINE
8
BLACK
6
CONTINUOUS
10
1.06398
20
0.821782
11
1.06483
21
0.823059
0
LINE
8
BLACK
6
CONTINUOUS
10
1.06483
20
0.823059
11
1.06611
21
0.823913
0
LINE
8
BLACK
6
CONTINUOUS
10
1.06611
20
0.823913
11
1.06762
21
0.824213
0
LINE
8
BLACK
6
CONTINUOUS
10
1.06762
20
0.824213
11
1.11781
21
0.824213
0
LINE
8
BLACK
6
CONTINUOUS
10
1.11781
20
0.824213
11
1.11932
21
0.823913
0
LINE
8
BLACK
6
CONTINUOUS
10
0.893928
20
0.849503
11
0.895205
21
0.84865
0
LINE
8
BLACK
6
CONTINUOUS
10
0.895205
20
0.84865
11
0.896059
21
0.847373
0
LINE
8
BLACK
6
CONTINUOUS
10
0.896059
20
0.847373
11
0.896358
21
0.845866
0
LINE
8
BLACK
6
CONTINUOUS
10
0.896358
20
0.845866
11
0.896358
21
0.837992
0
LINE
8
BLACK
6
CONTINUOUS
10
0.896358
20
0.837992
11
0.896059
21
0.836486
0
LINE
8
BLACK
6
CONTINUOUS
10
0.896059
20
0.836486
11
0.895205
21
0.835208
0
LINE
8
BLACK
6
CONTINUOUS
10
0.895205
20
0.835208
11
0.893928
21
0.834355
0
LINE
8
BLACK
6
CONTINUOUS
10
0.893928
20
0.834355
11
0.892421
21
0.834055
0
LINE
8
BLACK
6
CONTINUOUS
10
0.892421
20
0.834055
11
0.842224
21
0.834055
0
LINE
8
BLACK
6
CONTINUOUS
10
0.842224
20
0.834055
11
0.840718
21
0.834355
0
LINE
8
BLACK
6
CONTINUOUS
10
0.840718
20
0.834355
11
0.839441
21
0.835208
0
LINE
8
BLACK
6
CONTINUOUS
10
0.839441
20
0.835208
11
0.838587
21
0.836486
0
LINE
8
BLACK
6
CONTINUOUS
10
0.838587
20
0.836486
11
0.838287
21
0.837992
0
LINE
8
BLACK
6
CONTINUOUS
10
0.838287
20
0.837992
11
0.838287
21
0.845866
0
LINE
8
BLACK
6
CONTINUOUS
10
0.838287
20
0.845866
11
0.838587
21
0.847373
0
LINE
8
BLACK
6
CONTINUOUS
10
0.838587
20
0.847373
11
0.839441
21
0.84865
0
LINE
8
BLACK
6
CONTINUOUS
10
0.839441
20
0.84865
11
0.840718
21
0.849503
0
LINE
8
BLACK
6
CONTINUOUS
10
0.840718
20
0.849503
11
0.842224
21
0.849803
0
LINE
8
BLACK
6
CONTINUOUS
10
0.842224
20
0.849803
11
0.892421
21
0.849803
0
LINE
8
BLACK
6
CONTINUOUS
10
0.892421
20
0.849803
11
0.893928
21
0.849503
0
LINE
8
BLACK
6
CONTINUOUS
10
1.11932
20
0.849503
11
1.1206
21
0.84865
0
LINE
8
BLACK
6
CONTINUOUS
10
1.1206
20
0.84865
11
1.12145
21
0.847373
0
LINE
8
BLACK
6
CONTINUOUS
10
1.12145
20
0.847373
11
1.12175
21
0.845866
0
LINE
8
BLACK
6
CONTINUOUS
10
1.12175
20
0.845866
11
1.12175
21
0.837992
0
LINE
8
BLACK
6
CONTINUOUS
10
1.12175
20
0.837992
11
1.12145
21
0.836486
0
LINE
8
BLACK
6
CONTINUOUS
10
1.12145
20
0.836486
11
1.1206
21
0.835208
0
LINE
8
BLACK
6
CONTINUOUS
10
1.1206
20
0.835208
11
1.11932
21
0.834355
0
LINE
8
BLACK
6
CONTINUOUS
10
1.11932
20
0.834355
11
1.11781
21
0.834055
0
LINE
8
BLACK
6
CONTINUOUS
10
1.11781
20
0.834055
11
1.06762
21
0.834055
0
LINE
8
BLACK
6
CONTINUOUS
10
1.06762
20
0.834055
11
1.06611
21
0.834355
0
LINE
8
BLACK
6
CONTINUOUS
10
1.06611
20
0.834355
11
1.06483
21
0.835208
0
LINE
8
BLACK
6
CONTINUOUS
10
1.06483
20
0.835208
11
1.06398
21
0.836486
0
LINE
8
BLACK
6
CONTINUOUS
10
1.06398
20
0.836486
11
1.06368
21
0.837992
0
LINE
8
BLACK
6
CONTINUOUS
10
1.06368
20
0.837992
11
1.06368
21
0.845866
0
LINE
8
BLACK
6
CONTINUOUS
10
1.06368
20
0.845866
11
1.06398
21
0.847373
0
LINE
8
BLACK
6
CONTINUOUS
10
1.06398
20
0.847373
11
1.06483
21
0.84865
0
LINE
8
BLACK
6
CONTINUOUS
10
1.06483
20
0.84865
11
1.06611
21
0.849503
0
LINE
8
BLACK
6
CONTINUOUS
10
1.06611
20
0.849503
11
1.06762
21
0.849803
0
LINE
8
BLACK
6
CONTINUOUS
10
1.06762
20
0.849803
11
1.11781
21
0.849803
0
LINE
8
BLACK
6
CONTINUOUS
10
1.11781
20
0.849803
11
1.11932
21
0.849503
0
LINE
8
BLACK
6
CONTINUOUS
10
1.25972
20
0.837717
11
1.19972
21
0.837717
0
LINE
8
BLACK
6
CONTINUOUS
10
1.19972
20
0.837717
11
1.19972
21
0.897717
0
LINE
8
BLACK
6
CONTINUOUS
10
1.19972
20
0.897717
11
1.25972
21
0.897717
0
LINE
8
BLACK
6
CONTINUOUS
10
1.25972
20
0.897717
11
1.25972
21
0.837717
0
LINE
8
BLACK
6
CONTINUOUS
10
1.35972
20
0.837717
11
1.29972
21
0.837717
0
LINE
8
BLACK
6
CONTINUOUS
10
1.29972
20
0.837717
11
1.29972
21
0.897717
0
LINE
8
BLACK
6
CONTINUOUS
10
1.29972
20
0.897717
11
1.35972
21
0.897717
0
LINE
8
BLACK
6
CONTINUOUS
10
1.35972
20
0.897717
11
1.35972
21
0.837717
0
LINE
8
BLACK
6
CONTINUOUS
10
0.893928
20
0.875094
11
0.895205
21
0.874241
0
LINE
8
BLACK
6
CONTINUOUS
10
0.895205
20
0.874241
11
0.896059
21
0.872963
0
LINE
8
BLACK
6
CONTINUOUS
10
0.896059
20
0.872963
11
0.896358
21
0.871457
0
LINE
8
BLACK
6
CONTINUOUS
10
0.896358
20
0.871457
11
0.896358
21
0.863583
0
LINE
8
BLACK
6
CONTINUOUS
10
0.896358
20
0.863583
11
0.896059
21
0.862076
0
LINE
8
BLACK
6
CONTINUOUS
10
0.896059
20
0.862076
11
0.895205
21
0.860799
0
LINE
8
BLACK
6
CONTINUOUS
10
0.895205
20
0.860799
11
0.893928
21
0.859945
0
LINE
8
BLACK
6
CONTINUOUS
10
0.893928
20
0.859945
11
0.892421
21
0.859646
0
LINE
8
BLACK
6
CONTINUOUS
10
0.892421
20
0.859646
11
0.842224
21
0.859646
0
LINE
8
BLACK
6
CONTINUOUS
10
0.842224
20
0.859646
11
0.840718
21
0.859945
0
LINE
8
BLACK
6
CONTINUOUS
10
0.840718
20
0.859945
11
0.839441
21
0.860799
0
LINE
8
BLACK
6
CONTINUOUS
10
0.839441
20
0.860799
11
0.838587
21
0.862076
0
LINE
8
BLACK
6
CONTINUOUS
10
0.838587
20
0.862076
11
0.838287
21
0.863583
0
LINE
8
BLACK
6
CONTINUOUS
10
0.838287
20
0.863583
11
0.838287
21
0.871457
0
LINE
8
BLACK
6
CONTINUOUS
10
0.838287
20
0.871457
11
0.838587
21
0.872963
0
LINE
8
BLACK
6
CONTINUOUS
10
0.838587
20
0.872963
11
0.839441
21
0.874241
0
LINE
8
BLACK
6
CONTINUOUS
10
0.839441
20
0.874241
11
0.840718
21
0.875094
0
LINE
8
BLACK
6
CONTINUOUS
10
0.840718
20
0.875094
11
0.842224
21
0.875394
0
LINE
8
BLACK
6
CONTINUOUS
10
0.842224
20
0.875394
11
0.892421
21
0.875394
0
LINE
8
BLACK
6
CONTINUOUS
10
0.892421
20
0.875394
11
0.893928
21
0.875094
0
LINE
8
BLACK
6
CONTINUOUS
10
1.11932
20
0.875094
11
1.1206
21
0.874241
0
LINE
8
BLACK
6
CONTINUOUS
10
1.1206
20
0.874241
11
1.12145
21
0.872963
0
LINE
8
BLACK
6
CONTINUOUS
10
1.12145
20
0.872963
11
1.12175
21
0.871457
0
LINE
8
BLACK
6
CONTINUOUS
10
1.12175
20
0.871457
11
1.12175
21
0.863583
0
LINE
8
BLACK
6
CONTINUOUS
10
1.12175
20
0.863583
11
1.12145
21
0.862076
0
LINE
8
BLACK
6
CONTINUOUS
10
1.12145
20
0.862076
11
1.1206
21
0.860799
0
LINE
8
BLACK
6
CONTINUOUS
10
1.1206
20
0.860799
11
1.11932
21
0.859945
0
LINE
8
BLACK
6
CONTINUOUS
10
1.11932
20
0.859945
11
1.11781
21
0.859646
0
LINE
8
BLACK
6
CONTINUOUS
10
1.11781
20
0.859646
11
1.06762
21
0.859646
0
LINE
8
BLACK
6
CONTINUOUS
10
1.06762
20
0.859646
11
1.06611
21
0.859945
0
LINE
8
BLACK
6
CONTINUOUS
10
1.06611
20
0.859945
11
1.06483
21
0.860799
0
LINE
8
BLACK
6
CONTINUOUS
10
1.06483
20
0.860799
11
1.06398
21
0.862076
0
LINE
8
BLACK
6
CONTINUOUS
10
1.06398
20
0.862076
11
1.06368
21
0.863583
0
LINE
8
BLACK
6
CONTINUOUS
10
1.06368
20
0.863583
11
1.06368
21
0.871457
0
LINE
8
BLACK
6
CONTINUOUS
10
1.06368
20
0.871457
11
1.06398
21
0.872963
0
LINE
8
BLACK
6
CONTINUOUS
10
1.06398
20
0.872963
11
1.06483
21
0.874241
0
LINE
8
BLACK
6
CONTINUOUS
10
1.06483
20
0.874241
11
1.06611
21
0.875094
0
LINE
8
BLACK
6
CONTINUOUS
10
1.06611
20
0.875094
11
1.06762
21
0.875394
0
LINE
8
BLACK
6
CONTINUOUS
10
1.06762
20
0.875394
11
1.11781
21
0.875394
0
LINE
8
BLACK
6
CONTINUOUS
10
1.11781
20
0.875394
11
1.11932
21
0.875094
0
LINE
8
BLACK
6
CONTINUOUS
10
0.725394
20
0.86811
11
0.430118
21
0.86811
0
LINE
8
BLACK
6
CONTINUOUS
10
0.430118
20
0.86811
11
0.430118
21
0.98622
0
LINE
8
BLACK
6
CONTINUOUS
10
0.430118
20
0.98622
11
0.725394
21
0.98622
0
LINE
8
BLACK
6
CONTINUOUS
10
0.725394
20
0.98622
11
0.725394
21
0.86811
0
LINE
8
BLACK
6
CONTINUOUS
10
0.893928
20
0.900685
11
0.895205
21
0.899831
0
LINE
8
BLACK
6
CONTINUOUS
10
0.895205
20
0.899831
11
0.896059
21
0.898554
0
LINE
8
BLACK
6
CONTINUOUS
10
0.896059
20
0.898554
11
0.896358
21
0.897047
0
LINE
8
BLACK
6
CONTINUOUS
10
0.896358
20
0.897047
11
0.896358
21
0.889173
0
LINE
8
BLACK
6
CONTINUOUS
10
0.896358
20
0.889173
11
0.896059
21
0.887667
0
LINE
8
BLACK
6
CONTINUOUS
10
0.896059
20
0.887667
11
0.895205
21
0.886389
0
LINE
8
BLACK
6
CONTINUOUS
10
0.895205
20
0.886389
11
0.893928
21
0.885536
0
LINE
8
BLACK
6
CONTINUOUS
10
0.893928
20
0.885536
11
0.892421
21
0.885236
0
LINE
8
BLACK
6
CONTINUOUS
10
0.892421
20
0.885236
11
0.842224
21
0.885236
0
LINE
8
BLACK
6
CONTINUOUS
10
0.842224
20
0.885236
11
0.840718
21
0.885536
0
LINE
8
BLACK
6
CONTINUOUS
10
0.840718
20
0.885536
11
0.839441
21
0.886389
0
LINE
8
BLACK
6
CONTINUOUS
10
0.839441
20
0.886389
11
0.838587
21
0.887667
0
LINE
8
BLACK
6
CONTINUOUS
10
0.838587
20
0.887667
11
0.838287
21
0.889173
0
LINE
8
BLACK
6
CONTINUOUS
10
0.838287
20
0.889173
11
0.838287
21
0.897047
0
LINE
8
BLACK
6
CONTINUOUS
10
0.838287
20
0.897047
11
0.838587
21
0.898554
0
LINE
8
BLACK
6
CONTINUOUS
10
0.838587
20
0.898554
11
0.839441
21
0.899831
0
LINE
8
BLACK
6
CONTINUOUS
10
0.839441
20
0.899831
11
0.840718
21
0.900685
0
LINE
8
BLACK
6
CONTINUOUS
10
0.840718
20
0.900685
11
0.842224
21
0.900984
0
LINE
8
BLACK
6
CONTINUOUS
10
0.842224
20
0.900984
11
0.892421
21
0.900984
0
LINE
8
BLACK
6
CONTINUOUS
10
0.892421
20
0.900984
11
0.893928
21
0.900685
0
LINE
8
BLACK
6
CONTINUOUS
10
1.11932
20
0.900685
11
1.1206
21
0.899831
0
LINE
8
BLACK
6
CONTINUOUS
10
1.1206
20
0.899831
11
1.12145
21
0.898554
0
LINE
8
BLACK
6
CONTINUOUS
10
1.12145
20
0.898554
11
1.12175
21
0.897047
0
LINE
8
BLACK
6
CONTINUOUS
10
1.12175
20
0.897047
11
1.12175
21
0.889173
0
LINE
8
BLACK
6
CONTINUOUS
10
1.12175
20
0.889173
11
1.12145
21
0.887667
0
LINE
8
BLACK
6
CONTINUOUS
10
1.12145
20
0.887667
11
1.1206
21
0.886389
0
LINE
8
BLACK
6
CONTINUOUS
10
1.1206
20
0.886389
11
1.11932
21
0.885536
0
LINE
8
BLACK
6
CONTINUOUS
10
1.11932
20
0.885536
11
1.11781
21
0.885236
0
LINE
8
BLACK
6
CONTINUOUS
10
1.11781
20
0.885236
11
1.06762
21
0.885236
0
LINE
8
BLACK
6
CONTINUOUS
10
1.06762
20
0.885236
11
1.06611
21
0.885536
0
LINE
8
BLACK
6
CONTINUOUS
10
1.06611
20
0.885536
11
1.06483
21
0.886389
0
LINE
8
BLACK
6
CONTINUOUS
10
1.06483
20
0.886389
11
1.06398
21
0.887667
0
LINE
8
BLACK
6
CONTINUOUS
10
1.06398
20
0.887667
11
1.06368
21
0.889173
0
LINE
8
BLACK
6
CONTINUOUS
10
1.06368
20
0.889173
11
1.06368
21
0.897047
0
LINE
8
BLACK
6
CONTINUOUS
10
1.06368
20
0.897047
11
1.06398
21
0.898554
0
LINE
8
BLACK
6
CONTINUOUS
10
1.06398
20
0.898554
11
1.06483
21
0.899831
0
LINE
8
BLACK
6
CONTINUOUS
10
1.06483
20
0.899831
11
1.06611
21
0.900685
0
LINE
8
BLACK
6
CONTINUOUS
10
1.06611
20
0.900685
11
1.06762
21
0.900984
0
LINE
8
BLACK
6
CONTINUOUS
10
1.06762
20
0.900984
11
1.11781
21
0.900984
0
LINE
8
BLACK
6
CONTINUOUS
10
1.11781
20
0.900984
11
1.11932
21
0.900685
0
LINE
8
BLACK
6
CONTINUOUS
10
0.363189
20
0.895669
11
0.292323
21
0.895669
0
LINE
8
BLACK
6
CONTINUOUS
10
0.292323
20
0.895669
11
0.292323
21
0.994094
0
LINE
8
BLACK
6
CONTINUOUS
10
0.292323
20
0.994094
11
0.363189
21
0.994094
0
LINE
8
BLACK
6
CONTINUOUS
10
0.363189
20
0.994094
11
0.363189
21
0.895669
0
LINE
8
BLACK
6
CONTINUOUS
10
0.893928
20
0.926275
11
0.895205
21
0.925422
0
LINE
8
BLACK
6
CONTINUOUS
10
0.895205
20
0.925422
11
0.896059
21
0.924144
0
LINE
8
BLACK
6
CONTINUOUS
10
0.896059
20
0.924144
11
0.896358
21
0.922638
0
LINE
8
BLACK
6
CONTINUOUS
10
0.896358
20
0.922638
11
0.896358
21
0.914764
0
LINE
8
BLACK
6
CONTINUOUS
10
0.896358
20
0.914764
11
0.896059
21
0.913257
0
LINE
8
BLACK
6
CONTINUOUS
10
0.896059
20
0.913257
11
0.895205
21
0.91198
0
LINE
8
BLACK
6
CONTINUOUS
10
0.895205
20
0.91198
11
0.893928
21
0.911126
0
LINE
8
BLACK
6
CONTINUOUS
10
0.893928
20
0.911126
11
0.892421
21
0.910827
0
LINE
8
BLACK
6
CONTINUOUS
10
0.892421
20
0.910827
11
0.842224
21
0.910827
0
LINE
8
BLACK
6
CONTINUOUS
10
0.842224
20
0.910827
11
0.840718
21
0.911126
0
LINE
8
BLACK
6
CONTINUOUS
10
0.840718
20
0.911126
11
0.839441
21
0.91198
0
LINE
8
BLACK
6
CONTINUOUS
10
0.839441
20
0.91198
11
0.838587
21
0.913257
0
LINE
8
BLACK
6
CONTINUOUS
10
0.838587
20
0.913257
11
0.838287
21
0.914764
0
LINE
8
BLACK
6
CONTINUOUS
10
0.838287
20
0.914764
11
0.838287
21
0.922638
0
LINE
8
BLACK
6
CONTINUOUS
10
0.838287
20
0.922638
11
0.838587
21
0.924144
0
LINE
8
BLACK
6
CONTINUOUS
10
0.838587
20
0.924144
11
0.839441
21
0.925422
0
LINE
8
BLACK
6
CONTINUOUS
10
0.839441
20
0.925422
11
0.840718
21
0.926275
0
LINE
8
BLACK
6
CONTINUOUS
10
0.840718
20
0.926275
11
0.842224
21
0.926575
0
LINE
8
BLACK
6
CONTINUOUS
10
0.842224
20
0.926575
11
0.892421
21
0.926575
0
LINE
8
BLACK
6
CONTINUOUS
10
0.892421
20
0.926575
11
0.893928
21
0.926275
0
LINE
8
BLACK
6
CONTINUOUS
10
1.11932
20
0.926275
11
1.1206
21
0.925422
0
LINE
8
BLACK
6
CONTINUOUS
10
1.1206
20
0.925422
11
1.12145
21
0.924144
0
LINE
8
BLACK
6
CONTINUOUS
10
1.12145
20
0.924144
11
1.12175
21
0.922638
0
LINE
8
BLACK
6
CONTINUOUS
10
1.12175
20
0.922638
11
1.12175
21
0.914764
0
LINE
8
BLACK
6
CONTINUOUS
10
1.12175
20
0.914764
11
1.12145
21
0.913257
0
LINE
8
BLACK
6
CONTINUOUS
10
1.12145
20
0.913257
11
1.1206
21
0.91198
0
LINE
8
BLACK
6
CONTINUOUS
10
1.1206
20
0.91198
11
1.11932
21
0.911126
0
LINE
8
BLACK
6
CONTINUOUS
10
1.11932
20
0.911126
11
1.11781
21
0.910827
0
LINE
8
BLACK
6
CONTINUOUS
10
1.11781
20
0.910827
11
1.06762
21
0.910827
0
LINE
8
BLACK
6
CONTINUOUS
10
1.06762
20
0.910827
11
1.06611
21
0.911126
0
LINE
8
BLACK
6
CONTINUOUS
10
1.06611
20
0.911126
11
1.06483
21
0.91198
0
LINE
8
BLACK
6
CONTINUOUS
10
1.06483
20
0.91198
11
1.06398
21
0.913257
0
LINE
8
BLACK
6
CONTINUOUS
10
1.06398
20
0.913257
11
1.06368
21
0.914764
0
LINE
8
BLACK
6
CONTINUOUS
10
1.06368
20
0.914764
11
1.06368
21
0.922638
0
LINE
8
BLACK
6
CONTINUOUS
10
1.06368
20
0.922638
11
1.06398
21
0.924144
0
LINE
8
BLACK
6
CONTINUOUS
10
1.06398
20
0.924144
11
1.06483
21
0.925422
0
LINE
8
BLACK
6
CONTINUOUS
10
1.06483
20
0.925422
11
1.06611
21
0.926275
0
LINE
8
BLACK
6
CONTINUOUS
10
1.06611
20
0.926275
11
1.06762
21
0.926575
0
LINE
8
BLACK
6
CONTINUOUS
10
1.06762
20
0.926575
11
1.11781
21
0.926575
0
LINE
8
BLACK
6
CONTINUOUS
10
1.11781
20
0.926575
11
1.11932
21
0.926275
0
LINE
8
BLACK
6
CONTINUOUS
10
0.893928
20
0.951866
11
0.895205
21
0.951012
0
LINE
8
BLACK
6
CONTINUOUS
10
0.895205
20
0.951012
11
0.896059
21
0.949735
0
LINE
8
BLACK
6
CONTINUOUS
10
0.896059
20
0.949735
11
0.896358
21
0.948228
0
LINE
8
BLACK
6
CONTINUOUS
10
0.896358
20
0.948228
11
0.896358
21
0.940354
0
LINE
8
BLACK
6
CONTINUOUS
10
0.896358
20
0.940354
11
0.896059
21
0.938848
0
LINE
8
BLACK
6
CONTINUOUS
10
0.896059
20
0.938848
11
0.895205
21
0.93757
0
LINE
8
BLACK
6
CONTINUOUS
10
0.895205
20
0.93757
11
0.893928
21
0.936717
0
LINE
8
BLACK
6
CONTINUOUS
10
0.893928
20
0.936717
11
0.892421
21
0.936417
0
LINE
8
BLACK
6
CONTINUOUS
10
0.892421
20
0.936417
11
0.842224
21
0.936417
0
LINE
8
BLACK
6
CONTINUOUS
10
0.842224
20
0.936417
11
0.840718
21
0.936717
0
LINE
8
BLACK
6
CONTINUOUS
10
0.840718
20
0.936717
11
0.839441
21
0.93757
0
LINE
8
BLACK
6
CONTINUOUS
10
0.839441
20
0.93757
11
0.838587
21
0.938848
0
LINE
8
BLACK
6
CONTINUOUS
10
0.838587
20
0.938848
11
0.838287
21
0.940354
0
LINE
8
BLACK
6
CONTINUOUS
10
0.838287
20
0.940354
11
0.838287
21
0.948228
0
LINE
8
BLACK
6
CONTINUOUS
10
0.838287
20
0.948228
11
0.838587
21
0.949735
0
LINE
8
BLACK
6
CONTINUOUS
10
0.838587
20
0.949735
11
0.839441
21
0.951012
0
LINE
8
BLACK
6
CONTINUOUS
10
0.839441
20
0.951012
11
0.840718
21
0.951866
0
LINE
8
BLACK
6
CONTINUOUS
10
0.840718
20
0.951866
11
0.842224
21
0.952165
0
LINE
8
BLACK
6
CONTINUOUS
10
0.842224
20
0.952165
11
0.892421
21
0.952165
0
LINE
8
BLACK
6
CONTINUOUS
10
0.892421
20
0.952165
11
0.893928
21
0.951866
0
LINE
8
BLACK
6
CONTINUOUS
10
1.11932
20
0.951866
11
1.1206
21
0.951012
0
LINE
8
BLACK
6
CONTINUOUS
10
1.1206
20
0.951012
11
1.12145
21
0.949735
0
LINE
8
BLACK
6
CONTINUOUS
10
1.12145
20
0.949735
11
1.12175
21
0.948228
0
LINE
8
BLACK
6
CONTINUOUS
10
1.12175
20
0.948228
11
1.12175
21
0.940354
0
LINE
8
BLACK
6
CONTINUOUS
10
1.12175
20
0.940354
11
1.12145
21
0.938848
0
LINE
8
BLACK
6
CONTINUOUS
10
1.12145
20
0.938848
11
1.1206
21
0.93757
0
LINE
8
BLACK
6
CONTINUOUS
10
1.1206
20
0.93757
11
1.11932
21
0.936717
0
LINE
8
BLACK
6
CONTINUOUS
10
1.11932
20
0.936717
11
1.11781
21
0.936417
0
LINE
8
BLACK
6
CONTINUOUS
10
1.11781
20
0.936417
11
1.06762
21
0.936417
0
LINE
8
BLACK
6
CONTINUOUS
10
1.06762
20
0.936417
11
1.06611
21
0.936717
0
LINE
8
BLACK
6
CONTINUOUS
10
1.06611
20
0.936717
11
1.06483
21
0.93757
0
LINE
8
BLACK
6
CONTINUOUS
10
1.06483
20
0.93757
11
1.06398
21
0.938848
0
LINE
8
BLACK
6
CONTINUOUS
10
1.06398
20
0.938848
11
1.06368
21
0.940354
0
LINE
8
BLACK
6
CONTINUOUS
10
1.06368
20
0.940354
11
1.06368
21
0.948228
0
LINE
8
BLACK
6
CONTINUOUS
10
1.06368
20
0.948228
11
1.06398
21
0.949735
0
LINE
8
BLACK
6
CONTINUOUS
10
1.06398
20
0.949735
11
1.06483
21
0.951012
0
LINE
8
BLACK
6
CONTINUOUS
10
1.06483
20
0.951012
11
1.06611
21
0.951866
0
LINE
8
BLACK
6
CONTINUOUS
10
1.06611
20
0.951866
11
1.06762
21
0.952165
0
LINE
8
BLACK
6
CONTINUOUS
10
1.06762
20
0.952165
11
1.11781
21
0.952165
0
LINE
8
BLACK
6
CONTINUOUS
10
1.11781
20
0.952165
11
1.11932
21
0.951866
0
LINE
8
BLACK
6
CONTINUOUS
10
1.25972
20
0.937717
11
1.19972
21
0.937717
0
LINE
8
BLACK
6
CONTINUOUS
10
1.19972
20
0.937717
11
1.19972
21
0.997717
0
LINE
8
BLACK
6
CONTINUOUS
10
1.19972
20
0.997717
11
1.25972
21
0.997717
0
LINE
8
BLACK
6
CONTINUOUS
10
1.25972
20
0.997717
11
1.25972
21
0.937717
0
LINE
8
BLACK
6
CONTINUOUS
10
1.35972
20
0.937717
11
1.29972
21
0.937717
0
LINE
8
BLACK
6
CONTINUOUS
10
1.29972
20
0.937717
11
1.29972
21
0.997717
0
LINE
8
BLACK
6
CONTINUOUS
10
1.29972
20
0.997717
11
1.35972
21
0.997717
0
LINE
8
BLACK
6
CONTINUOUS
10
1.35972
20
0.997717
11
1.35972
21
0.937717
0
LINE
8
BLACK
6
CONTINUOUS
10
0.893928
20
0.977456
11
0.895205
21
0.976603
0
LINE
8
BLACK
6
CONTINUOUS
10
0.895205
20
0.976603
11
0.896059
21
0.975326
0
LINE
8
BLACK
6
CONTINUOUS
10
0.896059
20
0.975326
11
0.896358
21
0.973819
0
LINE
8
BLACK
6
CONTINUOUS
10
0.896358
20
0.973819
11
0.896358
21
0.965945
0
LINE
8
BLACK
6
CONTINUOUS
10
0.896358
20
0.965945
11
0.896059
21
0.964438
0
LINE
8
BLACK
6
CONTINUOUS
10
0.896059
20
0.964438
11
0.895205
21
0.963161
0
LINE
8
BLACK
6
CONTINUOUS
10
0.895205
20
0.963161
11
0.893928
21
0.962308
0
LINE
8
BLACK
6
CONTINUOUS
10
0.893928
20
0.962308
11
0.892421
21
0.962008
0
LINE
8
BLACK
6
CONTINUOUS
10
0.892421
20
0.962008
11
0.842224
21
0.962008
0
LINE
8
BLACK
6
CONTINUOUS
10
0.842224
20
0.962008
11
0.840718
21
0.962308
0
LINE
8
BLACK
6
CONTINUOUS
10
0.840718
20
0.962308
11
0.839441
21
0.963161
0
LINE
8
BLACK
6
CONTINUOUS
10
0.839441
20
0.963161
11
0.838587
21
0.964438
0
LINE
8
BLACK
6
CONTINUOUS
10
0.838587
20
0.964438
11
0.838287
21
0.965945
0
LINE
8
BLACK
6
CONTINUOUS
10
0.838287
20
0.965945
11
0.838287
21
0.973819
0
LINE
8
BLACK
6
CONTINUOUS
10
0.838287
20
0.973819
11
0.838587
21
0.975326
0
LINE
8
BLACK
6
CONTINUOUS
10
0.838587
20
0.975326
11
0.839441
21
0.976603
0
LINE
8
BLACK
6
CONTINUOUS
10
0.839441
20
0.976603
11
0.840718
21
0.977456
0
LINE
8
BLACK
6
CONTINUOUS
10
0.840718
20
0.977456
11
0.842224
21
0.977756
0
LINE
8
BLACK
6
CONTINUOUS
10
0.842224
20
0.977756
11
0.892421
21
0.977756
0
LINE
8
BLACK
6
CONTINUOUS
10
0.892421
20
0.977756
11
0.893928
21
0.977456
0
LINE
8
BLACK
6
CONTINUOUS
10
1.11932
20
0.977456
11
1.1206
21
0.976603
0
LINE
8
BLACK
6
CONTINUOUS
10
1.1206
20
0.976603
11
1.12145
21
0.975326
0
LINE
8
BLACK
6
CONTINUOUS
10
1.12145
20
0.975326
11
1.12175
21
0.973819
0
LINE
8
BLACK
6
CONTINUOUS
10
1.12175
20
0.973819
11
1.12175
21
0.965945
0
LINE
8
BLACK
6
CONTINUOUS
10
1.12175
20
0.965945
11
1.12145
21
0.964438
0
LINE
8
BLACK
6
CONTINUOUS
10
1.12145
20
0.964438
11
1.1206
21
0.963161
0
LINE
8
BLACK
6
CONTINUOUS
10
1.1206
20
0.963161
11
1.11932
21
0.962308
0
LINE
8
BLACK
6
CONTINUOUS
10
1.11932
20
0.962308
11
1.11781
21
0.962008
0
LINE
8
BLACK
6
CONTINUOUS
10
1.11781
20
0.962008
11
1.06762
21
0.962008
0
LINE
8
BLACK
6
CONTINUOUS
10
1.06762
20
0.962008
11
1.06611
21
0.962308
0
LINE
8
BLACK
6
CONTINUOUS
10
1.06611
20
0.962308
11
1.06483
21
0.963161
0
LINE
8
BLACK
6
CONTINUOUS
10
1.06483
20
0.963161
11
1.06398
21
0.964438
0
LINE
8
BLACK
6
CONTINUOUS
10
1.06398
20
0.964438
11
1.06368
21
0.965945
0
LINE
8
BLACK
6
CONTINUOUS
10
1.06368
20
0.965945
11
1.06368
21
0.973819
0
LINE
8
BLACK
6
CONTINUOUS
10
1.06368
20
0.973819
11
1.06398
21
0.975326
0
LINE
8
BLACK
6
CONTINUOUS
10
1.06398
20
0.975326
11
1.06483
21
0.976603
0
LINE
8
BLACK
6
CONTINUOUS
10
1.06483
20
0.976603
11
1.06611
21
0.977456
0
LINE
8
BLACK
6
CONTINUOUS
10
1.06611
20
0.977456
11
1.06762
21
0.977756
0
LINE
8
BLACK
6
CONTINUOUS
10
1.06762
20
0.977756
11
1.11781
21
0.977756
0
LINE
8
BLACK
6
CONTINUOUS
10
1.11781
20
0.977756
11
1.11932
21
0.977456
0
LINE
8
BLACK
6
CONTINUOUS
10
1.83512
20
1.03523
11
1.84179
21
1.03365
0
LINE
8
BLACK
6
CONTINUOUS
10
1.84179
20
1.03365
11
1.84792
21
1.03058
0
LINE
8
BLACK
6
CONTINUOUS
10
1.84792
20
1.03058
11
1.85317
21
1.02617
0
LINE
8
BLACK
6
CONTINUOUS
10
1.85317
20
1.02617
11
1.85726
21
1.02067
0
LINE
8
BLACK
6
CONTINUOUS
10
1.85726
20
1.02067
11
1.85998
21
1.01437
0
LINE
8
BLACK
6
CONTINUOUS
10
1.85998
20
1.01437
11
1.86117
21
1.00762
0
LINE
8
BLACK
6
CONTINUOUS
10
1.86117
20
1.00762
11
1.86077
21
1.00078
0
LINE
8
BLACK
6
CONTINUOUS
10
1.86077
20
1.00078
11
1.85881
21
0.99421
0
LINE
8
BLACK
6
CONTINUOUS
10
1.85881
20
0.99421
11
1.85538
21
0.988273
0
LINE
8
BLACK
6
CONTINUOUS
10
1.85538
20
0.988273
11
1.85067
21
0.983286
0
LINE
8
BLACK
6
CONTINUOUS
10
1.85067
20
0.983286
11
1.84494
21
0.979519
0
LINE
8
BLACK
6
CONTINUOUS
10
1.84494
20
0.979519
11
1.8385
21
0.977174
0
LINE
8
BLACK
6
CONTINUOUS
10
1.8385
20
0.977174
11
1.83169
21
0.976378
0
LINE
8
BLACK
6
CONTINUOUS
10
1.83169
20
0.976378
11
1.77264
21
0.976378
0
LINE
8
BLACK
6
CONTINUOUS
10
1.77264
20
0.976378
11
1.76921
21
0.976578
0
LINE
8
BLACK
6
CONTINUOUS
10
1.76921
20
0.976578
11
1.76254
21
0.978159
0
LINE
8
BLACK
6
CONTINUOUS
10
1.76254
20
0.978159
11
1.75641
21
0.981236
0
LINE
8
BLACK
6
CONTINUOUS
10
1.75641
20
0.981236
11
1.75116
21
0.985642
0
LINE
8
BLACK
6
CONTINUOUS
10
1.75116
20
0.985642
11
1.74707
21
0.991142
0
LINE
8
BLACK
6
CONTINUOUS
10
1.74707
20
0.991142
11
1.74435
21
0.997437
0
LINE
8
BLACK
6
CONTINUOUS
10
1.74435
20
0.997437
11
1.74316
21
1.00419
0
LINE
8
BLACK
6
CONTINUOUS
10
1.74316
20
1.00419
11
1.74356
21
1.01103
0
LINE
8
BLACK
6
CONTINUOUS
10
1.74356
20
1.01103
11
1.74553
21
1.0176
0
LINE
8
BLACK
6
CONTINUOUS
10
1.74553
20
1.0176
11
1.74895
21
1.02354
0
LINE
8
BLACK
6
CONTINUOUS
10
1.74895
20
1.02354
11
1.75366
21
1.02852
0
LINE
8
BLACK
6
CONTINUOUS
10
1.75366
20
1.02852
11
1.75939
21
1.03229
0
LINE
8
BLACK
6
CONTINUOUS
10
1.75939
20
1.03229
11
1.76583
21
1.03464
0
LINE
8
BLACK
6
CONTINUOUS
10
1.76583
20
1.03464
11
1.77264
21
1.03543
0
LINE
8
BLACK
6
CONTINUOUS
10
1.77264
20
1.03543
11
1.83169
21
1.03543
0
LINE
8
BLACK
6
CONTINUOUS
10
1.83169
20
1.03543
11
1.83512
21
1.03523
0
LINE
8
BLACK
6
CONTINUOUS
10
0.802979
20
1.09275
11
0.806172
21
1.09062
0
LINE
8
BLACK
6
CONTINUOUS
10
0.806172
20
1.09062
11
0.808306
21
1.08743
0
LINE
8
BLACK
6
CONTINUOUS
10
0.808306
20
1.08743
11
0.809055
21
1.08366
0
LINE
8
BLACK
6
CONTINUOUS
10
0.809055
20
1.08366
11
0.809055
21
1.04626
0
LINE
8
BLACK
6
CONTINUOUS
10
0.809055
20
1.04626
11
0.808306
21
1.04249
0
LINE
8
BLACK
6
CONTINUOUS
10
0.808306
20
1.04249
11
0.806172
21
1.0393
0
LINE
8
BLACK
6
CONTINUOUS
10
0.806172
20
1.0393
11
0.802979
21
1.03717
0
LINE
8
BLACK
6
CONTINUOUS
10
0.802979
20
1.03717
11
0.799213
21
1.03642
0
LINE
8
BLACK
6
CONTINUOUS
10
0.799213
20
1.03642
11
0.779528
21
1.03642
0
LINE
8
BLACK
6
CONTINUOUS
10
0.779528
20
1.03642
11
0.775761
21
1.03717
0
LINE
8
BLACK
6
CONTINUOUS
10
0.775761
20
1.03717
11
0.772568
21
1.0393
0
LINE
8
BLACK
6
CONTINUOUS
10
0.772568
20
1.0393
11
0.770434
21
1.04249
0
LINE
8
BLACK
6
CONTINUOUS
10
0.770434
20
1.04249
11
0.769685
21
1.04626
0
LINE
8
BLACK
6
CONTINUOUS
10
0.769685
20
1.04626
11
0.769685
21
1.08366
0
LINE
8
BLACK
6
CONTINUOUS
10
0.769685
20
1.08366
11
0.770434
21
1.08743
0
LINE
8
BLACK
6
CONTINUOUS
10
0.770434
20
1.08743
11
0.772568
21
1.09062
0
LINE
8
BLACK
6
CONTINUOUS
10
0.772568
20
1.09062
11
0.775761
21
1.09275
0
LINE
8
BLACK
6
CONTINUOUS
10
0.775761
20
1.09275
11
0.779528
21
1.0935
0
LINE
8
BLACK
6
CONTINUOUS
10
0.779528
20
1.0935
11
0.799213
21
1.0935
0
LINE
8
BLACK
6
CONTINUOUS
10
0.799213
20
1.0935
11
0.802979
21
1.09275
0
LINE
8
BLACK
6
CONTINUOUS
10
0.877782
20
1.09275
11
0.880975
21
1.09062
0
LINE
8
BLACK
6
CONTINUOUS
10
0.880975
20
1.09062
11
0.883109
21
1.08743
0
LINE
8
BLACK
6
CONTINUOUS
10
0.883109
20
1.08743
11
0.883858
21
1.08366
0
LINE
8
BLACK
6
CONTINUOUS
10
0.883858
20
1.08366
11
0.883858
21
1.04626
0
LINE
8
BLACK
6
CONTINUOUS
10
0.883858
20
1.04626
11
0.883109
21
1.04249
0
LINE
8
BLACK
6
CONTINUOUS
10
0.883109
20
1.04249
11
0.880975
21
1.0393
0
LINE
8
BLACK
6
CONTINUOUS
10
0.880975
20
1.0393
11
0.877782
21
1.03717
0
LINE
8
BLACK
6
CONTINUOUS
10
0.877782
20
1.03717
11
0.874016
21
1.03642
0
LINE
8
BLACK
6
CONTINUOUS
10
0.874016
20
1.03642
11
0.854331
21
1.03642
0
LINE
8
BLACK
6
CONTINUOUS
10
0.854331
20
1.03642
11
0.850564
21
1.03717
0
LINE
8
BLACK
6
CONTINUOUS
10
0.850564
20
1.03717
11
0.847371
21
1.0393
0
LINE
8
BLACK
6
CONTINUOUS
10
0.847371
20
1.0393
11
0.845237
21
1.04249
0
LINE
8
BLACK
6
CONTINUOUS
10
0.845237
20
1.04249
11
0.844488
21
1.04626
0
LINE
8
BLACK
6
CONTINUOUS
10
0.844488
20
1.04626
11
0.844488
21
1.08366
0
LINE
8
BLACK
6
CONTINUOUS
10
0.844488
20
1.08366
11
0.845237
21
1.08743
0
LINE
8
BLACK
6
CONTINUOUS
10
0.845237
20
1.08743
11
0.847371
21
1.09062
0
LINE
8
BLACK
6
CONTINUOUS
10
0.847371
20
1.09062
11
0.850564
21
1.09275
0
LINE
8
BLACK
6
CONTINUOUS
10
0.850564
20
1.09275
11
0.854331
21
1.0935
0
LINE
8
BLACK
6
CONTINUOUS
10
0.854331
20
1.0935
11
0.874016
21
1.0935
0
LINE
8
BLACK
6
CONTINUOUS
10
0.874016
20
1.0935
11
0.877782
21
1.09275
0
LINE
8
BLACK
6
CONTINUOUS
10
1.16125
20
1.09866
11
1.16444
21
1.09653
0
LINE
8
BLACK
6
CONTINUOUS
10
1.16444
20
1.09653
11
1.16657
21
1.09333
0
LINE
8
BLACK
6
CONTINUOUS
10
1.16657
20
1.09333
11
1.16732
21
1.08957
0
LINE
8
BLACK
6
CONTINUOUS
10
1.16732
20
1.08957
11
1.16732
21
1.05217
0
LINE
8
BLACK
6
CONTINUOUS
10
1.16732
20
1.05217
11
1.16657
21
1.0484
0
LINE
8
BLACK
6
CONTINUOUS
10
1.16657
20
1.0484
11
1.16444
21
1.04521
0
LINE
8
BLACK
6
CONTINUOUS
10
1.16444
20
1.04521
11
1.16125
21
1.04307
0
LINE
8
BLACK
6
CONTINUOUS
10
1.16125
20
1.04307
11
1.15748
21
1.04232
0
LINE
8
BLACK
6
CONTINUOUS
10
1.15748
20
1.04232
11
1.1378
21
1.04232
0
LINE
8
BLACK
6
CONTINUOUS
10
1.1378
20
1.04232
11
1.13403
21
1.04307
0
LINE
8
BLACK
6
CONTINUOUS
10
1.13403
20
1.04307
11
1.13084
21
1.04521
0
LINE
8
BLACK
6
CONTINUOUS
10
1.13084
20
1.04521
11
1.1287
21
1.0484
0
LINE
8
BLACK
6
CONTINUOUS
10
1.1287
20
1.0484
11
1.12795
21
1.05217
0
LINE
8
BLACK
6
CONTINUOUS
10
1.12795
20
1.05217
11
1.12795
21
1.08957
0
LINE
8
BLACK
6
CONTINUOUS
10
1.12795
20
1.08957
11
1.1287
21
1.09333
0
LINE
8
BLACK
6
CONTINUOUS
10
1.1287
20
1.09333
11
1.13084
21
1.09653
0
LINE
8
BLACK
6
CONTINUOUS
10
1.13084
20
1.09653
11
1.13403
21
1.09866
0
LINE
8
BLACK
6
CONTINUOUS
10
1.13403
20
1.09866
11
1.1378
21
1.09941
0
LINE
8
BLACK
6
CONTINUOUS
10
1.1378
20
1.09941
11
1.15748
21
1.09941
0
LINE
8
BLACK
6
CONTINUOUS
10
1.15748
20
1.09941
11
1.16125
21
1.09866
0
LINE
8
BLACK
6
CONTINUOUS
10
1.23605
20
1.09866
11
1.23924
21
1.09653
0
LINE
8
BLACK
6
CONTINUOUS
10
1.23924
20
1.09653
11
1.24138
21
1.09333
0
LINE
8
BLACK
6
CONTINUOUS
10
1.24138
20
1.09333
11
1.24213
21
1.08957
0
LINE
8
BLACK
6
CONTINUOUS
10
1.24213
20
1.08957
11
1.24213
21
1.05217
0
LINE
8
BLACK
6
CONTINUOUS
10
1.24213
20
1.05217
11
1.24138
21
1.0484
0
LINE
8
BLACK
6
CONTINUOUS
10
1.24138
20
1.0484
11
1.23924
21
1.04521
0
LINE
8
BLACK
6
CONTINUOUS
10
1.23924
20
1.04521
11
1.23605
21
1.04307
0
LINE
8
BLACK
6
CONTINUOUS
10
1.23605
20
1.04307
11
1.23228
21
1.04232
0
LINE
8
BLACK
6
CONTINUOUS
10
1.23228
20
1.04232
11
1.2126
21
1.04232
0
LINE
8
BLACK
6
CONTINUOUS
10
1.2126
20
1.04232
11
1.20883
21
1.04307
0
LINE
8
BLACK
6
CONTINUOUS
10
1.20883
20
1.04307
11
1.20564
21
1.04521
0
LINE
8
BLACK
6
CONTINUOUS
10
1.20564
20
1.04521
11
1.20351
21
1.0484
0
LINE
8
BLACK
6
CONTINUOUS
10
1.20351
20
1.0484
11
1.20276
21
1.05217
0
LINE
8
BLACK
6
CONTINUOUS
10
1.20276
20
1.05217
11
1.20276
21
1.08957
0
LINE
8
BLACK
6
CONTINUOUS
10
1.20276
20
1.08957
11
1.20351
21
1.09333
0
LINE
8
BLACK
6
CONTINUOUS
10
1.20351
20
1.09333
11
1.20564
21
1.09653
0
LINE
8
BLACK
6
CONTINUOUS
10
1.20564
20
1.09653
11
1.20883
21
1.09866
0
LINE
8
BLACK
6
CONTINUOUS
10
1.20883
20
1.09866
11
1.2126
21
1.09941
0
LINE
8
BLACK
6
CONTINUOUS
10
1.2126
20
1.09941
11
1.23228
21
1.09941
0
LINE
8
BLACK
6
CONTINUOUS
10
1.23228
20
1.09941
11
1.23605
21
1.09866
0
LINE
8
BLACK
6
CONTINUOUS
10
1.02266
20
1.09925
11
1.02586
21
1.09712
0
LINE
8
BLACK
6
CONTINUOUS
10
1.02586
20
1.09712
11
1.02799
21
1.09392
0
LINE
8
BLACK
6
CONTINUOUS
10
1.02799
20
1.09392
11
1.02874
21
1.09016
0
LINE
8
BLACK
6
CONTINUOUS
10
1.02874
20
1.09016
11
1.02874
21
1.05276
0
LINE
8
BLACK
6
CONTINUOUS
10
1.02874
20
1.05276
11
1.02799
21
1.04899
0
LINE
8
BLACK
6
CONTINUOUS
10
1.02799
20
1.04899
11
1.02586
21
1.0458
0
LINE
8
BLACK
6
CONTINUOUS
10
1.02586
20
1.0458
11
1.02266
21
1.04366
0
LINE
8
BLACK
6
CONTINUOUS
10
1.02266
20
1.04366
11
1.0189
21
1.04291
0
LINE
8
BLACK
6
CONTINUOUS
10
1.0189
20
1.04291
11
0.999213
21
1.04291
0
LINE
8
BLACK
6
CONTINUOUS
10
0.999213
20
1.04291
11
0.995446
21
1.04366
0
LINE
8
BLACK
6
CONTINUOUS
10
0.995446
20
1.04366
11
0.992253
21
1.0458
0
LINE
8
BLACK
6
CONTINUOUS
10
0.992253
20
1.0458
11
0.990119
21
1.04899
0
LINE
8
BLACK
6
CONTINUOUS
10
0.990119
20
1.04899
11
0.98937
21
1.05276
0
LINE
8
BLACK
6
CONTINUOUS
10
0.98937
20
1.05276
11
0.98937
21
1.09016
0
LINE
8
BLACK
6
CONTINUOUS
10
0.98937
20
1.09016
11
0.990119
21
1.09392
0
LINE
8
BLACK
6
CONTINUOUS
10
0.990119
20
1.09392
11
0.992253
21
1.09712
0
LINE
8
BLACK
6
CONTINUOUS
10
0.992253
20
1.09712
11
0.995446
21
1.09925
0
LINE
8
BLACK
6
CONTINUOUS
10
0.995446
20
1.09925
11
0.999213
21
1.1
0
LINE
8
BLACK
6
CONTINUOUS
10
0.999213
20
1.1
11
1.0189
21
1.1
0
LINE
8
BLACK
6
CONTINUOUS
10
1.0189
20
1.1
11
1.02266
21
1.09925
0
LINE
8
BLACK
6
CONTINUOUS
10
1.09747
20
1.09925
11
1.10066
21
1.09712
0
LINE
8
BLACK
6
CONTINUOUS
10
1.10066
20
1.09712
11
1.10279
21
1.09392
0
LINE
8
BLACK
6
CONTINUOUS
10
1.10279
20
1.09392
11
1.10354
21
1.09016
0
LINE
8
BLACK
6
CONTINUOUS
10
1.10354
20
1.09016
11
1.10354
21
1.05276
0
LINE
8
BLACK
6
CONTINUOUS
10
1.10354
20
1.05276
11
1.10279
21
1.04899
0
LINE
8
BLACK
6
CONTINUOUS
10
1.10279
20
1.04899
11
1.10066
21
1.0458
0
LINE
8
BLACK
6
CONTINUOUS
10
1.10066
20
1.0458
11
1.09747
21
1.04366
0
LINE
8
BLACK
6
CONTINUOUS
10
1.09747
20
1.04366
11
1.0937
21
1.04291
0
LINE
8
BLACK
6
CONTINUOUS
10
1.0937
20
1.04291
11
1.07402
21
1.04291
0
LINE
8
BLACK
6
CONTINUOUS
10
1.07402
20
1.04291
11
1.07025
21
1.04366
0
LINE
8
BLACK
6
CONTINUOUS
10
1.07025
20
1.04366
11
1.06706
21
1.0458
0
LINE
8
BLACK
6
CONTINUOUS
10
1.06706
20
1.0458
11
1.06492
21
1.04899
0
LINE
8
BLACK
6
CONTINUOUS
10
1.06492
20
1.04899
11
1.06417
21
1.05276
0
LINE
8
BLACK
6
CONTINUOUS
10
1.06417
20
1.05276
11
1.06417
21
1.09016
0
LINE
8
BLACK
6
CONTINUOUS
10
1.06417
20
1.09016
11
1.06492
21
1.09392
0
LINE
8
BLACK
6
CONTINUOUS
10
1.06492
20
1.09392
11
1.06706
21
1.09712
0
LINE
8
BLACK
6
CONTINUOUS
10
1.06706
20
1.09712
11
1.07025
21
1.09925
0
LINE
8
BLACK
6
CONTINUOUS
10
1.07025
20
1.09925
11
1.07402
21
1.1
0
LINE
8
BLACK
6
CONTINUOUS
10
1.07402
20
1.1
11
1.0937
21
1.1
0
LINE
8
BLACK
6
CONTINUOUS
10
1.0937
20
1.1
11
1.09747
21
1.09925
0
LINE
8
BLACK
6
CONTINUOUS
10
0.363189
20
1.05315
11
0.292323
21
1.05315
0
LINE
8
BLACK
6
CONTINUOUS
10
0.292323
20
1.05315
11
0.292323
21
1.15157
0
LINE
8
BLACK
6
CONTINUOUS
10
0.292323
20
1.15157
11
0.363189
21
1.15157
0
LINE
8
BLACK
6
CONTINUOUS
10
0.363189
20
1.15157
11
0.363189
21
1.05315
0
LINE
8
BLACK
6
CONTINUOUS
10
0.725394
20
1.06496
11
0.430118
21
1.06496
0
LINE
8
BLACK
6
CONTINUOUS
10
0.430118
20
1.06496
11
0.430118
21
1.18307
0
LINE
8
BLACK
6
CONTINUOUS
10
0.430118
20
1.18307
11
0.725394
21
1.18307
0
LINE
8
BLACK
6
CONTINUOUS
10
0.725394
20
1.18307
11
0.725394
21
1.06496
0
LINE
8
BLACK
6
CONTINUOUS
10
1.86122
20
1.17323
11
1.74311
21
1.17323
0
LINE
8
BLACK
6
CONTINUOUS
10
1.74311
20
1.17323
11
1.74311
21
1.23228
0
LINE
8
BLACK
6
CONTINUOUS
10
1.74311
20
1.23228
11
1.86122
21
1.23228
0
LINE
8
BLACK
6
CONTINUOUS
10
1.86122
20
1.23228
11
1.86122
21
1.17323
0
LINE
8
BLACK
6
CONTINUOUS
10
0.395007
20
1.28272
11
0.3982
21
1.28058
0
LINE
8
BLACK
6
CONTINUOUS
10
0.3982
20
1.28058
11
0.400333
21
1.27739
0
LINE
8
BLACK
6
CONTINUOUS
10
0.400333
20
1.27739
11
0.401083
21
1.27362
0
LINE
8
BLACK
6
CONTINUOUS
10
0.401083
20
1.27362
11
0.401083
21
1.23819
0
LINE
8
BLACK
6
CONTINUOUS
10
0.401083
20
1.23819
11
0.400333
21
1.23442
0
LINE
8
BLACK
6
CONTINUOUS
10
0.400333
20
1.23442
11
0.3982
21
1.23123
0
LINE
8
BLACK
6
CONTINUOUS
10
0.3982
20
1.23123
11
0.395007
21
1.2291
0
LINE
8
BLACK
6
CONTINUOUS
10
0.395007
20
1.2291
11
0.39124
21
1.22835
0
LINE
8
BLACK
6
CONTINUOUS
10
0.39124
20
1.22835
11
0.370571
21
1.22835
0
LINE
8
BLACK
6
CONTINUOUS
10
0.370571
20
1.22835
11
0.366804
21
1.2291
0
LINE
8
BLACK
6
CONTINUOUS
10
0.366804
20
1.2291
11
0.363611
21
1.23123
0
LINE
8
BLACK
6
CONTINUOUS
10
0.363611
20
1.23123
11
0.361478
21
1.23442
0
LINE
8
BLACK
6
CONTINUOUS
10
0.361478
20
1.23442
11
0.360728
21
1.23819
0
LINE
8
BLACK
6
CONTINUOUS
10
0.360728
20
1.23819
11
0.360728
21
1.27362
0
LINE
8
BLACK
6
CONTINUOUS
10
0.360728
20
1.27362
11
0.361478
21
1.27739
0
LINE
8
BLACK
6
CONTINUOUS
10
0.361478
20
1.27739
11
0.363611
21
1.28058
0
LINE
8
BLACK
6
CONTINUOUS
10
0.363611
20
1.28058
11
0.366804
21
1.28272
0
LINE
8
BLACK
6
CONTINUOUS
10
0.366804
20
1.28272
11
0.370571
21
1.28346
0
LINE
8
BLACK
6
CONTINUOUS
10
0.370571
20
1.28346
11
0.39124
21
1.28346
0
LINE
8
BLACK
6
CONTINUOUS
10
0.39124
20
1.28346
11
0.395007
21
1.28272
0
LINE
8
BLACK
6
CONTINUOUS
10
0.466857
20
1.28272
11
0.47005
21
1.28058
0
LINE
8
BLACK
6
CONTINUOUS
10
0.47005
20
1.28058
11
0.472184
21
1.27739
0
LINE
8
BLACK
6
CONTINUOUS
10
0.472184
20
1.27739
11
0.472933
21
1.27362
0
LINE
8
BLACK
6
CONTINUOUS
10
0.472933
20
1.27362
11
0.472933
21
1.23819
0
LINE
8
BLACK
6
CONTINUOUS
10
0.472933
20
1.23819
11
0.472184
21
1.23442
0
LINE
8
BLACK
6
CONTINUOUS
10
0.472184
20
1.23442
11
0.47005
21
1.23123
0
LINE
8
BLACK
6
CONTINUOUS
10
0.47005
20
1.23123
11
0.466857
21
1.2291
0
LINE
8
BLACK
6
CONTINUOUS
10
0.466857
20
1.2291
11
0.463091
21
1.22835
0
LINE
8
BLACK
6
CONTINUOUS
10
0.463091
20
1.22835
11
0.442421
21
1.22835
0
LINE
8
BLACK
6
CONTINUOUS
10
0.442421
20
1.22835
11
0.438655
21
1.2291
0
LINE
8
BLACK
6
CONTINUOUS
10
0.438655
20
1.2291
11
0.435462
21
1.23123
0
LINE
8
BLACK
6
CONTINUOUS
10
0.435462
20
1.23123
11
0.433328
21
1.23442
0
LINE
8
BLACK
6
CONTINUOUS
10
0.433328
20
1.23442
11
0.432579
21
1.23819
0
LINE
8
BLACK
6
CONTINUOUS
10
0.432579
20
1.23819
11
0.432579
21
1.27362
0
LINE
8
BLACK
6
CONTINUOUS
10
0.432579
20
1.27362
11
0.433328
21
1.27739
0
LINE
8
BLACK
6
CONTINUOUS
10
0.433328
20
1.27739
11
0.435462
21
1.28058
0
LINE
8
BLACK
6
CONTINUOUS
10
0.435462
20
1.28058
11
0.438655
21
1.28272
0
LINE
8
BLACK
6
CONTINUOUS
10
0.438655
20
1.28272
11
0.442421
21
1.28346
0
LINE
8
BLACK
6
CONTINUOUS
10
0.442421
20
1.28346
11
0.463091
21
1.28346
0
LINE
8
BLACK
6
CONTINUOUS
10
0.463091
20
1.28346
11
0.466857
21
1.28272
0
LINE
8
BLACK
6
CONTINUOUS
10
0.355512
20
1.32874
11
0.296457
21
1.32874
0
LINE
8
BLACK
6
CONTINUOUS
10
0.296457
20
1.32874
11
0.296457
21
1.3878
0
LINE
8
BLACK
6
CONTINUOUS
10
0.296457
20
1.3878
11
0.355512
21
1.3878
0
LINE
8
BLACK
6
CONTINUOUS
10
0.355512
20
1.3878
11
0.355512
21
1.32874
0
LINE
8
BLACK
6
CONTINUOUS
10
0.503543
20
1.32874
11
0.444488
21
1.32874
0
LINE
8
BLACK
6
CONTINUOUS
10
0.444488
20
1.32874
11
0.444488
21
1.3878
0
LINE
8
BLACK
6
CONTINUOUS
10
0.444488
20
1.3878
11
0.503543
21
1.3878
0
LINE
8
BLACK
6
CONTINUOUS
10
0.503543
20
1.3878
11
0.503543
21
1.32874
0
LINE
8
BLACK
6
CONTINUOUS
10
0.877953
20
1.33268
11
0.818898
21
1.33268
0
LINE
8
BLACK
6
CONTINUOUS
10
0.818898
20
1.33268
11
0.818898
21
1.45079
0
LINE
8
BLACK
6
CONTINUOUS
10
0.818898
20
1.45079
11
0.877953
21
1.45079
0
LINE
8
BLACK
6
CONTINUOUS
10
0.877953
20
1.45079
11
0.877953
21
1.33268
0
LINE
8
BLACK
6
CONTINUOUS
10
1.0504
20
1.45034
11
1.05697
21
1.44837
0
LINE
8
BLACK
6
CONTINUOUS
10
1.05697
20
1.44837
11
1.06291
21
1.44494
0
LINE
8
BLACK
6
CONTINUOUS
10
1.06291
20
1.44494
11
1.0679
21
1.44024
0
LINE
8
BLACK
6
CONTINUOUS
10
1.0679
20
1.44024
11
1.07166
21
1.43451
0
LINE
8
BLACK
6
CONTINUOUS
10
1.07166
20
1.43451
11
1.07401
21
1.42807
0
LINE
8
BLACK
6
CONTINUOUS
10
1.07401
20
1.42807
11
1.0748
21
1.42126
0
LINE
8
BLACK
6
CONTINUOUS
10
1.0748
20
1.42126
11
1.0748
21
1.3622
0
LINE
8
BLACK
6
CONTINUOUS
10
1.0748
20
1.3622
11
1.0746
21
1.35878
0
LINE
8
BLACK
6
CONTINUOUS
10
1.0746
20
1.35878
11
1.07302
21
1.35211
0
LINE
8
BLACK
6
CONTINUOUS
10
1.07302
20
1.35211
11
1.06995
21
1.34598
0
LINE
8
BLACK
6
CONTINUOUS
10
1.06995
20
1.34598
11
1.06554
21
1.34073
0
LINE
8
BLACK
6
CONTINUOUS
10
1.06554
20
1.34073
11
1.06004
21
1.33663
0
LINE
8
BLACK
6
CONTINUOUS
10
1.06004
20
1.33663
11
1.05374
21
1.33392
0
LINE
8
BLACK
6
CONTINUOUS
10
1.05374
20
1.33392
11
1.04699
21
1.33273
0
LINE
8
BLACK
6
CONTINUOUS
10
1.04699
20
1.33273
11
1.04015
21
1.33313
0
LINE
8
BLACK
6
CONTINUOUS
10
1.04015
20
1.33313
11
1.03358
21
1.33509
0
LINE
8
BLACK
6
CONTINUOUS
10
1.03358
20
1.33509
11
1.02764
21
1.33852
0
LINE
8
BLACK
6
CONTINUOUS
10
1.02764
20
1.33852
11
1.02266
21
1.34322
0
LINE
8
BLACK
6
CONTINUOUS
10
1.02266
20
1.34322
11
1.01889
21
1.34895
0
LINE
8
BLACK
6
CONTINUOUS
10
1.01889
20
1.34895
11
1.01654
21
1.3554
0
LINE
8
BLACK
6
CONTINUOUS
10
1.01654
20
1.3554
11
1.01575
21
1.3622
0
LINE
8
BLACK
6
CONTINUOUS
10
1.01575
20
1.3622
11
1.01575
21
1.42126
0
LINE
8
BLACK
6
CONTINUOUS
10
1.01575
20
1.42126
11
1.01595
21
1.42469
0
LINE
8
BLACK
6
CONTINUOUS
10
1.01595
20
1.42469
11
1.01753
21
1.43136
0
LINE
8
BLACK
6
CONTINUOUS
10
1.01753
20
1.43136
11
1.02061
21
1.43749
0
LINE
8
BLACK
6
CONTINUOUS
10
1.02061
20
1.43749
11
1.02501
21
1.44274
0
LINE
8
BLACK
6
CONTINUOUS
10
1.02501
20
1.44274
11
1.03051
21
1.44683
0
LINE
8
BLACK
6
CONTINUOUS
10
1.03051
20
1.44683
11
1.03681
21
1.44955
0
LINE
8
BLACK
6
CONTINUOUS
10
1.03681
20
1.44955
11
1.04356
21
1.45074
0
LINE
8
BLACK
6
CONTINUOUS
10
1.04356
20
1.45074
11
1.0504
21
1.45034
0
LINE
8
BLACK
6
CONTINUOUS
10
1.42606
20
1.37
11
1.36606
21
1.37
0
LINE
8
BLACK
6
CONTINUOUS
10
1.36606
20
1.37
11
1.36606
21
1.43
0
LINE
8
BLACK
6
CONTINUOUS
10
1.36606
20
1.43
11
1.42606
21
1.43
0
LINE
8
BLACK
6
CONTINUOUS
10
1.42606
20
1.43
11
1.42606
21
1.37
0
LINE
8
BLACK
6
CONTINUOUS
10
1.52606
20
1.37
11
1.46606
21
1.37
0
LINE
8
BLACK
6
CONTINUOUS
10
1.46606
20
1.37
11
1.46606
21
1.43
0
LINE
8
BLACK
6
CONTINUOUS
10
1.46606
20
1.43
11
1.52606
21
1.43
0
LINE
8
BLACK
6
CONTINUOUS
10
1.52606
20
1.43
11
1.52606
21
1.37
0
LINE
8
BLACK
6
CONTINUOUS
10
1.42606
20
1.47
11
1.36606
21
1.47
0
LINE
8
BLACK
6
CONTINUOUS
10
1.36606
20
1.47
11
1.36606
21
1.53
0
LINE
8
BLACK
6
CONTINUOUS
10
1.36606
20
1.53
11
1.42606
21
1.53
0
LINE
8
BLACK
6
CONTINUOUS
10
1.42606
20
1.53
11
1.42606
21
1.47
0
LINE
8
BLACK
6
CONTINUOUS
10
1.52606
20
1.47
11
1.46606
21
1.47
0
LINE
8
BLACK
6
CONTINUOUS
10
1.46606
20
1.47
11
1.46606
21
1.53
0
LINE
8
BLACK
6
CONTINUOUS
10
1.46606
20
1.53
11
1.52606
21
1.53
0
LINE
8
BLACK
6
CONTINUOUS
10
1.52606
20
1.53
11
1.52606
21
1.47
0
LINE
8
BLACK
6
CONTINUOUS
10
0.42051
20
1.71632
11
0.433874
21
1.71315
0
LINE
8
BLACK
6
CONTINUOUS
10
0.433874
20
1.71315
11
0.446781
21
1.70845
0
LINE
8
BLACK
6
CONTINUOUS
10
0.446781
20
1.70845
11
0.459055
21
1.70229
0
LINE
8
BLACK
6
CONTINUOUS
10
0.459055
20
1.70229
11
0.470531
21
1.69474
0
LINE
8
BLACK
6
CONTINUOUS
10
0.470531
20
1.69474
11
0.481052
21
1.68591
0
LINE
8
BLACK
6
CONTINUOUS
10
0.481052
20
1.68591
11
0.490478
21
1.67592
0
LINE
8
BLACK
6
CONTINUOUS
10
0.490478
20
1.67592
11
0.49868
21
1.6649
0
LINE
8
BLACK
6
CONTINUOUS
10
0.49868
20
1.6649
11
0.505547
21
1.65301
0
LINE
8
BLACK
6
CONTINUOUS
10
0.505547
20
1.65301
11
0.510987
21
1.6404
0
LINE
8
BLACK
6
CONTINUOUS
10
0.510987
20
1.6404
11
0.514927
21
1.62724
0
LINE
8
BLACK
6
CONTINUOUS
10
0.514927
20
1.62724
11
0.517312
21
1.61371
0
LINE
8
BLACK
6
CONTINUOUS
10
0.517312
20
1.61371
11
0.51811
21
1.6
0
LINE
8
BLACK
6
CONTINUOUS
10
0.51811
20
1.6
11
0.517312
21
1.58629
0
LINE
8
BLACK
6
CONTINUOUS
10
0.517312
20
1.58629
11
0.514927
21
1.57276
0
LINE
8
BLACK
6
CONTINUOUS
10
0.514927
20
1.57276
11
0.510987
21
1.5596
0
LINE
8
BLACK
6
CONTINUOUS
10
0.510987
20
1.5596
11
0.505547
21
1.54699
0
LINE
8
BLACK
6
CONTINUOUS
10
0.505547
20
1.54699
11
0.49868
21
1.5351
0
LINE
8
BLACK
6
CONTINUOUS
10
0.49868
20
1.5351
11
0.490478
21
1.52408
0
LINE
8
BLACK
6
CONTINUOUS
10
0.490478
20
1.52408
11
0.481052
21
1.51409
0
LINE
8
BLACK
6
CONTINUOUS
10
0.481052
20
1.51409
11
0.470531
21
1.50526
0
LINE
8
BLACK
6
CONTINUOUS
10
0.470531
20
1.50526
11
0.459055
21
1.49771
0
LINE
8
BLACK
6
CONTINUOUS
10
0.459055
20
1.49771
11
0.446781
21
1.49155
0
LINE
8
BLACK
6
CONTINUOUS
10
0.446781
20
1.49155
11
0.433874
21
1.48685
0
LINE
8
BLACK
6
CONTINUOUS
10
0.433874
20
1.48685
11
0.42051
21
1.48368
0
LINE
8
BLACK
6
CONTINUOUS
10
0.42051
20
1.48368
11
0.406867
21
1.48209
0
LINE
8
BLACK
6
CONTINUOUS
10
0.406867
20
1.48209
11
0.393133
21
1.48209
0
LINE
8
BLACK
6
CONTINUOUS
10
0.393133
20
1.48209
11
0.37949
21
1.48368
0
LINE
8
BLACK
6
CONTINUOUS
10
0.37949
20
1.48368
11
0.366126
21
1.48685
0
LINE
8
BLACK
6
CONTINUOUS
10
0.366126
20
1.48685
11
0.353219
21
1.49155
0
LINE
8
BLACK
6
CONTINUOUS
10
0.353219
20
1.49155
11
0.340945
21
1.49771
0
LINE
8
BLACK
6
CONTINUOUS
10
0.340945
20
1.49771
11
0.329469
21
1.50526
0
LINE
8
BLACK
6
CONTINUOUS
10
0.329469
20
1.50526
11
0.318948
21
1.51409
0
LINE
8
BLACK
6
CONTINUOUS
10
0.318948
20
1.51409
11
0.309522
21
1.52408
0
LINE
8
BLACK
6
CONTINUOUS
10
0.309522
20
1.52408
11
0.30132
21
1.5351
0
LINE
8
BLACK
6
CONTINUOUS
10
0.30132
20
1.5351
11
0.294453
21
1.54699
0
LINE
8
BLACK
6
CONTINUOUS
10
0.294453
20
1.54699
11
0.289013
21
1.5596
0
LINE
8
BLACK
6
CONTINUOUS
10
0.289013
20
1.5596
11
0.285073
21
1.57276
0
LINE
8
BLACK
6
CONTINUOUS
10
0.285073
20
1.57276
11
0.282688
21
1.58629
0
LINE
8
BLACK
6
CONTINUOUS
10
0.282688
20
1.58629
11
0.28189
21
1.6
0
LINE
8
BLACK
6
CONTINUOUS
10
0.28189
20
1.6
11
0.282688
21
1.61371
0
LINE
8
BLACK
6
CONTINUOUS
10
0.282688
20
1.61371
11
0.285073
21
1.62724
0
LINE
8
BLACK
6
CONTINUOUS
10
0.285073
20
1.62724
11
0.289013
21
1.6404
0
LINE
8
BLACK
6
CONTINUOUS
10
0.289013
20
1.6404
11
0.294453
21
1.65301
0
LINE
8
BLACK
6
CONTINUOUS
10
0.294453
20
1.65301
11
0.30132
21
1.6649
0
LINE
8
BLACK
6
CONTINUOUS
10
0.30132
20
1.6649
11
0.309522
21
1.67592
0
LINE
8
BLACK
6
CONTINUOUS
10
0.309522
20
1.67592
11
0.318948
21
1.68591
0
LINE
8
BLACK
6
CONTINUOUS
10
0.318948
20
1.68591
11
0.329469
21
1.69474
0
LINE
8
BLACK
6
CONTINUOUS
10
0.329469
20
1.69474
11
0.340945
21
1.70229
0
LINE
8
BLACK
6
CONTINUOUS
10
0.340945
20
1.70229
11
0.353219
21
1.70845
0
LINE
8
BLACK
6
CONTINUOUS
10
0.353219
20
1.70845
11
0.366126
21
1.71315
0
LINE
8
BLACK
6
CONTINUOUS
10
0.366126
20
1.71315
11
0.37949
21
1.71632
0
LINE
8
BLACK
6
CONTINUOUS
10
0.37949
20
1.71632
11
0.393133
21
1.71791
0
LINE
8
BLACK
6
CONTINUOUS
10
0.393133
20
1.71791
11
0.406867
21
1.71791
0
LINE
8
BLACK
6
CONTINUOUS
10
0.406867
20
1.71791
11
0.42051
21
1.71632
0
LINE
8
BLACK
6
CONTINUOUS
10
2.02051
20
1.71632
11
2.03387
21
1.71315
0
LINE
8
BLACK
6
CONTINUOUS
10
2.03387
20
1.71315
11
2.04678
21
1.70845
0
LINE
8
BLACK
6
CONTINUOUS
10
2.04678
20
1.70845
11
2.05906
21
1.70229
0
LINE
8
BLACK
6
CONTINUOUS
10
2.05906
20
1.70229
11
2.07053
21
1.69474
0
LINE
8
BLACK
6
CONTINUOUS
10
2.07053
20
1.69474
11
2.08105
21
1.68591
0
LINE
8
BLACK
6
CONTINUOUS
10
2.08105
20
1.68591
11
2.09048
21
1.67592
0
LINE
8
BLACK
6
CONTINUOUS
10
2.09048
20
1.67592
11
2.09868
21
1.6649
0
LINE
8
BLACK
6
CONTINUOUS
10
2.09868
20
1.6649
11
2.10555
21
1.65301
0
LINE
8
BLACK
6
CONTINUOUS
10
2.10555
20
1.65301
11
2.11099
21
1.6404
0
LINE
8
BLACK
6
CONTINUOUS
10
2.11099
20
1.6404
11
2.11493
21
1.62724
0
LINE
8
BLACK
6
CONTINUOUS
10
2.11493
20
1.62724
11
2.11731
21
1.61371
0
LINE
8
BLACK
6
CONTINUOUS
10
2.11731
20
1.61371
11
2.11811
21
1.6
0
LINE
8
BLACK
6
CONTINUOUS
10
2.11811
20
1.6
11
2.11731
21
1.58629
0
LINE
8
BLACK
6
CONTINUOUS
10
2.11731
20
1.58629
11
2.11493
21
1.57276
0
LINE
8
BLACK
6
CONTINUOUS
10
2.11493
20
1.57276
11
2.11099
21
1.5596
0
LINE
8
BLACK
6
CONTINUOUS
10
2.11099
20
1.5596
11
2.10555
21
1.54699
0
LINE
8
BLACK
6
CONTINUOUS
10
2.10555
20
1.54699
11
2.09868
21
1.5351
0
LINE
8
BLACK
6
CONTINUOUS
10
2.09868
20
1.5351
11
2.09048
21
1.52408
0
LINE
8
BLACK
6
CONTINUOUS
10
2.09048
20
1.52408
11
2.08105
21
1.51409
0
LINE
8
BLACK
6
CONTINUOUS
10
2.08105
20
1.51409
11
2.07053
21
1.50526
0
LINE
8
BLACK
6
CONTINUOUS
10
2.07053
20
1.50526
11
2.05906
21
1.49771
0
LINE
8
BLACK
6
CONTINUOUS
10
2.05906
20
1.49771
11
2.04678
21
1.49155
0
LINE
8
BLACK
6
CONTINUOUS
10
2.04678
20
1.49155
11
2.03387
21
1.48685
0
LINE
8
BLACK
6
CONTINUOUS
10
2.03387
20
1.48685
11
2.02051
21
1.48368
0
LINE
8
BLACK
6
CONTINUOUS
10
2.02051
20
1.48368
11
2.00687
21
1.48209
0
LINE
8
BLACK
6
CONTINUOUS
10
2.00687
20
1.48209
11
1.99313
21
1.48209
0
LINE
8
BLACK
6
CONTINUOUS
10
1.99313
20
1.48209
11
1.97949
21
1.48368
0
LINE
8
BLACK
6
CONTINUOUS
10
1.97949
20
1.48368
11
1.96613
21
1.48685
0
LINE
8
BLACK
6
CONTINUOUS
10
1.96613
20
1.48685
11
1.95322
21
1.49155
0
LINE
8
BLACK
6
CONTINUOUS
10
1.95322
20
1.49155
11
1.94094
21
1.49771
0
LINE
8
BLACK
6
CONTINUOUS
10
1.94094
20
1.49771
11
1.92947
21
1.50526
0
LINE
8
BLACK
6
CONTINUOUS
10
1.92947
20
1.50526
11
1.91895
21
1.51409
0
LINE
8
BLACK
6
CONTINUOUS
10
1.91895
20
1.51409
11
1.90952
21
1.52408
0
LINE
8
BLACK
6
CONTINUOUS
10
1.90952
20
1.52408
11
1.90132
21
1.5351
0
LINE
8
BLACK
6
CONTINUOUS
10
1.90132
20
1.5351
11
1.89445
21
1.54699
0
LINE
8
BLACK
6
CONTINUOUS
10
1.89445
20
1.54699
11
1.88901
21
1.5596
0
LINE
8
BLACK
6
CONTINUOUS
10
1.88901
20
1.5596
11
1.88507
21
1.57276
0
LINE
8
BLACK
6
CONTINUOUS
10
1.88507
20
1.57276
11
1.88269
21
1.58629
0
LINE
8
BLACK
6
CONTINUOUS
10
1.88269
20
1.58629
11
1.88189
21
1.6
0
LINE
8
BLACK
6
CONTINUOUS
10
1.88189
20
1.6
11
1.88269
21
1.61371
0
LINE
8
BLACK
6
CONTINUOUS
10
1.88269
20
1.61371
11
1.88507
21
1.62724
0
LINE
8
BLACK
6
CONTINUOUS
10
1.88507
20
1.62724
11
1.88901
21
1.6404
0
LINE
8
BLACK
6
CONTINUOUS
10
1.88901
20
1.6404
11
1.89445
21
1.65301
0
LINE
8
BLACK
6
CONTINUOUS
10
1.89445
20
1.65301
11
1.90132
21
1.6649
0
LINE
8
BLACK
6
CONTINUOUS
10
1.90132
20
1.6649
11
1.90952
21
1.67592
0
LINE
8
BLACK
6
CONTINUOUS
10
1.90952
20
1.67592
11
1.91895
21
1.68591
0
LINE
8
BLACK
6
CONTINUOUS
10
1.91895
20
1.68591
11
1.92947
21
1.69474
0
LINE
8
BLACK
6
CONTINUOUS
10
1.92947
20
1.69474
11
1.94094
21
1.70229
0
LINE
8
BLACK
6
CONTINUOUS
10
1.94094
20
1.70229
11
1.95322
21
1.70845
0
LINE
8
BLACK
6
CONTINUOUS
10
1.95322
20
1.70845
11
1.96613
21
1.71315
0
LINE
8
BLACK
6
CONTINUOUS
10
1.96613
20
1.71315
11
1.97949
21
1.71632
0
LINE
8
BLACK
6
CONTINUOUS
10
1.97949
20
1.71632
11
1.99313
21
1.71791
0
LINE
8
BLACK
6
CONTINUOUS
10
1.99313
20
1.71791
11
2.00687
21
1.71791
0
LINE
8
BLACK
6
CONTINUOUS
10
2.00687
20
1.71791
11
2.02051
21
1.71632
0
LINE
8
BLACK
6
CONTINUOUS
10
1.42606
20
1.57
11
1.36606
21
1.57
0
LINE
8
BLACK
6
CONTINUOUS
10
1.36606
20
1.57
11
1.36606
21
1.63
0
LINE
8
BLACK
6
CONTINUOUS
10
1.36606
20
1.63
11
1.42606
21
1.63
0
LINE
8
BLACK
6
CONTINUOUS
10
1.42606
20
1.63
11
1.42606
21
1.57
0
LINE
8
BLACK
6
CONTINUOUS
10
1.52606
20
1.57
11
1.46606
21
1.57
0
LINE
8
BLACK
6
CONTINUOUS
10
1.46606
20
1.57
11
1.46606
21
1.63
0
LINE
8
BLACK
6
CONTINUOUS
10
1.46606
20
1.63
11
1.52606
21
1.63
0
LINE
8
BLACK
6
CONTINUOUS
10
1.52606
20
1.63
11
1.52606
21
1.57
0
LINE
8
BLACK
6
CONTINUOUS
10
1.42606
20
1.67
11
1.36606
21
1.67
0
LINE
8
BLACK
6
CONTINUOUS
10
1.36606
20
1.67
11
1.36606
21
1.73
0
LINE
8
BLACK
6
CONTINUOUS
10
1.36606
20
1.73
11
1.42606
21
1.73
0
LINE
8
BLACK
6
CONTINUOUS
10
1.42606
20
1.73
11
1.42606
21
1.67
0
LINE
8
BLACK
6
CONTINUOUS
10
1.52606
20
1.67
11
1.46606
21
1.67
0
LINE
8
BLACK
6
CONTINUOUS
10
1.46606
20
1.67
11
1.46606
21
1.73
0
LINE
8
BLACK
6
CONTINUOUS
10
1.46606
20
1.73
11
1.52606
21
1.73
0
LINE
8
BLACK
6
CONTINUOUS
10
1.52606
20
1.73
11
1.52606
21
1.67
  0
ENDSEC
  0
EOF
