  0
SECTION
  2
HEADER
  9
$ANGBASE
  50
0.0
  9
$ANGDIR
  70
1
  9
$MEASUREMENT
  70
0
  0
ENDSEC
  0
SECTION
  2
TABLES
  0
TABLE
  2
LTYPE
  70
4
  0
LTYPE
  5
40F
  2
CONTINUOUS
  70
0
  3
Solid line
  72
65
  73
0
  40
0.0
  0
LTYPE
  5
410
  2
DASHDOT
 70
0
  3
Dash Dot ____ _ ____ _
 72
65
 73
4
 40
2.0
 49
1.25
 49
-0.25
 49
0.25
 49
-0.25
  0
LTYPE
  5
411
  2
DASHED
 70
0
  3
Dashed __ __ __ __ __
 72
65
 73
2
 40
0.75
 49
0.5
 49
-0.25
  0
LTYPE
  5
43B
  2
DOTTED
 70
0
  3
Dotted .  .  .  .
 72
65
 73
2
 40
0.2
 49
0.0
 49
-0.2
  0
ENDTAB
  0
TABLE
  2
STYLE
  70
4
  0
STYLE
  2
KICAD
  70
0
  40
0
  41
1
  42
1
  50
0
  71
0
  3
isocp.shx
  0
STYLE
  2
KICADB
  70
0
  40
0
  41
1
  42
1
  50
0
  71
0
  3
isocp.shx
  0
STYLE
  2
KICADI
  70
0
  40
0
  41
1
  42
1
  50
15
  71
0
  3
isocp.shx
  0
STYLE
  2
KICADBI
  70
0
  40
0
  41
1
  42
1
  50
15
  71
0
  3
isocp.shx
  0
ENDTAB
  0
TABLE
  2
LAYER
  70
1
  0
LAYER
  2
BLACK
  70
0
  62
7
  6
CONTINUOUS
  0
ENDTAB
  0
ENDSEC
  0
SECTION
  2
ENTITIES
0
LINE
8
BLACK
6
CONTINUOUS
10
1.76219
20
0.488515
11
1.76232
21
0.488538
0
LINE
8
BLACK
6
CONTINUOUS
10
1.76232
20
0.488538
11
1.76244
21
0.488472
0
LINE
8
BLACK
6
CONTINUOUS
10
1.76244
20
0.488472
11
1.76282
21
0.488405
0
LINE
8
BLACK
6
CONTINUOUS
10
1.76282
20
0.488405
11
1.76341
21
0.487911
0
LINE
8
BLACK
6
CONTINUOUS
10
1.76341
20
0.487911
11
1.76407
21
0.487528
0
LINE
8
BLACK
6
CONTINUOUS
10
1.76407
20
0.487528
11
1.76416
21
0.487278
0
LINE
8
BLACK
6
CONTINUOUS
10
1.76416
20
0.487278
11
1.76437
21
0.487106
0
LINE
8
BLACK
6
CONTINUOUS
10
1.76437
20
0.487106
11
1.7645
21
0.486351
0
LINE
8
BLACK
6
CONTINUOUS
10
1.7645
20
0.486351
11
1.76476
21
0.48563
0
LINE
8
BLACK
6
CONTINUOUS
10
1.76476
20
0.48563
11
1.76476
21
0.28563
0
LINE
8
BLACK
6
CONTINUOUS
10
1.76476
20
0.28563
11
1.7647
21
0.285246
0
LINE
8
BLACK
6
CONTINUOUS
10
1.7647
20
0.285246
11
1.76472
21
0.285117
0
LINE
8
BLACK
6
CONTINUOUS
10
1.76472
20
0.285117
11
1.76465
21
0.285004
0
LINE
8
BLACK
6
CONTINUOUS
10
1.76465
20
0.285004
11
1.76459
21
0.28462
0
LINE
8
BLACK
6
CONTINUOUS
10
1.76459
20
0.28462
11
1.76409
21
0.284032
0
LINE
8
BLACK
6
CONTINUOUS
10
1.76409
20
0.284032
11
1.76371
21
0.283368
0
LINE
8
BLACK
6
CONTINUOUS
10
1.76371
20
0.283368
11
1.76346
21
0.283277
0
LINE
8
BLACK
6
CONTINUOUS
10
1.76346
20
0.283277
11
1.76329
21
0.283073
0
LINE
8
BLACK
6
CONTINUOUS
10
1.76329
20
0.283073
11
1.76253
21
0.28294
0
LINE
8
BLACK
6
CONTINUOUS
10
1.76253
20
0.28294
11
1.76181
21
0.282677
0
LINE
8
BLACK
6
CONTINUOUS
10
1.76181
20
0.282677
11
1.46181
21
0.282677
0
LINE
8
BLACK
6
CONTINUOUS
10
1.46181
20
0.282677
11
1.46143
21
0.282745
0
LINE
8
BLACK
6
CONTINUOUS
10
1.46143
20
0.282745
11
1.4613
21
0.282722
0
LINE
8
BLACK
6
CONTINUOUS
10
1.4613
20
0.282722
11
1.46118
21
0.282788
0
LINE
8
BLACK
6
CONTINUOUS
10
1.46118
20
0.282788
11
1.4608
21
0.282855
0
LINE
8
BLACK
6
CONTINUOUS
10
1.4608
20
0.282855
11
1.46021
21
0.283348
0
LINE
8
BLACK
6
CONTINUOUS
10
1.46021
20
0.283348
11
1.45955
21
0.283732
0
LINE
8
BLACK
6
CONTINUOUS
10
1.45955
20
0.283732
11
1.45946
21
0.283982
0
LINE
8
BLACK
6
CONTINUOUS
10
1.45946
20
0.283982
11
1.45925
21
0.284154
0
LINE
8
BLACK
6
CONTINUOUS
10
1.45925
20
0.284154
11
1.45912
21
0.284909
0
LINE
8
BLACK
6
CONTINUOUS
10
1.45912
20
0.284909
11
1.45886
21
0.28563
0
LINE
8
BLACK
6
CONTINUOUS
10
1.45886
20
0.28563
11
1.45886
21
0.48563
0
LINE
8
BLACK
6
CONTINUOUS
10
1.45886
20
0.48563
11
1.45893
21
0.486013
0
LINE
8
BLACK
6
CONTINUOUS
10
1.45893
20
0.486013
11
1.4589
21
0.486143
0
LINE
8
BLACK
6
CONTINUOUS
10
1.4589
20
0.486143
11
1.45897
21
0.486256
0
LINE
8
BLACK
6
CONTINUOUS
10
1.45897
20
0.486256
11
1.45904
21
0.48664
0
LINE
8
BLACK
6
CONTINUOUS
10
1.45904
20
0.48664
11
1.45953
21
0.487228
0
LINE
8
BLACK
6
CONTINUOUS
10
1.45953
20
0.487228
11
1.45991
21
0.487892
0
LINE
8
BLACK
6
CONTINUOUS
10
1.45991
20
0.487892
11
1.46016
21
0.487983
0
LINE
8
BLACK
6
CONTINUOUS
10
1.46016
20
0.487983
11
1.46033
21
0.488187
0
LINE
8
BLACK
6
CONTINUOUS
10
1.46033
20
0.488187
11
1.46109
21
0.48832
0
LINE
8
BLACK
6
CONTINUOUS
10
1.46109
20
0.48832
11
1.46181
21
0.488583
0
LINE
8
BLACK
6
CONTINUOUS
10
1.46181
20
0.488583
11
1.76181
21
0.488583
0
LINE
8
BLACK
6
CONTINUOUS
10
1.76181
20
0.488583
11
1.76219
21
0.488515
0
LINE
8
BLACK
6
CONTINUOUS
10
1.46476
20
0.482677
11
1.46476
21
0.288583
0
LINE
8
BLACK
6
CONTINUOUS
10
1.46476
20
0.288583
11
1.75886
21
0.288583
0
LINE
8
BLACK
6
CONTINUOUS
10
1.75886
20
0.288583
11
1.75886
21
0.482677
0
LINE
8
BLACK
6
CONTINUOUS
10
1.75886
20
0.482677
11
1.46476
21
0.482677
0
LINE
8
BLACK
6
CONTINUOUS
10
0.571053
20
0.810365
11
0.571182
21
0.810388
0
LINE
8
BLACK
6
CONTINUOUS
10
0.571182
20
0.810388
11
0.571296
21
0.810323
0
LINE
8
BLACK
6
CONTINUOUS
10
0.571296
20
0.810323
11
0.571679
21
0.810255
0
LINE
8
BLACK
6
CONTINUOUS
10
0.571679
20
0.810255
11
0.572267
21
0.809762
0
LINE
8
BLACK
6
CONTINUOUS
10
0.572267
20
0.809762
11
0.572931
21
0.809378
0
LINE
8
BLACK
6
CONTINUOUS
10
0.572931
20
0.809378
11
0.573022
21
0.809128
0
LINE
8
BLACK
6
CONTINUOUS
10
0.573022
20
0.809128
11
0.573226
21
0.808957
0
LINE
8
BLACK
6
CONTINUOUS
10
0.573226
20
0.808957
11
0.57336
21
0.808201
0
LINE
8
BLACK
6
CONTINUOUS
10
0.57336
20
0.808201
11
0.573622
21
0.80748
0
LINE
8
BLACK
6
CONTINUOUS
10
0.573622
20
0.80748
11
0.573622
21
0.60748
0
LINE
8
BLACK
6
CONTINUOUS
10
0.573622
20
0.60748
11
0.573554
21
0.607097
0
LINE
8
BLACK
6
CONTINUOUS
10
0.573554
20
0.607097
11
0.573577
21
0.606968
0
LINE
8
BLACK
6
CONTINUOUS
10
0.573577
20
0.606968
11
0.573512
21
0.606854
0
LINE
8
BLACK
6
CONTINUOUS
10
0.573512
20
0.606854
11
0.573444
21
0.60647
0
LINE
8
BLACK
6
CONTINUOUS
10
0.573444
20
0.60647
11
0.572951
21
0.605883
0
LINE
8
BLACK
6
CONTINUOUS
10
0.572951
20
0.605883
11
0.572567
21
0.605218
0
LINE
8
BLACK
6
CONTINUOUS
10
0.572567
20
0.605218
11
0.572317
21
0.605127
0
LINE
8
BLACK
6
CONTINUOUS
10
0.572317
20
0.605127
11
0.572146
21
0.604923
0
LINE
8
BLACK
6
CONTINUOUS
10
0.572146
20
0.604923
11
0.57139
21
0.60479
0
LINE
8
BLACK
6
CONTINUOUS
10
0.57139
20
0.60479
11
0.570669
21
0.604528
0
LINE
8
BLACK
6
CONTINUOUS
10
0.570669
20
0.604528
11
0.270669
21
0.604528
0
LINE
8
BLACK
6
CONTINUOUS
10
0.270669
20
0.604528
11
0.270286
21
0.604595
0
LINE
8
BLACK
6
CONTINUOUS
10
0.270286
20
0.604595
11
0.270157
21
0.604572
0
LINE
8
BLACK
6
CONTINUOUS
10
0.270157
20
0.604572
11
0.270043
21
0.604638
0
LINE
8
BLACK
6
CONTINUOUS
10
0.270043
20
0.604638
11
0.269659
21
0.604706
0
LINE
8
BLACK
6
CONTINUOUS
10
0.269659
20
0.604706
11
0.269072
21
0.605199
0
LINE
8
BLACK
6
CONTINUOUS
10
0.269072
20
0.605199
11
0.268407
21
0.605582
0
LINE
8
BLACK
6
CONTINUOUS
10
0.268407
20
0.605582
11
0.268316
21
0.605833
0
LINE
8
BLACK
6
CONTINUOUS
10
0.268316
20
0.605833
11
0.268112
21
0.606004
0
LINE
8
BLACK
6
CONTINUOUS
10
0.268112
20
0.606004
11
0.267979
21
0.60676
0
LINE
8
BLACK
6
CONTINUOUS
10
0.267979
20
0.60676
11
0.267717
21
0.60748
0
LINE
8
BLACK
6
CONTINUOUS
10
0.267717
20
0.60748
11
0.267717
21
0.80748
0
LINE
8
BLACK
6
CONTINUOUS
10
0.267717
20
0.80748
11
0.267784
21
0.807864
0
LINE
8
BLACK
6
CONTINUOUS
10
0.267784
20
0.807864
11
0.267761
21
0.807993
0
LINE
8
BLACK
6
CONTINUOUS
10
0.267761
20
0.807993
11
0.267827
21
0.808107
0
LINE
8
BLACK
6
CONTINUOUS
10
0.267827
20
0.808107
11
0.267895
21
0.80849
0
LINE
8
BLACK
6
CONTINUOUS
10
0.267895
20
0.80849
11
0.268388
21
0.809078
0
LINE
8
BLACK
6
CONTINUOUS
10
0.268388
20
0.809078
11
0.268771
21
0.809742
0
LINE
8
BLACK
6
CONTINUOUS
10
0.268771
20
0.809742
11
0.269022
21
0.809833
0
LINE
8
BLACK
6
CONTINUOUS
10
0.269022
20
0.809833
11
0.269193
21
0.810037
0
LINE
8
BLACK
6
CONTINUOUS
10
0.269193
20
0.810037
11
0.269948
21
0.810171
0
LINE
8
BLACK
6
CONTINUOUS
10
0.269948
20
0.810171
11
0.270669
21
0.810433
0
LINE
8
BLACK
6
CONTINUOUS
10
0.270669
20
0.810433
11
0.570669
21
0.810433
0
LINE
8
BLACK
6
CONTINUOUS
10
0.570669
20
0.810433
11
0.571053
21
0.810365
0
LINE
8
BLACK
6
CONTINUOUS
10
0.273622
20
0.804528
11
0.273622
21
0.610433
0
LINE
8
BLACK
6
CONTINUOUS
10
0.273622
20
0.610433
11
0.567717
21
0.610433
0
LINE
8
BLACK
6
CONTINUOUS
10
0.567717
20
0.610433
11
0.567717
21
0.804528
0
LINE
8
BLACK
6
CONTINUOUS
10
0.567717
20
0.804528
11
0.273622
21
0.804528
0
LINE
8
BLACK
6
CONTINUOUS
10
1.71752
20
0.811024
11
1.71891
21
0.810447
0
LINE
8
BLACK
6
CONTINUOUS
10
1.71891
20
0.810447
11
1.71949
21
0.809055
0
LINE
8
BLACK
6
CONTINUOUS
10
1.71949
20
0.809055
11
1.71949
21
0.769685
0
LINE
8
BLACK
6
CONTINUOUS
10
1.71949
20
0.769685
11
1.71891
21
0.768293
0
LINE
8
BLACK
6
CONTINUOUS
10
1.71891
20
0.768293
11
1.71752
21
0.767717
0
LINE
8
BLACK
6
CONTINUOUS
10
1.71752
20
0.767717
11
1.61909
21
0.767717
0
LINE
8
BLACK
6
CONTINUOUS
10
1.61909
20
0.767717
11
1.6177
21
0.768293
0
LINE
8
BLACK
6
CONTINUOUS
10
1.6177
20
0.768293
11
1.61713
21
0.769685
0
LINE
8
BLACK
6
CONTINUOUS
10
1.61713
20
0.769685
11
1.61713
21
0.809055
0
LINE
8
BLACK
6
CONTINUOUS
10
1.61713
20
0.809055
11
1.6177
21
0.810447
0
LINE
8
BLACK
6
CONTINUOUS
10
1.6177
20
0.810447
11
1.61909
21
0.811024
0
LINE
8
BLACK
6
CONTINUOUS
10
1.61909
20
0.811024
11
1.71752
21
0.811024
0
LINE
8
BLACK
6
CONTINUOUS
10
1.62106
20
0.807087
11
1.62106
21
0.771654
0
LINE
8
BLACK
6
CONTINUOUS
10
1.62106
20
0.771654
11
1.71555
21
0.771654
0
LINE
8
BLACK
6
CONTINUOUS
10
1.71555
20
0.771654
11
1.71555
21
0.807087
0
LINE
8
BLACK
6
CONTINUOUS
10
1.71555
20
0.807087
11
1.62106
21
0.807087
0
LINE
8
BLACK
6
CONTINUOUS
10
1.94783
20
0.870079
11
1.94923
21
0.869502
0
LINE
8
BLACK
6
CONTINUOUS
10
1.94923
20
0.869502
11
1.9498
21
0.86811
0
LINE
8
BLACK
6
CONTINUOUS
10
1.9498
20
0.86811
11
1.9498
21
0.71063
0
LINE
8
BLACK
6
CONTINUOUS
10
1.9498
20
0.71063
11
1.94923
21
0.709238
0
LINE
8
BLACK
6
CONTINUOUS
10
1.94923
20
0.709238
11
1.94783
21
0.708661
0
LINE
8
BLACK
6
CONTINUOUS
10
1.94783
20
0.708661
11
1.90846
21
0.708661
0
LINE
8
BLACK
6
CONTINUOUS
10
1.90846
20
0.708661
11
1.90707
21
0.709238
0
LINE
8
BLACK
6
CONTINUOUS
10
1.90707
20
0.709238
11
1.9065
21
0.71063
0
LINE
8
BLACK
6
CONTINUOUS
10
1.9065
20
0.71063
11
1.9065
21
0.71063
0
LINE
8
BLACK
6
CONTINUOUS
10
1.9065
20
0.71063
11
1.9065
21
0.86811
0
LINE
8
BLACK
6
CONTINUOUS
10
1.9065
20
0.86811
11
1.90707
21
0.869502
0
LINE
8
BLACK
6
CONTINUOUS
10
1.90707
20
0.869502
11
1.90846
21
0.870079
0
LINE
8
BLACK
6
CONTINUOUS
10
1.90846
20
0.870079
11
1.94783
21
0.870079
0
LINE
8
BLACK
6
CONTINUOUS
10
1.91043
20
0.866142
11
1.91043
21
0.712598
0
LINE
8
BLACK
6
CONTINUOUS
10
1.91043
20
0.712598
11
1.94587
21
0.712598
0
LINE
8
BLACK
6
CONTINUOUS
10
1.94587
20
0.712598
11
1.94587
21
0.866142
0
LINE
8
BLACK
6
CONTINUOUS
10
1.94587
20
0.866142
11
1.91043
21
0.866142
0
LINE
8
BLACK
6
CONTINUOUS
10
2.10531
20
0.870079
11
2.10671
21
0.869502
0
LINE
8
BLACK
6
CONTINUOUS
10
2.10671
20
0.869502
11
2.10728
21
0.86811
0
LINE
8
BLACK
6
CONTINUOUS
10
2.10728
20
0.86811
11
2.10728
21
0.71063
0
LINE
8
BLACK
6
CONTINUOUS
10
2.10728
20
0.71063
11
2.10671
21
0.709238
0
LINE
8
BLACK
6
CONTINUOUS
10
2.10671
20
0.709238
11
2.10531
21
0.708661
0
LINE
8
BLACK
6
CONTINUOUS
10
2.10531
20
0.708661
11
1.97539
21
0.708661
0
LINE
8
BLACK
6
CONTINUOUS
10
1.97539
20
0.708661
11
1.974
21
0.709238
0
LINE
8
BLACK
6
CONTINUOUS
10
1.974
20
0.709238
11
1.97343
21
0.71063
0
LINE
8
BLACK
6
CONTINUOUS
10
1.97343
20
0.71063
11
1.97343
21
0.71063
0
LINE
8
BLACK
6
CONTINUOUS
10
1.97343
20
0.71063
11
1.97343
21
0.86811
0
LINE
8
BLACK
6
CONTINUOUS
10
1.97343
20
0.86811
11
1.974
21
0.869502
0
LINE
8
BLACK
6
CONTINUOUS
10
1.974
20
0.869502
11
1.97539
21
0.870079
0
LINE
8
BLACK
6
CONTINUOUS
10
1.97539
20
0.870079
11
2.10531
21
0.870079
0
LINE
8
BLACK
6
CONTINUOUS
10
1.97736
20
0.866142
11
1.97736
21
0.712598
0
LINE
8
BLACK
6
CONTINUOUS
10
1.97736
20
0.712598
11
2.10335
21
0.712598
0
LINE
8
BLACK
6
CONTINUOUS
10
2.10335
20
0.712598
11
2.10335
21
0.866142
0
LINE
8
BLACK
6
CONTINUOUS
10
2.10335
20
0.866142
11
1.97736
21
0.866142
0
LINE
8
BLACK
6
CONTINUOUS
10
1.71752
20
1.00787
11
1.71891
21
1.0073
0
LINE
8
BLACK
6
CONTINUOUS
10
1.71891
20
1.0073
11
1.71949
21
1.00591
0
LINE
8
BLACK
6
CONTINUOUS
10
1.71949
20
1.00591
11
1.71949
21
0.966535
0
LINE
8
BLACK
6
CONTINUOUS
10
1.71949
20
0.966535
11
1.71891
21
0.965144
0
LINE
8
BLACK
6
CONTINUOUS
10
1.71891
20
0.965144
11
1.71752
21
0.964567
0
LINE
8
BLACK
6
CONTINUOUS
10
1.71752
20
0.964567
11
1.61909
21
0.964567
0
LINE
8
BLACK
6
CONTINUOUS
10
1.61909
20
0.964567
11
1.6177
21
0.965144
0
LINE
8
BLACK
6
CONTINUOUS
10
1.6177
20
0.965144
11
1.61713
21
0.966535
0
LINE
8
BLACK
6
CONTINUOUS
10
1.61713
20
0.966535
11
1.61713
21
1.00591
0
LINE
8
BLACK
6
CONTINUOUS
10
1.61713
20
1.00591
11
1.6177
21
1.0073
0
LINE
8
BLACK
6
CONTINUOUS
10
1.6177
20
1.0073
11
1.61909
21
1.00787
0
LINE
8
BLACK
6
CONTINUOUS
10
1.61909
20
1.00787
11
1.71752
21
1.00787
0
LINE
8
BLACK
6
CONTINUOUS
10
1.62106
20
1.00394
11
1.62106
21
0.968504
0
LINE
8
BLACK
6
CONTINUOUS
10
1.62106
20
0.968504
11
1.71555
21
0.968504
0
LINE
8
BLACK
6
CONTINUOUS
10
1.71555
20
0.968504
11
1.71555
21
1.00394
0
LINE
8
BLACK
6
CONTINUOUS
10
1.71555
20
1.00394
11
1.62106
21
1.00394
0
LINE
8
BLACK
6
CONTINUOUS
10
1.86007
20
0.982218
11
1.86021
21
0.98223
0
LINE
8
BLACK
6
CONTINUOUS
10
1.86021
20
0.98223
11
1.86093
21
0.98172
0
LINE
8
BLACK
6
CONTINUOUS
10
1.86093
20
0.98172
11
1.8617
21
0.981276
0
LINE
8
BLACK
6
CONTINUOUS
10
1.8617
20
0.981276
11
1.86175
21
0.981149
0
LINE
8
BLACK
6
CONTINUOUS
10
1.86175
20
0.981149
11
1.86186
21
0.981071
0
LINE
8
BLACK
6
CONTINUOUS
10
1.86186
20
0.981071
11
1.86209
21
0.980213
0
LINE
8
BLACK
6
CONTINUOUS
10
1.86209
20
0.980213
11
1.86239
21
0.979378
0
LINE
8
BLACK
6
CONTINUOUS
10
1.86239
20
0.979378
11
1.86239
21
0.955006
0
LINE
8
BLACK
6
CONTINUOUS
10
1.86239
20
0.955006
11
1.86222
21
0.953996
0
LINE
8
BLACK
6
CONTINUOUS
10
1.86222
20
0.953996
11
1.86092
21
0.952448
0
LINE
8
BLACK
6
CONTINUOUS
10
1.86092
20
0.952448
11
1.85893
21
0.952098
0
LINE
8
BLACK
6
CONTINUOUS
10
1.85893
20
0.952098
11
1.85718
21
0.953108
0
LINE
8
BLACK
6
CONTINUOUS
10
1.85718
20
0.953108
11
1.85649
21
0.955006
0
LINE
8
BLACK
6
CONTINUOUS
10
1.85649
20
0.955006
11
1.85649
21
0.972249
0
LINE
8
BLACK
6
CONTINUOUS
10
1.85649
20
0.972249
11
1.83903
21
0.954792
0
LINE
8
BLACK
6
CONTINUOUS
10
1.83903
20
0.954792
11
1.83819
21
0.954204
0
LINE
8
BLACK
6
CONTINUOUS
10
1.83819
20
0.954204
11
1.83802
21
0.954189
0
LINE
8
BLACK
6
CONTINUOUS
10
1.83802
20
0.954189
11
1.83788
21
0.954079
0
LINE
8
BLACK
6
CONTINUOUS
10
1.83788
20
0.954079
11
1.83225
21
0.952204
0
LINE
8
BLACK
6
CONTINUOUS
10
1.83225
20
0.952204
11
1.83138
21
0.952075
0
LINE
8
BLACK
6
CONTINUOUS
10
1.83138
20
0.952075
11
1.83132
21
0.952053
0
LINE
8
BLACK
6
CONTINUOUS
10
1.83132
20
0.952053
11
1.82757
21
0.952053
0
LINE
8
BLACK
6
CONTINUOUS
10
1.82757
20
0.952053
11
1.82656
21
0.952231
0
LINE
8
BLACK
6
CONTINUOUS
10
1.82656
20
0.952231
11
1.82643
21
0.952344
0
LINE
8
BLACK
6
CONTINUOUS
10
1.82643
20
0.952344
11
1.82625
21
0.952365
0
LINE
8
BLACK
6
CONTINUOUS
10
1.82625
20
0.952365
11
1.8225
21
0.954239
0
LINE
8
BLACK
6
CONTINUOUS
10
1.8225
20
0.954239
11
1.82179
21
0.954765
0
LINE
8
BLACK
6
CONTINUOUS
10
1.82179
20
0.954765
11
1.82173
21
0.954792
0
LINE
8
BLACK
6
CONTINUOUS
10
1.82173
20
0.954792
11
1.81986
21
0.956667
0
LINE
8
BLACK
6
CONTINUOUS
10
1.81986
20
0.956667
11
1.81935
21
0.95739
0
LINE
8
BLACK
6
CONTINUOUS
10
1.81935
20
0.95739
11
1.81931
21
0.957435
0
LINE
8
BLACK
6
CONTINUOUS
10
1.81931
20
0.957435
11
1.81743
21
0.961184
0
LINE
8
BLACK
6
CONTINUOUS
10
1.81743
20
0.961184
11
1.81714
21
0.962167
0
LINE
8
BLACK
6
CONTINUOUS
10
1.81714
20
0.962167
11
1.81718
21
0.962339
0
LINE
8
BLACK
6
CONTINUOUS
10
1.81718
20
0.962339
11
1.81712
21
0.962505
0
LINE
8
BLACK
6
CONTINUOUS
10
1.81712
20
0.962505
11
1.81712
21
0.971879
0
LINE
8
BLACK
6
CONTINUOUS
10
1.81712
20
0.971879
11
1.8173
21
0.972888
0
LINE
8
BLACK
6
CONTINUOUS
10
1.8173
20
0.972888
11
1.81741
21
0.973024
0
LINE
8
BLACK
6
CONTINUOUS
10
1.81741
20
0.973024
11
1.81743
21
0.973199
0
LINE
8
BLACK
6
CONTINUOUS
10
1.81743
20
0.973199
11
1.81931
21
0.976949
0
LINE
8
BLACK
6
CONTINUOUS
10
1.81931
20
0.976949
11
1.81983
21
0.977658
0
LINE
8
BLACK
6
CONTINUOUS
10
1.81983
20
0.977658
11
1.81986
21
0.977716
0
LINE
8
BLACK
6
CONTINUOUS
10
1.81986
20
0.977716
11
1.82173
21
0.979591
0
LINE
8
BLACK
6
CONTINUOUS
10
1.82173
20
0.979591
11
1.82257
21
0.980179
0
LINE
8
BLACK
6
CONTINUOUS
10
1.82257
20
0.980179
11
1.82459
21
0.980355
0
LINE
8
BLACK
6
CONTINUOUS
10
1.82459
20
0.980355
11
1.82624
21
0.979196
0
LINE
8
BLACK
6
CONTINUOUS
10
1.82624
20
0.979196
11
1.82676
21
0.977245
0
LINE
8
BLACK
6
CONTINUOUS
10
1.82676
20
0.977245
11
1.82591
21
0.975415
0
LINE
8
BLACK
6
CONTINUOUS
10
1.82591
20
0.975415
11
1.82437
21
0.973879
0
LINE
8
BLACK
6
CONTINUOUS
10
1.82437
20
0.973879
11
1.82302
21
0.971181
0
LINE
8
BLACK
6
CONTINUOUS
10
1.82302
20
0.971181
11
1.82302
21
0.963202
0
LINE
8
BLACK
6
CONTINUOUS
10
1.82302
20
0.963202
11
1.82437
21
0.960504
0
LINE
8
BLACK
6
CONTINUOUS
10
1.82437
20
0.960504
11
1.82557
21
0.959307
0
LINE
8
BLACK
6
CONTINUOUS
10
1.82557
20
0.959307
11
1.82827
21
0.957958
0
LINE
8
BLACK
6
CONTINUOUS
10
1.82827
20
0.957958
11
1.83084
21
0.957958
0
LINE
8
BLACK
6
CONTINUOUS
10
1.83084
20
0.957958
11
1.83535
21
0.959461
0
LINE
8
BLACK
6
CONTINUOUS
10
1.83535
20
0.959461
11
1.85735
21
0.981465
0
LINE
8
BLACK
6
CONTINUOUS
10
1.85735
20
0.981465
11
1.85788
21
0.981835
0
LINE
8
BLACK
6
CONTINUOUS
10
1.85788
20
0.981835
11
1.85797
21
0.981935
0
LINE
8
BLACK
6
CONTINUOUS
10
1.85797
20
0.981935
11
1.85804
21
0.981949
0
LINE
8
BLACK
6
CONTINUOUS
10
1.85804
20
0.981949
11
1.85819
21
0.982054
0
LINE
8
BLACK
6
CONTINUOUS
10
1.85819
20
0.982054
11
1.85908
21
0.982131
0
LINE
8
BLACK
6
CONTINUOUS
10
1.85908
20
0.982131
11
1.85995
21
0.982285
0
LINE
8
BLACK
6
CONTINUOUS
10
1.85995
20
0.982285
11
1.86007
21
0.982218
0
LINE
8
BLACK
6
CONTINUOUS
10
1.83308
20
1.01737
11
1.83419
21
1.01568
0
LINE
8
BLACK
6
CONTINUOUS
10
1.83419
20
1.01568
11
1.83396
21
1.01368
0
LINE
8
BLACK
6
CONTINUOUS
10
1.83396
20
1.01368
11
1.83209
21
1.00993
0
LINE
8
BLACK
6
CONTINUOUS
10
1.83209
20
1.00993
11
1.83156
21
1.00922
0
LINE
8
BLACK
6
CONTINUOUS
10
1.83156
20
1.00922
11
1.83153
21
1.00916
0
LINE
8
BLACK
6
CONTINUOUS
10
1.83153
20
1.00916
11
1.82907
21
1.0067
0
LINE
8
BLACK
6
CONTINUOUS
10
1.82907
20
1.0067
11
1.85649
21
1.0067
0
LINE
8
BLACK
6
CONTINUOUS
10
1.85649
20
1.0067
11
1.85649
21
1.015
0
LINE
8
BLACK
6
CONTINUOUS
10
1.85649
20
1.015
11
1.85667
21
1.01601
0
LINE
8
BLACK
6
CONTINUOUS
10
1.85667
20
1.01601
11
1.85797
21
1.01756
0
LINE
8
BLACK
6
CONTINUOUS
10
1.85797
20
1.01756
11
1.85995
21
1.01791
0
LINE
8
BLACK
6
CONTINUOUS
10
1.85995
20
1.01791
11
1.8617
21
1.0169
0
LINE
8
BLACK
6
CONTINUOUS
10
1.8617
20
1.0169
11
1.86239
21
1.015
0
LINE
8
BLACK
6
CONTINUOUS
10
1.86239
20
1.015
11
1.86239
21
0.992501
0
LINE
8
BLACK
6
CONTINUOUS
10
1.86239
20
0.992501
11
1.86222
21
0.991491
0
LINE
8
BLACK
6
CONTINUOUS
10
1.86222
20
0.991491
11
1.86092
21
0.989944
0
LINE
8
BLACK
6
CONTINUOUS
10
1.86092
20
0.989944
11
1.85893
21
0.989593
0
LINE
8
BLACK
6
CONTINUOUS
10
1.85893
20
0.989593
11
1.85718
21
0.990603
0
LINE
8
BLACK
6
CONTINUOUS
10
1.85718
20
0.990603
11
1.85649
21
0.992501
0
LINE
8
BLACK
6
CONTINUOUS
10
1.85649
20
0.992501
11
1.85649
21
1.0008
0
LINE
8
BLACK
6
CONTINUOUS
10
1.85649
20
1.0008
11
1.82007
21
1.0008
0
LINE
8
BLACK
6
CONTINUOUS
10
1.82007
20
1.0008
11
1.81906
21
1.00097
0
LINE
8
BLACK
6
CONTINUOUS
10
1.81906
20
1.00097
11
1.81893
21
1.00108
0
LINE
8
BLACK
6
CONTINUOUS
10
1.81893
20
1.00108
11
1.81876
21
1.0011
0
LINE
8
BLACK
6
CONTINUOUS
10
1.81876
20
1.0011
11
1.81817
21
1.00172
0
LINE
8
BLACK
6
CONTINUOUS
10
1.81817
20
1.00172
11
1.81751
21
1.00227
0
LINE
8
BLACK
6
CONTINUOUS
10
1.81751
20
1.00227
11
1.81748
21
1.00244
0
LINE
8
BLACK
6
CONTINUOUS
10
1.81748
20
1.00244
11
1.81737
21
1.00256
0
LINE
8
BLACK
6
CONTINUOUS
10
1.81737
20
1.00256
11
1.81731
21
1.00342
0
LINE
8
BLACK
6
CONTINUOUS
10
1.81731
20
1.00342
11
1.81716
21
1.00426
0
LINE
8
BLACK
6
CONTINUOUS
10
1.81716
20
1.00426
11
1.81725
21
1.00441
0
LINE
8
BLACK
6
CONTINUOUS
10
1.81725
20
1.00441
11
1.81724
21
1.00458
0
LINE
8
BLACK
6
CONTINUOUS
10
1.81724
20
1.00458
11
1.81775
21
1.00527
0
LINE
8
BLACK
6
CONTINUOUS
10
1.81775
20
1.00527
11
1.81817
21
1.00601
0
LINE
8
BLACK
6
CONTINUOUS
10
1.81817
20
1.00601
11
1.81833
21
1.00607
0
LINE
8
BLACK
6
CONTINUOUS
10
1.81833
20
1.00607
11
1.81843
21
1.00621
0
LINE
8
BLACK
6
CONTINUOUS
10
1.81843
20
1.00621
11
1.82381
21
1.00979
0
LINE
8
BLACK
6
CONTINUOUS
10
1.82381
20
1.00979
11
1.82702
21
1.013
0
LINE
8
BLACK
6
CONTINUOUS
10
1.82702
20
1.013
11
1.82868
21
1.01632
0
LINE
8
BLACK
6
CONTINUOUS
10
1.82868
20
1.01632
11
1.82929
21
1.01714
0
LINE
8
BLACK
6
CONTINUOUS
10
1.82929
20
1.01714
11
1.83114
21
1.01795
0
LINE
8
BLACK
6
CONTINUOUS
10
1.83114
20
1.01795
11
1.83308
21
1.01737
0
LINE
8
BLACK
6
CONTINUOUS
10
1.8617
20
1.04877
11
1.86239
21
1.04687
0
LINE
8
BLACK
6
CONTINUOUS
10
1.86239
20
1.04687
11
1.86239
21
1.04312
0
LINE
8
BLACK
6
CONTINUOUS
10
1.86239
20
1.04312
11
1.86224
21
1.04225
0
LINE
8
BLACK
6
CONTINUOUS
10
1.86224
20
1.04225
11
1.86224
21
1.04219
0
LINE
8
BLACK
6
CONTINUOUS
10
1.86224
20
1.04219
11
1.86037
21
1.03656
0
LINE
8
BLACK
6
CONTINUOUS
10
1.86037
20
1.03656
11
1.85988
21
1.03566
0
LINE
8
BLACK
6
CONTINUOUS
10
1.85988
20
1.03566
11
1.85973
21
1.03557
0
LINE
8
BLACK
6
CONTINUOUS
10
1.85973
20
1.03557
11
1.85965
21
1.03541
0
LINE
8
BLACK
6
CONTINUOUS
10
1.85965
20
1.03541
11
1.85591
21
1.03166
0
LINE
8
BLACK
6
CONTINUOUS
10
1.85591
20
1.03166
11
1.85507
21
1.03107
0
LINE
8
BLACK
6
CONTINUOUS
10
1.85507
20
1.03107
11
1.85489
21
1.03105
0
LINE
8
BLACK
6
CONTINUOUS
10
1.85489
20
1.03105
11
1.85475
21
1.03094
0
LINE
8
BLACK
6
CONTINUOUS
10
1.85475
20
1.03094
11
1.84913
21
1.02907
0
LINE
8
BLACK
6
CONTINUOUS
10
1.84913
20
1.02907
11
1.84825
21
1.02894
0
LINE
8
BLACK
6
CONTINUOUS
10
1.84825
20
1.02894
11
1.84819
21
1.02892
0
LINE
8
BLACK
6
CONTINUOUS
10
1.84819
20
1.02892
11
1.82007
21
1.02892
0
LINE
8
BLACK
6
CONTINUOUS
10
1.82007
20
1.02892
11
1.81906
21
1.0291
0
LINE
8
BLACK
6
CONTINUOUS
10
1.81906
20
1.0291
11
1.81751
21
1.03039
0
LINE
8
BLACK
6
CONTINUOUS
10
1.81751
20
1.03039
11
1.81716
21
1.03238
0
LINE
8
BLACK
6
CONTINUOUS
10
1.81716
20
1.03238
11
1.81817
21
1.03413
0
LINE
8
BLACK
6
CONTINUOUS
10
1.81817
20
1.03413
11
1.82007
21
1.03482
0
LINE
8
BLACK
6
CONTINUOUS
10
1.82007
20
1.03482
11
1.84771
21
1.03482
0
LINE
8
BLACK
6
CONTINUOUS
10
1.84771
20
1.03482
11
1.85222
21
1.03633
0
LINE
8
BLACK
6
CONTINUOUS
10
1.85222
20
1.03633
11
1.85499
21
1.03909
0
LINE
8
BLACK
6
CONTINUOUS
10
1.85499
20
1.03909
11
1.85649
21
1.0436
0
LINE
8
BLACK
6
CONTINUOUS
10
1.85649
20
1.0436
11
1.85649
21
1.04687
0
LINE
8
BLACK
6
CONTINUOUS
10
1.85649
20
1.04687
11
1.85667
21
1.04788
0
LINE
8
BLACK
6
CONTINUOUS
10
1.85667
20
1.04788
11
1.85797
21
1.04943
0
LINE
8
BLACK
6
CONTINUOUS
10
1.85797
20
1.04943
11
1.85995
21
1.04978
0
LINE
8
BLACK
6
CONTINUOUS
10
1.85995
20
1.04978
11
1.8617
21
1.04877
0
LINE
8
BLACK
6
CONTINUOUS
10
1.94783
20
1.06693
11
1.94923
21
1.06635
0
LINE
8
BLACK
6
CONTINUOUS
10
1.94923
20
1.06635
11
1.9498
21
1.06496
0
LINE
8
BLACK
6
CONTINUOUS
10
1.9498
20
1.06496
11
1.9498
21
0.90748
0
LINE
8
BLACK
6
CONTINUOUS
10
1.9498
20
0.90748
11
1.94923
21
0.906088
0
LINE
8
BLACK
6
CONTINUOUS
10
1.94923
20
0.906088
11
1.94783
21
0.905512
0
LINE
8
BLACK
6
CONTINUOUS
10
1.94783
20
0.905512
11
1.90846
21
0.905512
0
LINE
8
BLACK
6
CONTINUOUS
10
1.90846
20
0.905512
11
1.90707
21
0.906088
0
LINE
8
BLACK
6
CONTINUOUS
10
1.90707
20
0.906088
11
1.9065
21
0.90748
0
LINE
8
BLACK
6
CONTINUOUS
10
1.9065
20
0.90748
11
1.9065
21
0.90748
0
LINE
8
BLACK
6
CONTINUOUS
10
1.9065
20
0.90748
11
1.9065
21
1.06496
0
LINE
8
BLACK
6
CONTINUOUS
10
1.9065
20
1.06496
11
1.90707
21
1.06635
0
LINE
8
BLACK
6
CONTINUOUS
10
1.90707
20
1.06635
11
1.90846
21
1.06693
0
LINE
8
BLACK
6
CONTINUOUS
10
1.90846
20
1.06693
11
1.94783
21
1.06693
0
LINE
8
BLACK
6
CONTINUOUS
10
1.91043
20
1.06299
11
1.91043
21
0.909449
0
LINE
8
BLACK
6
CONTINUOUS
10
1.91043
20
0.909449
11
1.94587
21
0.909449
0
LINE
8
BLACK
6
CONTINUOUS
10
1.94587
20
0.909449
11
1.94587
21
1.06299
0
LINE
8
BLACK
6
CONTINUOUS
10
1.94587
20
1.06299
11
1.91043
21
1.06299
0
LINE
8
BLACK
6
CONTINUOUS
10
2.10531
20
1.06693
11
2.10671
21
1.06635
0
LINE
8
BLACK
6
CONTINUOUS
10
2.10671
20
1.06635
11
2.10728
21
1.06496
0
LINE
8
BLACK
6
CONTINUOUS
10
2.10728
20
1.06496
11
2.10728
21
0.90748
0
LINE
8
BLACK
6
CONTINUOUS
10
2.10728
20
0.90748
11
2.10671
21
0.906088
0
LINE
8
BLACK
6
CONTINUOUS
10
2.10671
20
0.906088
11
2.10531
21
0.905512
0
LINE
8
BLACK
6
CONTINUOUS
10
2.10531
20
0.905512
11
1.97539
21
0.905512
0
LINE
8
BLACK
6
CONTINUOUS
10
1.97539
20
0.905512
11
1.974
21
0.906088
0
LINE
8
BLACK
6
CONTINUOUS
10
1.974
20
0.906088
11
1.97343
21
0.90748
0
LINE
8
BLACK
6
CONTINUOUS
10
1.97343
20
0.90748
11
1.97343
21
0.90748
0
LINE
8
BLACK
6
CONTINUOUS
10
1.97343
20
0.90748
11
1.97343
21
1.06496
0
LINE
8
BLACK
6
CONTINUOUS
10
1.97343
20
1.06496
11
1.974
21
1.06635
0
LINE
8
BLACK
6
CONTINUOUS
10
1.974
20
1.06635
11
1.97539
21
1.06693
0
LINE
8
BLACK
6
CONTINUOUS
10
1.97539
20
1.06693
11
2.10531
21
1.06693
0
LINE
8
BLACK
6
CONTINUOUS
10
1.97736
20
1.06299
11
1.97736
21
0.909449
0
LINE
8
BLACK
6
CONTINUOUS
10
1.97736
20
0.909449
11
2.10335
21
0.909449
0
LINE
8
BLACK
6
CONTINUOUS
10
2.10335
20
0.909449
11
2.10335
21
1.06299
0
LINE
8
BLACK
6
CONTINUOUS
10
2.10335
20
1.06299
11
1.97736
21
1.06299
0
LINE
8
BLACK
6
CONTINUOUS
10
1.71752
20
1.20472
11
1.71891
21
1.20415
0
LINE
8
BLACK
6
CONTINUOUS
10
1.71891
20
1.20415
11
1.71949
21
1.20276
0
LINE
8
BLACK
6
CONTINUOUS
10
1.71949
20
1.20276
11
1.71949
21
1.16339
0
LINE
8
BLACK
6
CONTINUOUS
10
1.71949
20
1.16339
11
1.71891
21
1.16199
0
LINE
8
BLACK
6
CONTINUOUS
10
1.71891
20
1.16199
11
1.71752
21
1.16142
0
LINE
8
BLACK
6
CONTINUOUS
10
1.71752
20
1.16142
11
1.61909
21
1.16142
0
LINE
8
BLACK
6
CONTINUOUS
10
1.61909
20
1.16142
11
1.6177
21
1.16199
0
LINE
8
BLACK
6
CONTINUOUS
10
1.6177
20
1.16199
11
1.61713
21
1.16339
0
LINE
8
BLACK
6
CONTINUOUS
10
1.61713
20
1.16339
11
1.61713
21
1.20276
0
LINE
8
BLACK
6
CONTINUOUS
10
1.61713
20
1.20276
11
1.6177
21
1.20415
0
LINE
8
BLACK
6
CONTINUOUS
10
1.6177
20
1.20415
11
1.61909
21
1.20472
0
LINE
8
BLACK
6
CONTINUOUS
10
1.61909
20
1.20472
11
1.71752
21
1.20472
0
LINE
8
BLACK
6
CONTINUOUS
10
1.62106
20
1.20079
11
1.62106
21
1.16535
0
LINE
8
BLACK
6
CONTINUOUS
10
1.62106
20
1.16535
11
1.71555
21
1.16535
0
LINE
8
BLACK
6
CONTINUOUS
10
1.71555
20
1.16535
11
1.71555
21
1.20079
0
LINE
8
BLACK
6
CONTINUOUS
10
1.71555
20
1.20079
11
1.62106
21
1.20079
0
LINE
8
BLACK
6
CONTINUOUS
10
1.94783
20
1.26378
11
1.94923
21
1.2632
0
LINE
8
BLACK
6
CONTINUOUS
10
1.94923
20
1.2632
11
1.9498
21
1.26181
0
LINE
8
BLACK
6
CONTINUOUS
10
1.9498
20
1.26181
11
1.9498
21
1.10433
0
LINE
8
BLACK
6
CONTINUOUS
10
1.9498
20
1.10433
11
1.94923
21
1.10294
0
LINE
8
BLACK
6
CONTINUOUS
10
1.94923
20
1.10294
11
1.94783
21
1.10236
0
LINE
8
BLACK
6
CONTINUOUS
10
1.94783
20
1.10236
11
1.90846
21
1.10236
0
LINE
8
BLACK
6
CONTINUOUS
10
1.90846
20
1.10236
11
1.90707
21
1.10294
0
LINE
8
BLACK
6
CONTINUOUS
10
1.90707
20
1.10294
11
1.9065
21
1.10433
0
LINE
8
BLACK
6
CONTINUOUS
10
1.9065
20
1.10433
11
1.9065
21
1.10433
0
LINE
8
BLACK
6
CONTINUOUS
10
1.9065
20
1.10433
11
1.9065
21
1.26181
0
LINE
8
BLACK
6
CONTINUOUS
10
1.9065
20
1.26181
11
1.90707
21
1.2632
0
LINE
8
BLACK
6
CONTINUOUS
10
1.90707
20
1.2632
11
1.90846
21
1.26378
0
LINE
8
BLACK
6
CONTINUOUS
10
1.90846
20
1.26378
11
1.94783
21
1.26378
0
LINE
8
BLACK
6
CONTINUOUS
10
1.91043
20
1.25984
11
1.91043
21
1.1063
0
LINE
8
BLACK
6
CONTINUOUS
10
1.91043
20
1.1063
11
1.94587
21
1.1063
0
LINE
8
BLACK
6
CONTINUOUS
10
1.94587
20
1.1063
11
1.94587
21
1.25984
0
LINE
8
BLACK
6
CONTINUOUS
10
1.94587
20
1.25984
11
1.91043
21
1.25984
0
LINE
8
BLACK
6
CONTINUOUS
10
2.10531
20
1.26378
11
2.10671
21
1.2632
0
LINE
8
BLACK
6
CONTINUOUS
10
2.10671
20
1.2632
11
2.10728
21
1.26181
0
LINE
8
BLACK
6
CONTINUOUS
10
2.10728
20
1.26181
11
2.10728
21
1.10433
0
LINE
8
BLACK
6
CONTINUOUS
10
2.10728
20
1.10433
11
2.10671
21
1.10294
0
LINE
8
BLACK
6
CONTINUOUS
10
2.10671
20
1.10294
11
2.10531
21
1.10236
0
LINE
8
BLACK
6
CONTINUOUS
10
2.10531
20
1.10236
11
1.97539
21
1.10236
0
LINE
8
BLACK
6
CONTINUOUS
10
1.97539
20
1.10236
11
1.974
21
1.10294
0
LINE
8
BLACK
6
CONTINUOUS
10
1.974
20
1.10294
11
1.97343
21
1.10433
0
LINE
8
BLACK
6
CONTINUOUS
10
1.97343
20
1.10433
11
1.97343
21
1.10433
0
LINE
8
BLACK
6
CONTINUOUS
10
1.97343
20
1.10433
11
1.97343
21
1.26181
0
LINE
8
BLACK
6
CONTINUOUS
10
1.97343
20
1.26181
11
1.974
21
1.2632
0
LINE
8
BLACK
6
CONTINUOUS
10
1.974
20
1.2632
11
1.97539
21
1.26378
0
LINE
8
BLACK
6
CONTINUOUS
10
1.97539
20
1.26378
11
2.10531
21
1.26378
0
LINE
8
BLACK
6
CONTINUOUS
10
1.97736
20
1.25984
11
1.97736
21
1.1063
0
LINE
8
BLACK
6
CONTINUOUS
10
1.97736
20
1.1063
11
2.10335
21
1.1063
0
LINE
8
BLACK
6
CONTINUOUS
10
2.10335
20
1.1063
11
2.10335
21
1.25984
0
LINE
8
BLACK
6
CONTINUOUS
10
2.10335
20
1.25984
11
1.97736
21
1.25984
0
LINE
8
BLACK
6
CONTINUOUS
10
2.11713
20
1.34252
11
2.11852
21
1.34194
0
LINE
8
BLACK
6
CONTINUOUS
10
2.11852
20
1.34194
11
2.15789
21
1.30257
0
LINE
8
BLACK
6
CONTINUOUS
10
2.15789
20
1.30257
11
2.15846
21
1.30118
0
LINE
8
BLACK
6
CONTINUOUS
10
2.15846
20
1.30118
11
2.15846
21
1.30118
0
LINE
8
BLACK
6
CONTINUOUS
10
2.15846
20
1.30118
11
2.15846
21
0.659449
0
LINE
8
BLACK
6
CONTINUOUS
10
2.15846
20
0.659449
11
2.15789
21
0.658057
0
LINE
8
BLACK
6
CONTINUOUS
10
2.15789
20
0.658057
11
2.1565
21
0.65748
0
LINE
8
BLACK
6
CONTINUOUS
10
2.1565
20
0.65748
11
2.11713
21
0.65748
0
LINE
8
BLACK
6
CONTINUOUS
10
2.11713
20
0.65748
11
1.89272
21
0.65748
0
LINE
8
BLACK
6
CONTINUOUS
10
1.89272
20
0.65748
11
1.78248
21
0.65748
0
LINE
8
BLACK
6
CONTINUOUS
10
1.78248
20
0.65748
11
1.60531
21
0.65748
0
LINE
8
BLACK
6
CONTINUOUS
10
1.60531
20
0.65748
11
1.60392
21
0.658057
0
LINE
8
BLACK
6
CONTINUOUS
10
1.60392
20
0.658057
11
1.60335
21
0.659449
0
LINE
8
BLACK
6
CONTINUOUS
10
1.60335
20
0.659449
11
1.60335
21
0.659449
0
LINE
8
BLACK
6
CONTINUOUS
10
1.60335
20
0.659449
11
1.60335
21
1.34055
0
LINE
8
BLACK
6
CONTINUOUS
10
1.60335
20
1.34055
11
1.60392
21
1.34194
0
LINE
8
BLACK
6
CONTINUOUS
10
1.60392
20
1.34194
11
1.60531
21
1.34252
0
LINE
8
BLACK
6
CONTINUOUS
10
1.60531
20
1.34252
11
2.11713
21
1.34252
0
LINE
8
BLACK
6
CONTINUOUS
10
1.60728
20
0.688976
11
1.60728
21
0.661417
0
LINE
8
BLACK
6
CONTINUOUS
10
1.60728
20
0.661417
11
1.78051
21
0.661417
0
LINE
8
BLACK
6
CONTINUOUS
10
1.78051
20
0.661417
11
1.78051
21
0.688976
0
LINE
8
BLACK
6
CONTINUOUS
10
1.78051
20
0.688976
11
1.60728
21
0.688976
0
LINE
8
BLACK
6
CONTINUOUS
10
1.78445
20
0.688976
11
1.78445
21
0.661417
0
LINE
8
BLACK
6
CONTINUOUS
10
1.78445
20
0.661417
11
1.89075
21
0.661417
0
LINE
8
BLACK
6
CONTINUOUS
10
1.89075
20
0.661417
11
1.89075
21
0.688976
0
LINE
8
BLACK
6
CONTINUOUS
10
1.89075
20
0.688976
11
1.78445
21
0.688976
0
LINE
8
BLACK
6
CONTINUOUS
10
1.89469
20
0.688976
11
1.89469
21
0.661417
0
LINE
8
BLACK
6
CONTINUOUS
10
1.89469
20
0.661417
11
2.11516
21
0.661417
0
LINE
8
BLACK
6
CONTINUOUS
10
2.11516
20
0.661417
11
2.11516
21
0.688976
0
LINE
8
BLACK
6
CONTINUOUS
10
2.11516
20
0.688976
11
1.89469
21
0.688976
0
LINE
8
BLACK
6
CONTINUOUS
10
2.11909
20
0.688976
11
2.11909
21
0.661417
0
LINE
8
BLACK
6
CONTINUOUS
10
2.11909
20
0.661417
11
2.15453
21
0.661417
0
LINE
8
BLACK
6
CONTINUOUS
10
2.15453
20
0.661417
11
2.15453
21
0.688976
0
LINE
8
BLACK
6
CONTINUOUS
10
2.15453
20
0.688976
11
2.11909
21
0.688976
0
LINE
8
BLACK
6
CONTINUOUS
10
1.60728
20
0.885827
11
1.60728
21
0.692913
0
LINE
8
BLACK
6
CONTINUOUS
10
1.60728
20
0.692913
11
1.78051
21
0.692913
0
LINE
8
BLACK
6
CONTINUOUS
10
1.78051
20
0.692913
11
1.78051
21
0.885827
0
LINE
8
BLACK
6
CONTINUOUS
10
1.78051
20
0.885827
11
1.60728
21
0.885827
0
LINE
8
BLACK
6
CONTINUOUS
10
1.78445
20
0.885827
11
1.78445
21
0.692913
0
LINE
8
BLACK
6
CONTINUOUS
10
1.78445
20
0.692913
11
1.89075
21
0.692913
0
LINE
8
BLACK
6
CONTINUOUS
10
1.89075
20
0.692913
11
1.89075
21
0.885827
0
LINE
8
BLACK
6
CONTINUOUS
10
1.89075
20
0.885827
11
1.78445
21
0.885827
0
LINE
8
BLACK
6
CONTINUOUS
10
1.89469
20
0.885827
11
1.89469
21
0.692913
0
LINE
8
BLACK
6
CONTINUOUS
10
1.89469
20
0.692913
11
2.11516
21
0.692913
0
LINE
8
BLACK
6
CONTINUOUS
10
2.11516
20
0.692913
11
2.11516
21
0.885827
0
LINE
8
BLACK
6
CONTINUOUS
10
2.11516
20
0.885827
11
1.89469
21
0.885827
0
LINE
8
BLACK
6
CONTINUOUS
10
2.11909
20
0.885827
11
2.11909
21
0.692913
0
LINE
8
BLACK
6
CONTINUOUS
10
2.11909
20
0.692913
11
2.15453
21
0.692913
0
LINE
8
BLACK
6
CONTINUOUS
10
2.15453
20
0.692913
11
2.15453
21
0.885827
0
LINE
8
BLACK
6
CONTINUOUS
10
2.15453
20
0.885827
11
2.11909
21
0.885827
0
LINE
8
BLACK
6
CONTINUOUS
10
1.60728
20
1.08268
11
1.60728
21
0.889764
0
LINE
8
BLACK
6
CONTINUOUS
10
1.60728
20
0.889764
11
1.78051
21
0.889764
0
LINE
8
BLACK
6
CONTINUOUS
10
1.78051
20
0.889764
11
1.78051
21
1.08268
0
LINE
8
BLACK
6
CONTINUOUS
10
1.78051
20
1.08268
11
1.60728
21
1.08268
0
LINE
8
BLACK
6
CONTINUOUS
10
1.78445
20
1.08268
11
1.78445
21
0.889764
0
LINE
8
BLACK
6
CONTINUOUS
10
1.78445
20
0.889764
11
1.89075
21
0.889764
0
LINE
8
BLACK
6
CONTINUOUS
10
1.89075
20
0.889764
11
1.89075
21
1.08268
0
LINE
8
BLACK
6
CONTINUOUS
10
1.89075
20
1.08268
11
1.78445
21
1.08268
0
LINE
8
BLACK
6
CONTINUOUS
10
1.89469
20
1.08268
11
1.89469
21
0.889764
0
LINE
8
BLACK
6
CONTINUOUS
10
1.89469
20
0.889764
11
2.11516
21
0.889764
0
LINE
8
BLACK
6
CONTINUOUS
10
2.11516
20
0.889764
11
2.11516
21
1.08268
0
LINE
8
BLACK
6
CONTINUOUS
10
2.11516
20
1.08268
11
1.89469
21
1.08268
0
LINE
8
BLACK
6
CONTINUOUS
10
2.11909
20
1.08268
11
2.11909
21
0.889764
0
LINE
8
BLACK
6
CONTINUOUS
10
2.11909
20
0.889764
11
2.15453
21
0.889764
0
LINE
8
BLACK
6
CONTINUOUS
10
2.15453
20
0.889764
11
2.15453
21
1.08268
0
LINE
8
BLACK
6
CONTINUOUS
10
2.15453
20
1.08268
11
2.11909
21
1.08268
0
LINE
8
BLACK
6
CONTINUOUS
10
1.60728
20
1.27953
11
1.60728
21
1.08661
0
LINE
8
BLACK
6
CONTINUOUS
10
1.60728
20
1.08661
11
1.78051
21
1.08661
0
LINE
8
BLACK
6
CONTINUOUS
10
1.78051
20
1.08661
11
1.78051
21
1.27953
0
LINE
8
BLACK
6
CONTINUOUS
10
1.78051
20
1.27953
11
1.60728
21
1.27953
0
LINE
8
BLACK
6
CONTINUOUS
10
1.78445
20
1.27953
11
1.78445
21
1.08661
0
LINE
8
BLACK
6
CONTINUOUS
10
1.78445
20
1.08661
11
1.89075
21
1.08661
0
LINE
8
BLACK
6
CONTINUOUS
10
1.89075
20
1.08661
11
1.89075
21
1.27953
0
LINE
8
BLACK
6
CONTINUOUS
10
1.89075
20
1.27953
11
1.78445
21
1.27953
0
LINE
8
BLACK
6
CONTINUOUS
10
1.89469
20
1.27953
11
1.89469
21
1.08661
0
LINE
8
BLACK
6
CONTINUOUS
10
1.89469
20
1.08661
11
2.11516
21
1.08661
0
LINE
8
BLACK
6
CONTINUOUS
10
2.11516
20
1.08661
11
2.11516
21
1.27953
0
LINE
8
BLACK
6
CONTINUOUS
10
2.11516
20
1.27953
11
1.89469
21
1.27953
0
LINE
8
BLACK
6
CONTINUOUS
10
2.11909
20
1.27953
11
2.11909
21
1.08661
0
LINE
8
BLACK
6
CONTINUOUS
10
2.11909
20
1.08661
11
2.15453
21
1.08661
0
LINE
8
BLACK
6
CONTINUOUS
10
2.15453
20
1.08661
11
2.15453
21
1.27953
0
LINE
8
BLACK
6
CONTINUOUS
10
2.15453
20
1.27953
11
2.11909
21
1.27953
0
LINE
8
BLACK
6
CONTINUOUS
10
1.60728
20
1.33858
11
1.60728
21
1.28346
0
LINE
8
BLACK
6
CONTINUOUS
10
1.60728
20
1.28346
11
1.78051
21
1.28346
0
LINE
8
BLACK
6
CONTINUOUS
10
1.78051
20
1.28346
11
1.78051
21
1.33858
0
LINE
8
BLACK
6
CONTINUOUS
10
1.78051
20
1.33858
11
1.60728
21
1.33858
0
LINE
8
BLACK
6
CONTINUOUS
10
1.78445
20
1.33858
11
1.78445
21
1.28346
0
LINE
8
BLACK
6
CONTINUOUS
10
1.78445
20
1.28346
11
1.89075
21
1.28346
0
LINE
8
BLACK
6
CONTINUOUS
10
1.89075
20
1.28346
11
1.89075
21
1.33858
0
LINE
8
BLACK
6
CONTINUOUS
10
1.89075
20
1.33858
11
1.78445
21
1.33858
0
LINE
8
BLACK
6
CONTINUOUS
10
1.89469
20
1.33858
11
1.89469
21
1.28346
0
LINE
8
BLACK
6
CONTINUOUS
10
1.89469
20
1.28346
11
2.11516
21
1.28346
0
LINE
8
BLACK
6
CONTINUOUS
10
2.11516
20
1.28346
11
2.11516
21
1.33858
0
LINE
8
BLACK
6
CONTINUOUS
10
2.11516
20
1.33858
11
1.89469
21
1.33858
0
LINE
8
BLACK
6
CONTINUOUS
10
2.11909
20
1.28346
11
2.15453
21
1.28346
0
LINE
8
BLACK
6
CONTINUOUS
10
2.15453
20
1.28346
11
2.15453
21
1.30037
0
LINE
8
BLACK
6
CONTINUOUS
10
2.15453
20
1.30037
11
2.11909
21
1.3358
0
LINE
8
BLACK
6
CONTINUOUS
10
2.11909
20
1.3358
11
2.11909
21
1.28346
0
LINE
8
BLACK
6
CONTINUOUS
10
1.38011
20
1.0206
11
1.38024
21
1.02062
0
LINE
8
BLACK
6
CONTINUOUS
10
1.38024
20
1.02062
11
1.38035
21
1.02056
0
LINE
8
BLACK
6
CONTINUOUS
10
1.38035
20
1.02056
11
1.38073
21
1.02049
0
LINE
8
BLACK
6
CONTINUOUS
10
1.38073
20
1.02049
11
1.38132
21
1.02
0
LINE
8
BLACK
6
CONTINUOUS
10
1.38132
20
1.02
11
1.38199
21
1.01961
0
LINE
8
BLACK
6
CONTINUOUS
10
1.38199
20
1.01961
11
1.38208
21
1.01936
0
LINE
8
BLACK
6
CONTINUOUS
10
1.38208
20
1.01936
11
1.38228
21
1.01919
0
LINE
8
BLACK
6
CONTINUOUS
10
1.38228
20
1.01919
11
1.38241
21
1.01844
0
LINE
8
BLACK
6
CONTINUOUS
10
1.38241
20
1.01844
11
1.38268
21
1.01772
0
LINE
8
BLACK
6
CONTINUOUS
10
1.38268
20
1.01772
11
1.38268
21
0.717717
0
LINE
8
BLACK
6
CONTINUOUS
10
1.38268
20
0.717717
11
1.38261
21
0.717333
0
LINE
8
BLACK
6
CONTINUOUS
10
1.38261
20
0.717333
11
1.38263
21
0.717204
0
LINE
8
BLACK
6
CONTINUOUS
10
1.38263
20
0.717204
11
1.38257
21
0.71709
0
LINE
8
BLACK
6
CONTINUOUS
10
1.38257
20
0.71709
11
1.3825
21
0.716707
0
LINE
8
BLACK
6
CONTINUOUS
10
1.3825
20
0.716707
11
1.38201
21
0.716119
0
LINE
8
BLACK
6
CONTINUOUS
10
1.38201
20
0.716119
11
1.38162
21
0.715455
0
LINE
8
BLACK
6
CONTINUOUS
10
1.38162
20
0.715455
11
1.38137
21
0.715364
0
LINE
8
BLACK
6
CONTINUOUS
10
1.38137
20
0.715364
11
1.3812
21
0.715159
0
LINE
8
BLACK
6
CONTINUOUS
10
1.3812
20
0.715159
11
1.38045
21
0.715026
0
LINE
8
BLACK
6
CONTINUOUS
10
1.38045
20
0.715026
11
1.37972
21
0.714764
0
LINE
8
BLACK
6
CONTINUOUS
10
1.37972
20
0.714764
11
1.17972
21
0.714764
0
LINE
8
BLACK
6
CONTINUOUS
10
1.17972
20
0.714764
11
1.17934
21
0.714831
0
LINE
8
BLACK
6
CONTINUOUS
10
1.17934
20
0.714831
11
1.17921
21
0.714809
0
LINE
8
BLACK
6
CONTINUOUS
10
1.17921
20
0.714809
11
1.1791
21
0.714874
0
LINE
8
BLACK
6
CONTINUOUS
10
1.1791
20
0.714874
11
1.17871
21
0.714942
0
LINE
8
BLACK
6
CONTINUOUS
10
1.17871
20
0.714942
11
1.17813
21
0.715435
0
LINE
8
BLACK
6
CONTINUOUS
10
1.17813
20
0.715435
11
1.17746
21
0.715819
0
LINE
8
BLACK
6
CONTINUOUS
10
1.17746
20
0.715819
11
1.17737
21
0.716069
0
LINE
8
BLACK
6
CONTINUOUS
10
1.17737
20
0.716069
11
1.17717
21
0.71624
0
LINE
8
BLACK
6
CONTINUOUS
10
1.17717
20
0.71624
11
1.17703
21
0.716996
0
LINE
8
BLACK
6
CONTINUOUS
10
1.17703
20
0.716996
11
1.17677
21
0.717717
0
LINE
8
BLACK
6
CONTINUOUS
10
1.17677
20
0.717717
11
1.17677
21
1.01772
0
LINE
8
BLACK
6
CONTINUOUS
10
1.17677
20
1.01772
11
1.17684
21
1.0181
0
LINE
8
BLACK
6
CONTINUOUS
10
1.17684
20
1.0181
11
1.17682
21
1.01823
0
LINE
8
BLACK
6
CONTINUOUS
10
1.17682
20
1.01823
11
1.17688
21
1.01834
0
LINE
8
BLACK
6
CONTINUOUS
10
1.17688
20
1.01834
11
1.17695
21
1.01873
0
LINE
8
BLACK
6
CONTINUOUS
10
1.17695
20
1.01873
11
1.17744
21
1.01931
0
LINE
8
BLACK
6
CONTINUOUS
10
1.17744
20
1.01931
11
1.17783
21
1.01998
0
LINE
8
BLACK
6
CONTINUOUS
10
1.17783
20
1.01998
11
1.17808
21
1.02007
0
LINE
8
BLACK
6
CONTINUOUS
10
1.17808
20
1.02007
11
1.17825
21
1.02027
0
LINE
8
BLACK
6
CONTINUOUS
10
1.17825
20
1.02027
11
1.179
21
1.02041
0
LINE
8
BLACK
6
CONTINUOUS
10
1.179
20
1.02041
11
1.17972
21
1.02067
0
LINE
8
BLACK
6
CONTINUOUS
10
1.17972
20
1.02067
11
1.37972
21
1.02067
0
LINE
8
BLACK
6
CONTINUOUS
10
1.37972
20
1.02067
11
1.38011
21
1.0206
0
LINE
8
BLACK
6
CONTINUOUS
10
1.18268
20
1.01476
11
1.18268
21
0.720669
0
LINE
8
BLACK
6
CONTINUOUS
10
1.18268
20
0.720669
11
1.37677
21
0.720669
0
LINE
8
BLACK
6
CONTINUOUS
10
1.37677
20
0.720669
11
1.37677
21
1.01476
0
LINE
8
BLACK
6
CONTINUOUS
10
1.37677
20
1.01476
11
1.18268
21
1.01476
0
LINE
8
BLACK
6
CONTINUOUS
10
0.887795
20
1.30906
11
0.889187
21
1.30848
0
LINE
8
BLACK
6
CONTINUOUS
10
0.889187
20
1.30848
11
0.889764
21
1.30709
0
LINE
8
BLACK
6
CONTINUOUS
10
0.889764
20
1.30709
11
0.889764
21
1.20866
0
LINE
8
BLACK
6
CONTINUOUS
10
0.889764
20
1.20866
11
0.889187
21
1.20727
0
LINE
8
BLACK
6
CONTINUOUS
10
0.889187
20
1.20727
11
0.887795
21
1.20669
0
LINE
8
BLACK
6
CONTINUOUS
10
0.887795
20
1.20669
11
0.848425
21
1.20669
0
LINE
8
BLACK
6
CONTINUOUS
10
0.848425
20
1.20669
11
0.847033
21
1.20727
0
LINE
8
BLACK
6
CONTINUOUS
10
0.847033
20
1.20727
11
0.846457
21
1.20866
0
LINE
8
BLACK
6
CONTINUOUS
10
0.846457
20
1.20866
11
0.846457
21
1.20866
0
LINE
8
BLACK
6
CONTINUOUS
10
0.846457
20
1.20866
11
0.846457
21
1.30709
0
LINE
8
BLACK
6
CONTINUOUS
10
0.846457
20
1.30709
11
0.847033
21
1.30848
0
LINE
8
BLACK
6
CONTINUOUS
10
0.847033
20
1.30848
11
0.848425
21
1.30906
0
LINE
8
BLACK
6
CONTINUOUS
10
0.848425
20
1.30906
11
0.887795
21
1.30906
0
LINE
8
BLACK
6
CONTINUOUS
10
0.850394
20
1.30512
11
0.850394
21
1.21063
0
LINE
8
BLACK
6
CONTINUOUS
10
0.850394
20
1.21063
11
0.885827
21
1.21063
0
LINE
8
BLACK
6
CONTINUOUS
10
0.885827
20
1.21063
11
0.885827
21
1.30512
0
LINE
8
BLACK
6
CONTINUOUS
10
0.885827
20
1.30512
11
0.850394
21
1.30512
0
LINE
8
BLACK
6
CONTINUOUS
10
1.08465
20
1.30906
11
1.08604
21
1.30848
0
LINE
8
BLACK
6
CONTINUOUS
10
1.08604
20
1.30848
11
1.08661
21
1.30709
0
LINE
8
BLACK
6
CONTINUOUS
10
1.08661
20
1.30709
11
1.08661
21
1.20866
0
LINE
8
BLACK
6
CONTINUOUS
10
1.08661
20
1.20866
11
1.08604
21
1.20727
0
LINE
8
BLACK
6
CONTINUOUS
10
1.08604
20
1.20727
11
1.08465
21
1.20669
0
LINE
8
BLACK
6
CONTINUOUS
10
1.08465
20
1.20669
11
1.04528
21
1.20669
0
LINE
8
BLACK
6
CONTINUOUS
10
1.04528
20
1.20669
11
1.04388
21
1.20727
0
LINE
8
BLACK
6
CONTINUOUS
10
1.04388
20
1.20727
11
1.04331
21
1.20866
0
LINE
8
BLACK
6
CONTINUOUS
10
1.04331
20
1.20866
11
1.04331
21
1.30709
0
LINE
8
BLACK
6
CONTINUOUS
10
1.04331
20
1.30709
11
1.04388
21
1.30848
0
LINE
8
BLACK
6
CONTINUOUS
10
1.04388
20
1.30848
11
1.04528
21
1.30906
0
LINE
8
BLACK
6
CONTINUOUS
10
1.04528
20
1.30906
11
1.08465
21
1.30906
0
LINE
8
BLACK
6
CONTINUOUS
10
1.04724
20
1.30512
11
1.04724
21
1.21063
0
LINE
8
BLACK
6
CONTINUOUS
10
1.04724
20
1.21063
11
1.08268
21
1.21063
0
LINE
8
BLACK
6
CONTINUOUS
10
1.08268
20
1.21063
11
1.08268
21
1.30512
0
LINE
8
BLACK
6
CONTINUOUS
10
1.08268
20
1.30512
11
1.04724
21
1.30512
0
LINE
8
BLACK
6
CONTINUOUS
10
0.91967
20
1.45539
11
0.919839
21
1.4554
0
LINE
8
BLACK
6
CONTINUOUS
10
0.919839
20
1.4554
11
0.92053
21
1.45489
0
LINE
8
BLACK
6
CONTINUOUS
10
0.92053
20
1.45489
11
0.921272
21
1.45446
0
LINE
8
BLACK
6
CONTINUOUS
10
0.921272
20
1.45446
11
0.92133
21
1.4543
0
LINE
8
BLACK
6
CONTINUOUS
10
0.92133
20
1.4543
11
0.921467
21
1.4542
0
LINE
8
BLACK
6
CONTINUOUS
10
0.921467
20
1.4542
11
0.925054
21
1.44882
0
LINE
8
BLACK
6
CONTINUOUS
10
0.925054
20
1.44882
11
0.928258
21
1.44562
0
LINE
8
BLACK
6
CONTINUOUS
10
0.928258
20
1.44562
11
0.931579
21
1.44396
0
LINE
8
BLACK
6
CONTINUOUS
10
0.931579
20
1.44396
11
0.932403
21
1.44335
0
LINE
8
BLACK
6
CONTINUOUS
10
0.932403
20
1.44335
11
0.933206
21
1.44149
0
LINE
8
BLACK
6
CONTINUOUS
10
0.933206
20
1.44149
11
0.93263
21
1.43956
0
LINE
8
BLACK
6
CONTINUOUS
10
0.93263
20
1.43956
11
0.930945
21
1.43845
0
LINE
8
BLACK
6
CONTINUOUS
10
0.930945
20
1.43845
11
0.928938
21
1.43868
0
LINE
8
BLACK
6
CONTINUOUS
10
0.928938
20
1.43868
11
0.925189
21
1.44055
0
LINE
8
BLACK
6
CONTINUOUS
10
0.925189
20
1.44055
11
0.92448
21
1.44108
0
LINE
8
BLACK
6
CONTINUOUS
10
0.92448
20
1.44108
11
0.924421
21
1.4411
0
LINE
8
BLACK
6
CONTINUOUS
10
0.924421
20
1.4411
11
0.921963
21
1.44356
0
LINE
8
BLACK
6
CONTINUOUS
10
0.921963
20
1.44356
11
0.921963
21
1.41615
0
LINE
8
BLACK
6
CONTINUOUS
10
0.921963
20
1.41615
11
0.930259
21
1.41615
0
LINE
8
BLACK
6
CONTINUOUS
10
0.930259
20
1.41615
11
0.931269
21
1.41597
0
LINE
8
BLACK
6
CONTINUOUS
10
0.931269
20
1.41597
11
0.932816
21
1.41467
0
LINE
8
BLACK
6
CONTINUOUS
10
0.932816
20
1.41467
11
0.933167
21
1.41268
0
LINE
8
BLACK
6
CONTINUOUS
10
0.933167
20
1.41268
11
0.932157
21
1.41093
0
LINE
8
BLACK
6
CONTINUOUS
10
0.932157
20
1.41093
11
0.930259
21
1.41024
0
LINE
8
BLACK
6
CONTINUOUS
10
0.930259
20
1.41024
11
0.907761
21
1.41024
0
LINE
8
BLACK
6
CONTINUOUS
10
0.907761
20
1.41024
11
0.906752
21
1.41042
0
LINE
8
BLACK
6
CONTINUOUS
10
0.906752
20
1.41042
11
0.905204
21
1.41172
0
LINE
8
BLACK
6
CONTINUOUS
10
0.905204
20
1.41172
11
0.904854
21
1.41371
0
LINE
8
BLACK
6
CONTINUOUS
10
0.904854
20
1.41371
11
0.905864
21
1.41546
0
LINE
8
BLACK
6
CONTINUOUS
10
0.905864
20
1.41546
11
0.907761
21
1.41615
0
LINE
8
BLACK
6
CONTINUOUS
10
0.907761
20
1.41615
11
0.916057
21
1.41615
0
LINE
8
BLACK
6
CONTINUOUS
10
0.916057
20
1.41615
11
0.916057
21
1.45257
0
LINE
8
BLACK
6
CONTINUOUS
10
0.916057
20
1.45257
11
0.916235
21
1.45358
0
LINE
8
BLACK
6
CONTINUOUS
10
0.916235
20
1.45358
11
0.916344
21
1.45371
0
LINE
8
BLACK
6
CONTINUOUS
10
0.916344
20
1.45371
11
0.916363
21
1.45387
0
LINE
8
BLACK
6
CONTINUOUS
10
0.916363
20
1.45387
11
0.916983
21
1.45447
0
LINE
8
BLACK
6
CONTINUOUS
10
0.916983
20
1.45447
11
0.917534
21
1.45512
0
LINE
8
BLACK
6
CONTINUOUS
10
0.917534
20
1.45512
11
0.917701
21
1.45515
0
LINE
8
BLACK
6
CONTINUOUS
10
0.917701
20
1.45515
11
0.917824
21
1.45527
0
LINE
8
BLACK
6
CONTINUOUS
10
0.917824
20
1.45527
11
0.918679
21
1.45533
0
LINE
8
BLACK
6
CONTINUOUS
10
0.918679
20
1.45533
11
0.919523
21
1.45547
0
LINE
8
BLACK
6
CONTINUOUS
10
0.919523
20
1.45547
11
0.91967
21
1.45539
0
LINE
8
BLACK
6
CONTINUOUS
10
0.986889
20
1.45446
11
0.98758
21
1.45257
0
LINE
8
BLACK
6
CONTINUOUS
10
0.98758
20
1.45257
11
0.98758
21
1.42492
0
LINE
8
BLACK
6
CONTINUOUS
10
0.98758
20
1.42492
11
0.989082
21
1.42042
0
LINE
8
BLACK
6
CONTINUOUS
10
0.989082
20
1.42042
11
0.991846
21
1.41765
0
LINE
8
BLACK
6
CONTINUOUS
10
0.991846
20
1.41765
11
0.996355
21
1.41615
0
LINE
8
BLACK
6
CONTINUOUS
10
0.996355
20
1.41615
11
0.999625
21
1.41615
0
LINE
8
BLACK
6
CONTINUOUS
10
0.999625
20
1.41615
11
1.00063
21
1.41597
0
LINE
8
BLACK
6
CONTINUOUS
10
1.00063
20
1.41597
11
1.00218
21
1.41467
0
LINE
8
BLACK
6
CONTINUOUS
10
1.00218
20
1.41467
11
1.00253
21
1.41268
0
LINE
8
BLACK
6
CONTINUOUS
10
1.00253
20
1.41268
11
1.00152
21
1.41093
0
LINE
8
BLACK
6
CONTINUOUS
10
1.00152
20
1.41093
11
0.999625
21
1.41024
0
LINE
8
BLACK
6
CONTINUOUS
10
0.999625
20
1.41024
11
0.995875
21
1.41024
0
LINE
8
BLACK
6
CONTINUOUS
10
0.995875
20
1.41024
11
0.995006
21
1.4104
0
LINE
8
BLACK
6
CONTINUOUS
10
0.995006
20
1.4104
11
0.994942
21
1.41039
0
LINE
8
BLACK
6
CONTINUOUS
10
0.994942
20
1.41039
11
0.989317
21
1.41227
0
LINE
8
BLACK
6
CONTINUOUS
10
0.989317
20
1.41227
11
0.988416
21
1.41276
0
LINE
8
BLACK
6
CONTINUOUS
10
0.988416
20
1.41276
11
0.988323
21
1.41291
0
LINE
8
BLACK
6
CONTINUOUS
10
0.988323
20
1.41291
11
0.988163
21
1.41298
0
LINE
8
BLACK
6
CONTINUOUS
10
0.988163
20
1.41298
11
0.984414
21
1.41673
0
LINE
8
BLACK
6
CONTINUOUS
10
0.984414
20
1.41673
11
0.983826
21
1.41757
0
LINE
8
BLACK
6
CONTINUOUS
10
0.983826
20
1.41757
11
0.98381
21
1.41775
0
LINE
8
BLACK
6
CONTINUOUS
10
0.98381
20
1.41775
11
0.9837
21
1.41789
0
LINE
8
BLACK
6
CONTINUOUS
10
0.9837
20
1.41789
11
0.981826
21
1.42351
0
LINE
8
BLACK
6
CONTINUOUS
10
0.981826
20
1.42351
11
0.981696
21
1.42438
0
LINE
8
BLACK
6
CONTINUOUS
10
0.981696
20
1.42438
11
0.981674
21
1.42444
0
LINE
8
BLACK
6
CONTINUOUS
10
0.981674
20
1.42444
11
0.981674
21
1.45257
0
LINE
8
BLACK
6
CONTINUOUS
10
0.981674
20
1.45257
11
0.981852
21
1.45358
0
LINE
8
BLACK
6
CONTINUOUS
10
0.981852
20
1.45358
11
0.983151
21
1.45512
0
LINE
8
BLACK
6
CONTINUOUS
10
0.983151
20
1.45512
11
0.98514
21
1.45547
0
LINE
8
BLACK
6
CONTINUOUS
10
0.98514
20
1.45547
11
0.986889
21
1.45446
0
LINE
8
BLACK
6
CONTINUOUS
10
0.94685
20
1.53937
11
0.948242
21
1.53879
0
LINE
8
BLACK
6
CONTINUOUS
10
0.948242
20
1.53879
11
0.948819
21
1.5374
0
LINE
8
BLACK
6
CONTINUOUS
10
0.948819
20
1.5374
11
0.948819
21
1.49803
0
LINE
8
BLACK
6
CONTINUOUS
10
0.948819
20
1.49803
11
0.948242
21
1.49664
0
LINE
8
BLACK
6
CONTINUOUS
10
0.948242
20
1.49664
11
0.94685
21
1.49606
0
LINE
8
BLACK
6
CONTINUOUS
10
0.94685
20
1.49606
11
0.78937
21
1.49606
0
LINE
8
BLACK
6
CONTINUOUS
10
0.78937
20
1.49606
11
0.787978
21
1.49664
0
LINE
8
BLACK
6
CONTINUOUS
10
0.787978
20
1.49664
11
0.787402
21
1.49803
0
LINE
8
BLACK
6
CONTINUOUS
10
0.787402
20
1.49803
11
0.787402
21
1.5374
0
LINE
8
BLACK
6
CONTINUOUS
10
0.787402
20
1.5374
11
0.787978
21
1.53879
0
LINE
8
BLACK
6
CONTINUOUS
10
0.787978
20
1.53879
11
0.78937
21
1.53937
0
LINE
8
BLACK
6
CONTINUOUS
10
0.78937
20
1.53937
11
0.94685
21
1.53937
0
LINE
8
BLACK
6
CONTINUOUS
10
0.791339
20
1.53543
11
0.791339
21
1.5
0
LINE
8
BLACK
6
CONTINUOUS
10
0.791339
20
1.5
11
0.944882
21
1.5
0
LINE
8
BLACK
6
CONTINUOUS
10
0.944882
20
1.5
11
0.944882
21
1.53543
0
LINE
8
BLACK
6
CONTINUOUS
10
0.944882
20
1.53543
11
0.791339
21
1.53543
0
LINE
8
BLACK
6
CONTINUOUS
10
0.94685
20
1.69685
11
0.948242
21
1.69627
0
LINE
8
BLACK
6
CONTINUOUS
10
0.948242
20
1.69627
11
0.948819
21
1.69488
0
LINE
8
BLACK
6
CONTINUOUS
10
0.948819
20
1.69488
11
0.948819
21
1.56496
0
LINE
8
BLACK
6
CONTINUOUS
10
0.948819
20
1.56496
11
0.948242
21
1.56357
0
LINE
8
BLACK
6
CONTINUOUS
10
0.948242
20
1.56357
11
0.94685
21
1.56299
0
LINE
8
BLACK
6
CONTINUOUS
10
0.94685
20
1.56299
11
0.78937
21
1.56299
0
LINE
8
BLACK
6
CONTINUOUS
10
0.78937
20
1.56299
11
0.787978
21
1.56357
0
LINE
8
BLACK
6
CONTINUOUS
10
0.787978
20
1.56357
11
0.787402
21
1.56496
0
LINE
8
BLACK
6
CONTINUOUS
10
0.787402
20
1.56496
11
0.787402
21
1.56496
0
LINE
8
BLACK
6
CONTINUOUS
10
0.787402
20
1.56496
11
0.787402
21
1.69488
0
LINE
8
BLACK
6
CONTINUOUS
10
0.787402
20
1.69488
11
0.787978
21
1.69627
0
LINE
8
BLACK
6
CONTINUOUS
10
0.787978
20
1.69627
11
0.78937
21
1.69685
0
LINE
8
BLACK
6
CONTINUOUS
10
0.78937
20
1.69685
11
0.94685
21
1.69685
0
LINE
8
BLACK
6
CONTINUOUS
10
0.791339
20
1.69291
11
0.791339
21
1.56693
0
LINE
8
BLACK
6
CONTINUOUS
10
0.791339
20
1.56693
11
0.944882
21
1.56693
0
LINE
8
BLACK
6
CONTINUOUS
10
0.944882
20
1.56693
11
0.944882
21
1.69291
0
LINE
8
BLACK
6
CONTINUOUS
10
0.944882
20
1.69291
11
0.791339
21
1.69291
0
LINE
8
BLACK
6
CONTINUOUS
10
1.1437
20
1.53937
11
1.14509
21
1.53879
0
LINE
8
BLACK
6
CONTINUOUS
10
1.14509
20
1.53879
11
1.14567
21
1.5374
0
LINE
8
BLACK
6
CONTINUOUS
10
1.14567
20
1.5374
11
1.14567
21
1.49803
0
LINE
8
BLACK
6
CONTINUOUS
10
1.14567
20
1.49803
11
1.14509
21
1.49664
0
LINE
8
BLACK
6
CONTINUOUS
10
1.14509
20
1.49664
11
1.1437
21
1.49606
0
LINE
8
BLACK
6
CONTINUOUS
10
1.1437
20
1.49606
11
0.98622
21
1.49606
0
LINE
8
BLACK
6
CONTINUOUS
10
0.98622
20
1.49606
11
0.984829
21
1.49664
0
LINE
8
BLACK
6
CONTINUOUS
10
0.984829
20
1.49664
11
0.984252
21
1.49803
0
LINE
8
BLACK
6
CONTINUOUS
10
0.984252
20
1.49803
11
0.984252
21
1.5374
0
LINE
8
BLACK
6
CONTINUOUS
10
0.984252
20
1.5374
11
0.984829
21
1.53879
0
LINE
8
BLACK
6
CONTINUOUS
10
0.984829
20
1.53879
11
0.98622
21
1.53937
0
LINE
8
BLACK
6
CONTINUOUS
10
0.98622
20
1.53937
11
1.1437
21
1.53937
0
LINE
8
BLACK
6
CONTINUOUS
10
0.988189
20
1.53543
11
0.988189
21
1.5
0
LINE
8
BLACK
6
CONTINUOUS
10
0.988189
20
1.5
11
1.14173
21
1.5
0
LINE
8
BLACK
6
CONTINUOUS
10
1.14173
20
1.5
11
1.14173
21
1.53543
0
LINE
8
BLACK
6
CONTINUOUS
10
1.14173
20
1.53543
11
0.988189
21
1.53543
0
LINE
8
BLACK
6
CONTINUOUS
10
1.1437
20
1.69685
11
1.14509
21
1.69627
0
LINE
8
BLACK
6
CONTINUOUS
10
1.14509
20
1.69627
11
1.14567
21
1.69488
0
LINE
8
BLACK
6
CONTINUOUS
10
1.14567
20
1.69488
11
1.14567
21
1.56496
0
LINE
8
BLACK
6
CONTINUOUS
10
1.14567
20
1.56496
11
1.14509
21
1.56357
0
LINE
8
BLACK
6
CONTINUOUS
10
1.14509
20
1.56357
11
1.1437
21
1.56299
0
LINE
8
BLACK
6
CONTINUOUS
10
1.1437
20
1.56299
11
0.98622
21
1.56299
0
LINE
8
BLACK
6
CONTINUOUS
10
0.98622
20
1.56299
11
0.984829
21
1.56357
0
LINE
8
BLACK
6
CONTINUOUS
10
0.984829
20
1.56357
11
0.984252
21
1.56496
0
LINE
8
BLACK
6
CONTINUOUS
10
0.984252
20
1.56496
11
0.984252
21
1.56496
0
LINE
8
BLACK
6
CONTINUOUS
10
0.984252
20
1.56496
11
0.984252
21
1.69488
0
LINE
8
BLACK
6
CONTINUOUS
10
0.984252
20
1.69488
11
0.984829
21
1.69627
0
LINE
8
BLACK
6
CONTINUOUS
10
0.984829
20
1.69627
11
0.98622
21
1.69685
0
LINE
8
BLACK
6
CONTINUOUS
10
0.98622
20
1.69685
11
1.1437
21
1.69685
0
LINE
8
BLACK
6
CONTINUOUS
10
0.988189
20
1.69291
11
0.988189
21
1.56693
0
LINE
8
BLACK
6
CONTINUOUS
10
0.988189
20
1.56693
11
1.14173
21
1.56693
0
LINE
8
BLACK
6
CONTINUOUS
10
1.14173
20
1.56693
11
1.14173
21
1.69291
0
LINE
8
BLACK
6
CONTINUOUS
10
1.14173
20
1.69291
11
0.988189
21
1.69291
0
LINE
8
BLACK
6
CONTINUOUS
10
1.19488
20
1.74803
11
1.19627
21
1.74745
0
LINE
8
BLACK
6
CONTINUOUS
10
1.19627
20
1.74745
11
1.19685
21
1.74606
0
LINE
8
BLACK
6
CONTINUOUS
10
1.19685
20
1.74606
11
1.19685
21
1.19488
0
LINE
8
BLACK
6
CONTINUOUS
10
1.19685
20
1.19488
11
1.19627
21
1.19349
0
LINE
8
BLACK
6
CONTINUOUS
10
1.19627
20
1.19349
11
1.19488
21
1.19291
0
LINE
8
BLACK
6
CONTINUOUS
10
1.19488
20
1.19291
11
1.16339
21
1.19291
0
LINE
8
BLACK
6
CONTINUOUS
10
1.16339
20
1.19291
11
0.966535
21
1.19291
0
LINE
8
BLACK
6
CONTINUOUS
10
0.966535
20
1.19291
11
0.769685
21
1.19291
0
LINE
8
BLACK
6
CONTINUOUS
10
0.769685
20
1.19291
11
0.71063
21
1.19291
0
LINE
8
BLACK
6
CONTINUOUS
10
0.71063
20
1.19291
11
0.709238
21
1.19349
0
LINE
8
BLACK
6
CONTINUOUS
10
0.709238
20
1.19349
11
0.708661
21
1.19488
0
LINE
8
BLACK
6
CONTINUOUS
10
0.708661
20
1.19488
11
0.708661
21
1.70669
0
LINE
8
BLACK
6
CONTINUOUS
10
0.708661
20
1.70669
11
0.709238
21
1.70808
0
LINE
8
BLACK
6
CONTINUOUS
10
0.709238
20
1.70808
11
0.709238
21
1.70808
0
LINE
8
BLACK
6
CONTINUOUS
10
0.709238
20
1.70808
11
0.748608
21
1.74745
0
LINE
8
BLACK
6
CONTINUOUS
10
0.748608
20
1.74745
11
0.75
21
1.74803
0
LINE
8
BLACK
6
CONTINUOUS
10
0.75
20
1.74803
11
1.19488
21
1.74803
0
LINE
8
BLACK
6
CONTINUOUS
10
0.712598
20
1.37008
11
0.712598
21
1.19685
0
LINE
8
BLACK
6
CONTINUOUS
10
0.712598
20
1.19685
11
0.767717
21
1.19685
0
LINE
8
BLACK
6
CONTINUOUS
10
0.767717
20
1.19685
11
0.767717
21
1.37008
0
LINE
8
BLACK
6
CONTINUOUS
10
0.767717
20
1.37008
11
0.712598
21
1.37008
0
LINE
8
BLACK
6
CONTINUOUS
10
0.771654
20
1.37008
11
0.771654
21
1.19685
0
LINE
8
BLACK
6
CONTINUOUS
10
0.771654
20
1.19685
11
0.964567
21
1.19685
0
LINE
8
BLACK
6
CONTINUOUS
10
0.964567
20
1.19685
11
0.964567
21
1.37008
0
LINE
8
BLACK
6
CONTINUOUS
10
0.964567
20
1.37008
11
0.771654
21
1.37008
0
LINE
8
BLACK
6
CONTINUOUS
10
0.968504
20
1.37008
11
0.968504
21
1.19685
0
LINE
8
BLACK
6
CONTINUOUS
10
0.968504
20
1.19685
11
1.16142
21
1.19685
0
LINE
8
BLACK
6
CONTINUOUS
10
1.16142
20
1.19685
11
1.16142
21
1.37008
0
LINE
8
BLACK
6
CONTINUOUS
10
1.16142
20
1.37008
11
0.968504
21
1.37008
0
LINE
8
BLACK
6
CONTINUOUS
10
1.16535
20
1.37008
11
1.16535
21
1.19685
0
LINE
8
BLACK
6
CONTINUOUS
10
1.16535
20
1.19685
11
1.19291
21
1.19685
0
LINE
8
BLACK
6
CONTINUOUS
10
1.19291
20
1.19685
11
1.19291
21
1.37008
0
LINE
8
BLACK
6
CONTINUOUS
10
1.19291
20
1.37008
11
1.16535
21
1.37008
0
LINE
8
BLACK
6
CONTINUOUS
10
0.712598
20
1.48031
11
0.712598
21
1.37402
0
LINE
8
BLACK
6
CONTINUOUS
10
0.712598
20
1.37402
11
0.767717
21
1.37402
0
LINE
8
BLACK
6
CONTINUOUS
10
0.767717
20
1.37402
11
0.767717
21
1.48031
0
LINE
8
BLACK
6
CONTINUOUS
10
0.767717
20
1.48031
11
0.712598
21
1.48031
0
LINE
8
BLACK
6
CONTINUOUS
10
0.771654
20
1.48031
11
0.771654
21
1.37402
0
LINE
8
BLACK
6
CONTINUOUS
10
0.771654
20
1.37402
11
0.964567
21
1.37402
0
LINE
8
BLACK
6
CONTINUOUS
10
0.964567
20
1.37402
11
0.964567
21
1.41024
0
LINE
8
BLACK
6
CONTINUOUS
10
0.964567
20
1.41024
11
0.945257
21
1.41024
0
LINE
8
BLACK
6
CONTINUOUS
10
0.945257
20
1.41024
11
0.944247
21
1.41042
0
LINE
8
BLACK
6
CONTINUOUS
10
0.944247
20
1.41042
11
0.9427
21
1.41172
0
LINE
8
BLACK
6
CONTINUOUS
10
0.9427
20
1.41172
11
0.942349
21
1.41371
0
LINE
8
BLACK
6
CONTINUOUS
10
0.942349
20
1.41371
11
0.943359
21
1.41546
0
LINE
8
BLACK
6
CONTINUOUS
10
0.943359
20
1.41546
11
0.945257
21
1.41615
0
LINE
8
BLACK
6
CONTINUOUS
10
0.945257
20
1.41615
11
0.953553
21
1.41615
0
LINE
8
BLACK
6
CONTINUOUS
10
0.953553
20
1.41615
11
0.953553
21
1.45257
0
LINE
8
BLACK
6
CONTINUOUS
10
0.953553
20
1.45257
11
0.953731
21
1.45358
0
LINE
8
BLACK
6
CONTINUOUS
10
0.953731
20
1.45358
11
0.95384
21
1.45371
0
LINE
8
BLACK
6
CONTINUOUS
10
0.95384
20
1.45371
11
0.953859
21
1.45387
0
LINE
8
BLACK
6
CONTINUOUS
10
0.953859
20
1.45387
11
0.954478
21
1.45447
0
LINE
8
BLACK
6
CONTINUOUS
10
0.954478
20
1.45447
11
0.955029
21
1.45512
0
LINE
8
BLACK
6
CONTINUOUS
10
0.955029
20
1.45512
11
0.955196
21
1.45515
0
LINE
8
BLACK
6
CONTINUOUS
10
0.955196
20
1.45515
11
0.955319
21
1.45527
0
LINE
8
BLACK
6
CONTINUOUS
10
0.955319
20
1.45527
11
0.956174
21
1.45533
0
LINE
8
BLACK
6
CONTINUOUS
10
0.956174
20
1.45533
11
0.957018
21
1.45547
0
LINE
8
BLACK
6
CONTINUOUS
10
0.957018
20
1.45547
11
0.957165
21
1.45539
0
LINE
8
BLACK
6
CONTINUOUS
10
0.957165
20
1.45539
11
0.957335
21
1.4554
0
LINE
8
BLACK
6
CONTINUOUS
10
0.957335
20
1.4554
11
0.958025
21
1.45489
0
LINE
8
BLACK
6
CONTINUOUS
10
0.958025
20
1.45489
11
0.958767
21
1.45446
0
LINE
8
BLACK
6
CONTINUOUS
10
0.958767
20
1.45446
11
0.958825
21
1.4543
0
LINE
8
BLACK
6
CONTINUOUS
10
0.958825
20
1.4543
11
0.958962
21
1.4542
0
LINE
8
BLACK
6
CONTINUOUS
10
0.958962
20
1.4542
11
0.96255
21
1.44882
0
LINE
8
BLACK
6
CONTINUOUS
10
0.96255
20
1.44882
11
0.964567
21
1.44681
0
LINE
8
BLACK
6
CONTINUOUS
10
0.964567
20
1.44681
11
0.964567
21
1.48031
0
LINE
8
BLACK
6
CONTINUOUS
10
0.964567
20
1.48031
11
0.771654
21
1.48031
0
LINE
8
BLACK
6
CONTINUOUS
10
0.968504
20
1.48031
11
0.968504
21
1.44424
0
LINE
8
BLACK
6
CONTINUOUS
10
0.968504
20
1.44424
11
0.969074
21
1.44396
0
LINE
8
BLACK
6
CONTINUOUS
10
0.969074
20
1.44396
11
0.969898
21
1.44335
0
LINE
8
BLACK
6
CONTINUOUS
10
0.969898
20
1.44335
11
0.970701
21
1.44149
0
LINE
8
BLACK
6
CONTINUOUS
10
0.970701
20
1.44149
11
0.970126
21
1.43956
0
LINE
8
BLACK
6
CONTINUOUS
10
0.970126
20
1.43956
11
0.968504
21
1.43849
0
LINE
8
BLACK
6
CONTINUOUS
10
0.968504
20
1.43849
11
0.968504
21
1.41602
0
LINE
8
BLACK
6
CONTINUOUS
10
0.968504
20
1.41602
11
0.968764
21
1.41597
0
LINE
8
BLACK
6
CONTINUOUS
10
0.968764
20
1.41597
11
0.970311
21
1.41467
0
LINE
8
BLACK
6
CONTINUOUS
10
0.970311
20
1.41467
11
0.970662
21
1.41268
0
LINE
8
BLACK
6
CONTINUOUS
10
0.970662
20
1.41268
11
0.969652
21
1.41093
0
LINE
8
BLACK
6
CONTINUOUS
10
0.969652
20
1.41093
11
0.968504
21
1.41052
0
LINE
8
BLACK
6
CONTINUOUS
10
0.968504
20
1.41052
11
0.968504
21
1.37402
0
LINE
8
BLACK
6
CONTINUOUS
10
0.968504
20
1.37402
11
1.16142
21
1.37402
0
LINE
8
BLACK
6
CONTINUOUS
10
1.16142
20
1.37402
11
1.16142
21
1.48031
0
LINE
8
BLACK
6
CONTINUOUS
10
1.16142
20
1.48031
11
0.968504
21
1.48031
0
LINE
8
BLACK
6
CONTINUOUS
10
1.16535
20
1.48031
11
1.16535
21
1.37402
0
LINE
8
BLACK
6
CONTINUOUS
10
1.16535
20
1.37402
11
1.19291
21
1.37402
0
LINE
8
BLACK
6
CONTINUOUS
10
1.19291
20
1.37402
11
1.19291
21
1.48031
0
LINE
8
BLACK
6
CONTINUOUS
10
1.19291
20
1.48031
11
1.16535
21
1.48031
0
LINE
8
BLACK
6
CONTINUOUS
10
0.959458
20
1.41615
11
0.964567
21
1.41615
0
LINE
8
BLACK
6
CONTINUOUS
10
0.964567
20
1.41615
11
0.964567
21
1.43961
0
LINE
8
BLACK
6
CONTINUOUS
10
0.964567
20
1.43961
11
0.962684
21
1.44055
0
LINE
8
BLACK
6
CONTINUOUS
10
0.962684
20
1.44055
11
0.961975
21
1.44108
0
LINE
8
BLACK
6
CONTINUOUS
10
0.961975
20
1.44108
11
0.961917
21
1.4411
0
LINE
8
BLACK
6
CONTINUOUS
10
0.961917
20
1.4411
11
0.959458
21
1.44356
0
LINE
8
BLACK
6
CONTINUOUS
10
0.959458
20
1.44356
11
0.959458
21
1.41615
0
LINE
8
BLACK
6
CONTINUOUS
10
0.712598
20
1.70472
11
0.712598
21
1.48425
0
LINE
8
BLACK
6
CONTINUOUS
10
0.712598
20
1.48425
11
0.767717
21
1.48425
0
LINE
8
BLACK
6
CONTINUOUS
10
0.767717
20
1.48425
11
0.767717
21
1.70472
0
LINE
8
BLACK
6
CONTINUOUS
10
0.767717
20
1.70472
11
0.712598
21
1.70472
0
LINE
8
BLACK
6
CONTINUOUS
10
0.771654
20
1.70472
11
0.771654
21
1.48425
0
LINE
8
BLACK
6
CONTINUOUS
10
0.771654
20
1.48425
11
0.964567
21
1.48425
0
LINE
8
BLACK
6
CONTINUOUS
10
0.964567
20
1.48425
11
0.964567
21
1.70472
0
LINE
8
BLACK
6
CONTINUOUS
10
0.964567
20
1.70472
11
0.771654
21
1.70472
0
LINE
8
BLACK
6
CONTINUOUS
10
0.968504
20
1.70472
11
0.968504
21
1.48425
0
LINE
8
BLACK
6
CONTINUOUS
10
0.968504
20
1.48425
11
1.16142
21
1.48425
0
LINE
8
BLACK
6
CONTINUOUS
10
1.16142
20
1.48425
11
1.16142
21
1.70472
0
LINE
8
BLACK
6
CONTINUOUS
10
1.16142
20
1.70472
11
0.968504
21
1.70472
0
LINE
8
BLACK
6
CONTINUOUS
10
1.16535
20
1.70472
11
1.16535
21
1.48425
0
LINE
8
BLACK
6
CONTINUOUS
10
1.16535
20
1.48425
11
1.19291
21
1.48425
0
LINE
8
BLACK
6
CONTINUOUS
10
1.19291
20
1.48425
11
1.19291
21
1.70472
0
LINE
8
BLACK
6
CONTINUOUS
10
1.19291
20
1.70472
11
1.16535
21
1.70472
0
LINE
8
BLACK
6
CONTINUOUS
10
0.750815
20
1.74409
11
0.715382
21
1.70866
0
LINE
8
BLACK
6
CONTINUOUS
10
0.715382
20
1.70866
11
0.767717
21
1.70866
0
LINE
8
BLACK
6
CONTINUOUS
10
0.767717
20
1.70866
11
0.767717
21
1.74409
0
LINE
8
BLACK
6
CONTINUOUS
10
0.767717
20
1.74409
11
0.750815
21
1.74409
0
LINE
8
BLACK
6
CONTINUOUS
10
0.771654
20
1.74409
11
0.771654
21
1.70866
0
LINE
8
BLACK
6
CONTINUOUS
10
0.771654
20
1.70866
11
0.964567
21
1.70866
0
LINE
8
BLACK
6
CONTINUOUS
10
0.964567
20
1.70866
11
0.964567
21
1.74409
0
LINE
8
BLACK
6
CONTINUOUS
10
0.964567
20
1.74409
11
0.771654
21
1.74409
0
LINE
8
BLACK
6
CONTINUOUS
10
0.968504
20
1.74409
11
0.968504
21
1.70866
0
LINE
8
BLACK
6
CONTINUOUS
10
0.968504
20
1.70866
11
1.16142
21
1.70866
0
LINE
8
BLACK
6
CONTINUOUS
10
1.16142
20
1.70866
11
1.16142
21
1.74409
0
LINE
8
BLACK
6
CONTINUOUS
10
1.16142
20
1.74409
11
0.968504
21
1.74409
0
LINE
8
BLACK
6
CONTINUOUS
10
1.16535
20
1.74409
11
1.16535
21
1.70866
0
LINE
8
BLACK
6
CONTINUOUS
10
1.16535
20
1.70866
11
1.19291
21
1.70866
0
LINE
8
BLACK
6
CONTINUOUS
10
1.19291
20
1.70866
11
1.19291
21
1.74409
0
LINE
8
BLACK
6
CONTINUOUS
10
1.19291
20
1.74409
11
1.16535
21
1.74409
0
LINE
8
BLACK
6
CONTINUOUS
10
0.321549
20
1.38007
11
0.32224
21
1.37817
0
LINE
8
BLACK
6
CONTINUOUS
10
0.32224
20
1.37817
11
0.32224
21
1.3388
0
LINE
8
BLACK
6
CONTINUOUS
10
0.32224
20
1.3388
11
0.322062
21
1.33779
0
LINE
8
BLACK
6
CONTINUOUS
10
0.322062
20
1.33779
11
0.320764
21
1.33625
0
LINE
8
BLACK
6
CONTINUOUS
10
0.320764
20
1.33625
11
0.318775
21
1.3359
0
LINE
8
BLACK
6
CONTINUOUS
10
0.318775
20
1.3359
11
0.317026
21
1.33691
0
LINE
8
BLACK
6
CONTINUOUS
10
0.317026
20
1.33691
11
0.316335
21
1.3388
0
LINE
8
BLACK
6
CONTINUOUS
10
0.316335
20
1.3388
11
0.316335
21
1.35417
0
LINE
8
BLACK
6
CONTINUOUS
10
0.316335
20
1.35417
11
0.298878
21
1.33672
0
LINE
8
BLACK
6
CONTINUOUS
10
0.298878
20
1.33672
11
0.298038
21
1.33613
0
LINE
8
BLACK
6
CONTINUOUS
10
0.298038
20
1.33613
11
0.296026
21
1.33595
0
LINE
8
BLACK
6
CONTINUOUS
10
0.296026
20
1.33595
11
0.294372
21
1.33711
0
LINE
8
BLACK
6
CONTINUOUS
10
0.294372
20
1.33711
11
0.293849
21
1.33906
0
LINE
8
BLACK
6
CONTINUOUS
10
0.293849
20
1.33906
11
0.294702
21
1.34089
0
LINE
8
BLACK
6
CONTINUOUS
10
0.294702
20
1.34089
11
0.309764
21
1.35595
0
LINE
8
BLACK
6
CONTINUOUS
10
0.309764
20
1.35595
11
0.294428
21
1.3764
0
LINE
8
BLACK
6
CONTINUOUS
10
0.294428
20
1.3764
11
0.293965
21
1.37732
0
LINE
8
BLACK
6
CONTINUOUS
10
0.293965
20
1.37732
11
0.294075
21
1.37933
0
LINE
8
BLACK
6
CONTINUOUS
10
0.294075
20
1.37933
11
0.295456
21
1.38081
0
LINE
8
BLACK
6
CONTINUOUS
10
0.295456
20
1.38081
11
0.297461
21
1.38105
0
LINE
8
BLACK
6
CONTINUOUS
10
0.297461
20
1.38105
11
0.299153
21
1.37995
0
LINE
8
BLACK
6
CONTINUOUS
10
0.299153
20
1.37995
11
0.313983
21
1.36017
0
LINE
8
BLACK
6
CONTINUOUS
10
0.313983
20
1.36017
11
0.316335
21
1.36252
0
LINE
8
BLACK
6
CONTINUOUS
10
0.316335
20
1.36252
11
0.316335
21
1.37817
0
LINE
8
BLACK
6
CONTINUOUS
10
0.316335
20
1.37817
11
0.316513
21
1.37918
0
LINE
8
BLACK
6
CONTINUOUS
10
0.316513
20
1.37918
11
0.317811
21
1.38073
0
LINE
8
BLACK
6
CONTINUOUS
10
0.317811
20
1.38073
11
0.3198
21
1.38108
0
LINE
8
BLACK
6
CONTINUOUS
10
0.3198
20
1.38108
11
0.321549
21
1.38007
0
LINE
8
BLACK
6
CONTINUOUS
10
0.89846
20
1.8144
11
0.898595
21
1.81428
0
LINE
8
BLACK
6
CONTINUOUS
10
0.898595
20
1.81428
11
0.898771
21
1.81426
0
LINE
8
BLACK
6
CONTINUOUS
10
0.898771
20
1.81426
11
0.90252
21
1.81239
0
LINE
8
BLACK
6
CONTINUOUS
10
0.90252
20
1.81239
11
0.903229
21
1.81186
0
LINE
8
BLACK
6
CONTINUOUS
10
0.903229
20
1.81186
11
0.903288
21
1.81183
0
LINE
8
BLACK
6
CONTINUOUS
10
0.903288
20
1.81183
11
0.907037
21
1.80808
0
LINE
8
BLACK
6
CONTINUOUS
10
0.907037
20
1.80808
11
0.907625
21
1.80724
0
LINE
8
BLACK
6
CONTINUOUS
10
0.907625
20
1.80724
11
0.907651
21
1.80695
0
LINE
8
BLACK
6
CONTINUOUS
10
0.907651
20
1.80695
11
0.907814
21
1.80671
0
LINE
8
BLACK
6
CONTINUOUS
10
0.907814
20
1.80671
11
0.909689
21
1.79921
0
LINE
8
BLACK
6
CONTINUOUS
10
0.909689
20
1.79921
11
0.90973
21
1.79863
0
LINE
8
BLACK
6
CONTINUOUS
10
0.90973
20
1.79863
11
0.909777
21
1.7985
0
LINE
8
BLACK
6
CONTINUOUS
10
0.909777
20
1.7985
11
0.909777
21
1.78537
0
LINE
8
BLACK
6
CONTINUOUS
10
0.909777
20
1.78537
11
0.909674
21
1.78479
0
LINE
8
BLACK
6
CONTINUOUS
10
0.909674
20
1.78479
11
0.909689
21
1.78466
0
LINE
8
BLACK
6
CONTINUOUS
10
0.909689
20
1.78466
11
0.907814
21
1.77716
0
LINE
8
BLACK
6
CONTINUOUS
10
0.907814
20
1.77716
11
0.907396
21
1.77622
0
LINE
8
BLACK
6
CONTINUOUS
10
0.907396
20
1.77622
11
0.90716
21
1.77605
0
LINE
8
BLACK
6
CONTINUOUS
10
0.90716
20
1.77605
11
0.907037
21
1.77579
0
LINE
8
BLACK
6
CONTINUOUS
10
0.907037
20
1.77579
11
0.903288
21
1.77204
0
LINE
8
BLACK
6
CONTINUOUS
10
0.903288
20
1.77204
11
0.902565
21
1.77153
0
LINE
8
BLACK
6
CONTINUOUS
10
0.902565
20
1.77153
11
0.90252
21
1.77148
0
LINE
8
BLACK
6
CONTINUOUS
10
0.90252
20
1.77148
11
0.898771
21
1.76961
0
LINE
8
BLACK
6
CONTINUOUS
10
0.898771
20
1.76961
11
0.897788
21
1.76932
0
LINE
8
BLACK
6
CONTINUOUS
10
0.897788
20
1.76932
11
0.897616
21
1.76936
0
LINE
8
BLACK
6
CONTINUOUS
10
0.897616
20
1.76936
11
0.89745
21
1.7693
0
LINE
8
BLACK
6
CONTINUOUS
10
0.89745
20
1.7693
11
0.889951
21
1.7693
0
LINE
8
BLACK
6
CONTINUOUS
10
0.889951
20
1.7693
11
0.888941
21
1.76948
0
LINE
8
BLACK
6
CONTINUOUS
10
0.888941
20
1.76948
11
0.888806
21
1.76959
0
LINE
8
BLACK
6
CONTINUOUS
10
0.888806
20
1.76959
11
0.888631
21
1.76961
0
LINE
8
BLACK
6
CONTINUOUS
10
0.888631
20
1.76961
11
0.884881
21
1.77148
0
LINE
8
BLACK
6
CONTINUOUS
10
0.884881
20
1.77148
11
0.884172
21
1.77201
0
LINE
8
BLACK
6
CONTINUOUS
10
0.884172
20
1.77201
11
0.884114
21
1.77204
0
LINE
8
BLACK
6
CONTINUOUS
10
0.884114
20
1.77204
11
0.880364
21
1.77579
0
LINE
8
BLACK
6
CONTINUOUS
10
0.880364
20
1.77579
11
0.879776
21
1.77663
0
LINE
8
BLACK
6
CONTINUOUS
10
0.879776
20
1.77663
11
0.879751
21
1.77692
0
LINE
8
BLACK
6
CONTINUOUS
10
0.879751
20
1.77692
11
0.879588
21
1.77716
0
LINE
8
BLACK
6
CONTINUOUS
10
0.879588
20
1.77716
11
0.877713
21
1.78466
0
LINE
8
BLACK
6
CONTINUOUS
10
0.877713
20
1.78466
11
0.877671
21
1.78525
0
LINE
8
BLACK
6
CONTINUOUS
10
0.877671
20
1.78525
11
0.877625
21
1.78537
0
LINE
8
BLACK
6
CONTINUOUS
10
0.877625
20
1.78537
11
0.877625
21
1.7985
0
LINE
8
BLACK
6
CONTINUOUS
10
0.877625
20
1.7985
11
0.877727
21
1.79908
0
LINE
8
BLACK
6
CONTINUOUS
10
0.877727
20
1.79908
11
0.877713
21
1.79921
0
LINE
8
BLACK
6
CONTINUOUS
10
0.877713
20
1.79921
11
0.879588
21
1.80671
0
LINE
8
BLACK
6
CONTINUOUS
10
0.879588
20
1.80671
11
0.880005
21
1.80765
0
LINE
8
BLACK
6
CONTINUOUS
10
0.880005
20
1.80765
11
0.880241
21
1.80782
0
LINE
8
BLACK
6
CONTINUOUS
10
0.880241
20
1.80782
11
0.880364
21
1.80808
0
LINE
8
BLACK
6
CONTINUOUS
10
0.880364
20
1.80808
11
0.884114
21
1.81183
0
LINE
8
BLACK
6
CONTINUOUS
10
0.884114
20
1.81183
11
0.884837
21
1.81234
0
LINE
8
BLACK
6
CONTINUOUS
10
0.884837
20
1.81234
11
0.884881
21
1.81239
0
LINE
8
BLACK
6
CONTINUOUS
10
0.884881
20
1.81239
11
0.888631
21
1.81426
0
LINE
8
BLACK
6
CONTINUOUS
10
0.888631
20
1.81426
11
0.889614
21
1.81455
0
LINE
8
BLACK
6
CONTINUOUS
10
0.889614
20
1.81455
11
0.889785
21
1.81451
0
LINE
8
BLACK
6
CONTINUOUS
10
0.889785
20
1.81451
11
0.889951
21
1.81457
0
LINE
8
BLACK
6
CONTINUOUS
10
0.889951
20
1.81457
11
0.89745
21
1.81457
0
LINE
8
BLACK
6
CONTINUOUS
10
0.89745
20
1.81457
11
0.89846
21
1.8144
0
LINE
8
BLACK
6
CONTINUOUS
10
0.887951
20
1.80732
11
0.885118
21
1.80449
0
LINE
8
BLACK
6
CONTINUOUS
10
0.885118
20
1.80449
11
0.88353
21
1.79813
0
LINE
8
BLACK
6
CONTINUOUS
10
0.88353
20
1.79813
11
0.88353
21
1.78574
0
LINE
8
BLACK
6
CONTINUOUS
10
0.88353
20
1.78574
11
0.885118
21
1.77939
0
LINE
8
BLACK
6
CONTINUOUS
10
0.885118
20
1.77939
11
0.887951
21
1.77655
0
LINE
8
BLACK
6
CONTINUOUS
10
0.887951
20
1.77655
11
0.890648
21
1.7752
0
LINE
8
BLACK
6
CONTINUOUS
10
0.890648
20
1.7752
11
0.896753
21
1.7752
0
LINE
8
BLACK
6
CONTINUOUS
10
0.896753
20
1.7752
11
0.899451
21
1.77655
0
LINE
8
BLACK
6
CONTINUOUS
10
0.899451
20
1.77655
11
0.902283
21
1.77939
0
LINE
8
BLACK
6
CONTINUOUS
10
0.902283
20
1.77939
11
0.903871
21
1.78574
0
LINE
8
BLACK
6
CONTINUOUS
10
0.903871
20
1.78574
11
0.903871
21
1.79813
0
LINE
8
BLACK
6
CONTINUOUS
10
0.903871
20
1.79813
11
0.902283
21
1.80449
0
LINE
8
BLACK
6
CONTINUOUS
10
0.902283
20
1.80449
11
0.899451
21
1.80732
0
LINE
8
BLACK
6
CONTINUOUS
10
0.899451
20
1.80732
11
0.896753
21
1.80867
0
LINE
8
BLACK
6
CONTINUOUS
10
0.896753
20
1.80867
11
0.890648
21
1.80867
0
LINE
8
BLACK
6
CONTINUOUS
10
0.890648
20
1.80867
11
0.887951
21
1.80732
0
LINE
8
BLACK
6
CONTINUOUS
10
0.93394
20
1.81442
11
0.934005
21
1.81442
0
LINE
8
BLACK
6
CONTINUOUS
10
0.934005
20
1.81442
11
0.939629
21
1.81255
0
LINE
8
BLACK
6
CONTINUOUS
10
0.939629
20
1.81255
11
0.940531
21
1.81206
0
LINE
8
BLACK
6
CONTINUOUS
10
0.940531
20
1.81206
11
0.940623
21
1.81191
0
LINE
8
BLACK
6
CONTINUOUS
10
0.940623
20
1.81191
11
0.940783
21
1.81183
0
LINE
8
BLACK
6
CONTINUOUS
10
0.940783
20
1.81183
11
0.944533
21
1.80808
0
LINE
8
BLACK
6
CONTINUOUS
10
0.944533
20
1.80808
11
0.945039
21
1.80736
0
LINE
8
BLACK
6
CONTINUOUS
10
0.945039
20
1.80736
11
0.945086
21
1.80732
0
LINE
8
BLACK
6
CONTINUOUS
10
0.945086
20
1.80732
11
0.94696
21
1.80357
0
LINE
8
BLACK
6
CONTINUOUS
10
0.94696
20
1.80357
11
0.947106
21
1.80308
0
LINE
8
BLACK
6
CONTINUOUS
10
0.947106
20
1.80308
11
0.947184
21
1.80296
0
LINE
8
BLACK
6
CONTINUOUS
10
0.947184
20
1.80296
11
0.949059
21
1.79546
0
LINE
8
BLACK
6
CONTINUOUS
10
0.949059
20
1.79546
11
0.9491
21
1.79488
0
LINE
8
BLACK
6
CONTINUOUS
10
0.9491
20
1.79488
11
0.949147
21
1.79475
0
LINE
8
BLACK
6
CONTINUOUS
10
0.949147
20
1.79475
11
0.949147
21
1.78912
0
LINE
8
BLACK
6
CONTINUOUS
10
0.949147
20
1.78912
11
0.949045
21
1.78854
0
LINE
8
BLACK
6
CONTINUOUS
10
0.949045
20
1.78854
11
0.949059
21
1.78841
0
LINE
8
BLACK
6
CONTINUOUS
10
0.949059
20
1.78841
11
0.947184
21
1.78091
0
LINE
8
BLACK
6
CONTINUOUS
10
0.947184
20
1.78091
11
0.946976
21
1.78044
0
LINE
8
BLACK
6
CONTINUOUS
10
0.946976
20
1.78044
11
0.94696
21
1.7803
0
LINE
8
BLACK
6
CONTINUOUS
10
0.94696
20
1.7803
11
0.945086
21
1.77656
0
LINE
8
BLACK
6
CONTINUOUS
10
0.945086
20
1.77656
11
0.94456
21
1.77585
0
LINE
8
BLACK
6
CONTINUOUS
10
0.94456
20
1.77585
11
0.944533
21
1.77579
0
LINE
8
BLACK
6
CONTINUOUS
10
0.944533
20
1.77579
11
0.940783
21
1.77204
0
LINE
8
BLACK
6
CONTINUOUS
10
0.940783
20
1.77204
11
0.939943
21
1.77145
0
LINE
8
BLACK
6
CONTINUOUS
10
0.939943
20
1.77145
11
0.939767
21
1.77143
0
LINE
8
BLACK
6
CONTINUOUS
10
0.939767
20
1.77143
11
0.939629
21
1.77132
0
LINE
8
BLACK
6
CONTINUOUS
10
0.939629
20
1.77132
11
0.934005
21
1.76945
0
LINE
8
BLACK
6
CONTINUOUS
10
0.934005
20
1.76945
11
0.933131
21
1.76932
0
LINE
8
BLACK
6
CONTINUOUS
10
0.933131
20
1.76932
11
0.933071
21
1.7693
0
LINE
8
BLACK
6
CONTINUOUS
10
0.933071
20
1.7693
11
0.929321
21
1.7693
0
LINE
8
BLACK
6
CONTINUOUS
10
0.929321
20
1.7693
11
0.928452
21
1.76945
0
LINE
8
BLACK
6
CONTINUOUS
10
0.928452
20
1.76945
11
0.928388
21
1.76945
0
LINE
8
BLACK
6
CONTINUOUS
10
0.928388
20
1.76945
11
0.922763
21
1.77132
0
LINE
8
BLACK
6
CONTINUOUS
10
0.922763
20
1.77132
11
0.921861
21
1.77181
0
LINE
8
BLACK
6
CONTINUOUS
10
0.921861
20
1.77181
11
0.921769
21
1.77196
0
LINE
8
BLACK
6
CONTINUOUS
10
0.921769
20
1.77196
11
0.921609
21
1.77204
0
LINE
8
BLACK
6
CONTINUOUS
10
0.921609
20
1.77204
11
0.919734
21
1.77391
0
LINE
8
BLACK
6
CONTINUOUS
10
0.919734
20
1.77391
11
0.919629
21
1.77406
0
LINE
8
BLACK
6
CONTINUOUS
10
0.919629
20
1.77406
11
0.91956
21
1.7741
0
LINE
8
BLACK
6
CONTINUOUS
10
0.91956
20
1.7741
11
0.919516
21
1.77422
0
LINE
8
BLACK
6
CONTINUOUS
10
0.919516
20
1.77422
11
0.919146
21
1.77475
0
LINE
8
BLACK
6
CONTINUOUS
10
0.919146
20
1.77475
11
0.91909
21
1.7754
0
LINE
8
BLACK
6
CONTINUOUS
10
0.91909
20
1.7754
11
0.918869
21
1.776
0
LINE
8
BLACK
6
CONTINUOUS
10
0.918869
20
1.776
11
0.918869
21
1.78912
0
LINE
8
BLACK
6
CONTINUOUS
10
0.918869
20
1.78912
11
0.918937
21
1.78951
0
LINE
8
BLACK
6
CONTINUOUS
10
0.918937
20
1.78951
11
0.918914
21
1.78964
0
LINE
8
BLACK
6
CONTINUOUS
10
0.918914
20
1.78964
11
0.91898
21
1.78975
0
LINE
8
BLACK
6
CONTINUOUS
10
0.91898
20
1.78975
11
0.919048
21
1.79013
0
LINE
8
BLACK
6
CONTINUOUS
10
0.919048
20
1.79013
11
0.919541
21
1.79072
0
LINE
8
BLACK
6
CONTINUOUS
10
0.919541
20
1.79072
11
0.919924
21
1.79139
0
LINE
8
BLACK
6
CONTINUOUS
10
0.919924
20
1.79139
11
0.920175
21
1.79148
0
LINE
8
BLACK
6
CONTINUOUS
10
0.920175
20
1.79148
11
0.920346
21
1.79168
0
LINE
8
BLACK
6
CONTINUOUS
10
0.920346
20
1.79168
11
0.921101
21
1.79181
0
LINE
8
BLACK
6
CONTINUOUS
10
0.921101
20
1.79181
11
0.921822
21
1.79208
0
LINE
8
BLACK
6
CONTINUOUS
10
0.921822
20
1.79208
11
0.929321
21
1.79208
0
LINE
8
BLACK
6
CONTINUOUS
10
0.929321
20
1.79208
11
0.930331
21
1.7919
0
LINE
8
BLACK
6
CONTINUOUS
10
0.930331
20
1.7919
11
0.931878
21
1.7906
0
LINE
8
BLACK
6
CONTINUOUS
10
0.931878
20
1.7906
11
0.932229
21
1.78861
0
LINE
8
BLACK
6
CONTINUOUS
10
0.932229
20
1.78861
11
0.931219
21
1.78686
0
LINE
8
BLACK
6
CONTINUOUS
10
0.931219
20
1.78686
11
0.929321
21
1.78617
0
LINE
8
BLACK
6
CONTINUOUS
10
0.929321
20
1.78617
11
0.924775
21
1.78617
0
LINE
8
BLACK
6
CONTINUOUS
10
0.924775
20
1.78617
11
0.924775
21
1.77722
0
LINE
8
BLACK
6
CONTINUOUS
10
0.924775
20
1.77722
11
0.925292
21
1.77671
0
LINE
8
BLACK
6
CONTINUOUS
10
0.925292
20
1.77671
11
0.9298
21
1.7752
0
LINE
8
BLACK
6
CONTINUOUS
10
0.9298
20
1.7752
11
0.932592
21
1.7752
0
LINE
8
BLACK
6
CONTINUOUS
10
0.932592
20
1.7752
11
0.9371
21
1.77671
0
LINE
8
BLACK
6
CONTINUOUS
10
0.9371
20
1.77671
11
0.940018
21
1.77962
0
LINE
8
BLACK
6
CONTINUOUS
10
0.940018
20
1.77962
11
0.941533
21
1.78266
0
LINE
8
BLACK
6
CONTINUOUS
10
0.941533
20
1.78266
11
0.943241
21
1.78949
0
LINE
8
BLACK
6
CONTINUOUS
10
0.943241
20
1.78949
11
0.943241
21
1.79438
0
LINE
8
BLACK
6
CONTINUOUS
10
0.943241
20
1.79438
11
0.941533
21
1.80122
0
LINE
8
BLACK
6
CONTINUOUS
10
0.941533
20
1.80122
11
0.940018
21
1.80425
0
LINE
8
BLACK
6
CONTINUOUS
10
0.940018
20
1.80425
11
0.9371
21
1.80717
0
LINE
8
BLACK
6
CONTINUOUS
10
0.9371
20
1.80717
11
0.932592
21
1.80867
0
LINE
8
BLACK
6
CONTINUOUS
10
0.932592
20
1.80867
11
0.928144
21
1.80867
0
LINE
8
BLACK
6
CONTINUOUS
10
0.928144
20
1.80867
11
0.925018
21
1.80711
0
LINE
8
BLACK
6
CONTINUOUS
10
0.925018
20
1.80711
11
0.924035
21
1.80681
0
LINE
8
BLACK
6
CONTINUOUS
10
0.924035
20
1.80681
11
0.92207
21
1.80728
0
LINE
8
BLACK
6
CONTINUOUS
10
0.92207
20
1.80728
11
0.920867
21
1.8089
0
LINE
8
BLACK
6
CONTINUOUS
10
0.920867
20
1.8089
11
0.920988
21
1.81092
0
LINE
8
BLACK
6
CONTINUOUS
10
0.920988
20
1.81092
11
0.922376
21
1.81239
0
LINE
8
BLACK
6
CONTINUOUS
10
0.922376
20
1.81239
11
0.926126
21
1.81426
0
LINE
8
BLACK
6
CONTINUOUS
10
0.926126
20
1.81426
11
0.927109
21
1.81455
0
LINE
8
BLACK
6
CONTINUOUS
10
0.927109
20
1.81455
11
0.927281
21
1.81451
0
LINE
8
BLACK
6
CONTINUOUS
10
0.927281
20
1.81451
11
0.927447
21
1.81457
0
LINE
8
BLACK
6
CONTINUOUS
10
0.927447
20
1.81457
11
0.933071
21
1.81457
0
LINE
8
BLACK
6
CONTINUOUS
10
0.933071
20
1.81457
11
0.93394
21
1.81442
0
LINE
8
BLACK
6
CONTINUOUS
10
0.994824
20
1.81399
11
0.995936
21
1.81231
0
LINE
8
BLACK
6
CONTINUOUS
10
0.995936
20
1.81231
11
1.0026
21
1.78432
0
LINE
8
BLACK
6
CONTINUOUS
10
1.0026
20
1.78432
11
1.00708
21
1.80113
0
LINE
8
BLACK
6
CONTINUOUS
10
1.00708
20
1.80113
11
1.00752
21
1.80206
0
LINE
8
BLACK
6
CONTINUOUS
10
1.00752
20
1.80206
11
1.00774
21
1.80222
0
LINE
8
BLACK
6
CONTINUOUS
10
1.00774
20
1.80222
11
1.00785
21
1.80246
0
LINE
8
BLACK
6
CONTINUOUS
10
1.00785
20
1.80246
11
1.00854
21
1.80279
0
LINE
8
BLACK
6
CONTINUOUS
10
1.00854
20
1.80279
11
1.00917
21
1.80322
0
LINE
8
BLACK
6
CONTINUOUS
10
1.00917
20
1.80322
11
1.00944
21
1.8032
0
LINE
8
BLACK
6
CONTINUOUS
10
1.00944
20
1.8032
11
1.00968
21
1.80331
0
LINE
8
BLACK
6
CONTINUOUS
10
1.00968
20
1.80331
11
1.01042
21
1.80312
0
LINE
8
BLACK
6
CONTINUOUS
10
1.01042
20
1.80312
11
1.01118
21
1.80305
0
LINE
8
BLACK
6
CONTINUOUS
10
1.01118
20
1.80305
11
1.01137
21
1.80286
0
LINE
8
BLACK
6
CONTINUOUS
10
1.01137
20
1.80286
11
1.01163
21
1.80279
0
LINE
8
BLACK
6
CONTINUOUS
10
1.01163
20
1.80279
11
1.01207
21
1.80216
0
LINE
8
BLACK
6
CONTINUOUS
10
1.01207
20
1.80216
11
1.01261
21
1.80162
0
LINE
8
BLACK
6
CONTINUOUS
10
1.01261
20
1.80162
11
1.01263
21
1.80135
0
LINE
8
BLACK
6
CONTINUOUS
10
1.01263
20
1.80135
11
1.01279
21
1.80113
0
LINE
8
BLACK
6
CONTINUOUS
10
1.01279
20
1.80113
11
1.01727
21
1.78432
0
LINE
8
BLACK
6
CONTINUOUS
10
1.01727
20
1.78432
11
1.02394
21
1.81231
0
LINE
8
BLACK
6
CONTINUOUS
10
1.02394
20
1.81231
11
1.02434
21
1.81325
0
LINE
8
BLACK
6
CONTINUOUS
10
1.02434
20
1.81325
11
1.02597
21
1.81445
0
LINE
8
BLACK
6
CONTINUOUS
10
1.02597
20
1.81445
11
1.02798
21
1.81433
0
LINE
8
BLACK
6
CONTINUOUS
10
1.02798
20
1.81433
11
1.02945
21
1.81294
0
LINE
8
BLACK
6
CONTINUOUS
10
1.02945
20
1.81294
11
1.02968
21
1.81094
0
LINE
8
BLACK
6
CONTINUOUS
10
1.02968
20
1.81094
11
1.02031
21
1.77157
0
LINE
8
BLACK
6
CONTINUOUS
10
1.02031
20
1.77157
11
1.0199
21
1.77063
0
LINE
8
BLACK
6
CONTINUOUS
10
1.0199
20
1.77063
11
1.01965
21
1.77044
0
LINE
8
BLACK
6
CONTINUOUS
10
1.01965
20
1.77044
11
1.01952
21
1.77016
0
LINE
8
BLACK
6
CONTINUOUS
10
1.01952
20
1.77016
11
1.01886
21
1.76985
0
LINE
8
BLACK
6
CONTINUOUS
10
1.01886
20
1.76985
11
1.01828
21
1.76942
0
LINE
8
BLACK
6
CONTINUOUS
10
1.01828
20
1.76942
11
1.01797
21
1.76944
0
LINE
8
BLACK
6
CONTINUOUS
10
1.01797
20
1.76944
11
1.01769
21
1.76931
0
LINE
8
BLACK
6
CONTINUOUS
10
1.01769
20
1.76931
11
1.01699
21
1.7695
0
LINE
8
BLACK
6
CONTINUOUS
10
1.01699
20
1.7695
11
1.01626
21
1.76954
0
LINE
8
BLACK
6
CONTINUOUS
10
1.01626
20
1.76954
11
1.01604
21
1.76975
0
LINE
8
BLACK
6
CONTINUOUS
10
1.01604
20
1.76975
11
1.01574
21
1.76983
0
LINE
8
BLACK
6
CONTINUOUS
10
1.01574
20
1.76983
11
1.01532
21
1.77043
0
LINE
8
BLACK
6
CONTINUOUS
10
1.01532
20
1.77043
11
1.0148
21
1.77093
0
LINE
8
BLACK
6
CONTINUOUS
10
1.0148
20
1.77093
11
1.01476
21
1.77124
0
LINE
8
BLACK
6
CONTINUOUS
10
1.01476
20
1.77124
11
1.01458
21
1.77149
0
LINE
8
BLACK
6
CONTINUOUS
10
1.01458
20
1.77149
11
1.00994
21
1.78891
0
LINE
8
BLACK
6
CONTINUOUS
10
1.00994
20
1.78891
11
1.00529
21
1.77149
0
LINE
8
BLACK
6
CONTINUOUS
10
1.00529
20
1.77149
11
1.00486
21
1.77056
0
LINE
8
BLACK
6
CONTINUOUS
10
1.00486
20
1.77056
11
1.0046
21
1.77038
0
LINE
8
BLACK
6
CONTINUOUS
10
1.0046
20
1.77038
11
1.00447
21
1.77011
0
LINE
8
BLACK
6
CONTINUOUS
10
1.00447
20
1.77011
11
1.0038
21
1.76982
0
LINE
8
BLACK
6
CONTINUOUS
10
1.0038
20
1.76982
11
1.0032
21
1.7694
0
LINE
8
BLACK
6
CONTINUOUS
10
1.0032
20
1.7694
11
1.0029
21
1.76943
0
LINE
8
BLACK
6
CONTINUOUS
10
1.0029
20
1.76943
11
1.00261
21
1.7693
0
LINE
8
BLACK
6
CONTINUOUS
10
1.00261
20
1.7693
11
1.00192
21
1.76951
0
LINE
8
BLACK
6
CONTINUOUS
10
1.00192
20
1.76951
11
1.00119
21
1.76957
0
LINE
8
BLACK
6
CONTINUOUS
10
1.00119
20
1.76957
11
1.00097
21
1.76979
0
LINE
8
BLACK
6
CONTINUOUS
10
1.00097
20
1.76979
11
1.00068
21
1.76988
0
LINE
8
BLACK
6
CONTINUOUS
10
1.00068
20
1.76988
11
1.00028
21
1.77049
0
LINE
8
BLACK
6
CONTINUOUS
10
1.00028
20
1.77049
11
0.999763
21
1.771
0
LINE
8
BLACK
6
CONTINUOUS
10
0.999763
20
1.771
11
0.999735
21
1.77131
0
LINE
8
BLACK
6
CONTINUOUS
10
0.999735
20
1.77131
11
0.999565
21
1.77157
0
LINE
8
BLACK
6
CONTINUOUS
10
0.999565
20
1.77157
11
0.990191
21
1.81094
0
LINE
8
BLACK
6
CONTINUOUS
10
0.990191
20
1.81094
11
0.99013
21
1.81196
0
LINE
8
BLACK
6
CONTINUOUS
10
0.99013
20
1.81196
11
0.991035
21
1.81377
0
LINE
8
BLACK
6
CONTINUOUS
10
0.991035
20
1.81377
11
0.992889
21
1.81457
0
LINE
8
BLACK
6
CONTINUOUS
10
0.992889
20
1.81457
11
0.994824
21
1.81399
0
LINE
8
BLACK
6
CONTINUOUS
10
0.971048
20
1.81435
11
0.971972
21
1.81422
0
LINE
8
BLACK
6
CONTINUOUS
10
0.971972
20
1.81422
11
0.972029
21
1.81415
0
LINE
8
BLACK
6
CONTINUOUS
10
0.972029
20
1.81415
11
0.972112
21
1.81414
0
LINE
8
BLACK
6
CONTINUOUS
10
0.972112
20
1.81414
11
0.972692
21
1.81341
0
LINE
8
BLACK
6
CONTINUOUS
10
0.972692
20
1.81341
11
0.973312
21
1.81271
0
LINE
8
BLACK
6
CONTINUOUS
10
0.973312
20
1.81271
11
0.973314
21
1.81262
0
LINE
8
BLACK
6
CONTINUOUS
10
0.973314
20
1.81262
11
0.973367
21
1.81256
0
LINE
8
BLACK
6
CONTINUOUS
10
0.973367
20
1.81256
11
0.986491
21
1.77318
0
LINE
8
BLACK
6
CONTINUOUS
10
0.986491
20
1.77318
11
0.986641
21
1.77217
0
LINE
8
BLACK
6
CONTINUOUS
10
0.986641
20
1.77217
11
0.985899
21
1.77029
0
LINE
8
BLACK
6
CONTINUOUS
10
0.985899
20
1.77029
11
0.984123
21
1.76933
0
LINE
8
BLACK
6
CONTINUOUS
10
0.984123
20
1.76933
11
0.982144
21
1.76974
0
LINE
8
BLACK
6
CONTINUOUS
10
0.982144
20
1.76974
11
0.980888
21
1.77132
0
LINE
8
BLACK
6
CONTINUOUS
10
0.980888
20
1.77132
11
0.977812
21
1.78055
0
LINE
8
BLACK
6
CONTINUOUS
10
0.977812
20
1.78055
11
0.963321
21
1.78055
0
LINE
8
BLACK
6
CONTINUOUS
10
0.963321
20
1.78055
11
0.960244
21
1.77132
0
LINE
8
BLACK
6
CONTINUOUS
10
0.960244
20
1.77132
11
0.959756
21
1.77042
0
LINE
8
BLACK
6
CONTINUOUS
10
0.959756
20
1.77042
11
0.958035
21
1.76936
0
LINE
8
BLACK
6
CONTINUOUS
10
0.958035
20
1.76936
11
0.956037
21
1.76965
0
LINE
8
BLACK
6
CONTINUOUS
10
0.956037
20
1.76965
11
0.954697
21
1.77117
0
LINE
8
BLACK
6
CONTINUOUS
10
0.954697
20
1.77117
11
0.954642
21
1.77318
0
LINE
8
BLACK
6
CONTINUOUS
10
0.954642
20
1.77318
11
0.967765
21
1.81256
0
LINE
8
BLACK
6
CONTINUOUS
10
0.967765
20
1.81256
11
0.968253
21
1.81346
0
LINE
8
BLACK
6
CONTINUOUS
10
0.968253
20
1.81346
11
0.968326
21
1.8135
0
LINE
8
BLACK
6
CONTINUOUS
10
0.968326
20
1.8135
11
0.968357
21
1.81358
0
LINE
8
BLACK
6
CONTINUOUS
10
0.968357
20
1.81358
11
0.969178
21
1.81403
0
LINE
8
BLACK
6
CONTINUOUS
10
0.969178
20
1.81403
11
0.969974
21
1.81451
0
LINE
8
BLACK
6
CONTINUOUS
10
0.969974
20
1.81451
11
0.970058
21
1.8145
0
LINE
8
BLACK
6
CONTINUOUS
10
0.970058
20
1.8145
11
0.970133
21
1.81454
0
LINE
8
BLACK
6
CONTINUOUS
10
0.970133
20
1.81454
11
0.971048
21
1.81435
0
LINE
8
BLACK
6
CONTINUOUS
10
0.965289
20
1.78645
11
0.975843
21
1.78645
0
LINE
8
BLACK
6
CONTINUOUS
10
0.975843
20
1.78645
11
0.970566
21
1.80228
0
LINE
8
BLACK
6
CONTINUOUS
10
0.970566
20
1.80228
11
0.965289
21
1.78645
  0
ENDSEC
  0
EOF
