  0
SECTION
  2
HEADER
  9
$ANGBASE
  50
0.0
  9
$ANGDIR
  70
1
  9
$MEASUREMENT
  70
0
  0
ENDSEC
  0
SECTION
  2
TABLES
  0
TABLE
  2
LTYPE
  70
4
  0
LTYPE
  5
40F
  2
CONTINUOUS
  70
0
  3
Solid line
  72
65
  73
0
  40
0.0
  0
LTYPE
  5
410
  2
DASHDOT
 70
0
  3
Dash Dot ____ _ ____ _
 72
65
 73
4
 40
2.0
 49
1.25
 49
-0.25
 49
0.25
 49
-0.25
  0
LTYPE
  5
411
  2
DASHED
 70
0
  3
Dashed __ __ __ __ __
 72
65
 73
2
 40
0.75
 49
0.5
 49
-0.25
  0
LTYPE
  5
43B
  2
DOTTED
 70
0
  3
Dotted .  .  .  .
 72
65
 73
2
 40
0.2
 49
0.0
 49
-0.2
  0
ENDTAB
  0
TABLE
  2
STYLE
  70
4
  0
STYLE
  2
KICAD
  70
0
  40
0
  41
1
  42
1
  50
0
  71
0
  3
isocp.shx
  0
STYLE
  2
KICADB
  70
0
  40
0
  41
1
  42
1
  50
0
  71
0
  3
isocp.shx
  0
STYLE
  2
KICADI
  70
0
  40
0
  41
1
  42
1
  50
15
  71
0
  3
isocp.shx
  0
STYLE
  2
KICADBI
  70
0
  40
0
  41
1
  42
1
  50
15
  71
0
  3
isocp.shx
  0
ENDTAB
  0
TABLE
  2
LAYER
  70
1
  0
LAYER
  2
BLACK
  70
0
  62
7
  6
CONTINUOUS
  0
ENDTAB
  0
ENDSEC
  0
SECTION
  2
ENTITIES
0
LINE
8
BLACK
6
CONTINUOUS
10
1.00758
20
0.567913
11
1.00827
21
0.567625
0
LINE
8
BLACK
6
CONTINUOUS
10
1.00827
20
0.567625
11
1.00856
21
0.566929
0
LINE
8
BLACK
6
CONTINUOUS
10
1.00856
20
0.566929
11
1.00856
21
0.492126
0
LINE
8
BLACK
6
CONTINUOUS
10
1.00856
20
0.492126
11
1.00827
21
0.49143
0
LINE
8
BLACK
6
CONTINUOUS
10
1.00827
20
0.49143
11
1.00758
21
0.491142
0
LINE
8
BLACK
6
CONTINUOUS
10
1.00758
20
0.491142
11
0.875295
21
0.491142
0
LINE
8
BLACK
6
CONTINUOUS
10
0.875295
20
0.491142
11
0.874599
21
0.49143
0
LINE
8
BLACK
6
CONTINUOUS
10
0.874599
20
0.49143
11
0.874311
21
0.492126
0
LINE
8
BLACK
6
CONTINUOUS
10
0.874311
20
0.492126
11
0.874311
21
0.566929
0
LINE
8
BLACK
6
CONTINUOUS
10
0.874311
20
0.566929
11
0.874599
21
0.567625
0
LINE
8
BLACK
6
CONTINUOUS
10
0.874599
20
0.567625
11
0.875295
21
0.567913
0
LINE
8
BLACK
6
CONTINUOUS
10
0.875295
20
0.567913
11
0.784744
21
0.567913
0
LINE
8
BLACK
6
CONTINUOUS
10
0.784744
20
0.567913
11
0.784048
21
0.568202
0
LINE
8
BLACK
6
CONTINUOUS
10
0.784048
20
0.568202
11
0.78376
21
0.568898
0
LINE
8
BLACK
6
CONTINUOUS
10
0.78376
20
0.568898
11
0.78376
21
0.643701
0
LINE
8
BLACK
6
CONTINUOUS
10
0.78376
20
0.643701
11
0.784048
21
0.644397
0
LINE
8
BLACK
6
CONTINUOUS
10
0.784048
20
0.644397
11
0.784744
21
0.644685
0
LINE
8
BLACK
6
CONTINUOUS
10
0.784744
20
0.644685
11
0.917028
21
0.644685
0
LINE
8
BLACK
6
CONTINUOUS
10
0.917028
20
0.644685
11
0.917724
21
0.644397
0
LINE
8
BLACK
6
CONTINUOUS
10
0.917724
20
0.644397
11
0.918012
21
0.643701
0
LINE
8
BLACK
6
CONTINUOUS
10
0.918012
20
0.643701
11
0.918012
21
0.568898
0
LINE
8
BLACK
6
CONTINUOUS
10
0.918012
20
0.568898
11
0.917724
21
0.568202
0
LINE
8
BLACK
6
CONTINUOUS
10
0.917724
20
0.568202
11
0.917028
21
0.567913
0
LINE
8
BLACK
6
CONTINUOUS
10
0.917028
20
0.567913
11
1.00758
21
0.567913
0
LINE
8
BLACK
6
CONTINUOUS
10
0.87628
20
0.565945
11
0.87628
21
0.49311
0
LINE
8
BLACK
6
CONTINUOUS
10
0.87628
20
0.49311
11
1.00659
21
0.49311
0
LINE
8
BLACK
6
CONTINUOUS
10
1.00659
20
0.49311
11
1.00659
21
0.565945
0
LINE
8
BLACK
6
CONTINUOUS
10
1.00659
20
0.565945
11
0.87628
21
0.565945
0
LINE
8
BLACK
6
CONTINUOUS
10
0.785728
20
0.642717
11
0.785728
21
0.569882
0
LINE
8
BLACK
6
CONTINUOUS
10
0.785728
20
0.569882
11
0.916043
21
0.569882
0
LINE
8
BLACK
6
CONTINUOUS
10
0.916043
20
0.569882
11
0.916043
21
0.642717
0
LINE
8
BLACK
6
CONTINUOUS
10
0.916043
20
0.642717
11
0.785728
21
0.642717
0
LINE
8
BLACK
6
CONTINUOUS
10
1.1503
20
0.567913
11
1.15099
21
0.567625
0
LINE
8
BLACK
6
CONTINUOUS
10
1.15099
20
0.567625
11
1.15128
21
0.566929
0
LINE
8
BLACK
6
CONTINUOUS
10
1.15128
20
0.566929
11
1.15128
21
0.492126
0
LINE
8
BLACK
6
CONTINUOUS
10
1.15128
20
0.492126
11
1.15099
21
0.49143
0
LINE
8
BLACK
6
CONTINUOUS
10
1.15099
20
0.49143
11
1.1503
21
0.491142
0
LINE
8
BLACK
6
CONTINUOUS
10
1.1503
20
0.491142
11
1.01801
21
0.491142
0
LINE
8
BLACK
6
CONTINUOUS
10
1.01801
20
0.491142
11
1.01732
21
0.49143
0
LINE
8
BLACK
6
CONTINUOUS
10
1.01732
20
0.49143
11
1.01703
21
0.492126
0
LINE
8
BLACK
6
CONTINUOUS
10
1.01703
20
0.492126
11
1.01703
21
0.566929
0
LINE
8
BLACK
6
CONTINUOUS
10
1.01703
20
0.566929
11
1.01732
21
0.567625
0
LINE
8
BLACK
6
CONTINUOUS
10
1.01732
20
0.567625
11
1.01801
21
0.567913
0
LINE
8
BLACK
6
CONTINUOUS
10
1.01801
20
0.567913
11
1.1503
21
0.567913
0
LINE
8
BLACK
6
CONTINUOUS
10
1.019
20
0.565945
11
1.019
21
0.49311
0
LINE
8
BLACK
6
CONTINUOUS
10
1.019
20
0.49311
11
1.14931
21
0.49311
0
LINE
8
BLACK
6
CONTINUOUS
10
1.14931
20
0.49311
11
1.14931
21
0.565945
0
LINE
8
BLACK
6
CONTINUOUS
10
1.14931
20
0.565945
11
1.019
21
0.565945
0
LINE
8
BLACK
6
CONTINUOUS
10
1.54035
20
0.629626
11
1.54105
21
0.629338
0
LINE
8
BLACK
6
CONTINUOUS
10
1.54105
20
0.629338
11
1.54134
21
0.628642
0
LINE
8
BLACK
6
CONTINUOUS
10
1.54134
20
0.628642
11
1.54134
21
0.496358
0
LINE
8
BLACK
6
CONTINUOUS
10
1.54134
20
0.496358
11
1.54105
21
0.495662
0
LINE
8
BLACK
6
CONTINUOUS
10
1.54105
20
0.495662
11
1.54035
21
0.495374
0
LINE
8
BLACK
6
CONTINUOUS
10
1.54035
20
0.495374
11
1.46555
21
0.495374
0
LINE
8
BLACK
6
CONTINUOUS
10
1.46555
20
0.495374
11
1.46486
21
0.495662
0
LINE
8
BLACK
6
CONTINUOUS
10
1.46486
20
0.495662
11
1.46457
21
0.496358
0
LINE
8
BLACK
6
CONTINUOUS
10
1.46457
20
0.496358
11
1.46457
21
0.628642
0
LINE
8
BLACK
6
CONTINUOUS
10
1.46457
20
0.628642
11
1.46486
21
0.629338
0
LINE
8
BLACK
6
CONTINUOUS
10
1.46486
20
0.629338
11
1.46555
21
0.629626
0
LINE
8
BLACK
6
CONTINUOUS
10
1.46555
20
0.629626
11
1.54035
21
0.629626
0
LINE
8
BLACK
6
CONTINUOUS
10
1.46654
20
0.627657
11
1.46654
21
0.497343
0
LINE
8
BLACK
6
CONTINUOUS
10
1.46654
20
0.497343
11
1.53937
21
0.497343
0
LINE
8
BLACK
6
CONTINUOUS
10
1.53937
20
0.497343
11
1.53937
21
0.627657
0
LINE
8
BLACK
6
CONTINUOUS
10
1.53937
20
0.627657
11
1.46654
21
0.627657
0
LINE
8
BLACK
6
CONTINUOUS
10
1.64961
20
0.629626
11
1.6503
21
0.629338
0
LINE
8
BLACK
6
CONTINUOUS
10
1.6503
20
0.629338
11
1.65059
21
0.628642
0
LINE
8
BLACK
6
CONTINUOUS
10
1.65059
20
0.628642
11
1.65059
21
0.496358
0
LINE
8
BLACK
6
CONTINUOUS
10
1.65059
20
0.496358
11
1.6503
21
0.495662
0
LINE
8
BLACK
6
CONTINUOUS
10
1.6503
20
0.495662
11
1.64961
21
0.495374
0
LINE
8
BLACK
6
CONTINUOUS
10
1.64961
20
0.495374
11
1.5748
21
0.495374
0
LINE
8
BLACK
6
CONTINUOUS
10
1.5748
20
0.495374
11
1.57411
21
0.495662
0
LINE
8
BLACK
6
CONTINUOUS
10
1.57411
20
0.495662
11
1.57382
21
0.496358
0
LINE
8
BLACK
6
CONTINUOUS
10
1.57382
20
0.496358
11
1.57382
21
0.628642
0
LINE
8
BLACK
6
CONTINUOUS
10
1.57382
20
0.628642
11
1.57411
21
0.629338
0
LINE
8
BLACK
6
CONTINUOUS
10
1.57411
20
0.629338
11
1.5748
21
0.629626
0
LINE
8
BLACK
6
CONTINUOUS
10
1.5748
20
0.629626
11
1.64961
21
0.629626
0
LINE
8
BLACK
6
CONTINUOUS
10
1.57579
20
0.627657
11
1.57579
21
0.497343
0
LINE
8
BLACK
6
CONTINUOUS
10
1.57579
20
0.497343
11
1.64862
21
0.497343
0
LINE
8
BLACK
6
CONTINUOUS
10
1.64862
20
0.497343
11
1.64862
21
0.627657
0
LINE
8
BLACK
6
CONTINUOUS
10
1.64862
20
0.627657
11
1.57579
21
0.627657
0
LINE
8
BLACK
6
CONTINUOUS
10
1.75098
20
0.629626
11
1.75168
21
0.629338
0
LINE
8
BLACK
6
CONTINUOUS
10
1.75168
20
0.629338
11
1.75197
21
0.628642
0
LINE
8
BLACK
6
CONTINUOUS
10
1.75197
20
0.628642
11
1.75197
21
0.496358
0
LINE
8
BLACK
6
CONTINUOUS
10
1.75197
20
0.496358
11
1.75168
21
0.495662
0
LINE
8
BLACK
6
CONTINUOUS
10
1.75168
20
0.495662
11
1.75098
21
0.495374
0
LINE
8
BLACK
6
CONTINUOUS
10
1.75098
20
0.495374
11
1.67618
21
0.495374
0
LINE
8
BLACK
6
CONTINUOUS
10
1.67618
20
0.495374
11
1.67549
21
0.495662
0
LINE
8
BLACK
6
CONTINUOUS
10
1.67549
20
0.495662
11
1.6752
21
0.496358
0
LINE
8
BLACK
6
CONTINUOUS
10
1.6752
20
0.496358
11
1.6752
21
0.628642
0
LINE
8
BLACK
6
CONTINUOUS
10
1.6752
20
0.628642
11
1.67549
21
0.629338
0
LINE
8
BLACK
6
CONTINUOUS
10
1.67549
20
0.629338
11
1.67618
21
0.629626
0
LINE
8
BLACK
6
CONTINUOUS
10
1.67618
20
0.629626
11
1.75098
21
0.629626
0
LINE
8
BLACK
6
CONTINUOUS
10
1.67717
20
0.627657
11
1.67717
21
0.497343
0
LINE
8
BLACK
6
CONTINUOUS
10
1.67717
20
0.497343
11
1.75
21
0.497343
0
LINE
8
BLACK
6
CONTINUOUS
10
1.75
20
0.497343
11
1.75
21
0.627657
0
LINE
8
BLACK
6
CONTINUOUS
10
1.75
20
0.627657
11
1.67717
21
0.627657
0
LINE
8
BLACK
6
CONTINUOUS
10
0.66752
20
0.637795
11
0.668216
21
0.637507
0
LINE
8
BLACK
6
CONTINUOUS
10
0.668216
20
0.637507
11
0.668504
21
0.636811
0
LINE
8
BLACK
6
CONTINUOUS
10
0.668504
20
0.636811
11
0.668504
21
0.502953
0
LINE
8
BLACK
6
CONTINUOUS
10
0.668504
20
0.502953
11
0.668216
21
0.502257
0
LINE
8
BLACK
6
CONTINUOUS
10
0.668216
20
0.502257
11
0.66752
21
0.501969
0
LINE
8
BLACK
6
CONTINUOUS
10
0.66752
20
0.501969
11
0.590354
21
0.501969
0
LINE
8
BLACK
6
CONTINUOUS
10
0.590354
20
0.501969
11
0.589658
21
0.502257
0
LINE
8
BLACK
6
CONTINUOUS
10
0.589658
20
0.502257
11
0.58937
21
0.502953
0
LINE
8
BLACK
6
CONTINUOUS
10
0.58937
20
0.502953
11
0.58937
21
0.636811
0
LINE
8
BLACK
6
CONTINUOUS
10
0.58937
20
0.636811
11
0.589658
21
0.637507
0
LINE
8
BLACK
6
CONTINUOUS
10
0.589658
20
0.637507
11
0.590354
21
0.637795
0
LINE
8
BLACK
6
CONTINUOUS
10
0.590354
20
0.637795
11
0.66752
21
0.637795
0
LINE
8
BLACK
6
CONTINUOUS
10
0.591339
20
0.635827
11
0.591339
21
0.503937
0
LINE
8
BLACK
6
CONTINUOUS
10
0.591339
20
0.503937
11
0.666535
21
0.503937
0
LINE
8
BLACK
6
CONTINUOUS
10
0.666535
20
0.503937
11
0.666535
21
0.635827
0
LINE
8
BLACK
6
CONTINUOUS
10
0.666535
20
0.635827
11
0.591339
21
0.635827
0
LINE
8
BLACK
6
CONTINUOUS
10
0.752165
20
0.637795
11
0.752861
21
0.637507
0
LINE
8
BLACK
6
CONTINUOUS
10
0.752861
20
0.637507
11
0.75315
21
0.636811
0
LINE
8
BLACK
6
CONTINUOUS
10
0.75315
20
0.636811
11
0.75315
21
0.502953
0
LINE
8
BLACK
6
CONTINUOUS
10
0.75315
20
0.502953
11
0.752861
21
0.502257
0
LINE
8
BLACK
6
CONTINUOUS
10
0.752861
20
0.502257
11
0.752165
21
0.501969
0
LINE
8
BLACK
6
CONTINUOUS
10
0.752165
20
0.501969
11
0.675
21
0.501969
0
LINE
8
BLACK
6
CONTINUOUS
10
0.675
20
0.501969
11
0.674304
21
0.502257
0
LINE
8
BLACK
6
CONTINUOUS
10
0.674304
20
0.502257
11
0.674016
21
0.502953
0
LINE
8
BLACK
6
CONTINUOUS
10
0.674016
20
0.502953
11
0.674016
21
0.502953
0
LINE
8
BLACK
6
CONTINUOUS
10
0.674016
20
0.502953
11
0.674016
21
0.636811
0
LINE
8
BLACK
6
CONTINUOUS
10
0.674016
20
0.636811
11
0.674304
21
0.637507
0
LINE
8
BLACK
6
CONTINUOUS
10
0.674304
20
0.637507
11
0.675
21
0.637795
0
LINE
8
BLACK
6
CONTINUOUS
10
0.675
20
0.637795
11
0.752165
21
0.637795
0
LINE
8
BLACK
6
CONTINUOUS
10
0.675984
20
0.635827
11
0.675984
21
0.503937
0
LINE
8
BLACK
6
CONTINUOUS
10
0.675984
20
0.503937
11
0.751181
21
0.503937
0
LINE
8
BLACK
6
CONTINUOUS
10
0.751181
20
0.503937
11
0.751181
21
0.635827
0
LINE
8
BLACK
6
CONTINUOUS
10
0.751181
20
0.635827
11
0.675984
21
0.635827
0
LINE
8
BLACK
6
CONTINUOUS
10
1.13159
20
0.993504
11
1.13229
21
0.993216
0
LINE
8
BLACK
6
CONTINUOUS
10
1.13229
20
0.993216
11
1.13258
21
0.99252
0
LINE
8
BLACK
6
CONTINUOUS
10
1.13258
20
0.99252
11
1.13258
21
0.665748
0
LINE
8
BLACK
6
CONTINUOUS
10
1.13258
20
0.665748
11
1.13229
21
0.665052
0
LINE
8
BLACK
6
CONTINUOUS
10
1.13229
20
0.665052
11
1.13159
21
0.664764
0
LINE
8
BLACK
6
CONTINUOUS
10
1.13159
20
0.664764
11
0.828445
21
0.664764
0
LINE
8
BLACK
6
CONTINUOUS
10
0.828445
20
0.664764
11
0.827749
21
0.665052
0
LINE
8
BLACK
6
CONTINUOUS
10
0.827749
20
0.665052
11
0.827461
21
0.665748
0
LINE
8
BLACK
6
CONTINUOUS
10
0.827461
20
0.665748
11
0.827461
21
0.99252
0
LINE
8
BLACK
6
CONTINUOUS
10
0.827461
20
0.99252
11
0.827749
21
0.993216
0
LINE
8
BLACK
6
CONTINUOUS
10
0.827749
20
0.993216
11
0.828445
21
0.993504
0
LINE
8
BLACK
6
CONTINUOUS
10
0.828445
20
0.993504
11
1.13159
21
0.993504
0
LINE
8
BLACK
6
CONTINUOUS
10
0.829429
20
0.991535
11
0.829429
21
0.666732
0
LINE
8
BLACK
6
CONTINUOUS
10
0.829429
20
0.666732
11
1.13061
21
0.666732
0
LINE
8
BLACK
6
CONTINUOUS
10
1.13061
20
0.666732
11
1.13061
21
0.991535
0
LINE
8
BLACK
6
CONTINUOUS
10
1.13061
20
0.991535
11
0.829429
21
0.991535
0
LINE
8
BLACK
6
CONTINUOUS
10
0.794488
20
0.750591
11
0.795184
21
0.750302
0
LINE
8
BLACK
6
CONTINUOUS
10
0.795184
20
0.750302
11
0.795472
21
0.749606
0
LINE
8
BLACK
6
CONTINUOUS
10
0.795472
20
0.749606
11
0.795472
21
0.672441
0
LINE
8
BLACK
6
CONTINUOUS
10
0.795472
20
0.672441
11
0.795184
21
0.671745
0
LINE
8
BLACK
6
CONTINUOUS
10
0.795184
20
0.671745
11
0.794488
21
0.671457
0
LINE
8
BLACK
6
CONTINUOUS
10
0.794488
20
0.671457
11
0.66063
21
0.671457
0
LINE
8
BLACK
6
CONTINUOUS
10
0.66063
20
0.671457
11
0.659934
21
0.671745
0
LINE
8
BLACK
6
CONTINUOUS
10
0.659934
20
0.671745
11
0.659646
21
0.672441
0
LINE
8
BLACK
6
CONTINUOUS
10
0.659646
20
0.672441
11
0.659646
21
0.749606
0
LINE
8
BLACK
6
CONTINUOUS
10
0.659646
20
0.749606
11
0.659934
21
0.750302
0
LINE
8
BLACK
6
CONTINUOUS
10
0.659934
20
0.750302
11
0.66063
21
0.750591
0
LINE
8
BLACK
6
CONTINUOUS
10
0.66063
20
0.750591
11
0.794488
21
0.750591
0
LINE
8
BLACK
6
CONTINUOUS
10
0.661614
20
0.748622
11
0.661614
21
0.673425
0
LINE
8
BLACK
6
CONTINUOUS
10
0.661614
20
0.673425
11
0.793504
21
0.673425
0
LINE
8
BLACK
6
CONTINUOUS
10
0.793504
20
0.673425
11
0.793504
21
0.748622
0
LINE
8
BLACK
6
CONTINUOUS
10
0.793504
20
0.748622
11
0.661614
21
0.748622
0
LINE
8
BLACK
6
CONTINUOUS
10
0.655709
20
0.841535
11
0.656405
21
0.841247
0
LINE
8
BLACK
6
CONTINUOUS
10
0.656405
20
0.841247
11
0.656693
21
0.840551
0
LINE
8
BLACK
6
CONTINUOUS
10
0.656693
20
0.840551
11
0.656693
21
0.706693
0
LINE
8
BLACK
6
CONTINUOUS
10
0.656693
20
0.706693
11
0.656405
21
0.705997
0
LINE
8
BLACK
6
CONTINUOUS
10
0.656405
20
0.705997
11
0.655709
21
0.705709
0
LINE
8
BLACK
6
CONTINUOUS
10
0.655709
20
0.705709
11
0.578543
21
0.705709
0
LINE
8
BLACK
6
CONTINUOUS
10
0.578543
20
0.705709
11
0.577847
21
0.705997
0
LINE
8
BLACK
6
CONTINUOUS
10
0.577847
20
0.705997
11
0.577559
21
0.706693
0
LINE
8
BLACK
6
CONTINUOUS
10
0.577559
20
0.706693
11
0.577559
21
0.840551
0
LINE
8
BLACK
6
CONTINUOUS
10
0.577559
20
0.840551
11
0.577847
21
0.841247
0
LINE
8
BLACK
6
CONTINUOUS
10
0.577847
20
0.841247
11
0.578543
21
0.841535
0
LINE
8
BLACK
6
CONTINUOUS
10
0.578543
20
0.841535
11
0.655709
21
0.841535
0
LINE
8
BLACK
6
CONTINUOUS
10
0.579528
20
0.839567
11
0.579528
21
0.707677
0
LINE
8
BLACK
6
CONTINUOUS
10
0.579528
20
0.707677
11
0.654724
21
0.707677
0
LINE
8
BLACK
6
CONTINUOUS
10
0.654724
20
0.707677
11
0.654724
21
0.839567
0
LINE
8
BLACK
6
CONTINUOUS
10
0.654724
20
0.839567
11
0.579528
21
0.839567
0
LINE
8
BLACK
6
CONTINUOUS
10
0.794488
20
0.841142
11
0.795184
21
0.840853
0
LINE
8
BLACK
6
CONTINUOUS
10
0.795184
20
0.840853
11
0.795472
21
0.840157
0
LINE
8
BLACK
6
CONTINUOUS
10
0.795472
20
0.840157
11
0.795472
21
0.762992
0
LINE
8
BLACK
6
CONTINUOUS
10
0.795472
20
0.762992
11
0.795184
21
0.762296
0
LINE
8
BLACK
6
CONTINUOUS
10
0.795184
20
0.762296
11
0.794488
21
0.762008
0
LINE
8
BLACK
6
CONTINUOUS
10
0.794488
20
0.762008
11
0.66063
21
0.762008
0
LINE
8
BLACK
6
CONTINUOUS
10
0.66063
20
0.762008
11
0.659934
21
0.762296
0
LINE
8
BLACK
6
CONTINUOUS
10
0.659934
20
0.762296
11
0.659646
21
0.762992
0
LINE
8
BLACK
6
CONTINUOUS
10
0.659646
20
0.762992
11
0.659646
21
0.840157
0
LINE
8
BLACK
6
CONTINUOUS
10
0.659646
20
0.840157
11
0.659934
21
0.840853
0
LINE
8
BLACK
6
CONTINUOUS
10
0.659934
20
0.840853
11
0.66063
21
0.841142
0
LINE
8
BLACK
6
CONTINUOUS
10
0.66063
20
0.841142
11
0.794488
21
0.841142
0
LINE
8
BLACK
6
CONTINUOUS
10
0.661614
20
0.839173
11
0.661614
21
0.763976
0
LINE
8
BLACK
6
CONTINUOUS
10
0.661614
20
0.763976
11
0.793504
21
0.763976
0
LINE
8
BLACK
6
CONTINUOUS
10
0.793504
20
0.763976
11
0.793504
21
0.839173
0
LINE
8
BLACK
6
CONTINUOUS
10
0.793504
20
0.839173
11
0.661614
21
0.839173
0
LINE
8
BLACK
6
CONTINUOUS
10
0.735236
20
1.1939
11
0.735932
21
1.19361
0
LINE
8
BLACK
6
CONTINUOUS
10
0.735932
20
1.19361
11
0.73622
21
1.19291
0
LINE
8
BLACK
6
CONTINUOUS
10
0.73622
20
1.19291
11
0.73622
21
0.858268
0
LINE
8
BLACK
6
CONTINUOUS
10
0.73622
20
0.858268
11
0.735932
21
0.857572
0
LINE
8
BLACK
6
CONTINUOUS
10
0.735932
20
0.857572
11
0.735236
21
0.857283
0
LINE
8
BLACK
6
CONTINUOUS
10
0.735236
20
0.857283
11
0.420276
21
0.857283
0
LINE
8
BLACK
6
CONTINUOUS
10
0.420276
20
0.857283
11
0.41958
21
0.857572
0
LINE
8
BLACK
6
CONTINUOUS
10
0.41958
20
0.857572
11
0.419291
21
0.858268
0
LINE
8
BLACK
6
CONTINUOUS
10
0.419291
20
0.858268
11
0.419291
21
1.19291
0
LINE
8
BLACK
6
CONTINUOUS
10
0.419291
20
1.19291
11
0.41958
21
1.19361
0
LINE
8
BLACK
6
CONTINUOUS
10
0.41958
20
1.19361
11
0.420276
21
1.1939
0
LINE
8
BLACK
6
CONTINUOUS
10
0.420276
20
1.1939
11
0.735236
21
1.1939
0
LINE
8
BLACK
6
CONTINUOUS
10
0.42126
20
1.19193
11
0.42126
21
0.859252
0
LINE
8
BLACK
6
CONTINUOUS
10
0.42126
20
0.859252
11
0.734252
21
0.859252
0
LINE
8
BLACK
6
CONTINUOUS
10
0.734252
20
0.859252
11
0.734252
21
1.19193
0
LINE
8
BLACK
6
CONTINUOUS
10
0.734252
20
1.19193
11
0.42126
21
1.19193
0
LINE
8
BLACK
6
CONTINUOUS
10
0.396654
20
1.1624
11
0.39735
21
1.16211
0
LINE
8
BLACK
6
CONTINUOUS
10
0.39735
20
1.16211
11
0.397638
21
1.16142
0
LINE
8
BLACK
6
CONTINUOUS
10
0.397638
20
1.16142
11
0.397638
21
0.885827
0
LINE
8
BLACK
6
CONTINUOUS
10
0.397638
20
0.885827
11
0.39735
21
0.885131
0
LINE
8
BLACK
6
CONTINUOUS
10
0.39735
20
0.885131
11
0.396654
21
0.884843
0
LINE
8
BLACK
6
CONTINUOUS
10
0.396654
20
0.884843
11
0.258858
21
0.884843
0
LINE
8
BLACK
6
CONTINUOUS
10
0.258858
20
0.884843
11
0.258162
21
0.885131
0
LINE
8
BLACK
6
CONTINUOUS
10
0.258162
20
0.885131
11
0.257874
21
0.885827
0
LINE
8
BLACK
6
CONTINUOUS
10
0.257874
20
0.885827
11
0.257874
21
1.16142
0
LINE
8
BLACK
6
CONTINUOUS
10
0.257874
20
1.16142
11
0.258162
21
1.16211
0
LINE
8
BLACK
6
CONTINUOUS
10
0.258162
20
1.16211
11
0.258858
21
1.1624
0
LINE
8
BLACK
6
CONTINUOUS
10
0.258858
20
1.1624
11
0.396654
21
1.1624
0
LINE
8
BLACK
6
CONTINUOUS
10
0.259843
20
1.16043
11
0.259843
21
0.886811
0
LINE
8
BLACK
6
CONTINUOUS
10
0.259843
20
0.886811
11
0.395669
21
0.886811
0
LINE
8
BLACK
6
CONTINUOUS
10
0.395669
20
0.886811
11
0.395669
21
1.16043
0
LINE
8
BLACK
6
CONTINUOUS
10
0.395669
20
1.16043
11
0.259843
21
1.16043
0
LINE
8
BLACK
6
CONTINUOUS
10
0.893701
20
1.10453
11
0.894397
21
1.10424
0
LINE
8
BLACK
6
CONTINUOUS
10
0.894397
20
1.10424
11
0.894685
21
1.10354
0
LINE
8
BLACK
6
CONTINUOUS
10
0.894685
20
1.10354
11
0.894685
21
1.02638
0
LINE
8
BLACK
6
CONTINUOUS
10
0.894685
20
1.02638
11
0.894397
21
1.02568
0
LINE
8
BLACK
6
CONTINUOUS
10
0.894397
20
1.02568
11
0.893701
21
1.02539
0
LINE
8
BLACK
6
CONTINUOUS
10
0.893701
20
1.02539
11
0.759843
21
1.02539
0
LINE
8
BLACK
6
CONTINUOUS
10
0.759843
20
1.02539
11
0.759147
21
1.02568
0
LINE
8
BLACK
6
CONTINUOUS
10
0.759147
20
1.02568
11
0.758858
21
1.02638
0
LINE
8
BLACK
6
CONTINUOUS
10
0.758858
20
1.02638
11
0.758858
21
1.10354
0
LINE
8
BLACK
6
CONTINUOUS
10
0.758858
20
1.10354
11
0.759147
21
1.10424
0
LINE
8
BLACK
6
CONTINUOUS
10
0.759147
20
1.10424
11
0.759843
21
1.10453
0
LINE
8
BLACK
6
CONTINUOUS
10
0.759843
20
1.10453
11
0.893701
21
1.10453
0
LINE
8
BLACK
6
CONTINUOUS
10
0.760827
20
1.10256
11
0.760827
21
1.02736
0
LINE
8
BLACK
6
CONTINUOUS
10
0.760827
20
1.02736
11
0.892717
21
1.02736
0
LINE
8
BLACK
6
CONTINUOUS
10
0.892717
20
1.02736
11
0.892717
21
1.10256
0
LINE
8
BLACK
6
CONTINUOUS
10
0.892717
20
1.10256
11
0.760827
21
1.10256
0
LINE
8
BLACK
6
CONTINUOUS
10
1.25197
20
1.11043
11
1.25266
21
1.11014
0
LINE
8
BLACK
6
CONTINUOUS
10
1.25266
20
1.11014
11
1.25295
21
1.10945
0
LINE
8
BLACK
6
CONTINUOUS
10
1.25295
20
1.10945
11
1.25295
21
1.03228
0
LINE
8
BLACK
6
CONTINUOUS
10
1.25295
20
1.03228
11
1.25266
21
1.03159
0
LINE
8
BLACK
6
CONTINUOUS
10
1.25266
20
1.03159
11
1.25197
21
1.0313
0
LINE
8
BLACK
6
CONTINUOUS
10
1.25197
20
1.0313
11
1.11811
21
1.0313
0
LINE
8
BLACK
6
CONTINUOUS
10
1.11811
20
1.0313
11
1.11741
21
1.03159
0
LINE
8
BLACK
6
CONTINUOUS
10
1.11741
20
1.03159
11
1.11713
21
1.03228
0
LINE
8
BLACK
6
CONTINUOUS
10
1.11713
20
1.03228
11
1.11713
21
1.10945
0
LINE
8
BLACK
6
CONTINUOUS
10
1.11713
20
1.10945
11
1.11741
21
1.11014
0
LINE
8
BLACK
6
CONTINUOUS
10
1.11741
20
1.11014
11
1.11811
21
1.11043
0
LINE
8
BLACK
6
CONTINUOUS
10
1.11811
20
1.11043
11
1.25197
21
1.11043
0
LINE
8
BLACK
6
CONTINUOUS
10
1.11909
20
1.10846
11
1.11909
21
1.03327
0
LINE
8
BLACK
6
CONTINUOUS
10
1.11909
20
1.03327
11
1.25098
21
1.03327
0
LINE
8
BLACK
6
CONTINUOUS
10
1.25098
20
1.03327
11
1.25098
21
1.10846
0
LINE
8
BLACK
6
CONTINUOUS
10
1.25098
20
1.10846
11
1.11909
21
1.10846
0
LINE
8
BLACK
6
CONTINUOUS
10
1.11339
20
1.11102
11
1.11408
21
1.11074
0
LINE
8
BLACK
6
CONTINUOUS
10
1.11408
20
1.11074
11
1.11437
21
1.11004
0
LINE
8
BLACK
6
CONTINUOUS
10
1.11437
20
1.11004
11
1.11437
21
1.03287
0
LINE
8
BLACK
6
CONTINUOUS
10
1.11437
20
1.03287
11
1.11408
21
1.03218
0
LINE
8
BLACK
6
CONTINUOUS
10
1.11408
20
1.03218
11
1.11339
21
1.03189
0
LINE
8
BLACK
6
CONTINUOUS
10
1.11339
20
1.03189
11
0.979528
21
1.03189
0
LINE
8
BLACK
6
CONTINUOUS
10
0.979528
20
1.03189
11
0.978832
21
1.03218
0
LINE
8
BLACK
6
CONTINUOUS
10
0.978832
20
1.03218
11
0.978543
21
1.03287
0
LINE
8
BLACK
6
CONTINUOUS
10
0.978543
20
1.03287
11
0.978543
21
1.11004
0
LINE
8
BLACK
6
CONTINUOUS
10
0.978543
20
1.11004
11
0.978832
21
1.11074
0
LINE
8
BLACK
6
CONTINUOUS
10
0.978832
20
1.11074
11
0.979528
21
1.11102
0
LINE
8
BLACK
6
CONTINUOUS
10
0.979528
20
1.11102
11
1.11339
21
1.11102
0
LINE
8
BLACK
6
CONTINUOUS
10
0.980512
20
1.10906
11
0.980512
21
1.03386
0
LINE
8
BLACK
6
CONTINUOUS
10
0.980512
20
1.03386
11
1.1124
21
1.03386
0
LINE
8
BLACK
6
CONTINUOUS
10
1.1124
20
1.03386
11
1.1124
21
1.10906
0
LINE
8
BLACK
6
CONTINUOUS
10
1.1124
20
1.10906
11
0.980512
21
1.10906
0
LINE
8
BLACK
6
CONTINUOUS
10
0.482972
20
1.29429
11
0.483668
21
1.294
0
LINE
8
BLACK
6
CONTINUOUS
10
0.483668
20
1.294
11
0.483957
21
1.29331
0
LINE
8
BLACK
6
CONTINUOUS
10
0.483957
20
1.29331
11
0.483957
21
1.2185
0
LINE
8
BLACK
6
CONTINUOUS
10
0.483957
20
1.2185
11
0.483668
21
1.21781
0
LINE
8
BLACK
6
CONTINUOUS
10
0.483668
20
1.21781
11
0.482972
21
1.21752
0
LINE
8
BLACK
6
CONTINUOUS
10
0.482972
20
1.21752
11
0.350689
21
1.21752
0
LINE
8
BLACK
6
CONTINUOUS
10
0.350689
20
1.21752
11
0.349993
21
1.21781
0
LINE
8
BLACK
6
CONTINUOUS
10
0.349993
20
1.21781
11
0.349705
21
1.2185
0
LINE
8
BLACK
6
CONTINUOUS
10
0.349705
20
1.2185
11
0.349705
21
1.29331
0
LINE
8
BLACK
6
CONTINUOUS
10
0.349705
20
1.29331
11
0.349993
21
1.294
0
LINE
8
BLACK
6
CONTINUOUS
10
0.349993
20
1.294
11
0.350689
21
1.29429
0
LINE
8
BLACK
6
CONTINUOUS
10
0.350689
20
1.29429
11
0.482972
21
1.29429
0
LINE
8
BLACK
6
CONTINUOUS
10
0.351673
20
1.29232
11
0.351673
21
1.21949
0
LINE
8
BLACK
6
CONTINUOUS
10
0.351673
20
1.21949
11
0.481988
21
1.21949
0
LINE
8
BLACK
6
CONTINUOUS
10
0.481988
20
1.21949
11
0.481988
21
1.29232
0
LINE
8
BLACK
6
CONTINUOUS
10
0.481988
20
1.29232
11
0.351673
21
1.29232
  0
ENDSEC
  0
EOF
