  0
SECTION
  2
HEADER
  9
$ANGBASE
  50
0.0
  9
$ANGDIR
  70
1
  9
$MEASUREMENT
  70
0
  0
ENDSEC
  0
SECTION
  2
TABLES
  0
TABLE
  2
LTYPE
  70
4
  0
LTYPE
  5
40F
  2
CONTINUOUS
  70
0
  3
Solid line
  72
65
  73
0
  40
0.0
  0
LTYPE
  5
410
  2
DASHDOT
 70
0
  3
Dash Dot ____ _ ____ _
 72
65
 73
4
 40
2.0
 49
1.25
 49
-0.25
 49
0.25
 49
-0.25
  0
LTYPE
  5
411
  2
DASHED
 70
0
  3
Dashed __ __ __ __ __
 72
65
 73
2
 40
0.75
 49
0.5
 49
-0.25
  0
LTYPE
  5
43B
  2
DOTTED
 70
0
  3
Dotted .  .  .  .
 72
65
 73
2
 40
0.2
 49
0.0
 49
-0.2
  0
ENDTAB
  0
TABLE
  2
STYLE
  70
4
  0
STYLE
  2
KICAD
  70
0
  40
0
  41
1
  42
1
  50
0
  71
0
  3
isocp.shx
  0
STYLE
  2
KICADB
  70
0
  40
0
  41
1
  42
1
  50
0
  71
0
  3
isocp.shx
  0
STYLE
  2
KICADI
  70
0
  40
0
  41
1
  42
1
  50
15
  71
0
  3
isocp.shx
  0
STYLE
  2
KICADBI
  70
0
  40
0
  41
1
  42
1
  50
15
  71
0
  3
isocp.shx
  0
ENDTAB
  0
TABLE
  2
LAYER
  70
1
  0
LAYER
  2
BLACK
  70
0
  62
7
  6
CONTINUOUS
  0
ENDTAB
  0
ENDSEC
  0
SECTION
  2
ENTITIES
0
LINE
8
BLACK
6
CONTINUOUS
10
0.952047
20
0.502261
11
0.952739
21
0.500591
0
LINE
8
BLACK
6
CONTINUOUS
10
0.952739
20
0.500591
11
0.952047
21
0.49892
0
LINE
8
BLACK
6
CONTINUOUS
10
0.952047
20
0.49892
11
0.950377
21
0.498228
0
LINE
8
BLACK
6
CONTINUOUS
10
0.950377
20
0.498228
11
0.932497
21
0.498228
0
LINE
8
BLACK
6
CONTINUOUS
10
0.932497
20
0.498228
11
0.930827
21
0.49892
0
LINE
8
BLACK
6
CONTINUOUS
10
0.930827
20
0.49892
11
0.930135
21
0.500591
0
LINE
8
BLACK
6
CONTINUOUS
10
0.930135
20
0.500591
11
0.930827
21
0.502261
0
LINE
8
BLACK
6
CONTINUOUS
10
0.930827
20
0.502261
11
0.932497
21
0.502953
0
LINE
8
BLACK
6
CONTINUOUS
10
0.932497
20
0.502953
11
0.950377
21
0.502953
0
LINE
8
BLACK
6
CONTINUOUS
10
0.950377
20
0.502953
11
0.952047
21
0.502261
0
LINE
8
BLACK
6
CONTINUOUS
10
1.09476
20
0.502261
11
1.09546
21
0.500591
0
LINE
8
BLACK
6
CONTINUOUS
10
1.09546
20
0.500591
11
1.09476
21
0.49892
0
LINE
8
BLACK
6
CONTINUOUS
10
1.09476
20
0.49892
11
1.09309
21
0.498228
0
LINE
8
BLACK
6
CONTINUOUS
10
1.09309
20
0.498228
11
1.07521
21
0.498228
0
LINE
8
BLACK
6
CONTINUOUS
10
1.07521
20
0.498228
11
1.07354
21
0.49892
0
LINE
8
BLACK
6
CONTINUOUS
10
1.07354
20
0.49892
11
1.07285
21
0.500591
0
LINE
8
BLACK
6
CONTINUOUS
10
1.07285
20
0.500591
11
1.07354
21
0.502261
0
LINE
8
BLACK
6
CONTINUOUS
10
1.07354
20
0.502261
11
1.07521
21
0.502953
0
LINE
8
BLACK
6
CONTINUOUS
10
1.07521
20
0.502953
11
1.09309
21
0.502953
0
LINE
8
BLACK
6
CONTINUOUS
10
1.09309
20
0.502953
11
1.09476
21
0.502261
0
LINE
8
BLACK
6
CONTINUOUS
10
0.57904
20
0.565408
11
0.580915
21
0.563533
0
LINE
8
BLACK
6
CONTINUOUS
10
0.580915
20
0.563533
11
0.581503
21
0.562693
0
LINE
8
BLACK
6
CONTINUOUS
10
0.581503
20
0.562693
11
0.581518
21
0.562517
0
LINE
8
BLACK
6
CONTINUOUS
10
0.581518
20
0.562517
11
0.581628
21
0.562379
0
LINE
8
BLACK
6
CONTINUOUS
10
0.581628
20
0.562379
11
0.583503
21
0.556755
0
LINE
8
BLACK
6
CONTINUOUS
10
0.583503
20
0.556755
11
0.583632
21
0.555882
0
LINE
8
BLACK
6
CONTINUOUS
10
0.583632
20
0.555882
11
0.583654
21
0.555821
0
LINE
8
BLACK
6
CONTINUOUS
10
0.583654
20
0.555821
11
0.583654
21
0.552072
0
LINE
8
BLACK
6
CONTINUOUS
10
0.583654
20
0.552072
11
0.583501
21
0.551202
0
LINE
8
BLACK
6
CONTINUOUS
10
0.583501
20
0.551202
11
0.583503
21
0.551138
0
LINE
8
BLACK
6
CONTINUOUS
10
0.583503
20
0.551138
11
0.581628
21
0.545514
0
LINE
8
BLACK
6
CONTINUOUS
10
0.581628
20
0.545514
11
0.58114
21
0.544612
0
LINE
8
BLACK
6
CONTINUOUS
10
0.58114
20
0.544612
11
0.580989
21
0.544519
0
LINE
8
BLACK
6
CONTINUOUS
10
0.580989
20
0.544519
11
0.580915
21
0.544359
0
LINE
8
BLACK
6
CONTINUOUS
10
0.580915
20
0.544359
11
0.577165
21
0.54061
0
LINE
8
BLACK
6
CONTINUOUS
10
0.577165
20
0.54061
11
0.576442
21
0.540104
0
LINE
8
BLACK
6
CONTINUOUS
10
0.576442
20
0.540104
11
0.576398
21
0.540057
0
LINE
8
BLACK
6
CONTINUOUS
10
0.576398
20
0.540057
11
0.572648
21
0.538182
0
LINE
8
BLACK
6
CONTINUOUS
10
0.572648
20
0.538182
11
0.57216
21
0.538037
0
LINE
8
BLACK
6
CONTINUOUS
10
0.57216
20
0.538037
11
0.572044
21
0.537958
0
LINE
8
BLACK
6
CONTINUOUS
10
0.572044
20
0.537958
11
0.564545
21
0.536084
0
LINE
8
BLACK
6
CONTINUOUS
10
0.564545
20
0.536084
11
0.563957
21
0.536042
0
LINE
8
BLACK
6
CONTINUOUS
10
0.563957
20
0.536042
11
0.563829
21
0.535996
0
LINE
8
BLACK
6
CONTINUOUS
10
0.563829
20
0.535996
11
0.558204
21
0.535996
0
LINE
8
BLACK
6
CONTINUOUS
10
0.558204
20
0.535996
11
0.557624
21
0.536098
0
LINE
8
BLACK
6
CONTINUOUS
10
0.557624
20
0.536098
11
0.557488
21
0.536084
0
LINE
8
BLACK
6
CONTINUOUS
10
0.557488
20
0.536084
11
0.549989
21
0.537958
0
LINE
8
BLACK
6
CONTINUOUS
10
0.549989
20
0.537958
11
0.549524
21
0.538166
0
LINE
8
BLACK
6
CONTINUOUS
10
0.549524
20
0.538166
11
0.549385
21
0.538182
0
LINE
8
BLACK
6
CONTINUOUS
10
0.549385
20
0.538182
11
0.545635
21
0.540057
0
LINE
8
BLACK
6
CONTINUOUS
10
0.545635
20
0.540057
11
0.544926
21
0.540583
0
LINE
8
BLACK
6
CONTINUOUS
10
0.544926
20
0.540583
11
0.544868
21
0.54061
0
LINE
8
BLACK
6
CONTINUOUS
10
0.544868
20
0.54061
11
0.541118
21
0.544359
0
LINE
8
BLACK
6
CONTINUOUS
10
0.541118
20
0.544359
11
0.54053
21
0.545199
0
LINE
8
BLACK
6
CONTINUOUS
10
0.54053
20
0.545199
11
0.540515
21
0.545375
0
LINE
8
BLACK
6
CONTINUOUS
10
0.540515
20
0.545375
11
0.540405
21
0.545514
0
LINE
8
BLACK
6
CONTINUOUS
10
0.540405
20
0.545514
11
0.53853
21
0.551138
0
LINE
8
BLACK
6
CONTINUOUS
10
0.53853
20
0.551138
11
0.538401
21
0.552011
0
LINE
8
BLACK
6
CONTINUOUS
10
0.538401
20
0.552011
11
0.538379
21
0.552072
0
LINE
8
BLACK
6
CONTINUOUS
10
0.538379
20
0.552072
11
0.538379
21
0.555821
0
LINE
8
BLACK
6
CONTINUOUS
10
0.538379
20
0.555821
11
0.538532
21
0.556691
0
LINE
8
BLACK
6
CONTINUOUS
10
0.538532
20
0.556691
11
0.53853
21
0.556755
0
LINE
8
BLACK
6
CONTINUOUS
10
0.53853
20
0.556755
11
0.540405
21
0.562379
0
LINE
8
BLACK
6
CONTINUOUS
10
0.540405
20
0.562379
11
0.540893
21
0.563281
0
LINE
8
BLACK
6
CONTINUOUS
10
0.540893
20
0.563281
11
0.541044
21
0.563373
0
LINE
8
BLACK
6
CONTINUOUS
10
0.541044
20
0.563373
11
0.541118
21
0.563533
0
LINE
8
BLACK
6
CONTINUOUS
10
0.541118
20
0.563533
11
0.542993
21
0.565408
0
LINE
8
BLACK
6
CONTINUOUS
10
0.542993
20
0.565408
11
0.543833
21
0.565996
0
LINE
8
BLACK
6
CONTINUOUS
10
0.543833
20
0.565996
11
0.545845
21
0.566172
0
LINE
8
BLACK
6
CONTINUOUS
10
0.545845
20
0.566172
11
0.5475
21
0.565014
0
LINE
8
BLACK
6
CONTINUOUS
10
0.5475
20
0.565014
11
0.548022
21
0.563063
0
LINE
8
BLACK
6
CONTINUOUS
10
0.548022
20
0.563063
11
0.547169
21
0.561232
0
LINE
8
BLACK
6
CONTINUOUS
10
0.547169
20
0.561232
11
0.545787
21
0.55985
0
LINE
8
BLACK
6
CONTINUOUS
10
0.545787
20
0.55985
11
0.544284
21
0.555342
0
LINE
8
BLACK
6
CONTINUOUS
10
0.544284
20
0.555342
11
0.544284
21
0.552551
0
LINE
8
BLACK
6
CONTINUOUS
10
0.544284
20
0.552551
11
0.545787
21
0.548042
0
LINE
8
BLACK
6
CONTINUOUS
10
0.545787
20
0.548042
11
0.548705
21
0.545125
0
LINE
8
BLACK
6
CONTINUOUS
10
0.548705
20
0.545125
11
0.551736
21
0.543609
0
LINE
8
BLACK
6
CONTINUOUS
10
0.551736
20
0.543609
11
0.558568
21
0.541901
0
LINE
8
BLACK
6
CONTINUOUS
10
0.558568
20
0.541901
11
0.563465
21
0.541901
0
LINE
8
BLACK
6
CONTINUOUS
10
0.563465
20
0.541901
11
0.570297
21
0.543609
0
LINE
8
BLACK
6
CONTINUOUS
10
0.570297
20
0.543609
11
0.573328
21
0.545125
0
LINE
8
BLACK
6
CONTINUOUS
10
0.573328
20
0.545125
11
0.576246
21
0.548042
0
LINE
8
BLACK
6
CONTINUOUS
10
0.576246
20
0.548042
11
0.577749
21
0.552551
0
LINE
8
BLACK
6
CONTINUOUS
10
0.577749
20
0.552551
11
0.577749
21
0.555342
0
LINE
8
BLACK
6
CONTINUOUS
10
0.577749
20
0.555342
11
0.576246
21
0.55985
0
LINE
8
BLACK
6
CONTINUOUS
10
0.576246
20
0.55985
11
0.574864
21
0.561232
0
LINE
8
BLACK
6
CONTINUOUS
10
0.574864
20
0.561232
11
0.574276
21
0.562072
0
LINE
8
BLACK
6
CONTINUOUS
10
0.574276
20
0.562072
11
0.5741
21
0.564084
0
LINE
8
BLACK
6
CONTINUOUS
10
0.5741
20
0.564084
11
0.575258
21
0.565739
0
LINE
8
BLACK
6
CONTINUOUS
10
0.575258
20
0.565739
11
0.577209
21
0.566262
0
LINE
8
BLACK
6
CONTINUOUS
10
0.577209
20
0.566262
11
0.57904
21
0.565408
0
LINE
8
BLACK
6
CONTINUOUS
10
0.788882
20
0.565408
11
0.790757
21
0.563533
0
LINE
8
BLACK
6
CONTINUOUS
10
0.790757
20
0.563533
11
0.791345
21
0.562693
0
LINE
8
BLACK
6
CONTINUOUS
10
0.791345
20
0.562693
11
0.791361
21
0.562517
0
LINE
8
BLACK
6
CONTINUOUS
10
0.791361
20
0.562517
11
0.791471
21
0.562379
0
LINE
8
BLACK
6
CONTINUOUS
10
0.791471
20
0.562379
11
0.793345
21
0.556755
0
LINE
8
BLACK
6
CONTINUOUS
10
0.793345
20
0.556755
11
0.793475
21
0.555882
0
LINE
8
BLACK
6
CONTINUOUS
10
0.793475
20
0.555882
11
0.793497
21
0.555821
0
LINE
8
BLACK
6
CONTINUOUS
10
0.793497
20
0.555821
11
0.793497
21
0.552072
0
LINE
8
BLACK
6
CONTINUOUS
10
0.793497
20
0.552072
11
0.793344
21
0.551202
0
LINE
8
BLACK
6
CONTINUOUS
10
0.793344
20
0.551202
11
0.793345
21
0.551138
0
LINE
8
BLACK
6
CONTINUOUS
10
0.793345
20
0.551138
11
0.791471
21
0.545514
0
LINE
8
BLACK
6
CONTINUOUS
10
0.791471
20
0.545514
11
0.790982
21
0.544612
0
LINE
8
BLACK
6
CONTINUOUS
10
0.790982
20
0.544612
11
0.790832
21
0.544519
0
LINE
8
BLACK
6
CONTINUOUS
10
0.790832
20
0.544519
11
0.790757
21
0.544359
0
LINE
8
BLACK
6
CONTINUOUS
10
0.790757
20
0.544359
11
0.787008
21
0.54061
0
LINE
8
BLACK
6
CONTINUOUS
10
0.787008
20
0.54061
11
0.786284
21
0.540104
0
LINE
8
BLACK
6
CONTINUOUS
10
0.786284
20
0.540104
11
0.78624
21
0.540057
0
LINE
8
BLACK
6
CONTINUOUS
10
0.78624
20
0.540057
11
0.782491
21
0.538182
0
LINE
8
BLACK
6
CONTINUOUS
10
0.782491
20
0.538182
11
0.782002
21
0.538037
0
LINE
8
BLACK
6
CONTINUOUS
10
0.782002
20
0.538037
11
0.781886
21
0.537958
0
LINE
8
BLACK
6
CONTINUOUS
10
0.781886
20
0.537958
11
0.774387
21
0.536084
0
LINE
8
BLACK
6
CONTINUOUS
10
0.774387
20
0.536084
11
0.773799
21
0.536042
0
LINE
8
BLACK
6
CONTINUOUS
10
0.773799
20
0.536042
11
0.773671
21
0.535996
0
LINE
8
BLACK
6
CONTINUOUS
10
0.773671
20
0.535996
11
0.768047
21
0.535996
0
LINE
8
BLACK
6
CONTINUOUS
10
0.768047
20
0.535996
11
0.767466
21
0.536098
0
LINE
8
BLACK
6
CONTINUOUS
10
0.767466
20
0.536098
11
0.767331
21
0.536084
0
LINE
8
BLACK
6
CONTINUOUS
10
0.767331
20
0.536084
11
0.759832
21
0.537958
0
LINE
8
BLACK
6
CONTINUOUS
10
0.759832
20
0.537958
11
0.759366
21
0.538166
0
LINE
8
BLACK
6
CONTINUOUS
10
0.759366
20
0.538166
11
0.759227
21
0.538182
0
LINE
8
BLACK
6
CONTINUOUS
10
0.759227
20
0.538182
11
0.755478
21
0.540057
0
LINE
8
BLACK
6
CONTINUOUS
10
0.755478
20
0.540057
11
0.754769
21
0.540583
0
LINE
8
BLACK
6
CONTINUOUS
10
0.754769
20
0.540583
11
0.75471
21
0.54061
0
LINE
8
BLACK
6
CONTINUOUS
10
0.75471
20
0.54061
11
0.750961
21
0.544359
0
LINE
8
BLACK
6
CONTINUOUS
10
0.750961
20
0.544359
11
0.750373
21
0.545199
0
LINE
8
BLACK
6
CONTINUOUS
10
0.750373
20
0.545199
11
0.750357
21
0.545375
0
LINE
8
BLACK
6
CONTINUOUS
10
0.750357
20
0.545375
11
0.750248
21
0.545514
0
LINE
8
BLACK
6
CONTINUOUS
10
0.750248
20
0.545514
11
0.748373
21
0.551138
0
LINE
8
BLACK
6
CONTINUOUS
10
0.748373
20
0.551138
11
0.748243
21
0.552011
0
LINE
8
BLACK
6
CONTINUOUS
10
0.748243
20
0.552011
11
0.748221
21
0.552072
0
LINE
8
BLACK
6
CONTINUOUS
10
0.748221
20
0.552072
11
0.748221
21
0.555821
0
LINE
8
BLACK
6
CONTINUOUS
10
0.748221
20
0.555821
11
0.748374
21
0.556691
0
LINE
8
BLACK
6
CONTINUOUS
10
0.748374
20
0.556691
11
0.748373
21
0.556755
0
LINE
8
BLACK
6
CONTINUOUS
10
0.748373
20
0.556755
11
0.750248
21
0.562379
0
LINE
8
BLACK
6
CONTINUOUS
10
0.750248
20
0.562379
11
0.750736
21
0.563281
0
LINE
8
BLACK
6
CONTINUOUS
10
0.750736
20
0.563281
11
0.750886
21
0.563373
0
LINE
8
BLACK
6
CONTINUOUS
10
0.750886
20
0.563373
11
0.750961
21
0.563533
0
LINE
8
BLACK
6
CONTINUOUS
10
0.750961
20
0.563533
11
0.752836
21
0.565408
0
LINE
8
BLACK
6
CONTINUOUS
10
0.752836
20
0.565408
11
0.753676
21
0.565996
0
LINE
8
BLACK
6
CONTINUOUS
10
0.753676
20
0.565996
11
0.755688
21
0.566172
0
LINE
8
BLACK
6
CONTINUOUS
10
0.755688
20
0.566172
11
0.757342
21
0.565014
0
LINE
8
BLACK
6
CONTINUOUS
10
0.757342
20
0.565014
11
0.757865
21
0.563063
0
LINE
8
BLACK
6
CONTINUOUS
10
0.757865
20
0.563063
11
0.757011
21
0.561232
0
LINE
8
BLACK
6
CONTINUOUS
10
0.757011
20
0.561232
11
0.75563
21
0.55985
0
LINE
8
BLACK
6
CONTINUOUS
10
0.75563
20
0.55985
11
0.754127
21
0.555342
0
LINE
8
BLACK
6
CONTINUOUS
10
0.754127
20
0.555342
11
0.754127
21
0.552551
0
LINE
8
BLACK
6
CONTINUOUS
10
0.754127
20
0.552551
11
0.75563
21
0.548042
0
LINE
8
BLACK
6
CONTINUOUS
10
0.75563
20
0.548042
11
0.758547
21
0.545125
0
LINE
8
BLACK
6
CONTINUOUS
10
0.758547
20
0.545125
11
0.761578
21
0.543609
0
LINE
8
BLACK
6
CONTINUOUS
10
0.761578
20
0.543609
11
0.76841
21
0.541901
0
LINE
8
BLACK
6
CONTINUOUS
10
0.76841
20
0.541901
11
0.773308
21
0.541901
0
LINE
8
BLACK
6
CONTINUOUS
10
0.773308
20
0.541901
11
0.78014
21
0.543609
0
LINE
8
BLACK
6
CONTINUOUS
10
0.78014
20
0.543609
11
0.783171
21
0.545125
0
LINE
8
BLACK
6
CONTINUOUS
10
0.783171
20
0.545125
11
0.786089
21
0.548042
0
LINE
8
BLACK
6
CONTINUOUS
10
0.786089
20
0.548042
11
0.787591
21
0.552551
0
LINE
8
BLACK
6
CONTINUOUS
10
0.787591
20
0.552551
11
0.787591
21
0.555342
0
LINE
8
BLACK
6
CONTINUOUS
10
0.787591
20
0.555342
11
0.786089
21
0.55985
0
LINE
8
BLACK
6
CONTINUOUS
10
0.786089
20
0.55985
11
0.784707
21
0.561232
0
LINE
8
BLACK
6
CONTINUOUS
10
0.784707
20
0.561232
11
0.784118
21
0.562072
0
LINE
8
BLACK
6
CONTINUOUS
10
0.784118
20
0.562072
11
0.783942
21
0.564084
0
LINE
8
BLACK
6
CONTINUOUS
10
0.783942
20
0.564084
11
0.785101
21
0.565739
0
LINE
8
BLACK
6
CONTINUOUS
10
0.785101
20
0.565739
11
0.787052
21
0.566262
0
LINE
8
BLACK
6
CONTINUOUS
10
0.787052
20
0.566262
11
0.788882
21
0.565408
0
LINE
8
BLACK
6
CONTINUOUS
10
1.47569
20
0.57311
11
1.47638
21
0.57144
0
LINE
8
BLACK
6
CONTINUOUS
10
1.47638
20
0.57144
11
1.47638
21
0.55356
0
LINE
8
BLACK
6
CONTINUOUS
10
1.47638
20
0.55356
11
1.47569
21
0.55189
0
LINE
8
BLACK
6
CONTINUOUS
10
1.47569
20
0.55189
11
1.47402
21
0.551198
0
LINE
8
BLACK
6
CONTINUOUS
10
1.47402
20
0.551198
11
1.47235
21
0.55189
0
LINE
8
BLACK
6
CONTINUOUS
10
1.47235
20
0.55189
11
1.47165
21
0.55356
0
LINE
8
BLACK
6
CONTINUOUS
10
1.47165
20
0.55356
11
1.47165
21
0.57144
0
LINE
8
BLACK
6
CONTINUOUS
10
1.47165
20
0.57144
11
1.47235
21
0.57311
0
LINE
8
BLACK
6
CONTINUOUS
10
1.47235
20
0.57311
11
1.47402
21
0.573802
0
LINE
8
BLACK
6
CONTINUOUS
10
1.47402
20
0.573802
11
1.47569
21
0.57311
0
LINE
8
BLACK
6
CONTINUOUS
10
1.53356
20
0.57311
11
1.53425
21
0.57144
0
LINE
8
BLACK
6
CONTINUOUS
10
1.53425
20
0.57144
11
1.53425
21
0.55356
0
LINE
8
BLACK
6
CONTINUOUS
10
1.53425
20
0.55356
11
1.53356
21
0.55189
0
LINE
8
BLACK
6
CONTINUOUS
10
1.53356
20
0.55189
11
1.53189
21
0.551198
0
LINE
8
BLACK
6
CONTINUOUS
10
1.53189
20
0.551198
11
1.53022
21
0.55189
0
LINE
8
BLACK
6
CONTINUOUS
10
1.53022
20
0.55189
11
1.52953
21
0.55356
0
LINE
8
BLACK
6
CONTINUOUS
10
1.52953
20
0.55356
11
1.52953
21
0.57144
0
LINE
8
BLACK
6
CONTINUOUS
10
1.52953
20
0.57144
11
1.53022
21
0.57311
0
LINE
8
BLACK
6
CONTINUOUS
10
1.53022
20
0.57311
11
1.53189
21
0.573802
0
LINE
8
BLACK
6
CONTINUOUS
10
1.53189
20
0.573802
11
1.53356
21
0.57311
0
LINE
8
BLACK
6
CONTINUOUS
10
1.58494
20
0.57311
11
1.58563
21
0.57144
0
LINE
8
BLACK
6
CONTINUOUS
10
1.58563
20
0.57144
11
1.58563
21
0.55356
0
LINE
8
BLACK
6
CONTINUOUS
10
1.58563
20
0.55356
11
1.58494
21
0.55189
0
LINE
8
BLACK
6
CONTINUOUS
10
1.58494
20
0.55189
11
1.58327
21
0.551198
0
LINE
8
BLACK
6
CONTINUOUS
10
1.58327
20
0.551198
11
1.5816
21
0.55189
0
LINE
8
BLACK
6
CONTINUOUS
10
1.5816
20
0.55189
11
1.58091
21
0.55356
0
LINE
8
BLACK
6
CONTINUOUS
10
1.58091
20
0.55356
11
1.58091
21
0.57144
0
LINE
8
BLACK
6
CONTINUOUS
10
1.58091
20
0.57144
11
1.5816
21
0.57311
0
LINE
8
BLACK
6
CONTINUOUS
10
1.5816
20
0.57311
11
1.58327
21
0.573802
0
LINE
8
BLACK
6
CONTINUOUS
10
1.58327
20
0.573802
11
1.58494
21
0.57311
0
LINE
8
BLACK
6
CONTINUOUS
10
1.64281
20
0.57311
11
1.6435
21
0.57144
0
LINE
8
BLACK
6
CONTINUOUS
10
1.6435
20
0.57144
11
1.6435
21
0.55356
0
LINE
8
BLACK
6
CONTINUOUS
10
1.6435
20
0.55356
11
1.64281
21
0.55189
0
LINE
8
BLACK
6
CONTINUOUS
10
1.64281
20
0.55189
11
1.64114
21
0.551198
0
LINE
8
BLACK
6
CONTINUOUS
10
1.64114
20
0.551198
11
1.63947
21
0.55189
0
LINE
8
BLACK
6
CONTINUOUS
10
1.63947
20
0.55189
11
1.63878
21
0.55356
0
LINE
8
BLACK
6
CONTINUOUS
10
1.63878
20
0.55356
11
1.63878
21
0.57144
0
LINE
8
BLACK
6
CONTINUOUS
10
1.63878
20
0.57144
11
1.63947
21
0.57311
0
LINE
8
BLACK
6
CONTINUOUS
10
1.63947
20
0.57311
11
1.64114
21
0.573802
0
LINE
8
BLACK
6
CONTINUOUS
10
1.64114
20
0.573802
11
1.64281
21
0.57311
0
LINE
8
BLACK
6
CONTINUOUS
10
1.68632
20
0.57311
11
1.68701
21
0.57144
0
LINE
8
BLACK
6
CONTINUOUS
10
1.68701
20
0.57144
11
1.68701
21
0.55356
0
LINE
8
BLACK
6
CONTINUOUS
10
1.68701
20
0.55356
11
1.68632
21
0.55189
0
LINE
8
BLACK
6
CONTINUOUS
10
1.68632
20
0.55189
11
1.68465
21
0.551198
0
LINE
8
BLACK
6
CONTINUOUS
10
1.68465
20
0.551198
11
1.68298
21
0.55189
0
LINE
8
BLACK
6
CONTINUOUS
10
1.68298
20
0.55189
11
1.68228
21
0.55356
0
LINE
8
BLACK
6
CONTINUOUS
10
1.68228
20
0.55356
11
1.68228
21
0.57144
0
LINE
8
BLACK
6
CONTINUOUS
10
1.68228
20
0.57144
11
1.68298
21
0.57311
0
LINE
8
BLACK
6
CONTINUOUS
10
1.68298
20
0.57311
11
1.68465
21
0.573802
0
LINE
8
BLACK
6
CONTINUOUS
10
1.68465
20
0.573802
11
1.68632
21
0.57311
0
LINE
8
BLACK
6
CONTINUOUS
10
1.74419
20
0.57311
11
1.74488
21
0.57144
0
LINE
8
BLACK
6
CONTINUOUS
10
1.74488
20
0.57144
11
1.74488
21
0.55356
0
LINE
8
BLACK
6
CONTINUOUS
10
1.74488
20
0.55356
11
1.74419
21
0.55189
0
LINE
8
BLACK
6
CONTINUOUS
10
1.74419
20
0.55189
11
1.74252
21
0.551198
0
LINE
8
BLACK
6
CONTINUOUS
10
1.74252
20
0.551198
11
1.74085
21
0.55189
0
LINE
8
BLACK
6
CONTINUOUS
10
1.74085
20
0.55189
11
1.74016
21
0.55356
0
LINE
8
BLACK
6
CONTINUOUS
10
1.74016
20
0.55356
11
1.74016
21
0.57144
0
LINE
8
BLACK
6
CONTINUOUS
10
1.74016
20
0.57144
11
1.74085
21
0.57311
0
LINE
8
BLACK
6
CONTINUOUS
10
1.74085
20
0.57311
11
1.74252
21
0.573802
0
LINE
8
BLACK
6
CONTINUOUS
10
1.74252
20
0.573802
11
1.74419
21
0.57311
0
LINE
8
BLACK
6
CONTINUOUS
10
0.952047
20
0.560135
11
0.952739
21
0.558465
0
LINE
8
BLACK
6
CONTINUOUS
10
0.952739
20
0.558465
11
0.952047
21
0.556794
0
LINE
8
BLACK
6
CONTINUOUS
10
0.952047
20
0.556794
11
0.950377
21
0.556102
0
LINE
8
BLACK
6
CONTINUOUS
10
0.950377
20
0.556102
11
0.932497
21
0.556102
0
LINE
8
BLACK
6
CONTINUOUS
10
0.932497
20
0.556102
11
0.930827
21
0.556794
0
LINE
8
BLACK
6
CONTINUOUS
10
0.930827
20
0.556794
11
0.930135
21
0.558465
0
LINE
8
BLACK
6
CONTINUOUS
10
0.930135
20
0.558465
11
0.930827
21
0.560135
0
LINE
8
BLACK
6
CONTINUOUS
10
0.930827
20
0.560135
11
0.932497
21
0.560827
0
LINE
8
BLACK
6
CONTINUOUS
10
0.932497
20
0.560827
11
0.950377
21
0.560827
0
LINE
8
BLACK
6
CONTINUOUS
10
0.950377
20
0.560827
11
0.952047
21
0.560135
0
LINE
8
BLACK
6
CONTINUOUS
10
1.09476
20
0.560135
11
1.09546
21
0.558465
0
LINE
8
BLACK
6
CONTINUOUS
10
1.09546
20
0.558465
11
1.09476
21
0.556794
0
LINE
8
BLACK
6
CONTINUOUS
10
1.09476
20
0.556794
11
1.09309
21
0.556102
0
LINE
8
BLACK
6
CONTINUOUS
10
1.09309
20
0.556102
11
1.07521
21
0.556102
0
LINE
8
BLACK
6
CONTINUOUS
10
1.07521
20
0.556102
11
1.07354
21
0.556794
0
LINE
8
BLACK
6
CONTINUOUS
10
1.07354
20
0.556794
11
1.07285
21
0.558465
0
LINE
8
BLACK
6
CONTINUOUS
10
1.07285
20
0.558465
11
1.07354
21
0.560135
0
LINE
8
BLACK
6
CONTINUOUS
10
1.07354
20
0.560135
11
1.07521
21
0.560827
0
LINE
8
BLACK
6
CONTINUOUS
10
1.07521
20
0.560827
11
1.09309
21
0.560827
0
LINE
8
BLACK
6
CONTINUOUS
10
1.09309
20
0.560827
11
1.09476
21
0.560135
0
LINE
8
BLACK
6
CONTINUOUS
10
0.60167
20
0.581838
11
0.602362
21
0.580167
0
LINE
8
BLACK
6
CONTINUOUS
10
0.602362
20
0.580167
11
0.602362
21
0.559596
0
LINE
8
BLACK
6
CONTINUOUS
10
0.602362
20
0.559596
11
0.60167
21
0.557926
0
LINE
8
BLACK
6
CONTINUOUS
10
0.60167
20
0.557926
11
0.6
21
0.557234
0
LINE
8
BLACK
6
CONTINUOUS
10
0.6
20
0.557234
11
0.59833
21
0.557926
0
LINE
8
BLACK
6
CONTINUOUS
10
0.59833
20
0.557926
11
0.597638
21
0.559596
0
LINE
8
BLACK
6
CONTINUOUS
10
0.597638
20
0.559596
11
0.597638
21
0.580167
0
LINE
8
BLACK
6
CONTINUOUS
10
0.597638
20
0.580167
11
0.59833
21
0.581838
0
LINE
8
BLACK
6
CONTINUOUS
10
0.59833
20
0.581838
11
0.6
21
0.58253
0
LINE
8
BLACK
6
CONTINUOUS
10
0.6
20
0.58253
11
0.60167
21
0.581838
0
LINE
8
BLACK
6
CONTINUOUS
10
0.659544
20
0.581838
11
0.660236
21
0.580167
0
LINE
8
BLACK
6
CONTINUOUS
10
0.660236
20
0.580167
11
0.660236
21
0.559596
0
LINE
8
BLACK
6
CONTINUOUS
10
0.660236
20
0.559596
11
0.659544
21
0.557926
0
LINE
8
BLACK
6
CONTINUOUS
10
0.659544
20
0.557926
11
0.657874
21
0.557234
0
LINE
8
BLACK
6
CONTINUOUS
10
0.657874
20
0.557234
11
0.656204
21
0.557926
0
LINE
8
BLACK
6
CONTINUOUS
10
0.656204
20
0.557926
11
0.655512
21
0.559596
0
LINE
8
BLACK
6
CONTINUOUS
10
0.655512
20
0.559596
11
0.655512
21
0.580167
0
LINE
8
BLACK
6
CONTINUOUS
10
0.655512
20
0.580167
11
0.656204
21
0.581838
0
LINE
8
BLACK
6
CONTINUOUS
10
0.656204
20
0.581838
11
0.657874
21
0.58253
0
LINE
8
BLACK
6
CONTINUOUS
10
0.657874
20
0.58253
11
0.659544
21
0.581838
0
LINE
8
BLACK
6
CONTINUOUS
10
0.686316
20
0.581838
11
0.687008
21
0.580167
0
LINE
8
BLACK
6
CONTINUOUS
10
0.687008
20
0.580167
11
0.687008
21
0.559596
0
LINE
8
BLACK
6
CONTINUOUS
10
0.687008
20
0.559596
11
0.686316
21
0.557926
0
LINE
8
BLACK
6
CONTINUOUS
10
0.686316
20
0.557926
11
0.684646
21
0.557234
0
LINE
8
BLACK
6
CONTINUOUS
10
0.684646
20
0.557234
11
0.682975
21
0.557926
0
LINE
8
BLACK
6
CONTINUOUS
10
0.682975
20
0.557926
11
0.682283
21
0.559596
0
LINE
8
BLACK
6
CONTINUOUS
10
0.682283
20
0.559596
11
0.682283
21
0.580167
0
LINE
8
BLACK
6
CONTINUOUS
10
0.682283
20
0.580167
11
0.682975
21
0.581838
0
LINE
8
BLACK
6
CONTINUOUS
10
0.682975
20
0.581838
11
0.684646
21
0.58253
0
LINE
8
BLACK
6
CONTINUOUS
10
0.684646
20
0.58253
11
0.686316
21
0.581838
0
LINE
8
BLACK
6
CONTINUOUS
10
0.74419
20
0.581838
11
0.744882
21
0.580167
0
LINE
8
BLACK
6
CONTINUOUS
10
0.744882
20
0.580167
11
0.744882
21
0.559596
0
LINE
8
BLACK
6
CONTINUOUS
10
0.744882
20
0.559596
11
0.74419
21
0.557926
0
LINE
8
BLACK
6
CONTINUOUS
10
0.74419
20
0.557926
11
0.74252
21
0.557234
0
LINE
8
BLACK
6
CONTINUOUS
10
0.74252
20
0.557234
11
0.740849
21
0.557926
0
LINE
8
BLACK
6
CONTINUOUS
10
0.740849
20
0.557926
11
0.740157
21
0.559596
0
LINE
8
BLACK
6
CONTINUOUS
10
0.740157
20
0.559596
11
0.740157
21
0.580167
0
LINE
8
BLACK
6
CONTINUOUS
10
0.740157
20
0.580167
11
0.740849
21
0.581838
0
LINE
8
BLACK
6
CONTINUOUS
10
0.740849
20
0.581838
11
0.74252
21
0.58253
0
LINE
8
BLACK
6
CONTINUOUS
10
0.74252
20
0.58253
11
0.74419
21
0.581838
0
LINE
8
BLACK
6
CONTINUOUS
10
0.542146
20
0.605424
11
0.542495
21
0.605404
0
LINE
8
BLACK
6
CONTINUOUS
10
0.542495
20
0.605404
11
0.581865
21
0.588531
0
LINE
8
BLACK
6
CONTINUOUS
10
0.581865
20
0.588531
11
0.582723
21
0.58797
0
LINE
8
BLACK
6
CONTINUOUS
10
0.582723
20
0.58797
11
0.583634
21
0.586167
0
LINE
8
BLACK
6
CONTINUOUS
10
0.583634
20
0.586167
11
0.583172
21
0.584201
0
LINE
8
BLACK
6
CONTINUOUS
10
0.583172
20
0.584201
11
0.581555
21
0.582991
0
LINE
8
BLACK
6
CONTINUOUS
10
0.581555
20
0.582991
11
0.579538
21
0.583103
0
LINE
8
BLACK
6
CONTINUOUS
10
0.579538
20
0.583103
11
0.544284
21
0.598212
0
LINE
8
BLACK
6
CONTINUOUS
10
0.544284
20
0.598212
11
0.544284
21
0.576444
0
LINE
8
BLACK
6
CONTINUOUS
10
0.544284
20
0.576444
11
0.544106
21
0.575434
0
LINE
8
BLACK
6
CONTINUOUS
10
0.544106
20
0.575434
11
0.542808
21
0.573886
0
LINE
8
BLACK
6
CONTINUOUS
10
0.542808
20
0.573886
11
0.540819
21
0.573536
0
LINE
8
BLACK
6
CONTINUOUS
10
0.540819
20
0.573536
11
0.53907
21
0.574546
0
LINE
8
BLACK
6
CONTINUOUS
10
0.53907
20
0.574546
11
0.538379
21
0.576444
0
LINE
8
BLACK
6
CONTINUOUS
10
0.538379
20
0.576444
11
0.538379
21
0.60269
0
LINE
8
BLACK
6
CONTINUOUS
10
0.538379
20
0.60269
11
0.538557
21
0.6037
0
LINE
8
BLACK
6
CONTINUOUS
10
0.538557
20
0.6037
11
0.538781
21
0.603967
0
LINE
8
BLACK
6
CONTINUOUS
10
0.538781
20
0.603967
11
0.538861
21
0.604307
0
LINE
8
BLACK
6
CONTINUOUS
10
0.538861
20
0.604307
11
0.539412
21
0.60472
0
LINE
8
BLACK
6
CONTINUOUS
10
0.539412
20
0.60472
11
0.539855
21
0.605247
0
LINE
8
BLACK
6
CONTINUOUS
10
0.539855
20
0.605247
11
0.540199
21
0.605308
0
LINE
8
BLACK
6
CONTINUOUS
10
0.540199
20
0.605308
11
0.540478
21
0.605517
0
LINE
8
BLACK
6
CONTINUOUS
10
0.540478
20
0.605517
11
0.541166
21
0.605479
0
LINE
8
BLACK
6
CONTINUOUS
10
0.541166
20
0.605479
11
0.541844
21
0.605598
0
LINE
8
BLACK
6
CONTINUOUS
10
0.541844
20
0.605598
11
0.542146
21
0.605424
0
LINE
8
BLACK
6
CONTINUOUS
10
1.1086
20
0.618727
11
1.10873
21
0.618613
0
LINE
8
BLACK
6
CONTINUOUS
10
1.10873
20
0.618613
11
1.10891
21
0.618593
0
LINE
8
BLACK
6
CONTINUOUS
10
1.10891
20
0.618593
11
1.11266
21
0.616718
0
LINE
8
BLACK
6
CONTINUOUS
10
1.11266
20
0.616718
11
1.11337
21
0.616192
0
LINE
8
BLACK
6
CONTINUOUS
10
1.11337
20
0.616192
11
1.11343
21
0.616165
0
LINE
8
BLACK
6
CONTINUOUS
10
1.11343
20
0.616165
11
1.1153
21
0.61429
0
LINE
8
BLACK
6
CONTINUOUS
10
1.1153
20
0.61429
11
1.11581
21
0.613567
0
LINE
8
BLACK
6
CONTINUOUS
10
1.11581
20
0.613567
11
1.11585
21
0.613523
0
LINE
8
BLACK
6
CONTINUOUS
10
1.11585
20
0.613523
11
1.11773
21
0.609773
0
LINE
8
BLACK
6
CONTINUOUS
10
1.11773
20
0.609773
11
1.11802
21
0.608791
0
LINE
8
BLACK
6
CONTINUOUS
10
1.11802
20
0.608791
11
1.11798
21
0.608619
0
LINE
8
BLACK
6
CONTINUOUS
10
1.11798
20
0.608619
11
1.11804
21
0.608453
0
LINE
8
BLACK
6
CONTINUOUS
10
1.11804
20
0.608453
11
1.11804
21
0.604703
0
LINE
8
BLACK
6
CONTINUOUS
10
1.11804
20
0.604703
11
1.11789
21
0.603834
0
LINE
8
BLACK
6
CONTINUOUS
10
1.11789
20
0.603834
11
1.11789
21
0.60377
0
LINE
8
BLACK
6
CONTINUOUS
10
1.11789
20
0.60377
11
1.11601
21
0.598145
0
LINE
8
BLACK
6
CONTINUOUS
10
1.11601
20
0.598145
11
1.11553
21
0.597244
0
LINE
8
BLACK
6
CONTINUOUS
10
1.11553
20
0.597244
11
1.11537
21
0.597151
0
LINE
8
BLACK
6
CONTINUOUS
10
1.11537
20
0.597151
11
1.1153
21
0.596991
0
LINE
8
BLACK
6
CONTINUOUS
10
1.1153
20
0.596991
11
1.09784
21
0.579535
0
LINE
8
BLACK
6
CONTINUOUS
10
1.09784
20
0.579535
11
1.11509
21
0.579535
0
LINE
8
BLACK
6
CONTINUOUS
10
1.11509
20
0.579535
11
1.1161
21
0.579357
0
LINE
8
BLACK
6
CONTINUOUS
10
1.1161
20
0.579357
11
1.11764
21
0.578058
0
LINE
8
BLACK
6
CONTINUOUS
10
1.11764
20
0.578058
11
1.118
21
0.576069
0
LINE
8
BLACK
6
CONTINUOUS
10
1.118
20
0.576069
11
1.11699
21
0.57432
0
LINE
8
BLACK
6
CONTINUOUS
10
1.11699
20
0.57432
11
1.11509
21
0.573629
0
LINE
8
BLACK
6
CONTINUOUS
10
1.11509
20
0.573629
11
1.09072
21
0.573629
0
LINE
8
BLACK
6
CONTINUOUS
10
1.09072
20
0.573629
11
1.09008
21
0.573741
0
LINE
8
BLACK
6
CONTINUOUS
10
1.09008
20
0.573741
11
1.08995
21
0.57373
0
LINE
8
BLACK
6
CONTINUOUS
10
1.08995
20
0.57373
11
1.08989
21
0.573775
0
LINE
8
BLACK
6
CONTINUOUS
10
1.08989
20
0.573775
11
1.08971
21
0.573807
0
LINE
8
BLACK
6
CONTINUOUS
10
1.08971
20
0.573807
11
1.08902
21
0.574379
0
LINE
8
BLACK
6
CONTINUOUS
10
1.08902
20
0.574379
11
1.0883
21
0.574888
0
LINE
8
BLACK
6
CONTINUOUS
10
1.0883
20
0.574888
11
1.08826
21
0.575019
0
LINE
8
BLACK
6
CONTINUOUS
10
1.08826
20
0.575019
11
1.08816
21
0.575106
0
LINE
8
BLACK
6
CONTINUOUS
10
1.08816
20
0.575106
11
1.088
21
0.575981
0
LINE
8
BLACK
6
CONTINUOUS
10
1.088
20
0.575981
11
1.08777
21
0.576839
0
LINE
8
BLACK
6
CONTINUOUS
10
1.08777
20
0.576839
11
1.08783
21
0.576962
0
LINE
8
BLACK
6
CONTINUOUS
10
1.08783
20
0.576962
11
1.08781
21
0.577095
0
LINE
8
BLACK
6
CONTINUOUS
10
1.08781
20
0.577095
11
1.08825
21
0.577865
0
LINE
8
BLACK
6
CONTINUOUS
10
1.08825
20
0.577865
11
1.08863
21
0.57867
0
LINE
8
BLACK
6
CONTINUOUS
10
1.08863
20
0.57867
11
1.11063
21
0.600674
0
LINE
8
BLACK
6
CONTINUOUS
10
1.11063
20
0.600674
11
1.11213
21
0.605183
0
LINE
8
BLACK
6
CONTINUOUS
10
1.11213
20
0.605183
11
1.11213
21
0.607756
0
LINE
8
BLACK
6
CONTINUOUS
10
1.11213
20
0.607756
11
1.11079
21
0.610453
0
LINE
8
BLACK
6
CONTINUOUS
10
1.11079
20
0.610453
11
1.10959
21
0.611651
0
LINE
8
BLACK
6
CONTINUOUS
10
1.10959
20
0.611651
11
1.10689
21
0.612999
0
LINE
8
BLACK
6
CONTINUOUS
10
1.10689
20
0.612999
11
1.09891
21
0.612999
0
LINE
8
BLACK
6
CONTINUOUS
10
1.09891
20
0.612999
11
1.09621
21
0.611651
0
LINE
8
BLACK
6
CONTINUOUS
10
1.09621
20
0.611651
11
1.09468
21
0.610115
0
LINE
8
BLACK
6
CONTINUOUS
10
1.09468
20
0.610115
11
1.09384
21
0.609526
0
LINE
8
BLACK
6
CONTINUOUS
10
1.09384
20
0.609526
11
1.09183
21
0.60935
0
LINE
8
BLACK
6
CONTINUOUS
10
1.09183
20
0.60935
11
1.09017
21
0.610509
0
LINE
8
BLACK
6
CONTINUOUS
10
1.09017
20
0.610509
11
1.08965
21
0.61246
0
LINE
8
BLACK
6
CONTINUOUS
10
1.08965
20
0.61246
11
1.0905
21
0.61429
0
LINE
8
BLACK
6
CONTINUOUS
10
1.0905
20
0.61429
11
1.09238
21
0.616165
0
LINE
8
BLACK
6
CONTINUOUS
10
1.09238
20
0.616165
11
1.0931
21
0.616671
0
LINE
8
BLACK
6
CONTINUOUS
10
1.0931
20
0.616671
11
1.09314
21
0.616718
0
LINE
8
BLACK
6
CONTINUOUS
10
1.09314
20
0.616718
11
1.09689
21
0.618593
0
LINE
8
BLACK
6
CONTINUOUS
10
1.09689
20
0.618593
11
1.09788
21
0.618885
0
LINE
8
BLACK
6
CONTINUOUS
10
1.09788
20
0.618885
11
1.09805
21
0.618844
0
LINE
8
BLACK
6
CONTINUOUS
10
1.09805
20
0.618844
11
1.09821
21
0.618905
0
LINE
8
BLACK
6
CONTINUOUS
10
1.09821
20
0.618905
11
1.10759
21
0.618905
0
LINE
8
BLACK
6
CONTINUOUS
10
1.10759
20
0.618905
11
1.1086
21
0.618727
0
LINE
8
BLACK
6
CONTINUOUS
10
1.0711
20
0.618727
11
1.07124
21
0.618613
0
LINE
8
BLACK
6
CONTINUOUS
10
1.07124
20
0.618613
11
1.07141
21
0.618593
0
LINE
8
BLACK
6
CONTINUOUS
10
1.07141
20
0.618593
11
1.07516
21
0.616718
0
LINE
8
BLACK
6
CONTINUOUS
10
1.07516
20
0.616718
11
1.07587
21
0.616192
0
LINE
8
BLACK
6
CONTINUOUS
10
1.07587
20
0.616192
11
1.07593
21
0.616165
0
LINE
8
BLACK
6
CONTINUOUS
10
1.07593
20
0.616165
11
1.0778
21
0.61429
0
LINE
8
BLACK
6
CONTINUOUS
10
1.0778
20
0.61429
11
1.07831
21
0.613567
0
LINE
8
BLACK
6
CONTINUOUS
10
1.07831
20
0.613567
11
1.07836
21
0.613523
0
LINE
8
BLACK
6
CONTINUOUS
10
1.07836
20
0.613523
11
1.08023
21
0.609773
0
LINE
8
BLACK
6
CONTINUOUS
10
1.08023
20
0.609773
11
1.08053
21
0.608791
0
LINE
8
BLACK
6
CONTINUOUS
10
1.08053
20
0.608791
11
1.08048
21
0.608619
0
LINE
8
BLACK
6
CONTINUOUS
10
1.08048
20
0.608619
11
1.08054
21
0.608453
0
LINE
8
BLACK
6
CONTINUOUS
10
1.08054
20
0.608453
11
1.08054
21
0.602829
0
LINE
8
BLACK
6
CONTINUOUS
10
1.08054
20
0.602829
11
1.08037
21
0.601819
0
LINE
8
BLACK
6
CONTINUOUS
10
1.08037
20
0.601819
11
1.08025
21
0.601684
0
LINE
8
BLACK
6
CONTINUOUS
10
1.08025
20
0.601684
11
1.08023
21
0.601508
0
LINE
8
BLACK
6
CONTINUOUS
10
1.08023
20
0.601508
11
1.07836
21
0.597759
0
LINE
8
BLACK
6
CONTINUOUS
10
1.07836
20
0.597759
11
1.07783
21
0.59705
0
LINE
8
BLACK
6
CONTINUOUS
10
1.07783
20
0.59705
11
1.0778
21
0.596991
0
LINE
8
BLACK
6
CONTINUOUS
10
1.0778
20
0.596991
11
1.07593
21
0.595116
0
LINE
8
BLACK
6
CONTINUOUS
10
1.07593
20
0.595116
11
1.07521
21
0.59461
0
LINE
8
BLACK
6
CONTINUOUS
10
1.07521
20
0.59461
11
1.07516
21
0.594563
0
LINE
8
BLACK
6
CONTINUOUS
10
1.07516
20
0.594563
11
1.07141
21
0.592689
0
LINE
8
BLACK
6
CONTINUOUS
10
1.07141
20
0.592689
11
1.07043
21
0.592396
0
LINE
8
BLACK
6
CONTINUOUS
10
1.07043
20
0.592396
11
1.07026
21
0.592437
0
LINE
8
BLACK
6
CONTINUOUS
10
1.07026
20
0.592437
11
1.07013
21
0.59239
0
LINE
8
BLACK
6
CONTINUOUS
10
1.07013
20
0.59239
11
1.08001
21
0.578275
0
LINE
8
BLACK
6
CONTINUOUS
10
1.08001
20
0.578275
11
1.08044
21
0.577346
0
LINE
8
BLACK
6
CONTINUOUS
10
1.08044
20
0.577346
11
1.08027
21
0.575334
0
LINE
8
BLACK
6
CONTINUOUS
10
1.08027
20
0.575334
11
1.07884
21
0.573906
0
LINE
8
BLACK
6
CONTINUOUS
10
1.07884
20
0.573906
11
1.07683
21
0.57373
0
LINE
8
BLACK
6
CONTINUOUS
10
1.07683
20
0.57373
11
1.07517
21
0.574889
0
LINE
8
BLACK
6
CONTINUOUS
10
1.07517
20
0.574889
11
1.06293
21
0.592377
0
LINE
8
BLACK
6
CONTINUOUS
10
1.06293
20
0.592377
11
1.05805
21
0.592377
0
LINE
8
BLACK
6
CONTINUOUS
10
1.05805
20
0.592377
11
1.05805
21
0.576582
0
LINE
8
BLACK
6
CONTINUOUS
10
1.05805
20
0.576582
11
1.05787
21
0.575572
0
LINE
8
BLACK
6
CONTINUOUS
10
1.05787
20
0.575572
11
1.05657
21
0.574025
0
LINE
8
BLACK
6
CONTINUOUS
10
1.05657
20
0.574025
11
1.05458
21
0.573674
0
LINE
8
BLACK
6
CONTINUOUS
10
1.05458
20
0.573674
11
1.05283
21
0.574684
0
LINE
8
BLACK
6
CONTINUOUS
10
1.05283
20
0.574684
11
1.05214
21
0.576582
0
LINE
8
BLACK
6
CONTINUOUS
10
1.05214
20
0.576582
11
1.05214
21
0.615952
0
LINE
8
BLACK
6
CONTINUOUS
10
1.05214
20
0.615952
11
1.05221
21
0.616336
0
LINE
8
BLACK
6
CONTINUOUS
10
1.05221
20
0.616336
11
1.05219
21
0.616465
0
LINE
8
BLACK
6
CONTINUOUS
10
1.05219
20
0.616465
11
1.05225
21
0.616578
0
LINE
8
BLACK
6
CONTINUOUS
10
1.05225
20
0.616578
11
1.05232
21
0.616962
0
LINE
8
BLACK
6
CONTINUOUS
10
1.05232
20
0.616962
11
1.05281
21
0.61755
0
LINE
8
BLACK
6
CONTINUOUS
10
1.05281
20
0.61755
11
1.0532
21
0.618214
0
LINE
8
BLACK
6
CONTINUOUS
10
1.0532
20
0.618214
11
1.05345
21
0.618305
0
LINE
8
BLACK
6
CONTINUOUS
10
1.05345
20
0.618305
11
1.05362
21
0.618509
0
LINE
8
BLACK
6
CONTINUOUS
10
1.05362
20
0.618509
11
1.05437
21
0.618642
0
LINE
8
BLACK
6
CONTINUOUS
10
1.05437
20
0.618642
11
1.05509
21
0.618905
0
LINE
8
BLACK
6
CONTINUOUS
10
1.05509
20
0.618905
11
1.07009
21
0.618905
0
LINE
8
BLACK
6
CONTINUOUS
10
1.07009
20
0.618905
11
1.0711
21
0.618727
0
LINE
8
BLACK
6
CONTINUOUS
10
1.05805
20
0.598282
11
1.0694
21
0.598282
0
LINE
8
BLACK
6
CONTINUOUS
10
1.0694
20
0.598282
11
1.07209
21
0.599631
0
LINE
8
BLACK
6
CONTINUOUS
10
1.07209
20
0.599631
11
1.07329
21
0.600828
0
LINE
8
BLACK
6
CONTINUOUS
10
1.07329
20
0.600828
11
1.07464
21
0.603526
0
LINE
8
BLACK
6
CONTINUOUS
10
1.07464
20
0.603526
11
1.07464
21
0.607756
0
LINE
8
BLACK
6
CONTINUOUS
10
1.07464
20
0.607756
11
1.07329
21
0.610453
0
LINE
8
BLACK
6
CONTINUOUS
10
1.07329
20
0.610453
11
1.07209
21
0.611651
0
LINE
8
BLACK
6
CONTINUOUS
10
1.07209
20
0.611651
11
1.0694
21
0.612999
0
LINE
8
BLACK
6
CONTINUOUS
10
1.0694
20
0.612999
11
1.05805
21
0.612999
0
LINE
8
BLACK
6
CONTINUOUS
10
1.05805
20
0.612999
11
1.05805
21
0.598282
0
LINE
8
BLACK
6
CONTINUOUS
10
0.761558
20
0.60359
11
0.761693
21
0.603477
0
LINE
8
BLACK
6
CONTINUOUS
10
0.761693
20
0.603477
11
0.761868
21
0.603457
0
LINE
8
BLACK
6
CONTINUOUS
10
0.761868
20
0.603457
11
0.765618
21
0.601582
0
LINE
8
BLACK
6
CONTINUOUS
10
0.765618
20
0.601582
11
0.766327
21
0.601056
0
LINE
8
BLACK
6
CONTINUOUS
10
0.766327
20
0.601056
11
0.766385
21
0.601029
0
LINE
8
BLACK
6
CONTINUOUS
10
0.766385
20
0.601029
11
0.768047
21
0.599367
0
LINE
8
BLACK
6
CONTINUOUS
10
0.768047
20
0.599367
11
0.769708
21
0.601029
0
LINE
8
BLACK
6
CONTINUOUS
10
0.769708
20
0.601029
11
0.770432
21
0.601535
0
LINE
8
BLACK
6
CONTINUOUS
10
0.770432
20
0.601535
11
0.770476
21
0.601582
0
LINE
8
BLACK
6
CONTINUOUS
10
0.770476
20
0.601582
11
0.774225
21
0.603457
0
LINE
8
BLACK
6
CONTINUOUS
10
0.774225
20
0.603457
11
0.775208
21
0.603749
0
LINE
8
BLACK
6
CONTINUOUS
10
0.775208
20
0.603749
11
0.77538
21
0.603708
0
LINE
8
BLACK
6
CONTINUOUS
10
0.77538
20
0.603708
11
0.775546
21
0.603768
0
LINE
8
BLACK
6
CONTINUOUS
10
0.775546
20
0.603768
11
0.783045
21
0.603768
0
LINE
8
BLACK
6
CONTINUOUS
10
0.783045
20
0.603768
11
0.784055
21
0.60359
0
LINE
8
BLACK
6
CONTINUOUS
10
0.784055
20
0.60359
11
0.78419
21
0.603477
0
LINE
8
BLACK
6
CONTINUOUS
10
0.78419
20
0.603477
11
0.784365
21
0.603457
0
LINE
8
BLACK
6
CONTINUOUS
10
0.784365
20
0.603457
11
0.788115
21
0.601582
0
LINE
8
BLACK
6
CONTINUOUS
10
0.788115
20
0.601582
11
0.788824
21
0.601056
0
LINE
8
BLACK
6
CONTINUOUS
10
0.788824
20
0.601056
11
0.788882
21
0.601029
0
LINE
8
BLACK
6
CONTINUOUS
10
0.788882
20
0.601029
11
0.790757
21
0.599154
0
LINE
8
BLACK
6
CONTINUOUS
10
0.790757
20
0.599154
11
0.791264
21
0.598431
0
LINE
8
BLACK
6
CONTINUOUS
10
0.791264
20
0.598431
11
0.79131
21
0.598387
0
LINE
8
BLACK
6
CONTINUOUS
10
0.79131
20
0.598387
11
0.793185
21
0.594637
0
LINE
8
BLACK
6
CONTINUOUS
10
0.793185
20
0.594637
11
0.793477
21
0.593654
0
LINE
8
BLACK
6
CONTINUOUS
10
0.793477
20
0.593654
11
0.793436
21
0.593482
0
LINE
8
BLACK
6
CONTINUOUS
10
0.793436
20
0.593482
11
0.793497
21
0.593316
0
LINE
8
BLACK
6
CONTINUOUS
10
0.793497
20
0.593316
11
0.793497
21
0.585817
0
LINE
8
BLACK
6
CONTINUOUS
10
0.793497
20
0.585817
11
0.793319
21
0.584808
0
LINE
8
BLACK
6
CONTINUOUS
10
0.793319
20
0.584808
11
0.793205
21
0.584672
0
LINE
8
BLACK
6
CONTINUOUS
10
0.793205
20
0.584672
11
0.793185
21
0.584497
0
LINE
8
BLACK
6
CONTINUOUS
10
0.793185
20
0.584497
11
0.79131
21
0.580747
0
LINE
8
BLACK
6
CONTINUOUS
10
0.79131
20
0.580747
11
0.790784
21
0.580038
0
LINE
8
BLACK
6
CONTINUOUS
10
0.790784
20
0.580038
11
0.790757
21
0.57998
0
LINE
8
BLACK
6
CONTINUOUS
10
0.790757
20
0.57998
11
0.788882
21
0.578105
0
LINE
8
BLACK
6
CONTINUOUS
10
0.788882
20
0.578105
11
0.788159
21
0.577599
0
LINE
8
BLACK
6
CONTINUOUS
10
0.788159
20
0.577599
11
0.788115
21
0.577552
0
LINE
8
BLACK
6
CONTINUOUS
10
0.788115
20
0.577552
11
0.784365
21
0.575677
0
LINE
8
BLACK
6
CONTINUOUS
10
0.784365
20
0.575677
11
0.783383
21
0.575385
0
LINE
8
BLACK
6
CONTINUOUS
10
0.783383
20
0.575385
11
0.783211
21
0.575426
0
LINE
8
BLACK
6
CONTINUOUS
10
0.783211
20
0.575426
11
0.783045
21
0.575366
0
LINE
8
BLACK
6
CONTINUOUS
10
0.783045
20
0.575366
11
0.775546
21
0.575366
0
LINE
8
BLACK
6
CONTINUOUS
10
0.775546
20
0.575366
11
0.774536
21
0.575544
0
LINE
8
BLACK
6
CONTINUOUS
10
0.774536
20
0.575544
11
0.774401
21
0.575657
0
LINE
8
BLACK
6
CONTINUOUS
10
0.774401
20
0.575657
11
0.774225
21
0.575677
0
LINE
8
BLACK
6
CONTINUOUS
10
0.774225
20
0.575677
11
0.770476
21
0.577552
0
LINE
8
BLACK
6
CONTINUOUS
10
0.770476
20
0.577552
11
0.769767
21
0.578078
0
LINE
8
BLACK
6
CONTINUOUS
10
0.769767
20
0.578078
11
0.769708
21
0.578105
0
LINE
8
BLACK
6
CONTINUOUS
10
0.769708
20
0.578105
11
0.768047
21
0.579767
0
LINE
8
BLACK
6
CONTINUOUS
10
0.768047
20
0.579767
11
0.766385
21
0.578105
0
LINE
8
BLACK
6
CONTINUOUS
10
0.766385
20
0.578105
11
0.765662
21
0.577599
0
LINE
8
BLACK
6
CONTINUOUS
10
0.765662
20
0.577599
11
0.765618
21
0.577552
0
LINE
8
BLACK
6
CONTINUOUS
10
0.765618
20
0.577552
11
0.761868
21
0.575677
0
LINE
8
BLACK
6
CONTINUOUS
10
0.761868
20
0.575677
11
0.760885
21
0.575385
0
LINE
8
BLACK
6
CONTINUOUS
10
0.760885
20
0.575385
11
0.760714
21
0.575426
0
LINE
8
BLACK
6
CONTINUOUS
10
0.760714
20
0.575426
11
0.760548
21
0.575366
0
LINE
8
BLACK
6
CONTINUOUS
10
0.760548
20
0.575366
11
0.758673
21
0.575366
0
LINE
8
BLACK
6
CONTINUOUS
10
0.758673
20
0.575366
11
0.757663
21
0.575544
0
LINE
8
BLACK
6
CONTINUOUS
10
0.757663
20
0.575544
11
0.757528
21
0.575657
0
LINE
8
BLACK
6
CONTINUOUS
10
0.757528
20
0.575657
11
0.757353
21
0.575677
0
LINE
8
BLACK
6
CONTINUOUS
10
0.757353
20
0.575677
11
0.753603
21
0.577552
0
LINE
8
BLACK
6
CONTINUOUS
10
0.753603
20
0.577552
11
0.752894
21
0.578078
0
LINE
8
BLACK
6
CONTINUOUS
10
0.752894
20
0.578078
11
0.752836
21
0.578105
0
LINE
8
BLACK
6
CONTINUOUS
10
0.752836
20
0.578105
11
0.750961
21
0.57998
0
LINE
8
BLACK
6
CONTINUOUS
10
0.750961
20
0.57998
11
0.750455
21
0.580703
0
LINE
8
BLACK
6
CONTINUOUS
10
0.750455
20
0.580703
11
0.750408
21
0.580747
0
LINE
8
BLACK
6
CONTINUOUS
10
0.750408
20
0.580747
11
0.748533
21
0.584497
0
LINE
8
BLACK
6
CONTINUOUS
10
0.748533
20
0.584497
11
0.748241
21
0.58548
0
LINE
8
BLACK
6
CONTINUOUS
10
0.748241
20
0.58548
11
0.748282
21
0.585652
0
LINE
8
BLACK
6
CONTINUOUS
10
0.748282
20
0.585652
11
0.748221
21
0.585817
0
LINE
8
BLACK
6
CONTINUOUS
10
0.748221
20
0.585817
11
0.748221
21
0.593316
0
LINE
8
BLACK
6
CONTINUOUS
10
0.748221
20
0.593316
11
0.748399
21
0.594326
0
LINE
8
BLACK
6
CONTINUOUS
10
0.748399
20
0.594326
11
0.748513
21
0.594462
0
LINE
8
BLACK
6
CONTINUOUS
10
0.748513
20
0.594462
11
0.748533
21
0.594637
0
LINE
8
BLACK
6
CONTINUOUS
10
0.748533
20
0.594637
11
0.750408
21
0.598387
0
LINE
8
BLACK
6
CONTINUOUS
10
0.750408
20
0.598387
11
0.750934
21
0.599096
0
LINE
8
BLACK
6
CONTINUOUS
10
0.750934
20
0.599096
11
0.750961
21
0.599154
0
LINE
8
BLACK
6
CONTINUOUS
10
0.750961
20
0.599154
11
0.752836
21
0.601029
0
LINE
8
BLACK
6
CONTINUOUS
10
0.752836
20
0.601029
11
0.753559
21
0.601535
0
LINE
8
BLACK
6
CONTINUOUS
10
0.753559
20
0.601535
11
0.753603
21
0.601582
0
LINE
8
BLACK
6
CONTINUOUS
10
0.753603
20
0.601582
11
0.757353
21
0.603457
0
LINE
8
BLACK
6
CONTINUOUS
10
0.757353
20
0.603457
11
0.758335
21
0.603749
0
LINE
8
BLACK
6
CONTINUOUS
10
0.758335
20
0.603749
11
0.758507
21
0.603708
0
LINE
8
BLACK
6
CONTINUOUS
10
0.758507
20
0.603708
11
0.758673
21
0.603768
0
LINE
8
BLACK
6
CONTINUOUS
10
0.758673
20
0.603768
11
0.760548
21
0.603768
0
LINE
8
BLACK
6
CONTINUOUS
10
0.760548
20
0.603768
11
0.761558
21
0.60359
0
LINE
8
BLACK
6
CONTINUOUS
10
0.756673
20
0.596514
11
0.755475
21
0.595317
0
LINE
8
BLACK
6
CONTINUOUS
10
0.755475
20
0.595317
11
0.754127
21
0.592619
0
LINE
8
BLACK
6
CONTINUOUS
10
0.754127
20
0.592619
11
0.754127
21
0.586514
0
LINE
8
BLACK
6
CONTINUOUS
10
0.754127
20
0.586514
11
0.755475
21
0.583817
0
LINE
8
BLACK
6
CONTINUOUS
10
0.755475
20
0.583817
11
0.756673
21
0.58262
0
LINE
8
BLACK
6
CONTINUOUS
10
0.756673
20
0.58262
11
0.75937
21
0.581271
0
LINE
8
BLACK
6
CONTINUOUS
10
0.75937
20
0.581271
11
0.759851
21
0.581271
0
LINE
8
BLACK
6
CONTINUOUS
10
0.759851
20
0.581271
11
0.762548
21
0.58262
0
LINE
8
BLACK
6
CONTINUOUS
10
0.762548
20
0.58262
11
0.763745
21
0.583817
0
LINE
8
BLACK
6
CONTINUOUS
10
0.763745
20
0.583817
11
0.765094
21
0.586514
0
LINE
8
BLACK
6
CONTINUOUS
10
0.765094
20
0.586514
11
0.765094
21
0.592619
0
LINE
8
BLACK
6
CONTINUOUS
10
0.765094
20
0.592619
11
0.763745
21
0.595317
0
LINE
8
BLACK
6
CONTINUOUS
10
0.763745
20
0.595317
11
0.762548
21
0.596514
0
LINE
8
BLACK
6
CONTINUOUS
10
0.762548
20
0.596514
11
0.759851
21
0.597863
0
LINE
8
BLACK
6
CONTINUOUS
10
0.759851
20
0.597863
11
0.75937
21
0.597863
0
LINE
8
BLACK
6
CONTINUOUS
10
0.75937
20
0.597863
11
0.756673
21
0.596514
0
LINE
8
BLACK
6
CONTINUOUS
10
0.773545
20
0.596514
11
0.772348
21
0.595317
0
LINE
8
BLACK
6
CONTINUOUS
10
0.772348
20
0.595317
11
0.771
21
0.592619
0
LINE
8
BLACK
6
CONTINUOUS
10
0.771
20
0.592619
11
0.771
21
0.586514
0
LINE
8
BLACK
6
CONTINUOUS
10
0.771
20
0.586514
11
0.772348
21
0.583817
0
LINE
8
BLACK
6
CONTINUOUS
10
0.772348
20
0.583817
11
0.773545
21
0.58262
0
LINE
8
BLACK
6
CONTINUOUS
10
0.773545
20
0.58262
11
0.776243
21
0.581271
0
LINE
8
BLACK
6
CONTINUOUS
10
0.776243
20
0.581271
11
0.782348
21
0.581271
0
LINE
8
BLACK
6
CONTINUOUS
10
0.782348
20
0.581271
11
0.785045
21
0.58262
0
LINE
8
BLACK
6
CONTINUOUS
10
0.785045
20
0.58262
11
0.786243
21
0.583817
0
LINE
8
BLACK
6
CONTINUOUS
10
0.786243
20
0.583817
11
0.787591
21
0.586514
0
LINE
8
BLACK
6
CONTINUOUS
10
0.787591
20
0.586514
11
0.787591
21
0.592619
0
LINE
8
BLACK
6
CONTINUOUS
10
0.787591
20
0.592619
11
0.786243
21
0.595317
0
LINE
8
BLACK
6
CONTINUOUS
10
0.786243
20
0.595317
11
0.785045
21
0.596514
0
LINE
8
BLACK
6
CONTINUOUS
10
0.785045
20
0.596514
11
0.782348
21
0.597863
0
LINE
8
BLACK
6
CONTINUOUS
10
0.782348
20
0.597863
11
0.776243
21
0.597863
0
LINE
8
BLACK
6
CONTINUOUS
10
0.776243
20
0.597863
11
0.773545
21
0.596514
0
LINE
8
BLACK
6
CONTINUOUS
10
0.963928
20
0.620799
11
0.964095
21
0.620828
0
LINE
8
BLACK
6
CONTINUOUS
10
0.964095
20
0.620828
11
0.964837
21
0.6204
0
LINE
8
BLACK
6
CONTINUOUS
10
0.964837
20
0.6204
11
0.965622
21
0.620056
0
LINE
8
BLACK
6
CONTINUOUS
10
0.965622
20
0.620056
11
0.965698
21
0.619903
0
LINE
8
BLACK
6
CONTINUOUS
10
0.965698
20
0.619903
11
0.965845
21
0.619819
0
LINE
8
BLACK
6
CONTINUOUS
10
0.965845
20
0.619819
11
0.966138
21
0.619013
0
LINE
8
BLACK
6
CONTINUOUS
10
0.966138
20
0.619013
11
0.966518
21
0.618245
0
LINE
8
BLACK
6
CONTINUOUS
10
0.966518
20
0.618245
11
0.966477
21
0.61808
0
LINE
8
BLACK
6
CONTINUOUS
10
0.966477
20
0.61808
11
0.966535
21
0.617921
0
LINE
8
BLACK
6
CONTINUOUS
10
0.966535
20
0.617921
11
0.966535
21
0.581503
0
LINE
8
BLACK
6
CONTINUOUS
10
0.966535
20
0.581503
11
0.974831
21
0.581503
0
LINE
8
BLACK
6
CONTINUOUS
10
0.974831
20
0.581503
11
0.975841
21
0.581325
0
LINE
8
BLACK
6
CONTINUOUS
10
0.975841
20
0.581325
11
0.977388
21
0.580027
0
LINE
8
BLACK
6
CONTINUOUS
10
0.977388
20
0.580027
11
0.977739
21
0.578038
0
LINE
8
BLACK
6
CONTINUOUS
10
0.977739
20
0.578038
11
0.976729
21
0.576289
0
LINE
8
BLACK
6
CONTINUOUS
10
0.976729
20
0.576289
11
0.974831
21
0.575598
0
LINE
8
BLACK
6
CONTINUOUS
10
0.974831
20
0.575598
11
0.952334
21
0.575598
0
LINE
8
BLACK
6
CONTINUOUS
10
0.952334
20
0.575598
11
0.951324
21
0.575776
0
LINE
8
BLACK
6
CONTINUOUS
10
0.951324
20
0.575776
11
0.949777
21
0.577074
0
LINE
8
BLACK
6
CONTINUOUS
10
0.949777
20
0.577074
11
0.949426
21
0.579063
0
LINE
8
BLACK
6
CONTINUOUS
10
0.949426
20
0.579063
11
0.950436
21
0.580812
0
LINE
8
BLACK
6
CONTINUOUS
10
0.950436
20
0.580812
11
0.952334
21
0.581503
0
LINE
8
BLACK
6
CONTINUOUS
10
0.952334
20
0.581503
11
0.96063
21
0.581503
0
LINE
8
BLACK
6
CONTINUOUS
10
0.96063
20
0.581503
11
0.96063
21
0.608917
0
LINE
8
BLACK
6
CONTINUOUS
10
0.96063
20
0.608917
11
0.958172
21
0.606459
0
LINE
8
BLACK
6
CONTINUOUS
10
0.958172
20
0.606459
11
0.957448
21
0.605953
0
LINE
8
BLACK
6
CONTINUOUS
10
0.957448
20
0.605953
11
0.957404
21
0.605906
0
LINE
8
BLACK
6
CONTINUOUS
10
0.957404
20
0.605906
11
0.953655
21
0.604031
0
LINE
8
BLACK
6
CONTINUOUS
10
0.953655
20
0.604031
11
0.952672
21
0.603739
0
LINE
8
BLACK
6
CONTINUOUS
10
0.952672
20
0.603739
11
0.950707
21
0.604208
0
LINE
8
BLACK
6
CONTINUOUS
10
0.950707
20
0.604208
11
0.949504
21
0.60583
0
LINE
8
BLACK
6
CONTINUOUS
10
0.949504
20
0.60583
11
0.949625
21
0.607846
0
LINE
8
BLACK
6
CONTINUOUS
10
0.949625
20
0.607846
11
0.951014
21
0.609313
0
LINE
8
BLACK
6
CONTINUOUS
10
0.951014
20
0.609313
11
0.954335
21
0.610973
0
LINE
8
BLACK
6
CONTINUOUS
10
0.954335
20
0.610973
11
0.957538
21
0.614177
0
LINE
8
BLACK
6
CONTINUOUS
10
0.957538
20
0.614177
11
0.961126
21
0.619558
0
LINE
8
BLACK
6
CONTINUOUS
10
0.961126
20
0.619558
11
0.961834
21
0.6203
0
LINE
8
BLACK
6
CONTINUOUS
10
0.961834
20
0.6203
11
0.961997
21
0.620348
0
LINE
8
BLACK
6
CONTINUOUS
10
0.961997
20
0.620348
11
0.962106
21
0.620478
0
LINE
8
BLACK
6
CONTINUOUS
10
0.962106
20
0.620478
11
0.96295
21
0.620626
0
LINE
8
BLACK
6
CONTINUOUS
10
0.96295
20
0.620626
11
0.963773
21
0.620867
0
LINE
8
BLACK
6
CONTINUOUS
10
0.963773
20
0.620867
11
0.963928
21
0.620799
0
LINE
8
BLACK
6
CONTINUOUS
10
0.930847
20
0.620695
11
0.930982
21
0.620582
0
LINE
8
BLACK
6
CONTINUOUS
10
0.930982
20
0.620582
11
0.931157
21
0.620562
0
LINE
8
BLACK
6
CONTINUOUS
10
0.931157
20
0.620562
11
0.934907
21
0.618687
0
LINE
8
BLACK
6
CONTINUOUS
10
0.934907
20
0.618687
11
0.935616
21
0.618161
0
LINE
8
BLACK
6
CONTINUOUS
10
0.935616
20
0.618161
11
0.935674
21
0.618134
0
LINE
8
BLACK
6
CONTINUOUS
10
0.935674
20
0.618134
11
0.937549
21
0.616259
0
LINE
8
BLACK
6
CONTINUOUS
10
0.937549
20
0.616259
11
0.938055
21
0.615536
0
LINE
8
BLACK
6
CONTINUOUS
10
0.938055
20
0.615536
11
0.938102
21
0.615491
0
LINE
8
BLACK
6
CONTINUOUS
10
0.938102
20
0.615491
11
0.939977
21
0.611742
0
LINE
8
BLACK
6
CONTINUOUS
10
0.939977
20
0.611742
11
0.940269
21
0.610759
0
LINE
8
BLACK
6
CONTINUOUS
10
0.940269
20
0.610759
11
0.940228
21
0.610587
0
LINE
8
BLACK
6
CONTINUOUS
10
0.940228
20
0.610587
11
0.940289
21
0.610421
0
LINE
8
BLACK
6
CONTINUOUS
10
0.940289
20
0.610421
11
0.940289
21
0.604797
0
LINE
8
BLACK
6
CONTINUOUS
10
0.940289
20
0.604797
11
0.940111
21
0.603787
0
LINE
8
BLACK
6
CONTINUOUS
10
0.940111
20
0.603787
11
0.939997
21
0.603652
0
LINE
8
BLACK
6
CONTINUOUS
10
0.939997
20
0.603652
11
0.939977
21
0.603477
0
LINE
8
BLACK
6
CONTINUOUS
10
0.939977
20
0.603477
11
0.938102
21
0.599727
0
LINE
8
BLACK
6
CONTINUOUS
10
0.938102
20
0.599727
11
0.937576
21
0.599018
0
LINE
8
BLACK
6
CONTINUOUS
10
0.937576
20
0.599018
11
0.937549
21
0.59896
0
LINE
8
BLACK
6
CONTINUOUS
10
0.937549
20
0.59896
11
0.935674
21
0.597085
0
LINE
8
BLACK
6
CONTINUOUS
10
0.935674
20
0.597085
11
0.934951
21
0.596579
0
LINE
8
BLACK
6
CONTINUOUS
10
0.934951
20
0.596579
11
0.934907
21
0.596532
0
LINE
8
BLACK
6
CONTINUOUS
10
0.934907
20
0.596532
11
0.931157
21
0.594657
0
LINE
8
BLACK
6
CONTINUOUS
10
0.931157
20
0.594657
11
0.930174
21
0.594365
0
LINE
8
BLACK
6
CONTINUOUS
10
0.930174
20
0.594365
11
0.930003
21
0.594406
0
LINE
8
BLACK
6
CONTINUOUS
10
0.930003
20
0.594406
11
0.929874
21
0.594359
0
LINE
8
BLACK
6
CONTINUOUS
10
0.929874
20
0.594359
11
0.939755
21
0.580244
0
LINE
8
BLACK
6
CONTINUOUS
10
0.939755
20
0.580244
11
0.940188
21
0.579314
0
LINE
8
BLACK
6
CONTINUOUS
10
0.940188
20
0.579314
11
0.940012
21
0.577302
0
LINE
8
BLACK
6
CONTINUOUS
10
0.940012
20
0.577302
11
0.938583
21
0.575874
0
LINE
8
BLACK
6
CONTINUOUS
10
0.938583
20
0.575874
11
0.936571
21
0.575698
0
LINE
8
BLACK
6
CONTINUOUS
10
0.936571
20
0.575698
11
0.934917
21
0.576857
0
LINE
8
BLACK
6
CONTINUOUS
10
0.934917
20
0.576857
11
0.922675
21
0.594345
0
LINE
8
BLACK
6
CONTINUOUS
10
0.922675
20
0.594345
11
0.917792
21
0.594345
0
LINE
8
BLACK
6
CONTINUOUS
10
0.917792
20
0.594345
11
0.917792
21
0.57855
0
LINE
8
BLACK
6
CONTINUOUS
10
0.917792
20
0.57855
11
0.917613
21
0.577541
0
LINE
8
BLACK
6
CONTINUOUS
10
0.917613
20
0.577541
11
0.916315
21
0.575993
0
LINE
8
BLACK
6
CONTINUOUS
10
0.916315
20
0.575993
11
0.914326
21
0.575643
0
LINE
8
BLACK
6
CONTINUOUS
10
0.914326
20
0.575643
11
0.912577
21
0.576652
0
LINE
8
BLACK
6
CONTINUOUS
10
0.912577
20
0.576652
11
0.911886
21
0.57855
0
LINE
8
BLACK
6
CONTINUOUS
10
0.911886
20
0.57855
11
0.911886
21
0.617921
0
LINE
8
BLACK
6
CONTINUOUS
10
0.911886
20
0.617921
11
0.911954
21
0.618304
0
LINE
8
BLACK
6
CONTINUOUS
10
0.911954
20
0.618304
11
0.911931
21
0.618433
0
LINE
8
BLACK
6
CONTINUOUS
10
0.911931
20
0.618433
11
0.911996
21
0.618547
0
LINE
8
BLACK
6
CONTINUOUS
10
0.911996
20
0.618547
11
0.912064
21
0.61893
0
LINE
8
BLACK
6
CONTINUOUS
10
0.912064
20
0.61893
11
0.912557
21
0.619518
0
LINE
8
BLACK
6
CONTINUOUS
10
0.912557
20
0.619518
11
0.912941
21
0.620182
0
LINE
8
BLACK
6
CONTINUOUS
10
0.912941
20
0.620182
11
0.913191
21
0.620274
0
LINE
8
BLACK
6
CONTINUOUS
10
0.913191
20
0.620274
11
0.913362
21
0.620478
0
LINE
8
BLACK
6
CONTINUOUS
10
0.913362
20
0.620478
11
0.914118
21
0.620611
0
LINE
8
BLACK
6
CONTINUOUS
10
0.914118
20
0.620611
11
0.914839
21
0.620873
0
LINE
8
BLACK
6
CONTINUOUS
10
0.914839
20
0.620873
11
0.929837
21
0.620873
0
LINE
8
BLACK
6
CONTINUOUS
10
0.929837
20
0.620873
11
0.930847
21
0.620695
0
LINE
8
BLACK
6
CONTINUOUS
10
0.917792
20
0.600251
11
0.92914
21
0.600251
0
LINE
8
BLACK
6
CONTINUOUS
10
0.92914
20
0.600251
11
0.931837
21
0.6016
0
LINE
8
BLACK
6
CONTINUOUS
10
0.931837
20
0.6016
11
0.933034
21
0.602797
0
LINE
8
BLACK
6
CONTINUOUS
10
0.933034
20
0.602797
11
0.934383
21
0.605494
0
LINE
8
BLACK
6
CONTINUOUS
10
0.934383
20
0.605494
11
0.934383
21
0.609724
0
LINE
8
BLACK
6
CONTINUOUS
10
0.934383
20
0.609724
11
0.933034
21
0.612422
0
LINE
8
BLACK
6
CONTINUOUS
10
0.933034
20
0.612422
11
0.931837
21
0.613619
0
LINE
8
BLACK
6
CONTINUOUS
10
0.931837
20
0.613619
11
0.92914
21
0.614968
0
LINE
8
BLACK
6
CONTINUOUS
10
0.92914
20
0.614968
11
0.917792
21
0.614968
0
LINE
8
BLACK
6
CONTINUOUS
10
0.917792
20
0.614968
11
0.917792
21
0.600251
0
LINE
8
BLACK
6
CONTINUOUS
10
0.782084
20
0.67387
11
0.782149
21
0.673871
0
LINE
8
BLACK
6
CONTINUOUS
10
0.782149
20
0.673871
11
0.787773
21
0.671997
0
LINE
8
BLACK
6
CONTINUOUS
10
0.787773
20
0.671997
11
0.788675
21
0.671508
0
LINE
8
BLACK
6
CONTINUOUS
10
0.788675
20
0.671508
11
0.788767
21
0.671358
0
LINE
8
BLACK
6
CONTINUOUS
10
0.788767
20
0.671358
11
0.788927
21
0.671283
0
LINE
8
BLACK
6
CONTINUOUS
10
0.788927
20
0.671283
11
0.790802
21
0.669409
0
LINE
8
BLACK
6
CONTINUOUS
10
0.790802
20
0.669409
11
0.79139
21
0.668568
0
LINE
8
BLACK
6
CONTINUOUS
10
0.79139
20
0.668568
11
0.791566
21
0.666556
0
LINE
8
BLACK
6
CONTINUOUS
10
0.791566
20
0.666556
11
0.790408
21
0.664902
0
LINE
8
BLACK
6
CONTINUOUS
10
0.790408
20
0.664902
11
0.788457
21
0.664379
0
LINE
8
BLACK
6
CONTINUOUS
10
0.788457
20
0.664379
11
0.786626
21
0.665233
0
LINE
8
BLACK
6
CONTINUOUS
10
0.786626
20
0.665233
11
0.785244
21
0.666615
0
LINE
8
BLACK
6
CONTINUOUS
10
0.785244
20
0.666615
11
0.780736
21
0.668117
0
LINE
8
BLACK
6
CONTINUOUS
10
0.780736
20
0.668117
11
0.777944
21
0.668117
0
LINE
8
BLACK
6
CONTINUOUS
10
0.777944
20
0.668117
11
0.773436
21
0.666615
0
LINE
8
BLACK
6
CONTINUOUS
10
0.773436
20
0.666615
11
0.770518
21
0.663697
0
LINE
8
BLACK
6
CONTINUOUS
10
0.770518
20
0.663697
11
0.769003
21
0.660666
0
LINE
8
BLACK
6
CONTINUOUS
10
0.769003
20
0.660666
11
0.767295
21
0.653834
0
LINE
8
BLACK
6
CONTINUOUS
10
0.767295
20
0.653834
11
0.767295
21
0.648937
0
LINE
8
BLACK
6
CONTINUOUS
10
0.767295
20
0.648937
11
0.769003
21
0.642104
0
LINE
8
BLACK
6
CONTINUOUS
10
0.769003
20
0.642104
11
0.770518
21
0.639073
0
LINE
8
BLACK
6
CONTINUOUS
10
0.770518
20
0.639073
11
0.773436
21
0.636156
0
LINE
8
BLACK
6
CONTINUOUS
10
0.773436
20
0.636156
11
0.777944
21
0.634653
0
LINE
8
BLACK
6
CONTINUOUS
10
0.777944
20
0.634653
11
0.780736
21
0.634653
0
LINE
8
BLACK
6
CONTINUOUS
10
0.780736
20
0.634653
11
0.785244
21
0.636156
0
LINE
8
BLACK
6
CONTINUOUS
10
0.785244
20
0.636156
11
0.786626
21
0.637537
0
LINE
8
BLACK
6
CONTINUOUS
10
0.786626
20
0.637537
11
0.787466
21
0.638126
0
LINE
8
BLACK
6
CONTINUOUS
10
0.787466
20
0.638126
11
0.789478
21
0.638302
0
LINE
8
BLACK
6
CONTINUOUS
10
0.789478
20
0.638302
11
0.791133
21
0.637143
0
LINE
8
BLACK
6
CONTINUOUS
10
0.791133
20
0.637143
11
0.791655
21
0.635192
0
LINE
8
BLACK
6
CONTINUOUS
10
0.791655
20
0.635192
11
0.790802
21
0.633362
0
LINE
8
BLACK
6
CONTINUOUS
10
0.790802
20
0.633362
11
0.788927
21
0.631487
0
LINE
8
BLACK
6
CONTINUOUS
10
0.788927
20
0.631487
11
0.788087
21
0.630899
0
LINE
8
BLACK
6
CONTINUOUS
10
0.788087
20
0.630899
11
0.787911
21
0.630883
0
LINE
8
BLACK
6
CONTINUOUS
10
0.787911
20
0.630883
11
0.787773
21
0.630774
0
LINE
8
BLACK
6
CONTINUOUS
10
0.787773
20
0.630774
11
0.782149
21
0.628899
0
LINE
8
BLACK
6
CONTINUOUS
10
0.782149
20
0.628899
11
0.781275
21
0.628769
0
LINE
8
BLACK
6
CONTINUOUS
10
0.781275
20
0.628769
11
0.781215
21
0.628747
0
LINE
8
BLACK
6
CONTINUOUS
10
0.781215
20
0.628747
11
0.777465
21
0.628747
0
LINE
8
BLACK
6
CONTINUOUS
10
0.777465
20
0.628747
11
0.776596
21
0.628901
0
LINE
8
BLACK
6
CONTINUOUS
10
0.776596
20
0.628901
11
0.776532
21
0.628899
0
LINE
8
BLACK
6
CONTINUOUS
10
0.776532
20
0.628899
11
0.770907
21
0.630774
0
LINE
8
BLACK
6
CONTINUOUS
10
0.770907
20
0.630774
11
0.770006
21
0.631262
0
LINE
8
BLACK
6
CONTINUOUS
10
0.770006
20
0.631262
11
0.769913
21
0.631412
0
LINE
8
BLACK
6
CONTINUOUS
10
0.769913
20
0.631412
11
0.769753
21
0.631487
0
LINE
8
BLACK
6
CONTINUOUS
10
0.769753
20
0.631487
11
0.766004
21
0.635236
0
LINE
8
BLACK
6
CONTINUOUS
10
0.766004
20
0.635236
11
0.765497
21
0.63596
0
LINE
8
BLACK
6
CONTINUOUS
10
0.765497
20
0.63596
11
0.76545
21
0.636004
0
LINE
8
BLACK
6
CONTINUOUS
10
0.76545
20
0.636004
11
0.763576
21
0.639753
0
LINE
8
BLACK
6
CONTINUOUS
10
0.763576
20
0.639753
11
0.76343
21
0.640242
0
LINE
8
BLACK
6
CONTINUOUS
10
0.76343
20
0.640242
11
0.763352
21
0.640358
0
LINE
8
BLACK
6
CONTINUOUS
10
0.763352
20
0.640358
11
0.761477
21
0.647857
0
LINE
8
BLACK
6
CONTINUOUS
10
0.761477
20
0.647857
11
0.761436
21
0.648445
0
LINE
8
BLACK
6
CONTINUOUS
10
0.761436
20
0.648445
11
0.761389
21
0.648573
0
LINE
8
BLACK
6
CONTINUOUS
10
0.761389
20
0.648573
11
0.761389
21
0.654197
0
LINE
8
BLACK
6
CONTINUOUS
10
0.761389
20
0.654197
11
0.761492
21
0.654778
0
LINE
8
BLACK
6
CONTINUOUS
10
0.761492
20
0.654778
11
0.761477
21
0.654913
0
LINE
8
BLACK
6
CONTINUOUS
10
0.761477
20
0.654913
11
0.763352
21
0.662412
0
LINE
8
BLACK
6
CONTINUOUS
10
0.763352
20
0.662412
11
0.76356
21
0.662878
0
LINE
8
BLACK
6
CONTINUOUS
10
0.76356
20
0.662878
11
0.763576
21
0.663017
0
LINE
8
BLACK
6
CONTINUOUS
10
0.763576
20
0.663017
11
0.76545
21
0.666766
0
LINE
8
BLACK
6
CONTINUOUS
10
0.76545
20
0.666766
11
0.765976
21
0.667475
0
LINE
8
BLACK
6
CONTINUOUS
10
0.765976
20
0.667475
11
0.766004
21
0.667534
0
LINE
8
BLACK
6
CONTINUOUS
10
0.766004
20
0.667534
11
0.769753
21
0.671283
0
LINE
8
BLACK
6
CONTINUOUS
10
0.769753
20
0.671283
11
0.770593
21
0.671871
0
LINE
8
BLACK
6
CONTINUOUS
10
0.770593
20
0.671871
11
0.770769
21
0.671887
0
LINE
8
BLACK
6
CONTINUOUS
10
0.770769
20
0.671887
11
0.770907
21
0.671997
0
LINE
8
BLACK
6
CONTINUOUS
10
0.770907
20
0.671997
11
0.776532
21
0.673871
0
LINE
8
BLACK
6
CONTINUOUS
10
0.776532
20
0.673871
11
0.777405
21
0.674001
0
LINE
8
BLACK
6
CONTINUOUS
10
0.777405
20
0.674001
11
0.777465
21
0.674023
0
LINE
8
BLACK
6
CONTINUOUS
10
0.777465
20
0.674023
11
0.781215
21
0.674023
0
LINE
8
BLACK
6
CONTINUOUS
10
0.781215
20
0.674023
11
0.782084
21
0.67387
0
LINE
8
BLACK
6
CONTINUOUS
10
0.814492
20
0.675541
11
0.815832
21
0.67403
0
LINE
8
BLACK
6
CONTINUOUS
10
0.815832
20
0.67403
11
0.815887
21
0.672011
0
LINE
8
BLACK
6
CONTINUOUS
10
0.815887
20
0.672011
11
0.807809
21
0.647776
0
LINE
8
BLACK
6
CONTINUOUS
10
0.807809
20
0.647776
11
0.819507
21
0.647776
0
LINE
8
BLACK
6
CONTINUOUS
10
0.819507
20
0.647776
11
0.819507
21
0.657947
0
LINE
8
BLACK
6
CONTINUOUS
10
0.819507
20
0.657947
11
0.819685
21
0.658957
0
LINE
8
BLACK
6
CONTINUOUS
10
0.819685
20
0.658957
11
0.820983
21
0.660504
0
LINE
8
BLACK
6
CONTINUOUS
10
0.820983
20
0.660504
11
0.822972
21
0.660855
0
LINE
8
BLACK
6
CONTINUOUS
10
0.822972
20
0.660855
11
0.824722
21
0.659845
0
LINE
8
BLACK
6
CONTINUOUS
10
0.824722
20
0.659845
11
0.825412
21
0.657947
0
LINE
8
BLACK
6
CONTINUOUS
10
0.825412
20
0.657947
11
0.825412
21
0.647776
0
LINE
8
BLACK
6
CONTINUOUS
10
0.825412
20
0.647776
11
0.828084
21
0.647776
0
LINE
8
BLACK
6
CONTINUOUS
10
0.828084
20
0.647776
11
0.829094
21
0.647598
0
LINE
8
BLACK
6
CONTINUOUS
10
0.829094
20
0.647598
11
0.830641
21
0.6463
0
LINE
8
BLACK
6
CONTINUOUS
10
0.830641
20
0.6463
11
0.830992
21
0.644311
0
LINE
8
BLACK
6
CONTINUOUS
10
0.830992
20
0.644311
11
0.829982
21
0.642561
0
LINE
8
BLACK
6
CONTINUOUS
10
0.829982
20
0.642561
11
0.828084
21
0.641871
0
LINE
8
BLACK
6
CONTINUOUS
10
0.828084
20
0.641871
11
0.825412
21
0.641871
0
LINE
8
BLACK
6
CONTINUOUS
10
0.825412
20
0.641871
11
0.825412
21
0.6317
0
LINE
8
BLACK
6
CONTINUOUS
10
0.825412
20
0.6317
11
0.825234
21
0.63069
0
LINE
8
BLACK
6
CONTINUOUS
10
0.825234
20
0.63069
11
0.823936
21
0.629143
0
LINE
8
BLACK
6
CONTINUOUS
10
0.823936
20
0.629143
11
0.821947
21
0.628792
0
LINE
8
BLACK
6
CONTINUOUS
10
0.821947
20
0.628792
11
0.820198
21
0.629802
0
LINE
8
BLACK
6
CONTINUOUS
10
0.820198
20
0.629802
11
0.819507
21
0.6317
0
LINE
8
BLACK
6
CONTINUOUS
10
0.819507
20
0.6317
11
0.819507
21
0.641871
0
LINE
8
BLACK
6
CONTINUOUS
10
0.819507
20
0.641871
11
0.803712
21
0.641871
0
LINE
8
BLACK
6
CONTINUOUS
10
0.803712
20
0.641871
11
0.802702
21
0.642049
0
LINE
8
BLACK
6
CONTINUOUS
10
0.802702
20
0.642049
11
0.802529
21
0.642194
0
LINE
8
BLACK
6
CONTINUOUS
10
0.802529
20
0.642194
11
0.802306
21
0.642227
0
LINE
8
BLACK
6
CONTINUOUS
10
0.802306
20
0.642227
11
0.801772
21
0.642829
0
LINE
8
BLACK
6
CONTINUOUS
10
0.801772
20
0.642829
11
0.801155
21
0.643347
0
LINE
8
BLACK
6
CONTINUOUS
10
0.801155
20
0.643347
11
0.801116
21
0.643569
0
LINE
8
BLACK
6
CONTINUOUS
10
0.801116
20
0.643569
11
0.800966
21
0.643738
0
LINE
8
BLACK
6
CONTINUOUS
10
0.800966
20
0.643738
11
0.800944
21
0.644543
0
LINE
8
BLACK
6
CONTINUOUS
10
0.800944
20
0.644543
11
0.800804
21
0.645336
0
LINE
8
BLACK
6
CONTINUOUS
10
0.800804
20
0.645336
11
0.800917
21
0.645532
0
LINE
8
BLACK
6
CONTINUOUS
10
0.800917
20
0.645532
11
0.800911
21
0.645757
0
LINE
8
BLACK
6
CONTINUOUS
10
0.800911
20
0.645757
11
0.810285
21
0.673879
0
LINE
8
BLACK
6
CONTINUOUS
10
0.810285
20
0.673879
11
0.810773
21
0.67478
0
LINE
8
BLACK
6
CONTINUOUS
10
0.810773
20
0.67478
11
0.812494
21
0.675838
0
LINE
8
BLACK
6
CONTINUOUS
10
0.812494
20
0.675838
11
0.814492
21
0.675541
0
LINE
8
BLACK
6
CONTINUOUS
10
1.69955
20
0.678766
11
1.69968
21
0.678653
0
LINE
8
BLACK
6
CONTINUOUS
10
1.69968
20
0.678653
11
1.69986
21
0.678632
0
LINE
8
BLACK
6
CONTINUOUS
10
1.69986
20
0.678632
11
1.70361
21
0.676758
0
LINE
8
BLACK
6
CONTINUOUS
10
1.70361
20
0.676758
11
1.70432
21
0.676232
0
LINE
8
BLACK
6
CONTINUOUS
10
1.70432
20
0.676232
11
1.70438
21
0.676205
0
LINE
8
BLACK
6
CONTINUOUS
10
1.70438
20
0.676205
11
1.70625
21
0.67433
0
LINE
8
BLACK
6
CONTINUOUS
10
1.70625
20
0.67433
11
1.70676
21
0.673607
0
LINE
8
BLACK
6
CONTINUOUS
10
1.70676
20
0.673607
11
1.7068
21
0.673562
0
LINE
8
BLACK
6
CONTINUOUS
10
1.7068
20
0.673562
11
1.70868
21
0.669813
0
LINE
8
BLACK
6
CONTINUOUS
10
1.70868
20
0.669813
11
1.70897
21
0.66883
0
LINE
8
BLACK
6
CONTINUOUS
10
1.70897
20
0.66883
11
1.70893
21
0.668658
0
LINE
8
BLACK
6
CONTINUOUS
10
1.70893
20
0.668658
11
1.70899
21
0.668492
0
LINE
8
BLACK
6
CONTINUOUS
10
1.70899
20
0.668492
11
1.70899
21
0.662868
0
LINE
8
BLACK
6
CONTINUOUS
10
1.70899
20
0.662868
11
1.70881
21
0.661858
0
LINE
8
BLACK
6
CONTINUOUS
10
1.70881
20
0.661858
11
1.7087
21
0.661723
0
LINE
8
BLACK
6
CONTINUOUS
10
1.7087
20
0.661723
11
1.70868
21
0.661548
0
LINE
8
BLACK
6
CONTINUOUS
10
1.70868
20
0.661548
11
1.7068
21
0.657798
0
LINE
8
BLACK
6
CONTINUOUS
10
1.7068
20
0.657798
11
1.70628
21
0.657089
0
LINE
8
BLACK
6
CONTINUOUS
10
1.70628
20
0.657089
11
1.70625
21
0.657031
0
LINE
8
BLACK
6
CONTINUOUS
10
1.70625
20
0.657031
11
1.70438
21
0.655156
0
LINE
8
BLACK
6
CONTINUOUS
10
1.70438
20
0.655156
11
1.70365
21
0.65465
0
LINE
8
BLACK
6
CONTINUOUS
10
1.70365
20
0.65465
11
1.70361
21
0.654603
0
LINE
8
BLACK
6
CONTINUOUS
10
1.70361
20
0.654603
11
1.69986
21
0.652728
0
LINE
8
BLACK
6
CONTINUOUS
10
1.69986
20
0.652728
11
1.69888
21
0.652436
0
LINE
8
BLACK
6
CONTINUOUS
10
1.69888
20
0.652436
11
1.6987
21
0.652477
0
LINE
8
BLACK
6
CONTINUOUS
10
1.6987
20
0.652477
11
1.69858
21
0.65243
0
LINE
8
BLACK
6
CONTINUOUS
10
1.69858
20
0.65243
11
1.70846
21
0.638315
0
LINE
8
BLACK
6
CONTINUOUS
10
1.70846
20
0.638315
11
1.70889
21
0.637385
0
LINE
8
BLACK
6
CONTINUOUS
10
1.70889
20
0.637385
11
1.70871
21
0.635373
0
LINE
8
BLACK
6
CONTINUOUS
10
1.70871
20
0.635373
11
1.70728
21
0.633945
0
LINE
8
BLACK
6
CONTINUOUS
10
1.70728
20
0.633945
11
1.70527
21
0.633769
0
LINE
8
BLACK
6
CONTINUOUS
10
1.70527
20
0.633769
11
1.70362
21
0.634928
0
LINE
8
BLACK
6
CONTINUOUS
10
1.70362
20
0.634928
11
1.69138
21
0.652416
0
LINE
8
BLACK
6
CONTINUOUS
10
1.69138
20
0.652416
11
1.68649
21
0.652416
0
LINE
8
BLACK
6
CONTINUOUS
10
1.68649
20
0.652416
11
1.68649
21
0.636621
0
LINE
8
BLACK
6
CONTINUOUS
10
1.68649
20
0.636621
11
1.68631
21
0.635611
0
LINE
8
BLACK
6
CONTINUOUS
10
1.68631
20
0.635611
11
1.68502
21
0.634064
0
LINE
8
BLACK
6
CONTINUOUS
10
1.68502
20
0.634064
11
1.68303
21
0.633713
0
LINE
8
BLACK
6
CONTINUOUS
10
1.68303
20
0.633713
11
1.68128
21
0.634723
0
LINE
8
BLACK
6
CONTINUOUS
10
1.68128
20
0.634723
11
1.68059
21
0.636621
0
LINE
8
BLACK
6
CONTINUOUS
10
1.68059
20
0.636621
11
1.68059
21
0.675991
0
LINE
8
BLACK
6
CONTINUOUS
10
1.68059
20
0.675991
11
1.68065
21
0.676375
0
LINE
8
BLACK
6
CONTINUOUS
10
1.68065
20
0.676375
11
1.68063
21
0.676504
0
LINE
8
BLACK
6
CONTINUOUS
10
1.68063
20
0.676504
11
1.6807
21
0.676618
0
LINE
8
BLACK
6
CONTINUOUS
10
1.6807
20
0.676618
11
1.68076
21
0.677001
0
LINE
8
BLACK
6
CONTINUOUS
10
1.68076
20
0.677001
11
1.68126
21
0.677589
0
LINE
8
BLACK
6
CONTINUOUS
10
1.68126
20
0.677589
11
1.68164
21
0.678253
0
LINE
8
BLACK
6
CONTINUOUS
10
1.68164
20
0.678253
11
1.68189
21
0.678344
0
LINE
8
BLACK
6
CONTINUOUS
10
1.68189
20
0.678344
11
1.68206
21
0.678549
0
LINE
8
BLACK
6
CONTINUOUS
10
1.68206
20
0.678549
11
1.68282
21
0.678682
0
LINE
8
BLACK
6
CONTINUOUS
10
1.68282
20
0.678682
11
1.68354
21
0.678944
0
LINE
8
BLACK
6
CONTINUOUS
10
1.68354
20
0.678944
11
1.69854
21
0.678944
0
LINE
8
BLACK
6
CONTINUOUS
10
1.69854
20
0.678944
11
1.69955
21
0.678766
0
LINE
8
BLACK
6
CONTINUOUS
10
1.68649
20
0.658322
11
1.69784
21
0.658322
0
LINE
8
BLACK
6
CONTINUOUS
10
1.69784
20
0.658322
11
1.70054
21
0.65967
0
LINE
8
BLACK
6
CONTINUOUS
10
1.70054
20
0.65967
11
1.70174
21
0.660868
0
LINE
8
BLACK
6
CONTINUOUS
10
1.70174
20
0.660868
11
1.70308
21
0.663565
0
LINE
8
BLACK
6
CONTINUOUS
10
1.70308
20
0.663565
11
1.70308
21
0.667795
0
LINE
8
BLACK
6
CONTINUOUS
10
1.70308
20
0.667795
11
1.70174
21
0.670493
0
LINE
8
BLACK
6
CONTINUOUS
10
1.70174
20
0.670493
11
1.70054
21
0.67169
0
LINE
8
BLACK
6
CONTINUOUS
10
1.70054
20
0.67169
11
1.69784
21
0.673039
0
LINE
8
BLACK
6
CONTINUOUS
10
1.69784
20
0.673039
11
1.68649
21
0.673039
0
LINE
8
BLACK
6
CONTINUOUS
10
1.68649
20
0.673039
11
1.68649
21
0.658322
0
LINE
8
BLACK
6
CONTINUOUS
10
1.73181
20
0.680463
11
1.73315
21
0.678951
0
LINE
8
BLACK
6
CONTINUOUS
10
1.73315
20
0.678951
11
1.73321
21
0.676932
0
LINE
8
BLACK
6
CONTINUOUS
10
1.73321
20
0.676932
11
1.72513
21
0.652697
0
LINE
8
BLACK
6
CONTINUOUS
10
1.72513
20
0.652697
11
1.73683
21
0.652697
0
LINE
8
BLACK
6
CONTINUOUS
10
1.73683
20
0.652697
11
1.73683
21
0.662868
0
LINE
8
BLACK
6
CONTINUOUS
10
1.73683
20
0.662868
11
1.73701
21
0.663878
0
LINE
8
BLACK
6
CONTINUOUS
10
1.73701
20
0.663878
11
1.73831
21
0.665425
0
LINE
8
BLACK
6
CONTINUOUS
10
1.73831
20
0.665425
11
1.7403
21
0.665776
0
LINE
8
BLACK
6
CONTINUOUS
10
1.7403
20
0.665776
11
1.74204
21
0.664766
0
LINE
8
BLACK
6
CONTINUOUS
10
1.74204
20
0.664766
11
1.74274
21
0.662868
0
LINE
8
BLACK
6
CONTINUOUS
10
1.74274
20
0.662868
11
1.74274
21
0.652697
0
LINE
8
BLACK
6
CONTINUOUS
10
1.74274
20
0.652697
11
1.74541
21
0.652697
0
LINE
8
BLACK
6
CONTINUOUS
10
1.74541
20
0.652697
11
1.74642
21
0.652519
0
LINE
8
BLACK
6
CONTINUOUS
10
1.74642
20
0.652519
11
1.74796
21
0.651221
0
LINE
8
BLACK
6
CONTINUOUS
10
1.74796
20
0.651221
11
1.74831
21
0.649232
0
LINE
8
BLACK
6
CONTINUOUS
10
1.74831
20
0.649232
11
1.7473
21
0.647483
0
LINE
8
BLACK
6
CONTINUOUS
10
1.7473
20
0.647483
11
1.74541
21
0.646792
0
LINE
8
BLACK
6
CONTINUOUS
10
1.74541
20
0.646792
11
1.74274
21
0.646792
0
LINE
8
BLACK
6
CONTINUOUS
10
1.74274
20
0.646792
11
1.74274
21
0.636621
0
LINE
8
BLACK
6
CONTINUOUS
10
1.74274
20
0.636621
11
1.74256
21
0.635611
0
LINE
8
BLACK
6
CONTINUOUS
10
1.74256
20
0.635611
11
1.74126
21
0.634064
0
LINE
8
BLACK
6
CONTINUOUS
10
1.74126
20
0.634064
11
1.73927
21
0.633713
0
LINE
8
BLACK
6
CONTINUOUS
10
1.73927
20
0.633713
11
1.73752
21
0.634723
0
LINE
8
BLACK
6
CONTINUOUS
10
1.73752
20
0.634723
11
1.73683
21
0.636621
0
LINE
8
BLACK
6
CONTINUOUS
10
1.73683
20
0.636621
11
1.73683
21
0.646792
0
LINE
8
BLACK
6
CONTINUOUS
10
1.73683
20
0.646792
11
1.72103
21
0.646792
0
LINE
8
BLACK
6
CONTINUOUS
10
1.72103
20
0.646792
11
1.72002
21
0.64697
0
LINE
8
BLACK
6
CONTINUOUS
10
1.72002
20
0.64697
11
1.71985
21
0.647115
0
LINE
8
BLACK
6
CONTINUOUS
10
1.71985
20
0.647115
11
1.71963
21
0.647148
0
LINE
8
BLACK
6
CONTINUOUS
10
1.71963
20
0.647148
11
1.71909
21
0.647751
0
LINE
8
BLACK
6
CONTINUOUS
10
1.71909
20
0.647751
11
1.71848
21
0.648268
0
LINE
8
BLACK
6
CONTINUOUS
10
1.71848
20
0.648268
11
1.71844
21
0.648491
0
LINE
8
BLACK
6
CONTINUOUS
10
1.71844
20
0.648491
11
1.71829
21
0.648659
0
LINE
8
BLACK
6
CONTINUOUS
10
1.71829
20
0.648659
11
1.71827
21
0.649464
0
LINE
8
BLACK
6
CONTINUOUS
10
1.71827
20
0.649464
11
1.71813
21
0.650257
0
LINE
8
BLACK
6
CONTINUOUS
10
1.71813
20
0.650257
11
1.71824
21
0.650453
0
LINE
8
BLACK
6
CONTINUOUS
10
1.71824
20
0.650453
11
1.71823
21
0.650678
0
LINE
8
BLACK
6
CONTINUOUS
10
1.71823
20
0.650678
11
1.72761
21
0.6788
0
LINE
8
BLACK
6
CONTINUOUS
10
1.72761
20
0.6788
11
1.7281
21
0.679702
0
LINE
8
BLACK
6
CONTINUOUS
10
1.7281
20
0.679702
11
1.72982
21
0.680759
0
LINE
8
BLACK
6
CONTINUOUS
10
1.72982
20
0.680759
11
1.73181
21
0.680463
0
LINE
8
BLACK
6
CONTINUOUS
10
1.64424
20
0.680735
11
1.64579
21
0.679436
0
LINE
8
BLACK
6
CONTINUOUS
10
1.64579
20
0.679436
11
1.64614
21
0.677447
0
LINE
8
BLACK
6
CONTINUOUS
10
1.64614
20
0.677447
11
1.64513
21
0.675698
0
LINE
8
BLACK
6
CONTINUOUS
10
1.64513
20
0.675698
11
1.64323
21
0.675007
0
LINE
8
BLACK
6
CONTINUOUS
10
1.64323
20
0.675007
11
1.62716
21
0.675007
0
LINE
8
BLACK
6
CONTINUOUS
10
1.62716
20
0.675007
11
1.62618
21
0.665236
0
LINE
8
BLACK
6
CONTINUOUS
10
1.62618
20
0.665236
11
1.62691
21
0.665603
0
LINE
8
BLACK
6
CONTINUOUS
10
1.62691
20
0.665603
11
1.6279
21
0.665895
0
LINE
8
BLACK
6
CONTINUOUS
10
1.6279
20
0.665895
11
1.62807
21
0.665854
0
LINE
8
BLACK
6
CONTINUOUS
10
1.62807
20
0.665854
11
1.62823
21
0.665915
0
LINE
8
BLACK
6
CONTINUOUS
10
1.62823
20
0.665915
11
1.63761
21
0.665915
0
LINE
8
BLACK
6
CONTINUOUS
10
1.63761
20
0.665915
11
1.63862
21
0.665736
0
LINE
8
BLACK
6
CONTINUOUS
10
1.63862
20
0.665736
11
1.63875
21
0.665623
0
LINE
8
BLACK
6
CONTINUOUS
10
1.63875
20
0.665623
11
1.63893
21
0.665603
0
LINE
8
BLACK
6
CONTINUOUS
10
1.63893
20
0.665603
11
1.64268
21
0.663728
0
LINE
8
BLACK
6
CONTINUOUS
10
1.64268
20
0.663728
11
1.64339
21
0.663202
0
LINE
8
BLACK
6
CONTINUOUS
10
1.64339
20
0.663202
11
1.64345
21
0.663175
0
LINE
8
BLACK
6
CONTINUOUS
10
1.64345
20
0.663175
11
1.64532
21
0.6613
0
LINE
8
BLACK
6
CONTINUOUS
10
1.64532
20
0.6613
11
1.64583
21
0.660577
0
LINE
8
BLACK
6
CONTINUOUS
10
1.64583
20
0.660577
11
1.64587
21
0.660533
0
LINE
8
BLACK
6
CONTINUOUS
10
1.64587
20
0.660533
11
1.64775
21
0.656783
0
LINE
8
BLACK
6
CONTINUOUS
10
1.64775
20
0.656783
11
1.64804
21
0.6558
0
LINE
8
BLACK
6
CONTINUOUS
10
1.64804
20
0.6558
11
1.648
21
0.655629
0
LINE
8
BLACK
6
CONTINUOUS
10
1.648
20
0.655629
11
1.64806
21
0.655463
0
LINE
8
BLACK
6
CONTINUOUS
10
1.64806
20
0.655463
11
1.64806
21
0.646089
0
LINE
8
BLACK
6
CONTINUOUS
10
1.64806
20
0.646089
11
1.64788
21
0.645079
0
LINE
8
BLACK
6
CONTINUOUS
10
1.64788
20
0.645079
11
1.64777
21
0.644944
0
LINE
8
BLACK
6
CONTINUOUS
10
1.64777
20
0.644944
11
1.64775
21
0.644768
0
LINE
8
BLACK
6
CONTINUOUS
10
1.64775
20
0.644768
11
1.64587
21
0.641019
0
LINE
8
BLACK
6
CONTINUOUS
10
1.64587
20
0.641019
11
1.64535
21
0.64031
0
LINE
8
BLACK
6
CONTINUOUS
10
1.64535
20
0.64031
11
1.64532
21
0.640251
0
LINE
8
BLACK
6
CONTINUOUS
10
1.64532
20
0.640251
11
1.64345
21
0.638377
0
LINE
8
BLACK
6
CONTINUOUS
10
1.64345
20
0.638377
11
1.64272
21
0.63787
0
LINE
8
BLACK
6
CONTINUOUS
10
1.64272
20
0.63787
11
1.64268
21
0.637824
0
LINE
8
BLACK
6
CONTINUOUS
10
1.64268
20
0.637824
11
1.63893
21
0.635949
0
LINE
8
BLACK
6
CONTINUOUS
10
1.63893
20
0.635949
11
1.63795
21
0.635656
0
LINE
8
BLACK
6
CONTINUOUS
10
1.63795
20
0.635656
11
1.63777
21
0.635697
0
LINE
8
BLACK
6
CONTINUOUS
10
1.63777
20
0.635697
11
1.63761
21
0.635637
0
LINE
8
BLACK
6
CONTINUOUS
10
1.63761
20
0.635637
11
1.62823
21
0.635637
0
LINE
8
BLACK
6
CONTINUOUS
10
1.62823
20
0.635637
11
1.62722
21
0.635815
0
LINE
8
BLACK
6
CONTINUOUS
10
1.62722
20
0.635815
11
1.62709
21
0.635929
0
LINE
8
BLACK
6
CONTINUOUS
10
1.62709
20
0.635929
11
1.62691
21
0.635949
0
LINE
8
BLACK
6
CONTINUOUS
10
1.62691
20
0.635949
11
1.62316
21
0.637824
0
LINE
8
BLACK
6
CONTINUOUS
10
1.62316
20
0.637824
11
1.62245
21
0.63835
0
LINE
8
BLACK
6
CONTINUOUS
10
1.62245
20
0.63835
11
1.6224
21
0.638377
0
LINE
8
BLACK
6
CONTINUOUS
10
1.6224
20
0.638377
11
1.62052
21
0.640251
0
LINE
8
BLACK
6
CONTINUOUS
10
1.62052
20
0.640251
11
1.61993
21
0.641092
0
LINE
8
BLACK
6
CONTINUOUS
10
1.61993
20
0.641092
11
1.61976
21
0.643104
0
LINE
8
BLACK
6
CONTINUOUS
10
1.61976
20
0.643104
11
1.62092
21
0.644758
0
LINE
8
BLACK
6
CONTINUOUS
10
1.62092
20
0.644758
11
1.62287
21
0.645281
0
LINE
8
BLACK
6
CONTINUOUS
10
1.62287
20
0.645281
11
1.6247
21
0.644427
0
LINE
8
BLACK
6
CONTINUOUS
10
1.6247
20
0.644427
11
1.62623
21
0.642891
0
LINE
8
BLACK
6
CONTINUOUS
10
1.62623
20
0.642891
11
1.62893
21
0.641543
0
LINE
8
BLACK
6
CONTINUOUS
10
1.62893
20
0.641543
11
1.63691
21
0.641543
0
LINE
8
BLACK
6
CONTINUOUS
10
1.63691
20
0.641543
11
1.63961
21
0.642891
0
LINE
8
BLACK
6
CONTINUOUS
10
1.63961
20
0.642891
11
1.64081
21
0.644088
0
LINE
8
BLACK
6
CONTINUOUS
10
1.64081
20
0.644088
11
1.64215
21
0.646786
0
LINE
8
BLACK
6
CONTINUOUS
10
1.64215
20
0.646786
11
1.64215
21
0.654766
0
LINE
8
BLACK
6
CONTINUOUS
10
1.64215
20
0.654766
11
1.64081
21
0.657463
0
LINE
8
BLACK
6
CONTINUOUS
10
1.64081
20
0.657463
11
1.63961
21
0.65866
0
LINE
8
BLACK
6
CONTINUOUS
10
1.63961
20
0.65866
11
1.63691
21
0.660009
0
LINE
8
BLACK
6
CONTINUOUS
10
1.63691
20
0.660009
11
1.62893
21
0.660009
0
LINE
8
BLACK
6
CONTINUOUS
10
1.62893
20
0.660009
11
1.62623
21
0.65866
0
LINE
8
BLACK
6
CONTINUOUS
10
1.62623
20
0.65866
11
1.6247
21
0.657124
0
LINE
8
BLACK
6
CONTINUOUS
10
1.6247
20
0.657124
11
1.62386
21
0.656536
0
LINE
8
BLACK
6
CONTINUOUS
10
1.62386
20
0.656536
11
1.62384
21
0.656534
0
LINE
8
BLACK
6
CONTINUOUS
10
1.62384
20
0.656534
11
1.62382
21
0.656521
0
LINE
8
BLACK
6
CONTINUOUS
10
1.62382
20
0.656521
11
1.62283
21
0.656447
0
LINE
8
BLACK
6
CONTINUOUS
10
1.62283
20
0.656447
11
1.62185
21
0.65636
0
LINE
8
BLACK
6
CONTINUOUS
10
1.62185
20
0.65636
11
1.62183
21
0.656371
0
LINE
8
BLACK
6
CONTINUOUS
10
1.62183
20
0.656371
11
1.62181
21
0.65637
0
LINE
8
BLACK
6
CONTINUOUS
10
1.62181
20
0.65637
11
1.621
21
0.65695
0
LINE
8
BLACK
6
CONTINUOUS
10
1.621
20
0.65695
11
1.62019
21
0.657519
0
LINE
8
BLACK
6
CONTINUOUS
10
1.62019
20
0.657519
11
1.62019
21
0.657537
0
LINE
8
BLACK
6
CONTINUOUS
10
1.62019
20
0.657537
11
1.62017
21
0.657549
0
LINE
8
BLACK
6
CONTINUOUS
10
1.62017
20
0.657549
11
1.61992
21
0.658512
0
LINE
8
BLACK
6
CONTINUOUS
10
1.61992
20
0.658512
11
1.61967
21
0.65947
0
LINE
8
BLACK
6
CONTINUOUS
10
1.61967
20
0.65947
11
1.61968
21
0.659487
0
LINE
8
BLACK
6
CONTINUOUS
10
1.61968
20
0.659487
11
1.61967
21
0.659506
0
LINE
8
BLACK
6
CONTINUOUS
10
1.61967
20
0.659506
11
1.62155
21
0.678254
0
LINE
8
BLACK
6
CONTINUOUS
10
1.62155
20
0.678254
11
1.62159
21
0.678404
0
LINE
8
BLACK
6
CONTINUOUS
10
1.62159
20
0.678404
11
1.62158
21
0.678473
0
LINE
8
BLACK
6
CONTINUOUS
10
1.62158
20
0.678473
11
1.62164
21
0.678579
0
LINE
8
BLACK
6
CONTINUOUS
10
1.62164
20
0.678579
11
1.62182
21
0.679241
0
LINE
8
BLACK
6
CONTINUOUS
10
1.62182
20
0.679241
11
1.62227
21
0.679679
0
LINE
8
BLACK
6
CONTINUOUS
10
1.62227
20
0.679679
11
1.62259
21
0.680222
0
LINE
8
BLACK
6
CONTINUOUS
10
1.62259
20
0.680222
11
1.62297
21
0.680363
0
LINE
8
BLACK
6
CONTINUOUS
10
1.62297
20
0.680363
11
1.62327
21
0.680651
0
LINE
8
BLACK
6
CONTINUOUS
10
1.62327
20
0.680651
11
1.6239
21
0.680698
0
LINE
8
BLACK
6
CONTINUOUS
10
1.6239
20
0.680698
11
1.62448
21
0.680913
0
LINE
8
BLACK
6
CONTINUOUS
10
1.62448
20
0.680913
11
1.64323
21
0.680913
0
LINE
8
BLACK
6
CONTINUOUS
10
1.64323
20
0.680913
11
1.64424
21
0.680735
0
LINE
8
BLACK
6
CONTINUOUS
10
1.60112
20
0.680735
11
1.60126
21
0.680621
0
LINE
8
BLACK
6
CONTINUOUS
10
1.60126
20
0.680621
11
1.60143
21
0.680601
0
LINE
8
BLACK
6
CONTINUOUS
10
1.60143
20
0.680601
11
1.60518
21
0.678726
0
LINE
8
BLACK
6
CONTINUOUS
10
1.60518
20
0.678726
11
1.60589
21
0.6782
0
LINE
8
BLACK
6
CONTINUOUS
10
1.60589
20
0.6782
11
1.60595
21
0.678173
0
LINE
8
BLACK
6
CONTINUOUS
10
1.60595
20
0.678173
11
1.60782
21
0.676298
0
LINE
8
BLACK
6
CONTINUOUS
10
1.60782
20
0.676298
11
1.60833
21
0.675575
0
LINE
8
BLACK
6
CONTINUOUS
10
1.60833
20
0.675575
11
1.60838
21
0.675531
0
LINE
8
BLACK
6
CONTINUOUS
10
1.60838
20
0.675531
11
1.61025
21
0.671781
0
LINE
8
BLACK
6
CONTINUOUS
10
1.61025
20
0.671781
11
1.61054
21
0.670798
0
LINE
8
BLACK
6
CONTINUOUS
10
1.61054
20
0.670798
11
1.6105
21
0.670627
0
LINE
8
BLACK
6
CONTINUOUS
10
1.6105
20
0.670627
11
1.61056
21
0.670461
0
LINE
8
BLACK
6
CONTINUOUS
10
1.61056
20
0.670461
11
1.61056
21
0.664837
0
LINE
8
BLACK
6
CONTINUOUS
10
1.61056
20
0.664837
11
1.61039
21
0.663827
0
LINE
8
BLACK
6
CONTINUOUS
10
1.61039
20
0.663827
11
1.61027
21
0.663691
0
LINE
8
BLACK
6
CONTINUOUS
10
1.61027
20
0.663691
11
1.61025
21
0.663516
0
LINE
8
BLACK
6
CONTINUOUS
10
1.61025
20
0.663516
11
1.60838
21
0.659766
0
LINE
8
BLACK
6
CONTINUOUS
10
1.60838
20
0.659766
11
1.60785
21
0.659057
0
LINE
8
BLACK
6
CONTINUOUS
10
1.60785
20
0.659057
11
1.60782
21
0.658999
0
LINE
8
BLACK
6
CONTINUOUS
10
1.60782
20
0.658999
11
1.60595
21
0.657124
0
LINE
8
BLACK
6
CONTINUOUS
10
1.60595
20
0.657124
11
1.60523
21
0.656618
0
LINE
8
BLACK
6
CONTINUOUS
10
1.60523
20
0.656618
11
1.60518
21
0.656571
0
LINE
8
BLACK
6
CONTINUOUS
10
1.60518
20
0.656571
11
1.60143
21
0.654696
0
LINE
8
BLACK
6
CONTINUOUS
10
1.60143
20
0.654696
11
1.60045
21
0.654404
0
LINE
8
BLACK
6
CONTINUOUS
10
1.60045
20
0.654404
11
1.60028
21
0.654445
0
LINE
8
BLACK
6
CONTINUOUS
10
1.60028
20
0.654445
11
1.60015
21
0.654398
0
LINE
8
BLACK
6
CONTINUOUS
10
1.60015
20
0.654398
11
1.61003
21
0.640283
0
LINE
8
BLACK
6
CONTINUOUS
10
1.61003
20
0.640283
11
1.61046
21
0.639354
0
LINE
8
BLACK
6
CONTINUOUS
10
1.61046
20
0.639354
11
1.61029
21
0.637342
0
LINE
8
BLACK
6
CONTINUOUS
10
1.61029
20
0.637342
11
1.60886
21
0.635914
0
LINE
8
BLACK
6
CONTINUOUS
10
1.60886
20
0.635914
11
1.60685
21
0.635738
0
LINE
8
BLACK
6
CONTINUOUS
10
1.60685
20
0.635738
11
1.60519
21
0.636896
0
LINE
8
BLACK
6
CONTINUOUS
10
1.60519
20
0.636896
11
1.59295
21
0.654385
0
LINE
8
BLACK
6
CONTINUOUS
10
1.59295
20
0.654385
11
1.58807
21
0.654385
0
LINE
8
BLACK
6
CONTINUOUS
10
1.58807
20
0.654385
11
1.58807
21
0.63859
0
LINE
8
BLACK
6
CONTINUOUS
10
1.58807
20
0.63859
11
1.58789
21
0.63758
0
LINE
8
BLACK
6
CONTINUOUS
10
1.58789
20
0.63758
11
1.58659
21
0.636033
0
LINE
8
BLACK
6
CONTINUOUS
10
1.58659
20
0.636033
11
1.5846
21
0.635682
0
LINE
8
BLACK
6
CONTINUOUS
10
1.5846
20
0.635682
11
1.58285
21
0.636692
0
LINE
8
BLACK
6
CONTINUOUS
10
1.58285
20
0.636692
11
1.58216
21
0.63859
0
LINE
8
BLACK
6
CONTINUOUS
10
1.58216
20
0.63859
11
1.58216
21
0.67796
0
LINE
8
BLACK
6
CONTINUOUS
10
1.58216
20
0.67796
11
1.58223
21
0.678343
0
LINE
8
BLACK
6
CONTINUOUS
10
1.58223
20
0.678343
11
1.58221
21
0.678473
0
LINE
8
BLACK
6
CONTINUOUS
10
1.58221
20
0.678473
11
1.58227
21
0.678586
0
LINE
8
BLACK
6
CONTINUOUS
10
1.58227
20
0.678586
11
1.58234
21
0.67897
0
LINE
8
BLACK
6
CONTINUOUS
10
1.58234
20
0.67897
11
1.58283
21
0.679558
0
LINE
8
BLACK
6
CONTINUOUS
10
1.58283
20
0.679558
11
1.58322
21
0.680222
0
LINE
8
BLACK
6
CONTINUOUS
10
1.58322
20
0.680222
11
1.58347
21
0.680313
0
LINE
8
BLACK
6
CONTINUOUS
10
1.58347
20
0.680313
11
1.58364
21
0.680517
0
LINE
8
BLACK
6
CONTINUOUS
10
1.58364
20
0.680517
11
1.58439
21
0.68065
0
LINE
8
BLACK
6
CONTINUOUS
10
1.58439
20
0.68065
11
1.58511
21
0.680913
0
LINE
8
BLACK
6
CONTINUOUS
10
1.58511
20
0.680913
11
1.60011
21
0.680913
0
LINE
8
BLACK
6
CONTINUOUS
10
1.60011
20
0.680913
11
1.60112
21
0.680735
0
LINE
8
BLACK
6
CONTINUOUS
10
1.58807
20
0.66029
11
1.59942
21
0.66029
0
LINE
8
BLACK
6
CONTINUOUS
10
1.59942
20
0.66029
11
1.60211
21
0.661639
0
LINE
8
BLACK
6
CONTINUOUS
10
1.60211
20
0.661639
11
1.60331
21
0.662836
0
LINE
8
BLACK
6
CONTINUOUS
10
1.60331
20
0.662836
11
1.60466
21
0.665534
0
LINE
8
BLACK
6
CONTINUOUS
10
1.60466
20
0.665534
11
1.60466
21
0.669764
0
LINE
8
BLACK
6
CONTINUOUS
10
1.60466
20
0.669764
11
1.60331
21
0.672461
0
LINE
8
BLACK
6
CONTINUOUS
10
1.60331
20
0.672461
11
1.60211
21
0.673658
0
LINE
8
BLACK
6
CONTINUOUS
10
1.60211
20
0.673658
11
1.59942
21
0.675007
0
LINE
8
BLACK
6
CONTINUOUS
10
1.59942
20
0.675007
11
1.58807
21
0.675007
0
LINE
8
BLACK
6
CONTINUOUS
10
1.58807
20
0.675007
11
1.58807
21
0.66029
0
LINE
8
BLACK
6
CONTINUOUS
10
1.53531
20
0.68182
11
1.53544
21
0.681841
0
LINE
8
BLACK
6
CONTINUOUS
10
1.53544
20
0.681841
11
1.53555
21
0.681777
0
LINE
8
BLACK
6
CONTINUOUS
10
1.53555
20
0.681777
11
1.53588
21
0.681719
0
LINE
8
BLACK
6
CONTINUOUS
10
1.53588
20
0.681719
11
1.53649
21
0.681207
0
LINE
8
BLACK
6
CONTINUOUS
10
1.53649
20
0.681207
11
1.53717
21
0.680795
0
LINE
8
BLACK
6
CONTINUOUS
10
1.53717
20
0.680795
11
1.53725
21
0.680572
0
LINE
8
BLACK
6
CONTINUOUS
10
1.53725
20
0.680572
11
1.53743
21
0.680421
0
LINE
8
BLACK
6
CONTINUOUS
10
1.53743
20
0.680421
11
1.53757
21
0.679637
0
LINE
8
BLACK
6
CONTINUOUS
10
1.53757
20
0.679637
11
1.53782
21
0.678883
0
LINE
8
BLACK
6
CONTINUOUS
10
1.53782
20
0.678883
11
1.53774
21
0.678663
0
LINE
8
BLACK
6
CONTINUOUS
10
1.53774
20
0.678663
11
1.53778
21
0.678431
0
LINE
8
BLACK
6
CONTINUOUS
10
1.53778
20
0.678431
11
1.53738
21
0.677742
0
LINE
8
BLACK
6
CONTINUOUS
10
1.53738
20
0.677742
11
1.53709
21
0.677
0
LINE
8
BLACK
6
CONTINUOUS
10
1.53709
20
0.677
11
1.52814
21
0.666764
0
LINE
8
BLACK
6
CONTINUOUS
10
1.52814
20
0.666764
11
1.52838
21
0.666721
0
LINE
8
BLACK
6
CONTINUOUS
10
1.52838
20
0.666721
11
1.52852
21
0.666607
0
LINE
8
BLACK
6
CONTINUOUS
10
1.52852
20
0.666607
11
1.52869
21
0.666587
0
LINE
8
BLACK
6
CONTINUOUS
10
1.52869
20
0.666587
11
1.53244
21
0.664712
0
LINE
8
BLACK
6
CONTINUOUS
10
1.53244
20
0.664712
11
1.53315
21
0.664186
0
LINE
8
BLACK
6
CONTINUOUS
10
1.53315
20
0.664186
11
1.53321
21
0.664159
0
LINE
8
BLACK
6
CONTINUOUS
10
1.53321
20
0.664159
11
1.53508
21
0.662284
0
LINE
8
BLACK
6
CONTINUOUS
10
1.53508
20
0.662284
11
1.53559
21
0.661561
0
LINE
8
BLACK
6
CONTINUOUS
10
1.53559
20
0.661561
11
1.53564
21
0.661517
0
LINE
8
BLACK
6
CONTINUOUS
10
1.53564
20
0.661517
11
1.53751
21
0.657767
0
LINE
8
BLACK
6
CONTINUOUS
10
1.53751
20
0.657767
11
1.5378
21
0.656785
0
LINE
8
BLACK
6
CONTINUOUS
10
1.5378
20
0.656785
11
1.53776
21
0.656613
0
LINE
8
BLACK
6
CONTINUOUS
10
1.53776
20
0.656613
11
1.53782
21
0.656447
0
LINE
8
BLACK
6
CONTINUOUS
10
1.53782
20
0.656447
11
1.53782
21
0.647073
0
LINE
8
BLACK
6
CONTINUOUS
10
1.53782
20
0.647073
11
1.53765
21
0.646063
0
LINE
8
BLACK
6
CONTINUOUS
10
1.53765
20
0.646063
11
1.53753
21
0.645928
0
LINE
8
BLACK
6
CONTINUOUS
10
1.53753
20
0.645928
11
1.53751
21
0.645753
0
LINE
8
BLACK
6
CONTINUOUS
10
1.53751
20
0.645753
11
1.53564
21
0.642003
0
LINE
8
BLACK
6
CONTINUOUS
10
1.53564
20
0.642003
11
1.53511
21
0.641294
0
LINE
8
BLACK
6
CONTINUOUS
10
1.53511
20
0.641294
11
1.53508
21
0.641236
0
LINE
8
BLACK
6
CONTINUOUS
10
1.53508
20
0.641236
11
1.53321
21
0.639361
0
LINE
8
BLACK
6
CONTINUOUS
10
1.53321
20
0.639361
11
1.53249
21
0.638855
0
LINE
8
BLACK
6
CONTINUOUS
10
1.53249
20
0.638855
11
1.53244
21
0.638808
0
LINE
8
BLACK
6
CONTINUOUS
10
1.53244
20
0.638808
11
1.52869
21
0.636933
0
LINE
8
BLACK
6
CONTINUOUS
10
1.52869
20
0.636933
11
1.52771
21
0.636641
0
LINE
8
BLACK
6
CONTINUOUS
10
1.52771
20
0.636641
11
1.52754
21
0.636682
0
LINE
8
BLACK
6
CONTINUOUS
10
1.52754
20
0.636682
11
1.52737
21
0.636621
0
LINE
8
BLACK
6
CONTINUOUS
10
1.52737
20
0.636621
11
1.51612
21
0.636621
0
LINE
8
BLACK
6
CONTINUOUS
10
1.51612
20
0.636621
11
1.51511
21
0.636799
0
LINE
8
BLACK
6
CONTINUOUS
10
1.51511
20
0.636799
11
1.51498
21
0.636913
0
LINE
8
BLACK
6
CONTINUOUS
10
1.51498
20
0.636913
11
1.5148
21
0.636933
0
LINE
8
BLACK
6
CONTINUOUS
10
1.5148
20
0.636933
11
1.51105
21
0.638808
0
LINE
8
BLACK
6
CONTINUOUS
10
1.51105
20
0.638808
11
1.51034
21
0.639334
0
LINE
8
BLACK
6
CONTINUOUS
10
1.51034
20
0.639334
11
1.51029
21
0.639361
0
LINE
8
BLACK
6
CONTINUOUS
10
1.51029
20
0.639361
11
1.50841
21
0.641236
0
LINE
8
BLACK
6
CONTINUOUS
10
1.50841
20
0.641236
11
1.50782
21
0.642076
0
LINE
8
BLACK
6
CONTINUOUS
10
1.50782
20
0.642076
11
1.50765
21
0.644088
0
LINE
8
BLACK
6
CONTINUOUS
10
1.50765
20
0.644088
11
1.50881
21
0.645742
0
LINE
8
BLACK
6
CONTINUOUS
10
1.50881
20
0.645742
11
1.51076
21
0.646265
0
LINE
8
BLACK
6
CONTINUOUS
10
1.51076
20
0.646265
11
1.51259
21
0.645411
0
LINE
8
BLACK
6
CONTINUOUS
10
1.51259
20
0.645411
11
1.51412
21
0.643876
0
LINE
8
BLACK
6
CONTINUOUS
10
1.51412
20
0.643876
11
1.51682
21
0.642527
0
LINE
8
BLACK
6
CONTINUOUS
10
1.51682
20
0.642527
11
1.52667
21
0.642527
0
LINE
8
BLACK
6
CONTINUOUS
10
1.52667
20
0.642527
11
1.52937
21
0.643876
0
LINE
8
BLACK
6
CONTINUOUS
10
1.52937
20
0.643876
11
1.53057
21
0.645073
0
LINE
8
BLACK
6
CONTINUOUS
10
1.53057
20
0.645073
11
1.53192
21
0.64777
0
LINE
8
BLACK
6
CONTINUOUS
10
1.53192
20
0.64777
11
1.53192
21
0.65575
0
LINE
8
BLACK
6
CONTINUOUS
10
1.53192
20
0.65575
11
1.53057
21
0.658447
0
LINE
8
BLACK
6
CONTINUOUS
10
1.53057
20
0.658447
11
1.52937
21
0.659645
0
LINE
8
BLACK
6
CONTINUOUS
10
1.52937
20
0.659645
11
1.52667
21
0.660993
0
LINE
8
BLACK
6
CONTINUOUS
10
1.52667
20
0.660993
11
1.52175
21
0.660993
0
LINE
8
BLACK
6
CONTINUOUS
10
1.52175
20
0.660993
11
1.52131
21
0.66107
0
LINE
8
BLACK
6
CONTINUOUS
10
1.52131
20
0.66107
11
1.52117
21
0.661049
0
LINE
8
BLACK
6
CONTINUOUS
10
1.52117
20
0.661049
11
1.52107
21
0.661113
0
LINE
8
BLACK
6
CONTINUOUS
10
1.52107
20
0.661113
11
1.52074
21
0.661171
0
LINE
8
BLACK
6
CONTINUOUS
10
1.52074
20
0.661171
11
1.52013
21
0.661683
0
LINE
8
BLACK
6
CONTINUOUS
10
1.52013
20
0.661683
11
1.51945
21
0.662095
0
LINE
8
BLACK
6
CONTINUOUS
10
1.51945
20
0.662095
11
1.51937
21
0.662318
0
LINE
8
BLACK
6
CONTINUOUS
10
1.51937
20
0.662318
11
1.51919
21
0.66247
0
LINE
8
BLACK
6
CONTINUOUS
10
1.51919
20
0.66247
11
1.51905
21
0.663254
0
LINE
8
BLACK
6
CONTINUOUS
10
1.51905
20
0.663254
11
1.5188
21
0.664007
0
LINE
8
BLACK
6
CONTINUOUS
10
1.5188
20
0.664007
11
1.51888
21
0.664227
0
LINE
8
BLACK
6
CONTINUOUS
10
1.51888
20
0.664227
11
1.51884
21
0.664459
0
LINE
8
BLACK
6
CONTINUOUS
10
1.51884
20
0.664459
11
1.51924
21
0.665148
0
LINE
8
BLACK
6
CONTINUOUS
10
1.51924
20
0.665148
11
1.51953
21
0.66589
0
LINE
8
BLACK
6
CONTINUOUS
10
1.51953
20
0.66589
11
1.52836
21
0.675991
0
LINE
8
BLACK
6
CONTINUOUS
10
1.52836
20
0.675991
11
1.5105
21
0.675991
0
LINE
8
BLACK
6
CONTINUOUS
10
1.5105
20
0.675991
11
1.50949
21
0.676169
0
LINE
8
BLACK
6
CONTINUOUS
10
1.50949
20
0.676169
11
1.50794
21
0.677468
0
LINE
8
BLACK
6
CONTINUOUS
10
1.50794
20
0.677468
11
1.50759
21
0.679457
0
LINE
8
BLACK
6
CONTINUOUS
10
1.50759
20
0.679457
11
1.5086
21
0.681206
0
LINE
8
BLACK
6
CONTINUOUS
10
1.5086
20
0.681206
11
1.5105
21
0.681897
0
LINE
8
BLACK
6
CONTINUOUS
10
1.5105
20
0.681897
11
1.53487
21
0.681897
0
LINE
8
BLACK
6
CONTINUOUS
10
1.53487
20
0.681897
11
1.53531
21
0.68182
0
LINE
8
BLACK
6
CONTINUOUS
10
1.49089
20
0.681719
11
1.49102
21
0.681605
0
LINE
8
BLACK
6
CONTINUOUS
10
1.49102
20
0.681605
11
1.4912
21
0.681585
0
LINE
8
BLACK
6
CONTINUOUS
10
1.4912
20
0.681585
11
1.49495
21
0.67971
0
LINE
8
BLACK
6
CONTINUOUS
10
1.49495
20
0.67971
11
1.49566
21
0.679184
0
LINE
8
BLACK
6
CONTINUOUS
10
1.49566
20
0.679184
11
1.49571
21
0.679157
0
LINE
8
BLACK
6
CONTINUOUS
10
1.49571
20
0.679157
11
1.49759
21
0.677283
0
LINE
8
BLACK
6
CONTINUOUS
10
1.49759
20
0.677283
11
1.49809
21
0.676559
0
LINE
8
BLACK
6
CONTINUOUS
10
1.49809
20
0.676559
11
1.49814
21
0.676515
0
LINE
8
BLACK
6
CONTINUOUS
10
1.49814
20
0.676515
11
1.50002
21
0.672766
0
LINE
8
BLACK
6
CONTINUOUS
10
1.50002
20
0.672766
11
1.50031
21
0.671783
0
LINE
8
BLACK
6
CONTINUOUS
10
1.50031
20
0.671783
11
1.50027
21
0.671611
0
LINE
8
BLACK
6
CONTINUOUS
10
1.50027
20
0.671611
11
1.50033
21
0.671445
0
LINE
8
BLACK
6
CONTINUOUS
10
1.50033
20
0.671445
11
1.50033
21
0.665821
0
LINE
8
BLACK
6
CONTINUOUS
10
1.50033
20
0.665821
11
1.50015
21
0.664811
0
LINE
8
BLACK
6
CONTINUOUS
10
1.50015
20
0.664811
11
1.50004
21
0.664676
0
LINE
8
BLACK
6
CONTINUOUS
10
1.50004
20
0.664676
11
1.50002
21
0.6645
0
LINE
8
BLACK
6
CONTINUOUS
10
1.50002
20
0.6645
11
1.49814
21
0.660751
0
LINE
8
BLACK
6
CONTINUOUS
10
1.49814
20
0.660751
11
1.49762
21
0.660042
0
LINE
8
BLACK
6
CONTINUOUS
10
1.49762
20
0.660042
11
1.49759
21
0.659983
0
LINE
8
BLACK
6
CONTINUOUS
10
1.49759
20
0.659983
11
1.49571
21
0.658109
0
LINE
8
BLACK
6
CONTINUOUS
10
1.49571
20
0.658109
11
1.49499
21
0.657602
0
LINE
8
BLACK
6
CONTINUOUS
10
1.49499
20
0.657602
11
1.49495
21
0.657555
0
LINE
8
BLACK
6
CONTINUOUS
10
1.49495
20
0.657555
11
1.4912
21
0.655681
0
LINE
8
BLACK
6
CONTINUOUS
10
1.4912
20
0.655681
11
1.49021
21
0.655388
0
LINE
8
BLACK
6
CONTINUOUS
10
1.49021
20
0.655388
11
1.49004
21
0.655429
0
LINE
8
BLACK
6
CONTINUOUS
10
1.49004
20
0.655429
11
1.48991
21
0.655383
0
LINE
8
BLACK
6
CONTINUOUS
10
1.48991
20
0.655383
11
1.49979
21
0.641267
0
LINE
8
BLACK
6
CONTINUOUS
10
1.49979
20
0.641267
11
1.50023
21
0.640338
0
LINE
8
BLACK
6
CONTINUOUS
10
1.50023
20
0.640338
11
1.50005
21
0.638326
0
LINE
8
BLACK
6
CONTINUOUS
10
1.50005
20
0.638326
11
1.49862
21
0.636898
0
LINE
8
BLACK
6
CONTINUOUS
10
1.49862
20
0.636898
11
1.49661
21
0.636722
0
LINE
8
BLACK
6
CONTINUOUS
10
1.49661
20
0.636722
11
1.49496
21
0.637881
0
LINE
8
BLACK
6
CONTINUOUS
10
1.49496
20
0.637881
11
1.48271
21
0.655369
0
LINE
8
BLACK
6
CONTINUOUS
10
1.48271
20
0.655369
11
1.47783
21
0.655369
0
LINE
8
BLACK
6
CONTINUOUS
10
1.47783
20
0.655369
11
1.47783
21
0.639574
0
LINE
8
BLACK
6
CONTINUOUS
10
1.47783
20
0.639574
11
1.47765
21
0.638564
0
LINE
8
BLACK
6
CONTINUOUS
10
1.47765
20
0.638564
11
1.47635
21
0.637017
0
LINE
8
BLACK
6
CONTINUOUS
10
1.47635
20
0.637017
11
1.47437
21
0.636666
0
LINE
8
BLACK
6
CONTINUOUS
10
1.47437
20
0.636666
11
1.47262
21
0.637676
0
LINE
8
BLACK
6
CONTINUOUS
10
1.47262
20
0.637676
11
1.47193
21
0.639574
0
LINE
8
BLACK
6
CONTINUOUS
10
1.47193
20
0.639574
11
1.47193
21
0.678944
0
LINE
8
BLACK
6
CONTINUOUS
10
1.47193
20
0.678944
11
1.47199
21
0.679328
0
LINE
8
BLACK
6
CONTINUOUS
10
1.47199
20
0.679328
11
1.47197
21
0.679457
0
LINE
8
BLACK
6
CONTINUOUS
10
1.47197
20
0.679457
11
1.47204
21
0.679571
0
LINE
8
BLACK
6
CONTINUOUS
10
1.47204
20
0.679571
11
1.4721
21
0.679954
0
LINE
8
BLACK
6
CONTINUOUS
10
1.4721
20
0.679954
11
1.4726
21
0.680542
0
LINE
8
BLACK
6
CONTINUOUS
10
1.4726
20
0.680542
11
1.47298
21
0.681206
0
LINE
8
BLACK
6
CONTINUOUS
10
1.47298
20
0.681206
11
1.47323
21
0.681297
0
LINE
8
BLACK
6
CONTINUOUS
10
1.47323
20
0.681297
11
1.4734
21
0.681501
0
LINE
8
BLACK
6
CONTINUOUS
10
1.4734
20
0.681501
11
1.47416
21
0.681635
0
LINE
8
BLACK
6
CONTINUOUS
10
1.47416
20
0.681635
11
1.47488
21
0.681897
0
LINE
8
BLACK
6
CONTINUOUS
10
1.47488
20
0.681897
11
1.48988
21
0.681897
0
LINE
8
BLACK
6
CONTINUOUS
10
1.48988
20
0.681897
11
1.49089
21
0.681719
0
LINE
8
BLACK
6
CONTINUOUS
10
1.47783
20
0.661274
11
1.48918
21
0.661274
0
LINE
8
BLACK
6
CONTINUOUS
10
1.48918
20
0.661274
11
1.49188
21
0.662623
0
LINE
8
BLACK
6
CONTINUOUS
10
1.49188
20
0.662623
11
1.49307
21
0.66382
0
LINE
8
BLACK
6
CONTINUOUS
10
1.49307
20
0.66382
11
1.49442
21
0.666518
0
LINE
8
BLACK
6
CONTINUOUS
10
1.49442
20
0.666518
11
1.49442
21
0.670748
0
LINE
8
BLACK
6
CONTINUOUS
10
1.49442
20
0.670748
11
1.49307
21
0.673446
0
LINE
8
BLACK
6
CONTINUOUS
10
1.49307
20
0.673446
11
1.49188
21
0.674643
0
LINE
8
BLACK
6
CONTINUOUS
10
1.49188
20
0.674643
11
1.48918
21
0.675991
0
LINE
8
BLACK
6
CONTINUOUS
10
1.48918
20
0.675991
11
1.47783
21
0.675991
0
LINE
8
BLACK
6
CONTINUOUS
10
1.47783
20
0.675991
11
1.47783
21
0.661274
0
LINE
8
BLACK
6
CONTINUOUS
10
0.98002
20
0.672638
11
1.06663
21
0.672638
0
LINE
8
BLACK
6
CONTINUOUS
10
1.06663
20
0.672638
11
1.0683
21
0.671946
0
LINE
8
BLACK
6
CONTINUOUS
10
1.0683
20
0.671946
11
1.069
21
0.670276
0
LINE
8
BLACK
6
CONTINUOUS
10
1.069
20
0.670276
11
1.0683
21
0.668605
0
LINE
8
BLACK
6
CONTINUOUS
10
1.0683
20
0.668605
11
1.06663
21
0.667913
0
LINE
8
BLACK
6
CONTINUOUS
10
1.06663
20
0.667913
11
0.98002
21
0.667913
0
LINE
8
BLACK
6
CONTINUOUS
10
0.98002
20
0.667913
11
0.893406
21
0.667913
0
LINE
8
BLACK
6
CONTINUOUS
10
0.893406
20
0.667913
11
0.891735
21
0.668605
0
LINE
8
BLACK
6
CONTINUOUS
10
0.891735
20
0.668605
11
0.891043
21
0.670276
0
LINE
8
BLACK
6
CONTINUOUS
10
0.891043
20
0.670276
11
0.891735
21
0.671946
0
LINE
8
BLACK
6
CONTINUOUS
10
0.891735
20
0.671946
11
0.893406
21
0.672638
0
LINE
8
BLACK
6
CONTINUOUS
10
0.893406
20
0.672638
11
0.98002
21
0.672638
0
LINE
8
BLACK
6
CONTINUOUS
10
0.739515
20
0.683757
11
0.740207
21
0.682087
0
LINE
8
BLACK
6
CONTINUOUS
10
0.740207
20
0.682087
11
0.739515
21
0.680416
0
LINE
8
BLACK
6
CONTINUOUS
10
0.739515
20
0.680416
11
0.737845
21
0.679724
0
LINE
8
BLACK
6
CONTINUOUS
10
0.737845
20
0.679724
11
0.717274
21
0.679724
0
LINE
8
BLACK
6
CONTINUOUS
10
0.717274
20
0.679724
11
0.715603
21
0.680416
0
LINE
8
BLACK
6
CONTINUOUS
10
0.715603
20
0.680416
11
0.714911
21
0.682087
0
LINE
8
BLACK
6
CONTINUOUS
10
0.714911
20
0.682087
11
0.715603
21
0.683757
0
LINE
8
BLACK
6
CONTINUOUS
10
0.715603
20
0.683757
11
0.717274
21
0.684449
0
LINE
8
BLACK
6
CONTINUOUS
10
0.717274
20
0.684449
11
0.737845
21
0.684449
0
LINE
8
BLACK
6
CONTINUOUS
10
0.737845
20
0.684449
11
0.739515
21
0.683757
0
LINE
8
BLACK
6
CONTINUOUS
10
0.739515
20
0.741631
11
0.740207
21
0.739961
0
LINE
8
BLACK
6
CONTINUOUS
10
0.740207
20
0.739961
11
0.739515
21
0.73829
0
LINE
8
BLACK
6
CONTINUOUS
10
0.739515
20
0.73829
11
0.737845
21
0.737598
0
LINE
8
BLACK
6
CONTINUOUS
10
0.737845
20
0.737598
11
0.717274
21
0.737598
0
LINE
8
BLACK
6
CONTINUOUS
10
0.717274
20
0.737598
11
0.715603
21
0.73829
0
LINE
8
BLACK
6
CONTINUOUS
10
0.715603
20
0.73829
11
0.714911
21
0.739961
0
LINE
8
BLACK
6
CONTINUOUS
10
0.714911
20
0.739961
11
0.715603
21
0.741631
0
LINE
8
BLACK
6
CONTINUOUS
10
0.715603
20
0.741631
11
0.717274
21
0.742323
0
LINE
8
BLACK
6
CONTINUOUS
10
0.717274
20
0.742323
11
0.737845
21
0.742323
0
LINE
8
BLACK
6
CONTINUOUS
10
0.737845
20
0.742323
11
0.739515
21
0.741631
0
LINE
8
BLACK
6
CONTINUOUS
10
0.589859
20
0.785578
11
0.590551
21
0.783908
0
LINE
8
BLACK
6
CONTINUOUS
10
0.590551
20
0.783908
11
0.590551
21
0.763337
0
LINE
8
BLACK
6
CONTINUOUS
10
0.590551
20
0.763337
11
0.589859
21
0.761666
0
LINE
8
BLACK
6
CONTINUOUS
10
0.589859
20
0.761666
11
0.588189
21
0.760974
0
LINE
8
BLACK
6
CONTINUOUS
10
0.588189
20
0.760974
11
0.586519
21
0.761666
0
LINE
8
BLACK
6
CONTINUOUS
10
0.586519
20
0.761666
11
0.585827
21
0.763337
0
LINE
8
BLACK
6
CONTINUOUS
10
0.585827
20
0.763337
11
0.585827
21
0.783908
0
LINE
8
BLACK
6
CONTINUOUS
10
0.585827
20
0.783908
11
0.586519
21
0.785578
0
LINE
8
BLACK
6
CONTINUOUS
10
0.586519
20
0.785578
11
0.588189
21
0.78627
0
LINE
8
BLACK
6
CONTINUOUS
10
0.588189
20
0.78627
11
0.589859
21
0.785578
0
LINE
8
BLACK
6
CONTINUOUS
10
0.647733
20
0.785578
11
0.648425
21
0.783908
0
LINE
8
BLACK
6
CONTINUOUS
10
0.648425
20
0.783908
11
0.648425
21
0.763337
0
LINE
8
BLACK
6
CONTINUOUS
10
0.648425
20
0.763337
11
0.647733
21
0.761666
0
LINE
8
BLACK
6
CONTINUOUS
10
0.647733
20
0.761666
11
0.646063
21
0.760974
0
LINE
8
BLACK
6
CONTINUOUS
10
0.646063
20
0.760974
11
0.644393
21
0.761666
0
LINE
8
BLACK
6
CONTINUOUS
10
0.644393
20
0.761666
11
0.643701
21
0.763337
0
LINE
8
BLACK
6
CONTINUOUS
10
0.643701
20
0.763337
11
0.643701
21
0.783908
0
LINE
8
BLACK
6
CONTINUOUS
10
0.643701
20
0.783908
11
0.644393
21
0.785578
0
LINE
8
BLACK
6
CONTINUOUS
10
0.644393
20
0.785578
11
0.646063
21
0.78627
0
LINE
8
BLACK
6
CONTINUOUS
10
0.646063
20
0.78627
11
0.647733
21
0.785578
0
LINE
8
BLACK
6
CONTINUOUS
10
0.739515
20
0.774308
11
0.740207
21
0.772638
0
LINE
8
BLACK
6
CONTINUOUS
10
0.740207
20
0.772638
11
0.739515
21
0.770967
0
LINE
8
BLACK
6
CONTINUOUS
10
0.739515
20
0.770967
11
0.737845
21
0.770276
0
LINE
8
BLACK
6
CONTINUOUS
10
0.737845
20
0.770276
11
0.717274
21
0.770276
0
LINE
8
BLACK
6
CONTINUOUS
10
0.717274
20
0.770276
11
0.715603
21
0.770967
0
LINE
8
BLACK
6
CONTINUOUS
10
0.715603
20
0.770967
11
0.714911
21
0.772638
0
LINE
8
BLACK
6
CONTINUOUS
10
0.714911
20
0.772638
11
0.715603
21
0.774308
0
LINE
8
BLACK
6
CONTINUOUS
10
0.715603
20
0.774308
11
0.717274
21
0.775
0
LINE
8
BLACK
6
CONTINUOUS
10
0.717274
20
0.775
11
0.737845
21
0.775
0
LINE
8
BLACK
6
CONTINUOUS
10
0.737845
20
0.775
11
0.739515
21
0.774308
0
LINE
8
BLACK
6
CONTINUOUS
10
0.53799
20
0.855956
11
0.538054
21
0.855958
0
LINE
8
BLACK
6
CONTINUOUS
10
0.538054
20
0.855958
11
0.543678
21
0.854083
0
LINE
8
BLACK
6
CONTINUOUS
10
0.543678
20
0.854083
11
0.54458
21
0.853595
0
LINE
8
BLACK
6
CONTINUOUS
10
0.54458
20
0.853595
11
0.544673
21
0.853444
0
LINE
8
BLACK
6
CONTINUOUS
10
0.544673
20
0.853444
11
0.544833
21
0.85337
0
LINE
8
BLACK
6
CONTINUOUS
10
0.544833
20
0.85337
11
0.546707
21
0.851495
0
LINE
8
BLACK
6
CONTINUOUS
10
0.546707
20
0.851495
11
0.547296
21
0.850655
0
LINE
8
BLACK
6
CONTINUOUS
10
0.547296
20
0.850655
11
0.547472
21
0.848643
0
LINE
8
BLACK
6
CONTINUOUS
10
0.547472
20
0.848643
11
0.546313
21
0.846988
0
LINE
8
BLACK
6
CONTINUOUS
10
0.546313
20
0.846988
11
0.544362
21
0.846466
0
LINE
8
BLACK
6
CONTINUOUS
10
0.544362
20
0.846466
11
0.542531
21
0.847319
0
LINE
8
BLACK
6
CONTINUOUS
10
0.542531
20
0.847319
11
0.54115
21
0.848701
0
LINE
8
BLACK
6
CONTINUOUS
10
0.54115
20
0.848701
11
0.536641
21
0.850204
0
LINE
8
BLACK
6
CONTINUOUS
10
0.536641
20
0.850204
11
0.53385
21
0.850204
0
LINE
8
BLACK
6
CONTINUOUS
10
0.53385
20
0.850204
11
0.529342
21
0.848701
0
LINE
8
BLACK
6
CONTINUOUS
10
0.529342
20
0.848701
11
0.526424
21
0.845783
0
LINE
8
BLACK
6
CONTINUOUS
10
0.526424
20
0.845783
11
0.524908
21
0.842752
0
LINE
8
BLACK
6
CONTINUOUS
10
0.524908
20
0.842752
11
0.5232
21
0.83592
0
LINE
8
BLACK
6
CONTINUOUS
10
0.5232
20
0.83592
11
0.5232
21
0.831023
0
LINE
8
BLACK
6
CONTINUOUS
10
0.5232
20
0.831023
11
0.524908
21
0.824191
0
LINE
8
BLACK
6
CONTINUOUS
10
0.524908
20
0.824191
11
0.526424
21
0.82116
0
LINE
8
BLACK
6
CONTINUOUS
10
0.526424
20
0.82116
11
0.529342
21
0.818242
0
LINE
8
BLACK
6
CONTINUOUS
10
0.529342
20
0.818242
11
0.53385
21
0.816739
0
LINE
8
BLACK
6
CONTINUOUS
10
0.53385
20
0.816739
11
0.536641
21
0.816739
0
LINE
8
BLACK
6
CONTINUOUS
10
0.536641
20
0.816739
11
0.54115
21
0.818242
0
LINE
8
BLACK
6
CONTINUOUS
10
0.54115
20
0.818242
11
0.542531
21
0.819624
0
LINE
8
BLACK
6
CONTINUOUS
10
0.542531
20
0.819624
11
0.543371
21
0.820212
0
LINE
8
BLACK
6
CONTINUOUS
10
0.543371
20
0.820212
11
0.545384
21
0.820388
0
LINE
8
BLACK
6
CONTINUOUS
10
0.545384
20
0.820388
11
0.547038
21
0.81923
0
LINE
8
BLACK
6
CONTINUOUS
10
0.547038
20
0.81923
11
0.547561
21
0.817279
0
LINE
8
BLACK
6
CONTINUOUS
10
0.547561
20
0.817279
11
0.546707
21
0.815448
0
LINE
8
BLACK
6
CONTINUOUS
10
0.546707
20
0.815448
11
0.544833
21
0.813574
0
LINE
8
BLACK
6
CONTINUOUS
10
0.544833
20
0.813574
11
0.543993
21
0.812985
0
LINE
8
BLACK
6
CONTINUOUS
10
0.543993
20
0.812985
11
0.543817
21
0.81297
0
LINE
8
BLACK
6
CONTINUOUS
10
0.543817
20
0.81297
11
0.543678
21
0.81286
0
LINE
8
BLACK
6
CONTINUOUS
10
0.543678
20
0.81286
11
0.538054
21
0.810985
0
LINE
8
BLACK
6
CONTINUOUS
10
0.538054
20
0.810985
11
0.537181
21
0.810856
0
LINE
8
BLACK
6
CONTINUOUS
10
0.537181
20
0.810856
11
0.53712
21
0.810834
0
LINE
8
BLACK
6
CONTINUOUS
10
0.53712
20
0.810834
11
0.533371
21
0.810834
0
LINE
8
BLACK
6
CONTINUOUS
10
0.533371
20
0.810834
11
0.532501
21
0.810987
0
LINE
8
BLACK
6
CONTINUOUS
10
0.532501
20
0.810987
11
0.532437
21
0.810985
0
LINE
8
BLACK
6
CONTINUOUS
10
0.532437
20
0.810985
11
0.526813
21
0.81286
0
LINE
8
BLACK
6
CONTINUOUS
10
0.526813
20
0.81286
11
0.525911
21
0.813349
0
LINE
8
BLACK
6
CONTINUOUS
10
0.525911
20
0.813349
11
0.525819
21
0.813499
0
LINE
8
BLACK
6
CONTINUOUS
10
0.525819
20
0.813499
11
0.525659
21
0.813574
0
LINE
8
BLACK
6
CONTINUOUS
10
0.525659
20
0.813574
11
0.521909
21
0.817323
0
LINE
8
BLACK
6
CONTINUOUS
10
0.521909
20
0.817323
11
0.521403
21
0.818046
0
LINE
8
BLACK
6
CONTINUOUS
10
0.521403
20
0.818046
11
0.521356
21
0.81809
0
LINE
8
BLACK
6
CONTINUOUS
10
0.521356
20
0.81809
11
0.519481
21
0.82184
0
LINE
8
BLACK
6
CONTINUOUS
10
0.519481
20
0.82184
11
0.519336
21
0.822328
0
LINE
8
BLACK
6
CONTINUOUS
10
0.519336
20
0.822328
11
0.519258
21
0.822444
0
LINE
8
BLACK
6
CONTINUOUS
10
0.519258
20
0.822444
11
0.517383
21
0.829943
0
LINE
8
BLACK
6
CONTINUOUS
10
0.517383
20
0.829943
11
0.517341
21
0.830531
0
LINE
8
BLACK
6
CONTINUOUS
10
0.517341
20
0.830531
11
0.517295
21
0.83066
0
LINE
8
BLACK
6
CONTINUOUS
10
0.517295
20
0.83066
11
0.517295
21
0.836284
0
LINE
8
BLACK
6
CONTINUOUS
10
0.517295
20
0.836284
11
0.517397
21
0.836864
0
LINE
8
BLACK
6
CONTINUOUS
10
0.517397
20
0.836864
11
0.517383
21
0.837
0
LINE
8
BLACK
6
CONTINUOUS
10
0.517383
20
0.837
11
0.519258
21
0.844499
0
LINE
8
BLACK
6
CONTINUOUS
10
0.519258
20
0.844499
11
0.519465
21
0.844965
0
LINE
8
BLACK
6
CONTINUOUS
10
0.519465
20
0.844965
11
0.519481
21
0.845103
0
LINE
8
BLACK
6
CONTINUOUS
10
0.519481
20
0.845103
11
0.521356
21
0.848853
0
LINE
8
BLACK
6
CONTINUOUS
10
0.521356
20
0.848853
11
0.521882
21
0.849562
0
LINE
8
BLACK
6
CONTINUOUS
10
0.521882
20
0.849562
11
0.521909
21
0.84962
0
LINE
8
BLACK
6
CONTINUOUS
10
0.521909
20
0.84962
11
0.525659
21
0.85337
0
LINE
8
BLACK
6
CONTINUOUS
10
0.525659
20
0.85337
11
0.526499
21
0.853958
0
LINE
8
BLACK
6
CONTINUOUS
10
0.526499
20
0.853958
11
0.526675
21
0.853974
0
LINE
8
BLACK
6
CONTINUOUS
10
0.526675
20
0.853974
11
0.526813
21
0.854083
0
LINE
8
BLACK
6
CONTINUOUS
10
0.526813
20
0.854083
11
0.532437
21
0.855958
0
LINE
8
BLACK
6
CONTINUOUS
10
0.532437
20
0.855958
11
0.53331
21
0.856087
0
LINE
8
BLACK
6
CONTINUOUS
10
0.53331
20
0.856087
11
0.533371
21
0.856109
0
LINE
8
BLACK
6
CONTINUOUS
10
0.533371
20
0.856109
11
0.53712
21
0.856109
0
LINE
8
BLACK
6
CONTINUOUS
10
0.53712
20
0.856109
11
0.53799
21
0.855956
0
LINE
8
BLACK
6
CONTINUOUS
10
0.571212
20
0.856035
11
0.571379
21
0.856065
0
LINE
8
BLACK
6
CONTINUOUS
10
0.571379
20
0.856065
11
0.572121
21
0.855636
0
LINE
8
BLACK
6
CONTINUOUS
10
0.572121
20
0.855636
11
0.572906
21
0.855292
0
LINE
8
BLACK
6
CONTINUOUS
10
0.572906
20
0.855292
11
0.572981
21
0.85514
0
LINE
8
BLACK
6
CONTINUOUS
10
0.572981
20
0.85514
11
0.573128
21
0.855055
0
LINE
8
BLACK
6
CONTINUOUS
10
0.573128
20
0.855055
11
0.573421
21
0.854249
0
LINE
8
BLACK
6
CONTINUOUS
10
0.573421
20
0.854249
11
0.573801
21
0.853481
0
LINE
8
BLACK
6
CONTINUOUS
10
0.573801
20
0.853481
11
0.573761
21
0.853316
0
LINE
8
BLACK
6
CONTINUOUS
10
0.573761
20
0.853316
11
0.573819
21
0.853157
0
LINE
8
BLACK
6
CONTINUOUS
10
0.573819
20
0.853157
11
0.573819
21
0.816739
0
LINE
8
BLACK
6
CONTINUOUS
10
0.573819
20
0.816739
11
0.582115
21
0.816739
0
LINE
8
BLACK
6
CONTINUOUS
10
0.582115
20
0.816739
11
0.583125
21
0.816561
0
LINE
8
BLACK
6
CONTINUOUS
10
0.583125
20
0.816561
11
0.584672
21
0.815263
0
LINE
8
BLACK
6
CONTINUOUS
10
0.584672
20
0.815263
11
0.585023
21
0.813274
0
LINE
8
BLACK
6
CONTINUOUS
10
0.585023
20
0.813274
11
0.584013
21
0.811525
0
LINE
8
BLACK
6
CONTINUOUS
10
0.584013
20
0.811525
11
0.582115
21
0.810834
0
LINE
8
BLACK
6
CONTINUOUS
10
0.582115
20
0.810834
11
0.559618
21
0.810834
0
LINE
8
BLACK
6
CONTINUOUS
10
0.559618
20
0.810834
11
0.558608
21
0.811012
0
LINE
8
BLACK
6
CONTINUOUS
10
0.558608
20
0.811012
11
0.55706
21
0.81231
0
LINE
8
BLACK
6
CONTINUOUS
10
0.55706
20
0.81231
11
0.55671
21
0.814299
0
LINE
8
BLACK
6
CONTINUOUS
10
0.55671
20
0.814299
11
0.55772
21
0.816049
0
LINE
8
BLACK
6
CONTINUOUS
10
0.55772
20
0.816049
11
0.559618
21
0.816739
0
LINE
8
BLACK
6
CONTINUOUS
10
0.559618
20
0.816739
11
0.567913
21
0.816739
0
LINE
8
BLACK
6
CONTINUOUS
10
0.567913
20
0.816739
11
0.567913
21
0.844153
0
LINE
8
BLACK
6
CONTINUOUS
10
0.567913
20
0.844153
11
0.565455
21
0.841695
0
LINE
8
BLACK
6
CONTINUOUS
10
0.565455
20
0.841695
11
0.564732
21
0.841189
0
LINE
8
BLACK
6
CONTINUOUS
10
0.564732
20
0.841189
11
0.564688
21
0.841142
0
LINE
8
BLACK
6
CONTINUOUS
10
0.564688
20
0.841142
11
0.560938
21
0.839267
0
LINE
8
BLACK
6
CONTINUOUS
10
0.560938
20
0.839267
11
0.559955
21
0.838975
0
LINE
8
BLACK
6
CONTINUOUS
10
0.559955
20
0.838975
11
0.557991
21
0.839444
0
LINE
8
BLACK
6
CONTINUOUS
10
0.557991
20
0.839444
11
0.556787
21
0.841066
0
LINE
8
BLACK
6
CONTINUOUS
10
0.556787
20
0.841066
11
0.556908
21
0.843082
0
LINE
8
BLACK
6
CONTINUOUS
10
0.556908
20
0.843082
11
0.558297
21
0.844549
0
LINE
8
BLACK
6
CONTINUOUS
10
0.558297
20
0.844549
11
0.561618
21
0.84621
0
LINE
8
BLACK
6
CONTINUOUS
10
0.561618
20
0.84621
11
0.564822
21
0.849414
0
LINE
8
BLACK
6
CONTINUOUS
10
0.564822
20
0.849414
11
0.568409
21
0.854795
0
LINE
8
BLACK
6
CONTINUOUS
10
0.568409
20
0.854795
11
0.569118
21
0.855536
0
LINE
8
BLACK
6
CONTINUOUS
10
0.569118
20
0.855536
11
0.569281
21
0.855584
0
LINE
8
BLACK
6
CONTINUOUS
10
0.569281
20
0.855584
11
0.56939
21
0.855714
0
LINE
8
BLACK
6
CONTINUOUS
10
0.56939
20
0.855714
11
0.570234
21
0.855863
0
LINE
8
BLACK
6
CONTINUOUS
10
0.570234
20
0.855863
11
0.571056
21
0.856103
0
LINE
8
BLACK
6
CONTINUOUS
10
0.571056
20
0.856103
11
0.571212
21
0.856035
0
LINE
8
BLACK
6
CONTINUOUS
10
0.739515
20
0.832182
11
0.740207
21
0.830512
0
LINE
8
BLACK
6
CONTINUOUS
10
0.740207
20
0.830512
11
0.739515
21
0.828841
0
LINE
8
BLACK
6
CONTINUOUS
10
0.739515
20
0.828841
11
0.737845
21
0.82815
0
LINE
8
BLACK
6
CONTINUOUS
10
0.737845
20
0.82815
11
0.717274
21
0.82815
0
LINE
8
BLACK
6
CONTINUOUS
10
0.717274
20
0.82815
11
0.715603
21
0.828841
0
LINE
8
BLACK
6
CONTINUOUS
10
0.715603
20
0.828841
11
0.714911
21
0.830512
0
LINE
8
BLACK
6
CONTINUOUS
10
0.714911
20
0.830512
11
0.715603
21
0.832182
0
LINE
8
BLACK
6
CONTINUOUS
10
0.715603
20
0.832182
11
0.717274
21
0.832874
0
LINE
8
BLACK
6
CONTINUOUS
10
0.717274
20
0.832874
11
0.737845
21
0.832874
0
LINE
8
BLACK
6
CONTINUOUS
10
0.737845
20
0.832874
11
0.739515
21
0.832182
0
LINE
8
BLACK
6
CONTINUOUS
10
0.762399
20
0.879578
11
0.762464
21
0.87958
0
LINE
8
BLACK
6
CONTINUOUS
10
0.762464
20
0.87958
11
0.768088
21
0.877705
0
LINE
8
BLACK
6
CONTINUOUS
10
0.768088
20
0.877705
11
0.76899
21
0.877217
0
LINE
8
BLACK
6
CONTINUOUS
10
0.76899
20
0.877217
11
0.769082
21
0.877067
0
LINE
8
BLACK
6
CONTINUOUS
10
0.769082
20
0.877067
11
0.769242
21
0.876992
0
LINE
8
BLACK
6
CONTINUOUS
10
0.769242
20
0.876992
11
0.771117
21
0.875117
0
LINE
8
BLACK
6
CONTINUOUS
10
0.771117
20
0.875117
11
0.771705
21
0.874277
0
LINE
8
BLACK
6
CONTINUOUS
10
0.771705
20
0.874277
11
0.771881
21
0.872265
0
LINE
8
BLACK
6
CONTINUOUS
10
0.771881
20
0.872265
11
0.770722
21
0.87061
0
LINE
8
BLACK
6
CONTINUOUS
10
0.770722
20
0.87061
11
0.768771
21
0.870088
0
LINE
8
BLACK
6
CONTINUOUS
10
0.768771
20
0.870088
11
0.766941
21
0.870941
0
LINE
8
BLACK
6
CONTINUOUS
10
0.766941
20
0.870941
11
0.765559
21
0.872323
0
LINE
8
BLACK
6
CONTINUOUS
10
0.765559
20
0.872323
11
0.761051
21
0.873826
0
LINE
8
BLACK
6
CONTINUOUS
10
0.761051
20
0.873826
11
0.758259
21
0.873826
0
LINE
8
BLACK
6
CONTINUOUS
10
0.758259
20
0.873826
11
0.753751
21
0.872323
0
LINE
8
BLACK
6
CONTINUOUS
10
0.753751
20
0.872323
11
0.750833
21
0.869405
0
LINE
8
BLACK
6
CONTINUOUS
10
0.750833
20
0.869405
11
0.749318
21
0.866374
0
LINE
8
BLACK
6
CONTINUOUS
10
0.749318
20
0.866374
11
0.74761
21
0.859542
0
LINE
8
BLACK
6
CONTINUOUS
10
0.74761
20
0.859542
11
0.74761
21
0.854645
0
LINE
8
BLACK
6
CONTINUOUS
10
0.74761
20
0.854645
11
0.749318
21
0.847813
0
LINE
8
BLACK
6
CONTINUOUS
10
0.749318
20
0.847813
11
0.750833
21
0.844782
0
LINE
8
BLACK
6
CONTINUOUS
10
0.750833
20
0.844782
11
0.753751
21
0.841864
0
LINE
8
BLACK
6
CONTINUOUS
10
0.753751
20
0.841864
11
0.758259
21
0.840361
0
LINE
8
BLACK
6
CONTINUOUS
10
0.758259
20
0.840361
11
0.761051
21
0.840361
0
LINE
8
BLACK
6
CONTINUOUS
10
0.761051
20
0.840361
11
0.765559
21
0.841864
0
LINE
8
BLACK
6
CONTINUOUS
10
0.765559
20
0.841864
11
0.766941
21
0.843246
0
LINE
8
BLACK
6
CONTINUOUS
10
0.766941
20
0.843246
11
0.767781
21
0.843834
0
LINE
8
BLACK
6
CONTINUOUS
10
0.767781
20
0.843834
11
0.769793
21
0.84401
0
LINE
8
BLACK
6
CONTINUOUS
10
0.769793
20
0.84401
11
0.771448
21
0.842852
0
LINE
8
BLACK
6
CONTINUOUS
10
0.771448
20
0.842852
11
0.77197
21
0.840901
0
LINE
8
BLACK
6
CONTINUOUS
10
0.77197
20
0.840901
11
0.771117
21
0.83907
0
LINE
8
BLACK
6
CONTINUOUS
10
0.771117
20
0.83907
11
0.769242
21
0.837196
0
LINE
8
BLACK
6
CONTINUOUS
10
0.769242
20
0.837196
11
0.768402
21
0.836607
0
LINE
8
BLACK
6
CONTINUOUS
10
0.768402
20
0.836607
11
0.768226
21
0.836592
0
LINE
8
BLACK
6
CONTINUOUS
10
0.768226
20
0.836592
11
0.768088
21
0.836482
0
LINE
8
BLACK
6
CONTINUOUS
10
0.768088
20
0.836482
11
0.762464
21
0.834607
0
LINE
8
BLACK
6
CONTINUOUS
10
0.762464
20
0.834607
11
0.76159
21
0.834478
0
LINE
8
BLACK
6
CONTINUOUS
10
0.76159
20
0.834478
11
0.76153
21
0.834456
0
LINE
8
BLACK
6
CONTINUOUS
10
0.76153
20
0.834456
11
0.75778
21
0.834456
0
LINE
8
BLACK
6
CONTINUOUS
10
0.75778
20
0.834456
11
0.756911
21
0.834609
0
LINE
8
BLACK
6
CONTINUOUS
10
0.756911
20
0.834609
11
0.756846
21
0.834607
0
LINE
8
BLACK
6
CONTINUOUS
10
0.756846
20
0.834607
11
0.751222
21
0.836482
0
LINE
8
BLACK
6
CONTINUOUS
10
0.751222
20
0.836482
11
0.75032
21
0.836971
0
LINE
8
BLACK
6
CONTINUOUS
10
0.75032
20
0.836971
11
0.750228
21
0.837121
0
LINE
8
BLACK
6
CONTINUOUS
10
0.750228
20
0.837121
11
0.750068
21
0.837196
0
LINE
8
BLACK
6
CONTINUOUS
10
0.750068
20
0.837196
11
0.746319
21
0.840945
0
LINE
8
BLACK
6
CONTINUOUS
10
0.746319
20
0.840945
11
0.745812
21
0.841668
0
LINE
8
BLACK
6
CONTINUOUS
10
0.745812
20
0.841668
11
0.745765
21
0.841713
0
LINE
8
BLACK
6
CONTINUOUS
10
0.745765
20
0.841713
11
0.743891
21
0.845462
0
LINE
8
BLACK
6
CONTINUOUS
10
0.743891
20
0.845462
11
0.743745
21
0.845951
0
LINE
8
BLACK
6
CONTINUOUS
10
0.743745
20
0.845951
11
0.743667
21
0.846066
0
LINE
8
BLACK
6
CONTINUOUS
10
0.743667
20
0.846066
11
0.741792
21
0.853565
0
LINE
8
BLACK
6
CONTINUOUS
10
0.741792
20
0.853565
11
0.741751
21
0.854153
0
LINE
8
BLACK
6
CONTINUOUS
10
0.741751
20
0.854153
11
0.741704
21
0.854282
0
LINE
8
BLACK
6
CONTINUOUS
10
0.741704
20
0.854282
11
0.741704
21
0.859906
0
LINE
8
BLACK
6
CONTINUOUS
10
0.741704
20
0.859906
11
0.741806
21
0.860486
0
LINE
8
BLACK
6
CONTINUOUS
10
0.741806
20
0.860486
11
0.741792
21
0.860622
0
LINE
8
BLACK
6
CONTINUOUS
10
0.741792
20
0.860622
11
0.743667
21
0.868121
0
LINE
8
BLACK
6
CONTINUOUS
10
0.743667
20
0.868121
11
0.743875
21
0.868587
0
LINE
8
BLACK
6
CONTINUOUS
10
0.743875
20
0.868587
11
0.743891
21
0.868725
0
LINE
8
BLACK
6
CONTINUOUS
10
0.743891
20
0.868725
11
0.745765
21
0.872475
0
LINE
8
BLACK
6
CONTINUOUS
10
0.745765
20
0.872475
11
0.746291
21
0.873184
0
LINE
8
BLACK
6
CONTINUOUS
10
0.746291
20
0.873184
11
0.746319
21
0.873242
0
LINE
8
BLACK
6
CONTINUOUS
10
0.746319
20
0.873242
11
0.750068
21
0.876992
0
LINE
8
BLACK
6
CONTINUOUS
10
0.750068
20
0.876992
11
0.750908
21
0.87758
0
LINE
8
BLACK
6
CONTINUOUS
10
0.750908
20
0.87758
11
0.751084
21
0.877596
0
LINE
8
BLACK
6
CONTINUOUS
10
0.751084
20
0.877596
11
0.751222
21
0.877705
0
LINE
8
BLACK
6
CONTINUOUS
10
0.751222
20
0.877705
11
0.756846
21
0.87958
0
LINE
8
BLACK
6
CONTINUOUS
10
0.756846
20
0.87958
11
0.75772
21
0.87971
0
LINE
8
BLACK
6
CONTINUOUS
10
0.75772
20
0.87971
11
0.75778
21
0.879732
0
LINE
8
BLACK
6
CONTINUOUS
10
0.75778
20
0.879732
11
0.76153
21
0.879732
0
LINE
8
BLACK
6
CONTINUOUS
10
0.76153
20
0.879732
11
0.762399
21
0.879578
0
LINE
8
BLACK
6
CONTINUOUS
10
0.805659
20
0.879553
11
0.807207
21
0.878255
0
LINE
8
BLACK
6
CONTINUOUS
10
0.807207
20
0.878255
11
0.807557
21
0.876266
0
LINE
8
BLACK
6
CONTINUOUS
10
0.807557
20
0.876266
11
0.806547
21
0.874517
0
LINE
8
BLACK
6
CONTINUOUS
10
0.806547
20
0.874517
11
0.804649
21
0.873826
0
LINE
8
BLACK
6
CONTINUOUS
10
0.804649
20
0.873826
11
0.788574
21
0.873826
0
LINE
8
BLACK
6
CONTINUOUS
10
0.788574
20
0.873826
11
0.787597
21
0.864055
0
LINE
8
BLACK
6
CONTINUOUS
10
0.787597
20
0.864055
11
0.788331
21
0.864422
0
LINE
8
BLACK
6
CONTINUOUS
10
0.788331
20
0.864422
11
0.789314
21
0.864714
0
LINE
8
BLACK
6
CONTINUOUS
10
0.789314
20
0.864714
11
0.789485
21
0.864673
0
LINE
8
BLACK
6
CONTINUOUS
10
0.789485
20
0.864673
11
0.789651
21
0.864733
0
LINE
8
BLACK
6
CONTINUOUS
10
0.789651
20
0.864733
11
0.799025
21
0.864733
0
LINE
8
BLACK
6
CONTINUOUS
10
0.799025
20
0.864733
11
0.800035
21
0.864555
0
LINE
8
BLACK
6
CONTINUOUS
10
0.800035
20
0.864555
11
0.80017
21
0.864442
0
LINE
8
BLACK
6
CONTINUOUS
10
0.80017
20
0.864442
11
0.800346
21
0.864422
0
LINE
8
BLACK
6
CONTINUOUS
10
0.800346
20
0.864422
11
0.804095
21
0.862547
0
LINE
8
BLACK
6
CONTINUOUS
10
0.804095
20
0.862547
11
0.804804
21
0.862021
0
LINE
8
BLACK
6
CONTINUOUS
10
0.804804
20
0.862021
11
0.804863
21
0.861994
0
LINE
8
BLACK
6
CONTINUOUS
10
0.804863
20
0.861994
11
0.806737
21
0.860119
0
LINE
8
BLACK
6
CONTINUOUS
10
0.806737
20
0.860119
11
0.807244
21
0.859396
0
LINE
8
BLACK
6
CONTINUOUS
10
0.807244
20
0.859396
11
0.80729
21
0.859352
0
LINE
8
BLACK
6
CONTINUOUS
10
0.80729
20
0.859352
11
0.809165
21
0.855602
0
LINE
8
BLACK
6
CONTINUOUS
10
0.809165
20
0.855602
11
0.809458
21
0.854619
0
LINE
8
BLACK
6
CONTINUOUS
10
0.809458
20
0.854619
11
0.809417
21
0.854448
0
LINE
8
BLACK
6
CONTINUOUS
10
0.809417
20
0.854448
11
0.809477
21
0.854282
0
LINE
8
BLACK
6
CONTINUOUS
10
0.809477
20
0.854282
11
0.809477
21
0.844908
0
LINE
8
BLACK
6
CONTINUOUS
10
0.809477
20
0.844908
11
0.809299
21
0.843898
0
LINE
8
BLACK
6
CONTINUOUS
10
0.809299
20
0.843898
11
0.809185
21
0.843763
0
LINE
8
BLACK
6
CONTINUOUS
10
0.809185
20
0.843763
11
0.809165
21
0.843587
0
LINE
8
BLACK
6
CONTINUOUS
10
0.809165
20
0.843587
11
0.80729
21
0.839838
0
LINE
8
BLACK
6
CONTINUOUS
10
0.80729
20
0.839838
11
0.806764
21
0.839129
0
LINE
8
BLACK
6
CONTINUOUS
10
0.806764
20
0.839129
11
0.806737
21
0.83907
0
LINE
8
BLACK
6
CONTINUOUS
10
0.806737
20
0.83907
11
0.804863
21
0.837196
0
LINE
8
BLACK
6
CONTINUOUS
10
0.804863
20
0.837196
11
0.804139
21
0.836689
0
LINE
8
BLACK
6
CONTINUOUS
10
0.804139
20
0.836689
11
0.804095
21
0.836642
0
LINE
8
BLACK
6
CONTINUOUS
10
0.804095
20
0.836642
11
0.800346
21
0.834768
0
LINE
8
BLACK
6
CONTINUOUS
10
0.800346
20
0.834768
11
0.799363
21
0.834475
0
LINE
8
BLACK
6
CONTINUOUS
10
0.799363
20
0.834475
11
0.799191
21
0.834516
0
LINE
8
BLACK
6
CONTINUOUS
10
0.799191
20
0.834516
11
0.799025
21
0.834456
0
LINE
8
BLACK
6
CONTINUOUS
10
0.799025
20
0.834456
11
0.789651
21
0.834456
0
LINE
8
BLACK
6
CONTINUOUS
10
0.789651
20
0.834456
11
0.788641
21
0.834634
0
LINE
8
BLACK
6
CONTINUOUS
10
0.788641
20
0.834634
11
0.788506
21
0.834748
0
LINE
8
BLACK
6
CONTINUOUS
10
0.788506
20
0.834748
11
0.788331
21
0.834768
0
LINE
8
BLACK
6
CONTINUOUS
10
0.788331
20
0.834768
11
0.784581
21
0.836642
0
LINE
8
BLACK
6
CONTINUOUS
10
0.784581
20
0.836642
11
0.783872
21
0.837168
0
LINE
8
BLACK
6
CONTINUOUS
10
0.783872
20
0.837168
11
0.783814
21
0.837196
0
LINE
8
BLACK
6
CONTINUOUS
10
0.783814
20
0.837196
11
0.781939
21
0.83907
0
LINE
8
BLACK
6
CONTINUOUS
10
0.781939
20
0.83907
11
0.781351
21
0.83991
0
LINE
8
BLACK
6
CONTINUOUS
10
0.781351
20
0.83991
11
0.781175
21
0.841923
0
LINE
8
BLACK
6
CONTINUOUS
10
0.781175
20
0.841923
11
0.782333
21
0.843577
0
LINE
8
BLACK
6
CONTINUOUS
10
0.782333
20
0.843577
11
0.784284
21
0.8441
0
LINE
8
BLACK
6
CONTINUOUS
10
0.784284
20
0.8441
11
0.786115
21
0.843246
0
LINE
8
BLACK
6
CONTINUOUS
10
0.786115
20
0.843246
11
0.787651
21
0.84171
0
LINE
8
BLACK
6
CONTINUOUS
10
0.787651
20
0.84171
11
0.790348
21
0.840361
0
LINE
8
BLACK
6
CONTINUOUS
10
0.790348
20
0.840361
11
0.798328
21
0.840361
0
LINE
8
BLACK
6
CONTINUOUS
10
0.798328
20
0.840361
11
0.801026
21
0.84171
0
LINE
8
BLACK
6
CONTINUOUS
10
0.801026
20
0.84171
11
0.802223
21
0.842907
0
LINE
8
BLACK
6
CONTINUOUS
10
0.802223
20
0.842907
11
0.803571
21
0.845605
0
LINE
8
BLACK
6
CONTINUOUS
10
0.803571
20
0.845605
11
0.803571
21
0.853585
0
LINE
8
BLACK
6
CONTINUOUS
10
0.803571
20
0.853585
11
0.802223
21
0.856282
0
LINE
8
BLACK
6
CONTINUOUS
10
0.802223
20
0.856282
11
0.801026
21
0.857479
0
LINE
8
BLACK
6
CONTINUOUS
10
0.801026
20
0.857479
11
0.798328
21
0.858828
0
LINE
8
BLACK
6
CONTINUOUS
10
0.798328
20
0.858828
11
0.790348
21
0.858828
0
LINE
8
BLACK
6
CONTINUOUS
10
0.790348
20
0.858828
11
0.787651
21
0.857479
0
LINE
8
BLACK
6
CONTINUOUS
10
0.787651
20
0.857479
11
0.786115
21
0.855943
0
LINE
8
BLACK
6
CONTINUOUS
10
0.786115
20
0.855943
11
0.785275
21
0.855355
0
LINE
8
BLACK
6
CONTINUOUS
10
0.785275
20
0.855355
11
0.785256
21
0.855353
0
LINE
8
BLACK
6
CONTINUOUS
10
0.785256
20
0.855353
11
0.785242
21
0.85534
0
LINE
8
BLACK
6
CONTINUOUS
10
0.785242
20
0.85534
11
0.784251
21
0.855265
0
LINE
8
BLACK
6
CONTINUOUS
10
0.784251
20
0.855265
11
0.783263
21
0.855179
0
LINE
8
BLACK
6
CONTINUOUS
10
0.783263
20
0.855179
11
0.783247
21
0.85519
0
LINE
8
BLACK
6
CONTINUOUS
10
0.783247
20
0.85519
11
0.783227
21
0.855189
0
LINE
8
BLACK
6
CONTINUOUS
10
0.783227
20
0.855189
11
0.782421
21
0.855769
0
LINE
8
BLACK
6
CONTINUOUS
10
0.782421
20
0.855769
11
0.781608
21
0.856338
0
LINE
8
BLACK
6
CONTINUOUS
10
0.781608
20
0.856338
11
0.781603
21
0.856356
0
LINE
8
BLACK
6
CONTINUOUS
10
0.781603
20
0.856356
11
0.781587
21
0.856368
0
LINE
8
BLACK
6
CONTINUOUS
10
0.781587
20
0.856368
11
0.781342
21
0.857329
0
LINE
8
BLACK
6
CONTINUOUS
10
0.781342
20
0.857329
11
0.781086
21
0.858288
0
LINE
8
BLACK
6
CONTINUOUS
10
0.781086
20
0.858288
11
0.781094
21
0.858306
0
LINE
8
BLACK
6
CONTINUOUS
10
0.781094
20
0.858306
11
0.781089
21
0.858325
0
LINE
8
BLACK
6
CONTINUOUS
10
0.781089
20
0.858325
11
0.782964
21
0.877073
0
LINE
8
BLACK
6
CONTINUOUS
10
0.782964
20
0.877073
11
0.783006
21
0.877223
0
LINE
8
BLACK
6
CONTINUOUS
10
0.783006
20
0.877223
11
0.782994
21
0.877292
0
LINE
8
BLACK
6
CONTINUOUS
10
0.782994
20
0.877292
11
0.783055
21
0.877398
0
LINE
8
BLACK
6
CONTINUOUS
10
0.783055
20
0.877398
11
0.783241
21
0.87806
0
LINE
8
BLACK
6
CONTINUOUS
10
0.783241
20
0.87806
11
0.78369
21
0.878498
0
LINE
8
BLACK
6
CONTINUOUS
10
0.78369
20
0.878498
11
0.784004
21
0.879041
0
LINE
8
BLACK
6
CONTINUOUS
10
0.784004
20
0.879041
11
0.784392
21
0.879182
0
LINE
8
BLACK
6
CONTINUOUS
10
0.784392
20
0.879182
11
0.784687
21
0.87947
0
LINE
8
BLACK
6
CONTINUOUS
10
0.784687
20
0.87947
11
0.785312
21
0.879517
0
LINE
8
BLACK
6
CONTINUOUS
10
0.785312
20
0.879517
11
0.785902
21
0.879732
0
LINE
8
BLACK
6
CONTINUOUS
10
0.785902
20
0.879732
11
0.804649
21
0.879732
0
LINE
8
BLACK
6
CONTINUOUS
10
0.804649
20
0.879732
11
0.805659
21
0.879553
0
LINE
8
BLACK
6
CONTINUOUS
10
0.394387
20
1.10403
11
0.395079
21
1.10236
0
LINE
8
BLACK
6
CONTINUOUS
10
0.395079
20
1.10236
11
0.395079
21
0.889764
0
LINE
8
BLACK
6
CONTINUOUS
10
0.395079
20
0.889764
11
0.394387
21
0.888093
0
LINE
8
BLACK
6
CONTINUOUS
10
0.394387
20
0.888093
11
0.392717
21
0.887402
0
LINE
8
BLACK
6
CONTINUOUS
10
0.392717
20
0.887402
11
0.262795
21
0.887402
0
LINE
8
BLACK
6
CONTINUOUS
10
0.262795
20
0.887402
11
0.261125
21
0.888093
0
LINE
8
BLACK
6
CONTINUOUS
10
0.261125
20
0.888093
11
0.260433
21
0.889764
0
LINE
8
BLACK
6
CONTINUOUS
10
0.260433
20
0.889764
11
0.260433
21
1.10236
0
LINE
8
BLACK
6
CONTINUOUS
10
0.260433
20
1.10236
11
0.261125
21
1.10403
0
LINE
8
BLACK
6
CONTINUOUS
10
0.261125
20
1.10403
11
0.262795
21
1.10472
0
LINE
8
BLACK
6
CONTINUOUS
10
0.262795
20
1.10472
11
0.264466
21
1.10403
0
LINE
8
BLACK
6
CONTINUOUS
10
0.264466
20
1.10403
11
0.265157
21
1.10236
0
LINE
8
BLACK
6
CONTINUOUS
10
0.265157
20
1.10236
11
0.265157
21
0.892126
0
LINE
8
BLACK
6
CONTINUOUS
10
0.265157
20
0.892126
11
0.390354
21
0.892126
0
LINE
8
BLACK
6
CONTINUOUS
10
0.390354
20
0.892126
11
0.390354
21
1.10236
0
LINE
8
BLACK
6
CONTINUOUS
10
0.390354
20
1.10236
11
0.391046
21
1.10403
0
LINE
8
BLACK
6
CONTINUOUS
10
0.391046
20
1.10403
11
0.392717
21
1.10472
0
LINE
8
BLACK
6
CONTINUOUS
10
0.392717
20
1.10472
11
0.394387
21
1.10403
0
LINE
8
BLACK
6
CONTINUOUS
10
0.98002
20
0.990354
11
1.06663
21
0.990354
0
LINE
8
BLACK
6
CONTINUOUS
10
1.06663
20
0.990354
11
1.0683
21
0.989662
0
LINE
8
BLACK
6
CONTINUOUS
10
1.0683
20
0.989662
11
1.069
21
0.987992
0
LINE
8
BLACK
6
CONTINUOUS
10
1.069
20
0.987992
11
1.0683
21
0.986322
0
LINE
8
BLACK
6
CONTINUOUS
10
1.0683
20
0.986322
11
1.06663
21
0.98563
0
LINE
8
BLACK
6
CONTINUOUS
10
1.06663
20
0.98563
11
0.98002
21
0.98563
0
LINE
8
BLACK
6
CONTINUOUS
10
0.98002
20
0.98563
11
0.838287
21
0.98563
0
LINE
8
BLACK
6
CONTINUOUS
10
0.838287
20
0.98563
11
0.836617
21
0.986322
0
LINE
8
BLACK
6
CONTINUOUS
10
0.836617
20
0.986322
11
0.835925
21
0.987992
0
LINE
8
BLACK
6
CONTINUOUS
10
0.835925
20
0.987992
11
0.836617
21
0.989662
0
LINE
8
BLACK
6
CONTINUOUS
10
0.836617
20
0.989662
11
0.838287
21
0.990354
0
LINE
8
BLACK
6
CONTINUOUS
10
0.838287
20
0.990354
11
0.98002
21
0.990354
0
LINE
8
BLACK
6
CONTINUOUS
10
0.4373
20
1.05876
11
0.437992
21
1.05709
0
LINE
8
BLACK
6
CONTINUOUS
10
0.437992
20
1.05709
11
0.437992
21
0.994094
0
LINE
8
BLACK
6
CONTINUOUS
10
0.437992
20
0.994094
11
0.4373
21
0.992424
0
LINE
8
BLACK
6
CONTINUOUS
10
0.4373
20
0.992424
11
0.43563
21
0.991732
0
LINE
8
BLACK
6
CONTINUOUS
10
0.43563
20
0.991732
11
0.43396
21
0.992424
0
LINE
8
BLACK
6
CONTINUOUS
10
0.43396
20
0.992424
11
0.433268
21
0.994094
0
LINE
8
BLACK
6
CONTINUOUS
10
0.433268
20
0.994094
11
0.433268
21
1.05709
0
LINE
8
BLACK
6
CONTINUOUS
10
0.433268
20
1.05709
11
0.43396
21
1.05876
0
LINE
8
BLACK
6
CONTINUOUS
10
0.43396
20
1.05876
11
0.43563
21
1.05945
0
LINE
8
BLACK
6
CONTINUOUS
10
0.43563
20
1.05945
11
0.4373
21
1.05876
0
LINE
8
BLACK
6
CONTINUOUS
10
0.721552
20
1.05876
11
0.722244
21
1.05709
0
LINE
8
BLACK
6
CONTINUOUS
10
0.722244
20
1.05709
11
0.722244
21
0.994094
0
LINE
8
BLACK
6
CONTINUOUS
10
0.722244
20
0.994094
11
0.721552
21
0.992424
0
LINE
8
BLACK
6
CONTINUOUS
10
0.721552
20
0.992424
11
0.719882
21
0.991732
0
LINE
8
BLACK
6
CONTINUOUS
10
0.719882
20
0.991732
11
0.718212
21
0.992424
0
LINE
8
BLACK
6
CONTINUOUS
10
0.718212
20
0.992424
11
0.71752
21
0.994094
0
LINE
8
BLACK
6
CONTINUOUS
10
0.71752
20
0.994094
11
0.71752
21
1.05709
0
LINE
8
BLACK
6
CONTINUOUS
10
0.71752
20
1.05709
11
0.718212
21
1.05876
0
LINE
8
BLACK
6
CONTINUOUS
10
0.718212
20
1.05876
11
0.719882
21
1.05945
0
LINE
8
BLACK
6
CONTINUOUS
10
0.719882
20
1.05945
11
0.721552
21
1.05876
0
LINE
8
BLACK
6
CONTINUOUS
10
0.928269
20
1.03706
11
0.928333
21
1.03706
0
LINE
8
BLACK
6
CONTINUOUS
10
0.928333
20
1.03706
11
0.933958
21
1.03519
0
LINE
8
BLACK
6
CONTINUOUS
10
0.933958
20
1.03519
11
0.934859
21
1.0347
0
LINE
8
BLACK
6
CONTINUOUS
10
0.934859
20
1.0347
11
0.934952
21
1.03455
0
LINE
8
BLACK
6
CONTINUOUS
10
0.934952
20
1.03455
11
0.935112
21
1.03447
0
LINE
8
BLACK
6
CONTINUOUS
10
0.935112
20
1.03447
11
0.936987
21
1.0326
0
LINE
8
BLACK
6
CONTINUOUS
10
0.936987
20
1.0326
11
0.937575
21
1.03176
0
LINE
8
BLACK
6
CONTINUOUS
10
0.937575
20
1.03176
11
0.937751
21
1.02975
0
LINE
8
BLACK
6
CONTINUOUS
10
0.937751
20
1.02975
11
0.936592
21
1.02809
0
LINE
8
BLACK
6
CONTINUOUS
10
0.936592
20
1.02809
11
0.934641
21
1.02757
0
LINE
8
BLACK
6
CONTINUOUS
10
0.934641
20
1.02757
11
0.932811
21
1.02842
0
LINE
8
BLACK
6
CONTINUOUS
10
0.932811
20
1.02842
11
0.931429
21
1.0298
0
LINE
8
BLACK
6
CONTINUOUS
10
0.931429
20
1.0298
11
0.926921
21
1.03131
0
LINE
8
BLACK
6
CONTINUOUS
10
0.926921
20
1.03131
11
0.924129
21
1.03131
0
LINE
8
BLACK
6
CONTINUOUS
10
0.924129
20
1.03131
11
0.919621
21
1.0298
0
LINE
8
BLACK
6
CONTINUOUS
10
0.919621
20
1.0298
11
0.916703
21
1.02689
0
LINE
8
BLACK
6
CONTINUOUS
10
0.916703
20
1.02689
11
0.915188
21
1.02385
0
LINE
8
BLACK
6
CONTINUOUS
10
0.915188
20
1.02385
11
0.91348
21
1.01702
0
LINE
8
BLACK
6
CONTINUOUS
10
0.91348
20
1.01702
11
0.91348
21
1.01213
0
LINE
8
BLACK
6
CONTINUOUS
10
0.91348
20
1.01213
11
0.915188
21
1.00529
0
LINE
8
BLACK
6
CONTINUOUS
10
0.915188
20
1.00529
11
0.916703
21
1.00226
0
LINE
8
BLACK
6
CONTINUOUS
10
0.916703
20
1.00226
11
0.919621
21
0.999345
0
LINE
8
BLACK
6
CONTINUOUS
10
0.919621
20
0.999345
11
0.924129
21
0.997842
0
LINE
8
BLACK
6
CONTINUOUS
10
0.924129
20
0.997842
11
0.926921
21
0.997842
0
LINE
8
BLACK
6
CONTINUOUS
10
0.926921
20
0.997842
11
0.931429
21
0.999345
0
LINE
8
BLACK
6
CONTINUOUS
10
0.931429
20
0.999345
11
0.932811
21
1.00073
0
LINE
8
BLACK
6
CONTINUOUS
10
0.932811
20
1.00073
11
0.933651
21
1.00131
0
LINE
8
BLACK
6
CONTINUOUS
10
0.933651
20
1.00131
11
0.935663
21
1.00149
0
LINE
8
BLACK
6
CONTINUOUS
10
0.935663
20
1.00149
11
0.937317
21
1.00033
0
LINE
8
BLACK
6
CONTINUOUS
10
0.937317
20
1.00033
11
0.93784
21
0.998381
0
LINE
8
BLACK
6
CONTINUOUS
10
0.93784
20
0.998381
11
0.936987
21
0.996551
0
LINE
8
BLACK
6
CONTINUOUS
10
0.936987
20
0.996551
11
0.935112
21
0.994676
0
LINE
8
BLACK
6
CONTINUOUS
10
0.935112
20
0.994676
11
0.934272
21
0.994088
0
LINE
8
BLACK
6
CONTINUOUS
10
0.934272
20
0.994088
11
0.934096
21
0.994072
0
LINE
8
BLACK
6
CONTINUOUS
10
0.934096
20
0.994072
11
0.933958
21
0.993963
0
LINE
8
BLACK
6
CONTINUOUS
10
0.933958
20
0.993963
11
0.928333
21
0.992088
0
LINE
8
BLACK
6
CONTINUOUS
10
0.928333
20
0.992088
11
0.92746
21
0.991958
0
LINE
8
BLACK
6
CONTINUOUS
10
0.92746
20
0.991958
11
0.9274
21
0.991936
0
LINE
8
BLACK
6
CONTINUOUS
10
0.9274
20
0.991936
11
0.92365
21
0.991936
0
LINE
8
BLACK
6
CONTINUOUS
10
0.92365
20
0.991936
11
0.922781
21
0.99209
0
LINE
8
BLACK
6
CONTINUOUS
10
0.922781
20
0.99209
11
0.922716
21
0.992088
0
LINE
8
BLACK
6
CONTINUOUS
10
0.922716
20
0.992088
11
0.917092
21
0.993963
0
LINE
8
BLACK
6
CONTINUOUS
10
0.917092
20
0.993963
11
0.91619
21
0.994451
0
LINE
8
BLACK
6
CONTINUOUS
10
0.91619
20
0.994451
11
0.916098
21
0.994601
0
LINE
8
BLACK
6
CONTINUOUS
10
0.916098
20
0.994601
11
0.915938
21
0.994676
0
LINE
8
BLACK
6
CONTINUOUS
10
0.915938
20
0.994676
11
0.912188
21
0.998425
0
LINE
8
BLACK
6
CONTINUOUS
10
0.912188
20
0.998425
11
0.911682
21
0.999149
0
LINE
8
BLACK
6
CONTINUOUS
10
0.911682
20
0.999149
11
0.911635
21
0.999193
0
LINE
8
BLACK
6
CONTINUOUS
10
0.911635
20
0.999193
11
0.909761
21
1.00294
0
LINE
8
BLACK
6
CONTINUOUS
10
0.909761
20
1.00294
11
0.909615
21
1.00343
0
LINE
8
BLACK
6
CONTINUOUS
10
0.909615
20
1.00343
11
0.909537
21
1.00355
0
LINE
8
BLACK
6
CONTINUOUS
10
0.909537
20
1.00355
11
0.907662
21
1.01105
0
LINE
8
BLACK
6
CONTINUOUS
10
0.907662
20
1.01105
11
0.907621
21
1.01163
0
LINE
8
BLACK
6
CONTINUOUS
10
0.907621
20
1.01163
11
0.907574
21
1.01176
0
LINE
8
BLACK
6
CONTINUOUS
10
0.907574
20
1.01176
11
0.907574
21
1.01739
0
LINE
8
BLACK
6
CONTINUOUS
10
0.907574
20
1.01739
11
0.907676
21
1.01797
0
LINE
8
BLACK
6
CONTINUOUS
10
0.907676
20
1.01797
11
0.907662
21
1.0181
0
LINE
8
BLACK
6
CONTINUOUS
10
0.907662
20
1.0181
11
0.909537
21
1.0256
0
LINE
8
BLACK
6
CONTINUOUS
10
0.909537
20
1.0256
11
0.909745
21
1.02607
0
LINE
8
BLACK
6
CONTINUOUS
10
0.909745
20
1.02607
11
0.909761
21
1.02621
0
LINE
8
BLACK
6
CONTINUOUS
10
0.909761
20
1.02621
11
0.911635
21
1.02996
0
LINE
8
BLACK
6
CONTINUOUS
10
0.911635
20
1.02996
11
0.912161
21
1.03066
0
LINE
8
BLACK
6
CONTINUOUS
10
0.912161
20
1.03066
11
0.912188
21
1.03072
0
LINE
8
BLACK
6
CONTINUOUS
10
0.912188
20
1.03072
11
0.915938
21
1.03447
0
LINE
8
BLACK
6
CONTINUOUS
10
0.915938
20
1.03447
11
0.916778
21
1.03506
0
LINE
8
BLACK
6
CONTINUOUS
10
0.916778
20
1.03506
11
0.916954
21
1.03508
0
LINE
8
BLACK
6
CONTINUOUS
10
0.916954
20
1.03508
11
0.917092
21
1.03519
0
LINE
8
BLACK
6
CONTINUOUS
10
0.917092
20
1.03519
11
0.922716
21
1.03706
0
LINE
8
BLACK
6
CONTINUOUS
10
0.922716
20
1.03706
11
0.92359
21
1.03719
0
LINE
8
BLACK
6
CONTINUOUS
10
0.92359
20
1.03719
11
0.92365
21
1.03721
0
LINE
8
BLACK
6
CONTINUOUS
10
0.92365
20
1.03721
11
0.9274
21
1.03721
0
LINE
8
BLACK
6
CONTINUOUS
10
0.9274
20
1.03721
11
0.928269
21
1.03706
0
LINE
8
BLACK
6
CONTINUOUS
10
0.961491
20
1.03714
11
0.961658
21
1.03717
0
LINE
8
BLACK
6
CONTINUOUS
10
0.961658
20
1.03717
11
0.9624
21
1.03674
0
LINE
8
BLACK
6
CONTINUOUS
10
0.9624
20
1.03674
11
0.963185
21
1.03639
0
LINE
8
BLACK
6
CONTINUOUS
10
0.963185
20
1.03639
11
0.96326
21
1.03624
0
LINE
8
BLACK
6
CONTINUOUS
10
0.96326
20
1.03624
11
0.963407
21
1.03616
0
LINE
8
BLACK
6
CONTINUOUS
10
0.963407
20
1.03616
11
0.9637
21
1.03535
0
LINE
8
BLACK
6
CONTINUOUS
10
0.9637
20
1.03535
11
0.96408
21
1.03458
0
LINE
8
BLACK
6
CONTINUOUS
10
0.96408
20
1.03458
11
0.96404
21
1.03442
0
LINE
8
BLACK
6
CONTINUOUS
10
0.96404
20
1.03442
11
0.964098
21
1.03426
0
LINE
8
BLACK
6
CONTINUOUS
10
0.964098
20
1.03426
11
0.964098
21
0.997842
0
LINE
8
BLACK
6
CONTINUOUS
10
0.964098
20
0.997842
11
0.972394
21
0.997842
0
LINE
8
BLACK
6
CONTINUOUS
10
0.972394
20
0.997842
11
0.973404
21
0.997664
0
LINE
8
BLACK
6
CONTINUOUS
10
0.973404
20
0.997664
11
0.974951
21
0.996365
0
LINE
8
BLACK
6
CONTINUOUS
10
0.974951
20
0.996365
11
0.975302
21
0.994376
0
LINE
8
BLACK
6
CONTINUOUS
10
0.975302
20
0.994376
11
0.974292
21
0.992627
0
LINE
8
BLACK
6
CONTINUOUS
10
0.974292
20
0.992627
11
0.972394
21
0.991936
0
LINE
8
BLACK
6
CONTINUOUS
10
0.972394
20
0.991936
11
0.949897
21
0.991936
0
LINE
8
BLACK
6
CONTINUOUS
10
0.949897
20
0.991936
11
0.948887
21
0.992114
0
LINE
8
BLACK
6
CONTINUOUS
10
0.948887
20
0.992114
11
0.94734
21
0.993413
0
LINE
8
BLACK
6
CONTINUOUS
10
0.94734
20
0.993413
11
0.946989
21
0.995402
0
LINE
8
BLACK
6
CONTINUOUS
10
0.946989
20
0.995402
11
0.947999
21
0.997151
0
LINE
8
BLACK
6
CONTINUOUS
10
0.947999
20
0.997151
11
0.949897
21
0.997842
0
LINE
8
BLACK
6
CONTINUOUS
10
0.949897
20
0.997842
11
0.958193
21
0.997842
0
LINE
8
BLACK
6
CONTINUOUS
10
0.958193
20
0.997842
11
0.958193
21
1.02526
0
LINE
8
BLACK
6
CONTINUOUS
10
0.958193
20
1.02526
11
0.955734
21
1.0228
0
LINE
8
BLACK
6
CONTINUOUS
10
0.955734
20
1.0228
11
0.955011
21
1.02229
0
LINE
8
BLACK
6
CONTINUOUS
10
0.955011
20
1.02229
11
0.954967
21
1.02224
0
LINE
8
BLACK
6
CONTINUOUS
10
0.954967
20
1.02224
11
0.951217
21
1.02037
0
LINE
8
BLACK
6
CONTINUOUS
10
0.951217
20
1.02037
11
0.950234
21
1.02008
0
LINE
8
BLACK
6
CONTINUOUS
10
0.950234
20
1.02008
11
0.94827
21
1.02055
0
LINE
8
BLACK
6
CONTINUOUS
10
0.94827
20
1.02055
11
0.947067
21
1.02217
0
LINE
8
BLACK
6
CONTINUOUS
10
0.947067
20
1.02217
11
0.947188
21
1.02418
0
LINE
8
BLACK
6
CONTINUOUS
10
0.947188
20
1.02418
11
0.948576
21
1.02565
0
LINE
8
BLACK
6
CONTINUOUS
10
0.948576
20
1.02565
11
0.951897
21
1.02731
0
LINE
8
BLACK
6
CONTINUOUS
10
0.951897
20
1.02731
11
0.955101
21
1.03052
0
LINE
8
BLACK
6
CONTINUOUS
10
0.955101
20
1.03052
11
0.958689
21
1.0359
0
LINE
8
BLACK
6
CONTINUOUS
10
0.958689
20
1.0359
11
0.959397
21
1.03664
0
LINE
8
BLACK
6
CONTINUOUS
10
0.959397
20
1.03664
11
0.95956
21
1.03669
0
LINE
8
BLACK
6
CONTINUOUS
10
0.95956
20
1.03669
11
0.959669
21
1.03682
0
LINE
8
BLACK
6
CONTINUOUS
10
0.959669
20
1.03682
11
0.960513
21
1.03697
0
LINE
8
BLACK
6
CONTINUOUS
10
0.960513
20
1.03697
11
0.961336
21
1.03721
0
LINE
8
BLACK
6
CONTINUOUS
10
0.961336
20
1.03721
11
0.961491
21
1.03714
0
LINE
8
BLACK
6
CONTINUOUS
10
0.895916
20
1.03616
11
0.896607
21
1.03426
0
LINE
8
BLACK
6
CONTINUOUS
10
0.896607
20
1.03426
11
0.896607
21
0.994889
0
LINE
8
BLACK
6
CONTINUOUS
10
0.896607
20
0.994889
11
0.896429
21
0.993879
0
LINE
8
BLACK
6
CONTINUOUS
10
0.896429
20
0.993879
11
0.89513
21
0.992332
0
LINE
8
BLACK
6
CONTINUOUS
10
0.89513
20
0.992332
11
0.893141
21
0.991981
0
LINE
8
BLACK
6
CONTINUOUS
10
0.893141
20
0.991981
11
0.891392
21
0.992991
0
LINE
8
BLACK
6
CONTINUOUS
10
0.891392
20
0.992991
11
0.890701
21
0.994889
0
LINE
8
BLACK
6
CONTINUOUS
10
0.890701
20
0.994889
11
0.890701
21
1.03426
0
LINE
8
BLACK
6
CONTINUOUS
10
0.890701
20
1.03426
11
0.890879
21
1.03527
0
LINE
8
BLACK
6
CONTINUOUS
10
0.890879
20
1.03527
11
0.892178
21
1.03682
0
LINE
8
BLACK
6
CONTINUOUS
10
0.892178
20
1.03682
11
0.894167
21
1.03717
0
LINE
8
BLACK
6
CONTINUOUS
10
0.894167
20
1.03717
11
0.895916
21
1.03616
0
LINE
8
BLACK
6
CONTINUOUS
10
0.838727
20
1.03769
11
0.839419
21
1.03602
0
LINE
8
BLACK
6
CONTINUOUS
10
0.839419
20
1.03602
11
0.838727
21
1.03435
0
LINE
8
BLACK
6
CONTINUOUS
10
0.838727
20
1.03435
11
0.837057
21
1.03366
0
LINE
8
BLACK
6
CONTINUOUS
10
0.837057
20
1.03366
11
0.816486
21
1.03366
0
LINE
8
BLACK
6
CONTINUOUS
10
0.816486
20
1.03366
11
0.814816
21
1.03435
0
LINE
8
BLACK
6
CONTINUOUS
10
0.814816
20
1.03435
11
0.814124
21
1.03602
0
LINE
8
BLACK
6
CONTINUOUS
10
0.814124
20
1.03602
11
0.814816
21
1.03769
0
LINE
8
BLACK
6
CONTINUOUS
10
0.814816
20
1.03769
11
0.816486
21
1.03839
0
LINE
8
BLACK
6
CONTINUOUS
10
0.816486
20
1.03839
11
0.837057
21
1.03839
0
LINE
8
BLACK
6
CONTINUOUS
10
0.837057
20
1.03839
11
0.838727
21
1.03769
0
LINE
8
BLACK
6
CONTINUOUS
10
1.197
20
1.0436
11
1.19769
21
1.04193
0
LINE
8
BLACK
6
CONTINUOUS
10
1.19769
20
1.04193
11
1.197
21
1.04026
0
LINE
8
BLACK
6
CONTINUOUS
10
1.197
20
1.04026
11
1.19532
21
1.03957
0
LINE
8
BLACK
6
CONTINUOUS
10
1.19532
20
1.03957
11
1.17475
21
1.03957
0
LINE
8
BLACK
6
CONTINUOUS
10
1.17475
20
1.03957
11
1.17308
21
1.04026
0
LINE
8
BLACK
6
CONTINUOUS
10
1.17308
20
1.04026
11
1.17239
21
1.04193
0
LINE
8
BLACK
6
CONTINUOUS
10
1.17239
20
1.04193
11
1.17308
21
1.0436
0
LINE
8
BLACK
6
CONTINUOUS
10
1.17308
20
1.0436
11
1.17475
21
1.04429
0
LINE
8
BLACK
6
CONTINUOUS
10
1.17475
20
1.04429
11
1.19532
21
1.04429
0
LINE
8
BLACK
6
CONTINUOUS
10
1.19532
20
1.04429
11
1.197
21
1.0436
0
LINE
8
BLACK
6
CONTINUOUS
10
1.05841
20
1.04419
11
1.0591
21
1.04252
0
LINE
8
BLACK
6
CONTINUOUS
10
1.0591
20
1.04252
11
1.05841
21
1.04085
0
LINE
8
BLACK
6
CONTINUOUS
10
1.05841
20
1.04085
11
1.05674
21
1.04016
0
LINE
8
BLACK
6
CONTINUOUS
10
1.05674
20
1.04016
11
1.03617
21
1.04016
0
LINE
8
BLACK
6
CONTINUOUS
10
1.03617
20
1.04016
11
1.0345
21
1.04085
0
LINE
8
BLACK
6
CONTINUOUS
10
1.0345
20
1.04085
11
1.03381
21
1.04252
0
LINE
8
BLACK
6
CONTINUOUS
10
1.03381
20
1.04252
11
1.0345
21
1.04419
0
LINE
8
BLACK
6
CONTINUOUS
10
1.0345
20
1.04419
11
1.03617
21
1.04488
0
LINE
8
BLACK
6
CONTINUOUS
10
1.03617
20
1.04488
11
1.05674
21
1.04488
0
LINE
8
BLACK
6
CONTINUOUS
10
1.05674
20
1.04488
11
1.05841
21
1.04419
0
LINE
8
BLACK
6
CONTINUOUS
10
0.838727
20
1.09557
11
0.839419
21
1.0939
0
LINE
8
BLACK
6
CONTINUOUS
10
0.839419
20
1.0939
11
0.838727
21
1.09223
0
LINE
8
BLACK
6
CONTINUOUS
10
0.838727
20
1.09223
11
0.837057
21
1.09154
0
LINE
8
BLACK
6
CONTINUOUS
10
0.837057
20
1.09154
11
0.816486
21
1.09154
0
LINE
8
BLACK
6
CONTINUOUS
10
0.816486
20
1.09154
11
0.814816
21
1.09223
0
LINE
8
BLACK
6
CONTINUOUS
10
0.814816
20
1.09223
11
0.814124
21
1.0939
0
LINE
8
BLACK
6
CONTINUOUS
10
0.814124
20
1.0939
11
0.814816
21
1.09557
0
LINE
8
BLACK
6
CONTINUOUS
10
0.814816
20
1.09557
11
0.816486
21
1.09626
0
LINE
8
BLACK
6
CONTINUOUS
10
0.816486
20
1.09626
11
0.837057
21
1.09626
0
LINE
8
BLACK
6
CONTINUOUS
10
0.837057
20
1.09626
11
0.838727
21
1.09557
0
LINE
8
BLACK
6
CONTINUOUS
10
1.197
20
1.10147
11
1.19769
21
1.0998
0
LINE
8
BLACK
6
CONTINUOUS
10
1.19769
20
1.0998
11
1.197
21
1.09813
0
LINE
8
BLACK
6
CONTINUOUS
10
1.197
20
1.09813
11
1.19532
21
1.09744
0
LINE
8
BLACK
6
CONTINUOUS
10
1.19532
20
1.09744
11
1.17475
21
1.09744
0
LINE
8
BLACK
6
CONTINUOUS
10
1.17475
20
1.09744
11
1.17308
21
1.09813
0
LINE
8
BLACK
6
CONTINUOUS
10
1.17308
20
1.09813
11
1.17239
21
1.0998
0
LINE
8
BLACK
6
CONTINUOUS
10
1.17239
20
1.0998
11
1.17308
21
1.10147
0
LINE
8
BLACK
6
CONTINUOUS
10
1.17308
20
1.10147
11
1.17475
21
1.10217
0
LINE
8
BLACK
6
CONTINUOUS
10
1.17475
20
1.10217
11
1.19532
21
1.10217
0
LINE
8
BLACK
6
CONTINUOUS
10
1.19532
20
1.10217
11
1.197
21
1.10147
0
LINE
8
BLACK
6
CONTINUOUS
10
1.05841
20
1.10206
11
1.0591
21
1.10039
0
LINE
8
BLACK
6
CONTINUOUS
10
1.0591
20
1.10039
11
1.05841
21
1.09872
0
LINE
8
BLACK
6
CONTINUOUS
10
1.05841
20
1.09872
11
1.05674
21
1.09803
0
LINE
8
BLACK
6
CONTINUOUS
10
1.05674
20
1.09803
11
1.03617
21
1.09803
0
LINE
8
BLACK
6
CONTINUOUS
10
1.03617
20
1.09803
11
1.0345
21
1.09872
0
LINE
8
BLACK
6
CONTINUOUS
10
1.0345
20
1.09872
11
1.03381
21
1.10039
0
LINE
8
BLACK
6
CONTINUOUS
10
1.03381
20
1.10039
11
1.0345
21
1.10206
0
LINE
8
BLACK
6
CONTINUOUS
10
1.0345
20
1.10206
11
1.03617
21
1.10276
0
LINE
8
BLACK
6
CONTINUOUS
10
1.03617
20
1.10276
11
1.05674
21
1.10276
0
LINE
8
BLACK
6
CONTINUOUS
10
1.05674
20
1.10276
11
1.05841
21
1.10206
0
LINE
8
BLACK
6
CONTINUOUS
10
0.81358
20
1.15537
11
0.813645
21
1.15537
0
LINE
8
BLACK
6
CONTINUOUS
10
0.813645
20
1.15537
11
0.819269
21
1.15349
0
LINE
8
BLACK
6
CONTINUOUS
10
0.819269
20
1.15349
11
0.820171
21
1.153
0
LINE
8
BLACK
6
CONTINUOUS
10
0.820171
20
1.153
11
0.820263
21
1.15285
0
LINE
8
BLACK
6
CONTINUOUS
10
0.820263
20
1.15285
11
0.820423
21
1.15278
0
LINE
8
BLACK
6
CONTINUOUS
10
0.820423
20
1.15278
11
0.822298
21
1.1509
0
LINE
8
BLACK
6
CONTINUOUS
10
0.822298
20
1.1509
11
0.822886
21
1.15006
0
LINE
8
BLACK
6
CONTINUOUS
10
0.822886
20
1.15006
11
0.823062
21
1.14805
0
LINE
8
BLACK
6
CONTINUOUS
10
0.823062
20
1.14805
11
0.821904
21
1.1464
0
LINE
8
BLACK
6
CONTINUOUS
10
0.821904
20
1.1464
11
0.819953
21
1.14588
0
LINE
8
BLACK
6
CONTINUOUS
10
0.819953
20
1.14588
11
0.818122
21
1.14673
0
LINE
8
BLACK
6
CONTINUOUS
10
0.818122
20
1.14673
11
0.81674
21
1.14811
0
LINE
8
BLACK
6
CONTINUOUS
10
0.81674
20
1.14811
11
0.812232
21
1.14961
0
LINE
8
BLACK
6
CONTINUOUS
10
0.812232
20
1.14961
11
0.809441
21
1.14961
0
LINE
8
BLACK
6
CONTINUOUS
10
0.809441
20
1.14961
11
0.804932
21
1.14811
0
LINE
8
BLACK
6
CONTINUOUS
10
0.804932
20
1.14811
11
0.802014
21
1.14519
0
LINE
8
BLACK
6
CONTINUOUS
10
0.802014
20
1.14519
11
0.800499
21
1.14216
0
LINE
8
BLACK
6
CONTINUOUS
10
0.800499
20
1.14216
11
0.798791
21
1.13533
0
LINE
8
BLACK
6
CONTINUOUS
10
0.798791
20
1.13533
11
0.798791
21
1.13043
0
LINE
8
BLACK
6
CONTINUOUS
10
0.798791
20
1.13043
11
0.800499
21
1.1236
0
LINE
8
BLACK
6
CONTINUOUS
10
0.800499
20
1.1236
11
0.802014
21
1.12057
0
LINE
8
BLACK
6
CONTINUOUS
10
0.802014
20
1.12057
11
0.804932
21
1.11765
0
LINE
8
BLACK
6
CONTINUOUS
10
0.804932
20
1.11765
11
0.809441
21
1.11615
0
LINE
8
BLACK
6
CONTINUOUS
10
0.809441
20
1.11615
11
0.812232
21
1.11615
0
LINE
8
BLACK
6
CONTINUOUS
10
0.812232
20
1.11615
11
0.81674
21
1.11765
0
LINE
8
BLACK
6
CONTINUOUS
10
0.81674
20
1.11765
11
0.818122
21
1.11903
0
LINE
8
BLACK
6
CONTINUOUS
10
0.818122
20
1.11903
11
0.818962
21
1.11962
0
LINE
8
BLACK
6
CONTINUOUS
10
0.818962
20
1.11962
11
0.820974
21
1.1198
0
LINE
8
BLACK
6
CONTINUOUS
10
0.820974
20
1.1198
11
0.822629
21
1.11864
0
LINE
8
BLACK
6
CONTINUOUS
10
0.822629
20
1.11864
11
0.823151
21
1.11669
0
LINE
8
BLACK
6
CONTINUOUS
10
0.823151
20
1.11669
11
0.822298
21
1.11486
0
LINE
8
BLACK
6
CONTINUOUS
10
0.822298
20
1.11486
11
0.820423
21
1.11298
0
LINE
8
BLACK
6
CONTINUOUS
10
0.820423
20
1.11298
11
0.819583
21
1.11239
0
LINE
8
BLACK
6
CONTINUOUS
10
0.819583
20
1.11239
11
0.819407
21
1.11238
0
LINE
8
BLACK
6
CONTINUOUS
10
0.819407
20
1.11238
11
0.819269
21
1.11227
0
LINE
8
BLACK
6
CONTINUOUS
10
0.819269
20
1.11227
11
0.813645
21
1.11039
0
LINE
8
BLACK
6
CONTINUOUS
10
0.813645
20
1.11039
11
0.812771
21
1.11027
0
LINE
8
BLACK
6
CONTINUOUS
10
0.812771
20
1.11027
11
0.812711
21
1.11024
0
LINE
8
BLACK
6
CONTINUOUS
10
0.812711
20
1.11024
11
0.808961
21
1.11024
0
LINE
8
BLACK
6
CONTINUOUS
10
0.808961
20
1.11024
11
0.808092
21
1.1104
0
LINE
8
BLACK
6
CONTINUOUS
10
0.808092
20
1.1104
11
0.808028
21
1.11039
0
LINE
8
BLACK
6
CONTINUOUS
10
0.808028
20
1.11039
11
0.802403
21
1.11227
0
LINE
8
BLACK
6
CONTINUOUS
10
0.802403
20
1.11227
11
0.801502
21
1.11276
0
LINE
8
BLACK
6
CONTINUOUS
10
0.801502
20
1.11276
11
0.801409
21
1.11291
0
LINE
8
BLACK
6
CONTINUOUS
10
0.801409
20
1.11291
11
0.801249
21
1.11298
0
LINE
8
BLACK
6
CONTINUOUS
10
0.801249
20
1.11298
11
0.7975
21
1.11673
0
LINE
8
BLACK
6
CONTINUOUS
10
0.7975
20
1.11673
11
0.796993
21
1.11746
0
LINE
8
BLACK
6
CONTINUOUS
10
0.796993
20
1.11746
11
0.796947
21
1.1175
0
LINE
8
BLACK
6
CONTINUOUS
10
0.796947
20
1.1175
11
0.795072
21
1.12125
0
LINE
8
BLACK
6
CONTINUOUS
10
0.795072
20
1.12125
11
0.794926
21
1.12174
0
LINE
8
BLACK
6
CONTINUOUS
10
0.794926
20
1.12174
11
0.794848
21
1.12185
0
LINE
8
BLACK
6
CONTINUOUS
10
0.794848
20
1.12185
11
0.792973
21
1.12935
0
LINE
8
BLACK
6
CONTINUOUS
10
0.792973
20
1.12935
11
0.792932
21
1.12994
0
LINE
8
BLACK
6
CONTINUOUS
10
0.792932
20
1.12994
11
0.792885
21
1.13007
0
LINE
8
BLACK
6
CONTINUOUS
10
0.792885
20
1.13007
11
0.792885
21
1.13569
0
LINE
8
BLACK
6
CONTINUOUS
10
0.792885
20
1.13569
11
0.792988
21
1.13627
0
LINE
8
BLACK
6
CONTINUOUS
10
0.792988
20
1.13627
11
0.792973
21
1.13641
0
LINE
8
BLACK
6
CONTINUOUS
10
0.792973
20
1.13641
11
0.794848
21
1.14391
0
LINE
8
BLACK
6
CONTINUOUS
10
0.794848
20
1.14391
11
0.795056
21
1.14437
0
LINE
8
BLACK
6
CONTINUOUS
10
0.795056
20
1.14437
11
0.795072
21
1.14451
0
LINE
8
BLACK
6
CONTINUOUS
10
0.795072
20
1.14451
11
0.796947
21
1.14826
0
LINE
8
BLACK
6
CONTINUOUS
10
0.796947
20
1.14826
11
0.797472
21
1.14897
0
LINE
8
BLACK
6
CONTINUOUS
10
0.797472
20
1.14897
11
0.7975
21
1.14903
0
LINE
8
BLACK
6
CONTINUOUS
10
0.7975
20
1.14903
11
0.801249
21
1.15278
0
LINE
8
BLACK
6
CONTINUOUS
10
0.801249
20
1.15278
11
0.802089
21
1.15337
0
LINE
8
BLACK
6
CONTINUOUS
10
0.802089
20
1.15337
11
0.802265
21
1.15338
0
LINE
8
BLACK
6
CONTINUOUS
10
0.802265
20
1.15338
11
0.802403
21
1.15349
0
LINE
8
BLACK
6
CONTINUOUS
10
0.802403
20
1.15349
11
0.808028
21
1.15537
0
LINE
8
BLACK
6
CONTINUOUS
10
0.808028
20
1.15537
11
0.808901
21
1.1555
0
LINE
8
BLACK
6
CONTINUOUS
10
0.808901
20
1.1555
11
0.808961
21
1.15552
0
LINE
8
BLACK
6
CONTINUOUS
10
0.808961
20
1.15552
11
0.812711
21
1.15552
0
LINE
8
BLACK
6
CONTINUOUS
10
0.812711
20
1.15552
11
0.81358
21
1.15537
0
LINE
8
BLACK
6
CONTINUOUS
10
0.851216
20
1.15534
11
0.851351
21
1.15523
0
LINE
8
BLACK
6
CONTINUOUS
10
0.851351
20
1.15523
11
0.851527
21
1.15521
0
LINE
8
BLACK
6
CONTINUOUS
10
0.851527
20
1.15521
11
0.855276
21
1.15333
0
LINE
8
BLACK
6
CONTINUOUS
10
0.855276
20
1.15333
11
0.855985
21
1.15281
0
LINE
8
BLACK
6
CONTINUOUS
10
0.855985
20
1.15281
11
0.856044
21
1.15278
0
LINE
8
BLACK
6
CONTINUOUS
10
0.856044
20
1.15278
11
0.857918
21
1.1509
0
LINE
8
BLACK
6
CONTINUOUS
10
0.857918
20
1.1509
11
0.858425
21
1.15018
0
LINE
8
BLACK
6
CONTINUOUS
10
0.858425
20
1.15018
11
0.858472
21
1.15014
0
LINE
8
BLACK
6
CONTINUOUS
10
0.858472
20
1.15014
11
0.860346
21
1.14639
0
LINE
8
BLACK
6
CONTINUOUS
10
0.860346
20
1.14639
11
0.860639
21
1.1454
0
LINE
8
BLACK
6
CONTINUOUS
10
0.860639
20
1.1454
11
0.860598
21
1.14523
0
LINE
8
BLACK
6
CONTINUOUS
10
0.860598
20
1.14523
11
0.860658
21
1.14507
0
LINE
8
BLACK
6
CONTINUOUS
10
0.860658
20
1.14507
11
0.860658
21
1.14132
0
LINE
8
BLACK
6
CONTINUOUS
10
0.860658
20
1.14132
11
0.860505
21
1.14045
0
LINE
8
BLACK
6
CONTINUOUS
10
0.860505
20
1.14045
11
0.860506
21
1.14038
0
LINE
8
BLACK
6
CONTINUOUS
10
0.860506
20
1.14038
11
0.858632
21
1.13476
0
LINE
8
BLACK
6
CONTINUOUS
10
0.858632
20
1.13476
11
0.858143
21
1.13386
0
LINE
8
BLACK
6
CONTINUOUS
10
0.858143
20
1.13386
11
0.857993
21
1.13377
0
LINE
8
BLACK
6
CONTINUOUS
10
0.857993
20
1.13377
11
0.857918
21
1.13361
0
LINE
8
BLACK
6
CONTINUOUS
10
0.857918
20
1.13361
11
0.840462
21
1.11615
0
LINE
8
BLACK
6
CONTINUOUS
10
0.840462
20
1.11615
11
0.857705
21
1.11615
0
LINE
8
BLACK
6
CONTINUOUS
10
0.857705
20
1.11615
11
0.858715
21
1.11597
0
LINE
8
BLACK
6
CONTINUOUS
10
0.858715
20
1.11597
11
0.860262
21
1.11467
0
LINE
8
BLACK
6
CONTINUOUS
10
0.860262
20
1.11467
11
0.860613
21
1.11268
0
LINE
8
BLACK
6
CONTINUOUS
10
0.860613
20
1.11268
11
0.859603
21
1.11093
0
LINE
8
BLACK
6
CONTINUOUS
10
0.859603
20
1.11093
11
0.857705
21
1.11024
0
LINE
8
BLACK
6
CONTINUOUS
10
0.857705
20
1.11024
11
0.833333
21
1.11024
0
LINE
8
BLACK
6
CONTINUOUS
10
0.833333
20
1.11024
11
0.832699
21
1.11036
0
LINE
8
BLACK
6
CONTINUOUS
10
0.832699
20
1.11036
11
0.832569
21
1.11034
0
LINE
8
BLACK
6
CONTINUOUS
10
0.832569
20
1.11034
11
0.832504
21
1.11039
0
LINE
8
BLACK
6
CONTINUOUS
10
0.832504
20
1.11039
11
0.832323
21
1.11042
0
LINE
8
BLACK
6
CONTINUOUS
10
0.832323
20
1.11042
11
0.831643
21
1.11099
0
LINE
8
BLACK
6
CONTINUOUS
10
0.831643
20
1.11099
11
0.830915
21
1.1115
0
LINE
8
BLACK
6
CONTINUOUS
10
0.830915
20
1.1115
11
0.83088
21
1.11163
0
LINE
8
BLACK
6
CONTINUOUS
10
0.83088
20
1.11163
11
0.830776
21
1.11172
0
LINE
8
BLACK
6
CONTINUOUS
10
0.830776
20
1.11172
11
0.830622
21
1.1126
0
LINE
8
BLACK
6
CONTINUOUS
10
0.830622
20
1.1126
11
0.830392
21
1.11345
0
LINE
8
BLACK
6
CONTINUOUS
10
0.830392
20
1.11345
11
0.830449
21
1.11358
0
LINE
8
BLACK
6
CONTINUOUS
10
0.830449
20
1.11358
11
0.830425
21
1.11371
0
LINE
8
BLACK
6
CONTINUOUS
10
0.830425
20
1.11371
11
0.83087
21
1.11448
0
LINE
8
BLACK
6
CONTINUOUS
10
0.83087
20
1.11448
11
0.831245
21
1.11528
0
LINE
8
BLACK
6
CONTINUOUS
10
0.831245
20
1.11528
11
0.85325
21
1.13729
0
LINE
8
BLACK
6
CONTINUOUS
10
0.85325
20
1.13729
11
0.854753
21
1.1418
0
LINE
8
BLACK
6
CONTINUOUS
10
0.854753
20
1.1418
11
0.854753
21
1.14437
0
LINE
8
BLACK
6
CONTINUOUS
10
0.854753
20
1.14437
11
0.853404
21
1.14707
0
LINE
8
BLACK
6
CONTINUOUS
10
0.853404
20
1.14707
11
0.852207
21
1.14826
0
LINE
8
BLACK
6
CONTINUOUS
10
0.852207
20
1.14826
11
0.849509
21
1.14961
0
LINE
8
BLACK
6
CONTINUOUS
10
0.849509
20
1.14961
11
0.841529
21
1.14961
0
LINE
8
BLACK
6
CONTINUOUS
10
0.841529
20
1.14961
11
0.838832
21
1.14826
0
LINE
8
BLACK
6
CONTINUOUS
10
0.838832
20
1.14826
11
0.837296
21
1.14673
0
LINE
8
BLACK
6
CONTINUOUS
10
0.837296
20
1.14673
11
0.836456
21
1.14614
0
LINE
8
BLACK
6
CONTINUOUS
10
0.836456
20
1.14614
11
0.834444
21
1.14596
0
LINE
8
BLACK
6
CONTINUOUS
10
0.834444
20
1.14596
11
0.832789
21
1.14712
0
LINE
8
BLACK
6
CONTINUOUS
10
0.832789
20
1.14712
11
0.832267
21
1.14907
0
LINE
8
BLACK
6
CONTINUOUS
10
0.832267
20
1.14907
11
0.83312
21
1.1509
0
LINE
8
BLACK
6
CONTINUOUS
10
0.83312
20
1.1509
11
0.834995
21
1.15278
0
LINE
8
BLACK
6
CONTINUOUS
10
0.834995
20
1.15278
11
0.835718
21
1.15329
0
LINE
8
BLACK
6
CONTINUOUS
10
0.835718
20
1.15329
11
0.835762
21
1.15333
0
LINE
8
BLACK
6
CONTINUOUS
10
0.835762
20
1.15333
11
0.839512
21
1.15521
0
LINE
8
BLACK
6
CONTINUOUS
10
0.839512
20
1.15521
11
0.840495
21
1.1555
0
LINE
8
BLACK
6
CONTINUOUS
10
0.840495
20
1.1555
11
0.840666
21
1.15546
0
LINE
8
BLACK
6
CONTINUOUS
10
0.840666
20
1.15546
11
0.840832
21
1.15552
0
LINE
8
BLACK
6
CONTINUOUS
10
0.840832
20
1.15552
11
0.850206
21
1.15552
0
LINE
8
BLACK
6
CONTINUOUS
10
0.850206
20
1.15552
11
0.851216
21
1.15534
0
LINE
8
BLACK
6
CONTINUOUS
10
1.03327
20
1.16186
11
1.03333
21
1.16186
0
LINE
8
BLACK
6
CONTINUOUS
10
1.03333
20
1.16186
11
1.03895
21
1.15999
0
LINE
8
BLACK
6
CONTINUOUS
10
1.03895
20
1.15999
11
1.03986
21
1.1595
0
LINE
8
BLACK
6
CONTINUOUS
10
1.03986
20
1.1595
11
1.03995
21
1.15935
0
LINE
8
BLACK
6
CONTINUOUS
10
1.03995
20
1.15935
11
1.04011
21
1.15928
0
LINE
8
BLACK
6
CONTINUOUS
10
1.04011
20
1.15928
11
1.04198
21
1.1574
0
LINE
8
BLACK
6
CONTINUOUS
10
1.04198
20
1.1574
11
1.04257
21
1.15656
0
LINE
8
BLACK
6
CONTINUOUS
10
1.04257
20
1.15656
11
1.04275
21
1.15455
0
LINE
8
BLACK
6
CONTINUOUS
10
1.04275
20
1.15455
11
1.04159
21
1.15289
0
LINE
8
BLACK
6
CONTINUOUS
10
1.04159
20
1.15289
11
1.03964
21
1.15237
0
LINE
8
BLACK
6
CONTINUOUS
10
1.03964
20
1.15237
11
1.03781
21
1.15322
0
LINE
8
BLACK
6
CONTINUOUS
10
1.03781
20
1.15322
11
1.03643
21
1.15461
0
LINE
8
BLACK
6
CONTINUOUS
10
1.03643
20
1.15461
11
1.03192
21
1.15611
0
LINE
8
BLACK
6
CONTINUOUS
10
1.03192
20
1.15611
11
1.02913
21
1.15611
0
LINE
8
BLACK
6
CONTINUOUS
10
1.02913
20
1.15611
11
1.02462
21
1.15461
0
LINE
8
BLACK
6
CONTINUOUS
10
1.02462
20
1.15461
11
1.0217
21
1.15169
0
LINE
8
BLACK
6
CONTINUOUS
10
1.0217
20
1.15169
11
1.02018
21
1.14866
0
LINE
8
BLACK
6
CONTINUOUS
10
1.02018
20
1.14866
11
1.01848
21
1.14183
0
LINE
8
BLACK
6
CONTINUOUS
10
1.01848
20
1.14183
11
1.01848
21
1.13693
0
LINE
8
BLACK
6
CONTINUOUS
10
1.01848
20
1.13693
11
1.02018
21
1.1301
0
LINE
8
BLACK
6
CONTINUOUS
10
1.02018
20
1.1301
11
1.0217
21
1.12707
0
LINE
8
BLACK
6
CONTINUOUS
10
1.0217
20
1.12707
11
1.02462
21
1.12415
0
LINE
8
BLACK
6
CONTINUOUS
10
1.02462
20
1.12415
11
1.02913
21
1.12264
0
LINE
8
BLACK
6
CONTINUOUS
10
1.02913
20
1.12264
11
1.03192
21
1.12264
0
LINE
8
BLACK
6
CONTINUOUS
10
1.03192
20
1.12264
11
1.03643
21
1.12415
0
LINE
8
BLACK
6
CONTINUOUS
10
1.03643
20
1.12415
11
1.03781
21
1.12553
0
LINE
8
BLACK
6
CONTINUOUS
10
1.03781
20
1.12553
11
1.03865
21
1.12612
0
LINE
8
BLACK
6
CONTINUOUS
10
1.03865
20
1.12612
11
1.04066
21
1.12629
0
LINE
8
BLACK
6
CONTINUOUS
10
1.04066
20
1.12629
11
1.04231
21
1.12514
0
LINE
8
BLACK
6
CONTINUOUS
10
1.04231
20
1.12514
11
1.04284
21
1.12318
0
LINE
8
BLACK
6
CONTINUOUS
10
1.04284
20
1.12318
11
1.04198
21
1.12135
0
LINE
8
BLACK
6
CONTINUOUS
10
1.04198
20
1.12135
11
1.04011
21
1.11948
0
LINE
8
BLACK
6
CONTINUOUS
10
1.04011
20
1.11948
11
1.03927
21
1.11889
0
LINE
8
BLACK
6
CONTINUOUS
10
1.03927
20
1.11889
11
1.03909
21
1.11888
0
LINE
8
BLACK
6
CONTINUOUS
10
1.03909
20
1.11888
11
1.03895
21
1.11877
0
LINE
8
BLACK
6
CONTINUOUS
10
1.03895
20
1.11877
11
1.03333
21
1.11689
0
LINE
8
BLACK
6
CONTINUOUS
10
1.03333
20
1.11689
11
1.03246
21
1.11676
0
LINE
8
BLACK
6
CONTINUOUS
10
1.03246
20
1.11676
11
1.0324
21
1.11674
0
LINE
8
BLACK
6
CONTINUOUS
10
1.0324
20
1.11674
11
1.02865
21
1.11674
0
LINE
8
BLACK
6
CONTINUOUS
10
1.02865
20
1.11674
11
1.02778
21
1.11689
0
LINE
8
BLACK
6
CONTINUOUS
10
1.02778
20
1.11689
11
1.02771
21
1.11689
0
LINE
8
BLACK
6
CONTINUOUS
10
1.02771
20
1.11689
11
1.02209
21
1.11877
0
LINE
8
BLACK
6
CONTINUOUS
10
1.02209
20
1.11877
11
1.02119
21
1.11925
0
LINE
8
BLACK
6
CONTINUOUS
10
1.02119
20
1.11925
11
1.02109
21
1.1194
0
LINE
8
BLACK
6
CONTINUOUS
10
1.02109
20
1.1194
11
1.02093
21
1.11948
0
LINE
8
BLACK
6
CONTINUOUS
10
1.02093
20
1.11948
11
1.01718
21
1.12323
0
LINE
8
BLACK
6
CONTINUOUS
10
1.01718
20
1.12323
11
1.01668
21
1.12395
0
LINE
8
BLACK
6
CONTINUOUS
10
1.01668
20
1.12395
11
1.01663
21
1.124
0
LINE
8
BLACK
6
CONTINUOUS
10
1.01663
20
1.124
11
1.01476
21
1.12775
0
LINE
8
BLACK
6
CONTINUOUS
10
1.01476
20
1.12775
11
1.01461
21
1.12823
0
LINE
8
BLACK
6
CONTINUOUS
10
1.01461
20
1.12823
11
1.01453
21
1.12835
0
LINE
8
BLACK
6
CONTINUOUS
10
1.01453
20
1.12835
11
1.01266
21
1.13585
0
LINE
8
BLACK
6
CONTINUOUS
10
1.01266
20
1.13585
11
1.01262
21
1.13644
0
LINE
8
BLACK
6
CONTINUOUS
10
1.01262
20
1.13644
11
1.01257
21
1.13657
0
LINE
8
BLACK
6
CONTINUOUS
10
1.01257
20
1.13657
11
1.01257
21
1.14219
0
LINE
8
BLACK
6
CONTINUOUS
10
1.01257
20
1.14219
11
1.01267
21
1.14277
0
LINE
8
BLACK
6
CONTINUOUS
10
1.01267
20
1.14277
11
1.01266
21
1.14291
0
LINE
8
BLACK
6
CONTINUOUS
10
1.01266
20
1.14291
11
1.01453
21
1.1504
0
LINE
8
BLACK
6
CONTINUOUS
10
1.01453
20
1.1504
11
1.01474
21
1.15087
0
LINE
8
BLACK
6
CONTINUOUS
10
1.01474
20
1.15087
11
1.01476
21
1.15101
0
LINE
8
BLACK
6
CONTINUOUS
10
1.01476
20
1.15101
11
1.01663
21
1.15476
0
LINE
8
BLACK
6
CONTINUOUS
10
1.01663
20
1.15476
11
1.01716
21
1.15547
0
LINE
8
BLACK
6
CONTINUOUS
10
1.01716
20
1.15547
11
1.01718
21
1.15553
0
LINE
8
BLACK
6
CONTINUOUS
10
1.01718
20
1.15553
11
1.02093
21
1.15928
0
LINE
8
BLACK
6
CONTINUOUS
10
1.02093
20
1.15928
11
1.02177
21
1.15986
0
LINE
8
BLACK
6
CONTINUOUS
10
1.02177
20
1.15986
11
1.02195
21
1.15988
0
LINE
8
BLACK
6
CONTINUOUS
10
1.02195
20
1.15988
11
1.02209
21
1.15999
0
LINE
8
BLACK
6
CONTINUOUS
10
1.02209
20
1.15999
11
1.02771
21
1.16186
0
LINE
8
BLACK
6
CONTINUOUS
10
1.02771
20
1.16186
11
1.02859
21
1.16199
0
LINE
8
BLACK
6
CONTINUOUS
10
1.02859
20
1.16199
11
1.02865
21
1.16202
0
LINE
8
BLACK
6
CONTINUOUS
10
1.02865
20
1.16202
11
1.0324
21
1.16202
0
LINE
8
BLACK
6
CONTINUOUS
10
1.0324
20
1.16202
11
1.03327
21
1.16186
0
LINE
8
BLACK
6
CONTINUOUS
10
1.07783
20
1.16194
11
1.07796
21
1.16196
0
LINE
8
BLACK
6
CONTINUOUS
10
1.07796
20
1.16196
11
1.07807
21
1.1619
0
LINE
8
BLACK
6
CONTINUOUS
10
1.07807
20
1.1619
11
1.0784
21
1.16184
0
LINE
8
BLACK
6
CONTINUOUS
10
1.0784
20
1.16184
11
1.07901
21
1.16133
0
LINE
8
BLACK
6
CONTINUOUS
10
1.07901
20
1.16133
11
1.07969
21
1.16091
0
LINE
8
BLACK
6
CONTINUOUS
10
1.07969
20
1.16091
11
1.07977
21
1.16069
0
LINE
8
BLACK
6
CONTINUOUS
10
1.07977
20
1.16069
11
1.07995
21
1.16054
0
LINE
8
BLACK
6
CONTINUOUS
10
1.07995
20
1.16054
11
1.08009
21
1.15975
0
LINE
8
BLACK
6
CONTINUOUS
10
1.08009
20
1.15975
11
1.08034
21
1.159
0
LINE
8
BLACK
6
CONTINUOUS
10
1.08034
20
1.159
11
1.08026
21
1.15878
0
LINE
8
BLACK
6
CONTINUOUS
10
1.08026
20
1.15878
11
1.0803
21
1.15855
0
LINE
8
BLACK
6
CONTINUOUS
10
1.0803
20
1.15855
11
1.0799
21
1.15786
0
LINE
8
BLACK
6
CONTINUOUS
10
1.0799
20
1.15786
11
1.07961
21
1.15712
0
LINE
8
BLACK
6
CONTINUOUS
10
1.07961
20
1.15712
11
1.07066
21
1.14688
0
LINE
8
BLACK
6
CONTINUOUS
10
1.07066
20
1.14688
11
1.0709
21
1.14684
0
LINE
8
BLACK
6
CONTINUOUS
10
1.0709
20
1.14684
11
1.07104
21
1.14673
0
LINE
8
BLACK
6
CONTINUOUS
10
1.07104
20
1.14673
11
1.07121
21
1.14671
0
LINE
8
BLACK
6
CONTINUOUS
10
1.07121
20
1.14671
11
1.07496
21
1.14483
0
LINE
8
BLACK
6
CONTINUOUS
10
1.07496
20
1.14483
11
1.07567
21
1.1443
0
LINE
8
BLACK
6
CONTINUOUS
10
1.07567
20
1.1443
11
1.07573
21
1.14428
0
LINE
8
BLACK
6
CONTINUOUS
10
1.07573
20
1.14428
11
1.0776
21
1.1424
0
LINE
8
BLACK
6
CONTINUOUS
10
1.0776
20
1.1424
11
1.07811
21
1.14168
0
LINE
8
BLACK
6
CONTINUOUS
10
1.07811
20
1.14168
11
1.07816
21
1.14164
0
LINE
8
BLACK
6
CONTINUOUS
10
1.07816
20
1.14164
11
1.08003
21
1.13789
0
LINE
8
BLACK
6
CONTINUOUS
10
1.08003
20
1.13789
11
1.08032
21
1.1369
0
LINE
8
BLACK
6
CONTINUOUS
10
1.08032
20
1.1369
11
1.08028
21
1.13673
0
LINE
8
BLACK
6
CONTINUOUS
10
1.08028
20
1.13673
11
1.08034
21
1.13657
0
LINE
8
BLACK
6
CONTINUOUS
10
1.08034
20
1.13657
11
1.08034
21
1.12719
0
LINE
8
BLACK
6
CONTINUOUS
10
1.08034
20
1.12719
11
1.08017
21
1.12618
0
LINE
8
BLACK
6
CONTINUOUS
10
1.08017
20
1.12618
11
1.08005
21
1.12605
0
LINE
8
BLACK
6
CONTINUOUS
10
1.08005
20
1.12605
11
1.08003
21
1.12587
0
LINE
8
BLACK
6
CONTINUOUS
10
1.08003
20
1.12587
11
1.07816
21
1.12212
0
LINE
8
BLACK
6
CONTINUOUS
10
1.07816
20
1.12212
11
1.07763
21
1.12141
0
LINE
8
BLACK
6
CONTINUOUS
10
1.07763
20
1.12141
11
1.0776
21
1.12135
0
LINE
8
BLACK
6
CONTINUOUS
10
1.0776
20
1.12135
11
1.07573
21
1.11948
0
LINE
8
BLACK
6
CONTINUOUS
10
1.07573
20
1.11948
11
1.07501
21
1.11897
0
LINE
8
BLACK
6
CONTINUOUS
10
1.07501
20
1.11897
11
1.07496
21
1.11893
0
LINE
8
BLACK
6
CONTINUOUS
10
1.07496
20
1.11893
11
1.07121
21
1.11705
0
LINE
8
BLACK
6
CONTINUOUS
10
1.07121
20
1.11705
11
1.07023
21
1.11676
0
LINE
8
BLACK
6
CONTINUOUS
10
1.07023
20
1.11676
11
1.07006
21
1.1168
0
LINE
8
BLACK
6
CONTINUOUS
10
1.07006
20
1.1168
11
1.06989
21
1.11674
0
LINE
8
BLACK
6
CONTINUOUS
10
1.06989
20
1.11674
11
1.05864
21
1.11674
0
LINE
8
BLACK
6
CONTINUOUS
10
1.05864
20
1.11674
11
1.05763
21
1.11692
0
LINE
8
BLACK
6
CONTINUOUS
10
1.05763
20
1.11692
11
1.0575
21
1.11703
0
LINE
8
BLACK
6
CONTINUOUS
10
1.0575
20
1.11703
11
1.05732
21
1.11705
0
LINE
8
BLACK
6
CONTINUOUS
10
1.05732
20
1.11705
11
1.05357
21
1.11893
0
LINE
8
BLACK
6
CONTINUOUS
10
1.05357
20
1.11893
11
1.05286
21
1.11945
0
LINE
8
BLACK
6
CONTINUOUS
10
1.05286
20
1.11945
11
1.05281
21
1.11948
0
LINE
8
BLACK
6
CONTINUOUS
10
1.05281
20
1.11948
11
1.05093
21
1.12135
0
LINE
8
BLACK
6
CONTINUOUS
10
1.05093
20
1.12135
11
1.05034
21
1.12219
0
LINE
8
BLACK
6
CONTINUOUS
10
1.05034
20
1.12219
11
1.05017
21
1.12421
0
LINE
8
BLACK
6
CONTINUOUS
10
1.05017
20
1.12421
11
1.05132
21
1.12586
0
LINE
8
BLACK
6
CONTINUOUS
10
1.05132
20
1.12586
11
1.05328
21
1.12638
0
LINE
8
BLACK
6
CONTINUOUS
10
1.05328
20
1.12638
11
1.05511
21
1.12553
0
LINE
8
BLACK
6
CONTINUOUS
10
1.05511
20
1.12553
11
1.05664
21
1.12399
0
LINE
8
BLACK
6
CONTINUOUS
10
1.05664
20
1.12399
11
1.05934
21
1.12264
0
LINE
8
BLACK
6
CONTINUOUS
10
1.05934
20
1.12264
11
1.06919
21
1.12264
0
LINE
8
BLACK
6
CONTINUOUS
10
1.06919
20
1.12264
11
1.07189
21
1.12399
0
LINE
8
BLACK
6
CONTINUOUS
10
1.07189
20
1.12399
11
1.07309
21
1.12519
0
LINE
8
BLACK
6
CONTINUOUS
10
1.07309
20
1.12519
11
1.07444
21
1.12789
0
LINE
8
BLACK
6
CONTINUOUS
10
1.07444
20
1.12789
11
1.07444
21
1.13587
0
LINE
8
BLACK
6
CONTINUOUS
10
1.07444
20
1.13587
11
1.07309
21
1.13857
0
LINE
8
BLACK
6
CONTINUOUS
10
1.07309
20
1.13857
11
1.07189
21
1.13976
0
LINE
8
BLACK
6
CONTINUOUS
10
1.07189
20
1.13976
11
1.06919
21
1.14111
0
LINE
8
BLACK
6
CONTINUOUS
10
1.06919
20
1.14111
11
1.06427
21
1.14111
0
LINE
8
BLACK
6
CONTINUOUS
10
1.06427
20
1.14111
11
1.06383
21
1.14119
0
LINE
8
BLACK
6
CONTINUOUS
10
1.06383
20
1.14119
11
1.06369
21
1.14117
0
LINE
8
BLACK
6
CONTINUOUS
10
1.06369
20
1.14117
11
1.06359
21
1.14123
0
LINE
8
BLACK
6
CONTINUOUS
10
1.06359
20
1.14123
11
1.06326
21
1.14129
0
LINE
8
BLACK
6
CONTINUOUS
10
1.06326
20
1.14129
11
1.06265
21
1.1418
0
LINE
8
BLACK
6
CONTINUOUS
10
1.06265
20
1.1418
11
1.06197
21
1.14221
0
LINE
8
BLACK
6
CONTINUOUS
10
1.06197
20
1.14221
11
1.06189
21
1.14244
0
LINE
8
BLACK
6
CONTINUOUS
10
1.06189
20
1.14244
11
1.06171
21
1.14259
0
LINE
8
BLACK
6
CONTINUOUS
10
1.06171
20
1.14259
11
1.06157
21
1.14337
0
LINE
8
BLACK
6
CONTINUOUS
10
1.06157
20
1.14337
11
1.06131
21
1.14413
0
LINE
8
BLACK
6
CONTINUOUS
10
1.06131
20
1.14413
11
1.0614
21
1.14434
0
LINE
8
BLACK
6
CONTINUOUS
10
1.0614
20
1.14434
11
1.06136
21
1.14458
0
LINE
8
BLACK
6
CONTINUOUS
10
1.06136
20
1.14458
11
1.06176
21
1.14527
0
LINE
8
BLACK
6
CONTINUOUS
10
1.06176
20
1.14527
11
1.06204
21
1.14601
0
LINE
8
BLACK
6
CONTINUOUS
10
1.06204
20
1.14601
11
1.07088
21
1.15611
0
LINE
8
BLACK
6
CONTINUOUS
10
1.07088
20
1.15611
11
1.05302
21
1.15611
0
LINE
8
BLACK
6
CONTINUOUS
10
1.05302
20
1.15611
11
1.05201
21
1.15629
0
LINE
8
BLACK
6
CONTINUOUS
10
1.05201
20
1.15629
11
1.05046
21
1.15759
0
LINE
8
BLACK
6
CONTINUOUS
10
1.05046
20
1.15759
11
1.05011
21
1.15958
0
LINE
8
BLACK
6
CONTINUOUS
10
1.05011
20
1.15958
11
1.05112
21
1.16132
0
LINE
8
BLACK
6
CONTINUOUS
10
1.05112
20
1.16132
11
1.05302
21
1.16202
0
LINE
8
BLACK
6
CONTINUOUS
10
1.05302
20
1.16202
11
1.07739
21
1.16202
0
LINE
8
BLACK
6
CONTINUOUS
10
1.07739
20
1.16202
11
1.07783
21
1.16194
0
LINE
8
BLACK
6
CONTINUOUS
10
1.17382
20
1.16304
11
1.17388
21
1.16304
0
LINE
8
BLACK
6
CONTINUOUS
10
1.17388
20
1.16304
11
1.17951
21
1.16117
0
LINE
8
BLACK
6
CONTINUOUS
10
1.17951
20
1.16117
11
1.18041
21
1.16068
0
LINE
8
BLACK
6
CONTINUOUS
10
1.18041
20
1.16068
11
1.1805
21
1.16053
0
LINE
8
BLACK
6
CONTINUOUS
10
1.1805
20
1.16053
11
1.18066
21
1.16046
0
LINE
8
BLACK
6
CONTINUOUS
10
1.18066
20
1.16046
11
1.18253
21
1.15858
0
LINE
8
BLACK
6
CONTINUOUS
10
1.18253
20
1.15858
11
1.18312
21
1.15774
0
LINE
8
BLACK
6
CONTINUOUS
10
1.18312
20
1.15774
11
1.1833
21
1.15573
0
LINE
8
BLACK
6
CONTINUOUS
10
1.1833
20
1.15573
11
1.18214
21
1.15408
0
LINE
8
BLACK
6
CONTINUOUS
10
1.18214
20
1.15408
11
1.18019
21
1.15355
0
LINE
8
BLACK
6
CONTINUOUS
10
1.18019
20
1.15355
11
1.17836
21
1.15441
0
LINE
8
BLACK
6
CONTINUOUS
10
1.17836
20
1.15441
11
1.17698
21
1.15579
0
LINE
8
BLACK
6
CONTINUOUS
10
1.17698
20
1.15579
11
1.17247
21
1.15729
0
LINE
8
BLACK
6
CONTINUOUS
10
1.17247
20
1.15729
11
1.16968
21
1.15729
0
LINE
8
BLACK
6
CONTINUOUS
10
1.16968
20
1.15729
11
1.16517
21
1.15579
0
LINE
8
BLACK
6
CONTINUOUS
10
1.16517
20
1.15579
11
1.16225
21
1.15287
0
LINE
8
BLACK
6
CONTINUOUS
10
1.16225
20
1.15287
11
1.16074
21
1.14984
0
LINE
8
BLACK
6
CONTINUOUS
10
1.16074
20
1.14984
11
1.15903
21
1.14301
0
LINE
8
BLACK
6
CONTINUOUS
10
1.15903
20
1.14301
11
1.15903
21
1.13811
0
LINE
8
BLACK
6
CONTINUOUS
10
1.15903
20
1.13811
11
1.16074
21
1.13128
0
LINE
8
BLACK
6
CONTINUOUS
10
1.16074
20
1.13128
11
1.16225
21
1.12825
0
LINE
8
BLACK
6
CONTINUOUS
10
1.16225
20
1.12825
11
1.16517
21
1.12533
0
LINE
8
BLACK
6
CONTINUOUS
10
1.16517
20
1.12533
11
1.16968
21
1.12383
0
LINE
8
BLACK
6
CONTINUOUS
10
1.16968
20
1.12383
11
1.17247
21
1.12383
0
LINE
8
BLACK
6
CONTINUOUS
10
1.17247
20
1.12383
11
1.17698
21
1.12533
0
LINE
8
BLACK
6
CONTINUOUS
10
1.17698
20
1.12533
11
1.17836
21
1.12671
0
LINE
8
BLACK
6
CONTINUOUS
10
1.17836
20
1.12671
11
1.1792
21
1.1273
0
LINE
8
BLACK
6
CONTINUOUS
10
1.1792
20
1.1273
11
1.18121
21
1.12748
0
LINE
8
BLACK
6
CONTINUOUS
10
1.18121
20
1.12748
11
1.18286
21
1.12632
0
LINE
8
BLACK
6
CONTINUOUS
10
1.18286
20
1.12632
11
1.18339
21
1.12437
0
LINE
8
BLACK
6
CONTINUOUS
10
1.18339
20
1.12437
11
1.18253
21
1.12253
0
LINE
8
BLACK
6
CONTINUOUS
10
1.18253
20
1.12253
11
1.18066
21
1.12066
0
LINE
8
BLACK
6
CONTINUOUS
10
1.18066
20
1.12066
11
1.17982
21
1.12007
0
LINE
8
BLACK
6
CONTINUOUS
10
1.17982
20
1.12007
11
1.17964
21
1.12006
0
LINE
8
BLACK
6
CONTINUOUS
10
1.17964
20
1.12006
11
1.17951
21
1.11995
0
LINE
8
BLACK
6
CONTINUOUS
10
1.17951
20
1.11995
11
1.17388
21
1.11807
0
LINE
8
BLACK
6
CONTINUOUS
10
1.17388
20
1.11807
11
1.17301
21
1.11794
0
LINE
8
BLACK
6
CONTINUOUS
10
1.17301
20
1.11794
11
1.17295
21
1.11792
0
LINE
8
BLACK
6
CONTINUOUS
10
1.17295
20
1.11792
11
1.1692
21
1.11792
0
LINE
8
BLACK
6
CONTINUOUS
10
1.1692
20
1.11792
11
1.16833
21
1.11807
0
LINE
8
BLACK
6
CONTINUOUS
10
1.16833
20
1.11807
11
1.16826
21
1.11807
0
LINE
8
BLACK
6
CONTINUOUS
10
1.16826
20
1.11807
11
1.16264
21
1.11995
0
LINE
8
BLACK
6
CONTINUOUS
10
1.16264
20
1.11995
11
1.16174
21
1.12044
0
LINE
8
BLACK
6
CONTINUOUS
10
1.16174
20
1.12044
11
1.16165
21
1.12059
0
LINE
8
BLACK
6
CONTINUOUS
10
1.16165
20
1.12059
11
1.16149
21
1.12066
0
LINE
8
BLACK
6
CONTINUOUS
10
1.16149
20
1.12066
11
1.15774
21
1.12441
0
LINE
8
BLACK
6
CONTINUOUS
10
1.15774
20
1.12441
11
1.15723
21
1.12513
0
LINE
8
BLACK
6
CONTINUOUS
10
1.15723
20
1.12513
11
1.15718
21
1.12518
0
LINE
8
BLACK
6
CONTINUOUS
10
1.15718
20
1.12518
11
1.15531
21
1.12893
0
LINE
8
BLACK
6
CONTINUOUS
10
1.15531
20
1.12893
11
1.15516
21
1.12942
0
LINE
8
BLACK
6
CONTINUOUS
10
1.15516
20
1.12942
11
1.15508
21
1.12953
0
LINE
8
BLACK
6
CONTINUOUS
10
1.15508
20
1.12953
11
1.15321
21
1.13703
0
LINE
8
BLACK
6
CONTINUOUS
10
1.15321
20
1.13703
11
1.15317
21
1.13762
0
LINE
8
BLACK
6
CONTINUOUS
10
1.15317
20
1.13762
11
1.15312
21
1.13775
0
LINE
8
BLACK
6
CONTINUOUS
10
1.15312
20
1.13775
11
1.15312
21
1.14337
0
LINE
8
BLACK
6
CONTINUOUS
10
1.15312
20
1.14337
11
1.15322
21
1.14395
0
LINE
8
BLACK
6
CONTINUOUS
10
1.15322
20
1.14395
11
1.15321
21
1.14409
0
LINE
8
BLACK
6
CONTINUOUS
10
1.15321
20
1.14409
11
1.15508
21
1.15159
0
LINE
8
BLACK
6
CONTINUOUS
10
1.15508
20
1.15159
11
1.15529
21
1.15205
0
LINE
8
BLACK
6
CONTINUOUS
10
1.15529
20
1.15205
11
1.15531
21
1.15219
0
LINE
8
BLACK
6
CONTINUOUS
10
1.15531
20
1.15219
11
1.15718
21
1.15594
0
LINE
8
BLACK
6
CONTINUOUS
10
1.15718
20
1.15594
11
1.15771
21
1.15665
0
LINE
8
BLACK
6
CONTINUOUS
10
1.15771
20
1.15665
11
1.15774
21
1.15671
0
LINE
8
BLACK
6
CONTINUOUS
10
1.15774
20
1.15671
11
1.16149
21
1.16046
0
LINE
8
BLACK
6
CONTINUOUS
10
1.16149
20
1.16046
11
1.16233
21
1.16104
0
LINE
8
BLACK
6
CONTINUOUS
10
1.16233
20
1.16104
11
1.1625
21
1.16106
0
LINE
8
BLACK
6
CONTINUOUS
10
1.1625
20
1.16106
11
1.16264
21
1.16117
0
LINE
8
BLACK
6
CONTINUOUS
10
1.16264
20
1.16117
11
1.16826
21
1.16304
0
LINE
8
BLACK
6
CONTINUOUS
10
1.16826
20
1.16304
11
1.16914
21
1.16317
0
LINE
8
BLACK
6
CONTINUOUS
10
1.16914
20
1.16317
11
1.1692
21
1.1632
0
LINE
8
BLACK
6
CONTINUOUS
10
1.1692
20
1.1632
11
1.17295
21
1.1632
0
LINE
8
BLACK
6
CONTINUOUS
10
1.17295
20
1.1632
11
1.17382
21
1.16304
0
LINE
8
BLACK
6
CONTINUOUS
10
1.2152
20
1.16302
11
1.21675
21
1.16172
0
LINE
8
BLACK
6
CONTINUOUS
10
1.21675
20
1.16172
11
1.2171
21
1.15973
0
LINE
8
BLACK
6
CONTINUOUS
10
1.2171
20
1.15973
11
1.21609
21
1.15798
0
LINE
8
BLACK
6
CONTINUOUS
10
1.21609
20
1.15798
11
1.21419
21
1.15729
0
LINE
8
BLACK
6
CONTINUOUS
10
1.21419
20
1.15729
11
1.20739
21
1.15729
0
LINE
8
BLACK
6
CONTINUOUS
10
1.20739
20
1.15729
11
1.20469
21
1.15594
0
LINE
8
BLACK
6
CONTINUOUS
10
1.20469
20
1.15594
11
1.20336
21
1.15461
0
LINE
8
BLACK
6
CONTINUOUS
10
1.20336
20
1.15461
11
1.20006
21
1.14966
0
LINE
8
BLACK
6
CONTINUOUS
10
1.20006
20
1.14966
11
1.19933
21
1.14674
0
LINE
8
BLACK
6
CONTINUOUS
10
1.19933
20
1.14674
11
1.20162
21
1.14789
0
LINE
8
BLACK
6
CONTINUOUS
10
1.20162
20
1.14789
11
1.20261
21
1.14818
0
LINE
8
BLACK
6
CONTINUOUS
10
1.20261
20
1.14818
11
1.20278
21
1.14814
0
LINE
8
BLACK
6
CONTINUOUS
10
1.20278
20
1.14814
11
1.20294
21
1.1482
0
LINE
8
BLACK
6
CONTINUOUS
10
1.20294
20
1.1482
11
1.21044
21
1.1482
0
LINE
8
BLACK
6
CONTINUOUS
10
1.21044
20
1.1482
11
1.21145
21
1.14802
0
LINE
8
BLACK
6
CONTINUOUS
10
1.21145
20
1.14802
11
1.21159
21
1.14791
0
LINE
8
BLACK
6
CONTINUOUS
10
1.21159
20
1.14791
11
1.21176
21
1.14789
0
LINE
8
BLACK
6
CONTINUOUS
10
1.21176
20
1.14789
11
1.21551
21
1.14601
0
LINE
8
BLACK
6
CONTINUOUS
10
1.21551
20
1.14601
11
1.21622
21
1.14549
0
LINE
8
BLACK
6
CONTINUOUS
10
1.21622
20
1.14549
11
1.21628
21
1.14546
0
LINE
8
BLACK
6
CONTINUOUS
10
1.21628
20
1.14546
11
1.21815
21
1.14358
0
LINE
8
BLACK
6
CONTINUOUS
10
1.21815
20
1.14358
11
1.21866
21
1.14286
0
LINE
8
BLACK
6
CONTINUOUS
10
1.21866
20
1.14286
11
1.21871
21
1.14282
0
LINE
8
BLACK
6
CONTINUOUS
10
1.21871
20
1.14282
11
1.22058
21
1.13907
0
LINE
8
BLACK
6
CONTINUOUS
10
1.22058
20
1.13907
11
1.22087
21
1.13808
0
LINE
8
BLACK
6
CONTINUOUS
10
1.22087
20
1.13808
11
1.22083
21
1.13791
0
LINE
8
BLACK
6
CONTINUOUS
10
1.22083
20
1.13791
11
1.22089
21
1.13775
0
LINE
8
BLACK
6
CONTINUOUS
10
1.22089
20
1.13775
11
1.22089
21
1.12837
0
LINE
8
BLACK
6
CONTINUOUS
10
1.22089
20
1.12837
11
1.22072
21
1.12736
0
LINE
8
BLACK
6
CONTINUOUS
10
1.22072
20
1.12736
11
1.2206
21
1.12723
0
LINE
8
BLACK
6
CONTINUOUS
10
1.2206
20
1.12723
11
1.22058
21
1.12705
0
LINE
8
BLACK
6
CONTINUOUS
10
1.22058
20
1.12705
11
1.21871
21
1.1233
0
LINE
8
BLACK
6
CONTINUOUS
10
1.21871
20
1.1233
11
1.21818
21
1.12259
0
LINE
8
BLACK
6
CONTINUOUS
10
1.21818
20
1.12259
11
1.21815
21
1.12253
0
LINE
8
BLACK
6
CONTINUOUS
10
1.21815
20
1.12253
11
1.21628
21
1.12066
0
LINE
8
BLACK
6
CONTINUOUS
10
1.21628
20
1.12066
11
1.21556
21
1.12015
0
LINE
8
BLACK
6
CONTINUOUS
10
1.21556
20
1.12015
11
1.21551
21
1.12011
0
LINE
8
BLACK
6
CONTINUOUS
10
1.21551
20
1.12011
11
1.21176
21
1.11823
0
LINE
8
BLACK
6
CONTINUOUS
10
1.21176
20
1.11823
11
1.21078
21
1.11794
0
LINE
8
BLACK
6
CONTINUOUS
10
1.21078
20
1.11794
11
1.21061
21
1.11798
0
LINE
8
BLACK
6
CONTINUOUS
10
1.21061
20
1.11798
11
1.21044
21
1.11792
0
LINE
8
BLACK
6
CONTINUOUS
10
1.21044
20
1.11792
11
1.20294
21
1.11792
0
LINE
8
BLACK
6
CONTINUOUS
10
1.20294
20
1.11792
11
1.20193
21
1.1181
0
LINE
8
BLACK
6
CONTINUOUS
10
1.20193
20
1.1181
11
1.2018
21
1.11821
0
LINE
8
BLACK
6
CONTINUOUS
10
1.2018
20
1.11821
11
1.20162
21
1.11823
0
LINE
8
BLACK
6
CONTINUOUS
10
1.20162
20
1.11823
11
1.19787
21
1.12011
0
LINE
8
BLACK
6
CONTINUOUS
10
1.19787
20
1.12011
11
1.19716
21
1.12063
0
LINE
8
BLACK
6
CONTINUOUS
10
1.19716
20
1.12063
11
1.19711
21
1.12066
0
LINE
8
BLACK
6
CONTINUOUS
10
1.19711
20
1.12066
11
1.19523
21
1.12253
0
LINE
8
BLACK
6
CONTINUOUS
10
1.19523
20
1.12253
11
1.19472
21
1.12326
0
LINE
8
BLACK
6
CONTINUOUS
10
1.19472
20
1.12326
11
1.19468
21
1.1233
0
LINE
8
BLACK
6
CONTINUOUS
10
1.19468
20
1.1233
11
1.1928
21
1.12705
0
LINE
8
BLACK
6
CONTINUOUS
10
1.1928
20
1.12705
11
1.19251
21
1.12803
0
LINE
8
BLACK
6
CONTINUOUS
10
1.19251
20
1.12803
11
1.19255
21
1.12821
0
LINE
8
BLACK
6
CONTINUOUS
10
1.19255
20
1.12821
11
1.19249
21
1.12837
0
LINE
8
BLACK
6
CONTINUOUS
10
1.19249
20
1.12837
11
1.19249
21
1.14337
0
LINE
8
BLACK
6
CONTINUOUS
10
1.19249
20
1.14337
11
1.19259
21
1.14395
0
LINE
8
BLACK
6
CONTINUOUS
10
1.19259
20
1.14395
11
1.19258
21
1.14409
0
LINE
8
BLACK
6
CONTINUOUS
10
1.19258
20
1.14409
11
1.19445
21
1.15159
0
LINE
8
BLACK
6
CONTINUOUS
10
1.19445
20
1.15159
11
1.19486
21
1.15249
0
LINE
8
BLACK
6
CONTINUOUS
10
1.19486
20
1.15249
11
1.19486
21
1.15251
0
LINE
8
BLACK
6
CONTINUOUS
10
1.19486
20
1.15251
11
1.19861
21
1.15813
0
LINE
8
BLACK
6
CONTINUOUS
10
1.19861
20
1.15813
11
1.19892
21
1.15846
0
LINE
8
BLACK
6
CONTINUOUS
10
1.19892
20
1.15846
11
1.19898
21
1.15858
0
LINE
8
BLACK
6
CONTINUOUS
10
1.19898
20
1.15858
11
1.20086
21
1.16046
0
LINE
8
BLACK
6
CONTINUOUS
10
1.20086
20
1.16046
11
1.20158
21
1.16096
0
LINE
8
BLACK
6
CONTINUOUS
10
1.20158
20
1.16096
11
1.20162
21
1.16101
0
LINE
8
BLACK
6
CONTINUOUS
10
1.20162
20
1.16101
11
1.20537
21
1.16288
0
LINE
8
BLACK
6
CONTINUOUS
10
1.20537
20
1.16288
11
1.20636
21
1.16318
0
LINE
8
BLACK
6
CONTINUOUS
10
1.20636
20
1.16318
11
1.20653
21
1.16314
0
LINE
8
BLACK
6
CONTINUOUS
10
1.20653
20
1.16314
11
1.20669
21
1.1632
0
LINE
8
BLACK
6
CONTINUOUS
10
1.20669
20
1.1632
11
1.21419
21
1.1632
0
LINE
8
BLACK
6
CONTINUOUS
10
1.21419
20
1.1632
11
1.2152
21
1.16302
0
LINE
8
BLACK
6
CONTINUOUS
10
1.20094
20
1.14094
11
1.19975
21
1.13975
0
LINE
8
BLACK
6
CONTINUOUS
10
1.19975
20
1.13975
11
1.1984
21
1.13705
0
LINE
8
BLACK
6
CONTINUOUS
10
1.1984
20
1.13705
11
1.1984
21
1.12907
0
LINE
8
BLACK
6
CONTINUOUS
10
1.1984
20
1.12907
11
1.19975
21
1.12637
0
LINE
8
BLACK
6
CONTINUOUS
10
1.19975
20
1.12637
11
1.20094
21
1.12517
0
LINE
8
BLACK
6
CONTINUOUS
10
1.20094
20
1.12517
11
1.20364
21
1.12383
0
LINE
8
BLACK
6
CONTINUOUS
10
1.20364
20
1.12383
11
1.20975
21
1.12383
0
LINE
8
BLACK
6
CONTINUOUS
10
1.20975
20
1.12383
11
1.21244
21
1.12517
0
LINE
8
BLACK
6
CONTINUOUS
10
1.21244
20
1.12517
11
1.21364
21
1.12637
0
LINE
8
BLACK
6
CONTINUOUS
10
1.21364
20
1.12637
11
1.21499
21
1.12907
0
LINE
8
BLACK
6
CONTINUOUS
10
1.21499
20
1.12907
11
1.21499
21
1.13705
0
LINE
8
BLACK
6
CONTINUOUS
10
1.21499
20
1.13705
11
1.21364
21
1.13975
0
LINE
8
BLACK
6
CONTINUOUS
10
1.21364
20
1.13975
11
1.21244
21
1.14094
0
LINE
8
BLACK
6
CONTINUOUS
10
1.21244
20
1.14094
11
1.20975
21
1.14229
0
LINE
8
BLACK
6
CONTINUOUS
10
1.20975
20
1.14229
11
1.20364
21
1.14229
0
LINE
8
BLACK
6
CONTINUOUS
10
1.20364
20
1.14229
11
1.20094
21
1.14094
0
LINE
8
BLACK
6
CONTINUOUS
10
0.309924
20
1.21816
11
0.309989
21
1.21816
0
LINE
8
BLACK
6
CONTINUOUS
10
0.309989
20
1.21816
11
0.315613
21
1.21629
0
LINE
8
BLACK
6
CONTINUOUS
10
0.315613
20
1.21629
11
0.316515
21
1.2158
0
LINE
8
BLACK
6
CONTINUOUS
10
0.316515
20
1.2158
11
0.316607
21
1.21565
0
LINE
8
BLACK
6
CONTINUOUS
10
0.316607
20
1.21565
11
0.316767
21
1.21557
0
LINE
8
BLACK
6
CONTINUOUS
10
0.316767
20
1.21557
11
0.320517
21
1.21183
0
LINE
8
BLACK
6
CONTINUOUS
10
0.320517
20
1.21183
11
0.321023
21
1.2111
0
LINE
8
BLACK
6
CONTINUOUS
10
0.321023
20
1.2111
11
0.32107
21
1.21106
0
LINE
8
BLACK
6
CONTINUOUS
10
0.32107
20
1.21106
11
0.322945
21
1.20731
0
LINE
8
BLACK
6
CONTINUOUS
10
0.322945
20
1.20731
11
0.32309
21
1.20682
0
LINE
8
BLACK
6
CONTINUOUS
10
0.32309
20
1.20682
11
0.323168
21
1.2067
0
LINE
8
BLACK
6
CONTINUOUS
10
0.323168
20
1.2067
11
0.325043
21
1.1992
0
LINE
8
BLACK
6
CONTINUOUS
10
0.325043
20
1.1992
11
0.325085
21
1.19862
0
LINE
8
BLACK
6
CONTINUOUS
10
0.325085
20
1.19862
11
0.325131
21
1.19849
0
LINE
8
BLACK
6
CONTINUOUS
10
0.325131
20
1.19849
11
0.325131
21
1.19286
0
LINE
8
BLACK
6
CONTINUOUS
10
0.325131
20
1.19286
11
0.325029
21
1.19228
0
LINE
8
BLACK
6
CONTINUOUS
10
0.325029
20
1.19228
11
0.325043
21
1.19215
0
LINE
8
BLACK
6
CONTINUOUS
10
0.325043
20
1.19215
11
0.323168
21
1.18465
0
LINE
8
BLACK
6
CONTINUOUS
10
0.323168
20
1.18465
11
0.322961
21
1.18418
0
LINE
8
BLACK
6
CONTINUOUS
10
0.322961
20
1.18418
11
0.322945
21
1.18404
0
LINE
8
BLACK
6
CONTINUOUS
10
0.322945
20
1.18404
11
0.32107
21
1.1803
0
LINE
8
BLACK
6
CONTINUOUS
10
0.32107
20
1.1803
11
0.320544
21
1.17959
0
LINE
8
BLACK
6
CONTINUOUS
10
0.320544
20
1.17959
11
0.320517
21
1.17953
0
LINE
8
BLACK
6
CONTINUOUS
10
0.320517
20
1.17953
11
0.316767
21
1.17578
0
LINE
8
BLACK
6
CONTINUOUS
10
0.316767
20
1.17578
11
0.315927
21
1.17519
0
LINE
8
BLACK
6
CONTINUOUS
10
0.315927
20
1.17519
11
0.315751
21
1.17517
0
LINE
8
BLACK
6
CONTINUOUS
10
0.315751
20
1.17517
11
0.315613
21
1.17506
0
LINE
8
BLACK
6
CONTINUOUS
10
0.315613
20
1.17506
11
0.309989
21
1.17319
0
LINE
8
BLACK
6
CONTINUOUS
10
0.309989
20
1.17319
11
0.309116
21
1.17306
0
LINE
8
BLACK
6
CONTINUOUS
10
0.309116
20
1.17306
11
0.309055
21
1.17304
0
LINE
8
BLACK
6
CONTINUOUS
10
0.309055
20
1.17304
11
0.299681
21
1.17304
0
LINE
8
BLACK
6
CONTINUOUS
10
0.299681
20
1.17304
11
0.299298
21
1.17311
0
LINE
8
BLACK
6
CONTINUOUS
10
0.299298
20
1.17311
11
0.299169
21
1.17308
0
LINE
8
BLACK
6
CONTINUOUS
10
0.299169
20
1.17308
11
0.299055
21
1.17315
0
LINE
8
BLACK
6
CONTINUOUS
10
0.299055
20
1.17315
11
0.298671
21
1.17322
0
LINE
8
BLACK
6
CONTINUOUS
10
0.298671
20
1.17322
11
0.298084
21
1.17371
0
LINE
8
BLACK
6
CONTINUOUS
10
0.298084
20
1.17371
11
0.297419
21
1.17409
0
LINE
8
BLACK
6
CONTINUOUS
10
0.297419
20
1.17409
11
0.297328
21
1.17434
0
LINE
8
BLACK
6
CONTINUOUS
10
0.297328
20
1.17434
11
0.297124
21
1.17451
0
LINE
8
BLACK
6
CONTINUOUS
10
0.297124
20
1.17451
11
0.296991
21
1.17527
0
LINE
8
BLACK
6
CONTINUOUS
10
0.296991
20
1.17527
11
0.296729
21
1.17599
0
LINE
8
BLACK
6
CONTINUOUS
10
0.296729
20
1.17599
11
0.296729
21
1.21536
0
LINE
8
BLACK
6
CONTINUOUS
10
0.296729
20
1.21536
11
0.296796
21
1.21575
0
LINE
8
BLACK
6
CONTINUOUS
10
0.296796
20
1.21575
11
0.296773
21
1.21587
0
LINE
8
BLACK
6
CONTINUOUS
10
0.296773
20
1.21587
11
0.296839
21
1.21599
0
LINE
8
BLACK
6
CONTINUOUS
10
0.296839
20
1.21599
11
0.296907
21
1.21637
0
LINE
8
BLACK
6
CONTINUOUS
10
0.296907
20
1.21637
11
0.2974
21
1.21696
0
LINE
8
BLACK
6
CONTINUOUS
10
0.2974
20
1.21696
11
0.297783
21
1.21762
0
LINE
8
BLACK
6
CONTINUOUS
10
0.297783
20
1.21762
11
0.298034
21
1.21771
0
LINE
8
BLACK
6
CONTINUOUS
10
0.298034
20
1.21771
11
0.298205
21
1.21792
0
LINE
8
BLACK
6
CONTINUOUS
10
0.298205
20
1.21792
11
0.29896
21
1.21805
0
LINE
8
BLACK
6
CONTINUOUS
10
0.29896
20
1.21805
11
0.299681
21
1.21831
0
LINE
8
BLACK
6
CONTINUOUS
10
0.299681
20
1.21831
11
0.309055
21
1.21831
0
LINE
8
BLACK
6
CONTINUOUS
10
0.309055
20
1.21831
11
0.309924
21
1.21816
0
LINE
8
BLACK
6
CONTINUOUS
10
0.302634
20
1.17894
11
0.308576
21
1.17894
0
LINE
8
BLACK
6
CONTINUOUS
10
0.308576
20
1.17894
11
0.313084
21
1.18045
0
LINE
8
BLACK
6
CONTINUOUS
10
0.313084
20
1.18045
11
0.316002
21
1.18336
0
LINE
8
BLACK
6
CONTINUOUS
10
0.316002
20
1.18336
11
0.317518
21
1.1864
0
LINE
8
BLACK
6
CONTINUOUS
10
0.317518
20
1.1864
11
0.319226
21
1.19323
0
LINE
8
BLACK
6
CONTINUOUS
10
0.319226
20
1.19323
11
0.319226
21
1.19813
0
LINE
8
BLACK
6
CONTINUOUS
10
0.319226
20
1.19813
11
0.317518
21
1.20496
0
LINE
8
BLACK
6
CONTINUOUS
10
0.317518
20
1.20496
11
0.316002
21
1.20799
0
LINE
8
BLACK
6
CONTINUOUS
10
0.316002
20
1.20799
11
0.313084
21
1.21091
0
LINE
8
BLACK
6
CONTINUOUS
10
0.313084
20
1.21091
11
0.308576
21
1.21241
0
LINE
8
BLACK
6
CONTINUOUS
10
0.308576
20
1.21241
11
0.302634
21
1.21241
0
LINE
8
BLACK
6
CONTINUOUS
10
0.302634
20
1.21241
11
0.302634
21
1.17894
0
LINE
8
BLACK
6
CONTINUOUS
10
0.348771
20
1.21824
11
0.348938
21
1.21827
0
LINE
8
BLACK
6
CONTINUOUS
10
0.348938
20
1.21827
11
0.34968
21
1.21784
0
LINE
8
BLACK
6
CONTINUOUS
10
0.34968
20
1.21784
11
0.350465
21
1.2175
0
LINE
8
BLACK
6
CONTINUOUS
10
0.350465
20
1.2175
11
0.35054
21
1.21734
0
LINE
8
BLACK
6
CONTINUOUS
10
0.35054
20
1.21734
11
0.350687
21
1.21726
0
LINE
8
BLACK
6
CONTINUOUS
10
0.350687
20
1.21726
11
0.35098
21
1.21645
0
LINE
8
BLACK
6
CONTINUOUS
10
0.35098
20
1.21645
11
0.35136
21
1.21569
0
LINE
8
BLACK
6
CONTINUOUS
10
0.35136
20
1.21569
11
0.35132
21
1.21552
0
LINE
8
BLACK
6
CONTINUOUS
10
0.35132
20
1.21552
11
0.351378
21
1.21536
0
LINE
8
BLACK
6
CONTINUOUS
10
0.351378
20
1.21536
11
0.351378
21
1.17894
0
LINE
8
BLACK
6
CONTINUOUS
10
0.351378
20
1.17894
11
0.359674
21
1.17894
0
LINE
8
BLACK
6
CONTINUOUS
10
0.359674
20
1.17894
11
0.360684
21
1.17877
0
LINE
8
BLACK
6
CONTINUOUS
10
0.360684
20
1.17877
11
0.362231
21
1.17747
0
LINE
8
BLACK
6
CONTINUOUS
10
0.362231
20
1.17747
11
0.362582
21
1.17548
0
LINE
8
BLACK
6
CONTINUOUS
10
0.362582
20
1.17548
11
0.361572
21
1.17373
0
LINE
8
BLACK
6
CONTINUOUS
10
0.361572
20
1.17373
11
0.359674
21
1.17304
0
LINE
8
BLACK
6
CONTINUOUS
10
0.359674
20
1.17304
11
0.337177
21
1.17304
0
LINE
8
BLACK
6
CONTINUOUS
10
0.337177
20
1.17304
11
0.336167
21
1.17322
0
LINE
8
BLACK
6
CONTINUOUS
10
0.336167
20
1.17322
11
0.334619
21
1.17451
0
LINE
8
BLACK
6
CONTINUOUS
10
0.334619
20
1.17451
11
0.334269
21
1.1765
0
LINE
8
BLACK
6
CONTINUOUS
10
0.334269
20
1.1765
11
0.335279
21
1.17825
0
LINE
8
BLACK
6
CONTINUOUS
10
0.335279
20
1.17825
11
0.337177
21
1.17894
0
LINE
8
BLACK
6
CONTINUOUS
10
0.337177
20
1.17894
11
0.345472
21
1.17894
0
LINE
8
BLACK
6
CONTINUOUS
10
0.345472
20
1.17894
11
0.345472
21
1.20636
0
LINE
8
BLACK
6
CONTINUOUS
10
0.345472
20
1.20636
11
0.343014
21
1.2039
0
LINE
8
BLACK
6
CONTINUOUS
10
0.343014
20
1.2039
11
0.342291
21
1.20339
0
LINE
8
BLACK
6
CONTINUOUS
10
0.342291
20
1.20339
11
0.342247
21
1.20335
0
LINE
8
BLACK
6
CONTINUOUS
10
0.342247
20
1.20335
11
0.338497
21
1.20147
0
LINE
8
BLACK
6
CONTINUOUS
10
0.338497
20
1.20147
11
0.337514
21
1.20118
0
LINE
8
BLACK
6
CONTINUOUS
10
0.337514
20
1.20118
11
0.33555
21
1.20165
0
LINE
8
BLACK
6
CONTINUOUS
10
0.33555
20
1.20165
11
0.334346
21
1.20327
0
LINE
8
BLACK
6
CONTINUOUS
10
0.334346
20
1.20327
11
0.334467
21
1.20529
0
LINE
8
BLACK
6
CONTINUOUS
10
0.334467
20
1.20529
11
0.335856
21
1.20675
0
LINE
8
BLACK
6
CONTINUOUS
10
0.335856
20
1.20675
11
0.339177
21
1.20841
0
LINE
8
BLACK
6
CONTINUOUS
10
0.339177
20
1.20841
11
0.342381
21
1.21162
0
LINE
8
BLACK
6
CONTINUOUS
10
0.342381
20
1.21162
11
0.345968
21
1.217
0
LINE
8
BLACK
6
CONTINUOUS
10
0.345968
20
1.217
11
0.346677
21
1.21774
0
LINE
8
BLACK
6
CONTINUOUS
10
0.346677
20
1.21774
11
0.34684
21
1.21779
0
LINE
8
BLACK
6
CONTINUOUS
10
0.34684
20
1.21779
11
0.346949
21
1.21792
0
LINE
8
BLACK
6
CONTINUOUS
10
0.346949
20
1.21792
11
0.347793
21
1.21807
0
LINE
8
BLACK
6
CONTINUOUS
10
0.347793
20
1.21807
11
0.348615
21
1.21831
0
LINE
8
BLACK
6
CONTINUOUS
10
0.348615
20
1.21831
11
0.348771
21
1.21824
0
LINE
8
BLACK
6
CONTINUOUS
10
0.546895
20
1.28014
11
0.548442
21
1.27885
0
LINE
8
BLACK
6
CONTINUOUS
10
0.548442
20
1.27885
11
0.548793
21
1.27686
0
LINE
8
BLACK
6
CONTINUOUS
10
0.548793
20
1.27686
11
0.547783
21
1.27511
0
LINE
8
BLACK
6
CONTINUOUS
10
0.547783
20
1.27511
11
0.545885
21
1.27442
0
LINE
8
BLACK
6
CONTINUOUS
10
0.545885
20
1.27442
11
0.539083
21
1.27442
0
LINE
8
BLACK
6
CONTINUOUS
10
0.539083
20
1.27442
11
0.536385
21
1.27307
0
LINE
8
BLACK
6
CONTINUOUS
10
0.536385
20
1.27307
11
0.535056
21
1.27174
0
LINE
8
BLACK
6
CONTINUOUS
10
0.535056
20
1.27174
11
0.531753
21
1.26678
0
LINE
8
BLACK
6
CONTINUOUS
10
0.531753
20
1.26678
11
0.531023
21
1.26387
0
LINE
8
BLACK
6
CONTINUOUS
10
0.531023
20
1.26387
11
0.533316
21
1.26501
0
LINE
8
BLACK
6
CONTINUOUS
10
0.533316
20
1.26501
11
0.534299
21
1.2653
0
LINE
8
BLACK
6
CONTINUOUS
10
0.534299
20
1.2653
11
0.53447
21
1.26526
0
LINE
8
BLACK
6
CONTINUOUS
10
0.53447
20
1.26526
11
0.534636
21
1.26532
0
LINE
8
BLACK
6
CONTINUOUS
10
0.534636
20
1.26532
11
0.542135
21
1.26532
0
LINE
8
BLACK
6
CONTINUOUS
10
0.542135
20
1.26532
11
0.543145
21
1.26515
0
LINE
8
BLACK
6
CONTINUOUS
10
0.543145
20
1.26515
11
0.543281
21
1.26503
0
LINE
8
BLACK
6
CONTINUOUS
10
0.543281
20
1.26503
11
0.543456
21
1.26501
0
LINE
8
BLACK
6
CONTINUOUS
10
0.543456
20
1.26501
11
0.547205
21
1.26314
0
LINE
8
BLACK
6
CONTINUOUS
10
0.547205
20
1.26314
11
0.547914
21
1.26261
0
LINE
8
BLACK
6
CONTINUOUS
10
0.547914
20
1.26261
11
0.547973
21
1.26258
0
LINE
8
BLACK
6
CONTINUOUS
10
0.547973
20
1.26258
11
0.549848
21
1.26071
0
LINE
8
BLACK
6
CONTINUOUS
10
0.549848
20
1.26071
11
0.550354
21
1.25999
0
LINE
8
BLACK
6
CONTINUOUS
10
0.550354
20
1.25999
11
0.550401
21
1.25994
0
LINE
8
BLACK
6
CONTINUOUS
10
0.550401
20
1.25994
11
0.552275
21
1.25619
0
LINE
8
BLACK
6
CONTINUOUS
10
0.552275
20
1.25619
11
0.552568
21
1.25521
0
LINE
8
BLACK
6
CONTINUOUS
10
0.552568
20
1.25521
11
0.552527
21
1.25504
0
LINE
8
BLACK
6
CONTINUOUS
10
0.552527
20
1.25504
11
0.552587
21
1.25487
0
LINE
8
BLACK
6
CONTINUOUS
10
0.552587
20
1.25487
11
0.552587
21
1.2497
0
LINE
8
BLACK
6
CONTINUOUS
10
0.552587
20
1.2497
11
0.552959
21
1.24977
0
LINE
8
BLACK
6
CONTINUOUS
10
0.552959
20
1.24977
11
0.554709
21
1.24876
0
LINE
8
BLACK
6
CONTINUOUS
10
0.554709
20
1.24876
11
0.555399
21
1.24686
0
LINE
8
BLACK
6
CONTINUOUS
10
0.555399
20
1.24686
11
0.555399
21
1.21044
0
LINE
8
BLACK
6
CONTINUOUS
10
0.555399
20
1.21044
11
0.571194
21
1.21044
0
LINE
8
BLACK
6
CONTINUOUS
10
0.571194
20
1.21044
11
0.572204
21
1.21026
0
LINE
8
BLACK
6
CONTINUOUS
10
0.572204
20
1.21026
11
0.573751
21
1.20896
0
LINE
8
BLACK
6
CONTINUOUS
10
0.573751
20
1.20896
11
0.574102
21
1.20697
0
LINE
8
BLACK
6
CONTINUOUS
10
0.574102
20
1.20697
11
0.573092
21
1.20523
0
LINE
8
BLACK
6
CONTINUOUS
10
0.573092
20
1.20523
11
0.571194
21
1.20453
0
LINE
8
BLACK
6
CONTINUOUS
10
0.571194
20
1.20453
11
0.552447
21
1.20453
0
LINE
8
BLACK
6
CONTINUOUS
10
0.552447
20
1.20453
11
0.552063
21
1.2046
0
LINE
8
BLACK
6
CONTINUOUS
10
0.552063
20
1.2046
11
0.551934
21
1.20458
0
LINE
8
BLACK
6
CONTINUOUS
10
0.551934
20
1.20458
11
0.55182
21
1.20465
0
LINE
8
BLACK
6
CONTINUOUS
10
0.55182
20
1.20465
11
0.551437
21
1.20471
0
LINE
8
BLACK
6
CONTINUOUS
10
0.551437
20
1.20471
11
0.550849
21
1.20521
0
LINE
8
BLACK
6
CONTINUOUS
10
0.550849
20
1.20521
11
0.550185
21
1.20559
0
LINE
8
BLACK
6
CONTINUOUS
10
0.550185
20
1.20559
11
0.550094
21
1.20584
0
LINE
8
BLACK
6
CONTINUOUS
10
0.550094
20
1.20584
11
0.549889
21
1.20601
0
LINE
8
BLACK
6
CONTINUOUS
10
0.549889
20
1.20601
11
0.549756
21
1.20677
0
LINE
8
BLACK
6
CONTINUOUS
10
0.549756
20
1.20677
11
0.549494
21
1.20749
0
LINE
8
BLACK
6
CONTINUOUS
10
0.549494
20
1.20749
11
0.549494
21
1.23931
0
LINE
8
BLACK
6
CONTINUOUS
10
0.549494
20
1.23931
11
0.547973
21
1.23779
0
LINE
8
BLACK
6
CONTINUOUS
10
0.547973
20
1.23779
11
0.54725
21
1.23728
0
LINE
8
BLACK
6
CONTINUOUS
10
0.54725
20
1.23728
11
0.547205
21
1.23723
0
LINE
8
BLACK
6
CONTINUOUS
10
0.547205
20
1.23723
11
0.543456
21
1.23536
0
LINE
8
BLACK
6
CONTINUOUS
10
0.543456
20
1.23536
11
0.542473
21
1.23507
0
LINE
8
BLACK
6
CONTINUOUS
10
0.542473
20
1.23507
11
0.542301
21
1.23511
0
LINE
8
BLACK
6
CONTINUOUS
10
0.542301
20
1.23511
11
0.542135
21
1.23505
0
LINE
8
BLACK
6
CONTINUOUS
10
0.542135
20
1.23505
11
0.534636
21
1.23505
0
LINE
8
BLACK
6
CONTINUOUS
10
0.534636
20
1.23505
11
0.533626
21
1.23522
0
LINE
8
BLACK
6
CONTINUOUS
10
0.533626
20
1.23522
11
0.533491
21
1.23534
0
LINE
8
BLACK
6
CONTINUOUS
10
0.533491
20
1.23534
11
0.533316
21
1.23536
0
LINE
8
BLACK
6
CONTINUOUS
10
0.533316
20
1.23536
11
0.529566
21
1.23723
0
LINE
8
BLACK
6
CONTINUOUS
10
0.529566
20
1.23723
11
0.528857
21
1.23776
0
LINE
8
BLACK
6
CONTINUOUS
10
0.528857
20
1.23776
11
0.528799
21
1.23779
0
LINE
8
BLACK
6
CONTINUOUS
10
0.528799
20
1.23779
11
0.526924
21
1.23966
0
LINE
8
BLACK
6
CONTINUOUS
10
0.526924
20
1.23966
11
0.526418
21
1.24038
0
LINE
8
BLACK
6
CONTINUOUS
10
0.526418
20
1.24038
11
0.526371
21
1.24043
0
LINE
8
BLACK
6
CONTINUOUS
10
0.526371
20
1.24043
11
0.524496
21
1.24418
0
LINE
8
BLACK
6
CONTINUOUS
10
0.524496
20
1.24418
11
0.524204
21
1.24516
0
LINE
8
BLACK
6
CONTINUOUS
10
0.524204
20
1.24516
11
0.524245
21
1.24533
0
LINE
8
BLACK
6
CONTINUOUS
10
0.524245
20
1.24533
11
0.524184
21
1.2455
0
LINE
8
BLACK
6
CONTINUOUS
10
0.524184
20
1.2455
11
0.524184
21
1.2605
0
LINE
8
BLACK
6
CONTINUOUS
10
0.524184
20
1.2605
11
0.524287
21
1.26108
0
LINE
8
BLACK
6
CONTINUOUS
10
0.524287
20
1.26108
11
0.524273
21
1.26121
0
LINE
8
BLACK
6
CONTINUOUS
10
0.524273
20
1.26121
11
0.526147
21
1.26871
0
LINE
8
BLACK
6
CONTINUOUS
10
0.526147
20
1.26871
11
0.526551
21
1.26962
0
LINE
8
BLACK
6
CONTINUOUS
10
0.526551
20
1.26962
11
0.526555
21
1.26963
0
LINE
8
BLACK
6
CONTINUOUS
10
0.526555
20
1.26963
11
0.530305
21
1.27526
0
LINE
8
BLACK
6
CONTINUOUS
10
0.530305
20
1.27526
11
0.530615
21
1.27558
0
LINE
8
BLACK
6
CONTINUOUS
10
0.530615
20
1.27558
11
0.530674
21
1.27571
0
LINE
8
BLACK
6
CONTINUOUS
10
0.530674
20
1.27571
11
0.532548
21
1.27758
0
LINE
8
BLACK
6
CONTINUOUS
10
0.532548
20
1.27758
11
0.533271
21
1.27809
0
LINE
8
BLACK
6
CONTINUOUS
10
0.533271
20
1.27809
11
0.533316
21
1.27814
0
LINE
8
BLACK
6
CONTINUOUS
10
0.533316
20
1.27814
11
0.537065
21
1.28001
0
LINE
8
BLACK
6
CONTINUOUS
10
0.537065
20
1.28001
11
0.538048
21
1.2803
0
LINE
8
BLACK
6
CONTINUOUS
10
0.538048
20
1.2803
11
0.53822
21
1.28026
0
LINE
8
BLACK
6
CONTINUOUS
10
0.53822
20
1.28026
11
0.538386
21
1.28032
0
LINE
8
BLACK
6
CONTINUOUS
10
0.538386
20
1.28032
11
0.545885
21
1.28032
0
LINE
8
BLACK
6
CONTINUOUS
10
0.545885
20
1.28032
11
0.546895
21
1.28014
0
LINE
8
BLACK
6
CONTINUOUS
10
0.532636
20
1.25807
11
0.531439
21
1.25687
0
LINE
8
BLACK
6
CONTINUOUS
10
0.531439
20
1.25687
11
0.53009
21
1.25418
0
LINE
8
BLACK
6
CONTINUOUS
10
0.53009
20
1.25418
11
0.53009
21
1.2462
0
LINE
8
BLACK
6
CONTINUOUS
10
0.53009
20
1.2462
11
0.531439
21
1.2435
0
LINE
8
BLACK
6
CONTINUOUS
10
0.531439
20
1.2435
11
0.532636
21
1.2423
0
LINE
8
BLACK
6
CONTINUOUS
10
0.532636
20
1.2423
11
0.535333
21
1.24095
0
LINE
8
BLACK
6
CONTINUOUS
10
0.535333
20
1.24095
11
0.541438
21
1.24095
0
LINE
8
BLACK
6
CONTINUOUS
10
0.541438
20
1.24095
11
0.544136
21
1.2423
0
LINE
8
BLACK
6
CONTINUOUS
10
0.544136
20
1.2423
11
0.545333
21
1.2435
0
LINE
8
BLACK
6
CONTINUOUS
10
0.545333
20
1.2435
11
0.546682
21
1.2462
0
LINE
8
BLACK
6
CONTINUOUS
10
0.546682
20
1.2462
11
0.546682
21
1.25418
0
LINE
8
BLACK
6
CONTINUOUS
10
0.546682
20
1.25418
11
0.545333
21
1.25687
0
LINE
8
BLACK
6
CONTINUOUS
10
0.545333
20
1.25687
11
0.544136
21
1.25807
0
LINE
8
BLACK
6
CONTINUOUS
10
0.544136
20
1.25807
11
0.541438
21
1.25942
0
LINE
8
BLACK
6
CONTINUOUS
10
0.541438
20
1.25942
11
0.535333
21
1.25942
0
LINE
8
BLACK
6
CONTINUOUS
10
0.535333
20
1.25942
11
0.532636
21
1.25807
0
LINE
8
BLACK
6
CONTINUOUS
10
0.594037
20
1.24974
11
0.594204
21
1.24977
0
LINE
8
BLACK
6
CONTINUOUS
10
0.594204
20
1.24977
11
0.594946
21
1.24934
0
LINE
8
BLACK
6
CONTINUOUS
10
0.594946
20
1.24934
11
0.595731
21
1.24899
0
LINE
8
BLACK
6
CONTINUOUS
10
0.595731
20
1.24899
11
0.595806
21
1.24884
0
LINE
8
BLACK
6
CONTINUOUS
10
0.595806
20
1.24884
11
0.595953
21
1.24876
0
LINE
8
BLACK
6
CONTINUOUS
10
0.595953
20
1.24876
11
0.596246
21
1.24795
0
LINE
8
BLACK
6
CONTINUOUS
10
0.596246
20
1.24795
11
0.596626
21
1.24718
0
LINE
8
BLACK
6
CONTINUOUS
10
0.596626
20
1.24718
11
0.596586
21
1.24702
0
LINE
8
BLACK
6
CONTINUOUS
10
0.596586
20
1.24702
11
0.596644
21
1.24686
0
LINE
8
BLACK
6
CONTINUOUS
10
0.596644
20
1.24686
11
0.596644
21
1.21044
0
LINE
8
BLACK
6
CONTINUOUS
10
0.596644
20
1.21044
11
0.60494
21
1.21044
0
LINE
8
BLACK
6
CONTINUOUS
10
0.60494
20
1.21044
11
0.60595
21
1.21026
0
LINE
8
BLACK
6
CONTINUOUS
10
0.60595
20
1.21026
11
0.607497
21
1.20896
0
LINE
8
BLACK
6
CONTINUOUS
10
0.607497
20
1.20896
11
0.607848
21
1.20697
0
LINE
8
BLACK
6
CONTINUOUS
10
0.607848
20
1.20697
11
0.606838
21
1.20523
0
LINE
8
BLACK
6
CONTINUOUS
10
0.606838
20
1.20523
11
0.60494
21
1.20453
0
LINE
8
BLACK
6
CONTINUOUS
10
0.60494
20
1.20453
11
0.582443
21
1.20453
0
LINE
8
BLACK
6
CONTINUOUS
10
0.582443
20
1.20453
11
0.581433
21
1.20471
0
LINE
8
BLACK
6
CONTINUOUS
10
0.581433
20
1.20471
11
0.579886
21
1.20601
0
LINE
8
BLACK
6
CONTINUOUS
10
0.579886
20
1.20601
11
0.579535
21
1.208
0
LINE
8
BLACK
6
CONTINUOUS
10
0.579535
20
1.208
11
0.580545
21
1.20975
0
LINE
8
BLACK
6
CONTINUOUS
10
0.580545
20
1.20975
11
0.582443
21
1.21044
0
LINE
8
BLACK
6
CONTINUOUS
10
0.582443
20
1.21044
11
0.590739
21
1.21044
0
LINE
8
BLACK
6
CONTINUOUS
10
0.590739
20
1.21044
11
0.590739
21
1.23785
0
LINE
8
BLACK
6
CONTINUOUS
10
0.590739
20
1.23785
11
0.58828
21
1.2354
0
LINE
8
BLACK
6
CONTINUOUS
10
0.58828
20
1.2354
11
0.587557
21
1.23489
0
LINE
8
BLACK
6
CONTINUOUS
10
0.587557
20
1.23489
11
0.587513
21
1.23484
0
LINE
8
BLACK
6
CONTINUOUS
10
0.587513
20
1.23484
11
0.583763
21
1.23297
0
LINE
8
BLACK
6
CONTINUOUS
10
0.583763
20
1.23297
11
0.58278
21
1.23268
0
LINE
8
BLACK
6
CONTINUOUS
10
0.58278
20
1.23268
11
0.580816
21
1.23314
0
LINE
8
BLACK
6
CONTINUOUS
10
0.580816
20
1.23314
11
0.579613
21
1.23477
0
LINE
8
BLACK
6
CONTINUOUS
10
0.579613
20
1.23477
11
0.579734
21
1.23678
0
LINE
8
BLACK
6
CONTINUOUS
10
0.579734
20
1.23678
11
0.581122
21
1.23825
0
LINE
8
BLACK
6
CONTINUOUS
10
0.581122
20
1.23825
11
0.584443
21
1.23991
0
LINE
8
BLACK
6
CONTINUOUS
10
0.584443
20
1.23991
11
0.587647
21
1.24311
0
LINE
8
BLACK
6
CONTINUOUS
10
0.587647
20
1.24311
11
0.591235
21
1.2485
0
LINE
8
BLACK
6
CONTINUOUS
10
0.591235
20
1.2485
11
0.591943
21
1.24924
0
LINE
8
BLACK
6
CONTINUOUS
10
0.591943
20
1.24924
11
0.592106
21
1.24928
0
LINE
8
BLACK
6
CONTINUOUS
10
0.592106
20
1.24928
11
0.592215
21
1.24941
0
LINE
8
BLACK
6
CONTINUOUS
10
0.592215
20
1.24941
11
0.593059
21
1.24956
0
LINE
8
BLACK
6
CONTINUOUS
10
0.593059
20
1.24956
11
0.593881
21
1.2498
0
LINE
8
BLACK
6
CONTINUOUS
10
0.593881
20
1.2498
11
0.594037
21
1.24974
0
LINE
8
BLACK
6
CONTINUOUS
10
0.427441
20
1.22864
11
0.428132
21
1.22697
0
LINE
8
BLACK
6
CONTINUOUS
10
0.428132
20
1.22697
11
0.427441
21
1.2253
0
LINE
8
BLACK
6
CONTINUOUS
10
0.427441
20
1.2253
11
0.42577
21
1.22461
0
LINE
8
BLACK
6
CONTINUOUS
10
0.42577
20
1.22461
11
0.407891
21
1.22461
0
LINE
8
BLACK
6
CONTINUOUS
10
0.407891
20
1.22461
11
0.406221
21
1.2253
0
LINE
8
BLACK
6
CONTINUOUS
10
0.406221
20
1.2253
11
0.405529
21
1.22697
0
LINE
8
BLACK
6
CONTINUOUS
10
0.405529
20
1.22697
11
0.406221
21
1.22864
0
LINE
8
BLACK
6
CONTINUOUS
10
0.406221
20
1.22864
11
0.407891
21
1.22933
0
LINE
8
BLACK
6
CONTINUOUS
10
0.407891
20
1.22933
11
0.42577
21
1.22933
0
LINE
8
BLACK
6
CONTINUOUS
10
0.42577
20
1.22933
11
0.427441
21
1.22864
0
LINE
8
BLACK
6
CONTINUOUS
10
0.50565
20
1.28014
11
0.505785
21
1.28003
0
LINE
8
BLACK
6
CONTINUOUS
10
0.505785
20
1.28003
11
0.505961
21
1.28001
0
LINE
8
BLACK
6
CONTINUOUS
10
0.505961
20
1.28001
11
0.50971
21
1.27814
0
LINE
8
BLACK
6
CONTINUOUS
10
0.50971
20
1.27814
11
0.510419
21
1.27761
0
LINE
8
BLACK
6
CONTINUOUS
10
0.510419
20
1.27761
11
0.510477
21
1.27758
0
LINE
8
BLACK
6
CONTINUOUS
10
0.510477
20
1.27758
11
0.512352
21
1.27571
0
LINE
8
BLACK
6
CONTINUOUS
10
0.512352
20
1.27571
11
0.512859
21
1.27498
0
LINE
8
BLACK
6
CONTINUOUS
10
0.512859
20
1.27498
11
0.512905
21
1.27494
0
LINE
8
BLACK
6
CONTINUOUS
10
0.512905
20
1.27494
11
0.51478
21
1.27119
0
LINE
8
BLACK
6
CONTINUOUS
10
0.51478
20
1.27119
11
0.515072
21
1.27021
0
LINE
8
BLACK
6
CONTINUOUS
10
0.515072
20
1.27021
11
0.515031
21
1.27004
0
LINE
8
BLACK
6
CONTINUOUS
10
0.515031
20
1.27004
11
0.515092
21
1.26987
0
LINE
8
BLACK
6
CONTINUOUS
10
0.515092
20
1.26987
11
0.515092
21
1.26425
0
LINE
8
BLACK
6
CONTINUOUS
10
0.515092
20
1.26425
11
0.514914
21
1.26324
0
LINE
8
BLACK
6
CONTINUOUS
10
0.514914
20
1.26324
11
0.5148
21
1.2631
0
LINE
8
BLACK
6
CONTINUOUS
10
0.5148
20
1.2631
11
0.51478
21
1.26293
0
LINE
8
BLACK
6
CONTINUOUS
10
0.51478
20
1.26293
11
0.512905
21
1.25918
0
LINE
8
BLACK
6
CONTINUOUS
10
0.512905
20
1.25918
11
0.512379
21
1.25847
0
LINE
8
BLACK
6
CONTINUOUS
10
0.512379
20
1.25847
11
0.512352
21
1.25841
0
LINE
8
BLACK
6
CONTINUOUS
10
0.512352
20
1.25841
11
0.510477
21
1.25653
0
LINE
8
BLACK
6
CONTINUOUS
10
0.510477
20
1.25653
11
0.509754
21
1.25603
0
LINE
8
BLACK
6
CONTINUOUS
10
0.509754
20
1.25603
11
0.50971
21
1.25598
0
LINE
8
BLACK
6
CONTINUOUS
10
0.50971
20
1.25598
11
0.505961
21
1.25411
0
LINE
8
BLACK
6
CONTINUOUS
10
0.505961
20
1.25411
11
0.504978
21
1.25381
0
LINE
8
BLACK
6
CONTINUOUS
10
0.504978
20
1.25381
11
0.504806
21
1.25385
0
LINE
8
BLACK
6
CONTINUOUS
10
0.504806
20
1.25385
11
0.504677
21
1.25381
0
LINE
8
BLACK
6
CONTINUOUS
10
0.504677
20
1.25381
11
0.514558
21
1.23969
0
LINE
8
BLACK
6
CONTINUOUS
10
0.514558
20
1.23969
11
0.514991
21
1.23876
0
LINE
8
BLACK
6
CONTINUOUS
10
0.514991
20
1.23876
11
0.514815
21
1.23675
0
LINE
8
BLACK
6
CONTINUOUS
10
0.514815
20
1.23675
11
0.513387
21
1.23532
0
LINE
8
BLACK
6
CONTINUOUS
10
0.513387
20
1.23532
11
0.511374
21
1.23515
0
LINE
8
BLACK
6
CONTINUOUS
10
0.511374
20
1.23515
11
0.50972
21
1.23631
0
LINE
8
BLACK
6
CONTINUOUS
10
0.50972
20
1.23631
11
0.497478
21
1.25379
0
LINE
8
BLACK
6
CONTINUOUS
10
0.497478
20
1.25379
11
0.492595
21
1.25379
0
LINE
8
BLACK
6
CONTINUOUS
10
0.492595
20
1.25379
11
0.492595
21
1.238
0
LINE
8
BLACK
6
CONTINUOUS
10
0.492595
20
1.238
11
0.492417
21
1.23699
0
LINE
8
BLACK
6
CONTINUOUS
10
0.492417
20
1.23699
11
0.491118
21
1.23544
0
LINE
8
BLACK
6
CONTINUOUS
10
0.491118
20
1.23544
11
0.489129
21
1.23509
0
LINE
8
BLACK
6
CONTINUOUS
10
0.489129
20
1.23509
11
0.48738
21
1.2361
0
LINE
8
BLACK
6
CONTINUOUS
10
0.48738
20
1.2361
11
0.486689
21
1.238
0
LINE
8
BLACK
6
CONTINUOUS
10
0.486689
20
1.238
11
0.486689
21
1.27737
0
LINE
8
BLACK
6
CONTINUOUS
10
0.486689
20
1.27737
11
0.486757
21
1.27775
0
LINE
8
BLACK
6
CONTINUOUS
10
0.486757
20
1.27775
11
0.486734
21
1.27788
0
LINE
8
BLACK
6
CONTINUOUS
10
0.486734
20
1.27788
11
0.4868
21
1.278
0
LINE
8
BLACK
6
CONTINUOUS
10
0.4868
20
1.278
11
0.486867
21
1.27838
0
LINE
8
BLACK
6
CONTINUOUS
10
0.486867
20
1.27838
11
0.48736
21
1.27897
0
LINE
8
BLACK
6
CONTINUOUS
10
0.48736
20
1.27897
11
0.487744
21
1.27963
0
LINE
8
BLACK
6
CONTINUOUS
10
0.487744
20
1.27963
11
0.487994
21
1.27972
0
LINE
8
BLACK
6
CONTINUOUS
10
0.487994
20
1.27972
11
0.488166
21
1.27993
0
LINE
8
BLACK
6
CONTINUOUS
10
0.488166
20
1.27993
11
0.488921
21
1.28006
0
LINE
8
BLACK
6
CONTINUOUS
10
0.488921
20
1.28006
11
0.489642
21
1.28032
0
LINE
8
BLACK
6
CONTINUOUS
10
0.489642
20
1.28032
11
0.50464
21
1.28032
0
LINE
8
BLACK
6
CONTINUOUS
10
0.50464
20
1.28032
11
0.50565
21
1.28014
0
LINE
8
BLACK
6
CONTINUOUS
10
0.492595
20
1.2597
11
0.503943
21
1.2597
0
LINE
8
BLACK
6
CONTINUOUS
10
0.503943
20
1.2597
11
0.50664
21
1.26105
0
LINE
8
BLACK
6
CONTINUOUS
10
0.50664
20
1.26105
11
0.507838
21
1.26225
0
LINE
8
BLACK
6
CONTINUOUS
10
0.507838
20
1.26225
11
0.509186
21
1.26494
0
LINE
8
BLACK
6
CONTINUOUS
10
0.509186
20
1.26494
11
0.509186
21
1.26917
0
LINE
8
BLACK
6
CONTINUOUS
10
0.509186
20
1.26917
11
0.507838
21
1.27187
0
LINE
8
BLACK
6
CONTINUOUS
10
0.507838
20
1.27187
11
0.50664
21
1.27307
0
LINE
8
BLACK
6
CONTINUOUS
10
0.50664
20
1.27307
11
0.503943
21
1.27442
0
LINE
8
BLACK
6
CONTINUOUS
10
0.503943
20
1.27442
11
0.492595
21
1.27442
0
LINE
8
BLACK
6
CONTINUOUS
10
0.492595
20
1.27442
11
0.492595
21
1.2597
0
LINE
8
BLACK
6
CONTINUOUS
10
0.427441
20
1.28651
11
0.428132
21
1.28484
0
LINE
8
BLACK
6
CONTINUOUS
10
0.428132
20
1.28484
11
0.427441
21
1.28317
0
LINE
8
BLACK
6
CONTINUOUS
10
0.427441
20
1.28317
11
0.42577
21
1.28248
0
LINE
8
BLACK
6
CONTINUOUS
10
0.42577
20
1.28248
11
0.407891
21
1.28248
0
LINE
8
BLACK
6
CONTINUOUS
10
0.407891
20
1.28248
11
0.406221
21
1.28317
0
LINE
8
BLACK
6
CONTINUOUS
10
0.406221
20
1.28317
11
0.405529
21
1.28484
0
LINE
8
BLACK
6
CONTINUOUS
10
0.405529
20
1.28484
11
0.406221
21
1.28651
0
LINE
8
BLACK
6
CONTINUOUS
10
0.406221
20
1.28651
11
0.407891
21
1.2872
0
LINE
8
BLACK
6
CONTINUOUS
10
0.407891
20
1.2872
11
0.42577
21
1.2872
0
LINE
8
BLACK
6
CONTINUOUS
10
0.42577
20
1.2872
11
0.427441
21
1.28651
0
CIRCLE
8
BLACK
10
2
20
1.6
40
0.00688976
0
CIRCLE
8
BLACK
10
2
20
0.4
40
0.00688976
0
CIRCLE
8
BLACK
10
0.4
20
0.4
40
0.00688976
0
CIRCLE
8
BLACK
10
0.4
20
1.6
40
0.00688976
0
CIRCLE
8
BLACK
10
0.848425
20
1.39173
40
0.00688976
0
CIRCLE
8
BLACK
10
1.04528
20
1.39173
40
0.00688976
0
CIRCLE
8
BLACK
10
0.640748
20
0.336024
40
0.00688976
0
CIRCLE
8
BLACK
10
0.640748
20
0.436024
40
0.00688976
0
CIRCLE
8
BLACK
10
0.520669
20
0.65748
40
0.00688976
0
CIRCLE
8
BLACK
10
0.520669
20
0.75748
40
0.00688976
0
CIRCLE
8
BLACK
10
0.420669
20
0.65748
40
0.00688976
0
CIRCLE
8
BLACK
10
0.420669
20
0.75748
40
0.00688976
0
CIRCLE
8
BLACK
10
0.320669
20
0.65748
40
0.00688976
0
CIRCLE
8
BLACK
10
0.320669
20
0.75748
40
0.00688976
0
CIRCLE
8
BLACK
10
1.2126
20
0.336073
40
0.00688976
0
CIRCLE
8
BLACK
10
1.2126
20
0.436073
40
0.00688976
0
CIRCLE
8
BLACK
10
1.1126
20
0.336073
40
0.00688976
0
CIRCLE
8
BLACK
10
1.1126
20
0.436073
40
0.00688976
0
CIRCLE
8
BLACK
10
1.0126
20
0.336073
40
0.00688976
0
CIRCLE
8
BLACK
10
1.0126
20
0.436073
40
0.00688976
0
CIRCLE
8
BLACK
10
0.912598
20
0.336073
40
0.00688976
0
CIRCLE
8
BLACK
10
0.912598
20
0.436073
40
0.00688976
0
CIRCLE
8
BLACK
10
0.812598
20
0.336073
40
0.00688976
0
CIRCLE
8
BLACK
10
0.812598
20
0.436073
40
0.00688976
0
CIRCLE
8
BLACK
10
1.71181
20
0.33563
40
0.00688976
0
CIRCLE
8
BLACK
10
1.71181
20
0.43563
40
0.00688976
0
CIRCLE
8
BLACK
10
1.61181
20
0.33563
40
0.00688976
0
CIRCLE
8
BLACK
10
1.61181
20
0.43563
40
0.00688976
0
CIRCLE
8
BLACK
10
1.51181
20
0.33563
40
0.00688976
0
CIRCLE
8
BLACK
10
1.51181
20
0.43563
40
0.00688976
0
CIRCLE
8
BLACK
10
1.80217
20
1.20276
40
0.00688976
0
CIRCLE
8
BLACK
10
1.80217
20
1.00591
40
0.00688976
0
CIRCLE
8
BLACK
10
1.80217
20
0.809055
40
0.00688976
0
CIRCLE
8
BLACK
10
1.22972
20
0.767717
40
0.00688976
0
CIRCLE
8
BLACK
10
1.32972
20
0.767717
40
0.00688976
0
CIRCLE
8
BLACK
10
1.22972
20
0.867717
40
0.00688976
0
CIRCLE
8
BLACK
10
1.32972
20
0.867717
40
0.00688976
0
CIRCLE
8
BLACK
10
1.22972
20
0.967717
40
0.00688976
0
CIRCLE
8
BLACK
10
1.32972
20
0.967717
40
0.00688976
0
CIRCLE
8
BLACK
10
1.49606
20
1.7
40
0.00688976
0
CIRCLE
8
BLACK
10
1.39606
20
1.7
40
0.00688976
0
CIRCLE
8
BLACK
10
1.49606
20
1.6
40
0.00688976
0
CIRCLE
8
BLACK
10
1.39606
20
1.6
40
0.00688976
0
CIRCLE
8
BLACK
10
1.49606
20
1.5
40
0.00688976
0
CIRCLE
8
BLACK
10
1.39606
20
1.5
40
0.00688976
0
CIRCLE
8
BLACK
10
1.49606
20
1.4
40
0.00688976
0
CIRCLE
8
BLACK
10
1.39606
20
1.4
40
0.00688976
  0
ENDSEC
  0
EOF
