  0
SECTION
  2
HEADER
  9
$ANGBASE
  50
0.0
  9
$ANGDIR
  70
1
  9
$MEASUREMENT
  70
0
  0
ENDSEC
  0
SECTION
  2
TABLES
  0
TABLE
  2
LTYPE
  70
4
  0
LTYPE
  5
40F
  2
CONTINUOUS
  70
0
  3
Solid line
  72
65
  73
0
  40
0.0
  0
LTYPE
  5
410
  2
DASHDOT
 70
0
  3
Dash Dot ____ _ ____ _
 72
65
 73
4
 40
2.0
 49
1.25
 49
-0.25
 49
0.25
 49
-0.25
  0
LTYPE
  5
411
  2
DASHED
 70
0
  3
Dashed __ __ __ __ __
 72
65
 73
2
 40
0.75
 49
0.5
 49
-0.25
  0
LTYPE
  5
43B
  2
DOTTED
 70
0
  3
Dotted .  .  .  .
 72
65
 73
2
 40
0.2
 49
0.0
 49
-0.2
  0
ENDTAB
  0
TABLE
  2
STYLE
  70
4
  0
STYLE
  2
KICAD
  70
0
  40
0
  41
1
  42
1
  50
0
  71
0
  3
isocp.shx
  0
STYLE
  2
KICADB
  70
0
  40
0
  41
1
  42
1
  50
0
  71
0
  3
isocp.shx
  0
STYLE
  2
KICADI
  70
0
  40
0
  41
1
  42
1
  50
15
  71
0
  3
isocp.shx
  0
STYLE
  2
KICADBI
  70
0
  40
0
  41
1
  42
1
  50
15
  71
0
  3
isocp.shx
  0
ENDTAB
  0
TABLE
  2
LAYER
  70
1
  0
LAYER
  2
BLACK
  70
0
  62
7
  6
CONTINUOUS
  0
ENDTAB
  0
ENDSEC
  0
SECTION
  2
ENTITIES
0
LINE
8
BLACK
6
CONTINUOUS
10
1.27333
20
0.567913
11
1.27402
21
0.567625
0
LINE
8
BLACK
6
CONTINUOUS
10
1.27402
20
0.567625
11
1.27431
21
0.566929
0
LINE
8
BLACK
6
CONTINUOUS
10
1.27431
20
0.566929
11
1.27431
21
0.492126
0
LINE
8
BLACK
6
CONTINUOUS
10
1.27431
20
0.492126
11
1.27402
21
0.49143
0
LINE
8
BLACK
6
CONTINUOUS
10
1.27402
20
0.49143
11
1.27333
21
0.491142
0
LINE
8
BLACK
6
CONTINUOUS
10
1.27333
20
0.491142
11
1.14104
21
0.491142
0
LINE
8
BLACK
6
CONTINUOUS
10
1.14104
20
0.491142
11
1.14035
21
0.49143
0
LINE
8
BLACK
6
CONTINUOUS
10
1.14035
20
0.49143
11
1.14006
21
0.492126
0
LINE
8
BLACK
6
CONTINUOUS
10
1.14006
20
0.492126
11
1.14006
21
0.566929
0
LINE
8
BLACK
6
CONTINUOUS
10
1.14006
20
0.566929
11
1.14035
21
0.567625
0
LINE
8
BLACK
6
CONTINUOUS
10
1.14035
20
0.567625
11
1.14104
21
0.567913
0
LINE
8
BLACK
6
CONTINUOUS
10
1.14104
20
0.567913
11
1.27333
21
0.567913
0
LINE
8
BLACK
6
CONTINUOUS
10
1.14203
20
0.565945
11
1.14203
21
0.49311
0
LINE
8
BLACK
6
CONTINUOUS
10
1.14203
20
0.49311
11
1.27234
21
0.49311
0
LINE
8
BLACK
6
CONTINUOUS
10
1.27234
20
0.49311
11
1.27234
21
0.565945
0
LINE
8
BLACK
6
CONTINUOUS
10
1.27234
20
0.565945
11
1.14203
21
0.565945
0
LINE
8
BLACK
6
CONTINUOUS
10
1.41604
20
0.567913
11
1.41674
21
0.567625
0
LINE
8
BLACK
6
CONTINUOUS
10
1.41674
20
0.567625
11
1.41703
21
0.566929
0
LINE
8
BLACK
6
CONTINUOUS
10
1.41703
20
0.566929
11
1.41703
21
0.492126
0
LINE
8
BLACK
6
CONTINUOUS
10
1.41703
20
0.492126
11
1.41674
21
0.49143
0
LINE
8
BLACK
6
CONTINUOUS
10
1.41674
20
0.49143
11
1.41604
21
0.491142
0
LINE
8
BLACK
6
CONTINUOUS
10
1.41604
20
0.491142
11
1.28376
21
0.491142
0
LINE
8
BLACK
6
CONTINUOUS
10
1.28376
20
0.491142
11
1.28306
21
0.49143
0
LINE
8
BLACK
6
CONTINUOUS
10
1.28306
20
0.49143
11
1.28278
21
0.492126
0
LINE
8
BLACK
6
CONTINUOUS
10
1.28278
20
0.492126
11
1.28278
21
0.566929
0
LINE
8
BLACK
6
CONTINUOUS
10
1.28278
20
0.566929
11
1.28306
21
0.567625
0
LINE
8
BLACK
6
CONTINUOUS
10
1.28306
20
0.567625
11
1.28376
21
0.567913
0
LINE
8
BLACK
6
CONTINUOUS
10
1.28376
20
0.567913
11
1.37431
21
0.567913
0
LINE
8
BLACK
6
CONTINUOUS
10
1.37431
20
0.567913
11
1.37362
21
0.568202
0
LINE
8
BLACK
6
CONTINUOUS
10
1.37362
20
0.568202
11
1.37333
21
0.568898
0
LINE
8
BLACK
6
CONTINUOUS
10
1.37333
20
0.568898
11
1.37333
21
0.643701
0
LINE
8
BLACK
6
CONTINUOUS
10
1.37333
20
0.643701
11
1.37362
21
0.644397
0
LINE
8
BLACK
6
CONTINUOUS
10
1.37362
20
0.644397
11
1.37431
21
0.644685
0
LINE
8
BLACK
6
CONTINUOUS
10
1.37431
20
0.644685
11
1.50659
21
0.644685
0
LINE
8
BLACK
6
CONTINUOUS
10
1.50659
20
0.644685
11
1.50729
21
0.644397
0
LINE
8
BLACK
6
CONTINUOUS
10
1.50729
20
0.644397
11
1.50758
21
0.643701
0
LINE
8
BLACK
6
CONTINUOUS
10
1.50758
20
0.643701
11
1.50758
21
0.568898
0
LINE
8
BLACK
6
CONTINUOUS
10
1.50758
20
0.568898
11
1.50729
21
0.568202
0
LINE
8
BLACK
6
CONTINUOUS
10
1.50729
20
0.568202
11
1.50659
21
0.567913
0
LINE
8
BLACK
6
CONTINUOUS
10
1.50659
20
0.567913
11
1.41604
21
0.567913
0
LINE
8
BLACK
6
CONTINUOUS
10
1.28474
20
0.565945
11
1.28474
21
0.49311
0
LINE
8
BLACK
6
CONTINUOUS
10
1.28474
20
0.49311
11
1.41506
21
0.49311
0
LINE
8
BLACK
6
CONTINUOUS
10
1.41506
20
0.49311
11
1.41506
21
0.565945
0
LINE
8
BLACK
6
CONTINUOUS
10
1.41506
20
0.565945
11
1.28474
21
0.565945
0
LINE
8
BLACK
6
CONTINUOUS
10
1.3753
20
0.642717
11
1.3753
21
0.569882
0
LINE
8
BLACK
6
CONTINUOUS
10
1.3753
20
0.569882
11
1.50561
21
0.569882
0
LINE
8
BLACK
6
CONTINUOUS
10
1.50561
20
0.569882
11
1.50561
21
0.642717
0
LINE
8
BLACK
6
CONTINUOUS
10
1.50561
20
0.642717
11
1.3753
21
0.642717
0
LINE
8
BLACK
6
CONTINUOUS
10
0.615157
20
0.629626
11
0.615853
21
0.629338
0
LINE
8
BLACK
6
CONTINUOUS
10
0.615853
20
0.629338
11
0.616142
21
0.628642
0
LINE
8
BLACK
6
CONTINUOUS
10
0.616142
20
0.628642
11
0.616142
21
0.496358
0
LINE
8
BLACK
6
CONTINUOUS
10
0.616142
20
0.496358
11
0.615853
21
0.495662
0
LINE
8
BLACK
6
CONTINUOUS
10
0.615853
20
0.495662
11
0.615157
21
0.495374
0
LINE
8
BLACK
6
CONTINUOUS
10
0.615157
20
0.495374
11
0.540354
21
0.495374
0
LINE
8
BLACK
6
CONTINUOUS
10
0.540354
20
0.495374
11
0.539658
21
0.495662
0
LINE
8
BLACK
6
CONTINUOUS
10
0.539658
20
0.495662
11
0.53937
21
0.496358
0
LINE
8
BLACK
6
CONTINUOUS
10
0.53937
20
0.496358
11
0.53937
21
0.628642
0
LINE
8
BLACK
6
CONTINUOUS
10
0.53937
20
0.628642
11
0.539658
21
0.629338
0
LINE
8
BLACK
6
CONTINUOUS
10
0.539658
20
0.629338
11
0.540354
21
0.629626
0
LINE
8
BLACK
6
CONTINUOUS
10
0.540354
20
0.629626
11
0.615157
21
0.629626
0
LINE
8
BLACK
6
CONTINUOUS
10
0.541339
20
0.627657
11
0.541339
21
0.497343
0
LINE
8
BLACK
6
CONTINUOUS
10
0.541339
20
0.497343
11
0.614173
21
0.497343
0
LINE
8
BLACK
6
CONTINUOUS
10
0.614173
20
0.497343
11
0.614173
21
0.627657
0
LINE
8
BLACK
6
CONTINUOUS
10
0.614173
20
0.627657
11
0.541339
21
0.627657
0
LINE
8
BLACK
6
CONTINUOUS
10
0.716535
20
0.629626
11
0.717231
21
0.629338
0
LINE
8
BLACK
6
CONTINUOUS
10
0.717231
20
0.629338
11
0.71752
21
0.628642
0
LINE
8
BLACK
6
CONTINUOUS
10
0.71752
20
0.628642
11
0.71752
21
0.496358
0
LINE
8
BLACK
6
CONTINUOUS
10
0.71752
20
0.496358
11
0.717231
21
0.495662
0
LINE
8
BLACK
6
CONTINUOUS
10
0.717231
20
0.495662
11
0.716535
21
0.495374
0
LINE
8
BLACK
6
CONTINUOUS
10
0.716535
20
0.495374
11
0.641732
21
0.495374
0
LINE
8
BLACK
6
CONTINUOUS
10
0.641732
20
0.495374
11
0.641036
21
0.495662
0
LINE
8
BLACK
6
CONTINUOUS
10
0.641036
20
0.495662
11
0.640748
21
0.496358
0
LINE
8
BLACK
6
CONTINUOUS
10
0.640748
20
0.496358
11
0.640748
21
0.628642
0
LINE
8
BLACK
6
CONTINUOUS
10
0.640748
20
0.628642
11
0.641036
21
0.629338
0
LINE
8
BLACK
6
CONTINUOUS
10
0.641036
20
0.629338
11
0.641732
21
0.629626
0
LINE
8
BLACK
6
CONTINUOUS
10
0.641732
20
0.629626
11
0.716535
21
0.629626
0
LINE
8
BLACK
6
CONTINUOUS
10
0.642717
20
0.627657
11
0.642717
21
0.497343
0
LINE
8
BLACK
6
CONTINUOUS
10
0.642717
20
0.497343
11
0.715551
21
0.497343
0
LINE
8
BLACK
6
CONTINUOUS
10
0.715551
20
0.497343
11
0.715551
21
0.627657
0
LINE
8
BLACK
6
CONTINUOUS
10
0.715551
20
0.627657
11
0.642717
21
0.627657
0
LINE
8
BLACK
6
CONTINUOUS
10
0.825787
20
0.629626
11
0.826483
21
0.629338
0
LINE
8
BLACK
6
CONTINUOUS
10
0.826483
20
0.629338
11
0.826772
21
0.628642
0
LINE
8
BLACK
6
CONTINUOUS
10
0.826772
20
0.628642
11
0.826772
21
0.496358
0
LINE
8
BLACK
6
CONTINUOUS
10
0.826772
20
0.496358
11
0.826483
21
0.495662
0
LINE
8
BLACK
6
CONTINUOUS
10
0.826483
20
0.495662
11
0.825787
21
0.495374
0
LINE
8
BLACK
6
CONTINUOUS
10
0.825787
20
0.495374
11
0.750984
21
0.495374
0
LINE
8
BLACK
6
CONTINUOUS
10
0.750984
20
0.495374
11
0.750288
21
0.495662
0
LINE
8
BLACK
6
CONTINUOUS
10
0.750288
20
0.495662
11
0.75
21
0.496358
0
LINE
8
BLACK
6
CONTINUOUS
10
0.75
20
0.496358
11
0.75
21
0.628642
0
LINE
8
BLACK
6
CONTINUOUS
10
0.75
20
0.628642
11
0.750288
21
0.629338
0
LINE
8
BLACK
6
CONTINUOUS
10
0.750288
20
0.629338
11
0.750984
21
0.629626
0
LINE
8
BLACK
6
CONTINUOUS
10
0.750984
20
0.629626
11
0.825787
21
0.629626
0
LINE
8
BLACK
6
CONTINUOUS
10
0.751969
20
0.627657
11
0.751969
21
0.497343
0
LINE
8
BLACK
6
CONTINUOUS
10
0.751969
20
0.497343
11
0.824803
21
0.497343
0
LINE
8
BLACK
6
CONTINUOUS
10
0.824803
20
0.497343
11
0.824803
21
0.627657
0
LINE
8
BLACK
6
CONTINUOUS
10
0.824803
20
0.627657
11
0.751969
21
0.627657
0
LINE
8
BLACK
6
CONTINUOUS
10
1.74433
20
0.594291
11
1.74503
21
0.594003
0
LINE
8
BLACK
6
CONTINUOUS
10
1.74503
20
0.594003
11
1.74531
21
0.593307
0
LINE
8
BLACK
6
CONTINUOUS
10
1.74531
20
0.593307
11
1.74531
21
0.506693
0
LINE
8
BLACK
6
CONTINUOUS
10
1.74531
20
0.506693
11
1.74503
21
0.505997
0
LINE
8
BLACK
6
CONTINUOUS
10
1.74503
20
0.505997
11
1.74433
21
0.505709
0
LINE
8
BLACK
6
CONTINUOUS
10
1.74433
20
0.505709
11
1.53567
21
0.505709
0
LINE
8
BLACK
6
CONTINUOUS
10
1.53567
20
0.505709
11
1.53497
21
0.505997
0
LINE
8
BLACK
6
CONTINUOUS
10
1.53497
20
0.505997
11
1.53469
21
0.506693
0
LINE
8
BLACK
6
CONTINUOUS
10
1.53469
20
0.506693
11
1.53469
21
0.593307
0
LINE
8
BLACK
6
CONTINUOUS
10
1.53469
20
0.593307
11
1.53497
21
0.594003
0
LINE
8
BLACK
6
CONTINUOUS
10
1.53497
20
0.594003
11
1.53567
21
0.594291
0
LINE
8
BLACK
6
CONTINUOUS
10
1.53567
20
0.594291
11
1.74433
21
0.594291
0
LINE
8
BLACK
6
CONTINUOUS
10
1.53665
20
0.592323
11
1.53665
21
0.507677
0
LINE
8
BLACK
6
CONTINUOUS
10
1.53665
20
0.507677
11
1.74335
21
0.507677
0
LINE
8
BLACK
6
CONTINUOUS
10
1.74335
20
0.507677
11
1.74335
21
0.592323
0
LINE
8
BLACK
6
CONTINUOUS
10
1.74335
20
0.592323
11
1.53665
21
0.592323
0
LINE
8
BLACK
6
CONTINUOUS
10
1.46289
20
0.993504
11
1.46359
21
0.993216
0
LINE
8
BLACK
6
CONTINUOUS
10
1.46359
20
0.993216
11
1.46388
21
0.99252
0
LINE
8
BLACK
6
CONTINUOUS
10
1.46388
20
0.99252
11
1.46388
21
0.665748
0
LINE
8
BLACK
6
CONTINUOUS
10
1.46388
20
0.665748
11
1.46359
21
0.665052
0
LINE
8
BLACK
6
CONTINUOUS
10
1.46359
20
0.665052
11
1.46289
21
0.664764
0
LINE
8
BLACK
6
CONTINUOUS
10
1.46289
20
0.664764
11
1.15974
21
0.664764
0
LINE
8
BLACK
6
CONTINUOUS
10
1.15974
20
0.664764
11
1.15905
21
0.665052
0
LINE
8
BLACK
6
CONTINUOUS
10
1.15905
20
0.665052
11
1.15876
21
0.665748
0
LINE
8
BLACK
6
CONTINUOUS
10
1.15876
20
0.665748
11
1.15876
21
0.99252
0
LINE
8
BLACK
6
CONTINUOUS
10
1.15876
20
0.99252
11
1.15905
21
0.993216
0
LINE
8
BLACK
6
CONTINUOUS
10
1.15905
20
0.993216
11
1.15974
21
0.993504
0
LINE
8
BLACK
6
CONTINUOUS
10
1.15974
20
0.993504
11
1.46289
21
0.993504
0
LINE
8
BLACK
6
CONTINUOUS
10
1.16073
20
0.991535
11
1.16073
21
0.666732
0
LINE
8
BLACK
6
CONTINUOUS
10
1.16073
20
0.666732
11
1.46191
21
0.666732
0
LINE
8
BLACK
6
CONTINUOUS
10
1.46191
20
0.666732
11
1.46191
21
0.991535
0
LINE
8
BLACK
6
CONTINUOUS
10
1.46191
20
0.991535
11
1.16073
21
0.991535
0
LINE
8
BLACK
6
CONTINUOUS
10
1.63071
20
0.750591
11
1.6314
21
0.750302
0
LINE
8
BLACK
6
CONTINUOUS
10
1.6314
20
0.750302
11
1.63169
21
0.749606
0
LINE
8
BLACK
6
CONTINUOUS
10
1.63169
20
0.749606
11
1.63169
21
0.672441
0
LINE
8
BLACK
6
CONTINUOUS
10
1.63169
20
0.672441
11
1.6314
21
0.671745
0
LINE
8
BLACK
6
CONTINUOUS
10
1.6314
20
0.671745
11
1.63071
21
0.671457
0
LINE
8
BLACK
6
CONTINUOUS
10
1.63071
20
0.671457
11
1.49685
21
0.671457
0
LINE
8
BLACK
6
CONTINUOUS
10
1.49685
20
0.671457
11
1.49615
21
0.671745
0
LINE
8
BLACK
6
CONTINUOUS
10
1.49615
20
0.671745
11
1.49587
21
0.672441
0
LINE
8
BLACK
6
CONTINUOUS
10
1.49587
20
0.672441
11
1.49587
21
0.749606
0
LINE
8
BLACK
6
CONTINUOUS
10
1.49587
20
0.749606
11
1.49615
21
0.750302
0
LINE
8
BLACK
6
CONTINUOUS
10
1.49615
20
0.750302
11
1.49685
21
0.750591
0
LINE
8
BLACK
6
CONTINUOUS
10
1.49685
20
0.750591
11
1.63071
21
0.750591
0
LINE
8
BLACK
6
CONTINUOUS
10
1.49783
20
0.748622
11
1.49783
21
0.673425
0
LINE
8
BLACK
6
CONTINUOUS
10
1.49783
20
0.673425
11
1.62972
21
0.673425
0
LINE
8
BLACK
6
CONTINUOUS
10
1.62972
20
0.673425
11
1.62972
21
0.748622
0
LINE
8
BLACK
6
CONTINUOUS
10
1.62972
20
0.748622
11
1.49783
21
0.748622
0
LINE
8
BLACK
6
CONTINUOUS
10
1.7128
20
0.841535
11
1.71349
21
0.841247
0
LINE
8
BLACK
6
CONTINUOUS
10
1.71349
20
0.841247
11
1.71378
21
0.840551
0
LINE
8
BLACK
6
CONTINUOUS
10
1.71378
20
0.840551
11
1.71378
21
0.706693
0
LINE
8
BLACK
6
CONTINUOUS
10
1.71378
20
0.706693
11
1.71349
21
0.705997
0
LINE
8
BLACK
6
CONTINUOUS
10
1.71349
20
0.705997
11
1.7128
21
0.705709
0
LINE
8
BLACK
6
CONTINUOUS
10
1.7128
20
0.705709
11
1.63563
21
0.705709
0
LINE
8
BLACK
6
CONTINUOUS
10
1.63563
20
0.705709
11
1.63493
21
0.705997
0
LINE
8
BLACK
6
CONTINUOUS
10
1.63493
20
0.705997
11
1.63465
21
0.706693
0
LINE
8
BLACK
6
CONTINUOUS
10
1.63465
20
0.706693
11
1.63465
21
0.840551
0
LINE
8
BLACK
6
CONTINUOUS
10
1.63465
20
0.840551
11
1.63493
21
0.841247
0
LINE
8
BLACK
6
CONTINUOUS
10
1.63493
20
0.841247
11
1.63563
21
0.841535
0
LINE
8
BLACK
6
CONTINUOUS
10
1.63563
20
0.841535
11
1.7128
21
0.841535
0
LINE
8
BLACK
6
CONTINUOUS
10
1.63661
20
0.839567
11
1.63661
21
0.707677
0
LINE
8
BLACK
6
CONTINUOUS
10
1.63661
20
0.707677
11
1.71181
21
0.707677
0
LINE
8
BLACK
6
CONTINUOUS
10
1.71181
20
0.707677
11
1.71181
21
0.839567
0
LINE
8
BLACK
6
CONTINUOUS
10
1.71181
20
0.839567
11
1.63661
21
0.839567
0
LINE
8
BLACK
6
CONTINUOUS
10
1.63071
20
0.841142
11
1.6314
21
0.840853
0
LINE
8
BLACK
6
CONTINUOUS
10
1.6314
20
0.840853
11
1.63169
21
0.840157
0
LINE
8
BLACK
6
CONTINUOUS
10
1.63169
20
0.840157
11
1.63169
21
0.762992
0
LINE
8
BLACK
6
CONTINUOUS
10
1.63169
20
0.762992
11
1.6314
21
0.762296
0
LINE
8
BLACK
6
CONTINUOUS
10
1.6314
20
0.762296
11
1.63071
21
0.762008
0
LINE
8
BLACK
6
CONTINUOUS
10
1.63071
20
0.762008
11
1.49685
21
0.762008
0
LINE
8
BLACK
6
CONTINUOUS
10
1.49685
20
0.762008
11
1.49615
21
0.762296
0
LINE
8
BLACK
6
CONTINUOUS
10
1.49615
20
0.762296
11
1.49587
21
0.762992
0
LINE
8
BLACK
6
CONTINUOUS
10
1.49587
20
0.762992
11
1.49587
21
0.840157
0
LINE
8
BLACK
6
CONTINUOUS
10
1.49587
20
0.840157
11
1.49615
21
0.840853
0
LINE
8
BLACK
6
CONTINUOUS
10
1.49615
20
0.840853
11
1.49685
21
0.841142
0
LINE
8
BLACK
6
CONTINUOUS
10
1.49685
20
0.841142
11
1.63071
21
0.841142
0
LINE
8
BLACK
6
CONTINUOUS
10
1.49783
20
0.839173
11
1.49783
21
0.763976
0
LINE
8
BLACK
6
CONTINUOUS
10
1.49783
20
0.763976
11
1.62972
21
0.763976
0
LINE
8
BLACK
6
CONTINUOUS
10
1.62972
20
0.763976
11
1.62972
21
0.839173
0
LINE
8
BLACK
6
CONTINUOUS
10
1.62972
20
0.839173
11
1.49783
21
0.839173
0
LINE
8
BLACK
6
CONTINUOUS
10
2.02493
20
0.899567
11
2.02563
21
0.899279
0
LINE
8
BLACK
6
CONTINUOUS
10
2.02563
20
0.899279
11
2.02591
21
0.898583
0
LINE
8
BLACK
6
CONTINUOUS
10
2.02591
20
0.898583
11
2.02591
21
0.821417
0
LINE
8
BLACK
6
CONTINUOUS
10
2.02591
20
0.821417
11
2.02563
21
0.820721
0
LINE
8
BLACK
6
CONTINUOUS
10
2.02563
20
0.820721
11
2.02493
21
0.820433
0
LINE
8
BLACK
6
CONTINUOUS
10
2.02493
20
0.820433
11
1.89107
21
0.820433
0
LINE
8
BLACK
6
CONTINUOUS
10
1.89107
20
0.820433
11
1.89037
21
0.820721
0
LINE
8
BLACK
6
CONTINUOUS
10
1.89037
20
0.820721
11
1.89009
21
0.821417
0
LINE
8
BLACK
6
CONTINUOUS
10
1.89009
20
0.821417
11
1.89009
21
0.898583
0
LINE
8
BLACK
6
CONTINUOUS
10
1.89009
20
0.898583
11
1.89037
21
0.899279
0
LINE
8
BLACK
6
CONTINUOUS
10
1.89037
20
0.899279
11
1.89107
21
0.899567
0
LINE
8
BLACK
6
CONTINUOUS
10
1.89107
20
0.899567
11
2.02493
21
0.899567
0
LINE
8
BLACK
6
CONTINUOUS
10
1.89206
20
0.897598
11
1.89206
21
0.822402
0
LINE
8
BLACK
6
CONTINUOUS
10
1.89206
20
0.822402
11
2.02394
21
0.822402
0
LINE
8
BLACK
6
CONTINUOUS
10
2.02394
20
0.822402
11
2.02394
21
0.897598
0
LINE
8
BLACK
6
CONTINUOUS
10
2.02394
20
0.897598
11
1.89206
21
0.897598
0
LINE
8
BLACK
6
CONTINUOUS
10
1.87106
20
1.1939
11
1.87176
21
1.19361
0
LINE
8
BLACK
6
CONTINUOUS
10
1.87176
20
1.19361
11
1.87205
21
1.19291
0
LINE
8
BLACK
6
CONTINUOUS
10
1.87205
20
1.19291
11
1.87205
21
0.858268
0
LINE
8
BLACK
6
CONTINUOUS
10
1.87205
20
0.858268
11
1.87176
21
0.857572
0
LINE
8
BLACK
6
CONTINUOUS
10
1.87176
20
0.857572
11
1.87106
21
0.857283
0
LINE
8
BLACK
6
CONTINUOUS
10
1.87106
20
0.857283
11
1.5561
21
0.857283
0
LINE
8
BLACK
6
CONTINUOUS
10
1.5561
20
0.857283
11
1.55541
21
0.857572
0
LINE
8
BLACK
6
CONTINUOUS
10
1.55541
20
0.857572
11
1.55512
21
0.858268
0
LINE
8
BLACK
6
CONTINUOUS
10
1.55512
20
0.858268
11
1.55512
21
1.19291
0
LINE
8
BLACK
6
CONTINUOUS
10
1.55512
20
1.19291
11
1.55541
21
1.19361
0
LINE
8
BLACK
6
CONTINUOUS
10
1.55541
20
1.19361
11
1.5561
21
1.1939
0
LINE
8
BLACK
6
CONTINUOUS
10
1.5561
20
1.1939
11
1.87106
21
1.1939
0
LINE
8
BLACK
6
CONTINUOUS
10
1.55709
20
1.19193
11
1.55709
21
0.859252
0
LINE
8
BLACK
6
CONTINUOUS
10
1.55709
20
0.859252
11
1.87008
21
0.859252
0
LINE
8
BLACK
6
CONTINUOUS
10
1.87008
20
0.859252
11
1.87008
21
1.19193
0
LINE
8
BLACK
6
CONTINUOUS
10
1.87008
20
1.19193
11
1.55709
21
1.19193
0
LINE
8
BLACK
6
CONTINUOUS
10
2.02493
20
1.00957
11
2.02563
21
1.00928
0
LINE
8
BLACK
6
CONTINUOUS
10
2.02563
20
1.00928
11
2.02591
21
1.00858
0
LINE
8
BLACK
6
CONTINUOUS
10
2.02591
20
1.00858
11
2.02591
21
0.931417
0
LINE
8
BLACK
6
CONTINUOUS
10
2.02591
20
0.931417
11
2.02563
21
0.930721
0
LINE
8
BLACK
6
CONTINUOUS
10
2.02563
20
0.930721
11
2.02493
21
0.930433
0
LINE
8
BLACK
6
CONTINUOUS
10
2.02493
20
0.930433
11
1.89107
21
0.930433
0
LINE
8
BLACK
6
CONTINUOUS
10
1.89107
20
0.930433
11
1.89037
21
0.930721
0
LINE
8
BLACK
6
CONTINUOUS
10
1.89037
20
0.930721
11
1.89009
21
0.931417
0
LINE
8
BLACK
6
CONTINUOUS
10
1.89009
20
0.931417
11
1.89009
21
1.00858
0
LINE
8
BLACK
6
CONTINUOUS
10
1.89009
20
1.00858
11
1.89037
21
1.00928
0
LINE
8
BLACK
6
CONTINUOUS
10
1.89037
20
1.00928
11
1.89107
21
1.00957
0
LINE
8
BLACK
6
CONTINUOUS
10
1.89107
20
1.00957
11
2.02493
21
1.00957
0
LINE
8
BLACK
6
CONTINUOUS
10
1.89206
20
1.0076
11
1.89206
21
0.932402
0
LINE
8
BLACK
6
CONTINUOUS
10
1.89206
20
0.932402
11
2.02394
21
0.932402
0
LINE
8
BLACK
6
CONTINUOUS
10
2.02394
20
0.932402
11
2.02394
21
1.0076
0
LINE
8
BLACK
6
CONTINUOUS
10
2.02394
20
1.0076
11
1.89206
21
1.0076
0
LINE
8
BLACK
6
CONTINUOUS
10
1.5315
20
1.10453
11
1.53219
21
1.10424
0
LINE
8
BLACK
6
CONTINUOUS
10
1.53219
20
1.10424
11
1.53248
21
1.10354
0
LINE
8
BLACK
6
CONTINUOUS
10
1.53248
20
1.10354
11
1.53248
21
1.02638
0
LINE
8
BLACK
6
CONTINUOUS
10
1.53248
20
1.02638
11
1.53219
21
1.02568
0
LINE
8
BLACK
6
CONTINUOUS
10
1.53219
20
1.02568
11
1.5315
21
1.02539
0
LINE
8
BLACK
6
CONTINUOUS
10
1.5315
20
1.02539
11
1.39764
21
1.02539
0
LINE
8
BLACK
6
CONTINUOUS
10
1.39764
20
1.02539
11
1.39694
21
1.02568
0
LINE
8
BLACK
6
CONTINUOUS
10
1.39694
20
1.02568
11
1.39665
21
1.02638
0
LINE
8
BLACK
6
CONTINUOUS
10
1.39665
20
1.02638
11
1.39665
21
1.10354
0
LINE
8
BLACK
6
CONTINUOUS
10
1.39665
20
1.10354
11
1.39694
21
1.10424
0
LINE
8
BLACK
6
CONTINUOUS
10
1.39694
20
1.10424
11
1.39764
21
1.10453
0
LINE
8
BLACK
6
CONTINUOUS
10
1.39764
20
1.10453
11
1.5315
21
1.10453
0
LINE
8
BLACK
6
CONTINUOUS
10
1.39862
20
1.10256
11
1.39862
21
1.02736
0
LINE
8
BLACK
6
CONTINUOUS
10
1.39862
20
1.02736
11
1.53051
21
1.02736
0
LINE
8
BLACK
6
CONTINUOUS
10
1.53051
20
1.02736
11
1.53051
21
1.10256
0
LINE
8
BLACK
6
CONTINUOUS
10
1.53051
20
1.10256
11
1.39862
21
1.10256
0
LINE
8
BLACK
6
CONTINUOUS
10
1.16893
20
1.11043
11
1.16963
21
1.11014
0
LINE
8
BLACK
6
CONTINUOUS
10
1.16963
20
1.11014
11
1.16991
21
1.10945
0
LINE
8
BLACK
6
CONTINUOUS
10
1.16991
20
1.10945
11
1.16991
21
1.03228
0
LINE
8
BLACK
6
CONTINUOUS
10
1.16991
20
1.03228
11
1.16963
21
1.03159
0
LINE
8
BLACK
6
CONTINUOUS
10
1.16963
20
1.03159
11
1.16893
21
1.0313
0
LINE
8
BLACK
6
CONTINUOUS
10
1.16893
20
1.0313
11
1.03507
21
1.0313
0
LINE
8
BLACK
6
CONTINUOUS
10
1.03507
20
1.0313
11
1.03437
21
1.03159
0
LINE
8
BLACK
6
CONTINUOUS
10
1.03437
20
1.03159
11
1.03409
21
1.03228
0
LINE
8
BLACK
6
CONTINUOUS
10
1.03409
20
1.03228
11
1.03409
21
1.10945
0
LINE
8
BLACK
6
CONTINUOUS
10
1.03409
20
1.10945
11
1.03437
21
1.11014
0
LINE
8
BLACK
6
CONTINUOUS
10
1.03437
20
1.11014
11
1.03507
21
1.11043
0
LINE
8
BLACK
6
CONTINUOUS
10
1.03507
20
1.11043
11
1.16893
21
1.11043
0
LINE
8
BLACK
6
CONTINUOUS
10
1.03606
20
1.10846
11
1.03606
21
1.03327
0
LINE
8
BLACK
6
CONTINUOUS
10
1.03606
20
1.03327
11
1.16794
21
1.03327
0
LINE
8
BLACK
6
CONTINUOUS
10
1.16794
20
1.03327
11
1.16794
21
1.10846
0
LINE
8
BLACK
6
CONTINUOUS
10
1.16794
20
1.10846
11
1.03606
21
1.10846
0
LINE
8
BLACK
6
CONTINUOUS
10
1.31181
20
1.11102
11
1.31251
21
1.11074
0
LINE
8
BLACK
6
CONTINUOUS
10
1.31251
20
1.11074
11
1.3128
21
1.11004
0
LINE
8
BLACK
6
CONTINUOUS
10
1.3128
20
1.11004
11
1.3128
21
1.03287
0
LINE
8
BLACK
6
CONTINUOUS
10
1.3128
20
1.03287
11
1.31251
21
1.03218
0
LINE
8
BLACK
6
CONTINUOUS
10
1.31251
20
1.03218
11
1.31181
21
1.03189
0
LINE
8
BLACK
6
CONTINUOUS
10
1.31181
20
1.03189
11
1.17795
21
1.03189
0
LINE
8
BLACK
6
CONTINUOUS
10
1.17795
20
1.03189
11
1.17726
21
1.03218
0
LINE
8
BLACK
6
CONTINUOUS
10
1.17726
20
1.03218
11
1.17697
21
1.03287
0
LINE
8
BLACK
6
CONTINUOUS
10
1.17697
20
1.03287
11
1.17697
21
1.11004
0
LINE
8
BLACK
6
CONTINUOUS
10
1.17697
20
1.11004
11
1.17726
21
1.11074
0
LINE
8
BLACK
6
CONTINUOUS
10
1.17726
20
1.11074
11
1.17795
21
1.11102
0
LINE
8
BLACK
6
CONTINUOUS
10
1.17795
20
1.11102
11
1.31181
21
1.11102
0
LINE
8
BLACK
6
CONTINUOUS
10
1.17894
20
1.10906
11
1.17894
21
1.03386
0
LINE
8
BLACK
6
CONTINUOUS
10
1.17894
20
1.03386
11
1.31083
21
1.03386
0
LINE
8
BLACK
6
CONTINUOUS
10
1.31083
20
1.03386
11
1.31083
21
1.10906
0
LINE
8
BLACK
6
CONTINUOUS
10
1.31083
20
1.10906
11
1.17894
21
1.10906
0
LINE
8
BLACK
6
CONTINUOUS
10
1.94065
20
1.29429
11
1.94135
21
1.294
0
LINE
8
BLACK
6
CONTINUOUS
10
1.94135
20
1.294
11
1.94163
21
1.29331
0
LINE
8
BLACK
6
CONTINUOUS
10
1.94163
20
1.29331
11
1.94163
21
1.2185
0
LINE
8
BLACK
6
CONTINUOUS
10
1.94163
20
1.2185
11
1.94135
21
1.21781
0
LINE
8
BLACK
6
CONTINUOUS
10
1.94135
20
1.21781
11
1.94065
21
1.21752
0
LINE
8
BLACK
6
CONTINUOUS
10
1.94065
20
1.21752
11
1.80837
21
1.21752
0
LINE
8
BLACK
6
CONTINUOUS
10
1.80837
20
1.21752
11
1.80767
21
1.21781
0
LINE
8
BLACK
6
CONTINUOUS
10
1.80767
20
1.21781
11
1.80738
21
1.2185
0
LINE
8
BLACK
6
CONTINUOUS
10
1.80738
20
1.2185
11
1.80738
21
1.29331
0
LINE
8
BLACK
6
CONTINUOUS
10
1.80738
20
1.29331
11
1.80767
21
1.294
0
LINE
8
BLACK
6
CONTINUOUS
10
1.80767
20
1.294
11
1.80837
21
1.29429
0
LINE
8
BLACK
6
CONTINUOUS
10
1.80837
20
1.29429
11
1.94065
21
1.29429
0
LINE
8
BLACK
6
CONTINUOUS
10
1.80935
20
1.29232
11
1.80935
21
1.21949
0
LINE
8
BLACK
6
CONTINUOUS
10
1.80935
20
1.21949
11
1.93967
21
1.21949
0
LINE
8
BLACK
6
CONTINUOUS
10
1.93967
20
1.21949
11
1.93967
21
1.29232
0
LINE
8
BLACK
6
CONTINUOUS
10
1.93967
20
1.29232
11
1.80935
21
1.29232
  0
ENDSEC
  0
EOF
