  0
SECTION
  2
HEADER
  9
$ANGBASE
  50
0.0
  9
$ANGDIR
  70
1
  9
$MEASUREMENT
  70
0
  0
ENDSEC
  0
SECTION
  2
TABLES
  0
TABLE
  2
LTYPE
  70
4
  0
LTYPE
  5
40F
  2
CONTINUOUS
  70
0
  3
Solid line
  72
65
  73
0
  40
0.0
  0
LTYPE
  5
410
  2
DASHDOT
 70
0
  3
Dash Dot ____ _ ____ _
 72
65
 73
4
 40
2.0
 49
1.25
 49
-0.25
 49
0.25
 49
-0.25
  0
LTYPE
  5
411
  2
DASHED
 70
0
  3
Dashed __ __ __ __ __
 72
65
 73
2
 40
0.75
 49
0.5
 49
-0.25
  0
LTYPE
  5
43B
  2
DOTTED
 70
0
  3
Dotted .  .  .  .
 72
65
 73
2
 40
0.2
 49
0.0
 49
-0.2
  0
ENDTAB
  0
TABLE
  2
STYLE
  70
4
  0
STYLE
  2
KICAD
  70
0
  40
0
  41
1
  42
1
  50
0
  71
0
  3
isocp.shx
  0
STYLE
  2
KICADB
  70
0
  40
0
  41
1
  42
1
  50
0
  71
0
  3
isocp.shx
  0
STYLE
  2
KICADI
  70
0
  40
0
  41
1
  42
1
  50
15
  71
0
  3
isocp.shx
  0
STYLE
  2
KICADBI
  70
0
  40
0
  41
1
  42
1
  50
15
  71
0
  3
isocp.shx
  0
ENDTAB
  0
TABLE
  2
LAYER
  70
1
  0
LAYER
  2
BLACK
  70
0
  62
7
  6
CONTINUOUS
  0
ENDTAB
  0
ENDSEC
  0
SECTION
  2
ENTITIES
0
LINE
8
BLACK
6
CONTINUOUS
10
0.305444
20
0.525192
11
0.319373
21
0.522826
0
LINE
8
BLACK
6
CONTINUOUS
10
0.319373
20
0.522826
11
0.332949
21
0.518914
0
LINE
8
BLACK
6
CONTINUOUS
10
0.332949
20
0.518914
11
0.346001
21
0.513508
0
LINE
8
BLACK
6
CONTINUOUS
10
0.346001
20
0.513508
11
0.358366
21
0.506674
0
LINE
8
BLACK
6
CONTINUOUS
10
0.358366
20
0.506674
11
0.369888
21
0.498498
0
LINE
8
BLACK
6
CONTINUOUS
10
0.369888
20
0.498498
11
0.380423
21
0.489084
0
LINE
8
BLACK
6
CONTINUOUS
10
0.380423
20
0.489084
11
0.389837
21
0.47855
0
LINE
8
BLACK
6
CONTINUOUS
10
0.389837
20
0.47855
11
0.398012
21
0.467028
0
LINE
8
BLACK
6
CONTINUOUS
10
0.398012
20
0.467028
11
0.404846
21
0.454663
0
LINE
8
BLACK
6
CONTINUOUS
10
0.404846
20
0.454663
11
0.410253
21
0.44161
0
LINE
8
BLACK
6
CONTINUOUS
10
0.410253
20
0.44161
11
0.414164
21
0.428034
0
LINE
8
BLACK
6
CONTINUOUS
10
0.414164
20
0.428034
11
0.416531
21
0.414106
0
LINE
8
BLACK
6
CONTINUOUS
10
0.416531
20
0.414106
11
0.417323
21
0.4
0
LINE
8
BLACK
6
CONTINUOUS
10
0.417323
20
0.4
11
0.416531
21
0.385894
0
LINE
8
BLACK
6
CONTINUOUS
10
0.416531
20
0.385894
11
0.414164
21
0.371966
0
LINE
8
BLACK
6
CONTINUOUS
10
0.414164
20
0.371966
11
0.410253
21
0.35839
0
LINE
8
BLACK
6
CONTINUOUS
10
0.410253
20
0.35839
11
0.404846
21
0.345337
0
LINE
8
BLACK
6
CONTINUOUS
10
0.404846
20
0.345337
11
0.398012
21
0.332972
0
LINE
8
BLACK
6
CONTINUOUS
10
0.398012
20
0.332972
11
0.389837
21
0.32145
0
LINE
8
BLACK
6
CONTINUOUS
10
0.389837
20
0.32145
11
0.380423
21
0.310916
0
LINE
8
BLACK
6
CONTINUOUS
10
0.380423
20
0.310916
11
0.369888
21
0.301502
0
LINE
8
BLACK
6
CONTINUOUS
10
0.369888
20
0.301502
11
0.358366
21
0.293326
0
LINE
8
BLACK
6
CONTINUOUS
10
0.358366
20
0.293326
11
0.346001
21
0.286492
0
LINE
8
BLACK
6
CONTINUOUS
10
0.346001
20
0.286492
11
0.332949
21
0.281086
0
LINE
8
BLACK
6
CONTINUOUS
10
0.332949
20
0.281086
11
0.319373
21
0.277174
0
LINE
8
BLACK
6
CONTINUOUS
10
0.319373
20
0.277174
11
0.305444
21
0.274808
0
LINE
8
BLACK
6
CONTINUOUS
10
0.305444
20
0.274808
11
0.291339
21
0.274016
0
LINE
8
BLACK
6
CONTINUOUS
10
0.291339
20
0.274016
11
0.277233
21
0.274808
0
LINE
8
BLACK
6
CONTINUOUS
10
0.277233
20
0.274808
11
0.263304
21
0.277174
0
LINE
8
BLACK
6
CONTINUOUS
10
0.263304
20
0.277174
11
0.249729
21
0.281086
0
LINE
8
BLACK
6
CONTINUOUS
10
0.249729
20
0.281086
11
0.236676
21
0.286492
0
LINE
8
BLACK
6
CONTINUOUS
10
0.236676
20
0.286492
11
0.224311
21
0.293326
0
LINE
8
BLACK
6
CONTINUOUS
10
0.224311
20
0.293326
11
0.212789
21
0.301502
0
LINE
8
BLACK
6
CONTINUOUS
10
0.212789
20
0.301502
11
0.202254
21
0.310916
0
LINE
8
BLACK
6
CONTINUOUS
10
0.202254
20
0.310916
11
0.19284
21
0.32145
0
LINE
8
BLACK
6
CONTINUOUS
10
0.19284
20
0.32145
11
0.184665
21
0.332972
0
LINE
8
BLACK
6
CONTINUOUS
10
0.184665
20
0.332972
11
0.177831
21
0.345337
0
LINE
8
BLACK
6
CONTINUOUS
10
0.177831
20
0.345337
11
0.172424
21
0.35839
0
LINE
8
BLACK
6
CONTINUOUS
10
0.172424
20
0.35839
11
0.168513
21
0.371966
0
LINE
8
BLACK
6
CONTINUOUS
10
0.168513
20
0.371966
11
0.166146
21
0.385894
0
LINE
8
BLACK
6
CONTINUOUS
10
0.166146
20
0.385894
11
0.165354
21
0.4
0
LINE
8
BLACK
6
CONTINUOUS
10
0.165354
20
0.4
11
0.166146
21
0.414106
0
LINE
8
BLACK
6
CONTINUOUS
10
0.166146
20
0.414106
11
0.168513
21
0.428034
0
LINE
8
BLACK
6
CONTINUOUS
10
0.168513
20
0.428034
11
0.172424
21
0.44161
0
LINE
8
BLACK
6
CONTINUOUS
10
0.172424
20
0.44161
11
0.177831
21
0.454663
0
LINE
8
BLACK
6
CONTINUOUS
10
0.177831
20
0.454663
11
0.184665
21
0.467028
0
LINE
8
BLACK
6
CONTINUOUS
10
0.184665
20
0.467028
11
0.19284
21
0.47855
0
LINE
8
BLACK
6
CONTINUOUS
10
0.19284
20
0.47855
11
0.202254
21
0.489084
0
LINE
8
BLACK
6
CONTINUOUS
10
0.202254
20
0.489084
11
0.212789
21
0.498498
0
LINE
8
BLACK
6
CONTINUOUS
10
0.212789
20
0.498498
11
0.224311
21
0.506674
0
LINE
8
BLACK
6
CONTINUOUS
10
0.224311
20
0.506674
11
0.236676
21
0.513508
0
LINE
8
BLACK
6
CONTINUOUS
10
0.236676
20
0.513508
11
0.249729
21
0.518914
0
LINE
8
BLACK
6
CONTINUOUS
10
0.249729
20
0.518914
11
0.263304
21
0.522826
0
LINE
8
BLACK
6
CONTINUOUS
10
0.263304
20
0.522826
11
0.277233
21
0.525192
0
LINE
8
BLACK
6
CONTINUOUS
10
0.277233
20
0.525192
11
0.291339
21
0.525984
0
LINE
8
BLACK
6
CONTINUOUS
10
0.291339
20
0.525984
11
0.305444
21
0.525192
0
LINE
8
BLACK
6
CONTINUOUS
10
1.90544
20
0.525192
11
1.91937
21
0.522826
0
LINE
8
BLACK
6
CONTINUOUS
10
1.91937
20
0.522826
11
1.93295
21
0.518914
0
LINE
8
BLACK
6
CONTINUOUS
10
1.93295
20
0.518914
11
1.946
21
0.513508
0
LINE
8
BLACK
6
CONTINUOUS
10
1.946
20
0.513508
11
1.95837
21
0.506674
0
LINE
8
BLACK
6
CONTINUOUS
10
1.95837
20
0.506674
11
1.96989
21
0.498498
0
LINE
8
BLACK
6
CONTINUOUS
10
1.96989
20
0.498498
11
1.98042
21
0.489084
0
LINE
8
BLACK
6
CONTINUOUS
10
1.98042
20
0.489084
11
1.98984
21
0.47855
0
LINE
8
BLACK
6
CONTINUOUS
10
1.98984
20
0.47855
11
1.99801
21
0.467028
0
LINE
8
BLACK
6
CONTINUOUS
10
1.99801
20
0.467028
11
2.00485
21
0.454663
0
LINE
8
BLACK
6
CONTINUOUS
10
2.00485
20
0.454663
11
2.01025
21
0.44161
0
LINE
8
BLACK
6
CONTINUOUS
10
2.01025
20
0.44161
11
2.01416
21
0.428034
0
LINE
8
BLACK
6
CONTINUOUS
10
2.01416
20
0.428034
11
2.01653
21
0.414106
0
LINE
8
BLACK
6
CONTINUOUS
10
2.01653
20
0.414106
11
2.01732
21
0.4
0
LINE
8
BLACK
6
CONTINUOUS
10
2.01732
20
0.4
11
2.01653
21
0.385894
0
LINE
8
BLACK
6
CONTINUOUS
10
2.01653
20
0.385894
11
2.01416
21
0.371966
0
LINE
8
BLACK
6
CONTINUOUS
10
2.01416
20
0.371966
11
2.01025
21
0.35839
0
LINE
8
BLACK
6
CONTINUOUS
10
2.01025
20
0.35839
11
2.00485
21
0.345337
0
LINE
8
BLACK
6
CONTINUOUS
10
2.00485
20
0.345337
11
1.99801
21
0.332972
0
LINE
8
BLACK
6
CONTINUOUS
10
1.99801
20
0.332972
11
1.98984
21
0.32145
0
LINE
8
BLACK
6
CONTINUOUS
10
1.98984
20
0.32145
11
1.98042
21
0.310916
0
LINE
8
BLACK
6
CONTINUOUS
10
1.98042
20
0.310916
11
1.96989
21
0.301502
0
LINE
8
BLACK
6
CONTINUOUS
10
1.96989
20
0.301502
11
1.95837
21
0.293326
0
LINE
8
BLACK
6
CONTINUOUS
10
1.95837
20
0.293326
11
1.946
21
0.286492
0
LINE
8
BLACK
6
CONTINUOUS
10
1.946
20
0.286492
11
1.93295
21
0.281086
0
LINE
8
BLACK
6
CONTINUOUS
10
1.93295
20
0.281086
11
1.91937
21
0.277174
0
LINE
8
BLACK
6
CONTINUOUS
10
1.91937
20
0.277174
11
1.90544
21
0.274808
0
LINE
8
BLACK
6
CONTINUOUS
10
1.90544
20
0.274808
11
1.89134
21
0.274016
0
LINE
8
BLACK
6
CONTINUOUS
10
1.89134
20
0.274016
11
1.87723
21
0.274808
0
LINE
8
BLACK
6
CONTINUOUS
10
1.87723
20
0.274808
11
1.8633
21
0.277174
0
LINE
8
BLACK
6
CONTINUOUS
10
1.8633
20
0.277174
11
1.84973
21
0.281086
0
LINE
8
BLACK
6
CONTINUOUS
10
1.84973
20
0.281086
11
1.83668
21
0.286492
0
LINE
8
BLACK
6
CONTINUOUS
10
1.83668
20
0.286492
11
1.82431
21
0.293326
0
LINE
8
BLACK
6
CONTINUOUS
10
1.82431
20
0.293326
11
1.81279
21
0.301502
0
LINE
8
BLACK
6
CONTINUOUS
10
1.81279
20
0.301502
11
1.80225
21
0.310916
0
LINE
8
BLACK
6
CONTINUOUS
10
1.80225
20
0.310916
11
1.79284
21
0.32145
0
LINE
8
BLACK
6
CONTINUOUS
10
1.79284
20
0.32145
11
1.78466
21
0.332972
0
LINE
8
BLACK
6
CONTINUOUS
10
1.78466
20
0.332972
11
1.77783
21
0.345337
0
LINE
8
BLACK
6
CONTINUOUS
10
1.77783
20
0.345337
11
1.77242
21
0.35839
0
LINE
8
BLACK
6
CONTINUOUS
10
1.77242
20
0.35839
11
1.76851
21
0.371966
0
LINE
8
BLACK
6
CONTINUOUS
10
1.76851
20
0.371966
11
1.76615
21
0.385894
0
LINE
8
BLACK
6
CONTINUOUS
10
1.76615
20
0.385894
11
1.76535
21
0.4
0
LINE
8
BLACK
6
CONTINUOUS
10
1.76535
20
0.4
11
1.76615
21
0.414106
0
LINE
8
BLACK
6
CONTINUOUS
10
1.76615
20
0.414106
11
1.76851
21
0.428034
0
LINE
8
BLACK
6
CONTINUOUS
10
1.76851
20
0.428034
11
1.77242
21
0.44161
0
LINE
8
BLACK
6
CONTINUOUS
10
1.77242
20
0.44161
11
1.77783
21
0.454663
0
LINE
8
BLACK
6
CONTINUOUS
10
1.77783
20
0.454663
11
1.78466
21
0.467028
0
LINE
8
BLACK
6
CONTINUOUS
10
1.78466
20
0.467028
11
1.79284
21
0.47855
0
LINE
8
BLACK
6
CONTINUOUS
10
1.79284
20
0.47855
11
1.80225
21
0.489084
0
LINE
8
BLACK
6
CONTINUOUS
10
1.80225
20
0.489084
11
1.81279
21
0.498498
0
LINE
8
BLACK
6
CONTINUOUS
10
1.81279
20
0.498498
11
1.82431
21
0.506674
0
LINE
8
BLACK
6
CONTINUOUS
10
1.82431
20
0.506674
11
1.83668
21
0.513508
0
LINE
8
BLACK
6
CONTINUOUS
10
1.83668
20
0.513508
11
1.84973
21
0.518914
0
LINE
8
BLACK
6
CONTINUOUS
10
1.84973
20
0.518914
11
1.8633
21
0.522826
0
LINE
8
BLACK
6
CONTINUOUS
10
1.8633
20
0.522826
11
1.87723
21
0.525192
0
LINE
8
BLACK
6
CONTINUOUS
10
1.87723
20
0.525192
11
1.89134
21
0.525984
0
LINE
8
BLACK
6
CONTINUOUS
10
1.89134
20
0.525984
11
1.90544
21
0.525192
0
LINE
8
BLACK
6
CONTINUOUS
10
0.612541
20
0.372905
11
0.615095
21
0.371198
0
LINE
8
BLACK
6
CONTINUOUS
10
0.615095
20
0.371198
11
0.616802
21
0.368643
0
LINE
8
BLACK
6
CONTINUOUS
10
0.616802
20
0.368643
11
0.617402
21
0.36563
0
LINE
8
BLACK
6
CONTINUOUS
10
0.617402
20
0.36563
11
0.617402
21
0.30563
0
LINE
8
BLACK
6
CONTINUOUS
10
0.617402
20
0.30563
11
0.616802
21
0.302617
0
LINE
8
BLACK
6
CONTINUOUS
10
0.616802
20
0.302617
11
0.615095
21
0.300062
0
LINE
8
BLACK
6
CONTINUOUS
10
0.615095
20
0.300062
11
0.612541
21
0.298355
0
LINE
8
BLACK
6
CONTINUOUS
10
0.612541
20
0.298355
11
0.609528
21
0.297756
0
LINE
8
BLACK
6
CONTINUOUS
10
0.609528
20
0.297756
11
0.549528
21
0.297756
0
LINE
8
BLACK
6
CONTINUOUS
10
0.549528
20
0.297756
11
0.546514
21
0.298355
0
LINE
8
BLACK
6
CONTINUOUS
10
0.546514
20
0.298355
11
0.54396
21
0.300062
0
LINE
8
BLACK
6
CONTINUOUS
10
0.54396
20
0.300062
11
0.542253
21
0.302617
0
LINE
8
BLACK
6
CONTINUOUS
10
0.542253
20
0.302617
11
0.541654
21
0.30563
0
LINE
8
BLACK
6
CONTINUOUS
10
0.541654
20
0.30563
11
0.541654
21
0.36563
0
LINE
8
BLACK
6
CONTINUOUS
10
0.541654
20
0.36563
11
0.542253
21
0.368643
0
LINE
8
BLACK
6
CONTINUOUS
10
0.542253
20
0.368643
11
0.54396
21
0.371198
0
LINE
8
BLACK
6
CONTINUOUS
10
0.54396
20
0.371198
11
0.546514
21
0.372905
0
LINE
8
BLACK
6
CONTINUOUS
10
0.546514
20
0.372905
11
0.549528
21
0.373504
0
LINE
8
BLACK
6
CONTINUOUS
10
0.549528
20
0.373504
11
0.609528
21
0.373504
0
LINE
8
BLACK
6
CONTINUOUS
10
0.609528
20
0.373504
11
0.612541
21
0.372905
0
LINE
8
BLACK
6
CONTINUOUS
10
0.712541
20
0.372905
11
0.715095
21
0.371198
0
LINE
8
BLACK
6
CONTINUOUS
10
0.715095
20
0.371198
11
0.716802
21
0.368643
0
LINE
8
BLACK
6
CONTINUOUS
10
0.716802
20
0.368643
11
0.717402
21
0.36563
0
LINE
8
BLACK
6
CONTINUOUS
10
0.717402
20
0.36563
11
0.717402
21
0.30563
0
LINE
8
BLACK
6
CONTINUOUS
10
0.717402
20
0.30563
11
0.716802
21
0.302617
0
LINE
8
BLACK
6
CONTINUOUS
10
0.716802
20
0.302617
11
0.715095
21
0.300062
0
LINE
8
BLACK
6
CONTINUOUS
10
0.715095
20
0.300062
11
0.712541
21
0.298355
0
LINE
8
BLACK
6
CONTINUOUS
10
0.712541
20
0.298355
11
0.709528
21
0.297756
0
LINE
8
BLACK
6
CONTINUOUS
10
0.709528
20
0.297756
11
0.649528
21
0.297756
0
LINE
8
BLACK
6
CONTINUOUS
10
0.649528
20
0.297756
11
0.646514
21
0.298355
0
LINE
8
BLACK
6
CONTINUOUS
10
0.646514
20
0.298355
11
0.64396
21
0.300062
0
LINE
8
BLACK
6
CONTINUOUS
10
0.64396
20
0.300062
11
0.642253
21
0.302617
0
LINE
8
BLACK
6
CONTINUOUS
10
0.642253
20
0.302617
11
0.641654
21
0.30563
0
LINE
8
BLACK
6
CONTINUOUS
10
0.641654
20
0.30563
11
0.641654
21
0.36563
0
LINE
8
BLACK
6
CONTINUOUS
10
0.641654
20
0.36563
11
0.642253
21
0.368643
0
LINE
8
BLACK
6
CONTINUOUS
10
0.642253
20
0.368643
11
0.64396
21
0.371198
0
LINE
8
BLACK
6
CONTINUOUS
10
0.64396
20
0.371198
11
0.646514
21
0.372905
0
LINE
8
BLACK
6
CONTINUOUS
10
0.646514
20
0.372905
11
0.649528
21
0.373504
0
LINE
8
BLACK
6
CONTINUOUS
10
0.649528
20
0.373504
11
0.709528
21
0.373504
0
LINE
8
BLACK
6
CONTINUOUS
10
0.709528
20
0.373504
11
0.712541
21
0.372905
0
LINE
8
BLACK
6
CONTINUOUS
10
0.812541
20
0.372905
11
0.815095
21
0.371198
0
LINE
8
BLACK
6
CONTINUOUS
10
0.815095
20
0.371198
11
0.816802
21
0.368643
0
LINE
8
BLACK
6
CONTINUOUS
10
0.816802
20
0.368643
11
0.817402
21
0.36563
0
LINE
8
BLACK
6
CONTINUOUS
10
0.817402
20
0.36563
11
0.817402
21
0.30563
0
LINE
8
BLACK
6
CONTINUOUS
10
0.817402
20
0.30563
11
0.816802
21
0.302617
0
LINE
8
BLACK
6
CONTINUOUS
10
0.816802
20
0.302617
11
0.815095
21
0.300062
0
LINE
8
BLACK
6
CONTINUOUS
10
0.815095
20
0.300062
11
0.812541
21
0.298355
0
LINE
8
BLACK
6
CONTINUOUS
10
0.812541
20
0.298355
11
0.809528
21
0.297756
0
LINE
8
BLACK
6
CONTINUOUS
10
0.809528
20
0.297756
11
0.749528
21
0.297756
0
LINE
8
BLACK
6
CONTINUOUS
10
0.749528
20
0.297756
11
0.746514
21
0.298355
0
LINE
8
BLACK
6
CONTINUOUS
10
0.746514
20
0.298355
11
0.74396
21
0.300062
0
LINE
8
BLACK
6
CONTINUOUS
10
0.74396
20
0.300062
11
0.742253
21
0.302617
0
LINE
8
BLACK
6
CONTINUOUS
10
0.742253
20
0.302617
11
0.741654
21
0.30563
0
LINE
8
BLACK
6
CONTINUOUS
10
0.741654
20
0.30563
11
0.741654
21
0.36563
0
LINE
8
BLACK
6
CONTINUOUS
10
0.741654
20
0.36563
11
0.742253
21
0.368643
0
LINE
8
BLACK
6
CONTINUOUS
10
0.742253
20
0.368643
11
0.74396
21
0.371198
0
LINE
8
BLACK
6
CONTINUOUS
10
0.74396
20
0.371198
11
0.746514
21
0.372905
0
LINE
8
BLACK
6
CONTINUOUS
10
0.746514
20
0.372905
11
0.749528
21
0.373504
0
LINE
8
BLACK
6
CONTINUOUS
10
0.749528
20
0.373504
11
0.809528
21
0.373504
0
LINE
8
BLACK
6
CONTINUOUS
10
0.809528
20
0.373504
11
0.812541
21
0.372905
0
LINE
8
BLACK
6
CONTINUOUS
10
1.11175
20
0.373347
11
1.11431
21
0.371641
0
LINE
8
BLACK
6
CONTINUOUS
10
1.11431
20
0.371641
11
1.11601
21
0.369086
0
LINE
8
BLACK
6
CONTINUOUS
10
1.11601
20
0.369086
11
1.11661
21
0.366073
0
LINE
8
BLACK
6
CONTINUOUS
10
1.11661
20
0.366073
11
1.11661
21
0.306073
0
LINE
8
BLACK
6
CONTINUOUS
10
1.11661
20
0.306073
11
1.11601
21
0.30306
0
LINE
8
BLACK
6
CONTINUOUS
10
1.11601
20
0.30306
11
1.11431
21
0.300505
0
LINE
8
BLACK
6
CONTINUOUS
10
1.11431
20
0.300505
11
1.11175
21
0.298798
0
LINE
8
BLACK
6
CONTINUOUS
10
1.11175
20
0.298798
11
1.10874
21
0.298199
0
LINE
8
BLACK
6
CONTINUOUS
10
1.10874
20
0.298199
11
1.04874
21
0.298199
0
LINE
8
BLACK
6
CONTINUOUS
10
1.04874
20
0.298199
11
1.04573
21
0.298798
0
LINE
8
BLACK
6
CONTINUOUS
10
1.04573
20
0.298798
11
1.04317
21
0.300505
0
LINE
8
BLACK
6
CONTINUOUS
10
1.04317
20
0.300505
11
1.04147
21
0.30306
0
LINE
8
BLACK
6
CONTINUOUS
10
1.04147
20
0.30306
11
1.04087
21
0.306073
0
LINE
8
BLACK
6
CONTINUOUS
10
1.04087
20
0.306073
11
1.04087
21
0.366073
0
LINE
8
BLACK
6
CONTINUOUS
10
1.04087
20
0.366073
11
1.04147
21
0.369086
0
LINE
8
BLACK
6
CONTINUOUS
10
1.04147
20
0.369086
11
1.04317
21
0.371641
0
LINE
8
BLACK
6
CONTINUOUS
10
1.04317
20
0.371641
11
1.04573
21
0.373347
0
LINE
8
BLACK
6
CONTINUOUS
10
1.04573
20
0.373347
11
1.04874
21
0.373947
0
LINE
8
BLACK
6
CONTINUOUS
10
1.04874
20
0.373947
11
1.10874
21
0.373947
0
LINE
8
BLACK
6
CONTINUOUS
10
1.10874
20
0.373947
11
1.11175
21
0.373347
0
LINE
8
BLACK
6
CONTINUOUS
10
1.21175
20
0.373347
11
1.21431
21
0.371641
0
LINE
8
BLACK
6
CONTINUOUS
10
1.21431
20
0.371641
11
1.21601
21
0.369086
0
LINE
8
BLACK
6
CONTINUOUS
10
1.21601
20
0.369086
11
1.21661
21
0.366073
0
LINE
8
BLACK
6
CONTINUOUS
10
1.21661
20
0.366073
11
1.21661
21
0.306073
0
LINE
8
BLACK
6
CONTINUOUS
10
1.21661
20
0.306073
11
1.21601
21
0.30306
0
LINE
8
BLACK
6
CONTINUOUS
10
1.21601
20
0.30306
11
1.21431
21
0.300505
0
LINE
8
BLACK
6
CONTINUOUS
10
1.21431
20
0.300505
11
1.21175
21
0.298798
0
LINE
8
BLACK
6
CONTINUOUS
10
1.21175
20
0.298798
11
1.20874
21
0.298199
0
LINE
8
BLACK
6
CONTINUOUS
10
1.20874
20
0.298199
11
1.14874
21
0.298199
0
LINE
8
BLACK
6
CONTINUOUS
10
1.14874
20
0.298199
11
1.14573
21
0.298798
0
LINE
8
BLACK
6
CONTINUOUS
10
1.14573
20
0.298798
11
1.14317
21
0.300505
0
LINE
8
BLACK
6
CONTINUOUS
10
1.14317
20
0.300505
11
1.14147
21
0.30306
0
LINE
8
BLACK
6
CONTINUOUS
10
1.14147
20
0.30306
11
1.14087
21
0.306073
0
LINE
8
BLACK
6
CONTINUOUS
10
1.14087
20
0.306073
11
1.14087
21
0.366073
0
LINE
8
BLACK
6
CONTINUOUS
10
1.14087
20
0.366073
11
1.14147
21
0.369086
0
LINE
8
BLACK
6
CONTINUOUS
10
1.14147
20
0.369086
11
1.14317
21
0.371641
0
LINE
8
BLACK
6
CONTINUOUS
10
1.14317
20
0.371641
11
1.14573
21
0.373347
0
LINE
8
BLACK
6
CONTINUOUS
10
1.14573
20
0.373347
11
1.14874
21
0.373947
0
LINE
8
BLACK
6
CONTINUOUS
10
1.14874
20
0.373947
11
1.20874
21
0.373947
0
LINE
8
BLACK
6
CONTINUOUS
10
1.20874
20
0.373947
11
1.21175
21
0.373347
0
LINE
8
BLACK
6
CONTINUOUS
10
1.31175
20
0.373347
11
1.31431
21
0.371641
0
LINE
8
BLACK
6
CONTINUOUS
10
1.31431
20
0.371641
11
1.31601
21
0.369086
0
LINE
8
BLACK
6
CONTINUOUS
10
1.31601
20
0.369086
11
1.31661
21
0.366073
0
LINE
8
BLACK
6
CONTINUOUS
10
1.31661
20
0.366073
11
1.31661
21
0.306073
0
LINE
8
BLACK
6
CONTINUOUS
10
1.31661
20
0.306073
11
1.31601
21
0.30306
0
LINE
8
BLACK
6
CONTINUOUS
10
1.31601
20
0.30306
11
1.31431
21
0.300505
0
LINE
8
BLACK
6
CONTINUOUS
10
1.31431
20
0.300505
11
1.31175
21
0.298798
0
LINE
8
BLACK
6
CONTINUOUS
10
1.31175
20
0.298798
11
1.30874
21
0.298199
0
LINE
8
BLACK
6
CONTINUOUS
10
1.30874
20
0.298199
11
1.24874
21
0.298199
0
LINE
8
BLACK
6
CONTINUOUS
10
1.24874
20
0.298199
11
1.24573
21
0.298798
0
LINE
8
BLACK
6
CONTINUOUS
10
1.24573
20
0.298798
11
1.24317
21
0.300505
0
LINE
8
BLACK
6
CONTINUOUS
10
1.24317
20
0.300505
11
1.24147
21
0.30306
0
LINE
8
BLACK
6
CONTINUOUS
10
1.24147
20
0.30306
11
1.24087
21
0.306073
0
LINE
8
BLACK
6
CONTINUOUS
10
1.24087
20
0.306073
11
1.24087
21
0.366073
0
LINE
8
BLACK
6
CONTINUOUS
10
1.24087
20
0.366073
11
1.24147
21
0.369086
0
LINE
8
BLACK
6
CONTINUOUS
10
1.24147
20
0.369086
11
1.24317
21
0.371641
0
LINE
8
BLACK
6
CONTINUOUS
10
1.24317
20
0.371641
11
1.24573
21
0.373347
0
LINE
8
BLACK
6
CONTINUOUS
10
1.24573
20
0.373347
11
1.24874
21
0.373947
0
LINE
8
BLACK
6
CONTINUOUS
10
1.24874
20
0.373947
11
1.30874
21
0.373947
0
LINE
8
BLACK
6
CONTINUOUS
10
1.30874
20
0.373947
11
1.31175
21
0.373347
0
LINE
8
BLACK
6
CONTINUOUS
10
1.41175
20
0.373347
11
1.41431
21
0.371641
0
LINE
8
BLACK
6
CONTINUOUS
10
1.41431
20
0.371641
11
1.41601
21
0.369086
0
LINE
8
BLACK
6
CONTINUOUS
10
1.41601
20
0.369086
11
1.41661
21
0.366073
0
LINE
8
BLACK
6
CONTINUOUS
10
1.41661
20
0.366073
11
1.41661
21
0.306073
0
LINE
8
BLACK
6
CONTINUOUS
10
1.41661
20
0.306073
11
1.41601
21
0.30306
0
LINE
8
BLACK
6
CONTINUOUS
10
1.41601
20
0.30306
11
1.41431
21
0.300505
0
LINE
8
BLACK
6
CONTINUOUS
10
1.41431
20
0.300505
11
1.41175
21
0.298798
0
LINE
8
BLACK
6
CONTINUOUS
10
1.41175
20
0.298798
11
1.40874
21
0.298199
0
LINE
8
BLACK
6
CONTINUOUS
10
1.40874
20
0.298199
11
1.34874
21
0.298199
0
LINE
8
BLACK
6
CONTINUOUS
10
1.34874
20
0.298199
11
1.34573
21
0.298798
0
LINE
8
BLACK
6
CONTINUOUS
10
1.34573
20
0.298798
11
1.34317
21
0.300505
0
LINE
8
BLACK
6
CONTINUOUS
10
1.34317
20
0.300505
11
1.34147
21
0.30306
0
LINE
8
BLACK
6
CONTINUOUS
10
1.34147
20
0.30306
11
1.34087
21
0.306073
0
LINE
8
BLACK
6
CONTINUOUS
10
1.34087
20
0.306073
11
1.34087
21
0.366073
0
LINE
8
BLACK
6
CONTINUOUS
10
1.34087
20
0.366073
11
1.34147
21
0.369086
0
LINE
8
BLACK
6
CONTINUOUS
10
1.34147
20
0.369086
11
1.34317
21
0.371641
0
LINE
8
BLACK
6
CONTINUOUS
10
1.34317
20
0.371641
11
1.34573
21
0.373347
0
LINE
8
BLACK
6
CONTINUOUS
10
1.34573
20
0.373347
11
1.34874
21
0.373947
0
LINE
8
BLACK
6
CONTINUOUS
10
1.34874
20
0.373947
11
1.40874
21
0.373947
0
LINE
8
BLACK
6
CONTINUOUS
10
1.40874
20
0.373947
11
1.41175
21
0.373347
0
LINE
8
BLACK
6
CONTINUOUS
10
1.51175
20
0.373347
11
1.51431
21
0.371641
0
LINE
8
BLACK
6
CONTINUOUS
10
1.51431
20
0.371641
11
1.51601
21
0.369086
0
LINE
8
BLACK
6
CONTINUOUS
10
1.51601
20
0.369086
11
1.51661
21
0.366073
0
LINE
8
BLACK
6
CONTINUOUS
10
1.51661
20
0.366073
11
1.51661
21
0.306073
0
LINE
8
BLACK
6
CONTINUOUS
10
1.51661
20
0.306073
11
1.51601
21
0.30306
0
LINE
8
BLACK
6
CONTINUOUS
10
1.51601
20
0.30306
11
1.51431
21
0.300505
0
LINE
8
BLACK
6
CONTINUOUS
10
1.51431
20
0.300505
11
1.51175
21
0.298798
0
LINE
8
BLACK
6
CONTINUOUS
10
1.51175
20
0.298798
11
1.50874
21
0.298199
0
LINE
8
BLACK
6
CONTINUOUS
10
1.50874
20
0.298199
11
1.44874
21
0.298199
0
LINE
8
BLACK
6
CONTINUOUS
10
1.44874
20
0.298199
11
1.44573
21
0.298798
0
LINE
8
BLACK
6
CONTINUOUS
10
1.44573
20
0.298798
11
1.44317
21
0.300505
0
LINE
8
BLACK
6
CONTINUOUS
10
1.44317
20
0.300505
11
1.44147
21
0.30306
0
LINE
8
BLACK
6
CONTINUOUS
10
1.44147
20
0.30306
11
1.44087
21
0.306073
0
LINE
8
BLACK
6
CONTINUOUS
10
1.44087
20
0.306073
11
1.44087
21
0.366073
0
LINE
8
BLACK
6
CONTINUOUS
10
1.44087
20
0.366073
11
1.44147
21
0.369086
0
LINE
8
BLACK
6
CONTINUOUS
10
1.44147
20
0.369086
11
1.44317
21
0.371641
0
LINE
8
BLACK
6
CONTINUOUS
10
1.44317
20
0.371641
11
1.44573
21
0.373347
0
LINE
8
BLACK
6
CONTINUOUS
10
1.44573
20
0.373347
11
1.44874
21
0.373947
0
LINE
8
BLACK
6
CONTINUOUS
10
1.44874
20
0.373947
11
1.50874
21
0.373947
0
LINE
8
BLACK
6
CONTINUOUS
10
1.50874
20
0.373947
11
1.51175
21
0.373347
0
LINE
8
BLACK
6
CONTINUOUS
10
0.612541
20
0.472905
11
0.615095
21
0.471198
0
LINE
8
BLACK
6
CONTINUOUS
10
0.615095
20
0.471198
11
0.616802
21
0.468643
0
LINE
8
BLACK
6
CONTINUOUS
10
0.616802
20
0.468643
11
0.617402
21
0.46563
0
LINE
8
BLACK
6
CONTINUOUS
10
0.617402
20
0.46563
11
0.617402
21
0.40563
0
LINE
8
BLACK
6
CONTINUOUS
10
0.617402
20
0.40563
11
0.616802
21
0.402617
0
LINE
8
BLACK
6
CONTINUOUS
10
0.616802
20
0.402617
11
0.615095
21
0.400062
0
LINE
8
BLACK
6
CONTINUOUS
10
0.615095
20
0.400062
11
0.612541
21
0.398355
0
LINE
8
BLACK
6
CONTINUOUS
10
0.612541
20
0.398355
11
0.609528
21
0.397756
0
LINE
8
BLACK
6
CONTINUOUS
10
0.609528
20
0.397756
11
0.549528
21
0.397756
0
LINE
8
BLACK
6
CONTINUOUS
10
0.549528
20
0.397756
11
0.546514
21
0.398355
0
LINE
8
BLACK
6
CONTINUOUS
10
0.546514
20
0.398355
11
0.54396
21
0.400062
0
LINE
8
BLACK
6
CONTINUOUS
10
0.54396
20
0.400062
11
0.542253
21
0.402617
0
LINE
8
BLACK
6
CONTINUOUS
10
0.542253
20
0.402617
11
0.541654
21
0.40563
0
LINE
8
BLACK
6
CONTINUOUS
10
0.541654
20
0.40563
11
0.541654
21
0.46563
0
LINE
8
BLACK
6
CONTINUOUS
10
0.541654
20
0.46563
11
0.542253
21
0.468643
0
LINE
8
BLACK
6
CONTINUOUS
10
0.542253
20
0.468643
11
0.54396
21
0.471198
0
LINE
8
BLACK
6
CONTINUOUS
10
0.54396
20
0.471198
11
0.546514
21
0.472905
0
LINE
8
BLACK
6
CONTINUOUS
10
0.546514
20
0.472905
11
0.549528
21
0.473504
0
LINE
8
BLACK
6
CONTINUOUS
10
0.549528
20
0.473504
11
0.609528
21
0.473504
0
LINE
8
BLACK
6
CONTINUOUS
10
0.609528
20
0.473504
11
0.612541
21
0.472905
0
LINE
8
BLACK
6
CONTINUOUS
10
0.712541
20
0.472905
11
0.715095
21
0.471198
0
LINE
8
BLACK
6
CONTINUOUS
10
0.715095
20
0.471198
11
0.716802
21
0.468643
0
LINE
8
BLACK
6
CONTINUOUS
10
0.716802
20
0.468643
11
0.717402
21
0.46563
0
LINE
8
BLACK
6
CONTINUOUS
10
0.717402
20
0.46563
11
0.717402
21
0.40563
0
LINE
8
BLACK
6
CONTINUOUS
10
0.717402
20
0.40563
11
0.716802
21
0.402617
0
LINE
8
BLACK
6
CONTINUOUS
10
0.716802
20
0.402617
11
0.715095
21
0.400062
0
LINE
8
BLACK
6
CONTINUOUS
10
0.715095
20
0.400062
11
0.712541
21
0.398355
0
LINE
8
BLACK
6
CONTINUOUS
10
0.712541
20
0.398355
11
0.709528
21
0.397756
0
LINE
8
BLACK
6
CONTINUOUS
10
0.709528
20
0.397756
11
0.649528
21
0.397756
0
LINE
8
BLACK
6
CONTINUOUS
10
0.649528
20
0.397756
11
0.646514
21
0.398355
0
LINE
8
BLACK
6
CONTINUOUS
10
0.646514
20
0.398355
11
0.64396
21
0.400062
0
LINE
8
BLACK
6
CONTINUOUS
10
0.64396
20
0.400062
11
0.642253
21
0.402617
0
LINE
8
BLACK
6
CONTINUOUS
10
0.642253
20
0.402617
11
0.641654
21
0.40563
0
LINE
8
BLACK
6
CONTINUOUS
10
0.641654
20
0.40563
11
0.641654
21
0.46563
0
LINE
8
BLACK
6
CONTINUOUS
10
0.641654
20
0.46563
11
0.642253
21
0.468643
0
LINE
8
BLACK
6
CONTINUOUS
10
0.642253
20
0.468643
11
0.64396
21
0.471198
0
LINE
8
BLACK
6
CONTINUOUS
10
0.64396
20
0.471198
11
0.646514
21
0.472905
0
LINE
8
BLACK
6
CONTINUOUS
10
0.646514
20
0.472905
11
0.649528
21
0.473504
0
LINE
8
BLACK
6
CONTINUOUS
10
0.649528
20
0.473504
11
0.709528
21
0.473504
0
LINE
8
BLACK
6
CONTINUOUS
10
0.709528
20
0.473504
11
0.712541
21
0.472905
0
LINE
8
BLACK
6
CONTINUOUS
10
0.812541
20
0.472905
11
0.815095
21
0.471198
0
LINE
8
BLACK
6
CONTINUOUS
10
0.815095
20
0.471198
11
0.816802
21
0.468643
0
LINE
8
BLACK
6
CONTINUOUS
10
0.816802
20
0.468643
11
0.817402
21
0.46563
0
LINE
8
BLACK
6
CONTINUOUS
10
0.817402
20
0.46563
11
0.817402
21
0.40563
0
LINE
8
BLACK
6
CONTINUOUS
10
0.817402
20
0.40563
11
0.816802
21
0.402617
0
LINE
8
BLACK
6
CONTINUOUS
10
0.816802
20
0.402617
11
0.815095
21
0.400062
0
LINE
8
BLACK
6
CONTINUOUS
10
0.815095
20
0.400062
11
0.812541
21
0.398355
0
LINE
8
BLACK
6
CONTINUOUS
10
0.812541
20
0.398355
11
0.809528
21
0.397756
0
LINE
8
BLACK
6
CONTINUOUS
10
0.809528
20
0.397756
11
0.749528
21
0.397756
0
LINE
8
BLACK
6
CONTINUOUS
10
0.749528
20
0.397756
11
0.746514
21
0.398355
0
LINE
8
BLACK
6
CONTINUOUS
10
0.746514
20
0.398355
11
0.74396
21
0.400062
0
LINE
8
BLACK
6
CONTINUOUS
10
0.74396
20
0.400062
11
0.742253
21
0.402617
0
LINE
8
BLACK
6
CONTINUOUS
10
0.742253
20
0.402617
11
0.741654
21
0.40563
0
LINE
8
BLACK
6
CONTINUOUS
10
0.741654
20
0.40563
11
0.741654
21
0.46563
0
LINE
8
BLACK
6
CONTINUOUS
10
0.741654
20
0.46563
11
0.742253
21
0.468643
0
LINE
8
BLACK
6
CONTINUOUS
10
0.742253
20
0.468643
11
0.74396
21
0.471198
0
LINE
8
BLACK
6
CONTINUOUS
10
0.74396
20
0.471198
11
0.746514
21
0.472905
0
LINE
8
BLACK
6
CONTINUOUS
10
0.746514
20
0.472905
11
0.749528
21
0.473504
0
LINE
8
BLACK
6
CONTINUOUS
10
0.749528
20
0.473504
11
0.809528
21
0.473504
0
LINE
8
BLACK
6
CONTINUOUS
10
0.809528
20
0.473504
11
0.812541
21
0.472905
0
LINE
8
BLACK
6
CONTINUOUS
10
1.11175
20
0.473347
11
1.11431
21
0.471641
0
LINE
8
BLACK
6
CONTINUOUS
10
1.11431
20
0.471641
11
1.11601
21
0.469086
0
LINE
8
BLACK
6
CONTINUOUS
10
1.11601
20
0.469086
11
1.11661
21
0.466073
0
LINE
8
BLACK
6
CONTINUOUS
10
1.11661
20
0.466073
11
1.11661
21
0.406073
0
LINE
8
BLACK
6
CONTINUOUS
10
1.11661
20
0.406073
11
1.11601
21
0.40306
0
LINE
8
BLACK
6
CONTINUOUS
10
1.11601
20
0.40306
11
1.11431
21
0.400505
0
LINE
8
BLACK
6
CONTINUOUS
10
1.11431
20
0.400505
11
1.11175
21
0.398798
0
LINE
8
BLACK
6
CONTINUOUS
10
1.11175
20
0.398798
11
1.10874
21
0.398199
0
LINE
8
BLACK
6
CONTINUOUS
10
1.10874
20
0.398199
11
1.04874
21
0.398199
0
LINE
8
BLACK
6
CONTINUOUS
10
1.04874
20
0.398199
11
1.04573
21
0.398798
0
LINE
8
BLACK
6
CONTINUOUS
10
1.04573
20
0.398798
11
1.04317
21
0.400505
0
LINE
8
BLACK
6
CONTINUOUS
10
1.04317
20
0.400505
11
1.04147
21
0.40306
0
LINE
8
BLACK
6
CONTINUOUS
10
1.04147
20
0.40306
11
1.04087
21
0.406073
0
LINE
8
BLACK
6
CONTINUOUS
10
1.04087
20
0.406073
11
1.04087
21
0.466073
0
LINE
8
BLACK
6
CONTINUOUS
10
1.04087
20
0.466073
11
1.04147
21
0.469086
0
LINE
8
BLACK
6
CONTINUOUS
10
1.04147
20
0.469086
11
1.04317
21
0.471641
0
LINE
8
BLACK
6
CONTINUOUS
10
1.04317
20
0.471641
11
1.04573
21
0.473347
0
LINE
8
BLACK
6
CONTINUOUS
10
1.04573
20
0.473347
11
1.04874
21
0.473947
0
LINE
8
BLACK
6
CONTINUOUS
10
1.04874
20
0.473947
11
1.10874
21
0.473947
0
LINE
8
BLACK
6
CONTINUOUS
10
1.10874
20
0.473947
11
1.11175
21
0.473347
0
LINE
8
BLACK
6
CONTINUOUS
10
1.21175
20
0.473347
11
1.21431
21
0.471641
0
LINE
8
BLACK
6
CONTINUOUS
10
1.21431
20
0.471641
11
1.21601
21
0.469086
0
LINE
8
BLACK
6
CONTINUOUS
10
1.21601
20
0.469086
11
1.21661
21
0.466073
0
LINE
8
BLACK
6
CONTINUOUS
10
1.21661
20
0.466073
11
1.21661
21
0.406073
0
LINE
8
BLACK
6
CONTINUOUS
10
1.21661
20
0.406073
11
1.21601
21
0.40306
0
LINE
8
BLACK
6
CONTINUOUS
10
1.21601
20
0.40306
11
1.21431
21
0.400505
0
LINE
8
BLACK
6
CONTINUOUS
10
1.21431
20
0.400505
11
1.21175
21
0.398798
0
LINE
8
BLACK
6
CONTINUOUS
10
1.21175
20
0.398798
11
1.20874
21
0.398199
0
LINE
8
BLACK
6
CONTINUOUS
10
1.20874
20
0.398199
11
1.14874
21
0.398199
0
LINE
8
BLACK
6
CONTINUOUS
10
1.14874
20
0.398199
11
1.14573
21
0.398798
0
LINE
8
BLACK
6
CONTINUOUS
10
1.14573
20
0.398798
11
1.14317
21
0.400505
0
LINE
8
BLACK
6
CONTINUOUS
10
1.14317
20
0.400505
11
1.14147
21
0.40306
0
LINE
8
BLACK
6
CONTINUOUS
10
1.14147
20
0.40306
11
1.14087
21
0.406073
0
LINE
8
BLACK
6
CONTINUOUS
10
1.14087
20
0.406073
11
1.14087
21
0.466073
0
LINE
8
BLACK
6
CONTINUOUS
10
1.14087
20
0.466073
11
1.14147
21
0.469086
0
LINE
8
BLACK
6
CONTINUOUS
10
1.14147
20
0.469086
11
1.14317
21
0.471641
0
LINE
8
BLACK
6
CONTINUOUS
10
1.14317
20
0.471641
11
1.14573
21
0.473347
0
LINE
8
BLACK
6
CONTINUOUS
10
1.14573
20
0.473347
11
1.14874
21
0.473947
0
LINE
8
BLACK
6
CONTINUOUS
10
1.14874
20
0.473947
11
1.20874
21
0.473947
0
LINE
8
BLACK
6
CONTINUOUS
10
1.20874
20
0.473947
11
1.21175
21
0.473347
0
LINE
8
BLACK
6
CONTINUOUS
10
1.31175
20
0.473347
11
1.31431
21
0.471641
0
LINE
8
BLACK
6
CONTINUOUS
10
1.31431
20
0.471641
11
1.31601
21
0.469086
0
LINE
8
BLACK
6
CONTINUOUS
10
1.31601
20
0.469086
11
1.31661
21
0.466073
0
LINE
8
BLACK
6
CONTINUOUS
10
1.31661
20
0.466073
11
1.31661
21
0.406073
0
LINE
8
BLACK
6
CONTINUOUS
10
1.31661
20
0.406073
11
1.31601
21
0.40306
0
LINE
8
BLACK
6
CONTINUOUS
10
1.31601
20
0.40306
11
1.31431
21
0.400505
0
LINE
8
BLACK
6
CONTINUOUS
10
1.31431
20
0.400505
11
1.31175
21
0.398798
0
LINE
8
BLACK
6
CONTINUOUS
10
1.31175
20
0.398798
11
1.30874
21
0.398199
0
LINE
8
BLACK
6
CONTINUOUS
10
1.30874
20
0.398199
11
1.24874
21
0.398199
0
LINE
8
BLACK
6
CONTINUOUS
10
1.24874
20
0.398199
11
1.24573
21
0.398798
0
LINE
8
BLACK
6
CONTINUOUS
10
1.24573
20
0.398798
11
1.24317
21
0.400505
0
LINE
8
BLACK
6
CONTINUOUS
10
1.24317
20
0.400505
11
1.24147
21
0.40306
0
LINE
8
BLACK
6
CONTINUOUS
10
1.24147
20
0.40306
11
1.24087
21
0.406073
0
LINE
8
BLACK
6
CONTINUOUS
10
1.24087
20
0.406073
11
1.24087
21
0.466073
0
LINE
8
BLACK
6
CONTINUOUS
10
1.24087
20
0.466073
11
1.24147
21
0.469086
0
LINE
8
BLACK
6
CONTINUOUS
10
1.24147
20
0.469086
11
1.24317
21
0.471641
0
LINE
8
BLACK
6
CONTINUOUS
10
1.24317
20
0.471641
11
1.24573
21
0.473347
0
LINE
8
BLACK
6
CONTINUOUS
10
1.24573
20
0.473347
11
1.24874
21
0.473947
0
LINE
8
BLACK
6
CONTINUOUS
10
1.24874
20
0.473947
11
1.30874
21
0.473947
0
LINE
8
BLACK
6
CONTINUOUS
10
1.30874
20
0.473947
11
1.31175
21
0.473347
0
LINE
8
BLACK
6
CONTINUOUS
10
1.41175
20
0.473347
11
1.41431
21
0.471641
0
LINE
8
BLACK
6
CONTINUOUS
10
1.41431
20
0.471641
11
1.41601
21
0.469086
0
LINE
8
BLACK
6
CONTINUOUS
10
1.41601
20
0.469086
11
1.41661
21
0.466073
0
LINE
8
BLACK
6
CONTINUOUS
10
1.41661
20
0.466073
11
1.41661
21
0.406073
0
LINE
8
BLACK
6
CONTINUOUS
10
1.41661
20
0.406073
11
1.41601
21
0.40306
0
LINE
8
BLACK
6
CONTINUOUS
10
1.41601
20
0.40306
11
1.41431
21
0.400505
0
LINE
8
BLACK
6
CONTINUOUS
10
1.41431
20
0.400505
11
1.41175
21
0.398798
0
LINE
8
BLACK
6
CONTINUOUS
10
1.41175
20
0.398798
11
1.40874
21
0.398199
0
LINE
8
BLACK
6
CONTINUOUS
10
1.40874
20
0.398199
11
1.34874
21
0.398199
0
LINE
8
BLACK
6
CONTINUOUS
10
1.34874
20
0.398199
11
1.34573
21
0.398798
0
LINE
8
BLACK
6
CONTINUOUS
10
1.34573
20
0.398798
11
1.34317
21
0.400505
0
LINE
8
BLACK
6
CONTINUOUS
10
1.34317
20
0.400505
11
1.34147
21
0.40306
0
LINE
8
BLACK
6
CONTINUOUS
10
1.34147
20
0.40306
11
1.34087
21
0.406073
0
LINE
8
BLACK
6
CONTINUOUS
10
1.34087
20
0.406073
11
1.34087
21
0.466073
0
LINE
8
BLACK
6
CONTINUOUS
10
1.34087
20
0.466073
11
1.34147
21
0.469086
0
LINE
8
BLACK
6
CONTINUOUS
10
1.34147
20
0.469086
11
1.34317
21
0.471641
0
LINE
8
BLACK
6
CONTINUOUS
10
1.34317
20
0.471641
11
1.34573
21
0.473347
0
LINE
8
BLACK
6
CONTINUOUS
10
1.34573
20
0.473347
11
1.34874
21
0.473947
0
LINE
8
BLACK
6
CONTINUOUS
10
1.34874
20
0.473947
11
1.40874
21
0.473947
0
LINE
8
BLACK
6
CONTINUOUS
10
1.40874
20
0.473947
11
1.41175
21
0.473347
0
LINE
8
BLACK
6
CONTINUOUS
10
1.51175
20
0.473347
11
1.51431
21
0.471641
0
LINE
8
BLACK
6
CONTINUOUS
10
1.51431
20
0.471641
11
1.51601
21
0.469086
0
LINE
8
BLACK
6
CONTINUOUS
10
1.51601
20
0.469086
11
1.51661
21
0.466073
0
LINE
8
BLACK
6
CONTINUOUS
10
1.51661
20
0.466073
11
1.51661
21
0.406073
0
LINE
8
BLACK
6
CONTINUOUS
10
1.51661
20
0.406073
11
1.51601
21
0.40306
0
LINE
8
BLACK
6
CONTINUOUS
10
1.51601
20
0.40306
11
1.51431
21
0.400505
0
LINE
8
BLACK
6
CONTINUOUS
10
1.51431
20
0.400505
11
1.51175
21
0.398798
0
LINE
8
BLACK
6
CONTINUOUS
10
1.51175
20
0.398798
11
1.50874
21
0.398199
0
LINE
8
BLACK
6
CONTINUOUS
10
1.50874
20
0.398199
11
1.44874
21
0.398199
0
LINE
8
BLACK
6
CONTINUOUS
10
1.44874
20
0.398199
11
1.44573
21
0.398798
0
LINE
8
BLACK
6
CONTINUOUS
10
1.44573
20
0.398798
11
1.44317
21
0.400505
0
LINE
8
BLACK
6
CONTINUOUS
10
1.44317
20
0.400505
11
1.44147
21
0.40306
0
LINE
8
BLACK
6
CONTINUOUS
10
1.44147
20
0.40306
11
1.44087
21
0.406073
0
LINE
8
BLACK
6
CONTINUOUS
10
1.44087
20
0.406073
11
1.44087
21
0.466073
0
LINE
8
BLACK
6
CONTINUOUS
10
1.44087
20
0.466073
11
1.44147
21
0.469086
0
LINE
8
BLACK
6
CONTINUOUS
10
1.44147
20
0.469086
11
1.44317
21
0.471641
0
LINE
8
BLACK
6
CONTINUOUS
10
1.44317
20
0.471641
11
1.44573
21
0.473347
0
LINE
8
BLACK
6
CONTINUOUS
10
1.44573
20
0.473347
11
1.44874
21
0.473947
0
LINE
8
BLACK
6
CONTINUOUS
10
1.44874
20
0.473947
11
1.50874
21
0.473947
0
LINE
8
BLACK
6
CONTINUOUS
10
1.50874
20
0.473947
11
1.51175
21
0.473347
0
LINE
8
BLACK
6
CONTINUOUS
10
1.18489
20
0.564652
11
1.18987
21
0.562908
0
LINE
8
BLACK
6
CONTINUOUS
10
1.18987
20
0.562908
11
1.19412
21
0.559772
0
LINE
8
BLACK
6
CONTINUOUS
10
1.19412
20
0.559772
11
1.19726
21
0.555522
0
LINE
8
BLACK
6
CONTINUOUS
10
1.19726
20
0.555522
11
1.199
21
0.550538
0
LINE
8
BLACK
6
CONTINUOUS
10
1.199
20
0.550538
11
1.19931
21
0.547244
0
LINE
8
BLACK
6
CONTINUOUS
10
1.19931
20
0.547244
11
1.19931
21
0.511811
0
LINE
8
BLACK
6
CONTINUOUS
10
1.19931
20
0.511811
11
1.199
21
0.508517
0
LINE
8
BLACK
6
CONTINUOUS
10
1.199
20
0.508517
11
1.19726
21
0.503533
0
LINE
8
BLACK
6
CONTINUOUS
10
1.19726
20
0.503533
11
1.19412
21
0.499284
0
LINE
8
BLACK
6
CONTINUOUS
10
1.19412
20
0.499284
11
1.18987
21
0.496148
0
LINE
8
BLACK
6
CONTINUOUS
10
1.18987
20
0.496148
11
1.18489
21
0.494403
0
LINE
8
BLACK
6
CONTINUOUS
10
1.18489
20
0.494403
11
1.18159
21
0.494094
0
LINE
8
BLACK
6
CONTINUOUS
10
1.18159
20
0.494094
11
1.16093
21
0.494094
0
LINE
8
BLACK
6
CONTINUOUS
10
1.16093
20
0.494094
11
1.15763
21
0.494403
0
LINE
8
BLACK
6
CONTINUOUS
10
1.15763
20
0.494403
11
1.15265
21
0.496148
0
LINE
8
BLACK
6
CONTINUOUS
10
1.15265
20
0.496148
11
1.1484
21
0.499284
0
LINE
8
BLACK
6
CONTINUOUS
10
1.1484
20
0.499284
11
1.14526
21
0.503533
0
LINE
8
BLACK
6
CONTINUOUS
10
1.14526
20
0.503533
11
1.14352
21
0.508517
0
LINE
8
BLACK
6
CONTINUOUS
10
1.14352
20
0.508517
11
1.14321
21
0.511811
0
LINE
8
BLACK
6
CONTINUOUS
10
1.14321
20
0.511811
11
1.14321
21
0.547244
0
LINE
8
BLACK
6
CONTINUOUS
10
1.14321
20
0.547244
11
1.14352
21
0.550538
0
LINE
8
BLACK
6
CONTINUOUS
10
1.14352
20
0.550538
11
1.14526
21
0.555522
0
LINE
8
BLACK
6
CONTINUOUS
10
1.14526
20
0.555522
11
1.1484
21
0.559772
0
LINE
8
BLACK
6
CONTINUOUS
10
1.1484
20
0.559772
11
1.15265
21
0.562908
0
LINE
8
BLACK
6
CONTINUOUS
10
1.15265
20
0.562908
11
1.15763
21
0.564652
0
LINE
8
BLACK
6
CONTINUOUS
10
1.15763
20
0.564652
11
1.16093
21
0.564961
0
LINE
8
BLACK
6
CONTINUOUS
10
1.16093
20
0.564961
11
1.18159
21
0.564961
0
LINE
8
BLACK
6
CONTINUOUS
10
1.18159
20
0.564961
11
1.18489
21
0.564652
0
LINE
8
BLACK
6
CONTINUOUS
10
1.25674
20
0.564652
11
1.26172
21
0.562908
0
LINE
8
BLACK
6
CONTINUOUS
10
1.26172
20
0.562908
11
1.26597
21
0.559772
0
LINE
8
BLACK
6
CONTINUOUS
10
1.26597
20
0.559772
11
1.26911
21
0.555522
0
LINE
8
BLACK
6
CONTINUOUS
10
1.26911
20
0.555522
11
1.27085
21
0.550538
0
LINE
8
BLACK
6
CONTINUOUS
10
1.27085
20
0.550538
11
1.27116
21
0.547244
0
LINE
8
BLACK
6
CONTINUOUS
10
1.27116
20
0.547244
11
1.27116
21
0.511811
0
LINE
8
BLACK
6
CONTINUOUS
10
1.27116
20
0.511811
11
1.27085
21
0.508517
0
LINE
8
BLACK
6
CONTINUOUS
10
1.27085
20
0.508517
11
1.26911
21
0.503533
0
LINE
8
BLACK
6
CONTINUOUS
10
1.26911
20
0.503533
11
1.26597
21
0.499284
0
LINE
8
BLACK
6
CONTINUOUS
10
1.26597
20
0.499284
11
1.26172
21
0.496148
0
LINE
8
BLACK
6
CONTINUOUS
10
1.26172
20
0.496148
11
1.25674
21
0.494403
0
LINE
8
BLACK
6
CONTINUOUS
10
1.25674
20
0.494403
11
1.25344
21
0.494094
0
LINE
8
BLACK
6
CONTINUOUS
10
1.25344
20
0.494094
11
1.23278
21
0.494094
0
LINE
8
BLACK
6
CONTINUOUS
10
1.23278
20
0.494094
11
1.22948
21
0.494403
0
LINE
8
BLACK
6
CONTINUOUS
10
1.22948
20
0.494403
11
1.2245
21
0.496148
0
LINE
8
BLACK
6
CONTINUOUS
10
1.2245
20
0.496148
11
1.22025
21
0.499284
0
LINE
8
BLACK
6
CONTINUOUS
10
1.22025
20
0.499284
11
1.21711
21
0.503533
0
LINE
8
BLACK
6
CONTINUOUS
10
1.21711
20
0.503533
11
1.21537
21
0.508517
0
LINE
8
BLACK
6
CONTINUOUS
10
1.21537
20
0.508517
11
1.21506
21
0.511811
0
LINE
8
BLACK
6
CONTINUOUS
10
1.21506
20
0.511811
11
1.21506
21
0.547244
0
LINE
8
BLACK
6
CONTINUOUS
10
1.21506
20
0.547244
11
1.21537
21
0.550538
0
LINE
8
BLACK
6
CONTINUOUS
10
1.21537
20
0.550538
11
1.21711
21
0.555522
0
LINE
8
BLACK
6
CONTINUOUS
10
1.21711
20
0.555522
11
1.22025
21
0.559772
0
LINE
8
BLACK
6
CONTINUOUS
10
1.22025
20
0.559772
11
1.2245
21
0.562908
0
LINE
8
BLACK
6
CONTINUOUS
10
1.2245
20
0.562908
11
1.22948
21
0.564652
0
LINE
8
BLACK
6
CONTINUOUS
10
1.22948
20
0.564652
11
1.23278
21
0.564961
0
LINE
8
BLACK
6
CONTINUOUS
10
1.23278
20
0.564961
11
1.25344
21
0.564961
0
LINE
8
BLACK
6
CONTINUOUS
10
1.25344
20
0.564961
11
1.25674
21
0.564652
0
LINE
8
BLACK
6
CONTINUOUS
10
1.3276
20
0.564652
11
1.33259
21
0.562908
0
LINE
8
BLACK
6
CONTINUOUS
10
1.33259
20
0.562908
11
1.33684
21
0.559772
0
LINE
8
BLACK
6
CONTINUOUS
10
1.33684
20
0.559772
11
1.33997
21
0.555522
0
LINE
8
BLACK
6
CONTINUOUS
10
1.33997
20
0.555522
11
1.34172
21
0.550538
0
LINE
8
BLACK
6
CONTINUOUS
10
1.34172
20
0.550538
11
1.34203
21
0.547244
0
LINE
8
BLACK
6
CONTINUOUS
10
1.34203
20
0.547244
11
1.34203
21
0.511811
0
LINE
8
BLACK
6
CONTINUOUS
10
1.34203
20
0.511811
11
1.34172
21
0.508517
0
LINE
8
BLACK
6
CONTINUOUS
10
1.34172
20
0.508517
11
1.33997
21
0.503533
0
LINE
8
BLACK
6
CONTINUOUS
10
1.33997
20
0.503533
11
1.33684
21
0.499284
0
LINE
8
BLACK
6
CONTINUOUS
10
1.33684
20
0.499284
11
1.33259
21
0.496148
0
LINE
8
BLACK
6
CONTINUOUS
10
1.33259
20
0.496148
11
1.3276
21
0.494403
0
LINE
8
BLACK
6
CONTINUOUS
10
1.3276
20
0.494403
11
1.32431
21
0.494094
0
LINE
8
BLACK
6
CONTINUOUS
10
1.32431
20
0.494094
11
1.30364
21
0.494094
0
LINE
8
BLACK
6
CONTINUOUS
10
1.30364
20
0.494094
11
1.30035
21
0.494403
0
LINE
8
BLACK
6
CONTINUOUS
10
1.30035
20
0.494403
11
1.29536
21
0.496148
0
LINE
8
BLACK
6
CONTINUOUS
10
1.29536
20
0.496148
11
1.29111
21
0.499284
0
LINE
8
BLACK
6
CONTINUOUS
10
1.29111
20
0.499284
11
1.28798
21
0.503533
0
LINE
8
BLACK
6
CONTINUOUS
10
1.28798
20
0.503533
11
1.28623
21
0.508517
0
LINE
8
BLACK
6
CONTINUOUS
10
1.28623
20
0.508517
11
1.28593
21
0.511811
0
LINE
8
BLACK
6
CONTINUOUS
10
1.28593
20
0.511811
11
1.28593
21
0.547244
0
LINE
8
BLACK
6
CONTINUOUS
10
1.28593
20
0.547244
11
1.28623
21
0.550538
0
LINE
8
BLACK
6
CONTINUOUS
10
1.28623
20
0.550538
11
1.28798
21
0.555522
0
LINE
8
BLACK
6
CONTINUOUS
10
1.28798
20
0.555522
11
1.29111
21
0.559772
0
LINE
8
BLACK
6
CONTINUOUS
10
1.29111
20
0.559772
11
1.29536
21
0.562908
0
LINE
8
BLACK
6
CONTINUOUS
10
1.29536
20
0.562908
11
1.30035
21
0.564652
0
LINE
8
BLACK
6
CONTINUOUS
10
1.30035
20
0.564652
11
1.30364
21
0.564961
0
LINE
8
BLACK
6
CONTINUOUS
10
1.30364
20
0.564961
11
1.32431
21
0.564961
0
LINE
8
BLACK
6
CONTINUOUS
10
1.32431
20
0.564961
11
1.3276
21
0.564652
0
LINE
8
BLACK
6
CONTINUOUS
10
1.39946
20
0.564652
11
1.40444
21
0.562908
0
LINE
8
BLACK
6
CONTINUOUS
10
1.40444
20
0.562908
11
1.40869
21
0.559772
0
LINE
8
BLACK
6
CONTINUOUS
10
1.40869
20
0.559772
11
1.41182
21
0.555522
0
LINE
8
BLACK
6
CONTINUOUS
10
1.41182
20
0.555522
11
1.41357
21
0.550538
0
LINE
8
BLACK
6
CONTINUOUS
10
1.41357
20
0.550538
11
1.41388
21
0.547244
0
LINE
8
BLACK
6
CONTINUOUS
10
1.41388
20
0.547244
11
1.41388
21
0.511811
0
LINE
8
BLACK
6
CONTINUOUS
10
1.41388
20
0.511811
11
1.41357
21
0.508517
0
LINE
8
BLACK
6
CONTINUOUS
10
1.41357
20
0.508517
11
1.41182
21
0.503533
0
LINE
8
BLACK
6
CONTINUOUS
10
1.41182
20
0.503533
11
1.40869
21
0.499284
0
LINE
8
BLACK
6
CONTINUOUS
10
1.40869
20
0.499284
11
1.40444
21
0.496148
0
LINE
8
BLACK
6
CONTINUOUS
10
1.40444
20
0.496148
11
1.39946
21
0.494403
0
LINE
8
BLACK
6
CONTINUOUS
10
1.39946
20
0.494403
11
1.39616
21
0.494094
0
LINE
8
BLACK
6
CONTINUOUS
10
1.39616
20
0.494094
11
1.37549
21
0.494094
0
LINE
8
BLACK
6
CONTINUOUS
10
1.37549
20
0.494094
11
1.3722
21
0.494403
0
LINE
8
BLACK
6
CONTINUOUS
10
1.3722
20
0.494403
11
1.36721
21
0.496148
0
LINE
8
BLACK
6
CONTINUOUS
10
1.36721
20
0.496148
11
1.36296
21
0.499284
0
LINE
8
BLACK
6
CONTINUOUS
10
1.36296
20
0.499284
11
1.35983
21
0.503533
0
LINE
8
BLACK
6
CONTINUOUS
10
1.35983
20
0.503533
11
1.35808
21
0.508517
0
LINE
8
BLACK
6
CONTINUOUS
10
1.35808
20
0.508517
11
1.35778
21
0.511811
0
LINE
8
BLACK
6
CONTINUOUS
10
1.35778
20
0.511811
11
1.35778
21
0.547244
0
LINE
8
BLACK
6
CONTINUOUS
10
1.35778
20
0.547244
11
1.35808
21
0.550538
0
LINE
8
BLACK
6
CONTINUOUS
10
1.35808
20
0.550538
11
1.35983
21
0.555522
0
LINE
8
BLACK
6
CONTINUOUS
10
1.35983
20
0.555522
11
1.36296
21
0.559772
0
LINE
8
BLACK
6
CONTINUOUS
10
1.36296
20
0.559772
11
1.36721
21
0.562908
0
LINE
8
BLACK
6
CONTINUOUS
10
1.36721
20
0.562908
11
1.3722
21
0.564652
0
LINE
8
BLACK
6
CONTINUOUS
10
1.3722
20
0.564652
11
1.37549
21
0.564961
0
LINE
8
BLACK
6
CONTINUOUS
10
1.37549
20
0.564961
11
1.39616
21
0.564961
0
LINE
8
BLACK
6
CONTINUOUS
10
1.39616
20
0.564961
11
1.39946
21
0.564652
0
LINE
8
BLACK
6
CONTINUOUS
10
0.598766
20
0.554317
11
0.603751
21
0.552573
0
LINE
8
BLACK
6
CONTINUOUS
10
0.603751
20
0.552573
11
0.608
21
0.549437
0
LINE
8
BLACK
6
CONTINUOUS
10
0.608
20
0.549437
11
0.611136
21
0.545188
0
LINE
8
BLACK
6
CONTINUOUS
10
0.611136
20
0.545188
11
0.61288
21
0.540203
0
LINE
8
BLACK
6
CONTINUOUS
10
0.61288
20
0.540203
11
0.613189
21
0.536909
0
LINE
8
BLACK
6
CONTINUOUS
10
0.613189
20
0.536909
11
0.613189
21
0.51624
0
LINE
8
BLACK
6
CONTINUOUS
10
0.613189
20
0.51624
11
0.61288
21
0.512946
0
LINE
8
BLACK
6
CONTINUOUS
10
0.61288
20
0.512946
11
0.611136
21
0.507962
0
LINE
8
BLACK
6
CONTINUOUS
10
0.611136
20
0.507962
11
0.608
21
0.503713
0
LINE
8
BLACK
6
CONTINUOUS
10
0.608
20
0.503713
11
0.603751
21
0.500577
0
LINE
8
BLACK
6
CONTINUOUS
10
0.603751
20
0.500577
11
0.598766
21
0.498832
0
LINE
8
BLACK
6
CONTINUOUS
10
0.598766
20
0.498832
11
0.595472
21
0.498524
0
LINE
8
BLACK
6
CONTINUOUS
10
0.595472
20
0.498524
11
0.560039
21
0.498524
0
LINE
8
BLACK
6
CONTINUOUS
10
0.560039
20
0.498524
11
0.556746
21
0.498832
0
LINE
8
BLACK
6
CONTINUOUS
10
0.556746
20
0.498832
11
0.551761
21
0.500577
0
LINE
8
BLACK
6
CONTINUOUS
10
0.551761
20
0.500577
11
0.547512
21
0.503713
0
LINE
8
BLACK
6
CONTINUOUS
10
0.547512
20
0.503713
11
0.544376
21
0.507962
0
LINE
8
BLACK
6
CONTINUOUS
10
0.544376
20
0.507962
11
0.542632
21
0.512946
0
LINE
8
BLACK
6
CONTINUOUS
10
0.542632
20
0.512946
11
0.542323
21
0.51624
0
LINE
8
BLACK
6
CONTINUOUS
10
0.542323
20
0.51624
11
0.542323
21
0.536909
0
LINE
8
BLACK
6
CONTINUOUS
10
0.542323
20
0.536909
11
0.542632
21
0.540203
0
LINE
8
BLACK
6
CONTINUOUS
10
0.542632
20
0.540203
11
0.544376
21
0.545188
0
LINE
8
BLACK
6
CONTINUOUS
10
0.544376
20
0.545188
11
0.547512
21
0.549437
0
LINE
8
BLACK
6
CONTINUOUS
10
0.547512
20
0.549437
11
0.551761
21
0.552573
0
LINE
8
BLACK
6
CONTINUOUS
10
0.551761
20
0.552573
11
0.556746
21
0.554317
0
LINE
8
BLACK
6
CONTINUOUS
10
0.556746
20
0.554317
11
0.560039
21
0.554626
0
LINE
8
BLACK
6
CONTINUOUS
10
0.560039
20
0.554626
11
0.595472
21
0.554626
0
LINE
8
BLACK
6
CONTINUOUS
10
0.595472
20
0.554626
11
0.598766
21
0.554317
0
LINE
8
BLACK
6
CONTINUOUS
10
0.700144
20
0.554317
11
0.705129
21
0.552573
0
LINE
8
BLACK
6
CONTINUOUS
10
0.705129
20
0.552573
11
0.709378
21
0.549437
0
LINE
8
BLACK
6
CONTINUOUS
10
0.709378
20
0.549437
11
0.712514
21
0.545188
0
LINE
8
BLACK
6
CONTINUOUS
10
0.712514
20
0.545188
11
0.714258
21
0.540203
0
LINE
8
BLACK
6
CONTINUOUS
10
0.714258
20
0.540203
11
0.714567
21
0.536909
0
LINE
8
BLACK
6
CONTINUOUS
10
0.714567
20
0.536909
11
0.714567
21
0.51624
0
LINE
8
BLACK
6
CONTINUOUS
10
0.714567
20
0.51624
11
0.714258
21
0.512946
0
LINE
8
BLACK
6
CONTINUOUS
10
0.714258
20
0.512946
11
0.712514
21
0.507962
0
LINE
8
BLACK
6
CONTINUOUS
10
0.712514
20
0.507962
11
0.709378
21
0.503713
0
LINE
8
BLACK
6
CONTINUOUS
10
0.709378
20
0.503713
11
0.705129
21
0.500577
0
LINE
8
BLACK
6
CONTINUOUS
10
0.705129
20
0.500577
11
0.700144
21
0.498832
0
LINE
8
BLACK
6
CONTINUOUS
10
0.700144
20
0.498832
11
0.69685
21
0.498524
0
LINE
8
BLACK
6
CONTINUOUS
10
0.69685
20
0.498524
11
0.661417
21
0.498524
0
LINE
8
BLACK
6
CONTINUOUS
10
0.661417
20
0.498524
11
0.658124
21
0.498832
0
LINE
8
BLACK
6
CONTINUOUS
10
0.658124
20
0.498832
11
0.653139
21
0.500577
0
LINE
8
BLACK
6
CONTINUOUS
10
0.653139
20
0.500577
11
0.64889
21
0.503713
0
LINE
8
BLACK
6
CONTINUOUS
10
0.64889
20
0.503713
11
0.645754
21
0.507962
0
LINE
8
BLACK
6
CONTINUOUS
10
0.645754
20
0.507962
11
0.64401
21
0.512946
0
LINE
8
BLACK
6
CONTINUOUS
10
0.64401
20
0.512946
11
0.643701
21
0.51624
0
LINE
8
BLACK
6
CONTINUOUS
10
0.643701
20
0.51624
11
0.643701
21
0.536909
0
LINE
8
BLACK
6
CONTINUOUS
10
0.643701
20
0.536909
11
0.64401
21
0.540203
0
LINE
8
BLACK
6
CONTINUOUS
10
0.64401
20
0.540203
11
0.645754
21
0.545188
0
LINE
8
BLACK
6
CONTINUOUS
10
0.645754
20
0.545188
11
0.64889
21
0.549437
0
LINE
8
BLACK
6
CONTINUOUS
10
0.64889
20
0.549437
11
0.653139
21
0.552573
0
LINE
8
BLACK
6
CONTINUOUS
10
0.653139
20
0.552573
11
0.658124
21
0.554317
0
LINE
8
BLACK
6
CONTINUOUS
10
0.658124
20
0.554317
11
0.661417
21
0.554626
0
LINE
8
BLACK
6
CONTINUOUS
10
0.661417
20
0.554626
11
0.69685
21
0.554626
0
LINE
8
BLACK
6
CONTINUOUS
10
0.69685
20
0.554626
11
0.700144
21
0.554317
0
LINE
8
BLACK
6
CONTINUOUS
10
0.809396
20
0.554317
11
0.814381
21
0.552573
0
LINE
8
BLACK
6
CONTINUOUS
10
0.814381
20
0.552573
11
0.81863
21
0.549437
0
LINE
8
BLACK
6
CONTINUOUS
10
0.81863
20
0.549437
11
0.821766
21
0.545188
0
LINE
8
BLACK
6
CONTINUOUS
10
0.821766
20
0.545188
11
0.82351
21
0.540203
0
LINE
8
BLACK
6
CONTINUOUS
10
0.82351
20
0.540203
11
0.823819
21
0.536909
0
LINE
8
BLACK
6
CONTINUOUS
10
0.823819
20
0.536909
11
0.823819
21
0.51624
0
LINE
8
BLACK
6
CONTINUOUS
10
0.823819
20
0.51624
11
0.82351
21
0.512946
0
LINE
8
BLACK
6
CONTINUOUS
10
0.82351
20
0.512946
11
0.821766
21
0.507962
0
LINE
8
BLACK
6
CONTINUOUS
10
0.821766
20
0.507962
11
0.81863
21
0.503713
0
LINE
8
BLACK
6
CONTINUOUS
10
0.81863
20
0.503713
11
0.814381
21
0.500577
0
LINE
8
BLACK
6
CONTINUOUS
10
0.814381
20
0.500577
11
0.809396
21
0.498832
0
LINE
8
BLACK
6
CONTINUOUS
10
0.809396
20
0.498832
11
0.806102
21
0.498524
0
LINE
8
BLACK
6
CONTINUOUS
10
0.806102
20
0.498524
11
0.770669
21
0.498524
0
LINE
8
BLACK
6
CONTINUOUS
10
0.770669
20
0.498524
11
0.767376
21
0.498832
0
LINE
8
BLACK
6
CONTINUOUS
10
0.767376
20
0.498832
11
0.762391
21
0.500577
0
LINE
8
BLACK
6
CONTINUOUS
10
0.762391
20
0.500577
11
0.758142
21
0.503713
0
LINE
8
BLACK
6
CONTINUOUS
10
0.758142
20
0.503713
11
0.755006
21
0.507962
0
LINE
8
BLACK
6
CONTINUOUS
10
0.755006
20
0.507962
11
0.753262
21
0.512946
0
LINE
8
BLACK
6
CONTINUOUS
10
0.753262
20
0.512946
11
0.752953
21
0.51624
0
LINE
8
BLACK
6
CONTINUOUS
10
0.752953
20
0.51624
11
0.752953
21
0.536909
0
LINE
8
BLACK
6
CONTINUOUS
10
0.752953
20
0.536909
11
0.753262
21
0.540203
0
LINE
8
BLACK
6
CONTINUOUS
10
0.753262
20
0.540203
11
0.755006
21
0.545188
0
LINE
8
BLACK
6
CONTINUOUS
10
0.755006
20
0.545188
11
0.758142
21
0.549437
0
LINE
8
BLACK
6
CONTINUOUS
10
0.758142
20
0.549437
11
0.762391
21
0.552573
0
LINE
8
BLACK
6
CONTINUOUS
10
0.762391
20
0.552573
11
0.767376
21
0.554317
0
LINE
8
BLACK
6
CONTINUOUS
10
0.767376
20
0.554317
11
0.770669
21
0.554626
0
LINE
8
BLACK
6
CONTINUOUS
10
0.770669
20
0.554626
11
0.806102
21
0.554626
0
LINE
8
BLACK
6
CONTINUOUS
10
0.806102
20
0.554626
11
0.809396
21
0.554317
0
LINE
8
BLACK
6
CONTINUOUS
10
1.59014
20
0.59103
11
1.59513
21
0.589286
0
LINE
8
BLACK
6
CONTINUOUS
10
1.59513
20
0.589286
11
1.59938
21
0.58615
0
LINE
8
BLACK
6
CONTINUOUS
10
1.59938
20
0.58615
11
1.60251
21
0.5819
0
LINE
8
BLACK
6
CONTINUOUS
10
1.60251
20
0.5819
11
1.60426
21
0.576916
0
LINE
8
BLACK
6
CONTINUOUS
10
1.60426
20
0.576916
11
1.60457
21
0.573622
0
LINE
8
BLACK
6
CONTINUOUS
10
1.60457
20
0.573622
11
1.60457
21
0.526378
0
LINE
8
BLACK
6
CONTINUOUS
10
1.60457
20
0.526378
11
1.60426
21
0.523084
0
LINE
8
BLACK
6
CONTINUOUS
10
1.60426
20
0.523084
11
1.60251
21
0.5181
0
LINE
8
BLACK
6
CONTINUOUS
10
1.60251
20
0.5181
11
1.59938
21
0.51385
0
LINE
8
BLACK
6
CONTINUOUS
10
1.59938
20
0.51385
11
1.59513
21
0.510714
0
LINE
8
BLACK
6
CONTINUOUS
10
1.59513
20
0.510714
11
1.59014
21
0.50897
0
LINE
8
BLACK
6
CONTINUOUS
10
1.59014
20
0.50897
11
1.58685
21
0.508661
0
LINE
8
BLACK
6
CONTINUOUS
10
1.58685
20
0.508661
11
1.55535
21
0.508661
0
LINE
8
BLACK
6
CONTINUOUS
10
1.55535
20
0.508661
11
1.55206
21
0.50897
0
LINE
8
BLACK
6
CONTINUOUS
10
1.55206
20
0.50897
11
1.54708
21
0.510714
0
LINE
8
BLACK
6
CONTINUOUS
10
1.54708
20
0.510714
11
1.54283
21
0.51385
0
LINE
8
BLACK
6
CONTINUOUS
10
1.54283
20
0.51385
11
1.53969
21
0.5181
0
LINE
8
BLACK
6
CONTINUOUS
10
1.53969
20
0.5181
11
1.53795
21
0.523084
0
LINE
8
BLACK
6
CONTINUOUS
10
1.53795
20
0.523084
11
1.53764
21
0.526378
0
LINE
8
BLACK
6
CONTINUOUS
10
1.53764
20
0.526378
11
1.53764
21
0.573622
0
LINE
8
BLACK
6
CONTINUOUS
10
1.53764
20
0.573622
11
1.53795
21
0.576916
0
LINE
8
BLACK
6
CONTINUOUS
10
1.53795
20
0.576916
11
1.53969
21
0.5819
0
LINE
8
BLACK
6
CONTINUOUS
10
1.53969
20
0.5819
11
1.54283
21
0.58615
0
LINE
8
BLACK
6
CONTINUOUS
10
1.54283
20
0.58615
11
1.54708
21
0.589286
0
LINE
8
BLACK
6
CONTINUOUS
10
1.54708
20
0.589286
11
1.55206
21
0.59103
0
LINE
8
BLACK
6
CONTINUOUS
10
1.55206
20
0.59103
11
1.55535
21
0.591339
0
LINE
8
BLACK
6
CONTINUOUS
10
1.55535
20
0.591339
11
1.58685
21
0.591339
0
LINE
8
BLACK
6
CONTINUOUS
10
1.58685
20
0.591339
11
1.59014
21
0.59103
0
LINE
8
BLACK
6
CONTINUOUS
10
1.72794
20
0.59103
11
1.73292
21
0.589286
0
LINE
8
BLACK
6
CONTINUOUS
10
1.73292
20
0.589286
11
1.73717
21
0.58615
0
LINE
8
BLACK
6
CONTINUOUS
10
1.73717
20
0.58615
11
1.74031
21
0.5819
0
LINE
8
BLACK
6
CONTINUOUS
10
1.74031
20
0.5819
11
1.74205
21
0.576916
0
LINE
8
BLACK
6
CONTINUOUS
10
1.74205
20
0.576916
11
1.74236
21
0.573622
0
LINE
8
BLACK
6
CONTINUOUS
10
1.74236
20
0.573622
11
1.74236
21
0.526378
0
LINE
8
BLACK
6
CONTINUOUS
10
1.74236
20
0.526378
11
1.74205
21
0.523084
0
LINE
8
BLACK
6
CONTINUOUS
10
1.74205
20
0.523084
11
1.74031
21
0.5181
0
LINE
8
BLACK
6
CONTINUOUS
10
1.74031
20
0.5181
11
1.73717
21
0.51385
0
LINE
8
BLACK
6
CONTINUOUS
10
1.73717
20
0.51385
11
1.73292
21
0.510714
0
LINE
8
BLACK
6
CONTINUOUS
10
1.73292
20
0.510714
11
1.72794
21
0.50897
0
LINE
8
BLACK
6
CONTINUOUS
10
1.72794
20
0.50897
11
1.72465
21
0.508661
0
LINE
8
BLACK
6
CONTINUOUS
10
1.72465
20
0.508661
11
1.69315
21
0.508661
0
LINE
8
BLACK
6
CONTINUOUS
10
1.69315
20
0.508661
11
1.68986
21
0.50897
0
LINE
8
BLACK
6
CONTINUOUS
10
1.68986
20
0.50897
11
1.68487
21
0.510714
0
LINE
8
BLACK
6
CONTINUOUS
10
1.68487
20
0.510714
11
1.68062
21
0.51385
0
LINE
8
BLACK
6
CONTINUOUS
10
1.68062
20
0.51385
11
1.67749
21
0.5181
0
LINE
8
BLACK
6
CONTINUOUS
10
1.67749
20
0.5181
11
1.67574
21
0.523084
0
LINE
8
BLACK
6
CONTINUOUS
10
1.67574
20
0.523084
11
1.67543
21
0.526378
0
LINE
8
BLACK
6
CONTINUOUS
10
1.67543
20
0.526378
11
1.67543
21
0.573622
0
LINE
8
BLACK
6
CONTINUOUS
10
1.67543
20
0.573622
11
1.67574
21
0.576916
0
LINE
8
BLACK
6
CONTINUOUS
10
1.67574
20
0.576916
11
1.67749
21
0.5819
0
LINE
8
BLACK
6
CONTINUOUS
10
1.67749
20
0.5819
11
1.68062
21
0.58615
0
LINE
8
BLACK
6
CONTINUOUS
10
1.68062
20
0.58615
11
1.68487
21
0.589286
0
LINE
8
BLACK
6
CONTINUOUS
10
1.68487
20
0.589286
11
1.68986
21
0.59103
0
LINE
8
BLACK
6
CONTINUOUS
10
1.68986
20
0.59103
11
1.69315
21
0.591339
0
LINE
8
BLACK
6
CONTINUOUS
10
1.69315
20
0.591339
11
1.72465
21
0.591339
0
LINE
8
BLACK
6
CONTINUOUS
10
1.72465
20
0.591339
11
1.72794
21
0.59103
0
LINE
8
BLACK
6
CONTINUOUS
10
0.598766
20
0.626168
11
0.603751
21
0.624423
0
LINE
8
BLACK
6
CONTINUOUS
10
0.603751
20
0.624423
11
0.608
21
0.621287
0
LINE
8
BLACK
6
CONTINUOUS
10
0.608
20
0.621287
11
0.611136
21
0.617038
0
LINE
8
BLACK
6
CONTINUOUS
10
0.611136
20
0.617038
11
0.61288
21
0.612054
0
LINE
8
BLACK
6
CONTINUOUS
10
0.61288
20
0.612054
11
0.613189
21
0.60876
0
LINE
8
BLACK
6
CONTINUOUS
10
0.613189
20
0.60876
11
0.613189
21
0.588091
0
LINE
8
BLACK
6
CONTINUOUS
10
0.613189
20
0.588091
11
0.61288
21
0.584797
0
LINE
8
BLACK
6
CONTINUOUS
10
0.61288
20
0.584797
11
0.611136
21
0.579812
0
LINE
8
BLACK
6
CONTINUOUS
10
0.611136
20
0.579812
11
0.608
21
0.575563
0
LINE
8
BLACK
6
CONTINUOUS
10
0.608
20
0.575563
11
0.603751
21
0.572427
0
LINE
8
BLACK
6
CONTINUOUS
10
0.603751
20
0.572427
11
0.598766
21
0.570683
0
LINE
8
BLACK
6
CONTINUOUS
10
0.598766
20
0.570683
11
0.595472
21
0.570374
0
LINE
8
BLACK
6
CONTINUOUS
10
0.595472
20
0.570374
11
0.560039
21
0.570374
0
LINE
8
BLACK
6
CONTINUOUS
10
0.560039
20
0.570374
11
0.556746
21
0.570683
0
LINE
8
BLACK
6
CONTINUOUS
10
0.556746
20
0.570683
11
0.551761
21
0.572427
0
LINE
8
BLACK
6
CONTINUOUS
10
0.551761
20
0.572427
11
0.547512
21
0.575563
0
LINE
8
BLACK
6
CONTINUOUS
10
0.547512
20
0.575563
11
0.544376
21
0.579812
0
LINE
8
BLACK
6
CONTINUOUS
10
0.544376
20
0.579812
11
0.542632
21
0.584797
0
LINE
8
BLACK
6
CONTINUOUS
10
0.542632
20
0.584797
11
0.542323
21
0.588091
0
LINE
8
BLACK
6
CONTINUOUS
10
0.542323
20
0.588091
11
0.542323
21
0.60876
0
LINE
8
BLACK
6
CONTINUOUS
10
0.542323
20
0.60876
11
0.542632
21
0.612054
0
LINE
8
BLACK
6
CONTINUOUS
10
0.542632
20
0.612054
11
0.544376
21
0.617038
0
LINE
8
BLACK
6
CONTINUOUS
10
0.544376
20
0.617038
11
0.547512
21
0.621287
0
LINE
8
BLACK
6
CONTINUOUS
10
0.547512
20
0.621287
11
0.551761
21
0.624423
0
LINE
8
BLACK
6
CONTINUOUS
10
0.551761
20
0.624423
11
0.556746
21
0.626168
0
LINE
8
BLACK
6
CONTINUOUS
10
0.556746
20
0.626168
11
0.560039
21
0.626476
0
LINE
8
BLACK
6
CONTINUOUS
10
0.560039
20
0.626476
11
0.595472
21
0.626476
0
LINE
8
BLACK
6
CONTINUOUS
10
0.595472
20
0.626476
11
0.598766
21
0.626168
0
LINE
8
BLACK
6
CONTINUOUS
10
0.700144
20
0.626168
11
0.705129
21
0.624423
0
LINE
8
BLACK
6
CONTINUOUS
10
0.705129
20
0.624423
11
0.709378
21
0.621287
0
LINE
8
BLACK
6
CONTINUOUS
10
0.709378
20
0.621287
11
0.712514
21
0.617038
0
LINE
8
BLACK
6
CONTINUOUS
10
0.712514
20
0.617038
11
0.714258
21
0.612054
0
LINE
8
BLACK
6
CONTINUOUS
10
0.714258
20
0.612054
11
0.714567
21
0.60876
0
LINE
8
BLACK
6
CONTINUOUS
10
0.714567
20
0.60876
11
0.714567
21
0.588091
0
LINE
8
BLACK
6
CONTINUOUS
10
0.714567
20
0.588091
11
0.714258
21
0.584797
0
LINE
8
BLACK
6
CONTINUOUS
10
0.714258
20
0.584797
11
0.712514
21
0.579812
0
LINE
8
BLACK
6
CONTINUOUS
10
0.712514
20
0.579812
11
0.709378
21
0.575563
0
LINE
8
BLACK
6
CONTINUOUS
10
0.709378
20
0.575563
11
0.705129
21
0.572427
0
LINE
8
BLACK
6
CONTINUOUS
10
0.705129
20
0.572427
11
0.700144
21
0.570683
0
LINE
8
BLACK
6
CONTINUOUS
10
0.700144
20
0.570683
11
0.69685
21
0.570374
0
LINE
8
BLACK
6
CONTINUOUS
10
0.69685
20
0.570374
11
0.661417
21
0.570374
0
LINE
8
BLACK
6
CONTINUOUS
10
0.661417
20
0.570374
11
0.658124
21
0.570683
0
LINE
8
BLACK
6
CONTINUOUS
10
0.658124
20
0.570683
11
0.653139
21
0.572427
0
LINE
8
BLACK
6
CONTINUOUS
10
0.653139
20
0.572427
11
0.64889
21
0.575563
0
LINE
8
BLACK
6
CONTINUOUS
10
0.64889
20
0.575563
11
0.645754
21
0.579812
0
LINE
8
BLACK
6
CONTINUOUS
10
0.645754
20
0.579812
11
0.64401
21
0.584797
0
LINE
8
BLACK
6
CONTINUOUS
10
0.64401
20
0.584797
11
0.643701
21
0.588091
0
LINE
8
BLACK
6
CONTINUOUS
10
0.643701
20
0.588091
11
0.643701
21
0.60876
0
LINE
8
BLACK
6
CONTINUOUS
10
0.643701
20
0.60876
11
0.64401
21
0.612054
0
LINE
8
BLACK
6
CONTINUOUS
10
0.64401
20
0.612054
11
0.645754
21
0.617038
0
LINE
8
BLACK
6
CONTINUOUS
10
0.645754
20
0.617038
11
0.64889
21
0.621287
0
LINE
8
BLACK
6
CONTINUOUS
10
0.64889
20
0.621287
11
0.653139
21
0.624423
0
LINE
8
BLACK
6
CONTINUOUS
10
0.653139
20
0.624423
11
0.658124
21
0.626168
0
LINE
8
BLACK
6
CONTINUOUS
10
0.658124
20
0.626168
11
0.661417
21
0.626476
0
LINE
8
BLACK
6
CONTINUOUS
10
0.661417
20
0.626476
11
0.69685
21
0.626476
0
LINE
8
BLACK
6
CONTINUOUS
10
0.69685
20
0.626476
11
0.700144
21
0.626168
0
LINE
8
BLACK
6
CONTINUOUS
10
0.809396
20
0.626168
11
0.814381
21
0.624423
0
LINE
8
BLACK
6
CONTINUOUS
10
0.814381
20
0.624423
11
0.81863
21
0.621287
0
LINE
8
BLACK
6
CONTINUOUS
10
0.81863
20
0.621287
11
0.821766
21
0.617038
0
LINE
8
BLACK
6
CONTINUOUS
10
0.821766
20
0.617038
11
0.82351
21
0.612054
0
LINE
8
BLACK
6
CONTINUOUS
10
0.82351
20
0.612054
11
0.823819
21
0.60876
0
LINE
8
BLACK
6
CONTINUOUS
10
0.823819
20
0.60876
11
0.823819
21
0.588091
0
LINE
8
BLACK
6
CONTINUOUS
10
0.823819
20
0.588091
11
0.82351
21
0.584797
0
LINE
8
BLACK
6
CONTINUOUS
10
0.82351
20
0.584797
11
0.821766
21
0.579812
0
LINE
8
BLACK
6
CONTINUOUS
10
0.821766
20
0.579812
11
0.81863
21
0.575563
0
LINE
8
BLACK
6
CONTINUOUS
10
0.81863
20
0.575563
11
0.814381
21
0.572427
0
LINE
8
BLACK
6
CONTINUOUS
10
0.814381
20
0.572427
11
0.809396
21
0.570683
0
LINE
8
BLACK
6
CONTINUOUS
10
0.809396
20
0.570683
11
0.806102
21
0.570374
0
LINE
8
BLACK
6
CONTINUOUS
10
0.806102
20
0.570374
11
0.770669
21
0.570374
0
LINE
8
BLACK
6
CONTINUOUS
10
0.770669
20
0.570374
11
0.767376
21
0.570683
0
LINE
8
BLACK
6
CONTINUOUS
10
0.767376
20
0.570683
11
0.762391
21
0.572427
0
LINE
8
BLACK
6
CONTINUOUS
10
0.762391
20
0.572427
11
0.758142
21
0.575563
0
LINE
8
BLACK
6
CONTINUOUS
10
0.758142
20
0.575563
11
0.755006
21
0.579812
0
LINE
8
BLACK
6
CONTINUOUS
10
0.755006
20
0.579812
11
0.753262
21
0.584797
0
LINE
8
BLACK
6
CONTINUOUS
10
0.753262
20
0.584797
11
0.752953
21
0.588091
0
LINE
8
BLACK
6
CONTINUOUS
10
0.752953
20
0.588091
11
0.752953
21
0.60876
0
LINE
8
BLACK
6
CONTINUOUS
10
0.752953
20
0.60876
11
0.753262
21
0.612054
0
LINE
8
BLACK
6
CONTINUOUS
10
0.753262
20
0.612054
11
0.755006
21
0.617038
0
LINE
8
BLACK
6
CONTINUOUS
10
0.755006
20
0.617038
11
0.758142
21
0.621287
0
LINE
8
BLACK
6
CONTINUOUS
10
0.758142
20
0.621287
11
0.762391
21
0.624423
0
LINE
8
BLACK
6
CONTINUOUS
10
0.762391
20
0.624423
11
0.767376
21
0.626168
0
LINE
8
BLACK
6
CONTINUOUS
10
0.767376
20
0.626168
11
0.770669
21
0.626476
0
LINE
8
BLACK
6
CONTINUOUS
10
0.770669
20
0.626476
11
0.806102
21
0.626476
0
LINE
8
BLACK
6
CONTINUOUS
10
0.806102
20
0.626476
11
0.809396
21
0.626168
0
LINE
8
BLACK
6
CONTINUOUS
10
1.41816
20
0.641423
11
1.42314
21
0.639679
0
LINE
8
BLACK
6
CONTINUOUS
10
1.42314
20
0.639679
11
1.42739
21
0.636543
0
LINE
8
BLACK
6
CONTINUOUS
10
1.42739
20
0.636543
11
1.43053
21
0.632294
0
LINE
8
BLACK
6
CONTINUOUS
10
1.43053
20
0.632294
11
1.43227
21
0.627309
0
LINE
8
BLACK
6
CONTINUOUS
10
1.43227
20
0.627309
11
1.43258
21
0.624016
0
LINE
8
BLACK
6
CONTINUOUS
10
1.43258
20
0.624016
11
1.43258
21
0.588583
0
LINE
8
BLACK
6
CONTINUOUS
10
1.43258
20
0.588583
11
1.43227
21
0.585289
0
LINE
8
BLACK
6
CONTINUOUS
10
1.43227
20
0.585289
11
1.43053
21
0.580304
0
LINE
8
BLACK
6
CONTINUOUS
10
1.43053
20
0.580304
11
1.42739
21
0.576055
0
LINE
8
BLACK
6
CONTINUOUS
10
1.42739
20
0.576055
11
1.42314
21
0.572919
0
LINE
8
BLACK
6
CONTINUOUS
10
1.42314
20
0.572919
11
1.41816
21
0.571175
0
LINE
8
BLACK
6
CONTINUOUS
10
1.41816
20
0.571175
11
1.41486
21
0.570866
0
LINE
8
BLACK
6
CONTINUOUS
10
1.41486
20
0.570866
11
1.39419
21
0.570866
0
LINE
8
BLACK
6
CONTINUOUS
10
1.39419
20
0.570866
11
1.3909
21
0.571175
0
LINE
8
BLACK
6
CONTINUOUS
10
1.3909
20
0.571175
11
1.38591
21
0.572919
0
LINE
8
BLACK
6
CONTINUOUS
10
1.38591
20
0.572919
11
1.38167
21
0.576055
0
LINE
8
BLACK
6
CONTINUOUS
10
1.38167
20
0.576055
11
1.37853
21
0.580304
0
LINE
8
BLACK
6
CONTINUOUS
10
1.37853
20
0.580304
11
1.37679
21
0.585289
0
LINE
8
BLACK
6
CONTINUOUS
10
1.37679
20
0.585289
11
1.37648
21
0.588583
0
LINE
8
BLACK
6
CONTINUOUS
10
1.37648
20
0.588583
11
1.37648
21
0.624016
0
LINE
8
BLACK
6
CONTINUOUS
10
1.37648
20
0.624016
11
1.37679
21
0.627309
0
LINE
8
BLACK
6
CONTINUOUS
10
1.37679
20
0.627309
11
1.37853
21
0.632294
0
LINE
8
BLACK
6
CONTINUOUS
10
1.37853
20
0.632294
11
1.38167
21
0.636543
0
LINE
8
BLACK
6
CONTINUOUS
10
1.38167
20
0.636543
11
1.38591
21
0.639679
0
LINE
8
BLACK
6
CONTINUOUS
10
1.38591
20
0.639679
11
1.3909
21
0.641423
0
LINE
8
BLACK
6
CONTINUOUS
10
1.3909
20
0.641423
11
1.39419
21
0.641732
0
LINE
8
BLACK
6
CONTINUOUS
10
1.39419
20
0.641732
11
1.41486
21
0.641732
0
LINE
8
BLACK
6
CONTINUOUS
10
1.41486
20
0.641732
11
1.41816
21
0.641423
0
LINE
8
BLACK
6
CONTINUOUS
10
1.49001
20
0.641423
11
1.49499
21
0.639679
0
LINE
8
BLACK
6
CONTINUOUS
10
1.49499
20
0.639679
11
1.49924
21
0.636543
0
LINE
8
BLACK
6
CONTINUOUS
10
1.49924
20
0.636543
11
1.50238
21
0.632294
0
LINE
8
BLACK
6
CONTINUOUS
10
1.50238
20
0.632294
11
1.50412
21
0.627309
0
LINE
8
BLACK
6
CONTINUOUS
10
1.50412
20
0.627309
11
1.50443
21
0.624016
0
LINE
8
BLACK
6
CONTINUOUS
10
1.50443
20
0.624016
11
1.50443
21
0.588583
0
LINE
8
BLACK
6
CONTINUOUS
10
1.50443
20
0.588583
11
1.50412
21
0.585289
0
LINE
8
BLACK
6
CONTINUOUS
10
1.50412
20
0.585289
11
1.50238
21
0.580304
0
LINE
8
BLACK
6
CONTINUOUS
10
1.50238
20
0.580304
11
1.49924
21
0.576055
0
LINE
8
BLACK
6
CONTINUOUS
10
1.49924
20
0.576055
11
1.49499
21
0.572919
0
LINE
8
BLACK
6
CONTINUOUS
10
1.49499
20
0.572919
11
1.49001
21
0.571175
0
LINE
8
BLACK
6
CONTINUOUS
10
1.49001
20
0.571175
11
1.48671
21
0.570866
0
LINE
8
BLACK
6
CONTINUOUS
10
1.48671
20
0.570866
11
1.46604
21
0.570866
0
LINE
8
BLACK
6
CONTINUOUS
10
1.46604
20
0.570866
11
1.46275
21
0.571175
0
LINE
8
BLACK
6
CONTINUOUS
10
1.46275
20
0.571175
11
1.45776
21
0.572919
0
LINE
8
BLACK
6
CONTINUOUS
10
1.45776
20
0.572919
11
1.45352
21
0.576055
0
LINE
8
BLACK
6
CONTINUOUS
10
1.45352
20
0.576055
11
1.45038
21
0.580304
0
LINE
8
BLACK
6
CONTINUOUS
10
1.45038
20
0.580304
11
1.44864
21
0.585289
0
LINE
8
BLACK
6
CONTINUOUS
10
1.44864
20
0.585289
11
1.44833
21
0.588583
0
LINE
8
BLACK
6
CONTINUOUS
10
1.44833
20
0.588583
11
1.44833
21
0.624016
0
LINE
8
BLACK
6
CONTINUOUS
10
1.44833
20
0.624016
11
1.44864
21
0.627309
0
LINE
8
BLACK
6
CONTINUOUS
10
1.44864
20
0.627309
11
1.45038
21
0.632294
0
LINE
8
BLACK
6
CONTINUOUS
10
1.45038
20
0.632294
11
1.45352
21
0.636543
0
LINE
8
BLACK
6
CONTINUOUS
10
1.45352
20
0.636543
11
1.45776
21
0.639679
0
LINE
8
BLACK
6
CONTINUOUS
10
1.45776
20
0.639679
11
1.46275
21
0.641423
0
LINE
8
BLACK
6
CONTINUOUS
10
1.46275
20
0.641423
11
1.46604
21
0.641732
0
LINE
8
BLACK
6
CONTINUOUS
10
1.46604
20
0.641732
11
1.48671
21
0.641732
0
LINE
8
BLACK
6
CONTINUOUS
10
1.48671
20
0.641732
11
1.49001
21
0.641423
0
LINE
8
BLACK
6
CONTINUOUS
10
1.80368
20
0.694755
11
1.80624
21
0.693048
0
LINE
8
BLACK
6
CONTINUOUS
10
1.80624
20
0.693048
11
1.80794
21
0.690494
0
LINE
8
BLACK
6
CONTINUOUS
10
1.80794
20
0.690494
11
1.80854
21
0.68748
0
LINE
8
BLACK
6
CONTINUOUS
10
1.80854
20
0.68748
11
1.80854
21
0.62748
0
LINE
8
BLACK
6
CONTINUOUS
10
1.80854
20
0.62748
11
1.80794
21
0.624467
0
LINE
8
BLACK
6
CONTINUOUS
10
1.80794
20
0.624467
11
1.80624
21
0.621913
0
LINE
8
BLACK
6
CONTINUOUS
10
1.80624
20
0.621913
11
1.80368
21
0.620206
0
LINE
8
BLACK
6
CONTINUOUS
10
1.80368
20
0.620206
11
1.80067
21
0.619606
0
LINE
8
BLACK
6
CONTINUOUS
10
1.80067
20
0.619606
11
1.74067
21
0.619606
0
LINE
8
BLACK
6
CONTINUOUS
10
1.74067
20
0.619606
11
1.73766
21
0.620206
0
LINE
8
BLACK
6
CONTINUOUS
10
1.73766
20
0.620206
11
1.7351
21
0.621913
0
LINE
8
BLACK
6
CONTINUOUS
10
1.7351
20
0.621913
11
1.73339
21
0.624467
0
LINE
8
BLACK
6
CONTINUOUS
10
1.73339
20
0.624467
11
1.7328
21
0.62748
0
LINE
8
BLACK
6
CONTINUOUS
10
1.7328
20
0.62748
11
1.7328
21
0.68748
0
LINE
8
BLACK
6
CONTINUOUS
10
1.7328
20
0.68748
11
1.73339
21
0.690494
0
LINE
8
BLACK
6
CONTINUOUS
10
1.73339
20
0.690494
11
1.7351
21
0.693048
0
LINE
8
BLACK
6
CONTINUOUS
10
1.7351
20
0.693048
11
1.73766
21
0.694755
0
LINE
8
BLACK
6
CONTINUOUS
10
1.73766
20
0.694755
11
1.74067
21
0.695354
0
LINE
8
BLACK
6
CONTINUOUS
10
1.74067
20
0.695354
11
1.80067
21
0.695354
0
LINE
8
BLACK
6
CONTINUOUS
10
1.80067
20
0.695354
11
1.80368
21
0.694755
0
LINE
8
BLACK
6
CONTINUOUS
10
1.90368
20
0.694755
11
1.90624
21
0.693048
0
LINE
8
BLACK
6
CONTINUOUS
10
1.90624
20
0.693048
11
1.90794
21
0.690494
0
LINE
8
BLACK
6
CONTINUOUS
10
1.90794
20
0.690494
11
1.90854
21
0.68748
0
LINE
8
BLACK
6
CONTINUOUS
10
1.90854
20
0.68748
11
1.90854
21
0.62748
0
LINE
8
BLACK
6
CONTINUOUS
10
1.90854
20
0.62748
11
1.90794
21
0.624467
0
LINE
8
BLACK
6
CONTINUOUS
10
1.90794
20
0.624467
11
1.90624
21
0.621913
0
LINE
8
BLACK
6
CONTINUOUS
10
1.90624
20
0.621913
11
1.90368
21
0.620206
0
LINE
8
BLACK
6
CONTINUOUS
10
1.90368
20
0.620206
11
1.90067
21
0.619606
0
LINE
8
BLACK
6
CONTINUOUS
10
1.90067
20
0.619606
11
1.84067
21
0.619606
0
LINE
8
BLACK
6
CONTINUOUS
10
1.84067
20
0.619606
11
1.83766
21
0.620206
0
LINE
8
BLACK
6
CONTINUOUS
10
1.83766
20
0.620206
11
1.8351
21
0.621913
0
LINE
8
BLACK
6
CONTINUOUS
10
1.8351
20
0.621913
11
1.83339
21
0.624467
0
LINE
8
BLACK
6
CONTINUOUS
10
1.83339
20
0.624467
11
1.8328
21
0.62748
0
LINE
8
BLACK
6
CONTINUOUS
10
1.8328
20
0.62748
11
1.8328
21
0.68748
0
LINE
8
BLACK
6
CONTINUOUS
10
1.8328
20
0.68748
11
1.83339
21
0.690494
0
LINE
8
BLACK
6
CONTINUOUS
10
1.83339
20
0.690494
11
1.8351
21
0.693048
0
LINE
8
BLACK
6
CONTINUOUS
10
1.8351
20
0.693048
11
1.83766
21
0.694755
0
LINE
8
BLACK
6
CONTINUOUS
10
1.83766
20
0.694755
11
1.84067
21
0.695354
0
LINE
8
BLACK
6
CONTINUOUS
10
1.84067
20
0.695354
11
1.90067
21
0.695354
0
LINE
8
BLACK
6
CONTINUOUS
10
1.90067
20
0.695354
11
1.90368
21
0.694755
0
LINE
8
BLACK
6
CONTINUOUS
10
2.00368
20
0.694755
11
2.00624
21
0.693048
0
LINE
8
BLACK
6
CONTINUOUS
10
2.00624
20
0.693048
11
2.00794
21
0.690494
0
LINE
8
BLACK
6
CONTINUOUS
10
2.00794
20
0.690494
11
2.00854
21
0.68748
0
LINE
8
BLACK
6
CONTINUOUS
10
2.00854
20
0.68748
11
2.00854
21
0.62748
0
LINE
8
BLACK
6
CONTINUOUS
10
2.00854
20
0.62748
11
2.00794
21
0.624467
0
LINE
8
BLACK
6
CONTINUOUS
10
2.00794
20
0.624467
11
2.00624
21
0.621913
0
LINE
8
BLACK
6
CONTINUOUS
10
2.00624
20
0.621913
11
2.00368
21
0.620206
0
LINE
8
BLACK
6
CONTINUOUS
10
2.00368
20
0.620206
11
2.00067
21
0.619606
0
LINE
8
BLACK
6
CONTINUOUS
10
2.00067
20
0.619606
11
1.94067
21
0.619606
0
LINE
8
BLACK
6
CONTINUOUS
10
1.94067
20
0.619606
11
1.93766
21
0.620206
0
LINE
8
BLACK
6
CONTINUOUS
10
1.93766
20
0.620206
11
1.9351
21
0.621913
0
LINE
8
BLACK
6
CONTINUOUS
10
1.9351
20
0.621913
11
1.93339
21
0.624467
0
LINE
8
BLACK
6
CONTINUOUS
10
1.93339
20
0.624467
11
1.9328
21
0.62748
0
LINE
8
BLACK
6
CONTINUOUS
10
1.9328
20
0.62748
11
1.9328
21
0.68748
0
LINE
8
BLACK
6
CONTINUOUS
10
1.9328
20
0.68748
11
1.93339
21
0.690494
0
LINE
8
BLACK
6
CONTINUOUS
10
1.93339
20
0.690494
11
1.9351
21
0.693048
0
LINE
8
BLACK
6
CONTINUOUS
10
1.9351
20
0.693048
11
1.93766
21
0.694755
0
LINE
8
BLACK
6
CONTINUOUS
10
1.93766
20
0.694755
11
1.94067
21
0.695354
0
LINE
8
BLACK
6
CONTINUOUS
10
1.94067
20
0.695354
11
2.00067
21
0.695354
0
LINE
8
BLACK
6
CONTINUOUS
10
2.00067
20
0.695354
11
2.00368
21
0.694755
0
LINE
8
BLACK
6
CONTINUOUS
10
1.22642
20
0.985316
11
1.2304
21
0.983563
0
LINE
8
BLACK
6
CONTINUOUS
10
1.2304
20
0.983563
11
1.23346
21
0.980494
0
LINE
8
BLACK
6
CONTINUOUS
10
1.23346
20
0.980494
11
1.23522
21
0.976523
0
LINE
8
BLACK
6
CONTINUOUS
10
1.23522
20
0.976523
11
1.23553
21
0.973819
0
LINE
8
BLACK
6
CONTINUOUS
10
1.23553
20
0.973819
11
1.23553
21
0.965945
0
LINE
8
BLACK
6
CONTINUOUS
10
1.23553
20
0.965945
11
1.23522
21
0.963241
0
LINE
8
BLACK
6
CONTINUOUS
10
1.23522
20
0.963241
11
1.23346
21
0.95927
0
LINE
8
BLACK
6
CONTINUOUS
10
1.23346
20
0.95927
11
1.23128
21
0.957087
0
LINE
8
BLACK
6
CONTINUOUS
10
1.23128
20
0.957087
11
1.23346
21
0.954903
0
LINE
8
BLACK
6
CONTINUOUS
10
1.23346
20
0.954903
11
1.23522
21
0.950932
0
LINE
8
BLACK
6
CONTINUOUS
10
1.23522
20
0.950932
11
1.23553
21
0.948228
0
LINE
8
BLACK
6
CONTINUOUS
10
1.23553
20
0.948228
11
1.23553
21
0.940354
0
LINE
8
BLACK
6
CONTINUOUS
10
1.23553
20
0.940354
11
1.23522
21
0.93765
0
LINE
8
BLACK
6
CONTINUOUS
10
1.23522
20
0.93765
11
1.23346
21
0.933679
0
LINE
8
BLACK
6
CONTINUOUS
10
1.23346
20
0.933679
11
1.23128
21
0.931496
0
LINE
8
BLACK
6
CONTINUOUS
10
1.23128
20
0.931496
11
1.23346
21
0.929313
0
LINE
8
BLACK
6
CONTINUOUS
10
1.23346
20
0.929313
11
1.23522
21
0.925342
0
LINE
8
BLACK
6
CONTINUOUS
10
1.23522
20
0.925342
11
1.23553
21
0.922638
0
LINE
8
BLACK
6
CONTINUOUS
10
1.23553
20
0.922638
11
1.23553
21
0.914764
0
LINE
8
BLACK
6
CONTINUOUS
10
1.23553
20
0.914764
11
1.23522
21
0.91206
0
LINE
8
BLACK
6
CONTINUOUS
10
1.23522
20
0.91206
11
1.23346
21
0.908089
0
LINE
8
BLACK
6
CONTINUOUS
10
1.23346
20
0.908089
11
1.23128
21
0.905906
0
LINE
8
BLACK
6
CONTINUOUS
10
1.23128
20
0.905906
11
1.23346
21
0.903722
0
LINE
8
BLACK
6
CONTINUOUS
10
1.23346
20
0.903722
11
1.23522
21
0.899751
0
LINE
8
BLACK
6
CONTINUOUS
10
1.23522
20
0.899751
11
1.23553
21
0.897047
0
LINE
8
BLACK
6
CONTINUOUS
10
1.23553
20
0.897047
11
1.23553
21
0.889173
0
LINE
8
BLACK
6
CONTINUOUS
10
1.23553
20
0.889173
11
1.23522
21
0.886469
0
LINE
8
BLACK
6
CONTINUOUS
10
1.23522
20
0.886469
11
1.23346
21
0.882498
0
LINE
8
BLACK
6
CONTINUOUS
10
1.23346
20
0.882498
11
1.23128
21
0.880315
0
LINE
8
BLACK
6
CONTINUOUS
10
1.23128
20
0.880315
11
1.23346
21
0.878132
0
LINE
8
BLACK
6
CONTINUOUS
10
1.23346
20
0.878132
11
1.23522
21
0.874161
0
LINE
8
BLACK
6
CONTINUOUS
10
1.23522
20
0.874161
11
1.23553
21
0.871457
0
LINE
8
BLACK
6
CONTINUOUS
10
1.23553
20
0.871457
11
1.23553
21
0.863583
0
LINE
8
BLACK
6
CONTINUOUS
10
1.23553
20
0.863583
11
1.23522
21
0.860879
0
LINE
8
BLACK
6
CONTINUOUS
10
1.23522
20
0.860879
11
1.23346
21
0.856908
0
LINE
8
BLACK
6
CONTINUOUS
10
1.23346
20
0.856908
11
1.23128
21
0.854724
0
LINE
8
BLACK
6
CONTINUOUS
10
1.23128
20
0.854724
11
1.23346
21
0.852541
0
LINE
8
BLACK
6
CONTINUOUS
10
1.23346
20
0.852541
11
1.23522
21
0.84857
0
LINE
8
BLACK
6
CONTINUOUS
10
1.23522
20
0.84857
11
1.23553
21
0.845866
0
LINE
8
BLACK
6
CONTINUOUS
10
1.23553
20
0.845866
11
1.23553
21
0.837992
0
LINE
8
BLACK
6
CONTINUOUS
10
1.23553
20
0.837992
11
1.23522
21
0.835288
0
LINE
8
BLACK
6
CONTINUOUS
10
1.23522
20
0.835288
11
1.23346
21
0.831317
0
LINE
8
BLACK
6
CONTINUOUS
10
1.23346
20
0.831317
11
1.23128
21
0.829134
0
LINE
8
BLACK
6
CONTINUOUS
10
1.23128
20
0.829134
11
1.23346
21
0.82695
0
LINE
8
BLACK
6
CONTINUOUS
10
1.23346
20
0.82695
11
1.23522
21
0.82298
0
LINE
8
BLACK
6
CONTINUOUS
10
1.23522
20
0.82298
11
1.23553
21
0.820276
0
LINE
8
BLACK
6
CONTINUOUS
10
1.23553
20
0.820276
11
1.23553
21
0.812402
0
LINE
8
BLACK
6
CONTINUOUS
10
1.23553
20
0.812402
11
1.23522
21
0.809697
0
LINE
8
BLACK
6
CONTINUOUS
10
1.23522
20
0.809697
11
1.23346
21
0.805727
0
LINE
8
BLACK
6
CONTINUOUS
10
1.23346
20
0.805727
11
1.23128
21
0.803543
0
LINE
8
BLACK
6
CONTINUOUS
10
1.23128
20
0.803543
11
1.23346
21
0.80136
0
LINE
8
BLACK
6
CONTINUOUS
10
1.23346
20
0.80136
11
1.23522
21
0.797389
0
LINE
8
BLACK
6
CONTINUOUS
10
1.23522
20
0.797389
11
1.23553
21
0.794685
0
LINE
8
BLACK
6
CONTINUOUS
10
1.23553
20
0.794685
11
1.23553
21
0.786811
0
LINE
8
BLACK
6
CONTINUOUS
10
1.23553
20
0.786811
11
1.23522
21
0.784107
0
LINE
8
BLACK
6
CONTINUOUS
10
1.23522
20
0.784107
11
1.23346
21
0.780136
0
LINE
8
BLACK
6
CONTINUOUS
10
1.23346
20
0.780136
11
1.23128
21
0.777953
0
LINE
8
BLACK
6
CONTINUOUS
10
1.23128
20
0.777953
11
1.23346
21
0.775769
0
LINE
8
BLACK
6
CONTINUOUS
10
1.23346
20
0.775769
11
1.23522
21
0.771799
0
LINE
8
BLACK
6
CONTINUOUS
10
1.23522
20
0.771799
11
1.23553
21
0.769094
0
LINE
8
BLACK
6
CONTINUOUS
10
1.23553
20
0.769094
11
1.23553
21
0.76122
0
LINE
8
BLACK
6
CONTINUOUS
10
1.23553
20
0.76122
11
1.23522
21
0.758516
0
LINE
8
BLACK
6
CONTINUOUS
10
1.23522
20
0.758516
11
1.23346
21
0.754546
0
LINE
8
BLACK
6
CONTINUOUS
10
1.23346
20
0.754546
11
1.23128
21
0.752362
0
LINE
8
BLACK
6
CONTINUOUS
10
1.23128
20
0.752362
11
1.23346
21
0.750179
0
LINE
8
BLACK
6
CONTINUOUS
10
1.23346
20
0.750179
11
1.23522
21
0.746208
0
LINE
8
BLACK
6
CONTINUOUS
10
1.23522
20
0.746208
11
1.23553
21
0.743504
0
LINE
8
BLACK
6
CONTINUOUS
10
1.23553
20
0.743504
11
1.23553
21
0.73563
0
LINE
8
BLACK
6
CONTINUOUS
10
1.23553
20
0.73563
11
1.23522
21
0.732926
0
LINE
8
BLACK
6
CONTINUOUS
10
1.23522
20
0.732926
11
1.23346
21
0.728955
0
LINE
8
BLACK
6
CONTINUOUS
10
1.23346
20
0.728955
11
1.23128
21
0.726772
0
LINE
8
BLACK
6
CONTINUOUS
10
1.23128
20
0.726772
11
1.23346
21
0.724588
0
LINE
8
BLACK
6
CONTINUOUS
10
1.23346
20
0.724588
11
1.23522
21
0.720618
0
LINE
8
BLACK
6
CONTINUOUS
10
1.23522
20
0.720618
11
1.23553
21
0.717913
0
LINE
8
BLACK
6
CONTINUOUS
10
1.23553
20
0.717913
11
1.23553
21
0.710039
0
LINE
8
BLACK
6
CONTINUOUS
10
1.23553
20
0.710039
11
1.23522
21
0.707335
0
LINE
8
BLACK
6
CONTINUOUS
10
1.23522
20
0.707335
11
1.23346
21
0.703365
0
LINE
8
BLACK
6
CONTINUOUS
10
1.23346
20
0.703365
11
1.23128
21
0.701181
0
LINE
8
BLACK
6
CONTINUOUS
10
1.23128
20
0.701181
11
1.23346
21
0.698998
0
LINE
8
BLACK
6
CONTINUOUS
10
1.23346
20
0.698998
11
1.23522
21
0.695027
0
LINE
8
BLACK
6
CONTINUOUS
10
1.23522
20
0.695027
11
1.23553
21
0.692323
0
LINE
8
BLACK
6
CONTINUOUS
10
1.23553
20
0.692323
11
1.23553
21
0.684449
0
LINE
8
BLACK
6
CONTINUOUS
10
1.23553
20
0.684449
11
1.23522
21
0.681745
0
LINE
8
BLACK
6
CONTINUOUS
10
1.23522
20
0.681745
11
1.23346
21
0.677774
0
LINE
8
BLACK
6
CONTINUOUS
10
1.23346
20
0.677774
11
1.2304
21
0.674705
0
LINE
8
BLACK
6
CONTINUOUS
10
1.2304
20
0.674705
11
1.22642
21
0.672952
0
LINE
8
BLACK
6
CONTINUOUS
10
1.22642
20
0.672952
11
1.22372
21
0.672638
0
LINE
8
BLACK
6
CONTINUOUS
10
1.22372
20
0.672638
11
1.17352
21
0.672638
0
LINE
8
BLACK
6
CONTINUOUS
10
1.17352
20
0.672638
11
1.17082
21
0.672952
0
LINE
8
BLACK
6
CONTINUOUS
10
1.17082
20
0.672952
11
1.16685
21
0.674705
0
LINE
8
BLACK
6
CONTINUOUS
10
1.16685
20
0.674705
11
1.16378
21
0.677774
0
LINE
8
BLACK
6
CONTINUOUS
10
1.16378
20
0.677774
11
1.16203
21
0.681745
0
LINE
8
BLACK
6
CONTINUOUS
10
1.16203
20
0.681745
11
1.16171
21
0.684449
0
LINE
8
BLACK
6
CONTINUOUS
10
1.16171
20
0.684449
11
1.16171
21
0.692323
0
LINE
8
BLACK
6
CONTINUOUS
10
1.16171
20
0.692323
11
1.16203
21
0.695027
0
LINE
8
BLACK
6
CONTINUOUS
10
1.16203
20
0.695027
11
1.16378
21
0.698998
0
LINE
8
BLACK
6
CONTINUOUS
10
1.16378
20
0.698998
11
1.16596
21
0.701181
0
LINE
8
BLACK
6
CONTINUOUS
10
1.16596
20
0.701181
11
1.16378
21
0.703365
0
LINE
8
BLACK
6
CONTINUOUS
10
1.16378
20
0.703365
11
1.16203
21
0.707335
0
LINE
8
BLACK
6
CONTINUOUS
10
1.16203
20
0.707335
11
1.16171
21
0.710039
0
LINE
8
BLACK
6
CONTINUOUS
10
1.16171
20
0.710039
11
1.16171
21
0.717913
0
LINE
8
BLACK
6
CONTINUOUS
10
1.16171
20
0.717913
11
1.16203
21
0.720618
0
LINE
8
BLACK
6
CONTINUOUS
10
1.16203
20
0.720618
11
1.16378
21
0.724588
0
LINE
8
BLACK
6
CONTINUOUS
10
1.16378
20
0.724588
11
1.16596
21
0.726772
0
LINE
8
BLACK
6
CONTINUOUS
10
1.16596
20
0.726772
11
1.16378
21
0.728955
0
LINE
8
BLACK
6
CONTINUOUS
10
1.16378
20
0.728955
11
1.16203
21
0.732926
0
LINE
8
BLACK
6
CONTINUOUS
10
1.16203
20
0.732926
11
1.16171
21
0.73563
0
LINE
8
BLACK
6
CONTINUOUS
10
1.16171
20
0.73563
11
1.16171
21
0.743504
0
LINE
8
BLACK
6
CONTINUOUS
10
1.16171
20
0.743504
11
1.16203
21
0.746208
0
LINE
8
BLACK
6
CONTINUOUS
10
1.16203
20
0.746208
11
1.16378
21
0.750179
0
LINE
8
BLACK
6
CONTINUOUS
10
1.16378
20
0.750179
11
1.16596
21
0.752362
0
LINE
8
BLACK
6
CONTINUOUS
10
1.16596
20
0.752362
11
1.16378
21
0.754546
0
LINE
8
BLACK
6
CONTINUOUS
10
1.16378
20
0.754546
11
1.16203
21
0.758516
0
LINE
8
BLACK
6
CONTINUOUS
10
1.16203
20
0.758516
11
1.16171
21
0.76122
0
LINE
8
BLACK
6
CONTINUOUS
10
1.16171
20
0.76122
11
1.16171
21
0.769094
0
LINE
8
BLACK
6
CONTINUOUS
10
1.16171
20
0.769094
11
1.16203
21
0.771799
0
LINE
8
BLACK
6
CONTINUOUS
10
1.16203
20
0.771799
11
1.16378
21
0.775769
0
LINE
8
BLACK
6
CONTINUOUS
10
1.16378
20
0.775769
11
1.16596
21
0.777953
0
LINE
8
BLACK
6
CONTINUOUS
10
1.16596
20
0.777953
11
1.16378
21
0.780136
0
LINE
8
BLACK
6
CONTINUOUS
10
1.16378
20
0.780136
11
1.16203
21
0.784107
0
LINE
8
BLACK
6
CONTINUOUS
10
1.16203
20
0.784107
11
1.16171
21
0.786811
0
LINE
8
BLACK
6
CONTINUOUS
10
1.16171
20
0.786811
11
1.16171
21
0.794685
0
LINE
8
BLACK
6
CONTINUOUS
10
1.16171
20
0.794685
11
1.16203
21
0.797389
0
LINE
8
BLACK
6
CONTINUOUS
10
1.16203
20
0.797389
11
1.16378
21
0.80136
0
LINE
8
BLACK
6
CONTINUOUS
10
1.16378
20
0.80136
11
1.16596
21
0.803543
0
LINE
8
BLACK
6
CONTINUOUS
10
1.16596
20
0.803543
11
1.16378
21
0.805727
0
LINE
8
BLACK
6
CONTINUOUS
10
1.16378
20
0.805727
11
1.16203
21
0.809697
0
LINE
8
BLACK
6
CONTINUOUS
10
1.16203
20
0.809697
11
1.16171
21
0.812402
0
LINE
8
BLACK
6
CONTINUOUS
10
1.16171
20
0.812402
11
1.16171
21
0.820276
0
LINE
8
BLACK
6
CONTINUOUS
10
1.16171
20
0.820276
11
1.16203
21
0.82298
0
LINE
8
BLACK
6
CONTINUOUS
10
1.16203
20
0.82298
11
1.16378
21
0.82695
0
LINE
8
BLACK
6
CONTINUOUS
10
1.16378
20
0.82695
11
1.16596
21
0.829134
0
LINE
8
BLACK
6
CONTINUOUS
10
1.16596
20
0.829134
11
1.16378
21
0.831317
0
LINE
8
BLACK
6
CONTINUOUS
10
1.16378
20
0.831317
11
1.16203
21
0.835288
0
LINE
8
BLACK
6
CONTINUOUS
10
1.16203
20
0.835288
11
1.16171
21
0.837992
0
LINE
8
BLACK
6
CONTINUOUS
10
1.16171
20
0.837992
11
1.16171
21
0.845866
0
LINE
8
BLACK
6
CONTINUOUS
10
1.16171
20
0.845866
11
1.16203
21
0.84857
0
LINE
8
BLACK
6
CONTINUOUS
10
1.16203
20
0.84857
11
1.16378
21
0.852541
0
LINE
8
BLACK
6
CONTINUOUS
10
1.16378
20
0.852541
11
1.16596
21
0.854724
0
LINE
8
BLACK
6
CONTINUOUS
10
1.16596
20
0.854724
11
1.16378
21
0.856908
0
LINE
8
BLACK
6
CONTINUOUS
10
1.16378
20
0.856908
11
1.16203
21
0.860879
0
LINE
8
BLACK
6
CONTINUOUS
10
1.16203
20
0.860879
11
1.16171
21
0.863583
0
LINE
8
BLACK
6
CONTINUOUS
10
1.16171
20
0.863583
11
1.16171
21
0.871457
0
LINE
8
BLACK
6
CONTINUOUS
10
1.16171
20
0.871457
11
1.16203
21
0.874161
0
LINE
8
BLACK
6
CONTINUOUS
10
1.16203
20
0.874161
11
1.16378
21
0.878132
0
LINE
8
BLACK
6
CONTINUOUS
10
1.16378
20
0.878132
11
1.16596
21
0.880315
0
LINE
8
BLACK
6
CONTINUOUS
10
1.16596
20
0.880315
11
1.16378
21
0.882498
0
LINE
8
BLACK
6
CONTINUOUS
10
1.16378
20
0.882498
11
1.16203
21
0.886469
0
LINE
8
BLACK
6
CONTINUOUS
10
1.16203
20
0.886469
11
1.16171
21
0.889173
0
LINE
8
BLACK
6
CONTINUOUS
10
1.16171
20
0.889173
11
1.16171
21
0.897047
0
LINE
8
BLACK
6
CONTINUOUS
10
1.16171
20
0.897047
11
1.16203
21
0.899751
0
LINE
8
BLACK
6
CONTINUOUS
10
1.16203
20
0.899751
11
1.16378
21
0.903722
0
LINE
8
BLACK
6
CONTINUOUS
10
1.16378
20
0.903722
11
1.16596
21
0.905906
0
LINE
8
BLACK
6
CONTINUOUS
10
1.16596
20
0.905906
11
1.16378
21
0.908089
0
LINE
8
BLACK
6
CONTINUOUS
10
1.16378
20
0.908089
11
1.16203
21
0.91206
0
LINE
8
BLACK
6
CONTINUOUS
10
1.16203
20
0.91206
11
1.16171
21
0.914764
0
LINE
8
BLACK
6
CONTINUOUS
10
1.16171
20
0.914764
11
1.16171
21
0.922638
0
LINE
8
BLACK
6
CONTINUOUS
10
1.16171
20
0.922638
11
1.16203
21
0.925342
0
LINE
8
BLACK
6
CONTINUOUS
10
1.16203
20
0.925342
11
1.16378
21
0.929313
0
LINE
8
BLACK
6
CONTINUOUS
10
1.16378
20
0.929313
11
1.16596
21
0.931496
0
LINE
8
BLACK
6
CONTINUOUS
10
1.16596
20
0.931496
11
1.16378
21
0.933679
0
LINE
8
BLACK
6
CONTINUOUS
10
1.16378
20
0.933679
11
1.16203
21
0.93765
0
LINE
8
BLACK
6
CONTINUOUS
10
1.16203
20
0.93765
11
1.16171
21
0.940354
0
LINE
8
BLACK
6
CONTINUOUS
10
1.16171
20
0.940354
11
1.16171
21
0.948228
0
LINE
8
BLACK
6
CONTINUOUS
10
1.16171
20
0.948228
11
1.16203
21
0.950932
0
LINE
8
BLACK
6
CONTINUOUS
10
1.16203
20
0.950932
11
1.16378
21
0.954903
0
LINE
8
BLACK
6
CONTINUOUS
10
1.16378
20
0.954903
11
1.16596
21
0.957087
0
LINE
8
BLACK
6
CONTINUOUS
10
1.16596
20
0.957087
11
1.16378
21
0.95927
0
LINE
8
BLACK
6
CONTINUOUS
10
1.16378
20
0.95927
11
1.16203
21
0.963241
0
LINE
8
BLACK
6
CONTINUOUS
10
1.16203
20
0.963241
11
1.16171
21
0.965945
0
LINE
8
BLACK
6
CONTINUOUS
10
1.16171
20
0.965945
11
1.16171
21
0.973819
0
LINE
8
BLACK
6
CONTINUOUS
10
1.16171
20
0.973819
11
1.16203
21
0.976523
0
LINE
8
BLACK
6
CONTINUOUS
10
1.16203
20
0.976523
11
1.16378
21
0.980494
0
LINE
8
BLACK
6
CONTINUOUS
10
1.16378
20
0.980494
11
1.16685
21
0.983563
0
LINE
8
BLACK
6
CONTINUOUS
10
1.16685
20
0.983563
11
1.17082
21
0.985316
0
LINE
8
BLACK
6
CONTINUOUS
10
1.17082
20
0.985316
11
1.17352
21
0.98563
0
LINE
8
BLACK
6
CONTINUOUS
10
1.17352
20
0.98563
11
1.22372
21
0.98563
0
LINE
8
BLACK
6
CONTINUOUS
10
1.22372
20
0.98563
11
1.22642
21
0.985316
0
LINE
8
BLACK
6
CONTINUOUS
10
1.45182
20
0.985316
11
1.45579
21
0.983563
0
LINE
8
BLACK
6
CONTINUOUS
10
1.45579
20
0.983563
11
1.45886
21
0.980494
0
LINE
8
BLACK
6
CONTINUOUS
10
1.45886
20
0.980494
11
1.46061
21
0.976523
0
LINE
8
BLACK
6
CONTINUOUS
10
1.46061
20
0.976523
11
1.46093
21
0.973819
0
LINE
8
BLACK
6
CONTINUOUS
10
1.46093
20
0.973819
11
1.46093
21
0.965945
0
LINE
8
BLACK
6
CONTINUOUS
10
1.46093
20
0.965945
11
1.46061
21
0.963241
0
LINE
8
BLACK
6
CONTINUOUS
10
1.46061
20
0.963241
11
1.45886
21
0.95927
0
LINE
8
BLACK
6
CONTINUOUS
10
1.45886
20
0.95927
11
1.45667
21
0.957087
0
LINE
8
BLACK
6
CONTINUOUS
10
1.45667
20
0.957087
11
1.45886
21
0.954903
0
LINE
8
BLACK
6
CONTINUOUS
10
1.45886
20
0.954903
11
1.46061
21
0.950932
0
LINE
8
BLACK
6
CONTINUOUS
10
1.46061
20
0.950932
11
1.46093
21
0.948228
0
LINE
8
BLACK
6
CONTINUOUS
10
1.46093
20
0.948228
11
1.46093
21
0.940354
0
LINE
8
BLACK
6
CONTINUOUS
10
1.46093
20
0.940354
11
1.46061
21
0.93765
0
LINE
8
BLACK
6
CONTINUOUS
10
1.46061
20
0.93765
11
1.45886
21
0.933679
0
LINE
8
BLACK
6
CONTINUOUS
10
1.45886
20
0.933679
11
1.45667
21
0.931496
0
LINE
8
BLACK
6
CONTINUOUS
10
1.45667
20
0.931496
11
1.45886
21
0.929313
0
LINE
8
BLACK
6
CONTINUOUS
10
1.45886
20
0.929313
11
1.46061
21
0.925342
0
LINE
8
BLACK
6
CONTINUOUS
10
1.46061
20
0.925342
11
1.46093
21
0.922638
0
LINE
8
BLACK
6
CONTINUOUS
10
1.46093
20
0.922638
11
1.46093
21
0.914764
0
LINE
8
BLACK
6
CONTINUOUS
10
1.46093
20
0.914764
11
1.46061
21
0.91206
0
LINE
8
BLACK
6
CONTINUOUS
10
1.46061
20
0.91206
11
1.45886
21
0.908089
0
LINE
8
BLACK
6
CONTINUOUS
10
1.45886
20
0.908089
11
1.45667
21
0.905906
0
LINE
8
BLACK
6
CONTINUOUS
10
1.45667
20
0.905906
11
1.45886
21
0.903722
0
LINE
8
BLACK
6
CONTINUOUS
10
1.45886
20
0.903722
11
1.46061
21
0.899751
0
LINE
8
BLACK
6
CONTINUOUS
10
1.46061
20
0.899751
11
1.46093
21
0.897047
0
LINE
8
BLACK
6
CONTINUOUS
10
1.46093
20
0.897047
11
1.46093
21
0.889173
0
LINE
8
BLACK
6
CONTINUOUS
10
1.46093
20
0.889173
11
1.46061
21
0.886469
0
LINE
8
BLACK
6
CONTINUOUS
10
1.46061
20
0.886469
11
1.45886
21
0.882498
0
LINE
8
BLACK
6
CONTINUOUS
10
1.45886
20
0.882498
11
1.45667
21
0.880315
0
LINE
8
BLACK
6
CONTINUOUS
10
1.45667
20
0.880315
11
1.45886
21
0.878132
0
LINE
8
BLACK
6
CONTINUOUS
10
1.45886
20
0.878132
11
1.46061
21
0.874161
0
LINE
8
BLACK
6
CONTINUOUS
10
1.46061
20
0.874161
11
1.46093
21
0.871457
0
LINE
8
BLACK
6
CONTINUOUS
10
1.46093
20
0.871457
11
1.46093
21
0.863583
0
LINE
8
BLACK
6
CONTINUOUS
10
1.46093
20
0.863583
11
1.46061
21
0.860879
0
LINE
8
BLACK
6
CONTINUOUS
10
1.46061
20
0.860879
11
1.45886
21
0.856908
0
LINE
8
BLACK
6
CONTINUOUS
10
1.45886
20
0.856908
11
1.45667
21
0.854724
0
LINE
8
BLACK
6
CONTINUOUS
10
1.45667
20
0.854724
11
1.45886
21
0.852541
0
LINE
8
BLACK
6
CONTINUOUS
10
1.45886
20
0.852541
11
1.46061
21
0.84857
0
LINE
8
BLACK
6
CONTINUOUS
10
1.46061
20
0.84857
11
1.46093
21
0.845866
0
LINE
8
BLACK
6
CONTINUOUS
10
1.46093
20
0.845866
11
1.46093
21
0.837992
0
LINE
8
BLACK
6
CONTINUOUS
10
1.46093
20
0.837992
11
1.46061
21
0.835288
0
LINE
8
BLACK
6
CONTINUOUS
10
1.46061
20
0.835288
11
1.45886
21
0.831317
0
LINE
8
BLACK
6
CONTINUOUS
10
1.45886
20
0.831317
11
1.45667
21
0.829134
0
LINE
8
BLACK
6
CONTINUOUS
10
1.45667
20
0.829134
11
1.45886
21
0.82695
0
LINE
8
BLACK
6
CONTINUOUS
10
1.45886
20
0.82695
11
1.46061
21
0.82298
0
LINE
8
BLACK
6
CONTINUOUS
10
1.46061
20
0.82298
11
1.46093
21
0.820276
0
LINE
8
BLACK
6
CONTINUOUS
10
1.46093
20
0.820276
11
1.46093
21
0.812402
0
LINE
8
BLACK
6
CONTINUOUS
10
1.46093
20
0.812402
11
1.46061
21
0.809697
0
LINE
8
BLACK
6
CONTINUOUS
10
1.46061
20
0.809697
11
1.45886
21
0.805727
0
LINE
8
BLACK
6
CONTINUOUS
10
1.45886
20
0.805727
11
1.45667
21
0.803543
0
LINE
8
BLACK
6
CONTINUOUS
10
1.45667
20
0.803543
11
1.45886
21
0.80136
0
LINE
8
BLACK
6
CONTINUOUS
10
1.45886
20
0.80136
11
1.46061
21
0.797389
0
LINE
8
BLACK
6
CONTINUOUS
10
1.46061
20
0.797389
11
1.46093
21
0.794685
0
LINE
8
BLACK
6
CONTINUOUS
10
1.46093
20
0.794685
11
1.46093
21
0.786811
0
LINE
8
BLACK
6
CONTINUOUS
10
1.46093
20
0.786811
11
1.46061
21
0.784107
0
LINE
8
BLACK
6
CONTINUOUS
10
1.46061
20
0.784107
11
1.45886
21
0.780136
0
LINE
8
BLACK
6
CONTINUOUS
10
1.45886
20
0.780136
11
1.45667
21
0.777953
0
LINE
8
BLACK
6
CONTINUOUS
10
1.45667
20
0.777953
11
1.45886
21
0.775769
0
LINE
8
BLACK
6
CONTINUOUS
10
1.45886
20
0.775769
11
1.46061
21
0.771799
0
LINE
8
BLACK
6
CONTINUOUS
10
1.46061
20
0.771799
11
1.46093
21
0.769094
0
LINE
8
BLACK
6
CONTINUOUS
10
1.46093
20
0.769094
11
1.46093
21
0.76122
0
LINE
8
BLACK
6
CONTINUOUS
10
1.46093
20
0.76122
11
1.46061
21
0.758516
0
LINE
8
BLACK
6
CONTINUOUS
10
1.46061
20
0.758516
11
1.45886
21
0.754546
0
LINE
8
BLACK
6
CONTINUOUS
10
1.45886
20
0.754546
11
1.45667
21
0.752362
0
LINE
8
BLACK
6
CONTINUOUS
10
1.45667
20
0.752362
11
1.45886
21
0.750179
0
LINE
8
BLACK
6
CONTINUOUS
10
1.45886
20
0.750179
11
1.46061
21
0.746208
0
LINE
8
BLACK
6
CONTINUOUS
10
1.46061
20
0.746208
11
1.46093
21
0.743504
0
LINE
8
BLACK
6
CONTINUOUS
10
1.46093
20
0.743504
11
1.46093
21
0.73563
0
LINE
8
BLACK
6
CONTINUOUS
10
1.46093
20
0.73563
11
1.46061
21
0.732926
0
LINE
8
BLACK
6
CONTINUOUS
10
1.46061
20
0.732926
11
1.45886
21
0.728955
0
LINE
8
BLACK
6
CONTINUOUS
10
1.45886
20
0.728955
11
1.45667
21
0.726772
0
LINE
8
BLACK
6
CONTINUOUS
10
1.45667
20
0.726772
11
1.45886
21
0.724588
0
LINE
8
BLACK
6
CONTINUOUS
10
1.45886
20
0.724588
11
1.46061
21
0.720618
0
LINE
8
BLACK
6
CONTINUOUS
10
1.46061
20
0.720618
11
1.46093
21
0.717913
0
LINE
8
BLACK
6
CONTINUOUS
10
1.46093
20
0.717913
11
1.46093
21
0.710039
0
LINE
8
BLACK
6
CONTINUOUS
10
1.46093
20
0.710039
11
1.46061
21
0.707335
0
LINE
8
BLACK
6
CONTINUOUS
10
1.46061
20
0.707335
11
1.45886
21
0.703365
0
LINE
8
BLACK
6
CONTINUOUS
10
1.45886
20
0.703365
11
1.45667
21
0.701181
0
LINE
8
BLACK
6
CONTINUOUS
10
1.45667
20
0.701181
11
1.45886
21
0.698998
0
LINE
8
BLACK
6
CONTINUOUS
10
1.45886
20
0.698998
11
1.46061
21
0.695027
0
LINE
8
BLACK
6
CONTINUOUS
10
1.46061
20
0.695027
11
1.46093
21
0.692323
0
LINE
8
BLACK
6
CONTINUOUS
10
1.46093
20
0.692323
11
1.46093
21
0.684449
0
LINE
8
BLACK
6
CONTINUOUS
10
1.46093
20
0.684449
11
1.46061
21
0.681745
0
LINE
8
BLACK
6
CONTINUOUS
10
1.46061
20
0.681745
11
1.45886
21
0.677774
0
LINE
8
BLACK
6
CONTINUOUS
10
1.45886
20
0.677774
11
1.45579
21
0.674705
0
LINE
8
BLACK
6
CONTINUOUS
10
1.45579
20
0.674705
11
1.45182
21
0.672952
0
LINE
8
BLACK
6
CONTINUOUS
10
1.45182
20
0.672952
11
1.44911
21
0.672638
0
LINE
8
BLACK
6
CONTINUOUS
10
1.44911
20
0.672638
11
1.39892
21
0.672638
0
LINE
8
BLACK
6
CONTINUOUS
10
1.39892
20
0.672638
11
1.39621
21
0.672952
0
LINE
8
BLACK
6
CONTINUOUS
10
1.39621
20
0.672952
11
1.39224
21
0.674705
0
LINE
8
BLACK
6
CONTINUOUS
10
1.39224
20
0.674705
11
1.38917
21
0.677774
0
LINE
8
BLACK
6
CONTINUOUS
10
1.38917
20
0.677774
11
1.38742
21
0.681745
0
LINE
8
BLACK
6
CONTINUOUS
10
1.38742
20
0.681745
11
1.38711
21
0.684449
0
LINE
8
BLACK
6
CONTINUOUS
10
1.38711
20
0.684449
11
1.38711
21
0.692323
0
LINE
8
BLACK
6
CONTINUOUS
10
1.38711
20
0.692323
11
1.38742
21
0.695027
0
LINE
8
BLACK
6
CONTINUOUS
10
1.38742
20
0.695027
11
1.38917
21
0.698998
0
LINE
8
BLACK
6
CONTINUOUS
10
1.38917
20
0.698998
11
1.39136
21
0.701181
0
LINE
8
BLACK
6
CONTINUOUS
10
1.39136
20
0.701181
11
1.38917
21
0.703365
0
LINE
8
BLACK
6
CONTINUOUS
10
1.38917
20
0.703365
11
1.38742
21
0.707335
0
LINE
8
BLACK
6
CONTINUOUS
10
1.38742
20
0.707335
11
1.38711
21
0.710039
0
LINE
8
BLACK
6
CONTINUOUS
10
1.38711
20
0.710039
11
1.38711
21
0.717913
0
LINE
8
BLACK
6
CONTINUOUS
10
1.38711
20
0.717913
11
1.38742
21
0.720618
0
LINE
8
BLACK
6
CONTINUOUS
10
1.38742
20
0.720618
11
1.38917
21
0.724588
0
LINE
8
BLACK
6
CONTINUOUS
10
1.38917
20
0.724588
11
1.39136
21
0.726772
0
LINE
8
BLACK
6
CONTINUOUS
10
1.39136
20
0.726772
11
1.38917
21
0.728955
0
LINE
8
BLACK
6
CONTINUOUS
10
1.38917
20
0.728955
11
1.38742
21
0.732926
0
LINE
8
BLACK
6
CONTINUOUS
10
1.38742
20
0.732926
11
1.38711
21
0.73563
0
LINE
8
BLACK
6
CONTINUOUS
10
1.38711
20
0.73563
11
1.38711
21
0.743504
0
LINE
8
BLACK
6
CONTINUOUS
10
1.38711
20
0.743504
11
1.38742
21
0.746208
0
LINE
8
BLACK
6
CONTINUOUS
10
1.38742
20
0.746208
11
1.38917
21
0.750179
0
LINE
8
BLACK
6
CONTINUOUS
10
1.38917
20
0.750179
11
1.39136
21
0.752362
0
LINE
8
BLACK
6
CONTINUOUS
10
1.39136
20
0.752362
11
1.38917
21
0.754546
0
LINE
8
BLACK
6
CONTINUOUS
10
1.38917
20
0.754546
11
1.38742
21
0.758516
0
LINE
8
BLACK
6
CONTINUOUS
10
1.38742
20
0.758516
11
1.38711
21
0.76122
0
LINE
8
BLACK
6
CONTINUOUS
10
1.38711
20
0.76122
11
1.38711
21
0.769094
0
LINE
8
BLACK
6
CONTINUOUS
10
1.38711
20
0.769094
11
1.38742
21
0.771799
0
LINE
8
BLACK
6
CONTINUOUS
10
1.38742
20
0.771799
11
1.38917
21
0.775769
0
LINE
8
BLACK
6
CONTINUOUS
10
1.38917
20
0.775769
11
1.39136
21
0.777953
0
LINE
8
BLACK
6
CONTINUOUS
10
1.39136
20
0.777953
11
1.38917
21
0.780136
0
LINE
8
BLACK
6
CONTINUOUS
10
1.38917
20
0.780136
11
1.38742
21
0.784107
0
LINE
8
BLACK
6
CONTINUOUS
10
1.38742
20
0.784107
11
1.38711
21
0.786811
0
LINE
8
BLACK
6
CONTINUOUS
10
1.38711
20
0.786811
11
1.38711
21
0.794685
0
LINE
8
BLACK
6
CONTINUOUS
10
1.38711
20
0.794685
11
1.38742
21
0.797389
0
LINE
8
BLACK
6
CONTINUOUS
10
1.38742
20
0.797389
11
1.38917
21
0.80136
0
LINE
8
BLACK
6
CONTINUOUS
10
1.38917
20
0.80136
11
1.39136
21
0.803543
0
LINE
8
BLACK
6
CONTINUOUS
10
1.39136
20
0.803543
11
1.38917
21
0.805727
0
LINE
8
BLACK
6
CONTINUOUS
10
1.38917
20
0.805727
11
1.38742
21
0.809697
0
LINE
8
BLACK
6
CONTINUOUS
10
1.38742
20
0.809697
11
1.38711
21
0.812402
0
LINE
8
BLACK
6
CONTINUOUS
10
1.38711
20
0.812402
11
1.38711
21
0.820276
0
LINE
8
BLACK
6
CONTINUOUS
10
1.38711
20
0.820276
11
1.38742
21
0.82298
0
LINE
8
BLACK
6
CONTINUOUS
10
1.38742
20
0.82298
11
1.38917
21
0.82695
0
LINE
8
BLACK
6
CONTINUOUS
10
1.38917
20
0.82695
11
1.39136
21
0.829134
0
LINE
8
BLACK
6
CONTINUOUS
10
1.39136
20
0.829134
11
1.38917
21
0.831317
0
LINE
8
BLACK
6
CONTINUOUS
10
1.38917
20
0.831317
11
1.38742
21
0.835288
0
LINE
8
BLACK
6
CONTINUOUS
10
1.38742
20
0.835288
11
1.38711
21
0.837992
0
LINE
8
BLACK
6
CONTINUOUS
10
1.38711
20
0.837992
11
1.38711
21
0.845866
0
LINE
8
BLACK
6
CONTINUOUS
10
1.38711
20
0.845866
11
1.38742
21
0.84857
0
LINE
8
BLACK
6
CONTINUOUS
10
1.38742
20
0.84857
11
1.38917
21
0.852541
0
LINE
8
BLACK
6
CONTINUOUS
10
1.38917
20
0.852541
11
1.39136
21
0.854724
0
LINE
8
BLACK
6
CONTINUOUS
10
1.39136
20
0.854724
11
1.38917
21
0.856908
0
LINE
8
BLACK
6
CONTINUOUS
10
1.38917
20
0.856908
11
1.38742
21
0.860879
0
LINE
8
BLACK
6
CONTINUOUS
10
1.38742
20
0.860879
11
1.38711
21
0.863583
0
LINE
8
BLACK
6
CONTINUOUS
10
1.38711
20
0.863583
11
1.38711
21
0.871457
0
LINE
8
BLACK
6
CONTINUOUS
10
1.38711
20
0.871457
11
1.38742
21
0.874161
0
LINE
8
BLACK
6
CONTINUOUS
10
1.38742
20
0.874161
11
1.38917
21
0.878132
0
LINE
8
BLACK
6
CONTINUOUS
10
1.38917
20
0.878132
11
1.39136
21
0.880315
0
LINE
8
BLACK
6
CONTINUOUS
10
1.39136
20
0.880315
11
1.38917
21
0.882498
0
LINE
8
BLACK
6
CONTINUOUS
10
1.38917
20
0.882498
11
1.38742
21
0.886469
0
LINE
8
BLACK
6
CONTINUOUS
10
1.38742
20
0.886469
11
1.38711
21
0.889173
0
LINE
8
BLACK
6
CONTINUOUS
10
1.38711
20
0.889173
11
1.38711
21
0.897047
0
LINE
8
BLACK
6
CONTINUOUS
10
1.38711
20
0.897047
11
1.38742
21
0.899751
0
LINE
8
BLACK
6
CONTINUOUS
10
1.38742
20
0.899751
11
1.38917
21
0.903722
0
LINE
8
BLACK
6
CONTINUOUS
10
1.38917
20
0.903722
11
1.39136
21
0.905906
0
LINE
8
BLACK
6
CONTINUOUS
10
1.39136
20
0.905906
11
1.38917
21
0.908089
0
LINE
8
BLACK
6
CONTINUOUS
10
1.38917
20
0.908089
11
1.38742
21
0.91206
0
LINE
8
BLACK
6
CONTINUOUS
10
1.38742
20
0.91206
11
1.38711
21
0.914764
0
LINE
8
BLACK
6
CONTINUOUS
10
1.38711
20
0.914764
11
1.38711
21
0.922638
0
LINE
8
BLACK
6
CONTINUOUS
10
1.38711
20
0.922638
11
1.38742
21
0.925342
0
LINE
8
BLACK
6
CONTINUOUS
10
1.38742
20
0.925342
11
1.38917
21
0.929313
0
LINE
8
BLACK
6
CONTINUOUS
10
1.38917
20
0.929313
11
1.39136
21
0.931496
0
LINE
8
BLACK
6
CONTINUOUS
10
1.39136
20
0.931496
11
1.38917
21
0.933679
0
LINE
8
BLACK
6
CONTINUOUS
10
1.38917
20
0.933679
11
1.38742
21
0.93765
0
LINE
8
BLACK
6
CONTINUOUS
10
1.38742
20
0.93765
11
1.38711
21
0.940354
0
LINE
8
BLACK
6
CONTINUOUS
10
1.38711
20
0.940354
11
1.38711
21
0.948228
0
LINE
8
BLACK
6
CONTINUOUS
10
1.38711
20
0.948228
11
1.38742
21
0.950932
0
LINE
8
BLACK
6
CONTINUOUS
10
1.38742
20
0.950932
11
1.38917
21
0.954903
0
LINE
8
BLACK
6
CONTINUOUS
10
1.38917
20
0.954903
11
1.39136
21
0.957087
0
LINE
8
BLACK
6
CONTINUOUS
10
1.39136
20
0.957087
11
1.38917
21
0.95927
0
LINE
8
BLACK
6
CONTINUOUS
10
1.38917
20
0.95927
11
1.38742
21
0.963241
0
LINE
8
BLACK
6
CONTINUOUS
10
1.38742
20
0.963241
11
1.38711
21
0.965945
0
LINE
8
BLACK
6
CONTINUOUS
10
1.38711
20
0.965945
11
1.38711
21
0.973819
0
LINE
8
BLACK
6
CONTINUOUS
10
1.38711
20
0.973819
11
1.38742
21
0.976523
0
LINE
8
BLACK
6
CONTINUOUS
10
1.38742
20
0.976523
11
1.38917
21
0.980494
0
LINE
8
BLACK
6
CONTINUOUS
10
1.38917
20
0.980494
11
1.39224
21
0.983563
0
LINE
8
BLACK
6
CONTINUOUS
10
1.39224
20
0.983563
11
1.39621
21
0.985316
0
LINE
8
BLACK
6
CONTINUOUS
10
1.39621
20
0.985316
11
1.39892
21
0.98563
0
LINE
8
BLACK
6
CONTINUOUS
10
1.39892
20
0.98563
11
1.44911
21
0.98563
0
LINE
8
BLACK
6
CONTINUOUS
10
1.44911
20
0.98563
11
1.45182
21
0.985316
0
LINE
8
BLACK
6
CONTINUOUS
10
1.53951
20
0.747132
11
1.5445
21
0.745388
0
LINE
8
BLACK
6
CONTINUOUS
10
1.5445
20
0.745388
11
1.54875
21
0.742252
0
LINE
8
BLACK
6
CONTINUOUS
10
1.54875
20
0.742252
11
1.55188
21
0.738003
0
LINE
8
BLACK
6
CONTINUOUS
10
1.55188
20
0.738003
11
1.55363
21
0.733018
0
LINE
8
BLACK
6
CONTINUOUS
10
1.55363
20
0.733018
11
1.55394
21
0.729724
0
LINE
8
BLACK
6
CONTINUOUS
10
1.55394
20
0.729724
11
1.55394
21
0.692323
0
LINE
8
BLACK
6
CONTINUOUS
10
1.55394
20
0.692323
11
1.55363
21
0.689029
0
LINE
8
BLACK
6
CONTINUOUS
10
1.55363
20
0.689029
11
1.55188
21
0.684044
0
LINE
8
BLACK
6
CONTINUOUS
10
1.55188
20
0.684044
11
1.54875
21
0.679795
0
LINE
8
BLACK
6
CONTINUOUS
10
1.54875
20
0.679795
11
1.5445
21
0.676659
0
LINE
8
BLACK
6
CONTINUOUS
10
1.5445
20
0.676659
11
1.53951
21
0.674915
0
LINE
8
BLACK
6
CONTINUOUS
10
1.53951
20
0.674915
11
1.53622
21
0.674606
0
LINE
8
BLACK
6
CONTINUOUS
10
1.53622
20
0.674606
11
1.51654
21
0.674606
0
LINE
8
BLACK
6
CONTINUOUS
10
1.51654
20
0.674606
11
1.51324
21
0.674915
0
LINE
8
BLACK
6
CONTINUOUS
10
1.51324
20
0.674915
11
1.50826
21
0.676659
0
LINE
8
BLACK
6
CONTINUOUS
10
1.50826
20
0.676659
11
1.50401
21
0.679795
0
LINE
8
BLACK
6
CONTINUOUS
10
1.50401
20
0.679795
11
1.50087
21
0.684044
0
LINE
8
BLACK
6
CONTINUOUS
10
1.50087
20
0.684044
11
1.49913
21
0.689029
0
LINE
8
BLACK
6
CONTINUOUS
10
1.49913
20
0.689029
11
1.49882
21
0.692323
0
LINE
8
BLACK
6
CONTINUOUS
10
1.49882
20
0.692323
11
1.49882
21
0.729724
0
LINE
8
BLACK
6
CONTINUOUS
10
1.49882
20
0.729724
11
1.49913
21
0.733018
0
LINE
8
BLACK
6
CONTINUOUS
10
1.49913
20
0.733018
11
1.50087
21
0.738003
0
LINE
8
BLACK
6
CONTINUOUS
10
1.50087
20
0.738003
11
1.50401
21
0.742252
0
LINE
8
BLACK
6
CONTINUOUS
10
1.50401
20
0.742252
11
1.50826
21
0.745388
0
LINE
8
BLACK
6
CONTINUOUS
10
1.50826
20
0.745388
11
1.51324
21
0.747132
0
LINE
8
BLACK
6
CONTINUOUS
10
1.51324
20
0.747132
11
1.51654
21
0.747441
0
LINE
8
BLACK
6
CONTINUOUS
10
1.51654
20
0.747441
11
1.53622
21
0.747441
0
LINE
8
BLACK
6
CONTINUOUS
10
1.53622
20
0.747441
11
1.53951
21
0.747132
0
LINE
8
BLACK
6
CONTINUOUS
10
1.61432
20
0.747132
11
1.6193
21
0.745388
0
LINE
8
BLACK
6
CONTINUOUS
10
1.6193
20
0.745388
11
1.62355
21
0.742252
0
LINE
8
BLACK
6
CONTINUOUS
10
1.62355
20
0.742252
11
1.62669
21
0.738003
0
LINE
8
BLACK
6
CONTINUOUS
10
1.62669
20
0.738003
11
1.62843
21
0.733018
0
LINE
8
BLACK
6
CONTINUOUS
10
1.62843
20
0.733018
11
1.62874
21
0.729724
0
LINE
8
BLACK
6
CONTINUOUS
10
1.62874
20
0.729724
11
1.62874
21
0.692323
0
LINE
8
BLACK
6
CONTINUOUS
10
1.62874
20
0.692323
11
1.62843
21
0.689029
0
LINE
8
BLACK
6
CONTINUOUS
10
1.62843
20
0.689029
11
1.62669
21
0.684044
0
LINE
8
BLACK
6
CONTINUOUS
10
1.62669
20
0.684044
11
1.62355
21
0.679795
0
LINE
8
BLACK
6
CONTINUOUS
10
1.62355
20
0.679795
11
1.6193
21
0.676659
0
LINE
8
BLACK
6
CONTINUOUS
10
1.6193
20
0.676659
11
1.61432
21
0.674915
0
LINE
8
BLACK
6
CONTINUOUS
10
1.61432
20
0.674915
11
1.61102
21
0.674606
0
LINE
8
BLACK
6
CONTINUOUS
10
1.61102
20
0.674606
11
1.59134
21
0.674606
0
LINE
8
BLACK
6
CONTINUOUS
10
1.59134
20
0.674606
11
1.58804
21
0.674915
0
LINE
8
BLACK
6
CONTINUOUS
10
1.58804
20
0.674915
11
1.58306
21
0.676659
0
LINE
8
BLACK
6
CONTINUOUS
10
1.58306
20
0.676659
11
1.57881
21
0.679795
0
LINE
8
BLACK
6
CONTINUOUS
10
1.57881
20
0.679795
11
1.57568
21
0.684044
0
LINE
8
BLACK
6
CONTINUOUS
10
1.57568
20
0.684044
11
1.57393
21
0.689029
0
LINE
8
BLACK
6
CONTINUOUS
10
1.57393
20
0.689029
11
1.57362
21
0.692323
0
LINE
8
BLACK
6
CONTINUOUS
10
1.57362
20
0.692323
11
1.57362
21
0.729724
0
LINE
8
BLACK
6
CONTINUOUS
10
1.57362
20
0.729724
11
1.57393
21
0.733018
0
LINE
8
BLACK
6
CONTINUOUS
10
1.57393
20
0.733018
11
1.57568
21
0.738003
0
LINE
8
BLACK
6
CONTINUOUS
10
1.57568
20
0.738003
11
1.57881
21
0.742252
0
LINE
8
BLACK
6
CONTINUOUS
10
1.57881
20
0.742252
11
1.58306
21
0.745388
0
LINE
8
BLACK
6
CONTINUOUS
10
1.58306
20
0.745388
11
1.58804
21
0.747132
0
LINE
8
BLACK
6
CONTINUOUS
10
1.58804
20
0.747132
11
1.59134
21
0.747441
0
LINE
8
BLACK
6
CONTINUOUS
10
1.59134
20
0.747441
11
1.61102
21
0.747441
0
LINE
8
BLACK
6
CONTINUOUS
10
1.61102
20
0.747441
11
1.61432
21
0.747132
0
LINE
8
BLACK
6
CONTINUOUS
10
1.69621
20
0.763471
11
1.70119
21
0.761726
0
LINE
8
BLACK
6
CONTINUOUS
10
1.70119
20
0.761726
11
1.70544
21
0.75859
0
LINE
8
BLACK
6
CONTINUOUS
10
1.70544
20
0.75859
11
1.70858
21
0.754341
0
LINE
8
BLACK
6
CONTINUOUS
10
1.70858
20
0.754341
11
1.71032
21
0.749357
0
LINE
8
BLACK
6
CONTINUOUS
10
1.71032
20
0.749357
11
1.71063
21
0.746063
0
LINE
8
BLACK
6
CONTINUOUS
10
1.71063
20
0.746063
11
1.71063
21
0.726378
0
LINE
8
BLACK
6
CONTINUOUS
10
1.71063
20
0.726378
11
1.71032
21
0.723084
0
LINE
8
BLACK
6
CONTINUOUS
10
1.71032
20
0.723084
11
1.70858
21
0.7181
0
LINE
8
BLACK
6
CONTINUOUS
10
1.70858
20
0.7181
11
1.70544
21
0.71385
0
LINE
8
BLACK
6
CONTINUOUS
10
1.70544
20
0.71385
11
1.70119
21
0.710714
0
LINE
8
BLACK
6
CONTINUOUS
10
1.70119
20
0.710714
11
1.69621
21
0.70897
0
LINE
8
BLACK
6
CONTINUOUS
10
1.69621
20
0.70897
11
1.69291
21
0.708661
0
LINE
8
BLACK
6
CONTINUOUS
10
1.69291
20
0.708661
11
1.65551
21
0.708661
0
LINE
8
BLACK
6
CONTINUOUS
10
1.65551
20
0.708661
11
1.65222
21
0.70897
0
LINE
8
BLACK
6
CONTINUOUS
10
1.65222
20
0.70897
11
1.64723
21
0.710714
0
LINE
8
BLACK
6
CONTINUOUS
10
1.64723
20
0.710714
11
1.64298
21
0.71385
0
LINE
8
BLACK
6
CONTINUOUS
10
1.64298
20
0.71385
11
1.63985
21
0.7181
0
LINE
8
BLACK
6
CONTINUOUS
10
1.63985
20
0.7181
11
1.6381
21
0.723084
0
LINE
8
BLACK
6
CONTINUOUS
10
1.6381
20
0.723084
11
1.6378
21
0.726378
0
LINE
8
BLACK
6
CONTINUOUS
10
1.6378
20
0.726378
11
1.6378
21
0.746063
0
LINE
8
BLACK
6
CONTINUOUS
10
1.6378
20
0.746063
11
1.6381
21
0.749357
0
LINE
8
BLACK
6
CONTINUOUS
10
1.6381
20
0.749357
11
1.63985
21
0.754341
0
LINE
8
BLACK
6
CONTINUOUS
10
1.63985
20
0.754341
11
1.64298
21
0.75859
0
LINE
8
BLACK
6
CONTINUOUS
10
1.64298
20
0.75859
11
1.64723
21
0.761726
0
LINE
8
BLACK
6
CONTINUOUS
10
1.64723
20
0.761726
11
1.65222
21
0.763471
0
LINE
8
BLACK
6
CONTINUOUS
10
1.65222
20
0.763471
11
1.65551
21
0.76378
0
LINE
8
BLACK
6
CONTINUOUS
10
1.65551
20
0.76378
11
1.69291
21
0.76378
0
LINE
8
BLACK
6
CONTINUOUS
10
1.69291
20
0.76378
11
1.69621
21
0.763471
0
LINE
8
BLACK
6
CONTINUOUS
10
1.37308
20
0.940237
11
1.37705
21
0.938484
0
LINE
8
BLACK
6
CONTINUOUS
10
1.37705
20
0.938484
11
1.38012
21
0.935415
0
LINE
8
BLACK
6
CONTINUOUS
10
1.38012
20
0.935415
11
1.38187
21
0.931444
0
LINE
8
BLACK
6
CONTINUOUS
10
1.38187
20
0.931444
11
1.38219
21
0.92874
0
LINE
8
BLACK
6
CONTINUOUS
10
1.38219
20
0.92874
11
1.38219
21
0.729528
0
LINE
8
BLACK
6
CONTINUOUS
10
1.38219
20
0.729528
11
1.38187
21
0.726823
0
LINE
8
BLACK
6
CONTINUOUS
10
1.38187
20
0.726823
11
1.38012
21
0.722853
0
LINE
8
BLACK
6
CONTINUOUS
10
1.38012
20
0.722853
11
1.37705
21
0.719784
0
LINE
8
BLACK
6
CONTINUOUS
10
1.37705
20
0.719784
11
1.37308
21
0.71803
0
LINE
8
BLACK
6
CONTINUOUS
10
1.37308
20
0.71803
11
1.37037
21
0.717717
0
LINE
8
BLACK
6
CONTINUOUS
10
1.37037
20
0.717717
11
1.25226
21
0.717717
0
LINE
8
BLACK
6
CONTINUOUS
10
1.25226
20
0.717717
11
1.24956
21
0.71803
0
LINE
8
BLACK
6
CONTINUOUS
10
1.24956
20
0.71803
11
1.24559
21
0.719784
0
LINE
8
BLACK
6
CONTINUOUS
10
1.24559
20
0.719784
11
1.24252
21
0.722853
0
LINE
8
BLACK
6
CONTINUOUS
10
1.24252
20
0.722853
11
1.24077
21
0.726823
0
LINE
8
BLACK
6
CONTINUOUS
10
1.24077
20
0.726823
11
1.24045
21
0.729528
0
LINE
8
BLACK
6
CONTINUOUS
10
1.24045
20
0.729528
11
1.24045
21
0.92874
0
LINE
8
BLACK
6
CONTINUOUS
10
1.24045
20
0.92874
11
1.24077
21
0.931444
0
LINE
8
BLACK
6
CONTINUOUS
10
1.24077
20
0.931444
11
1.24252
21
0.935415
0
LINE
8
BLACK
6
CONTINUOUS
10
1.24252
20
0.935415
11
1.24559
21
0.938484
0
LINE
8
BLACK
6
CONTINUOUS
10
1.24559
20
0.938484
11
1.24956
21
0.940237
0
LINE
8
BLACK
6
CONTINUOUS
10
1.24956
20
0.940237
11
1.25226
21
0.940551
0
LINE
8
BLACK
6
CONTINUOUS
10
1.25226
20
0.940551
11
1.37037
21
0.940551
0
LINE
8
BLACK
6
CONTINUOUS
10
1.37037
20
0.940551
11
1.37308
21
0.940237
0
LINE
8
BLACK
6
CONTINUOUS
10
1.80368
20
0.794755
11
1.80624
21
0.793048
0
LINE
8
BLACK
6
CONTINUOUS
10
1.80624
20
0.793048
11
1.80794
21
0.790494
0
LINE
8
BLACK
6
CONTINUOUS
10
1.80794
20
0.790494
11
1.80854
21
0.78748
0
LINE
8
BLACK
6
CONTINUOUS
10
1.80854
20
0.78748
11
1.80854
21
0.72748
0
LINE
8
BLACK
6
CONTINUOUS
10
1.80854
20
0.72748
11
1.80794
21
0.724467
0
LINE
8
BLACK
6
CONTINUOUS
10
1.80794
20
0.724467
11
1.80624
21
0.721913
0
LINE
8
BLACK
6
CONTINUOUS
10
1.80624
20
0.721913
11
1.80368
21
0.720206
0
LINE
8
BLACK
6
CONTINUOUS
10
1.80368
20
0.720206
11
1.80067
21
0.719606
0
LINE
8
BLACK
6
CONTINUOUS
10
1.80067
20
0.719606
11
1.74067
21
0.719606
0
LINE
8
BLACK
6
CONTINUOUS
10
1.74067
20
0.719606
11
1.73766
21
0.720206
0
LINE
8
BLACK
6
CONTINUOUS
10
1.73766
20
0.720206
11
1.7351
21
0.721913
0
LINE
8
BLACK
6
CONTINUOUS
10
1.7351
20
0.721913
11
1.73339
21
0.724467
0
LINE
8
BLACK
6
CONTINUOUS
10
1.73339
20
0.724467
11
1.7328
21
0.72748
0
LINE
8
BLACK
6
CONTINUOUS
10
1.7328
20
0.72748
11
1.7328
21
0.78748
0
LINE
8
BLACK
6
CONTINUOUS
10
1.7328
20
0.78748
11
1.73339
21
0.790494
0
LINE
8
BLACK
6
CONTINUOUS
10
1.73339
20
0.790494
11
1.7351
21
0.793048
0
LINE
8
BLACK
6
CONTINUOUS
10
1.7351
20
0.793048
11
1.73766
21
0.794755
0
LINE
8
BLACK
6
CONTINUOUS
10
1.73766
20
0.794755
11
1.74067
21
0.795354
0
LINE
8
BLACK
6
CONTINUOUS
10
1.74067
20
0.795354
11
1.80067
21
0.795354
0
LINE
8
BLACK
6
CONTINUOUS
10
1.80067
20
0.795354
11
1.80368
21
0.794755
0
LINE
8
BLACK
6
CONTINUOUS
10
1.90368
20
0.794755
11
1.90624
21
0.793048
0
LINE
8
BLACK
6
CONTINUOUS
10
1.90624
20
0.793048
11
1.90794
21
0.790494
0
LINE
8
BLACK
6
CONTINUOUS
10
1.90794
20
0.790494
11
1.90854
21
0.78748
0
LINE
8
BLACK
6
CONTINUOUS
10
1.90854
20
0.78748
11
1.90854
21
0.72748
0
LINE
8
BLACK
6
CONTINUOUS
10
1.90854
20
0.72748
11
1.90794
21
0.724467
0
LINE
8
BLACK
6
CONTINUOUS
10
1.90794
20
0.724467
11
1.90624
21
0.721913
0
LINE
8
BLACK
6
CONTINUOUS
10
1.90624
20
0.721913
11
1.90368
21
0.720206
0
LINE
8
BLACK
6
CONTINUOUS
10
1.90368
20
0.720206
11
1.90067
21
0.719606
0
LINE
8
BLACK
6
CONTINUOUS
10
1.90067
20
0.719606
11
1.84067
21
0.719606
0
LINE
8
BLACK
6
CONTINUOUS
10
1.84067
20
0.719606
11
1.83766
21
0.720206
0
LINE
8
BLACK
6
CONTINUOUS
10
1.83766
20
0.720206
11
1.8351
21
0.721913
0
LINE
8
BLACK
6
CONTINUOUS
10
1.8351
20
0.721913
11
1.83339
21
0.724467
0
LINE
8
BLACK
6
CONTINUOUS
10
1.83339
20
0.724467
11
1.8328
21
0.72748
0
LINE
8
BLACK
6
CONTINUOUS
10
1.8328
20
0.72748
11
1.8328
21
0.78748
0
LINE
8
BLACK
6
CONTINUOUS
10
1.8328
20
0.78748
11
1.83339
21
0.790494
0
LINE
8
BLACK
6
CONTINUOUS
10
1.83339
20
0.790494
11
1.8351
21
0.793048
0
LINE
8
BLACK
6
CONTINUOUS
10
1.8351
20
0.793048
11
1.83766
21
0.794755
0
LINE
8
BLACK
6
CONTINUOUS
10
1.83766
20
0.794755
11
1.84067
21
0.795354
0
LINE
8
BLACK
6
CONTINUOUS
10
1.84067
20
0.795354
11
1.90067
21
0.795354
0
LINE
8
BLACK
6
CONTINUOUS
10
1.90067
20
0.795354
11
1.90368
21
0.794755
0
LINE
8
BLACK
6
CONTINUOUS
10
2.00368
20
0.794755
11
2.00624
21
0.793048
0
LINE
8
BLACK
6
CONTINUOUS
10
2.00624
20
0.793048
11
2.00794
21
0.790494
0
LINE
8
BLACK
6
CONTINUOUS
10
2.00794
20
0.790494
11
2.00854
21
0.78748
0
LINE
8
BLACK
6
CONTINUOUS
10
2.00854
20
0.78748
11
2.00854
21
0.72748
0
LINE
8
BLACK
6
CONTINUOUS
10
2.00854
20
0.72748
11
2.00794
21
0.724467
0
LINE
8
BLACK
6
CONTINUOUS
10
2.00794
20
0.724467
11
2.00624
21
0.721913
0
LINE
8
BLACK
6
CONTINUOUS
10
2.00624
20
0.721913
11
2.00368
21
0.720206
0
LINE
8
BLACK
6
CONTINUOUS
10
2.00368
20
0.720206
11
2.00067
21
0.719606
0
LINE
8
BLACK
6
CONTINUOUS
10
2.00067
20
0.719606
11
1.94067
21
0.719606
0
LINE
8
BLACK
6
CONTINUOUS
10
1.94067
20
0.719606
11
1.93766
21
0.720206
0
LINE
8
BLACK
6
CONTINUOUS
10
1.93766
20
0.720206
11
1.9351
21
0.721913
0
LINE
8
BLACK
6
CONTINUOUS
10
1.9351
20
0.721913
11
1.93339
21
0.724467
0
LINE
8
BLACK
6
CONTINUOUS
10
1.93339
20
0.724467
11
1.9328
21
0.72748
0
LINE
8
BLACK
6
CONTINUOUS
10
1.9328
20
0.72748
11
1.9328
21
0.78748
0
LINE
8
BLACK
6
CONTINUOUS
10
1.9328
20
0.78748
11
1.93339
21
0.790494
0
LINE
8
BLACK
6
CONTINUOUS
10
1.93339
20
0.790494
11
1.9351
21
0.793048
0
LINE
8
BLACK
6
CONTINUOUS
10
1.9351
20
0.793048
11
1.93766
21
0.794755
0
LINE
8
BLACK
6
CONTINUOUS
10
1.93766
20
0.794755
11
1.94067
21
0.795354
0
LINE
8
BLACK
6
CONTINUOUS
10
1.94067
20
0.795354
11
2.00067
21
0.795354
0
LINE
8
BLACK
6
CONTINUOUS
10
2.00067
20
0.795354
11
2.00368
21
0.794755
0
LINE
8
BLACK
6
CONTINUOUS
10
0.994627
20
0.804991
11
0.997182
21
0.803284
0
LINE
8
BLACK
6
CONTINUOUS
10
0.997182
20
0.803284
11
0.998889
21
0.80073
0
LINE
8
BLACK
6
CONTINUOUS
10
0.998889
20
0.80073
11
0.999488
21
0.797717
0
LINE
8
BLACK
6
CONTINUOUS
10
0.999488
20
0.797717
11
0.999488
21
0.737717
0
LINE
8
BLACK
6
CONTINUOUS
10
0.999488
20
0.737717
11
0.998889
21
0.734703
0
LINE
8
BLACK
6
CONTINUOUS
10
0.998889
20
0.734703
11
0.997182
21
0.732149
0
LINE
8
BLACK
6
CONTINUOUS
10
0.997182
20
0.732149
11
0.994627
21
0.730442
0
LINE
8
BLACK
6
CONTINUOUS
10
0.994627
20
0.730442
11
0.991614
21
0.729843
0
LINE
8
BLACK
6
CONTINUOUS
10
0.991614
20
0.729843
11
0.931614
21
0.729843
0
LINE
8
BLACK
6
CONTINUOUS
10
0.931614
20
0.729843
11
0.928601
21
0.730442
0
LINE
8
BLACK
6
CONTINUOUS
10
0.928601
20
0.730442
11
0.926046
21
0.732149
0
LINE
8
BLACK
6
CONTINUOUS
10
0.926046
20
0.732149
11
0.92434
21
0.734703
0
LINE
8
BLACK
6
CONTINUOUS
10
0.92434
20
0.734703
11
0.92374
21
0.737717
0
LINE
8
BLACK
6
CONTINUOUS
10
0.92374
20
0.737717
11
0.92374
21
0.797717
0
LINE
8
BLACK
6
CONTINUOUS
10
0.92374
20
0.797717
11
0.92434
21
0.80073
0
LINE
8
BLACK
6
CONTINUOUS
10
0.92434
20
0.80073
11
0.926046
21
0.803284
0
LINE
8
BLACK
6
CONTINUOUS
10
0.926046
20
0.803284
11
0.928601
21
0.804991
0
LINE
8
BLACK
6
CONTINUOUS
10
0.928601
20
0.804991
11
0.931614
21
0.805591
0
LINE
8
BLACK
6
CONTINUOUS
10
0.931614
20
0.805591
11
0.991614
21
0.805591
0
LINE
8
BLACK
6
CONTINUOUS
10
0.991614
20
0.805591
11
0.994627
21
0.804991
0
LINE
8
BLACK
6
CONTINUOUS
10
1.09463
20
0.804991
11
1.09718
21
0.803284
0
LINE
8
BLACK
6
CONTINUOUS
10
1.09718
20
0.803284
11
1.09889
21
0.80073
0
LINE
8
BLACK
6
CONTINUOUS
10
1.09889
20
0.80073
11
1.09949
21
0.797717
0
LINE
8
BLACK
6
CONTINUOUS
10
1.09949
20
0.797717
11
1.09949
21
0.737717
0
LINE
8
BLACK
6
CONTINUOUS
10
1.09949
20
0.737717
11
1.09889
21
0.734703
0
LINE
8
BLACK
6
CONTINUOUS
10
1.09889
20
0.734703
11
1.09718
21
0.732149
0
LINE
8
BLACK
6
CONTINUOUS
10
1.09718
20
0.732149
11
1.09463
21
0.730442
0
LINE
8
BLACK
6
CONTINUOUS
10
1.09463
20
0.730442
11
1.09161
21
0.729843
0
LINE
8
BLACK
6
CONTINUOUS
10
1.09161
20
0.729843
11
1.03161
21
0.729843
0
LINE
8
BLACK
6
CONTINUOUS
10
1.03161
20
0.729843
11
1.0286
21
0.730442
0
LINE
8
BLACK
6
CONTINUOUS
10
1.0286
20
0.730442
11
1.02605
21
0.732149
0
LINE
8
BLACK
6
CONTINUOUS
10
1.02605
20
0.732149
11
1.02434
21
0.734703
0
LINE
8
BLACK
6
CONTINUOUS
10
1.02434
20
0.734703
11
1.02374
21
0.737717
0
LINE
8
BLACK
6
CONTINUOUS
10
1.02374
20
0.737717
11
1.02374
21
0.797717
0
LINE
8
BLACK
6
CONTINUOUS
10
1.02374
20
0.797717
11
1.02434
21
0.80073
0
LINE
8
BLACK
6
CONTINUOUS
10
1.02434
20
0.80073
11
1.02605
21
0.803284
0
LINE
8
BLACK
6
CONTINUOUS
10
1.02605
20
0.803284
11
1.0286
21
0.804991
0
LINE
8
BLACK
6
CONTINUOUS
10
1.0286
20
0.804991
11
1.03161
21
0.805591
0
LINE
8
BLACK
6
CONTINUOUS
10
1.03161
20
0.805591
11
1.09161
21
0.805591
0
LINE
8
BLACK
6
CONTINUOUS
10
1.09161
20
0.805591
11
1.09463
21
0.804991
0
LINE
8
BLACK
6
CONTINUOUS
10
1.53951
20
0.837683
11
1.5445
21
0.835939
0
LINE
8
BLACK
6
CONTINUOUS
10
1.5445
20
0.835939
11
1.54875
21
0.832803
0
LINE
8
BLACK
6
CONTINUOUS
10
1.54875
20
0.832803
11
1.55188
21
0.828554
0
LINE
8
BLACK
6
CONTINUOUS
10
1.55188
20
0.828554
11
1.55363
21
0.823569
0
LINE
8
BLACK
6
CONTINUOUS
10
1.55363
20
0.823569
11
1.55394
21
0.820276
0
LINE
8
BLACK
6
CONTINUOUS
10
1.55394
20
0.820276
11
1.55394
21
0.782874
0
LINE
8
BLACK
6
CONTINUOUS
10
1.55394
20
0.782874
11
1.55363
21
0.77958
0
LINE
8
BLACK
6
CONTINUOUS
10
1.55363
20
0.77958
11
1.55188
21
0.774596
0
LINE
8
BLACK
6
CONTINUOUS
10
1.55188
20
0.774596
11
1.54875
21
0.770347
0
LINE
8
BLACK
6
CONTINUOUS
10
1.54875
20
0.770347
11
1.5445
21
0.767211
0
LINE
8
BLACK
6
CONTINUOUS
10
1.5445
20
0.767211
11
1.53951
21
0.765466
0
LINE
8
BLACK
6
CONTINUOUS
10
1.53951
20
0.765466
11
1.53622
21
0.765157
0
LINE
8
BLACK
6
CONTINUOUS
10
1.53622
20
0.765157
11
1.51654
21
0.765157
0
LINE
8
BLACK
6
CONTINUOUS
10
1.51654
20
0.765157
11
1.51324
21
0.765466
0
LINE
8
BLACK
6
CONTINUOUS
10
1.51324
20
0.765466
11
1.50826
21
0.767211
0
LINE
8
BLACK
6
CONTINUOUS
10
1.50826
20
0.767211
11
1.50401
21
0.770347
0
LINE
8
BLACK
6
CONTINUOUS
10
1.50401
20
0.770347
11
1.50087
21
0.774596
0
LINE
8
BLACK
6
CONTINUOUS
10
1.50087
20
0.774596
11
1.49913
21
0.77958
0
LINE
8
BLACK
6
CONTINUOUS
10
1.49913
20
0.77958
11
1.49882
21
0.782874
0
LINE
8
BLACK
6
CONTINUOUS
10
1.49882
20
0.782874
11
1.49882
21
0.820276
0
LINE
8
BLACK
6
CONTINUOUS
10
1.49882
20
0.820276
11
1.49913
21
0.823569
0
LINE
8
BLACK
6
CONTINUOUS
10
1.49913
20
0.823569
11
1.50087
21
0.828554
0
LINE
8
BLACK
6
CONTINUOUS
10
1.50087
20
0.828554
11
1.50401
21
0.832803
0
LINE
8
BLACK
6
CONTINUOUS
10
1.50401
20
0.832803
11
1.50826
21
0.835939
0
LINE
8
BLACK
6
CONTINUOUS
10
1.50826
20
0.835939
11
1.51324
21
0.837683
0
LINE
8
BLACK
6
CONTINUOUS
10
1.51324
20
0.837683
11
1.51654
21
0.837992
0
LINE
8
BLACK
6
CONTINUOUS
10
1.51654
20
0.837992
11
1.53622
21
0.837992
0
LINE
8
BLACK
6
CONTINUOUS
10
1.53622
20
0.837992
11
1.53951
21
0.837683
0
LINE
8
BLACK
6
CONTINUOUS
10
1.61432
20
0.837683
11
1.6193
21
0.835939
0
LINE
8
BLACK
6
CONTINUOUS
10
1.6193
20
0.835939
11
1.62355
21
0.832803
0
LINE
8
BLACK
6
CONTINUOUS
10
1.62355
20
0.832803
11
1.62669
21
0.828554
0
LINE
8
BLACK
6
CONTINUOUS
10
1.62669
20
0.828554
11
1.62843
21
0.823569
0
LINE
8
BLACK
6
CONTINUOUS
10
1.62843
20
0.823569
11
1.62874
21
0.820276
0
LINE
8
BLACK
6
CONTINUOUS
10
1.62874
20
0.820276
11
1.62874
21
0.782874
0
LINE
8
BLACK
6
CONTINUOUS
10
1.62874
20
0.782874
11
1.62843
21
0.77958
0
LINE
8
BLACK
6
CONTINUOUS
10
1.62843
20
0.77958
11
1.62669
21
0.774596
0
LINE
8
BLACK
6
CONTINUOUS
10
1.62669
20
0.774596
11
1.62355
21
0.770347
0
LINE
8
BLACK
6
CONTINUOUS
10
1.62355
20
0.770347
11
1.6193
21
0.767211
0
LINE
8
BLACK
6
CONTINUOUS
10
1.6193
20
0.767211
11
1.61432
21
0.765466
0
LINE
8
BLACK
6
CONTINUOUS
10
1.61432
20
0.765466
11
1.61102
21
0.765157
0
LINE
8
BLACK
6
CONTINUOUS
10
1.61102
20
0.765157
11
1.59134
21
0.765157
0
LINE
8
BLACK
6
CONTINUOUS
10
1.59134
20
0.765157
11
1.58804
21
0.765466
0
LINE
8
BLACK
6
CONTINUOUS
10
1.58804
20
0.765466
11
1.58306
21
0.767211
0
LINE
8
BLACK
6
CONTINUOUS
10
1.58306
20
0.767211
11
1.57881
21
0.770347
0
LINE
8
BLACK
6
CONTINUOUS
10
1.57881
20
0.770347
11
1.57568
21
0.774596
0
LINE
8
BLACK
6
CONTINUOUS
10
1.57568
20
0.774596
11
1.57393
21
0.77958
0
LINE
8
BLACK
6
CONTINUOUS
10
1.57393
20
0.77958
11
1.57362
21
0.782874
0
LINE
8
BLACK
6
CONTINUOUS
10
1.57362
20
0.782874
11
1.57362
21
0.820276
0
LINE
8
BLACK
6
CONTINUOUS
10
1.57362
20
0.820276
11
1.57393
21
0.823569
0
LINE
8
BLACK
6
CONTINUOUS
10
1.57393
20
0.823569
11
1.57568
21
0.828554
0
LINE
8
BLACK
6
CONTINUOUS
10
1.57568
20
0.828554
11
1.57881
21
0.832803
0
LINE
8
BLACK
6
CONTINUOUS
10
1.57881
20
0.832803
11
1.58306
21
0.835939
0
LINE
8
BLACK
6
CONTINUOUS
10
1.58306
20
0.835939
11
1.58804
21
0.837683
0
LINE
8
BLACK
6
CONTINUOUS
10
1.58804
20
0.837683
11
1.59134
21
0.837992
0
LINE
8
BLACK
6
CONTINUOUS
10
1.59134
20
0.837992
11
1.61102
21
0.837992
0
LINE
8
BLACK
6
CONTINUOUS
10
1.61102
20
0.837992
11
1.61432
21
0.837683
0
LINE
8
BLACK
6
CONTINUOUS
10
0.522485
20
0.846265
11
0.529897
21
0.844741
0
LINE
8
BLACK
6
CONTINUOUS
10
0.529897
20
0.844741
11
0.536852
21
0.841757
0
LINE
8
BLACK
6
CONTINUOUS
10
0.536852
20
0.841757
11
0.543063
21
0.837434
0
LINE
8
BLACK
6
CONTINUOUS
10
0.543063
20
0.837434
11
0.548277
21
0.831949
0
LINE
8
BLACK
6
CONTINUOUS
10
0.548277
20
0.831949
11
0.55228
21
0.825527
0
LINE
8
BLACK
6
CONTINUOUS
10
0.55228
20
0.825527
11
0.554908
21
0.81843
0
LINE
8
BLACK
6
CONTINUOUS
10
0.554908
20
0.81843
11
0.556054
21
0.810949
0
LINE
8
BLACK
6
CONTINUOUS
10
0.556054
20
0.810949
11
0.555671
21
0.803391
0
LINE
8
BLACK
6
CONTINUOUS
10
0.555671
20
0.803391
11
0.553774
21
0.796065
0
LINE
8
BLACK
6
CONTINUOUS
10
0.553774
20
0.796065
11
0.550441
21
0.789271
0
LINE
8
BLACK
6
CONTINUOUS
10
0.550441
20
0.789271
11
0.545809
21
0.783287
0
LINE
8
BLACK
6
CONTINUOUS
10
0.545809
20
0.783287
11
0.540067
21
0.778357
0
LINE
8
BLACK
6
CONTINUOUS
10
0.540067
20
0.778357
11
0.53345
21
0.774685
0
LINE
8
BLACK
6
CONTINUOUS
10
0.53345
20
0.774685
11
0.52623
21
0.772419
0
LINE
8
BLACK
6
CONTINUOUS
10
0.52623
20
0.772419
11
0.518701
21
0.771654
0
LINE
8
BLACK
6
CONTINUOUS
10
0.518701
20
0.771654
11
0.459646
21
0.771654
0
LINE
8
BLACK
6
CONTINUOUS
10
0.459646
20
0.771654
11
0.455862
21
0.771845
0
LINE
8
BLACK
6
CONTINUOUS
10
0.455862
20
0.771845
11
0.448449
21
0.773369
0
LINE
8
BLACK
6
CONTINUOUS
10
0.448449
20
0.773369
11
0.441495
21
0.776353
0
LINE
8
BLACK
6
CONTINUOUS
10
0.441495
20
0.776353
11
0.435283
21
0.780676
0
LINE
8
BLACK
6
CONTINUOUS
10
0.435283
20
0.780676
11
0.430069
21
0.786161
0
LINE
8
BLACK
6
CONTINUOUS
10
0.430069
20
0.786161
11
0.426066
21
0.792584
0
LINE
8
BLACK
6
CONTINUOUS
10
0.426066
20
0.792584
11
0.423438
21
0.79968
0
LINE
8
BLACK
6
CONTINUOUS
10
0.423438
20
0.79968
11
0.422292
21
0.807161
0
LINE
8
BLACK
6
CONTINUOUS
10
0.422292
20
0.807161
11
0.422675
21
0.814719
0
LINE
8
BLACK
6
CONTINUOUS
10
0.422675
20
0.814719
11
0.424572
21
0.822045
0
LINE
8
BLACK
6
CONTINUOUS
10
0.424572
20
0.822045
11
0.427905
21
0.828839
0
LINE
8
BLACK
6
CONTINUOUS
10
0.427905
20
0.828839
11
0.432537
21
0.834824
0
LINE
8
BLACK
6
CONTINUOUS
10
0.432537
20
0.834824
11
0.438279
21
0.839753
0
LINE
8
BLACK
6
CONTINUOUS
10
0.438279
20
0.839753
11
0.444896
21
0.843426
0
LINE
8
BLACK
6
CONTINUOUS
10
0.444896
20
0.843426
11
0.452117
21
0.845691
0
LINE
8
BLACK
6
CONTINUOUS
10
0.452117
20
0.845691
11
0.459646
21
0.846457
0
LINE
8
BLACK
6
CONTINUOUS
10
0.459646
20
0.846457
11
0.518701
21
0.846457
0
LINE
8
BLACK
6
CONTINUOUS
10
0.518701
20
0.846457
11
0.522485
21
0.846265
0
LINE
8
BLACK
6
CONTINUOUS
10
1.69621
20
0.838274
11
1.70119
21
0.83653
0
LINE
8
BLACK
6
CONTINUOUS
10
1.70119
20
0.83653
11
1.70544
21
0.833394
0
LINE
8
BLACK
6
CONTINUOUS
10
1.70544
20
0.833394
11
1.70858
21
0.829145
0
LINE
8
BLACK
6
CONTINUOUS
10
1.70858
20
0.829145
11
1.71032
21
0.82416
0
LINE
8
BLACK
6
CONTINUOUS
10
1.71032
20
0.82416
11
1.71063
21
0.820866
0
LINE
8
BLACK
6
CONTINUOUS
10
1.71063
20
0.820866
11
1.71063
21
0.801181
0
LINE
8
BLACK
6
CONTINUOUS
10
1.71063
20
0.801181
11
1.71032
21
0.797887
0
LINE
8
BLACK
6
CONTINUOUS
10
1.71032
20
0.797887
11
1.70858
21
0.792903
0
LINE
8
BLACK
6
CONTINUOUS
10
1.70858
20
0.792903
11
1.70544
21
0.788654
0
LINE
8
BLACK
6
CONTINUOUS
10
1.70544
20
0.788654
11
1.70119
21
0.785518
0
LINE
8
BLACK
6
CONTINUOUS
10
1.70119
20
0.785518
11
1.69621
21
0.783773
0
LINE
8
BLACK
6
CONTINUOUS
10
1.69621
20
0.783773
11
1.69291
21
0.783465
0
LINE
8
BLACK
6
CONTINUOUS
10
1.69291
20
0.783465
11
1.65551
21
0.783465
0
LINE
8
BLACK
6
CONTINUOUS
10
1.65551
20
0.783465
11
1.65222
21
0.783773
0
LINE
8
BLACK
6
CONTINUOUS
10
1.65222
20
0.783773
11
1.64723
21
0.785518
0
LINE
8
BLACK
6
CONTINUOUS
10
1.64723
20
0.785518
11
1.64298
21
0.788654
0
LINE
8
BLACK
6
CONTINUOUS
10
1.64298
20
0.788654
11
1.63985
21
0.792903
0
LINE
8
BLACK
6
CONTINUOUS
10
1.63985
20
0.792903
11
1.6381
21
0.797887
0
LINE
8
BLACK
6
CONTINUOUS
10
1.6381
20
0.797887
11
1.6378
21
0.801181
0
LINE
8
BLACK
6
CONTINUOUS
10
1.6378
20
0.801181
11
1.6378
21
0.820866
0
LINE
8
BLACK
6
CONTINUOUS
10
1.6378
20
0.820866
11
1.6381
21
0.82416
0
LINE
8
BLACK
6
CONTINUOUS
10
1.6381
20
0.82416
11
1.63985
21
0.829145
0
LINE
8
BLACK
6
CONTINUOUS
10
1.63985
20
0.829145
11
1.64298
21
0.833394
0
LINE
8
BLACK
6
CONTINUOUS
10
1.64298
20
0.833394
11
1.64723
21
0.83653
0
LINE
8
BLACK
6
CONTINUOUS
10
1.64723
20
0.83653
11
1.65222
21
0.838274
0
LINE
8
BLACK
6
CONTINUOUS
10
1.65222
20
0.838274
11
1.65551
21
0.838583
0
LINE
8
BLACK
6
CONTINUOUS
10
1.65551
20
0.838583
11
1.69291
21
0.838583
0
LINE
8
BLACK
6
CONTINUOUS
10
1.69291
20
0.838583
11
1.69621
21
0.838274
0
LINE
8
BLACK
6
CONTINUOUS
10
1.93373
20
0.896108
11
1.93872
21
0.894364
0
LINE
8
BLACK
6
CONTINUOUS
10
1.93872
20
0.894364
11
1.94297
21
0.891228
0
LINE
8
BLACK
6
CONTINUOUS
10
1.94297
20
0.891228
11
1.9461
21
0.886979
0
LINE
8
BLACK
6
CONTINUOUS
10
1.9461
20
0.886979
11
1.94785
21
0.881994
0
LINE
8
BLACK
6
CONTINUOUS
10
1.94785
20
0.881994
11
1.94816
21
0.878701
0
LINE
8
BLACK
6
CONTINUOUS
10
1.94816
20
0.878701
11
1.94816
21
0.841299
0
LINE
8
BLACK
6
CONTINUOUS
10
1.94816
20
0.841299
11
1.94785
21
0.838006
0
LINE
8
BLACK
6
CONTINUOUS
10
1.94785
20
0.838006
11
1.9461
21
0.833021
0
LINE
8
BLACK
6
CONTINUOUS
10
1.9461
20
0.833021
11
1.94297
21
0.828772
0
LINE
8
BLACK
6
CONTINUOUS
10
1.94297
20
0.828772
11
1.93872
21
0.825636
0
LINE
8
BLACK
6
CONTINUOUS
10
1.93872
20
0.825636
11
1.93373
21
0.823892
0
LINE
8
BLACK
6
CONTINUOUS
10
1.93373
20
0.823892
11
1.93044
21
0.823583
0
LINE
8
BLACK
6
CONTINUOUS
10
1.93044
20
0.823583
11
1.91076
21
0.823583
0
LINE
8
BLACK
6
CONTINUOUS
10
1.91076
20
0.823583
11
1.90746
21
0.823892
0
LINE
8
BLACK
6
CONTINUOUS
10
1.90746
20
0.823892
11
1.90248
21
0.825636
0
LINE
8
BLACK
6
CONTINUOUS
10
1.90248
20
0.825636
11
1.89823
21
0.828772
0
LINE
8
BLACK
6
CONTINUOUS
10
1.89823
20
0.828772
11
1.89509
21
0.833021
0
LINE
8
BLACK
6
CONTINUOUS
10
1.89509
20
0.833021
11
1.89335
21
0.838006
0
LINE
8
BLACK
6
CONTINUOUS
10
1.89335
20
0.838006
11
1.89304
21
0.841299
0
LINE
8
BLACK
6
CONTINUOUS
10
1.89304
20
0.841299
11
1.89304
21
0.878701
0
LINE
8
BLACK
6
CONTINUOUS
10
1.89304
20
0.878701
11
1.89335
21
0.881994
0
LINE
8
BLACK
6
CONTINUOUS
10
1.89335
20
0.881994
11
1.89509
21
0.886979
0
LINE
8
BLACK
6
CONTINUOUS
10
1.89509
20
0.886979
11
1.89823
21
0.891228
0
LINE
8
BLACK
6
CONTINUOUS
10
1.89823
20
0.891228
11
1.90248
21
0.894364
0
LINE
8
BLACK
6
CONTINUOUS
10
1.90248
20
0.894364
11
1.90746
21
0.896108
0
LINE
8
BLACK
6
CONTINUOUS
10
1.90746
20
0.896108
11
1.91076
21
0.896417
0
LINE
8
BLACK
6
CONTINUOUS
10
1.91076
20
0.896417
11
1.93044
21
0.896417
0
LINE
8
BLACK
6
CONTINUOUS
10
1.93044
20
0.896417
11
1.93373
21
0.896108
0
LINE
8
BLACK
6
CONTINUOUS
10
2.00854
20
0.896108
11
2.01352
21
0.894364
0
LINE
8
BLACK
6
CONTINUOUS
10
2.01352
20
0.894364
11
2.01777
21
0.891228
0
LINE
8
BLACK
6
CONTINUOUS
10
2.01777
20
0.891228
11
2.02091
21
0.886979
0
LINE
8
BLACK
6
CONTINUOUS
10
2.02091
20
0.886979
11
2.02265
21
0.881994
0
LINE
8
BLACK
6
CONTINUOUS
10
2.02265
20
0.881994
11
2.02296
21
0.878701
0
LINE
8
BLACK
6
CONTINUOUS
10
2.02296
20
0.878701
11
2.02296
21
0.841299
0
LINE
8
BLACK
6
CONTINUOUS
10
2.02296
20
0.841299
11
2.02265
21
0.838006
0
LINE
8
BLACK
6
CONTINUOUS
10
2.02265
20
0.838006
11
2.02091
21
0.833021
0
LINE
8
BLACK
6
CONTINUOUS
10
2.02091
20
0.833021
11
2.01777
21
0.828772
0
LINE
8
BLACK
6
CONTINUOUS
10
2.01777
20
0.828772
11
2.01352
21
0.825636
0
LINE
8
BLACK
6
CONTINUOUS
10
2.01352
20
0.825636
11
2.00854
21
0.823892
0
LINE
8
BLACK
6
CONTINUOUS
10
2.00854
20
0.823892
11
2.00524
21
0.823583
0
LINE
8
BLACK
6
CONTINUOUS
10
2.00524
20
0.823583
11
1.98556
21
0.823583
0
LINE
8
BLACK
6
CONTINUOUS
10
1.98556
20
0.823583
11
1.98227
21
0.823892
0
LINE
8
BLACK
6
CONTINUOUS
10
1.98227
20
0.823892
11
1.97728
21
0.825636
0
LINE
8
BLACK
6
CONTINUOUS
10
1.97728
20
0.825636
11
1.97303
21
0.828772
0
LINE
8
BLACK
6
CONTINUOUS
10
1.97303
20
0.828772
11
1.9699
21
0.833021
0
LINE
8
BLACK
6
CONTINUOUS
10
1.9699
20
0.833021
11
1.96815
21
0.838006
0
LINE
8
BLACK
6
CONTINUOUS
10
1.96815
20
0.838006
11
1.96784
21
0.841299
0
LINE
8
BLACK
6
CONTINUOUS
10
1.96784
20
0.841299
11
1.96784
21
0.878701
0
LINE
8
BLACK
6
CONTINUOUS
10
1.96784
20
0.878701
11
1.96815
21
0.881994
0
LINE
8
BLACK
6
CONTINUOUS
10
1.96815
20
0.881994
11
1.9699
21
0.886979
0
LINE
8
BLACK
6
CONTINUOUS
10
1.9699
20
0.886979
11
1.97303
21
0.891228
0
LINE
8
BLACK
6
CONTINUOUS
10
1.97303
20
0.891228
11
1.97728
21
0.894364
0
LINE
8
BLACK
6
CONTINUOUS
10
1.97728
20
0.894364
11
1.98227
21
0.896108
0
LINE
8
BLACK
6
CONTINUOUS
10
1.98227
20
0.896108
11
1.98556
21
0.896417
0
LINE
8
BLACK
6
CONTINUOUS
10
1.98556
20
0.896417
11
2.00524
21
0.896417
0
LINE
8
BLACK
6
CONTINUOUS
10
2.00524
20
0.896417
11
2.00854
21
0.896108
0
LINE
8
BLACK
6
CONTINUOUS
10
0.994627
20
0.904991
11
0.997182
21
0.903284
0
LINE
8
BLACK
6
CONTINUOUS
10
0.997182
20
0.903284
11
0.998889
21
0.90073
0
LINE
8
BLACK
6
CONTINUOUS
10
0.998889
20
0.90073
11
0.999488
21
0.897717
0
LINE
8
BLACK
6
CONTINUOUS
10
0.999488
20
0.897717
11
0.999488
21
0.837717
0
LINE
8
BLACK
6
CONTINUOUS
10
0.999488
20
0.837717
11
0.998889
21
0.834703
0
LINE
8
BLACK
6
CONTINUOUS
10
0.998889
20
0.834703
11
0.997182
21
0.832149
0
LINE
8
BLACK
6
CONTINUOUS
10
0.997182
20
0.832149
11
0.994627
21
0.830442
0
LINE
8
BLACK
6
CONTINUOUS
10
0.994627
20
0.830442
11
0.991614
21
0.829843
0
LINE
8
BLACK
6
CONTINUOUS
10
0.991614
20
0.829843
11
0.931614
21
0.829843
0
LINE
8
BLACK
6
CONTINUOUS
10
0.931614
20
0.829843
11
0.928601
21
0.830442
0
LINE
8
BLACK
6
CONTINUOUS
10
0.928601
20
0.830442
11
0.926046
21
0.832149
0
LINE
8
BLACK
6
CONTINUOUS
10
0.926046
20
0.832149
11
0.92434
21
0.834703
0
LINE
8
BLACK
6
CONTINUOUS
10
0.92434
20
0.834703
11
0.92374
21
0.837717
0
LINE
8
BLACK
6
CONTINUOUS
10
0.92374
20
0.837717
11
0.92374
21
0.897717
0
LINE
8
BLACK
6
CONTINUOUS
10
0.92374
20
0.897717
11
0.92434
21
0.90073
0
LINE
8
BLACK
6
CONTINUOUS
10
0.92434
20
0.90073
11
0.926046
21
0.903284
0
LINE
8
BLACK
6
CONTINUOUS
10
0.926046
20
0.903284
11
0.928601
21
0.904991
0
LINE
8
BLACK
6
CONTINUOUS
10
0.928601
20
0.904991
11
0.931614
21
0.905591
0
LINE
8
BLACK
6
CONTINUOUS
10
0.931614
20
0.905591
11
0.991614
21
0.905591
0
LINE
8
BLACK
6
CONTINUOUS
10
0.991614
20
0.905591
11
0.994627
21
0.904991
0
LINE
8
BLACK
6
CONTINUOUS
10
1.09463
20
0.904991
11
1.09718
21
0.903284
0
LINE
8
BLACK
6
CONTINUOUS
10
1.09718
20
0.903284
11
1.09889
21
0.90073
0
LINE
8
BLACK
6
CONTINUOUS
10
1.09889
20
0.90073
11
1.09949
21
0.897717
0
LINE
8
BLACK
6
CONTINUOUS
10
1.09949
20
0.897717
11
1.09949
21
0.837717
0
LINE
8
BLACK
6
CONTINUOUS
10
1.09949
20
0.837717
11
1.09889
21
0.834703
0
LINE
8
BLACK
6
CONTINUOUS
10
1.09889
20
0.834703
11
1.09718
21
0.832149
0
LINE
8
BLACK
6
CONTINUOUS
10
1.09718
20
0.832149
11
1.09463
21
0.830442
0
LINE
8
BLACK
6
CONTINUOUS
10
1.09463
20
0.830442
11
1.09161
21
0.829843
0
LINE
8
BLACK
6
CONTINUOUS
10
1.09161
20
0.829843
11
1.03161
21
0.829843
0
LINE
8
BLACK
6
CONTINUOUS
10
1.03161
20
0.829843
11
1.0286
21
0.830442
0
LINE
8
BLACK
6
CONTINUOUS
10
1.0286
20
0.830442
11
1.02605
21
0.832149
0
LINE
8
BLACK
6
CONTINUOUS
10
1.02605
20
0.832149
11
1.02434
21
0.834703
0
LINE
8
BLACK
6
CONTINUOUS
10
1.02434
20
0.834703
11
1.02374
21
0.837717
0
LINE
8
BLACK
6
CONTINUOUS
10
1.02374
20
0.837717
11
1.02374
21
0.897717
0
LINE
8
BLACK
6
CONTINUOUS
10
1.02374
20
0.897717
11
1.02434
21
0.90073
0
LINE
8
BLACK
6
CONTINUOUS
10
1.02434
20
0.90073
11
1.02605
21
0.903284
0
LINE
8
BLACK
6
CONTINUOUS
10
1.02605
20
0.903284
11
1.0286
21
0.904991
0
LINE
8
BLACK
6
CONTINUOUS
10
1.0286
20
0.904991
11
1.03161
21
0.905591
0
LINE
8
BLACK
6
CONTINUOUS
10
1.03161
20
0.905591
11
1.09161
21
0.905591
0
LINE
8
BLACK
6
CONTINUOUS
10
1.09161
20
0.905591
11
1.09463
21
0.904991
0
LINE
8
BLACK
6
CONTINUOUS
10
1.86423
20
0.993495
11
1.86679
21
0.991788
0
LINE
8
BLACK
6
CONTINUOUS
10
1.86679
20
0.991788
11
1.8685
21
0.989234
0
LINE
8
BLACK
6
CONTINUOUS
10
1.8685
20
0.989234
11
1.86909
21
0.98622
0
LINE
8
BLACK
6
CONTINUOUS
10
1.86909
20
0.98622
11
1.86909
21
0.86811
0
LINE
8
BLACK
6
CONTINUOUS
10
1.86909
20
0.86811
11
1.8685
21
0.865097
0
LINE
8
BLACK
6
CONTINUOUS
10
1.8685
20
0.865097
11
1.86679
21
0.862542
0
LINE
8
BLACK
6
CONTINUOUS
10
1.86679
20
0.862542
11
1.86423
21
0.860836
0
LINE
8
BLACK
6
CONTINUOUS
10
1.86423
20
0.860836
11
1.86122
21
0.860236
0
LINE
8
BLACK
6
CONTINUOUS
10
1.86122
20
0.860236
11
1.56594
21
0.860236
0
LINE
8
BLACK
6
CONTINUOUS
10
1.56594
20
0.860236
11
1.56293
21
0.860836
0
LINE
8
BLACK
6
CONTINUOUS
10
1.56293
20
0.860836
11
1.56038
21
0.862542
0
LINE
8
BLACK
6
CONTINUOUS
10
1.56038
20
0.862542
11
1.55867
21
0.865097
0
LINE
8
BLACK
6
CONTINUOUS
10
1.55867
20
0.865097
11
1.55807
21
0.86811
0
LINE
8
BLACK
6
CONTINUOUS
10
1.55807
20
0.86811
11
1.55807
21
0.98622
0
LINE
8
BLACK
6
CONTINUOUS
10
1.55807
20
0.98622
11
1.55867
21
0.989234
0
LINE
8
BLACK
6
CONTINUOUS
10
1.55867
20
0.989234
11
1.56038
21
0.991788
0
LINE
8
BLACK
6
CONTINUOUS
10
1.56038
20
0.991788
11
1.56293
21
0.993495
0
LINE
8
BLACK
6
CONTINUOUS
10
1.56293
20
0.993495
11
1.56594
21
0.994094
0
LINE
8
BLACK
6
CONTINUOUS
10
1.56594
20
0.994094
11
1.86122
21
0.994094
0
LINE
8
BLACK
6
CONTINUOUS
10
1.86122
20
0.994094
11
1.86423
21
0.993495
0
LINE
8
BLACK
6
CONTINUOUS
10
0.994627
20
1.00499
11
0.997182
21
1.00328
0
LINE
8
BLACK
6
CONTINUOUS
10
0.997182
20
1.00328
11
0.998889
21
1.00073
0
LINE
8
BLACK
6
CONTINUOUS
10
0.998889
20
1.00073
11
0.999488
21
0.997717
0
LINE
8
BLACK
6
CONTINUOUS
10
0.999488
20
0.997717
11
0.999488
21
0.937717
0
LINE
8
BLACK
6
CONTINUOUS
10
0.999488
20
0.937717
11
0.998889
21
0.934703
0
LINE
8
BLACK
6
CONTINUOUS
10
0.998889
20
0.934703
11
0.997182
21
0.932149
0
LINE
8
BLACK
6
CONTINUOUS
10
0.997182
20
0.932149
11
0.994627
21
0.930442
0
LINE
8
BLACK
6
CONTINUOUS
10
0.994627
20
0.930442
11
0.991614
21
0.929843
0
LINE
8
BLACK
6
CONTINUOUS
10
0.991614
20
0.929843
11
0.931614
21
0.929843
0
LINE
8
BLACK
6
CONTINUOUS
10
0.931614
20
0.929843
11
0.928601
21
0.930442
0
LINE
8
BLACK
6
CONTINUOUS
10
0.928601
20
0.930442
11
0.926046
21
0.932149
0
LINE
8
BLACK
6
CONTINUOUS
10
0.926046
20
0.932149
11
0.92434
21
0.934703
0
LINE
8
BLACK
6
CONTINUOUS
10
0.92434
20
0.934703
11
0.92374
21
0.937717
0
LINE
8
BLACK
6
CONTINUOUS
10
0.92374
20
0.937717
11
0.92374
21
0.997717
0
LINE
8
BLACK
6
CONTINUOUS
10
0.92374
20
0.997717
11
0.92434
21
1.00073
0
LINE
8
BLACK
6
CONTINUOUS
10
0.92434
20
1.00073
11
0.926046
21
1.00328
0
LINE
8
BLACK
6
CONTINUOUS
10
0.926046
20
1.00328
11
0.928601
21
1.00499
0
LINE
8
BLACK
6
CONTINUOUS
10
0.928601
20
1.00499
11
0.931614
21
1.00559
0
LINE
8
BLACK
6
CONTINUOUS
10
0.931614
20
1.00559
11
0.991614
21
1.00559
0
LINE
8
BLACK
6
CONTINUOUS
10
0.991614
20
1.00559
11
0.994627
21
1.00499
0
LINE
8
BLACK
6
CONTINUOUS
10
1.09463
20
1.00499
11
1.09718
21
1.00328
0
LINE
8
BLACK
6
CONTINUOUS
10
1.09718
20
1.00328
11
1.09889
21
1.00073
0
LINE
8
BLACK
6
CONTINUOUS
10
1.09889
20
1.00073
11
1.09949
21
0.997717
0
LINE
8
BLACK
6
CONTINUOUS
10
1.09949
20
0.997717
11
1.09949
21
0.937717
0
LINE
8
BLACK
6
CONTINUOUS
10
1.09949
20
0.937717
11
1.09889
21
0.934703
0
LINE
8
BLACK
6
CONTINUOUS
10
1.09889
20
0.934703
11
1.09718
21
0.932149
0
LINE
8
BLACK
6
CONTINUOUS
10
1.09718
20
0.932149
11
1.09463
21
0.930442
0
LINE
8
BLACK
6
CONTINUOUS
10
1.09463
20
0.930442
11
1.09161
21
0.929843
0
LINE
8
BLACK
6
CONTINUOUS
10
1.09161
20
0.929843
11
1.03161
21
0.929843
0
LINE
8
BLACK
6
CONTINUOUS
10
1.03161
20
0.929843
11
1.0286
21
0.930442
0
LINE
8
BLACK
6
CONTINUOUS
10
1.0286
20
0.930442
11
1.02605
21
0.932149
0
LINE
8
BLACK
6
CONTINUOUS
10
1.02605
20
0.932149
11
1.02434
21
0.934703
0
LINE
8
BLACK
6
CONTINUOUS
10
1.02434
20
0.934703
11
1.02374
21
0.937717
0
LINE
8
BLACK
6
CONTINUOUS
10
1.02374
20
0.937717
11
1.02374
21
0.997717
0
LINE
8
BLACK
6
CONTINUOUS
10
1.02374
20
0.997717
11
1.02434
21
1.00073
0
LINE
8
BLACK
6
CONTINUOUS
10
1.02434
20
1.00073
11
1.02605
21
1.00328
0
LINE
8
BLACK
6
CONTINUOUS
10
1.02605
20
1.00328
11
1.0286
21
1.00499
0
LINE
8
BLACK
6
CONTINUOUS
10
1.0286
20
1.00499
11
1.03161
21
1.00559
0
LINE
8
BLACK
6
CONTINUOUS
10
1.03161
20
1.00559
11
1.09161
21
1.00559
0
LINE
8
BLACK
6
CONTINUOUS
10
1.09161
20
1.00559
11
1.09463
21
1.00499
0
LINE
8
BLACK
6
CONTINUOUS
10
1.93373
20
1.00611
11
1.93872
21
1.00436
0
LINE
8
BLACK
6
CONTINUOUS
10
1.93872
20
1.00436
11
1.94297
21
1.00123
0
LINE
8
BLACK
6
CONTINUOUS
10
1.94297
20
1.00123
11
1.9461
21
0.996979
0
LINE
8
BLACK
6
CONTINUOUS
10
1.9461
20
0.996979
11
1.94785
21
0.991994
0
LINE
8
BLACK
6
CONTINUOUS
10
1.94785
20
0.991994
11
1.94816
21
0.988701
0
LINE
8
BLACK
6
CONTINUOUS
10
1.94816
20
0.988701
11
1.94816
21
0.951299
0
LINE
8
BLACK
6
CONTINUOUS
10
1.94816
20
0.951299
11
1.94785
21
0.948006
0
LINE
8
BLACK
6
CONTINUOUS
10
1.94785
20
0.948006
11
1.9461
21
0.943021
0
LINE
8
BLACK
6
CONTINUOUS
10
1.9461
20
0.943021
11
1.94297
21
0.938772
0
LINE
8
BLACK
6
CONTINUOUS
10
1.94297
20
0.938772
11
1.93872
21
0.935636
0
LINE
8
BLACK
6
CONTINUOUS
10
1.93872
20
0.935636
11
1.93373
21
0.933892
0
LINE
8
BLACK
6
CONTINUOUS
10
1.93373
20
0.933892
11
1.93044
21
0.933583
0
LINE
8
BLACK
6
CONTINUOUS
10
1.93044
20
0.933583
11
1.91076
21
0.933583
0
LINE
8
BLACK
6
CONTINUOUS
10
1.91076
20
0.933583
11
1.90746
21
0.933892
0
LINE
8
BLACK
6
CONTINUOUS
10
1.90746
20
0.933892
11
1.90248
21
0.935636
0
LINE
8
BLACK
6
CONTINUOUS
10
1.90248
20
0.935636
11
1.89823
21
0.938772
0
LINE
8
BLACK
6
CONTINUOUS
10
1.89823
20
0.938772
11
1.89509
21
0.943021
0
LINE
8
BLACK
6
CONTINUOUS
10
1.89509
20
0.943021
11
1.89335
21
0.948006
0
LINE
8
BLACK
6
CONTINUOUS
10
1.89335
20
0.948006
11
1.89304
21
0.951299
0
LINE
8
BLACK
6
CONTINUOUS
10
1.89304
20
0.951299
11
1.89304
21
0.988701
0
LINE
8
BLACK
6
CONTINUOUS
10
1.89304
20
0.988701
11
1.89335
21
0.991994
0
LINE
8
BLACK
6
CONTINUOUS
10
1.89335
20
0.991994
11
1.89509
21
0.996979
0
LINE
8
BLACK
6
CONTINUOUS
10
1.89509
20
0.996979
11
1.89823
21
1.00123
0
LINE
8
BLACK
6
CONTINUOUS
10
1.89823
20
1.00123
11
1.90248
21
1.00436
0
LINE
8
BLACK
6
CONTINUOUS
10
1.90248
20
1.00436
11
1.90746
21
1.00611
0
LINE
8
BLACK
6
CONTINUOUS
10
1.90746
20
1.00611
11
1.91076
21
1.00642
0
LINE
8
BLACK
6
CONTINUOUS
10
1.91076
20
1.00642
11
1.93044
21
1.00642
0
LINE
8
BLACK
6
CONTINUOUS
10
1.93044
20
1.00642
11
1.93373
21
1.00611
0
LINE
8
BLACK
6
CONTINUOUS
10
2.00854
20
1.00611
11
2.01352
21
1.00436
0
LINE
8
BLACK
6
CONTINUOUS
10
2.01352
20
1.00436
11
2.01777
21
1.00123
0
LINE
8
BLACK
6
CONTINUOUS
10
2.01777
20
1.00123
11
2.02091
21
0.996979
0
LINE
8
BLACK
6
CONTINUOUS
10
2.02091
20
0.996979
11
2.02265
21
0.991994
0
LINE
8
BLACK
6
CONTINUOUS
10
2.02265
20
0.991994
11
2.02296
21
0.988701
0
LINE
8
BLACK
6
CONTINUOUS
10
2.02296
20
0.988701
11
2.02296
21
0.951299
0
LINE
8
BLACK
6
CONTINUOUS
10
2.02296
20
0.951299
11
2.02265
21
0.948006
0
LINE
8
BLACK
6
CONTINUOUS
10
2.02265
20
0.948006
11
2.02091
21
0.943021
0
LINE
8
BLACK
6
CONTINUOUS
10
2.02091
20
0.943021
11
2.01777
21
0.938772
0
LINE
8
BLACK
6
CONTINUOUS
10
2.01777
20
0.938772
11
2.01352
21
0.935636
0
LINE
8
BLACK
6
CONTINUOUS
10
2.01352
20
0.935636
11
2.00854
21
0.933892
0
LINE
8
BLACK
6
CONTINUOUS
10
2.00854
20
0.933892
11
2.00524
21
0.933583
0
LINE
8
BLACK
6
CONTINUOUS
10
2.00524
20
0.933583
11
1.98556
21
0.933583
0
LINE
8
BLACK
6
CONTINUOUS
10
1.98556
20
0.933583
11
1.98227
21
0.933892
0
LINE
8
BLACK
6
CONTINUOUS
10
1.98227
20
0.933892
11
1.97728
21
0.935636
0
LINE
8
BLACK
6
CONTINUOUS
10
1.97728
20
0.935636
11
1.97303
21
0.938772
0
LINE
8
BLACK
6
CONTINUOUS
10
1.97303
20
0.938772
11
1.9699
21
0.943021
0
LINE
8
BLACK
6
CONTINUOUS
10
1.9699
20
0.943021
11
1.96815
21
0.948006
0
LINE
8
BLACK
6
CONTINUOUS
10
1.96815
20
0.948006
11
1.96784
21
0.951299
0
LINE
8
BLACK
6
CONTINUOUS
10
1.96784
20
0.951299
11
1.96784
21
0.988701
0
LINE
8
BLACK
6
CONTINUOUS
10
1.96784
20
0.988701
11
1.96815
21
0.991994
0
LINE
8
BLACK
6
CONTINUOUS
10
1.96815
20
0.991994
11
1.9699
21
0.996979
0
LINE
8
BLACK
6
CONTINUOUS
10
1.9699
20
0.996979
11
1.97303
21
1.00123
0
LINE
8
BLACK
6
CONTINUOUS
10
1.97303
20
1.00123
11
1.97728
21
1.00436
0
LINE
8
BLACK
6
CONTINUOUS
10
1.97728
20
1.00436
11
1.98227
21
1.00611
0
LINE
8
BLACK
6
CONTINUOUS
10
1.98227
20
1.00611
11
1.98556
21
1.00642
0
LINE
8
BLACK
6
CONTINUOUS
10
1.98556
20
1.00642
11
2.00524
21
1.00642
0
LINE
8
BLACK
6
CONTINUOUS
10
2.00524
20
1.00642
11
2.00854
21
1.00611
0
LINE
8
BLACK
6
CONTINUOUS
10
0.522485
20
1.04312
11
0.529897
21
1.04159
0
LINE
8
BLACK
6
CONTINUOUS
10
0.529897
20
1.04159
11
0.536852
21
1.03861
0
LINE
8
BLACK
6
CONTINUOUS
10
0.536852
20
1.03861
11
0.543063
21
1.03428
0
LINE
8
BLACK
6
CONTINUOUS
10
0.543063
20
1.03428
11
0.548277
21
1.0288
0
LINE
8
BLACK
6
CONTINUOUS
10
0.548277
20
1.0288
11
0.55228
21
1.02238
0
LINE
8
BLACK
6
CONTINUOUS
10
0.55228
20
1.02238
11
0.554908
21
1.01528
0
LINE
8
BLACK
6
CONTINUOUS
10
0.554908
20
1.01528
11
0.556054
21
1.0078
0
LINE
8
BLACK
6
CONTINUOUS
10
0.556054
20
1.0078
11
0.555671
21
1.00024
0
LINE
8
BLACK
6
CONTINUOUS
10
0.555671
20
1.00024
11
0.553774
21
0.992916
0
LINE
8
BLACK
6
CONTINUOUS
10
0.553774
20
0.992916
11
0.550441
21
0.986121
0
LINE
8
BLACK
6
CONTINUOUS
10
0.550441
20
0.986121
11
0.545809
21
0.980137
0
LINE
8
BLACK
6
CONTINUOUS
10
0.545809
20
0.980137
11
0.540067
21
0.975208
0
LINE
8
BLACK
6
CONTINUOUS
10
0.540067
20
0.975208
11
0.53345
21
0.971535
0
LINE
8
BLACK
6
CONTINUOUS
10
0.53345
20
0.971535
11
0.52623
21
0.96927
0
LINE
8
BLACK
6
CONTINUOUS
10
0.52623
20
0.96927
11
0.518701
21
0.968504
0
LINE
8
BLACK
6
CONTINUOUS
10
0.518701
20
0.968504
11
0.459646
21
0.968504
0
LINE
8
BLACK
6
CONTINUOUS
10
0.459646
20
0.968504
11
0.455862
21
0.968696
0
LINE
8
BLACK
6
CONTINUOUS
10
0.455862
20
0.968696
11
0.448449
21
0.970219
0
LINE
8
BLACK
6
CONTINUOUS
10
0.448449
20
0.970219
11
0.441495
21
0.973204
0
LINE
8
BLACK
6
CONTINUOUS
10
0.441495
20
0.973204
11
0.435283
21
0.977527
0
LINE
8
BLACK
6
CONTINUOUS
10
0.435283
20
0.977527
11
0.430069
21
0.983012
0
LINE
8
BLACK
6
CONTINUOUS
10
0.430069
20
0.983012
11
0.426066
21
0.989434
0
LINE
8
BLACK
6
CONTINUOUS
10
0.426066
20
0.989434
11
0.423438
21
0.996531
0
LINE
8
BLACK
6
CONTINUOUS
10
0.423438
20
0.996531
11
0.422292
21
1.00401
0
LINE
8
BLACK
6
CONTINUOUS
10
0.422292
20
1.00401
11
0.422675
21
1.01157
0
LINE
8
BLACK
6
CONTINUOUS
10
0.422675
20
1.01157
11
0.424572
21
1.0189
0
LINE
8
BLACK
6
CONTINUOUS
10
0.424572
20
1.0189
11
0.427905
21
1.02569
0
LINE
8
BLACK
6
CONTINUOUS
10
0.427905
20
1.02569
11
0.432537
21
1.03167
0
LINE
8
BLACK
6
CONTINUOUS
10
0.432537
20
1.03167
11
0.438279
21
1.0366
0
LINE
8
BLACK
6
CONTINUOUS
10
0.438279
20
1.0366
11
0.444896
21
1.04028
0
LINE
8
BLACK
6
CONTINUOUS
10
0.444896
20
1.04028
11
0.452117
21
1.04254
0
LINE
8
BLACK
6
CONTINUOUS
10
0.452117
20
1.04254
11
0.459646
21
1.04331
0
LINE
8
BLACK
6
CONTINUOUS
10
0.459646
20
1.04331
11
0.518701
21
1.04331
0
LINE
8
BLACK
6
CONTINUOUS
10
0.518701
20
1.04331
11
0.522485
21
1.04312
0
LINE
8
BLACK
6
CONTINUOUS
10
1.4403
20
1.10107
11
1.44529
21
1.09932
0
LINE
8
BLACK
6
CONTINUOUS
10
1.44529
20
1.09932
11
1.44954
21
1.09619
0
LINE
8
BLACK
6
CONTINUOUS
10
1.44954
20
1.09619
11
1.45267
21
1.09194
0
LINE
8
BLACK
6
CONTINUOUS
10
1.45267
20
1.09194
11
1.45442
21
1.08696
0
LINE
8
BLACK
6
CONTINUOUS
10
1.45442
20
1.08696
11
1.45472
21
1.08366
0
LINE
8
BLACK
6
CONTINUOUS
10
1.45472
20
1.08366
11
1.45472
21
1.04626
0
LINE
8
BLACK
6
CONTINUOUS
10
1.45472
20
1.04626
11
1.45442
21
1.04297
0
LINE
8
BLACK
6
CONTINUOUS
10
1.45442
20
1.04297
11
1.45267
21
1.03798
0
LINE
8
BLACK
6
CONTINUOUS
10
1.45267
20
1.03798
11
1.44954
21
1.03373
0
LINE
8
BLACK
6
CONTINUOUS
10
1.44954
20
1.03373
11
1.44529
21
1.0306
0
LINE
8
BLACK
6
CONTINUOUS
10
1.44529
20
1.0306
11
1.4403
21
1.02885
0
LINE
8
BLACK
6
CONTINUOUS
10
1.4403
20
1.02885
11
1.43701
21
1.02854
0
LINE
8
BLACK
6
CONTINUOUS
10
1.43701
20
1.02854
11
1.41732
21
1.02854
0
LINE
8
BLACK
6
CONTINUOUS
10
1.41732
20
1.02854
11
1.41403
21
1.02885
0
LINE
8
BLACK
6
CONTINUOUS
10
1.41403
20
1.02885
11
1.40904
21
1.0306
0
LINE
8
BLACK
6
CONTINUOUS
10
1.40904
20
1.0306
11
1.4048
21
1.03373
0
LINE
8
BLACK
6
CONTINUOUS
10
1.4048
20
1.03373
11
1.40166
21
1.03798
0
LINE
8
BLACK
6
CONTINUOUS
10
1.40166
20
1.03798
11
1.39992
21
1.04297
0
LINE
8
BLACK
6
CONTINUOUS
10
1.39992
20
1.04297
11
1.39961
21
1.04626
0
LINE
8
BLACK
6
CONTINUOUS
10
1.39961
20
1.04626
11
1.39961
21
1.08366
0
LINE
8
BLACK
6
CONTINUOUS
10
1.39961
20
1.08366
11
1.39992
21
1.08696
0
LINE
8
BLACK
6
CONTINUOUS
10
1.39992
20
1.08696
11
1.40166
21
1.09194
0
LINE
8
BLACK
6
CONTINUOUS
10
1.40166
20
1.09194
11
1.4048
21
1.09619
0
LINE
8
BLACK
6
CONTINUOUS
10
1.4048
20
1.09619
11
1.40904
21
1.09932
0
LINE
8
BLACK
6
CONTINUOUS
10
1.40904
20
1.09932
11
1.41403
21
1.10107
0
LINE
8
BLACK
6
CONTINUOUS
10
1.41403
20
1.10107
11
1.41732
21
1.10138
0
LINE
8
BLACK
6
CONTINUOUS
10
1.41732
20
1.10138
11
1.43701
21
1.10138
0
LINE
8
BLACK
6
CONTINUOUS
10
1.43701
20
1.10138
11
1.4403
21
1.10107
0
LINE
8
BLACK
6
CONTINUOUS
10
1.5151
20
1.10107
11
1.52009
21
1.09932
0
LINE
8
BLACK
6
CONTINUOUS
10
1.52009
20
1.09932
11
1.52434
21
1.09619
0
LINE
8
BLACK
6
CONTINUOUS
10
1.52434
20
1.09619
11
1.52747
21
1.09194
0
LINE
8
BLACK
6
CONTINUOUS
10
1.52747
20
1.09194
11
1.52922
21
1.08696
0
LINE
8
BLACK
6
CONTINUOUS
10
1.52922
20
1.08696
11
1.52953
21
1.08366
0
LINE
8
BLACK
6
CONTINUOUS
10
1.52953
20
1.08366
11
1.52953
21
1.04626
0
LINE
8
BLACK
6
CONTINUOUS
10
1.52953
20
1.04626
11
1.52922
21
1.04297
0
LINE
8
BLACK
6
CONTINUOUS
10
1.52922
20
1.04297
11
1.52747
21
1.03798
0
LINE
8
BLACK
6
CONTINUOUS
10
1.52747
20
1.03798
11
1.52434
21
1.03373
0
LINE
8
BLACK
6
CONTINUOUS
10
1.52434
20
1.03373
11
1.52009
21
1.0306
0
LINE
8
BLACK
6
CONTINUOUS
10
1.52009
20
1.0306
11
1.5151
21
1.02885
0
LINE
8
BLACK
6
CONTINUOUS
10
1.5151
20
1.02885
11
1.51181
21
1.02854
0
LINE
8
BLACK
6
CONTINUOUS
10
1.51181
20
1.02854
11
1.49213
21
1.02854
0
LINE
8
BLACK
6
CONTINUOUS
10
1.49213
20
1.02854
11
1.48883
21
1.02885
0
LINE
8
BLACK
6
CONTINUOUS
10
1.48883
20
1.02885
11
1.48385
21
1.0306
0
LINE
8
BLACK
6
CONTINUOUS
10
1.48385
20
1.0306
11
1.4796
21
1.03373
0
LINE
8
BLACK
6
CONTINUOUS
10
1.4796
20
1.03373
11
1.47646
21
1.03798
0
LINE
8
BLACK
6
CONTINUOUS
10
1.47646
20
1.03798
11
1.47472
21
1.04297
0
LINE
8
BLACK
6
CONTINUOUS
10
1.47472
20
1.04297
11
1.47441
21
1.04626
0
LINE
8
BLACK
6
CONTINUOUS
10
1.47441
20
1.04626
11
1.47441
21
1.08366
0
LINE
8
BLACK
6
CONTINUOUS
10
1.47441
20
1.08366
11
1.47472
21
1.08696
0
LINE
8
BLACK
6
CONTINUOUS
10
1.47472
20
1.08696
11
1.47646
21
1.09194
0
LINE
8
BLACK
6
CONTINUOUS
10
1.47646
20
1.09194
11
1.4796
21
1.09619
0
LINE
8
BLACK
6
CONTINUOUS
10
1.4796
20
1.09619
11
1.48385
21
1.09932
0
LINE
8
BLACK
6
CONTINUOUS
10
1.48385
20
1.09932
11
1.48883
21
1.10107
0
LINE
8
BLACK
6
CONTINUOUS
10
1.48883
20
1.10107
11
1.49213
21
1.10138
0
LINE
8
BLACK
6
CONTINUOUS
10
1.49213
20
1.10138
11
1.51181
21
1.10138
0
LINE
8
BLACK
6
CONTINUOUS
10
1.51181
20
1.10138
11
1.5151
21
1.10107
0
LINE
8
BLACK
6
CONTINUOUS
10
1.07773
20
1.10697
11
1.08272
21
1.10523
0
LINE
8
BLACK
6
CONTINUOUS
10
1.08272
20
1.10523
11
1.08697
21
1.10209
0
LINE
8
BLACK
6
CONTINUOUS
10
1.08697
20
1.10209
11
1.0901
21
1.09785
0
LINE
8
BLACK
6
CONTINUOUS
10
1.0901
20
1.09785
11
1.09185
21
1.09286
0
LINE
8
BLACK
6
CONTINUOUS
10
1.09185
20
1.09286
11
1.09216
21
1.08957
0
LINE
8
BLACK
6
CONTINUOUS
10
1.09216
20
1.08957
11
1.09216
21
1.05217
0
LINE
8
BLACK
6
CONTINUOUS
10
1.09216
20
1.05217
11
1.09185
21
1.04887
0
LINE
8
BLACK
6
CONTINUOUS
10
1.09185
20
1.04887
11
1.0901
21
1.04389
0
LINE
8
BLACK
6
CONTINUOUS
10
1.0901
20
1.04389
11
1.08697
21
1.03964
0
LINE
8
BLACK
6
CONTINUOUS
10
1.08697
20
1.03964
11
1.08272
21
1.0365
0
LINE
8
BLACK
6
CONTINUOUS
10
1.08272
20
1.0365
11
1.07773
21
1.03476
0
LINE
8
BLACK
6
CONTINUOUS
10
1.07773
20
1.03476
11
1.07444
21
1.03445
0
LINE
8
BLACK
6
CONTINUOUS
10
1.07444
20
1.03445
11
1.05476
21
1.03445
0
LINE
8
BLACK
6
CONTINUOUS
10
1.05476
20
1.03445
11
1.05146
21
1.03476
0
LINE
8
BLACK
6
CONTINUOUS
10
1.05146
20
1.03476
11
1.04648
21
1.0365
0
LINE
8
BLACK
6
CONTINUOUS
10
1.04648
20
1.0365
11
1.04223
21
1.03964
0
LINE
8
BLACK
6
CONTINUOUS
10
1.04223
20
1.03964
11
1.03909
21
1.04389
0
LINE
8
BLACK
6
CONTINUOUS
10
1.03909
20
1.04389
11
1.03735
21
1.04887
0
LINE
8
BLACK
6
CONTINUOUS
10
1.03735
20
1.04887
11
1.03704
21
1.05217
0
LINE
8
BLACK
6
CONTINUOUS
10
1.03704
20
1.05217
11
1.03704
21
1.08957
0
LINE
8
BLACK
6
CONTINUOUS
10
1.03704
20
1.08957
11
1.03735
21
1.09286
0
LINE
8
BLACK
6
CONTINUOUS
10
1.03735
20
1.09286
11
1.03909
21
1.09785
0
LINE
8
BLACK
6
CONTINUOUS
10
1.03909
20
1.09785
11
1.04223
21
1.10209
0
LINE
8
BLACK
6
CONTINUOUS
10
1.04223
20
1.10209
11
1.04648
21
1.10523
0
LINE
8
BLACK
6
CONTINUOUS
10
1.04648
20
1.10523
11
1.05146
21
1.10697
0
LINE
8
BLACK
6
CONTINUOUS
10
1.05146
20
1.10697
11
1.05476
21
1.10728
0
LINE
8
BLACK
6
CONTINUOUS
10
1.05476
20
1.10728
11
1.07444
21
1.10728
0
LINE
8
BLACK
6
CONTINUOUS
10
1.07444
20
1.10728
11
1.07773
21
1.10697
0
LINE
8
BLACK
6
CONTINUOUS
10
1.15254
20
1.10697
11
1.15752
21
1.10523
0
LINE
8
BLACK
6
CONTINUOUS
10
1.15752
20
1.10523
11
1.16177
21
1.10209
0
LINE
8
BLACK
6
CONTINUOUS
10
1.16177
20
1.10209
11
1.16491
21
1.09785
0
LINE
8
BLACK
6
CONTINUOUS
10
1.16491
20
1.09785
11
1.16665
21
1.09286
0
LINE
8
BLACK
6
CONTINUOUS
10
1.16665
20
1.09286
11
1.16696
21
1.08957
0
LINE
8
BLACK
6
CONTINUOUS
10
1.16696
20
1.08957
11
1.16696
21
1.05217
0
LINE
8
BLACK
6
CONTINUOUS
10
1.16696
20
1.05217
11
1.16665
21
1.04887
0
LINE
8
BLACK
6
CONTINUOUS
10
1.16665
20
1.04887
11
1.16491
21
1.04389
0
LINE
8
BLACK
6
CONTINUOUS
10
1.16491
20
1.04389
11
1.16177
21
1.03964
0
LINE
8
BLACK
6
CONTINUOUS
10
1.16177
20
1.03964
11
1.15752
21
1.0365
0
LINE
8
BLACK
6
CONTINUOUS
10
1.15752
20
1.0365
11
1.15254
21
1.03476
0
LINE
8
BLACK
6
CONTINUOUS
10
1.15254
20
1.03476
11
1.14924
21
1.03445
0
LINE
8
BLACK
6
CONTINUOUS
10
1.14924
20
1.03445
11
1.12956
21
1.03445
0
LINE
8
BLACK
6
CONTINUOUS
10
1.12956
20
1.03445
11
1.12627
21
1.03476
0
LINE
8
BLACK
6
CONTINUOUS
10
1.12627
20
1.03476
11
1.12128
21
1.0365
0
LINE
8
BLACK
6
CONTINUOUS
10
1.12128
20
1.0365
11
1.11703
21
1.03964
0
LINE
8
BLACK
6
CONTINUOUS
10
1.11703
20
1.03964
11
1.1139
21
1.04389
0
LINE
8
BLACK
6
CONTINUOUS
10
1.1139
20
1.04389
11
1.11215
21
1.04887
0
LINE
8
BLACK
6
CONTINUOUS
10
1.11215
20
1.04887
11
1.11184
21
1.05217
0
LINE
8
BLACK
6
CONTINUOUS
10
1.11184
20
1.05217
11
1.11184
21
1.08957
0
LINE
8
BLACK
6
CONTINUOUS
10
1.11184
20
1.08957
11
1.11215
21
1.09286
0
LINE
8
BLACK
6
CONTINUOUS
10
1.11215
20
1.09286
11
1.1139
21
1.09785
0
LINE
8
BLACK
6
CONTINUOUS
10
1.1139
20
1.09785
11
1.11703
21
1.10209
0
LINE
8
BLACK
6
CONTINUOUS
10
1.11703
20
1.10209
11
1.12128
21
1.10523
0
LINE
8
BLACK
6
CONTINUOUS
10
1.12128
20
1.10523
11
1.12627
21
1.10697
0
LINE
8
BLACK
6
CONTINUOUS
10
1.12627
20
1.10697
11
1.12956
21
1.10728
0
LINE
8
BLACK
6
CONTINUOUS
10
1.12956
20
1.10728
11
1.14924
21
1.10728
0
LINE
8
BLACK
6
CONTINUOUS
10
1.14924
20
1.10728
11
1.15254
21
1.10697
0
LINE
8
BLACK
6
CONTINUOUS
10
1.22062
20
1.10757
11
1.2256
21
1.10582
0
LINE
8
BLACK
6
CONTINUOUS
10
1.2256
20
1.10582
11
1.22985
21
1.10268
0
LINE
8
BLACK
6
CONTINUOUS
10
1.22985
20
1.10268
11
1.23299
21
1.09844
0
LINE
8
BLACK
6
CONTINUOUS
10
1.23299
20
1.09844
11
1.23473
21
1.09345
0
LINE
8
BLACK
6
CONTINUOUS
10
1.23473
20
1.09345
11
1.23504
21
1.09016
0
LINE
8
BLACK
6
CONTINUOUS
10
1.23504
20
1.09016
11
1.23504
21
1.05276
0
LINE
8
BLACK
6
CONTINUOUS
10
1.23504
20
1.05276
11
1.23473
21
1.04946
0
LINE
8
BLACK
6
CONTINUOUS
10
1.23473
20
1.04946
11
1.23299
21
1.04448
0
LINE
8
BLACK
6
CONTINUOUS
10
1.23299
20
1.04448
11
1.22985
21
1.04023
0
LINE
8
BLACK
6
CONTINUOUS
10
1.22985
20
1.04023
11
1.2256
21
1.03709
0
LINE
8
BLACK
6
CONTINUOUS
10
1.2256
20
1.03709
11
1.22062
21
1.03535
0
LINE
8
BLACK
6
CONTINUOUS
10
1.22062
20
1.03535
11
1.21732
21
1.03504
0
LINE
8
BLACK
6
CONTINUOUS
10
1.21732
20
1.03504
11
1.19764
21
1.03504
0
LINE
8
BLACK
6
CONTINUOUS
10
1.19764
20
1.03504
11
1.19434
21
1.03535
0
LINE
8
BLACK
6
CONTINUOUS
10
1.19434
20
1.03535
11
1.18936
21
1.03709
0
LINE
8
BLACK
6
CONTINUOUS
10
1.18936
20
1.03709
11
1.18511
21
1.04023
0
LINE
8
BLACK
6
CONTINUOUS
10
1.18511
20
1.04023
11
1.18197
21
1.04448
0
LINE
8
BLACK
6
CONTINUOUS
10
1.18197
20
1.04448
11
1.18023
21
1.04946
0
LINE
8
BLACK
6
CONTINUOUS
10
1.18023
20
1.04946
11
1.17992
21
1.05276
0
LINE
8
BLACK
6
CONTINUOUS
10
1.17992
20
1.05276
11
1.17992
21
1.09016
0
LINE
8
BLACK
6
CONTINUOUS
10
1.17992
20
1.09016
11
1.18023
21
1.09345
0
LINE
8
BLACK
6
CONTINUOUS
10
1.18023
20
1.09345
11
1.18197
21
1.09844
0
LINE
8
BLACK
6
CONTINUOUS
10
1.18197
20
1.09844
11
1.18511
21
1.10268
0
LINE
8
BLACK
6
CONTINUOUS
10
1.18511
20
1.10268
11
1.18936
21
1.10582
0
LINE
8
BLACK
6
CONTINUOUS
10
1.18936
20
1.10582
11
1.19434
21
1.10757
0
LINE
8
BLACK
6
CONTINUOUS
10
1.19434
20
1.10757
11
1.19764
21
1.10787
0
LINE
8
BLACK
6
CONTINUOUS
10
1.19764
20
1.10787
11
1.21732
21
1.10787
0
LINE
8
BLACK
6
CONTINUOUS
10
1.21732
20
1.10787
11
1.22062
21
1.10757
0
LINE
8
BLACK
6
CONTINUOUS
10
1.29542
20
1.10757
11
1.3004
21
1.10582
0
LINE
8
BLACK
6
CONTINUOUS
10
1.3004
20
1.10582
11
1.30465
21
1.10268
0
LINE
8
BLACK
6
CONTINUOUS
10
1.30465
20
1.10268
11
1.30779
21
1.09844
0
LINE
8
BLACK
6
CONTINUOUS
10
1.30779
20
1.09844
11
1.30953
21
1.09345
0
LINE
8
BLACK
6
CONTINUOUS
10
1.30953
20
1.09345
11
1.30984
21
1.09016
0
LINE
8
BLACK
6
CONTINUOUS
10
1.30984
20
1.09016
11
1.30984
21
1.05276
0
LINE
8
BLACK
6
CONTINUOUS
10
1.30984
20
1.05276
11
1.30953
21
1.04946
0
LINE
8
BLACK
6
CONTINUOUS
10
1.30953
20
1.04946
11
1.30779
21
1.04448
0
LINE
8
BLACK
6
CONTINUOUS
10
1.30779
20
1.04448
11
1.30465
21
1.04023
0
LINE
8
BLACK
6
CONTINUOUS
10
1.30465
20
1.04023
11
1.3004
21
1.03709
0
LINE
8
BLACK
6
CONTINUOUS
10
1.3004
20
1.03709
11
1.29542
21
1.03535
0
LINE
8
BLACK
6
CONTINUOUS
10
1.29542
20
1.03535
11
1.29213
21
1.03504
0
LINE
8
BLACK
6
CONTINUOUS
10
1.29213
20
1.03504
11
1.27244
21
1.03504
0
LINE
8
BLACK
6
CONTINUOUS
10
1.27244
20
1.03504
11
1.26915
21
1.03535
0
LINE
8
BLACK
6
CONTINUOUS
10
1.26915
20
1.03535
11
1.26416
21
1.03709
0
LINE
8
BLACK
6
CONTINUOUS
10
1.26416
20
1.03709
11
1.25991
21
1.04023
0
LINE
8
BLACK
6
CONTINUOUS
10
1.25991
20
1.04023
11
1.25678
21
1.04448
0
LINE
8
BLACK
6
CONTINUOUS
10
1.25678
20
1.04448
11
1.25503
21
1.04946
0
LINE
8
BLACK
6
CONTINUOUS
10
1.25503
20
1.04946
11
1.25472
21
1.05276
0
LINE
8
BLACK
6
CONTINUOUS
10
1.25472
20
1.05276
11
1.25472
21
1.09016
0
LINE
8
BLACK
6
CONTINUOUS
10
1.25472
20
1.09016
11
1.25503
21
1.09345
0
LINE
8
BLACK
6
CONTINUOUS
10
1.25503
20
1.09345
11
1.25678
21
1.09844
0
LINE
8
BLACK
6
CONTINUOUS
10
1.25678
20
1.09844
11
1.25991
21
1.10268
0
LINE
8
BLACK
6
CONTINUOUS
10
1.25991
20
1.10268
11
1.26416
21
1.10582
0
LINE
8
BLACK
6
CONTINUOUS
10
1.26416
20
1.10582
11
1.26915
21
1.10757
0
LINE
8
BLACK
6
CONTINUOUS
10
1.26915
20
1.10757
11
1.27244
21
1.10787
0
LINE
8
BLACK
6
CONTINUOUS
10
1.27244
20
1.10787
11
1.29213
21
1.10787
0
LINE
8
BLACK
6
CONTINUOUS
10
1.29213
20
1.10787
11
1.29542
21
1.10757
0
LINE
8
BLACK
6
CONTINUOUS
10
1.86423
20
1.19035
11
1.86679
21
1.18864
0
LINE
8
BLACK
6
CONTINUOUS
10
1.86679
20
1.18864
11
1.8685
21
1.18608
0
LINE
8
BLACK
6
CONTINUOUS
10
1.8685
20
1.18608
11
1.86909
21
1.18307
0
LINE
8
BLACK
6
CONTINUOUS
10
1.86909
20
1.18307
11
1.86909
21
1.06496
0
LINE
8
BLACK
6
CONTINUOUS
10
1.86909
20
1.06496
11
1.8685
21
1.06195
0
LINE
8
BLACK
6
CONTINUOUS
10
1.8685
20
1.06195
11
1.86679
21
1.05939
0
LINE
8
BLACK
6
CONTINUOUS
10
1.86679
20
1.05939
11
1.86423
21
1.05769
0
LINE
8
BLACK
6
CONTINUOUS
10
1.86423
20
1.05769
11
1.86122
21
1.05709
0
LINE
8
BLACK
6
CONTINUOUS
10
1.86122
20
1.05709
11
1.56594
21
1.05709
0
LINE
8
BLACK
6
CONTINUOUS
10
1.56594
20
1.05709
11
1.56293
21
1.05769
0
LINE
8
BLACK
6
CONTINUOUS
10
1.56293
20
1.05769
11
1.56038
21
1.05939
0
LINE
8
BLACK
6
CONTINUOUS
10
1.56038
20
1.05939
11
1.55867
21
1.06195
0
LINE
8
BLACK
6
CONTINUOUS
10
1.55867
20
1.06195
11
1.55807
21
1.06496
0
LINE
8
BLACK
6
CONTINUOUS
10
1.55807
20
1.06496
11
1.55807
21
1.18307
0
LINE
8
BLACK
6
CONTINUOUS
10
1.55807
20
1.18307
11
1.55867
21
1.18608
0
LINE
8
BLACK
6
CONTINUOUS
10
1.55867
20
1.18608
11
1.56038
21
1.18864
0
LINE
8
BLACK
6
CONTINUOUS
10
1.56038
20
1.18864
11
1.56293
21
1.19035
0
LINE
8
BLACK
6
CONTINUOUS
10
1.56293
20
1.19035
11
1.56594
21
1.19094
0
LINE
8
BLACK
6
CONTINUOUS
10
1.56594
20
1.19094
11
1.86122
21
1.19094
0
LINE
8
BLACK
6
CONTINUOUS
10
1.86122
20
1.19094
11
1.86423
21
1.19035
0
LINE
8
BLACK
6
CONTINUOUS
10
0.551242
20
1.23956
11
0.553796
21
1.23785
0
LINE
8
BLACK
6
CONTINUOUS
10
0.553796
20
1.23785
11
0.555503
21
1.2353
0
LINE
8
BLACK
6
CONTINUOUS
10
0.555503
20
1.2353
11
0.556102
21
1.23228
0
LINE
8
BLACK
6
CONTINUOUS
10
0.556102
20
1.23228
11
0.556102
21
1.17323
0
LINE
8
BLACK
6
CONTINUOUS
10
0.556102
20
1.17323
11
0.555503
21
1.17022
0
LINE
8
BLACK
6
CONTINUOUS
10
0.555503
20
1.17022
11
0.553796
21
1.16766
0
LINE
8
BLACK
6
CONTINUOUS
10
0.553796
20
1.16766
11
0.551242
21
1.16595
0
LINE
8
BLACK
6
CONTINUOUS
10
0.551242
20
1.16595
11
0.548228
21
1.16535
0
LINE
8
BLACK
6
CONTINUOUS
10
0.548228
20
1.16535
11
0.430118
21
1.16535
0
LINE
8
BLACK
6
CONTINUOUS
10
0.430118
20
1.16535
11
0.427105
21
1.16595
0
LINE
8
BLACK
6
CONTINUOUS
10
0.427105
20
1.16595
11
0.42455
21
1.16766
0
LINE
8
BLACK
6
CONTINUOUS
10
0.42455
20
1.16766
11
0.422843
21
1.17022
0
LINE
8
BLACK
6
CONTINUOUS
10
0.422843
20
1.17022
11
0.422244
21
1.17323
0
LINE
8
BLACK
6
CONTINUOUS
10
0.422244
20
1.17323
11
0.422244
21
1.23228
0
LINE
8
BLACK
6
CONTINUOUS
10
0.422244
20
1.23228
11
0.422843
21
1.2353
0
LINE
8
BLACK
6
CONTINUOUS
10
0.422843
20
1.2353
11
0.42455
21
1.23785
0
LINE
8
BLACK
6
CONTINUOUS
10
0.42455
20
1.23785
11
0.427105
21
1.23956
0
LINE
8
BLACK
6
CONTINUOUS
10
0.427105
20
1.23956
11
0.430118
21
1.24016
0
LINE
8
BLACK
6
CONTINUOUS
10
0.430118
20
1.24016
11
0.548228
21
1.24016
0
LINE
8
BLACK
6
CONTINUOUS
10
0.548228
20
1.24016
11
0.551242
21
1.23956
0
LINE
8
BLACK
6
CONTINUOUS
10
1.85221
20
1.29103
11
1.8572
21
1.28929
0
LINE
8
BLACK
6
CONTINUOUS
10
1.8572
20
1.28929
11
1.86144
21
1.28615
0
LINE
8
BLACK
6
CONTINUOUS
10
1.86144
20
1.28615
11
1.86458
21
1.2819
0
LINE
8
BLACK
6
CONTINUOUS
10
1.86458
20
1.2819
11
1.86633
21
1.27692
0
LINE
8
BLACK
6
CONTINUOUS
10
1.86633
20
1.27692
11
1.86663
21
1.27362
0
LINE
8
BLACK
6
CONTINUOUS
10
1.86663
20
1.27362
11
1.86663
21
1.23819
0
LINE
8
BLACK
6
CONTINUOUS
10
1.86663
20
1.23819
11
1.86633
21
1.2349
0
LINE
8
BLACK
6
CONTINUOUS
10
1.86633
20
1.2349
11
1.86458
21
1.22991
0
LINE
8
BLACK
6
CONTINUOUS
10
1.86458
20
1.22991
11
1.86144
21
1.22566
0
LINE
8
BLACK
6
CONTINUOUS
10
1.86144
20
1.22566
11
1.8572
21
1.22253
0
LINE
8
BLACK
6
CONTINUOUS
10
1.8572
20
1.22253
11
1.85221
21
1.22078
0
LINE
8
BLACK
6
CONTINUOUS
10
1.85221
20
1.22078
11
1.84892
21
1.22047
0
LINE
8
BLACK
6
CONTINUOUS
10
1.84892
20
1.22047
11
1.82825
21
1.22047
0
LINE
8
BLACK
6
CONTINUOUS
10
1.82825
20
1.22047
11
1.82495
21
1.22078
0
LINE
8
BLACK
6
CONTINUOUS
10
1.82495
20
1.22078
11
1.81997
21
1.22253
0
LINE
8
BLACK
6
CONTINUOUS
10
1.81997
20
1.22253
11
1.81572
21
1.22566
0
LINE
8
BLACK
6
CONTINUOUS
10
1.81572
20
1.22566
11
1.81258
21
1.22991
0
LINE
8
BLACK
6
CONTINUOUS
10
1.81258
20
1.22991
11
1.81084
21
1.2349
0
LINE
8
BLACK
6
CONTINUOUS
10
1.81084
20
1.2349
11
1.81053
21
1.23819
0
LINE
8
BLACK
6
CONTINUOUS
10
1.81053
20
1.23819
11
1.81053
21
1.27362
0
LINE
8
BLACK
6
CONTINUOUS
10
1.81053
20
1.27362
11
1.81084
21
1.27692
0
LINE
8
BLACK
6
CONTINUOUS
10
1.81084
20
1.27692
11
1.81258
21
1.2819
0
LINE
8
BLACK
6
CONTINUOUS
10
1.81258
20
1.2819
11
1.81572
21
1.28615
0
LINE
8
BLACK
6
CONTINUOUS
10
1.81572
20
1.28615
11
1.81997
21
1.28929
0
LINE
8
BLACK
6
CONTINUOUS
10
1.81997
20
1.28929
11
1.82495
21
1.29103
0
LINE
8
BLACK
6
CONTINUOUS
10
1.82495
20
1.29103
11
1.82825
21
1.29134
0
LINE
8
BLACK
6
CONTINUOUS
10
1.82825
20
1.29134
11
1.84892
21
1.29134
0
LINE
8
BLACK
6
CONTINUOUS
10
1.84892
20
1.29134
11
1.85221
21
1.29103
0
LINE
8
BLACK
6
CONTINUOUS
10
1.92406
20
1.29103
11
1.92905
21
1.28929
0
LINE
8
BLACK
6
CONTINUOUS
10
1.92905
20
1.28929
11
1.9333
21
1.28615
0
LINE
8
BLACK
6
CONTINUOUS
10
1.9333
20
1.28615
11
1.93643
21
1.2819
0
LINE
8
BLACK
6
CONTINUOUS
10
1.93643
20
1.2819
11
1.93818
21
1.27692
0
LINE
8
BLACK
6
CONTINUOUS
10
1.93818
20
1.27692
11
1.93848
21
1.27362
0
LINE
8
BLACK
6
CONTINUOUS
10
1.93848
20
1.27362
11
1.93848
21
1.23819
0
LINE
8
BLACK
6
CONTINUOUS
10
1.93848
20
1.23819
11
1.93818
21
1.2349
0
LINE
8
BLACK
6
CONTINUOUS
10
1.93818
20
1.2349
11
1.93643
21
1.22991
0
LINE
8
BLACK
6
CONTINUOUS
10
1.93643
20
1.22991
11
1.9333
21
1.22566
0
LINE
8
BLACK
6
CONTINUOUS
10
1.9333
20
1.22566
11
1.92905
21
1.22253
0
LINE
8
BLACK
6
CONTINUOUS
10
1.92905
20
1.22253
11
1.92406
21
1.22078
0
LINE
8
BLACK
6
CONTINUOUS
10
1.92406
20
1.22078
11
1.92077
21
1.22047
0
LINE
8
BLACK
6
CONTINUOUS
10
1.92077
20
1.22047
11
1.9001
21
1.22047
0
LINE
8
BLACK
6
CONTINUOUS
10
1.9001
20
1.22047
11
1.8968
21
1.22078
0
LINE
8
BLACK
6
CONTINUOUS
10
1.8968
20
1.22078
11
1.89182
21
1.22253
0
LINE
8
BLACK
6
CONTINUOUS
10
1.89182
20
1.22253
11
1.88757
21
1.22566
0
LINE
8
BLACK
6
CONTINUOUS
10
1.88757
20
1.22566
11
1.88443
21
1.22991
0
LINE
8
BLACK
6
CONTINUOUS
10
1.88443
20
1.22991
11
1.88269
21
1.2349
0
LINE
8
BLACK
6
CONTINUOUS
10
1.88269
20
1.2349
11
1.88238
21
1.23819
0
LINE
8
BLACK
6
CONTINUOUS
10
1.88238
20
1.23819
11
1.88238
21
1.27362
0
LINE
8
BLACK
6
CONTINUOUS
10
1.88238
20
1.27362
11
1.88269
21
1.27692
0
LINE
8
BLACK
6
CONTINUOUS
10
1.88269
20
1.27692
11
1.88443
21
1.2819
0
LINE
8
BLACK
6
CONTINUOUS
10
1.88443
20
1.2819
11
1.88757
21
1.28615
0
LINE
8
BLACK
6
CONTINUOUS
10
1.88757
20
1.28615
11
1.89182
21
1.28929
0
LINE
8
BLACK
6
CONTINUOUS
10
1.89182
20
1.28929
11
1.8968
21
1.29103
0
LINE
8
BLACK
6
CONTINUOUS
10
1.8968
20
1.29103
11
1.9001
21
1.29134
0
LINE
8
BLACK
6
CONTINUOUS
10
1.9001
20
1.29134
11
1.92077
21
1.29134
0
LINE
8
BLACK
6
CONTINUOUS
10
1.92077
20
1.29134
11
1.92406
21
1.29103
0
LINE
8
BLACK
6
CONTINUOUS
10
1.84986
20
1.39507
11
1.85242
21
1.39336
0
LINE
8
BLACK
6
CONTINUOUS
10
1.85242
20
1.39336
11
1.85413
21
1.39081
0
LINE
8
BLACK
6
CONTINUOUS
10
1.85413
20
1.39081
11
1.85472
21
1.3878
0
LINE
8
BLACK
6
CONTINUOUS
10
1.85472
20
1.3878
11
1.85472
21
1.32874
0
LINE
8
BLACK
6
CONTINUOUS
10
1.85472
20
1.32874
11
1.85413
21
1.32573
0
LINE
8
BLACK
6
CONTINUOUS
10
1.85413
20
1.32573
11
1.85242
21
1.32317
0
LINE
8
BLACK
6
CONTINUOUS
10
1.85242
20
1.32317
11
1.84986
21
1.32147
0
LINE
8
BLACK
6
CONTINUOUS
10
1.84986
20
1.32147
11
1.84685
21
1.32087
0
LINE
8
BLACK
6
CONTINUOUS
10
1.84685
20
1.32087
11
1.7878
21
1.32087
0
LINE
8
BLACK
6
CONTINUOUS
10
1.7878
20
1.32087
11
1.78478
21
1.32147
0
LINE
8
BLACK
6
CONTINUOUS
10
1.78478
20
1.32147
11
1.78223
21
1.32317
0
LINE
8
BLACK
6
CONTINUOUS
10
1.78223
20
1.32317
11
1.78052
21
1.32573
0
LINE
8
BLACK
6
CONTINUOUS
10
1.78052
20
1.32573
11
1.77992
21
1.32874
0
LINE
8
BLACK
6
CONTINUOUS
10
1.77992
20
1.32874
11
1.77992
21
1.3878
0
LINE
8
BLACK
6
CONTINUOUS
10
1.77992
20
1.3878
11
1.78052
21
1.39081
0
LINE
8
BLACK
6
CONTINUOUS
10
1.78052
20
1.39081
11
1.78223
21
1.39336
0
LINE
8
BLACK
6
CONTINUOUS
10
1.78223
20
1.39336
11
1.78478
21
1.39507
0
LINE
8
BLACK
6
CONTINUOUS
10
1.78478
20
1.39507
11
1.7878
21
1.39567
0
LINE
8
BLACK
6
CONTINUOUS
10
1.7878
20
1.39567
11
1.84685
21
1.39567
0
LINE
8
BLACK
6
CONTINUOUS
10
1.84685
20
1.39567
11
1.84986
21
1.39507
0
LINE
8
BLACK
6
CONTINUOUS
10
1.9979
20
1.39507
11
2.00045
21
1.39336
0
LINE
8
BLACK
6
CONTINUOUS
10
2.00045
20
1.39336
11
2.00216
21
1.39081
0
LINE
8
BLACK
6
CONTINUOUS
10
2.00216
20
1.39081
11
2.00276
21
1.3878
0
LINE
8
BLACK
6
CONTINUOUS
10
2.00276
20
1.3878
11
2.00276
21
1.32874
0
LINE
8
BLACK
6
CONTINUOUS
10
2.00276
20
1.32874
11
2.00216
21
1.32573
0
LINE
8
BLACK
6
CONTINUOUS
10
2.00216
20
1.32573
11
2.00045
21
1.32317
0
LINE
8
BLACK
6
CONTINUOUS
10
2.00045
20
1.32317
11
1.9979
21
1.32147
0
LINE
8
BLACK
6
CONTINUOUS
10
1.9979
20
1.32147
11
1.99488
21
1.32087
0
LINE
8
BLACK
6
CONTINUOUS
10
1.99488
20
1.32087
11
1.93583
21
1.32087
0
LINE
8
BLACK
6
CONTINUOUS
10
1.93583
20
1.32087
11
1.93281
21
1.32147
0
LINE
8
BLACK
6
CONTINUOUS
10
1.93281
20
1.32147
11
1.93026
21
1.32317
0
LINE
8
BLACK
6
CONTINUOUS
10
1.93026
20
1.32317
11
1.92855
21
1.32573
0
LINE
8
BLACK
6
CONTINUOUS
10
1.92855
20
1.32573
11
1.92795
21
1.32874
0
LINE
8
BLACK
6
CONTINUOUS
10
1.92795
20
1.32874
11
1.92795
21
1.3878
0
LINE
8
BLACK
6
CONTINUOUS
10
1.92795
20
1.3878
11
1.92855
21
1.39081
0
LINE
8
BLACK
6
CONTINUOUS
10
1.92855
20
1.39081
11
1.93026
21
1.39336
0
LINE
8
BLACK
6
CONTINUOUS
10
1.93026
20
1.39336
11
1.93281
21
1.39507
0
LINE
8
BLACK
6
CONTINUOUS
10
1.93281
20
1.39507
11
1.93583
21
1.39567
0
LINE
8
BLACK
6
CONTINUOUS
10
1.93583
20
1.39567
11
1.99488
21
1.39567
0
LINE
8
BLACK
6
CONTINUOUS
10
1.99488
20
1.39567
11
1.9979
21
1.39507
0
LINE
8
BLACK
6
CONTINUOUS
10
1.47545
20
1.45806
11
1.47801
21
1.45636
0
LINE
8
BLACK
6
CONTINUOUS
10
1.47801
20
1.45636
11
1.47972
21
1.4538
0
LINE
8
BLACK
6
CONTINUOUS
10
1.47972
20
1.4538
11
1.48031
21
1.45079
0
LINE
8
BLACK
6
CONTINUOUS
10
1.48031
20
1.45079
11
1.48031
21
1.33268
0
LINE
8
BLACK
6
CONTINUOUS
10
1.48031
20
1.33268
11
1.47972
21
1.32966
0
LINE
8
BLACK
6
CONTINUOUS
10
1.47972
20
1.32966
11
1.47801
21
1.32711
0
LINE
8
BLACK
6
CONTINUOUS
10
1.47801
20
1.32711
11
1.47545
21
1.3254
0
LINE
8
BLACK
6
CONTINUOUS
10
1.47545
20
1.3254
11
1.47244
21
1.3248
0
LINE
8
BLACK
6
CONTINUOUS
10
1.47244
20
1.3248
11
1.41339
21
1.3248
0
LINE
8
BLACK
6
CONTINUOUS
10
1.41339
20
1.3248
11
1.41037
21
1.3254
0
LINE
8
BLACK
6
CONTINUOUS
10
1.41037
20
1.3254
11
1.40782
21
1.32711
0
LINE
8
BLACK
6
CONTINUOUS
10
1.40782
20
1.32711
11
1.40611
21
1.32966
0
LINE
8
BLACK
6
CONTINUOUS
10
1.40611
20
1.32966
11
1.40551
21
1.33268
0
LINE
8
BLACK
6
CONTINUOUS
10
1.40551
20
1.33268
11
1.40551
21
1.45079
0
LINE
8
BLACK
6
CONTINUOUS
10
1.40551
20
1.45079
11
1.40611
21
1.4538
0
LINE
8
BLACK
6
CONTINUOUS
10
1.40611
20
1.4538
11
1.40782
21
1.45636
0
LINE
8
BLACK
6
CONTINUOUS
10
1.40782
20
1.45636
11
1.41037
21
1.45806
0
LINE
8
BLACK
6
CONTINUOUS
10
1.41037
20
1.45806
11
1.41339
21
1.45866
0
LINE
8
BLACK
6
CONTINUOUS
10
1.41339
20
1.45866
11
1.47244
21
1.45866
0
LINE
8
BLACK
6
CONTINUOUS
10
1.47244
20
1.45866
11
1.47545
21
1.45806
0
LINE
8
BLACK
6
CONTINUOUS
10
1.25173
20
1.45823
11
1.25905
21
1.45633
0
LINE
8
BLACK
6
CONTINUOUS
10
1.25905
20
1.45633
11
1.26585
21
1.453
0
LINE
8
BLACK
6
CONTINUOUS
10
1.26585
20
1.453
11
1.27183
21
1.44837
0
LINE
8
BLACK
6
CONTINUOUS
10
1.27183
20
1.44837
11
1.27676
21
1.44263
0
LINE
8
BLACK
6
CONTINUOUS
10
1.27676
20
1.44263
11
1.28043
21
1.43601
0
LINE
8
BLACK
6
CONTINUOUS
10
1.28043
20
1.43601
11
1.2827
21
1.42879
0
LINE
8
BLACK
6
CONTINUOUS
10
1.2827
20
1.42879
11
1.28346
21
1.42126
0
LINE
8
BLACK
6
CONTINUOUS
10
1.28346
20
1.42126
11
1.28346
21
1.3622
0
LINE
8
BLACK
6
CONTINUOUS
10
1.28346
20
1.3622
11
1.28327
21
1.35842
0
LINE
8
BLACK
6
CONTINUOUS
10
1.28327
20
1.35842
11
1.28175
21
1.35101
0
LINE
8
BLACK
6
CONTINUOUS
10
1.28175
20
1.35101
11
1.27876
21
1.34405
0
LINE
8
BLACK
6
CONTINUOUS
10
1.27876
20
1.34405
11
1.27444
21
1.33784
0
LINE
8
BLACK
6
CONTINUOUS
10
1.27444
20
1.33784
11
1.26896
21
1.33263
0
LINE
8
BLACK
6
CONTINUOUS
10
1.26896
20
1.33263
11
1.26253
21
1.32863
0
LINE
8
BLACK
6
CONTINUOUS
10
1.26253
20
1.32863
11
1.25544
21
1.326
0
LINE
8
BLACK
6
CONTINUOUS
10
1.25544
20
1.326
11
1.24796
21
1.32485
0
LINE
8
BLACK
6
CONTINUOUS
10
1.24796
20
1.32485
11
1.2404
21
1.32523
0
LINE
8
BLACK
6
CONTINUOUS
10
1.2404
20
1.32523
11
1.23307
21
1.32713
0
LINE
8
BLACK
6
CONTINUOUS
10
1.23307
20
1.32713
11
1.22628
21
1.33046
0
LINE
8
BLACK
6
CONTINUOUS
10
1.22628
20
1.33046
11
1.22029
21
1.3351
0
LINE
8
BLACK
6
CONTINUOUS
10
1.22029
20
1.3351
11
1.21537
21
1.34084
0
LINE
8
BLACK
6
CONTINUOUS
10
1.21537
20
1.34084
11
1.21169
21
1.34746
0
LINE
8
BLACK
6
CONTINUOUS
10
1.21169
20
1.34746
11
1.20943
21
1.35468
0
LINE
8
BLACK
6
CONTINUOUS
10
1.20943
20
1.35468
11
1.20866
21
1.3622
0
LINE
8
BLACK
6
CONTINUOUS
10
1.20866
20
1.3622
11
1.20866
21
1.42126
0
LINE
8
BLACK
6
CONTINUOUS
10
1.20866
20
1.42126
11
1.20885
21
1.42504
0
LINE
8
BLACK
6
CONTINUOUS
10
1.20885
20
1.42504
11
1.21038
21
1.43246
0
LINE
8
BLACK
6
CONTINUOUS
10
1.21038
20
1.43246
11
1.21336
21
1.43941
0
LINE
8
BLACK
6
CONTINUOUS
10
1.21336
20
1.43941
11
1.21768
21
1.44562
0
LINE
8
BLACK
6
CONTINUOUS
10
1.21768
20
1.44562
11
1.22317
21
1.45084
0
LINE
8
BLACK
6
CONTINUOUS
10
1.22317
20
1.45084
11
1.22959
21
1.45484
0
LINE
8
BLACK
6
CONTINUOUS
10
1.22959
20
1.45484
11
1.23669
21
1.45747
0
LINE
8
BLACK
6
CONTINUOUS
10
1.23669
20
1.45747
11
1.24417
21
1.45861
0
LINE
8
BLACK
6
CONTINUOUS
10
1.24417
20
1.45861
11
1.25173
21
1.45823
0
LINE
8
BLACK
6
CONTINUOUS
10
0.828289
20
1.43727
11
0.830843
21
1.43557
0
LINE
8
BLACK
6
CONTINUOUS
10
0.830843
20
1.43557
11
0.83255
21
1.43301
0
LINE
8
BLACK
6
CONTINUOUS
10
0.83255
20
1.43301
11
0.83315
21
1.43
0
LINE
8
BLACK
6
CONTINUOUS
10
0.83315
20
1.43
11
0.83315
21
1.37
0
LINE
8
BLACK
6
CONTINUOUS
10
0.83315
20
1.37
11
0.83255
21
1.36699
0
LINE
8
BLACK
6
CONTINUOUS
10
0.83255
20
1.36699
11
0.830843
21
1.36443
0
LINE
8
BLACK
6
CONTINUOUS
10
0.830843
20
1.36443
11
0.828289
21
1.36273
0
LINE
8
BLACK
6
CONTINUOUS
10
0.828289
20
1.36273
11
0.825276
21
1.36213
0
LINE
8
BLACK
6
CONTINUOUS
10
0.825276
20
1.36213
11
0.765276
21
1.36213
0
LINE
8
BLACK
6
CONTINUOUS
10
0.765276
20
1.36213
11
0.762262
21
1.36273
0
LINE
8
BLACK
6
CONTINUOUS
10
0.762262
20
1.36273
11
0.759708
21
1.36443
0
LINE
8
BLACK
6
CONTINUOUS
10
0.759708
20
1.36443
11
0.758001
21
1.36699
0
LINE
8
BLACK
6
CONTINUOUS
10
0.758001
20
1.36699
11
0.757402
21
1.37
0
LINE
8
BLACK
6
CONTINUOUS
10
0.757402
20
1.37
11
0.757402
21
1.43
0
LINE
8
BLACK
6
CONTINUOUS
10
0.757402
20
1.43
11
0.758001
21
1.43301
0
LINE
8
BLACK
6
CONTINUOUS
10
0.758001
20
1.43301
11
0.759708
21
1.43557
0
LINE
8
BLACK
6
CONTINUOUS
10
0.759708
20
1.43557
11
0.762262
21
1.43727
0
LINE
8
BLACK
6
CONTINUOUS
10
0.762262
20
1.43727
11
0.765276
21
1.43787
0
LINE
8
BLACK
6
CONTINUOUS
10
0.765276
20
1.43787
11
0.825276
21
1.43787
0
LINE
8
BLACK
6
CONTINUOUS
10
0.825276
20
1.43787
11
0.828289
21
1.43727
0
LINE
8
BLACK
6
CONTINUOUS
10
0.928289
20
1.43727
11
0.930843
21
1.43557
0
LINE
8
BLACK
6
CONTINUOUS
10
0.930843
20
1.43557
11
0.93255
21
1.43301
0
LINE
8
BLACK
6
CONTINUOUS
10
0.93255
20
1.43301
11
0.93315
21
1.43
0
LINE
8
BLACK
6
CONTINUOUS
10
0.93315
20
1.43
11
0.93315
21
1.37
0
LINE
8
BLACK
6
CONTINUOUS
10
0.93315
20
1.37
11
0.93255
21
1.36699
0
LINE
8
BLACK
6
CONTINUOUS
10
0.93255
20
1.36699
11
0.930843
21
1.36443
0
LINE
8
BLACK
6
CONTINUOUS
10
0.930843
20
1.36443
11
0.928289
21
1.36273
0
LINE
8
BLACK
6
CONTINUOUS
10
0.928289
20
1.36273
11
0.925276
21
1.36213
0
LINE
8
BLACK
6
CONTINUOUS
10
0.925276
20
1.36213
11
0.865276
21
1.36213
0
LINE
8
BLACK
6
CONTINUOUS
10
0.865276
20
1.36213
11
0.862262
21
1.36273
0
LINE
8
BLACK
6
CONTINUOUS
10
0.862262
20
1.36273
11
0.859708
21
1.36443
0
LINE
8
BLACK
6
CONTINUOUS
10
0.859708
20
1.36443
11
0.858001
21
1.36699
0
LINE
8
BLACK
6
CONTINUOUS
10
0.858001
20
1.36699
11
0.857402
21
1.37
0
LINE
8
BLACK
6
CONTINUOUS
10
0.857402
20
1.37
11
0.857402
21
1.43
0
LINE
8
BLACK
6
CONTINUOUS
10
0.857402
20
1.43
11
0.858001
21
1.43301
0
LINE
8
BLACK
6
CONTINUOUS
10
0.858001
20
1.43301
11
0.859708
21
1.43557
0
LINE
8
BLACK
6
CONTINUOUS
10
0.859708
20
1.43557
11
0.862262
21
1.43727
0
LINE
8
BLACK
6
CONTINUOUS
10
0.862262
20
1.43727
11
0.865276
21
1.43787
0
LINE
8
BLACK
6
CONTINUOUS
10
0.865276
20
1.43787
11
0.925276
21
1.43787
0
LINE
8
BLACK
6
CONTINUOUS
10
0.925276
20
1.43787
11
0.928289
21
1.43727
0
LINE
8
BLACK
6
CONTINUOUS
10
0.828289
20
1.53727
11
0.830843
21
1.53557
0
LINE
8
BLACK
6
CONTINUOUS
10
0.830843
20
1.53557
11
0.83255
21
1.53301
0
LINE
8
BLACK
6
CONTINUOUS
10
0.83255
20
1.53301
11
0.83315
21
1.53
0
LINE
8
BLACK
6
CONTINUOUS
10
0.83315
20
1.53
11
0.83315
21
1.47
0
LINE
8
BLACK
6
CONTINUOUS
10
0.83315
20
1.47
11
0.83255
21
1.46699
0
LINE
8
BLACK
6
CONTINUOUS
10
0.83255
20
1.46699
11
0.830843
21
1.46443
0
LINE
8
BLACK
6
CONTINUOUS
10
0.830843
20
1.46443
11
0.828289
21
1.46273
0
LINE
8
BLACK
6
CONTINUOUS
10
0.828289
20
1.46273
11
0.825276
21
1.46213
0
LINE
8
BLACK
6
CONTINUOUS
10
0.825276
20
1.46213
11
0.765276
21
1.46213
0
LINE
8
BLACK
6
CONTINUOUS
10
0.765276
20
1.46213
11
0.762262
21
1.46273
0
LINE
8
BLACK
6
CONTINUOUS
10
0.762262
20
1.46273
11
0.759708
21
1.46443
0
LINE
8
BLACK
6
CONTINUOUS
10
0.759708
20
1.46443
11
0.758001
21
1.46699
0
LINE
8
BLACK
6
CONTINUOUS
10
0.758001
20
1.46699
11
0.757402
21
1.47
0
LINE
8
BLACK
6
CONTINUOUS
10
0.757402
20
1.47
11
0.757402
21
1.53
0
LINE
8
BLACK
6
CONTINUOUS
10
0.757402
20
1.53
11
0.758001
21
1.53301
0
LINE
8
BLACK
6
CONTINUOUS
10
0.758001
20
1.53301
11
0.759708
21
1.53557
0
LINE
8
BLACK
6
CONTINUOUS
10
0.759708
20
1.53557
11
0.762262
21
1.53727
0
LINE
8
BLACK
6
CONTINUOUS
10
0.762262
20
1.53727
11
0.765276
21
1.53787
0
LINE
8
BLACK
6
CONTINUOUS
10
0.765276
20
1.53787
11
0.825276
21
1.53787
0
LINE
8
BLACK
6
CONTINUOUS
10
0.825276
20
1.53787
11
0.828289
21
1.53727
0
LINE
8
BLACK
6
CONTINUOUS
10
0.928289
20
1.53727
11
0.930843
21
1.53557
0
LINE
8
BLACK
6
CONTINUOUS
10
0.930843
20
1.53557
11
0.93255
21
1.53301
0
LINE
8
BLACK
6
CONTINUOUS
10
0.93255
20
1.53301
11
0.93315
21
1.53
0
LINE
8
BLACK
6
CONTINUOUS
10
0.93315
20
1.53
11
0.93315
21
1.47
0
LINE
8
BLACK
6
CONTINUOUS
10
0.93315
20
1.47
11
0.93255
21
1.46699
0
LINE
8
BLACK
6
CONTINUOUS
10
0.93255
20
1.46699
11
0.930843
21
1.46443
0
LINE
8
BLACK
6
CONTINUOUS
10
0.930843
20
1.46443
11
0.928289
21
1.46273
0
LINE
8
BLACK
6
CONTINUOUS
10
0.928289
20
1.46273
11
0.925276
21
1.46213
0
LINE
8
BLACK
6
CONTINUOUS
10
0.925276
20
1.46213
11
0.865276
21
1.46213
0
LINE
8
BLACK
6
CONTINUOUS
10
0.865276
20
1.46213
11
0.862262
21
1.46273
0
LINE
8
BLACK
6
CONTINUOUS
10
0.862262
20
1.46273
11
0.859708
21
1.46443
0
LINE
8
BLACK
6
CONTINUOUS
10
0.859708
20
1.46443
11
0.858001
21
1.46699
0
LINE
8
BLACK
6
CONTINUOUS
10
0.858001
20
1.46699
11
0.857402
21
1.47
0
LINE
8
BLACK
6
CONTINUOUS
10
0.857402
20
1.47
11
0.857402
21
1.53
0
LINE
8
BLACK
6
CONTINUOUS
10
0.857402
20
1.53
11
0.858001
21
1.53301
0
LINE
8
BLACK
6
CONTINUOUS
10
0.858001
20
1.53301
11
0.859708
21
1.53557
0
LINE
8
BLACK
6
CONTINUOUS
10
0.859708
20
1.53557
11
0.862262
21
1.53727
0
LINE
8
BLACK
6
CONTINUOUS
10
0.862262
20
1.53727
11
0.865276
21
1.53787
0
LINE
8
BLACK
6
CONTINUOUS
10
0.865276
20
1.53787
11
0.925276
21
1.53787
0
LINE
8
BLACK
6
CONTINUOUS
10
0.925276
20
1.53787
11
0.928289
21
1.53727
0
LINE
8
BLACK
6
CONTINUOUS
10
0.305444
20
1.72519
11
0.319373
21
1.72283
0
LINE
8
BLACK
6
CONTINUOUS
10
0.319373
20
1.72283
11
0.332949
21
1.71891
0
LINE
8
BLACK
6
CONTINUOUS
10
0.332949
20
1.71891
11
0.346001
21
1.71351
0
LINE
8
BLACK
6
CONTINUOUS
10
0.346001
20
1.71351
11
0.358366
21
1.70667
0
LINE
8
BLACK
6
CONTINUOUS
10
0.358366
20
1.70667
11
0.369888
21
1.6985
0
LINE
8
BLACK
6
CONTINUOUS
10
0.369888
20
1.6985
11
0.380423
21
1.68908
0
LINE
8
BLACK
6
CONTINUOUS
10
0.380423
20
1.68908
11
0.389837
21
1.67855
0
LINE
8
BLACK
6
CONTINUOUS
10
0.389837
20
1.67855
11
0.398012
21
1.66703
0
LINE
8
BLACK
6
CONTINUOUS
10
0.398012
20
1.66703
11
0.404846
21
1.65466
0
LINE
8
BLACK
6
CONTINUOUS
10
0.404846
20
1.65466
11
0.410253
21
1.64161
0
LINE
8
BLACK
6
CONTINUOUS
10
0.410253
20
1.64161
11
0.414164
21
1.62803
0
LINE
8
BLACK
6
CONTINUOUS
10
0.414164
20
1.62803
11
0.416531
21
1.61411
0
LINE
8
BLACK
6
CONTINUOUS
10
0.416531
20
1.61411
11
0.417323
21
1.6
0
LINE
8
BLACK
6
CONTINUOUS
10
0.417323
20
1.6
11
0.416531
21
1.58589
0
LINE
8
BLACK
6
CONTINUOUS
10
0.416531
20
1.58589
11
0.414164
21
1.57197
0
LINE
8
BLACK
6
CONTINUOUS
10
0.414164
20
1.57197
11
0.410253
21
1.55839
0
LINE
8
BLACK
6
CONTINUOUS
10
0.410253
20
1.55839
11
0.404846
21
1.54534
0
LINE
8
BLACK
6
CONTINUOUS
10
0.404846
20
1.54534
11
0.398012
21
1.53297
0
LINE
8
BLACK
6
CONTINUOUS
10
0.398012
20
1.53297
11
0.389837
21
1.52145
0
LINE
8
BLACK
6
CONTINUOUS
10
0.389837
20
1.52145
11
0.380423
21
1.51092
0
LINE
8
BLACK
6
CONTINUOUS
10
0.380423
20
1.51092
11
0.369888
21
1.5015
0
LINE
8
BLACK
6
CONTINUOUS
10
0.369888
20
1.5015
11
0.358366
21
1.49333
0
LINE
8
BLACK
6
CONTINUOUS
10
0.358366
20
1.49333
11
0.346001
21
1.48649
0
LINE
8
BLACK
6
CONTINUOUS
10
0.346001
20
1.48649
11
0.332949
21
1.48109
0
LINE
8
BLACK
6
CONTINUOUS
10
0.332949
20
1.48109
11
0.319373
21
1.47717
0
LINE
8
BLACK
6
CONTINUOUS
10
0.319373
20
1.47717
11
0.305444
21
1.47481
0
LINE
8
BLACK
6
CONTINUOUS
10
0.305444
20
1.47481
11
0.291339
21
1.47402
0
LINE
8
BLACK
6
CONTINUOUS
10
0.291339
20
1.47402
11
0.277233
21
1.47481
0
LINE
8
BLACK
6
CONTINUOUS
10
0.277233
20
1.47481
11
0.263304
21
1.47717
0
LINE
8
BLACK
6
CONTINUOUS
10
0.263304
20
1.47717
11
0.249729
21
1.48109
0
LINE
8
BLACK
6
CONTINUOUS
10
0.249729
20
1.48109
11
0.236676
21
1.48649
0
LINE
8
BLACK
6
CONTINUOUS
10
0.236676
20
1.48649
11
0.224311
21
1.49333
0
LINE
8
BLACK
6
CONTINUOUS
10
0.224311
20
1.49333
11
0.212789
21
1.5015
0
LINE
8
BLACK
6
CONTINUOUS
10
0.212789
20
1.5015
11
0.202254
21
1.51092
0
LINE
8
BLACK
6
CONTINUOUS
10
0.202254
20
1.51092
11
0.19284
21
1.52145
0
LINE
8
BLACK
6
CONTINUOUS
10
0.19284
20
1.52145
11
0.184665
21
1.53297
0
LINE
8
BLACK
6
CONTINUOUS
10
0.184665
20
1.53297
11
0.177831
21
1.54534
0
LINE
8
BLACK
6
CONTINUOUS
10
0.177831
20
1.54534
11
0.172424
21
1.55839
0
LINE
8
BLACK
6
CONTINUOUS
10
0.172424
20
1.55839
11
0.168513
21
1.57197
0
LINE
8
BLACK
6
CONTINUOUS
10
0.168513
20
1.57197
11
0.166146
21
1.58589
0
LINE
8
BLACK
6
CONTINUOUS
10
0.166146
20
1.58589
11
0.165354
21
1.6
0
LINE
8
BLACK
6
CONTINUOUS
10
0.165354
20
1.6
11
0.166146
21
1.61411
0
LINE
8
BLACK
6
CONTINUOUS
10
0.166146
20
1.61411
11
0.168513
21
1.62803
0
LINE
8
BLACK
6
CONTINUOUS
10
0.168513
20
1.62803
11
0.172424
21
1.64161
0
LINE
8
BLACK
6
CONTINUOUS
10
0.172424
20
1.64161
11
0.177831
21
1.65466
0
LINE
8
BLACK
6
CONTINUOUS
10
0.177831
20
1.65466
11
0.184665
21
1.66703
0
LINE
8
BLACK
6
CONTINUOUS
10
0.184665
20
1.66703
11
0.19284
21
1.67855
0
LINE
8
BLACK
6
CONTINUOUS
10
0.19284
20
1.67855
11
0.202254
21
1.68908
0
LINE
8
BLACK
6
CONTINUOUS
10
0.202254
20
1.68908
11
0.212789
21
1.6985
0
LINE
8
BLACK
6
CONTINUOUS
10
0.212789
20
1.6985
11
0.224311
21
1.70667
0
LINE
8
BLACK
6
CONTINUOUS
10
0.224311
20
1.70667
11
0.236676
21
1.71351
0
LINE
8
BLACK
6
CONTINUOUS
10
0.236676
20
1.71351
11
0.249729
21
1.71891
0
LINE
8
BLACK
6
CONTINUOUS
10
0.249729
20
1.71891
11
0.263304
21
1.72283
0
LINE
8
BLACK
6
CONTINUOUS
10
0.263304
20
1.72283
11
0.277233
21
1.72519
0
LINE
8
BLACK
6
CONTINUOUS
10
0.277233
20
1.72519
11
0.291339
21
1.72598
0
LINE
8
BLACK
6
CONTINUOUS
10
0.291339
20
1.72598
11
0.305444
21
1.72519
0
LINE
8
BLACK
6
CONTINUOUS
10
1.90544
20
1.72519
11
1.91937
21
1.72283
0
LINE
8
BLACK
6
CONTINUOUS
10
1.91937
20
1.72283
11
1.93295
21
1.71891
0
LINE
8
BLACK
6
CONTINUOUS
10
1.93295
20
1.71891
11
1.946
21
1.71351
0
LINE
8
BLACK
6
CONTINUOUS
10
1.946
20
1.71351
11
1.95837
21
1.70667
0
LINE
8
BLACK
6
CONTINUOUS
10
1.95837
20
1.70667
11
1.96989
21
1.6985
0
LINE
8
BLACK
6
CONTINUOUS
10
1.96989
20
1.6985
11
1.98042
21
1.68908
0
LINE
8
BLACK
6
CONTINUOUS
10
1.98042
20
1.68908
11
1.98984
21
1.67855
0
LINE
8
BLACK
6
CONTINUOUS
10
1.98984
20
1.67855
11
1.99801
21
1.66703
0
LINE
8
BLACK
6
CONTINUOUS
10
1.99801
20
1.66703
11
2.00485
21
1.65466
0
LINE
8
BLACK
6
CONTINUOUS
10
2.00485
20
1.65466
11
2.01025
21
1.64161
0
LINE
8
BLACK
6
CONTINUOUS
10
2.01025
20
1.64161
11
2.01416
21
1.62803
0
LINE
8
BLACK
6
CONTINUOUS
10
2.01416
20
1.62803
11
2.01653
21
1.61411
0
LINE
8
BLACK
6
CONTINUOUS
10
2.01653
20
1.61411
11
2.01732
21
1.6
0
LINE
8
BLACK
6
CONTINUOUS
10
2.01732
20
1.6
11
2.01653
21
1.58589
0
LINE
8
BLACK
6
CONTINUOUS
10
2.01653
20
1.58589
11
2.01416
21
1.57197
0
LINE
8
BLACK
6
CONTINUOUS
10
2.01416
20
1.57197
11
2.01025
21
1.55839
0
LINE
8
BLACK
6
CONTINUOUS
10
2.01025
20
1.55839
11
2.00485
21
1.54534
0
LINE
8
BLACK
6
CONTINUOUS
10
2.00485
20
1.54534
11
1.99801
21
1.53297
0
LINE
8
BLACK
6
CONTINUOUS
10
1.99801
20
1.53297
11
1.98984
21
1.52145
0
LINE
8
BLACK
6
CONTINUOUS
10
1.98984
20
1.52145
11
1.98042
21
1.51092
0
LINE
8
BLACK
6
CONTINUOUS
10
1.98042
20
1.51092
11
1.96989
21
1.5015
0
LINE
8
BLACK
6
CONTINUOUS
10
1.96989
20
1.5015
11
1.95837
21
1.49333
0
LINE
8
BLACK
6
CONTINUOUS
10
1.95837
20
1.49333
11
1.946
21
1.48649
0
LINE
8
BLACK
6
CONTINUOUS
10
1.946
20
1.48649
11
1.93295
21
1.48109
0
LINE
8
BLACK
6
CONTINUOUS
10
1.93295
20
1.48109
11
1.91937
21
1.47717
0
LINE
8
BLACK
6
CONTINUOUS
10
1.91937
20
1.47717
11
1.90544
21
1.47481
0
LINE
8
BLACK
6
CONTINUOUS
10
1.90544
20
1.47481
11
1.89134
21
1.47402
0
LINE
8
BLACK
6
CONTINUOUS
10
1.89134
20
1.47402
11
1.87723
21
1.47481
0
LINE
8
BLACK
6
CONTINUOUS
10
1.87723
20
1.47481
11
1.8633
21
1.47717
0
LINE
8
BLACK
6
CONTINUOUS
10
1.8633
20
1.47717
11
1.84973
21
1.48109
0
LINE
8
BLACK
6
CONTINUOUS
10
1.84973
20
1.48109
11
1.83668
21
1.48649
0
LINE
8
BLACK
6
CONTINUOUS
10
1.83668
20
1.48649
11
1.82431
21
1.49333
0
LINE
8
BLACK
6
CONTINUOUS
10
1.82431
20
1.49333
11
1.81279
21
1.5015
0
LINE
8
BLACK
6
CONTINUOUS
10
1.81279
20
1.5015
11
1.80225
21
1.51092
0
LINE
8
BLACK
6
CONTINUOUS
10
1.80225
20
1.51092
11
1.79284
21
1.52145
0
LINE
8
BLACK
6
CONTINUOUS
10
1.79284
20
1.52145
11
1.78466
21
1.53297
0
LINE
8
BLACK
6
CONTINUOUS
10
1.78466
20
1.53297
11
1.77783
21
1.54534
0
LINE
8
BLACK
6
CONTINUOUS
10
1.77783
20
1.54534
11
1.77242
21
1.55839
0
LINE
8
BLACK
6
CONTINUOUS
10
1.77242
20
1.55839
11
1.76851
21
1.57197
0
LINE
8
BLACK
6
CONTINUOUS
10
1.76851
20
1.57197
11
1.76615
21
1.58589
0
LINE
8
BLACK
6
CONTINUOUS
10
1.76615
20
1.58589
11
1.76535
21
1.6
0
LINE
8
BLACK
6
CONTINUOUS
10
1.76535
20
1.6
11
1.76615
21
1.61411
0
LINE
8
BLACK
6
CONTINUOUS
10
1.76615
20
1.61411
11
1.76851
21
1.62803
0
LINE
8
BLACK
6
CONTINUOUS
10
1.76851
20
1.62803
11
1.77242
21
1.64161
0
LINE
8
BLACK
6
CONTINUOUS
10
1.77242
20
1.64161
11
1.77783
21
1.65466
0
LINE
8
BLACK
6
CONTINUOUS
10
1.77783
20
1.65466
11
1.78466
21
1.66703
0
LINE
8
BLACK
6
CONTINUOUS
10
1.78466
20
1.66703
11
1.79284
21
1.67855
0
LINE
8
BLACK
6
CONTINUOUS
10
1.79284
20
1.67855
11
1.80225
21
1.68908
0
LINE
8
BLACK
6
CONTINUOUS
10
1.80225
20
1.68908
11
1.81279
21
1.6985
0
LINE
8
BLACK
6
CONTINUOUS
10
1.81279
20
1.6985
11
1.82431
21
1.70667
0
LINE
8
BLACK
6
CONTINUOUS
10
1.82431
20
1.70667
11
1.83668
21
1.71351
0
LINE
8
BLACK
6
CONTINUOUS
10
1.83668
20
1.71351
11
1.84973
21
1.71891
0
LINE
8
BLACK
6
CONTINUOUS
10
1.84973
20
1.71891
11
1.8633
21
1.72283
0
LINE
8
BLACK
6
CONTINUOUS
10
1.8633
20
1.72283
11
1.87723
21
1.72519
0
LINE
8
BLACK
6
CONTINUOUS
10
1.87723
20
1.72519
11
1.89134
21
1.72598
0
LINE
8
BLACK
6
CONTINUOUS
10
1.89134
20
1.72598
11
1.90544
21
1.72519
0
LINE
8
BLACK
6
CONTINUOUS
10
0.828289
20
1.63727
11
0.830843
21
1.63557
0
LINE
8
BLACK
6
CONTINUOUS
10
0.830843
20
1.63557
11
0.83255
21
1.63301
0
LINE
8
BLACK
6
CONTINUOUS
10
0.83255
20
1.63301
11
0.83315
21
1.63
0
LINE
8
BLACK
6
CONTINUOUS
10
0.83315
20
1.63
11
0.83315
21
1.57
0
LINE
8
BLACK
6
CONTINUOUS
10
0.83315
20
1.57
11
0.83255
21
1.56699
0
LINE
8
BLACK
6
CONTINUOUS
10
0.83255
20
1.56699
11
0.830843
21
1.56443
0
LINE
8
BLACK
6
CONTINUOUS
10
0.830843
20
1.56443
11
0.828289
21
1.56273
0
LINE
8
BLACK
6
CONTINUOUS
10
0.828289
20
1.56273
11
0.825276
21
1.56213
0
LINE
8
BLACK
6
CONTINUOUS
10
0.825276
20
1.56213
11
0.765276
21
1.56213
0
LINE
8
BLACK
6
CONTINUOUS
10
0.765276
20
1.56213
11
0.762262
21
1.56273
0
LINE
8
BLACK
6
CONTINUOUS
10
0.762262
20
1.56273
11
0.759708
21
1.56443
0
LINE
8
BLACK
6
CONTINUOUS
10
0.759708
20
1.56443
11
0.758001
21
1.56699
0
LINE
8
BLACK
6
CONTINUOUS
10
0.758001
20
1.56699
11
0.757402
21
1.57
0
LINE
8
BLACK
6
CONTINUOUS
10
0.757402
20
1.57
11
0.757402
21
1.63
0
LINE
8
BLACK
6
CONTINUOUS
10
0.757402
20
1.63
11
0.758001
21
1.63301
0
LINE
8
BLACK
6
CONTINUOUS
10
0.758001
20
1.63301
11
0.759708
21
1.63557
0
LINE
8
BLACK
6
CONTINUOUS
10
0.759708
20
1.63557
11
0.762262
21
1.63727
0
LINE
8
BLACK
6
CONTINUOUS
10
0.762262
20
1.63727
11
0.765276
21
1.63787
0
LINE
8
BLACK
6
CONTINUOUS
10
0.765276
20
1.63787
11
0.825276
21
1.63787
0
LINE
8
BLACK
6
CONTINUOUS
10
0.825276
20
1.63787
11
0.828289
21
1.63727
0
LINE
8
BLACK
6
CONTINUOUS
10
0.928289
20
1.63727
11
0.930843
21
1.63557
0
LINE
8
BLACK
6
CONTINUOUS
10
0.930843
20
1.63557
11
0.93255
21
1.63301
0
LINE
8
BLACK
6
CONTINUOUS
10
0.93255
20
1.63301
11
0.93315
21
1.63
0
LINE
8
BLACK
6
CONTINUOUS
10
0.93315
20
1.63
11
0.93315
21
1.57
0
LINE
8
BLACK
6
CONTINUOUS
10
0.93315
20
1.57
11
0.93255
21
1.56699
0
LINE
8
BLACK
6
CONTINUOUS
10
0.93255
20
1.56699
11
0.930843
21
1.56443
0
LINE
8
BLACK
6
CONTINUOUS
10
0.930843
20
1.56443
11
0.928289
21
1.56273
0
LINE
8
BLACK
6
CONTINUOUS
10
0.928289
20
1.56273
11
0.925276
21
1.56213
0
LINE
8
BLACK
6
CONTINUOUS
10
0.925276
20
1.56213
11
0.865276
21
1.56213
0
LINE
8
BLACK
6
CONTINUOUS
10
0.865276
20
1.56213
11
0.862262
21
1.56273
0
LINE
8
BLACK
6
CONTINUOUS
10
0.862262
20
1.56273
11
0.859708
21
1.56443
0
LINE
8
BLACK
6
CONTINUOUS
10
0.859708
20
1.56443
11
0.858001
21
1.56699
0
LINE
8
BLACK
6
CONTINUOUS
10
0.858001
20
1.56699
11
0.857402
21
1.57
0
LINE
8
BLACK
6
CONTINUOUS
10
0.857402
20
1.57
11
0.857402
21
1.63
0
LINE
8
BLACK
6
CONTINUOUS
10
0.857402
20
1.63
11
0.858001
21
1.63301
0
LINE
8
BLACK
6
CONTINUOUS
10
0.858001
20
1.63301
11
0.859708
21
1.63557
0
LINE
8
BLACK
6
CONTINUOUS
10
0.859708
20
1.63557
11
0.862262
21
1.63727
0
LINE
8
BLACK
6
CONTINUOUS
10
0.862262
20
1.63727
11
0.865276
21
1.63787
0
LINE
8
BLACK
6
CONTINUOUS
10
0.865276
20
1.63787
11
0.925276
21
1.63787
0
LINE
8
BLACK
6
CONTINUOUS
10
0.925276
20
1.63787
11
0.928289
21
1.63727
0
LINE
8
BLACK
6
CONTINUOUS
10
0.828289
20
1.73727
11
0.830843
21
1.73557
0
LINE
8
BLACK
6
CONTINUOUS
10
0.830843
20
1.73557
11
0.83255
21
1.73301
0
LINE
8
BLACK
6
CONTINUOUS
10
0.83255
20
1.73301
11
0.83315
21
1.73
0
LINE
8
BLACK
6
CONTINUOUS
10
0.83315
20
1.73
11
0.83315
21
1.67
0
LINE
8
BLACK
6
CONTINUOUS
10
0.83315
20
1.67
11
0.83255
21
1.66699
0
LINE
8
BLACK
6
CONTINUOUS
10
0.83255
20
1.66699
11
0.830843
21
1.66443
0
LINE
8
BLACK
6
CONTINUOUS
10
0.830843
20
1.66443
11
0.828289
21
1.66273
0
LINE
8
BLACK
6
CONTINUOUS
10
0.828289
20
1.66273
11
0.825276
21
1.66213
0
LINE
8
BLACK
6
CONTINUOUS
10
0.825276
20
1.66213
11
0.765276
21
1.66213
0
LINE
8
BLACK
6
CONTINUOUS
10
0.765276
20
1.66213
11
0.762262
21
1.66273
0
LINE
8
BLACK
6
CONTINUOUS
10
0.762262
20
1.66273
11
0.759708
21
1.66443
0
LINE
8
BLACK
6
CONTINUOUS
10
0.759708
20
1.66443
11
0.758001
21
1.66699
0
LINE
8
BLACK
6
CONTINUOUS
10
0.758001
20
1.66699
11
0.757402
21
1.67
0
LINE
8
BLACK
6
CONTINUOUS
10
0.757402
20
1.67
11
0.757402
21
1.73
0
LINE
8
BLACK
6
CONTINUOUS
10
0.757402
20
1.73
11
0.758001
21
1.73301
0
LINE
8
BLACK
6
CONTINUOUS
10
0.758001
20
1.73301
11
0.759708
21
1.73557
0
LINE
8
BLACK
6
CONTINUOUS
10
0.759708
20
1.73557
11
0.762262
21
1.73727
0
LINE
8
BLACK
6
CONTINUOUS
10
0.762262
20
1.73727
11
0.765276
21
1.73787
0
LINE
8
BLACK
6
CONTINUOUS
10
0.765276
20
1.73787
11
0.825276
21
1.73787
0
LINE
8
BLACK
6
CONTINUOUS
10
0.825276
20
1.73787
11
0.828289
21
1.73727
0
LINE
8
BLACK
6
CONTINUOUS
10
0.928289
20
1.73727
11
0.930843
21
1.73557
0
LINE
8
BLACK
6
CONTINUOUS
10
0.930843
20
1.73557
11
0.93255
21
1.73301
0
LINE
8
BLACK
6
CONTINUOUS
10
0.93255
20
1.73301
11
0.93315
21
1.73
0
LINE
8
BLACK
6
CONTINUOUS
10
0.93315
20
1.73
11
0.93315
21
1.67
0
LINE
8
BLACK
6
CONTINUOUS
10
0.93315
20
1.67
11
0.93255
21
1.66699
0
LINE
8
BLACK
6
CONTINUOUS
10
0.93255
20
1.66699
11
0.930843
21
1.66443
0
LINE
8
BLACK
6
CONTINUOUS
10
0.930843
20
1.66443
11
0.928289
21
1.66273
0
LINE
8
BLACK
6
CONTINUOUS
10
0.928289
20
1.66273
11
0.925276
21
1.66213
0
LINE
8
BLACK
6
CONTINUOUS
10
0.925276
20
1.66213
11
0.865276
21
1.66213
0
LINE
8
BLACK
6
CONTINUOUS
10
0.865276
20
1.66213
11
0.862262
21
1.66273
0
LINE
8
BLACK
6
CONTINUOUS
10
0.862262
20
1.66273
11
0.859708
21
1.66443
0
LINE
8
BLACK
6
CONTINUOUS
10
0.859708
20
1.66443
11
0.858001
21
1.66699
0
LINE
8
BLACK
6
CONTINUOUS
10
0.858001
20
1.66699
11
0.857402
21
1.67
0
LINE
8
BLACK
6
CONTINUOUS
10
0.857402
20
1.67
11
0.857402
21
1.73
0
LINE
8
BLACK
6
CONTINUOUS
10
0.857402
20
1.73
11
0.858001
21
1.73301
0
LINE
8
BLACK
6
CONTINUOUS
10
0.858001
20
1.73301
11
0.859708
21
1.73557
0
LINE
8
BLACK
6
CONTINUOUS
10
0.859708
20
1.73557
11
0.862262
21
1.73727
0
LINE
8
BLACK
6
CONTINUOUS
10
0.862262
20
1.73727
11
0.865276
21
1.73787
0
LINE
8
BLACK
6
CONTINUOUS
10
0.865276
20
1.73787
11
0.925276
21
1.73787
0
LINE
8
BLACK
6
CONTINUOUS
10
0.925276
20
1.73787
11
0.928289
21
1.73727
  0
ENDSEC
  0
EOF
