  0
SECTION
  2
HEADER
  9
$ANGBASE
  50
0.0
  9
$ANGDIR
  70
1
  9
$MEASUREMENT
  70
0
  0
ENDSEC
  0
SECTION
  2
TABLES
  0
TABLE
  2
LTYPE
  70
4
  0
LTYPE
  5
40F
  2
CONTINUOUS
  70
0
  3
Solid line
  72
65
  73
0
  40
0.0
  0
LTYPE
  5
410
  2
DASHDOT
 70
0
  3
Dash Dot ____ _ ____ _
 72
65
 73
4
 40
2.0
 49
1.25
 49
-0.25
 49
0.25
 49
-0.25
  0
LTYPE
  5
411
  2
DASHED
 70
0
  3
Dashed __ __ __ __ __
 72
65
 73
2
 40
0.75
 49
0.5
 49
-0.25
  0
LTYPE
  5
43B
  2
DOTTED
 70
0
  3
Dotted .  .  .  .
 72
65
 73
2
 40
0.2
 49
0.0
 49
-0.2
  0
ENDTAB
  0
TABLE
  2
STYLE
  70
4
  0
STYLE
  2
KICAD
  70
0
  40
0
  41
1
  42
1
  50
0
  71
0
  3
isocp.shx
  0
STYLE
  2
KICADB
  70
0
  40
0
  41
1
  42
1
  50
0
  71
0
  3
isocp.shx
  0
STYLE
  2
KICADI
  70
0
  40
0
  41
1
  42
1
  50
15
  71
0
  3
isocp.shx
  0
STYLE
  2
KICADBI
  70
0
  40
0
  41
1
  42
1
  50
15
  71
0
  3
isocp.shx
  0
ENDTAB
  0
TABLE
  2
LAYER
  70
1
  0
LAYER
  2
BLACK
  70
0
  62
7
  6
CONTINUOUS
  0
ENDTAB
  0
ENDSEC
  0
SECTION
  2
ENTITIES
0
LINE
8
BLACK
6
CONTINUOUS
10
1.61897
20
0.495287
11
1.61914
21
0.495298
0
LINE
8
BLACK
6
CONTINUOUS
10
1.61914
20
0.495298
11
1.61983
21
0.49479
0
LINE
8
BLACK
6
CONTINUOUS
10
1.61983
20
0.49479
11
1.62058
21
0.494362
0
LINE
8
BLACK
6
CONTINUOUS
10
1.62058
20
0.494362
11
1.62063
21
0.494202
0
LINE
8
BLACK
6
CONTINUOUS
10
1.62063
20
0.494202
11
1.62077
21
0.494102
0
LINE
8
BLACK
6
CONTINUOUS
10
1.62077
20
0.494102
11
1.62436
21
0.488721
0
LINE
8
BLACK
6
CONTINUOUS
10
1.62436
20
0.488721
11
1.62756
21
0.485517
0
LINE
8
BLACK
6
CONTINUOUS
10
1.62756
20
0.485517
11
1.63088
21
0.483856
0
LINE
8
BLACK
6
CONTINUOUS
10
1.63088
20
0.483856
11
1.63171
21
0.483245
0
LINE
8
BLACK
6
CONTINUOUS
10
1.63171
20
0.483245
11
1.63251
21
0.481392
0
LINE
8
BLACK
6
CONTINUOUS
10
1.63251
20
0.481392
11
1.63194
21
0.479456
0
LINE
8
BLACK
6
CONTINUOUS
10
1.63194
20
0.479456
11
1.63025
21
0.478343
0
LINE
8
BLACK
6
CONTINUOUS
10
1.63025
20
0.478343
11
1.62824
21
0.478574
0
LINE
8
BLACK
6
CONTINUOUS
10
1.62824
20
0.478574
11
1.62449
21
0.480449
0
LINE
8
BLACK
6
CONTINUOUS
10
1.62449
20
0.480449
11
1.62378
21
0.480975
0
LINE
8
BLACK
6
CONTINUOUS
10
1.62378
20
0.480975
11
1.62373
21
0.481002
0
LINE
8
BLACK
6
CONTINUOUS
10
1.62373
20
0.481002
11
1.62127
21
0.48346
0
LINE
8
BLACK
6
CONTINUOUS
10
1.62127
20
0.48346
11
1.62127
21
0.456046
0
LINE
8
BLACK
6
CONTINUOUS
10
1.62127
20
0.456046
11
1.62956
21
0.456046
0
LINE
8
BLACK
6
CONTINUOUS
10
1.62956
20
0.456046
11
1.63057
21
0.455868
0
LINE
8
BLACK
6
CONTINUOUS
10
1.63057
20
0.455868
11
1.63212
21
0.45457
0
LINE
8
BLACK
6
CONTINUOUS
10
1.63212
20
0.45457
11
1.63247
21
0.452581
0
LINE
8
BLACK
6
CONTINUOUS
10
1.63247
20
0.452581
11
1.63146
21
0.450832
0
LINE
8
BLACK
6
CONTINUOUS
10
1.63146
20
0.450832
11
1.62956
21
0.450141
0
LINE
8
BLACK
6
CONTINUOUS
10
1.62956
20
0.450141
11
1.60707
21
0.450141
0
LINE
8
BLACK
6
CONTINUOUS
10
1.60707
20
0.450141
11
1.60606
21
0.450319
0
LINE
8
BLACK
6
CONTINUOUS
10
1.60606
20
0.450319
11
1.60451
21
0.451617
0
LINE
8
BLACK
6
CONTINUOUS
10
1.60451
20
0.451617
11
1.60416
21
0.453606
0
LINE
8
BLACK
6
CONTINUOUS
10
1.60416
20
0.453606
11
1.60517
21
0.455356
0
LINE
8
BLACK
6
CONTINUOUS
10
1.60517
20
0.455356
11
1.60707
21
0.456046
0
LINE
8
BLACK
6
CONTINUOUS
10
1.60707
20
0.456046
11
1.61536
21
0.456046
0
LINE
8
BLACK
6
CONTINUOUS
10
1.61536
20
0.456046
11
1.61536
21
0.492464
0
LINE
8
BLACK
6
CONTINUOUS
10
1.61536
20
0.492464
11
1.61554
21
0.493474
0
LINE
8
BLACK
6
CONTINUOUS
10
1.61554
20
0.493474
11
1.61565
21
0.493604
0
LINE
8
BLACK
6
CONTINUOUS
10
1.61565
20
0.493604
11
1.61567
21
0.493773
0
LINE
8
BLACK
6
CONTINUOUS
10
1.61567
20
0.493773
11
1.61629
21
0.494364
0
LINE
8
BLACK
6
CONTINUOUS
10
1.61629
20
0.494364
11
1.61684
21
0.495021
0
LINE
8
BLACK
6
CONTINUOUS
10
1.61684
20
0.495021
11
1.61701
21
0.49505
0
LINE
8
BLACK
6
CONTINUOUS
10
1.61701
20
0.49505
11
1.61713
21
0.495168
0
LINE
8
BLACK
6
CONTINUOUS
10
1.61713
20
0.495168
11
1.61798
21
0.495223
0
LINE
8
BLACK
6
CONTINUOUS
10
1.61798
20
0.495223
11
1.61883
21
0.495372
0
LINE
8
BLACK
6
CONTINUOUS
10
1.61883
20
0.495372
11
1.61897
21
0.495287
0
LINE
8
BLACK
6
CONTINUOUS
10
1.66744
20
0.495349
11
1.66757
21
0.495372
0
LINE
8
BLACK
6
CONTINUOUS
10
1.66757
20
0.495372
11
1.66769
21
0.495306
0
LINE
8
BLACK
6
CONTINUOUS
10
1.66769
20
0.495306
11
1.66807
21
0.495239
0
LINE
8
BLACK
6
CONTINUOUS
10
1.66807
20
0.495239
11
1.66866
21
0.494745
0
LINE
8
BLACK
6
CONTINUOUS
10
1.66866
20
0.494745
11
1.66932
21
0.494362
0
LINE
8
BLACK
6
CONTINUOUS
10
1.66932
20
0.494362
11
1.66941
21
0.494111
0
LINE
8
BLACK
6
CONTINUOUS
10
1.66941
20
0.494111
11
1.66962
21
0.49394
0
LINE
8
BLACK
6
CONTINUOUS
10
1.66962
20
0.49394
11
1.66975
21
0.493185
0
LINE
8
BLACK
6
CONTINUOUS
10
1.66975
20
0.493185
11
1.67001
21
0.492464
0
LINE
8
BLACK
6
CONTINUOUS
10
1.67001
20
0.492464
11
1.67001
21
0.453094
0
LINE
8
BLACK
6
CONTINUOUS
10
1.67001
20
0.453094
11
1.66994
21
0.45271
0
LINE
8
BLACK
6
CONTINUOUS
10
1.66994
20
0.45271
11
1.66997
21
0.452581
0
LINE
8
BLACK
6
CONTINUOUS
10
1.66997
20
0.452581
11
1.6699
21
0.452467
0
LINE
8
BLACK
6
CONTINUOUS
10
1.6699
20
0.452467
11
1.66983
21
0.452084
0
LINE
8
BLACK
6
CONTINUOUS
10
1.66983
20
0.452084
11
1.66934
21
0.451496
0
LINE
8
BLACK
6
CONTINUOUS
10
1.66934
20
0.451496
11
1.66896
21
0.450832
0
LINE
8
BLACK
6
CONTINUOUS
10
1.66896
20
0.450832
11
1.66871
21
0.450741
0
LINE
8
BLACK
6
CONTINUOUS
10
1.66871
20
0.450741
11
1.66854
21
0.450537
0
LINE
8
BLACK
6
CONTINUOUS
10
1.66854
20
0.450537
11
1.66778
21
0.450403
0
LINE
8
BLACK
6
CONTINUOUS
10
1.66778
20
0.450403
11
1.66706
21
0.450141
0
LINE
8
BLACK
6
CONTINUOUS
10
1.66706
20
0.450141
11
1.65768
21
0.450141
0
LINE
8
BLACK
6
CONTINUOUS
10
1.65768
20
0.450141
11
1.65682
21
0.450294
0
LINE
8
BLACK
6
CONTINUOUS
10
1.65682
20
0.450294
11
1.65675
21
0.450293
0
LINE
8
BLACK
6
CONTINUOUS
10
1.65675
20
0.450293
11
1.65113
21
0.452167
0
LINE
8
BLACK
6
CONTINUOUS
10
1.65113
20
0.452167
11
1.65023
21
0.452656
0
LINE
8
BLACK
6
CONTINUOUS
10
1.65023
20
0.452656
11
1.65013
21
0.452806
0
LINE
8
BLACK
6
CONTINUOUS
10
1.65013
20
0.452806
11
1.64997
21
0.452881
0
LINE
8
BLACK
6
CONTINUOUS
10
1.64997
20
0.452881
11
1.64622
21
0.45663
0
LINE
8
BLACK
6
CONTINUOUS
10
1.64622
20
0.45663
11
1.64572
21
0.457353
0
LINE
8
BLACK
6
CONTINUOUS
10
1.64572
20
0.457353
11
1.64567
21
0.457398
0
LINE
8
BLACK
6
CONTINUOUS
10
1.64567
20
0.457398
11
1.6438
21
0.461147
0
LINE
8
BLACK
6
CONTINUOUS
10
1.6438
20
0.461147
11
1.64365
21
0.461636
0
LINE
8
BLACK
6
CONTINUOUS
10
1.64365
20
0.461636
11
1.64357
21
0.461751
0
LINE
8
BLACK
6
CONTINUOUS
10
1.64357
20
0.461751
11
1.6417
21
0.469251
0
LINE
8
BLACK
6
CONTINUOUS
10
1.6417
20
0.469251
11
1.64166
21
0.469838
0
LINE
8
BLACK
6
CONTINUOUS
10
1.64166
20
0.469838
11
1.64161
21
0.469967
0
LINE
8
BLACK
6
CONTINUOUS
10
1.64161
20
0.469967
11
1.64161
21
0.475591
0
LINE
8
BLACK
6
CONTINUOUS
10
1.64161
20
0.475591
11
1.64171
21
0.476171
0
LINE
8
BLACK
6
CONTINUOUS
10
1.64171
20
0.476171
11
1.6417
21
0.476307
0
LINE
8
BLACK
6
CONTINUOUS
10
1.6417
20
0.476307
11
1.64357
21
0.483806
0
LINE
8
BLACK
6
CONTINUOUS
10
1.64357
20
0.483806
11
1.64378
21
0.484272
0
LINE
8
BLACK
6
CONTINUOUS
10
1.64378
20
0.484272
11
1.6438
21
0.484411
0
LINE
8
BLACK
6
CONTINUOUS
10
1.6438
20
0.484411
11
1.64567
21
0.48816
0
LINE
8
BLACK
6
CONTINUOUS
10
1.64567
20
0.48816
11
1.6462
21
0.488869
0
LINE
8
BLACK
6
CONTINUOUS
10
1.6462
20
0.488869
11
1.64622
21
0.488927
0
LINE
8
BLACK
6
CONTINUOUS
10
1.64622
20
0.488927
11
1.64997
21
0.492677
0
LINE
8
BLACK
6
CONTINUOUS
10
1.64997
20
0.492677
11
1.65081
21
0.493265
0
LINE
8
BLACK
6
CONTINUOUS
10
1.65081
20
0.493265
11
1.65099
21
0.493281
0
LINE
8
BLACK
6
CONTINUOUS
10
1.65099
20
0.493281
11
1.65113
21
0.49339
0
LINE
8
BLACK
6
CONTINUOUS
10
1.65113
20
0.49339
11
1.65675
21
0.495265
0
LINE
8
BLACK
6
CONTINUOUS
10
1.65675
20
0.495265
11
1.65762
21
0.495395
0
LINE
8
BLACK
6
CONTINUOUS
10
1.65762
20
0.495395
11
1.65768
21
0.495417
0
LINE
8
BLACK
6
CONTINUOUS
10
1.65768
20
0.495417
11
1.66706
21
0.495417
0
LINE
8
BLACK
6
CONTINUOUS
10
1.66706
20
0.495417
11
1.66744
21
0.495349
0
LINE
8
BLACK
6
CONTINUOUS
10
1.65366
20
0.488008
11
1.65074
21
0.48509
0
LINE
8
BLACK
6
CONTINUOUS
10
1.65074
20
0.48509
11
1.64922
21
0.482059
0
LINE
8
BLACK
6
CONTINUOUS
10
1.64922
20
0.482059
11
1.64751
21
0.475227
0
LINE
8
BLACK
6
CONTINUOUS
10
1.64751
20
0.475227
11
1.64751
21
0.47033
0
LINE
8
BLACK
6
CONTINUOUS
10
1.64751
20
0.47033
11
1.64922
21
0.463498
0
LINE
8
BLACK
6
CONTINUOUS
10
1.64922
20
0.463498
11
1.65074
21
0.460467
0
LINE
8
BLACK
6
CONTINUOUS
10
1.65074
20
0.460467
11
1.65366
21
0.457549
0
LINE
8
BLACK
6
CONTINUOUS
10
1.65366
20
0.457549
11
1.65816
21
0.456046
0
LINE
8
BLACK
6
CONTINUOUS
10
1.65816
20
0.456046
11
1.66411
21
0.456046
0
LINE
8
BLACK
6
CONTINUOUS
10
1.66411
20
0.456046
11
1.66411
21
0.489511
0
LINE
8
BLACK
6
CONTINUOUS
10
1.66411
20
0.489511
11
1.65816
21
0.489511
0
LINE
8
BLACK
6
CONTINUOUS
10
1.65816
20
0.489511
11
1.65366
21
0.488008
0
LINE
8
BLACK
6
CONTINUOUS
10
1.21779
20
0.502261
11
1.21849
21
0.500591
0
LINE
8
BLACK
6
CONTINUOUS
10
1.21849
20
0.500591
11
1.21779
21
0.49892
0
LINE
8
BLACK
6
CONTINUOUS
10
1.21779
20
0.49892
11
1.21612
21
0.498228
0
LINE
8
BLACK
6
CONTINUOUS
10
1.21612
20
0.498228
11
1.19825
21
0.498228
0
LINE
8
BLACK
6
CONTINUOUS
10
1.19825
20
0.498228
11
1.19658
21
0.49892
0
LINE
8
BLACK
6
CONTINUOUS
10
1.19658
20
0.49892
11
1.19588
21
0.500591
0
LINE
8
BLACK
6
CONTINUOUS
10
1.19588
20
0.500591
11
1.19658
21
0.502261
0
LINE
8
BLACK
6
CONTINUOUS
10
1.19658
20
0.502261
11
1.19825
21
0.502953
0
LINE
8
BLACK
6
CONTINUOUS
10
1.19825
20
0.502953
11
1.21612
21
0.502953
0
LINE
8
BLACK
6
CONTINUOUS
10
1.21612
20
0.502953
11
1.21779
21
0.502261
0
LINE
8
BLACK
6
CONTINUOUS
10
1.36051
20
0.502261
11
1.3612
21
0.500591
0
LINE
8
BLACK
6
CONTINUOUS
10
1.3612
20
0.500591
11
1.36051
21
0.49892
0
LINE
8
BLACK
6
CONTINUOUS
10
1.36051
20
0.49892
11
1.35884
21
0.498228
0
LINE
8
BLACK
6
CONTINUOUS
10
1.35884
20
0.498228
11
1.34096
21
0.498228
0
LINE
8
BLACK
6
CONTINUOUS
10
1.34096
20
0.498228
11
1.33929
21
0.49892
0
LINE
8
BLACK
6
CONTINUOUS
10
1.33929
20
0.49892
11
1.3386
21
0.500591
0
LINE
8
BLACK
6
CONTINUOUS
10
1.3386
20
0.500591
11
1.33929
21
0.502261
0
LINE
8
BLACK
6
CONTINUOUS
10
1.33929
20
0.502261
11
1.34096
21
0.502953
0
LINE
8
BLACK
6
CONTINUOUS
10
1.34096
20
0.502953
11
1.35884
21
0.502953
0
LINE
8
BLACK
6
CONTINUOUS
10
1.35884
20
0.502953
11
1.36051
21
0.502261
0
LINE
8
BLACK
6
CONTINUOUS
10
1.74472
20
0.596063
11
1.74639
21
0.595371
0
LINE
8
BLACK
6
CONTINUOUS
10
1.74639
20
0.595371
11
1.74709
21
0.593701
0
LINE
8
BLACK
6
CONTINUOUS
10
1.74709
20
0.593701
11
1.74709
21
0.506299
0
LINE
8
BLACK
6
CONTINUOUS
10
1.74709
20
0.506299
11
1.74639
21
0.504629
0
LINE
8
BLACK
6
CONTINUOUS
10
1.74639
20
0.504629
11
1.74472
21
0.503937
0
LINE
8
BLACK
6
CONTINUOUS
10
1.74472
20
0.503937
11
1.5711
21
0.503937
0
LINE
8
BLACK
6
CONTINUOUS
10
1.5711
20
0.503937
11
1.56943
21
0.504629
0
LINE
8
BLACK
6
CONTINUOUS
10
1.56943
20
0.504629
11
1.56874
21
0.506299
0
LINE
8
BLACK
6
CONTINUOUS
10
1.56874
20
0.506299
11
1.56943
21
0.50797
0
LINE
8
BLACK
6
CONTINUOUS
10
1.56943
20
0.50797
11
1.5711
21
0.508661
0
LINE
8
BLACK
6
CONTINUOUS
10
1.5711
20
0.508661
11
1.74236
21
0.508661
0
LINE
8
BLACK
6
CONTINUOUS
10
1.74236
20
0.508661
11
1.74236
21
0.591339
0
LINE
8
BLACK
6
CONTINUOUS
10
1.74236
20
0.591339
11
1.5711
21
0.591339
0
LINE
8
BLACK
6
CONTINUOUS
10
1.5711
20
0.591339
11
1.56943
21
0.59203
0
LINE
8
BLACK
6
CONTINUOUS
10
1.56943
20
0.59203
11
1.56874
21
0.593701
0
LINE
8
BLACK
6
CONTINUOUS
10
1.56874
20
0.593701
11
1.56943
21
0.595371
0
LINE
8
BLACK
6
CONTINUOUS
10
1.56943
20
0.595371
11
1.5711
21
0.596063
0
LINE
8
BLACK
6
CONTINUOUS
10
1.5711
20
0.596063
11
1.74472
21
0.596063
0
LINE
8
BLACK
6
CONTINUOUS
10
1.49344
20
0.559349
11
1.49357
21
0.559372
0
LINE
8
BLACK
6
CONTINUOUS
10
1.49357
20
0.559372
11
1.49369
21
0.559306
0
LINE
8
BLACK
6
CONTINUOUS
10
1.49369
20
0.559306
11
1.49407
21
0.559239
0
LINE
8
BLACK
6
CONTINUOUS
10
1.49407
20
0.559239
11
1.49466
21
0.558745
0
LINE
8
BLACK
6
CONTINUOUS
10
1.49466
20
0.558745
11
1.49532
21
0.558362
0
LINE
8
BLACK
6
CONTINUOUS
10
1.49532
20
0.558362
11
1.49541
21
0.558111
0
LINE
8
BLACK
6
CONTINUOUS
10
1.49541
20
0.558111
11
1.49562
21
0.55794
0
LINE
8
BLACK
6
CONTINUOUS
10
1.49562
20
0.55794
11
1.49575
21
0.557185
0
LINE
8
BLACK
6
CONTINUOUS
10
1.49575
20
0.557185
11
1.49601
21
0.556464
0
LINE
8
BLACK
6
CONTINUOUS
10
1.49601
20
0.556464
11
1.49601
21
0.517094
0
LINE
8
BLACK
6
CONTINUOUS
10
1.49601
20
0.517094
11
1.49583
21
0.516084
0
LINE
8
BLACK
6
CONTINUOUS
10
1.49583
20
0.516084
11
1.49454
21
0.514537
0
LINE
8
BLACK
6
CONTINUOUS
10
1.49454
20
0.514537
11
1.49255
21
0.514186
0
LINE
8
BLACK
6
CONTINUOUS
10
1.49255
20
0.514186
11
1.4908
21
0.515196
0
LINE
8
BLACK
6
CONTINUOUS
10
1.4908
20
0.515196
11
1.49011
21
0.517094
0
LINE
8
BLACK
6
CONTINUOUS
10
1.49011
20
0.517094
11
1.49011
21
0.532889
0
LINE
8
BLACK
6
CONTINUOUS
10
1.49011
20
0.532889
11
1.48522
21
0.532889
0
LINE
8
BLACK
6
CONTINUOUS
10
1.48522
20
0.532889
11
1.47298
21
0.5154
0
LINE
8
BLACK
6
CONTINUOUS
10
1.47298
20
0.5154
11
1.47226
21
0.514675
0
LINE
8
BLACK
6
CONTINUOUS
10
1.47226
20
0.514675
11
1.4703
21
0.514152
0
LINE
8
BLACK
6
CONTINUOUS
10
1.4703
20
0.514152
11
1.46847
21
0.515006
0
LINE
8
BLACK
6
CONTINUOUS
10
1.46847
20
0.515006
11
1.46762
21
0.516836
0
LINE
8
BLACK
6
CONTINUOUS
10
1.46762
20
0.516836
11
1.46814
21
0.518787
0
LINE
8
BLACK
6
CONTINUOUS
10
1.46814
20
0.518787
11
1.47802
21
0.532896
0
LINE
8
BLACK
6
CONTINUOUS
10
1.47802
20
0.532896
11
1.47705
21
0.533067
0
LINE
8
BLACK
6
CONTINUOUS
10
1.47705
20
0.533067
11
1.47692
21
0.53318
0
LINE
8
BLACK
6
CONTINUOUS
10
1.47692
20
0.53318
11
1.47674
21
0.5332
0
LINE
8
BLACK
6
CONTINUOUS
10
1.47674
20
0.5332
11
1.47299
21
0.535075
0
LINE
8
BLACK
6
CONTINUOUS
10
1.47299
20
0.535075
11
1.47228
21
0.535601
0
LINE
8
BLACK
6
CONTINUOUS
10
1.47228
20
0.535601
11
1.47222
21
0.535628
0
LINE
8
BLACK
6
CONTINUOUS
10
1.47222
20
0.535628
11
1.47035
21
0.537503
0
LINE
8
BLACK
6
CONTINUOUS
10
1.47035
20
0.537503
11
1.46984
21
0.538226
0
LINE
8
BLACK
6
CONTINUOUS
10
1.46984
20
0.538226
11
1.4698
21
0.53827
0
LINE
8
BLACK
6
CONTINUOUS
10
1.4698
20
0.53827
11
1.46792
21
0.54202
0
LINE
8
BLACK
6
CONTINUOUS
10
1.46792
20
0.54202
11
1.46763
21
0.543003
0
LINE
8
BLACK
6
CONTINUOUS
10
1.46763
20
0.543003
11
1.46767
21
0.543175
0
LINE
8
BLACK
6
CONTINUOUS
10
1.46767
20
0.543175
11
1.46761
21
0.54334
0
LINE
8
BLACK
6
CONTINUOUS
10
1.46761
20
0.54334
11
1.46761
21
0.548965
0
LINE
8
BLACK
6
CONTINUOUS
10
1.46761
20
0.548965
11
1.46779
21
0.549975
0
LINE
8
BLACK
6
CONTINUOUS
10
1.46779
20
0.549975
11
1.4679
21
0.55011
0
LINE
8
BLACK
6
CONTINUOUS
10
1.4679
20
0.55011
11
1.46792
21
0.550285
0
LINE
8
BLACK
6
CONTINUOUS
10
1.46792
20
0.550285
11
1.4698
21
0.554035
0
LINE
8
BLACK
6
CONTINUOUS
10
1.4698
20
0.554035
11
1.47032
21
0.554744
0
LINE
8
BLACK
6
CONTINUOUS
10
1.47032
20
0.554744
11
1.47035
21
0.554802
0
LINE
8
BLACK
6
CONTINUOUS
10
1.47035
20
0.554802
11
1.47222
21
0.556677
0
LINE
8
BLACK
6
CONTINUOUS
10
1.47222
20
0.556677
11
1.47295
21
0.557183
0
LINE
8
BLACK
6
CONTINUOUS
10
1.47295
20
0.557183
11
1.47299
21
0.55723
0
LINE
8
BLACK
6
CONTINUOUS
10
1.47299
20
0.55723
11
1.47674
21
0.559105
0
LINE
8
BLACK
6
CONTINUOUS
10
1.47674
20
0.559105
11
1.47772
21
0.559397
0
LINE
8
BLACK
6
CONTINUOUS
10
1.47772
20
0.559397
11
1.47789
21
0.559356
0
LINE
8
BLACK
6
CONTINUOUS
10
1.47789
20
0.559356
11
1.47806
21
0.559417
0
LINE
8
BLACK
6
CONTINUOUS
10
1.47806
20
0.559417
11
1.49306
21
0.559417
0
LINE
8
BLACK
6
CONTINUOUS
10
1.49306
20
0.559417
11
1.49344
21
0.559349
0
LINE
8
BLACK
6
CONTINUOUS
10
1.47606
20
0.552162
11
1.47486
21
0.550965
0
LINE
8
BLACK
6
CONTINUOUS
10
1.47486
20
0.550965
11
1.47351
21
0.548268
0
LINE
8
BLACK
6
CONTINUOUS
10
1.47351
20
0.548268
11
1.47351
21
0.544038
0
LINE
8
BLACK
6
CONTINUOUS
10
1.47351
20
0.544038
11
1.47486
21
0.54134
0
LINE
8
BLACK
6
CONTINUOUS
10
1.47486
20
0.54134
11
1.47606
21
0.540143
0
LINE
8
BLACK
6
CONTINUOUS
10
1.47606
20
0.540143
11
1.47876
21
0.538794
0
LINE
8
BLACK
6
CONTINUOUS
10
1.47876
20
0.538794
11
1.49011
21
0.538794
0
LINE
8
BLACK
6
CONTINUOUS
10
1.49011
20
0.538794
11
1.49011
21
0.553511
0
LINE
8
BLACK
6
CONTINUOUS
10
1.49011
20
0.553511
11
1.47876
21
0.553511
0
LINE
8
BLACK
6
CONTINUOUS
10
1.47876
20
0.553511
11
1.47606
21
0.552162
0
LINE
8
BLACK
6
CONTINUOUS
10
1.45845
20
0.559239
11
1.46
21
0.55794
0
LINE
8
BLACK
6
CONTINUOUS
10
1.46
20
0.55794
11
1.46035
21
0.555951
0
LINE
8
BLACK
6
CONTINUOUS
10
1.46035
20
0.555951
11
1.45934
21
0.554202
0
LINE
8
BLACK
6
CONTINUOUS
10
1.45934
20
0.554202
11
1.45744
21
0.553511
0
LINE
8
BLACK
6
CONTINUOUS
10
1.45744
20
0.553511
11
1.43567
21
0.553511
0
LINE
8
BLACK
6
CONTINUOUS
10
1.43567
20
0.553511
11
1.45078
21
0.518257
0
LINE
8
BLACK
6
CONTINUOUS
10
1.45078
20
0.518257
11
1.45101
21
0.517259
0
LINE
8
BLACK
6
CONTINUOUS
10
1.45101
20
0.517259
11
1.45043
21
0.515325
0
LINE
8
BLACK
6
CONTINUOUS
10
1.45043
20
0.515325
11
1.44874
21
0.514219
0
LINE
8
BLACK
6
CONTINUOUS
10
1.44874
20
0.514219
11
1.44673
21
0.514458
0
LINE
8
BLACK
6
CONTINUOUS
10
1.44673
20
0.514458
11
1.44535
21
0.515931
0
LINE
8
BLACK
6
CONTINUOUS
10
1.44535
20
0.515931
11
1.42848
21
0.555301
0
LINE
8
BLACK
6
CONTINUOUS
10
1.42848
20
0.555301
11
1.42824
21
0.556299
0
LINE
8
BLACK
6
CONTINUOUS
10
1.42824
20
0.556299
11
1.42834
21
0.556633
0
LINE
8
BLACK
6
CONTINUOUS
10
1.42834
20
0.556633
11
1.42828
21
0.556977
0
LINE
8
BLACK
6
CONTINUOUS
10
1.42828
20
0.556977
11
1.42863
21
0.557573
0
LINE
8
BLACK
6
CONTINUOUS
10
1.42863
20
0.557573
11
1.42883
21
0.558233
0
LINE
8
BLACK
6
CONTINUOUS
10
1.42883
20
0.558233
11
1.42912
21
0.558424
0
LINE
8
BLACK
6
CONTINUOUS
10
1.42912
20
0.558424
11
1.42929
21
0.558726
0
LINE
8
BLACK
6
CONTINUOUS
10
1.42929
20
0.558726
11
1.42994
21
0.558961
0
LINE
8
BLACK
6
CONTINUOUS
10
1.42994
20
0.558961
11
1.43052
21
0.559339
0
LINE
8
BLACK
6
CONTINUOUS
10
1.43052
20
0.559339
11
1.43086
21
0.559297
0
LINE
8
BLACK
6
CONTINUOUS
10
1.43086
20
0.559297
11
1.43119
21
0.559417
0
LINE
8
BLACK
6
CONTINUOUS
10
1.43119
20
0.559417
11
1.45744
21
0.559417
0
LINE
8
BLACK
6
CONTINUOUS
10
1.45744
20
0.559417
11
1.45845
21
0.559239
0
LINE
8
BLACK
6
CONTINUOUS
10
0.550489
20
0.57311
11
0.551181
21
0.57144
0
LINE
8
BLACK
6
CONTINUOUS
10
0.551181
20
0.57144
11
0.551181
21
0.55356
0
LINE
8
BLACK
6
CONTINUOUS
10
0.551181
20
0.55356
11
0.550489
21
0.55189
0
LINE
8
BLACK
6
CONTINUOUS
10
0.550489
20
0.55189
11
0.548819
21
0.551198
0
LINE
8
BLACK
6
CONTINUOUS
10
0.548819
20
0.551198
11
0.547149
21
0.55189
0
LINE
8
BLACK
6
CONTINUOUS
10
0.547149
20
0.55189
11
0.546457
21
0.55356
0
LINE
8
BLACK
6
CONTINUOUS
10
0.546457
20
0.55356
11
0.546457
21
0.57144
0
LINE
8
BLACK
6
CONTINUOUS
10
0.546457
20
0.57144
11
0.547149
21
0.57311
0
LINE
8
BLACK
6
CONTINUOUS
10
0.547149
20
0.57311
11
0.548819
21
0.573802
0
LINE
8
BLACK
6
CONTINUOUS
10
0.548819
20
0.573802
11
0.550489
21
0.57311
0
LINE
8
BLACK
6
CONTINUOUS
10
0.608363
20
0.57311
11
0.609055
21
0.57144
0
LINE
8
BLACK
6
CONTINUOUS
10
0.609055
20
0.57144
11
0.609055
21
0.55356
0
LINE
8
BLACK
6
CONTINUOUS
10
0.609055
20
0.55356
11
0.608363
21
0.55189
0
LINE
8
BLACK
6
CONTINUOUS
10
0.608363
20
0.55189
11
0.606693
21
0.551198
0
LINE
8
BLACK
6
CONTINUOUS
10
0.606693
20
0.551198
11
0.605023
21
0.55189
0
LINE
8
BLACK
6
CONTINUOUS
10
0.605023
20
0.55189
11
0.604331
21
0.55356
0
LINE
8
BLACK
6
CONTINUOUS
10
0.604331
20
0.55356
11
0.604331
21
0.57144
0
LINE
8
BLACK
6
CONTINUOUS
10
0.604331
20
0.57144
11
0.605023
21
0.57311
0
LINE
8
BLACK
6
CONTINUOUS
10
0.605023
20
0.57311
11
0.606693
21
0.573802
0
LINE
8
BLACK
6
CONTINUOUS
10
0.606693
20
0.573802
11
0.608363
21
0.57311
0
LINE
8
BLACK
6
CONTINUOUS
10
0.651867
20
0.57311
11
0.652559
21
0.57144
0
LINE
8
BLACK
6
CONTINUOUS
10
0.652559
20
0.57144
11
0.652559
21
0.55356
0
LINE
8
BLACK
6
CONTINUOUS
10
0.652559
20
0.55356
11
0.651867
21
0.55189
0
LINE
8
BLACK
6
CONTINUOUS
10
0.651867
20
0.55189
11
0.650197
21
0.551198
0
LINE
8
BLACK
6
CONTINUOUS
10
0.650197
20
0.551198
11
0.648527
21
0.55189
0
LINE
8
BLACK
6
CONTINUOUS
10
0.648527
20
0.55189
11
0.647835
21
0.55356
0
LINE
8
BLACK
6
CONTINUOUS
10
0.647835
20
0.55356
11
0.647835
21
0.57144
0
LINE
8
BLACK
6
CONTINUOUS
10
0.647835
20
0.57144
11
0.648527
21
0.57311
0
LINE
8
BLACK
6
CONTINUOUS
10
0.648527
20
0.57311
11
0.650197
21
0.573802
0
LINE
8
BLACK
6
CONTINUOUS
10
0.650197
20
0.573802
11
0.651867
21
0.57311
0
LINE
8
BLACK
6
CONTINUOUS
10
0.709741
20
0.57311
11
0.710433
21
0.57144
0
LINE
8
BLACK
6
CONTINUOUS
10
0.710433
20
0.57144
11
0.710433
21
0.55356
0
LINE
8
BLACK
6
CONTINUOUS
10
0.710433
20
0.55356
11
0.709741
21
0.55189
0
LINE
8
BLACK
6
CONTINUOUS
10
0.709741
20
0.55189
11
0.708071
21
0.551198
0
LINE
8
BLACK
6
CONTINUOUS
10
0.708071
20
0.551198
11
0.706401
21
0.55189
0
LINE
8
BLACK
6
CONTINUOUS
10
0.706401
20
0.55189
11
0.705709
21
0.55356
0
LINE
8
BLACK
6
CONTINUOUS
10
0.705709
20
0.55356
11
0.705709
21
0.57144
0
LINE
8
BLACK
6
CONTINUOUS
10
0.705709
20
0.57144
11
0.706401
21
0.57311
0
LINE
8
BLACK
6
CONTINUOUS
10
0.706401
20
0.57311
11
0.708071
21
0.573802
0
LINE
8
BLACK
6
CONTINUOUS
10
0.708071
20
0.573802
11
0.709741
21
0.57311
0
LINE
8
BLACK
6
CONTINUOUS
10
0.761119
20
0.57311
11
0.761811
21
0.57144
0
LINE
8
BLACK
6
CONTINUOUS
10
0.761811
20
0.57144
11
0.761811
21
0.55356
0
LINE
8
BLACK
6
CONTINUOUS
10
0.761811
20
0.55356
11
0.761119
21
0.55189
0
LINE
8
BLACK
6
CONTINUOUS
10
0.761119
20
0.55189
11
0.759449
21
0.551198
0
LINE
8
BLACK
6
CONTINUOUS
10
0.759449
20
0.551198
11
0.757779
21
0.55189
0
LINE
8
BLACK
6
CONTINUOUS
10
0.757779
20
0.55189
11
0.757087
21
0.55356
0
LINE
8
BLACK
6
CONTINUOUS
10
0.757087
20
0.55356
11
0.757087
21
0.57144
0
LINE
8
BLACK
6
CONTINUOUS
10
0.757087
20
0.57144
11
0.757779
21
0.57311
0
LINE
8
BLACK
6
CONTINUOUS
10
0.757779
20
0.57311
11
0.759449
21
0.573802
0
LINE
8
BLACK
6
CONTINUOUS
10
0.759449
20
0.573802
11
0.761119
21
0.57311
0
LINE
8
BLACK
6
CONTINUOUS
10
0.818993
20
0.57311
11
0.819685
21
0.57144
0
LINE
8
BLACK
6
CONTINUOUS
10
0.819685
20
0.57144
11
0.819685
21
0.55356
0
LINE
8
BLACK
6
CONTINUOUS
10
0.819685
20
0.55356
11
0.818993
21
0.55189
0
LINE
8
BLACK
6
CONTINUOUS
10
0.818993
20
0.55189
11
0.817323
21
0.551198
0
LINE
8
BLACK
6
CONTINUOUS
10
0.817323
20
0.551198
11
0.815653
21
0.55189
0
LINE
8
BLACK
6
CONTINUOUS
10
0.815653
20
0.55189
11
0.814961
21
0.55356
0
LINE
8
BLACK
6
CONTINUOUS
10
0.814961
20
0.55356
11
0.814961
21
0.57144
0
LINE
8
BLACK
6
CONTINUOUS
10
0.814961
20
0.57144
11
0.815653
21
0.57311
0
LINE
8
BLACK
6
CONTINUOUS
10
0.815653
20
0.57311
11
0.817323
21
0.573802
0
LINE
8
BLACK
6
CONTINUOUS
10
0.817323
20
0.573802
11
0.818993
21
0.57311
0
LINE
8
BLACK
6
CONTINUOUS
10
1.21779
20
0.560135
11
1.21849
21
0.558465
0
LINE
8
BLACK
6
CONTINUOUS
10
1.21849
20
0.558465
11
1.21779
21
0.556794
0
LINE
8
BLACK
6
CONTINUOUS
10
1.21779
20
0.556794
11
1.21612
21
0.556102
0
LINE
8
BLACK
6
CONTINUOUS
10
1.21612
20
0.556102
11
1.19825
21
0.556102
0
LINE
8
BLACK
6
CONTINUOUS
10
1.19825
20
0.556102
11
1.19658
21
0.556794
0
LINE
8
BLACK
6
CONTINUOUS
10
1.19658
20
0.556794
11
1.19588
21
0.558465
0
LINE
8
BLACK
6
CONTINUOUS
10
1.19588
20
0.558465
11
1.19658
21
0.560135
0
LINE
8
BLACK
6
CONTINUOUS
10
1.19658
20
0.560135
11
1.19825
21
0.560827
0
LINE
8
BLACK
6
CONTINUOUS
10
1.19825
20
0.560827
11
1.21612
21
0.560827
0
LINE
8
BLACK
6
CONTINUOUS
10
1.21612
20
0.560827
11
1.21779
21
0.560135
0
LINE
8
BLACK
6
CONTINUOUS
10
1.36051
20
0.560135
11
1.3612
21
0.558465
0
LINE
8
BLACK
6
CONTINUOUS
10
1.3612
20
0.558465
11
1.36051
21
0.556794
0
LINE
8
BLACK
6
CONTINUOUS
10
1.36051
20
0.556794
11
1.35884
21
0.556102
0
LINE
8
BLACK
6
CONTINUOUS
10
1.35884
20
0.556102
11
1.34096
21
0.556102
0
LINE
8
BLACK
6
CONTINUOUS
10
1.34096
20
0.556102
11
1.33929
21
0.556794
0
LINE
8
BLACK
6
CONTINUOUS
10
1.33929
20
0.556794
11
1.3386
21
0.558465
0
LINE
8
BLACK
6
CONTINUOUS
10
1.3386
20
0.558465
11
1.33929
21
0.560135
0
LINE
8
BLACK
6
CONTINUOUS
10
1.33929
20
0.560135
11
1.34096
21
0.560827
0
LINE
8
BLACK
6
CONTINUOUS
10
1.34096
20
0.560827
11
1.35884
21
0.560827
0
LINE
8
BLACK
6
CONTINUOUS
10
1.35884
20
0.560827
11
1.36051
21
0.560135
0
LINE
8
BLACK
6
CONTINUOUS
10
1.19413
20
0.618727
11
1.19427
21
0.618613
0
LINE
8
BLACK
6
CONTINUOUS
10
1.19427
20
0.618613
11
1.19444
21
0.618593
0
LINE
8
BLACK
6
CONTINUOUS
10
1.19444
20
0.618593
11
1.19819
21
0.616718
0
LINE
8
BLACK
6
CONTINUOUS
10
1.19819
20
0.616718
11
1.1989
21
0.616192
0
LINE
8
BLACK
6
CONTINUOUS
10
1.1989
20
0.616192
11
1.19896
21
0.616165
0
LINE
8
BLACK
6
CONTINUOUS
10
1.19896
20
0.616165
11
1.20084
21
0.61429
0
LINE
8
BLACK
6
CONTINUOUS
10
1.20084
20
0.61429
11
1.20142
21
0.61345
0
LINE
8
BLACK
6
CONTINUOUS
10
1.20142
20
0.61345
11
1.2016
21
0.611438
0
LINE
8
BLACK
6
CONTINUOUS
10
1.2016
20
0.611438
11
1.20044
21
0.609784
0
LINE
8
BLACK
6
CONTINUOUS
10
1.20044
20
0.609784
11
1.19849
21
0.609261
0
LINE
8
BLACK
6
CONTINUOUS
10
1.19849
20
0.609261
11
1.19666
21
0.610115
0
LINE
8
BLACK
6
CONTINUOUS
10
1.19666
20
0.610115
11
1.19512
21
0.611651
0
LINE
8
BLACK
6
CONTINUOUS
10
1.19512
20
0.611651
11
1.19243
21
0.612999
0
LINE
8
BLACK
6
CONTINUOUS
10
1.19243
20
0.612999
11
1.18445
21
0.612999
0
LINE
8
BLACK
6
CONTINUOUS
10
1.18445
20
0.612999
11
1.18175
21
0.611651
0
LINE
8
BLACK
6
CONTINUOUS
10
1.18175
20
0.611651
11
1.18055
21
0.610453
0
LINE
8
BLACK
6
CONTINUOUS
10
1.18055
20
0.610453
11
1.1792
21
0.607756
0
LINE
8
BLACK
6
CONTINUOUS
10
1.1792
20
0.607756
11
1.1792
21
0.605183
0
LINE
8
BLACK
6
CONTINUOUS
10
1.1792
20
0.605183
11
1.18071
21
0.600674
0
LINE
8
BLACK
6
CONTINUOUS
10
1.18071
20
0.600674
11
1.20271
21
0.57867
0
LINE
8
BLACK
6
CONTINUOUS
10
1.20271
20
0.57867
11
1.20308
21
0.578142
0
LINE
8
BLACK
6
CONTINUOUS
10
1.20308
20
0.578142
11
1.20318
21
0.578058
0
LINE
8
BLACK
6
CONTINUOUS
10
1.20318
20
0.578058
11
1.20319
21
0.57798
0
LINE
8
BLACK
6
CONTINUOUS
10
1.20319
20
0.57798
11
1.2033
21
0.57783
0
LINE
8
BLACK
6
CONTINUOUS
10
1.2033
20
0.57783
11
1.20338
21
0.576944
0
LINE
8
BLACK
6
CONTINUOUS
10
1.20338
20
0.576944
11
1.20353
21
0.576069
0
LINE
8
BLACK
6
CONTINUOUS
10
1.20353
20
0.576069
11
1.20346
21
0.575952
0
LINE
8
BLACK
6
CONTINUOUS
10
1.20346
20
0.575952
11
1.20348
21
0.575818
0
LINE
8
BLACK
6
CONTINUOUS
10
1.20348
20
0.575818
11
1.20297
21
0.57509
0
LINE
8
BLACK
6
CONTINUOUS
10
1.20297
20
0.57509
11
1.20252
21
0.57432
0
LINE
8
BLACK
6
CONTINUOUS
10
1.20252
20
0.57432
11
1.20239
21
0.574274
0
LINE
8
BLACK
6
CONTINUOUS
10
1.20239
20
0.574274
11
1.20232
21
0.574163
0
LINE
8
BLACK
6
CONTINUOUS
10
1.20232
20
0.574163
11
1.20146
21
0.573933
0
LINE
8
BLACK
6
CONTINUOUS
10
1.20146
20
0.573933
11
1.20062
21
0.573629
0
LINE
8
BLACK
6
CONTINUOUS
10
1.20062
20
0.573629
11
1.17625
21
0.573629
0
LINE
8
BLACK
6
CONTINUOUS
10
1.17625
20
0.573629
11
1.17524
21
0.573807
0
LINE
8
BLACK
6
CONTINUOUS
10
1.17524
20
0.573807
11
1.17369
21
0.575106
0
LINE
8
BLACK
6
CONTINUOUS
10
1.17369
20
0.575106
11
1.17334
21
0.577095
0
LINE
8
BLACK
6
CONTINUOUS
10
1.17334
20
0.577095
11
1.17435
21
0.578844
0
LINE
8
BLACK
6
CONTINUOUS
10
1.17435
20
0.578844
11
1.17625
21
0.579535
0
LINE
8
BLACK
6
CONTINUOUS
10
1.17625
20
0.579535
11
1.19349
21
0.579535
0
LINE
8
BLACK
6
CONTINUOUS
10
1.19349
20
0.579535
11
1.17604
21
0.596991
0
LINE
8
BLACK
6
CONTINUOUS
10
1.17604
20
0.596991
11
1.17545
21
0.597831
0
LINE
8
BLACK
6
CONTINUOUS
10
1.17545
20
0.597831
11
1.17543
21
0.598007
0
LINE
8
BLACK
6
CONTINUOUS
10
1.17543
20
0.598007
11
1.17532
21
0.598145
0
LINE
8
BLACK
6
CONTINUOUS
10
1.17532
20
0.598145
11
1.17345
21
0.60377
0
LINE
8
BLACK
6
CONTINUOUS
10
1.17345
20
0.60377
11
1.17332
21
0.604643
0
LINE
8
BLACK
6
CONTINUOUS
10
1.17332
20
0.604643
11
1.1733
21
0.604703
0
LINE
8
BLACK
6
CONTINUOUS
10
1.1733
20
0.604703
11
1.1733
21
0.608453
0
LINE
8
BLACK
6
CONTINUOUS
10
1.1733
20
0.608453
11
1.17348
21
0.609463
0
LINE
8
BLACK
6
CONTINUOUS
10
1.17348
20
0.609463
11
1.17359
21
0.609598
0
LINE
8
BLACK
6
CONTINUOUS
10
1.17359
20
0.609598
11
1.17361
21
0.609773
0
LINE
8
BLACK
6
CONTINUOUS
10
1.17361
20
0.609773
11
1.17549
21
0.613523
0
LINE
8
BLACK
6
CONTINUOUS
10
1.17549
20
0.613523
11
1.17601
21
0.614232
0
LINE
8
BLACK
6
CONTINUOUS
10
1.17601
20
0.614232
11
1.17604
21
0.61429
0
LINE
8
BLACK
6
CONTINUOUS
10
1.17604
20
0.61429
11
1.17791
21
0.616165
0
LINE
8
BLACK
6
CONTINUOUS
10
1.17791
20
0.616165
11
1.17864
21
0.616671
0
LINE
8
BLACK
6
CONTINUOUS
10
1.17864
20
0.616671
11
1.17868
21
0.616718
0
LINE
8
BLACK
6
CONTINUOUS
10
1.17868
20
0.616718
11
1.18243
21
0.618593
0
LINE
8
BLACK
6
CONTINUOUS
10
1.18243
20
0.618593
11
1.18341
21
0.618885
0
LINE
8
BLACK
6
CONTINUOUS
10
1.18341
20
0.618885
11
1.18358
21
0.618844
0
LINE
8
BLACK
6
CONTINUOUS
10
1.18358
20
0.618844
11
1.18375
21
0.618905
0
LINE
8
BLACK
6
CONTINUOUS
10
1.18375
20
0.618905
11
1.19312
21
0.618905
0
LINE
8
BLACK
6
CONTINUOUS
10
1.19312
20
0.618905
11
1.19413
21
0.618727
0
LINE
8
BLACK
6
CONTINUOUS
10
1.23663
20
0.618837
11
1.23676
21
0.61886
0
LINE
8
BLACK
6
CONTINUOUS
10
1.23676
20
0.61886
11
1.23687
21
0.618794
0
LINE
8
BLACK
6
CONTINUOUS
10
1.23687
20
0.618794
11
1.23725
21
0.618727
0
LINE
8
BLACK
6
CONTINUOUS
10
1.23725
20
0.618727
11
1.23784
21
0.618234
0
LINE
8
BLACK
6
CONTINUOUS
10
1.23784
20
0.618234
11
1.23851
21
0.61785
0
LINE
8
BLACK
6
CONTINUOUS
10
1.23851
20
0.61785
11
1.2386
21
0.6176
0
LINE
8
BLACK
6
CONTINUOUS
10
1.2386
20
0.6176
11
1.2388
21
0.617428
0
LINE
8
BLACK
6
CONTINUOUS
10
1.2388
20
0.617428
11
1.23893
21
0.616673
0
LINE
8
BLACK
6
CONTINUOUS
10
1.23893
20
0.616673
11
1.2392
21
0.615952
0
LINE
8
BLACK
6
CONTINUOUS
10
1.2392
20
0.615952
11
1.2392
21
0.576582
0
LINE
8
BLACK
6
CONTINUOUS
10
1.2392
20
0.576582
11
1.23902
21
0.575572
0
LINE
8
BLACK
6
CONTINUOUS
10
1.23902
20
0.575572
11
1.23772
21
0.574025
0
LINE
8
BLACK
6
CONTINUOUS
10
1.23772
20
0.574025
11
1.23573
21
0.573674
0
LINE
8
BLACK
6
CONTINUOUS
10
1.23573
20
0.573674
11
1.23398
21
0.574684
0
LINE
8
BLACK
6
CONTINUOUS
10
1.23398
20
0.574684
11
1.23329
21
0.576582
0
LINE
8
BLACK
6
CONTINUOUS
10
1.23329
20
0.576582
11
1.23329
21
0.592377
0
LINE
8
BLACK
6
CONTINUOUS
10
1.23329
20
0.592377
11
1.22841
21
0.592377
0
LINE
8
BLACK
6
CONTINUOUS
10
1.22841
20
0.592377
11
1.21617
21
0.574889
0
LINE
8
BLACK
6
CONTINUOUS
10
1.21617
20
0.574889
11
1.21544
21
0.574163
0
LINE
8
BLACK
6
CONTINUOUS
10
1.21544
20
0.574163
11
1.21349
21
0.57364
0
LINE
8
BLACK
6
CONTINUOUS
10
1.21349
20
0.57364
11
1.21166
21
0.574494
0
LINE
8
BLACK
6
CONTINUOUS
10
1.21166
20
0.574494
11
1.21081
21
0.576324
0
LINE
8
BLACK
6
CONTINUOUS
10
1.21081
20
0.576324
11
1.21133
21
0.578275
0
LINE
8
BLACK
6
CONTINUOUS
10
1.21133
20
0.578275
11
1.2212
21
0.592384
0
LINE
8
BLACK
6
CONTINUOUS
10
1.2212
20
0.592384
11
1.22024
21
0.592555
0
LINE
8
BLACK
6
CONTINUOUS
10
1.22024
20
0.592555
11
1.2201
21
0.592668
0
LINE
8
BLACK
6
CONTINUOUS
10
1.2201
20
0.592668
11
1.21993
21
0.592689
0
LINE
8
BLACK
6
CONTINUOUS
10
1.21993
20
0.592689
11
1.21618
21
0.594563
0
LINE
8
BLACK
6
CONTINUOUS
10
1.21618
20
0.594563
11
1.21547
21
0.595089
0
LINE
8
BLACK
6
CONTINUOUS
10
1.21547
20
0.595089
11
1.21541
21
0.595116
0
LINE
8
BLACK
6
CONTINUOUS
10
1.21541
20
0.595116
11
1.21353
21
0.596991
0
LINE
8
BLACK
6
CONTINUOUS
10
1.21353
20
0.596991
11
1.21303
21
0.597714
0
LINE
8
BLACK
6
CONTINUOUS
10
1.21303
20
0.597714
11
1.21298
21
0.597759
0
LINE
8
BLACK
6
CONTINUOUS
10
1.21298
20
0.597759
11
1.21111
21
0.601508
0
LINE
8
BLACK
6
CONTINUOUS
10
1.21111
20
0.601508
11
1.21081
21
0.602491
0
LINE
8
BLACK
6
CONTINUOUS
10
1.21081
20
0.602491
11
1.21085
21
0.602663
0
LINE
8
BLACK
6
CONTINUOUS
10
1.21085
20
0.602663
11
1.21079
21
0.602829
0
LINE
8
BLACK
6
CONTINUOUS
10
1.21079
20
0.602829
11
1.21079
21
0.608453
0
LINE
8
BLACK
6
CONTINUOUS
10
1.21079
20
0.608453
11
1.21097
21
0.609463
0
LINE
8
BLACK
6
CONTINUOUS
10
1.21097
20
0.609463
11
1.21109
21
0.609598
0
LINE
8
BLACK
6
CONTINUOUS
10
1.21109
20
0.609598
11
1.21111
21
0.609773
0
LINE
8
BLACK
6
CONTINUOUS
10
1.21111
20
0.609773
11
1.21298
21
0.613523
0
LINE
8
BLACK
6
CONTINUOUS
10
1.21298
20
0.613523
11
1.21351
21
0.614232
0
LINE
8
BLACK
6
CONTINUOUS
10
1.21351
20
0.614232
11
1.21353
21
0.61429
0
LINE
8
BLACK
6
CONTINUOUS
10
1.21353
20
0.61429
11
1.21541
21
0.616165
0
LINE
8
BLACK
6
CONTINUOUS
10
1.21541
20
0.616165
11
1.21613
21
0.616671
0
LINE
8
BLACK
6
CONTINUOUS
10
1.21613
20
0.616671
11
1.21618
21
0.616718
0
LINE
8
BLACK
6
CONTINUOUS
10
1.21618
20
0.616718
11
1.21993
21
0.618593
0
LINE
8
BLACK
6
CONTINUOUS
10
1.21993
20
0.618593
11
1.22091
21
0.618885
0
LINE
8
BLACK
6
CONTINUOUS
10
1.22091
20
0.618885
11
1.22108
21
0.618844
0
LINE
8
BLACK
6
CONTINUOUS
10
1.22108
20
0.618844
11
1.22125
21
0.618905
0
LINE
8
BLACK
6
CONTINUOUS
10
1.22125
20
0.618905
11
1.23624
21
0.618905
0
LINE
8
BLACK
6
CONTINUOUS
10
1.23624
20
0.618905
11
1.23663
21
0.618837
0
LINE
8
BLACK
6
CONTINUOUS
10
1.21925
20
0.611651
11
1.21805
21
0.610453
0
LINE
8
BLACK
6
CONTINUOUS
10
1.21805
20
0.610453
11
1.2167
21
0.607756
0
LINE
8
BLACK
6
CONTINUOUS
10
1.2167
20
0.607756
11
1.2167
21
0.603526
0
LINE
8
BLACK
6
CONTINUOUS
10
1.2167
20
0.603526
11
1.21805
21
0.600828
0
LINE
8
BLACK
6
CONTINUOUS
10
1.21805
20
0.600828
11
1.21925
21
0.599631
0
LINE
8
BLACK
6
CONTINUOUS
10
1.21925
20
0.599631
11
1.22194
21
0.598282
0
LINE
8
BLACK
6
CONTINUOUS
10
1.22194
20
0.598282
11
1.23329
21
0.598282
0
LINE
8
BLACK
6
CONTINUOUS
10
1.23329
20
0.598282
11
1.23329
21
0.612999
0
LINE
8
BLACK
6
CONTINUOUS
10
1.23329
20
0.612999
11
1.22194
21
0.612999
0
LINE
8
BLACK
6
CONTINUOUS
10
1.22194
20
0.612999
11
1.21925
21
0.611651
0
LINE
8
BLACK
6
CONTINUOUS
10
1.45106
20
0.579033
11
1.45175
21
0.577362
0
LINE
8
BLACK
6
CONTINUOUS
10
1.45175
20
0.577362
11
1.45106
21
0.575692
0
LINE
8
BLACK
6
CONTINUOUS
10
1.45106
20
0.575692
11
1.44939
21
0.575
0
LINE
8
BLACK
6
CONTINUOUS
10
1.44939
20
0.575
11
1.43151
21
0.575
0
LINE
8
BLACK
6
CONTINUOUS
10
1.43151
20
0.575
11
1.42984
21
0.575692
0
LINE
8
BLACK
6
CONTINUOUS
10
1.42984
20
0.575692
11
1.42915
21
0.577362
0
LINE
8
BLACK
6
CONTINUOUS
10
1.42915
20
0.577362
11
1.42984
21
0.579033
0
LINE
8
BLACK
6
CONTINUOUS
10
1.42984
20
0.579033
11
1.43151
21
0.579724
0
LINE
8
BLACK
6
CONTINUOUS
10
1.43151
20
0.579724
11
1.44939
21
0.579724
0
LINE
8
BLACK
6
CONTINUOUS
10
1.44939
20
0.579724
11
1.45106
21
0.579033
0
LINE
8
BLACK
6
CONTINUOUS
10
1.29897
20
0.622287
11
1.29914
21
0.622298
0
LINE
8
BLACK
6
CONTINUOUS
10
1.29914
20
0.622298
11
1.29983
21
0.62179
0
LINE
8
BLACK
6
CONTINUOUS
10
1.29983
20
0.62179
11
1.30058
21
0.621362
0
LINE
8
BLACK
6
CONTINUOUS
10
1.30058
20
0.621362
11
1.30063
21
0.621202
0
LINE
8
BLACK
6
CONTINUOUS
10
1.30063
20
0.621202
11
1.30077
21
0.621102
0
LINE
8
BLACK
6
CONTINUOUS
10
1.30077
20
0.621102
11
1.30436
21
0.615721
0
LINE
8
BLACK
6
CONTINUOUS
10
1.30436
20
0.615721
11
1.30756
21
0.612517
0
LINE
8
BLACK
6
CONTINUOUS
10
1.30756
20
0.612517
11
1.31088
21
0.610856
0
LINE
8
BLACK
6
CONTINUOUS
10
1.31088
20
0.610856
11
1.31171
21
0.610245
0
LINE
8
BLACK
6
CONTINUOUS
10
1.31171
20
0.610245
11
1.31251
21
0.608392
0
LINE
8
BLACK
6
CONTINUOUS
10
1.31251
20
0.608392
11
1.31194
21
0.606456
0
LINE
8
BLACK
6
CONTINUOUS
10
1.31194
20
0.606456
11
1.31025
21
0.605343
0
LINE
8
BLACK
6
CONTINUOUS
10
1.31025
20
0.605343
11
1.30824
21
0.605574
0
LINE
8
BLACK
6
CONTINUOUS
10
1.30824
20
0.605574
11
1.30449
21
0.607449
0
LINE
8
BLACK
6
CONTINUOUS
10
1.30449
20
0.607449
11
1.30378
21
0.607975
0
LINE
8
BLACK
6
CONTINUOUS
10
1.30378
20
0.607975
11
1.30373
21
0.608002
0
LINE
8
BLACK
6
CONTINUOUS
10
1.30373
20
0.608002
11
1.30127
21
0.61046
0
LINE
8
BLACK
6
CONTINUOUS
10
1.30127
20
0.61046
11
1.30127
21
0.583046
0
LINE
8
BLACK
6
CONTINUOUS
10
1.30127
20
0.583046
11
1.30956
21
0.583046
0
LINE
8
BLACK
6
CONTINUOUS
10
1.30956
20
0.583046
11
1.31057
21
0.582868
0
LINE
8
BLACK
6
CONTINUOUS
10
1.31057
20
0.582868
11
1.31212
21
0.58157
0
LINE
8
BLACK
6
CONTINUOUS
10
1.31212
20
0.58157
11
1.31247
21
0.579581
0
LINE
8
BLACK
6
CONTINUOUS
10
1.31247
20
0.579581
11
1.31146
21
0.577832
0
LINE
8
BLACK
6
CONTINUOUS
10
1.31146
20
0.577832
11
1.30956
21
0.577141
0
LINE
8
BLACK
6
CONTINUOUS
10
1.30956
20
0.577141
11
1.28707
21
0.577141
0
LINE
8
BLACK
6
CONTINUOUS
10
1.28707
20
0.577141
11
1.28606
21
0.577319
0
LINE
8
BLACK
6
CONTINUOUS
10
1.28606
20
0.577319
11
1.28451
21
0.578617
0
LINE
8
BLACK
6
CONTINUOUS
10
1.28451
20
0.578617
11
1.28416
21
0.580606
0
LINE
8
BLACK
6
CONTINUOUS
10
1.28416
20
0.580606
11
1.28517
21
0.582356
0
LINE
8
BLACK
6
CONTINUOUS
10
1.28517
20
0.582356
11
1.28707
21
0.583046
0
LINE
8
BLACK
6
CONTINUOUS
10
1.28707
20
0.583046
11
1.29536
21
0.583046
0
LINE
8
BLACK
6
CONTINUOUS
10
1.29536
20
0.583046
11
1.29536
21
0.619464
0
LINE
8
BLACK
6
CONTINUOUS
10
1.29536
20
0.619464
11
1.29554
21
0.620474
0
LINE
8
BLACK
6
CONTINUOUS
10
1.29554
20
0.620474
11
1.29565
21
0.620604
0
LINE
8
BLACK
6
CONTINUOUS
10
1.29565
20
0.620604
11
1.29567
21
0.620773
0
LINE
8
BLACK
6
CONTINUOUS
10
1.29567
20
0.620773
11
1.29629
21
0.621364
0
LINE
8
BLACK
6
CONTINUOUS
10
1.29629
20
0.621364
11
1.29684
21
0.622021
0
LINE
8
BLACK
6
CONTINUOUS
10
1.29684
20
0.622021
11
1.29701
21
0.62205
0
LINE
8
BLACK
6
CONTINUOUS
10
1.29701
20
0.62205
11
1.29713
21
0.622168
0
LINE
8
BLACK
6
CONTINUOUS
10
1.29713
20
0.622168
11
1.29798
21
0.622223
0
LINE
8
BLACK
6
CONTINUOUS
10
1.29798
20
0.622223
11
1.29883
21
0.622372
0
LINE
8
BLACK
6
CONTINUOUS
10
1.29883
20
0.622372
11
1.29897
21
0.622287
0
LINE
8
BLACK
6
CONTINUOUS
10
1.34744
20
0.622349
11
1.34757
21
0.622372
0
LINE
8
BLACK
6
CONTINUOUS
10
1.34757
20
0.622372
11
1.34769
21
0.622306
0
LINE
8
BLACK
6
CONTINUOUS
10
1.34769
20
0.622306
11
1.34807
21
0.622239
0
LINE
8
BLACK
6
CONTINUOUS
10
1.34807
20
0.622239
11
1.34866
21
0.621745
0
LINE
8
BLACK
6
CONTINUOUS
10
1.34866
20
0.621745
11
1.34932
21
0.621362
0
LINE
8
BLACK
6
CONTINUOUS
10
1.34932
20
0.621362
11
1.34941
21
0.621111
0
LINE
8
BLACK
6
CONTINUOUS
10
1.34941
20
0.621111
11
1.34962
21
0.62094
0
LINE
8
BLACK
6
CONTINUOUS
10
1.34962
20
0.62094
11
1.34975
21
0.620185
0
LINE
8
BLACK
6
CONTINUOUS
10
1.34975
20
0.620185
11
1.35001
21
0.619464
0
LINE
8
BLACK
6
CONTINUOUS
10
1.35001
20
0.619464
11
1.35001
21
0.580094
0
LINE
8
BLACK
6
CONTINUOUS
10
1.35001
20
0.580094
11
1.34983
21
0.579084
0
LINE
8
BLACK
6
CONTINUOUS
10
1.34983
20
0.579084
11
1.34854
21
0.577537
0
LINE
8
BLACK
6
CONTINUOUS
10
1.34854
20
0.577537
11
1.34655
21
0.577186
0
LINE
8
BLACK
6
CONTINUOUS
10
1.34655
20
0.577186
11
1.3448
21
0.578196
0
LINE
8
BLACK
6
CONTINUOUS
10
1.3448
20
0.578196
11
1.34411
21
0.580094
0
LINE
8
BLACK
6
CONTINUOUS
10
1.34411
20
0.580094
11
1.34411
21
0.595889
0
LINE
8
BLACK
6
CONTINUOUS
10
1.34411
20
0.595889
11
1.33922
21
0.595889
0
LINE
8
BLACK
6
CONTINUOUS
10
1.33922
20
0.595889
11
1.32698
21
0.5784
0
LINE
8
BLACK
6
CONTINUOUS
10
1.32698
20
0.5784
11
1.32626
21
0.577675
0
LINE
8
BLACK
6
CONTINUOUS
10
1.32626
20
0.577675
11
1.3243
21
0.577152
0
LINE
8
BLACK
6
CONTINUOUS
10
1.3243
20
0.577152
11
1.32247
21
0.578006
0
LINE
8
BLACK
6
CONTINUOUS
10
1.32247
20
0.578006
11
1.32162
21
0.579836
0
LINE
8
BLACK
6
CONTINUOUS
10
1.32162
20
0.579836
11
1.32214
21
0.581787
0
LINE
8
BLACK
6
CONTINUOUS
10
1.32214
20
0.581787
11
1.33202
21
0.595896
0
LINE
8
BLACK
6
CONTINUOUS
10
1.33202
20
0.595896
11
1.33105
21
0.596067
0
LINE
8
BLACK
6
CONTINUOUS
10
1.33105
20
0.596067
11
1.33092
21
0.59618
0
LINE
8
BLACK
6
CONTINUOUS
10
1.33092
20
0.59618
11
1.33074
21
0.5962
0
LINE
8
BLACK
6
CONTINUOUS
10
1.33074
20
0.5962
11
1.32699
21
0.598075
0
LINE
8
BLACK
6
CONTINUOUS
10
1.32699
20
0.598075
11
1.32628
21
0.598601
0
LINE
8
BLACK
6
CONTINUOUS
10
1.32628
20
0.598601
11
1.32622
21
0.598628
0
LINE
8
BLACK
6
CONTINUOUS
10
1.32622
20
0.598628
11
1.32435
21
0.600503
0
LINE
8
BLACK
6
CONTINUOUS
10
1.32435
20
0.600503
11
1.32384
21
0.601226
0
LINE
8
BLACK
6
CONTINUOUS
10
1.32384
20
0.601226
11
1.3238
21
0.60127
0
LINE
8
BLACK
6
CONTINUOUS
10
1.3238
20
0.60127
11
1.32192
21
0.60502
0
LINE
8
BLACK
6
CONTINUOUS
10
1.32192
20
0.60502
11
1.32163
21
0.606003
0
LINE
8
BLACK
6
CONTINUOUS
10
1.32163
20
0.606003
11
1.32167
21
0.606175
0
LINE
8
BLACK
6
CONTINUOUS
10
1.32167
20
0.606175
11
1.32161
21
0.60634
0
LINE
8
BLACK
6
CONTINUOUS
10
1.32161
20
0.60634
11
1.32161
21
0.611965
0
LINE
8
BLACK
6
CONTINUOUS
10
1.32161
20
0.611965
11
1.32179
21
0.612975
0
LINE
8
BLACK
6
CONTINUOUS
10
1.32179
20
0.612975
11
1.3219
21
0.61311
0
LINE
8
BLACK
6
CONTINUOUS
10
1.3219
20
0.61311
11
1.32192
21
0.613285
0
LINE
8
BLACK
6
CONTINUOUS
10
1.32192
20
0.613285
11
1.3238
21
0.617035
0
LINE
8
BLACK
6
CONTINUOUS
10
1.3238
20
0.617035
11
1.32432
21
0.617744
0
LINE
8
BLACK
6
CONTINUOUS
10
1.32432
20
0.617744
11
1.32435
21
0.617802
0
LINE
8
BLACK
6
CONTINUOUS
10
1.32435
20
0.617802
11
1.32622
21
0.619677
0
LINE
8
BLACK
6
CONTINUOUS
10
1.32622
20
0.619677
11
1.32695
21
0.620183
0
LINE
8
BLACK
6
CONTINUOUS
10
1.32695
20
0.620183
11
1.32699
21
0.62023
0
LINE
8
BLACK
6
CONTINUOUS
10
1.32699
20
0.62023
11
1.33074
21
0.622105
0
LINE
8
BLACK
6
CONTINUOUS
10
1.33074
20
0.622105
11
1.33172
21
0.622397
0
LINE
8
BLACK
6
CONTINUOUS
10
1.33172
20
0.622397
11
1.33189
21
0.622356
0
LINE
8
BLACK
6
CONTINUOUS
10
1.33189
20
0.622356
11
1.33206
21
0.622417
0
LINE
8
BLACK
6
CONTINUOUS
10
1.33206
20
0.622417
11
1.34706
21
0.622417
0
LINE
8
BLACK
6
CONTINUOUS
10
1.34706
20
0.622417
11
1.34744
21
0.622349
0
LINE
8
BLACK
6
CONTINUOUS
10
1.33006
20
0.615162
11
1.32886
21
0.613965
0
LINE
8
BLACK
6
CONTINUOUS
10
1.32886
20
0.613965
11
1.32751
21
0.611268
0
LINE
8
BLACK
6
CONTINUOUS
10
1.32751
20
0.611268
11
1.32751
21
0.607038
0
LINE
8
BLACK
6
CONTINUOUS
10
1.32751
20
0.607038
11
1.32886
21
0.60434
0
LINE
8
BLACK
6
CONTINUOUS
10
1.32886
20
0.60434
11
1.33006
21
0.603143
0
LINE
8
BLACK
6
CONTINUOUS
10
1.33006
20
0.603143
11
1.33276
21
0.601794
0
LINE
8
BLACK
6
CONTINUOUS
10
1.33276
20
0.601794
11
1.34411
21
0.601794
0
LINE
8
BLACK
6
CONTINUOUS
10
1.34411
20
0.601794
11
1.34411
21
0.616511
0
LINE
8
BLACK
6
CONTINUOUS
10
1.34411
20
0.616511
11
1.33276
21
0.616511
0
LINE
8
BLACK
6
CONTINUOUS
10
1.33276
20
0.616511
11
1.33006
21
0.615162
0
LINE
8
BLACK
6
CONTINUOUS
10
1.58468
20
0.667263
11
1.58474
21
0.667265
0
LINE
8
BLACK
6
CONTINUOUS
10
1.58474
20
0.667265
11
1.59037
21
0.66539
0
LINE
8
BLACK
6
CONTINUOUS
10
1.59037
20
0.66539
11
1.59127
21
0.664902
0
LINE
8
BLACK
6
CONTINUOUS
10
1.59127
20
0.664902
11
1.59136
21
0.664752
0
LINE
8
BLACK
6
CONTINUOUS
10
1.59136
20
0.664752
11
1.59152
21
0.664677
0
LINE
8
BLACK
6
CONTINUOUS
10
1.59152
20
0.664677
11
1.59527
21
0.660927
0
LINE
8
BLACK
6
CONTINUOUS
10
1.59527
20
0.660927
11
1.59578
21
0.660204
0
LINE
8
BLACK
6
CONTINUOUS
10
1.59578
20
0.660204
11
1.59583
21
0.66016
0
LINE
8
BLACK
6
CONTINUOUS
10
1.59583
20
0.66016
11
1.5977
21
0.656411
0
LINE
8
BLACK
6
CONTINUOUS
10
1.5977
20
0.656411
11
1.59785
21
0.655922
0
LINE
8
BLACK
6
CONTINUOUS
10
1.59785
20
0.655922
11
1.59792
21
0.655806
0
LINE
8
BLACK
6
CONTINUOUS
10
1.59792
20
0.655806
11
1.5998
21
0.648307
0
LINE
8
BLACK
6
CONTINUOUS
10
1.5998
20
0.648307
11
1.59984
21
0.647719
0
LINE
8
BLACK
6
CONTINUOUS
10
1.59984
20
0.647719
11
1.59989
21
0.647591
0
LINE
8
BLACK
6
CONTINUOUS
10
1.59989
20
0.647591
11
1.59989
21
0.641967
0
LINE
8
BLACK
6
CONTINUOUS
10
1.59989
20
0.641967
11
1.59978
21
0.641386
0
LINE
8
BLACK
6
CONTINUOUS
10
1.59978
20
0.641386
11
1.5998
21
0.641251
0
LINE
8
BLACK
6
CONTINUOUS
10
1.5998
20
0.641251
11
1.59792
21
0.633751
0
LINE
8
BLACK
6
CONTINUOUS
10
1.59792
20
0.633751
11
1.59772
21
0.633286
0
LINE
8
BLACK
6
CONTINUOUS
10
1.59772
20
0.633286
11
1.5977
21
0.633147
0
LINE
8
BLACK
6
CONTINUOUS
10
1.5977
20
0.633147
11
1.59583
21
0.629398
0
LINE
8
BLACK
6
CONTINUOUS
10
1.59583
20
0.629398
11
1.5953
21
0.628689
0
LINE
8
BLACK
6
CONTINUOUS
10
1.5953
20
0.628689
11
1.59527
21
0.62863
0
LINE
8
BLACK
6
CONTINUOUS
10
1.59527
20
0.62863
11
1.59152
21
0.624881
0
LINE
8
BLACK
6
CONTINUOUS
10
1.59152
20
0.624881
11
1.59068
21
0.624292
0
LINE
8
BLACK
6
CONTINUOUS
10
1.59068
20
0.624292
11
1.59051
21
0.624277
0
LINE
8
BLACK
6
CONTINUOUS
10
1.59051
20
0.624277
11
1.59037
21
0.624167
0
LINE
8
BLACK
6
CONTINUOUS
10
1.59037
20
0.624167
11
1.58474
21
0.622293
0
LINE
8
BLACK
6
CONTINUOUS
10
1.58474
20
0.622293
11
1.58387
21
0.622163
0
LINE
8
BLACK
6
CONTINUOUS
10
1.58387
20
0.622163
11
1.58381
21
0.622141
0
LINE
8
BLACK
6
CONTINUOUS
10
1.58381
20
0.622141
11
1.58006
21
0.622141
0
LINE
8
BLACK
6
CONTINUOUS
10
1.58006
20
0.622141
11
1.57919
21
0.622294
0
LINE
8
BLACK
6
CONTINUOUS
10
1.57919
20
0.622294
11
1.57913
21
0.622293
0
LINE
8
BLACK
6
CONTINUOUS
10
1.57913
20
0.622293
11
1.5735
21
0.624167
0
LINE
8
BLACK
6
CONTINUOUS
10
1.5735
20
0.624167
11
1.5726
21
0.624656
0
LINE
8
BLACK
6
CONTINUOUS
10
1.5726
20
0.624656
11
1.57251
21
0.624806
0
LINE
8
BLACK
6
CONTINUOUS
10
1.57251
20
0.624806
11
1.57235
21
0.624881
0
LINE
8
BLACK
6
CONTINUOUS
10
1.57235
20
0.624881
11
1.57047
21
0.626755
0
LINE
8
BLACK
6
CONTINUOUS
10
1.57047
20
0.626755
11
1.56989
21
0.627595
0
LINE
8
BLACK
6
CONTINUOUS
10
1.56989
20
0.627595
11
1.56971
21
0.629608
0
LINE
8
BLACK
6
CONTINUOUS
10
1.56971
20
0.629608
11
1.57087
21
0.631262
0
LINE
8
BLACK
6
CONTINUOUS
10
1.57087
20
0.631262
11
1.57282
21
0.631785
0
LINE
8
BLACK
6
CONTINUOUS
10
1.57282
20
0.631785
11
1.57465
21
0.630931
0
LINE
8
BLACK
6
CONTINUOUS
10
1.57465
20
0.630931
11
1.57603
21
0.629549
0
LINE
8
BLACK
6
CONTINUOUS
10
1.57603
20
0.629549
11
1.58054
21
0.628046
0
LINE
8
BLACK
6
CONTINUOUS
10
1.58054
20
0.628046
11
1.58333
21
0.628046
0
LINE
8
BLACK
6
CONTINUOUS
10
1.58333
20
0.628046
11
1.58784
21
0.629549
0
LINE
8
BLACK
6
CONTINUOUS
10
1.58784
20
0.629549
11
1.59076
21
0.632467
0
LINE
8
BLACK
6
CONTINUOUS
10
1.59076
20
0.632467
11
1.59227
21
0.635498
0
LINE
8
BLACK
6
CONTINUOUS
10
1.59227
20
0.635498
11
1.59398
21
0.64233
0
LINE
8
BLACK
6
CONTINUOUS
10
1.59398
20
0.64233
11
1.59398
21
0.647227
0
LINE
8
BLACK
6
CONTINUOUS
10
1.59398
20
0.647227
11
1.59227
21
0.654059
0
LINE
8
BLACK
6
CONTINUOUS
10
1.59227
20
0.654059
11
1.59076
21
0.65709
0
LINE
8
BLACK
6
CONTINUOUS
10
1.59076
20
0.65709
11
1.58784
21
0.660008
0
LINE
8
BLACK
6
CONTINUOUS
10
1.58784
20
0.660008
11
1.58333
21
0.661511
0
LINE
8
BLACK
6
CONTINUOUS
10
1.58333
20
0.661511
11
1.58054
21
0.661511
0
LINE
8
BLACK
6
CONTINUOUS
10
1.58054
20
0.661511
11
1.57603
21
0.660008
0
LINE
8
BLACK
6
CONTINUOUS
10
1.57603
20
0.660008
11
1.57465
21
0.658626
0
LINE
8
BLACK
6
CONTINUOUS
10
1.57465
20
0.658626
11
1.57381
21
0.658038
0
LINE
8
BLACK
6
CONTINUOUS
10
1.57381
20
0.658038
11
1.5718
21
0.657862
0
LINE
8
BLACK
6
CONTINUOUS
10
1.5718
20
0.657862
11
1.57014
21
0.659021
0
LINE
8
BLACK
6
CONTINUOUS
10
1.57014
20
0.659021
11
1.56962
21
0.660972
0
LINE
8
BLACK
6
CONTINUOUS
10
1.56962
20
0.660972
11
1.57047
21
0.662802
0
LINE
8
BLACK
6
CONTINUOUS
10
1.57047
20
0.662802
11
1.57235
21
0.664677
0
LINE
8
BLACK
6
CONTINUOUS
10
1.57235
20
0.664677
11
1.57319
21
0.665265
0
LINE
8
BLACK
6
CONTINUOUS
10
1.57319
20
0.665265
11
1.57336
21
0.665281
0
LINE
8
BLACK
6
CONTINUOUS
10
1.57336
20
0.665281
11
1.5735
21
0.66539
0
LINE
8
BLACK
6
CONTINUOUS
10
1.5735
20
0.66539
11
1.57913
21
0.667265
0
LINE
8
BLACK
6
CONTINUOUS
10
1.57913
20
0.667265
11
1.58
21
0.667395
0
LINE
8
BLACK
6
CONTINUOUS
10
1.58
20
0.667395
11
1.58006
21
0.667417
0
LINE
8
BLACK
6
CONTINUOUS
10
1.58006
20
0.667417
11
1.58381
21
0.667417
0
LINE
8
BLACK
6
CONTINUOUS
10
1.58381
20
0.667417
11
1.58468
21
0.667263
0
LINE
8
BLACK
6
CONTINUOUS
10
1.54974
20
0.668854
11
1.55099
21
0.667272
0
LINE
8
BLACK
6
CONTINUOUS
10
1.55099
20
0.667272
11
1.56036
21
0.639151
0
LINE
8
BLACK
6
CONTINUOUS
10
1.56036
20
0.639151
11
1.56052
21
0.638136
0
LINE
8
BLACK
6
CONTINUOUS
10
1.56052
20
0.638136
11
1.56043
21
0.637927
0
LINE
8
BLACK
6
CONTINUOUS
10
1.56043
20
0.637927
11
1.56047
21
0.637704
0
LINE
8
BLACK
6
CONTINUOUS
10
1.56047
20
0.637704
11
1.56007
21
0.637007
0
LINE
8
BLACK
6
CONTINUOUS
10
1.56007
20
0.637007
11
1.55977
21
0.636258
0
LINE
8
BLACK
6
CONTINUOUS
10
1.55977
20
0.636258
11
1.55957
21
0.636151
0
LINE
8
BLACK
6
CONTINUOUS
10
1.55957
20
0.636151
11
1.55946
21
0.635955
0
LINE
8
BLACK
6
CONTINUOUS
10
1.55946
20
0.635955
11
1.5587
21
0.63568
0
LINE
8
BLACK
6
CONTINUOUS
10
1.5587
20
0.63568
11
1.558
21
0.635296
0
LINE
8
BLACK
6
CONTINUOUS
10
1.558
20
0.635296
11
1.55778
21
0.635342
0
LINE
8
BLACK
6
CONTINUOUS
10
1.55778
20
0.635342
11
1.55756
21
0.635264
0
LINE
8
BLACK
6
CONTINUOUS
10
1.55756
20
0.635264
11
1.54177
21
0.635264
0
LINE
8
BLACK
6
CONTINUOUS
10
1.54177
20
0.635264
11
1.54177
21
0.625094
0
LINE
8
BLACK
6
CONTINUOUS
10
1.54177
20
0.625094
11
1.54159
21
0.624084
0
LINE
8
BLACK
6
CONTINUOUS
10
1.54159
20
0.624084
11
1.54029
21
0.622537
0
LINE
8
BLACK
6
CONTINUOUS
10
1.54029
20
0.622537
11
1.5383
21
0.622186
0
LINE
8
BLACK
6
CONTINUOUS
10
1.5383
20
0.622186
11
1.53655
21
0.623196
0
LINE
8
BLACK
6
CONTINUOUS
10
1.53655
20
0.623196
11
1.53586
21
0.625094
0
LINE
8
BLACK
6
CONTINUOUS
10
1.53586
20
0.625094
11
1.53586
21
0.635264
0
LINE
8
BLACK
6
CONTINUOUS
10
1.53586
20
0.635264
11
1.53319
21
0.635264
0
LINE
8
BLACK
6
CONTINUOUS
10
1.53319
20
0.635264
11
1.53218
21
0.635442
0
LINE
8
BLACK
6
CONTINUOUS
10
1.53218
20
0.635442
11
1.53063
21
0.636741
0
LINE
8
BLACK
6
CONTINUOUS
10
1.53063
20
0.636741
11
1.53028
21
0.63873
0
LINE
8
BLACK
6
CONTINUOUS
10
1.53028
20
0.63873
11
1.53129
21
0.640479
0
LINE
8
BLACK
6
CONTINUOUS
10
1.53129
20
0.640479
11
1.53319
21
0.64117
0
LINE
8
BLACK
6
CONTINUOUS
10
1.53319
20
0.64117
11
1.53586
21
0.64117
0
LINE
8
BLACK
6
CONTINUOUS
10
1.53586
20
0.64117
11
1.53586
21
0.65134
0
LINE
8
BLACK
6
CONTINUOUS
10
1.53586
20
0.65134
11
1.53604
21
0.65235
0
LINE
8
BLACK
6
CONTINUOUS
10
1.53604
20
0.65235
11
1.53734
21
0.653898
0
LINE
8
BLACK
6
CONTINUOUS
10
1.53734
20
0.653898
11
1.53933
21
0.654248
0
LINE
8
BLACK
6
CONTINUOUS
10
1.53933
20
0.654248
11
1.54108
21
0.653238
0
LINE
8
BLACK
6
CONTINUOUS
10
1.54108
20
0.653238
11
1.54177
21
0.65134
0
LINE
8
BLACK
6
CONTINUOUS
10
1.54177
20
0.65134
11
1.54177
21
0.64117
0
LINE
8
BLACK
6
CONTINUOUS
10
1.54177
20
0.64117
11
1.55347
21
0.64117
0
LINE
8
BLACK
6
CONTINUOUS
10
1.55347
20
0.64117
11
1.54539
21
0.665405
0
LINE
8
BLACK
6
CONTINUOUS
10
1.54539
20
0.665405
11
1.54524
21
0.666419
0
LINE
8
BLACK
6
CONTINUOUS
10
1.54524
20
0.666419
11
1.54598
21
0.668298
0
LINE
8
BLACK
6
CONTINUOUS
10
1.54598
20
0.668298
11
1.54776
21
0.669259
0
LINE
8
BLACK
6
CONTINUOUS
10
1.54776
20
0.669259
11
1.54974
21
0.668854
0
LINE
8
BLACK
6
CONTINUOUS
10
1.45106
20
0.636907
11
1.45175
21
0.635236
0
LINE
8
BLACK
6
CONTINUOUS
10
1.45175
20
0.635236
11
1.45106
21
0.633566
0
LINE
8
BLACK
6
CONTINUOUS
10
1.45106
20
0.633566
11
1.44939
21
0.632874
0
LINE
8
BLACK
6
CONTINUOUS
10
1.44939
20
0.632874
11
1.43151
21
0.632874
0
LINE
8
BLACK
6
CONTINUOUS
10
1.43151
20
0.632874
11
1.42984
21
0.633566
0
LINE
8
BLACK
6
CONTINUOUS
10
1.42984
20
0.633566
11
1.42915
21
0.635236
0
LINE
8
BLACK
6
CONTINUOUS
10
1.42915
20
0.635236
11
1.42984
21
0.636907
0
LINE
8
BLACK
6
CONTINUOUS
10
1.42984
20
0.636907
11
1.43151
21
0.637598
0
LINE
8
BLACK
6
CONTINUOUS
10
1.43151
20
0.637598
11
1.44939
21
0.637598
0
LINE
8
BLACK
6
CONTINUOUS
10
1.44939
20
0.637598
11
1.45106
21
0.636907
0
LINE
8
BLACK
6
CONTINUOUS
10
0.608182
20
0.678877
11
0.608312
21
0.678899
0
LINE
8
BLACK
6
CONTINUOUS
10
0.608312
20
0.678899
11
0.608425
21
0.678834
0
LINE
8
BLACK
6
CONTINUOUS
10
0.608425
20
0.678834
11
0.608809
21
0.678766
0
LINE
8
BLACK
6
CONTINUOUS
10
0.608809
20
0.678766
11
0.609397
21
0.678273
0
LINE
8
BLACK
6
CONTINUOUS
10
0.609397
20
0.678273
11
0.610061
21
0.677889
0
LINE
8
BLACK
6
CONTINUOUS
10
0.610061
20
0.677889
11
0.610152
21
0.677639
0
LINE
8
BLACK
6
CONTINUOUS
10
0.610152
20
0.677639
11
0.610356
21
0.677468
0
LINE
8
BLACK
6
CONTINUOUS
10
0.610356
20
0.677468
11
0.610489
21
0.676712
0
LINE
8
BLACK
6
CONTINUOUS
10
0.610489
20
0.676712
11
0.610752
21
0.675991
0
LINE
8
BLACK
6
CONTINUOUS
10
0.610752
20
0.675991
11
0.610752
21
0.636621
0
LINE
8
BLACK
6
CONTINUOUS
10
0.610752
20
0.636621
11
0.610574
21
0.635611
0
LINE
8
BLACK
6
CONTINUOUS
10
0.610574
20
0.635611
11
0.609275
21
0.634064
0
LINE
8
BLACK
6
CONTINUOUS
10
0.609275
20
0.634064
11
0.607286
21
0.633713
0
LINE
8
BLACK
6
CONTINUOUS
10
0.607286
20
0.633713
11
0.605537
21
0.634723
0
LINE
8
BLACK
6
CONTINUOUS
10
0.605537
20
0.634723
11
0.604846
21
0.636621
0
LINE
8
BLACK
6
CONTINUOUS
10
0.604846
20
0.636621
11
0.604846
21
0.652416
0
LINE
8
BLACK
6
CONTINUOUS
10
0.604846
20
0.652416
11
0.599963
21
0.652416
0
LINE
8
BLACK
6
CONTINUOUS
10
0.599963
20
0.652416
11
0.587721
21
0.634928
0
LINE
8
BLACK
6
CONTINUOUS
10
0.587721
20
0.634928
11
0.586996
21
0.634203
0
LINE
8
BLACK
6
CONTINUOUS
10
0.586996
20
0.634203
11
0.585045
21
0.63368
0
LINE
8
BLACK
6
CONTINUOUS
10
0.585045
20
0.63368
11
0.583214
21
0.634533
0
LINE
8
BLACK
6
CONTINUOUS
10
0.583214
20
0.634533
11
0.58236
21
0.636364
0
LINE
8
BLACK
6
CONTINUOUS
10
0.58236
20
0.636364
11
0.582883
21
0.638315
0
LINE
8
BLACK
6
CONTINUOUS
10
0.582883
20
0.638315
11
0.592759
21
0.652424
0
LINE
8
BLACK
6
CONTINUOUS
10
0.592759
20
0.652424
11
0.591791
21
0.652594
0
LINE
8
BLACK
6
CONTINUOUS
10
0.591791
20
0.652594
11
0.591656
21
0.652708
0
LINE
8
BLACK
6
CONTINUOUS
10
0.591656
20
0.652708
11
0.59148
21
0.652728
0
LINE
8
BLACK
6
CONTINUOUS
10
0.59148
20
0.652728
11
0.587731
21
0.654603
0
LINE
8
BLACK
6
CONTINUOUS
10
0.587731
20
0.654603
11
0.587022
21
0.655129
0
LINE
8
BLACK
6
CONTINUOUS
10
0.587022
20
0.655129
11
0.586963
21
0.655156
0
LINE
8
BLACK
6
CONTINUOUS
10
0.586963
20
0.655156
11
0.585089
21
0.657031
0
LINE
8
BLACK
6
CONTINUOUS
10
0.585089
20
0.657031
11
0.584582
21
0.657754
0
LINE
8
BLACK
6
CONTINUOUS
10
0.584582
20
0.657754
11
0.584536
21
0.657798
0
LINE
8
BLACK
6
CONTINUOUS
10
0.584536
20
0.657798
11
0.582661
21
0.661548
0
LINE
8
BLACK
6
CONTINUOUS
10
0.582661
20
0.661548
11
0.582368
21
0.66253
0
LINE
8
BLACK
6
CONTINUOUS
10
0.582368
20
0.66253
11
0.582409
21
0.662702
0
LINE
8
BLACK
6
CONTINUOUS
10
0.582409
20
0.662702
11
0.582349
21
0.662868
0
LINE
8
BLACK
6
CONTINUOUS
10
0.582349
20
0.662868
11
0.582349
21
0.668492
0
LINE
8
BLACK
6
CONTINUOUS
10
0.582349
20
0.668492
11
0.582527
21
0.669502
0
LINE
8
BLACK
6
CONTINUOUS
10
0.582527
20
0.669502
11
0.582641
21
0.669638
0
LINE
8
BLACK
6
CONTINUOUS
10
0.582641
20
0.669638
11
0.582661
21
0.669813
0
LINE
8
BLACK
6
CONTINUOUS
10
0.582661
20
0.669813
11
0.584536
21
0.673562
0
LINE
8
BLACK
6
CONTINUOUS
10
0.584536
20
0.673562
11
0.585061
21
0.674271
0
LINE
8
BLACK
6
CONTINUOUS
10
0.585061
20
0.674271
11
0.585089
21
0.67433
0
LINE
8
BLACK
6
CONTINUOUS
10
0.585089
20
0.67433
11
0.586963
21
0.676205
0
LINE
8
BLACK
6
CONTINUOUS
10
0.586963
20
0.676205
11
0.587686
21
0.676711
0
LINE
8
BLACK
6
CONTINUOUS
10
0.587686
20
0.676711
11
0.587731
21
0.676758
0
LINE
8
BLACK
6
CONTINUOUS
10
0.587731
20
0.676758
11
0.59148
21
0.678632
0
LINE
8
BLACK
6
CONTINUOUS
10
0.59148
20
0.678632
11
0.592463
21
0.678925
0
LINE
8
BLACK
6
CONTINUOUS
10
0.592463
20
0.678925
11
0.592635
21
0.678884
0
LINE
8
BLACK
6
CONTINUOUS
10
0.592635
20
0.678884
11
0.592801
21
0.678944
0
LINE
8
BLACK
6
CONTINUOUS
10
0.592801
20
0.678944
11
0.607799
21
0.678944
0
LINE
8
BLACK
6
CONTINUOUS
10
0.607799
20
0.678944
11
0.608182
21
0.678877
0
LINE
8
BLACK
6
CONTINUOUS
10
0.5908
20
0.67169
11
0.589603
21
0.670493
0
LINE
8
BLACK
6
CONTINUOUS
10
0.589603
20
0.670493
11
0.588255
21
0.667795
0
LINE
8
BLACK
6
CONTINUOUS
10
0.588255
20
0.667795
11
0.588255
21
0.663565
0
LINE
8
BLACK
6
CONTINUOUS
10
0.588255
20
0.663565
11
0.589603
21
0.660868
0
LINE
8
BLACK
6
CONTINUOUS
10
0.589603
20
0.660868
11
0.5908
21
0.65967
0
LINE
8
BLACK
6
CONTINUOUS
10
0.5908
20
0.65967
11
0.593498
21
0.658322
0
LINE
8
BLACK
6
CONTINUOUS
10
0.593498
20
0.658322
11
0.604846
21
0.658322
0
LINE
8
BLACK
6
CONTINUOUS
10
0.604846
20
0.658322
11
0.604846
21
0.673039
0
LINE
8
BLACK
6
CONTINUOUS
10
0.604846
20
0.673039
11
0.593498
21
0.673039
0
LINE
8
BLACK
6
CONTINUOUS
10
0.593498
20
0.673039
11
0.5908
21
0.67169
0
LINE
8
BLACK
6
CONTINUOUS
10
0.562476
20
0.680382
11
0.563731
21
0.6788
0
LINE
8
BLACK
6
CONTINUOUS
10
0.563731
20
0.6788
11
0.573105
21
0.650678
0
LINE
8
BLACK
6
CONTINUOUS
10
0.573105
20
0.650678
11
0.573255
21
0.649664
0
LINE
8
BLACK
6
CONTINUOUS
10
0.573255
20
0.649664
11
0.573172
21
0.649454
0
LINE
8
BLACK
6
CONTINUOUS
10
0.573172
20
0.649454
11
0.573212
21
0.649232
0
LINE
8
BLACK
6
CONTINUOUS
10
0.573212
20
0.649232
11
0.572809
21
0.648534
0
LINE
8
BLACK
6
CONTINUOUS
10
0.572809
20
0.648534
11
0.572513
21
0.647786
0
LINE
8
BLACK
6
CONTINUOUS
10
0.572513
20
0.647786
11
0.572314
21
0.647678
0
LINE
8
BLACK
6
CONTINUOUS
10
0.572314
20
0.647678
11
0.572202
21
0.647483
0
LINE
8
BLACK
6
CONTINUOUS
10
0.572202
20
0.647483
11
0.571445
21
0.647207
0
LINE
8
BLACK
6
CONTINUOUS
10
0.571445
20
0.647207
11
0.570737
21
0.646824
0
LINE
8
BLACK
6
CONTINUOUS
10
0.570737
20
0.646824
11
0.570516
21
0.646869
0
LINE
8
BLACK
6
CONTINUOUS
10
0.570516
20
0.646869
11
0.570304
21
0.646792
0
LINE
8
BLACK
6
CONTINUOUS
10
0.570304
20
0.646792
11
0.554509
21
0.646792
0
LINE
8
BLACK
6
CONTINUOUS
10
0.554509
20
0.646792
11
0.554509
21
0.636621
0
LINE
8
BLACK
6
CONTINUOUS
10
0.554509
20
0.636621
11
0.554331
21
0.635611
0
LINE
8
BLACK
6
CONTINUOUS
10
0.554331
20
0.635611
11
0.553032
21
0.634064
0
LINE
8
BLACK
6
CONTINUOUS
10
0.553032
20
0.634064
11
0.551043
21
0.633713
0
LINE
8
BLACK
6
CONTINUOUS
10
0.551043
20
0.633713
11
0.549294
21
0.634723
0
LINE
8
BLACK
6
CONTINUOUS
10
0.549294
20
0.634723
11
0.548603
21
0.636621
0
LINE
8
BLACK
6
CONTINUOUS
10
0.548603
20
0.636621
11
0.548603
21
0.646792
0
LINE
8
BLACK
6
CONTINUOUS
10
0.548603
20
0.646792
11
0.545932
21
0.646792
0
LINE
8
BLACK
6
CONTINUOUS
10
0.545932
20
0.646792
11
0.544922
21
0.64697
0
LINE
8
BLACK
6
CONTINUOUS
10
0.544922
20
0.64697
11
0.543375
21
0.648268
0
LINE
8
BLACK
6
CONTINUOUS
10
0.543375
20
0.648268
11
0.543024
21
0.650257
0
LINE
8
BLACK
6
CONTINUOUS
10
0.543024
20
0.650257
11
0.544034
21
0.652007
0
LINE
8
BLACK
6
CONTINUOUS
10
0.544034
20
0.652007
11
0.545932
21
0.652697
0
LINE
8
BLACK
6
CONTINUOUS
10
0.545932
20
0.652697
11
0.548603
21
0.652697
0
LINE
8
BLACK
6
CONTINUOUS
10
0.548603
20
0.652697
11
0.548603
21
0.662868
0
LINE
8
BLACK
6
CONTINUOUS
10
0.548603
20
0.662868
11
0.548781
21
0.663878
0
LINE
8
BLACK
6
CONTINUOUS
10
0.548781
20
0.663878
11
0.55008
21
0.665425
0
LINE
8
BLACK
6
CONTINUOUS
10
0.55008
20
0.665425
11
0.552069
21
0.665776
0
LINE
8
BLACK
6
CONTINUOUS
10
0.552069
20
0.665776
11
0.553818
21
0.664766
0
LINE
8
BLACK
6
CONTINUOUS
10
0.553818
20
0.664766
11
0.554509
21
0.662868
0
LINE
8
BLACK
6
CONTINUOUS
10
0.554509
20
0.662868
11
0.554509
21
0.652697
0
LINE
8
BLACK
6
CONTINUOUS
10
0.554509
20
0.652697
11
0.566207
21
0.652697
0
LINE
8
BLACK
6
CONTINUOUS
10
0.566207
20
0.652697
11
0.558129
21
0.676932
0
LINE
8
BLACK
6
CONTINUOUS
10
0.558129
20
0.676932
11
0.557978
21
0.677947
0
LINE
8
BLACK
6
CONTINUOUS
10
0.557978
20
0.677947
11
0.558721
21
0.679825
0
LINE
8
BLACK
6
CONTINUOUS
10
0.558721
20
0.679825
11
0.560497
21
0.680787
0
LINE
8
BLACK
6
CONTINUOUS
10
0.560497
20
0.680787
11
0.562476
21
0.680382
0
LINE
8
BLACK
6
CONTINUOUS
10
0.667008
20
0.680886
11
0.667075
21
0.680904
0
LINE
8
BLACK
6
CONTINUOUS
10
0.667075
20
0.680904
11
0.667186
21
0.680854
0
LINE
8
BLACK
6
CONTINUOUS
10
0.667186
20
0.680854
11
0.667864
21
0.680735
0
LINE
8
BLACK
6
CONTINUOUS
10
0.667864
20
0.680735
11
0.668344
21
0.680331
0
LINE
8
BLACK
6
CONTINUOUS
10
0.668344
20
0.680331
11
0.668916
21
0.680074
0
LINE
8
BLACK
6
CONTINUOUS
10
0.668916
20
0.680074
11
0.669095
21
0.679702
0
LINE
8
BLACK
6
CONTINUOUS
10
0.669095
20
0.679702
11
0.669411
21
0.679436
0
LINE
8
BLACK
6
CONTINUOUS
10
0.669411
20
0.679436
11
0.66952
21
0.678819
0
LINE
8
BLACK
6
CONTINUOUS
10
0.66952
20
0.678819
11
0.669792
21
0.678254
0
LINE
8
BLACK
6
CONTINUOUS
10
0.669792
20
0.678254
11
0.671667
21
0.659506
0
LINE
8
BLACK
6
CONTINUOUS
10
0.671667
20
0.659506
11
0.67159
21
0.658483
0
LINE
8
BLACK
6
CONTINUOUS
10
0.67159
20
0.658483
11
0.671579
21
0.658467
0
LINE
8
BLACK
6
CONTINUOUS
10
0.671579
20
0.658467
11
0.671581
21
0.658448
0
LINE
8
BLACK
6
CONTINUOUS
10
0.671581
20
0.658448
11
0.671013
21
0.657636
0
LINE
8
BLACK
6
CONTINUOUS
10
0.671013
20
0.657636
11
0.670452
21
0.656815
0
LINE
8
BLACK
6
CONTINUOUS
10
0.670452
20
0.656815
11
0.670434
21
0.656809
0
LINE
8
BLACK
6
CONTINUOUS
10
0.670434
20
0.656809
11
0.670422
21
0.656793
0
LINE
8
BLACK
6
CONTINUOUS
10
0.670422
20
0.656793
11
0.669464
21
0.656537
0
LINE
8
BLACK
6
CONTINUOUS
10
0.669464
20
0.656537
11
0.668508
21
0.656268
0
LINE
8
BLACK
6
CONTINUOUS
10
0.668508
20
0.656268
11
0.66849
21
0.656276
0
LINE
8
BLACK
6
CONTINUOUS
10
0.66849
20
0.656276
11
0.668471
21
0.656271
0
LINE
8
BLACK
6
CONTINUOUS
10
0.668471
20
0.656271
11
0.667573
21
0.65669
0
LINE
8
BLACK
6
CONTINUOUS
10
0.667573
20
0.65669
11
0.666667
21
0.657099
0
LINE
8
BLACK
6
CONTINUOUS
10
0.666667
20
0.657099
11
0.666659
21
0.657116
0
LINE
8
BLACK
6
CONTINUOUS
10
0.666659
20
0.657116
11
0.666641
21
0.657124
0
LINE
8
BLACK
6
CONTINUOUS
10
0.666641
20
0.657124
11
0.665105
21
0.65866
0
LINE
8
BLACK
6
CONTINUOUS
10
0.665105
20
0.65866
11
0.662408
21
0.660009
0
LINE
8
BLACK
6
CONTINUOUS
10
0.662408
20
0.660009
11
0.654428
21
0.660009
0
LINE
8
BLACK
6
CONTINUOUS
10
0.654428
20
0.660009
11
0.65173
21
0.65866
0
LINE
8
BLACK
6
CONTINUOUS
10
0.65173
20
0.65866
11
0.650533
21
0.657463
0
LINE
8
BLACK
6
CONTINUOUS
10
0.650533
20
0.657463
11
0.649184
21
0.654766
0
LINE
8
BLACK
6
CONTINUOUS
10
0.649184
20
0.654766
11
0.649184
21
0.646786
0
LINE
8
BLACK
6
CONTINUOUS
10
0.649184
20
0.646786
11
0.650533
21
0.644088
0
LINE
8
BLACK
6
CONTINUOUS
10
0.650533
20
0.644088
11
0.65173
21
0.642891
0
LINE
8
BLACK
6
CONTINUOUS
10
0.65173
20
0.642891
11
0.654428
21
0.641543
0
LINE
8
BLACK
6
CONTINUOUS
10
0.654428
20
0.641543
11
0.662408
21
0.641543
0
LINE
8
BLACK
6
CONTINUOUS
10
0.662408
20
0.641543
11
0.665105
21
0.642891
0
LINE
8
BLACK
6
CONTINUOUS
10
0.665105
20
0.642891
11
0.666641
21
0.644427
0
LINE
8
BLACK
6
CONTINUOUS
10
0.666641
20
0.644427
11
0.667481
21
0.645015
0
LINE
8
BLACK
6
CONTINUOUS
10
0.667481
20
0.645015
11
0.669493
21
0.645192
0
LINE
8
BLACK
6
CONTINUOUS
10
0.669493
20
0.645192
11
0.671148
21
0.644033
0
LINE
8
BLACK
6
CONTINUOUS
10
0.671148
20
0.644033
11
0.67167
21
0.642082
0
LINE
8
BLACK
6
CONTINUOUS
10
0.67167
20
0.642082
11
0.670817
21
0.640251
0
LINE
8
BLACK
6
CONTINUOUS
10
0.670817
20
0.640251
11
0.668942
21
0.638377
0
LINE
8
BLACK
6
CONTINUOUS
10
0.668942
20
0.638377
11
0.668219
21
0.63787
0
LINE
8
BLACK
6
CONTINUOUS
10
0.668219
20
0.63787
11
0.668175
21
0.637824
0
LINE
8
BLACK
6
CONTINUOUS
10
0.668175
20
0.637824
11
0.664425
21
0.635949
0
LINE
8
BLACK
6
CONTINUOUS
10
0.664425
20
0.635949
11
0.663442
21
0.635656
0
LINE
8
BLACK
6
CONTINUOUS
10
0.663442
20
0.635656
11
0.66327
21
0.635697
0
LINE
8
BLACK
6
CONTINUOUS
10
0.66327
20
0.635697
11
0.663105
21
0.635637
0
LINE
8
BLACK
6
CONTINUOUS
10
0.663105
20
0.635637
11
0.653731
21
0.635637
0
LINE
8
BLACK
6
CONTINUOUS
10
0.653731
20
0.635637
11
0.652721
21
0.635815
0
LINE
8
BLACK
6
CONTINUOUS
10
0.652721
20
0.635815
11
0.652586
21
0.635929
0
LINE
8
BLACK
6
CONTINUOUS
10
0.652586
20
0.635929
11
0.65241
21
0.635949
0
LINE
8
BLACK
6
CONTINUOUS
10
0.65241
20
0.635949
11
0.648661
21
0.637824
0
LINE
8
BLACK
6
CONTINUOUS
10
0.648661
20
0.637824
11
0.647952
21
0.63835
0
LINE
8
BLACK
6
CONTINUOUS
10
0.647952
20
0.63835
11
0.647893
21
0.638377
0
LINE
8
BLACK
6
CONTINUOUS
10
0.647893
20
0.638377
11
0.646019
21
0.640251
0
LINE
8
BLACK
6
CONTINUOUS
10
0.646019
20
0.640251
11
0.645512
21
0.640975
0
LINE
8
BLACK
6
CONTINUOUS
10
0.645512
20
0.640975
11
0.645465
21
0.641019
0
LINE
8
BLACK
6
CONTINUOUS
10
0.645465
20
0.641019
11
0.643591
21
0.644768
0
LINE
8
BLACK
6
CONTINUOUS
10
0.643591
20
0.644768
11
0.643298
21
0.645751
0
LINE
8
BLACK
6
CONTINUOUS
10
0.643298
20
0.645751
11
0.643339
21
0.645923
0
LINE
8
BLACK
6
CONTINUOUS
10
0.643339
20
0.645923
11
0.643279
21
0.646089
0
LINE
8
BLACK
6
CONTINUOUS
10
0.643279
20
0.646089
11
0.643279
21
0.655463
0
LINE
8
BLACK
6
CONTINUOUS
10
0.643279
20
0.655463
11
0.643457
21
0.656473
0
LINE
8
BLACK
6
CONTINUOUS
10
0.643457
20
0.656473
11
0.64357
21
0.656608
0
LINE
8
BLACK
6
CONTINUOUS
10
0.64357
20
0.656608
11
0.643591
21
0.656783
0
LINE
8
BLACK
6
CONTINUOUS
10
0.643591
20
0.656783
11
0.645465
21
0.660533
0
LINE
8
BLACK
6
CONTINUOUS
10
0.645465
20
0.660533
11
0.645991
21
0.661242
0
LINE
8
BLACK
6
CONTINUOUS
10
0.645991
20
0.661242
11
0.646019
21
0.6613
0
LINE
8
BLACK
6
CONTINUOUS
10
0.646019
20
0.6613
11
0.647893
21
0.663175
0
LINE
8
BLACK
6
CONTINUOUS
10
0.647893
20
0.663175
11
0.648616
21
0.663681
0
LINE
8
BLACK
6
CONTINUOUS
10
0.648616
20
0.663681
11
0.648661
21
0.663728
0
LINE
8
BLACK
6
CONTINUOUS
10
0.648661
20
0.663728
11
0.65241
21
0.665603
0
LINE
8
BLACK
6
CONTINUOUS
10
0.65241
20
0.665603
11
0.653393
21
0.665895
0
LINE
8
BLACK
6
CONTINUOUS
10
0.653393
20
0.665895
11
0.653565
21
0.665854
0
LINE
8
BLACK
6
CONTINUOUS
10
0.653565
20
0.665854
11
0.653731
21
0.665915
0
LINE
8
BLACK
6
CONTINUOUS
10
0.653731
20
0.665915
11
0.663105
21
0.665915
0
LINE
8
BLACK
6
CONTINUOUS
10
0.663105
20
0.665915
11
0.664114
21
0.665736
0
LINE
8
BLACK
6
CONTINUOUS
10
0.664114
20
0.665736
11
0.66425
21
0.665623
0
LINE
8
BLACK
6
CONTINUOUS
10
0.66425
20
0.665623
11
0.664425
21
0.665603
0
LINE
8
BLACK
6
CONTINUOUS
10
0.664425
20
0.665603
11
0.665159
21
0.665236
0
LINE
8
BLACK
6
CONTINUOUS
10
0.665159
20
0.665236
11
0.664182
21
0.675007
0
LINE
8
BLACK
6
CONTINUOUS
10
0.664182
20
0.675007
11
0.648106
21
0.675007
0
LINE
8
BLACK
6
CONTINUOUS
10
0.648106
20
0.675007
11
0.647097
21
0.675185
0
LINE
8
BLACK
6
CONTINUOUS
10
0.647097
20
0.675185
11
0.645549
21
0.676484
0
LINE
8
BLACK
6
CONTINUOUS
10
0.645549
20
0.676484
11
0.645199
21
0.678473
0
LINE
8
BLACK
6
CONTINUOUS
10
0.645199
20
0.678473
11
0.646208
21
0.680222
0
LINE
8
BLACK
6
CONTINUOUS
10
0.646208
20
0.680222
11
0.648106
21
0.680913
0
LINE
8
BLACK
6
CONTINUOUS
10
0.648106
20
0.680913
11
0.666854
21
0.680913
0
LINE
8
BLACK
6
CONTINUOUS
10
0.666854
20
0.680913
11
0.667008
21
0.680886
0
LINE
8
BLACK
6
CONTINUOUS
10
0.706608
20
0.680845
11
0.706737
21
0.680868
0
LINE
8
BLACK
6
CONTINUOUS
10
0.706737
20
0.680868
11
0.706851
21
0.680802
0
LINE
8
BLACK
6
CONTINUOUS
10
0.706851
20
0.680802
11
0.707234
21
0.680735
0
LINE
8
BLACK
6
CONTINUOUS
10
0.707234
20
0.680735
11
0.707822
21
0.680241
0
LINE
8
BLACK
6
CONTINUOUS
10
0.707822
20
0.680241
11
0.708486
21
0.679858
0
LINE
8
BLACK
6
CONTINUOUS
10
0.708486
20
0.679858
11
0.708577
21
0.679608
0
LINE
8
BLACK
6
CONTINUOUS
10
0.708577
20
0.679608
11
0.708781
21
0.679436
0
LINE
8
BLACK
6
CONTINUOUS
10
0.708781
20
0.679436
11
0.708915
21
0.678681
0
LINE
8
BLACK
6
CONTINUOUS
10
0.708915
20
0.678681
11
0.709177
21
0.67796
0
LINE
8
BLACK
6
CONTINUOUS
10
0.709177
20
0.67796
11
0.709177
21
0.63859
0
LINE
8
BLACK
6
CONTINUOUS
10
0.709177
20
0.63859
11
0.708999
21
0.63758
0
LINE
8
BLACK
6
CONTINUOUS
10
0.708999
20
0.63758
11
0.707701
21
0.636033
0
LINE
8
BLACK
6
CONTINUOUS
10
0.707701
20
0.636033
11
0.705711
21
0.635682
0
LINE
8
BLACK
6
CONTINUOUS
10
0.705711
20
0.635682
11
0.703962
21
0.636692
0
LINE
8
BLACK
6
CONTINUOUS
10
0.703962
20
0.636692
11
0.703271
21
0.63859
0
LINE
8
BLACK
6
CONTINUOUS
10
0.703271
20
0.63859
11
0.703271
21
0.654385
0
LINE
8
BLACK
6
CONTINUOUS
10
0.703271
20
0.654385
11
0.698388
21
0.654385
0
LINE
8
BLACK
6
CONTINUOUS
10
0.698388
20
0.654385
11
0.686146
21
0.636896
0
LINE
8
BLACK
6
CONTINUOUS
10
0.686146
20
0.636896
11
0.685421
21
0.636171
0
LINE
8
BLACK
6
CONTINUOUS
10
0.685421
20
0.636171
11
0.68347
21
0.635648
0
LINE
8
BLACK
6
CONTINUOUS
10
0.68347
20
0.635648
11
0.681639
21
0.636502
0
LINE
8
BLACK
6
CONTINUOUS
10
0.681639
20
0.636502
11
0.680786
21
0.638332
0
LINE
8
BLACK
6
CONTINUOUS
10
0.680786
20
0.638332
11
0.681308
21
0.640283
0
LINE
8
BLACK
6
CONTINUOUS
10
0.681308
20
0.640283
11
0.691184
21
0.654392
0
LINE
8
BLACK
6
CONTINUOUS
10
0.691184
20
0.654392
11
0.690216
21
0.654563
0
LINE
8
BLACK
6
CONTINUOUS
10
0.690216
20
0.654563
11
0.690081
21
0.654676
0
LINE
8
BLACK
6
CONTINUOUS
10
0.690081
20
0.654676
11
0.689906
21
0.654696
0
LINE
8
BLACK
6
CONTINUOUS
10
0.689906
20
0.654696
11
0.686156
21
0.656571
0
LINE
8
BLACK
6
CONTINUOUS
10
0.686156
20
0.656571
11
0.685447
21
0.657097
0
LINE
8
BLACK
6
CONTINUOUS
10
0.685447
20
0.657097
11
0.685389
21
0.657124
0
LINE
8
BLACK
6
CONTINUOUS
10
0.685389
20
0.657124
11
0.683514
21
0.658999
0
LINE
8
BLACK
6
CONTINUOUS
10
0.683514
20
0.658999
11
0.683008
21
0.659722
0
LINE
8
BLACK
6
CONTINUOUS
10
0.683008
20
0.659722
11
0.682961
21
0.659766
0
LINE
8
BLACK
6
CONTINUOUS
10
0.682961
20
0.659766
11
0.681086
21
0.663516
0
LINE
8
BLACK
6
CONTINUOUS
10
0.681086
20
0.663516
11
0.680794
21
0.664499
0
LINE
8
BLACK
6
CONTINUOUS
10
0.680794
20
0.664499
11
0.680835
21
0.664671
0
LINE
8
BLACK
6
CONTINUOUS
10
0.680835
20
0.664671
11
0.680774
21
0.664837
0
LINE
8
BLACK
6
CONTINUOUS
10
0.680774
20
0.664837
11
0.680774
21
0.670461
0
LINE
8
BLACK
6
CONTINUOUS
10
0.680774
20
0.670461
11
0.680952
21
0.671471
0
LINE
8
BLACK
6
CONTINUOUS
10
0.680952
20
0.671471
11
0.681066
21
0.671606
0
LINE
8
BLACK
6
CONTINUOUS
10
0.681066
20
0.671606
11
0.681086
21
0.671781
0
LINE
8
BLACK
6
CONTINUOUS
10
0.681086
20
0.671781
11
0.682961
21
0.675531
0
LINE
8
BLACK
6
CONTINUOUS
10
0.682961
20
0.675531
11
0.683487
21
0.67624
0
LINE
8
BLACK
6
CONTINUOUS
10
0.683487
20
0.67624
11
0.683514
21
0.676298
0
LINE
8
BLACK
6
CONTINUOUS
10
0.683514
20
0.676298
11
0.685389
21
0.678173
0
LINE
8
BLACK
6
CONTINUOUS
10
0.685389
20
0.678173
11
0.686112
21
0.678679
0
LINE
8
BLACK
6
CONTINUOUS
10
0.686112
20
0.678679
11
0.686156
21
0.678726
0
LINE
8
BLACK
6
CONTINUOUS
10
0.686156
20
0.678726
11
0.689906
21
0.680601
0
LINE
8
BLACK
6
CONTINUOUS
10
0.689906
20
0.680601
11
0.690888
21
0.680893
0
LINE
8
BLACK
6
CONTINUOUS
10
0.690888
20
0.680893
11
0.69106
21
0.680852
0
LINE
8
BLACK
6
CONTINUOUS
10
0.69106
20
0.680852
11
0.691226
21
0.680913
0
LINE
8
BLACK
6
CONTINUOUS
10
0.691226
20
0.680913
11
0.706224
21
0.680913
0
LINE
8
BLACK
6
CONTINUOUS
10
0.706224
20
0.680913
11
0.706608
21
0.680845
0
LINE
8
BLACK
6
CONTINUOUS
10
0.689226
20
0.673658
11
0.688029
21
0.672461
0
LINE
8
BLACK
6
CONTINUOUS
10
0.688029
20
0.672461
11
0.68668
21
0.669764
0
LINE
8
BLACK
6
CONTINUOUS
10
0.68668
20
0.669764
11
0.68668
21
0.665534
0
LINE
8
BLACK
6
CONTINUOUS
10
0.68668
20
0.665534
11
0.688029
21
0.662836
0
LINE
8
BLACK
6
CONTINUOUS
10
0.688029
20
0.662836
11
0.689226
21
0.661639
0
LINE
8
BLACK
6
CONTINUOUS
10
0.689226
20
0.661639
11
0.691923
21
0.66029
0
LINE
8
BLACK
6
CONTINUOUS
10
0.691923
20
0.66029
11
0.703271
21
0.66029
0
LINE
8
BLACK
6
CONTINUOUS
10
0.703271
20
0.66029
11
0.703271
21
0.675007
0
LINE
8
BLACK
6
CONTINUOUS
10
0.703271
20
0.675007
11
0.691923
21
0.675007
0
LINE
8
BLACK
6
CONTINUOUS
10
0.691923
20
0.675007
11
0.689226
21
0.673658
0
LINE
8
BLACK
6
CONTINUOUS
10
0.78185
20
0.681719
11
0.783397
21
0.680421
0
LINE
8
BLACK
6
CONTINUOUS
10
0.783397
20
0.680421
11
0.783748
21
0.678431
0
LINE
8
BLACK
6
CONTINUOUS
10
0.783748
20
0.678431
11
0.782738
21
0.676682
0
LINE
8
BLACK
6
CONTINUOUS
10
0.782738
20
0.676682
11
0.78084
21
0.675991
0
LINE
8
BLACK
6
CONTINUOUS
10
0.78084
20
0.675991
11
0.762975
21
0.675991
0
LINE
8
BLACK
6
CONTINUOUS
10
0.762975
20
0.675991
11
0.771813
21
0.66589
0
LINE
8
BLACK
6
CONTINUOUS
10
0.771813
20
0.66589
11
0.772043
21
0.665511
0
LINE
8
BLACK
6
CONTINUOUS
10
0.772043
20
0.665511
11
0.772148
21
0.665422
0
LINE
8
BLACK
6
CONTINUOUS
10
0.772148
20
0.665422
11
0.77217
21
0.665302
0
LINE
8
BLACK
6
CONTINUOUS
10
0.77217
20
0.665302
11
0.772344
21
0.665013
0
LINE
8
BLACK
6
CONTINUOUS
10
0.772344
20
0.665013
11
0.772361
21
0.664217
0
LINE
8
BLACK
6
CONTINUOUS
10
0.772361
20
0.664217
11
0.772499
21
0.663433
0
LINE
8
BLACK
6
CONTINUOUS
10
0.772499
20
0.663433
11
0.772381
21
0.663229
0
LINE
8
BLACK
6
CONTINUOUS
10
0.772381
20
0.663229
11
0.772386
21
0.662994
0
LINE
8
BLACK
6
CONTINUOUS
10
0.772386
20
0.662994
11
0.771887
21
0.662373
0
LINE
8
BLACK
6
CONTINUOUS
10
0.771887
20
0.662373
11
0.771489
21
0.661684
0
LINE
8
BLACK
6
CONTINUOUS
10
0.771489
20
0.661684
11
0.771268
21
0.661604
0
LINE
8
BLACK
6
CONTINUOUS
10
0.771268
20
0.661604
11
0.77112
21
0.66142
0
LINE
8
BLACK
6
CONTINUOUS
10
0.77112
20
0.66142
11
0.770339
21
0.661266
0
LINE
8
BLACK
6
CONTINUOUS
10
0.770339
20
0.661266
11
0.769591
21
0.660993
0
LINE
8
BLACK
6
CONTINUOUS
10
0.769591
20
0.660993
11
0.764664
21
0.660993
0
LINE
8
BLACK
6
CONTINUOUS
10
0.764664
20
0.660993
11
0.761967
21
0.659645
0
LINE
8
BLACK
6
CONTINUOUS
10
0.761967
20
0.659645
11
0.760769
21
0.658447
0
LINE
8
BLACK
6
CONTINUOUS
10
0.760769
20
0.658447
11
0.759421
21
0.65575
0
LINE
8
BLACK
6
CONTINUOUS
10
0.759421
20
0.65575
11
0.759421
21
0.64777
0
LINE
8
BLACK
6
CONTINUOUS
10
0.759421
20
0.64777
11
0.760769
21
0.645073
0
LINE
8
BLACK
6
CONTINUOUS
10
0.760769
20
0.645073
11
0.761967
21
0.643876
0
LINE
8
BLACK
6
CONTINUOUS
10
0.761967
20
0.643876
11
0.764664
21
0.642527
0
LINE
8
BLACK
6
CONTINUOUS
10
0.764664
20
0.642527
11
0.774519
21
0.642527
0
LINE
8
BLACK
6
CONTINUOUS
10
0.774519
20
0.642527
11
0.777216
21
0.643876
0
LINE
8
BLACK
6
CONTINUOUS
10
0.777216
20
0.643876
11
0.778752
21
0.645411
0
LINE
8
BLACK
6
CONTINUOUS
10
0.778752
20
0.645411
11
0.779592
21
0.646
0
LINE
8
BLACK
6
CONTINUOUS
10
0.779592
20
0.646
11
0.781604
21
0.646176
0
LINE
8
BLACK
6
CONTINUOUS
10
0.781604
20
0.646176
11
0.783259
21
0.645017
0
LINE
8
BLACK
6
CONTINUOUS
10
0.783259
20
0.645017
11
0.783781
21
0.643066
0
LINE
8
BLACK
6
CONTINUOUS
10
0.783781
20
0.643066
11
0.782928
21
0.641236
0
LINE
8
BLACK
6
CONTINUOUS
10
0.782928
20
0.641236
11
0.781053
21
0.639361
0
LINE
8
BLACK
6
CONTINUOUS
10
0.781053
20
0.639361
11
0.78033
21
0.638855
0
LINE
8
BLACK
6
CONTINUOUS
10
0.78033
20
0.638855
11
0.780286
21
0.638808
0
LINE
8
BLACK
6
CONTINUOUS
10
0.780286
20
0.638808
11
0.776536
21
0.636933
0
LINE
8
BLACK
6
CONTINUOUS
10
0.776536
20
0.636933
11
0.775553
21
0.636641
0
LINE
8
BLACK
6
CONTINUOUS
10
0.775553
20
0.636641
11
0.775381
21
0.636682
0
LINE
8
BLACK
6
CONTINUOUS
10
0.775381
20
0.636682
11
0.775216
21
0.636621
0
LINE
8
BLACK
6
CONTINUOUS
10
0.775216
20
0.636621
11
0.763967
21
0.636621
0
LINE
8
BLACK
6
CONTINUOUS
10
0.763967
20
0.636621
11
0.762957
21
0.636799
0
LINE
8
BLACK
6
CONTINUOUS
10
0.762957
20
0.636799
11
0.762822
21
0.636913
0
LINE
8
BLACK
6
CONTINUOUS
10
0.762822
20
0.636913
11
0.762646
21
0.636933
0
LINE
8
BLACK
6
CONTINUOUS
10
0.762646
20
0.636933
11
0.758897
21
0.638808
0
LINE
8
BLACK
6
CONTINUOUS
10
0.758897
20
0.638808
11
0.758188
21
0.639334
0
LINE
8
BLACK
6
CONTINUOUS
10
0.758188
20
0.639334
11
0.758129
21
0.639361
0
LINE
8
BLACK
6
CONTINUOUS
10
0.758129
20
0.639361
11
0.756255
21
0.641236
0
LINE
8
BLACK
6
CONTINUOUS
10
0.756255
20
0.641236
11
0.755748
21
0.641959
0
LINE
8
BLACK
6
CONTINUOUS
10
0.755748
20
0.641959
11
0.755702
21
0.642003
0
LINE
8
BLACK
6
CONTINUOUS
10
0.755702
20
0.642003
11
0.753827
21
0.645753
0
LINE
8
BLACK
6
CONTINUOUS
10
0.753827
20
0.645753
11
0.753535
21
0.646736
0
LINE
8
BLACK
6
CONTINUOUS
10
0.753535
20
0.646736
11
0.753576
21
0.646907
0
LINE
8
BLACK
6
CONTINUOUS
10
0.753576
20
0.646907
11
0.753515
21
0.647073
0
LINE
8
BLACK
6
CONTINUOUS
10
0.753515
20
0.647073
11
0.753515
21
0.656447
0
LINE
8
BLACK
6
CONTINUOUS
10
0.753515
20
0.656447
11
0.753693
21
0.657457
0
LINE
8
BLACK
6
CONTINUOUS
10
0.753693
20
0.657457
11
0.753807
21
0.657592
0
LINE
8
BLACK
6
CONTINUOUS
10
0.753807
20
0.657592
11
0.753827
21
0.657767
0
LINE
8
BLACK
6
CONTINUOUS
10
0.753827
20
0.657767
11
0.755702
21
0.661517
0
LINE
8
BLACK
6
CONTINUOUS
10
0.755702
20
0.661517
11
0.756228
21
0.662226
0
LINE
8
BLACK
6
CONTINUOUS
10
0.756228
20
0.662226
11
0.756255
21
0.662284
0
LINE
8
BLACK
6
CONTINUOUS
10
0.756255
20
0.662284
11
0.75813
21
0.664159
0
LINE
8
BLACK
6
CONTINUOUS
10
0.75813
20
0.664159
11
0.758853
21
0.664665
0
LINE
8
BLACK
6
CONTINUOUS
10
0.758853
20
0.664665
11
0.758897
21
0.664712
0
LINE
8
BLACK
6
CONTINUOUS
10
0.758897
20
0.664712
11
0.762646
21
0.666587
0
LINE
8
BLACK
6
CONTINUOUS
10
0.762646
20
0.666587
11
0.76321
21
0.666755
0
LINE
8
BLACK
6
CONTINUOUS
10
0.76321
20
0.666755
11
0.754246
21
0.677
0
LINE
8
BLACK
6
CONTINUOUS
10
0.754246
20
0.677
11
0.754016
21
0.67738
0
LINE
8
BLACK
6
CONTINUOUS
10
0.754016
20
0.67738
11
0.753911
21
0.677468
0
LINE
8
BLACK
6
CONTINUOUS
10
0.753911
20
0.677468
11
0.753889
21
0.677588
0
LINE
8
BLACK
6
CONTINUOUS
10
0.753889
20
0.677588
11
0.753715
21
0.677877
0
LINE
8
BLACK
6
CONTINUOUS
10
0.753715
20
0.677877
11
0.753698
21
0.678673
0
LINE
8
BLACK
6
CONTINUOUS
10
0.753698
20
0.678673
11
0.75356
21
0.679457
0
LINE
8
BLACK
6
CONTINUOUS
10
0.75356
20
0.679457
11
0.753678
21
0.679661
0
LINE
8
BLACK
6
CONTINUOUS
10
0.753678
20
0.679661
11
0.753673
21
0.679896
0
LINE
8
BLACK
6
CONTINUOUS
10
0.753673
20
0.679896
11
0.754172
21
0.680517
0
LINE
8
BLACK
6
CONTINUOUS
10
0.754172
20
0.680517
11
0.75457
21
0.681206
0
LINE
8
BLACK
6
CONTINUOUS
10
0.75457
20
0.681206
11
0.754791
21
0.681287
0
LINE
8
BLACK
6
CONTINUOUS
10
0.754791
20
0.681287
11
0.754939
21
0.68147
0
LINE
8
BLACK
6
CONTINUOUS
10
0.754939
20
0.68147
11
0.75572
21
0.681625
0
LINE
8
BLACK
6
CONTINUOUS
10
0.75572
20
0.681625
11
0.756468
21
0.681897
0
LINE
8
BLACK
6
CONTINUOUS
10
0.756468
20
0.681897
11
0.78084
21
0.681897
0
LINE
8
BLACK
6
CONTINUOUS
10
0.78084
20
0.681897
11
0.78185
21
0.681719
0
LINE
8
BLACK
6
CONTINUOUS
10
0.816844
20
0.681829
11
0.816973
21
0.681852
0
LINE
8
BLACK
6
CONTINUOUS
10
0.816973
20
0.681852
11
0.817087
21
0.681786
0
LINE
8
BLACK
6
CONTINUOUS
10
0.817087
20
0.681786
11
0.81747
21
0.681719
0
LINE
8
BLACK
6
CONTINUOUS
10
0.81747
20
0.681719
11
0.818058
21
0.681226
0
LINE
8
BLACK
6
CONTINUOUS
10
0.818058
20
0.681226
11
0.818722
21
0.680842
0
LINE
8
BLACK
6
CONTINUOUS
10
0.818722
20
0.680842
11
0.818813
21
0.680592
0
LINE
8
BLACK
6
CONTINUOUS
10
0.818813
20
0.680592
11
0.819018
21
0.680421
0
LINE
8
BLACK
6
CONTINUOUS
10
0.819018
20
0.680421
11
0.819151
21
0.679665
0
LINE
8
BLACK
6
CONTINUOUS
10
0.819151
20
0.679665
11
0.819413
21
0.678944
0
LINE
8
BLACK
6
CONTINUOUS
10
0.819413
20
0.678944
11
0.819413
21
0.639574
0
LINE
8
BLACK
6
CONTINUOUS
10
0.819413
20
0.639574
11
0.819235
21
0.638564
0
LINE
8
BLACK
6
CONTINUOUS
10
0.819235
20
0.638564
11
0.817937
21
0.637017
0
LINE
8
BLACK
6
CONTINUOUS
10
0.817937
20
0.637017
11
0.815948
21
0.636666
0
LINE
8
BLACK
6
CONTINUOUS
10
0.815948
20
0.636666
11
0.814198
21
0.637676
0
LINE
8
BLACK
6
CONTINUOUS
10
0.814198
20
0.637676
11
0.813508
21
0.639574
0
LINE
8
BLACK
6
CONTINUOUS
10
0.813508
20
0.639574
11
0.813508
21
0.655369
0
LINE
8
BLACK
6
CONTINUOUS
10
0.813508
20
0.655369
11
0.808624
21
0.655369
0
LINE
8
BLACK
6
CONTINUOUS
10
0.808624
20
0.655369
11
0.796382
21
0.637881
0
LINE
8
BLACK
6
CONTINUOUS
10
0.796382
20
0.637881
11
0.795657
21
0.637156
0
LINE
8
BLACK
6
CONTINUOUS
10
0.795657
20
0.637156
11
0.793706
21
0.636632
0
LINE
8
BLACK
6
CONTINUOUS
10
0.793706
20
0.636632
11
0.791876
21
0.637486
0
LINE
8
BLACK
6
CONTINUOUS
10
0.791876
20
0.637486
11
0.791022
21
0.639316
0
LINE
8
BLACK
6
CONTINUOUS
10
0.791022
20
0.639316
11
0.791544
21
0.641267
0
LINE
8
BLACK
6
CONTINUOUS
10
0.791544
20
0.641267
11
0.801421
21
0.655376
0
LINE
8
BLACK
6
CONTINUOUS
10
0.801421
20
0.655376
11
0.800452
21
0.655547
0
LINE
8
BLACK
6
CONTINUOUS
10
0.800452
20
0.655547
11
0.800317
21
0.655661
0
LINE
8
BLACK
6
CONTINUOUS
10
0.800317
20
0.655661
11
0.800142
21
0.655681
0
LINE
8
BLACK
6
CONTINUOUS
10
0.800142
20
0.655681
11
0.796392
21
0.657555
0
LINE
8
BLACK
6
CONTINUOUS
10
0.796392
20
0.657555
11
0.795683
21
0.658081
0
LINE
8
BLACK
6
CONTINUOUS
10
0.795683
20
0.658081
11
0.795625
21
0.658109
0
LINE
8
BLACK
6
CONTINUOUS
10
0.795625
20
0.658109
11
0.79375
21
0.659983
0
LINE
8
BLACK
6
CONTINUOUS
10
0.79375
20
0.659983
11
0.793244
21
0.660706
0
LINE
8
BLACK
6
CONTINUOUS
10
0.793244
20
0.660706
11
0.793197
21
0.660751
0
LINE
8
BLACK
6
CONTINUOUS
10
0.793197
20
0.660751
11
0.791322
21
0.6645
0
LINE
8
BLACK
6
CONTINUOUS
10
0.791322
20
0.6645
11
0.79103
21
0.665483
0
LINE
8
BLACK
6
CONTINUOUS
10
0.79103
20
0.665483
11
0.791071
21
0.665655
0
LINE
8
BLACK
6
CONTINUOUS
10
0.791071
20
0.665655
11
0.79101
21
0.665821
0
LINE
8
BLACK
6
CONTINUOUS
10
0.79101
20
0.665821
11
0.79101
21
0.671445
0
LINE
8
BLACK
6
CONTINUOUS
10
0.79101
20
0.671445
11
0.791189
21
0.672455
0
LINE
8
BLACK
6
CONTINUOUS
10
0.791189
20
0.672455
11
0.791302
21
0.67259
0
LINE
8
BLACK
6
CONTINUOUS
10
0.791302
20
0.67259
11
0.791322
21
0.672766
0
LINE
8
BLACK
6
CONTINUOUS
10
0.791322
20
0.672766
11
0.793197
21
0.676515
0
LINE
8
BLACK
6
CONTINUOUS
10
0.793197
20
0.676515
11
0.793723
21
0.677224
0
LINE
8
BLACK
6
CONTINUOUS
10
0.793723
20
0.677224
11
0.79375
21
0.677283
0
LINE
8
BLACK
6
CONTINUOUS
10
0.79375
20
0.677283
11
0.795625
21
0.679157
0
LINE
8
BLACK
6
CONTINUOUS
10
0.795625
20
0.679157
11
0.796348
21
0.679664
0
LINE
8
BLACK
6
CONTINUOUS
10
0.796348
20
0.679664
11
0.796392
21
0.67971
0
LINE
8
BLACK
6
CONTINUOUS
10
0.796392
20
0.67971
11
0.800142
21
0.681585
0
LINE
8
BLACK
6
CONTINUOUS
10
0.800142
20
0.681585
11
0.801125
21
0.681878
0
LINE
8
BLACK
6
CONTINUOUS
10
0.801125
20
0.681878
11
0.801296
21
0.681837
0
LINE
8
BLACK
6
CONTINUOUS
10
0.801296
20
0.681837
11
0.801462
21
0.681897
0
LINE
8
BLACK
6
CONTINUOUS
10
0.801462
20
0.681897
11
0.81646
21
0.681897
0
LINE
8
BLACK
6
CONTINUOUS
10
0.81646
20
0.681897
11
0.816844
21
0.681829
0
LINE
8
BLACK
6
CONTINUOUS
10
0.799462
20
0.674643
11
0.798265
21
0.673446
0
LINE
8
BLACK
6
CONTINUOUS
10
0.798265
20
0.673446
11
0.796916
21
0.670748
0
LINE
8
BLACK
6
CONTINUOUS
10
0.796916
20
0.670748
11
0.796916
21
0.666518
0
LINE
8
BLACK
6
CONTINUOUS
10
0.796916
20
0.666518
11
0.798265
21
0.66382
0
LINE
8
BLACK
6
CONTINUOUS
10
0.798265
20
0.66382
11
0.799462
21
0.662623
0
LINE
8
BLACK
6
CONTINUOUS
10
0.799462
20
0.662623
11
0.802159
21
0.661274
0
LINE
8
BLACK
6
CONTINUOUS
10
0.802159
20
0.661274
11
0.813508
21
0.661274
0
LINE
8
BLACK
6
CONTINUOUS
10
0.813508
20
0.661274
11
0.813508
21
0.675991
0
LINE
8
BLACK
6
CONTINUOUS
10
0.813508
20
0.675991
11
0.802159
21
0.675991
0
LINE
8
BLACK
6
CONTINUOUS
10
0.802159
20
0.675991
11
0.799462
21
0.674643
0
LINE
8
BLACK
6
CONTINUOUS
10
1.65297
20
0.695287
11
1.65314
21
0.695298
0
LINE
8
BLACK
6
CONTINUOUS
10
1.65314
20
0.695298
11
1.65383
21
0.69479
0
LINE
8
BLACK
6
CONTINUOUS
10
1.65383
20
0.69479
11
1.65458
21
0.694362
0
LINE
8
BLACK
6
CONTINUOUS
10
1.65458
20
0.694362
11
1.65463
21
0.694202
0
LINE
8
BLACK
6
CONTINUOUS
10
1.65463
20
0.694202
11
1.65477
21
0.694102
0
LINE
8
BLACK
6
CONTINUOUS
10
1.65477
20
0.694102
11
1.65836
21
0.688721
0
LINE
8
BLACK
6
CONTINUOUS
10
1.65836
20
0.688721
11
1.66156
21
0.685517
0
LINE
8
BLACK
6
CONTINUOUS
10
1.66156
20
0.685517
11
1.66488
21
0.683856
0
LINE
8
BLACK
6
CONTINUOUS
10
1.66488
20
0.683856
11
1.66571
21
0.683245
0
LINE
8
BLACK
6
CONTINUOUS
10
1.66571
20
0.683245
11
1.66651
21
0.681392
0
LINE
8
BLACK
6
CONTINUOUS
10
1.66651
20
0.681392
11
1.66594
21
0.679456
0
LINE
8
BLACK
6
CONTINUOUS
10
1.66594
20
0.679456
11
1.66425
21
0.678343
0
LINE
8
BLACK
6
CONTINUOUS
10
1.66425
20
0.678343
11
1.66224
21
0.678574
0
LINE
8
BLACK
6
CONTINUOUS
10
1.66224
20
0.678574
11
1.65849
21
0.680449
0
LINE
8
BLACK
6
CONTINUOUS
10
1.65849
20
0.680449
11
1.65778
21
0.680975
0
LINE
8
BLACK
6
CONTINUOUS
10
1.65778
20
0.680975
11
1.65773
21
0.681002
0
LINE
8
BLACK
6
CONTINUOUS
10
1.65773
20
0.681002
11
1.65527
21
0.68346
0
LINE
8
BLACK
6
CONTINUOUS
10
1.65527
20
0.68346
11
1.65527
21
0.656046
0
LINE
8
BLACK
6
CONTINUOUS
10
1.65527
20
0.656046
11
1.66356
21
0.656046
0
LINE
8
BLACK
6
CONTINUOUS
10
1.66356
20
0.656046
11
1.66457
21
0.655868
0
LINE
8
BLACK
6
CONTINUOUS
10
1.66457
20
0.655868
11
1.66612
21
0.65457
0
LINE
8
BLACK
6
CONTINUOUS
10
1.66612
20
0.65457
11
1.66647
21
0.652581
0
LINE
8
BLACK
6
CONTINUOUS
10
1.66647
20
0.652581
11
1.66546
21
0.650832
0
LINE
8
BLACK
6
CONTINUOUS
10
1.66546
20
0.650832
11
1.66356
21
0.650141
0
LINE
8
BLACK
6
CONTINUOUS
10
1.66356
20
0.650141
11
1.64107
21
0.650141
0
LINE
8
BLACK
6
CONTINUOUS
10
1.64107
20
0.650141
11
1.64006
21
0.650319
0
LINE
8
BLACK
6
CONTINUOUS
10
1.64006
20
0.650319
11
1.63851
21
0.651617
0
LINE
8
BLACK
6
CONTINUOUS
10
1.63851
20
0.651617
11
1.63816
21
0.653606
0
LINE
8
BLACK
6
CONTINUOUS
10
1.63816
20
0.653606
11
1.63917
21
0.655356
0
LINE
8
BLACK
6
CONTINUOUS
10
1.63917
20
0.655356
11
1.64107
21
0.656046
0
LINE
8
BLACK
6
CONTINUOUS
10
1.64107
20
0.656046
11
1.64936
21
0.656046
0
LINE
8
BLACK
6
CONTINUOUS
10
1.64936
20
0.656046
11
1.64936
21
0.692464
0
LINE
8
BLACK
6
CONTINUOUS
10
1.64936
20
0.692464
11
1.64954
21
0.693474
0
LINE
8
BLACK
6
CONTINUOUS
10
1.64954
20
0.693474
11
1.64965
21
0.693604
0
LINE
8
BLACK
6
CONTINUOUS
10
1.64965
20
0.693604
11
1.64967
21
0.693773
0
LINE
8
BLACK
6
CONTINUOUS
10
1.64967
20
0.693773
11
1.65029
21
0.694364
0
LINE
8
BLACK
6
CONTINUOUS
10
1.65029
20
0.694364
11
1.65084
21
0.695021
0
LINE
8
BLACK
6
CONTINUOUS
10
1.65084
20
0.695021
11
1.65101
21
0.69505
0
LINE
8
BLACK
6
CONTINUOUS
10
1.65101
20
0.69505
11
1.65113
21
0.695168
0
LINE
8
BLACK
6
CONTINUOUS
10
1.65113
20
0.695168
11
1.65198
21
0.695223
0
LINE
8
BLACK
6
CONTINUOUS
10
1.65198
20
0.695223
11
1.65283
21
0.695372
0
LINE
8
BLACK
6
CONTINUOUS
10
1.65283
20
0.695372
11
1.65297
21
0.695287
0
LINE
8
BLACK
6
CONTINUOUS
10
1.69068
20
0.695263
11
1.69074
21
0.695265
0
LINE
8
BLACK
6
CONTINUOUS
10
1.69074
20
0.695265
11
1.69637
21
0.69339
0
LINE
8
BLACK
6
CONTINUOUS
10
1.69637
20
0.69339
11
1.69727
21
0.692902
0
LINE
8
BLACK
6
CONTINUOUS
10
1.69727
20
0.692902
11
1.69736
21
0.692752
0
LINE
8
BLACK
6
CONTINUOUS
10
1.69736
20
0.692752
11
1.69752
21
0.692677
0
LINE
8
BLACK
6
CONTINUOUS
10
1.69752
20
0.692677
11
1.70127
21
0.688927
0
LINE
8
BLACK
6
CONTINUOUS
10
1.70127
20
0.688927
11
1.70178
21
0.688204
0
LINE
8
BLACK
6
CONTINUOUS
10
1.70178
20
0.688204
11
1.70183
21
0.68816
0
LINE
8
BLACK
6
CONTINUOUS
10
1.70183
20
0.68816
11
1.7037
21
0.684411
0
LINE
8
BLACK
6
CONTINUOUS
10
1.7037
20
0.684411
11
1.70385
21
0.683922
0
LINE
8
BLACK
6
CONTINUOUS
10
1.70385
20
0.683922
11
1.70392
21
0.683806
0
LINE
8
BLACK
6
CONTINUOUS
10
1.70392
20
0.683806
11
1.7058
21
0.676307
0
LINE
8
BLACK
6
CONTINUOUS
10
1.7058
20
0.676307
11
1.70584
21
0.675719
0
LINE
8
BLACK
6
CONTINUOUS
10
1.70584
20
0.675719
11
1.70589
21
0.675591
0
LINE
8
BLACK
6
CONTINUOUS
10
1.70589
20
0.675591
11
1.70589
21
0.669967
0
LINE
8
BLACK
6
CONTINUOUS
10
1.70589
20
0.669967
11
1.70578
21
0.669386
0
LINE
8
BLACK
6
CONTINUOUS
10
1.70578
20
0.669386
11
1.7058
21
0.669251
0
LINE
8
BLACK
6
CONTINUOUS
10
1.7058
20
0.669251
11
1.70392
21
0.661751
0
LINE
8
BLACK
6
CONTINUOUS
10
1.70392
20
0.661751
11
1.70372
21
0.661286
0
LINE
8
BLACK
6
CONTINUOUS
10
1.70372
20
0.661286
11
1.7037
21
0.661147
0
LINE
8
BLACK
6
CONTINUOUS
10
1.7037
20
0.661147
11
1.70183
21
0.657398
0
LINE
8
BLACK
6
CONTINUOUS
10
1.70183
20
0.657398
11
1.7013
21
0.656689
0
LINE
8
BLACK
6
CONTINUOUS
10
1.7013
20
0.656689
11
1.70127
21
0.65663
0
LINE
8
BLACK
6
CONTINUOUS
10
1.70127
20
0.65663
11
1.69752
21
0.652881
0
LINE
8
BLACK
6
CONTINUOUS
10
1.69752
20
0.652881
11
1.69668
21
0.652292
0
LINE
8
BLACK
6
CONTINUOUS
10
1.69668
20
0.652292
11
1.69651
21
0.652277
0
LINE
8
BLACK
6
CONTINUOUS
10
1.69651
20
0.652277
11
1.69637
21
0.652167
0
LINE
8
BLACK
6
CONTINUOUS
10
1.69637
20
0.652167
11
1.69074
21
0.650293
0
LINE
8
BLACK
6
CONTINUOUS
10
1.69074
20
0.650293
11
1.68987
21
0.650163
0
LINE
8
BLACK
6
CONTINUOUS
10
1.68987
20
0.650163
11
1.68981
21
0.650141
0
LINE
8
BLACK
6
CONTINUOUS
10
1.68981
20
0.650141
11
1.68606
21
0.650141
0
LINE
8
BLACK
6
CONTINUOUS
10
1.68606
20
0.650141
11
1.68519
21
0.650294
0
LINE
8
BLACK
6
CONTINUOUS
10
1.68519
20
0.650294
11
1.68513
21
0.650293
0
LINE
8
BLACK
6
CONTINUOUS
10
1.68513
20
0.650293
11
1.6795
21
0.652167
0
LINE
8
BLACK
6
CONTINUOUS
10
1.6795
20
0.652167
11
1.6786
21
0.652656
0
LINE
8
BLACK
6
CONTINUOUS
10
1.6786
20
0.652656
11
1.67851
21
0.652806
0
LINE
8
BLACK
6
CONTINUOUS
10
1.67851
20
0.652806
11
1.67835
21
0.652881
0
LINE
8
BLACK
6
CONTINUOUS
10
1.67835
20
0.652881
11
1.67647
21
0.654755
0
LINE
8
BLACK
6
CONTINUOUS
10
1.67647
20
0.654755
11
1.67589
21
0.655595
0
LINE
8
BLACK
6
CONTINUOUS
10
1.67589
20
0.655595
11
1.67571
21
0.657608
0
LINE
8
BLACK
6
CONTINUOUS
10
1.67571
20
0.657608
11
1.67687
21
0.659262
0
LINE
8
BLACK
6
CONTINUOUS
10
1.67687
20
0.659262
11
1.67882
21
0.659785
0
LINE
8
BLACK
6
CONTINUOUS
10
1.67882
20
0.659785
11
1.68065
21
0.658931
0
LINE
8
BLACK
6
CONTINUOUS
10
1.68065
20
0.658931
11
1.68203
21
0.657549
0
LINE
8
BLACK
6
CONTINUOUS
10
1.68203
20
0.657549
11
1.68654
21
0.656046
0
LINE
8
BLACK
6
CONTINUOUS
10
1.68654
20
0.656046
11
1.68933
21
0.656046
0
LINE
8
BLACK
6
CONTINUOUS
10
1.68933
20
0.656046
11
1.69384
21
0.657549
0
LINE
8
BLACK
6
CONTINUOUS
10
1.69384
20
0.657549
11
1.69676
21
0.660467
0
LINE
8
BLACK
6
CONTINUOUS
10
1.69676
20
0.660467
11
1.69827
21
0.663498
0
LINE
8
BLACK
6
CONTINUOUS
10
1.69827
20
0.663498
11
1.69998
21
0.67033
0
LINE
8
BLACK
6
CONTINUOUS
10
1.69998
20
0.67033
11
1.69998
21
0.675227
0
LINE
8
BLACK
6
CONTINUOUS
10
1.69998
20
0.675227
11
1.69827
21
0.682059
0
LINE
8
BLACK
6
CONTINUOUS
10
1.69827
20
0.682059
11
1.69676
21
0.68509
0
LINE
8
BLACK
6
CONTINUOUS
10
1.69676
20
0.68509
11
1.69384
21
0.688008
0
LINE
8
BLACK
6
CONTINUOUS
10
1.69384
20
0.688008
11
1.68933
21
0.689511
0
LINE
8
BLACK
6
CONTINUOUS
10
1.68933
20
0.689511
11
1.68654
21
0.689511
0
LINE
8
BLACK
6
CONTINUOUS
10
1.68654
20
0.689511
11
1.68203
21
0.688008
0
LINE
8
BLACK
6
CONTINUOUS
10
1.68203
20
0.688008
11
1.68065
21
0.686626
0
LINE
8
BLACK
6
CONTINUOUS
10
1.68065
20
0.686626
11
1.67981
21
0.686038
0
LINE
8
BLACK
6
CONTINUOUS
10
1.67981
20
0.686038
11
1.6778
21
0.685862
0
LINE
8
BLACK
6
CONTINUOUS
10
1.6778
20
0.685862
11
1.67614
21
0.687021
0
LINE
8
BLACK
6
CONTINUOUS
10
1.67614
20
0.687021
11
1.67562
21
0.688972
0
LINE
8
BLACK
6
CONTINUOUS
10
1.67562
20
0.688972
11
1.67647
21
0.690802
0
LINE
8
BLACK
6
CONTINUOUS
10
1.67647
20
0.690802
11
1.67835
21
0.692677
0
LINE
8
BLACK
6
CONTINUOUS
10
1.67835
20
0.692677
11
1.67919
21
0.693265
0
LINE
8
BLACK
6
CONTINUOUS
10
1.67919
20
0.693265
11
1.67936
21
0.693281
0
LINE
8
BLACK
6
CONTINUOUS
10
1.67936
20
0.693281
11
1.6795
21
0.69339
0
LINE
8
BLACK
6
CONTINUOUS
10
1.6795
20
0.69339
11
1.68513
21
0.695265
0
LINE
8
BLACK
6
CONTINUOUS
10
1.68513
20
0.695265
11
1.686
21
0.695395
0
LINE
8
BLACK
6
CONTINUOUS
10
1.686
20
0.695395
11
1.68606
21
0.695417
0
LINE
8
BLACK
6
CONTINUOUS
10
1.68606
20
0.695417
11
1.68981
21
0.695417
0
LINE
8
BLACK
6
CONTINUOUS
10
1.68981
20
0.695417
11
1.69068
21
0.695263
0
LINE
8
BLACK
6
CONTINUOUS
10
1.31132
20
0.672638
11
1.39793
21
0.672638
0
LINE
8
BLACK
6
CONTINUOUS
10
1.39793
20
0.672638
11
1.3996
21
0.671946
0
LINE
8
BLACK
6
CONTINUOUS
10
1.3996
20
0.671946
11
1.4003
21
0.670276
0
LINE
8
BLACK
6
CONTINUOUS
10
1.4003
20
0.670276
11
1.3996
21
0.668605
0
LINE
8
BLACK
6
CONTINUOUS
10
1.3996
20
0.668605
11
1.39793
21
0.667913
0
LINE
8
BLACK
6
CONTINUOUS
10
1.39793
20
0.667913
11
1.31132
21
0.667913
0
LINE
8
BLACK
6
CONTINUOUS
10
1.31132
20
0.667913
11
1.2247
21
0.667913
0
LINE
8
BLACK
6
CONTINUOUS
10
1.2247
20
0.667913
11
1.22303
21
0.668605
0
LINE
8
BLACK
6
CONTINUOUS
10
1.22303
20
0.668605
11
1.22234
21
0.670276
0
LINE
8
BLACK
6
CONTINUOUS
10
1.22234
20
0.670276
11
1.22303
21
0.671946
0
LINE
8
BLACK
6
CONTINUOUS
10
1.22303
20
0.671946
11
1.2247
21
0.672638
0
LINE
8
BLACK
6
CONTINUOUS
10
1.2247
20
0.672638
11
1.31132
21
0.672638
0
LINE
8
BLACK
6
CONTINUOUS
10
1.57574
20
0.683757
11
1.57643
21
0.682087
0
LINE
8
BLACK
6
CONTINUOUS
10
1.57643
20
0.682087
11
1.57574
21
0.680416
0
LINE
8
BLACK
6
CONTINUOUS
10
1.57574
20
0.680416
11
1.57407
21
0.679724
0
LINE
8
BLACK
6
CONTINUOUS
10
1.57407
20
0.679724
11
1.55349
21
0.679724
0
LINE
8
BLACK
6
CONTINUOUS
10
1.55349
20
0.679724
11
1.55182
21
0.680416
0
LINE
8
BLACK
6
CONTINUOUS
10
1.55182
20
0.680416
11
1.55113
21
0.682087
0
LINE
8
BLACK
6
CONTINUOUS
10
1.55113
20
0.682087
11
1.55182
21
0.683757
0
LINE
8
BLACK
6
CONTINUOUS
10
1.55182
20
0.683757
11
1.55349
21
0.684449
0
LINE
8
BLACK
6
CONTINUOUS
10
1.55349
20
0.684449
11
1.57407
21
0.684449
0
LINE
8
BLACK
6
CONTINUOUS
10
1.57407
20
0.684449
11
1.57574
21
0.683757
0
LINE
8
BLACK
6
CONTINUOUS
10
1.57574
20
0.741631
11
1.57643
21
0.739961
0
LINE
8
BLACK
6
CONTINUOUS
10
1.57643
20
0.739961
11
1.57574
21
0.73829
0
LINE
8
BLACK
6
CONTINUOUS
10
1.57574
20
0.73829
11
1.57407
21
0.737598
0
LINE
8
BLACK
6
CONTINUOUS
10
1.57407
20
0.737598
11
1.55349
21
0.737598
0
LINE
8
BLACK
6
CONTINUOUS
10
1.55349
20
0.737598
11
1.55182
21
0.73829
0
LINE
8
BLACK
6
CONTINUOUS
10
1.55182
20
0.73829
11
1.55113
21
0.739961
0
LINE
8
BLACK
6
CONTINUOUS
10
1.55113
20
0.739961
11
1.55182
21
0.741631
0
LINE
8
BLACK
6
CONTINUOUS
10
1.55182
20
0.741631
11
1.55349
21
0.742323
0
LINE
8
BLACK
6
CONTINUOUS
10
1.55349
20
0.742323
11
1.57407
21
0.742323
0
LINE
8
BLACK
6
CONTINUOUS
10
1.57407
20
0.742323
11
1.57574
21
0.741631
0
LINE
8
BLACK
6
CONTINUOUS
10
1.64695
20
0.785578
11
1.64764
21
0.783908
0
LINE
8
BLACK
6
CONTINUOUS
10
1.64764
20
0.783908
11
1.64764
21
0.763337
0
LINE
8
BLACK
6
CONTINUOUS
10
1.64764
20
0.763337
11
1.64695
21
0.761666
0
LINE
8
BLACK
6
CONTINUOUS
10
1.64695
20
0.761666
11
1.64528
21
0.760974
0
LINE
8
BLACK
6
CONTINUOUS
10
1.64528
20
0.760974
11
1.64361
21
0.761666
0
LINE
8
BLACK
6
CONTINUOUS
10
1.64361
20
0.761666
11
1.64291
21
0.763337
0
LINE
8
BLACK
6
CONTINUOUS
10
1.64291
20
0.763337
11
1.64291
21
0.783908
0
LINE
8
BLACK
6
CONTINUOUS
10
1.64291
20
0.783908
11
1.64361
21
0.785578
0
LINE
8
BLACK
6
CONTINUOUS
10
1.64361
20
0.785578
11
1.64528
21
0.78627
0
LINE
8
BLACK
6
CONTINUOUS
10
1.64528
20
0.78627
11
1.64695
21
0.785578
0
LINE
8
BLACK
6
CONTINUOUS
10
1.70482
20
0.785578
11
1.70551
21
0.783908
0
LINE
8
BLACK
6
CONTINUOUS
10
1.70551
20
0.783908
11
1.70551
21
0.763337
0
LINE
8
BLACK
6
CONTINUOUS
10
1.70551
20
0.763337
11
1.70482
21
0.761666
0
LINE
8
BLACK
6
CONTINUOUS
10
1.70482
20
0.761666
11
1.70315
21
0.760974
0
LINE
8
BLACK
6
CONTINUOUS
10
1.70315
20
0.760974
11
1.70148
21
0.761666
0
LINE
8
BLACK
6
CONTINUOUS
10
1.70148
20
0.761666
11
1.70079
21
0.763337
0
LINE
8
BLACK
6
CONTINUOUS
10
1.70079
20
0.763337
11
1.70079
21
0.783908
0
LINE
8
BLACK
6
CONTINUOUS
10
1.70079
20
0.783908
11
1.70148
21
0.785578
0
LINE
8
BLACK
6
CONTINUOUS
10
1.70148
20
0.785578
11
1.70315
21
0.78627
0
LINE
8
BLACK
6
CONTINUOUS
10
1.70315
20
0.78627
11
1.70482
21
0.785578
0
LINE
8
BLACK
6
CONTINUOUS
10
1.57574
20
0.774308
11
1.57643
21
0.772638
0
LINE
8
BLACK
6
CONTINUOUS
10
1.57643
20
0.772638
11
1.57574
21
0.770967
0
LINE
8
BLACK
6
CONTINUOUS
10
1.57574
20
0.770967
11
1.57407
21
0.770276
0
LINE
8
BLACK
6
CONTINUOUS
10
1.57407
20
0.770276
11
1.55349
21
0.770276
0
LINE
8
BLACK
6
CONTINUOUS
10
1.55349
20
0.770276
11
1.55182
21
0.770967
0
LINE
8
BLACK
6
CONTINUOUS
10
1.55182
20
0.770967
11
1.55113
21
0.772638
0
LINE
8
BLACK
6
CONTINUOUS
10
1.55113
20
0.772638
11
1.55182
21
0.774308
0
LINE
8
BLACK
6
CONTINUOUS
10
1.55182
20
0.774308
11
1.55349
21
0.775
0
LINE
8
BLACK
6
CONTINUOUS
10
1.55349
20
0.775
11
1.57407
21
0.775
0
LINE
8
BLACK
6
CONTINUOUS
10
1.57407
20
0.775
11
1.57574
21
0.774308
0
LINE
8
BLACK
6
CONTINUOUS
10
1.86768
20
0.852263
11
1.86774
21
0.852265
0
LINE
8
BLACK
6
CONTINUOUS
10
1.86774
20
0.852265
11
1.87337
21
0.85039
0
LINE
8
BLACK
6
CONTINUOUS
10
1.87337
20
0.85039
11
1.87427
21
0.849902
0
LINE
8
BLACK
6
CONTINUOUS
10
1.87427
20
0.849902
11
1.87436
21
0.849752
0
LINE
8
BLACK
6
CONTINUOUS
10
1.87436
20
0.849752
11
1.87452
21
0.849677
0
LINE
8
BLACK
6
CONTINUOUS
10
1.87452
20
0.849677
11
1.87827
21
0.845927
0
LINE
8
BLACK
6
CONTINUOUS
10
1.87827
20
0.845927
11
1.87878
21
0.845204
0
LINE
8
BLACK
6
CONTINUOUS
10
1.87878
20
0.845204
11
1.87883
21
0.84516
0
LINE
8
BLACK
6
CONTINUOUS
10
1.87883
20
0.84516
11
1.8807
21
0.841411
0
LINE
8
BLACK
6
CONTINUOUS
10
1.8807
20
0.841411
11
1.88085
21
0.840922
0
LINE
8
BLACK
6
CONTINUOUS
10
1.88085
20
0.840922
11
1.88092
21
0.840806
0
LINE
8
BLACK
6
CONTINUOUS
10
1.88092
20
0.840806
11
1.8828
21
0.833307
0
LINE
8
BLACK
6
CONTINUOUS
10
1.8828
20
0.833307
11
1.88284
21
0.832719
0
LINE
8
BLACK
6
CONTINUOUS
10
1.88284
20
0.832719
11
1.88289
21
0.832591
0
LINE
8
BLACK
6
CONTINUOUS
10
1.88289
20
0.832591
11
1.88289
21
0.826967
0
LINE
8
BLACK
6
CONTINUOUS
10
1.88289
20
0.826967
11
1.88278
21
0.826386
0
LINE
8
BLACK
6
CONTINUOUS
10
1.88278
20
0.826386
11
1.8828
21
0.826251
0
LINE
8
BLACK
6
CONTINUOUS
10
1.8828
20
0.826251
11
1.88092
21
0.818751
0
LINE
8
BLACK
6
CONTINUOUS
10
1.88092
20
0.818751
11
1.88072
21
0.818286
0
LINE
8
BLACK
6
CONTINUOUS
10
1.88072
20
0.818286
11
1.8807
21
0.818147
0
LINE
8
BLACK
6
CONTINUOUS
10
1.8807
20
0.818147
11
1.87883
21
0.814398
0
LINE
8
BLACK
6
CONTINUOUS
10
1.87883
20
0.814398
11
1.8783
21
0.813689
0
LINE
8
BLACK
6
CONTINUOUS
10
1.8783
20
0.813689
11
1.87827
21
0.81363
0
LINE
8
BLACK
6
CONTINUOUS
10
1.87827
20
0.81363
11
1.87452
21
0.809881
0
LINE
8
BLACK
6
CONTINUOUS
10
1.87452
20
0.809881
11
1.87368
21
0.809292
0
LINE
8
BLACK
6
CONTINUOUS
10
1.87368
20
0.809292
11
1.87351
21
0.809277
0
LINE
8
BLACK
6
CONTINUOUS
10
1.87351
20
0.809277
11
1.87337
21
0.809167
0
LINE
8
BLACK
6
CONTINUOUS
10
1.87337
20
0.809167
11
1.86774
21
0.807293
0
LINE
8
BLACK
6
CONTINUOUS
10
1.86774
20
0.807293
11
1.86687
21
0.807163
0
LINE
8
BLACK
6
CONTINUOUS
10
1.86687
20
0.807163
11
1.86681
21
0.807141
0
LINE
8
BLACK
6
CONTINUOUS
10
1.86681
20
0.807141
11
1.86306
21
0.807141
0
LINE
8
BLACK
6
CONTINUOUS
10
1.86306
20
0.807141
11
1.86219
21
0.807294
0
LINE
8
BLACK
6
CONTINUOUS
10
1.86219
20
0.807294
11
1.86213
21
0.807293
0
LINE
8
BLACK
6
CONTINUOUS
10
1.86213
20
0.807293
11
1.8565
21
0.809167
0
LINE
8
BLACK
6
CONTINUOUS
10
1.8565
20
0.809167
11
1.8556
21
0.809656
0
LINE
8
BLACK
6
CONTINUOUS
10
1.8556
20
0.809656
11
1.85551
21
0.809806
0
LINE
8
BLACK
6
CONTINUOUS
10
1.85551
20
0.809806
11
1.85535
21
0.809881
0
LINE
8
BLACK
6
CONTINUOUS
10
1.85535
20
0.809881
11
1.85347
21
0.811755
0
LINE
8
BLACK
6
CONTINUOUS
10
1.85347
20
0.811755
11
1.85289
21
0.812595
0
LINE
8
BLACK
6
CONTINUOUS
10
1.85289
20
0.812595
11
1.85271
21
0.814608
0
LINE
8
BLACK
6
CONTINUOUS
10
1.85271
20
0.814608
11
1.85387
21
0.816262
0
LINE
8
BLACK
6
CONTINUOUS
10
1.85387
20
0.816262
11
1.85582
21
0.816785
0
LINE
8
BLACK
6
CONTINUOUS
10
1.85582
20
0.816785
11
1.85765
21
0.815931
0
LINE
8
BLACK
6
CONTINUOUS
10
1.85765
20
0.815931
11
1.85903
21
0.814549
0
LINE
8
BLACK
6
CONTINUOUS
10
1.85903
20
0.814549
11
1.86354
21
0.813046
0
LINE
8
BLACK
6
CONTINUOUS
10
1.86354
20
0.813046
11
1.86633
21
0.813046
0
LINE
8
BLACK
6
CONTINUOUS
10
1.86633
20
0.813046
11
1.87084
21
0.814549
0
LINE
8
BLACK
6
CONTINUOUS
10
1.87084
20
0.814549
11
1.87376
21
0.817467
0
LINE
8
BLACK
6
CONTINUOUS
10
1.87376
20
0.817467
11
1.87527
21
0.820498
0
LINE
8
BLACK
6
CONTINUOUS
10
1.87527
20
0.820498
11
1.87698
21
0.82733
0
LINE
8
BLACK
6
CONTINUOUS
10
1.87698
20
0.82733
11
1.87698
21
0.832227
0
LINE
8
BLACK
6
CONTINUOUS
10
1.87698
20
0.832227
11
1.87527
21
0.839059
0
LINE
8
BLACK
6
CONTINUOUS
10
1.87527
20
0.839059
11
1.87376
21
0.84209
0
LINE
8
BLACK
6
CONTINUOUS
10
1.87376
20
0.84209
11
1.87084
21
0.845008
0
LINE
8
BLACK
6
CONTINUOUS
10
1.87084
20
0.845008
11
1.86633
21
0.846511
0
LINE
8
BLACK
6
CONTINUOUS
10
1.86633
20
0.846511
11
1.86354
21
0.846511
0
LINE
8
BLACK
6
CONTINUOUS
10
1.86354
20
0.846511
11
1.85903
21
0.845008
0
LINE
8
BLACK
6
CONTINUOUS
10
1.85903
20
0.845008
11
1.85765
21
0.843626
0
LINE
8
BLACK
6
CONTINUOUS
10
1.85765
20
0.843626
11
1.85681
21
0.843038
0
LINE
8
BLACK
6
CONTINUOUS
10
1.85681
20
0.843038
11
1.8548
21
0.842862
0
LINE
8
BLACK
6
CONTINUOUS
10
1.8548
20
0.842862
11
1.85314
21
0.844021
0
LINE
8
BLACK
6
CONTINUOUS
10
1.85314
20
0.844021
11
1.85262
21
0.845972
0
LINE
8
BLACK
6
CONTINUOUS
10
1.85262
20
0.845972
11
1.85347
21
0.847802
0
LINE
8
BLACK
6
CONTINUOUS
10
1.85347
20
0.847802
11
1.85535
21
0.849677
0
LINE
8
BLACK
6
CONTINUOUS
10
1.85535
20
0.849677
11
1.85619
21
0.850265
0
LINE
8
BLACK
6
CONTINUOUS
10
1.85619
20
0.850265
11
1.85636
21
0.850281
0
LINE
8
BLACK
6
CONTINUOUS
10
1.85636
20
0.850281
11
1.8565
21
0.85039
0
LINE
8
BLACK
6
CONTINUOUS
10
1.8565
20
0.85039
11
1.86213
21
0.852265
0
LINE
8
BLACK
6
CONTINUOUS
10
1.86213
20
0.852265
11
1.863
21
0.852395
0
LINE
8
BLACK
6
CONTINUOUS
10
1.863
20
0.852395
11
1.86306
21
0.852417
0
LINE
8
BLACK
6
CONTINUOUS
10
1.86306
20
0.852417
11
1.86681
21
0.852417
0
LINE
8
BLACK
6
CONTINUOUS
10
1.86681
20
0.852417
11
1.86768
21
0.852263
0
LINE
8
BLACK
6
CONTINUOUS
10
1.84345
20
0.852239
11
1.845
21
0.85094
0
LINE
8
BLACK
6
CONTINUOUS
10
1.845
20
0.85094
11
1.84535
21
0.848951
0
LINE
8
BLACK
6
CONTINUOUS
10
1.84535
20
0.848951
11
1.84434
21
0.847202
0
LINE
8
BLACK
6
CONTINUOUS
10
1.84434
20
0.847202
11
1.84244
21
0.846511
0
LINE
8
BLACK
6
CONTINUOUS
10
1.84244
20
0.846511
11
1.82067
21
0.846511
0
LINE
8
BLACK
6
CONTINUOUS
10
1.82067
20
0.846511
11
1.83578
21
0.811257
0
LINE
8
BLACK
6
CONTINUOUS
10
1.83578
20
0.811257
11
1.83601
21
0.810259
0
LINE
8
BLACK
6
CONTINUOUS
10
1.83601
20
0.810259
11
1.83543
21
0.808325
0
LINE
8
BLACK
6
CONTINUOUS
10
1.83543
20
0.808325
11
1.83374
21
0.807219
0
LINE
8
BLACK
6
CONTINUOUS
10
1.83374
20
0.807219
11
1.83173
21
0.807458
0
LINE
8
BLACK
6
CONTINUOUS
10
1.83173
20
0.807458
11
1.83035
21
0.808931
0
LINE
8
BLACK
6
CONTINUOUS
10
1.83035
20
0.808931
11
1.81348
21
0.848301
0
LINE
8
BLACK
6
CONTINUOUS
10
1.81348
20
0.848301
11
1.81324
21
0.849299
0
LINE
8
BLACK
6
CONTINUOUS
10
1.81324
20
0.849299
11
1.81334
21
0.849633
0
LINE
8
BLACK
6
CONTINUOUS
10
1.81334
20
0.849633
11
1.81328
21
0.849977
0
LINE
8
BLACK
6
CONTINUOUS
10
1.81328
20
0.849977
11
1.81363
21
0.850573
0
LINE
8
BLACK
6
CONTINUOUS
10
1.81363
20
0.850573
11
1.81383
21
0.851233
0
LINE
8
BLACK
6
CONTINUOUS
10
1.81383
20
0.851233
11
1.81412
21
0.851424
0
LINE
8
BLACK
6
CONTINUOUS
10
1.81412
20
0.851424
11
1.81429
21
0.851726
0
LINE
8
BLACK
6
CONTINUOUS
10
1.81429
20
0.851726
11
1.81494
21
0.851961
0
LINE
8
BLACK
6
CONTINUOUS
10
1.81494
20
0.851961
11
1.81552
21
0.852339
0
LINE
8
BLACK
6
CONTINUOUS
10
1.81552
20
0.852339
11
1.81586
21
0.852297
0
LINE
8
BLACK
6
CONTINUOUS
10
1.81586
20
0.852297
11
1.81619
21
0.852417
0
LINE
8
BLACK
6
CONTINUOUS
10
1.81619
20
0.852417
11
1.84244
21
0.852417
0
LINE
8
BLACK
6
CONTINUOUS
10
1.84244
20
0.852417
11
1.84345
21
0.852239
0
LINE
8
BLACK
6
CONTINUOUS
10
1.57574
20
0.832182
11
1.57643
21
0.830512
0
LINE
8
BLACK
6
CONTINUOUS
10
1.57643
20
0.830512
11
1.57574
21
0.828841
0
LINE
8
BLACK
6
CONTINUOUS
10
1.57574
20
0.828841
11
1.57407
21
0.82815
0
LINE
8
BLACK
6
CONTINUOUS
10
1.57407
20
0.82815
11
1.55349
21
0.82815
0
LINE
8
BLACK
6
CONTINUOUS
10
1.55349
20
0.82815
11
1.55182
21
0.828841
0
LINE
8
BLACK
6
CONTINUOUS
10
1.55182
20
0.828841
11
1.55113
21
0.830512
0
LINE
8
BLACK
6
CONTINUOUS
10
1.55113
20
0.830512
11
1.55182
21
0.832182
0
LINE
8
BLACK
6
CONTINUOUS
10
1.55182
20
0.832182
11
1.55349
21
0.832874
0
LINE
8
BLACK
6
CONTINUOUS
10
1.55349
20
0.832874
11
1.57407
21
0.832874
0
LINE
8
BLACK
6
CONTINUOUS
10
1.57407
20
0.832874
11
1.57574
21
0.832182
0
LINE
8
BLACK
6
CONTINUOUS
10
1.96996
20
0.832733
11
1.97065
21
0.831063
0
LINE
8
BLACK
6
CONTINUOUS
10
1.97065
20
0.831063
11
1.96996
21
0.829393
0
LINE
8
BLACK
6
CONTINUOUS
10
1.96996
20
0.829393
11
1.96829
21
0.828701
0
LINE
8
BLACK
6
CONTINUOUS
10
1.96829
20
0.828701
11
1.94771
21
0.828701
0
LINE
8
BLACK
6
CONTINUOUS
10
1.94771
20
0.828701
11
1.94604
21
0.829393
0
LINE
8
BLACK
6
CONTINUOUS
10
1.94604
20
0.829393
11
1.94535
21
0.831063
0
LINE
8
BLACK
6
CONTINUOUS
10
1.94535
20
0.831063
11
1.94604
21
0.832733
0
LINE
8
BLACK
6
CONTINUOUS
10
1.94604
20
0.832733
11
1.94771
21
0.833425
0
LINE
8
BLACK
6
CONTINUOUS
10
1.94771
20
0.833425
11
1.96829
21
0.833425
0
LINE
8
BLACK
6
CONTINUOUS
10
1.96829
20
0.833425
11
1.96996
21
0.832733
0
LINE
8
BLACK
6
CONTINUOUS
10
1.50559
20
0.892389
11
1.50566
21
0.892408
0
LINE
8
BLACK
6
CONTINUOUS
10
1.50566
20
0.892408
11
1.50577
21
0.892358
0
LINE
8
BLACK
6
CONTINUOUS
10
1.50577
20
0.892358
11
1.50645
21
0.892239
0
LINE
8
BLACK
6
CONTINUOUS
10
1.50645
20
0.892239
11
1.50693
21
0.891835
0
LINE
8
BLACK
6
CONTINUOUS
10
1.50693
20
0.891835
11
1.5075
21
0.891577
0
LINE
8
BLACK
6
CONTINUOUS
10
1.5075
20
0.891577
11
1.50768
21
0.891206
0
LINE
8
BLACK
6
CONTINUOUS
10
1.50768
20
0.891206
11
1.50799
21
0.89094
0
LINE
8
BLACK
6
CONTINUOUS
10
1.50799
20
0.89094
11
1.5081
21
0.890323
0
LINE
8
BLACK
6
CONTINUOUS
10
1.5081
20
0.890323
11
1.50837
21
0.889758
0
LINE
8
BLACK
6
CONTINUOUS
10
1.50837
20
0.889758
11
1.51025
21
0.87101
0
LINE
8
BLACK
6
CONTINUOUS
10
1.51025
20
0.87101
11
1.51017
21
0.869987
0
LINE
8
BLACK
6
CONTINUOUS
10
1.51017
20
0.869987
11
1.51016
21
0.869971
0
LINE
8
BLACK
6
CONTINUOUS
10
1.51016
20
0.869971
11
1.51016
21
0.869952
0
LINE
8
BLACK
6
CONTINUOUS
10
1.51016
20
0.869952
11
1.5096
21
0.86914
0
LINE
8
BLACK
6
CONTINUOUS
10
1.5096
20
0.86914
11
1.50904
21
0.868319
0
LINE
8
BLACK
6
CONTINUOUS
10
1.50904
20
0.868319
11
1.50902
21
0.868313
0
LINE
8
BLACK
6
CONTINUOUS
10
1.50902
20
0.868313
11
1.50901
21
0.868297
0
LINE
8
BLACK
6
CONTINUOUS
10
1.50901
20
0.868297
11
1.50805
21
0.868041
0
LINE
8
BLACK
6
CONTINUOUS
10
1.50805
20
0.868041
11
1.50709
21
0.867772
0
LINE
8
BLACK
6
CONTINUOUS
10
1.50709
20
0.867772
11
1.50707
21
0.86778
0
LINE
8
BLACK
6
CONTINUOUS
10
1.50707
20
0.86778
11
1.50705
21
0.867775
0
LINE
8
BLACK
6
CONTINUOUS
10
1.50705
20
0.867775
11
1.50616
21
0.868194
0
LINE
8
BLACK
6
CONTINUOUS
10
1.50616
20
0.868194
11
1.50525
21
0.868603
0
LINE
8
BLACK
6
CONTINUOUS
10
1.50525
20
0.868603
11
1.50524
21
0.86862
0
LINE
8
BLACK
6
CONTINUOUS
10
1.50524
20
0.86862
11
1.50522
21
0.868628
0
LINE
8
BLACK
6
CONTINUOUS
10
1.50522
20
0.868628
11
1.50369
21
0.870164
0
LINE
8
BLACK
6
CONTINUOUS
10
1.50369
20
0.870164
11
1.50099
21
0.871513
0
LINE
8
BLACK
6
CONTINUOUS
10
1.50099
20
0.871513
11
1.49301
21
0.871513
0
LINE
8
BLACK
6
CONTINUOUS
10
1.49301
20
0.871513
11
1.49031
21
0.870164
0
LINE
8
BLACK
6
CONTINUOUS
10
1.49031
20
0.870164
11
1.48912
21
0.868967
0
LINE
8
BLACK
6
CONTINUOUS
10
1.48912
20
0.868967
11
1.48777
21
0.86627
0
LINE
8
BLACK
6
CONTINUOUS
10
1.48777
20
0.86627
11
1.48777
21
0.85829
0
LINE
8
BLACK
6
CONTINUOUS
10
1.48777
20
0.85829
11
1.48912
21
0.855592
0
LINE
8
BLACK
6
CONTINUOUS
10
1.48912
20
0.855592
11
1.49031
21
0.854395
0
LINE
8
BLACK
6
CONTINUOUS
10
1.49031
20
0.854395
11
1.49301
21
0.853046
0
LINE
8
BLACK
6
CONTINUOUS
10
1.49301
20
0.853046
11
1.50099
21
0.853046
0
LINE
8
BLACK
6
CONTINUOUS
10
1.50099
20
0.853046
11
1.50369
21
0.854395
0
LINE
8
BLACK
6
CONTINUOUS
10
1.50369
20
0.854395
11
1.50522
21
0.855931
0
LINE
8
BLACK
6
CONTINUOUS
10
1.50522
20
0.855931
11
1.50606
21
0.856519
0
LINE
8
BLACK
6
CONTINUOUS
10
1.50606
20
0.856519
11
1.50808
21
0.856695
0
LINE
8
BLACK
6
CONTINUOUS
10
1.50808
20
0.856695
11
1.50973
21
0.855537
0
LINE
8
BLACK
6
CONTINUOUS
10
1.50973
20
0.855537
11
1.51025
21
0.853586
0
LINE
8
BLACK
6
CONTINUOUS
10
1.51025
20
0.853586
11
1.5094
21
0.851755
0
LINE
8
BLACK
6
CONTINUOUS
10
1.5094
20
0.851755
11
1.50752
21
0.849881
0
LINE
8
BLACK
6
CONTINUOUS
10
1.50752
20
0.849881
11
1.5068
21
0.849374
0
LINE
8
BLACK
6
CONTINUOUS
10
1.5068
20
0.849374
11
1.50676
21
0.849327
0
LINE
8
BLACK
6
CONTINUOUS
10
1.50676
20
0.849327
11
1.50301
21
0.847453
0
LINE
8
BLACK
6
CONTINUOUS
10
1.50301
20
0.847453
11
1.50202
21
0.84716
0
LINE
8
BLACK
6
CONTINUOUS
10
1.50202
20
0.84716
11
1.50185
21
0.847201
0
LINE
8
BLACK
6
CONTINUOUS
10
1.50185
20
0.847201
11
1.50169
21
0.847141
0
LINE
8
BLACK
6
CONTINUOUS
10
1.50169
20
0.847141
11
1.49231
21
0.847141
0
LINE
8
BLACK
6
CONTINUOUS
10
1.49231
20
0.847141
11
1.4913
21
0.847319
0
LINE
8
BLACK
6
CONTINUOUS
10
1.4913
20
0.847319
11
1.49117
21
0.847433
0
LINE
8
BLACK
6
CONTINUOUS
10
1.49117
20
0.847433
11
1.49099
21
0.847453
0
LINE
8
BLACK
6
CONTINUOUS
10
1.49099
20
0.847453
11
1.48724
21
0.849327
0
LINE
8
BLACK
6
CONTINUOUS
10
1.48724
20
0.849327
11
1.48653
21
0.849853
0
LINE
8
BLACK
6
CONTINUOUS
10
1.48653
20
0.849853
11
1.48648
21
0.849881
0
LINE
8
BLACK
6
CONTINUOUS
10
1.48648
20
0.849881
11
1.4846
21
0.851755
0
LINE
8
BLACK
6
CONTINUOUS
10
1.4846
20
0.851755
11
1.48409
21
0.852479
0
LINE
8
BLACK
6
CONTINUOUS
10
1.48409
20
0.852479
11
1.48405
21
0.852523
0
LINE
8
BLACK
6
CONTINUOUS
10
1.48405
20
0.852523
11
1.48217
21
0.856272
0
LINE
8
BLACK
6
CONTINUOUS
10
1.48217
20
0.856272
11
1.48188
21
0.857255
0
LINE
8
BLACK
6
CONTINUOUS
10
1.48188
20
0.857255
11
1.48192
21
0.857427
0
LINE
8
BLACK
6
CONTINUOUS
10
1.48192
20
0.857427
11
1.48186
21
0.857593
0
LINE
8
BLACK
6
CONTINUOUS
10
1.48186
20
0.857593
11
1.48186
21
0.866967
0
LINE
8
BLACK
6
CONTINUOUS
10
1.48186
20
0.866967
11
1.48204
21
0.867977
0
LINE
8
BLACK
6
CONTINUOUS
10
1.48204
20
0.867977
11
1.48215
21
0.868112
0
LINE
8
BLACK
6
CONTINUOUS
10
1.48215
20
0.868112
11
1.48217
21
0.868287
0
LINE
8
BLACK
6
CONTINUOUS
10
1.48217
20
0.868287
11
1.48405
21
0.872037
0
LINE
8
BLACK
6
CONTINUOUS
10
1.48405
20
0.872037
11
1.48457
21
0.872746
0
LINE
8
BLACK
6
CONTINUOUS
10
1.48457
20
0.872746
11
1.4846
21
0.872804
0
LINE
8
BLACK
6
CONTINUOUS
10
1.4846
20
0.872804
11
1.48648
21
0.874679
0
LINE
8
BLACK
6
CONTINUOUS
10
1.48648
20
0.874679
11
1.4872
21
0.875185
0
LINE
8
BLACK
6
CONTINUOUS
10
1.4872
20
0.875185
11
1.48724
21
0.875232
0
LINE
8
BLACK
6
CONTINUOUS
10
1.48724
20
0.875232
11
1.49099
21
0.877107
0
LINE
8
BLACK
6
CONTINUOUS
10
1.49099
20
0.877107
11
1.49198
21
0.877399
0
LINE
8
BLACK
6
CONTINUOUS
10
1.49198
20
0.877399
11
1.49215
21
0.877358
0
LINE
8
BLACK
6
CONTINUOUS
10
1.49215
20
0.877358
11
1.49231
21
0.877418
0
LINE
8
BLACK
6
CONTINUOUS
10
1.49231
20
0.877418
11
1.50169
21
0.877418
0
LINE
8
BLACK
6
CONTINUOUS
10
1.50169
20
0.877418
11
1.5027
21
0.87724
0
LINE
8
BLACK
6
CONTINUOUS
10
1.5027
20
0.87724
11
1.50283
21
0.877127
0
LINE
8
BLACK
6
CONTINUOUS
10
1.50283
20
0.877127
11
1.50301
21
0.877107
0
LINE
8
BLACK
6
CONTINUOUS
10
1.50301
20
0.877107
11
1.50374
21
0.87674
0
LINE
8
BLACK
6
CONTINUOUS
10
1.50374
20
0.87674
11
1.50276
21
0.886511
0
LINE
8
BLACK
6
CONTINUOUS
10
1.50276
20
0.886511
11
1.48669
21
0.886511
0
LINE
8
BLACK
6
CONTINUOUS
10
1.48669
20
0.886511
11
1.48568
21
0.886689
0
LINE
8
BLACK
6
CONTINUOUS
10
1.48568
20
0.886689
11
1.48413
21
0.887987
0
LINE
8
BLACK
6
CONTINUOUS
10
1.48413
20
0.887987
11
1.48378
21
0.889977
0
LINE
8
BLACK
6
CONTINUOUS
10
1.48378
20
0.889977
11
1.48479
21
0.891726
0
LINE
8
BLACK
6
CONTINUOUS
10
1.48479
20
0.891726
11
1.48669
21
0.892417
0
LINE
8
BLACK
6
CONTINUOUS
10
1.48669
20
0.892417
11
1.50544
21
0.892417
0
LINE
8
BLACK
6
CONTINUOUS
10
1.50544
20
0.892417
11
1.50559
21
0.892389
0
LINE
8
BLACK
6
CONTINUOUS
10
1.53443
20
0.892263
11
1.53449
21
0.892265
0
LINE
8
BLACK
6
CONTINUOUS
10
1.53449
20
0.892265
11
1.54012
21
0.89039
0
LINE
8
BLACK
6
CONTINUOUS
10
1.54012
20
0.89039
11
1.54102
21
0.889902
0
LINE
8
BLACK
6
CONTINUOUS
10
1.54102
20
0.889902
11
1.54111
21
0.889752
0
LINE
8
BLACK
6
CONTINUOUS
10
1.54111
20
0.889752
11
1.54127
21
0.889677
0
LINE
8
BLACK
6
CONTINUOUS
10
1.54127
20
0.889677
11
1.54502
21
0.885927
0
LINE
8
BLACK
6
CONTINUOUS
10
1.54502
20
0.885927
11
1.54553
21
0.885204
0
LINE
8
BLACK
6
CONTINUOUS
10
1.54553
20
0.885204
11
1.54557
21
0.88516
0
LINE
8
BLACK
6
CONTINUOUS
10
1.54557
20
0.88516
11
1.54745
21
0.881411
0
LINE
8
BLACK
6
CONTINUOUS
10
1.54745
20
0.881411
11
1.54759
21
0.880922
0
LINE
8
BLACK
6
CONTINUOUS
10
1.54759
20
0.880922
11
1.54767
21
0.880806
0
LINE
8
BLACK
6
CONTINUOUS
10
1.54767
20
0.880806
11
1.54955
21
0.873307
0
LINE
8
BLACK
6
CONTINUOUS
10
1.54955
20
0.873307
11
1.54959
21
0.872719
0
LINE
8
BLACK
6
CONTINUOUS
10
1.54959
20
0.872719
11
1.54963
21
0.872591
0
LINE
8
BLACK
6
CONTINUOUS
10
1.54963
20
0.872591
11
1.54963
21
0.866967
0
LINE
8
BLACK
6
CONTINUOUS
10
1.54963
20
0.866967
11
1.54953
21
0.866386
0
LINE
8
BLACK
6
CONTINUOUS
10
1.54953
20
0.866386
11
1.54955
21
0.866251
0
LINE
8
BLACK
6
CONTINUOUS
10
1.54955
20
0.866251
11
1.54767
21
0.858751
0
LINE
8
BLACK
6
CONTINUOUS
10
1.54767
20
0.858751
11
1.54746
21
0.858286
0
LINE
8
BLACK
6
CONTINUOUS
10
1.54746
20
0.858286
11
1.54745
21
0.858147
0
LINE
8
BLACK
6
CONTINUOUS
10
1.54745
20
0.858147
11
1.54557
21
0.854398
0
LINE
8
BLACK
6
CONTINUOUS
10
1.54557
20
0.854398
11
1.54505
21
0.853689
0
LINE
8
BLACK
6
CONTINUOUS
10
1.54505
20
0.853689
11
1.54502
21
0.85363
0
LINE
8
BLACK
6
CONTINUOUS
10
1.54502
20
0.85363
11
1.54127
21
0.849881
0
LINE
8
BLACK
6
CONTINUOUS
10
1.54127
20
0.849881
11
1.54043
21
0.849292
0
LINE
8
BLACK
6
CONTINUOUS
10
1.54043
20
0.849292
11
1.54025
21
0.849277
0
LINE
8
BLACK
6
CONTINUOUS
10
1.54025
20
0.849277
11
1.54012
21
0.849167
0
LINE
8
BLACK
6
CONTINUOUS
10
1.54012
20
0.849167
11
1.53449
21
0.847293
0
LINE
8
BLACK
6
CONTINUOUS
10
1.53449
20
0.847293
11
1.53362
21
0.847163
0
LINE
8
BLACK
6
CONTINUOUS
10
1.53362
20
0.847163
11
1.53356
21
0.847141
0
LINE
8
BLACK
6
CONTINUOUS
10
1.53356
20
0.847141
11
1.52981
21
0.847141
0
LINE
8
BLACK
6
CONTINUOUS
10
1.52981
20
0.847141
11
1.52894
21
0.847294
0
LINE
8
BLACK
6
CONTINUOUS
10
1.52894
20
0.847294
11
1.52887
21
0.847293
0
LINE
8
BLACK
6
CONTINUOUS
10
1.52887
20
0.847293
11
1.52325
21
0.849167
0
LINE
8
BLACK
6
CONTINUOUS
10
1.52325
20
0.849167
11
1.52235
21
0.849656
0
LINE
8
BLACK
6
CONTINUOUS
10
1.52235
20
0.849656
11
1.52226
21
0.849806
0
LINE
8
BLACK
6
CONTINUOUS
10
1.52226
20
0.849806
11
1.5221
21
0.849881
0
LINE
8
BLACK
6
CONTINUOUS
10
1.5221
20
0.849881
11
1.52022
21
0.851755
0
LINE
8
BLACK
6
CONTINUOUS
10
1.52022
20
0.851755
11
1.51963
21
0.852595
0
LINE
8
BLACK
6
CONTINUOUS
10
1.51963
20
0.852595
11
1.51946
21
0.854608
0
LINE
8
BLACK
6
CONTINUOUS
10
1.51946
20
0.854608
11
1.52062
21
0.856262
0
LINE
8
BLACK
6
CONTINUOUS
10
1.52062
20
0.856262
11
1.52257
21
0.856785
0
LINE
8
BLACK
6
CONTINUOUS
10
1.52257
20
0.856785
11
1.5244
21
0.855931
0
LINE
8
BLACK
6
CONTINUOUS
10
1.5244
20
0.855931
11
1.52578
21
0.854549
0
LINE
8
BLACK
6
CONTINUOUS
10
1.52578
20
0.854549
11
1.53029
21
0.853046
0
LINE
8
BLACK
6
CONTINUOUS
10
1.53029
20
0.853046
11
1.53308
21
0.853046
0
LINE
8
BLACK
6
CONTINUOUS
10
1.53308
20
0.853046
11
1.53759
21
0.854549
0
LINE
8
BLACK
6
CONTINUOUS
10
1.53759
20
0.854549
11
1.54051
21
0.857467
0
LINE
8
BLACK
6
CONTINUOUS
10
1.54051
20
0.857467
11
1.54202
21
0.860498
0
LINE
8
BLACK
6
CONTINUOUS
10
1.54202
20
0.860498
11
1.54373
21
0.86733
0
LINE
8
BLACK
6
CONTINUOUS
10
1.54373
20
0.86733
11
1.54373
21
0.872227
0
LINE
8
BLACK
6
CONTINUOUS
10
1.54373
20
0.872227
11
1.54202
21
0.879059
0
LINE
8
BLACK
6
CONTINUOUS
10
1.54202
20
0.879059
11
1.54051
21
0.88209
0
LINE
8
BLACK
6
CONTINUOUS
10
1.54051
20
0.88209
11
1.53759
21
0.885008
0
LINE
8
BLACK
6
CONTINUOUS
10
1.53759
20
0.885008
11
1.53308
21
0.886511
0
LINE
8
BLACK
6
CONTINUOUS
10
1.53308
20
0.886511
11
1.53029
21
0.886511
0
LINE
8
BLACK
6
CONTINUOUS
10
1.53029
20
0.886511
11
1.52578
21
0.885008
0
LINE
8
BLACK
6
CONTINUOUS
10
1.52578
20
0.885008
11
1.5244
21
0.883626
0
LINE
8
BLACK
6
CONTINUOUS
10
1.5244
20
0.883626
11
1.52356
21
0.883038
0
LINE
8
BLACK
6
CONTINUOUS
10
1.52356
20
0.883038
11
1.52155
21
0.882862
0
LINE
8
BLACK
6
CONTINUOUS
10
1.52155
20
0.882862
11
1.51989
21
0.884021
0
LINE
8
BLACK
6
CONTINUOUS
10
1.51989
20
0.884021
11
1.51937
21
0.885972
0
LINE
8
BLACK
6
CONTINUOUS
10
1.51937
20
0.885972
11
1.52022
21
0.887802
0
LINE
8
BLACK
6
CONTINUOUS
10
1.52022
20
0.887802
11
1.5221
21
0.889677
0
LINE
8
BLACK
6
CONTINUOUS
10
1.5221
20
0.889677
11
1.52294
21
0.890265
0
LINE
8
BLACK
6
CONTINUOUS
10
1.52294
20
0.890265
11
1.52311
21
0.890281
0
LINE
8
BLACK
6
CONTINUOUS
10
1.52311
20
0.890281
11
1.52325
21
0.89039
0
LINE
8
BLACK
6
CONTINUOUS
10
1.52325
20
0.89039
11
1.52887
21
0.892265
0
LINE
8
BLACK
6
CONTINUOUS
10
1.52887
20
0.892265
11
1.52975
21
0.892395
0
LINE
8
BLACK
6
CONTINUOUS
10
1.52975
20
0.892395
11
1.52981
21
0.892417
0
LINE
8
BLACK
6
CONTINUOUS
10
1.52981
20
0.892417
11
1.53356
21
0.892417
0
LINE
8
BLACK
6
CONTINUOUS
10
1.53356
20
0.892417
11
1.53443
21
0.892263
0
LINE
8
BLACK
6
CONTINUOUS
10
1.96996
20
0.890607
11
1.97065
21
0.888937
0
LINE
8
BLACK
6
CONTINUOUS
10
1.97065
20
0.888937
11
1.96996
21
0.887267
0
LINE
8
BLACK
6
CONTINUOUS
10
1.96996
20
0.887267
11
1.96829
21
0.886575
0
LINE
8
BLACK
6
CONTINUOUS
10
1.96829
20
0.886575
11
1.94771
21
0.886575
0
LINE
8
BLACK
6
CONTINUOUS
10
1.94771
20
0.886575
11
1.94604
21
0.887267
0
LINE
8
BLACK
6
CONTINUOUS
10
1.94604
20
0.887267
11
1.94535
21
0.888937
0
LINE
8
BLACK
6
CONTINUOUS
10
1.94535
20
0.888937
11
1.94604
21
0.890607
0
LINE
8
BLACK
6
CONTINUOUS
10
1.94604
20
0.890607
11
1.94771
21
0.891299
0
LINE
8
BLACK
6
CONTINUOUS
10
1.94771
20
0.891299
11
1.96829
21
0.891299
0
LINE
8
BLACK
6
CONTINUOUS
10
1.96829
20
0.891299
11
1.96996
21
0.890607
0
LINE
8
BLACK
6
CONTINUOUS
10
1.96996
20
0.942733
11
1.97065
21
0.941063
0
LINE
8
BLACK
6
CONTINUOUS
10
1.97065
20
0.941063
11
1.96996
21
0.939393
0
LINE
8
BLACK
6
CONTINUOUS
10
1.96996
20
0.939393
11
1.96829
21
0.938701
0
LINE
8
BLACK
6
CONTINUOUS
10
1.96829
20
0.938701
11
1.94771
21
0.938701
0
LINE
8
BLACK
6
CONTINUOUS
10
1.94771
20
0.938701
11
1.94604
21
0.939393
0
LINE
8
BLACK
6
CONTINUOUS
10
1.94604
20
0.939393
11
1.94535
21
0.941063
0
LINE
8
BLACK
6
CONTINUOUS
10
1.94535
20
0.941063
11
1.94604
21
0.942733
0
LINE
8
BLACK
6
CONTINUOUS
10
1.94604
20
0.942733
11
1.94771
21
0.943425
0
LINE
8
BLACK
6
CONTINUOUS
10
1.94771
20
0.943425
11
1.96829
21
0.943425
0
LINE
8
BLACK
6
CONTINUOUS
10
1.96829
20
0.943425
11
1.96996
21
0.942733
0
LINE
8
BLACK
6
CONTINUOUS
10
1.31132
20
0.990354
11
1.45305
21
0.990354
0
LINE
8
BLACK
6
CONTINUOUS
10
1.45305
20
0.990354
11
1.45472
21
0.989662
0
LINE
8
BLACK
6
CONTINUOUS
10
1.45472
20
0.989662
11
1.45541
21
0.987992
0
LINE
8
BLACK
6
CONTINUOUS
10
1.45541
20
0.987992
11
1.45472
21
0.986322
0
LINE
8
BLACK
6
CONTINUOUS
10
1.45472
20
0.986322
11
1.45305
21
0.98563
0
LINE
8
BLACK
6
CONTINUOUS
10
1.45305
20
0.98563
11
1.31132
21
0.98563
0
LINE
8
BLACK
6
CONTINUOUS
10
1.31132
20
0.98563
11
1.2247
21
0.98563
0
LINE
8
BLACK
6
CONTINUOUS
10
1.2247
20
0.98563
11
1.22303
21
0.986322
0
LINE
8
BLACK
6
CONTINUOUS
10
1.22303
20
0.986322
11
1.22234
21
0.987992
0
LINE
8
BLACK
6
CONTINUOUS
10
1.22234
20
0.987992
11
1.22303
21
0.989662
0
LINE
8
BLACK
6
CONTINUOUS
10
1.22303
20
0.989662
11
1.2247
21
0.990354
0
LINE
8
BLACK
6
CONTINUOUS
10
1.2247
20
0.990354
11
1.31132
21
0.990354
0
LINE
8
BLACK
6
CONTINUOUS
10
1.57313
20
1.05876
11
1.57382
21
1.05709
0
LINE
8
BLACK
6
CONTINUOUS
10
1.57382
20
1.05709
11
1.57382
21
0.994094
0
LINE
8
BLACK
6
CONTINUOUS
10
1.57382
20
0.994094
11
1.57313
21
0.992424
0
LINE
8
BLACK
6
CONTINUOUS
10
1.57313
20
0.992424
11
1.57146
21
0.991732
0
LINE
8
BLACK
6
CONTINUOUS
10
1.57146
20
0.991732
11
1.56979
21
0.992424
0
LINE
8
BLACK
6
CONTINUOUS
10
1.56979
20
0.992424
11
1.56909
21
0.994094
0
LINE
8
BLACK
6
CONTINUOUS
10
1.56909
20
0.994094
11
1.56909
21
1.05709
0
LINE
8
BLACK
6
CONTINUOUS
10
1.56909
20
1.05709
11
1.56979
21
1.05876
0
LINE
8
BLACK
6
CONTINUOUS
10
1.56979
20
1.05876
11
1.57146
21
1.05945
0
LINE
8
BLACK
6
CONTINUOUS
10
1.57146
20
1.05945
11
1.57313
21
1.05876
0
LINE
8
BLACK
6
CONTINUOUS
10
1.85738
20
1.05876
11
1.85807
21
1.05709
0
LINE
8
BLACK
6
CONTINUOUS
10
1.85807
20
1.05709
11
1.85807
21
0.994094
0
LINE
8
BLACK
6
CONTINUOUS
10
1.85807
20
0.994094
11
1.85738
21
0.992424
0
LINE
8
BLACK
6
CONTINUOUS
10
1.85738
20
0.992424
11
1.85571
21
0.991732
0
LINE
8
BLACK
6
CONTINUOUS
10
1.85571
20
0.991732
11
1.85404
21
0.992424
0
LINE
8
BLACK
6
CONTINUOUS
10
1.85404
20
0.992424
11
1.85335
21
0.994094
0
LINE
8
BLACK
6
CONTINUOUS
10
1.85335
20
0.994094
11
1.85335
21
1.05709
0
LINE
8
BLACK
6
CONTINUOUS
10
1.85335
20
1.05709
11
1.85404
21
1.05876
0
LINE
8
BLACK
6
CONTINUOUS
10
1.85404
20
1.05876
11
1.85571
21
1.05945
0
LINE
8
BLACK
6
CONTINUOUS
10
1.85571
20
1.05945
11
1.85738
21
1.05876
0
LINE
8
BLACK
6
CONTINUOUS
10
1.33085
20
1.03708
11
1.33102
21
1.03709
0
LINE
8
BLACK
6
CONTINUOUS
10
1.33102
20
1.03709
11
1.33171
21
1.03659
0
LINE
8
BLACK
6
CONTINUOUS
10
1.33171
20
1.03659
11
1.33245
21
1.03616
0
LINE
8
BLACK
6
CONTINUOUS
10
1.33245
20
1.03616
11
1.33251
21
1.036
0
LINE
8
BLACK
6
CONTINUOUS
10
1.33251
20
1.036
11
1.33265
21
1.0359
0
LINE
8
BLACK
6
CONTINUOUS
10
1.33265
20
1.0359
11
1.33624
21
1.03052
0
LINE
8
BLACK
6
CONTINUOUS
10
1.33624
20
1.03052
11
1.33944
21
1.02731
0
LINE
8
BLACK
6
CONTINUOUS
10
1.33944
20
1.02731
11
1.34276
21
1.02565
0
LINE
8
BLACK
6
CONTINUOUS
10
1.34276
20
1.02565
11
1.34359
21
1.02504
0
LINE
8
BLACK
6
CONTINUOUS
10
1.34359
20
1.02504
11
1.34439
21
1.02319
0
LINE
8
BLACK
6
CONTINUOUS
10
1.34439
20
1.02319
11
1.34381
21
1.02125
0
LINE
8
BLACK
6
CONTINUOUS
10
1.34381
20
1.02125
11
1.34213
21
1.02014
0
LINE
8
BLACK
6
CONTINUOUS
10
1.34213
20
1.02014
11
1.34012
21
1.02037
0
LINE
8
BLACK
6
CONTINUOUS
10
1.34012
20
1.02037
11
1.33637
21
1.02224
0
LINE
8
BLACK
6
CONTINUOUS
10
1.33637
20
1.02224
11
1.33566
21
1.02277
0
LINE
8
BLACK
6
CONTINUOUS
10
1.33566
20
1.02277
11
1.3356
21
1.0228
0
LINE
8
BLACK
6
CONTINUOUS
10
1.3356
20
1.0228
11
1.33315
21
1.02526
0
LINE
8
BLACK
6
CONTINUOUS
10
1.33315
20
1.02526
11
1.33315
21
0.997842
0
LINE
8
BLACK
6
CONTINUOUS
10
1.33315
20
0.997842
11
1.34144
21
0.997842
0
LINE
8
BLACK
6
CONTINUOUS
10
1.34144
20
0.997842
11
1.34245
21
0.997664
0
LINE
8
BLACK
6
CONTINUOUS
10
1.34245
20
0.997664
11
1.344
21
0.996365
0
LINE
8
BLACK
6
CONTINUOUS
10
1.344
20
0.996365
11
1.34435
21
0.994376
0
LINE
8
BLACK
6
CONTINUOUS
10
1.34435
20
0.994376
11
1.34334
21
0.992627
0
LINE
8
BLACK
6
CONTINUOUS
10
1.34334
20
0.992627
11
1.34144
21
0.991936
0
LINE
8
BLACK
6
CONTINUOUS
10
1.34144
20
0.991936
11
1.31894
21
0.991936
0
LINE
8
BLACK
6
CONTINUOUS
10
1.31894
20
0.991936
11
1.31793
21
0.992114
0
LINE
8
BLACK
6
CONTINUOUS
10
1.31793
20
0.992114
11
1.31639
21
0.993413
0
LINE
8
BLACK
6
CONTINUOUS
10
1.31639
20
0.993413
11
1.31604
21
0.995402
0
LINE
8
BLACK
6
CONTINUOUS
10
1.31604
20
0.995402
11
1.31705
21
0.997151
0
LINE
8
BLACK
6
CONTINUOUS
10
1.31705
20
0.997151
11
1.31894
21
0.997842
0
LINE
8
BLACK
6
CONTINUOUS
10
1.31894
20
0.997842
11
1.32724
21
0.997842
0
LINE
8
BLACK
6
CONTINUOUS
10
1.32724
20
0.997842
11
1.32724
21
1.03426
0
LINE
8
BLACK
6
CONTINUOUS
10
1.32724
20
1.03426
11
1.32742
21
1.03527
0
LINE
8
BLACK
6
CONTINUOUS
10
1.32742
20
1.03527
11
1.32753
21
1.0354
0
LINE
8
BLACK
6
CONTINUOUS
10
1.32753
20
1.0354
11
1.32755
21
1.03557
0
LINE
8
BLACK
6
CONTINUOUS
10
1.32755
20
1.03557
11
1.32817
21
1.03616
0
LINE
8
BLACK
6
CONTINUOUS
10
1.32817
20
1.03616
11
1.32872
21
1.03682
0
LINE
8
BLACK
6
CONTINUOUS
10
1.32872
20
1.03682
11
1.32888
21
1.03685
0
LINE
8
BLACK
6
CONTINUOUS
10
1.32888
20
1.03685
11
1.32901
21
1.03696
0
LINE
8
BLACK
6
CONTINUOUS
10
1.32901
20
1.03696
11
1.32986
21
1.03702
0
LINE
8
BLACK
6
CONTINUOUS
10
1.32986
20
1.03702
11
1.33071
21
1.03717
0
LINE
8
BLACK
6
CONTINUOUS
10
1.33071
20
1.03717
11
1.33085
21
1.03708
0
LINE
8
BLACK
6
CONTINUOUS
10
1.36856
20
1.03706
11
1.36862
21
1.03706
0
LINE
8
BLACK
6
CONTINUOUS
10
1.36862
20
1.03706
11
1.37425
21
1.03519
0
LINE
8
BLACK
6
CONTINUOUS
10
1.37425
20
1.03519
11
1.37515
21
1.0347
0
LINE
8
BLACK
6
CONTINUOUS
10
1.37515
20
1.0347
11
1.37524
21
1.03455
0
LINE
8
BLACK
6
CONTINUOUS
10
1.37524
20
1.03455
11
1.3754
21
1.03447
0
LINE
8
BLACK
6
CONTINUOUS
10
1.3754
20
1.03447
11
1.37915
21
1.03072
0
LINE
8
BLACK
6
CONTINUOUS
10
1.37915
20
1.03072
11
1.37966
21
1.03
0
LINE
8
BLACK
6
CONTINUOUS
10
1.37966
20
1.03
11
1.3797
21
1.02996
0
LINE
8
BLACK
6
CONTINUOUS
10
1.3797
20
1.02996
11
1.38158
21
1.02621
0
LINE
8
BLACK
6
CONTINUOUS
10
1.38158
20
1.02621
11
1.38172
21
1.02572
0
LINE
8
BLACK
6
CONTINUOUS
10
1.38172
20
1.02572
11
1.3818
21
1.0256
0
LINE
8
BLACK
6
CONTINUOUS
10
1.3818
20
1.0256
11
1.38368
21
1.0181
0
LINE
8
BLACK
6
CONTINUOUS
10
1.38368
20
1.0181
11
1.38372
21
1.01751
0
LINE
8
BLACK
6
CONTINUOUS
10
1.38372
20
1.01751
11
1.38376
21
1.01739
0
LINE
8
BLACK
6
CONTINUOUS
10
1.38376
20
1.01739
11
1.38376
21
1.01176
0
LINE
8
BLACK
6
CONTINUOUS
10
1.38376
20
1.01176
11
1.38366
21
1.01118
0
LINE
8
BLACK
6
CONTINUOUS
10
1.38366
20
1.01118
11
1.38368
21
1.01105
0
LINE
8
BLACK
6
CONTINUOUS
10
1.38368
20
1.01105
11
1.3818
21
1.00355
0
LINE
8
BLACK
6
CONTINUOUS
10
1.3818
20
1.00355
11
1.38159
21
1.00308
0
LINE
8
BLACK
6
CONTINUOUS
10
1.38159
20
1.00308
11
1.38158
21
1.00294
0
LINE
8
BLACK
6
CONTINUOUS
10
1.38158
20
1.00294
11
1.3797
21
0.999193
0
LINE
8
BLACK
6
CONTINUOUS
10
1.3797
20
0.999193
11
1.37918
21
0.998484
0
LINE
8
BLACK
6
CONTINUOUS
10
1.37918
20
0.998484
11
1.37915
21
0.998425
0
LINE
8
BLACK
6
CONTINUOUS
10
1.37915
20
0.998425
11
1.3754
21
0.994676
0
LINE
8
BLACK
6
CONTINUOUS
10
1.3754
20
0.994676
11
1.37456
21
0.994088
0
LINE
8
BLACK
6
CONTINUOUS
10
1.37456
20
0.994088
11
1.37438
21
0.994072
0
LINE
8
BLACK
6
CONTINUOUS
10
1.37438
20
0.994072
11
1.37425
21
0.993963
0
LINE
8
BLACK
6
CONTINUOUS
10
1.37425
20
0.993963
11
1.36862
21
0.992088
0
LINE
8
BLACK
6
CONTINUOUS
10
1.36862
20
0.992088
11
1.36775
21
0.991958
0
LINE
8
BLACK
6
CONTINUOUS
10
1.36775
20
0.991958
11
1.36769
21
0.991936
0
LINE
8
BLACK
6
CONTINUOUS
10
1.36769
20
0.991936
11
1.36394
21
0.991936
0
LINE
8
BLACK
6
CONTINUOUS
10
1.36394
20
0.991936
11
1.36307
21
0.99209
0
LINE
8
BLACK
6
CONTINUOUS
10
1.36307
20
0.99209
11
1.36301
21
0.992088
0
LINE
8
BLACK
6
CONTINUOUS
10
1.36301
20
0.992088
11
1.35738
21
0.993963
0
LINE
8
BLACK
6
CONTINUOUS
10
1.35738
20
0.993963
11
1.35648
21
0.994451
0
LINE
8
BLACK
6
CONTINUOUS
10
1.35648
20
0.994451
11
1.35639
21
0.994601
0
LINE
8
BLACK
6
CONTINUOUS
10
1.35639
20
0.994601
11
1.35623
21
0.994676
0
LINE
8
BLACK
6
CONTINUOUS
10
1.35623
20
0.994676
11
1.35435
21
0.996551
0
LINE
8
BLACK
6
CONTINUOUS
10
1.35435
20
0.996551
11
1.35376
21
0.997391
0
LINE
8
BLACK
6
CONTINUOUS
10
1.35376
20
0.997391
11
1.35359
21
0.999403
0
LINE
8
BLACK
6
CONTINUOUS
10
1.35359
20
0.999403
11
1.35475
21
1.00106
0
LINE
8
BLACK
6
CONTINUOUS
10
1.35475
20
1.00106
11
1.3567
21
1.00158
0
LINE
8
BLACK
6
CONTINUOUS
10
1.3567
20
1.00158
11
1.35853
21
1.00073
0
LINE
8
BLACK
6
CONTINUOUS
10
1.35853
20
1.00073
11
1.35991
21
0.999345
0
LINE
8
BLACK
6
CONTINUOUS
10
1.35991
20
0.999345
11
1.36442
21
0.997842
0
LINE
8
BLACK
6
CONTINUOUS
10
1.36442
20
0.997842
11
1.36721
21
0.997842
0
LINE
8
BLACK
6
CONTINUOUS
10
1.36721
20
0.997842
11
1.37172
21
0.999345
0
LINE
8
BLACK
6
CONTINUOUS
10
1.37172
20
0.999345
11
1.37464
21
1.00226
0
LINE
8
BLACK
6
CONTINUOUS
10
1.37464
20
1.00226
11
1.37615
21
1.00529
0
LINE
8
BLACK
6
CONTINUOUS
10
1.37615
20
1.00529
11
1.37786
21
1.01213
0
LINE
8
BLACK
6
CONTINUOUS
10
1.37786
20
1.01213
11
1.37786
21
1.01702
0
LINE
8
BLACK
6
CONTINUOUS
10
1.37786
20
1.01702
11
1.37615
21
1.02385
0
LINE
8
BLACK
6
CONTINUOUS
10
1.37615
20
1.02385
11
1.37464
21
1.02689
0
LINE
8
BLACK
6
CONTINUOUS
10
1.37464
20
1.02689
11
1.37172
21
1.0298
0
LINE
8
BLACK
6
CONTINUOUS
10
1.37172
20
1.0298
11
1.36721
21
1.03131
0
LINE
8
BLACK
6
CONTINUOUS
10
1.36721
20
1.03131
11
1.36442
21
1.03131
0
LINE
8
BLACK
6
CONTINUOUS
10
1.36442
20
1.03131
11
1.35991
21
1.0298
0
LINE
8
BLACK
6
CONTINUOUS
10
1.35991
20
1.0298
11
1.35853
21
1.02842
0
LINE
8
BLACK
6
CONTINUOUS
10
1.35853
20
1.02842
11
1.35769
21
1.02783
0
LINE
8
BLACK
6
CONTINUOUS
10
1.35769
20
1.02783
11
1.35568
21
1.02766
0
LINE
8
BLACK
6
CONTINUOUS
10
1.35568
20
1.02766
11
1.35402
21
1.02882
0
LINE
8
BLACK
6
CONTINUOUS
10
1.35402
20
1.02882
11
1.3535
21
1.03077
0
LINE
8
BLACK
6
CONTINUOUS
10
1.3535
20
1.03077
11
1.35435
21
1.0326
0
LINE
8
BLACK
6
CONTINUOUS
10
1.35435
20
1.0326
11
1.35623
21
1.03447
0
LINE
8
BLACK
6
CONTINUOUS
10
1.35623
20
1.03447
11
1.35707
21
1.03506
0
LINE
8
BLACK
6
CONTINUOUS
10
1.35707
20
1.03506
11
1.35724
21
1.03508
0
LINE
8
BLACK
6
CONTINUOUS
10
1.35724
20
1.03508
11
1.35738
21
1.03519
0
LINE
8
BLACK
6
CONTINUOUS
10
1.35738
20
1.03519
11
1.36301
21
1.03706
0
LINE
8
BLACK
6
CONTINUOUS
10
1.36301
20
1.03706
11
1.36388
21
1.03719
0
LINE
8
BLACK
6
CONTINUOUS
10
1.36388
20
1.03719
11
1.36394
21
1.03721
0
LINE
8
BLACK
6
CONTINUOUS
10
1.36394
20
1.03721
11
1.36769
21
1.03721
0
LINE
8
BLACK
6
CONTINUOUS
10
1.36769
20
1.03721
11
1.36856
21
1.03706
0
LINE
8
BLACK
6
CONTINUOUS
10
1.39995
20
1.03616
11
1.40064
21
1.03426
0
LINE
8
BLACK
6
CONTINUOUS
10
1.40064
20
1.03426
11
1.40064
21
0.994889
0
LINE
8
BLACK
6
CONTINUOUS
10
1.40064
20
0.994889
11
1.40046
21
0.993879
0
LINE
8
BLACK
6
CONTINUOUS
10
1.40046
20
0.993879
11
1.39916
21
0.992332
0
LINE
8
BLACK
6
CONTINUOUS
10
1.39916
20
0.992332
11
1.39717
21
0.991981
0
LINE
8
BLACK
6
CONTINUOUS
10
1.39717
20
0.991981
11
1.39542
21
0.992991
0
LINE
8
BLACK
6
CONTINUOUS
10
1.39542
20
0.992991
11
1.39473
21
0.994889
0
LINE
8
BLACK
6
CONTINUOUS
10
1.39473
20
0.994889
11
1.39473
21
1.03426
0
LINE
8
BLACK
6
CONTINUOUS
10
1.39473
20
1.03426
11
1.39491
21
1.03527
0
LINE
8
BLACK
6
CONTINUOUS
10
1.39491
20
1.03527
11
1.39621
21
1.03682
0
LINE
8
BLACK
6
CONTINUOUS
10
1.39621
20
1.03682
11
1.3982
21
1.03717
0
LINE
8
BLACK
6
CONTINUOUS
10
1.3982
20
1.03717
11
1.39995
21
1.03616
0
LINE
8
BLACK
6
CONTINUOUS
10
1.96996
20
1.00061
11
1.97065
21
0.998937
0
LINE
8
BLACK
6
CONTINUOUS
10
1.97065
20
0.998937
11
1.96996
21
0.997267
0
LINE
8
BLACK
6
CONTINUOUS
10
1.96996
20
0.997267
11
1.96829
21
0.996575
0
LINE
8
BLACK
6
CONTINUOUS
10
1.96829
20
0.996575
11
1.94771
21
0.996575
0
LINE
8
BLACK
6
CONTINUOUS
10
1.94771
20
0.996575
11
1.94604
21
0.997267
0
LINE
8
BLACK
6
CONTINUOUS
10
1.94604
20
0.997267
11
1.94535
21
0.998937
0
LINE
8
BLACK
6
CONTINUOUS
10
1.94535
20
0.998937
11
1.94604
21
1.00061
0
LINE
8
BLACK
6
CONTINUOUS
10
1.94604
20
1.00061
11
1.94771
21
1.0013
0
LINE
8
BLACK
6
CONTINUOUS
10
1.94771
20
1.0013
11
1.96829
21
1.0013
0
LINE
8
BLACK
6
CONTINUOUS
10
1.96829
20
1.0013
11
1.96996
21
1.00061
0
LINE
8
BLACK
6
CONTINUOUS
10
1.94507
20
1.06524
11
1.94521
21
1.06513
0
LINE
8
BLACK
6
CONTINUOUS
10
1.94521
20
1.06513
11
1.94538
21
1.0651
0
LINE
8
BLACK
6
CONTINUOUS
10
1.94538
20
1.0651
11
1.94913
21
1.06323
0
LINE
8
BLACK
6
CONTINUOUS
10
1.94913
20
1.06323
11
1.94984
21
1.0627
0
LINE
8
BLACK
6
CONTINUOUS
10
1.94984
20
1.0627
11
1.9499
21
1.06268
0
LINE
8
BLACK
6
CONTINUOUS
10
1.9499
20
1.06268
11
1.95178
21
1.0608
0
LINE
8
BLACK
6
CONTINUOUS
10
1.95178
20
1.0608
11
1.95228
21
1.06008
0
LINE
8
BLACK
6
CONTINUOUS
10
1.95228
20
1.06008
11
1.95233
21
1.06003
0
LINE
8
BLACK
6
CONTINUOUS
10
1.95233
20
1.06003
11
1.9542
21
1.05629
0
LINE
8
BLACK
6
CONTINUOUS
10
1.9542
20
1.05629
11
1.9545
21
1.0553
0
LINE
8
BLACK
6
CONTINUOUS
10
1.9545
20
1.0553
11
1.95446
21
1.05513
0
LINE
8
BLACK
6
CONTINUOUS
10
1.95446
20
1.05513
11
1.95452
21
1.05496
0
LINE
8
BLACK
6
CONTINUOUS
10
1.95452
20
1.05496
11
1.95452
21
1.05309
0
LINE
8
BLACK
6
CONTINUOUS
10
1.95452
20
1.05309
11
1.95434
21
1.05208
0
LINE
8
BLACK
6
CONTINUOUS
10
1.95434
20
1.05208
11
1.95422
21
1.05194
0
LINE
8
BLACK
6
CONTINUOUS
10
1.95422
20
1.05194
11
1.9542
21
1.05177
0
LINE
8
BLACK
6
CONTINUOUS
10
1.9542
20
1.05177
11
1.95233
21
1.04802
0
LINE
8
BLACK
6
CONTINUOUS
10
1.95233
20
1.04802
11
1.9518
21
1.04731
0
LINE
8
BLACK
6
CONTINUOUS
10
1.9518
20
1.04731
11
1.95178
21
1.04725
0
LINE
8
BLACK
6
CONTINUOUS
10
1.95178
20
1.04725
11
1.95012
21
1.04559
0
LINE
8
BLACK
6
CONTINUOUS
10
1.95012
20
1.04559
11
1.95178
21
1.04393
0
LINE
8
BLACK
6
CONTINUOUS
10
1.95178
20
1.04393
11
1.95228
21
1.04321
0
LINE
8
BLACK
6
CONTINUOUS
10
1.95228
20
1.04321
11
1.95233
21
1.04316
0
LINE
8
BLACK
6
CONTINUOUS
10
1.95233
20
1.04316
11
1.9542
21
1.03941
0
LINE
8
BLACK
6
CONTINUOUS
10
1.9542
20
1.03941
11
1.9545
21
1.03843
0
LINE
8
BLACK
6
CONTINUOUS
10
1.9545
20
1.03843
11
1.95446
21
1.03826
0
LINE
8
BLACK
6
CONTINUOUS
10
1.95446
20
1.03826
11
1.95452
21
1.03809
0
LINE
8
BLACK
6
CONTINUOUS
10
1.95452
20
1.03809
11
1.95452
21
1.03059
0
LINE
8
BLACK
6
CONTINUOUS
10
1.95452
20
1.03059
11
1.95434
21
1.02958
0
LINE
8
BLACK
6
CONTINUOUS
10
1.95434
20
1.02958
11
1.95422
21
1.02945
0
LINE
8
BLACK
6
CONTINUOUS
10
1.95422
20
1.02945
11
1.9542
21
1.02927
0
LINE
8
BLACK
6
CONTINUOUS
10
1.9542
20
1.02927
11
1.95233
21
1.02552
0
LINE
8
BLACK
6
CONTINUOUS
10
1.95233
20
1.02552
11
1.9518
21
1.02481
0
LINE
8
BLACK
6
CONTINUOUS
10
1.9518
20
1.02481
11
1.95178
21
1.02476
0
LINE
8
BLACK
6
CONTINUOUS
10
1.95178
20
1.02476
11
1.9499
21
1.02288
0
LINE
8
BLACK
6
CONTINUOUS
10
1.9499
20
1.02288
11
1.94918
21
1.02237
0
LINE
8
BLACK
6
CONTINUOUS
10
1.94918
20
1.02237
11
1.94913
21
1.02233
0
LINE
8
BLACK
6
CONTINUOUS
10
1.94913
20
1.02233
11
1.94538
21
1.02045
0
LINE
8
BLACK
6
CONTINUOUS
10
1.94538
20
1.02045
11
1.9444
21
1.02016
0
LINE
8
BLACK
6
CONTINUOUS
10
1.9444
20
1.02016
11
1.94423
21
1.0202
0
LINE
8
BLACK
6
CONTINUOUS
10
1.94423
20
1.0202
11
1.94406
21
1.02014
0
LINE
8
BLACK
6
CONTINUOUS
10
1.94406
20
1.02014
11
1.93657
21
1.02014
0
LINE
8
BLACK
6
CONTINUOUS
10
1.93657
20
1.02014
11
1.93556
21
1.02032
0
LINE
8
BLACK
6
CONTINUOUS
10
1.93556
20
1.02032
11
1.93542
21
1.02043
0
LINE
8
BLACK
6
CONTINUOUS
10
1.93542
20
1.02043
11
1.93524
21
1.02045
0
LINE
8
BLACK
6
CONTINUOUS
10
1.93524
20
1.02045
11
1.9315
21
1.02233
0
LINE
8
BLACK
6
CONTINUOUS
10
1.9315
20
1.02233
11
1.93079
21
1.02285
0
LINE
8
BLACK
6
CONTINUOUS
10
1.93079
20
1.02285
11
1.93073
21
1.02288
0
LINE
8
BLACK
6
CONTINUOUS
10
1.93073
20
1.02288
11
1.92885
21
1.02476
0
LINE
8
BLACK
6
CONTINUOUS
10
1.92885
20
1.02476
11
1.92835
21
1.02548
0
LINE
8
BLACK
6
CONTINUOUS
10
1.92835
20
1.02548
11
1.9283
21
1.02552
0
LINE
8
BLACK
6
CONTINUOUS
10
1.9283
20
1.02552
11
1.92643
21
1.02927
0
LINE
8
BLACK
6
CONTINUOUS
10
1.92643
20
1.02927
11
1.92613
21
1.03026
0
LINE
8
BLACK
6
CONTINUOUS
10
1.92613
20
1.03026
11
1.92617
21
1.03043
0
LINE
8
BLACK
6
CONTINUOUS
10
1.92617
20
1.03043
11
1.92611
21
1.03059
0
LINE
8
BLACK
6
CONTINUOUS
10
1.92611
20
1.03059
11
1.92611
21
1.03809
0
LINE
8
BLACK
6
CONTINUOUS
10
1.92611
20
1.03809
11
1.92629
21
1.0391
0
LINE
8
BLACK
6
CONTINUOUS
10
1.92629
20
1.0391
11
1.92641
21
1.03924
0
LINE
8
BLACK
6
CONTINUOUS
10
1.92641
20
1.03924
11
1.92643
21
1.03941
0
LINE
8
BLACK
6
CONTINUOUS
10
1.92643
20
1.03941
11
1.9283
21
1.04316
0
LINE
8
BLACK
6
CONTINUOUS
10
1.9283
20
1.04316
11
1.92883
21
1.04387
0
LINE
8
BLACK
6
CONTINUOUS
10
1.92883
20
1.04387
11
1.92885
21
1.04393
0
LINE
8
BLACK
6
CONTINUOUS
10
1.92885
20
1.04393
11
1.93051
21
1.04559
0
LINE
8
BLACK
6
CONTINUOUS
10
1.93051
20
1.04559
11
1.92885
21
1.04725
0
LINE
8
BLACK
6
CONTINUOUS
10
1.92885
20
1.04725
11
1.92835
21
1.04798
0
LINE
8
BLACK
6
CONTINUOUS
10
1.92835
20
1.04798
11
1.9283
21
1.04802
0
LINE
8
BLACK
6
CONTINUOUS
10
1.9283
20
1.04802
11
1.92643
21
1.05177
0
LINE
8
BLACK
6
CONTINUOUS
10
1.92643
20
1.05177
11
1.92613
21
1.05275
0
LINE
8
BLACK
6
CONTINUOUS
10
1.92613
20
1.05275
11
1.92617
21
1.05292
0
LINE
8
BLACK
6
CONTINUOUS
10
1.92617
20
1.05292
11
1.92611
21
1.05309
0
LINE
8
BLACK
6
CONTINUOUS
10
1.92611
20
1.05309
11
1.92611
21
1.05496
0
LINE
8
BLACK
6
CONTINUOUS
10
1.92611
20
1.05496
11
1.92629
21
1.05597
0
LINE
8
BLACK
6
CONTINUOUS
10
1.92629
20
1.05597
11
1.92641
21
1.05611
0
LINE
8
BLACK
6
CONTINUOUS
10
1.92641
20
1.05611
11
1.92643
21
1.05629
0
LINE
8
BLACK
6
CONTINUOUS
10
1.92643
20
1.05629
11
1.9283
21
1.06003
0
LINE
8
BLACK
6
CONTINUOUS
10
1.9283
20
1.06003
11
1.92883
21
1.06074
0
LINE
8
BLACK
6
CONTINUOUS
10
1.92883
20
1.06074
11
1.92885
21
1.0608
0
LINE
8
BLACK
6
CONTINUOUS
10
1.92885
20
1.0608
11
1.93073
21
1.06268
0
LINE
8
BLACK
6
CONTINUOUS
10
1.93073
20
1.06268
11
1.93145
21
1.06318
0
LINE
8
BLACK
6
CONTINUOUS
10
1.93145
20
1.06318
11
1.9315
21
1.06323
0
LINE
8
BLACK
6
CONTINUOUS
10
1.9315
20
1.06323
11
1.93524
21
1.0651
0
LINE
8
BLACK
6
CONTINUOUS
10
1.93524
20
1.0651
11
1.93623
21
1.0654
0
LINE
8
BLACK
6
CONTINUOUS
10
1.93623
20
1.0654
11
1.9364
21
1.06536
0
LINE
8
BLACK
6
CONTINUOUS
10
1.9364
20
1.06536
11
1.93657
21
1.06542
0
LINE
8
BLACK
6
CONTINUOUS
10
1.93657
20
1.06542
11
1.94406
21
1.06542
0
LINE
8
BLACK
6
CONTINUOUS
10
1.94406
20
1.06542
11
1.94507
21
1.06524
0
LINE
8
BLACK
6
CONTINUOUS
10
1.93456
20
1.04129
11
1.93337
21
1.04009
0
LINE
8
BLACK
6
CONTINUOUS
10
1.93337
20
1.04009
11
1.93202
21
1.03739
0
LINE
8
BLACK
6
CONTINUOUS
10
1.93202
20
1.03739
11
1.93202
21
1.03129
0
LINE
8
BLACK
6
CONTINUOUS
10
1.93202
20
1.03129
11
1.93337
21
1.02859
0
LINE
8
BLACK
6
CONTINUOUS
10
1.93337
20
1.02859
11
1.93456
21
1.0274
0
LINE
8
BLACK
6
CONTINUOUS
10
1.93456
20
1.0274
11
1.93726
21
1.02605
0
LINE
8
BLACK
6
CONTINUOUS
10
1.93726
20
1.02605
11
1.94337
21
1.02605
0
LINE
8
BLACK
6
CONTINUOUS
10
1.94337
20
1.02605
11
1.94606
21
1.0274
0
LINE
8
BLACK
6
CONTINUOUS
10
1.94606
20
1.0274
11
1.94726
21
1.02859
0
LINE
8
BLACK
6
CONTINUOUS
10
1.94726
20
1.02859
11
1.94861
21
1.03129
0
LINE
8
BLACK
6
CONTINUOUS
10
1.94861
20
1.03129
11
1.94861
21
1.03739
0
LINE
8
BLACK
6
CONTINUOUS
10
1.94861
20
1.03739
11
1.94726
21
1.04009
0
LINE
8
BLACK
6
CONTINUOUS
10
1.94726
20
1.04009
11
1.94606
21
1.04129
0
LINE
8
BLACK
6
CONTINUOUS
10
1.94606
20
1.04129
11
1.94337
21
1.04264
0
LINE
8
BLACK
6
CONTINUOUS
10
1.94337
20
1.04264
11
1.93726
21
1.04264
0
LINE
8
BLACK
6
CONTINUOUS
10
1.93726
20
1.04264
11
1.93456
21
1.04129
0
LINE
8
BLACK
6
CONTINUOUS
10
1.93456
20
1.05816
11
1.93337
21
1.05697
0
LINE
8
BLACK
6
CONTINUOUS
10
1.93337
20
1.05697
11
1.93202
21
1.05427
0
LINE
8
BLACK
6
CONTINUOUS
10
1.93202
20
1.05427
11
1.93202
21
1.05379
0
LINE
8
BLACK
6
CONTINUOUS
10
1.93202
20
1.05379
11
1.93337
21
1.05109
0
LINE
8
BLACK
6
CONTINUOUS
10
1.93337
20
1.05109
11
1.93456
21
1.04989
0
LINE
8
BLACK
6
CONTINUOUS
10
1.93456
20
1.04989
11
1.93726
21
1.04854
0
LINE
8
BLACK
6
CONTINUOUS
10
1.93726
20
1.04854
11
1.94337
21
1.04854
0
LINE
8
BLACK
6
CONTINUOUS
10
1.94337
20
1.04854
11
1.94606
21
1.04989
0
LINE
8
BLACK
6
CONTINUOUS
10
1.94606
20
1.04989
11
1.94726
21
1.05109
0
LINE
8
BLACK
6
CONTINUOUS
10
1.94726
20
1.05109
11
1.94861
21
1.05379
0
LINE
8
BLACK
6
CONTINUOUS
10
1.94861
20
1.05379
11
1.94861
21
1.05427
0
LINE
8
BLACK
6
CONTINUOUS
10
1.94861
20
1.05427
11
1.94726
21
1.05697
0
LINE
8
BLACK
6
CONTINUOUS
10
1.94726
20
1.05697
11
1.94606
21
1.05816
0
LINE
8
BLACK
6
CONTINUOUS
10
1.94606
20
1.05816
11
1.94337
21
1.05951
0
LINE
8
BLACK
6
CONTINUOUS
10
1.94337
20
1.05951
11
1.93726
21
1.05951
0
LINE
8
BLACK
6
CONTINUOUS
10
1.93726
20
1.05951
11
1.93456
21
1.05816
0
LINE
8
BLACK
6
CONTINUOUS
10
1.97868
20
1.06526
11
1.97874
21
1.06527
0
LINE
8
BLACK
6
CONTINUOUS
10
1.97874
20
1.06527
11
1.98437
21
1.06339
0
LINE
8
BLACK
6
CONTINUOUS
10
1.98437
20
1.06339
11
1.98527
21
1.0629
0
LINE
8
BLACK
6
CONTINUOUS
10
1.98527
20
1.0629
11
1.98536
21
1.06275
0
LINE
8
BLACK
6
CONTINUOUS
10
1.98536
20
1.06275
11
1.98552
21
1.06268
0
LINE
8
BLACK
6
CONTINUOUS
10
1.98552
20
1.06268
11
1.98927
21
1.05893
0
LINE
8
BLACK
6
CONTINUOUS
10
1.98927
20
1.05893
11
1.98978
21
1.0582
0
LINE
8
BLACK
6
CONTINUOUS
10
1.98978
20
1.0582
11
1.98983
21
1.05816
0
LINE
8
BLACK
6
CONTINUOUS
10
1.98983
20
1.05816
11
1.9917
21
1.05441
0
LINE
8
BLACK
6
CONTINUOUS
10
1.9917
20
1.05441
11
1.99185
21
1.05392
0
LINE
8
BLACK
6
CONTINUOUS
10
1.99185
20
1.05392
11
1.99192
21
1.05381
0
LINE
8
BLACK
6
CONTINUOUS
10
1.99192
20
1.05381
11
1.9938
21
1.04631
0
LINE
8
BLACK
6
CONTINUOUS
10
1.9938
20
1.04631
11
1.99384
21
1.04572
0
LINE
8
BLACK
6
CONTINUOUS
10
1.99384
20
1.04572
11
1.99389
21
1.04559
0
LINE
8
BLACK
6
CONTINUOUS
10
1.99389
20
1.04559
11
1.99389
21
1.03997
0
LINE
8
BLACK
6
CONTINUOUS
10
1.99389
20
1.03997
11
1.99378
21
1.03939
0
LINE
8
BLACK
6
CONTINUOUS
10
1.99378
20
1.03939
11
1.9938
21
1.03925
0
LINE
8
BLACK
6
CONTINUOUS
10
1.9938
20
1.03925
11
1.99192
21
1.03175
0
LINE
8
BLACK
6
CONTINUOUS
10
1.99192
20
1.03175
11
1.99172
21
1.03129
0
LINE
8
BLACK
6
CONTINUOUS
10
1.99172
20
1.03129
11
1.9917
21
1.03115
0
LINE
8
BLACK
6
CONTINUOUS
10
1.9917
20
1.03115
11
1.98983
21
1.0274
0
LINE
8
BLACK
6
CONTINUOUS
10
1.98983
20
1.0274
11
1.9893
21
1.02669
0
LINE
8
BLACK
6
CONTINUOUS
10
1.9893
20
1.02669
11
1.98927
21
1.02663
0
LINE
8
BLACK
6
CONTINUOUS
10
1.98927
20
1.02663
11
1.98552
21
1.02288
0
LINE
8
BLACK
6
CONTINUOUS
10
1.98552
20
1.02288
11
1.98468
21
1.02229
0
LINE
8
BLACK
6
CONTINUOUS
10
1.98468
20
1.02229
11
1.98451
21
1.02228
0
LINE
8
BLACK
6
CONTINUOUS
10
1.98451
20
1.02228
11
1.98437
21
1.02217
0
LINE
8
BLACK
6
CONTINUOUS
10
1.98437
20
1.02217
11
1.97874
21
1.02029
0
LINE
8
BLACK
6
CONTINUOUS
10
1.97874
20
1.02029
11
1.97787
21
1.02016
0
LINE
8
BLACK
6
CONTINUOUS
10
1.97787
20
1.02016
11
1.97781
21
1.02014
0
LINE
8
BLACK
6
CONTINUOUS
10
1.97781
20
1.02014
11
1.97406
21
1.02014
0
LINE
8
BLACK
6
CONTINUOUS
10
1.97406
20
1.02014
11
1.97319
21
1.02029
0
LINE
8
BLACK
6
CONTINUOUS
10
1.97319
20
1.02029
11
1.97313
21
1.02029
0
LINE
8
BLACK
6
CONTINUOUS
10
1.97313
20
1.02029
11
1.9675
21
1.02217
0
LINE
8
BLACK
6
CONTINUOUS
10
1.9675
20
1.02217
11
1.9666
21
1.02266
0
LINE
8
BLACK
6
CONTINUOUS
10
1.9666
20
1.02266
11
1.96651
21
1.02281
0
LINE
8
BLACK
6
CONTINUOUS
10
1.96651
20
1.02281
11
1.96635
21
1.02288
0
LINE
8
BLACK
6
CONTINUOUS
10
1.96635
20
1.02288
11
1.96447
21
1.02476
0
LINE
8
BLACK
6
CONTINUOUS
10
1.96447
20
1.02476
11
1.96389
21
1.0256
0
LINE
8
BLACK
6
CONTINUOUS
10
1.96389
20
1.0256
11
1.96371
21
1.02761
0
LINE
8
BLACK
6
CONTINUOUS
10
1.96371
20
1.02761
11
1.96487
21
1.02926
0
LINE
8
BLACK
6
CONTINUOUS
10
1.96487
20
1.02926
11
1.96682
21
1.02978
0
LINE
8
BLACK
6
CONTINUOUS
10
1.96682
20
1.02978
11
1.96865
21
1.02893
0
LINE
8
BLACK
6
CONTINUOUS
10
1.96865
20
1.02893
11
1.97003
21
1.02755
0
LINE
8
BLACK
6
CONTINUOUS
10
1.97003
20
1.02755
11
1.97454
21
1.02605
0
LINE
8
BLACK
6
CONTINUOUS
10
1.97454
20
1.02605
11
1.97733
21
1.02605
0
LINE
8
BLACK
6
CONTINUOUS
10
1.97733
20
1.02605
11
1.98184
21
1.02755
0
LINE
8
BLACK
6
CONTINUOUS
10
1.98184
20
1.02755
11
1.98476
21
1.03047
0
LINE
8
BLACK
6
CONTINUOUS
10
1.98476
20
1.03047
11
1.98627
21
1.0335
0
LINE
8
BLACK
6
CONTINUOUS
10
1.98627
20
1.0335
11
1.98798
21
1.04033
0
LINE
8
BLACK
6
CONTINUOUS
10
1.98798
20
1.04033
11
1.98798
21
1.04523
0
LINE
8
BLACK
6
CONTINUOUS
10
1.98798
20
1.04523
11
1.98627
21
1.05206
0
LINE
8
BLACK
6
CONTINUOUS
10
1.98627
20
1.05206
11
1.98476
21
1.05509
0
LINE
8
BLACK
6
CONTINUOUS
10
1.98476
20
1.05509
11
1.98184
21
1.05801
0
LINE
8
BLACK
6
CONTINUOUS
10
1.98184
20
1.05801
11
1.97733
21
1.05951
0
LINE
8
BLACK
6
CONTINUOUS
10
1.97733
20
1.05951
11
1.97454
21
1.05951
0
LINE
8
BLACK
6
CONTINUOUS
10
1.97454
20
1.05951
11
1.97003
21
1.05801
0
LINE
8
BLACK
6
CONTINUOUS
10
1.97003
20
1.05801
11
1.96865
21
1.05663
0
LINE
8
BLACK
6
CONTINUOUS
10
1.96865
20
1.05663
11
1.96781
21
1.05604
0
LINE
8
BLACK
6
CONTINUOUS
10
1.96781
20
1.05604
11
1.9658
21
1.05586
0
LINE
8
BLACK
6
CONTINUOUS
10
1.9658
20
1.05586
11
1.96414
21
1.05702
0
LINE
8
BLACK
6
CONTINUOUS
10
1.96414
20
1.05702
11
1.96362
21
1.05897
0
LINE
8
BLACK
6
CONTINUOUS
10
1.96362
20
1.05897
11
1.96447
21
1.0608
0
LINE
8
BLACK
6
CONTINUOUS
10
1.96447
20
1.0608
11
1.96635
21
1.06268
0
LINE
8
BLACK
6
CONTINUOUS
10
1.96635
20
1.06268
11
1.96719
21
1.06327
0
LINE
8
BLACK
6
CONTINUOUS
10
1.96719
20
1.06327
11
1.96736
21
1.06328
0
LINE
8
BLACK
6
CONTINUOUS
10
1.96736
20
1.06328
11
1.9675
21
1.06339
0
LINE
8
BLACK
6
CONTINUOUS
10
1.9675
20
1.06339
11
1.97313
21
1.06527
0
LINE
8
BLACK
6
CONTINUOUS
10
1.97313
20
1.06527
11
1.974
21
1.06539
0
LINE
8
BLACK
6
CONTINUOUS
10
1.974
20
1.06539
11
1.97406
21
1.06542
0
LINE
8
BLACK
6
CONTINUOUS
10
1.97406
20
1.06542
11
1.97781
21
1.06542
0
LINE
8
BLACK
6
CONTINUOUS
10
1.97781
20
1.06542
11
1.97868
21
1.06526
0
LINE
8
BLACK
6
CONTINUOUS
10
1.47652
20
1.03769
11
1.47721
21
1.03602
0
LINE
8
BLACK
6
CONTINUOUS
10
1.47721
20
1.03602
11
1.47652
21
1.03435
0
LINE
8
BLACK
6
CONTINUOUS
10
1.47652
20
1.03435
11
1.47485
21
1.03366
0
LINE
8
BLACK
6
CONTINUOUS
10
1.47485
20
1.03366
11
1.45428
21
1.03366
0
LINE
8
BLACK
6
CONTINUOUS
10
1.45428
20
1.03366
11
1.45261
21
1.03435
0
LINE
8
BLACK
6
CONTINUOUS
10
1.45261
20
1.03435
11
1.45192
21
1.03602
0
LINE
8
BLACK
6
CONTINUOUS
10
1.45192
20
1.03602
11
1.45261
21
1.03769
0
LINE
8
BLACK
6
CONTINUOUS
10
1.45261
20
1.03769
11
1.45428
21
1.03839
0
LINE
8
BLACK
6
CONTINUOUS
10
1.45428
20
1.03839
11
1.47485
21
1.03839
0
LINE
8
BLACK
6
CONTINUOUS
10
1.47485
20
1.03839
11
1.47652
21
1.03769
0
LINE
8
BLACK
6
CONTINUOUS
10
1.11396
20
1.0436
11
1.11465
21
1.04193
0
LINE
8
BLACK
6
CONTINUOUS
10
1.11465
20
1.04193
11
1.11396
21
1.04026
0
LINE
8
BLACK
6
CONTINUOUS
10
1.11396
20
1.04026
11
1.11229
21
1.03957
0
LINE
8
BLACK
6
CONTINUOUS
10
1.11229
20
1.03957
11
1.09171
21
1.03957
0
LINE
8
BLACK
6
CONTINUOUS
10
1.09171
20
1.03957
11
1.09004
21
1.04026
0
LINE
8
BLACK
6
CONTINUOUS
10
1.09004
20
1.04026
11
1.08935
21
1.04193
0
LINE
8
BLACK
6
CONTINUOUS
10
1.08935
20
1.04193
11
1.09004
21
1.0436
0
LINE
8
BLACK
6
CONTINUOUS
10
1.09004
20
1.0436
11
1.09171
21
1.04429
0
LINE
8
BLACK
6
CONTINUOUS
10
1.09171
20
1.04429
11
1.11229
21
1.04429
0
LINE
8
BLACK
6
CONTINUOUS
10
1.11229
20
1.04429
11
1.11396
21
1.0436
0
LINE
8
BLACK
6
CONTINUOUS
10
1.25684
20
1.04419
11
1.25753
21
1.04252
0
LINE
8
BLACK
6
CONTINUOUS
10
1.25753
20
1.04252
11
1.25684
21
1.04085
0
LINE
8
BLACK
6
CONTINUOUS
10
1.25684
20
1.04085
11
1.25517
21
1.04016
0
LINE
8
BLACK
6
CONTINUOUS
10
1.25517
20
1.04016
11
1.2346
21
1.04016
0
LINE
8
BLACK
6
CONTINUOUS
10
1.2346
20
1.04016
11
1.23293
21
1.04085
0
LINE
8
BLACK
6
CONTINUOUS
10
1.23293
20
1.04085
11
1.23223
21
1.04252
0
LINE
8
BLACK
6
CONTINUOUS
10
1.23223
20
1.04252
11
1.23293
21
1.04419
0
LINE
8
BLACK
6
CONTINUOUS
10
1.23293
20
1.04419
11
1.2346
21
1.04488
0
LINE
8
BLACK
6
CONTINUOUS
10
1.2346
20
1.04488
11
1.25517
21
1.04488
0
LINE
8
BLACK
6
CONTINUOUS
10
1.25517
20
1.04488
11
1.25684
21
1.04419
0
LINE
8
BLACK
6
CONTINUOUS
10
1.47652
20
1.09557
11
1.47721
21
1.0939
0
LINE
8
BLACK
6
CONTINUOUS
10
1.47721
20
1.0939
11
1.47652
21
1.09223
0
LINE
8
BLACK
6
CONTINUOUS
10
1.47652
20
1.09223
11
1.47485
21
1.09154
0
LINE
8
BLACK
6
CONTINUOUS
10
1.47485
20
1.09154
11
1.45428
21
1.09154
0
LINE
8
BLACK
6
CONTINUOUS
10
1.45428
20
1.09154
11
1.45261
21
1.09223
0
LINE
8
BLACK
6
CONTINUOUS
10
1.45261
20
1.09223
11
1.45192
21
1.0939
0
LINE
8
BLACK
6
CONTINUOUS
10
1.45192
20
1.0939
11
1.45261
21
1.09557
0
LINE
8
BLACK
6
CONTINUOUS
10
1.45261
20
1.09557
11
1.45428
21
1.09626
0
LINE
8
BLACK
6
CONTINUOUS
10
1.45428
20
1.09626
11
1.47485
21
1.09626
0
LINE
8
BLACK
6
CONTINUOUS
10
1.47485
20
1.09626
11
1.47652
21
1.09557
0
LINE
8
BLACK
6
CONTINUOUS
10
1.11396
20
1.10147
11
1.11465
21
1.0998
0
LINE
8
BLACK
6
CONTINUOUS
10
1.11465
20
1.0998
11
1.11396
21
1.09813
0
LINE
8
BLACK
6
CONTINUOUS
10
1.11396
20
1.09813
11
1.11229
21
1.09744
0
LINE
8
BLACK
6
CONTINUOUS
10
1.11229
20
1.09744
11
1.09171
21
1.09744
0
LINE
8
BLACK
6
CONTINUOUS
10
1.09171
20
1.09744
11
1.09004
21
1.09813
0
LINE
8
BLACK
6
CONTINUOUS
10
1.09004
20
1.09813
11
1.08935
21
1.0998
0
LINE
8
BLACK
6
CONTINUOUS
10
1.08935
20
1.0998
11
1.09004
21
1.10147
0
LINE
8
BLACK
6
CONTINUOUS
10
1.09004
20
1.10147
11
1.09171
21
1.10217
0
LINE
8
BLACK
6
CONTINUOUS
10
1.09171
20
1.10217
11
1.11229
21
1.10217
0
LINE
8
BLACK
6
CONTINUOUS
10
1.11229
20
1.10217
11
1.11396
21
1.10147
0
LINE
8
BLACK
6
CONTINUOUS
10
1.25684
20
1.10206
11
1.25753
21
1.10039
0
LINE
8
BLACK
6
CONTINUOUS
10
1.25753
20
1.10039
11
1.25684
21
1.09872
0
LINE
8
BLACK
6
CONTINUOUS
10
1.25684
20
1.09872
11
1.25517
21
1.09803
0
LINE
8
BLACK
6
CONTINUOUS
10
1.25517
20
1.09803
11
1.2346
21
1.09803
0
LINE
8
BLACK
6
CONTINUOUS
10
1.2346
20
1.09803
11
1.23293
21
1.09872
0
LINE
8
BLACK
6
CONTINUOUS
10
1.23293
20
1.09872
11
1.23223
21
1.10039
0
LINE
8
BLACK
6
CONTINUOUS
10
1.23223
20
1.10039
11
1.23293
21
1.10206
0
LINE
8
BLACK
6
CONTINUOUS
10
1.23293
20
1.10206
11
1.2346
21
1.10276
0
LINE
8
BLACK
6
CONTINUOUS
10
1.2346
20
1.10276
11
1.25517
21
1.10276
0
LINE
8
BLACK
6
CONTINUOUS
10
1.25517
20
1.10276
11
1.25684
21
1.10206
0
LINE
8
BLACK
6
CONTINUOUS
10
1.45152
20
1.15534
11
1.45165
21
1.15523
0
LINE
8
BLACK
6
CONTINUOUS
10
1.45165
20
1.15523
11
1.45183
21
1.15521
0
LINE
8
BLACK
6
CONTINUOUS
10
1.45183
20
1.15521
11
1.45558
21
1.15333
0
LINE
8
BLACK
6
CONTINUOUS
10
1.45558
20
1.15333
11
1.45629
21
1.15281
0
LINE
8
BLACK
6
CONTINUOUS
10
1.45629
20
1.15281
11
1.45634
21
1.15278
0
LINE
8
BLACK
6
CONTINUOUS
10
1.45634
20
1.15278
11
1.45822
21
1.1509
0
LINE
8
BLACK
6
CONTINUOUS
10
1.45822
20
1.1509
11
1.45881
21
1.15006
0
LINE
8
BLACK
6
CONTINUOUS
10
1.45881
20
1.15006
11
1.45898
21
1.14805
0
LINE
8
BLACK
6
CONTINUOUS
10
1.45898
20
1.14805
11
1.45782
21
1.1464
0
LINE
8
BLACK
6
CONTINUOUS
10
1.45782
20
1.1464
11
1.45587
21
1.14588
0
LINE
8
BLACK
6
CONTINUOUS
10
1.45587
20
1.14588
11
1.45404
21
1.14673
0
LINE
8
BLACK
6
CONTINUOUS
10
1.45404
20
1.14673
11
1.45251
21
1.14826
0
LINE
8
BLACK
6
CONTINUOUS
10
1.45251
20
1.14826
11
1.44981
21
1.14961
0
LINE
8
BLACK
6
CONTINUOUS
10
1.44981
20
1.14961
11
1.44183
21
1.14961
0
LINE
8
BLACK
6
CONTINUOUS
10
1.44183
20
1.14961
11
1.43913
21
1.14826
0
LINE
8
BLACK
6
CONTINUOUS
10
1.43913
20
1.14826
11
1.43793
21
1.14707
0
LINE
8
BLACK
6
CONTINUOUS
10
1.43793
20
1.14707
11
1.43659
21
1.14437
0
LINE
8
BLACK
6
CONTINUOUS
10
1.43659
20
1.14437
11
1.43659
21
1.1418
0
LINE
8
BLACK
6
CONTINUOUS
10
1.43659
20
1.1418
11
1.43809
21
1.13729
0
LINE
8
BLACK
6
CONTINUOUS
10
1.43809
20
1.13729
11
1.46009
21
1.11528
0
LINE
8
BLACK
6
CONTINUOUS
10
1.46009
20
1.11528
11
1.46046
21
1.11476
0
LINE
8
BLACK
6
CONTINUOUS
10
1.46046
20
1.11476
11
1.46056
21
1.11467
0
LINE
8
BLACK
6
CONTINUOUS
10
1.46056
20
1.11467
11
1.46058
21
1.11459
0
LINE
8
BLACK
6
CONTINUOUS
10
1.46058
20
1.11459
11
1.46068
21
1.11444
0
LINE
8
BLACK
6
CONTINUOUS
10
1.46068
20
1.11444
11
1.46076
21
1.11356
0
LINE
8
BLACK
6
CONTINUOUS
10
1.46076
20
1.11356
11
1.46091
21
1.11268
0
LINE
8
BLACK
6
CONTINUOUS
10
1.46091
20
1.11268
11
1.46085
21
1.11257
0
LINE
8
BLACK
6
CONTINUOUS
10
1.46085
20
1.11257
11
1.46086
21
1.11243
0
LINE
8
BLACK
6
CONTINUOUS
10
1.46086
20
1.11243
11
1.46035
21
1.1117
0
LINE
8
BLACK
6
CONTINUOUS
10
1.46035
20
1.1117
11
1.4599
21
1.11093
0
LINE
8
BLACK
6
CONTINUOUS
10
1.4599
20
1.11093
11
1.45978
21
1.11089
0
LINE
8
BLACK
6
CONTINUOUS
10
1.45978
20
1.11089
11
1.4597
21
1.11078
0
LINE
8
BLACK
6
CONTINUOUS
10
1.4597
20
1.11078
11
1.45884
21
1.11055
0
LINE
8
BLACK
6
CONTINUOUS
10
1.45884
20
1.11055
11
1.45801
21
1.11024
0
LINE
8
BLACK
6
CONTINUOUS
10
1.45801
20
1.11024
11
1.43363
21
1.11024
0
LINE
8
BLACK
6
CONTINUOUS
10
1.43363
20
1.11024
11
1.43262
21
1.11042
0
LINE
8
BLACK
6
CONTINUOUS
10
1.43262
20
1.11042
11
1.43108
21
1.11172
0
LINE
8
BLACK
6
CONTINUOUS
10
1.43108
20
1.11172
11
1.43073
21
1.11371
0
LINE
8
BLACK
6
CONTINUOUS
10
1.43073
20
1.11371
11
1.43174
21
1.11546
0
LINE
8
BLACK
6
CONTINUOUS
10
1.43174
20
1.11546
11
1.43363
21
1.11615
0
LINE
8
BLACK
6
CONTINUOUS
10
1.43363
20
1.11615
11
1.45088
21
1.11615
0
LINE
8
BLACK
6
CONTINUOUS
10
1.45088
20
1.11615
11
1.43342
21
1.13361
0
LINE
8
BLACK
6
CONTINUOUS
10
1.43342
20
1.13361
11
1.43283
21
1.13445
0
LINE
8
BLACK
6
CONTINUOUS
10
1.43283
20
1.13445
11
1.43282
21
1.13462
0
LINE
8
BLACK
6
CONTINUOUS
10
1.43282
20
1.13462
11
1.43271
21
1.13476
0
LINE
8
BLACK
6
CONTINUOUS
10
1.43271
20
1.13476
11
1.43083
21
1.14038
0
LINE
8
BLACK
6
CONTINUOUS
10
1.43083
20
1.14038
11
1.4307
21
1.14126
0
LINE
8
BLACK
6
CONTINUOUS
10
1.4307
20
1.14126
11
1.43068
21
1.14132
0
LINE
8
BLACK
6
CONTINUOUS
10
1.43068
20
1.14132
11
1.43068
21
1.14507
0
LINE
8
BLACK
6
CONTINUOUS
10
1.43068
20
1.14507
11
1.43086
21
1.14608
0
LINE
8
BLACK
6
CONTINUOUS
10
1.43086
20
1.14608
11
1.43097
21
1.14621
0
LINE
8
BLACK
6
CONTINUOUS
10
1.43097
20
1.14621
11
1.43099
21
1.14639
0
LINE
8
BLACK
6
CONTINUOUS
10
1.43099
20
1.14639
11
1.43287
21
1.15014
0
LINE
8
BLACK
6
CONTINUOUS
10
1.43287
20
1.15014
11
1.43339
21
1.15085
0
LINE
8
BLACK
6
CONTINUOUS
10
1.43339
20
1.15085
11
1.43342
21
1.1509
0
LINE
8
BLACK
6
CONTINUOUS
10
1.43342
20
1.1509
11
1.43529
21
1.15278
0
LINE
8
BLACK
6
CONTINUOUS
10
1.43529
20
1.15278
11
1.43602
21
1.15329
0
LINE
8
BLACK
6
CONTINUOUS
10
1.43602
20
1.15329
11
1.43606
21
1.15333
0
LINE
8
BLACK
6
CONTINUOUS
10
1.43606
20
1.15333
11
1.43981
21
1.15521
0
LINE
8
BLACK
6
CONTINUOUS
10
1.43981
20
1.15521
11
1.44079
21
1.1555
0
LINE
8
BLACK
6
CONTINUOUS
10
1.44079
20
1.1555
11
1.44097
21
1.15546
0
LINE
8
BLACK
6
CONTINUOUS
10
1.44097
20
1.15546
11
1.44113
21
1.15552
0
LINE
8
BLACK
6
CONTINUOUS
10
1.44113
20
1.15552
11
1.45051
21
1.15552
0
LINE
8
BLACK
6
CONTINUOUS
10
1.45051
20
1.15552
11
1.45152
21
1.15534
0
LINE
8
BLACK
6
CONTINUOUS
10
1.48325
20
1.15537
11
1.48331
21
1.15537
0
LINE
8
BLACK
6
CONTINUOUS
10
1.48331
20
1.15537
11
1.48894
21
1.15349
0
LINE
8
BLACK
6
CONTINUOUS
10
1.48894
20
1.15349
11
1.48984
21
1.153
0
LINE
8
BLACK
6
CONTINUOUS
10
1.48984
20
1.153
11
1.48993
21
1.15285
0
LINE
8
BLACK
6
CONTINUOUS
10
1.48993
20
1.15285
11
1.49009
21
1.15278
0
LINE
8
BLACK
6
CONTINUOUS
10
1.49009
20
1.15278
11
1.49384
21
1.14903
0
LINE
8
BLACK
6
CONTINUOUS
10
1.49384
20
1.14903
11
1.49435
21
1.14831
0
LINE
8
BLACK
6
CONTINUOUS
10
1.49435
20
1.14831
11
1.49439
21
1.14826
0
LINE
8
BLACK
6
CONTINUOUS
10
1.49439
20
1.14826
11
1.49627
21
1.14451
0
LINE
8
BLACK
6
CONTINUOUS
10
1.49627
20
1.14451
11
1.49641
21
1.14402
0
LINE
8
BLACK
6
CONTINUOUS
10
1.49641
20
1.14402
11
1.49649
21
1.14391
0
LINE
8
BLACK
6
CONTINUOUS
10
1.49649
20
1.14391
11
1.49837
21
1.13641
0
LINE
8
BLACK
6
CONTINUOUS
10
1.49837
20
1.13641
11
1.49841
21
1.13582
0
LINE
8
BLACK
6
CONTINUOUS
10
1.49841
20
1.13582
11
1.49845
21
1.13569
0
LINE
8
BLACK
6
CONTINUOUS
10
1.49845
20
1.13569
11
1.49845
21
1.13007
0
LINE
8
BLACK
6
CONTINUOUS
10
1.49845
20
1.13007
11
1.49835
21
1.12949
0
LINE
8
BLACK
6
CONTINUOUS
10
1.49835
20
1.12949
11
1.49837
21
1.12935
0
LINE
8
BLACK
6
CONTINUOUS
10
1.49837
20
1.12935
11
1.49649
21
1.12185
0
LINE
8
BLACK
6
CONTINUOUS
10
1.49649
20
1.12185
11
1.49628
21
1.12139
0
LINE
8
BLACK
6
CONTINUOUS
10
1.49628
20
1.12139
11
1.49627
21
1.12125
0
LINE
8
BLACK
6
CONTINUOUS
10
1.49627
20
1.12125
11
1.49439
21
1.1175
0
LINE
8
BLACK
6
CONTINUOUS
10
1.49439
20
1.1175
11
1.49387
21
1.11679
0
LINE
8
BLACK
6
CONTINUOUS
10
1.49387
20
1.11679
11
1.49384
21
1.11673
0
LINE
8
BLACK
6
CONTINUOUS
10
1.49384
20
1.11673
11
1.49009
21
1.11298
0
LINE
8
BLACK
6
CONTINUOUS
10
1.49009
20
1.11298
11
1.48925
21
1.11239
0
LINE
8
BLACK
6
CONTINUOUS
10
1.48925
20
1.11239
11
1.48907
21
1.11238
0
LINE
8
BLACK
6
CONTINUOUS
10
1.48907
20
1.11238
11
1.48894
21
1.11227
0
LINE
8
BLACK
6
CONTINUOUS
10
1.48894
20
1.11227
11
1.48331
21
1.11039
0
LINE
8
BLACK
6
CONTINUOUS
10
1.48331
20
1.11039
11
1.48244
21
1.11027
0
LINE
8
BLACK
6
CONTINUOUS
10
1.48244
20
1.11027
11
1.48238
21
1.11024
0
LINE
8
BLACK
6
CONTINUOUS
10
1.48238
20
1.11024
11
1.47863
21
1.11024
0
LINE
8
BLACK
6
CONTINUOUS
10
1.47863
20
1.11024
11
1.47776
21
1.1104
0
LINE
8
BLACK
6
CONTINUOUS
10
1.47776
20
1.1104
11
1.47769
21
1.11039
0
LINE
8
BLACK
6
CONTINUOUS
10
1.47769
20
1.11039
11
1.47207
21
1.11227
0
LINE
8
BLACK
6
CONTINUOUS
10
1.47207
20
1.11227
11
1.47117
21
1.11276
0
LINE
8
BLACK
6
CONTINUOUS
10
1.47117
20
1.11276
11
1.47108
21
1.11291
0
LINE
8
BLACK
6
CONTINUOUS
10
1.47108
20
1.11291
11
1.47092
21
1.11298
0
LINE
8
BLACK
6
CONTINUOUS
10
1.47092
20
1.11298
11
1.46904
21
1.11486
0
LINE
8
BLACK
6
CONTINUOUS
10
1.46904
20
1.11486
11
1.46845
21
1.1157
0
LINE
8
BLACK
6
CONTINUOUS
10
1.46845
20
1.1157
11
1.46828
21
1.11771
0
LINE
8
BLACK
6
CONTINUOUS
10
1.46828
20
1.11771
11
1.46943
21
1.11936
0
LINE
8
BLACK
6
CONTINUOUS
10
1.46943
20
1.11936
11
1.47139
21
1.11989
0
LINE
8
BLACK
6
CONTINUOUS
10
1.47139
20
1.11989
11
1.47322
21
1.11903
0
LINE
8
BLACK
6
CONTINUOUS
10
1.47322
20
1.11903
11
1.4746
21
1.11765
0
LINE
8
BLACK
6
CONTINUOUS
10
1.4746
20
1.11765
11
1.47911
21
1.11615
0
LINE
8
BLACK
6
CONTINUOUS
10
1.47911
20
1.11615
11
1.4819
21
1.11615
0
LINE
8
BLACK
6
CONTINUOUS
10
1.4819
20
1.11615
11
1.48641
21
1.11765
0
LINE
8
BLACK
6
CONTINUOUS
10
1.48641
20
1.11765
11
1.48932
21
1.12057
0
LINE
8
BLACK
6
CONTINUOUS
10
1.48932
20
1.12057
11
1.49084
21
1.1236
0
LINE
8
BLACK
6
CONTINUOUS
10
1.49084
20
1.1236
11
1.49255
21
1.13043
0
LINE
8
BLACK
6
CONTINUOUS
10
1.49255
20
1.13043
11
1.49255
21
1.13533
0
LINE
8
BLACK
6
CONTINUOUS
10
1.49255
20
1.13533
11
1.49084
21
1.14216
0
LINE
8
BLACK
6
CONTINUOUS
10
1.49084
20
1.14216
11
1.48932
21
1.14519
0
LINE
8
BLACK
6
CONTINUOUS
10
1.48932
20
1.14519
11
1.48641
21
1.14811
0
LINE
8
BLACK
6
CONTINUOUS
10
1.48641
20
1.14811
11
1.4819
21
1.14961
0
LINE
8
BLACK
6
CONTINUOUS
10
1.4819
20
1.14961
11
1.47911
21
1.14961
0
LINE
8
BLACK
6
CONTINUOUS
10
1.47911
20
1.14961
11
1.4746
21
1.14811
0
LINE
8
BLACK
6
CONTINUOUS
10
1.4746
20
1.14811
11
1.47322
21
1.14673
0
LINE
8
BLACK
6
CONTINUOUS
10
1.47322
20
1.14673
11
1.47238
21
1.14614
0
LINE
8
BLACK
6
CONTINUOUS
10
1.47238
20
1.14614
11
1.47036
21
1.14596
0
LINE
8
BLACK
6
CONTINUOUS
10
1.47036
20
1.14596
11
1.46871
21
1.14712
0
LINE
8
BLACK
6
CONTINUOUS
10
1.46871
20
1.14712
11
1.46819
21
1.14907
0
LINE
8
BLACK
6
CONTINUOUS
10
1.46819
20
1.14907
11
1.46904
21
1.1509
0
LINE
8
BLACK
6
CONTINUOUS
10
1.46904
20
1.1509
11
1.47092
21
1.15278
0
LINE
8
BLACK
6
CONTINUOUS
10
1.47092
20
1.15278
11
1.47176
21
1.15337
0
LINE
8
BLACK
6
CONTINUOUS
10
1.47176
20
1.15337
11
1.47193
21
1.15338
0
LINE
8
BLACK
6
CONTINUOUS
10
1.47193
20
1.15338
11
1.47207
21
1.15349
0
LINE
8
BLACK
6
CONTINUOUS
10
1.47207
20
1.15349
11
1.47769
21
1.15537
0
LINE
8
BLACK
6
CONTINUOUS
10
1.47769
20
1.15537
11
1.47857
21
1.1555
0
LINE
8
BLACK
6
CONTINUOUS
10
1.47857
20
1.1555
11
1.47863
21
1.15552
0
LINE
8
BLACK
6
CONTINUOUS
10
1.47863
20
1.15552
11
1.48238
21
1.15552
0
LINE
8
BLACK
6
CONTINUOUS
10
1.48238
20
1.15552
11
1.48325
21
1.15537
0
LINE
8
BLACK
6
CONTINUOUS
10
1.23933
20
1.16184
11
1.24088
21
1.16054
0
LINE
8
BLACK
6
CONTINUOUS
10
1.24088
20
1.16054
11
1.24123
21
1.15855
0
LINE
8
BLACK
6
CONTINUOUS
10
1.24123
20
1.15855
11
1.24022
21
1.1568
0
LINE
8
BLACK
6
CONTINUOUS
10
1.24022
20
1.1568
11
1.23832
21
1.15611
0
LINE
8
BLACK
6
CONTINUOUS
10
1.23832
20
1.15611
11
1.22046
21
1.15611
0
LINE
8
BLACK
6
CONTINUOUS
10
1.22046
20
1.15611
11
1.22929
21
1.14601
0
LINE
8
BLACK
6
CONTINUOUS
10
1.22929
20
1.14601
11
1.22952
21
1.14563
0
LINE
8
BLACK
6
CONTINUOUS
10
1.22952
20
1.14563
11
1.22963
21
1.14554
0
LINE
8
BLACK
6
CONTINUOUS
10
1.22963
20
1.14554
11
1.22965
21
1.14542
0
LINE
8
BLACK
6
CONTINUOUS
10
1.22965
20
1.14542
11
1.22982
21
1.14513
0
LINE
8
BLACK
6
CONTINUOUS
10
1.22982
20
1.14513
11
1.22984
21
1.14434
0
LINE
8
BLACK
6
CONTINUOUS
10
1.22984
20
1.14434
11
1.22998
21
1.14355
0
LINE
8
BLACK
6
CONTINUOUS
10
1.22998
20
1.14355
11
1.22986
21
1.14335
0
LINE
8
BLACK
6
CONTINUOUS
10
1.22986
20
1.14335
11
1.22987
21
1.14311
0
LINE
8
BLACK
6
CONTINUOUS
10
1.22987
20
1.14311
11
1.22937
21
1.14249
0
LINE
8
BLACK
6
CONTINUOUS
10
1.22937
20
1.14249
11
1.22897
21
1.1418
0
LINE
8
BLACK
6
CONTINUOUS
10
1.22897
20
1.1418
11
1.22875
21
1.14172
0
LINE
8
BLACK
6
CONTINUOUS
10
1.22875
20
1.14172
11
1.2286
21
1.14154
0
LINE
8
BLACK
6
CONTINUOUS
10
1.2286
20
1.14154
11
1.22782
21
1.14138
0
LINE
8
BLACK
6
CONTINUOUS
10
1.22782
20
1.14138
11
1.22707
21
1.14111
0
LINE
8
BLACK
6
CONTINUOUS
10
1.22707
20
1.14111
11
1.22214
21
1.14111
0
LINE
8
BLACK
6
CONTINUOUS
10
1.22214
20
1.14111
11
1.21945
21
1.13976
0
LINE
8
BLACK
6
CONTINUOUS
10
1.21945
20
1.13976
11
1.21825
21
1.13857
0
LINE
8
BLACK
6
CONTINUOUS
10
1.21825
20
1.13857
11
1.2169
21
1.13587
0
LINE
8
BLACK
6
CONTINUOUS
10
1.2169
20
1.13587
11
1.2169
21
1.12789
0
LINE
8
BLACK
6
CONTINUOUS
10
1.2169
20
1.12789
11
1.21825
21
1.12519
0
LINE
8
BLACK
6
CONTINUOUS
10
1.21825
20
1.12519
11
1.21945
21
1.12399
0
LINE
8
BLACK
6
CONTINUOUS
10
1.21945
20
1.12399
11
1.22214
21
1.12264
0
LINE
8
BLACK
6
CONTINUOUS
10
1.22214
20
1.12264
11
1.232
21
1.12264
0
LINE
8
BLACK
6
CONTINUOUS
10
1.232
20
1.12264
11
1.2347
21
1.12399
0
LINE
8
BLACK
6
CONTINUOUS
10
1.2347
20
1.12399
11
1.23623
21
1.12553
0
LINE
8
BLACK
6
CONTINUOUS
10
1.23623
20
1.12553
11
1.23707
21
1.12612
0
LINE
8
BLACK
6
CONTINUOUS
10
1.23707
20
1.12612
11
1.23908
21
1.12629
0
LINE
8
BLACK
6
CONTINUOUS
10
1.23908
20
1.12629
11
1.24074
21
1.12514
0
LINE
8
BLACK
6
CONTINUOUS
10
1.24074
20
1.12514
11
1.24126
21
1.12318
0
LINE
8
BLACK
6
CONTINUOUS
10
1.24126
20
1.12318
11
1.24041
21
1.12135
0
LINE
8
BLACK
6
CONTINUOUS
10
1.24041
20
1.12135
11
1.23853
21
1.11948
0
LINE
8
BLACK
6
CONTINUOUS
10
1.23853
20
1.11948
11
1.23781
21
1.11897
0
LINE
8
BLACK
6
CONTINUOUS
10
1.23781
20
1.11897
11
1.23777
21
1.11893
0
LINE
8
BLACK
6
CONTINUOUS
10
1.23777
20
1.11893
11
1.23402
21
1.11705
0
LINE
8
BLACK
6
CONTINUOUS
10
1.23402
20
1.11705
11
1.23303
21
1.11676
0
LINE
8
BLACK
6
CONTINUOUS
10
1.23303
20
1.11676
11
1.23286
21
1.1168
0
LINE
8
BLACK
6
CONTINUOUS
10
1.23286
20
1.1168
11
1.2327
21
1.11674
0
LINE
8
BLACK
6
CONTINUOUS
10
1.2327
20
1.11674
11
1.22145
21
1.11674
0
LINE
8
BLACK
6
CONTINUOUS
10
1.22145
20
1.11674
11
1.22044
21
1.11692
0
LINE
8
BLACK
6
CONTINUOUS
10
1.22044
20
1.11692
11
1.2203
21
1.11703
0
LINE
8
BLACK
6
CONTINUOUS
10
1.2203
20
1.11703
11
1.22013
21
1.11705
0
LINE
8
BLACK
6
CONTINUOUS
10
1.22013
20
1.11705
11
1.21638
21
1.11893
0
LINE
8
BLACK
6
CONTINUOUS
10
1.21638
20
1.11893
11
1.21567
21
1.11945
0
LINE
8
BLACK
6
CONTINUOUS
10
1.21567
20
1.11945
11
1.21561
21
1.11948
0
LINE
8
BLACK
6
CONTINUOUS
10
1.21561
20
1.11948
11
1.21374
21
1.12135
0
LINE
8
BLACK
6
CONTINUOUS
10
1.21374
20
1.12135
11
1.21323
21
1.12208
0
LINE
8
BLACK
6
CONTINUOUS
10
1.21323
20
1.12208
11
1.21318
21
1.12212
0
LINE
8
BLACK
6
CONTINUOUS
10
1.21318
20
1.12212
11
1.21131
21
1.12587
0
LINE
8
BLACK
6
CONTINUOUS
10
1.21131
20
1.12587
11
1.21101
21
1.12685
0
LINE
8
BLACK
6
CONTINUOUS
10
1.21101
20
1.12685
11
1.21106
21
1.12703
0
LINE
8
BLACK
6
CONTINUOUS
10
1.21106
20
1.12703
11
1.211
21
1.12719
0
LINE
8
BLACK
6
CONTINUOUS
10
1.211
20
1.12719
11
1.211
21
1.13657
0
LINE
8
BLACK
6
CONTINUOUS
10
1.211
20
1.13657
11
1.21117
21
1.13758
0
LINE
8
BLACK
6
CONTINUOUS
10
1.21117
20
1.13758
11
1.21129
21
1.13771
0
LINE
8
BLACK
6
CONTINUOUS
10
1.21129
20
1.13771
11
1.21131
21
1.13789
0
LINE
8
BLACK
6
CONTINUOUS
10
1.21131
20
1.13789
11
1.21318
21
1.14164
0
LINE
8
BLACK
6
CONTINUOUS
10
1.21318
20
1.14164
11
1.21371
21
1.14234
0
LINE
8
BLACK
6
CONTINUOUS
10
1.21371
20
1.14234
11
1.21374
21
1.1424
0
LINE
8
BLACK
6
CONTINUOUS
10
1.21374
20
1.1424
11
1.21561
21
1.14428
0
LINE
8
BLACK
6
CONTINUOUS
10
1.21561
20
1.14428
11
1.21633
21
1.14478
0
LINE
8
BLACK
6
CONTINUOUS
10
1.21633
20
1.14478
11
1.21638
21
1.14483
0
LINE
8
BLACK
6
CONTINUOUS
10
1.21638
20
1.14483
11
1.22013
21
1.14671
0
LINE
8
BLACK
6
CONTINUOUS
10
1.22013
20
1.14671
11
1.22069
21
1.14687
0
LINE
8
BLACK
6
CONTINUOUS
10
1.22069
20
1.14687
11
1.21173
21
1.15712
0
LINE
8
BLACK
6
CONTINUOUS
10
1.21173
20
1.15712
11
1.2115
21
1.1575
0
LINE
8
BLACK
6
CONTINUOUS
10
1.2115
20
1.1575
11
1.21139
21
1.15759
0
LINE
8
BLACK
6
CONTINUOUS
10
1.21139
20
1.15759
11
1.21137
21
1.15771
0
LINE
8
BLACK
6
CONTINUOUS
10
1.21137
20
1.15771
11
1.2112
21
1.158
0
LINE
8
BLACK
6
CONTINUOUS
10
1.2112
20
1.158
11
1.21118
21
1.15879
0
LINE
8
BLACK
6
CONTINUOUS
10
1.21118
20
1.15879
11
1.21104
21
1.15958
0
LINE
8
BLACK
6
CONTINUOUS
10
1.21104
20
1.15958
11
1.21116
21
1.15978
0
LINE
8
BLACK
6
CONTINUOUS
10
1.21116
20
1.15978
11
1.21115
21
1.16001
0
LINE
8
BLACK
6
CONTINUOUS
10
1.21115
20
1.16001
11
1.21165
21
1.16063
0
LINE
8
BLACK
6
CONTINUOUS
10
1.21165
20
1.16063
11
1.21205
21
1.16132
0
LINE
8
BLACK
6
CONTINUOUS
10
1.21205
20
1.16132
11
1.21227
21
1.1614
0
LINE
8
BLACK
6
CONTINUOUS
10
1.21227
20
1.1614
11
1.21242
21
1.16159
0
LINE
8
BLACK
6
CONTINUOUS
10
1.21242
20
1.16159
11
1.2132
21
1.16174
0
LINE
8
BLACK
6
CONTINUOUS
10
1.2132
20
1.16174
11
1.21395
21
1.16202
0
LINE
8
BLACK
6
CONTINUOUS
10
1.21395
20
1.16202
11
1.23832
21
1.16202
0
LINE
8
BLACK
6
CONTINUOUS
10
1.23832
20
1.16202
11
1.23933
21
1.16184
0
LINE
8
BLACK
6
CONTINUOUS
10
1.26356
20
1.16186
11
1.26363
21
1.16186
0
LINE
8
BLACK
6
CONTINUOUS
10
1.26363
20
1.16186
11
1.26925
21
1.15999
0
LINE
8
BLACK
6
CONTINUOUS
10
1.26925
20
1.15999
11
1.27015
21
1.1595
0
LINE
8
BLACK
6
CONTINUOUS
10
1.27015
20
1.1595
11
1.27024
21
1.15935
0
LINE
8
BLACK
6
CONTINUOUS
10
1.27024
20
1.15935
11
1.2704
21
1.15928
0
LINE
8
BLACK
6
CONTINUOUS
10
1.2704
20
1.15928
11
1.27415
21
1.15553
0
LINE
8
BLACK
6
CONTINUOUS
10
1.27415
20
1.15553
11
1.27466
21
1.1548
0
LINE
8
BLACK
6
CONTINUOUS
10
1.27466
20
1.1548
11
1.27471
21
1.15476
0
LINE
8
BLACK
6
CONTINUOUS
10
1.27471
20
1.15476
11
1.27658
21
1.15101
0
LINE
8
BLACK
6
CONTINUOUS
10
1.27658
20
1.15101
11
1.27673
21
1.15052
0
LINE
8
BLACK
6
CONTINUOUS
10
1.27673
20
1.15052
11
1.27681
21
1.1504
0
LINE
8
BLACK
6
CONTINUOUS
10
1.27681
20
1.1504
11
1.27868
21
1.14291
0
LINE
8
BLACK
6
CONTINUOUS
10
1.27868
20
1.14291
11
1.27872
21
1.14232
0
LINE
8
BLACK
6
CONTINUOUS
10
1.27872
20
1.14232
11
1.27877
21
1.14219
0
LINE
8
BLACK
6
CONTINUOUS
10
1.27877
20
1.14219
11
1.27877
21
1.13657
0
LINE
8
BLACK
6
CONTINUOUS
10
1.27877
20
1.13657
11
1.27867
21
1.13598
0
LINE
8
BLACK
6
CONTINUOUS
10
1.27867
20
1.13598
11
1.27868
21
1.13585
0
LINE
8
BLACK
6
CONTINUOUS
10
1.27868
20
1.13585
11
1.27681
21
1.12835
0
LINE
8
BLACK
6
CONTINUOUS
10
1.27681
20
1.12835
11
1.2766
21
1.12788
0
LINE
8
BLACK
6
CONTINUOUS
10
1.2766
20
1.12788
11
1.27658
21
1.12775
0
LINE
8
BLACK
6
CONTINUOUS
10
1.27658
20
1.12775
11
1.27471
21
1.124
0
LINE
8
BLACK
6
CONTINUOUS
10
1.27471
20
1.124
11
1.27418
21
1.12329
0
LINE
8
BLACK
6
CONTINUOUS
10
1.27418
20
1.12329
11
1.27415
21
1.12323
0
LINE
8
BLACK
6
CONTINUOUS
10
1.27415
20
1.12323
11
1.2704
21
1.11948
0
LINE
8
BLACK
6
CONTINUOUS
10
1.2704
20
1.11948
11
1.26956
21
1.11889
0
LINE
8
BLACK
6
CONTINUOUS
10
1.26956
20
1.11889
11
1.26939
21
1.11888
0
LINE
8
BLACK
6
CONTINUOUS
10
1.26939
20
1.11888
11
1.26925
21
1.11877
0
LINE
8
BLACK
6
CONTINUOUS
10
1.26925
20
1.11877
11
1.26363
21
1.11689
0
LINE
8
BLACK
6
CONTINUOUS
10
1.26363
20
1.11689
11
1.26275
21
1.11676
0
LINE
8
BLACK
6
CONTINUOUS
10
1.26275
20
1.11676
11
1.26269
21
1.11674
0
LINE
8
BLACK
6
CONTINUOUS
10
1.26269
20
1.11674
11
1.25894
21
1.11674
0
LINE
8
BLACK
6
CONTINUOUS
10
1.25894
20
1.11674
11
1.25807
21
1.11689
0
LINE
8
BLACK
6
CONTINUOUS
10
1.25807
20
1.11689
11
1.25801
21
1.11689
0
LINE
8
BLACK
6
CONTINUOUS
10
1.25801
20
1.11689
11
1.25238
21
1.11877
0
LINE
8
BLACK
6
CONTINUOUS
10
1.25238
20
1.11877
11
1.25148
21
1.11925
0
LINE
8
BLACK
6
CONTINUOUS
10
1.25148
20
1.11925
11
1.25139
21
1.1194
0
LINE
8
BLACK
6
CONTINUOUS
10
1.25139
20
1.1194
11
1.25123
21
1.11948
0
LINE
8
BLACK
6
CONTINUOUS
10
1.25123
20
1.11948
11
1.24936
21
1.12135
0
LINE
8
BLACK
6
CONTINUOUS
10
1.24936
20
1.12135
11
1.24877
21
1.12219
0
LINE
8
BLACK
6
CONTINUOUS
10
1.24877
20
1.12219
11
1.24859
21
1.12421
0
LINE
8
BLACK
6
CONTINUOUS
10
1.24859
20
1.12421
11
1.24975
21
1.12586
0
LINE
8
BLACK
6
CONTINUOUS
10
1.24975
20
1.12586
11
1.2517
21
1.12638
0
LINE
8
BLACK
6
CONTINUOUS
10
1.2517
20
1.12638
11
1.25353
21
1.12553
0
LINE
8
BLACK
6
CONTINUOUS
10
1.25353
20
1.12553
11
1.25491
21
1.12415
0
LINE
8
BLACK
6
CONTINUOUS
10
1.25491
20
1.12415
11
1.25942
21
1.12264
0
LINE
8
BLACK
6
CONTINUOUS
10
1.25942
20
1.12264
11
1.26221
21
1.12264
0
LINE
8
BLACK
6
CONTINUOUS
10
1.26221
20
1.12264
11
1.26672
21
1.12415
0
LINE
8
BLACK
6
CONTINUOUS
10
1.26672
20
1.12415
11
1.26964
21
1.12707
0
LINE
8
BLACK
6
CONTINUOUS
10
1.26964
20
1.12707
11
1.27115
21
1.1301
0
LINE
8
BLACK
6
CONTINUOUS
10
1.27115
20
1.1301
11
1.27286
21
1.13693
0
LINE
8
BLACK
6
CONTINUOUS
10
1.27286
20
1.13693
11
1.27286
21
1.14183
0
LINE
8
BLACK
6
CONTINUOUS
10
1.27286
20
1.14183
11
1.27115
21
1.14866
0
LINE
8
BLACK
6
CONTINUOUS
10
1.27115
20
1.14866
11
1.26964
21
1.15169
0
LINE
8
BLACK
6
CONTINUOUS
10
1.26964
20
1.15169
11
1.26672
21
1.15461
0
LINE
8
BLACK
6
CONTINUOUS
10
1.26672
20
1.15461
11
1.26221
21
1.15611
0
LINE
8
BLACK
6
CONTINUOUS
10
1.26221
20
1.15611
11
1.25942
21
1.15611
0
LINE
8
BLACK
6
CONTINUOUS
10
1.25942
20
1.15611
11
1.25491
21
1.15461
0
LINE
8
BLACK
6
CONTINUOUS
10
1.25491
20
1.15461
11
1.25353
21
1.15322
0
LINE
8
BLACK
6
CONTINUOUS
10
1.25353
20
1.15322
11
1.25269
21
1.15264
0
LINE
8
BLACK
6
CONTINUOUS
10
1.25269
20
1.15264
11
1.25068
21
1.15246
0
LINE
8
BLACK
6
CONTINUOUS
10
1.25068
20
1.15246
11
1.24902
21
1.15362
0
LINE
8
BLACK
6
CONTINUOUS
10
1.24902
20
1.15362
11
1.2485
21
1.15557
0
LINE
8
BLACK
6
CONTINUOUS
10
1.2485
20
1.15557
11
1.24936
21
1.1574
0
LINE
8
BLACK
6
CONTINUOUS
10
1.24936
20
1.1574
11
1.25123
21
1.15928
0
LINE
8
BLACK
6
CONTINUOUS
10
1.25123
20
1.15928
11
1.25207
21
1.15986
0
LINE
8
BLACK
6
CONTINUOUS
10
1.25207
20
1.15986
11
1.25225
21
1.15988
0
LINE
8
BLACK
6
CONTINUOUS
10
1.25225
20
1.15988
11
1.25238
21
1.15999
0
LINE
8
BLACK
6
CONTINUOUS
10
1.25238
20
1.15999
11
1.25801
21
1.16186
0
LINE
8
BLACK
6
CONTINUOUS
10
1.25801
20
1.16186
11
1.25888
21
1.16199
0
LINE
8
BLACK
6
CONTINUOUS
10
1.25888
20
1.16199
11
1.25894
21
1.16202
0
LINE
8
BLACK
6
CONTINUOUS
10
1.25894
20
1.16202
11
1.26269
21
1.16202
0
LINE
8
BLACK
6
CONTINUOUS
10
1.26269
20
1.16202
11
1.26356
21
1.16186
0
LINE
8
BLACK
6
CONTINUOUS
10
1.08136
20
1.16302
11
1.08149
21
1.1629
0
LINE
8
BLACK
6
CONTINUOUS
10
1.08149
20
1.1629
11
1.08167
21
1.16288
0
LINE
8
BLACK
6
CONTINUOUS
10
1.08167
20
1.16288
11
1.08542
21
1.16101
0
LINE
8
BLACK
6
CONTINUOUS
10
1.08542
20
1.16101
11
1.08613
21
1.16048
0
LINE
8
BLACK
6
CONTINUOUS
10
1.08613
20
1.16048
11
1.08618
21
1.16046
0
LINE
8
BLACK
6
CONTINUOUS
10
1.08618
20
1.16046
11
1.08806
21
1.15858
0
LINE
8
BLACK
6
CONTINUOUS
10
1.08806
20
1.15858
11
1.08832
21
1.15821
0
LINE
8
BLACK
6
CONTINUOUS
10
1.08832
20
1.15821
11
1.08843
21
1.15813
0
LINE
8
BLACK
6
CONTINUOUS
10
1.08843
20
1.15813
11
1.09218
21
1.15251
0
LINE
8
BLACK
6
CONTINUOUS
10
1.09218
20
1.15251
11
1.09258
21
1.1516
0
LINE
8
BLACK
6
CONTINUOUS
10
1.09258
20
1.1516
11
1.09258
21
1.15159
0
LINE
8
BLACK
6
CONTINUOUS
10
1.09258
20
1.15159
11
1.09446
21
1.14409
0
LINE
8
BLACK
6
CONTINUOUS
10
1.09446
20
1.14409
11
1.0945
21
1.1435
0
LINE
8
BLACK
6
CONTINUOUS
10
1.0945
20
1.1435
11
1.09455
21
1.14337
0
LINE
8
BLACK
6
CONTINUOUS
10
1.09455
20
1.14337
11
1.09455
21
1.12837
0
LINE
8
BLACK
6
CONTINUOUS
10
1.09455
20
1.12837
11
1.09437
21
1.12736
0
LINE
8
BLACK
6
CONTINUOUS
10
1.09437
20
1.12736
11
1.09426
21
1.12723
0
LINE
8
BLACK
6
CONTINUOUS
10
1.09426
20
1.12723
11
1.09424
21
1.12705
0
LINE
8
BLACK
6
CONTINUOUS
10
1.09424
20
1.12705
11
1.09236
21
1.1233
0
LINE
8
BLACK
6
CONTINUOUS
10
1.09236
20
1.1233
11
1.09184
21
1.12259
0
LINE
8
BLACK
6
CONTINUOUS
10
1.09184
20
1.12259
11
1.09181
21
1.12253
0
LINE
8
BLACK
6
CONTINUOUS
10
1.09181
20
1.12253
11
1.08993
21
1.12066
0
LINE
8
BLACK
6
CONTINUOUS
10
1.08993
20
1.12066
11
1.08921
21
1.12015
0
LINE
8
BLACK
6
CONTINUOUS
10
1.08921
20
1.12015
11
1.08917
21
1.12011
0
LINE
8
BLACK
6
CONTINUOUS
10
1.08917
20
1.12011
11
1.08542
21
1.11823
0
LINE
8
BLACK
6
CONTINUOUS
10
1.08542
20
1.11823
11
1.08443
21
1.11794
0
LINE
8
BLACK
6
CONTINUOUS
10
1.08443
20
1.11794
11
1.08426
21
1.11798
0
LINE
8
BLACK
6
CONTINUOUS
10
1.08426
20
1.11798
11
1.0841
21
1.11792
0
LINE
8
BLACK
6
CONTINUOUS
10
1.0841
20
1.11792
11
1.0766
21
1.11792
0
LINE
8
BLACK
6
CONTINUOUS
10
1.0766
20
1.11792
11
1.07559
21
1.1181
0
LINE
8
BLACK
6
CONTINUOUS
10
1.07559
20
1.1181
11
1.07545
21
1.11821
0
LINE
8
BLACK
6
CONTINUOUS
10
1.07545
20
1.11821
11
1.07528
21
1.11823
0
LINE
8
BLACK
6
CONTINUOUS
10
1.07528
20
1.11823
11
1.07153
21
1.12011
0
LINE
8
BLACK
6
CONTINUOUS
10
1.07153
20
1.12011
11
1.07082
21
1.12063
0
LINE
8
BLACK
6
CONTINUOUS
10
1.07082
20
1.12063
11
1.07076
21
1.12066
0
LINE
8
BLACK
6
CONTINUOUS
10
1.07076
20
1.12066
11
1.06888
21
1.12253
0
LINE
8
BLACK
6
CONTINUOUS
10
1.06888
20
1.12253
11
1.06838
21
1.12326
0
LINE
8
BLACK
6
CONTINUOUS
10
1.06838
20
1.12326
11
1.06833
21
1.1233
0
LINE
8
BLACK
6
CONTINUOUS
10
1.06833
20
1.1233
11
1.06646
21
1.12705
0
LINE
8
BLACK
6
CONTINUOUS
10
1.06646
20
1.12705
11
1.06616
21
1.12803
0
LINE
8
BLACK
6
CONTINUOUS
10
1.06616
20
1.12803
11
1.06621
21
1.12821
0
LINE
8
BLACK
6
CONTINUOUS
10
1.06621
20
1.12821
11
1.06615
21
1.12837
0
LINE
8
BLACK
6
CONTINUOUS
10
1.06615
20
1.12837
11
1.06615
21
1.13775
0
LINE
8
BLACK
6
CONTINUOUS
10
1.06615
20
1.13775
11
1.06632
21
1.13876
0
LINE
8
BLACK
6
CONTINUOUS
10
1.06632
20
1.13876
11
1.06644
21
1.13889
0
LINE
8
BLACK
6
CONTINUOUS
10
1.06644
20
1.13889
11
1.06646
21
1.13907
0
LINE
8
BLACK
6
CONTINUOUS
10
1.06646
20
1.13907
11
1.06833
21
1.14282
0
LINE
8
BLACK
6
CONTINUOUS
10
1.06833
20
1.14282
11
1.06886
21
1.14353
0
LINE
8
BLACK
6
CONTINUOUS
10
1.06886
20
1.14353
11
1.06888
21
1.14358
0
LINE
8
BLACK
6
CONTINUOUS
10
1.06888
20
1.14358
11
1.07076
21
1.14546
0
LINE
8
BLACK
6
CONTINUOUS
10
1.07076
20
1.14546
11
1.07148
21
1.14596
0
LINE
8
BLACK
6
CONTINUOUS
10
1.07148
20
1.14596
11
1.07153
21
1.14601
0
LINE
8
BLACK
6
CONTINUOUS
10
1.07153
20
1.14601
11
1.07528
21
1.14789
0
LINE
8
BLACK
6
CONTINUOUS
10
1.07528
20
1.14789
11
1.07626
21
1.14818
0
LINE
8
BLACK
6
CONTINUOUS
10
1.07626
20
1.14818
11
1.07643
21
1.14814
0
LINE
8
BLACK
6
CONTINUOUS
10
1.07643
20
1.14814
11
1.0766
21
1.1482
0
LINE
8
BLACK
6
CONTINUOUS
10
1.0766
20
1.1482
11
1.0841
21
1.1482
0
LINE
8
BLACK
6
CONTINUOUS
10
1.0841
20
1.1482
11
1.08511
21
1.14802
0
LINE
8
BLACK
6
CONTINUOUS
10
1.08511
20
1.14802
11
1.08524
21
1.14791
0
LINE
8
BLACK
6
CONTINUOUS
10
1.08524
20
1.14791
11
1.08542
21
1.14789
0
LINE
8
BLACK
6
CONTINUOUS
10
1.08542
20
1.14789
11
1.08771
21
1.14674
0
LINE
8
BLACK
6
CONTINUOUS
10
1.08771
20
1.14674
11
1.08698
21
1.14966
0
LINE
8
BLACK
6
CONTINUOUS
10
1.08698
20
1.14966
11
1.08368
21
1.15461
0
LINE
8
BLACK
6
CONTINUOUS
10
1.08368
20
1.15461
11
1.08235
21
1.15594
0
LINE
8
BLACK
6
CONTINUOUS
10
1.08235
20
1.15594
11
1.07965
21
1.15729
0
LINE
8
BLACK
6
CONTINUOUS
10
1.07965
20
1.15729
11
1.07285
21
1.15729
0
LINE
8
BLACK
6
CONTINUOUS
10
1.07285
20
1.15729
11
1.07184
21
1.15747
0
LINE
8
BLACK
6
CONTINUOUS
10
1.07184
20
1.15747
11
1.07029
21
1.15877
0
LINE
8
BLACK
6
CONTINUOUS
10
1.07029
20
1.15877
11
1.06994
21
1.16076
0
LINE
8
BLACK
6
CONTINUOUS
10
1.06994
20
1.16076
11
1.07095
21
1.16251
0
LINE
8
BLACK
6
CONTINUOUS
10
1.07095
20
1.16251
11
1.07285
21
1.1632
0
LINE
8
BLACK
6
CONTINUOUS
10
1.07285
20
1.1632
11
1.08035
21
1.1632
0
LINE
8
BLACK
6
CONTINUOUS
10
1.08035
20
1.1632
11
1.08136
21
1.16302
0
LINE
8
BLACK
6
CONTINUOUS
10
1.0746
20
1.14094
11
1.0734
21
1.13975
0
LINE
8
BLACK
6
CONTINUOUS
10
1.0734
20
1.13975
11
1.07205
21
1.13705
0
LINE
8
BLACK
6
CONTINUOUS
10
1.07205
20
1.13705
11
1.07205
21
1.12907
0
LINE
8
BLACK
6
CONTINUOUS
10
1.07205
20
1.12907
11
1.0734
21
1.12637
0
LINE
8
BLACK
6
CONTINUOUS
10
1.0734
20
1.12637
11
1.0746
21
1.12517
0
LINE
8
BLACK
6
CONTINUOUS
10
1.0746
20
1.12517
11
1.07729
21
1.12383
0
LINE
8
BLACK
6
CONTINUOUS
10
1.07729
20
1.12383
11
1.0834
21
1.12383
0
LINE
8
BLACK
6
CONTINUOUS
10
1.0834
20
1.12383
11
1.0861
21
1.12517
0
LINE
8
BLACK
6
CONTINUOUS
10
1.0861
20
1.12517
11
1.08729
21
1.12637
0
LINE
8
BLACK
6
CONTINUOUS
10
1.08729
20
1.12637
11
1.08864
21
1.12907
0
LINE
8
BLACK
6
CONTINUOUS
10
1.08864
20
1.12907
11
1.08864
21
1.13705
0
LINE
8
BLACK
6
CONTINUOUS
10
1.08864
20
1.13705
11
1.08729
21
1.13975
0
LINE
8
BLACK
6
CONTINUOUS
10
1.08729
20
1.13975
11
1.0861
21
1.14094
0
LINE
8
BLACK
6
CONTINUOUS
10
1.0861
20
1.14094
11
1.0834
21
1.14229
0
LINE
8
BLACK
6
CONTINUOUS
10
1.0834
20
1.14229
11
1.07729
21
1.14229
0
LINE
8
BLACK
6
CONTINUOUS
10
1.07729
20
1.14229
11
1.0746
21
1.14094
0
LINE
8
BLACK
6
CONTINUOUS
10
1.11871
20
1.16304
11
1.11878
21
1.16304
0
LINE
8
BLACK
6
CONTINUOUS
10
1.11878
20
1.16304
11
1.1244
21
1.16117
0
LINE
8
BLACK
6
CONTINUOUS
10
1.1244
20
1.16117
11
1.1253
21
1.16068
0
LINE
8
BLACK
6
CONTINUOUS
10
1.1253
20
1.16068
11
1.12539
21
1.16053
0
LINE
8
BLACK
6
CONTINUOUS
10
1.12539
20
1.16053
11
1.12555
21
1.16046
0
LINE
8
BLACK
6
CONTINUOUS
10
1.12555
20
1.16046
11
1.1293
21
1.15671
0
LINE
8
BLACK
6
CONTINUOUS
10
1.1293
20
1.15671
11
1.12981
21
1.15598
0
LINE
8
BLACK
6
CONTINUOUS
10
1.12981
20
1.15598
11
1.12986
21
1.15594
0
LINE
8
BLACK
6
CONTINUOUS
10
1.12986
20
1.15594
11
1.13173
21
1.15219
0
LINE
8
BLACK
6
CONTINUOUS
10
1.13173
20
1.15219
11
1.13188
21
1.1517
0
LINE
8
BLACK
6
CONTINUOUS
10
1.13188
20
1.1517
11
1.13195
21
1.15159
0
LINE
8
BLACK
6
CONTINUOUS
10
1.13195
20
1.15159
11
1.13383
21
1.14409
0
LINE
8
BLACK
6
CONTINUOUS
10
1.13383
20
1.14409
11
1.13387
21
1.1435
0
LINE
8
BLACK
6
CONTINUOUS
10
1.13387
20
1.1435
11
1.13392
21
1.14337
0
LINE
8
BLACK
6
CONTINUOUS
10
1.13392
20
1.14337
11
1.13392
21
1.13775
0
LINE
8
BLACK
6
CONTINUOUS
10
1.13392
20
1.13775
11
1.13382
21
1.13717
0
LINE
8
BLACK
6
CONTINUOUS
10
1.13382
20
1.13717
11
1.13383
21
1.13703
0
LINE
8
BLACK
6
CONTINUOUS
10
1.13383
20
1.13703
11
1.13195
21
1.12953
0
LINE
8
BLACK
6
CONTINUOUS
10
1.13195
20
1.12953
11
1.13175
21
1.12907
0
LINE
8
BLACK
6
CONTINUOUS
10
1.13175
20
1.12907
11
1.13173
21
1.12893
0
LINE
8
BLACK
6
CONTINUOUS
10
1.13173
20
1.12893
11
1.12986
21
1.12518
0
LINE
8
BLACK
6
CONTINUOUS
10
1.12986
20
1.12518
11
1.12933
21
1.12447
0
LINE
8
BLACK
6
CONTINUOUS
10
1.12933
20
1.12447
11
1.1293
21
1.12441
0
LINE
8
BLACK
6
CONTINUOUS
10
1.1293
20
1.12441
11
1.12555
21
1.12066
0
LINE
8
BLACK
6
CONTINUOUS
10
1.12555
20
1.12066
11
1.12471
21
1.12007
0
LINE
8
BLACK
6
CONTINUOUS
10
1.12471
20
1.12007
11
1.12454
21
1.12006
0
LINE
8
BLACK
6
CONTINUOUS
10
1.12454
20
1.12006
11
1.1244
21
1.11995
0
LINE
8
BLACK
6
CONTINUOUS
10
1.1244
20
1.11995
11
1.11878
21
1.11807
0
LINE
8
BLACK
6
CONTINUOUS
10
1.11878
20
1.11807
11
1.1179
21
1.11794
0
LINE
8
BLACK
6
CONTINUOUS
10
1.1179
20
1.11794
11
1.11784
21
1.11792
0
LINE
8
BLACK
6
CONTINUOUS
10
1.11784
20
1.11792
11
1.11409
21
1.11792
0
LINE
8
BLACK
6
CONTINUOUS
10
1.11409
20
1.11792
11
1.11322
21
1.11807
0
LINE
8
BLACK
6
CONTINUOUS
10
1.11322
20
1.11807
11
1.11316
21
1.11807
0
LINE
8
BLACK
6
CONTINUOUS
10
1.11316
20
1.11807
11
1.10753
21
1.11995
0
LINE
8
BLACK
6
CONTINUOUS
10
1.10753
20
1.11995
11
1.10663
21
1.12044
0
LINE
8
BLACK
6
CONTINUOUS
10
1.10663
20
1.12044
11
1.10654
21
1.12059
0
LINE
8
BLACK
6
CONTINUOUS
10
1.10654
20
1.12059
11
1.10638
21
1.12066
0
LINE
8
BLACK
6
CONTINUOUS
10
1.10638
20
1.12066
11
1.10451
21
1.12253
0
LINE
8
BLACK
6
CONTINUOUS
10
1.10451
20
1.12253
11
1.10392
21
1.12338
0
LINE
8
BLACK
6
CONTINUOUS
10
1.10392
20
1.12338
11
1.10374
21
1.12539
0
LINE
8
BLACK
6
CONTINUOUS
10
1.10374
20
1.12539
11
1.1049
21
1.12704
0
LINE
8
BLACK
6
CONTINUOUS
10
1.1049
20
1.12704
11
1.10685
21
1.12756
0
LINE
8
BLACK
6
CONTINUOUS
10
1.10685
20
1.12756
11
1.10868
21
1.12671
0
LINE
8
BLACK
6
CONTINUOUS
10
1.10868
20
1.12671
11
1.11006
21
1.12533
0
LINE
8
BLACK
6
CONTINUOUS
10
1.11006
20
1.12533
11
1.11457
21
1.12383
0
LINE
8
BLACK
6
CONTINUOUS
10
1.11457
20
1.12383
11
1.11736
21
1.12383
0
LINE
8
BLACK
6
CONTINUOUS
10
1.11736
20
1.12383
11
1.12187
21
1.12533
0
LINE
8
BLACK
6
CONTINUOUS
10
1.12187
20
1.12533
11
1.12479
21
1.12825
0
LINE
8
BLACK
6
CONTINUOUS
10
1.12479
20
1.12825
11
1.1263
21
1.13128
0
LINE
8
BLACK
6
CONTINUOUS
10
1.1263
20
1.13128
11
1.12801
21
1.13811
0
LINE
8
BLACK
6
CONTINUOUS
10
1.12801
20
1.13811
11
1.12801
21
1.14301
0
LINE
8
BLACK
6
CONTINUOUS
10
1.12801
20
1.14301
11
1.1263
21
1.14984
0
LINE
8
BLACK
6
CONTINUOUS
10
1.1263
20
1.14984
11
1.12479
21
1.15287
0
LINE
8
BLACK
6
CONTINUOUS
10
1.12479
20
1.15287
11
1.12187
21
1.15579
0
LINE
8
BLACK
6
CONTINUOUS
10
1.12187
20
1.15579
11
1.11736
21
1.15729
0
LINE
8
BLACK
6
CONTINUOUS
10
1.11736
20
1.15729
11
1.11457
21
1.15729
0
LINE
8
BLACK
6
CONTINUOUS
10
1.11457
20
1.15729
11
1.11006
21
1.15579
0
LINE
8
BLACK
6
CONTINUOUS
10
1.11006
20
1.15579
11
1.10868
21
1.15441
0
LINE
8
BLACK
6
CONTINUOUS
10
1.10868
20
1.15441
11
1.10784
21
1.15382
0
LINE
8
BLACK
6
CONTINUOUS
10
1.10784
20
1.15382
11
1.10583
21
1.15364
0
LINE
8
BLACK
6
CONTINUOUS
10
1.10583
20
1.15364
11
1.10417
21
1.1548
0
LINE
8
BLACK
6
CONTINUOUS
10
1.10417
20
1.1548
11
1.10365
21
1.15675
0
LINE
8
BLACK
6
CONTINUOUS
10
1.10365
20
1.15675
11
1.10451
21
1.15858
0
LINE
8
BLACK
6
CONTINUOUS
10
1.10451
20
1.15858
11
1.10638
21
1.16046
0
LINE
8
BLACK
6
CONTINUOUS
10
1.10638
20
1.16046
11
1.10722
21
1.16104
0
LINE
8
BLACK
6
CONTINUOUS
10
1.10722
20
1.16104
11
1.1074
21
1.16106
0
LINE
8
BLACK
6
CONTINUOUS
10
1.1074
20
1.16106
11
1.10753
21
1.16117
0
LINE
8
BLACK
6
CONTINUOUS
10
1.10753
20
1.16117
11
1.11316
21
1.16304
0
LINE
8
BLACK
6
CONTINUOUS
10
1.11316
20
1.16304
11
1.11403
21
1.16317
0
LINE
8
BLACK
6
CONTINUOUS
10
1.11403
20
1.16317
11
1.11409
21
1.1632
0
LINE
8
BLACK
6
CONTINUOUS
10
1.11409
20
1.1632
11
1.11784
21
1.1632
0
LINE
8
BLACK
6
CONTINUOUS
10
1.11784
20
1.1632
11
1.11871
21
1.16304
0
LINE
8
BLACK
6
CONTINUOUS
10
1.69831
20
1.24968
11
1.69848
21
1.24969
0
LINE
8
BLACK
6
CONTINUOUS
10
1.69848
20
1.24969
11
1.69917
21
1.24918
0
LINE
8
BLACK
6
CONTINUOUS
10
1.69917
20
1.24918
11
1.69991
21
1.24876
0
LINE
8
BLACK
6
CONTINUOUS
10
1.69991
20
1.24876
11
1.69997
21
1.2486
0
LINE
8
BLACK
6
CONTINUOUS
10
1.69997
20
1.2486
11
1.7001
21
1.2485
0
LINE
8
BLACK
6
CONTINUOUS
10
1.7001
20
1.2485
11
1.70369
21
1.24311
0
LINE
8
BLACK
6
CONTINUOUS
10
1.70369
20
1.24311
11
1.7069
21
1.23991
0
LINE
8
BLACK
6
CONTINUOUS
10
1.7069
20
1.23991
11
1.71022
21
1.23825
0
LINE
8
BLACK
6
CONTINUOUS
10
1.71022
20
1.23825
11
1.71104
21
1.23764
0
LINE
8
BLACK
6
CONTINUOUS
10
1.71104
20
1.23764
11
1.71184
21
1.23579
0
LINE
8
BLACK
6
CONTINUOUS
10
1.71184
20
1.23579
11
1.71127
21
1.23385
0
LINE
8
BLACK
6
CONTINUOUS
10
1.71127
20
1.23385
11
1.70958
21
1.23274
0
LINE
8
BLACK
6
CONTINUOUS
10
1.70958
20
1.23274
11
1.70758
21
1.23297
0
LINE
8
BLACK
6
CONTINUOUS
10
1.70758
20
1.23297
11
1.70383
21
1.23484
0
LINE
8
BLACK
6
CONTINUOUS
10
1.70383
20
1.23484
11
1.70312
21
1.23537
0
LINE
8
BLACK
6
CONTINUOUS
10
1.70312
20
1.23537
11
1.70306
21
1.2354
0
LINE
8
BLACK
6
CONTINUOUS
10
1.70306
20
1.2354
11
1.7006
21
1.23785
0
LINE
8
BLACK
6
CONTINUOUS
10
1.7006
20
1.23785
11
1.7006
21
1.21044
0
LINE
8
BLACK
6
CONTINUOUS
10
1.7006
20
1.21044
11
1.7089
21
1.21044
0
LINE
8
BLACK
6
CONTINUOUS
10
1.7089
20
1.21044
11
1.70991
21
1.21026
0
LINE
8
BLACK
6
CONTINUOUS
10
1.70991
20
1.21026
11
1.71145
21
1.20896
0
LINE
8
BLACK
6
CONTINUOUS
10
1.71145
20
1.20896
11
1.7118
21
1.20697
0
LINE
8
BLACK
6
CONTINUOUS
10
1.7118
20
1.20697
11
1.71079
21
1.20523
0
LINE
8
BLACK
6
CONTINUOUS
10
1.71079
20
1.20523
11
1.7089
21
1.20453
0
LINE
8
BLACK
6
CONTINUOUS
10
1.7089
20
1.20453
11
1.6864
21
1.20453
0
LINE
8
BLACK
6
CONTINUOUS
10
1.6864
20
1.20453
11
1.68539
21
1.20471
0
LINE
8
BLACK
6
CONTINUOUS
10
1.68539
20
1.20471
11
1.68384
21
1.20601
0
LINE
8
BLACK
6
CONTINUOUS
10
1.68384
20
1.20601
11
1.68349
21
1.208
0
LINE
8
BLACK
6
CONTINUOUS
10
1.68349
20
1.208
11
1.6845
21
1.20975
0
LINE
8
BLACK
6
CONTINUOUS
10
1.6845
20
1.20975
11
1.6864
21
1.21044
0
LINE
8
BLACK
6
CONTINUOUS
10
1.6864
20
1.21044
11
1.69469
21
1.21044
0
LINE
8
BLACK
6
CONTINUOUS
10
1.69469
20
1.21044
11
1.69469
21
1.24686
0
LINE
8
BLACK
6
CONTINUOUS
10
1.69469
20
1.24686
11
1.69487
21
1.24787
0
LINE
8
BLACK
6
CONTINUOUS
10
1.69487
20
1.24787
11
1.69498
21
1.248
0
LINE
8
BLACK
6
CONTINUOUS
10
1.69498
20
1.248
11
1.695
21
1.24817
0
LINE
8
BLACK
6
CONTINUOUS
10
1.695
20
1.24817
11
1.69562
21
1.24876
0
LINE
8
BLACK
6
CONTINUOUS
10
1.69562
20
1.24876
11
1.69617
21
1.24941
0
LINE
8
BLACK
6
CONTINUOUS
10
1.69617
20
1.24941
11
1.69634
21
1.24944
0
LINE
8
BLACK
6
CONTINUOUS
10
1.69634
20
1.24944
11
1.69646
21
1.24956
0
LINE
8
BLACK
6
CONTINUOUS
10
1.69646
20
1.24956
11
1.69732
21
1.24962
0
LINE
8
BLACK
6
CONTINUOUS
10
1.69732
20
1.24962
11
1.69816
21
1.24977
0
LINE
8
BLACK
6
CONTINUOUS
10
1.69816
20
1.24977
11
1.69831
21
1.24968
0
LINE
8
BLACK
6
CONTINUOUS
10
1.74115
20
1.24876
11
1.74184
21
1.24686
0
LINE
8
BLACK
6
CONTINUOUS
10
1.74184
20
1.24686
11
1.74184
21
1.20749
0
LINE
8
BLACK
6
CONTINUOUS
10
1.74184
20
1.20749
11
1.74178
21
1.2071
0
LINE
8
BLACK
6
CONTINUOUS
10
1.74178
20
1.2071
11
1.7418
21
1.20697
0
LINE
8
BLACK
6
CONTINUOUS
10
1.7418
20
1.20697
11
1.74173
21
1.20686
0
LINE
8
BLACK
6
CONTINUOUS
10
1.74173
20
1.20686
11
1.74167
21
1.20648
0
LINE
8
BLACK
6
CONTINUOUS
10
1.74167
20
1.20648
11
1.74117
21
1.20589
0
LINE
8
BLACK
6
CONTINUOUS
10
1.74117
20
1.20589
11
1.74079
21
1.20523
0
LINE
8
BLACK
6
CONTINUOUS
10
1.74079
20
1.20523
11
1.74054
21
1.20513
0
LINE
8
BLACK
6
CONTINUOUS
10
1.74054
20
1.20513
11
1.74037
21
1.20493
0
LINE
8
BLACK
6
CONTINUOUS
10
1.74037
20
1.20493
11
1.73961
21
1.2048
0
LINE
8
BLACK
6
CONTINUOUS
10
1.73961
20
1.2048
11
1.73889
21
1.20453
0
LINE
8
BLACK
6
CONTINUOUS
10
1.73889
20
1.20453
11
1.72014
21
1.20453
0
LINE
8
BLACK
6
CONTINUOUS
10
1.72014
20
1.20453
11
1.71913
21
1.20471
0
LINE
8
BLACK
6
CONTINUOUS
10
1.71913
20
1.20471
11
1.71759
21
1.20601
0
LINE
8
BLACK
6
CONTINUOUS
10
1.71759
20
1.20601
11
1.71724
21
1.208
0
LINE
8
BLACK
6
CONTINUOUS
10
1.71724
20
1.208
11
1.71825
21
1.20975
0
LINE
8
BLACK
6
CONTINUOUS
10
1.71825
20
1.20975
11
1.72014
21
1.21044
0
LINE
8
BLACK
6
CONTINUOUS
10
1.72014
20
1.21044
11
1.73594
21
1.21044
0
LINE
8
BLACK
6
CONTINUOUS
10
1.73594
20
1.21044
11
1.73594
21
1.24686
0
LINE
8
BLACK
6
CONTINUOUS
10
1.73594
20
1.24686
11
1.73612
21
1.24787
0
LINE
8
BLACK
6
CONTINUOUS
10
1.73612
20
1.24787
11
1.73742
21
1.24941
0
LINE
8
BLACK
6
CONTINUOUS
10
1.73742
20
1.24941
11
1.7394
21
1.24977
0
LINE
8
BLACK
6
CONTINUOUS
10
1.7394
20
1.24977
11
1.74115
21
1.24876
0
LINE
8
BLACK
6
CONTINUOUS
10
1.88512
20
1.22864
11
1.88581
21
1.22697
0
LINE
8
BLACK
6
CONTINUOUS
10
1.88581
20
1.22697
11
1.88512
21
1.2253
0
LINE
8
BLACK
6
CONTINUOUS
10
1.88512
20
1.2253
11
1.88345
21
1.22461
0
LINE
8
BLACK
6
CONTINUOUS
10
1.88345
20
1.22461
11
1.86557
21
1.22461
0
LINE
8
BLACK
6
CONTINUOUS
10
1.86557
20
1.22461
11
1.8639
21
1.2253
0
LINE
8
BLACK
6
CONTINUOUS
10
1.8639
20
1.2253
11
1.86321
21
1.22697
0
LINE
8
BLACK
6
CONTINUOUS
10
1.86321
20
1.22697
11
1.8639
21
1.22864
0
LINE
8
BLACK
6
CONTINUOUS
10
1.8639
20
1.22864
11
1.86557
21
1.22933
0
LINE
8
BLACK
6
CONTINUOUS
10
1.86557
20
1.22933
11
1.88345
21
1.22933
0
LINE
8
BLACK
6
CONTINUOUS
10
1.88345
20
1.22933
11
1.88512
21
1.22864
0
LINE
8
BLACK
6
CONTINUOUS
10
1.97132
20
1.28024
11
1.97146
21
1.28013
0
LINE
8
BLACK
6
CONTINUOUS
10
1.97146
20
1.28013
11
1.97164
21
1.2801
0
LINE
8
BLACK
6
CONTINUOUS
10
1.97164
20
1.2801
11
1.97538
21
1.27823
0
LINE
8
BLACK
6
CONTINUOUS
10
1.97538
20
1.27823
11
1.97609
21
1.2777
0
LINE
8
BLACK
6
CONTINUOUS
10
1.97609
20
1.2777
11
1.97615
21
1.27768
0
LINE
8
BLACK
6
CONTINUOUS
10
1.97615
20
1.27768
11
1.97803
21
1.2758
0
LINE
8
BLACK
6
CONTINUOUS
10
1.97803
20
1.2758
11
1.97829
21
1.27543
0
LINE
8
BLACK
6
CONTINUOUS
10
1.97829
20
1.27543
11
1.9784
21
1.27535
0
LINE
8
BLACK
6
CONTINUOUS
10
1.9784
20
1.27535
11
1.98215
21
1.26973
0
LINE
8
BLACK
6
CONTINUOUS
10
1.98215
20
1.26973
11
1.98254
21
1.26882
0
LINE
8
BLACK
6
CONTINUOUS
10
1.98254
20
1.26882
11
1.98255
21
1.26881
0
LINE
8
BLACK
6
CONTINUOUS
10
1.98255
20
1.26881
11
1.98443
21
1.26131
0
LINE
8
BLACK
6
CONTINUOUS
10
1.98443
20
1.26131
11
1.98447
21
1.26072
0
LINE
8
BLACK
6
CONTINUOUS
10
1.98447
20
1.26072
11
1.98452
21
1.26059
0
LINE
8
BLACK
6
CONTINUOUS
10
1.98452
20
1.26059
11
1.98452
21
1.24559
0
LINE
8
BLACK
6
CONTINUOUS
10
1.98452
20
1.24559
11
1.98434
21
1.24458
0
LINE
8
BLACK
6
CONTINUOUS
10
1.98434
20
1.24458
11
1.98422
21
1.24445
0
LINE
8
BLACK
6
CONTINUOUS
10
1.98422
20
1.24445
11
1.9842
21
1.24427
0
LINE
8
BLACK
6
CONTINUOUS
10
1.9842
20
1.24427
11
1.98233
21
1.24052
0
LINE
8
BLACK
6
CONTINUOUS
10
1.98233
20
1.24052
11
1.9818
21
1.23981
0
LINE
8
BLACK
6
CONTINUOUS
10
1.9818
20
1.23981
11
1.98178
21
1.23976
0
LINE
8
BLACK
6
CONTINUOUS
10
1.98178
20
1.23976
11
1.9799
21
1.23788
0
LINE
8
BLACK
6
CONTINUOUS
10
1.9799
20
1.23788
11
1.97918
21
1.23737
0
LINE
8
BLACK
6
CONTINUOUS
10
1.97918
20
1.23737
11
1.97913
21
1.23733
0
LINE
8
BLACK
6
CONTINUOUS
10
1.97913
20
1.23733
11
1.97538
21
1.23545
0
LINE
8
BLACK
6
CONTINUOUS
10
1.97538
20
1.23545
11
1.9744
21
1.23516
0
LINE
8
BLACK
6
CONTINUOUS
10
1.9744
20
1.23516
11
1.97423
21
1.2352
0
LINE
8
BLACK
6
CONTINUOUS
10
1.97423
20
1.2352
11
1.97406
21
1.23514
0
LINE
8
BLACK
6
CONTINUOUS
10
1.97406
20
1.23514
11
1.96657
21
1.23514
0
LINE
8
BLACK
6
CONTINUOUS
10
1.96657
20
1.23514
11
1.96556
21
1.23532
0
LINE
8
BLACK
6
CONTINUOUS
10
1.96556
20
1.23532
11
1.96542
21
1.23543
0
LINE
8
BLACK
6
CONTINUOUS
10
1.96542
20
1.23543
11
1.96524
21
1.23545
0
LINE
8
BLACK
6
CONTINUOUS
10
1.96524
20
1.23545
11
1.9615
21
1.23733
0
LINE
8
BLACK
6
CONTINUOUS
10
1.9615
20
1.23733
11
1.96079
21
1.23785
0
LINE
8
BLACK
6
CONTINUOUS
10
1.96079
20
1.23785
11
1.96073
21
1.23788
0
LINE
8
BLACK
6
CONTINUOUS
10
1.96073
20
1.23788
11
1.95885
21
1.23976
0
LINE
8
BLACK
6
CONTINUOUS
10
1.95885
20
1.23976
11
1.95835
21
1.24048
0
LINE
8
BLACK
6
CONTINUOUS
10
1.95835
20
1.24048
11
1.9583
21
1.24052
0
LINE
8
BLACK
6
CONTINUOUS
10
1.9583
20
1.24052
11
1.95643
21
1.24427
0
LINE
8
BLACK
6
CONTINUOUS
10
1.95643
20
1.24427
11
1.95613
21
1.24526
0
LINE
8
BLACK
6
CONTINUOUS
10
1.95613
20
1.24526
11
1.95617
21
1.24543
0
LINE
8
BLACK
6
CONTINUOUS
10
1.95617
20
1.24543
11
1.95611
21
1.24559
0
LINE
8
BLACK
6
CONTINUOUS
10
1.95611
20
1.24559
11
1.95611
21
1.25497
0
LINE
8
BLACK
6
CONTINUOUS
10
1.95611
20
1.25497
11
1.95629
21
1.25598
0
LINE
8
BLACK
6
CONTINUOUS
10
1.95629
20
1.25598
11
1.95641
21
1.25611
0
LINE
8
BLACK
6
CONTINUOUS
10
1.95641
20
1.25611
11
1.95643
21
1.25629
0
LINE
8
BLACK
6
CONTINUOUS
10
1.95643
20
1.25629
11
1.9583
21
1.26004
0
LINE
8
BLACK
6
CONTINUOUS
10
1.9583
20
1.26004
11
1.95883
21
1.26075
0
LINE
8
BLACK
6
CONTINUOUS
10
1.95883
20
1.26075
11
1.95885
21
1.2608
0
LINE
8
BLACK
6
CONTINUOUS
10
1.95885
20
1.2608
11
1.96073
21
1.26268
0
LINE
8
BLACK
6
CONTINUOUS
10
1.96073
20
1.26268
11
1.96145
21
1.26319
0
LINE
8
BLACK
6
CONTINUOUS
10
1.96145
20
1.26319
11
1.9615
21
1.26323
0
LINE
8
BLACK
6
CONTINUOUS
10
1.9615
20
1.26323
11
1.96524
21
1.26511
0
LINE
8
BLACK
6
CONTINUOUS
10
1.96524
20
1.26511
11
1.96623
21
1.2654
0
LINE
8
BLACK
6
CONTINUOUS
10
1.96623
20
1.2654
11
1.9664
21
1.26536
0
LINE
8
BLACK
6
CONTINUOUS
10
1.9664
20
1.26536
11
1.96657
21
1.26542
0
LINE
8
BLACK
6
CONTINUOUS
10
1.96657
20
1.26542
11
1.97406
21
1.26542
0
LINE
8
BLACK
6
CONTINUOUS
10
1.97406
20
1.26542
11
1.97507
21
1.26524
0
LINE
8
BLACK
6
CONTINUOUS
10
1.97507
20
1.26524
11
1.97521
21
1.26513
0
LINE
8
BLACK
6
CONTINUOUS
10
1.97521
20
1.26513
11
1.97538
21
1.26511
0
LINE
8
BLACK
6
CONTINUOUS
10
1.97538
20
1.26511
11
1.97768
21
1.26396
0
LINE
8
BLACK
6
CONTINUOUS
10
1.97768
20
1.26396
11
1.97695
21
1.26688
0
LINE
8
BLACK
6
CONTINUOUS
10
1.97695
20
1.26688
11
1.97364
21
1.27183
0
LINE
8
BLACK
6
CONTINUOUS
10
1.97364
20
1.27183
11
1.97232
21
1.27316
0
LINE
8
BLACK
6
CONTINUOUS
10
1.97232
20
1.27316
11
1.96962
21
1.27451
0
LINE
8
BLACK
6
CONTINUOUS
10
1.96962
20
1.27451
11
1.96282
21
1.27451
0
LINE
8
BLACK
6
CONTINUOUS
10
1.96282
20
1.27451
11
1.96181
21
1.27469
0
LINE
8
BLACK
6
CONTINUOUS
10
1.96181
20
1.27469
11
1.96026
21
1.27599
0
LINE
8
BLACK
6
CONTINUOUS
10
1.96026
20
1.27599
11
1.95991
21
1.27798
0
LINE
8
BLACK
6
CONTINUOUS
10
1.95991
20
1.27798
11
1.96092
21
1.27973
0
LINE
8
BLACK
6
CONTINUOUS
10
1.96092
20
1.27973
11
1.96282
21
1.28042
0
LINE
8
BLACK
6
CONTINUOUS
10
1.96282
20
1.28042
11
1.97031
21
1.28042
0
LINE
8
BLACK
6
CONTINUOUS
10
1.97031
20
1.28042
11
1.97132
21
1.28024
0
LINE
8
BLACK
6
CONTINUOUS
10
1.96456
20
1.25816
11
1.96337
21
1.25697
0
LINE
8
BLACK
6
CONTINUOUS
10
1.96337
20
1.25697
11
1.96202
21
1.25427
0
LINE
8
BLACK
6
CONTINUOUS
10
1.96202
20
1.25427
11
1.96202
21
1.24629
0
LINE
8
BLACK
6
CONTINUOUS
10
1.96202
20
1.24629
11
1.96337
21
1.24359
0
LINE
8
BLACK
6
CONTINUOUS
10
1.96337
20
1.24359
11
1.96456
21
1.2424
0
LINE
8
BLACK
6
CONTINUOUS
10
1.96456
20
1.2424
11
1.96726
21
1.24105
0
LINE
8
BLACK
6
CONTINUOUS
10
1.96726
20
1.24105
11
1.97337
21
1.24105
0
LINE
8
BLACK
6
CONTINUOUS
10
1.97337
20
1.24105
11
1.97606
21
1.2424
0
LINE
8
BLACK
6
CONTINUOUS
10
1.97606
20
1.2424
11
1.97726
21
1.24359
0
LINE
8
BLACK
6
CONTINUOUS
10
1.97726
20
1.24359
11
1.97861
21
1.24629
0
LINE
8
BLACK
6
CONTINUOUS
10
1.97861
20
1.24629
11
1.97861
21
1.25427
0
LINE
8
BLACK
6
CONTINUOUS
10
1.97861
20
1.25427
11
1.97726
21
1.25697
0
LINE
8
BLACK
6
CONTINUOUS
10
1.97726
20
1.25697
11
1.97606
21
1.25816
0
LINE
8
BLACK
6
CONTINUOUS
10
1.97606
20
1.25816
11
1.97337
21
1.25951
0
LINE
8
BLACK
6
CONTINUOUS
10
1.97337
20
1.25951
11
1.96726
21
1.25951
0
LINE
8
BLACK
6
CONTINUOUS
10
1.96726
20
1.25951
11
1.96456
21
1.25816
0
LINE
8
BLACK
6
CONTINUOUS
10
2.01944
20
1.28035
11
2.01957
21
1.28037
0
LINE
8
BLACK
6
CONTINUOUS
10
2.01957
20
1.28037
11
2.01969
21
1.28031
0
LINE
8
BLACK
6
CONTINUOUS
10
2.01969
20
1.28031
11
2.02007
21
1.28024
0
LINE
8
BLACK
6
CONTINUOUS
10
2.02007
20
1.28024
11
2.02066
21
1.27975
0
LINE
8
BLACK
6
CONTINUOUS
10
2.02066
20
1.27975
11
2.02132
21
1.27936
0
LINE
8
BLACK
6
CONTINUOUS
10
2.02132
20
1.27936
11
2.02141
21
1.27911
0
LINE
8
BLACK
6
CONTINUOUS
10
2.02141
20
1.27911
11
2.02162
21
1.27894
0
LINE
8
BLACK
6
CONTINUOUS
10
2.02162
20
1.27894
11
2.02175
21
1.27818
0
LINE
8
BLACK
6
CONTINUOUS
10
2.02175
20
1.27818
11
2.02201
21
1.27746
0
LINE
8
BLACK
6
CONTINUOUS
10
2.02201
20
1.27746
11
2.02201
21
1.23809
0
LINE
8
BLACK
6
CONTINUOUS
10
2.02201
20
1.23809
11
2.02183
21
1.23708
0
LINE
8
BLACK
6
CONTINUOUS
10
2.02183
20
1.23708
11
2.02054
21
1.23554
0
LINE
8
BLACK
6
CONTINUOUS
10
2.02054
20
1.23554
11
2.01855
21
1.23519
0
LINE
8
BLACK
6
CONTINUOUS
10
2.01855
20
1.23519
11
2.0168
21
1.2362
0
LINE
8
BLACK
6
CONTINUOUS
10
2.0168
20
1.2362
11
2.01611
21
1.23809
0
LINE
8
BLACK
6
CONTINUOUS
10
2.01611
20
1.23809
11
2.01611
21
1.25389
0
LINE
8
BLACK
6
CONTINUOUS
10
2.01611
20
1.25389
11
2.01122
21
1.25389
0
LINE
8
BLACK
6
CONTINUOUS
10
2.01122
20
1.25389
11
1.99898
21
1.2364
0
LINE
8
BLACK
6
CONTINUOUS
10
1.99898
20
1.2364
11
1.99826
21
1.23568
0
LINE
8
BLACK
6
CONTINUOUS
10
1.99826
20
1.23568
11
1.9963
21
1.23515
0
LINE
8
BLACK
6
CONTINUOUS
10
1.9963
20
1.23515
11
1.99447
21
1.23601
0
LINE
8
BLACK
6
CONTINUOUS
10
1.99447
20
1.23601
11
1.99362
21
1.23784
0
LINE
8
BLACK
6
CONTINUOUS
10
1.99362
20
1.23784
11
1.99414
21
1.23979
0
LINE
8
BLACK
6
CONTINUOUS
10
1.99414
20
1.23979
11
2.00402
21
1.2539
0
LINE
8
BLACK
6
CONTINUOUS
10
2.00402
20
1.2539
11
2.00305
21
1.25407
0
LINE
8
BLACK
6
CONTINUOUS
10
2.00305
20
1.25407
11
2.00292
21
1.25418
0
LINE
8
BLACK
6
CONTINUOUS
10
2.00292
20
1.25418
11
2.00274
21
1.2542
0
LINE
8
BLACK
6
CONTINUOUS
10
2.00274
20
1.2542
11
1.99899
21
1.25608
0
LINE
8
BLACK
6
CONTINUOUS
10
1.99899
20
1.25608
11
1.99828
21
1.2566
0
LINE
8
BLACK
6
CONTINUOUS
10
1.99828
20
1.2566
11
1.99822
21
1.25663
0
LINE
8
BLACK
6
CONTINUOUS
10
1.99822
20
1.25663
11
1.99635
21
1.2585
0
LINE
8
BLACK
6
CONTINUOUS
10
1.99635
20
1.2585
11
1.99584
21
1.25923
0
LINE
8
BLACK
6
CONTINUOUS
10
1.99584
20
1.25923
11
1.9958
21
1.25927
0
LINE
8
BLACK
6
CONTINUOUS
10
1.9958
20
1.25927
11
1.99392
21
1.26302
0
LINE
8
BLACK
6
CONTINUOUS
10
1.99392
20
1.26302
11
1.99363
21
1.264
0
LINE
8
BLACK
6
CONTINUOUS
10
1.99363
20
1.264
11
1.99367
21
1.26417
0
LINE
8
BLACK
6
CONTINUOUS
10
1.99367
20
1.26417
11
1.99361
21
1.26434
0
LINE
8
BLACK
6
CONTINUOUS
10
1.99361
20
1.26434
11
1.99361
21
1.26996
0
LINE
8
BLACK
6
CONTINUOUS
10
1.99361
20
1.26996
11
1.99379
21
1.27097
0
LINE
8
BLACK
6
CONTINUOUS
10
1.99379
20
1.27097
11
1.9939
21
1.27111
0
LINE
8
BLACK
6
CONTINUOUS
10
1.9939
20
1.27111
11
1.99392
21
1.27129
0
LINE
8
BLACK
6
CONTINUOUS
10
1.99392
20
1.27129
11
1.9958
21
1.27503
0
LINE
8
BLACK
6
CONTINUOUS
10
1.9958
20
1.27503
11
1.99632
21
1.27574
0
LINE
8
BLACK
6
CONTINUOUS
10
1.99632
20
1.27574
11
1.99635
21
1.2758
0
LINE
8
BLACK
6
CONTINUOUS
10
1.99635
20
1.2758
11
1.99822
21
1.27768
0
LINE
8
BLACK
6
CONTINUOUS
10
1.99822
20
1.27768
11
1.99895
21
1.27818
0
LINE
8
BLACK
6
CONTINUOUS
10
1.99895
20
1.27818
11
1.99899
21
1.27823
0
LINE
8
BLACK
6
CONTINUOUS
10
1.99899
20
1.27823
11
2.00274
21
1.2801
0
LINE
8
BLACK
6
CONTINUOUS
10
2.00274
20
1.2801
11
2.00372
21
1.2804
0
LINE
8
BLACK
6
CONTINUOUS
10
2.00372
20
1.2804
11
2.00389
21
1.28036
0
LINE
8
BLACK
6
CONTINUOUS
10
2.00389
20
1.28036
11
2.00406
21
1.28042
0
LINE
8
BLACK
6
CONTINUOUS
10
2.00406
20
1.28042
11
2.01906
21
1.28042
0
LINE
8
BLACK
6
CONTINUOUS
10
2.01906
20
1.28042
11
2.01944
21
1.28035
0
LINE
8
BLACK
6
CONTINUOUS
10
2.00206
20
1.27316
11
2.00086
21
1.27197
0
LINE
8
BLACK
6
CONTINUOUS
10
2.00086
20
1.27197
11
1.99951
21
1.26927
0
LINE
8
BLACK
6
CONTINUOUS
10
1.99951
20
1.26927
11
1.99951
21
1.26504
0
LINE
8
BLACK
6
CONTINUOUS
10
1.99951
20
1.26504
11
2.00086
21
1.26234
0
LINE
8
BLACK
6
CONTINUOUS
10
2.00086
20
1.26234
11
2.00206
21
1.26114
0
LINE
8
BLACK
6
CONTINUOUS
10
2.00206
20
1.26114
11
2.00476
21
1.25979
0
LINE
8
BLACK
6
CONTINUOUS
10
2.00476
20
1.25979
11
2.01611
21
1.25979
0
LINE
8
BLACK
6
CONTINUOUS
10
2.01611
20
1.25979
11
2.01611
21
1.27451
0
LINE
8
BLACK
6
CONTINUOUS
10
2.01611
20
1.27451
11
2.00476
21
1.27451
0
LINE
8
BLACK
6
CONTINUOUS
10
2.00476
20
1.27451
11
2.00206
21
1.27316
0
LINE
8
BLACK
6
CONTINUOUS
10
1.88512
20
1.28651
11
1.88581
21
1.28484
0
LINE
8
BLACK
6
CONTINUOUS
10
1.88581
20
1.28484
11
1.88512
21
1.28317
0
LINE
8
BLACK
6
CONTINUOUS
10
1.88512
20
1.28317
11
1.88345
21
1.28248
0
LINE
8
BLACK
6
CONTINUOUS
10
1.88345
20
1.28248
11
1.86557
21
1.28248
0
LINE
8
BLACK
6
CONTINUOUS
10
1.86557
20
1.28248
11
1.8639
21
1.28317
0
LINE
8
BLACK
6
CONTINUOUS
10
1.8639
20
1.28317
11
1.86321
21
1.28484
0
LINE
8
BLACK
6
CONTINUOUS
10
1.86321
20
1.28484
11
1.8639
21
1.28651
0
LINE
8
BLACK
6
CONTINUOUS
10
1.8639
20
1.28651
11
1.86557
21
1.2872
0
LINE
8
BLACK
6
CONTINUOUS
10
1.86557
20
1.2872
11
1.88345
21
1.2872
0
LINE
8
BLACK
6
CONTINUOUS
10
1.88345
20
1.2872
11
1.88512
21
1.28651
0
CIRCLE
8
BLACK
10
0.291339
20
1.6
40
0.00688976
0
CIRCLE
8
BLACK
10
1.44291
20
1.39173
40
0.00688976
0
CIRCLE
8
BLACK
10
1.24606
20
1.39173
40
0.00688976
0
CIRCLE
8
BLACK
10
0.291339
20
0.4
40
0.00688976
0
CIRCLE
8
BLACK
10
1.77067
20
0.65748
40
0.00688976
0
CIRCLE
8
BLACK
10
1.77067
20
0.75748
40
0.00688976
0
CIRCLE
8
BLACK
10
1.87067
20
0.65748
40
0.00688976
0
CIRCLE
8
BLACK
10
1.87067
20
0.75748
40
0.00688976
0
CIRCLE
8
BLACK
10
1.97067
20
0.65748
40
0.00688976
0
CIRCLE
8
BLACK
10
1.97067
20
0.75748
40
0.00688976
0
CIRCLE
8
BLACK
10
1.89134
20
0.4
40
0.00688976
0
CIRCLE
8
BLACK
10
1.07874
20
0.336073
40
0.00688976
0
CIRCLE
8
BLACK
10
1.07874
20
0.436073
40
0.00688976
0
CIRCLE
8
BLACK
10
1.17874
20
0.336073
40
0.00688976
0
CIRCLE
8
BLACK
10
1.17874
20
0.436073
40
0.00688976
0
CIRCLE
8
BLACK
10
1.27874
20
0.336073
40
0.00688976
0
CIRCLE
8
BLACK
10
1.27874
20
0.436073
40
0.00688976
0
CIRCLE
8
BLACK
10
1.37874
20
0.336073
40
0.00688976
0
CIRCLE
8
BLACK
10
1.37874
20
0.436073
40
0.00688976
0
CIRCLE
8
BLACK
10
1.47874
20
0.336073
40
0.00688976
0
CIRCLE
8
BLACK
10
1.47874
20
0.436073
40
0.00688976
0
CIRCLE
8
BLACK
10
1.89134
20
1.6
40
0.00688976
0
CIRCLE
8
BLACK
10
0.579528
20
0.33563
40
0.00688976
0
CIRCLE
8
BLACK
10
0.579528
20
0.43563
40
0.00688976
0
CIRCLE
8
BLACK
10
0.679528
20
0.33563
40
0.00688976
0
CIRCLE
8
BLACK
10
0.679528
20
0.43563
40
0.00688976
0
CIRCLE
8
BLACK
10
0.779528
20
0.33563
40
0.00688976
0
CIRCLE
8
BLACK
10
0.779528
20
0.43563
40
0.00688976
0
CIRCLE
8
BLACK
10
0.489173
20
1.20276
40
0.00688976
0
CIRCLE
8
BLACK
10
0.489173
20
1.00591
40
0.00688976
0
CIRCLE
8
BLACK
10
0.489173
20
0.809055
40
0.00688976
0
CIRCLE
8
BLACK
10
1.06161
20
0.767717
40
0.00688976
0
CIRCLE
8
BLACK
10
0.961614
20
0.767717
40
0.00688976
0
CIRCLE
8
BLACK
10
1.06161
20
0.867717
40
0.00688976
0
CIRCLE
8
BLACK
10
0.961614
20
0.867717
40
0.00688976
0
CIRCLE
8
BLACK
10
1.06161
20
0.967717
40
0.00688976
0
CIRCLE
8
BLACK
10
0.961614
20
0.967717
40
0.00688976
0
CIRCLE
8
BLACK
10
0.795276
20
1.7
40
0.00688976
0
CIRCLE
8
BLACK
10
0.895276
20
1.7
40
0.00688976
0
CIRCLE
8
BLACK
10
0.795276
20
1.6
40
0.00688976
0
CIRCLE
8
BLACK
10
0.895276
20
1.6
40
0.00688976
0
CIRCLE
8
BLACK
10
0.795276
20
1.5
40
0.00688976
0
CIRCLE
8
BLACK
10
0.895276
20
1.5
40
0.00688976
0
CIRCLE
8
BLACK
10
0.795276
20
1.4
40
0.00688976
0
CIRCLE
8
BLACK
10
0.895276
20
1.4
40
0.00688976
0
CIRCLE
8
BLACK
10
1.35856
20
0.734646
40
0.00393701
0
CIRCLE
8
BLACK
10
1.35856
20
0.78189
40
0.00393701
0
CIRCLE
8
BLACK
10
1.35856
20
0.829134
40
0.00393701
0
CIRCLE
8
BLACK
10
1.35856
20
0.876378
40
0.00393701
0
CIRCLE
8
BLACK
10
1.35856
20
0.923622
40
0.00393701
0
CIRCLE
8
BLACK
10
1.31132
20
0.734646
40
0.00393701
0
CIRCLE
8
BLACK
10
1.31132
20
0.78189
40
0.00393701
0
CIRCLE
8
BLACK
10
1.31132
20
0.829134
40
0.00393701
0
CIRCLE
8
BLACK
10
1.31132
20
0.876378
40
0.00393701
0
CIRCLE
8
BLACK
10
1.31132
20
0.923622
40
0.00393701
0
CIRCLE
8
BLACK
10
1.26407
20
0.734646
40
0.00393701
0
CIRCLE
8
BLACK
10
1.26407
20
0.78189
40
0.00393701
0
CIRCLE
8
BLACK
10
1.26407
20
0.829134
40
0.00393701
0
CIRCLE
8
BLACK
10
1.26407
20
0.876378
40
0.00393701
0
CIRCLE
8
BLACK
10
1.26407
20
0.923622
40
0.00393701
  0
ENDSEC
  0
EOF
