<?xml version='1.0' encoding='ASCII' standalone='yes'?>
<svg xmlns:svg="http://www.w3.org/2000/svg" xmlns="http://www.w3.org/2000/svg" xmlns:xlink="http://www.w3.org/1999/xlink" version="1.1" width="297.0022mm" height="210.0072mm" viewBox="0.0000 0.0000 297.0022 210.0072">
<title>SVG Image created as DRV10987V01-F_Fab.svg date 2023/07/20 12:07:13 </title>
  <desc>Image generated by PCBNEW </desc>
<g style="fill:#848484; fill-opacity:1.0000;stroke:#848484; stroke-opacity:1.0000; stroke-linecap:round; stroke-linejoin:round;" transform="translate(0 0) scale(1 1)">
</g>
<g style="fill:#848484; fill-opacity:0.0;  stroke:#848484; stroke-width:0.0000; stroke-opacity:1;  stroke-linecap:round; stroke-linejoin:round;">
</g>
<g style="fill:#848484; fill-opacity:0.01;  stroke:#848484; stroke-width:0.7820; stroke-opacity:1;  stroke-linecap:round; stroke-linejoin:round;">
<text x="181.2403" y="2.9804" textLength="22.0136" font-size="6.9510" lengthAdjust="spacingAndGlyphs" text-anchor="middle" opacity="0.01" style="font-family:monospace">WAGO</text>
<g class="stroked-text"><desc>WAGO</desc>
<path d="M171.4344 -2.4684 L172.6757 2.7448 "/>
<path d="M172.6757 2.7448 L173.6687 -0.9789 "/>
<path d="M173.6687 -0.9789 L174.6617 2.7448 "/>
<path d="M174.6617 2.7448 L175.9029 -2.4684 "/>
<path d="M177.6407 1.2553 L180.1232 1.2553 "/>
<path d="M177.1442 2.7448 L178.8819 -2.4684 "/>
<path d="M178.8819 -2.4684 L180.6197 2.7448 "/>
<path d="M185.0882 -2.2202 L184.5917 -2.4684 "/>
<path d="M184.5917 -2.4684 L183.8469 -2.4684 "/>
<path d="M183.8469 -2.4684 L183.1022 -2.2202 "/>
<path d="M183.1022 -2.2202 L182.6057 -1.7237 "/>
<path d="M182.6057 -1.7237 L182.3574 -1.2272 "/>
<path d="M182.3574 -1.2272 L182.1092 -0.2342 "/>
<path d="M182.1092 -0.2342 L182.1092 0.5106 "/>
<path d="M182.1092 0.5106 L182.3574 1.5036 "/>
<path d="M182.3574 1.5036 L182.6057 2.0001 "/>
<path d="M182.6057 2.0001 L183.1022 2.4966 "/>
<path d="M183.1022 2.4966 L183.8469 2.7448 "/>
<path d="M183.8469 2.7448 L184.3434 2.7448 "/>
<path d="M184.3434 2.7448 L185.0882 2.4966 "/>
<path d="M185.0882 2.4966 L185.3364 2.2483 "/>
<path d="M185.3364 2.2483 L185.3364 0.5106 "/>
<path d="M185.3364 0.5106 L184.3434 0.5106 "/>
<path d="M188.5637 -2.4684 L189.5567 -2.4684 "/>
<path d="M189.5567 -2.4684 L190.0532 -2.2202 "/>
<path d="M190.0532 -2.2202 L190.5497 -1.7237 "/>
<path d="M190.5497 -1.7237 L190.7979 -0.7307 "/>
<path d="M190.7979 -0.7307 L190.7979 1.0071 "/>
<path d="M190.7979 1.0071 L190.5497 2.0001 "/>
<path d="M190.5497 2.0001 L190.0532 2.4966 "/>
<path d="M190.0532 2.4966 L189.5567 2.7448 "/>
<path d="M189.5567 2.7448 L188.5637 2.7448 "/>
<path d="M188.5637 2.7448 L188.0672 2.4966 "/>
<path d="M188.0672 2.4966 L187.5707 2.0001 "/>
<path d="M187.5707 2.0001 L187.3224 1.0071 "/>
<path d="M187.3224 1.0071 L187.3224 -0.7307 "/>
<path d="M187.3224 -0.7307 L187.5707 -1.7237 "/>
<path d="M187.5707 -1.7237 L188.0672 -2.2202 "/>
<path d="M188.0672 -2.2202 L188.5637 -2.4684 "/>
</g><text x="181.2403" y="50.5252" textLength="14.8143" font-size="6.9510" lengthAdjust="spacingAndGlyphs" text-anchor="middle" opacity="0.01" style="font-family:monospace">J11</text>
<g class="stroked-text"><desc>J11</desc>
<path d="M177.0200 45.0764 L177.0200 48.8001 "/>
<path d="M177.0200 48.8001 L176.7718 49.5449 "/>
<path d="M176.7718 49.5449 L176.2753 50.0414 "/>
<path d="M176.2753 50.0414 L175.5305 50.2896 "/>
<path d="M175.5305 50.2896 L175.0340 50.2896 "/>
<path d="M182.2333 50.2896 L179.2543 50.2896 "/>
<path d="M180.7438 50.2896 L180.7438 45.0764 "/>
<path d="M180.7438 45.0764 L180.2473 45.8211 "/>
<path d="M180.2473 45.8211 L179.7508 46.3176 "/>
<path d="M179.7508 46.3176 L179.2543 46.5659 "/>
<path d="M187.1983 50.2896 L184.2193 50.2896 "/>
<path d="M185.7088 50.2896 L185.7088 45.0764 "/>
<path d="M185.7088 45.0764 L185.2123 45.8211 "/>
<path d="M185.2123 45.8211 L184.7158 46.3176 "/>
<path d="M184.7158 46.3176 L184.2193 46.5659 "/>
</g><g transform="rotate(-90.000000 63.5512 105.0036)">
<text x="63.5512" y="107.6102" textLength="14.8143" font-size="6.9510" lengthAdjust="spacingAndGlyphs" text-anchor="middle" opacity="0.01" style="font-family:monospace">J12</text>
</g>
<g class="stroked-text"><desc>J12</desc>
<path d="M60.7091 109.2238 L64.4328 109.2238 "/>
<path d="M64.4328 109.2238 L65.1776 109.4721 "/>
<path d="M65.1776 109.4721 L65.6741 109.9686 "/>
<path d="M65.6741 109.9686 L65.9223 110.7133 "/>
<path d="M65.9223 110.7133 L65.9223 111.2098 "/>
<path d="M65.9223 104.0106 L65.9223 106.9896 "/>
<path d="M65.9223 105.5001 L60.7091 105.5001 "/>
<path d="M60.7091 105.5001 L61.4538 105.9966 "/>
<path d="M61.4538 105.9966 L61.9503 106.4931 "/>
<path d="M61.9503 106.4931 L62.1986 106.9896 "/>
<path d="M61.2056 102.0246 L60.9573 101.7763 "/>
<path d="M60.9573 101.7763 L60.7091 101.2798 "/>
<path d="M60.7091 101.2798 L60.7091 100.0386 "/>
<path d="M60.7091 100.0386 L60.9573 99.5421 "/>
<path d="M60.9573 99.5421 L61.2056 99.2939 "/>
<path d="M61.2056 99.2939 L61.7021 99.0456 "/>
<path d="M61.7021 99.0456 L62.1986 99.0456 "/>
<path d="M62.1986 99.0456 L62.9433 99.2939 "/>
<path d="M62.9433 99.2939 L65.9223 102.2728 "/>
<path d="M65.9223 102.2728 L65.9223 99.0456 "/>
</g><g transform="rotate(-180.000000 265.0276 57.2982)">
<text x="265.0276" y="59.9048" transform="scale(-1 1) translate(-530.055181 0)" textLength="6.1256" font-size="6.9510" lengthAdjust="spacingAndGlyphs" text-anchor="middle" opacity="0.01" style="font-family:monospace">K</text>
</g>
<g class="stroked-text"><desc>K</desc>
<path d="M263.6622 54.9271 L263.6622 60.1404 "/>
<path d="M266.6412 54.9271 L264.4070 57.9061 "/>
<path d="M266.6412 60.1404 L263.6622 57.1614 "/>
</g></g>
<g style="fill:#848484; fill-opacity:0.0;  stroke:#848484; stroke-width:1.9862; stroke-opacity:1;  stroke-linecap:round; stroke-linejoin:round;">
<circle cx="42.5679" cy="25.5537" r="15.6384"/> 
</g>
<g style="fill:#848484; fill-opacity:0.0;  stroke:#848484; stroke-width:0.5213; stroke-opacity:1;  stroke-linecap:round; stroke-linejoin:round;">
<path d="M213.3018 79.1980 L149.1788 79.1980 "/>
<path d="M213.3018 55.7384 L149.1788 55.7384 "/>
<path d="M213.3018 41.1413 L149.1788 41.1413 "/>
<path d="M213.3018 11.4258 L213.3018 79.1980 "/>
<path d="M213.3018 11.4258 L149.1788 11.4258 "/>
<path d="M208.0885 6.2126 L213.3018 11.4258 "/>
<path d="M205.4819 79.1980 L205.4819 6.2126 "/>
<path d="M205.4819 6.2126 L179.4157 6.2126 "/>
<path d="M202.8753 39.0560 L202.8753 33.8428 "/>
<path d="M202.8753 33.8428 L182.0223 33.8428 "/>
<path d="M202.8753 30.1935 L202.8753 12.9898 "/>
<path d="M202.8753 12.9898 L182.0223 12.9898 "/>
<path d="M195.0554 77.3734 L195.0554 64.3403 "/>
<path d="M195.0554 64.3403 L189.8421 64.3403 "/>
<path d="M189.8421 77.3734 L195.0554 77.3734 "/>
<path d="M189.8421 64.3403 L189.8421 77.3734 "/>
<path d="M182.0223 39.0560 L202.8753 39.0560 "/>
<path d="M182.0223 33.8428 L182.0223 39.0560 "/>
<path d="M182.0223 30.1935 L202.8753 30.1935 "/>
<path d="M182.0223 12.9898 L182.0223 30.1935 "/>
<path d="M179.4157 79.1980 L205.4819 79.1980 "/>
<path d="M179.4157 79.1980 L179.4157 6.2126 "/>
<path d="M179.4157 6.2126 L179.4157 79.1980 "/>
<path d="M179.4157 6.2126 L153.3494 6.2126 "/>
<path d="M176.8090 39.0560 L176.8090 33.8428 "/>
<path d="M176.8090 33.8428 L155.9560 33.8428 "/>
<path d="M176.8090 30.1935 L176.8090 12.9898 "/>
<path d="M176.8090 12.9898 L155.9560 12.9898 "/>
<path d="M168.9892 77.3734 L168.9892 64.3403 "/>
<path d="M168.9892 64.3403 L163.7759 64.3403 "/>
<path d="M163.7759 77.3734 L168.9892 77.3734 "/>
<path d="M163.7759 64.3403 L163.7759 77.3734 "/>
<path d="M155.9560 39.0560 L176.8090 39.0560 "/>
<path d="M155.9560 33.8428 L155.9560 39.0560 "/>
<path d="M155.9560 30.1935 L176.8090 30.1935 "/>
<path d="M155.9560 12.9898 L155.9560 30.1935 "/>
<path d="M153.3494 79.1980 L179.4157 79.1980 "/>
<path d="M153.3494 6.2126 L153.3494 79.1980 "/>
<path d="M149.1788 79.1980 L149.1788 6.2126 "/>
<path d="M149.1788 6.2126 L208.0885 6.2126 "/>
</g>
<g style="fill:#848484; fill-opacity:0.0;  stroke:#848484; stroke-width:1.9862; stroke-opacity:1;  stroke-linecap:round; stroke-linejoin:round;">
<circle cx="42.5679" cy="184.4535" r="15.6384"/> 
</g>
<g style="fill:#848484; fill-opacity:0.0;  stroke:#848484; stroke-width:0.7820; stroke-opacity:1;  stroke-linecap:round; stroke-linejoin:round;">
<path d="M231.8348 156.9797 L231.8348 130.4964 "/>
<path d="M271.5598 156.9797 L231.8348 156.9797 "/>
<path d="M231.8348 130.4964 L271.5598 130.4964 "/>
<path d="M271.5598 130.4964 L271.5598 156.9797 "/>
</g>
<g style="fill:#848484; fill-opacity:0.0;  stroke:#848484; stroke-width:1.9862; stroke-opacity:1;  stroke-linecap:round; stroke-linejoin:round;">
<circle cx="254.4343" cy="184.4535" r="15.6384"/> 
<circle cx="254.4343" cy="25.5537" r="15.6384"/> 
</g>
<g style="fill:#848484; fill-opacity:0.0;  stroke:#848484; stroke-width:0.7820; stroke-opacity:1;  stroke-linecap:round; stroke-linejoin:round;">
<path d="M74.1081 199.5980 L74.1081 173.1147 "/>
<path d="M113.8330 199.5980 L74.1081 199.5980 "/>
<path d="M74.1081 173.1147 L113.8330 173.1147 "/>
<path d="M113.8330 173.1147 L113.8330 199.5980 "/>
</g>
<g style="fill:#848484; fill-opacity:0.0;  stroke:#848484; stroke-width:0.5213; stroke-opacity:1;  stroke-linecap:round; stroke-linejoin:round;">
<path d="M94.8307 59.9090 L94.8307 150.0982 "/>
<path d="M71.3711 59.9090 L71.3711 150.0982 "/>
<path d="M56.7740 59.9090 L56.7740 150.0982 "/>
<path d="M27.0585 59.9090 L94.8307 59.9090 "/>
<path d="M27.0585 59.9090 L27.0585 150.0982 "/>
<path d="M21.8453 65.1223 L27.0585 59.9090 "/>
<path d="M94.8307 67.7289 L21.8453 67.7289 "/>
<path d="M21.8453 67.7289 L21.8453 93.7951 "/>
<path d="M54.6887 70.3355 L49.4755 70.3355 "/>
<path d="M49.4755 70.3355 L49.4755 91.1885 "/>
<path d="M45.8262 70.3355 L28.6225 70.3355 "/>
<path d="M28.6225 70.3355 L28.6225 91.1885 "/>
<path d="M93.0061 78.1554 L79.9730 78.1554 "/>
<path d="M79.9730 78.1554 L79.9730 83.3686 "/>
<path d="M93.0061 83.3686 L93.0061 78.1554 "/>
<path d="M79.9730 83.3686 L93.0061 83.3686 "/>
<path d="M54.6887 91.1885 L54.6887 70.3355 "/>
<path d="M49.4755 91.1885 L54.6887 91.1885 "/>
<path d="M45.8262 91.1885 L45.8262 70.3355 "/>
<path d="M28.6225 91.1885 L45.8262 91.1885 "/>
<path d="M94.8307 93.7951 L94.8307 67.7289 "/>
<path d="M94.8307 93.7951 L21.8453 93.7951 "/>
<path d="M21.8453 93.7951 L94.8307 93.7951 "/>
<path d="M21.8453 93.7951 L21.8453 119.8614 "/>
<path d="M54.6887 96.4017 L49.4755 96.4017 "/>
<path d="M49.4755 96.4017 L49.4755 117.2547 "/>
<path d="M45.8262 96.4017 L28.6225 96.4017 "/>
<path d="M28.6225 96.4017 L28.6225 117.2547 "/>
<path d="M93.0061 104.2216 L79.9730 104.2216 "/>
<path d="M79.9730 104.2216 L79.9730 109.4349 "/>
<path d="M93.0061 109.4349 L93.0061 104.2216 "/>
<path d="M79.9730 109.4349 L93.0061 109.4349 "/>
<path d="M54.6887 117.2547 L54.6887 96.4017 "/>
<path d="M49.4755 117.2547 L54.6887 117.2547 "/>
<path d="M45.8262 117.2547 L45.8262 96.4017 "/>
<path d="M28.6225 117.2547 L45.8262 117.2547 "/>
<path d="M94.8307 119.8614 L94.8307 93.7951 "/>
<path d="M94.8307 119.8614 L21.8453 119.8614 "/>
<path d="M21.8453 119.8614 L94.8307 119.8614 "/>
<path d="M21.8453 119.8614 L21.8453 145.9276 "/>
<path d="M54.6887 122.4680 L49.4755 122.4680 "/>
<path d="M49.4755 122.4680 L49.4755 143.3210 "/>
<path d="M45.8262 122.4680 L28.6225 122.4680 "/>
<path d="M28.6225 122.4680 L28.6225 143.3210 "/>
<path d="M93.0061 130.2878 L79.9730 130.2878 "/>
<path d="M79.9730 130.2878 L79.9730 135.5011 "/>
<path d="M93.0061 135.5011 L93.0061 130.2878 "/>
<path d="M79.9730 135.5011 L93.0061 135.5011 "/>
<path d="M54.6887 143.3210 L54.6887 122.4680 "/>
<path d="M49.4755 143.3210 L54.6887 143.3210 "/>
<path d="M45.8262 143.3210 L45.8262 122.4680 "/>
<path d="M28.6225 143.3210 L45.8262 143.3210 "/>
<path d="M94.8307 145.9276 L94.8307 119.8614 "/>
<path d="M21.8453 145.9276 L94.8307 145.9276 "/>
<path d="M94.8307 150.0982 L21.8453 150.0982 "/>
<path d="M21.8453 150.0982 L21.8453 65.1223 "/>
</g>
<g style="fill:#848484; fill-opacity:0.0;  stroke:#848484; stroke-width:0.7820; stroke-opacity:1;  stroke-linecap:round; stroke-linejoin:round;">
<path d="M151.1859 142.3826 L124.7026 142.3826 "/>
<path d="M151.1859 102.6576 L151.1859 142.3826 "/>
<path d="M124.7026 142.3826 L124.7026 102.6576 "/>
<path d="M124.7026 102.6576 L151.1859 102.6576 "/>
<g>
</g>
<g>
</g>
<g>
</g>
<g>
</g>
<g>
</g>
<g>
</g>
<g>
</g>
<g>
</g>
<g>
</g>
<g>
</g>
<g>
</g>
<g>
</g>
<g>
</g>
<g>
</g>
<g>
</g>
<g>
</g>
<g>
</g>
<g>
</g>
<g>
</g>
<g>
</g>
<g>
</g>
<g>
</g>
<g>
</g>
<g>
</g>
<g>
</g>
<g>
</g>
<g>
</g>
<g>
</g>
<g>
</g>
<g>
</g>
<g>
</g>
<g>
</g>
<g>
</g>
</g> 
<svg:g><svg:g><svg:title>SVG Image created as DRV10987V01-Edge_Cuts.svg date 2023/07/20 12:07:13 </svg:title>
  <svg:desc>Image generated by PCBNEW </svg:desc>
<svg:g style="fill:#C2C200; fill-opacity:1.0000;stroke:#C2C200; stroke-opacity:1.0000; stroke-linecap:round; stroke-linejoin:round;" transform="translate(0 0) scale(1 1)">
</svg:g>
<svg:g style="fill:#C2C200; fill-opacity:0.0;  stroke:#C2C200; stroke-width:0.0000; stroke-opacity:1;  stroke-linecap:round; stroke-linejoin:round;">
</svg:g>
<svg:g style="fill:#C2C200; fill-opacity:0.0;  stroke:#C2C200; stroke-width:0.7820; stroke-opacity:1;  stroke-linecap:round; stroke-linejoin:round;">
<svg:path style="fill:#C2C200; fill-opacity:0.0;  stroke:#C2C200; stroke-width:0.7820; stroke-opacity:1;  stroke-linecap:round; stroke-linejoin:round;fill:none" d="M 17.4088,0.3946 279.5934,0.3946 279.5934,209.6126 17.4088,209.6126 Z"/> 
</svg:g>
<svg:g style="fill:#C2C200; fill-opacity:0.0;  stroke:#C2C200; stroke-width:0.2607; stroke-opacity:1;  stroke-linecap:round; stroke-linejoin:round;">
<svg:path d="M248.6997 53.9138 L248.6997 61.2123 "/>
<svg:path d="M251.3063 51.3072 L257.5622 51.3072 "/>
<svg:path d="M251.3063 63.8190 L257.5622 63.8190 "/>
<svg:path d="M260.1688 53.9138 L260.1688 61.2123 "/>
<svg:path d="M251.3063 51.3072 A2.6066 2.6066 0.0 0 0 248.6997 53.9138"/>
<svg:path d="M248.6997 61.2123 A2.6066 2.6066 0.0 0 0 251.3063 63.8190"/>
<svg:path d="M260.1688 53.9138 A2.6066 2.6066 0.0 0 0 257.5622 51.3072"/>
<svg:path d="M257.5622 63.8190 A2.6066 2.6066 0.0 0 0 260.1688 61.2123"/>
<svg:g>
</svg:g>
<svg:g>
</svg:g>
<svg:g>
</svg:g>
<svg:g>
</svg:g>
<svg:g>
</svg:g>
<svg:g>
</svg:g>
<svg:g>
</svg:g>
<svg:g>
</svg:g>
<svg:g>
</svg:g>
<svg:g>
</svg:g>
<svg:g>
</svg:g>
<svg:g>
</svg:g>
<svg:g>
</svg:g>
<svg:g>
</svg:g>
<svg:g>
</svg:g>
<svg:g>
</svg:g>
<svg:g>
</svg:g>
<svg:g>
</svg:g>
<svg:g>
</svg:g>
<svg:g>
</svg:g>
<svg:g>
</svg:g>
<svg:g>
</svg:g>
<svg:g>
</svg:g>
<svg:g>
</svg:g>
<svg:g>
</svg:g>
<svg:g>
</svg:g>
<svg:g>
</svg:g>
<svg:g>
</svg:g>
<svg:g>
</svg:g>
<svg:g>
</svg:g>
<svg:g>
</svg:g>
<svg:g>
</svg:g>
<svg:g>
</svg:g>
</svg:g> 
</svg:g></svg:g></svg>
