<?xml version='1.0' encoding='ASCII' standalone='yes'?>
<svg xmlns:svg="http://www.w3.org/2000/svg" xmlns="http://www.w3.org/2000/svg" xmlns:xlink="http://www.w3.org/1999/xlink" version="1.1" width="297.0022mm" height="210.0072mm" viewBox="0.0000 0.0000 297.0022 210.0072">
<title>SVG Image created as DRV10987V01-B_Fab.svg date 2023/07/08 01:02:54 </title>
  <desc>Image generated by PCBNEW </desc>
<g style="fill:#000084; fill-opacity:1.0000;stroke:#000084; stroke-opacity:1.0000; stroke-linecap:round; stroke-linejoin:round;" transform="translate(0 0) scale(1 1)">
</g>
<g style="fill:#000084; fill-opacity:0.0;  stroke:#000084; stroke-width:0.0000; stroke-opacity:1;  stroke-linecap:round; stroke-linejoin:round;">
</g>
<g style="fill:#000084; fill-opacity:0.01;  stroke:#000084; stroke-width:0.4171; stroke-opacity:1;  stroke-linecap:round; stroke-linejoin:round;">
<text x="85.9421" y="132.5817" transform="scale(-1 1) translate(-171.884277 0)" textLength="5.6104" font-size="3.4755" lengthAdjust="spacingAndGlyphs" text-anchor="middle" opacity="0.01" style="font-family:monospace">C5</text>
<g class="stroked-text"><desc>C5</desc>
<path d="M85.5077 132.2143 L85.3836 132.3384 "/>
<path d="M85.3836 132.3384 L85.0112 132.4625 "/>
<path d="M85.0112 132.4625 L84.7630 132.4625 "/>
<path d="M84.7630 132.4625 L84.3906 132.3384 "/>
<path d="M84.3906 132.3384 L84.1423 132.0902 "/>
<path d="M84.1423 132.0902 L84.0182 131.8419 "/>
<path d="M84.0182 131.8419 L83.8941 131.3454 "/>
<path d="M83.8941 131.3454 L83.8941 130.9731 "/>
<path d="M83.8941 130.9731 L84.0182 130.4766 "/>
<path d="M84.0182 130.4766 L84.1423 130.2283 "/>
<path d="M84.1423 130.2283 L84.3906 129.9801 "/>
<path d="M84.3906 129.9801 L84.7630 129.8559 "/>
<path d="M84.7630 129.8559 L85.0112 129.8559 "/>
<path d="M85.0112 129.8559 L85.3836 129.9801 "/>
<path d="M85.3836 129.9801 L85.5077 130.1042 "/>
<path d="M87.8661 129.8559 L86.6248 129.8559 "/>
<path d="M86.6248 129.8559 L86.5007 131.0972 "/>
<path d="M86.5007 131.0972 L86.6248 130.9731 "/>
<path d="M86.6248 130.9731 L86.8731 130.8489 "/>
<path d="M86.8731 130.8489 L87.4937 130.8489 "/>
<path d="M87.4937 130.8489 L87.7420 130.9731 "/>
<path d="M87.7420 130.9731 L87.8661 131.0972 "/>
<path d="M87.8661 131.0972 L87.9902 131.3454 "/>
<path d="M87.9902 131.3454 L87.9902 131.9660 "/>
<path d="M87.9902 131.9660 L87.8661 132.2143 "/>
<path d="M87.8661 132.2143 L87.7420 132.3384 "/>
<path d="M87.7420 132.3384 L87.4937 132.4625 "/>
<path d="M87.4937 132.4625 L86.8731 132.4625 "/>
<path d="M86.8731 132.4625 L86.6248 132.3384 "/>
<path d="M86.6248 132.3384 L86.5007 132.2143 "/>
</g><text x="102.2726" y="158.4394" transform="scale(-1 1) translate(-204.545267 0)" textLength="5.6104" font-size="3.4755" lengthAdjust="spacingAndGlyphs" text-anchor="middle" opacity="0.01" style="font-family:monospace">R7</text>
<g class="stroked-text"><desc>R7</desc>
<path d="M101.8382 158.3203 L100.9693 157.0790 "/>
<path d="M100.3487 158.3203 L100.3487 155.7136 "/>
<path d="M100.3487 155.7136 L101.3417 155.7136 "/>
<path d="M101.3417 155.7136 L101.5899 155.8378 "/>
<path d="M101.5899 155.8378 L101.7141 155.9619 "/>
<path d="M101.7141 155.9619 L101.8382 156.2101 "/>
<path d="M101.8382 156.2101 L101.8382 156.5825 "/>
<path d="M101.8382 156.5825 L101.7141 156.8308 "/>
<path d="M101.7141 156.8308 L101.5899 156.9549 "/>
<path d="M101.5899 156.9549 L101.3417 157.0790 "/>
<path d="M101.3417 157.0790 L100.3487 157.0790 "/>
<path d="M102.7071 155.7136 L104.4448 155.7136 "/>
<path d="M104.4448 155.7136 L103.3277 158.3203 "/>
</g><text x="33.7409" y="124.8452" transform="scale(-1 1) translate(-67.481715 0)" textLength="5.6104" font-size="3.4755" lengthAdjust="spacingAndGlyphs" text-anchor="middle" opacity="0.01" style="font-family:monospace">C7</text>
<g class="stroked-text"><desc>C7</desc>
<path d="M33.3064 124.4778 L33.1823 124.6020 "/>
<path d="M33.1823 124.6020 L32.8099 124.7261 "/>
<path d="M32.8099 124.7261 L32.5617 124.7261 "/>
<path d="M32.5617 124.7261 L32.1893 124.6020 "/>
<path d="M32.1893 124.6020 L31.9411 124.3537 "/>
<path d="M31.9411 124.3537 L31.8169 124.1055 "/>
<path d="M31.8169 124.1055 L31.6928 123.6090 "/>
<path d="M31.6928 123.6090 L31.6928 123.2366 "/>
<path d="M31.6928 123.2366 L31.8169 122.7401 "/>
<path d="M31.8169 122.7401 L31.9411 122.4918 "/>
<path d="M31.9411 122.4918 L32.1893 122.2436 "/>
<path d="M32.1893 122.2436 L32.5617 122.1195 "/>
<path d="M32.5617 122.1195 L32.8099 122.1195 "/>
<path d="M32.8099 122.1195 L33.1823 122.2436 "/>
<path d="M33.1823 122.2436 L33.3064 122.3677 "/>
<path d="M34.1753 122.1195 L35.9130 122.1195 "/>
<path d="M35.9130 122.1195 L34.7959 124.7261 "/>
</g></g>
<g style="fill:#000084; fill-opacity:0.01;  stroke:#000084; stroke-width:0.7820; stroke-opacity:1;  stroke-linecap:round; stroke-linejoin:round;">
<text x="75.8493" y="156.7711" transform="scale(-1 1) translate(-151.698586 0)" textLength="11.0906" font-size="6.9510" lengthAdjust="spacingAndGlyphs" text-anchor="middle" opacity="0.01" style="font-family:monospace">D1</text>
<g class="stroked-text"><desc>D1</desc>
<path d="M72.0014 156.5356 L72.0014 151.3224 "/>
<path d="M72.0014 151.3224 L73.2427 151.3224 "/>
<path d="M73.2427 151.3224 L73.9874 151.5706 "/>
<path d="M73.9874 151.5706 L74.4839 152.0671 "/>
<path d="M74.4839 152.0671 L74.7322 152.5636 "/>
<path d="M74.7322 152.5636 L74.9804 153.5566 "/>
<path d="M74.9804 153.5566 L74.9804 154.3013 "/>
<path d="M74.9804 154.3013 L74.7322 155.2943 "/>
<path d="M74.7322 155.2943 L74.4839 155.7908 "/>
<path d="M74.4839 155.7908 L73.9874 156.2874 "/>
<path d="M73.9874 156.2874 L73.2427 156.5356 "/>
<path d="M73.2427 156.5356 L72.0014 156.5356 "/>
<path d="M79.9454 156.5356 L76.9664 156.5356 "/>
<path d="M78.4559 156.5356 L78.4559 151.3224 "/>
<path d="M78.4559 151.3224 L77.9594 152.0671 "/>
<path d="M77.9594 152.0671 L77.4629 152.5636 "/>
<path d="M77.4629 152.5636 L76.9664 152.8119 "/>
</g><text x="32.9015" y="60.6086" transform="scale(-1 1) translate(-65.803050 0)" textLength="7.2516" font-size="8.8278" lengthAdjust="spacingAndGlyphs" text-anchor="middle" opacity="0.01" style="font-family:monospace">K</text>
<g class="stroked-text"><desc>K</desc>
<path d="M31.1675 60.3205 L31.1675 53.6997 "/>
<path d="M34.9508 60.3205 L32.1133 56.5371 "/>
<path d="M34.9508 53.6997 L31.1675 57.4830 "/>
</g><text x="63.5252" y="61.3948" transform="scale(-1 1) translate(-127.050356 0)" textLength="13.5572" font-size="8.8278" lengthAdjust="spacingAndGlyphs" text-anchor="middle" opacity="0.01" style="font-family:monospace">D2</text>
<g class="stroked-text"><desc>D2</desc>
<path d="M58.6384 61.1066 L58.6384 54.4858 "/>
<path d="M58.6384 54.4858 L60.2148 54.4858 "/>
<path d="M60.2148 54.4858 L61.1606 54.8011 "/>
<path d="M61.1606 54.8011 L61.7912 55.4316 "/>
<path d="M61.7912 55.4316 L62.1064 56.0622 "/>
<path d="M62.1064 56.0622 L62.4217 57.3233 "/>
<path d="M62.4217 57.3233 L62.4217 58.2691 "/>
<path d="M62.4217 58.2691 L62.1064 59.5303 "/>
<path d="M62.1064 59.5303 L61.7912 60.1608 "/>
<path d="M61.7912 60.1608 L61.1606 60.7914 "/>
<path d="M61.1606 60.7914 L60.2148 61.1066 "/>
<path d="M60.2148 61.1066 L58.6384 61.1066 "/>
<path d="M64.9439 55.1164 L65.2592 54.8011 "/>
<path d="M65.2592 54.8011 L65.8898 54.4858 "/>
<path d="M65.8898 54.4858 L67.4661 54.4858 "/>
<path d="M67.4661 54.4858 L68.0967 54.8011 "/>
<path d="M68.0967 54.8011 L68.4120 55.1164 "/>
<path d="M68.4120 55.1164 L68.7273 55.7469 "/>
<path d="M68.7273 55.7469 L68.7273 56.3775 "/>
<path d="M68.7273 56.3775 L68.4120 57.3233 "/>
<path d="M68.4120 57.3233 L64.6287 61.1066 "/>
<path d="M64.6287 61.1066 L68.7273 61.1066 "/>
</g></g>
<g style="fill:#000084; fill-opacity:0.01;  stroke:#000084; stroke-width:0.4171; stroke-opacity:1;  stroke-linecap:round; stroke-linejoin:round;">
<text x="147.0894" y="96.9231" transform="scale(-1 1) translate(-294.178701 0)" textLength="5.6104" font-size="3.4755" lengthAdjust="spacingAndGlyphs" text-anchor="middle" opacity="0.01" style="font-family:monospace">C6</text>
<g class="stroked-text"><desc>C6</desc>
<path d="M146.6549 96.5557 L146.5308 96.6798 "/>
<path d="M146.5308 96.6798 L146.1584 96.8039 "/>
<path d="M146.1584 96.8039 L145.9102 96.8039 "/>
<path d="M145.9102 96.8039 L145.5378 96.6798 "/>
<path d="M145.5378 96.6798 L145.2895 96.4316 "/>
<path d="M145.2895 96.4316 L145.1654 96.1833 "/>
<path d="M145.1654 96.1833 L145.0413 95.6868 "/>
<path d="M145.0413 95.6868 L145.0413 95.3144 "/>
<path d="M145.0413 95.3144 L145.1654 94.8179 "/>
<path d="M145.1654 94.8179 L145.2895 94.5697 "/>
<path d="M145.2895 94.5697 L145.5378 94.3214 "/>
<path d="M145.5378 94.3214 L145.9102 94.1973 "/>
<path d="M145.9102 94.1973 L146.1584 94.1973 "/>
<path d="M146.1584 94.1973 L146.5308 94.3214 "/>
<path d="M146.5308 94.3214 L146.6549 94.4456 "/>
<path d="M148.8892 94.1973 L148.3927 94.1973 "/>
<path d="M148.3927 94.1973 L148.1444 94.3214 "/>
<path d="M148.1444 94.3214 L148.0203 94.4456 "/>
<path d="M148.0203 94.4456 L147.7720 94.8179 "/>
<path d="M147.7720 94.8179 L147.6479 95.3144 "/>
<path d="M147.6479 95.3144 L147.6479 96.3074 "/>
<path d="M147.6479 96.3074 L147.7720 96.5557 "/>
<path d="M147.7720 96.5557 L147.8962 96.6798 "/>
<path d="M147.8962 96.6798 L148.1444 96.8039 "/>
<path d="M148.1444 96.8039 L148.6409 96.8039 "/>
<path d="M148.6409 96.8039 L148.8892 96.6798 "/>
<path d="M148.8892 96.6798 L149.0133 96.5557 "/>
<path d="M149.0133 96.5557 L149.1374 96.3074 "/>
<path d="M149.1374 96.3074 L149.1374 95.6868 "/>
<path d="M149.1374 95.6868 L149.0133 95.4386 "/>
<path d="M149.0133 95.4386 L148.8892 95.3144 "/>
<path d="M148.8892 95.3144 L148.6409 95.1903 "/>
<path d="M148.6409 95.1903 L148.1444 95.1903 "/>
<path d="M148.1444 95.1903 L147.8962 95.3144 "/>
<path d="M147.8962 95.3144 L147.7720 95.4386 "/>
<path d="M147.7720 95.4386 L147.6479 95.6868 "/>
</g><g transform="rotate(-90.000000 203.0838 162.9358)">
<text x="203.0838" y="164.2391" transform="scale(-1 1) translate(-406.167580 0)" textLength="5.6104" font-size="3.4755" lengthAdjust="spacingAndGlyphs" text-anchor="middle" opacity="0.01" style="font-family:monospace">R5</text>
</g>
<g class="stroked-text"><desc>R5</desc>
<path d="M201.8996 162.5014 L203.1409 161.6325 "/>
<path d="M201.8996 161.0119 L204.5062 161.0119 "/>
<path d="M204.5062 161.0119 L204.5062 162.0049 "/>
<path d="M204.5062 162.0049 L204.3821 162.2531 "/>
<path d="M204.3821 162.2531 L204.2580 162.3772 "/>
<path d="M204.2580 162.3772 L204.0097 162.5014 "/>
<path d="M204.0097 162.5014 L203.6374 162.5014 "/>
<path d="M203.6374 162.5014 L203.3891 162.3772 "/>
<path d="M203.3891 162.3772 L203.2650 162.2531 "/>
<path d="M203.2650 162.2531 L203.1409 162.0049 "/>
<path d="M203.1409 162.0049 L203.1409 161.0119 "/>
<path d="M204.5062 164.8597 L204.5062 163.6185 "/>
<path d="M204.5062 163.6185 L203.2650 163.4944 "/>
<path d="M203.2650 163.4944 L203.3891 163.6185 "/>
<path d="M203.3891 163.6185 L203.5132 163.8667 "/>
<path d="M203.5132 163.8667 L203.5132 164.4874 "/>
<path d="M203.5132 164.4874 L203.3891 164.7356 "/>
<path d="M203.3891 164.7356 L203.2650 164.8597 "/>
<path d="M203.2650 164.8597 L203.0167 164.9839 "/>
<path d="M203.0167 164.9839 L202.3961 164.9839 "/>
<path d="M202.3961 164.9839 L202.1479 164.8597 "/>
<path d="M202.1479 164.8597 L202.0237 164.7356 "/>
<path d="M202.0237 164.7356 L201.8996 164.4874 "/>
<path d="M201.8996 164.4874 L201.8996 163.8667 "/>
<path d="M201.8996 163.8667 L202.0237 163.6185 "/>
<path d="M202.0237 163.6185 L202.1479 163.4944 "/>
</g><text x="44.7966" y="72.4208" transform="scale(-1 1) translate(-89.593179 0)" textLength="5.6104" font-size="3.4755" lengthAdjust="spacingAndGlyphs" text-anchor="middle" opacity="0.01" style="font-family:monospace">R6</text>
<g class="stroked-text"><desc>R6</desc>
<path d="M44.3622 72.3017 L43.4933 71.0604 "/>
<path d="M42.8727 72.3017 L42.8727 69.6951 "/>
<path d="M42.8727 69.6951 L43.8657 69.6951 "/>
<path d="M43.8657 69.6951 L44.1139 69.8192 "/>
<path d="M44.1139 69.8192 L44.2380 69.9433 "/>
<path d="M44.2380 69.9433 L44.3622 70.1916 "/>
<path d="M44.3622 70.1916 L44.3622 70.5639 "/>
<path d="M44.3622 70.5639 L44.2380 70.8122 "/>
<path d="M44.2380 70.8122 L44.1139 70.9363 "/>
<path d="M44.1139 70.9363 L43.8657 71.0604 "/>
<path d="M43.8657 71.0604 L42.8727 71.0604 "/>
<path d="M46.5964 69.6951 L46.0999 69.6951 "/>
<path d="M46.0999 69.6951 L45.8517 69.8192 "/>
<path d="M45.8517 69.8192 L45.7275 69.9433 "/>
<path d="M45.7275 69.9433 L45.4793 70.3157 "/>
<path d="M45.4793 70.3157 L45.3552 70.8122 "/>
<path d="M45.3552 70.8122 L45.3552 71.8052 "/>
<path d="M45.3552 71.8052 L45.4793 72.0534 "/>
<path d="M45.4793 72.0534 L45.6034 72.1776 "/>
<path d="M45.6034 72.1776 L45.8517 72.3017 "/>
<path d="M45.8517 72.3017 L46.3482 72.3017 "/>
<path d="M46.3482 72.3017 L46.5964 72.1776 "/>
<path d="M46.5964 72.1776 L46.7205 72.0534 "/>
<path d="M46.7205 72.0534 L46.8447 71.8052 "/>
<path d="M46.8447 71.8052 L46.8447 71.1846 "/>
<path d="M46.8447 71.1846 L46.7205 70.9363 "/>
<path d="M46.7205 70.9363 L46.5964 70.8122 "/>
<path d="M46.5964 70.8122 L46.3482 70.6881 "/>
<path d="M46.3482 70.6881 L45.8517 70.6881 "/>
<path d="M45.8517 70.6881 L45.6034 70.8122 "/>
<path d="M45.6034 70.8122 L45.4793 70.9363 "/>
<path d="M45.4793 70.9363 L45.3552 71.1846 "/>
</g><text x="133.1611" y="168.6052" transform="scale(-1 1) translate(-266.322239 0)" textLength="5.6104" font-size="3.4755" lengthAdjust="spacingAndGlyphs" text-anchor="middle" opacity="0.01" style="font-family:monospace">R2</text>
<g class="stroked-text"><desc>R2</desc>
<path d="M132.7267 168.4861 L131.8578 167.2448 "/>
<path d="M131.2372 168.4861 L131.2372 165.8795 "/>
<path d="M131.2372 165.8795 L132.2302 165.8795 "/>
<path d="M132.2302 165.8795 L132.4784 166.0036 "/>
<path d="M132.4784 166.0036 L132.6026 166.1277 "/>
<path d="M132.6026 166.1277 L132.7267 166.3760 "/>
<path d="M132.7267 166.3760 L132.7267 166.7483 "/>
<path d="M132.7267 166.7483 L132.6026 166.9966 "/>
<path d="M132.6026 166.9966 L132.4784 167.1207 "/>
<path d="M132.4784 167.1207 L132.2302 167.2448 "/>
<path d="M132.2302 167.2448 L131.2372 167.2448 "/>
<path d="M133.7197 166.1277 L133.8438 166.0036 "/>
<path d="M133.8438 166.0036 L134.0921 165.8795 "/>
<path d="M134.0921 165.8795 L134.7127 165.8795 "/>
<path d="M134.7127 165.8795 L134.9609 166.0036 "/>
<path d="M134.9609 166.0036 L135.0851 166.1277 "/>
<path d="M135.0851 166.1277 L135.2092 166.3760 "/>
<path d="M135.2092 166.3760 L135.2092 166.6242 "/>
<path d="M135.2092 166.6242 L135.0851 166.9966 "/>
<path d="M135.0851 166.9966 L133.5956 168.4861 "/>
<path d="M133.5956 168.4861 L135.2092 168.4861 "/>
</g><g transform="rotate(-90.000000 188.6170 162.9358)">
<text x="188.6170" y="164.2391" transform="scale(-1 1) translate(-377.234061 0)" textLength="5.6104" font-size="3.4755" lengthAdjust="spacingAndGlyphs" text-anchor="middle" opacity="0.01" style="font-family:monospace">R3</text>
</g>
<g class="stroked-text"><desc>R3</desc>
<path d="M187.4328 162.5014 L188.6741 161.6325 "/>
<path d="M187.4328 161.0119 L190.0395 161.0119 "/>
<path d="M190.0395 161.0119 L190.0395 162.0049 "/>
<path d="M190.0395 162.0049 L189.9153 162.2531 "/>
<path d="M189.9153 162.2531 L189.7912 162.3772 "/>
<path d="M189.7912 162.3772 L189.5430 162.5014 "/>
<path d="M189.5430 162.5014 L189.1706 162.5014 "/>
<path d="M189.1706 162.5014 L188.9223 162.3772 "/>
<path d="M188.9223 162.3772 L188.7982 162.2531 "/>
<path d="M188.7982 162.2531 L188.6741 162.0049 "/>
<path d="M188.6741 162.0049 L188.6741 161.0119 "/>
<path d="M190.0395 163.3702 L190.0395 164.9839 "/>
<path d="M190.0395 164.9839 L189.0465 164.1150 "/>
<path d="M189.0465 164.1150 L189.0465 164.4874 "/>
<path d="M189.0465 164.4874 L188.9223 164.7356 "/>
<path d="M188.9223 164.7356 L188.7982 164.8597 "/>
<path d="M188.7982 164.8597 L188.5500 164.9839 "/>
<path d="M188.5500 164.9839 L187.9293 164.9839 "/>
<path d="M187.9293 164.9839 L187.6811 164.8597 "/>
<path d="M187.6811 164.8597 L187.5570 164.7356 "/>
<path d="M187.5570 164.7356 L187.4328 164.4874 "/>
<path d="M187.4328 164.4874 L187.4328 163.7426 "/>
<path d="M187.4328 163.7426 L187.5570 163.4944 "/>
<path d="M187.5570 163.4944 L187.6811 163.3702 "/>
</g><g transform="rotate(-90.000000 71.3190 134.9798)">
<text x="71.3190" y="136.2831" transform="scale(-1 1) translate(-142.637963 0)" textLength="5.6104" font-size="3.4755" lengthAdjust="spacingAndGlyphs" text-anchor="middle" opacity="0.01" style="font-family:monospace">C1</text>
</g>
<g class="stroked-text"><desc>C1</desc>
<path d="M70.3830 134.5453 L70.2589 134.4212 "/>
<path d="M70.2589 134.4212 L70.1348 134.0488 "/>
<path d="M70.1348 134.0488 L70.1348 133.8006 "/>
<path d="M70.1348 133.8006 L70.2589 133.4282 "/>
<path d="M70.2589 133.4282 L70.5072 133.1800 "/>
<path d="M70.5072 133.1800 L70.7554 133.0558 "/>
<path d="M70.7554 133.0558 L71.2519 132.9317 "/>
<path d="M71.2519 132.9317 L71.6243 132.9317 "/>
<path d="M71.6243 132.9317 L72.1208 133.0558 "/>
<path d="M72.1208 133.0558 L72.3690 133.1800 "/>
<path d="M72.3690 133.1800 L72.6173 133.4282 "/>
<path d="M72.6173 133.4282 L72.7414 133.8006 "/>
<path d="M72.7414 133.8006 L72.7414 134.0488 "/>
<path d="M72.7414 134.0488 L72.6173 134.4212 "/>
<path d="M72.6173 134.4212 L72.4932 134.5453 "/>
<path d="M70.1348 137.0278 L70.1348 135.5383 "/>
<path d="M70.1348 136.2831 L72.7414 136.2831 "/>
<path d="M72.7414 136.2831 L72.3690 136.0348 "/>
<path d="M72.3690 136.0348 L72.1208 135.7866 "/>
<path d="M72.1208 135.7866 L71.9967 135.5383 "/>
</g><text x="85.9421" y="144.5721" transform="scale(-1 1) translate(-171.884277 0)" textLength="5.6104" font-size="3.4755" lengthAdjust="spacingAndGlyphs" text-anchor="middle" opacity="0.01" style="font-family:monospace">C4</text>
<g class="stroked-text"><desc>C4</desc>
<path d="M85.5077 144.2048 L85.3836 144.3289 "/>
<path d="M85.3836 144.3289 L85.0112 144.4530 "/>
<path d="M85.0112 144.4530 L84.7630 144.4530 "/>
<path d="M84.7630 144.4530 L84.3906 144.3289 "/>
<path d="M84.3906 144.3289 L84.1423 144.0806 "/>
<path d="M84.1423 144.0806 L84.0182 143.8324 "/>
<path d="M84.0182 143.8324 L83.8941 143.3359 "/>
<path d="M83.8941 143.3359 L83.8941 142.9635 "/>
<path d="M83.8941 142.9635 L84.0182 142.4670 "/>
<path d="M84.0182 142.4670 L84.1423 142.2188 "/>
<path d="M84.1423 142.2188 L84.3906 141.9705 "/>
<path d="M84.3906 141.9705 L84.7630 141.8464 "/>
<path d="M84.7630 141.8464 L85.0112 141.8464 "/>
<path d="M85.0112 141.8464 L85.3836 141.9705 "/>
<path d="M85.3836 141.9705 L85.5077 142.0946 "/>
<path d="M87.7420 142.7153 L87.7420 144.4530 "/>
<path d="M87.1213 141.7223 L86.5007 143.5841 "/>
<path d="M86.5007 143.5841 L88.1143 143.5841 "/>
</g><text x="33.7409" y="110.2794" transform="scale(-1 1) translate(-67.481715 0)" textLength="5.6104" font-size="3.4755" lengthAdjust="spacingAndGlyphs" text-anchor="middle" opacity="0.01" style="font-family:monospace">C8</text>
<g class="stroked-text"><desc>C8</desc>
<path d="M33.3064 109.9120 L33.1823 110.0362 "/>
<path d="M33.1823 110.0362 L32.8099 110.1603 "/>
<path d="M32.8099 110.1603 L32.5617 110.1603 "/>
<path d="M32.5617 110.1603 L32.1893 110.0362 "/>
<path d="M32.1893 110.0362 L31.9411 109.7879 "/>
<path d="M31.9411 109.7879 L31.8169 109.5397 "/>
<path d="M31.8169 109.5397 L31.6928 109.0432 "/>
<path d="M31.6928 109.0432 L31.6928 108.6708 "/>
<path d="M31.6928 108.6708 L31.8169 108.1743 "/>
<path d="M31.8169 108.1743 L31.9411 107.9260 "/>
<path d="M31.9411 107.9260 L32.1893 107.6778 "/>
<path d="M32.1893 107.6778 L32.5617 107.5537 "/>
<path d="M32.5617 107.5537 L32.8099 107.5537 "/>
<path d="M32.8099 107.5537 L33.1823 107.6778 "/>
<path d="M33.1823 107.6778 L33.3064 107.8019 "/>
<path d="M34.7959 108.6708 L34.5477 108.5467 "/>
<path d="M34.5477 108.5467 L34.4235 108.4225 "/>
<path d="M34.4235 108.4225 L34.2994 108.1743 "/>
<path d="M34.2994 108.1743 L34.2994 108.0502 "/>
<path d="M34.2994 108.0502 L34.4235 107.8019 "/>
<path d="M34.4235 107.8019 L34.5477 107.6778 "/>
<path d="M34.5477 107.6778 L34.7959 107.5537 "/>
<path d="M34.7959 107.5537 L35.2924 107.5537 "/>
<path d="M35.2924 107.5537 L35.5407 107.6778 "/>
<path d="M35.5407 107.6778 L35.6648 107.8019 "/>
<path d="M35.6648 107.8019 L35.7889 108.0502 "/>
<path d="M35.7889 108.0502 L35.7889 108.1743 "/>
<path d="M35.7889 108.1743 L35.6648 108.4225 "/>
<path d="M35.6648 108.4225 L35.5407 108.5467 "/>
<path d="M35.5407 108.5467 L35.2924 108.6708 "/>
<path d="M35.2924 108.6708 L34.7959 108.6708 "/>
<path d="M34.7959 108.6708 L34.5477 108.7949 "/>
<path d="M34.5477 108.7949 L34.4235 108.9190 "/>
<path d="M34.4235 108.9190 L34.2994 109.1673 "/>
<path d="M34.2994 109.1673 L34.2994 109.6638 "/>
<path d="M34.2994 109.6638 L34.4235 109.9120 "/>
<path d="M34.4235 109.9120 L34.5477 110.0362 "/>
<path d="M34.5477 110.0362 L34.7959 110.1603 "/>
<path d="M34.7959 110.1603 L35.2924 110.1603 "/>
<path d="M35.2924 110.1603 L35.5407 110.0362 "/>
<path d="M35.5407 110.0362 L35.6648 109.9120 "/>
<path d="M35.6648 109.9120 L35.7889 109.6638 "/>
<path d="M35.7889 109.6638 L35.7889 109.1673 "/>
<path d="M35.7889 109.1673 L35.6648 108.9190 "/>
<path d="M35.6648 108.9190 L35.5407 108.7949 "/>
<path d="M35.5407 108.7949 L35.2924 108.6708 "/>
</g></g>
<g style="fill:#000084; fill-opacity:0.0;  stroke:#000084; stroke-width:0.7820; stroke-opacity:1;  stroke-linecap:round; stroke-linejoin:round;">
<g transform="rotate(-90.000000 66.1057 101.6150)">
<text x="66.1057" y="104.2216" transform="scale(-1 1) translate(-132.211470 0)" textLength="10.0976" font-size="6.9510" lengthAdjust="spacingAndGlyphs" text-anchor="middle" opacity="0.01" style="font-family:monospace">L1</text>
</g>
<g class="stroked-text"><desc>L1</desc>
<path d="M63.7347 100.7461 L63.7347 98.2636 "/>
<path d="M63.7347 98.2636 L68.9479 98.2636 "/>
<path d="M63.7347 105.2146 L63.7347 102.2356 "/>
<path d="M63.7347 103.7251 L68.9479 103.7251 "/>
<path d="M68.9479 103.7251 L68.2031 103.2286 "/>
<path d="M68.2031 103.2286 L67.7067 102.7321 "/>
<path d="M67.7067 102.7321 L67.4584 102.2356 "/>
</g></g>
<g style="fill:#000084; fill-opacity:0.01;  stroke:#000084; stroke-width:0.4171; stroke-opacity:1;  stroke-linecap:round; stroke-linejoin:round;">
<text x="128.1694" y="96.8449" transform="scale(-1 1) translate(-256.338872 0)" textLength="5.6104" font-size="3.4755" lengthAdjust="spacingAndGlyphs" text-anchor="middle" opacity="0.01" style="font-family:monospace">C3</text>
<g class="stroked-text"><desc>C3</desc>
<path d="M127.7350 96.4775 L127.6109 96.6016 "/>
<path d="M127.6109 96.6016 L127.2385 96.7257 "/>
<path d="M127.2385 96.7257 L126.9903 96.7257 "/>
<path d="M126.9903 96.7257 L126.6179 96.6016 "/>
<path d="M126.6179 96.6016 L126.3696 96.3534 "/>
<path d="M126.3696 96.3534 L126.2455 96.1051 "/>
<path d="M126.2455 96.1051 L126.1214 95.6086 "/>
<path d="M126.1214 95.6086 L126.1214 95.2362 "/>
<path d="M126.1214 95.2362 L126.2455 94.7397 "/>
<path d="M126.2455 94.7397 L126.3696 94.4915 "/>
<path d="M126.3696 94.4915 L126.6179 94.2432 "/>
<path d="M126.6179 94.2432 L126.9903 94.1191 "/>
<path d="M126.9903 94.1191 L127.2385 94.1191 "/>
<path d="M127.2385 94.1191 L127.6109 94.2432 "/>
<path d="M127.6109 94.2432 L127.7350 94.3674 "/>
<path d="M128.6039 94.1191 L130.2175 94.1191 "/>
<path d="M130.2175 94.1191 L129.3486 95.1121 "/>
<path d="M129.3486 95.1121 L129.7210 95.1121 "/>
<path d="M129.7210 95.1121 L129.9693 95.2362 "/>
<path d="M129.9693 95.2362 L130.0934 95.3604 "/>
<path d="M130.0934 95.3604 L130.2175 95.6086 "/>
<path d="M130.2175 95.6086 L130.2175 96.2292 "/>
<path d="M130.2175 96.2292 L130.0934 96.4775 "/>
<path d="M130.0934 96.4775 L129.9693 96.6016 "/>
<path d="M129.9693 96.6016 L129.7210 96.7257 "/>
<path d="M129.7210 96.7257 L128.9763 96.7257 "/>
<path d="M128.9763 96.7257 L128.7280 96.6016 "/>
<path d="M128.7280 96.6016 L128.6039 96.4775 "/>
</g></g>
<g style="fill:#000084; fill-opacity:0.01;  stroke:#000084; stroke-width:0.7820; stroke-opacity:1;  stroke-linecap:round; stroke-linejoin:round;">
<text x="117.1304" y="130.2357" transform="scale(-1 1) translate(-234.260773 0)" textLength="13.5731" font-size="6.9510" lengthAdjust="spacingAndGlyphs" text-anchor="middle" opacity="0.01" style="font-family:monospace">IC1</text>
<g class="stroked-text"><desc>IC1</desc>
<path d="M112.0413 130.0002 L112.0413 124.7869 "/>
<path d="M117.5028 129.5037 L117.2545 129.7519 "/>
<path d="M117.2545 129.7519 L116.5098 130.0002 "/>
<path d="M116.5098 130.0002 L116.0133 130.0002 "/>
<path d="M116.0133 130.0002 L115.2685 129.7519 "/>
<path d="M115.2685 129.7519 L114.7720 129.2554 "/>
<path d="M114.7720 129.2554 L114.5238 128.7589 "/>
<path d="M114.5238 128.7589 L114.2755 127.7659 "/>
<path d="M114.2755 127.7659 L114.2755 127.0212 "/>
<path d="M114.2755 127.0212 L114.5238 126.0282 "/>
<path d="M114.5238 126.0282 L114.7720 125.5317 "/>
<path d="M114.7720 125.5317 L115.2685 125.0352 "/>
<path d="M115.2685 125.0352 L116.0133 124.7869 "/>
<path d="M116.0133 124.7869 L116.5098 124.7869 "/>
<path d="M116.5098 124.7869 L117.2545 125.0352 "/>
<path d="M117.2545 125.0352 L117.5028 125.2834 "/>
<path d="M122.4678 130.0002 L119.4888 130.0002 "/>
<path d="M120.9783 130.0002 L120.9783 124.7869 "/>
<path d="M120.9783 124.7869 L120.4818 125.5317 "/>
<path d="M120.4818 125.5317 L119.9853 126.0282 "/>
<path d="M119.9853 126.0282 L119.4888 126.2764 "/>
</g></g>
<g style="fill:#000084; fill-opacity:0.01;  stroke:#000084; stroke-width:0.4171; stroke-opacity:1;  stroke-linecap:round; stroke-linejoin:round;">
<g transform="rotate(-90.000000 216.5079 162.9358)">
<text x="216.5079" y="164.2391" transform="scale(-1 1) translate(-433.015800 0)" textLength="5.6104" font-size="3.4755" lengthAdjust="spacingAndGlyphs" text-anchor="middle" opacity="0.01" style="font-family:monospace">R4</text>
</g>
<g class="stroked-text"><desc>R4</desc>
<path d="M215.3237 162.5014 L216.5650 161.6325 "/>
<path d="M215.3237 161.0119 L217.9303 161.0119 "/>
<path d="M217.9303 161.0119 L217.9303 162.0049 "/>
<path d="M217.9303 162.0049 L217.8062 162.2531 "/>
<path d="M217.8062 162.2531 L217.6821 162.3772 "/>
<path d="M217.6821 162.3772 L217.4338 162.5014 "/>
<path d="M217.4338 162.5014 L217.0615 162.5014 "/>
<path d="M217.0615 162.5014 L216.8132 162.3772 "/>
<path d="M216.8132 162.3772 L216.6891 162.2531 "/>
<path d="M216.6891 162.2531 L216.5650 162.0049 "/>
<path d="M216.5650 162.0049 L216.5650 161.0119 "/>
<path d="M217.0615 164.7356 L215.3237 164.7356 "/>
<path d="M218.0545 164.1150 L216.1926 163.4944 "/>
<path d="M216.1926 163.4944 L216.1926 165.1080 "/>
</g><text x="114.2631" y="168.6052" transform="scale(-1 1) translate(-228.526201 0)" textLength="5.6104" font-size="3.4755" lengthAdjust="spacingAndGlyphs" text-anchor="middle" opacity="0.01" style="font-family:monospace">R1</text>
<g class="stroked-text"><desc>R1</desc>
<path d="M113.8287 168.4861 L112.9598 167.2448 "/>
<path d="M112.3392 168.4861 L112.3392 165.8795 "/>
<path d="M112.3392 165.8795 L113.3322 165.8795 "/>
<path d="M113.3322 165.8795 L113.5804 166.0036 "/>
<path d="M113.5804 166.0036 L113.7045 166.1277 "/>
<path d="M113.7045 166.1277 L113.8287 166.3760 "/>
<path d="M113.8287 166.3760 L113.8287 166.7483 "/>
<path d="M113.8287 166.7483 L113.7045 166.9966 "/>
<path d="M113.7045 166.9966 L113.5804 167.1207 "/>
<path d="M113.5804 167.1207 L113.3322 167.2448 "/>
<path d="M113.3322 167.2448 L112.3392 167.2448 "/>
<path d="M116.3112 168.4861 L114.8217 168.4861 "/>
<path d="M115.5664 168.4861 L115.5664 165.8795 "/>
<path d="M115.5664 165.8795 L115.3182 166.2518 "/>
<path d="M115.3182 166.2518 L115.0699 166.5001 "/>
<path d="M115.0699 166.5001 L114.8217 166.6242 "/>
</g><text x="99.0795" y="97.7051" transform="scale(-1 1) translate(-198.159040 0)" textLength="5.6104" font-size="3.4755" lengthAdjust="spacingAndGlyphs" text-anchor="middle" opacity="0.01" style="font-family:monospace">C2</text>
<g class="stroked-text"><desc>C2</desc>
<path d="M98.6451 97.3377 L98.5210 97.4618 "/>
<path d="M98.5210 97.4618 L98.1486 97.5859 "/>
<path d="M98.1486 97.5859 L97.9003 97.5859 "/>
<path d="M97.9003 97.5859 L97.5280 97.4618 "/>
<path d="M97.5280 97.4618 L97.2797 97.2136 "/>
<path d="M97.2797 97.2136 L97.1556 96.9653 "/>
<path d="M97.1556 96.9653 L97.0315 96.4688 "/>
<path d="M97.0315 96.4688 L97.0315 96.0964 "/>
<path d="M97.0315 96.0964 L97.1556 95.5999 "/>
<path d="M97.1556 95.5999 L97.2797 95.3517 "/>
<path d="M97.2797 95.3517 L97.5280 95.1034 "/>
<path d="M97.5280 95.1034 L97.9003 94.9793 "/>
<path d="M97.9003 94.9793 L98.1486 94.9793 "/>
<path d="M98.1486 94.9793 L98.5210 95.1034 "/>
<path d="M98.5210 95.1034 L98.6451 95.2276 "/>
<path d="M99.6381 95.2276 L99.7622 95.1034 "/>
<path d="M99.7622 95.1034 L100.0105 94.9793 "/>
<path d="M100.0105 94.9793 L100.6311 94.9793 "/>
<path d="M100.6311 94.9793 L100.8793 95.1034 "/>
<path d="M100.8793 95.1034 L101.0035 95.2276 "/>
<path d="M101.0035 95.2276 L101.1276 95.4758 "/>
<path d="M101.1276 95.4758 L101.1276 95.7241 "/>
<path d="M101.1276 95.7241 L101.0035 96.0964 "/>
<path d="M101.0035 96.0964 L99.5140 97.5859 "/>
<path d="M99.5140 97.5859 L101.1276 97.5859 "/>
</g></g>
<g style="fill:#000084; fill-opacity:0.0;  stroke:#000084; stroke-width:0.5213; stroke-opacity:1;  stroke-linecap:round; stroke-linejoin:round;">
<path d="M80.7289 134.5366 L80.7289 128.0201 "/>
<path d="M80.7289 128.0201 L91.1554 128.0201 "/>
<path d="M91.1554 134.5366 L80.7289 134.5366 "/>
<path d="M91.1554 128.0201 L91.1554 134.5366 "/>
<path d="M107.4859 153.8778 L107.4859 160.3943 "/>
<path d="M107.4859 160.3943 L97.0594 160.3943 "/>
<path d="M97.0594 153.8778 L107.4859 153.8778 "/>
<path d="M97.0594 160.3943 L97.0594 153.8778 "/>
<path d="M38.9541 120.2836 L38.9541 126.8002 "/>
<path d="M38.9541 126.8002 L28.5276 126.8002 "/>
<path d="M28.5276 120.2836 L38.9541 120.2836 "/>
<path d="M28.5276 126.8002 L28.5276 120.2836 "/>
<path d="M67.2474 168.7616 L67.2474 160.4204 "/>
<path d="M67.2474 160.4204 L84.4511 160.4204 "/>
<path d="M71.9394 164.5910 L74.0247 164.5910 "/>
<path d="M74.0247 164.5910 L74.0247 167.4583 "/>
<path d="M74.0247 164.5910 L74.0247 161.7237 "/>
<path d="M74.0247 164.5910 L77.1526 162.5057 "/>
<path d="M77.1526 166.6763 L74.0247 164.5910 "/>
<path d="M77.1526 164.5910 L79.7592 164.5910 "/>
<path d="M77.1526 162.5057 L77.1526 166.6763 "/>
<path d="M84.4511 168.7616 L67.2474 168.7616 "/>
<path d="M84.4511 160.4204 L84.4511 168.7616 "/>
</g>
<g style="fill:#000084; fill-opacity:0.0;  stroke:#000084; stroke-width:0.7820; stroke-opacity:1;  stroke-linecap:round; stroke-linejoin:round;">
<path d="M55.6772 50.1477 L55.6772 64.9784 "/>
<path d="M55.4123 64.9784 L29.5911 64.9784 "/>
<path d="M29.8559 50.1477 L55.6772 50.1477 "/>
<path d="M29.4587 64.9784 L29.4587 50.1477 "/>
</g>
<g style="fill:#000084; fill-opacity:0.0;  stroke:#000084; stroke-width:0.5213; stroke-opacity:1;  stroke-linecap:round; stroke-linejoin:round;">
<path d="M152.3026 92.3615 L152.3026 98.8780 "/>
<path d="M152.3026 98.8780 L141.8761 98.8780 "/>
<path d="M141.8761 92.3615 L152.3026 92.3615 "/>
<path d="M141.8761 98.8780 L141.8761 92.3615 "/>
<path d="M199.8255 157.7226 L206.3421 157.7226 "/>
<path d="M206.3421 157.7226 L206.3421 168.1491 "/>
<path d="M199.8255 168.1491 L199.8255 157.7226 "/>
<path d="M206.3421 168.1491 L199.8255 168.1491 "/>
<path d="M50.0098 67.8592 L50.0098 74.3758 "/>
<path d="M50.0098 74.3758 L39.5833 74.3758 "/>
<path d="M39.5833 67.8592 L50.0098 67.8592 "/>
<path d="M39.5833 74.3758 L39.5833 67.8592 "/>
<path d="M127.9479 170.5602 L127.9479 164.0436 "/>
<path d="M127.9479 164.0436 L138.3744 164.0436 "/>
<path d="M138.3744 170.5602 L127.9479 170.5602 "/>
<path d="M138.3744 164.0436 L138.3744 170.5602 "/>
<path d="M185.3588 157.7226 L191.8753 157.7226 "/>
<path d="M191.8753 157.7226 L191.8753 168.1491 "/>
<path d="M185.3588 168.1491 L185.3588 157.7226 "/>
<path d="M191.8753 168.1491 L185.3588 168.1491 "/>
<path d="M74.5773 140.1930 L68.0607 140.1930 "/>
<path d="M68.0607 140.1930 L68.0607 129.7665 "/>
<path d="M74.5773 129.7665 L74.5773 140.1930 "/>
<path d="M68.0607 129.7665 L74.5773 129.7665 "/>
<path d="M80.7289 146.5271 L80.7289 140.0106 "/>
<path d="M80.7289 140.0106 L91.1554 140.0106 "/>
<path d="M91.1554 146.5271 L80.7289 146.5271 "/>
<path d="M91.1554 140.0106 L91.1554 146.5271 "/>
<path d="M38.9541 105.7178 L38.9541 112.2344 "/>
<path d="M38.9541 112.2344 L28.5276 112.2344 "/>
<path d="M28.5276 105.7178 L38.9541 105.7178 "/>
<path d="M28.5276 112.2344 L28.5276 105.7178 "/>
<path d="M84.3521 106.8282 L84.3521 96.4017 "/>
<path d="M47.8594 106.8282 L47.8594 96.4017 "/>
<path d="M47.8594 106.8282 A18.5699 18.5699 0.0 0 0 84.3521 106.8282"/>
<path d="M84.3521 96.4017 A18.5699 18.5699 0.0 0 0 47.8594 96.4017"/>
<path d="M122.9562 98.7998 L122.9562 92.2833 "/>
<path d="M122.9562 92.2833 L133.3827 92.2833 "/>
<path d="M133.3827 98.7998 L122.9562 98.7998 "/>
<path d="M133.3827 92.2833 L133.3827 98.7998 "/>
<path d="M107.9029 147.9608 L107.9029 112.5107 "/>
<path d="M107.9029 112.5107 L113.1162 107.2974 "/>
<path d="M113.1162 107.2974 L130.8412 107.2974 "/>
<path d="M130.8412 147.9608 L107.9029 147.9608 "/>
<path d="M130.8412 107.2974 L130.8412 147.9608 "/>
<path d="M213.2496 157.7226 L219.7662 157.7226 "/>
<path d="M219.7662 157.7226 L219.7662 168.1491 "/>
<path d="M213.2496 168.1491 L213.2496 157.7226 "/>
<path d="M219.7662 168.1491 L213.2496 168.1491 "/>
<path d="M119.4763 164.0436 L119.4763 170.5602 "/>
<path d="M119.4763 170.5602 L109.0499 170.5602 "/>
<path d="M109.0499 164.0436 L119.4763 164.0436 "/>
<path d="M109.0499 170.5602 L109.0499 164.0436 "/>
<path d="M93.8663 99.6600 L93.8663 93.1435 "/>
<path d="M93.8663 93.1435 L104.2928 93.1435 "/>
<path d="M104.2928 99.6600 L93.8663 99.6600 "/>
<path d="M104.2928 93.1435 L104.2928 99.6600 "/>
<g>
</g>
<g>
</g>
<g>
</g>
<g>
</g>
<g>
</g>
<g>
</g>
<g>
</g>
<g>
</g>
<g>
</g>
<g>
</g>
<g>
</g>
<g>
</g>
<g>
</g>
<g>
</g>
<g>
</g>
<g>
</g>
<g>
</g>
<g>
</g>
<g>
</g>
<g>
</g>
<g>
</g>
<g>
</g>
<g>
</g>
<g>
</g>
<g>
</g>
<g>
</g>
<g>
</g>
<g>
</g>
<g>
</g>
<g>
</g>
<g>
</g>
<g>
</g>
<g>
</g>
</g> 
<svg:g><svg:g><svg:title>SVG Image created as DRV10987V01-Edge_Cuts.svg date 2023/07/08 01:02:54 </svg:title>
  <svg:desc>Image generated by PCBNEW </svg:desc>
<svg:g style="fill:#C2C200; fill-opacity:1.0000;stroke:#C2C200; stroke-opacity:1.0000; stroke-linecap:round; stroke-linejoin:round;" transform="translate(0 0) scale(1 1)">
</svg:g>
<svg:g style="fill:#C2C200; fill-opacity:0.0;  stroke:#C2C200; stroke-width:0.0000; stroke-opacity:1;  stroke-linecap:round; stroke-linejoin:round;">
</svg:g>
<svg:g style="fill:#C2C200; fill-opacity:0.0;  stroke:#C2C200; stroke-width:0.7820; stroke-opacity:1;  stroke-linecap:round; stroke-linejoin:round;">
<svg:path style="fill:#C2C200; fill-opacity:0.0;  stroke:#C2C200; stroke-width:0.7820; stroke-opacity:1;  stroke-linecap:round; stroke-linejoin:round;fill:none" d="M 279.5934,0.3946 17.4088,0.3946 17.4088,209.6126 279.5934,209.6126 Z"/> 
</svg:g>
<svg:g style="fill:#C2C200; fill-opacity:0.0;  stroke:#C2C200; stroke-width:0.2607; stroke-opacity:1;  stroke-linecap:round; stroke-linejoin:round;">
<svg:path d="M48.3025 53.9138 L48.3025 61.2123 "/>
<svg:path d="M45.6959 51.3072 L39.4400 51.3072 "/>
<svg:path d="M45.6959 63.8190 L39.4400 63.8190 "/>
<svg:path d="M36.8334 53.9138 L36.8334 61.2123 "/>
<svg:path d="M48.3025 53.9138 A2.6066 2.6066 0.0 0 0 45.6959 51.3072"/>
<svg:path d="M45.6959 63.8190 A2.6066 2.6066 0.0 0 0 48.3025 61.2123"/>
<svg:path d="M39.4400 51.3072 A2.6066 2.6066 0.0 0 0 36.8334 53.9138"/>
<svg:path d="M36.8334 61.2123 A2.6066 2.6066 0.0 0 0 39.4400 63.8190"/>
<svg:g>
</svg:g>
<svg:g>
</svg:g>
<svg:g>
</svg:g>
<svg:g>
</svg:g>
<svg:g>
</svg:g>
<svg:g>
</svg:g>
<svg:g>
</svg:g>
<svg:g>
</svg:g>
<svg:g>
</svg:g>
<svg:g>
</svg:g>
<svg:g>
</svg:g>
<svg:g>
</svg:g>
<svg:g>
</svg:g>
<svg:g>
</svg:g>
<svg:g>
</svg:g>
<svg:g>
</svg:g>
<svg:g>
</svg:g>
<svg:g>
</svg:g>
<svg:g>
</svg:g>
<svg:g>
</svg:g>
<svg:g>
</svg:g>
<svg:g>
</svg:g>
<svg:g>
</svg:g>
<svg:g>
</svg:g>
<svg:g>
</svg:g>
<svg:g>
</svg:g>
<svg:g>
</svg:g>
<svg:g>
</svg:g>
<svg:g>
</svg:g>
<svg:g>
</svg:g>
<svg:g>
</svg:g>
<svg:g>
</svg:g>
<svg:g>
</svg:g>
</svg:g> 
</svg:g></svg:g></svg>
