<?xml version='1.0' encoding='ASCII' standalone='yes'?>
<svg xmlns:svg="http://www.w3.org/2000/svg" xmlns="http://www.w3.org/2000/svg" xmlns:xlink="http://www.w3.org/1999/xlink" version="1.1" width="297.0022mm" height="210.0072mm" viewBox="0.0000 0.0000 297.0022 210.0072">
<title>SVG Image created as DRV10987V01-B_Fab.svg date 2023/06/30 14:47:32 </title>
  <desc>Image generated by PCBNEW </desc>
<g style="fill:#000084; fill-opacity:1.0000;stroke:#000084; stroke-opacity:1.0000; stroke-linecap:round; stroke-linejoin:round;" transform="translate(0 0) scale(1 1)">
</g>
<g style="fill:#000084; fill-opacity:0.0;  stroke:#000084; stroke-width:0.0000; stroke-opacity:1;  stroke-linecap:round; stroke-linejoin:round;">
</g>
<g style="fill:#000084; fill-opacity:0.01;  stroke:#000084; stroke-width:0.7820; stroke-opacity:1;  stroke-linecap:round; stroke-linejoin:round;">
<g transform="rotate(-180.000000 31.9746 57.2982)">
<text x="31.9746" y="59.9048" textLength="6.1256" font-size="6.9510" lengthAdjust="spacingAndGlyphs" text-anchor="middle" opacity="0.01" style="font-family:monospace">K</text>
</g>
<g class="stroked-text"><desc>K</desc>
<path d="M33.3400 54.9271 L33.3400 60.1404 "/>
<path d="M30.3610 54.9271 L32.5952 57.9061 "/>
<path d="M30.3610 60.1404 L33.3400 57.1614 "/>
</g><text x="115.7619" y="2.9804" transform="scale(-1 1) translate(-231.523827 0)" textLength="22.0136" font-size="6.9510" lengthAdjust="spacingAndGlyphs" text-anchor="middle" opacity="0.01" style="font-family:monospace">WAGO</text>
<g class="stroked-text"><desc>WAGO</desc>
<path d="M125.5678 -2.4684 L124.3265 2.7448 "/>
<path d="M124.3265 2.7448 L123.3335 -0.9789 "/>
<path d="M123.3335 -0.9789 L122.3405 2.7448 "/>
<path d="M122.3405 2.7448 L121.0993 -2.4684 "/>
<path d="M119.3615 1.2553 L116.8790 1.2553 "/>
<path d="M119.8580 2.7448 L118.1203 -2.4684 "/>
<path d="M118.1203 -2.4684 L116.3825 2.7448 "/>
<path d="M111.9140 -2.2202 L112.4105 -2.4684 "/>
<path d="M112.4105 -2.4684 L113.1553 -2.4684 "/>
<path d="M113.1553 -2.4684 L113.9000 -2.2202 "/>
<path d="M113.9000 -2.2202 L114.3965 -1.7237 "/>
<path d="M114.3965 -1.7237 L114.6448 -1.2272 "/>
<path d="M114.6448 -1.2272 L114.8930 -0.2342 "/>
<path d="M114.8930 -0.2342 L114.8930 0.5106 "/>
<path d="M114.8930 0.5106 L114.6448 1.5036 "/>
<path d="M114.6448 1.5036 L114.3965 2.0001 "/>
<path d="M114.3965 2.0001 L113.9000 2.4966 "/>
<path d="M113.9000 2.4966 L113.1553 2.7448 "/>
<path d="M113.1553 2.7448 L112.6588 2.7448 "/>
<path d="M112.6588 2.7448 L111.9140 2.4966 "/>
<path d="M111.9140 2.4966 L111.6658 2.2483 "/>
<path d="M111.6658 2.2483 L111.6658 0.5106 "/>
<path d="M111.6658 0.5106 L112.6588 0.5106 "/>
<path d="M108.4385 -2.4684 L107.4455 -2.4684 "/>
<path d="M107.4455 -2.4684 L106.9490 -2.2202 "/>
<path d="M106.9490 -2.2202 L106.4525 -1.7237 "/>
<path d="M106.4525 -1.7237 L106.2043 -0.7307 "/>
<path d="M106.2043 -0.7307 L106.2043 1.0071 "/>
<path d="M106.2043 1.0071 L106.4525 2.0001 "/>
<path d="M106.4525 2.0001 L106.9490 2.4966 "/>
<path d="M106.9490 2.4966 L107.4455 2.7448 "/>
<path d="M107.4455 2.7448 L108.4385 2.7448 "/>
<path d="M108.4385 2.7448 L108.9350 2.4966 "/>
<path d="M108.9350 2.4966 L109.4315 2.0001 "/>
<path d="M109.4315 2.0001 L109.6798 1.0071 "/>
<path d="M109.6798 1.0071 L109.6798 -0.7307 "/>
<path d="M109.6798 -0.7307 L109.4315 -1.7237 "/>
<path d="M109.4315 -1.7237 L108.9350 -2.2202 "/>
<path d="M108.9350 -2.2202 L108.4385 -2.4684 "/>
</g><text x="115.7619" y="50.5252" transform="scale(-1 1) translate(-231.523827 0)" textLength="14.8143" font-size="6.9510" lengthAdjust="spacingAndGlyphs" text-anchor="middle" opacity="0.01" style="font-family:monospace">J11</text>
<g class="stroked-text"><desc>J11</desc>
<path d="M119.9822 45.0764 L119.9822 48.8001 "/>
<path d="M119.9822 48.8001 L120.2304 49.5449 "/>
<path d="M120.2304 49.5449 L120.7269 50.0414 "/>
<path d="M120.7269 50.0414 L121.4717 50.2896 "/>
<path d="M121.4717 50.2896 L121.9682 50.2896 "/>
<path d="M114.7689 50.2896 L117.7479 50.2896 "/>
<path d="M116.2584 50.2896 L116.2584 45.0764 "/>
<path d="M116.2584 45.0764 L116.7549 45.8211 "/>
<path d="M116.7549 45.8211 L117.2514 46.3176 "/>
<path d="M117.2514 46.3176 L117.7479 46.5659 "/>
<path d="M109.8039 50.2896 L112.7829 50.2896 "/>
<path d="M111.2934 50.2896 L111.2934 45.0764 "/>
<path d="M111.2934 45.0764 L111.7899 45.8211 "/>
<path d="M111.7899 45.8211 L112.2864 46.3176 "/>
<path d="M112.2864 46.3176 L112.7829 46.5659 "/>
</g><g transform="rotate(-90.000000 233.4510 105.0036)">
<text x="233.4510" y="107.6102" transform="scale(-1 1) translate(-466.901912 0)" textLength="14.8143" font-size="6.9510" lengthAdjust="spacingAndGlyphs" text-anchor="middle" opacity="0.01" style="font-family:monospace">J12</text>
</g>
<g class="stroked-text"><desc>J12</desc>
<path d="M230.6088 100.7834 L234.3325 100.7834 "/>
<path d="M234.3325 100.7834 L235.0773 100.5351 "/>
<path d="M235.0773 100.5351 L235.5738 100.0386 "/>
<path d="M235.5738 100.0386 L235.8220 99.2939 "/>
<path d="M235.8220 99.2939 L235.8220 98.7974 "/>
<path d="M235.8220 105.9966 L235.8220 103.0176 "/>
<path d="M235.8220 104.5071 L230.6088 104.5071 "/>
<path d="M230.6088 104.5071 L231.3535 104.0106 "/>
<path d="M231.3535 104.0106 L231.8500 103.5141 "/>
<path d="M231.8500 103.5141 L232.0983 103.0176 "/>
<path d="M231.1053 107.9826 L230.8570 108.2309 "/>
<path d="M230.8570 108.2309 L230.6088 108.7274 "/>
<path d="M230.6088 108.7274 L230.6088 109.9686 "/>
<path d="M230.6088 109.9686 L230.8570 110.4651 "/>
<path d="M230.8570 110.4651 L231.1053 110.7133 "/>
<path d="M231.1053 110.7133 L231.6018 110.9616 "/>
<path d="M231.6018 110.9616 L232.0983 110.9616 "/>
<path d="M232.0983 110.9616 L232.8430 110.7133 "/>
<path d="M232.8430 110.7133 L235.8220 107.7344 "/>
<path d="M235.8220 107.7344 L235.8220 110.9616 "/>
</g></g>
<g style="fill:#000084; fill-opacity:0.0;  stroke:#000084; stroke-width:1.9862; stroke-opacity:1;  stroke-linecap:round; stroke-linejoin:round;">
<circle cx="254.4343" cy="25.5537" r="15.6384"/> 
</g>
<g style="fill:#000084; fill-opacity:0.0;  stroke:#000084; stroke-width:0.5213; stroke-opacity:1;  stroke-linecap:round; stroke-linejoin:round;">
<path d="M83.7004 11.4258 L83.7004 79.1980 "/>
<path d="M83.7004 11.4258 L147.8234 11.4258 "/>
<path d="M83.7004 41.1413 L147.8234 41.1413 "/>
<path d="M83.7004 55.7384 L147.8234 55.7384 "/>
<path d="M83.7004 79.1980 L147.8234 79.1980 "/>
<path d="M88.9137 6.2126 L83.7004 11.4258 "/>
<path d="M91.5203 6.2126 L117.5865 6.2126 "/>
<path d="M91.5203 79.1980 L91.5203 6.2126 "/>
<path d="M94.1269 12.9898 L114.9799 12.9898 "/>
<path d="M94.1269 30.1935 L94.1269 12.9898 "/>
<path d="M94.1269 33.8428 L114.9799 33.8428 "/>
<path d="M94.1269 39.0560 L94.1269 33.8428 "/>
<path d="M101.9468 64.3403 L107.1601 64.3403 "/>
<path d="M101.9468 77.3734 L101.9468 64.3403 "/>
<path d="M107.1601 64.3403 L107.1601 77.3734 "/>
<path d="M107.1601 77.3734 L101.9468 77.3734 "/>
<path d="M114.9799 12.9898 L114.9799 30.1935 "/>
<path d="M114.9799 30.1935 L94.1269 30.1935 "/>
<path d="M114.9799 33.8428 L114.9799 39.0560 "/>
<path d="M114.9799 39.0560 L94.1269 39.0560 "/>
<path d="M117.5865 6.2126 L117.5865 79.1980 "/>
<path d="M117.5865 6.2126 L143.6528 6.2126 "/>
<path d="M117.5865 79.1980 L91.5203 79.1980 "/>
<path d="M117.5865 79.1980 L117.5865 6.2126 "/>
<path d="M120.1932 12.9898 L141.0462 12.9898 "/>
<path d="M120.1932 30.1935 L120.1932 12.9898 "/>
<path d="M120.1932 33.8428 L141.0462 33.8428 "/>
<path d="M120.1932 39.0560 L120.1932 33.8428 "/>
<path d="M128.0130 64.3403 L133.2263 64.3403 "/>
<path d="M128.0130 77.3734 L128.0130 64.3403 "/>
<path d="M133.2263 64.3403 L133.2263 77.3734 "/>
<path d="M133.2263 77.3734 L128.0130 77.3734 "/>
<path d="M141.0462 12.9898 L141.0462 30.1935 "/>
<path d="M141.0462 30.1935 L120.1932 30.1935 "/>
<path d="M141.0462 33.8428 L141.0462 39.0560 "/>
<path d="M141.0462 39.0560 L120.1932 39.0560 "/>
<path d="M143.6528 6.2126 L143.6528 79.1980 "/>
<path d="M143.6528 79.1980 L117.5865 79.1980 "/>
<path d="M147.8234 6.2126 L88.9137 6.2126 "/>
<path d="M147.8234 79.1980 L147.8234 6.2126 "/>
</g>
<g style="fill:#000084; fill-opacity:0.0;  stroke:#000084; stroke-width:1.9862; stroke-opacity:1;  stroke-linecap:round; stroke-linejoin:round;">
<circle cx="254.4343" cy="184.4535" r="15.6384"/> 
</g>
<g style="fill:#000084; fill-opacity:0.0;  stroke:#000084; stroke-width:0.7820; stroke-opacity:1;  stroke-linecap:round; stroke-linejoin:round;">
<path d="M25.4424 156.9797 L65.1674 156.9797 "/>
<path d="M65.1674 156.9797 L65.1674 130.4964 "/>
<path d="M25.4424 130.4964 L25.4424 156.9797 "/>
<path d="M65.1674 130.4964 L25.4424 130.4964 "/>
</g>
<g style="fill:#000084; fill-opacity:0.0;  stroke:#000084; stroke-width:1.9862; stroke-opacity:1;  stroke-linecap:round; stroke-linejoin:round;">
<circle cx="42.5679" cy="184.4535" r="15.6384"/> 
<circle cx="42.5679" cy="25.5537" r="15.6384"/> 
</g>
<g style="fill:#000084; fill-opacity:0.0;  stroke:#000084; stroke-width:0.7820; stroke-opacity:1;  stroke-linecap:round; stroke-linejoin:round;">
<path d="M183.1692 199.5980 L222.8941 199.5980 "/>
<path d="M222.8941 199.5980 L222.8941 173.1147 "/>
<path d="M183.1692 173.1147 L183.1692 199.5980 "/>
<path d="M222.8941 173.1147 L183.1692 173.1147 "/>
</g>
<g style="fill:#000084; fill-opacity:0.0;  stroke:#000084; stroke-width:0.5213; stroke-opacity:1;  stroke-linecap:round; stroke-linejoin:round;">
<path d="M269.9437 59.9090 L202.1715 59.9090 "/>
<path d="M269.9437 59.9090 L269.9437 150.0982 "/>
<path d="M240.2282 59.9090 L240.2282 150.0982 "/>
<path d="M225.6311 59.9090 L225.6311 150.0982 "/>
<path d="M202.1715 59.9090 L202.1715 150.0982 "/>
<path d="M275.1569 65.1223 L269.9437 59.9090 "/>
<path d="M275.1569 67.7289 L275.1569 93.7951 "/>
<path d="M202.1715 67.7289 L275.1569 67.7289 "/>
<path d="M268.3797 70.3355 L268.3797 91.1885 "/>
<path d="M251.1760 70.3355 L268.3797 70.3355 "/>
<path d="M247.5267 70.3355 L247.5267 91.1885 "/>
<path d="M242.3135 70.3355 L247.5267 70.3355 "/>
<path d="M217.0292 78.1554 L217.0292 83.3686 "/>
<path d="M203.9961 78.1554 L217.0292 78.1554 "/>
<path d="M217.0292 83.3686 L203.9961 83.3686 "/>
<path d="M203.9961 83.3686 L203.9961 78.1554 "/>
<path d="M268.3797 91.1885 L251.1760 91.1885 "/>
<path d="M251.1760 91.1885 L251.1760 70.3355 "/>
<path d="M247.5267 91.1885 L242.3135 91.1885 "/>
<path d="M242.3135 91.1885 L242.3135 70.3355 "/>
<path d="M275.1569 93.7951 L202.1715 93.7951 "/>
<path d="M275.1569 93.7951 L275.1569 119.8614 "/>
<path d="M202.1715 93.7951 L202.1715 67.7289 "/>
<path d="M202.1715 93.7951 L275.1569 93.7951 "/>
<path d="M268.3797 96.4017 L268.3797 117.2547 "/>
<path d="M251.1760 96.4017 L268.3797 96.4017 "/>
<path d="M247.5267 96.4017 L247.5267 117.2547 "/>
<path d="M242.3135 96.4017 L247.5267 96.4017 "/>
<path d="M217.0292 104.2216 L217.0292 109.4349 "/>
<path d="M203.9961 104.2216 L217.0292 104.2216 "/>
<path d="M217.0292 109.4349 L203.9961 109.4349 "/>
<path d="M203.9961 109.4349 L203.9961 104.2216 "/>
<path d="M268.3797 117.2547 L251.1760 117.2547 "/>
<path d="M251.1760 117.2547 L251.1760 96.4017 "/>
<path d="M247.5267 117.2547 L242.3135 117.2547 "/>
<path d="M242.3135 117.2547 L242.3135 96.4017 "/>
<path d="M275.1569 119.8614 L202.1715 119.8614 "/>
<path d="M275.1569 119.8614 L275.1569 145.9276 "/>
<path d="M202.1715 119.8614 L202.1715 93.7951 "/>
<path d="M202.1715 119.8614 L275.1569 119.8614 "/>
<path d="M268.3797 122.4680 L268.3797 143.3210 "/>
<path d="M251.1760 122.4680 L268.3797 122.4680 "/>
<path d="M247.5267 122.4680 L247.5267 143.3210 "/>
<path d="M242.3135 122.4680 L247.5267 122.4680 "/>
<path d="M217.0292 130.2878 L217.0292 135.5011 "/>
<path d="M203.9961 130.2878 L217.0292 130.2878 "/>
<path d="M217.0292 135.5011 L203.9961 135.5011 "/>
<path d="M203.9961 135.5011 L203.9961 130.2878 "/>
<path d="M268.3797 143.3210 L251.1760 143.3210 "/>
<path d="M251.1760 143.3210 L251.1760 122.4680 "/>
<path d="M247.5267 143.3210 L242.3135 143.3210 "/>
<path d="M242.3135 143.3210 L242.3135 122.4680 "/>
<path d="M275.1569 145.9276 L202.1715 145.9276 "/>
<path d="M202.1715 145.9276 L202.1715 119.8614 "/>
<path d="M275.1569 150.0982 L275.1569 65.1223 "/>
<path d="M202.1715 150.0982 L275.1569 150.0982 "/>
</g>
<g style="fill:#000084; fill-opacity:0.0;  stroke:#000084; stroke-width:0.7820; stroke-opacity:1;  stroke-linecap:round; stroke-linejoin:round;">
<path d="M145.8163 102.6576 L145.8163 142.3826 "/>
<path d="M145.8163 142.3826 L172.2996 142.3826 "/>
<path d="M172.2996 102.6576 L145.8163 102.6576 "/>
<path d="M172.2996 142.3826 L172.2996 102.6576 "/>
<g>
</g>
<g>
</g>
<g>
</g>
<g>
</g>
<g>
</g>
<g>
</g>
<g>
</g>
<g>
</g>
<g>
</g>
<g>
</g>
<g>
</g>
<g>
</g>
<g>
</g>
<g>
</g>
<g>
</g>
<g>
</g>
<g>
</g>
<g>
</g>
<g>
</g>
<g>
</g>
<g>
</g>
<g>
</g>
<g>
</g>
<g>
</g>
<g>
</g>
<g>
</g>
<g>
</g>
<g>
</g>
<g>
</g>
<g>
</g>
<g>
</g>
<g>
</g>
<g>
</g>
</g> 
<svg:g><svg:g><svg:title>SVG Image created as DRV10987V01-Edge_Cuts.svg date 2023/06/30 14:47:32 </svg:title>
  <svg:desc>Image generated by PCBNEW </svg:desc>
<svg:g style="fill:#C2C200; fill-opacity:1.0000;stroke:#C2C200; stroke-opacity:1.0000; stroke-linecap:round; stroke-linejoin:round;" transform="translate(0 0) scale(1 1)">
</svg:g>
<svg:g style="fill:#C2C200; fill-opacity:0.0;  stroke:#C2C200; stroke-width:0.0000; stroke-opacity:1;  stroke-linecap:round; stroke-linejoin:round;">
</svg:g>
<svg:g style="fill:#C2C200; fill-opacity:0.0;  stroke:#C2C200; stroke-width:0.7820; stroke-opacity:1;  stroke-linecap:round; stroke-linejoin:round;">
<svg:path style="fill:#C2C200; fill-opacity:0.0;  stroke:#C2C200; stroke-width:0.7820; stroke-opacity:1;  stroke-linecap:round; stroke-linejoin:round;fill:none" d="M 17.4088,0.3946 279.5934,0.3946 279.5934,209.6126 17.4088,209.6126 Z"/> 
</svg:g>
<svg:g style="fill:#C2C200; fill-opacity:0.0;  stroke:#C2C200; stroke-width:0.2607; stroke-opacity:1;  stroke-linecap:round; stroke-linejoin:round;">
<svg:path d="M48.3025 53.9138 L48.3025 61.2123 "/>
<svg:path d="M45.6959 63.8190 L39.4400 63.8190 "/>
<svg:path d="M45.6959 51.3072 L39.4400 51.3072 "/>
<svg:path d="M36.8334 53.9138 L36.8334 61.2123 "/>
<svg:path d="M45.6959 63.8190 A2.6066 2.6066 0.0 0 0 48.3025 61.2123"/>
<svg:path d="M48.3025 53.9138 A2.6066 2.6066 0.0 0 0 45.6959 51.3072"/>
<svg:path d="M36.8334 61.2123 A2.6066 2.6066 0.0 0 0 39.4400 63.8190"/>
<svg:path d="M39.4400 51.3072 A2.6066 2.6066 0.0 0 0 36.8334 53.9138"/>
<svg:g>
</svg:g>
<svg:g>
</svg:g>
<svg:g>
</svg:g>
<svg:g>
</svg:g>
<svg:g>
</svg:g>
<svg:g>
</svg:g>
<svg:g>
</svg:g>
<svg:g>
</svg:g>
<svg:g>
</svg:g>
<svg:g>
</svg:g>
<svg:g>
</svg:g>
<svg:g>
</svg:g>
<svg:g>
</svg:g>
<svg:g>
</svg:g>
<svg:g>
</svg:g>
<svg:g>
</svg:g>
<svg:g>
</svg:g>
<svg:g>
</svg:g>
<svg:g>
</svg:g>
<svg:g>
</svg:g>
<svg:g>
</svg:g>
<svg:g>
</svg:g>
<svg:g>
</svg:g>
<svg:g>
</svg:g>
<svg:g>
</svg:g>
<svg:g>
</svg:g>
<svg:g>
</svg:g>
<svg:g>
</svg:g>
<svg:g>
</svg:g>
<svg:g>
</svg:g>
<svg:g>
</svg:g>
<svg:g>
</svg:g>
<svg:g>
</svg:g>
</svg:g> 
</svg:g></svg:g></svg>
