<?xml version='1.0' encoding='ASCII' standalone='yes'?>
<svg xmlns:svg="http://www.w3.org/2000/svg" xmlns="http://www.w3.org/2000/svg" xmlns:xlink="http://www.w3.org/1999/xlink" version="1.1" width="297.0022mm" height="210.0072mm" viewBox="0.0000 0.0000 297.0022 210.0072">
<title>SVG Image created as DRV10987V01-B_Fab.svg date 2023/06/30 19:55:22 </title>
  <desc>Image generated by PCBNEW </desc>
<g style="fill:#000084; fill-opacity:1.0000;stroke:#000084; stroke-opacity:1.0000; stroke-linecap:round; stroke-linejoin:round;" transform="translate(0 0) scale(1 1)">
</g>
<g style="fill:#000084; fill-opacity:0.0;  stroke:#000084; stroke-width:0.0000; stroke-opacity:1;  stroke-linecap:round; stroke-linejoin:round;">
</g>
<g style="fill:#000084; fill-opacity:0.01;  stroke:#000084; stroke-width:0.7820; stroke-opacity:1;  stroke-linecap:round; stroke-linejoin:round;">
<text x="211.0601" y="142.6432" transform="scale(-1 1) translate(-422.120123 0)" textLength="15.0626" font-size="6.9510" lengthAdjust="spacingAndGlyphs" text-anchor="middle" opacity="0.01" style="font-family:monospace">1uF</text>
<g class="stroked-text"><desc>1uF</desc>
<path d="M214.1632 142.4077 L217.1422 142.4077 "/>
<path d="M215.6527 142.4077 L215.6527 137.1945 "/>
<path d="M215.6527 137.1945 L216.1492 137.9392 "/>
<path d="M216.1492 137.9392 L216.6457 138.4357 "/>
<path d="M216.6457 138.4357 L217.1422 138.6840 "/>
<path d="M209.6947 138.9322 L209.6947 142.4077 "/>
<path d="M211.9289 138.9322 L211.9289 141.6629 "/>
<path d="M211.9289 141.6629 L211.6807 142.1595 "/>
<path d="M211.6807 142.1595 L211.1842 142.4077 "/>
<path d="M211.1842 142.4077 L210.4394 142.4077 "/>
<path d="M210.4394 142.4077 L209.9429 142.1595 "/>
<path d="M209.9429 142.1595 L209.6947 141.9112 "/>
<path d="M205.4744 139.6770 L207.2122 139.6770 "/>
<path d="M207.2122 142.4077 L207.2122 137.1945 "/>
<path d="M207.2122 137.1945 L204.7297 137.1945 "/>
</g></g>
<g style="fill:#000084; fill-opacity:0.01;  stroke:#000084; stroke-width:0.4171; stroke-opacity:1;  stroke-linecap:round; stroke-linejoin:round;">
<text x="211.0601" y="132.5817" transform="scale(-1 1) translate(-422.120123 0)" textLength="5.6104" font-size="3.4755" lengthAdjust="spacingAndGlyphs" text-anchor="middle" opacity="0.01" style="font-family:monospace">C5</text>
<g class="stroked-text"><desc>C5</desc>
<path d="M211.4945 132.2143 L211.6186 132.3384 "/>
<path d="M211.6186 132.3384 L211.9910 132.4625 "/>
<path d="M211.9910 132.4625 L212.2392 132.4625 "/>
<path d="M212.2392 132.4625 L212.6116 132.3384 "/>
<path d="M212.6116 132.3384 L212.8599 132.0902 "/>
<path d="M212.8599 132.0902 L212.9840 131.8419 "/>
<path d="M212.9840 131.8419 L213.1081 131.3454 "/>
<path d="M213.1081 131.3454 L213.1081 130.9731 "/>
<path d="M213.1081 130.9731 L212.9840 130.4766 "/>
<path d="M212.9840 130.4766 L212.8599 130.2283 "/>
<path d="M212.8599 130.2283 L212.6116 129.9801 "/>
<path d="M212.6116 129.9801 L212.2392 129.8559 "/>
<path d="M212.2392 129.8559 L211.9910 129.8559 "/>
<path d="M211.9910 129.8559 L211.6186 129.9801 "/>
<path d="M211.6186 129.9801 L211.4945 130.1042 "/>
<path d="M209.1361 129.8559 L210.3774 129.8559 "/>
<path d="M210.3774 129.8559 L210.5015 131.0972 "/>
<path d="M210.5015 131.0972 L210.3774 130.9731 "/>
<path d="M210.3774 130.9731 L210.1291 130.8489 "/>
<path d="M210.1291 130.8489 L209.5085 130.8489 "/>
<path d="M209.5085 130.8489 L209.2602 130.9731 "/>
<path d="M209.2602 130.9731 L209.1361 131.0972 "/>
<path d="M209.1361 131.0972 L209.0120 131.3454 "/>
<path d="M209.0120 131.3454 L209.0120 131.9660 "/>
<path d="M209.0120 131.9660 L209.1361 132.2143 "/>
<path d="M209.1361 132.2143 L209.2602 132.3384 "/>
<path d="M209.2602 132.3384 L209.5085 132.4625 "/>
<path d="M209.5085 132.4625 L210.1291 132.4625 "/>
<path d="M210.1291 132.4625 L210.3774 132.3384 "/>
<path d="M210.3774 132.3384 L210.5015 132.2143 "/>
</g></g>
<g style="fill:#000084; fill-opacity:0.01;  stroke:#000084; stroke-width:0.7820; stroke-opacity:1;  stroke-linecap:round; stroke-linejoin:round;">
<text x="194.7296" y="151.1408" transform="scale(-1 1) translate(-389.459133 0)" textLength="21.0206" font-size="6.9510" lengthAdjust="spacingAndGlyphs" text-anchor="middle" opacity="0.01" style="font-family:monospace">100R</text>
<g class="stroked-text"><desc>100R</desc>
<path d="M200.8117 150.9053 L203.7907 150.9053 "/>
<path d="M202.3012 150.9053 L202.3012 145.6920 "/>
<path d="M202.3012 145.6920 L202.7977 146.4368 "/>
<path d="M202.7977 146.4368 L203.2942 146.9333 "/>
<path d="M203.2942 146.9333 L203.7907 147.1815 "/>
<path d="M197.5844 145.6920 L197.0879 145.6920 "/>
<path d="M197.0879 145.6920 L196.5914 145.9403 "/>
<path d="M196.5914 145.9403 L196.3432 146.1885 "/>
<path d="M196.3432 146.1885 L196.0949 146.6850 "/>
<path d="M196.0949 146.6850 L195.8467 147.6780 "/>
<path d="M195.8467 147.6780 L195.8467 148.9193 "/>
<path d="M195.8467 148.9193 L196.0949 149.9123 "/>
<path d="M196.0949 149.9123 L196.3432 150.4088 "/>
<path d="M196.3432 150.4088 L196.5914 150.6570 "/>
<path d="M196.5914 150.6570 L197.0879 150.9053 "/>
<path d="M197.0879 150.9053 L197.5844 150.9053 "/>
<path d="M197.5844 150.9053 L198.0809 150.6570 "/>
<path d="M198.0809 150.6570 L198.3292 150.4088 "/>
<path d="M198.3292 150.4088 L198.5774 149.9123 "/>
<path d="M198.5774 149.9123 L198.8257 148.9193 "/>
<path d="M198.8257 148.9193 L198.8257 147.6780 "/>
<path d="M198.8257 147.6780 L198.5774 146.6850 "/>
<path d="M198.5774 146.6850 L198.3292 146.1885 "/>
<path d="M198.3292 146.1885 L198.0809 145.9403 "/>
<path d="M198.0809 145.9403 L197.5844 145.6920 "/>
<path d="M192.6194 145.6920 L192.1229 145.6920 "/>
<path d="M192.1229 145.6920 L191.6264 145.9403 "/>
<path d="M191.6264 145.9403 L191.3782 146.1885 "/>
<path d="M191.3782 146.1885 L191.1299 146.6850 "/>
<path d="M191.1299 146.6850 L190.8817 147.6780 "/>
<path d="M190.8817 147.6780 L190.8817 148.9193 "/>
<path d="M190.8817 148.9193 L191.1299 149.9123 "/>
<path d="M191.1299 149.9123 L191.3782 150.4088 "/>
<path d="M191.3782 150.4088 L191.6264 150.6570 "/>
<path d="M191.6264 150.6570 L192.1229 150.9053 "/>
<path d="M192.1229 150.9053 L192.6194 150.9053 "/>
<path d="M192.6194 150.9053 L193.1159 150.6570 "/>
<path d="M193.1159 150.6570 L193.3642 150.4088 "/>
<path d="M193.3642 150.4088 L193.6124 149.9123 "/>
<path d="M193.6124 149.9123 L193.8607 148.9193 "/>
<path d="M193.8607 148.9193 L193.8607 147.6780 "/>
<path d="M193.8607 147.6780 L193.6124 146.6850 "/>
<path d="M193.6124 146.6850 L193.3642 146.1885 "/>
<path d="M193.3642 146.1885 L193.1159 145.9403 "/>
<path d="M193.1159 145.9403 L192.6194 145.6920 "/>
<path d="M185.6684 150.9053 L187.4062 148.4228 "/>
<path d="M188.6474 150.9053 L188.6474 145.6920 "/>
<path d="M188.6474 145.6920 L186.6614 145.6920 "/>
<path d="M186.6614 145.6920 L186.1649 145.9403 "/>
<path d="M186.1649 145.9403 L185.9167 146.1885 "/>
<path d="M185.9167 146.1885 L185.6684 146.6850 "/>
<path d="M185.6684 146.6850 L185.6684 147.4298 "/>
<path d="M185.6684 147.4298 L185.9167 147.9263 "/>
<path d="M185.9167 147.9263 L186.1649 148.1745 "/>
<path d="M186.1649 148.1745 L186.6614 148.4228 "/>
<path d="M186.6614 148.4228 L188.6474 148.4228 "/>
</g></g>
<g style="fill:#000084; fill-opacity:0.01;  stroke:#000084; stroke-width:0.4171; stroke-opacity:1;  stroke-linecap:round; stroke-linejoin:round;">
<text x="194.7296" y="158.4394" transform="scale(-1 1) translate(-389.459133 0)" textLength="5.6104" font-size="3.4755" lengthAdjust="spacingAndGlyphs" text-anchor="middle" opacity="0.01" style="font-family:monospace">R7</text>
<g class="stroked-text"><desc>R7</desc>
<path d="M195.1640 158.3203 L196.0329 157.0790 "/>
<path d="M196.6535 158.3203 L196.6535 155.7136 "/>
<path d="M196.6535 155.7136 L195.6605 155.7136 "/>
<path d="M195.6605 155.7136 L195.4123 155.8378 "/>
<path d="M195.4123 155.8378 L195.2881 155.9619 "/>
<path d="M195.2881 155.9619 L195.1640 156.2101 "/>
<path d="M195.1640 156.2101 L195.1640 156.5825 "/>
<path d="M195.1640 156.5825 L195.2881 156.8308 "/>
<path d="M195.2881 156.8308 L195.4123 156.9549 "/>
<path d="M195.4123 156.9549 L195.6605 157.0790 "/>
<path d="M195.6605 157.0790 L196.6535 157.0790 "/>
<path d="M194.2951 155.7136 L192.5574 155.7136 "/>
<path d="M192.5574 155.7136 L193.6745 158.3203 "/>
</g></g>
<g style="fill:#000084; fill-opacity:0.01;  stroke:#000084; stroke-width:0.7820; stroke-opacity:1;  stroke-linecap:round; stroke-linejoin:round;">
<text x="263.2613" y="117.3903" transform="scale(-1 1) translate(-526.522685 0)" textLength="20.0276" font-size="6.9510" lengthAdjust="spacingAndGlyphs" text-anchor="middle" opacity="0.01" style="font-family:monospace">10uF</text>
<g class="stroked-text"><desc>10uF</desc>
<path d="M268.8470 117.1547 L271.8260 117.1547 "/>
<path d="M270.3365 117.1547 L270.3365 111.9415 "/>
<path d="M270.3365 111.9415 L270.8330 112.6862 "/>
<path d="M270.8330 112.6862 L271.3295 113.1827 "/>
<path d="M271.3295 113.1827 L271.8260 113.4310 "/>
<path d="M265.6197 111.9415 L265.1232 111.9415 "/>
<path d="M265.1232 111.9415 L264.6267 112.1897 "/>
<path d="M264.6267 112.1897 L264.3785 112.4380 "/>
<path d="M264.3785 112.4380 L264.1302 112.9345 "/>
<path d="M264.1302 112.9345 L263.8820 113.9275 "/>
<path d="M263.8820 113.9275 L263.8820 115.1687 "/>
<path d="M263.8820 115.1687 L264.1302 116.1617 "/>
<path d="M264.1302 116.1617 L264.3785 116.6582 "/>
<path d="M264.3785 116.6582 L264.6267 116.9065 "/>
<path d="M264.6267 116.9065 L265.1232 117.1547 "/>
<path d="M265.1232 117.1547 L265.6197 117.1547 "/>
<path d="M265.6197 117.1547 L266.1162 116.9065 "/>
<path d="M266.1162 116.9065 L266.3645 116.6582 "/>
<path d="M266.3645 116.6582 L266.6127 116.1617 "/>
<path d="M266.6127 116.1617 L266.8610 115.1687 "/>
<path d="M266.8610 115.1687 L266.8610 113.9275 "/>
<path d="M266.8610 113.9275 L266.6127 112.9345 "/>
<path d="M266.6127 112.9345 L266.3645 112.4380 "/>
<path d="M266.3645 112.4380 L266.1162 112.1897 "/>
<path d="M266.1162 112.1897 L265.6197 111.9415 "/>
<path d="M259.4135 113.6792 L259.4135 117.1547 "/>
<path d="M261.6477 113.6792 L261.6477 116.4100 "/>
<path d="M261.6477 116.4100 L261.3995 116.9065 "/>
<path d="M261.3995 116.9065 L260.9030 117.1547 "/>
<path d="M260.9030 117.1547 L260.1582 117.1547 "/>
<path d="M260.1582 117.1547 L259.6617 116.9065 "/>
<path d="M259.6617 116.9065 L259.4135 116.6582 "/>
<path d="M255.1932 114.4240 L256.9310 114.4240 "/>
<path d="M256.9310 117.1547 L256.9310 111.9415 "/>
<path d="M256.9310 111.9415 L254.4485 111.9415 "/>
</g></g>
<g style="fill:#000084; fill-opacity:0.01;  stroke:#000084; stroke-width:0.4171; stroke-opacity:1;  stroke-linecap:round; stroke-linejoin:round;">
<text x="263.2613" y="124.8452" transform="scale(-1 1) translate(-526.522685 0)" textLength="5.6104" font-size="3.4755" lengthAdjust="spacingAndGlyphs" text-anchor="middle" opacity="0.01" style="font-family:monospace">C7</text>
<g class="stroked-text"><desc>C7</desc>
<path d="M263.6958 124.4778 L263.8199 124.6020 "/>
<path d="M263.8199 124.6020 L264.1923 124.7261 "/>
<path d="M264.1923 124.7261 L264.4405 124.7261 "/>
<path d="M264.4405 124.7261 L264.8129 124.6020 "/>
<path d="M264.8129 124.6020 L265.0611 124.3537 "/>
<path d="M265.0611 124.3537 L265.1853 124.1055 "/>
<path d="M265.1853 124.1055 L265.3094 123.6090 "/>
<path d="M265.3094 123.6090 L265.3094 123.2366 "/>
<path d="M265.3094 123.2366 L265.1853 122.7401 "/>
<path d="M265.1853 122.7401 L265.0611 122.4918 "/>
<path d="M265.0611 122.4918 L264.8129 122.2436 "/>
<path d="M264.8129 122.2436 L264.4405 122.1195 "/>
<path d="M264.4405 122.1195 L264.1923 122.1195 "/>
<path d="M264.1923 122.1195 L263.8199 122.2436 "/>
<path d="M263.8199 122.2436 L263.6958 122.3677 "/>
<path d="M262.8269 122.1195 L261.0892 122.1195 "/>
<path d="M261.0892 122.1195 L262.2063 124.7261 "/>
</g></g>
<g style="fill:#000084; fill-opacity:0.01;  stroke:#000084; stroke-width:0.7820; stroke-opacity:1;  stroke-linecap:round; stroke-linejoin:round;">
<text x="221.1529" y="177.6241" transform="scale(-1 1) translate(-442.305814 0)" textLength="54.0378" font-size="6.9510" lengthAdjust="spacingAndGlyphs" text-anchor="middle" opacity="0.01" style="font-family:monospace">BZV55C-5,6V</text>
<g class="stroked-text"><desc>BZV55C-5,6V</desc>
<path d="M244.7366 174.6578 L243.9919 174.9061 "/>
<path d="M243.9919 174.9061 L243.7436 175.1543 "/>
<path d="M243.7436 175.1543 L243.4954 175.6508 "/>
<path d="M243.4954 175.6508 L243.4954 176.3956 "/>
<path d="M243.4954 176.3956 L243.7436 176.8921 "/>
<path d="M243.7436 176.8921 L243.9919 177.1403 "/>
<path d="M243.9919 177.1403 L244.4884 177.3886 "/>
<path d="M244.4884 177.3886 L246.4744 177.3886 "/>
<path d="M246.4744 177.3886 L246.4744 172.1753 "/>
<path d="M246.4744 172.1753 L244.7366 172.1753 "/>
<path d="M244.7366 172.1753 L244.2401 172.4236 "/>
<path d="M244.2401 172.4236 L243.9919 172.6718 "/>
<path d="M243.9919 172.6718 L243.7436 173.1683 "/>
<path d="M243.7436 173.1683 L243.7436 173.6648 "/>
<path d="M243.7436 173.6648 L243.9919 174.1613 "/>
<path d="M243.9919 174.1613 L244.2401 174.4096 "/>
<path d="M244.2401 174.4096 L244.7366 174.6578 "/>
<path d="M244.7366 174.6578 L246.4744 174.6578 "/>
<path d="M241.7576 172.1753 L238.2821 172.1753 "/>
<path d="M238.2821 172.1753 L241.7576 177.3886 "/>
<path d="M241.7576 177.3886 L238.2821 177.3886 "/>
<path d="M237.0409 172.1753 L235.3031 177.3886 "/>
<path d="M235.3031 177.3886 L233.5654 172.1753 "/>
<path d="M229.3451 172.1753 L231.8276 172.1753 "/>
<path d="M231.8276 172.1753 L232.0759 174.6578 "/>
<path d="M232.0759 174.6578 L231.8276 174.4096 "/>
<path d="M231.8276 174.4096 L231.3311 174.1613 "/>
<path d="M231.3311 174.1613 L230.0899 174.1613 "/>
<path d="M230.0899 174.1613 L229.5934 174.4096 "/>
<path d="M229.5934 174.4096 L229.3451 174.6578 "/>
<path d="M229.3451 174.6578 L229.0969 175.1543 "/>
<path d="M229.0969 175.1543 L229.0969 176.3956 "/>
<path d="M229.0969 176.3956 L229.3451 176.8921 "/>
<path d="M229.3451 176.8921 L229.5934 177.1403 "/>
<path d="M229.5934 177.1403 L230.0899 177.3886 "/>
<path d="M230.0899 177.3886 L231.3311 177.3886 "/>
<path d="M231.3311 177.3886 L231.8276 177.1403 "/>
<path d="M231.8276 177.1403 L232.0759 176.8921 "/>
<path d="M224.3802 172.1753 L226.8626 172.1753 "/>
<path d="M226.8626 172.1753 L227.1109 174.6578 "/>
<path d="M227.1109 174.6578 L226.8626 174.4096 "/>
<path d="M226.8626 174.4096 L226.3661 174.1613 "/>
<path d="M226.3661 174.1613 L225.1249 174.1613 "/>
<path d="M225.1249 174.1613 L224.6284 174.4096 "/>
<path d="M224.6284 174.4096 L224.3802 174.6578 "/>
<path d="M224.3802 174.6578 L224.1319 175.1543 "/>
<path d="M224.1319 175.1543 L224.1319 176.3956 "/>
<path d="M224.1319 176.3956 L224.3802 176.8921 "/>
<path d="M224.3802 176.8921 L224.6284 177.1403 "/>
<path d="M224.6284 177.1403 L225.1249 177.3886 "/>
<path d="M225.1249 177.3886 L226.3661 177.3886 "/>
<path d="M226.3661 177.3886 L226.8626 177.1403 "/>
<path d="M226.8626 177.1403 L227.1109 176.8921 "/>
<path d="M218.9187 176.8921 L219.1669 177.1403 "/>
<path d="M219.1669 177.1403 L219.9117 177.3886 "/>
<path d="M219.9117 177.3886 L220.4082 177.3886 "/>
<path d="M220.4082 177.3886 L221.1529 177.1403 "/>
<path d="M221.1529 177.1403 L221.6494 176.6438 "/>
<path d="M221.6494 176.6438 L221.8977 176.1473 "/>
<path d="M221.8977 176.1473 L222.1459 175.1543 "/>
<path d="M222.1459 175.1543 L222.1459 174.4096 "/>
<path d="M222.1459 174.4096 L221.8977 173.4166 "/>
<path d="M221.8977 173.4166 L221.6494 172.9201 "/>
<path d="M221.6494 172.9201 L221.1529 172.4236 "/>
<path d="M221.1529 172.4236 L220.4082 172.1753 "/>
<path d="M220.4082 172.1753 L219.9117 172.1753 "/>
<path d="M219.9117 172.1753 L219.1669 172.4236 "/>
<path d="M219.1669 172.4236 L218.9187 172.6718 "/>
<path d="M216.6844 175.4026 L212.7124 175.4026 "/>
<path d="M207.7474 172.1753 L210.2299 172.1753 "/>
<path d="M210.2299 172.1753 L210.4782 174.6578 "/>
<path d="M210.4782 174.6578 L210.2299 174.4096 "/>
<path d="M210.2299 174.4096 L209.7334 174.1613 "/>
<path d="M209.7334 174.1613 L208.4922 174.1613 "/>
<path d="M208.4922 174.1613 L207.9957 174.4096 "/>
<path d="M207.9957 174.4096 L207.7474 174.6578 "/>
<path d="M207.7474 174.6578 L207.4992 175.1543 "/>
<path d="M207.4992 175.1543 L207.4992 176.3956 "/>
<path d="M207.4992 176.3956 L207.7474 176.8921 "/>
<path d="M207.7474 176.8921 L207.9957 177.1403 "/>
<path d="M207.9957 177.1403 L208.4922 177.3886 "/>
<path d="M208.4922 177.3886 L209.7334 177.3886 "/>
<path d="M209.7334 177.3886 L210.2299 177.1403 "/>
<path d="M210.2299 177.1403 L210.4782 176.8921 "/>
<path d="M205.0167 177.1403 L205.0167 177.3886 "/>
<path d="M205.0167 177.3886 L205.2649 177.8851 "/>
<path d="M205.2649 177.8851 L205.5132 178.1333 "/>
<path d="M200.5482 172.1753 L201.5412 172.1753 "/>
<path d="M201.5412 172.1753 L202.0377 172.4236 "/>
<path d="M202.0377 172.4236 L202.2859 172.6718 "/>
<path d="M202.2859 172.6718 L202.7824 173.4166 "/>
<path d="M202.7824 173.4166 L203.0307 174.4096 "/>
<path d="M203.0307 174.4096 L203.0307 176.3956 "/>
<path d="M203.0307 176.3956 L202.7824 176.8921 "/>
<path d="M202.7824 176.8921 L202.5342 177.1403 "/>
<path d="M202.5342 177.1403 L202.0377 177.3886 "/>
<path d="M202.0377 177.3886 L201.0447 177.3886 "/>
<path d="M201.0447 177.3886 L200.5482 177.1403 "/>
<path d="M200.5482 177.1403 L200.2999 176.8921 "/>
<path d="M200.2999 176.8921 L200.0517 176.3956 "/>
<path d="M200.0517 176.3956 L200.0517 175.1543 "/>
<path d="M200.0517 175.1543 L200.2999 174.6578 "/>
<path d="M200.2999 174.6578 L200.5482 174.4096 "/>
<path d="M200.5482 174.4096 L201.0447 174.1613 "/>
<path d="M201.0447 174.1613 L202.0377 174.1613 "/>
<path d="M202.0377 174.1613 L202.5342 174.4096 "/>
<path d="M202.5342 174.4096 L202.7824 174.6578 "/>
<path d="M202.7824 174.6578 L203.0307 175.1543 "/>
<path d="M198.5622 172.1753 L196.8244 177.3886 "/>
<path d="M196.8244 177.3886 L195.0867 172.1753 "/>
</g><text x="221.1529" y="156.7711" transform="scale(-1 1) translate(-442.305814 0)" textLength="11.0906" font-size="6.9510" lengthAdjust="spacingAndGlyphs" text-anchor="middle" opacity="0.01" style="font-family:monospace">D1</text>
<g class="stroked-text"><desc>D1</desc>
<path d="M225.0008 156.5356 L225.0008 151.3224 "/>
<path d="M225.0008 151.3224 L223.7595 151.3224 "/>
<path d="M223.7595 151.3224 L223.0148 151.5706 "/>
<path d="M223.0148 151.5706 L222.5183 152.0671 "/>
<path d="M222.5183 152.0671 L222.2700 152.5636 "/>
<path d="M222.2700 152.5636 L222.0218 153.5566 "/>
<path d="M222.0218 153.5566 L222.0218 154.3013 "/>
<path d="M222.0218 154.3013 L222.2700 155.2943 "/>
<path d="M222.2700 155.2943 L222.5183 155.7908 "/>
<path d="M222.5183 155.7908 L223.0148 156.2874 "/>
<path d="M223.0148 156.2874 L223.7595 156.5356 "/>
<path d="M223.7595 156.5356 L225.0008 156.5356 "/>
<path d="M217.0568 156.5356 L220.0358 156.5356 "/>
<path d="M218.5463 156.5356 L218.5463 151.3224 "/>
<path d="M218.5463 151.3224 L219.0428 152.0671 "/>
<path d="M219.0428 152.0671 L219.5393 152.5636 "/>
<path d="M219.5393 152.5636 L220.0358 152.8119 "/>
</g><text x="264.1007" y="60.6086" transform="scale(-1 1) translate(-528.201350 0)" textLength="7.2516" font-size="8.8278" lengthAdjust="spacingAndGlyphs" text-anchor="middle" opacity="0.01" style="font-family:monospace">K</text>
<g class="stroked-text"><desc>K</desc>
<path d="M265.8347 60.3205 L265.8347 53.6997 "/>
<path d="M262.0514 60.3205 L264.8889 56.5371 "/>
<path d="M262.0514 53.6997 L265.8347 57.4830 "/>
</g><text x="233.4770" y="61.3948" transform="scale(-1 1) translate(-466.954044 0)" textLength="13.5572" font-size="8.8278" lengthAdjust="spacingAndGlyphs" text-anchor="middle" opacity="0.01" style="font-family:monospace">D2</text>
<g class="stroked-text"><desc>D2</desc>
<path d="M238.3638 61.1066 L238.3638 54.4858 "/>
<path d="M238.3638 54.4858 L236.7874 54.4858 "/>
<path d="M236.7874 54.4858 L235.8416 54.8011 "/>
<path d="M235.8416 54.8011 L235.2110 55.4316 "/>
<path d="M235.2110 55.4316 L234.8958 56.0622 "/>
<path d="M234.8958 56.0622 L234.5805 57.3233 "/>
<path d="M234.5805 57.3233 L234.5805 58.2691 "/>
<path d="M234.5805 58.2691 L234.8958 59.5303 "/>
<path d="M234.8958 59.5303 L235.2110 60.1608 "/>
<path d="M235.2110 60.1608 L235.8416 60.7914 "/>
<path d="M235.8416 60.7914 L236.7874 61.1066 "/>
<path d="M236.7874 61.1066 L238.3638 61.1066 "/>
<path d="M232.0583 55.1164 L231.7430 54.8011 "/>
<path d="M231.7430 54.8011 L231.1124 54.4858 "/>
<path d="M231.1124 54.4858 L229.5361 54.4858 "/>
<path d="M229.5361 54.4858 L228.9055 54.8011 "/>
<path d="M228.9055 54.8011 L228.5902 55.1164 "/>
<path d="M228.5902 55.1164 L228.2749 55.7469 "/>
<path d="M228.2749 55.7469 L228.2749 56.3775 "/>
<path d="M228.2749 56.3775 L228.5902 57.3233 "/>
<path d="M228.5902 57.3233 L232.3735 61.1066 "/>
<path d="M232.3735 61.1066 L228.2749 61.1066 "/>
</g><text x="149.9128" y="89.4681" transform="scale(-1 1) translate(-299.825699 0)" textLength="20.0276" font-size="6.9510" lengthAdjust="spacingAndGlyphs" text-anchor="middle" opacity="0.01" style="font-family:monospace">10uF</text>
<g class="stroked-text"><desc>10uF</desc>
<path d="M155.4985 89.2326 L158.4775 89.2326 "/>
<path d="M156.9880 89.2326 L156.9880 84.0193 "/>
<path d="M156.9880 84.0193 L157.4845 84.7641 "/>
<path d="M157.4845 84.7641 L157.9810 85.2606 "/>
<path d="M157.9810 85.2606 L158.4775 85.5088 "/>
<path d="M152.2712 84.0193 L151.7747 84.0193 "/>
<path d="M151.7747 84.0193 L151.2782 84.2676 "/>
<path d="M151.2782 84.2676 L151.0300 84.5158 "/>
<path d="M151.0300 84.5158 L150.7817 85.0123 "/>
<path d="M150.7817 85.0123 L150.5335 86.0053 "/>
<path d="M150.5335 86.0053 L150.5335 87.2466 "/>
<path d="M150.5335 87.2466 L150.7817 88.2396 "/>
<path d="M150.7817 88.2396 L151.0300 88.7361 "/>
<path d="M151.0300 88.7361 L151.2782 88.9843 "/>
<path d="M151.2782 88.9843 L151.7747 89.2326 "/>
<path d="M151.7747 89.2326 L152.2712 89.2326 "/>
<path d="M152.2712 89.2326 L152.7677 88.9843 "/>
<path d="M152.7677 88.9843 L153.0160 88.7361 "/>
<path d="M153.0160 88.7361 L153.2642 88.2396 "/>
<path d="M153.2642 88.2396 L153.5125 87.2466 "/>
<path d="M153.5125 87.2466 L153.5125 86.0053 "/>
<path d="M153.5125 86.0053 L153.2642 85.0123 "/>
<path d="M153.2642 85.0123 L153.0160 84.5158 "/>
<path d="M153.0160 84.5158 L152.7677 84.2676 "/>
<path d="M152.7677 84.2676 L152.2712 84.0193 "/>
<path d="M146.0650 85.7571 L146.0650 89.2326 "/>
<path d="M148.2992 85.7571 L148.2992 88.4878 "/>
<path d="M148.2992 88.4878 L148.0510 88.9843 "/>
<path d="M148.0510 88.9843 L147.5545 89.2326 "/>
<path d="M147.5545 89.2326 L146.8097 89.2326 "/>
<path d="M146.8097 89.2326 L146.3132 88.9843 "/>
<path d="M146.3132 88.9843 L146.0650 88.7361 "/>
<path d="M141.8447 86.5018 L143.5825 86.5018 "/>
<path d="M143.5825 89.2326 L143.5825 84.0193 "/>
<path d="M143.5825 84.0193 L141.1000 84.0193 "/>
</g></g>
<g style="fill:#000084; fill-opacity:0.01;  stroke:#000084; stroke-width:0.4171; stroke-opacity:1;  stroke-linecap:round; stroke-linejoin:round;">
<text x="149.9128" y="96.9231" transform="scale(-1 1) translate(-299.825699 0)" textLength="5.6104" font-size="3.4755" lengthAdjust="spacingAndGlyphs" text-anchor="middle" opacity="0.01" style="font-family:monospace">C6</text>
<g class="stroked-text"><desc>C6</desc>
<path d="M150.3473 96.5557 L150.4714 96.6798 "/>
<path d="M150.4714 96.6798 L150.8438 96.8039 "/>
<path d="M150.8438 96.8039 L151.0920 96.8039 "/>
<path d="M151.0920 96.8039 L151.4644 96.6798 "/>
<path d="M151.4644 96.6798 L151.7127 96.4316 "/>
<path d="M151.7127 96.4316 L151.8368 96.1833 "/>
<path d="M151.8368 96.1833 L151.9609 95.6868 "/>
<path d="M151.9609 95.6868 L151.9609 95.3144 "/>
<path d="M151.9609 95.3144 L151.8368 94.8179 "/>
<path d="M151.8368 94.8179 L151.7127 94.5697 "/>
<path d="M151.7127 94.5697 L151.4644 94.3214 "/>
<path d="M151.4644 94.3214 L151.0920 94.1973 "/>
<path d="M151.0920 94.1973 L150.8438 94.1973 "/>
<path d="M150.8438 94.1973 L150.4714 94.3214 "/>
<path d="M150.4714 94.3214 L150.3473 94.4456 "/>
<path d="M148.1130 94.1973 L148.6095 94.1973 "/>
<path d="M148.6095 94.1973 L148.8578 94.3214 "/>
<path d="M148.8578 94.3214 L148.9819 94.4456 "/>
<path d="M148.9819 94.4456 L149.2302 94.8179 "/>
<path d="M149.2302 94.8179 L149.3543 95.3144 "/>
<path d="M149.3543 95.3144 L149.3543 96.3074 "/>
<path d="M149.3543 96.3074 L149.2302 96.5557 "/>
<path d="M149.2302 96.5557 L149.1060 96.6798 "/>
<path d="M149.1060 96.6798 L148.8578 96.8039 "/>
<path d="M148.8578 96.8039 L148.3613 96.8039 "/>
<path d="M148.3613 96.8039 L148.1130 96.6798 "/>
<path d="M148.1130 96.6798 L147.9889 96.5557 "/>
<path d="M147.9889 96.5557 L147.8648 96.3074 "/>
<path d="M147.8648 96.3074 L147.8648 95.6868 "/>
<path d="M147.8648 95.6868 L147.9889 95.4386 "/>
<path d="M147.9889 95.4386 L148.1130 95.3144 "/>
<path d="M148.1130 95.3144 L148.3613 95.1903 "/>
<path d="M148.3613 95.1903 L148.8578 95.1903 "/>
<path d="M148.8578 95.1903 L149.1060 95.3144 "/>
<path d="M149.1060 95.3144 L149.2302 95.4386 "/>
<path d="M149.2302 95.4386 L149.3543 95.6868 "/>
</g></g>
<g style="fill:#000084; fill-opacity:0.0;  stroke:#000084; stroke-width:0.7820; stroke-opacity:1;  stroke-linecap:round; stroke-linejoin:round;">
<g transform="rotate(-90.000000 102.5203 162.9358)">
<text x="102.5203" y="165.5424" transform="scale(-1 1) translate(-205.040534 0)" textLength="16.0556" font-size="6.9510" lengthAdjust="spacingAndGlyphs" text-anchor="middle" opacity="0.01" style="font-family:monospace">DNF</text>
</g>
<g class="stroked-text"><desc>DNF</desc>
<path d="M104.8914 156.6054 L99.6781 156.6054 "/>
<path d="M99.6781 156.6054 L99.6781 157.8467 "/>
<path d="M99.6781 157.8467 L99.9264 158.5914 "/>
<path d="M99.9264 158.5914 L100.4229 159.0879 "/>
<path d="M100.4229 159.0879 L100.9194 159.3362 "/>
<path d="M100.9194 159.3362 L101.9124 159.5844 "/>
<path d="M101.9124 159.5844 L102.6571 159.5844 "/>
<path d="M102.6571 159.5844 L103.6501 159.3362 "/>
<path d="M103.6501 159.3362 L104.1466 159.0879 "/>
<path d="M104.1466 159.0879 L104.6431 158.5914 "/>
<path d="M104.6431 158.5914 L104.8914 157.8467 "/>
<path d="M104.8914 157.8467 L104.8914 156.6054 "/>
<path d="M104.8914 161.8187 L99.6781 161.8187 "/>
<path d="M99.6781 161.8187 L104.8914 164.7977 "/>
<path d="M104.8914 164.7977 L99.6781 164.7977 "/>
<path d="M102.1606 169.0179 L102.1606 167.2802 "/>
<path d="M104.8914 167.2802 L99.6781 167.2802 "/>
<path d="M99.6781 167.2802 L99.6781 169.7627 "/>
</g></g>
<g style="fill:#000084; fill-opacity:0.01;  stroke:#000084; stroke-width:0.4171; stroke-opacity:1;  stroke-linecap:round; stroke-linejoin:round;">
<g transform="rotate(-90.000000 93.9184 162.9358)">
<text x="93.9184" y="164.2391" transform="scale(-1 1) translate(-187.836820 0)" textLength="5.6104" font-size="3.4755" lengthAdjust="spacingAndGlyphs" text-anchor="middle" opacity="0.01" style="font-family:monospace">R5</text>
</g>
<g class="stroked-text"><desc>R5</desc>
<path d="M95.1026 162.5014 L93.8613 161.6325 "/>
<path d="M95.1026 161.0119 L92.4960 161.0119 "/>
<path d="M92.4960 161.0119 L92.4960 162.0049 "/>
<path d="M92.4960 162.0049 L92.6201 162.2531 "/>
<path d="M92.6201 162.2531 L92.7442 162.3772 "/>
<path d="M92.7442 162.3772 L92.9925 162.5014 "/>
<path d="M92.9925 162.5014 L93.3648 162.5014 "/>
<path d="M93.3648 162.5014 L93.6131 162.3772 "/>
<path d="M93.6131 162.3772 L93.7372 162.2531 "/>
<path d="M93.7372 162.2531 L93.8613 162.0049 "/>
<path d="M93.8613 162.0049 L93.8613 161.0119 "/>
<path d="M92.4960 164.8597 L92.4960 163.6185 "/>
<path d="M92.4960 163.6185 L93.7372 163.4944 "/>
<path d="M93.7372 163.4944 L93.6131 163.6185 "/>
<path d="M93.6131 163.6185 L93.4890 163.8667 "/>
<path d="M93.4890 163.8667 L93.4890 164.4874 "/>
<path d="M93.4890 164.4874 L93.6131 164.7356 "/>
<path d="M93.6131 164.7356 L93.7372 164.8597 "/>
<path d="M93.7372 164.8597 L93.9855 164.9839 "/>
<path d="M93.9855 164.9839 L94.6061 164.9839 "/>
<path d="M94.6061 164.9839 L94.8543 164.8597 "/>
<path d="M94.8543 164.8597 L94.9785 164.7356 "/>
<path d="M94.9785 164.7356 L95.1026 164.4874 "/>
<path d="M95.1026 164.4874 L95.1026 163.8667 "/>
<path d="M95.1026 163.8667 L94.9785 163.6185 "/>
<path d="M94.9785 163.6185 L94.8543 163.4944 "/>
</g><text x="252.2056" y="72.4208" transform="scale(-1 1) translate(-504.411221 0)" textLength="5.6104" font-size="3.4755" lengthAdjust="spacingAndGlyphs" text-anchor="middle" opacity="0.01" style="font-family:monospace">R6</text>
<g class="stroked-text"><desc>R6</desc>
<path d="M252.6400 72.3017 L253.5089 71.0604 "/>
<path d="M254.1295 72.3017 L254.1295 69.6951 "/>
<path d="M254.1295 69.6951 L253.1365 69.6951 "/>
<path d="M253.1365 69.6951 L252.8883 69.8192 "/>
<path d="M252.8883 69.8192 L252.7642 69.9433 "/>
<path d="M252.7642 69.9433 L252.6400 70.1916 "/>
<path d="M252.6400 70.1916 L252.6400 70.5639 "/>
<path d="M252.6400 70.5639 L252.7642 70.8122 "/>
<path d="M252.7642 70.8122 L252.8883 70.9363 "/>
<path d="M252.8883 70.9363 L253.1365 71.0604 "/>
<path d="M253.1365 71.0604 L254.1295 71.0604 "/>
<path d="M250.4058 69.6951 L250.9023 69.6951 "/>
<path d="M250.9023 69.6951 L251.1505 69.8192 "/>
<path d="M251.1505 69.8192 L251.2747 69.9433 "/>
<path d="M251.2747 69.9433 L251.5229 70.3157 "/>
<path d="M251.5229 70.3157 L251.6470 70.8122 "/>
<path d="M251.6470 70.8122 L251.6470 71.8052 "/>
<path d="M251.6470 71.8052 L251.5229 72.0534 "/>
<path d="M251.5229 72.0534 L251.3988 72.1776 "/>
<path d="M251.3988 72.1776 L251.1505 72.3017 "/>
<path d="M251.1505 72.3017 L250.6540 72.3017 "/>
<path d="M250.6540 72.3017 L250.4058 72.1776 "/>
<path d="M250.4058 72.1776 L250.2817 72.0534 "/>
<path d="M250.2817 72.0534 L250.1575 71.8052 "/>
<path d="M250.1575 71.8052 L250.1575 71.1846 "/>
<path d="M250.1575 71.1846 L250.2817 70.9363 "/>
<path d="M250.2817 70.9363 L250.4058 70.8122 "/>
<path d="M250.4058 70.8122 L250.6540 70.6881 "/>
<path d="M250.6540 70.6881 L251.1505 70.6881 "/>
<path d="M251.1505 70.6881 L251.3988 70.8122 "/>
<path d="M251.3988 70.8122 L251.5229 70.9363 "/>
<path d="M251.5229 70.9363 L251.6470 71.1846 "/>
</g></g>
<g style="fill:#000084; fill-opacity:0.01;  stroke:#000084; stroke-width:0.7820; stroke-opacity:1;  stroke-linecap:round; stroke-linejoin:round;">
<text x="163.8411" y="178.2497" transform="scale(-1 1) translate(-327.682161 0)" textLength="15.0626" font-size="6.9510" lengthAdjust="spacingAndGlyphs" text-anchor="middle" opacity="0.01" style="font-family:monospace">4k7</text>
<g class="stroked-text"><desc>4k7</desc>
<path d="M167.4407 174.5387 L167.4407 178.0142 "/>
<path d="M168.6820 172.5527 L169.9232 176.2764 "/>
<path d="M169.9232 176.2764 L166.6960 176.2764 "/>
<path d="M164.7100 178.0142 L164.7100 172.8009 "/>
<path d="M164.2135 176.0282 L162.7240 178.0142 "/>
<path d="M162.7240 174.5387 L164.7100 176.5247 "/>
<path d="M160.9862 172.8009 L157.5107 172.8009 "/>
<path d="M157.5107 172.8009 L159.7450 178.0142 "/>
</g></g>
<g style="fill:#000084; fill-opacity:0.01;  stroke:#000084; stroke-width:0.4171; stroke-opacity:1;  stroke-linecap:round; stroke-linejoin:round;">
<text x="163.8411" y="168.6052" transform="scale(-1 1) translate(-327.682161 0)" textLength="5.6104" font-size="3.4755" lengthAdjust="spacingAndGlyphs" text-anchor="middle" opacity="0.01" style="font-family:monospace">R2</text>
<g class="stroked-text"><desc>R2</desc>
<path d="M164.2755 168.4861 L165.1444 167.2448 "/>
<path d="M165.7650 168.4861 L165.7650 165.8795 "/>
<path d="M165.7650 165.8795 L164.7720 165.8795 "/>
<path d="M164.7720 165.8795 L164.5238 166.0036 "/>
<path d="M164.5238 166.0036 L164.3996 166.1277 "/>
<path d="M164.3996 166.1277 L164.2755 166.3760 "/>
<path d="M164.2755 166.3760 L164.2755 166.7483 "/>
<path d="M164.2755 166.7483 L164.3996 166.9966 "/>
<path d="M164.3996 166.9966 L164.5238 167.1207 "/>
<path d="M164.5238 167.1207 L164.7720 167.2448 "/>
<path d="M164.7720 167.2448 L165.7650 167.2448 "/>
<path d="M163.2825 166.1277 L163.1584 166.0036 "/>
<path d="M163.1584 166.0036 L162.9101 165.8795 "/>
<path d="M162.9101 165.8795 L162.2895 165.8795 "/>
<path d="M162.2895 165.8795 L162.0413 166.0036 "/>
<path d="M162.0413 166.0036 L161.9171 166.1277 "/>
<path d="M161.9171 166.1277 L161.7930 166.3760 "/>
<path d="M161.7930 166.3760 L161.7930 166.6242 "/>
<path d="M161.7930 166.6242 L161.9171 166.9966 "/>
<path d="M161.9171 166.9966 L163.4066 168.4861 "/>
<path d="M163.4066 168.4861 L161.7930 168.4861 "/>
</g></g>
<g style="fill:#000084; fill-opacity:0.0;  stroke:#000084; stroke-width:0.7820; stroke-opacity:1;  stroke-linecap:round; stroke-linejoin:round;">
<g transform="rotate(-90.000000 116.9870 162.9358)">
<text x="116.9870" y="165.5424" transform="scale(-1 1) translate(-233.974053 0)" textLength="15.0626" font-size="6.9510" lengthAdjust="spacingAndGlyphs" text-anchor="middle" opacity="0.01" style="font-family:monospace">4k7</text>
</g>
<g class="stroked-text"><desc>4k7</desc>
<path d="M115.8826 159.3362 L119.3581 159.3362 "/>
<path d="M113.8966 158.0949 L117.6204 156.8537 "/>
<path d="M117.6204 156.8537 L117.6204 160.0809 "/>
<path d="M119.3581 162.0669 L114.1449 162.0669 "/>
<path d="M117.3721 162.5634 L119.3581 164.0529 "/>
<path d="M115.8826 164.0529 L117.8686 162.0669 "/>
<path d="M114.1449 165.7907 L114.1449 169.2662 "/>
<path d="M114.1449 169.2662 L119.3581 167.0319 "/>
</g></g>
<g style="fill:#000084; fill-opacity:0.0;  stroke:#000084; stroke-width:0.4171; stroke-opacity:1;  stroke-linecap:round; stroke-linejoin:round;">
<g transform="rotate(-90.000000 108.3852 162.9358)">
<text x="108.3852" y="164.2391" transform="scale(-1 1) translate(-216.770339 0)" textLength="5.6104" font-size="3.4755" lengthAdjust="spacingAndGlyphs" text-anchor="middle" opacity="0.01" style="font-family:monospace">R3</text>
</g>
<g class="stroked-text"><desc>R3</desc>
<path d="M109.5694 162.5014 L108.3281 161.6325 "/>
<path d="M109.5694 161.0119 L106.9627 161.0119 "/>
<path d="M106.9627 161.0119 L106.9627 162.0049 "/>
<path d="M106.9627 162.0049 L107.0869 162.2531 "/>
<path d="M107.0869 162.2531 L107.2110 162.3772 "/>
<path d="M107.2110 162.3772 L107.4592 162.5014 "/>
<path d="M107.4592 162.5014 L107.8316 162.5014 "/>
<path d="M107.8316 162.5014 L108.0799 162.3772 "/>
<path d="M108.0799 162.3772 L108.2040 162.2531 "/>
<path d="M108.2040 162.2531 L108.3281 162.0049 "/>
<path d="M108.3281 162.0049 L108.3281 161.0119 "/>
<path d="M106.9627 163.3702 L106.9627 164.9839 "/>
<path d="M106.9627 164.9839 L107.9557 164.1150 "/>
<path d="M107.9557 164.1150 L107.9557 164.4874 "/>
<path d="M107.9557 164.4874 L108.0799 164.7356 "/>
<path d="M108.0799 164.7356 L108.2040 164.8597 "/>
<path d="M108.2040 164.8597 L108.4522 164.9839 "/>
<path d="M108.4522 164.9839 L109.0729 164.9839 "/>
<path d="M109.0729 164.9839 L109.3211 164.8597 "/>
<path d="M109.3211 164.8597 L109.4452 164.7356 "/>
<path d="M109.4452 164.7356 L109.5694 164.4874 "/>
<path d="M109.5694 164.4874 L109.5694 163.7426 "/>
<path d="M109.5694 163.7426 L109.4452 163.4944 "/>
<path d="M109.4452 163.4944 L109.3211 163.3702 "/>
</g></g>
<g style="fill:#000084; fill-opacity:0.0;  stroke:#000084; stroke-width:0.7820; stroke-opacity:1;  stroke-linecap:round; stroke-linejoin:round;">
<g transform="rotate(-90.000000 216.9250 134.9798)">
<text x="216.9250" y="137.5864" transform="scale(-1 1) translate(-433.849928 0)" textLength="20.0276" font-size="6.9510" lengthAdjust="spacingAndGlyphs" text-anchor="middle" opacity="0.01" style="font-family:monospace">10uF</text>
</g>
<g class="stroked-text"><desc>10uF</desc>
<path d="M219.2960 129.3941 L219.2960 126.4152 "/>
<path d="M219.2960 127.9046 L214.0828 127.9046 "/>
<path d="M214.0828 127.9046 L214.8275 127.4082 "/>
<path d="M214.8275 127.4082 L215.3240 126.9117 "/>
<path d="M215.3240 126.9117 L215.5723 126.4152 "/>
<path d="M214.0828 132.6214 L214.0828 133.1179 "/>
<path d="M214.0828 133.1179 L214.3311 133.6144 "/>
<path d="M214.3311 133.6144 L214.5793 133.8626 "/>
<path d="M214.5793 133.8626 L215.0758 134.1109 "/>
<path d="M215.0758 134.1109 L216.0688 134.3591 "/>
<path d="M216.0688 134.3591 L217.3100 134.3591 "/>
<path d="M217.3100 134.3591 L218.3030 134.1109 "/>
<path d="M218.3030 134.1109 L218.7995 133.8626 "/>
<path d="M218.7995 133.8626 L219.0478 133.6144 "/>
<path d="M219.0478 133.6144 L219.2960 133.1179 "/>
<path d="M219.2960 133.1179 L219.2960 132.6214 "/>
<path d="M219.2960 132.6214 L219.0478 132.1249 "/>
<path d="M219.0478 132.1249 L218.7995 131.8766 "/>
<path d="M218.7995 131.8766 L218.3030 131.6284 "/>
<path d="M218.3030 131.6284 L217.3100 131.3801 "/>
<path d="M217.3100 131.3801 L216.0688 131.3801 "/>
<path d="M216.0688 131.3801 L215.0758 131.6284 "/>
<path d="M215.0758 131.6284 L214.5793 131.8766 "/>
<path d="M214.5793 131.8766 L214.3311 132.1249 "/>
<path d="M214.3311 132.1249 L214.0828 132.6214 "/>
<path d="M215.8205 138.8276 L219.2960 138.8276 "/>
<path d="M215.8205 136.5934 L218.5513 136.5934 "/>
<path d="M218.5513 136.5934 L219.0478 136.8416 "/>
<path d="M219.0478 136.8416 L219.2960 137.3381 "/>
<path d="M219.2960 137.3381 L219.2960 138.0829 "/>
<path d="M219.2960 138.0829 L219.0478 138.5794 "/>
<path d="M219.0478 138.5794 L218.7995 138.8276 "/>
<path d="M216.5653 143.0479 L216.5653 141.3101 "/>
<path d="M219.2960 141.3101 L214.0828 141.3101 "/>
<path d="M214.0828 141.3101 L214.0828 143.7926 "/>
</g></g>
<g style="fill:#000084; fill-opacity:0.0;  stroke:#000084; stroke-width:0.4171; stroke-opacity:1;  stroke-linecap:round; stroke-linejoin:round;">
<g transform="rotate(-90.000000 225.6832 134.9798)">
<text x="225.6832" y="136.2831" transform="scale(-1 1) translate(-451.366437 0)" textLength="5.6104" font-size="3.4755" lengthAdjust="spacingAndGlyphs" text-anchor="middle" opacity="0.01" style="font-family:monospace">C1</text>
</g>
<g class="stroked-text"><desc>C1</desc>
<path d="M226.6192 134.5453 L226.7433 134.4212 "/>
<path d="M226.7433 134.4212 L226.8674 134.0488 "/>
<path d="M226.8674 134.0488 L226.8674 133.8006 "/>
<path d="M226.8674 133.8006 L226.7433 133.4282 "/>
<path d="M226.7433 133.4282 L226.4950 133.1800 "/>
<path d="M226.4950 133.1800 L226.2468 133.0558 "/>
<path d="M226.2468 133.0558 L225.7503 132.9317 "/>
<path d="M225.7503 132.9317 L225.3779 132.9317 "/>
<path d="M225.3779 132.9317 L224.8814 133.0558 "/>
<path d="M224.8814 133.0558 L224.6332 133.1800 "/>
<path d="M224.6332 133.1800 L224.3849 133.4282 "/>
<path d="M224.3849 133.4282 L224.2608 133.8006 "/>
<path d="M224.2608 133.8006 L224.2608 134.0488 "/>
<path d="M224.2608 134.0488 L224.3849 134.4212 "/>
<path d="M224.3849 134.4212 L224.5090 134.5453 "/>
<path d="M226.8674 137.0278 L226.8674 135.5383 "/>
<path d="M226.8674 136.2831 L224.2608 136.2831 "/>
<path d="M224.2608 136.2831 L224.6332 136.0348 "/>
<path d="M224.6332 136.0348 L224.8814 135.7866 "/>
<path d="M224.8814 135.7866 L225.0055 135.5383 "/>
</g></g>
<g style="fill:#000084; fill-opacity:0.01;  stroke:#000084; stroke-width:0.7820; stroke-opacity:1;  stroke-linecap:round; stroke-linejoin:round;">
<text x="211.0601" y="154.6337" transform="scale(-1 1) translate(-422.120123 0)" textLength="15.0626" font-size="6.9510" lengthAdjust="spacingAndGlyphs" text-anchor="middle" opacity="0.01" style="font-family:monospace">1uF</text>
<g class="stroked-text"><desc>1uF</desc>
<path d="M214.1632 154.3982 L217.1422 154.3982 "/>
<path d="M215.6527 154.3982 L215.6527 149.1849 "/>
<path d="M215.6527 149.1849 L216.1492 149.9297 "/>
<path d="M216.1492 149.9297 L216.6457 150.4262 "/>
<path d="M216.6457 150.4262 L217.1422 150.6744 "/>
<path d="M209.6947 150.9227 L209.6947 154.3982 "/>
<path d="M211.9289 150.9227 L211.9289 153.6534 "/>
<path d="M211.9289 153.6534 L211.6807 154.1499 "/>
<path d="M211.6807 154.1499 L211.1842 154.3982 "/>
<path d="M211.1842 154.3982 L210.4394 154.3982 "/>
<path d="M210.4394 154.3982 L209.9429 154.1499 "/>
<path d="M209.9429 154.1499 L209.6947 153.9017 "/>
<path d="M205.4744 151.6674 L207.2122 151.6674 "/>
<path d="M207.2122 154.3982 L207.2122 149.1849 "/>
<path d="M207.2122 149.1849 L204.7297 149.1849 "/>
</g></g>
<g style="fill:#000084; fill-opacity:0.01;  stroke:#000084; stroke-width:0.4171; stroke-opacity:1;  stroke-linecap:round; stroke-linejoin:round;">
<text x="211.0601" y="144.5721" transform="scale(-1 1) translate(-422.120123 0)" textLength="5.6104" font-size="3.4755" lengthAdjust="spacingAndGlyphs" text-anchor="middle" opacity="0.01" style="font-family:monospace">C4</text>
<g class="stroked-text"><desc>C4</desc>
<path d="M211.4945 144.2048 L211.6186 144.3289 "/>
<path d="M211.6186 144.3289 L211.9910 144.4530 "/>
<path d="M211.9910 144.4530 L212.2392 144.4530 "/>
<path d="M212.2392 144.4530 L212.6116 144.3289 "/>
<path d="M212.6116 144.3289 L212.8599 144.0806 "/>
<path d="M212.8599 144.0806 L212.9840 143.8324 "/>
<path d="M212.9840 143.8324 L213.1081 143.3359 "/>
<path d="M213.1081 143.3359 L213.1081 142.9635 "/>
<path d="M213.1081 142.9635 L212.9840 142.4670 "/>
<path d="M212.9840 142.4670 L212.8599 142.2188 "/>
<path d="M212.8599 142.2188 L212.6116 141.9705 "/>
<path d="M212.6116 141.9705 L212.2392 141.8464 "/>
<path d="M212.2392 141.8464 L211.9910 141.8464 "/>
<path d="M211.9910 141.8464 L211.6186 141.9705 "/>
<path d="M211.6186 141.9705 L211.4945 142.0946 "/>
<path d="M209.2602 142.7153 L209.2602 144.4530 "/>
<path d="M209.8809 141.7223 L210.5015 143.5841 "/>
<path d="M210.5015 143.5841 L208.8879 143.5841 "/>
</g></g>
<g style="fill:#000084; fill-opacity:0.01;  stroke:#000084; stroke-width:0.7820; stroke-opacity:1;  stroke-linecap:round; stroke-linejoin:round;">
<text x="263.2613" y="102.8245" transform="scale(-1 1) translate(-526.522685 0)" textLength="24.9926" font-size="6.9510" lengthAdjust="spacingAndGlyphs" text-anchor="middle" opacity="0.01" style="font-family:monospace">100nF</text>
<g class="stroked-text"><desc>100nF</desc>
<path d="M271.3295 102.5889 L274.3085 102.5889 "/>
<path d="M272.8190 102.5889 L272.8190 97.3757 "/>
<path d="M272.8190 97.3757 L273.3155 98.1204 "/>
<path d="M273.3155 98.1204 L273.8120 98.6169 "/>
<path d="M273.8120 98.6169 L274.3085 98.8652 "/>
<path d="M268.1022 97.3757 L267.6057 97.3757 "/>
<path d="M267.6057 97.3757 L267.1092 97.6239 "/>
<path d="M267.1092 97.6239 L266.8610 97.8722 "/>
<path d="M266.8610 97.8722 L266.6127 98.3687 "/>
<path d="M266.6127 98.3687 L266.3645 99.3617 "/>
<path d="M266.3645 99.3617 L266.3645 100.6029 "/>
<path d="M266.3645 100.6029 L266.6127 101.5959 "/>
<path d="M266.6127 101.5959 L266.8610 102.0924 "/>
<path d="M266.8610 102.0924 L267.1092 102.3407 "/>
<path d="M267.1092 102.3407 L267.6057 102.5889 "/>
<path d="M267.6057 102.5889 L268.1022 102.5889 "/>
<path d="M268.1022 102.5889 L268.5987 102.3407 "/>
<path d="M268.5987 102.3407 L268.8470 102.0924 "/>
<path d="M268.8470 102.0924 L269.0952 101.5959 "/>
<path d="M269.0952 101.5959 L269.3435 100.6029 "/>
<path d="M269.3435 100.6029 L269.3435 99.3617 "/>
<path d="M269.3435 99.3617 L269.0952 98.3687 "/>
<path d="M269.0952 98.3687 L268.8470 97.8722 "/>
<path d="M268.8470 97.8722 L268.5987 97.6239 "/>
<path d="M268.5987 97.6239 L268.1022 97.3757 "/>
<path d="M263.1372 97.3757 L262.6407 97.3757 "/>
<path d="M262.6407 97.3757 L262.1442 97.6239 "/>
<path d="M262.1442 97.6239 L261.8960 97.8722 "/>
<path d="M261.8960 97.8722 L261.6477 98.3687 "/>
<path d="M261.6477 98.3687 L261.3995 99.3617 "/>
<path d="M261.3995 99.3617 L261.3995 100.6029 "/>
<path d="M261.3995 100.6029 L261.6477 101.5959 "/>
<path d="M261.6477 101.5959 L261.8960 102.0924 "/>
<path d="M261.8960 102.0924 L262.1442 102.3407 "/>
<path d="M262.1442 102.3407 L262.6407 102.5889 "/>
<path d="M262.6407 102.5889 L263.1372 102.5889 "/>
<path d="M263.1372 102.5889 L263.6337 102.3407 "/>
<path d="M263.6337 102.3407 L263.8820 102.0924 "/>
<path d="M263.8820 102.0924 L264.1302 101.5959 "/>
<path d="M264.1302 101.5959 L264.3785 100.6029 "/>
<path d="M264.3785 100.6029 L264.3785 99.3617 "/>
<path d="M264.3785 99.3617 L264.1302 98.3687 "/>
<path d="M264.1302 98.3687 L263.8820 97.8722 "/>
<path d="M263.8820 97.8722 L263.6337 97.6239 "/>
<path d="M263.6337 97.6239 L263.1372 97.3757 "/>
<path d="M259.1652 99.1134 L259.1652 102.5889 "/>
<path d="M259.1652 99.6099 L258.9170 99.3617 "/>
<path d="M258.9170 99.3617 L258.4205 99.1134 "/>
<path d="M258.4205 99.1134 L257.6757 99.1134 "/>
<path d="M257.6757 99.1134 L257.1792 99.3617 "/>
<path d="M257.1792 99.3617 L256.9310 99.8582 "/>
<path d="M256.9310 99.8582 L256.9310 102.5889 "/>
<path d="M252.7107 99.8582 L254.4485 99.8582 "/>
<path d="M254.4485 102.5889 L254.4485 97.3757 "/>
<path d="M254.4485 97.3757 L251.9660 97.3757 "/>
</g></g>
<g style="fill:#000084; fill-opacity:0.01;  stroke:#000084; stroke-width:0.4171; stroke-opacity:1;  stroke-linecap:round; stroke-linejoin:round;">
<text x="263.2613" y="110.2794" transform="scale(-1 1) translate(-526.522685 0)" textLength="5.6104" font-size="3.4755" lengthAdjust="spacingAndGlyphs" text-anchor="middle" opacity="0.01" style="font-family:monospace">C8</text>
<g class="stroked-text"><desc>C8</desc>
<path d="M263.6958 109.9120 L263.8199 110.0362 "/>
<path d="M263.8199 110.0362 L264.1923 110.1603 "/>
<path d="M264.1923 110.1603 L264.4405 110.1603 "/>
<path d="M264.4405 110.1603 L264.8129 110.0362 "/>
<path d="M264.8129 110.0362 L265.0611 109.7879 "/>
<path d="M265.0611 109.7879 L265.1853 109.5397 "/>
<path d="M265.1853 109.5397 L265.3094 109.0432 "/>
<path d="M265.3094 109.0432 L265.3094 108.6708 "/>
<path d="M265.3094 108.6708 L265.1853 108.1743 "/>
<path d="M265.1853 108.1743 L265.0611 107.9260 "/>
<path d="M265.0611 107.9260 L264.8129 107.6778 "/>
<path d="M264.8129 107.6778 L264.4405 107.5537 "/>
<path d="M264.4405 107.5537 L264.1923 107.5537 "/>
<path d="M264.1923 107.5537 L263.8199 107.6778 "/>
<path d="M263.8199 107.6778 L263.6958 107.8019 "/>
<path d="M262.2063 108.6708 L262.4545 108.5467 "/>
<path d="M262.4545 108.5467 L262.5787 108.4225 "/>
<path d="M262.5787 108.4225 L262.7028 108.1743 "/>
<path d="M262.7028 108.1743 L262.7028 108.0502 "/>
<path d="M262.7028 108.0502 L262.5787 107.8019 "/>
<path d="M262.5787 107.8019 L262.4545 107.6778 "/>
<path d="M262.4545 107.6778 L262.2063 107.5537 "/>
<path d="M262.2063 107.5537 L261.7098 107.5537 "/>
<path d="M261.7098 107.5537 L261.4615 107.6778 "/>
<path d="M261.4615 107.6778 L261.3374 107.8019 "/>
<path d="M261.3374 107.8019 L261.2133 108.0502 "/>
<path d="M261.2133 108.0502 L261.2133 108.1743 "/>
<path d="M261.2133 108.1743 L261.3374 108.4225 "/>
<path d="M261.3374 108.4225 L261.4615 108.5467 "/>
<path d="M261.4615 108.5467 L261.7098 108.6708 "/>
<path d="M261.7098 108.6708 L262.2063 108.6708 "/>
<path d="M262.2063 108.6708 L262.4545 108.7949 "/>
<path d="M262.4545 108.7949 L262.5787 108.9190 "/>
<path d="M262.5787 108.9190 L262.7028 109.1673 "/>
<path d="M262.7028 109.1673 L262.7028 109.6638 "/>
<path d="M262.7028 109.6638 L262.5787 109.9120 "/>
<path d="M262.5787 109.9120 L262.4545 110.0362 "/>
<path d="M262.4545 110.0362 L262.2063 110.1603 "/>
<path d="M262.2063 110.1603 L261.7098 110.1603 "/>
<path d="M261.7098 110.1603 L261.4615 110.0362 "/>
<path d="M261.4615 110.0362 L261.3374 109.9120 "/>
<path d="M261.3374 109.9120 L261.2133 109.6638 "/>
<path d="M261.2133 109.6638 L261.2133 109.1673 "/>
<path d="M261.2133 109.1673 L261.3374 108.9190 "/>
<path d="M261.3374 108.9190 L261.4615 108.7949 "/>
<path d="M261.4615 108.7949 L261.7098 108.6708 "/>
</g></g>
<g style="fill:#000084; fill-opacity:0.01;  stroke:#000084; stroke-width:0.7820; stroke-opacity:1;  stroke-linecap:round; stroke-linejoin:round;">
<g transform="rotate(-90.000000 206.3942 101.6150)">
<text x="206.3942" y="104.2216" transform="scale(-1 1) translate(-412.788412 0)" textLength="71.1670" font-size="6.9510" lengthAdjust="spacingAndGlyphs" text-anchor="middle" opacity="0.01" style="font-family:monospace">47uH DE0703-47</text>
</g>
<g class="stroked-text"><desc>47uH DE0703-47</desc>
<path d="M205.2898 69.9631 L208.7653 69.9631 "/>
<path d="M203.3038 68.7219 L207.0275 67.4806 "/>
<path d="M207.0275 67.4806 L207.0275 70.7079 "/>
<path d="M203.5520 72.1974 L203.5520 75.6729 "/>
<path d="M203.5520 75.6729 L208.7653 73.4386 "/>
<path d="M205.2898 79.8931 L208.7653 79.8931 "/>
<path d="M205.2898 77.6589 L208.0205 77.6589 "/>
<path d="M208.0205 77.6589 L208.5170 77.9071 "/>
<path d="M208.5170 77.9071 L208.7653 78.4036 "/>
<path d="M208.7653 78.4036 L208.7653 79.1484 "/>
<path d="M208.7653 79.1484 L208.5170 79.6449 "/>
<path d="M208.5170 79.6449 L208.2688 79.8931 "/>
<path d="M208.7653 82.3756 L203.5520 82.3756 "/>
<path d="M206.0345 82.3756 L206.0345 85.3546 "/>
<path d="M208.7653 85.3546 L203.5520 85.3546 "/>
<path d="M208.7653 91.8091 L203.5520 91.8091 "/>
<path d="M203.5520 91.8091 L203.5520 93.0504 "/>
<path d="M203.5520 93.0504 L203.8003 93.7951 "/>
<path d="M203.8003 93.7951 L204.2968 94.2916 "/>
<path d="M204.2968 94.2916 L204.7933 94.5399 "/>
<path d="M204.7933 94.5399 L205.7863 94.7881 "/>
<path d="M205.7863 94.7881 L206.5310 94.7881 "/>
<path d="M206.5310 94.7881 L207.5240 94.5399 "/>
<path d="M207.5240 94.5399 L208.0205 94.2916 "/>
<path d="M208.0205 94.2916 L208.5170 93.7951 "/>
<path d="M208.5170 93.7951 L208.7653 93.0504 "/>
<path d="M208.7653 93.0504 L208.7653 91.8091 "/>
<path d="M206.0345 97.0224 L206.0345 98.7601 "/>
<path d="M208.7653 99.5049 L208.7653 97.0224 "/>
<path d="M208.7653 97.0224 L203.5520 97.0224 "/>
<path d="M203.5520 97.0224 L203.5520 99.5049 "/>
<path d="M203.5520 102.7321 L203.5520 103.2286 "/>
<path d="M203.5520 103.2286 L203.8003 103.7251 "/>
<path d="M203.8003 103.7251 L204.0485 103.9734 "/>
<path d="M204.0485 103.9734 L204.5450 104.2216 "/>
<path d="M204.5450 104.2216 L205.5380 104.4699 "/>
<path d="M205.5380 104.4699 L206.7793 104.4699 "/>
<path d="M206.7793 104.4699 L207.7723 104.2216 "/>
<path d="M207.7723 104.2216 L208.2688 103.9734 "/>
<path d="M208.2688 103.9734 L208.5170 103.7251 "/>
<path d="M208.5170 103.7251 L208.7653 103.2286 "/>
<path d="M208.7653 103.2286 L208.7653 102.7321 "/>
<path d="M208.7653 102.7321 L208.5170 102.2356 "/>
<path d="M208.5170 102.2356 L208.2688 101.9874 "/>
<path d="M208.2688 101.9874 L207.7723 101.7391 "/>
<path d="M207.7723 101.7391 L206.7793 101.4909 "/>
<path d="M206.7793 101.4909 L205.5380 101.4909 "/>
<path d="M205.5380 101.4909 L204.5450 101.7391 "/>
<path d="M204.5450 101.7391 L204.0485 101.9874 "/>
<path d="M204.0485 101.9874 L203.8003 102.2356 "/>
<path d="M203.8003 102.2356 L203.5520 102.7321 "/>
<path d="M203.5520 106.2076 L203.5520 109.6831 "/>
<path d="M203.5520 109.6831 L208.7653 107.4489 "/>
<path d="M203.5520 112.6621 L203.5520 113.1586 "/>
<path d="M203.5520 113.1586 L203.8003 113.6551 "/>
<path d="M203.8003 113.6551 L204.0485 113.9034 "/>
<path d="M204.0485 113.9034 L204.5450 114.1516 "/>
<path d="M204.5450 114.1516 L205.5380 114.3999 "/>
<path d="M205.5380 114.3999 L206.7793 114.3999 "/>
<path d="M206.7793 114.3999 L207.7723 114.1516 "/>
<path d="M207.7723 114.1516 L208.2688 113.9034 "/>
<path d="M208.2688 113.9034 L208.5170 113.6551 "/>
<path d="M208.5170 113.6551 L208.7653 113.1586 "/>
<path d="M208.7653 113.1586 L208.7653 112.6621 "/>
<path d="M208.7653 112.6621 L208.5170 112.1656 "/>
<path d="M208.5170 112.1656 L208.2688 111.9174 "/>
<path d="M208.2688 111.9174 L207.7723 111.6691 "/>
<path d="M207.7723 111.6691 L206.7793 111.4209 "/>
<path d="M206.7793 111.4209 L205.5380 111.4209 "/>
<path d="M205.5380 111.4209 L204.5450 111.6691 "/>
<path d="M204.5450 111.6691 L204.0485 111.9174 "/>
<path d="M204.0485 111.9174 L203.8003 112.1656 "/>
<path d="M203.8003 112.1656 L203.5520 112.6621 "/>
<path d="M203.5520 116.1376 L203.5520 119.3649 "/>
<path d="M203.5520 119.3649 L205.5380 117.6271 "/>
<path d="M205.5380 117.6271 L205.5380 118.3719 "/>
<path d="M205.5380 118.3719 L205.7863 118.8684 "/>
<path d="M205.7863 118.8684 L206.0345 119.1166 "/>
<path d="M206.0345 119.1166 L206.5310 119.3649 "/>
<path d="M206.5310 119.3649 L207.7723 119.3649 "/>
<path d="M207.7723 119.3649 L208.2688 119.1166 "/>
<path d="M208.2688 119.1166 L208.5170 118.8684 "/>
<path d="M208.5170 118.8684 L208.7653 118.3719 "/>
<path d="M208.7653 118.3719 L208.7653 116.8824 "/>
<path d="M208.7653 116.8824 L208.5170 116.3859 "/>
<path d="M208.5170 116.3859 L208.2688 116.1376 "/>
<path d="M206.7793 121.5991 L206.7793 125.5711 "/>
<path d="M205.2898 130.2878 L208.7653 130.2878 "/>
<path d="M203.3038 129.0466 L207.0275 127.8054 "/>
<path d="M207.0275 127.8054 L207.0275 131.0326 "/>
<path d="M203.5520 132.5221 L203.5520 135.9976 "/>
<path d="M203.5520 135.9976 L208.7653 133.7633 "/>
</g><g transform="rotate(-90.000000 230.8965 101.6150)">
<text x="230.8965" y="104.2216" transform="scale(-1 1) translate(-461.792930 0)" textLength="10.0976" font-size="6.9510" lengthAdjust="spacingAndGlyphs" text-anchor="middle" opacity="0.01" style="font-family:monospace">L1</text>
</g>
<g class="stroked-text"><desc>L1</desc>
<path d="M233.2675 100.7461 L233.2675 98.2636 "/>
<path d="M233.2675 98.2636 L228.0543 98.2636 "/>
<path d="M233.2675 105.2146 L233.2675 102.2356 "/>
<path d="M233.2675 103.7251 L228.0543 103.7251 "/>
<path d="M228.0543 103.7251 L228.7991 103.2286 "/>
<path d="M228.7991 103.2286 L229.2955 102.7321 "/>
<path d="M229.2955 102.7321 L229.5438 102.2356 "/>
</g><text x="168.8328" y="106.9064" transform="scale(-1 1) translate(-337.665528 0)" textLength="24.9926" font-size="6.9510" lengthAdjust="spacingAndGlyphs" text-anchor="middle" opacity="0.01" style="font-family:monospace">100nF</text>
<g class="stroked-text"><desc>100nF</desc>
<path d="M176.9009 106.6709 L179.8799 106.6709 "/>
<path d="M178.3904 106.6709 L178.3904 101.4577 "/>
<path d="M178.3904 101.4577 L178.8869 102.2024 "/>
<path d="M178.8869 102.2024 L179.3834 102.6989 "/>
<path d="M179.3834 102.6989 L179.8799 102.9471 "/>
<path d="M173.6736 101.4577 L173.1771 101.4577 "/>
<path d="M173.1771 101.4577 L172.6806 101.7059 "/>
<path d="M172.6806 101.7059 L172.4324 101.9542 "/>
<path d="M172.4324 101.9542 L172.1841 102.4506 "/>
<path d="M172.1841 102.4506 L171.9359 103.4436 "/>
<path d="M171.9359 103.4436 L171.9359 104.6849 "/>
<path d="M171.9359 104.6849 L172.1841 105.6779 "/>
<path d="M172.1841 105.6779 L172.4324 106.1744 "/>
<path d="M172.4324 106.1744 L172.6806 106.4226 "/>
<path d="M172.6806 106.4226 L173.1771 106.6709 "/>
<path d="M173.1771 106.6709 L173.6736 106.6709 "/>
<path d="M173.6736 106.6709 L174.1701 106.4226 "/>
<path d="M174.1701 106.4226 L174.4184 106.1744 "/>
<path d="M174.4184 106.1744 L174.6666 105.6779 "/>
<path d="M174.6666 105.6779 L174.9149 104.6849 "/>
<path d="M174.9149 104.6849 L174.9149 103.4436 "/>
<path d="M174.9149 103.4436 L174.6666 102.4506 "/>
<path d="M174.6666 102.4506 L174.4184 101.9542 "/>
<path d="M174.4184 101.9542 L174.1701 101.7059 "/>
<path d="M174.1701 101.7059 L173.6736 101.4577 "/>
<path d="M168.7086 101.4577 L168.2121 101.4577 "/>
<path d="M168.2121 101.4577 L167.7156 101.7059 "/>
<path d="M167.7156 101.7059 L167.4674 101.9542 "/>
<path d="M167.4674 101.9542 L167.2191 102.4506 "/>
<path d="M167.2191 102.4506 L166.9709 103.4436 "/>
<path d="M166.9709 103.4436 L166.9709 104.6849 "/>
<path d="M166.9709 104.6849 L167.2191 105.6779 "/>
<path d="M167.2191 105.6779 L167.4674 106.1744 "/>
<path d="M167.4674 106.1744 L167.7156 106.4226 "/>
<path d="M167.7156 106.4226 L168.2121 106.6709 "/>
<path d="M168.2121 106.6709 L168.7086 106.6709 "/>
<path d="M168.7086 106.6709 L169.2051 106.4226 "/>
<path d="M169.2051 106.4226 L169.4534 106.1744 "/>
<path d="M169.4534 106.1744 L169.7016 105.6779 "/>
<path d="M169.7016 105.6779 L169.9499 104.6849 "/>
<path d="M169.9499 104.6849 L169.9499 103.4436 "/>
<path d="M169.9499 103.4436 L169.7016 102.4506 "/>
<path d="M169.7016 102.4506 L169.4534 101.9542 "/>
<path d="M169.4534 101.9542 L169.2051 101.7059 "/>
<path d="M169.2051 101.7059 L168.7086 101.4577 "/>
<path d="M164.7366 103.1954 L164.7366 106.6709 "/>
<path d="M164.7366 103.6919 L164.4884 103.4436 "/>
<path d="M164.4884 103.4436 L163.9919 103.1954 "/>
<path d="M163.9919 103.1954 L163.2471 103.1954 "/>
<path d="M163.2471 103.1954 L162.7506 103.4436 "/>
<path d="M162.7506 103.4436 L162.5024 103.9401 "/>
<path d="M162.5024 103.9401 L162.5024 106.6709 "/>
<path d="M158.2821 103.9401 L160.0199 103.9401 "/>
<path d="M160.0199 106.6709 L160.0199 101.4577 "/>
<path d="M160.0199 101.4577 L157.5374 101.4577 "/>
</g></g>
<g style="fill:#000084; fill-opacity:0.01;  stroke:#000084; stroke-width:0.4171; stroke-opacity:1;  stroke-linecap:round; stroke-linejoin:round;">
<text x="168.8328" y="96.8449" transform="scale(-1 1) translate(-337.665528 0)" textLength="5.6104" font-size="3.4755" lengthAdjust="spacingAndGlyphs" text-anchor="middle" opacity="0.01" style="font-family:monospace">C3</text>
<g class="stroked-text"><desc>C3</desc>
<path d="M169.2672 96.4775 L169.3913 96.6016 "/>
<path d="M169.3913 96.6016 L169.7637 96.7257 "/>
<path d="M169.7637 96.7257 L170.0119 96.7257 "/>
<path d="M170.0119 96.7257 L170.3843 96.6016 "/>
<path d="M170.3843 96.6016 L170.6326 96.3534 "/>
<path d="M170.6326 96.3534 L170.7567 96.1051 "/>
<path d="M170.7567 96.1051 L170.8808 95.6086 "/>
<path d="M170.8808 95.6086 L170.8808 95.2362 "/>
<path d="M170.8808 95.2362 L170.7567 94.7397 "/>
<path d="M170.7567 94.7397 L170.6326 94.4915 "/>
<path d="M170.6326 94.4915 L170.3843 94.2432 "/>
<path d="M170.3843 94.2432 L170.0119 94.1191 "/>
<path d="M170.0119 94.1191 L169.7637 94.1191 "/>
<path d="M169.7637 94.1191 L169.3913 94.2432 "/>
<path d="M169.3913 94.2432 L169.2672 94.3674 "/>
<path d="M168.3983 94.1191 L166.7847 94.1191 "/>
<path d="M166.7847 94.1191 L167.6536 95.1121 "/>
<path d="M167.6536 95.1121 L167.2812 95.1121 "/>
<path d="M167.2812 95.1121 L167.0329 95.2362 "/>
<path d="M167.0329 95.2362 L166.9088 95.3604 "/>
<path d="M166.9088 95.3604 L166.7847 95.6086 "/>
<path d="M166.7847 95.6086 L166.7847 96.2292 "/>
<path d="M166.7847 96.2292 L166.9088 96.4775 "/>
<path d="M166.9088 96.4775 L167.0329 96.6016 "/>
<path d="M167.0329 96.6016 L167.2812 96.7257 "/>
<path d="M167.2812 96.7257 L168.0259 96.7257 "/>
<path d="M168.0259 96.7257 L168.2742 96.6016 "/>
<path d="M168.2742 96.6016 L168.3983 96.4775 "/>
</g></g>
<g style="fill:#000084; fill-opacity:0.01;  stroke:#000084; stroke-width:0.7820; stroke-opacity:1;  stroke-linecap:round; stroke-linejoin:round;">
<text x="177.6301" y="155.5200" transform="scale(-1 1) translate(-355.260235 0)" textLength="67.4433" font-size="6.9510" lengthAdjust="spacingAndGlyphs" text-anchor="middle" opacity="0.01" style="font-family:monospace">DRV10987DPWPR</text>
<g class="stroked-text"><desc>DRV10987DPWPR</desc>
<path d="M209.6543 155.2844 L209.6543 150.0712 "/>
<path d="M209.6543 150.0712 L208.4131 150.0712 "/>
<path d="M208.4131 150.0712 L207.6683 150.3194 "/>
<path d="M207.6683 150.3194 L207.1718 150.8159 "/>
<path d="M207.1718 150.8159 L206.9236 151.3124 "/>
<path d="M206.9236 151.3124 L206.6753 152.3054 "/>
<path d="M206.6753 152.3054 L206.6753 153.0502 "/>
<path d="M206.6753 153.0502 L206.9236 154.0432 "/>
<path d="M206.9236 154.0432 L207.1718 154.5397 "/>
<path d="M207.1718 154.5397 L207.6683 155.0362 "/>
<path d="M207.6683 155.0362 L208.4131 155.2844 "/>
<path d="M208.4131 155.2844 L209.6543 155.2844 "/>
<path d="M201.4621 155.2844 L203.1998 152.8019 "/>
<path d="M204.4411 155.2844 L204.4411 150.0712 "/>
<path d="M204.4411 150.0712 L202.4551 150.0712 "/>
<path d="M202.4551 150.0712 L201.9586 150.3194 "/>
<path d="M201.9586 150.3194 L201.7103 150.5677 "/>
<path d="M201.7103 150.5677 L201.4621 151.0642 "/>
<path d="M201.4621 151.0642 L201.4621 151.8089 "/>
<path d="M201.4621 151.8089 L201.7103 152.3054 "/>
<path d="M201.7103 152.3054 L201.9586 152.5537 "/>
<path d="M201.9586 152.5537 L202.4551 152.8019 "/>
<path d="M202.4551 152.8019 L204.4411 152.8019 "/>
<path d="M199.9726 150.0712 L198.2348 155.2844 "/>
<path d="M198.2348 155.2844 L196.4971 150.0712 "/>
<path d="M192.0286 155.2844 L195.0076 155.2844 "/>
<path d="M193.5181 155.2844 L193.5181 150.0712 "/>
<path d="M193.5181 150.0712 L194.0146 150.8159 "/>
<path d="M194.0146 150.8159 L194.5111 151.3124 "/>
<path d="M194.5111 151.3124 L195.0076 151.5607 "/>
<path d="M188.8014 150.0712 L188.3049 150.0712 "/>
<path d="M188.3049 150.0712 L187.8084 150.3194 "/>
<path d="M187.8084 150.3194 L187.5601 150.5677 "/>
<path d="M187.5601 150.5677 L187.3119 151.0642 "/>
<path d="M187.3119 151.0642 L187.0636 152.0572 "/>
<path d="M187.0636 152.0572 L187.0636 153.2984 "/>
<path d="M187.0636 153.2984 L187.3119 154.2914 "/>
<path d="M187.3119 154.2914 L187.5601 154.7879 "/>
<path d="M187.5601 154.7879 L187.8084 155.0362 "/>
<path d="M187.8084 155.0362 L188.3049 155.2844 "/>
<path d="M188.3049 155.2844 L188.8014 155.2844 "/>
<path d="M188.8014 155.2844 L189.2979 155.0362 "/>
<path d="M189.2979 155.0362 L189.5461 154.7879 "/>
<path d="M189.5461 154.7879 L189.7944 154.2914 "/>
<path d="M189.7944 154.2914 L190.0426 153.2984 "/>
<path d="M190.0426 153.2984 L190.0426 152.0572 "/>
<path d="M190.0426 152.0572 L189.7944 151.0642 "/>
<path d="M189.7944 151.0642 L189.5461 150.5677 "/>
<path d="M189.5461 150.5677 L189.2979 150.3194 "/>
<path d="M189.2979 150.3194 L188.8014 150.0712 "/>
<path d="M184.5811 155.2844 L183.5881 155.2844 "/>
<path d="M183.5881 155.2844 L183.0916 155.0362 "/>
<path d="M183.0916 155.0362 L182.8434 154.7879 "/>
<path d="M182.8434 154.7879 L182.3469 154.0432 "/>
<path d="M182.3469 154.0432 L182.0986 153.0502 "/>
<path d="M182.0986 153.0502 L182.0986 151.0642 "/>
<path d="M182.0986 151.0642 L182.3469 150.5677 "/>
<path d="M182.3469 150.5677 L182.5951 150.3194 "/>
<path d="M182.5951 150.3194 L183.0916 150.0712 "/>
<path d="M183.0916 150.0712 L184.0846 150.0712 "/>
<path d="M184.0846 150.0712 L184.5811 150.3194 "/>
<path d="M184.5811 150.3194 L184.8294 150.5677 "/>
<path d="M184.8294 150.5677 L185.0776 151.0642 "/>
<path d="M185.0776 151.0642 L185.0776 152.3054 "/>
<path d="M185.0776 152.3054 L184.8294 152.8019 "/>
<path d="M184.8294 152.8019 L184.5811 153.0502 "/>
<path d="M184.5811 153.0502 L184.0846 153.2984 "/>
<path d="M184.0846 153.2984 L183.0916 153.2984 "/>
<path d="M183.0916 153.2984 L182.5951 153.0502 "/>
<path d="M182.5951 153.0502 L182.3469 152.8019 "/>
<path d="M182.3469 152.8019 L182.0986 152.3054 "/>
<path d="M179.1196 152.3054 L179.6161 152.0572 "/>
<path d="M179.6161 152.0572 L179.8644 151.8089 "/>
<path d="M179.8644 151.8089 L180.1126 151.3124 "/>
<path d="M180.1126 151.3124 L180.1126 151.0642 "/>
<path d="M180.1126 151.0642 L179.8644 150.5677 "/>
<path d="M179.8644 150.5677 L179.6161 150.3194 "/>
<path d="M179.6161 150.3194 L179.1196 150.0712 "/>
<path d="M179.1196 150.0712 L178.1266 150.0712 "/>
<path d="M178.1266 150.0712 L177.6301 150.3194 "/>
<path d="M177.6301 150.3194 L177.3819 150.5677 "/>
<path d="M177.3819 150.5677 L177.1336 151.0642 "/>
<path d="M177.1336 151.0642 L177.1336 151.3124 "/>
<path d="M177.1336 151.3124 L177.3819 151.8089 "/>
<path d="M177.3819 151.8089 L177.6301 152.0572 "/>
<path d="M177.6301 152.0572 L178.1266 152.3054 "/>
<path d="M178.1266 152.3054 L179.1196 152.3054 "/>
<path d="M179.1196 152.3054 L179.6161 152.5537 "/>
<path d="M179.6161 152.5537 L179.8644 152.8019 "/>
<path d="M179.8644 152.8019 L180.1126 153.2984 "/>
<path d="M180.1126 153.2984 L180.1126 154.2914 "/>
<path d="M180.1126 154.2914 L179.8644 154.7879 "/>
<path d="M179.8644 154.7879 L179.6161 155.0362 "/>
<path d="M179.6161 155.0362 L179.1196 155.2844 "/>
<path d="M179.1196 155.2844 L178.1266 155.2844 "/>
<path d="M178.1266 155.2844 L177.6301 155.0362 "/>
<path d="M177.6301 155.0362 L177.3819 154.7879 "/>
<path d="M177.3819 154.7879 L177.1336 154.2914 "/>
<path d="M177.1336 154.2914 L177.1336 153.2984 "/>
<path d="M177.1336 153.2984 L177.3819 152.8019 "/>
<path d="M177.3819 152.8019 L177.6301 152.5537 "/>
<path d="M177.6301 152.5537 L178.1266 152.3054 "/>
<path d="M175.3959 150.0712 L171.9204 150.0712 "/>
<path d="M171.9204 150.0712 L174.1546 155.2844 "/>
<path d="M169.9344 155.2844 L169.9344 150.0712 "/>
<path d="M169.9344 150.0712 L168.6931 150.0712 "/>
<path d="M168.6931 150.0712 L167.9484 150.3194 "/>
<path d="M167.9484 150.3194 L167.4519 150.8159 "/>
<path d="M167.4519 150.8159 L167.2036 151.3124 "/>
<path d="M167.2036 151.3124 L166.9554 152.3054 "/>
<path d="M166.9554 152.3054 L166.9554 153.0502 "/>
<path d="M166.9554 153.0502 L167.2036 154.0432 "/>
<path d="M167.2036 154.0432 L167.4519 154.5397 "/>
<path d="M167.4519 154.5397 L167.9484 155.0362 "/>
<path d="M167.9484 155.0362 L168.6931 155.2844 "/>
<path d="M168.6931 155.2844 L169.9344 155.2844 "/>
<path d="M164.7211 155.2844 L164.7211 150.0712 "/>
<path d="M164.7211 150.0712 L162.7351 150.0712 "/>
<path d="M162.7351 150.0712 L162.2386 150.3194 "/>
<path d="M162.2386 150.3194 L161.9904 150.5677 "/>
<path d="M161.9904 150.5677 L161.7421 151.0642 "/>
<path d="M161.7421 151.0642 L161.7421 151.8089 "/>
<path d="M161.7421 151.8089 L161.9904 152.3054 "/>
<path d="M161.9904 152.3054 L162.2386 152.5537 "/>
<path d="M162.2386 152.5537 L162.7351 152.8019 "/>
<path d="M162.7351 152.8019 L164.7211 152.8019 "/>
<path d="M160.0044 150.0712 L158.7631 155.2844 "/>
<path d="M158.7631 155.2844 L157.7701 151.5607 "/>
<path d="M157.7701 151.5607 L156.7771 155.2844 "/>
<path d="M156.7771 155.2844 L155.5359 150.0712 "/>
<path d="M153.5499 155.2844 L153.5499 150.0712 "/>
<path d="M153.5499 150.0712 L151.5639 150.0712 "/>
<path d="M151.5639 150.0712 L151.0674 150.3194 "/>
<path d="M151.0674 150.3194 L150.8191 150.5677 "/>
<path d="M150.8191 150.5677 L150.5709 151.0642 "/>
<path d="M150.5709 151.0642 L150.5709 151.8089 "/>
<path d="M150.5709 151.8089 L150.8191 152.3054 "/>
<path d="M150.8191 152.3054 L151.0674 152.5537 "/>
<path d="M151.0674 152.5537 L151.5639 152.8019 "/>
<path d="M151.5639 152.8019 L153.5499 152.8019 "/>
<path d="M145.3576 155.2844 L147.0954 152.8019 "/>
<path d="M148.3366 155.2844 L148.3366 150.0712 "/>
<path d="M148.3366 150.0712 L146.3506 150.0712 "/>
<path d="M146.3506 150.0712 L145.8541 150.3194 "/>
<path d="M145.8541 150.3194 L145.6059 150.5677 "/>
<path d="M145.6059 150.5677 L145.3576 151.0642 "/>
<path d="M145.3576 151.0642 L145.3576 151.8089 "/>
<path d="M145.3576 151.8089 L145.6059 152.3054 "/>
<path d="M145.6059 152.3054 L145.8541 152.5537 "/>
<path d="M145.8541 152.5537 L146.3506 152.8019 "/>
<path d="M146.3506 152.8019 L148.3366 152.8019 "/>
</g><text x="179.8718" y="130.2357" transform="scale(-1 1) translate(-359.743627 0)" textLength="13.5731" font-size="6.9510" lengthAdjust="spacingAndGlyphs" text-anchor="middle" opacity="0.01" style="font-family:monospace">IC1</text>
<g class="stroked-text"><desc>IC1</desc>
<path d="M184.9609 130.0002 L184.9609 124.7869 "/>
<path d="M179.4994 129.5037 L179.7477 129.7519 "/>
<path d="M179.7477 129.7519 L180.4924 130.0002 "/>
<path d="M180.4924 130.0002 L180.9889 130.0002 "/>
<path d="M180.9889 130.0002 L181.7337 129.7519 "/>
<path d="M181.7337 129.7519 L182.2302 129.2554 "/>
<path d="M182.2302 129.2554 L182.4784 128.7589 "/>
<path d="M182.4784 128.7589 L182.7267 127.7659 "/>
<path d="M182.7267 127.7659 L182.7267 127.0212 "/>
<path d="M182.7267 127.0212 L182.4784 126.0282 "/>
<path d="M182.4784 126.0282 L182.2302 125.5317 "/>
<path d="M182.2302 125.5317 L181.7337 125.0352 "/>
<path d="M181.7337 125.0352 L180.9889 124.7869 "/>
<path d="M180.9889 124.7869 L180.4924 124.7869 "/>
<path d="M180.4924 124.7869 L179.7477 125.0352 "/>
<path d="M179.7477 125.0352 L179.4994 125.2834 "/>
<path d="M174.5344 130.0002 L177.5134 130.0002 "/>
<path d="M176.0239 130.0002 L176.0239 124.7869 "/>
<path d="M176.0239 124.7869 L176.5204 125.5317 "/>
<path d="M176.5204 125.5317 L177.0169 126.0282 "/>
<path d="M177.0169 126.0282 L177.5134 126.2764 "/>
</g><g transform="rotate(-90.000000 89.0962 162.9358)">
<text x="89.0962" y="165.5424" transform="scale(-1 1) translate(-178.192314 0)" textLength="16.0556" font-size="6.9510" lengthAdjust="spacingAndGlyphs" text-anchor="middle" opacity="0.01" style="font-family:monospace">DNF</text>
</g>
<g class="stroked-text"><desc>DNF</desc>
<path d="M91.4672 156.6054 L86.2540 156.6054 "/>
<path d="M86.2540 156.6054 L86.2540 157.8467 "/>
<path d="M86.2540 157.8467 L86.5022 158.5914 "/>
<path d="M86.5022 158.5914 L86.9987 159.0879 "/>
<path d="M86.9987 159.0879 L87.4952 159.3362 "/>
<path d="M87.4952 159.3362 L88.4882 159.5844 "/>
<path d="M88.4882 159.5844 L89.2330 159.5844 "/>
<path d="M89.2330 159.5844 L90.2260 159.3362 "/>
<path d="M90.2260 159.3362 L90.7225 159.0879 "/>
<path d="M90.7225 159.0879 L91.2190 158.5914 "/>
<path d="M91.2190 158.5914 L91.4672 157.8467 "/>
<path d="M91.4672 157.8467 L91.4672 156.6054 "/>
<path d="M91.4672 161.8187 L86.2540 161.8187 "/>
<path d="M86.2540 161.8187 L91.4672 164.7977 "/>
<path d="M91.4672 164.7977 L86.2540 164.7977 "/>
<path d="M88.7365 169.0179 L88.7365 167.2802 "/>
<path d="M91.4672 167.2802 L86.2540 167.2802 "/>
<path d="M86.2540 167.2802 L86.2540 169.7627 "/>
</g></g>
<g style="fill:#000084; fill-opacity:0.0;  stroke:#000084; stroke-width:0.4171; stroke-opacity:1;  stroke-linecap:round; stroke-linejoin:round;">
<g transform="rotate(-90.000000 80.4943 162.9358)">
<text x="80.4943" y="164.2391" transform="scale(-1 1) translate(-160.988600 0)" textLength="5.6104" font-size="3.4755" lengthAdjust="spacingAndGlyphs" text-anchor="middle" opacity="0.01" style="font-family:monospace">R4</text>
</g>
<g class="stroked-text"><desc>R4</desc>
<path d="M81.6785 162.5014 L80.4372 161.6325 "/>
<path d="M81.6785 161.0119 L79.0719 161.0119 "/>
<path d="M79.0719 161.0119 L79.0719 162.0049 "/>
<path d="M79.0719 162.0049 L79.1960 162.2531 "/>
<path d="M79.1960 162.2531 L79.3201 162.3772 "/>
<path d="M79.3201 162.3772 L79.5684 162.5014 "/>
<path d="M79.5684 162.5014 L79.9407 162.5014 "/>
<path d="M79.9407 162.5014 L80.1890 162.3772 "/>
<path d="M80.1890 162.3772 L80.3131 162.2531 "/>
<path d="M80.3131 162.2531 L80.4372 162.0049 "/>
<path d="M80.4372 162.0049 L80.4372 161.0119 "/>
<path d="M79.9407 164.7356 L81.6785 164.7356 "/>
<path d="M78.9477 164.1150 L80.8096 163.4944 "/>
<path d="M80.8096 163.4944 L80.8096 165.1080 "/>
</g></g>
<g style="fill:#000084; fill-opacity:0.01;  stroke:#000084; stroke-width:0.7820; stroke-opacity:1;  stroke-linecap:round; stroke-linejoin:round;">
<text x="182.7391" y="161.3067" transform="scale(-1 1) translate(-365.478199 0)" textLength="15.0626" font-size="6.9510" lengthAdjust="spacingAndGlyphs" text-anchor="middle" opacity="0.01" style="font-family:monospace">4k7</text>
<g class="stroked-text"><desc>4k7</desc>
<path d="M186.3387 157.5956 L186.3387 161.0711 "/>
<path d="M187.5800 155.6096 L188.8212 159.3334 "/>
<path d="M188.8212 159.3334 L185.5940 159.3334 "/>
<path d="M183.6080 161.0711 L183.6080 155.8579 "/>
<path d="M183.1115 159.0851 L181.6220 161.0711 "/>
<path d="M181.6220 157.5956 L183.6080 159.5816 "/>
<path d="M179.8842 155.8579 L176.4087 155.8579 "/>
<path d="M176.4087 155.8579 L178.6430 161.0711 "/>
</g></g>
<g style="fill:#000084; fill-opacity:0.01;  stroke:#000084; stroke-width:0.4171; stroke-opacity:1;  stroke-linecap:round; stroke-linejoin:round;">
<text x="182.7391" y="168.6052" transform="scale(-1 1) translate(-365.478199 0)" textLength="5.6104" font-size="3.4755" lengthAdjust="spacingAndGlyphs" text-anchor="middle" opacity="0.01" style="font-family:monospace">R1</text>
<g class="stroked-text"><desc>R1</desc>
<path d="M183.1735 168.4861 L184.0424 167.2448 "/>
<path d="M184.6630 168.4861 L184.6630 165.8795 "/>
<path d="M184.6630 165.8795 L183.6700 165.8795 "/>
<path d="M183.6700 165.8795 L183.4218 166.0036 "/>
<path d="M183.4218 166.0036 L183.2977 166.1277 "/>
<path d="M183.2977 166.1277 L183.1735 166.3760 "/>
<path d="M183.1735 166.3760 L183.1735 166.7483 "/>
<path d="M183.1735 166.7483 L183.2977 166.9966 "/>
<path d="M183.2977 166.9966 L183.4218 167.1207 "/>
<path d="M183.4218 167.1207 L183.6700 167.2448 "/>
<path d="M183.6700 167.2448 L184.6630 167.2448 "/>
<path d="M180.6910 168.4861 L182.1805 168.4861 "/>
<path d="M181.4358 168.4861 L181.4358 165.8795 "/>
<path d="M181.4358 165.8795 L181.6840 166.2518 "/>
<path d="M181.6840 166.2518 L181.9323 166.5001 "/>
<path d="M181.9323 166.5001 L182.1805 166.6242 "/>
</g></g>
<g style="fill:#000084; fill-opacity:0.01;  stroke:#000084; stroke-width:0.7820; stroke-opacity:1;  stroke-linecap:round; stroke-linejoin:round;">
<text x="197.9227" y="107.7666" transform="scale(-1 1) translate(-395.845360 0)" textLength="20.0276" font-size="6.9510" lengthAdjust="spacingAndGlyphs" text-anchor="middle" opacity="0.01" style="font-family:monospace">10nF</text>
<g class="stroked-text"><desc>10nF</desc>
<path d="M203.5083 107.5311 L206.4873 107.5311 "/>
<path d="M204.9978 107.5311 L204.9978 102.3178 "/>
<path d="M204.9978 102.3178 L205.4943 103.0626 "/>
<path d="M205.4943 103.0626 L205.9908 103.5591 "/>
<path d="M205.9908 103.5591 L206.4873 103.8073 "/>
<path d="M200.2810 102.3178 L199.7845 102.3178 "/>
<path d="M199.7845 102.3178 L199.2881 102.5661 "/>
<path d="M199.2881 102.5661 L199.0398 102.8143 "/>
<path d="M199.0398 102.8143 L198.7916 103.3108 "/>
<path d="M198.7916 103.3108 L198.5433 104.3038 "/>
<path d="M198.5433 104.3038 L198.5433 105.5451 "/>
<path d="M198.5433 105.5451 L198.7916 106.5381 "/>
<path d="M198.7916 106.5381 L199.0398 107.0346 "/>
<path d="M199.0398 107.0346 L199.2881 107.2828 "/>
<path d="M199.2881 107.2828 L199.7845 107.5311 "/>
<path d="M199.7845 107.5311 L200.2810 107.5311 "/>
<path d="M200.2810 107.5311 L200.7775 107.2828 "/>
<path d="M200.7775 107.2828 L201.0258 107.0346 "/>
<path d="M201.0258 107.0346 L201.2740 106.5381 "/>
<path d="M201.2740 106.5381 L201.5223 105.5451 "/>
<path d="M201.5223 105.5451 L201.5223 104.3038 "/>
<path d="M201.5223 104.3038 L201.2740 103.3108 "/>
<path d="M201.2740 103.3108 L201.0258 102.8143 "/>
<path d="M201.0258 102.8143 L200.7775 102.5661 "/>
<path d="M200.7775 102.5661 L200.2810 102.3178 "/>
<path d="M196.3090 104.0556 L196.3090 107.5311 "/>
<path d="M196.3090 104.5521 L196.0608 104.3038 "/>
<path d="M196.0608 104.3038 L195.5643 104.0556 "/>
<path d="M195.5643 104.0556 L194.8196 104.0556 "/>
<path d="M194.8196 104.0556 L194.3231 104.3038 "/>
<path d="M194.3231 104.3038 L194.0748 104.8003 "/>
<path d="M194.0748 104.8003 L194.0748 107.5311 "/>
<path d="M189.8546 104.8003 L191.5923 104.8003 "/>
<path d="M191.5923 107.5311 L191.5923 102.3178 "/>
<path d="M191.5923 102.3178 L189.1098 102.3178 "/>
</g></g>
<g style="fill:#000084; fill-opacity:0.01;  stroke:#000084; stroke-width:0.4171; stroke-opacity:1;  stroke-linecap:round; stroke-linejoin:round;">
<text x="197.9227" y="97.7051" transform="scale(-1 1) translate(-395.845360 0)" textLength="5.6104" font-size="3.4755" lengthAdjust="spacingAndGlyphs" text-anchor="middle" opacity="0.01" style="font-family:monospace">C2</text>
<g class="stroked-text"><desc>C2</desc>
<path d="M198.3571 97.3377 L198.4812 97.4618 "/>
<path d="M198.4812 97.4618 L198.8536 97.5859 "/>
<path d="M198.8536 97.5859 L199.1019 97.5859 "/>
<path d="M199.1019 97.5859 L199.4742 97.4618 "/>
<path d="M199.4742 97.4618 L199.7225 97.2136 "/>
<path d="M199.7225 97.2136 L199.8466 96.9653 "/>
<path d="M199.8466 96.9653 L199.9707 96.4688 "/>
<path d="M199.9707 96.4688 L199.9707 96.0964 "/>
<path d="M199.9707 96.0964 L199.8466 95.5999 "/>
<path d="M199.8466 95.5999 L199.7225 95.3517 "/>
<path d="M199.7225 95.3517 L199.4742 95.1034 "/>
<path d="M199.4742 95.1034 L199.1019 94.9793 "/>
<path d="M199.1019 94.9793 L198.8536 94.9793 "/>
<path d="M198.8536 94.9793 L198.4812 95.1034 "/>
<path d="M198.4812 95.1034 L198.3571 95.2276 "/>
<path d="M197.3641 95.2276 L197.2400 95.1034 "/>
<path d="M197.2400 95.1034 L196.9917 94.9793 "/>
<path d="M196.9917 94.9793 L196.3711 94.9793 "/>
<path d="M196.3711 94.9793 L196.1229 95.1034 "/>
<path d="M196.1229 95.1034 L195.9987 95.2276 "/>
<path d="M195.9987 95.2276 L195.8746 95.4758 "/>
<path d="M195.8746 95.4758 L195.8746 95.7241 "/>
<path d="M195.8746 95.7241 L195.9987 96.0964 "/>
<path d="M195.9987 96.0964 L197.4882 97.5859 "/>
<path d="M197.4882 97.5859 L195.8746 97.5859 "/>
</g></g>
<g style="fill:#000084; fill-opacity:0.0;  stroke:#000084; stroke-width:0.5213; stroke-opacity:1;  stroke-linecap:round; stroke-linejoin:round;">
<path d="M216.2733 134.5366 L216.2733 128.0201 "/>
<path d="M216.2733 128.0201 L205.8468 128.0201 "/>
<path d="M205.8468 134.5366 L216.2733 134.5366 "/>
<path d="M205.8468 128.0201 L205.8468 134.5366 "/>
<path d="M189.5163 153.8778 L189.5163 160.3943 "/>
<path d="M189.5163 160.3943 L199.9428 160.3943 "/>
<path d="M199.9428 153.8778 L189.5163 153.8778 "/>
<path d="M199.9428 160.3943 L199.9428 153.8778 "/>
<path d="M258.0481 120.2836 L258.0481 126.8002 "/>
<path d="M258.0481 126.8002 L268.4746 126.8002 "/>
<path d="M268.4746 120.2836 L258.0481 120.2836 "/>
<path d="M268.4746 126.8002 L268.4746 120.2836 "/>
<path d="M229.7548 168.7616 L229.7548 160.4204 "/>
<path d="M229.7548 160.4204 L212.5511 160.4204 "/>
<path d="M225.0628 164.5910 L222.9775 164.5910 "/>
<path d="M222.9775 164.5910 L222.9775 167.4583 "/>
<path d="M222.9775 164.5910 L222.9775 161.7237 "/>
<path d="M222.9775 164.5910 L219.8496 162.5057 "/>
<path d="M219.8496 166.6763 L222.9775 164.5910 "/>
<path d="M219.8496 164.5910 L217.2430 164.5910 "/>
<path d="M219.8496 162.5057 L219.8496 166.6763 "/>
<path d="M212.5511 168.7616 L229.7548 168.7616 "/>
<path d="M212.5511 160.4204 L212.5511 168.7616 "/>
</g>
<g style="fill:#000084; fill-opacity:0.0;  stroke:#000084; stroke-width:0.7820; stroke-opacity:1;  stroke-linecap:round; stroke-linejoin:round;">
<path d="M241.3250 50.1477 L241.3250 64.9784 "/>
<path d="M241.5899 64.9784 L267.4111 64.9784 "/>
<path d="M267.1463 50.1477 L241.3250 50.1477 "/>
<path d="M267.5435 64.9784 L267.5435 50.1477 "/>
</g>
<g style="fill:#000084; fill-opacity:0.0;  stroke:#000084; stroke-width:0.5213; stroke-opacity:1;  stroke-linecap:round; stroke-linejoin:round;">
<path d="M144.6996 92.3615 L144.6996 98.8780 "/>
<path d="M144.6996 98.8780 L155.1261 98.8780 "/>
<path d="M155.1261 92.3615 L144.6996 92.3615 "/>
<path d="M155.1261 98.8780 L155.1261 92.3615 "/>
<path d="M97.1767 157.7226 L90.6601 157.7226 "/>
<path d="M90.6601 157.7226 L90.6601 168.1491 "/>
<path d="M97.1767 168.1491 L97.1767 157.7226 "/>
<path d="M90.6601 168.1491 L97.1767 168.1491 "/>
<path d="M246.9924 67.8592 L246.9924 74.3758 "/>
<path d="M246.9924 74.3758 L257.4189 74.3758 "/>
<path d="M257.4189 67.8592 L246.9924 67.8592 "/>
<path d="M257.4189 74.3758 L257.4189 67.8592 "/>
<path d="M169.0543 170.5602 L169.0543 164.0436 "/>
<path d="M169.0543 164.0436 L158.6278 164.0436 "/>
<path d="M158.6278 170.5602 L169.0543 170.5602 "/>
<path d="M158.6278 164.0436 L158.6278 170.5602 "/>
<path d="M111.6434 157.7226 L105.1269 157.7226 "/>
<path d="M105.1269 157.7226 L105.1269 168.1491 "/>
<path d="M111.6434 168.1491 L111.6434 157.7226 "/>
<path d="M105.1269 168.1491 L111.6434 168.1491 "/>
<path d="M222.4249 140.1930 L228.9415 140.1930 "/>
<path d="M228.9415 140.1930 L228.9415 129.7665 "/>
<path d="M222.4249 129.7665 L222.4249 140.1930 "/>
<path d="M228.9415 129.7665 L222.4249 129.7665 "/>
<path d="M216.2733 146.5271 L216.2733 140.0106 "/>
<path d="M216.2733 140.0106 L205.8468 140.0106 "/>
<path d="M205.8468 146.5271 L216.2733 146.5271 "/>
<path d="M205.8468 140.0106 L205.8468 146.5271 "/>
<path d="M258.0481 105.7178 L258.0481 112.2344 "/>
<path d="M258.0481 112.2344 L268.4746 112.2344 "/>
<path d="M268.4746 105.7178 L258.0481 105.7178 "/>
<path d="M268.4746 112.2344 L268.4746 105.7178 "/>
<path d="M212.6501 106.8282 L212.6501 96.4017 "/>
<path d="M249.1428 106.8282 L249.1428 96.4017 "/>
<path d="M212.6501 106.8282 A18.5699 18.5699 0.0 0 0 249.1428 106.8282"/>
<path d="M249.1428 96.4017 A18.5699 18.5699 0.0 0 0 212.6501 96.4017"/>
<path d="M174.0460 98.7998 L174.0460 92.2833 "/>
<path d="M174.0460 92.2833 L163.6195 92.2833 "/>
<path d="M163.6195 98.7998 L174.0460 98.7998 "/>
<path d="M163.6195 92.2833 L163.6195 98.7998 "/>
<path d="M189.0993 147.9608 L189.0993 112.5107 "/>
<path d="M189.0993 112.5107 L183.8860 107.2974 "/>
<path d="M183.8860 107.2974 L166.1610 107.2974 "/>
<path d="M166.1610 147.9608 L189.0993 147.9608 "/>
<path d="M166.1610 107.2974 L166.1610 147.9608 "/>
<path d="M83.7526 157.7226 L77.2360 157.7226 "/>
<path d="M77.2360 157.7226 L77.2360 168.1491 "/>
<path d="M83.7526 168.1491 L83.7526 157.7226 "/>
<path d="M77.2360 168.1491 L83.7526 168.1491 "/>
<path d="M177.5259 164.0436 L177.5259 170.5602 "/>
<path d="M177.5259 170.5602 L187.9523 170.5602 "/>
<path d="M187.9523 164.0436 L177.5259 164.0436 "/>
<path d="M187.9523 170.5602 L187.9523 164.0436 "/>
<path d="M203.1359 99.6600 L203.1359 93.1435 "/>
<path d="M203.1359 93.1435 L192.7094 93.1435 "/>
<path d="M192.7094 99.6600 L203.1359 99.6600 "/>
<path d="M192.7094 93.1435 L192.7094 99.6600 "/>
<g>
</g>
<g>
</g>
<g>
</g>
<g>
</g>
<g>
</g>
<g>
</g>
<g>
</g>
<g>
</g>
<g>
</g>
<g>
</g>
<g>
</g>
<g>
</g>
<g>
</g>
<g>
</g>
<g>
</g>
<g>
</g>
<g>
</g>
<g>
</g>
<g>
</g>
<g>
</g>
<g>
</g>
<g>
</g>
<g>
</g>
<g>
</g>
<g>
</g>
<g>
</g>
<g>
</g>
<g>
</g>
<g>
</g>
<g>
</g>
<g>
</g>
<g>
</g>
<g>
</g>
</g> 
<svg:g><svg:g><svg:title>SVG Image created as DRV10987V01-Edge_Cuts.svg date 2023/06/30 19:55:22 </svg:title>
  <svg:desc>Image generated by PCBNEW </svg:desc>
<svg:g style="fill:#C2C200; fill-opacity:1.0000;stroke:#C2C200; stroke-opacity:1.0000; stroke-linecap:round; stroke-linejoin:round;" transform="translate(0 0) scale(1 1)">
</svg:g>
<svg:g style="fill:#C2C200; fill-opacity:0.0;  stroke:#C2C200; stroke-width:0.0000; stroke-opacity:1;  stroke-linecap:round; stroke-linejoin:round;">
</svg:g>
<svg:g style="fill:#C2C200; fill-opacity:0.0;  stroke:#C2C200; stroke-width:0.7820; stroke-opacity:1;  stroke-linecap:round; stroke-linejoin:round;">
<svg:path style="fill:#C2C200; fill-opacity:0.0;  stroke:#C2C200; stroke-width:0.7820; stroke-opacity:1;  stroke-linecap:round; stroke-linejoin:round;fill:none" d="M 17.4088,0.3946 279.5934,0.3946 279.5934,209.6126 17.4088,209.6126 Z"/> 
</svg:g>
<svg:g style="fill:#C2C200; fill-opacity:0.0;  stroke:#C2C200; stroke-width:0.2607; stroke-opacity:1;  stroke-linecap:round; stroke-linejoin:round;">
<svg:path d="M248.6997 53.9138 L248.6997 61.2123 "/>
<svg:path d="M251.3063 51.3072 L257.5622 51.3072 "/>
<svg:path d="M251.3063 63.8190 L257.5622 63.8190 "/>
<svg:path d="M260.1688 53.9138 L260.1688 61.2123 "/>
<svg:path d="M251.3063 51.3072 A2.6066 2.6066 0.0 0 0 248.6997 53.9138"/>
<svg:path d="M248.6997 61.2123 A2.6066 2.6066 0.0 0 0 251.3063 63.8190"/>
<svg:path d="M260.1688 53.9138 A2.6066 2.6066 0.0 0 0 257.5622 51.3072"/>
<svg:path d="M257.5622 63.8190 A2.6066 2.6066 0.0 0 0 260.1688 61.2123"/>
<svg:g>
</svg:g>
<svg:g>
</svg:g>
<svg:g>
</svg:g>
<svg:g>
</svg:g>
<svg:g>
</svg:g>
<svg:g>
</svg:g>
<svg:g>
</svg:g>
<svg:g>
</svg:g>
<svg:g>
</svg:g>
<svg:g>
</svg:g>
<svg:g>
</svg:g>
<svg:g>
</svg:g>
<svg:g>
</svg:g>
<svg:g>
</svg:g>
<svg:g>
</svg:g>
<svg:g>
</svg:g>
<svg:g>
</svg:g>
<svg:g>
</svg:g>
<svg:g>
</svg:g>
<svg:g>
</svg:g>
<svg:g>
</svg:g>
<svg:g>
</svg:g>
<svg:g>
</svg:g>
<svg:g>
</svg:g>
<svg:g>
</svg:g>
<svg:g>
</svg:g>
<svg:g>
</svg:g>
<svg:g>
</svg:g>
<svg:g>
</svg:g>
<svg:g>
</svg:g>
<svg:g>
</svg:g>
<svg:g>
</svg:g>
<svg:g>
</svg:g>
</svg:g> 
</svg:g></svg:g></svg>
