<?xml version='1.0' encoding='ASCII' standalone='yes'?>
<svg xmlns:svg="http://www.w3.org/2000/svg" xmlns="http://www.w3.org/2000/svg" xmlns:xlink="http://www.w3.org/1999/xlink" version="1.1" width="297.0022mm" height="210.0072mm" viewBox="0.0000 0.0000 297.0022 210.0072">
<title>SVG Image created as DRV10987V01-B_Fab.svg date 2023/07/04 07:56:37 </title>
  <desc>Image generated by PCBNEW </desc>
<g style="fill:#000084; fill-opacity:1.0000;stroke:#000084; stroke-opacity:1.0000; stroke-linecap:round; stroke-linejoin:round;" transform="translate(0 0) scale(1 1)">
</g>
<g style="fill:#000084; fill-opacity:0.0;  stroke:#000084; stroke-width:0.0000; stroke-opacity:1;  stroke-linecap:round; stroke-linejoin:round;">
</g>
<g style="fill:#000084; fill-opacity:0.01;  stroke:#000084; stroke-width:0.4171; stroke-opacity:1;  stroke-linecap:round; stroke-linejoin:round;">
<text x="211.0601" y="132.5817" transform="scale(-1 1) translate(-422.120123 0)" textLength="5.6104" font-size="3.4755" lengthAdjust="spacingAndGlyphs" text-anchor="middle" opacity="0.01" style="font-family:monospace">C5</text>
<g class="stroked-text"><desc>C5</desc>
<path d="M211.4945 132.2143 L211.6186 132.3384 "/>
<path d="M211.6186 132.3384 L211.9910 132.4625 "/>
<path d="M211.9910 132.4625 L212.2392 132.4625 "/>
<path d="M212.2392 132.4625 L212.6116 132.3384 "/>
<path d="M212.6116 132.3384 L212.8599 132.0902 "/>
<path d="M212.8599 132.0902 L212.9840 131.8419 "/>
<path d="M212.9840 131.8419 L213.1081 131.3454 "/>
<path d="M213.1081 131.3454 L213.1081 130.9731 "/>
<path d="M213.1081 130.9731 L212.9840 130.4766 "/>
<path d="M212.9840 130.4766 L212.8599 130.2283 "/>
<path d="M212.8599 130.2283 L212.6116 129.9801 "/>
<path d="M212.6116 129.9801 L212.2392 129.8559 "/>
<path d="M212.2392 129.8559 L211.9910 129.8559 "/>
<path d="M211.9910 129.8559 L211.6186 129.9801 "/>
<path d="M211.6186 129.9801 L211.4945 130.1042 "/>
<path d="M209.1361 129.8559 L210.3774 129.8559 "/>
<path d="M210.3774 129.8559 L210.5015 131.0972 "/>
<path d="M210.5015 131.0972 L210.3774 130.9731 "/>
<path d="M210.3774 130.9731 L210.1291 130.8489 "/>
<path d="M210.1291 130.8489 L209.5085 130.8489 "/>
<path d="M209.5085 130.8489 L209.2602 130.9731 "/>
<path d="M209.2602 130.9731 L209.1361 131.0972 "/>
<path d="M209.1361 131.0972 L209.0120 131.3454 "/>
<path d="M209.0120 131.3454 L209.0120 131.9660 "/>
<path d="M209.0120 131.9660 L209.1361 132.2143 "/>
<path d="M209.1361 132.2143 L209.2602 132.3384 "/>
<path d="M209.2602 132.3384 L209.5085 132.4625 "/>
<path d="M209.5085 132.4625 L210.1291 132.4625 "/>
<path d="M210.1291 132.4625 L210.3774 132.3384 "/>
<path d="M210.3774 132.3384 L210.5015 132.2143 "/>
</g><text x="194.7296" y="158.4394" transform="scale(-1 1) translate(-389.459133 0)" textLength="5.6104" font-size="3.4755" lengthAdjust="spacingAndGlyphs" text-anchor="middle" opacity="0.01" style="font-family:monospace">R7</text>
<g class="stroked-text"><desc>R7</desc>
<path d="M195.1640 158.3203 L196.0329 157.0790 "/>
<path d="M196.6535 158.3203 L196.6535 155.7136 "/>
<path d="M196.6535 155.7136 L195.6605 155.7136 "/>
<path d="M195.6605 155.7136 L195.4123 155.8378 "/>
<path d="M195.4123 155.8378 L195.2881 155.9619 "/>
<path d="M195.2881 155.9619 L195.1640 156.2101 "/>
<path d="M195.1640 156.2101 L195.1640 156.5825 "/>
<path d="M195.1640 156.5825 L195.2881 156.8308 "/>
<path d="M195.2881 156.8308 L195.4123 156.9549 "/>
<path d="M195.4123 156.9549 L195.6605 157.0790 "/>
<path d="M195.6605 157.0790 L196.6535 157.0790 "/>
<path d="M194.2951 155.7136 L192.5574 155.7136 "/>
<path d="M192.5574 155.7136 L193.6745 158.3203 "/>
</g><text x="263.2613" y="124.8452" transform="scale(-1 1) translate(-526.522685 0)" textLength="5.6104" font-size="3.4755" lengthAdjust="spacingAndGlyphs" text-anchor="middle" opacity="0.01" style="font-family:monospace">C7</text>
<g class="stroked-text"><desc>C7</desc>
<path d="M263.6958 124.4778 L263.8199 124.6020 "/>
<path d="M263.8199 124.6020 L264.1923 124.7261 "/>
<path d="M264.1923 124.7261 L264.4405 124.7261 "/>
<path d="M264.4405 124.7261 L264.8129 124.6020 "/>
<path d="M264.8129 124.6020 L265.0611 124.3537 "/>
<path d="M265.0611 124.3537 L265.1853 124.1055 "/>
<path d="M265.1853 124.1055 L265.3094 123.6090 "/>
<path d="M265.3094 123.6090 L265.3094 123.2366 "/>
<path d="M265.3094 123.2366 L265.1853 122.7401 "/>
<path d="M265.1853 122.7401 L265.0611 122.4918 "/>
<path d="M265.0611 122.4918 L264.8129 122.2436 "/>
<path d="M264.8129 122.2436 L264.4405 122.1195 "/>
<path d="M264.4405 122.1195 L264.1923 122.1195 "/>
<path d="M264.1923 122.1195 L263.8199 122.2436 "/>
<path d="M263.8199 122.2436 L263.6958 122.3677 "/>
<path d="M262.8269 122.1195 L261.0892 122.1195 "/>
<path d="M261.0892 122.1195 L262.2063 124.7261 "/>
</g></g>
<g style="fill:#000084; fill-opacity:0.01;  stroke:#000084; stroke-width:0.7820; stroke-opacity:1;  stroke-linecap:round; stroke-linejoin:round;">
<text x="221.1529" y="156.7711" transform="scale(-1 1) translate(-442.305814 0)" textLength="11.0906" font-size="6.9510" lengthAdjust="spacingAndGlyphs" text-anchor="middle" opacity="0.01" style="font-family:monospace">D1</text>
<g class="stroked-text"><desc>D1</desc>
<path d="M225.0008 156.5356 L225.0008 151.3224 "/>
<path d="M225.0008 151.3224 L223.7595 151.3224 "/>
<path d="M223.7595 151.3224 L223.0148 151.5706 "/>
<path d="M223.0148 151.5706 L222.5183 152.0671 "/>
<path d="M222.5183 152.0671 L222.2700 152.5636 "/>
<path d="M222.2700 152.5636 L222.0218 153.5566 "/>
<path d="M222.0218 153.5566 L222.0218 154.3013 "/>
<path d="M222.0218 154.3013 L222.2700 155.2943 "/>
<path d="M222.2700 155.2943 L222.5183 155.7908 "/>
<path d="M222.5183 155.7908 L223.0148 156.2874 "/>
<path d="M223.0148 156.2874 L223.7595 156.5356 "/>
<path d="M223.7595 156.5356 L225.0008 156.5356 "/>
<path d="M217.0568 156.5356 L220.0358 156.5356 "/>
<path d="M218.5463 156.5356 L218.5463 151.3224 "/>
<path d="M218.5463 151.3224 L219.0428 152.0671 "/>
<path d="M219.0428 152.0671 L219.5393 152.5636 "/>
<path d="M219.5393 152.5636 L220.0358 152.8119 "/>
</g><text x="264.1007" y="60.6086" transform="scale(-1 1) translate(-528.201350 0)" textLength="7.2516" font-size="8.8278" lengthAdjust="spacingAndGlyphs" text-anchor="middle" opacity="0.01" style="font-family:monospace">K</text>
<g class="stroked-text"><desc>K</desc>
<path d="M265.8347 60.3205 L265.8347 53.6997 "/>
<path d="M262.0514 60.3205 L264.8889 56.5371 "/>
<path d="M262.0514 53.6997 L265.8347 57.4830 "/>
</g><text x="233.4770" y="61.3948" transform="scale(-1 1) translate(-466.954044 0)" textLength="13.5572" font-size="8.8278" lengthAdjust="spacingAndGlyphs" text-anchor="middle" opacity="0.01" style="font-family:monospace">D2</text>
<g class="stroked-text"><desc>D2</desc>
<path d="M238.3638 61.1066 L238.3638 54.4858 "/>
<path d="M238.3638 54.4858 L236.7874 54.4858 "/>
<path d="M236.7874 54.4858 L235.8416 54.8011 "/>
<path d="M235.8416 54.8011 L235.2110 55.4316 "/>
<path d="M235.2110 55.4316 L234.8958 56.0622 "/>
<path d="M234.8958 56.0622 L234.5805 57.3233 "/>
<path d="M234.5805 57.3233 L234.5805 58.2691 "/>
<path d="M234.5805 58.2691 L234.8958 59.5303 "/>
<path d="M234.8958 59.5303 L235.2110 60.1608 "/>
<path d="M235.2110 60.1608 L235.8416 60.7914 "/>
<path d="M235.8416 60.7914 L236.7874 61.1066 "/>
<path d="M236.7874 61.1066 L238.3638 61.1066 "/>
<path d="M232.0583 55.1164 L231.7430 54.8011 "/>
<path d="M231.7430 54.8011 L231.1124 54.4858 "/>
<path d="M231.1124 54.4858 L229.5361 54.4858 "/>
<path d="M229.5361 54.4858 L228.9055 54.8011 "/>
<path d="M228.9055 54.8011 L228.5902 55.1164 "/>
<path d="M228.5902 55.1164 L228.2749 55.7469 "/>
<path d="M228.2749 55.7469 L228.2749 56.3775 "/>
<path d="M228.2749 56.3775 L228.5902 57.3233 "/>
<path d="M228.5902 57.3233 L232.3735 61.1066 "/>
<path d="M232.3735 61.1066 L228.2749 61.1066 "/>
</g></g>
<g style="fill:#000084; fill-opacity:0.01;  stroke:#000084; stroke-width:0.4171; stroke-opacity:1;  stroke-linecap:round; stroke-linejoin:round;">
<text x="149.9128" y="96.9231" transform="scale(-1 1) translate(-299.825699 0)" textLength="5.6104" font-size="3.4755" lengthAdjust="spacingAndGlyphs" text-anchor="middle" opacity="0.01" style="font-family:monospace">C6</text>
<g class="stroked-text"><desc>C6</desc>
<path d="M150.3473 96.5557 L150.4714 96.6798 "/>
<path d="M150.4714 96.6798 L150.8438 96.8039 "/>
<path d="M150.8438 96.8039 L151.0920 96.8039 "/>
<path d="M151.0920 96.8039 L151.4644 96.6798 "/>
<path d="M151.4644 96.6798 L151.7127 96.4316 "/>
<path d="M151.7127 96.4316 L151.8368 96.1833 "/>
<path d="M151.8368 96.1833 L151.9609 95.6868 "/>
<path d="M151.9609 95.6868 L151.9609 95.3144 "/>
<path d="M151.9609 95.3144 L151.8368 94.8179 "/>
<path d="M151.8368 94.8179 L151.7127 94.5697 "/>
<path d="M151.7127 94.5697 L151.4644 94.3214 "/>
<path d="M151.4644 94.3214 L151.0920 94.1973 "/>
<path d="M151.0920 94.1973 L150.8438 94.1973 "/>
<path d="M150.8438 94.1973 L150.4714 94.3214 "/>
<path d="M150.4714 94.3214 L150.3473 94.4456 "/>
<path d="M148.1130 94.1973 L148.6095 94.1973 "/>
<path d="M148.6095 94.1973 L148.8578 94.3214 "/>
<path d="M148.8578 94.3214 L148.9819 94.4456 "/>
<path d="M148.9819 94.4456 L149.2302 94.8179 "/>
<path d="M149.2302 94.8179 L149.3543 95.3144 "/>
<path d="M149.3543 95.3144 L149.3543 96.3074 "/>
<path d="M149.3543 96.3074 L149.2302 96.5557 "/>
<path d="M149.2302 96.5557 L149.1060 96.6798 "/>
<path d="M149.1060 96.6798 L148.8578 96.8039 "/>
<path d="M148.8578 96.8039 L148.3613 96.8039 "/>
<path d="M148.3613 96.8039 L148.1130 96.6798 "/>
<path d="M148.1130 96.6798 L147.9889 96.5557 "/>
<path d="M147.9889 96.5557 L147.8648 96.3074 "/>
<path d="M147.8648 96.3074 L147.8648 95.6868 "/>
<path d="M147.8648 95.6868 L147.9889 95.4386 "/>
<path d="M147.9889 95.4386 L148.1130 95.3144 "/>
<path d="M148.1130 95.3144 L148.3613 95.1903 "/>
<path d="M148.3613 95.1903 L148.8578 95.1903 "/>
<path d="M148.8578 95.1903 L149.1060 95.3144 "/>
<path d="M149.1060 95.3144 L149.2302 95.4386 "/>
<path d="M149.2302 95.4386 L149.3543 95.6868 "/>
</g><g transform="rotate(-90.000000 93.9184 162.9358)">
<text x="93.9184" y="164.2391" transform="scale(-1 1) translate(-187.836820 0)" textLength="5.6104" font-size="3.4755" lengthAdjust="spacingAndGlyphs" text-anchor="middle" opacity="0.01" style="font-family:monospace">R5</text>
</g>
<g class="stroked-text"><desc>R5</desc>
<path d="M95.1026 162.5014 L93.8613 161.6325 "/>
<path d="M95.1026 161.0119 L92.4960 161.0119 "/>
<path d="M92.4960 161.0119 L92.4960 162.0049 "/>
<path d="M92.4960 162.0049 L92.6201 162.2531 "/>
<path d="M92.6201 162.2531 L92.7442 162.3772 "/>
<path d="M92.7442 162.3772 L92.9925 162.5014 "/>
<path d="M92.9925 162.5014 L93.3648 162.5014 "/>
<path d="M93.3648 162.5014 L93.6131 162.3772 "/>
<path d="M93.6131 162.3772 L93.7372 162.2531 "/>
<path d="M93.7372 162.2531 L93.8613 162.0049 "/>
<path d="M93.8613 162.0049 L93.8613 161.0119 "/>
<path d="M92.4960 164.8597 L92.4960 163.6185 "/>
<path d="M92.4960 163.6185 L93.7372 163.4944 "/>
<path d="M93.7372 163.4944 L93.6131 163.6185 "/>
<path d="M93.6131 163.6185 L93.4890 163.8667 "/>
<path d="M93.4890 163.8667 L93.4890 164.4874 "/>
<path d="M93.4890 164.4874 L93.6131 164.7356 "/>
<path d="M93.6131 164.7356 L93.7372 164.8597 "/>
<path d="M93.7372 164.8597 L93.9855 164.9839 "/>
<path d="M93.9855 164.9839 L94.6061 164.9839 "/>
<path d="M94.6061 164.9839 L94.8543 164.8597 "/>
<path d="M94.8543 164.8597 L94.9785 164.7356 "/>
<path d="M94.9785 164.7356 L95.1026 164.4874 "/>
<path d="M95.1026 164.4874 L95.1026 163.8667 "/>
<path d="M95.1026 163.8667 L94.9785 163.6185 "/>
<path d="M94.9785 163.6185 L94.8543 163.4944 "/>
</g><text x="252.2056" y="72.4208" transform="scale(-1 1) translate(-504.411221 0)" textLength="5.6104" font-size="3.4755" lengthAdjust="spacingAndGlyphs" text-anchor="middle" opacity="0.01" style="font-family:monospace">R6</text>
<g class="stroked-text"><desc>R6</desc>
<path d="M252.6400 72.3017 L253.5089 71.0604 "/>
<path d="M254.1295 72.3017 L254.1295 69.6951 "/>
<path d="M254.1295 69.6951 L253.1365 69.6951 "/>
<path d="M253.1365 69.6951 L252.8883 69.8192 "/>
<path d="M252.8883 69.8192 L252.7642 69.9433 "/>
<path d="M252.7642 69.9433 L252.6400 70.1916 "/>
<path d="M252.6400 70.1916 L252.6400 70.5639 "/>
<path d="M252.6400 70.5639 L252.7642 70.8122 "/>
<path d="M252.7642 70.8122 L252.8883 70.9363 "/>
<path d="M252.8883 70.9363 L253.1365 71.0604 "/>
<path d="M253.1365 71.0604 L254.1295 71.0604 "/>
<path d="M250.4058 69.6951 L250.9023 69.6951 "/>
<path d="M250.9023 69.6951 L251.1505 69.8192 "/>
<path d="M251.1505 69.8192 L251.2747 69.9433 "/>
<path d="M251.2747 69.9433 L251.5229 70.3157 "/>
<path d="M251.5229 70.3157 L251.6470 70.8122 "/>
<path d="M251.6470 70.8122 L251.6470 71.8052 "/>
<path d="M251.6470 71.8052 L251.5229 72.0534 "/>
<path d="M251.5229 72.0534 L251.3988 72.1776 "/>
<path d="M251.3988 72.1776 L251.1505 72.3017 "/>
<path d="M251.1505 72.3017 L250.6540 72.3017 "/>
<path d="M250.6540 72.3017 L250.4058 72.1776 "/>
<path d="M250.4058 72.1776 L250.2817 72.0534 "/>
<path d="M250.2817 72.0534 L250.1575 71.8052 "/>
<path d="M250.1575 71.8052 L250.1575 71.1846 "/>
<path d="M250.1575 71.1846 L250.2817 70.9363 "/>
<path d="M250.2817 70.9363 L250.4058 70.8122 "/>
<path d="M250.4058 70.8122 L250.6540 70.6881 "/>
<path d="M250.6540 70.6881 L251.1505 70.6881 "/>
<path d="M251.1505 70.6881 L251.3988 70.8122 "/>
<path d="M251.3988 70.8122 L251.5229 70.9363 "/>
<path d="M251.5229 70.9363 L251.6470 71.1846 "/>
</g><text x="163.8411" y="168.6052" transform="scale(-1 1) translate(-327.682161 0)" textLength="5.6104" font-size="3.4755" lengthAdjust="spacingAndGlyphs" text-anchor="middle" opacity="0.01" style="font-family:monospace">R2</text>
<g class="stroked-text"><desc>R2</desc>
<path d="M164.2755 168.4861 L165.1444 167.2448 "/>
<path d="M165.7650 168.4861 L165.7650 165.8795 "/>
<path d="M165.7650 165.8795 L164.7720 165.8795 "/>
<path d="M164.7720 165.8795 L164.5238 166.0036 "/>
<path d="M164.5238 166.0036 L164.3996 166.1277 "/>
<path d="M164.3996 166.1277 L164.2755 166.3760 "/>
<path d="M164.2755 166.3760 L164.2755 166.7483 "/>
<path d="M164.2755 166.7483 L164.3996 166.9966 "/>
<path d="M164.3996 166.9966 L164.5238 167.1207 "/>
<path d="M164.5238 167.1207 L164.7720 167.2448 "/>
<path d="M164.7720 167.2448 L165.7650 167.2448 "/>
<path d="M163.2825 166.1277 L163.1584 166.0036 "/>
<path d="M163.1584 166.0036 L162.9101 165.8795 "/>
<path d="M162.9101 165.8795 L162.2895 165.8795 "/>
<path d="M162.2895 165.8795 L162.0413 166.0036 "/>
<path d="M162.0413 166.0036 L161.9171 166.1277 "/>
<path d="M161.9171 166.1277 L161.7930 166.3760 "/>
<path d="M161.7930 166.3760 L161.7930 166.6242 "/>
<path d="M161.7930 166.6242 L161.9171 166.9966 "/>
<path d="M161.9171 166.9966 L163.4066 168.4861 "/>
<path d="M163.4066 168.4861 L161.7930 168.4861 "/>
</g><g transform="rotate(-90.000000 108.3852 162.9358)">
<text x="108.3852" y="164.2391" transform="scale(-1 1) translate(-216.770339 0)" textLength="5.6104" font-size="3.4755" lengthAdjust="spacingAndGlyphs" text-anchor="middle" opacity="0.01" style="font-family:monospace">R3</text>
</g>
<g class="stroked-text"><desc>R3</desc>
<path d="M109.5694 162.5014 L108.3281 161.6325 "/>
<path d="M109.5694 161.0119 L106.9627 161.0119 "/>
<path d="M106.9627 161.0119 L106.9627 162.0049 "/>
<path d="M106.9627 162.0049 L107.0869 162.2531 "/>
<path d="M107.0869 162.2531 L107.2110 162.3772 "/>
<path d="M107.2110 162.3772 L107.4592 162.5014 "/>
<path d="M107.4592 162.5014 L107.8316 162.5014 "/>
<path d="M107.8316 162.5014 L108.0799 162.3772 "/>
<path d="M108.0799 162.3772 L108.2040 162.2531 "/>
<path d="M108.2040 162.2531 L108.3281 162.0049 "/>
<path d="M108.3281 162.0049 L108.3281 161.0119 "/>
<path d="M106.9627 163.3702 L106.9627 164.9839 "/>
<path d="M106.9627 164.9839 L107.9557 164.1150 "/>
<path d="M107.9557 164.1150 L107.9557 164.4874 "/>
<path d="M107.9557 164.4874 L108.0799 164.7356 "/>
<path d="M108.0799 164.7356 L108.2040 164.8597 "/>
<path d="M108.2040 164.8597 L108.4522 164.9839 "/>
<path d="M108.4522 164.9839 L109.0729 164.9839 "/>
<path d="M109.0729 164.9839 L109.3211 164.8597 "/>
<path d="M109.3211 164.8597 L109.4452 164.7356 "/>
<path d="M109.4452 164.7356 L109.5694 164.4874 "/>
<path d="M109.5694 164.4874 L109.5694 163.7426 "/>
<path d="M109.5694 163.7426 L109.4452 163.4944 "/>
<path d="M109.4452 163.4944 L109.3211 163.3702 "/>
</g><g transform="rotate(-90.000000 225.6832 134.9798)">
<text x="225.6832" y="136.2831" transform="scale(-1 1) translate(-451.366437 0)" textLength="5.6104" font-size="3.4755" lengthAdjust="spacingAndGlyphs" text-anchor="middle" opacity="0.01" style="font-family:monospace">C1</text>
</g>
<g class="stroked-text"><desc>C1</desc>
<path d="M226.6192 134.5453 L226.7433 134.4212 "/>
<path d="M226.7433 134.4212 L226.8674 134.0488 "/>
<path d="M226.8674 134.0488 L226.8674 133.8006 "/>
<path d="M226.8674 133.8006 L226.7433 133.4282 "/>
<path d="M226.7433 133.4282 L226.4950 133.1800 "/>
<path d="M226.4950 133.1800 L226.2468 133.0558 "/>
<path d="M226.2468 133.0558 L225.7503 132.9317 "/>
<path d="M225.7503 132.9317 L225.3779 132.9317 "/>
<path d="M225.3779 132.9317 L224.8814 133.0558 "/>
<path d="M224.8814 133.0558 L224.6332 133.1800 "/>
<path d="M224.6332 133.1800 L224.3849 133.4282 "/>
<path d="M224.3849 133.4282 L224.2608 133.8006 "/>
<path d="M224.2608 133.8006 L224.2608 134.0488 "/>
<path d="M224.2608 134.0488 L224.3849 134.4212 "/>
<path d="M224.3849 134.4212 L224.5090 134.5453 "/>
<path d="M226.8674 137.0278 L226.8674 135.5383 "/>
<path d="M226.8674 136.2831 L224.2608 136.2831 "/>
<path d="M224.2608 136.2831 L224.6332 136.0348 "/>
<path d="M224.6332 136.0348 L224.8814 135.7866 "/>
<path d="M224.8814 135.7866 L225.0055 135.5383 "/>
</g><text x="211.0601" y="144.5721" transform="scale(-1 1) translate(-422.120123 0)" textLength="5.6104" font-size="3.4755" lengthAdjust="spacingAndGlyphs" text-anchor="middle" opacity="0.01" style="font-family:monospace">C4</text>
<g class="stroked-text"><desc>C4</desc>
<path d="M211.4945 144.2048 L211.6186 144.3289 "/>
<path d="M211.6186 144.3289 L211.9910 144.4530 "/>
<path d="M211.9910 144.4530 L212.2392 144.4530 "/>
<path d="M212.2392 144.4530 L212.6116 144.3289 "/>
<path d="M212.6116 144.3289 L212.8599 144.0806 "/>
<path d="M212.8599 144.0806 L212.9840 143.8324 "/>
<path d="M212.9840 143.8324 L213.1081 143.3359 "/>
<path d="M213.1081 143.3359 L213.1081 142.9635 "/>
<path d="M213.1081 142.9635 L212.9840 142.4670 "/>
<path d="M212.9840 142.4670 L212.8599 142.2188 "/>
<path d="M212.8599 142.2188 L212.6116 141.9705 "/>
<path d="M212.6116 141.9705 L212.2392 141.8464 "/>
<path d="M212.2392 141.8464 L211.9910 141.8464 "/>
<path d="M211.9910 141.8464 L211.6186 141.9705 "/>
<path d="M211.6186 141.9705 L211.4945 142.0946 "/>
<path d="M209.2602 142.7153 L209.2602 144.4530 "/>
<path d="M209.8809 141.7223 L210.5015 143.5841 "/>
<path d="M210.5015 143.5841 L208.8879 143.5841 "/>
</g><text x="263.2613" y="110.2794" transform="scale(-1 1) translate(-526.522685 0)" textLength="5.6104" font-size="3.4755" lengthAdjust="spacingAndGlyphs" text-anchor="middle" opacity="0.01" style="font-family:monospace">C8</text>
<g class="stroked-text"><desc>C8</desc>
<path d="M263.6958 109.9120 L263.8199 110.0362 "/>
<path d="M263.8199 110.0362 L264.1923 110.1603 "/>
<path d="M264.1923 110.1603 L264.4405 110.1603 "/>
<path d="M264.4405 110.1603 L264.8129 110.0362 "/>
<path d="M264.8129 110.0362 L265.0611 109.7879 "/>
<path d="M265.0611 109.7879 L265.1853 109.5397 "/>
<path d="M265.1853 109.5397 L265.3094 109.0432 "/>
<path d="M265.3094 109.0432 L265.3094 108.6708 "/>
<path d="M265.3094 108.6708 L265.1853 108.1743 "/>
<path d="M265.1853 108.1743 L265.0611 107.9260 "/>
<path d="M265.0611 107.9260 L264.8129 107.6778 "/>
<path d="M264.8129 107.6778 L264.4405 107.5537 "/>
<path d="M264.4405 107.5537 L264.1923 107.5537 "/>
<path d="M264.1923 107.5537 L263.8199 107.6778 "/>
<path d="M263.8199 107.6778 L263.6958 107.8019 "/>
<path d="M262.2063 108.6708 L262.4545 108.5467 "/>
<path d="M262.4545 108.5467 L262.5787 108.4225 "/>
<path d="M262.5787 108.4225 L262.7028 108.1743 "/>
<path d="M262.7028 108.1743 L262.7028 108.0502 "/>
<path d="M262.7028 108.0502 L262.5787 107.8019 "/>
<path d="M262.5787 107.8019 L262.4545 107.6778 "/>
<path d="M262.4545 107.6778 L262.2063 107.5537 "/>
<path d="M262.2063 107.5537 L261.7098 107.5537 "/>
<path d="M261.7098 107.5537 L261.4615 107.6778 "/>
<path d="M261.4615 107.6778 L261.3374 107.8019 "/>
<path d="M261.3374 107.8019 L261.2133 108.0502 "/>
<path d="M261.2133 108.0502 L261.2133 108.1743 "/>
<path d="M261.2133 108.1743 L261.3374 108.4225 "/>
<path d="M261.3374 108.4225 L261.4615 108.5467 "/>
<path d="M261.4615 108.5467 L261.7098 108.6708 "/>
<path d="M261.7098 108.6708 L262.2063 108.6708 "/>
<path d="M262.2063 108.6708 L262.4545 108.7949 "/>
<path d="M262.4545 108.7949 L262.5787 108.9190 "/>
<path d="M262.5787 108.9190 L262.7028 109.1673 "/>
<path d="M262.7028 109.1673 L262.7028 109.6638 "/>
<path d="M262.7028 109.6638 L262.5787 109.9120 "/>
<path d="M262.5787 109.9120 L262.4545 110.0362 "/>
<path d="M262.4545 110.0362 L262.2063 110.1603 "/>
<path d="M262.2063 110.1603 L261.7098 110.1603 "/>
<path d="M261.7098 110.1603 L261.4615 110.0362 "/>
<path d="M261.4615 110.0362 L261.3374 109.9120 "/>
<path d="M261.3374 109.9120 L261.2133 109.6638 "/>
<path d="M261.2133 109.6638 L261.2133 109.1673 "/>
<path d="M261.2133 109.1673 L261.3374 108.9190 "/>
<path d="M261.3374 108.9190 L261.4615 108.7949 "/>
<path d="M261.4615 108.7949 L261.7098 108.6708 "/>
</g></g>
<g style="fill:#000084; fill-opacity:0.0;  stroke:#000084; stroke-width:0.7820; stroke-opacity:1;  stroke-linecap:round; stroke-linejoin:round;">
<g transform="rotate(-90.000000 230.8965 101.6150)">
<text x="230.8965" y="104.2216" transform="scale(-1 1) translate(-461.792930 0)" textLength="10.0976" font-size="6.9510" lengthAdjust="spacingAndGlyphs" text-anchor="middle" opacity="0.01" style="font-family:monospace">L1</text>
</g>
<g class="stroked-text"><desc>L1</desc>
<path d="M233.2675 100.7461 L233.2675 98.2636 "/>
<path d="M233.2675 98.2636 L228.0543 98.2636 "/>
<path d="M233.2675 105.2146 L233.2675 102.2356 "/>
<path d="M233.2675 103.7251 L228.0543 103.7251 "/>
<path d="M228.0543 103.7251 L228.7991 103.2286 "/>
<path d="M228.7991 103.2286 L229.2955 102.7321 "/>
<path d="M229.2955 102.7321 L229.5438 102.2356 "/>
</g></g>
<g style="fill:#000084; fill-opacity:0.01;  stroke:#000084; stroke-width:0.4171; stroke-opacity:1;  stroke-linecap:round; stroke-linejoin:round;">
<text x="168.8328" y="96.8449" transform="scale(-1 1) translate(-337.665528 0)" textLength="5.6104" font-size="3.4755" lengthAdjust="spacingAndGlyphs" text-anchor="middle" opacity="0.01" style="font-family:monospace">C3</text>
<g class="stroked-text"><desc>C3</desc>
<path d="M169.2672 96.4775 L169.3913 96.6016 "/>
<path d="M169.3913 96.6016 L169.7637 96.7257 "/>
<path d="M169.7637 96.7257 L170.0119 96.7257 "/>
<path d="M170.0119 96.7257 L170.3843 96.6016 "/>
<path d="M170.3843 96.6016 L170.6326 96.3534 "/>
<path d="M170.6326 96.3534 L170.7567 96.1051 "/>
<path d="M170.7567 96.1051 L170.8808 95.6086 "/>
<path d="M170.8808 95.6086 L170.8808 95.2362 "/>
<path d="M170.8808 95.2362 L170.7567 94.7397 "/>
<path d="M170.7567 94.7397 L170.6326 94.4915 "/>
<path d="M170.6326 94.4915 L170.3843 94.2432 "/>
<path d="M170.3843 94.2432 L170.0119 94.1191 "/>
<path d="M170.0119 94.1191 L169.7637 94.1191 "/>
<path d="M169.7637 94.1191 L169.3913 94.2432 "/>
<path d="M169.3913 94.2432 L169.2672 94.3674 "/>
<path d="M168.3983 94.1191 L166.7847 94.1191 "/>
<path d="M166.7847 94.1191 L167.6536 95.1121 "/>
<path d="M167.6536 95.1121 L167.2812 95.1121 "/>
<path d="M167.2812 95.1121 L167.0329 95.2362 "/>
<path d="M167.0329 95.2362 L166.9088 95.3604 "/>
<path d="M166.9088 95.3604 L166.7847 95.6086 "/>
<path d="M166.7847 95.6086 L166.7847 96.2292 "/>
<path d="M166.7847 96.2292 L166.9088 96.4775 "/>
<path d="M166.9088 96.4775 L167.0329 96.6016 "/>
<path d="M167.0329 96.6016 L167.2812 96.7257 "/>
<path d="M167.2812 96.7257 L168.0259 96.7257 "/>
<path d="M168.0259 96.7257 L168.2742 96.6016 "/>
<path d="M168.2742 96.6016 L168.3983 96.4775 "/>
</g></g>
<g style="fill:#000084; fill-opacity:0.01;  stroke:#000084; stroke-width:0.7820; stroke-opacity:1;  stroke-linecap:round; stroke-linejoin:round;">
<text x="179.8718" y="130.2357" transform="scale(-1 1) translate(-359.743627 0)" textLength="13.5731" font-size="6.9510" lengthAdjust="spacingAndGlyphs" text-anchor="middle" opacity="0.01" style="font-family:monospace">IC1</text>
<g class="stroked-text"><desc>IC1</desc>
<path d="M184.9609 130.0002 L184.9609 124.7869 "/>
<path d="M179.4994 129.5037 L179.7477 129.7519 "/>
<path d="M179.7477 129.7519 L180.4924 130.0002 "/>
<path d="M180.4924 130.0002 L180.9889 130.0002 "/>
<path d="M180.9889 130.0002 L181.7337 129.7519 "/>
<path d="M181.7337 129.7519 L182.2302 129.2554 "/>
<path d="M182.2302 129.2554 L182.4784 128.7589 "/>
<path d="M182.4784 128.7589 L182.7267 127.7659 "/>
<path d="M182.7267 127.7659 L182.7267 127.0212 "/>
<path d="M182.7267 127.0212 L182.4784 126.0282 "/>
<path d="M182.4784 126.0282 L182.2302 125.5317 "/>
<path d="M182.2302 125.5317 L181.7337 125.0352 "/>
<path d="M181.7337 125.0352 L180.9889 124.7869 "/>
<path d="M180.9889 124.7869 L180.4924 124.7869 "/>
<path d="M180.4924 124.7869 L179.7477 125.0352 "/>
<path d="M179.7477 125.0352 L179.4994 125.2834 "/>
<path d="M174.5344 130.0002 L177.5134 130.0002 "/>
<path d="M176.0239 130.0002 L176.0239 124.7869 "/>
<path d="M176.0239 124.7869 L176.5204 125.5317 "/>
<path d="M176.5204 125.5317 L177.0169 126.0282 "/>
<path d="M177.0169 126.0282 L177.5134 126.2764 "/>
</g></g>
<g style="fill:#000084; fill-opacity:0.01;  stroke:#000084; stroke-width:0.4171; stroke-opacity:1;  stroke-linecap:round; stroke-linejoin:round;">
<g transform="rotate(-90.000000 80.4943 162.9358)">
<text x="80.4943" y="164.2391" transform="scale(-1 1) translate(-160.988600 0)" textLength="5.6104" font-size="3.4755" lengthAdjust="spacingAndGlyphs" text-anchor="middle" opacity="0.01" style="font-family:monospace">R4</text>
</g>
<g class="stroked-text"><desc>R4</desc>
<path d="M81.6785 162.5014 L80.4372 161.6325 "/>
<path d="M81.6785 161.0119 L79.0719 161.0119 "/>
<path d="M79.0719 161.0119 L79.0719 162.0049 "/>
<path d="M79.0719 162.0049 L79.1960 162.2531 "/>
<path d="M79.1960 162.2531 L79.3201 162.3772 "/>
<path d="M79.3201 162.3772 L79.5684 162.5014 "/>
<path d="M79.5684 162.5014 L79.9407 162.5014 "/>
<path d="M79.9407 162.5014 L80.1890 162.3772 "/>
<path d="M80.1890 162.3772 L80.3131 162.2531 "/>
<path d="M80.3131 162.2531 L80.4372 162.0049 "/>
<path d="M80.4372 162.0049 L80.4372 161.0119 "/>
<path d="M79.9407 164.7356 L81.6785 164.7356 "/>
<path d="M78.9477 164.1150 L80.8096 163.4944 "/>
<path d="M80.8096 163.4944 L80.8096 165.1080 "/>
</g><text x="182.7391" y="168.6052" transform="scale(-1 1) translate(-365.478199 0)" textLength="5.6104" font-size="3.4755" lengthAdjust="spacingAndGlyphs" text-anchor="middle" opacity="0.01" style="font-family:monospace">R1</text>
<g class="stroked-text"><desc>R1</desc>
<path d="M183.1735 168.4861 L184.0424 167.2448 "/>
<path d="M184.6630 168.4861 L184.6630 165.8795 "/>
<path d="M184.6630 165.8795 L183.6700 165.8795 "/>
<path d="M183.6700 165.8795 L183.4218 166.0036 "/>
<path d="M183.4218 166.0036 L183.2977 166.1277 "/>
<path d="M183.2977 166.1277 L183.1735 166.3760 "/>
<path d="M183.1735 166.3760 L183.1735 166.7483 "/>
<path d="M183.1735 166.7483 L183.2977 166.9966 "/>
<path d="M183.2977 166.9966 L183.4218 167.1207 "/>
<path d="M183.4218 167.1207 L183.6700 167.2448 "/>
<path d="M183.6700 167.2448 L184.6630 167.2448 "/>
<path d="M180.6910 168.4861 L182.1805 168.4861 "/>
<path d="M181.4358 168.4861 L181.4358 165.8795 "/>
<path d="M181.4358 165.8795 L181.6840 166.2518 "/>
<path d="M181.6840 166.2518 L181.9323 166.5001 "/>
<path d="M181.9323 166.5001 L182.1805 166.6242 "/>
</g><text x="197.9227" y="97.7051" transform="scale(-1 1) translate(-395.845360 0)" textLength="5.6104" font-size="3.4755" lengthAdjust="spacingAndGlyphs" text-anchor="middle" opacity="0.01" style="font-family:monospace">C2</text>
<g class="stroked-text"><desc>C2</desc>
<path d="M198.3571 97.3377 L198.4812 97.4618 "/>
<path d="M198.4812 97.4618 L198.8536 97.5859 "/>
<path d="M198.8536 97.5859 L199.1019 97.5859 "/>
<path d="M199.1019 97.5859 L199.4742 97.4618 "/>
<path d="M199.4742 97.4618 L199.7225 97.2136 "/>
<path d="M199.7225 97.2136 L199.8466 96.9653 "/>
<path d="M199.8466 96.9653 L199.9707 96.4688 "/>
<path d="M199.9707 96.4688 L199.9707 96.0964 "/>
<path d="M199.9707 96.0964 L199.8466 95.5999 "/>
<path d="M199.8466 95.5999 L199.7225 95.3517 "/>
<path d="M199.7225 95.3517 L199.4742 95.1034 "/>
<path d="M199.4742 95.1034 L199.1019 94.9793 "/>
<path d="M199.1019 94.9793 L198.8536 94.9793 "/>
<path d="M198.8536 94.9793 L198.4812 95.1034 "/>
<path d="M198.4812 95.1034 L198.3571 95.2276 "/>
<path d="M197.3641 95.2276 L197.2400 95.1034 "/>
<path d="M197.2400 95.1034 L196.9917 94.9793 "/>
<path d="M196.9917 94.9793 L196.3711 94.9793 "/>
<path d="M196.3711 94.9793 L196.1229 95.1034 "/>
<path d="M196.1229 95.1034 L195.9987 95.2276 "/>
<path d="M195.9987 95.2276 L195.8746 95.4758 "/>
<path d="M195.8746 95.4758 L195.8746 95.7241 "/>
<path d="M195.8746 95.7241 L195.9987 96.0964 "/>
<path d="M195.9987 96.0964 L197.4882 97.5859 "/>
<path d="M197.4882 97.5859 L195.8746 97.5859 "/>
</g></g>
<g style="fill:#000084; fill-opacity:0.0;  stroke:#000084; stroke-width:0.5213; stroke-opacity:1;  stroke-linecap:round; stroke-linejoin:round;">
<path d="M216.2733 134.5366 L216.2733 128.0201 "/>
<path d="M216.2733 128.0201 L205.8468 128.0201 "/>
<path d="M205.8468 134.5366 L216.2733 134.5366 "/>
<path d="M205.8468 128.0201 L205.8468 134.5366 "/>
<path d="M189.5163 153.8778 L189.5163 160.3943 "/>
<path d="M189.5163 160.3943 L199.9428 160.3943 "/>
<path d="M199.9428 153.8778 L189.5163 153.8778 "/>
<path d="M199.9428 160.3943 L199.9428 153.8778 "/>
<path d="M258.0481 120.2836 L258.0481 126.8002 "/>
<path d="M258.0481 126.8002 L268.4746 126.8002 "/>
<path d="M268.4746 120.2836 L258.0481 120.2836 "/>
<path d="M268.4746 126.8002 L268.4746 120.2836 "/>
<path d="M229.7548 168.7616 L229.7548 160.4204 "/>
<path d="M229.7548 160.4204 L212.5511 160.4204 "/>
<path d="M225.0628 164.5910 L222.9775 164.5910 "/>
<path d="M222.9775 164.5910 L222.9775 167.4583 "/>
<path d="M222.9775 164.5910 L222.9775 161.7237 "/>
<path d="M222.9775 164.5910 L219.8496 162.5057 "/>
<path d="M219.8496 166.6763 L222.9775 164.5910 "/>
<path d="M219.8496 164.5910 L217.2430 164.5910 "/>
<path d="M219.8496 162.5057 L219.8496 166.6763 "/>
<path d="M212.5511 168.7616 L229.7548 168.7616 "/>
<path d="M212.5511 160.4204 L212.5511 168.7616 "/>
</g>
<g style="fill:#000084; fill-opacity:0.0;  stroke:#000084; stroke-width:0.7820; stroke-opacity:1;  stroke-linecap:round; stroke-linejoin:round;">
<path d="M241.3250 50.1477 L241.3250 64.9784 "/>
<path d="M241.5899 64.9784 L267.4111 64.9784 "/>
<path d="M267.1463 50.1477 L241.3250 50.1477 "/>
<path d="M267.5435 64.9784 L267.5435 50.1477 "/>
</g>
<g style="fill:#000084; fill-opacity:0.0;  stroke:#000084; stroke-width:0.5213; stroke-opacity:1;  stroke-linecap:round; stroke-linejoin:round;">
<path d="M144.6996 92.3615 L144.6996 98.8780 "/>
<path d="M144.6996 98.8780 L155.1261 98.8780 "/>
<path d="M155.1261 92.3615 L144.6996 92.3615 "/>
<path d="M155.1261 98.8780 L155.1261 92.3615 "/>
<path d="M97.1767 157.7226 L90.6601 157.7226 "/>
<path d="M90.6601 157.7226 L90.6601 168.1491 "/>
<path d="M97.1767 168.1491 L97.1767 157.7226 "/>
<path d="M90.6601 168.1491 L97.1767 168.1491 "/>
<path d="M246.9924 67.8592 L246.9924 74.3758 "/>
<path d="M246.9924 74.3758 L257.4189 74.3758 "/>
<path d="M257.4189 67.8592 L246.9924 67.8592 "/>
<path d="M257.4189 74.3758 L257.4189 67.8592 "/>
<path d="M169.0543 170.5602 L169.0543 164.0436 "/>
<path d="M169.0543 164.0436 L158.6278 164.0436 "/>
<path d="M158.6278 170.5602 L169.0543 170.5602 "/>
<path d="M158.6278 164.0436 L158.6278 170.5602 "/>
<path d="M111.6434 157.7226 L105.1269 157.7226 "/>
<path d="M105.1269 157.7226 L105.1269 168.1491 "/>
<path d="M111.6434 168.1491 L111.6434 157.7226 "/>
<path d="M105.1269 168.1491 L111.6434 168.1491 "/>
<path d="M222.4249 140.1930 L228.9415 140.1930 "/>
<path d="M228.9415 140.1930 L228.9415 129.7665 "/>
<path d="M222.4249 129.7665 L222.4249 140.1930 "/>
<path d="M228.9415 129.7665 L222.4249 129.7665 "/>
<path d="M216.2733 146.5271 L216.2733 140.0106 "/>
<path d="M216.2733 140.0106 L205.8468 140.0106 "/>
<path d="M205.8468 146.5271 L216.2733 146.5271 "/>
<path d="M205.8468 140.0106 L205.8468 146.5271 "/>
<path d="M258.0481 105.7178 L258.0481 112.2344 "/>
<path d="M258.0481 112.2344 L268.4746 112.2344 "/>
<path d="M268.4746 105.7178 L258.0481 105.7178 "/>
<path d="M268.4746 112.2344 L268.4746 105.7178 "/>
<path d="M212.6501 106.8282 L212.6501 96.4017 "/>
<path d="M249.1428 106.8282 L249.1428 96.4017 "/>
<path d="M212.6501 106.8282 A18.5699 18.5699 0.0 0 0 249.1428 106.8282"/>
<path d="M249.1428 96.4017 A18.5699 18.5699 0.0 0 0 212.6501 96.4017"/>
<path d="M174.0460 98.7998 L174.0460 92.2833 "/>
<path d="M174.0460 92.2833 L163.6195 92.2833 "/>
<path d="M163.6195 98.7998 L174.0460 98.7998 "/>
<path d="M163.6195 92.2833 L163.6195 98.7998 "/>
<path d="M189.0993 147.9608 L189.0993 112.5107 "/>
<path d="M189.0993 112.5107 L183.8860 107.2974 "/>
<path d="M183.8860 107.2974 L166.1610 107.2974 "/>
<path d="M166.1610 147.9608 L189.0993 147.9608 "/>
<path d="M166.1610 107.2974 L166.1610 147.9608 "/>
<path d="M83.7526 157.7226 L77.2360 157.7226 "/>
<path d="M77.2360 157.7226 L77.2360 168.1491 "/>
<path d="M83.7526 168.1491 L83.7526 157.7226 "/>
<path d="M77.2360 168.1491 L83.7526 168.1491 "/>
<path d="M177.5259 164.0436 L177.5259 170.5602 "/>
<path d="M177.5259 170.5602 L187.9523 170.5602 "/>
<path d="M187.9523 164.0436 L177.5259 164.0436 "/>
<path d="M187.9523 170.5602 L187.9523 164.0436 "/>
<path d="M203.1359 99.6600 L203.1359 93.1435 "/>
<path d="M203.1359 93.1435 L192.7094 93.1435 "/>
<path d="M192.7094 99.6600 L203.1359 99.6600 "/>
<path d="M192.7094 93.1435 L192.7094 99.6600 "/>
<g>
</g>
<g>
</g>
<g>
</g>
<g>
</g>
<g>
</g>
<g>
</g>
<g>
</g>
<g>
</g>
<g>
</g>
<g>
</g>
<g>
</g>
<g>
</g>
<g>
</g>
<g>
</g>
<g>
</g>
<g>
</g>
<g>
</g>
<g>
</g>
<g>
</g>
<g>
</g>
<g>
</g>
<g>
</g>
<g>
</g>
<g>
</g>
<g>
</g>
<g>
</g>
<g>
</g>
<g>
</g>
<g>
</g>
<g>
</g>
<g>
</g>
<g>
</g>
<g>
</g>
</g> 
<svg:g><svg:g><svg:title>SVG Image created as DRV10987V01-Edge_Cuts.svg date 2023/07/04 07:56:37 </svg:title>
  <svg:desc>Image generated by PCBNEW </svg:desc>
<svg:g style="fill:#C2C200; fill-opacity:1.0000;stroke:#C2C200; stroke-opacity:1.0000; stroke-linecap:round; stroke-linejoin:round;" transform="translate(0 0) scale(1 1)">
</svg:g>
<svg:g style="fill:#C2C200; fill-opacity:0.0;  stroke:#C2C200; stroke-width:0.0000; stroke-opacity:1;  stroke-linecap:round; stroke-linejoin:round;">
</svg:g>
<svg:g style="fill:#C2C200; fill-opacity:0.0;  stroke:#C2C200; stroke-width:0.7820; stroke-opacity:1;  stroke-linecap:round; stroke-linejoin:round;">
<svg:path style="fill:#C2C200; fill-opacity:0.0;  stroke:#C2C200; stroke-width:0.7820; stroke-opacity:1;  stroke-linecap:round; stroke-linejoin:round;fill:none" d="M 17.4088,0.3946 279.5934,0.3946 279.5934,209.6126 17.4088,209.6126 Z"/> 
</svg:g>
<svg:g style="fill:#C2C200; fill-opacity:0.0;  stroke:#C2C200; stroke-width:0.2607; stroke-opacity:1;  stroke-linecap:round; stroke-linejoin:round;">
<svg:path d="M248.6997 53.9138 L248.6997 61.2123 "/>
<svg:path d="M251.3063 51.3072 L257.5622 51.3072 "/>
<svg:path d="M251.3063 63.8190 L257.5622 63.8190 "/>
<svg:path d="M260.1688 53.9138 L260.1688 61.2123 "/>
<svg:path d="M251.3063 51.3072 A2.6066 2.6066 0.0 0 0 248.6997 53.9138"/>
<svg:path d="M248.6997 61.2123 A2.6066 2.6066 0.0 0 0 251.3063 63.8190"/>
<svg:path d="M260.1688 53.9138 A2.6066 2.6066 0.0 0 0 257.5622 51.3072"/>
<svg:path d="M257.5622 63.8190 A2.6066 2.6066 0.0 0 0 260.1688 61.2123"/>
<svg:g>
</svg:g>
<svg:g>
</svg:g>
<svg:g>
</svg:g>
<svg:g>
</svg:g>
<svg:g>
</svg:g>
<svg:g>
</svg:g>
<svg:g>
</svg:g>
<svg:g>
</svg:g>
<svg:g>
</svg:g>
<svg:g>
</svg:g>
<svg:g>
</svg:g>
<svg:g>
</svg:g>
<svg:g>
</svg:g>
<svg:g>
</svg:g>
<svg:g>
</svg:g>
<svg:g>
</svg:g>
<svg:g>
</svg:g>
<svg:g>
</svg:g>
<svg:g>
</svg:g>
<svg:g>
</svg:g>
<svg:g>
</svg:g>
<svg:g>
</svg:g>
<svg:g>
</svg:g>
<svg:g>
</svg:g>
<svg:g>
</svg:g>
<svg:g>
</svg:g>
<svg:g>
</svg:g>
<svg:g>
</svg:g>
<svg:g>
</svg:g>
<svg:g>
</svg:g>
<svg:g>
</svg:g>
<svg:g>
</svg:g>
<svg:g>
</svg:g>
</svg:g> 
</svg:g></svg:g></svg>
