<?xml version='1.0' encoding='ASCII' standalone='yes'?>
<svg xmlns:svg="http://www.w3.org/2000/svg" xmlns="http://www.w3.org/2000/svg" xmlns:xlink="http://www.w3.org/1999/xlink" version="1.1" width="297.0022mm" height="210.0072mm" viewBox="0.0000 0.0000 297.0022 210.0072">
<title>SVG Image created as DRV10987V01-F_Fab.svg date 2023/06/30 12:25:24 </title>
  <desc>Image generated by PCBNEW </desc>
<g style="fill:#848484; fill-opacity:1.0000;stroke:#848484; stroke-opacity:1.0000; stroke-linecap:round; stroke-linejoin:round;" transform="translate(0 0) scale(1 1)">
</g>
<g style="fill:#848484; fill-opacity:0.0;  stroke:#848484; stroke-width:0.0000; stroke-opacity:1;  stroke-linecap:round; stroke-linejoin:round;">
</g>
<g style="fill:#848484; fill-opacity:0.01;  stroke:#848484; stroke-width:0.7820; stroke-opacity:1;  stroke-linecap:round; stroke-linejoin:round;">
<text x="211.0601" y="142.6432" textLength="15.0626" font-size="6.9510" lengthAdjust="spacingAndGlyphs" text-anchor="middle" opacity="0.01" style="font-family:monospace">1uF</text>
<g class="stroked-text"><desc>1uF</desc>
<path d="M214.1632 142.4077 L217.1422 142.4077 "/>
<path d="M215.6527 142.4077 L215.6527 137.1945 "/>
<path d="M215.6527 137.1945 L216.1492 137.9392 "/>
<path d="M216.1492 137.9392 L216.6457 138.4357 "/>
<path d="M216.6457 138.4357 L217.1422 138.6840 "/>
<path d="M209.6947 138.9322 L209.6947 142.4077 "/>
<path d="M211.9289 138.9322 L211.9289 141.6629 "/>
<path d="M211.9289 141.6629 L211.6807 142.1595 "/>
<path d="M211.6807 142.1595 L211.1842 142.4077 "/>
<path d="M211.1842 142.4077 L210.4394 142.4077 "/>
<path d="M210.4394 142.4077 L209.9429 142.1595 "/>
<path d="M209.9429 142.1595 L209.6947 141.9112 "/>
<path d="M205.4744 139.6770 L207.2122 139.6770 "/>
<path d="M207.2122 142.4077 L207.2122 137.1945 "/>
<path d="M207.2122 137.1945 L204.7297 137.1945 "/>
</g></g>
<g style="fill:#848484; fill-opacity:0.01;  stroke:#848484; stroke-width:0.4171; stroke-opacity:1;  stroke-linecap:round; stroke-linejoin:round;">
<text x="211.0601" y="132.5817" textLength="5.6104" font-size="3.4755" lengthAdjust="spacingAndGlyphs" text-anchor="middle" opacity="0.01" style="font-family:monospace">C5</text>
<g class="stroked-text"><desc>C5</desc>
<path d="M211.4945 132.2143 L211.6186 132.3384 "/>
<path d="M211.6186 132.3384 L211.9910 132.4625 "/>
<path d="M211.9910 132.4625 L212.2392 132.4625 "/>
<path d="M212.2392 132.4625 L212.6116 132.3384 "/>
<path d="M212.6116 132.3384 L212.8599 132.0902 "/>
<path d="M212.8599 132.0902 L212.9840 131.8419 "/>
<path d="M212.9840 131.8419 L213.1081 131.3454 "/>
<path d="M213.1081 131.3454 L213.1081 130.9731 "/>
<path d="M213.1081 130.9731 L212.9840 130.4766 "/>
<path d="M212.9840 130.4766 L212.8599 130.2283 "/>
<path d="M212.8599 130.2283 L212.6116 129.9801 "/>
<path d="M212.6116 129.9801 L212.2392 129.8559 "/>
<path d="M212.2392 129.8559 L211.9910 129.8559 "/>
<path d="M211.9910 129.8559 L211.6186 129.9801 "/>
<path d="M211.6186 129.9801 L211.4945 130.1042 "/>
<path d="M209.1361 129.8559 L210.3774 129.8559 "/>
<path d="M210.3774 129.8559 L210.5015 131.0972 "/>
<path d="M210.5015 131.0972 L210.3774 130.9731 "/>
<path d="M210.3774 130.9731 L210.1291 130.8489 "/>
<path d="M210.1291 130.8489 L209.5085 130.8489 "/>
<path d="M209.5085 130.8489 L209.2602 130.9731 "/>
<path d="M209.2602 130.9731 L209.1361 131.0972 "/>
<path d="M209.1361 131.0972 L209.0120 131.3454 "/>
<path d="M209.0120 131.3454 L209.0120 131.9660 "/>
<path d="M209.0120 131.9660 L209.1361 132.2143 "/>
<path d="M209.1361 132.2143 L209.2602 132.3384 "/>
<path d="M209.2602 132.3384 L209.5085 132.4625 "/>
<path d="M209.5085 132.4625 L210.1291 132.4625 "/>
<path d="M210.1291 132.4625 L210.3774 132.3384 "/>
<path d="M210.3774 132.3384 L210.5015 132.2143 "/>
</g></g>
<g style="fill:#848484; fill-opacity:0.0;  stroke:#848484; stroke-width:0.7820; stroke-opacity:1;  stroke-linecap:round; stroke-linejoin:round;">
<g transform="rotate(-90.000000 215.3610 161.9583)">
<text x="215.3610" y="164.5649" textLength="20.0276" font-size="6.9510" lengthAdjust="spacingAndGlyphs" text-anchor="middle" opacity="0.01" style="font-family:monospace">10uF</text>
</g>
<g class="stroked-text"><desc>10uF</desc>
<path d="M212.9899 167.5439 L212.9899 170.5229 "/>
<path d="M212.9899 169.0334 L218.2031 169.0334 "/>
<path d="M218.2031 169.0334 L217.4584 169.5299 "/>
<path d="M217.4584 169.5299 L216.9619 170.0264 "/>
<path d="M216.9619 170.0264 L216.7137 170.5229 "/>
<path d="M218.2031 164.3167 L218.2031 163.8202 "/>
<path d="M218.2031 163.8202 L217.9549 163.3237 "/>
<path d="M217.9549 163.3237 L217.7066 163.0754 "/>
<path d="M217.7066 163.0754 L217.2102 162.8272 "/>
<path d="M217.2102 162.8272 L216.2172 162.5789 "/>
<path d="M216.2172 162.5789 L214.9759 162.5789 "/>
<path d="M214.9759 162.5789 L213.9829 162.8272 "/>
<path d="M213.9829 162.8272 L213.4864 163.0754 "/>
<path d="M213.4864 163.0754 L213.2382 163.3237 "/>
<path d="M213.2382 163.3237 L212.9899 163.8202 "/>
<path d="M212.9899 163.8202 L212.9899 164.3167 "/>
<path d="M212.9899 164.3167 L213.2382 164.8132 "/>
<path d="M213.2382 164.8132 L213.4864 165.0614 "/>
<path d="M213.4864 165.0614 L213.9829 165.3097 "/>
<path d="M213.9829 165.3097 L214.9759 165.5579 "/>
<path d="M214.9759 165.5579 L216.2172 165.5579 "/>
<path d="M216.2172 165.5579 L217.2102 165.3097 "/>
<path d="M217.2102 165.3097 L217.7066 165.0614 "/>
<path d="M217.7066 165.0614 L217.9549 164.8132 "/>
<path d="M217.9549 164.8132 L218.2031 164.3167 "/>
<path d="M216.4654 158.1104 L212.9899 158.1104 "/>
<path d="M216.4654 160.3447 L213.7347 160.3447 "/>
<path d="M213.7347 160.3447 L213.2382 160.0964 "/>
<path d="M213.2382 160.0964 L212.9899 159.5999 "/>
<path d="M212.9899 159.5999 L212.9899 158.8552 "/>
<path d="M212.9899 158.8552 L213.2382 158.3587 "/>
<path d="M213.2382 158.3587 L213.4864 158.1104 "/>
<path d="M215.7207 153.8902 L215.7207 155.6279 "/>
<path d="M212.9899 155.6279 L218.2031 155.6279 "/>
<path d="M218.2031 155.6279 L218.2031 153.1454 "/>
</g></g>
<g style="fill:#848484; fill-opacity:0.0;  stroke:#848484; stroke-width:0.4171; stroke-opacity:1;  stroke-linecap:round; stroke-linejoin:round;">
<g transform="rotate(-90.000000 224.1192 161.9583)">
<text x="224.1192" y="163.2616" textLength="5.6104" font-size="3.4755" lengthAdjust="spacingAndGlyphs" text-anchor="middle" opacity="0.01" style="font-family:monospace">C7</text>
</g>
<g class="stroked-text"><desc>C7</desc>
<path d="M223.1833 162.3928 L223.0592 162.5169 "/>
<path d="M223.0592 162.5169 L222.9351 162.8893 "/>
<path d="M222.9351 162.8893 L222.9351 163.1375 "/>
<path d="M222.9351 163.1375 L223.0592 163.5099 "/>
<path d="M223.0592 163.5099 L223.3074 163.7581 "/>
<path d="M223.3074 163.7581 L223.5557 163.8823 "/>
<path d="M223.5557 163.8823 L224.0522 164.0064 "/>
<path d="M224.0522 164.0064 L224.4246 164.0064 "/>
<path d="M224.4246 164.0064 L224.9211 163.8823 "/>
<path d="M224.9211 163.8823 L225.1693 163.7581 "/>
<path d="M225.1693 163.7581 L225.4176 163.5099 "/>
<path d="M225.4176 163.5099 L225.5417 163.1375 "/>
<path d="M225.5417 163.1375 L225.5417 162.8893 "/>
<path d="M225.5417 162.8893 L225.4176 162.5169 "/>
<path d="M225.4176 162.5169 L225.2934 162.3928 "/>
<path d="M225.5417 161.5239 L225.5417 159.7861 "/>
<path d="M225.5417 159.7861 L222.9351 160.9033 "/>
</g></g>
<g style="fill:#848484; fill-opacity:0.01;  stroke:#848484; stroke-width:0.7820; stroke-opacity:1;  stroke-linecap:round; stroke-linejoin:round;">
<g transform="rotate(-90.000000 250.4461 101.8757)">
<text x="250.4461" y="104.4823" textLength="54.0378" font-size="6.9510" lengthAdjust="spacingAndGlyphs" text-anchor="middle" opacity="0.01" style="font-family:monospace">BZV55C-5,6V</text>
</g>
<g class="stroked-text"><desc>BZV55C-5,6V</desc>
<path d="M250.8058 125.4594 L250.5576 124.7146 "/>
<path d="M250.5576 124.7146 L250.3093 124.4664 "/>
<path d="M250.3093 124.4664 L249.8128 124.2181 "/>
<path d="M249.8128 124.2181 L249.0681 124.2181 "/>
<path d="M249.0681 124.2181 L248.5716 124.4664 "/>
<path d="M248.5716 124.4664 L248.3233 124.7146 "/>
<path d="M248.3233 124.7146 L248.0751 125.2111 "/>
<path d="M248.0751 125.2111 L248.0751 127.1971 "/>
<path d="M248.0751 127.1971 L253.2883 127.1971 "/>
<path d="M253.2883 127.1971 L253.2883 125.4594 "/>
<path d="M253.2883 125.4594 L253.0400 124.9629 "/>
<path d="M253.0400 124.9629 L252.7918 124.7146 "/>
<path d="M252.7918 124.7146 L252.2953 124.4664 "/>
<path d="M252.2953 124.4664 L251.7988 124.4664 "/>
<path d="M251.7988 124.4664 L251.3023 124.7146 "/>
<path d="M251.3023 124.7146 L251.0541 124.9629 "/>
<path d="M251.0541 124.9629 L250.8058 125.4594 "/>
<path d="M250.8058 125.4594 L250.8058 127.1971 "/>
<path d="M253.2883 122.4804 L253.2883 119.0049 "/>
<path d="M253.2883 119.0049 L248.0751 122.4804 "/>
<path d="M248.0751 122.4804 L248.0751 119.0049 "/>
<path d="M253.2883 117.7636 L248.0751 116.0259 "/>
<path d="M248.0751 116.0259 L253.2883 114.2881 "/>
<path d="M253.2883 110.0679 L253.2883 112.5504 "/>
<path d="M253.2883 112.5504 L250.8058 112.7986 "/>
<path d="M250.8058 112.7986 L251.0541 112.5504 "/>
<path d="M251.0541 112.5504 L251.3023 112.0539 "/>
<path d="M251.3023 112.0539 L251.3023 110.8126 "/>
<path d="M251.3023 110.8126 L251.0541 110.3161 "/>
<path d="M251.0541 110.3161 L250.8058 110.0679 "/>
<path d="M250.8058 110.0679 L250.3093 109.8196 "/>
<path d="M250.3093 109.8196 L249.0681 109.8196 "/>
<path d="M249.0681 109.8196 L248.5716 110.0679 "/>
<path d="M248.5716 110.0679 L248.3233 110.3161 "/>
<path d="M248.3233 110.3161 L248.0751 110.8126 "/>
<path d="M248.0751 110.8126 L248.0751 112.0539 "/>
<path d="M248.0751 112.0539 L248.3233 112.5504 "/>
<path d="M248.3233 112.5504 L248.5716 112.7986 "/>
<path d="M253.2883 105.1029 L253.2883 107.5854 "/>
<path d="M253.2883 107.5854 L250.8058 107.8336 "/>
<path d="M250.8058 107.8336 L251.0541 107.5854 "/>
<path d="M251.0541 107.5854 L251.3023 107.0889 "/>
<path d="M251.3023 107.0889 L251.3023 105.8476 "/>
<path d="M251.3023 105.8476 L251.0541 105.3511 "/>
<path d="M251.0541 105.3511 L250.8058 105.1029 "/>
<path d="M250.8058 105.1029 L250.3093 104.8546 "/>
<path d="M250.3093 104.8546 L249.0681 104.8546 "/>
<path d="M249.0681 104.8546 L248.5716 105.1029 "/>
<path d="M248.5716 105.1029 L248.3233 105.3511 "/>
<path d="M248.3233 105.3511 L248.0751 105.8476 "/>
<path d="M248.0751 105.8476 L248.0751 107.0889 "/>
<path d="M248.0751 107.0889 L248.3233 107.5854 "/>
<path d="M248.3233 107.5854 L248.5716 107.8336 "/>
<path d="M248.5716 99.6414 L248.3233 99.8897 "/>
<path d="M248.3233 99.8897 L248.0751 100.6344 "/>
<path d="M248.0751 100.6344 L248.0751 101.1309 "/>
<path d="M248.0751 101.1309 L248.3233 101.8756 "/>
<path d="M248.3233 101.8756 L248.8198 102.3721 "/>
<path d="M248.8198 102.3721 L249.3163 102.6204 "/>
<path d="M249.3163 102.6204 L250.3093 102.8686 "/>
<path d="M250.3093 102.8686 L251.0541 102.8686 "/>
<path d="M251.0541 102.8686 L252.0471 102.6204 "/>
<path d="M252.0471 102.6204 L252.5435 102.3721 "/>
<path d="M252.5435 102.3721 L253.0400 101.8756 "/>
<path d="M253.0400 101.8756 L253.2883 101.1309 "/>
<path d="M253.2883 101.1309 L253.2883 100.6344 "/>
<path d="M253.2883 100.6344 L253.0400 99.8897 "/>
<path d="M253.0400 99.8897 L252.7918 99.6414 "/>
<path d="M250.0611 97.4072 L250.0611 93.4352 "/>
<path d="M253.2883 88.4702 L253.2883 90.9527 "/>
<path d="M253.2883 90.9527 L250.8058 91.2009 "/>
<path d="M250.8058 91.2009 L251.0541 90.9527 "/>
<path d="M251.0541 90.9527 L251.3023 90.4562 "/>
<path d="M251.3023 90.4562 L251.3023 89.2149 "/>
<path d="M251.3023 89.2149 L251.0541 88.7184 "/>
<path d="M251.0541 88.7184 L250.8058 88.4702 "/>
<path d="M250.8058 88.4702 L250.3093 88.2219 "/>
<path d="M250.3093 88.2219 L249.0681 88.2219 "/>
<path d="M249.0681 88.2219 L248.5716 88.4702 "/>
<path d="M248.5716 88.4702 L248.3233 88.7184 "/>
<path d="M248.3233 88.7184 L248.0751 89.2149 "/>
<path d="M248.0751 89.2149 L248.0751 90.4562 "/>
<path d="M248.0751 90.4562 L248.3233 90.9527 "/>
<path d="M248.3233 90.9527 L248.5716 91.2009 "/>
<path d="M248.3233 85.7394 L248.0751 85.7394 "/>
<path d="M248.0751 85.7394 L247.5786 85.9877 "/>
<path d="M247.5786 85.9877 L247.3303 86.2359 "/>
<path d="M253.2883 81.2709 L253.2883 82.2639 "/>
<path d="M253.2883 82.2639 L253.0400 82.7604 "/>
<path d="M253.0400 82.7604 L252.7918 83.0087 "/>
<path d="M252.7918 83.0087 L252.0471 83.5052 "/>
<path d="M252.0471 83.5052 L251.0541 83.7534 "/>
<path d="M251.0541 83.7534 L249.0681 83.7534 "/>
<path d="M249.0681 83.7534 L248.5716 83.5052 "/>
<path d="M248.5716 83.5052 L248.3233 83.2569 "/>
<path d="M248.3233 83.2569 L248.0751 82.7604 "/>
<path d="M248.0751 82.7604 L248.0751 81.7674 "/>
<path d="M248.0751 81.7674 L248.3233 81.2709 "/>
<path d="M248.3233 81.2709 L248.5716 81.0227 "/>
<path d="M248.5716 81.0227 L249.0681 80.7744 "/>
<path d="M249.0681 80.7744 L250.3093 80.7744 "/>
<path d="M250.3093 80.7744 L250.8058 81.0227 "/>
<path d="M250.8058 81.0227 L251.0541 81.2709 "/>
<path d="M251.0541 81.2709 L251.3023 81.7674 "/>
<path d="M251.3023 81.7674 L251.3023 82.7604 "/>
<path d="M251.3023 82.7604 L251.0541 83.2569 "/>
<path d="M251.0541 83.2569 L250.8058 83.5052 "/>
<path d="M250.8058 83.5052 L250.3093 83.7534 "/>
<path d="M253.2883 79.2849 L248.0751 77.5472 "/>
<path d="M248.0751 77.5472 L253.2883 75.8094 "/>
</g><g transform="rotate(-90.000000 277.0337 101.8757)">
<text x="277.0337" y="104.4823" textLength="11.0906" font-size="6.9510" lengthAdjust="spacingAndGlyphs" text-anchor="middle" opacity="0.01" style="font-family:monospace">D1</text>
</g>
<g class="stroked-text"><desc>D1</desc>
<path d="M274.6626 105.7235 L279.8759 105.7235 "/>
<path d="M279.8759 105.7235 L279.8759 104.4823 "/>
<path d="M279.8759 104.4823 L279.6276 103.7375 "/>
<path d="M279.6276 103.7375 L279.1311 103.2410 "/>
<path d="M279.1311 103.2410 L278.6346 102.9928 "/>
<path d="M278.6346 102.9928 L277.6416 102.7445 "/>
<path d="M277.6416 102.7445 L276.8969 102.7445 "/>
<path d="M276.8969 102.7445 L275.9039 102.9928 "/>
<path d="M275.9039 102.9928 L275.4074 103.2410 "/>
<path d="M275.4074 103.2410 L274.9109 103.7375 "/>
<path d="M274.9109 103.7375 L274.6626 104.4823 "/>
<path d="M274.6626 104.4823 L274.6626 105.7235 "/>
<path d="M274.6626 97.7795 L274.6626 100.7585 "/>
<path d="M274.6626 99.2690 L279.8759 99.2690 "/>
<path d="M279.8759 99.2690 L279.1311 99.7655 "/>
<path d="M279.1311 99.7655 L278.6346 100.2620 "/>
<path d="M278.6346 100.2620 L278.3864 100.7585 "/>
</g><text x="265.5604" y="60.6086" textLength="7.2516" font-size="8.8278" lengthAdjust="spacingAndGlyphs" text-anchor="middle" opacity="0.01" style="font-family:monospace">K</text>
<g class="stroked-text"><desc>K</desc>
<path d="M267.2944 60.3205 L267.2944 53.6997 "/>
<path d="M263.5111 60.3205 L266.3486 56.5371 "/>
<path d="M263.5111 53.6997 L267.2944 57.4830 "/>
</g><text x="234.9367" y="61.3948" textLength="13.5572" font-size="8.8278" lengthAdjust="spacingAndGlyphs" text-anchor="middle" opacity="0.01" style="font-family:monospace">D2</text>
<g class="stroked-text"><desc>D2</desc>
<path d="M239.8235 61.1066 L239.8235 54.4858 "/>
<path d="M239.8235 54.4858 L238.2471 54.4858 "/>
<path d="M238.2471 54.4858 L237.3013 54.8011 "/>
<path d="M237.3013 54.8011 L236.6708 55.4316 "/>
<path d="M236.6708 55.4316 L236.3555 56.0622 "/>
<path d="M236.3555 56.0622 L236.0402 57.3233 "/>
<path d="M236.0402 57.3233 L236.0402 58.2691 "/>
<path d="M236.0402 58.2691 L236.3555 59.5303 "/>
<path d="M236.3555 59.5303 L236.6708 60.1608 "/>
<path d="M236.6708 60.1608 L237.3013 60.7914 "/>
<path d="M237.3013 60.7914 L238.2471 61.1066 "/>
<path d="M238.2471 61.1066 L239.8235 61.1066 "/>
<path d="M233.5180 55.1164 L233.2027 54.8011 "/>
<path d="M233.2027 54.8011 L232.5721 54.4858 "/>
<path d="M232.5721 54.4858 L230.9958 54.4858 "/>
<path d="M230.9958 54.4858 L230.3652 54.8011 "/>
<path d="M230.3652 54.8011 L230.0499 55.1164 "/>
<path d="M230.0499 55.1164 L229.7347 55.7469 "/>
<path d="M229.7347 55.7469 L229.7347 56.3775 "/>
<path d="M229.7347 56.3775 L230.0499 57.3233 "/>
<path d="M230.0499 57.3233 L233.8333 61.1066 "/>
<path d="M233.8333 61.1066 L229.7347 61.1066 "/>
</g><text x="150.4821" y="89.4681" textLength="20.0276" font-size="6.9510" lengthAdjust="spacingAndGlyphs" text-anchor="middle" opacity="0.01" style="font-family:monospace">10uF</text>
<g class="stroked-text"><desc>10uF</desc>
<path d="M156.0678 89.2326 L159.0468 89.2326 "/>
<path d="M157.5573 89.2326 L157.5573 84.0193 "/>
<path d="M157.5573 84.0193 L158.0538 84.7641 "/>
<path d="M158.0538 84.7641 L158.5503 85.2606 "/>
<path d="M158.5503 85.2606 L159.0468 85.5088 "/>
<path d="M152.8405 84.0193 L152.3440 84.0193 "/>
<path d="M152.3440 84.0193 L151.8475 84.2676 "/>
<path d="M151.8475 84.2676 L151.5993 84.5158 "/>
<path d="M151.5993 84.5158 L151.3510 85.0123 "/>
<path d="M151.3510 85.0123 L151.1028 86.0053 "/>
<path d="M151.1028 86.0053 L151.1028 87.2466 "/>
<path d="M151.1028 87.2466 L151.3510 88.2396 "/>
<path d="M151.3510 88.2396 L151.5993 88.7361 "/>
<path d="M151.5993 88.7361 L151.8475 88.9843 "/>
<path d="M151.8475 88.9843 L152.3440 89.2326 "/>
<path d="M152.3440 89.2326 L152.8405 89.2326 "/>
<path d="M152.8405 89.2326 L153.3370 88.9843 "/>
<path d="M153.3370 88.9843 L153.5853 88.7361 "/>
<path d="M153.5853 88.7361 L153.8335 88.2396 "/>
<path d="M153.8335 88.2396 L154.0818 87.2466 "/>
<path d="M154.0818 87.2466 L154.0818 86.0053 "/>
<path d="M154.0818 86.0053 L153.8335 85.0123 "/>
<path d="M153.8335 85.0123 L153.5853 84.5158 "/>
<path d="M153.5853 84.5158 L153.3370 84.2676 "/>
<path d="M153.3370 84.2676 L152.8405 84.0193 "/>
<path d="M146.6343 85.7571 L146.6343 89.2326 "/>
<path d="M148.8685 85.7571 L148.8685 88.4878 "/>
<path d="M148.8685 88.4878 L148.6203 88.9843 "/>
<path d="M148.6203 88.9843 L148.1238 89.2326 "/>
<path d="M148.1238 89.2326 L147.3790 89.2326 "/>
<path d="M147.3790 89.2326 L146.8825 88.9843 "/>
<path d="M146.8825 88.9843 L146.6343 88.7361 "/>
<path d="M142.4140 86.5018 L144.1518 86.5018 "/>
<path d="M144.1518 89.2326 L144.1518 84.0193 "/>
<path d="M144.1518 84.0193 L141.6693 84.0193 "/>
</g></g>
<g style="fill:#848484; fill-opacity:0.01;  stroke:#848484; stroke-width:0.4171; stroke-opacity:1;  stroke-linecap:round; stroke-linejoin:round;">
<text x="150.4821" y="96.9231" textLength="5.6104" font-size="3.4755" lengthAdjust="spacingAndGlyphs" text-anchor="middle" opacity="0.01" style="font-family:monospace">C6</text>
<g class="stroked-text"><desc>C6</desc>
<path d="M150.9166 96.5557 L151.0407 96.6798 "/>
<path d="M151.0407 96.6798 L151.4131 96.8039 "/>
<path d="M151.4131 96.8039 L151.6613 96.8039 "/>
<path d="M151.6613 96.8039 L152.0337 96.6798 "/>
<path d="M152.0337 96.6798 L152.2819 96.4316 "/>
<path d="M152.2819 96.4316 L152.4061 96.1833 "/>
<path d="M152.4061 96.1833 L152.5302 95.6868 "/>
<path d="M152.5302 95.6868 L152.5302 95.3144 "/>
<path d="M152.5302 95.3144 L152.4061 94.8179 "/>
<path d="M152.4061 94.8179 L152.2819 94.5697 "/>
<path d="M152.2819 94.5697 L152.0337 94.3214 "/>
<path d="M152.0337 94.3214 L151.6613 94.1973 "/>
<path d="M151.6613 94.1973 L151.4131 94.1973 "/>
<path d="M151.4131 94.1973 L151.0407 94.3214 "/>
<path d="M151.0407 94.3214 L150.9166 94.4456 "/>
<path d="M148.6823 94.1973 L149.1788 94.1973 "/>
<path d="M149.1788 94.1973 L149.4271 94.3214 "/>
<path d="M149.4271 94.3214 L149.5512 94.4456 "/>
<path d="M149.5512 94.4456 L149.7994 94.8179 "/>
<path d="M149.7994 94.8179 L149.9236 95.3144 "/>
<path d="M149.9236 95.3144 L149.9236 96.3074 "/>
<path d="M149.9236 96.3074 L149.7994 96.5557 "/>
<path d="M149.7994 96.5557 L149.6753 96.6798 "/>
<path d="M149.6753 96.6798 L149.4271 96.8039 "/>
<path d="M149.4271 96.8039 L148.9306 96.8039 "/>
<path d="M148.9306 96.8039 L148.6823 96.6798 "/>
<path d="M148.6823 96.6798 L148.5582 96.5557 "/>
<path d="M148.5582 96.5557 L148.4341 96.3074 "/>
<path d="M148.4341 96.3074 L148.4341 95.6868 "/>
<path d="M148.4341 95.6868 L148.5582 95.4386 "/>
<path d="M148.5582 95.4386 L148.6823 95.3144 "/>
<path d="M148.6823 95.3144 L148.9306 95.1903 "/>
<path d="M148.9306 95.1903 L149.4271 95.1903 "/>
<path d="M149.4271 95.1903 L149.6753 95.3144 "/>
<path d="M149.6753 95.3144 L149.7994 95.4386 "/>
<path d="M149.7994 95.4386 L149.9236 95.6868 "/>
</g></g>
<g style="fill:#848484; fill-opacity:0.0;  stroke:#848484; stroke-width:0.7820; stroke-opacity:1;  stroke-linecap:round; stroke-linejoin:round;">
<g transform="rotate(-90.000000 102.5203 162.9358)">
<text x="102.5203" y="165.5424" textLength="15.0626" font-size="6.9510" lengthAdjust="spacingAndGlyphs" text-anchor="middle" opacity="0.01" style="font-family:monospace">4k7</text>
</g>
<g class="stroked-text"><desc>4k7</desc>
<path d="M103.6247 166.5354 L100.1492 166.5354 "/>
<path d="M105.6107 167.7767 L101.8869 169.0179 "/>
<path d="M101.8869 169.0179 L101.8869 165.7907 "/>
<path d="M100.1492 163.8047 L105.3624 163.8047 "/>
<path d="M102.1352 163.3082 L100.1492 161.8187 "/>
<path d="M103.6247 161.8187 L101.6387 163.8047 "/>
<path d="M105.3624 160.0809 L105.3624 156.6054 "/>
<path d="M105.3624 156.6054 L100.1492 158.8397 "/>
</g></g>
<g style="fill:#848484; fill-opacity:0.01;  stroke:#848484; stroke-width:0.4171; stroke-opacity:1;  stroke-linecap:round; stroke-linejoin:round;">
<g transform="rotate(-90.000000 93.9184 162.9358)">
<text x="93.9184" y="164.2391" textLength="5.6104" font-size="3.4755" lengthAdjust="spacingAndGlyphs" text-anchor="middle" opacity="0.01" style="font-family:monospace">R5</text>
</g>
<g class="stroked-text"><desc>R5</desc>
<path d="M92.7342 163.3702 L93.9755 164.2391 "/>
<path d="M92.7342 164.8597 L95.3408 164.8597 "/>
<path d="M95.3408 164.8597 L95.3408 163.8667 "/>
<path d="M95.3408 163.8667 L95.2167 163.6185 "/>
<path d="M95.2167 163.6185 L95.0926 163.4944 "/>
<path d="M95.0926 163.4944 L94.8443 163.3702 "/>
<path d="M94.8443 163.3702 L94.4720 163.3702 "/>
<path d="M94.4720 163.3702 L94.2237 163.4944 "/>
<path d="M94.2237 163.4944 L94.0996 163.6185 "/>
<path d="M94.0996 163.6185 L93.9755 163.8667 "/>
<path d="M93.9755 163.8667 L93.9755 164.8597 "/>
<path d="M95.3408 161.0119 L95.3408 162.2531 "/>
<path d="M95.3408 162.2531 L94.0996 162.3772 "/>
<path d="M94.0996 162.3772 L94.2237 162.2531 "/>
<path d="M94.2237 162.2531 L94.3478 162.0049 "/>
<path d="M94.3478 162.0049 L94.3478 161.3842 "/>
<path d="M94.3478 161.3842 L94.2237 161.1360 "/>
<path d="M94.2237 161.1360 L94.0996 161.0119 "/>
<path d="M94.0996 161.0119 L93.8513 160.8877 "/>
<path d="M93.8513 160.8877 L93.2307 160.8877 "/>
<path d="M93.2307 160.8877 L92.9825 161.0119 "/>
<path d="M92.9825 161.0119 L92.8583 161.1360 "/>
<path d="M92.8583 161.1360 L92.7342 161.3842 "/>
<path d="M92.7342 161.3842 L92.7342 162.0049 "/>
<path d="M92.7342 162.0049 L92.8583 162.2531 "/>
<path d="M92.8583 162.2531 L92.9825 162.3772 "/>
</g><text x="252.2056" y="72.4208" textLength="5.6104" font-size="3.4755" lengthAdjust="spacingAndGlyphs" text-anchor="middle" opacity="0.01" style="font-family:monospace">R6</text>
<g class="stroked-text"><desc>R6</desc>
<path d="M252.6400 72.3017 L253.5089 71.0604 "/>
<path d="M254.1295 72.3017 L254.1295 69.6951 "/>
<path d="M254.1295 69.6951 L253.1365 69.6951 "/>
<path d="M253.1365 69.6951 L252.8883 69.8192 "/>
<path d="M252.8883 69.8192 L252.7642 69.9433 "/>
<path d="M252.7642 69.9433 L252.6400 70.1916 "/>
<path d="M252.6400 70.1916 L252.6400 70.5639 "/>
<path d="M252.6400 70.5639 L252.7642 70.8122 "/>
<path d="M252.7642 70.8122 L252.8883 70.9363 "/>
<path d="M252.8883 70.9363 L253.1365 71.0604 "/>
<path d="M253.1365 71.0604 L254.1295 71.0604 "/>
<path d="M250.4058 69.6951 L250.9023 69.6951 "/>
<path d="M250.9023 69.6951 L251.1505 69.8192 "/>
<path d="M251.1505 69.8192 L251.2747 69.9433 "/>
<path d="M251.2747 69.9433 L251.5229 70.3157 "/>
<path d="M251.5229 70.3157 L251.6470 70.8122 "/>
<path d="M251.6470 70.8122 L251.6470 71.8052 "/>
<path d="M251.6470 71.8052 L251.5229 72.0534 "/>
<path d="M251.5229 72.0534 L251.3988 72.1776 "/>
<path d="M251.3988 72.1776 L251.1505 72.3017 "/>
<path d="M251.1505 72.3017 L250.6540 72.3017 "/>
<path d="M250.6540 72.3017 L250.4058 72.1776 "/>
<path d="M250.4058 72.1776 L250.2817 72.0534 "/>
<path d="M250.2817 72.0534 L250.1575 71.8052 "/>
<path d="M250.1575 71.8052 L250.1575 71.1846 "/>
<path d="M250.1575 71.1846 L250.2817 70.9363 "/>
<path d="M250.2817 70.9363 L250.4058 70.8122 "/>
<path d="M250.4058 70.8122 L250.6540 70.6881 "/>
<path d="M250.6540 70.6881 L251.1505 70.6881 "/>
<path d="M251.1505 70.6881 L251.3988 70.8122 "/>
<path d="M251.3988 70.8122 L251.5229 70.9363 "/>
<path d="M251.5229 70.9363 L251.6470 71.1846 "/>
</g></g>
<g style="fill:#848484; fill-opacity:0.01;  stroke:#848484; stroke-width:0.7820; stroke-opacity:1;  stroke-linecap:round; stroke-linejoin:round;">
<text x="163.8411" y="178.2497" textLength="15.0626" font-size="6.9510" lengthAdjust="spacingAndGlyphs" text-anchor="middle" opacity="0.01" style="font-family:monospace">4k7</text>
<g class="stroked-text"><desc>4k7</desc>
<path d="M167.4407 174.5387 L167.4407 178.0142 "/>
<path d="M168.6820 172.5527 L169.9232 176.2764 "/>
<path d="M169.9232 176.2764 L166.6960 176.2764 "/>
<path d="M164.7100 178.0142 L164.7100 172.8009 "/>
<path d="M164.2135 176.0282 L162.7240 178.0142 "/>
<path d="M162.7240 174.5387 L164.7100 176.5247 "/>
<path d="M160.9862 172.8009 L157.5107 172.8009 "/>
<path d="M157.5107 172.8009 L159.7450 178.0142 "/>
</g></g>
<g style="fill:#848484; fill-opacity:0.01;  stroke:#848484; stroke-width:0.4171; stroke-opacity:1;  stroke-linecap:round; stroke-linejoin:round;">
<text x="163.8411" y="168.6052" textLength="5.6104" font-size="3.4755" lengthAdjust="spacingAndGlyphs" text-anchor="middle" opacity="0.01" style="font-family:monospace">R2</text>
<g class="stroked-text"><desc>R2</desc>
<path d="M164.2755 168.4861 L165.1444 167.2448 "/>
<path d="M165.7650 168.4861 L165.7650 165.8795 "/>
<path d="M165.7650 165.8795 L164.7720 165.8795 "/>
<path d="M164.7720 165.8795 L164.5238 166.0036 "/>
<path d="M164.5238 166.0036 L164.3996 166.1277 "/>
<path d="M164.3996 166.1277 L164.2755 166.3760 "/>
<path d="M164.2755 166.3760 L164.2755 166.7483 "/>
<path d="M164.2755 166.7483 L164.3996 166.9966 "/>
<path d="M164.3996 166.9966 L164.5238 167.1207 "/>
<path d="M164.5238 167.1207 L164.7720 167.2448 "/>
<path d="M164.7720 167.2448 L165.7650 167.2448 "/>
<path d="M163.2825 166.1277 L163.1584 166.0036 "/>
<path d="M163.1584 166.0036 L162.9101 165.8795 "/>
<path d="M162.9101 165.8795 L162.2895 165.8795 "/>
<path d="M162.2895 165.8795 L162.0413 166.0036 "/>
<path d="M162.0413 166.0036 L161.9171 166.1277 "/>
<path d="M161.9171 166.1277 L161.7930 166.3760 "/>
<path d="M161.7930 166.3760 L161.7930 166.6242 "/>
<path d="M161.7930 166.6242 L161.9171 166.9966 "/>
<path d="M161.9171 166.9966 L163.4066 168.4861 "/>
<path d="M163.4066 168.4861 L161.7930 168.4861 "/>
</g></g>
<g style="fill:#848484; fill-opacity:0.0;  stroke:#848484; stroke-width:0.7820; stroke-opacity:1;  stroke-linecap:round; stroke-linejoin:round;">
<g transform="rotate(-90.000000 116.9870 162.9358)">
<text x="116.9870" y="165.5424" textLength="15.0626" font-size="6.9510" lengthAdjust="spacingAndGlyphs" text-anchor="middle" opacity="0.01" style="font-family:monospace">4k7</text>
</g>
<g class="stroked-text"><desc>4k7</desc>
<path d="M118.0914 166.5354 L114.6159 166.5354 "/>
<path d="M120.0774 167.7767 L116.3537 169.0179 "/>
<path d="M116.3537 169.0179 L116.3537 165.7907 "/>
<path d="M114.6159 163.8047 L119.8292 163.8047 "/>
<path d="M116.6019 163.3082 L114.6159 161.8187 "/>
<path d="M118.0914 161.8187 L116.1054 163.8047 "/>
<path d="M119.8292 160.0809 L119.8292 156.6054 "/>
<path d="M119.8292 156.6054 L114.6159 158.8397 "/>
</g></g>
<g style="fill:#848484; fill-opacity:0.0;  stroke:#848484; stroke-width:0.4171; stroke-opacity:1;  stroke-linecap:round; stroke-linejoin:round;">
<g transform="rotate(-90.000000 108.3852 162.9358)">
<text x="108.3852" y="164.2391" textLength="5.6104" font-size="3.4755" lengthAdjust="spacingAndGlyphs" text-anchor="middle" opacity="0.01" style="font-family:monospace">R3</text>
</g>
<g class="stroked-text"><desc>R3</desc>
<path d="M107.2010 163.3702 L108.4422 164.2391 "/>
<path d="M107.2010 164.8597 L109.8076 164.8597 "/>
<path d="M109.8076 164.8597 L109.8076 163.8667 "/>
<path d="M109.8076 163.8667 L109.6835 163.6185 "/>
<path d="M109.6835 163.6185 L109.5594 163.4944 "/>
<path d="M109.5594 163.4944 L109.3111 163.3702 "/>
<path d="M109.3111 163.3702 L108.9387 163.3702 "/>
<path d="M108.9387 163.3702 L108.6905 163.4944 "/>
<path d="M108.6905 163.4944 L108.5664 163.6185 "/>
<path d="M108.5664 163.6185 L108.4422 163.8667 "/>
<path d="M108.4422 163.8667 L108.4422 164.8597 "/>
<path d="M109.8076 162.5014 L109.8076 160.8877 "/>
<path d="M109.8076 160.8877 L108.8146 161.7566 "/>
<path d="M108.8146 161.7566 L108.8146 161.3842 "/>
<path d="M108.8146 161.3842 L108.6905 161.1360 "/>
<path d="M108.6905 161.1360 L108.5664 161.0119 "/>
<path d="M108.5664 161.0119 L108.3181 160.8877 "/>
<path d="M108.3181 160.8877 L107.6975 160.8877 "/>
<path d="M107.6975 160.8877 L107.4492 161.0119 "/>
<path d="M107.4492 161.0119 L107.3251 161.1360 "/>
<path d="M107.3251 161.1360 L107.2010 161.3842 "/>
<path d="M107.2010 161.3842 L107.2010 162.1290 "/>
<path d="M107.2010 162.1290 L107.3251 162.3772 "/>
<path d="M107.3251 162.3772 L107.4492 162.5014 "/>
</g></g>
<g style="fill:#848484; fill-opacity:0.0;  stroke:#848484; stroke-width:0.7820; stroke-opacity:1;  stroke-linecap:round; stroke-linejoin:round;">
<g transform="rotate(-90.000000 216.9250 134.9798)">
<text x="216.9250" y="137.5864" textLength="20.0276" font-size="6.9510" lengthAdjust="spacingAndGlyphs" text-anchor="middle" opacity="0.01" style="font-family:monospace">10uF</text>
</g>
<g class="stroked-text"><desc>10uF</desc>
<path d="M214.5539 140.5654 L214.5539 143.5444 "/>
<path d="M214.5539 142.0549 L219.7671 142.0549 "/>
<path d="M219.7671 142.0549 L219.0224 142.5514 "/>
<path d="M219.0224 142.5514 L218.5259 143.0479 "/>
<path d="M218.5259 143.0479 L218.2776 143.5444 "/>
<path d="M219.7671 137.3381 L219.7671 136.8416 "/>
<path d="M219.7671 136.8416 L219.5189 136.3451 "/>
<path d="M219.5189 136.3451 L219.2706 136.0969 "/>
<path d="M219.2706 136.0969 L218.7741 135.8486 "/>
<path d="M218.7741 135.8486 L217.7811 135.6004 "/>
<path d="M217.7811 135.6004 L216.5399 135.6004 "/>
<path d="M216.5399 135.6004 L215.5469 135.8486 "/>
<path d="M215.5469 135.8486 L215.0504 136.0969 "/>
<path d="M215.0504 136.0969 L214.8021 136.3451 "/>
<path d="M214.8021 136.3451 L214.5539 136.8416 "/>
<path d="M214.5539 136.8416 L214.5539 137.3381 "/>
<path d="M214.5539 137.3381 L214.8021 137.8346 "/>
<path d="M214.8021 137.8346 L215.0504 138.0829 "/>
<path d="M215.0504 138.0829 L215.5469 138.3311 "/>
<path d="M215.5469 138.3311 L216.5399 138.5794 "/>
<path d="M216.5399 138.5794 L217.7811 138.5794 "/>
<path d="M217.7811 138.5794 L218.7741 138.3311 "/>
<path d="M218.7741 138.3311 L219.2706 138.0829 "/>
<path d="M219.2706 138.0829 L219.5189 137.8346 "/>
<path d="M219.5189 137.8346 L219.7671 137.3381 "/>
<path d="M218.0294 131.1319 L214.5539 131.1319 "/>
<path d="M218.0294 133.3661 L215.2986 133.3661 "/>
<path d="M215.2986 133.3661 L214.8021 133.1179 "/>
<path d="M214.8021 133.1179 L214.5539 132.6214 "/>
<path d="M214.5539 132.6214 L214.5539 131.8766 "/>
<path d="M214.5539 131.8766 L214.8021 131.3801 "/>
<path d="M214.8021 131.3801 L215.0504 131.1319 "/>
<path d="M217.2846 126.9116 L217.2846 128.6494 "/>
<path d="M214.5539 128.6494 L219.7671 128.6494 "/>
<path d="M219.7671 128.6494 L219.7671 126.1669 "/>
</g></g>
<g style="fill:#848484; fill-opacity:0.0;  stroke:#848484; stroke-width:0.4171; stroke-opacity:1;  stroke-linecap:round; stroke-linejoin:round;">
<g transform="rotate(-90.000000 225.6832 134.9798)">
<text x="225.6832" y="136.2831" textLength="5.6104" font-size="3.4755" lengthAdjust="spacingAndGlyphs" text-anchor="middle" opacity="0.01" style="font-family:monospace">C1</text>
</g>
<g class="stroked-text"><desc>C1</desc>
<path d="M224.7473 135.4142 L224.6232 135.5383 "/>
<path d="M224.6232 135.5383 L224.4990 135.9107 "/>
<path d="M224.4990 135.9107 L224.4990 136.1590 "/>
<path d="M224.4990 136.1590 L224.6232 136.5313 "/>
<path d="M224.6232 136.5313 L224.8714 136.7796 "/>
<path d="M224.8714 136.7796 L225.1197 136.9037 "/>
<path d="M225.1197 136.9037 L225.6162 137.0278 "/>
<path d="M225.6162 137.0278 L225.9885 137.0278 "/>
<path d="M225.9885 137.0278 L226.4850 136.9037 "/>
<path d="M226.4850 136.9037 L226.7333 136.7796 "/>
<path d="M226.7333 136.7796 L226.9815 136.5313 "/>
<path d="M226.9815 136.5313 L227.1057 136.1590 "/>
<path d="M227.1057 136.1590 L227.1057 135.9107 "/>
<path d="M227.1057 135.9107 L226.9815 135.5383 "/>
<path d="M226.9815 135.5383 L226.8574 135.4142 "/>
<path d="M224.4990 132.9317 L224.4990 134.4212 "/>
<path d="M224.4990 133.6765 L227.1057 133.6765 "/>
<path d="M227.1057 133.6765 L226.7333 133.9247 "/>
<path d="M226.7333 133.9247 L226.4850 134.1730 "/>
<path d="M226.4850 134.1730 L226.3609 134.4212 "/>
</g></g>
<g style="fill:#848484; fill-opacity:0.01;  stroke:#848484; stroke-width:0.7820; stroke-opacity:1;  stroke-linecap:round; stroke-linejoin:round;">
<text x="211.0601" y="154.6337" textLength="15.0626" font-size="6.9510" lengthAdjust="spacingAndGlyphs" text-anchor="middle" opacity="0.01" style="font-family:monospace">1uF</text>
<g class="stroked-text"><desc>1uF</desc>
<path d="M214.1632 154.3982 L217.1422 154.3982 "/>
<path d="M215.6527 154.3982 L215.6527 149.1849 "/>
<path d="M215.6527 149.1849 L216.1492 149.9297 "/>
<path d="M216.1492 149.9297 L216.6457 150.4262 "/>
<path d="M216.6457 150.4262 L217.1422 150.6744 "/>
<path d="M209.6947 150.9227 L209.6947 154.3982 "/>
<path d="M211.9289 150.9227 L211.9289 153.6534 "/>
<path d="M211.9289 153.6534 L211.6807 154.1499 "/>
<path d="M211.6807 154.1499 L211.1842 154.3982 "/>
<path d="M211.1842 154.3982 L210.4394 154.3982 "/>
<path d="M210.4394 154.3982 L209.9429 154.1499 "/>
<path d="M209.9429 154.1499 L209.6947 153.9017 "/>
<path d="M205.4744 151.6674 L207.2122 151.6674 "/>
<path d="M207.2122 154.3982 L207.2122 149.1849 "/>
<path d="M207.2122 149.1849 L204.7297 149.1849 "/>
</g></g>
<g style="fill:#848484; fill-opacity:0.01;  stroke:#848484; stroke-width:0.4171; stroke-opacity:1;  stroke-linecap:round; stroke-linejoin:round;">
<text x="211.0601" y="144.5721" textLength="5.6104" font-size="3.4755" lengthAdjust="spacingAndGlyphs" text-anchor="middle" opacity="0.01" style="font-family:monospace">C4</text>
<g class="stroked-text"><desc>C4</desc>
<path d="M211.4945 144.2048 L211.6186 144.3289 "/>
<path d="M211.6186 144.3289 L211.9910 144.4530 "/>
<path d="M211.9910 144.4530 L212.2392 144.4530 "/>
<path d="M212.2392 144.4530 L212.6116 144.3289 "/>
<path d="M212.6116 144.3289 L212.8599 144.0806 "/>
<path d="M212.8599 144.0806 L212.9840 143.8324 "/>
<path d="M212.9840 143.8324 L213.1081 143.3359 "/>
<path d="M213.1081 143.3359 L213.1081 142.9635 "/>
<path d="M213.1081 142.9635 L212.9840 142.4670 "/>
<path d="M212.9840 142.4670 L212.8599 142.2188 "/>
<path d="M212.8599 142.2188 L212.6116 141.9705 "/>
<path d="M212.6116 141.9705 L212.2392 141.8464 "/>
<path d="M212.2392 141.8464 L211.9910 141.8464 "/>
<path d="M211.9910 141.8464 L211.6186 141.9705 "/>
<path d="M211.6186 141.9705 L211.4945 142.0946 "/>
<path d="M209.2602 142.7153 L209.2602 144.4530 "/>
<path d="M209.8809 141.7223 L210.5015 143.5841 "/>
<path d="M210.5015 143.5841 L208.8879 143.5841 "/>
</g></g>
<g style="fill:#848484; fill-opacity:0.0;  stroke:#848484; stroke-width:0.7820; stroke-opacity:1;  stroke-linecap:round; stroke-linejoin:round;">
<g transform="rotate(-90.000000 204.1525 161.9583)">
<text x="204.1525" y="164.5649" textLength="24.9926" font-size="6.9510" lengthAdjust="spacingAndGlyphs" text-anchor="middle" opacity="0.01" style="font-family:monospace">100nF</text>
</g>
<g class="stroked-text"><desc>100nF</desc>
<path d="M201.7814 170.0264 L201.7814 173.0054 "/>
<path d="M201.7814 171.5159 L206.9947 171.5159 "/>
<path d="M206.9947 171.5159 L206.2499 172.0124 "/>
<path d="M206.2499 172.0124 L205.7534 172.5089 "/>
<path d="M205.7534 172.5089 L205.5052 173.0054 "/>
<path d="M206.9947 166.7992 L206.9947 166.3027 "/>
<path d="M206.9947 166.3027 L206.7464 165.8062 "/>
<path d="M206.7464 165.8062 L206.4982 165.5579 "/>
<path d="M206.4982 165.5579 L206.0017 165.3097 "/>
<path d="M206.0017 165.3097 L205.0087 165.0614 "/>
<path d="M205.0087 165.0614 L203.7674 165.0614 "/>
<path d="M203.7674 165.0614 L202.7744 165.3097 "/>
<path d="M202.7744 165.3097 L202.2779 165.5579 "/>
<path d="M202.2779 165.5579 L202.0297 165.8062 "/>
<path d="M202.0297 165.8062 L201.7814 166.3027 "/>
<path d="M201.7814 166.3027 L201.7814 166.7992 "/>
<path d="M201.7814 166.7992 L202.0297 167.2957 "/>
<path d="M202.0297 167.2957 L202.2779 167.5439 "/>
<path d="M202.2779 167.5439 L202.7744 167.7922 "/>
<path d="M202.7744 167.7922 L203.7674 168.0404 "/>
<path d="M203.7674 168.0404 L205.0087 168.0404 "/>
<path d="M205.0087 168.0404 L206.0017 167.7922 "/>
<path d="M206.0017 167.7922 L206.4982 167.5439 "/>
<path d="M206.4982 167.5439 L206.7464 167.2957 "/>
<path d="M206.7464 167.2957 L206.9947 166.7992 "/>
<path d="M206.9947 161.8342 L206.9947 161.3377 "/>
<path d="M206.9947 161.3377 L206.7464 160.8412 "/>
<path d="M206.7464 160.8412 L206.4982 160.5929 "/>
<path d="M206.4982 160.5929 L206.0017 160.3447 "/>
<path d="M206.0017 160.3447 L205.0087 160.0964 "/>
<path d="M205.0087 160.0964 L203.7674 160.0964 "/>
<path d="M203.7674 160.0964 L202.7744 160.3447 "/>
<path d="M202.7744 160.3447 L202.2779 160.5929 "/>
<path d="M202.2779 160.5929 L202.0297 160.8412 "/>
<path d="M202.0297 160.8412 L201.7814 161.3377 "/>
<path d="M201.7814 161.3377 L201.7814 161.8342 "/>
<path d="M201.7814 161.8342 L202.0297 162.3307 "/>
<path d="M202.0297 162.3307 L202.2779 162.5789 "/>
<path d="M202.2779 162.5789 L202.7744 162.8272 "/>
<path d="M202.7744 162.8272 L203.7674 163.0754 "/>
<path d="M203.7674 163.0754 L205.0087 163.0754 "/>
<path d="M205.0087 163.0754 L206.0017 162.8272 "/>
<path d="M206.0017 162.8272 L206.4982 162.5789 "/>
<path d="M206.4982 162.5789 L206.7464 162.3307 "/>
<path d="M206.7464 162.3307 L206.9947 161.8342 "/>
<path d="M205.2569 157.8622 L201.7814 157.8622 "/>
<path d="M204.7604 157.8622 L205.0087 157.6139 "/>
<path d="M205.0087 157.6139 L205.2569 157.1174 "/>
<path d="M205.2569 157.1174 L205.2569 156.3727 "/>
<path d="M205.2569 156.3727 L205.0087 155.8762 "/>
<path d="M205.0087 155.8762 L204.5122 155.6279 "/>
<path d="M204.5122 155.6279 L201.7814 155.6279 "/>
<path d="M204.5122 151.4077 L204.5122 153.1454 "/>
<path d="M201.7814 153.1454 L206.9947 153.1454 "/>
<path d="M206.9947 153.1454 L206.9947 150.6630 "/>
</g></g>
<g style="fill:#848484; fill-opacity:0.0;  stroke:#848484; stroke-width:0.4171; stroke-opacity:1;  stroke-linecap:round; stroke-linejoin:round;">
<g transform="rotate(-90.000000 212.9108 161.9583)">
<text x="212.9108" y="163.2616" textLength="5.6104" font-size="3.4755" lengthAdjust="spacingAndGlyphs" text-anchor="middle" opacity="0.01" style="font-family:monospace">C8</text>
</g>
<g class="stroked-text"><desc>C8</desc>
<path d="M211.9748 162.3928 L211.8507 162.5169 "/>
<path d="M211.8507 162.5169 L211.7266 162.8893 "/>
<path d="M211.7266 162.8893 L211.7266 163.1375 "/>
<path d="M211.7266 163.1375 L211.8507 163.5099 "/>
<path d="M211.8507 163.5099 L212.0990 163.7581 "/>
<path d="M212.0990 163.7581 L212.3472 163.8823 "/>
<path d="M212.3472 163.8823 L212.8437 164.0064 "/>
<path d="M212.8437 164.0064 L213.2161 164.0064 "/>
<path d="M213.2161 164.0064 L213.7126 163.8823 "/>
<path d="M213.7126 163.8823 L213.9608 163.7581 "/>
<path d="M213.9608 163.7581 L214.2091 163.5099 "/>
<path d="M214.2091 163.5099 L214.3332 163.1375 "/>
<path d="M214.3332 163.1375 L214.3332 162.8893 "/>
<path d="M214.3332 162.8893 L214.2091 162.5169 "/>
<path d="M214.2091 162.5169 L214.0849 162.3928 "/>
<path d="M213.2161 160.9033 L213.3402 161.1515 "/>
<path d="M213.3402 161.1515 L213.4643 161.2756 "/>
<path d="M213.4643 161.2756 L213.7126 161.3998 "/>
<path d="M213.7126 161.3998 L213.8367 161.3998 "/>
<path d="M213.8367 161.3998 L214.0849 161.2756 "/>
<path d="M214.0849 161.2756 L214.2091 161.1515 "/>
<path d="M214.2091 161.1515 L214.3332 160.9033 "/>
<path d="M214.3332 160.9033 L214.3332 160.4068 "/>
<path d="M214.3332 160.4068 L214.2091 160.1585 "/>
<path d="M214.2091 160.1585 L214.0849 160.0344 "/>
<path d="M214.0849 160.0344 L213.8367 159.9103 "/>
<path d="M213.8367 159.9103 L213.7126 159.9103 "/>
<path d="M213.7126 159.9103 L213.4643 160.0344 "/>
<path d="M213.4643 160.0344 L213.3402 160.1585 "/>
<path d="M213.3402 160.1585 L213.2161 160.4068 "/>
<path d="M213.2161 160.4068 L213.2161 160.9033 "/>
<path d="M213.2161 160.9033 L213.0920 161.1515 "/>
<path d="M213.0920 161.1515 L212.9678 161.2756 "/>
<path d="M212.9678 161.2756 L212.7196 161.3998 "/>
<path d="M212.7196 161.3998 L212.2231 161.3998 "/>
<path d="M212.2231 161.3998 L211.9748 161.2756 "/>
<path d="M211.9748 161.2756 L211.8507 161.1515 "/>
<path d="M211.8507 161.1515 L211.7266 160.9033 "/>
<path d="M211.7266 160.9033 L211.7266 160.4068 "/>
<path d="M211.7266 160.4068 L211.8507 160.1585 "/>
<path d="M211.8507 160.1585 L211.9748 160.0344 "/>
<path d="M211.9748 160.0344 L212.2231 159.9103 "/>
<path d="M212.2231 159.9103 L212.7196 159.9103 "/>
<path d="M212.7196 159.9103 L212.9678 160.0344 "/>
<path d="M212.9678 160.0344 L213.0920 160.1585 "/>
<path d="M213.0920 160.1585 L213.2161 160.4068 "/>
</g></g>
<g style="fill:#848484; fill-opacity:0.01;  stroke:#848484; stroke-width:0.7820; stroke-opacity:1;  stroke-linecap:round; stroke-linejoin:round;">
<g transform="rotate(-90.000000 206.3942 101.6150)">
<text x="206.3942" y="104.2216" textLength="71.1670" font-size="6.9510" lengthAdjust="spacingAndGlyphs" text-anchor="middle" opacity="0.01" style="font-family:monospace">47uH DE0703-47</text>
</g>
<g class="stroked-text"><desc>47uH DE0703-47</desc>
<path d="M207.4986 133.2668 L204.0231 133.2668 "/>
<path d="M209.4846 134.5081 L205.7609 135.7493 "/>
<path d="M205.7609 135.7493 L205.7609 132.5221 "/>
<path d="M209.2364 131.0326 L209.2364 127.5571 "/>
<path d="M209.2364 127.5571 L204.0231 129.7913 "/>
<path d="M207.4986 123.3368 L204.0231 123.3368 "/>
<path d="M207.4986 125.5711 L204.7679 125.5711 "/>
<path d="M204.7679 125.5711 L204.2714 125.3228 "/>
<path d="M204.2714 125.3228 L204.0231 124.8263 "/>
<path d="M204.0231 124.8263 L204.0231 124.0816 "/>
<path d="M204.0231 124.0816 L204.2714 123.5851 "/>
<path d="M204.2714 123.5851 L204.5196 123.3368 "/>
<path d="M204.0231 120.8543 L209.2364 120.8543 "/>
<path d="M206.7539 120.8543 L206.7539 117.8754 "/>
<path d="M204.0231 117.8754 L209.2364 117.8754 "/>
<path d="M204.0231 111.4209 L209.2364 111.4209 "/>
<path d="M209.2364 111.4209 L209.2364 110.1796 "/>
<path d="M209.2364 110.1796 L208.9881 109.4349 "/>
<path d="M208.9881 109.4349 L208.4916 108.9384 "/>
<path d="M208.4916 108.9384 L207.9951 108.6901 "/>
<path d="M207.9951 108.6901 L207.0021 108.4419 "/>
<path d="M207.0021 108.4419 L206.2574 108.4419 "/>
<path d="M206.2574 108.4419 L205.2644 108.6901 "/>
<path d="M205.2644 108.6901 L204.7679 108.9384 "/>
<path d="M204.7679 108.9384 L204.2714 109.4349 "/>
<path d="M204.2714 109.4349 L204.0231 110.1796 "/>
<path d="M204.0231 110.1796 L204.0231 111.4209 "/>
<path d="M206.7539 106.2076 L206.7539 104.4699 "/>
<path d="M204.0231 103.7251 L204.0231 106.2076 "/>
<path d="M204.0231 106.2076 L209.2364 106.2076 "/>
<path d="M209.2364 106.2076 L209.2364 103.7251 "/>
<path d="M209.2364 100.4979 L209.2364 100.0014 "/>
<path d="M209.2364 100.0014 L208.9881 99.5049 "/>
<path d="M208.9881 99.5049 L208.7399 99.2566 "/>
<path d="M208.7399 99.2566 L208.2434 99.0084 "/>
<path d="M208.2434 99.0084 L207.2504 98.7601 "/>
<path d="M207.2504 98.7601 L206.0091 98.7601 "/>
<path d="M206.0091 98.7601 L205.0161 99.0084 "/>
<path d="M205.0161 99.0084 L204.5196 99.2566 "/>
<path d="M204.5196 99.2566 L204.2714 99.5049 "/>
<path d="M204.2714 99.5049 L204.0231 100.0014 "/>
<path d="M204.0231 100.0014 L204.0231 100.4979 "/>
<path d="M204.0231 100.4979 L204.2714 100.9944 "/>
<path d="M204.2714 100.9944 L204.5196 101.2426 "/>
<path d="M204.5196 101.2426 L205.0161 101.4909 "/>
<path d="M205.0161 101.4909 L206.0091 101.7391 "/>
<path d="M206.0091 101.7391 L207.2504 101.7391 "/>
<path d="M207.2504 101.7391 L208.2434 101.4909 "/>
<path d="M208.2434 101.4909 L208.7399 101.2426 "/>
<path d="M208.7399 101.2426 L208.9881 100.9944 "/>
<path d="M208.9881 100.9944 L209.2364 100.4979 "/>
<path d="M209.2364 97.0224 L209.2364 93.5469 "/>
<path d="M209.2364 93.5469 L204.0231 95.7811 "/>
<path d="M209.2364 90.5679 L209.2364 90.0714 "/>
<path d="M209.2364 90.0714 L208.9881 89.5749 "/>
<path d="M208.9881 89.5749 L208.7399 89.3266 "/>
<path d="M208.7399 89.3266 L208.2434 89.0784 "/>
<path d="M208.2434 89.0784 L207.2504 88.8301 "/>
<path d="M207.2504 88.8301 L206.0091 88.8301 "/>
<path d="M206.0091 88.8301 L205.0161 89.0784 "/>
<path d="M205.0161 89.0784 L204.5196 89.3266 "/>
<path d="M204.5196 89.3266 L204.2714 89.5749 "/>
<path d="M204.2714 89.5749 L204.0231 90.0714 "/>
<path d="M204.0231 90.0714 L204.0231 90.5679 "/>
<path d="M204.0231 90.5679 L204.2714 91.0644 "/>
<path d="M204.2714 91.0644 L204.5196 91.3126 "/>
<path d="M204.5196 91.3126 L205.0161 91.5609 "/>
<path d="M205.0161 91.5609 L206.0091 91.8091 "/>
<path d="M206.0091 91.8091 L207.2504 91.8091 "/>
<path d="M207.2504 91.8091 L208.2434 91.5609 "/>
<path d="M208.2434 91.5609 L208.7399 91.3126 "/>
<path d="M208.7399 91.3126 L208.9881 91.0644 "/>
<path d="M208.9881 91.0644 L209.2364 90.5679 "/>
<path d="M209.2364 87.0924 L209.2364 83.8651 "/>
<path d="M209.2364 83.8651 L207.2504 85.6029 "/>
<path d="M207.2504 85.6029 L207.2504 84.8581 "/>
<path d="M207.2504 84.8581 L207.0021 84.3616 "/>
<path d="M207.0021 84.3616 L206.7539 84.1134 "/>
<path d="M206.7539 84.1134 L206.2574 83.8651 "/>
<path d="M206.2574 83.8651 L205.0161 83.8651 "/>
<path d="M205.0161 83.8651 L204.5196 84.1134 "/>
<path d="M204.5196 84.1134 L204.2714 84.3616 "/>
<path d="M204.2714 84.3616 L204.0231 84.8581 "/>
<path d="M204.0231 84.8581 L204.0231 86.3476 "/>
<path d="M204.0231 86.3476 L204.2714 86.8441 "/>
<path d="M204.2714 86.8441 L204.5196 87.0924 "/>
<path d="M206.0091 81.6309 L206.0091 77.6589 "/>
<path d="M207.4986 72.9421 L204.0231 72.9421 "/>
<path d="M209.4846 74.1834 L205.7609 75.4246 "/>
<path d="M205.7609 75.4246 L205.7609 72.1974 "/>
<path d="M209.2364 70.7079 L209.2364 67.2324 "/>
<path d="M209.2364 67.2324 L204.0231 69.4666 "/>
</g><g transform="rotate(-90.000000 230.8965 101.6150)">
<text x="230.8965" y="104.2216" textLength="10.0976" font-size="6.9510" lengthAdjust="spacingAndGlyphs" text-anchor="middle" opacity="0.01" style="font-family:monospace">L1</text>
</g>
<g class="stroked-text"><desc>L1</desc>
<path d="M228.5254 102.4839 L228.5254 104.9664 "/>
<path d="M228.5254 104.9664 L233.7386 104.9664 "/>
<path d="M228.5254 98.0154 L228.5254 100.9944 "/>
<path d="M228.5254 99.5049 L233.7386 99.5049 "/>
<path d="M233.7386 99.5049 L232.9939 100.0014 "/>
<path d="M232.9939 100.0014 L232.4974 100.4979 "/>
<path d="M232.4974 100.4979 L232.2491 100.9944 "/>
</g><text x="168.8328" y="106.9064" textLength="24.9926" font-size="6.9510" lengthAdjust="spacingAndGlyphs" text-anchor="middle" opacity="0.01" style="font-family:monospace">100nF</text>
<g class="stroked-text"><desc>100nF</desc>
<path d="M176.9009 106.6709 L179.8799 106.6709 "/>
<path d="M178.3904 106.6709 L178.3904 101.4577 "/>
<path d="M178.3904 101.4577 L178.8869 102.2024 "/>
<path d="M178.8869 102.2024 L179.3834 102.6989 "/>
<path d="M179.3834 102.6989 L179.8799 102.9471 "/>
<path d="M173.6736 101.4577 L173.1771 101.4577 "/>
<path d="M173.1771 101.4577 L172.6806 101.7059 "/>
<path d="M172.6806 101.7059 L172.4324 101.9542 "/>
<path d="M172.4324 101.9542 L172.1841 102.4506 "/>
<path d="M172.1841 102.4506 L171.9359 103.4436 "/>
<path d="M171.9359 103.4436 L171.9359 104.6849 "/>
<path d="M171.9359 104.6849 L172.1841 105.6779 "/>
<path d="M172.1841 105.6779 L172.4324 106.1744 "/>
<path d="M172.4324 106.1744 L172.6806 106.4226 "/>
<path d="M172.6806 106.4226 L173.1771 106.6709 "/>
<path d="M173.1771 106.6709 L173.6736 106.6709 "/>
<path d="M173.6736 106.6709 L174.1701 106.4226 "/>
<path d="M174.1701 106.4226 L174.4184 106.1744 "/>
<path d="M174.4184 106.1744 L174.6666 105.6779 "/>
<path d="M174.6666 105.6779 L174.9149 104.6849 "/>
<path d="M174.9149 104.6849 L174.9149 103.4436 "/>
<path d="M174.9149 103.4436 L174.6666 102.4506 "/>
<path d="M174.6666 102.4506 L174.4184 101.9542 "/>
<path d="M174.4184 101.9542 L174.1701 101.7059 "/>
<path d="M174.1701 101.7059 L173.6736 101.4577 "/>
<path d="M168.7086 101.4577 L168.2121 101.4577 "/>
<path d="M168.2121 101.4577 L167.7156 101.7059 "/>
<path d="M167.7156 101.7059 L167.4674 101.9542 "/>
<path d="M167.4674 101.9542 L167.2191 102.4506 "/>
<path d="M167.2191 102.4506 L166.9709 103.4436 "/>
<path d="M166.9709 103.4436 L166.9709 104.6849 "/>
<path d="M166.9709 104.6849 L167.2191 105.6779 "/>
<path d="M167.2191 105.6779 L167.4674 106.1744 "/>
<path d="M167.4674 106.1744 L167.7156 106.4226 "/>
<path d="M167.7156 106.4226 L168.2121 106.6709 "/>
<path d="M168.2121 106.6709 L168.7086 106.6709 "/>
<path d="M168.7086 106.6709 L169.2051 106.4226 "/>
<path d="M169.2051 106.4226 L169.4534 106.1744 "/>
<path d="M169.4534 106.1744 L169.7016 105.6779 "/>
<path d="M169.7016 105.6779 L169.9499 104.6849 "/>
<path d="M169.9499 104.6849 L169.9499 103.4436 "/>
<path d="M169.9499 103.4436 L169.7016 102.4506 "/>
<path d="M169.7016 102.4506 L169.4534 101.9542 "/>
<path d="M169.4534 101.9542 L169.2051 101.7059 "/>
<path d="M169.2051 101.7059 L168.7086 101.4577 "/>
<path d="M164.7366 103.1954 L164.7366 106.6709 "/>
<path d="M164.7366 103.6919 L164.4884 103.4436 "/>
<path d="M164.4884 103.4436 L163.9919 103.1954 "/>
<path d="M163.9919 103.1954 L163.2471 103.1954 "/>
<path d="M163.2471 103.1954 L162.7506 103.4436 "/>
<path d="M162.7506 103.4436 L162.5024 103.9401 "/>
<path d="M162.5024 103.9401 L162.5024 106.6709 "/>
<path d="M158.2821 103.9401 L160.0199 103.9401 "/>
<path d="M160.0199 106.6709 L160.0199 101.4577 "/>
<path d="M160.0199 101.4577 L157.5374 101.4577 "/>
</g></g>
<g style="fill:#848484; fill-opacity:0.01;  stroke:#848484; stroke-width:0.4171; stroke-opacity:1;  stroke-linecap:round; stroke-linejoin:round;">
<text x="168.8328" y="96.8449" textLength="5.6104" font-size="3.4755" lengthAdjust="spacingAndGlyphs" text-anchor="middle" opacity="0.01" style="font-family:monospace">C3</text>
<g class="stroked-text"><desc>C3</desc>
<path d="M169.2672 96.4775 L169.3913 96.6016 "/>
<path d="M169.3913 96.6016 L169.7637 96.7257 "/>
<path d="M169.7637 96.7257 L170.0119 96.7257 "/>
<path d="M170.0119 96.7257 L170.3843 96.6016 "/>
<path d="M170.3843 96.6016 L170.6326 96.3534 "/>
<path d="M170.6326 96.3534 L170.7567 96.1051 "/>
<path d="M170.7567 96.1051 L170.8808 95.6086 "/>
<path d="M170.8808 95.6086 L170.8808 95.2362 "/>
<path d="M170.8808 95.2362 L170.7567 94.7397 "/>
<path d="M170.7567 94.7397 L170.6326 94.4915 "/>
<path d="M170.6326 94.4915 L170.3843 94.2432 "/>
<path d="M170.3843 94.2432 L170.0119 94.1191 "/>
<path d="M170.0119 94.1191 L169.7637 94.1191 "/>
<path d="M169.7637 94.1191 L169.3913 94.2432 "/>
<path d="M169.3913 94.2432 L169.2672 94.3674 "/>
<path d="M168.3983 94.1191 L166.7847 94.1191 "/>
<path d="M166.7847 94.1191 L167.6536 95.1121 "/>
<path d="M167.6536 95.1121 L167.2812 95.1121 "/>
<path d="M167.2812 95.1121 L167.0329 95.2362 "/>
<path d="M167.0329 95.2362 L166.9088 95.3604 "/>
<path d="M166.9088 95.3604 L166.7847 95.6086 "/>
<path d="M166.7847 95.6086 L166.7847 96.2292 "/>
<path d="M166.7847 96.2292 L166.9088 96.4775 "/>
<path d="M166.9088 96.4775 L167.0329 96.6016 "/>
<path d="M167.0329 96.6016 L167.2812 96.7257 "/>
<path d="M167.2812 96.7257 L168.0259 96.7257 "/>
<path d="M168.0259 96.7257 L168.2742 96.6016 "/>
<path d="M168.2742 96.6016 L168.3983 96.4775 "/>
</g></g>
<g style="fill:#848484; fill-opacity:0.01;  stroke:#848484; stroke-width:0.7820; stroke-opacity:1;  stroke-linecap:round; stroke-linejoin:round;">
<text x="177.6301" y="155.5200" textLength="67.4433" font-size="6.9510" lengthAdjust="spacingAndGlyphs" text-anchor="middle" opacity="0.01" style="font-family:monospace">DRV10987DPWPR</text>
<g class="stroked-text"><desc>DRV10987DPWPR</desc>
<path d="M209.6543 155.2844 L209.6543 150.0712 "/>
<path d="M209.6543 150.0712 L208.4131 150.0712 "/>
<path d="M208.4131 150.0712 L207.6683 150.3194 "/>
<path d="M207.6683 150.3194 L207.1718 150.8159 "/>
<path d="M207.1718 150.8159 L206.9236 151.3124 "/>
<path d="M206.9236 151.3124 L206.6753 152.3054 "/>
<path d="M206.6753 152.3054 L206.6753 153.0502 "/>
<path d="M206.6753 153.0502 L206.9236 154.0432 "/>
<path d="M206.9236 154.0432 L207.1718 154.5397 "/>
<path d="M207.1718 154.5397 L207.6683 155.0362 "/>
<path d="M207.6683 155.0362 L208.4131 155.2844 "/>
<path d="M208.4131 155.2844 L209.6543 155.2844 "/>
<path d="M201.4621 155.2844 L203.1998 152.8019 "/>
<path d="M204.4411 155.2844 L204.4411 150.0712 "/>
<path d="M204.4411 150.0712 L202.4551 150.0712 "/>
<path d="M202.4551 150.0712 L201.9586 150.3194 "/>
<path d="M201.9586 150.3194 L201.7103 150.5677 "/>
<path d="M201.7103 150.5677 L201.4621 151.0642 "/>
<path d="M201.4621 151.0642 L201.4621 151.8089 "/>
<path d="M201.4621 151.8089 L201.7103 152.3054 "/>
<path d="M201.7103 152.3054 L201.9586 152.5537 "/>
<path d="M201.9586 152.5537 L202.4551 152.8019 "/>
<path d="M202.4551 152.8019 L204.4411 152.8019 "/>
<path d="M199.9726 150.0712 L198.2349 155.2844 "/>
<path d="M198.2349 155.2844 L196.4971 150.0712 "/>
<path d="M192.0286 155.2844 L195.0076 155.2844 "/>
<path d="M193.5181 155.2844 L193.5181 150.0712 "/>
<path d="M193.5181 150.0712 L194.0146 150.8159 "/>
<path d="M194.0146 150.8159 L194.5111 151.3124 "/>
<path d="M194.5111 151.3124 L195.0076 151.5607 "/>
<path d="M188.8014 150.0712 L188.3049 150.0712 "/>
<path d="M188.3049 150.0712 L187.8084 150.3194 "/>
<path d="M187.8084 150.3194 L187.5601 150.5677 "/>
<path d="M187.5601 150.5677 L187.3119 151.0642 "/>
<path d="M187.3119 151.0642 L187.0636 152.0572 "/>
<path d="M187.0636 152.0572 L187.0636 153.2984 "/>
<path d="M187.0636 153.2984 L187.3119 154.2914 "/>
<path d="M187.3119 154.2914 L187.5601 154.7879 "/>
<path d="M187.5601 154.7879 L187.8084 155.0362 "/>
<path d="M187.8084 155.0362 L188.3049 155.2844 "/>
<path d="M188.3049 155.2844 L188.8014 155.2844 "/>
<path d="M188.8014 155.2844 L189.2979 155.0362 "/>
<path d="M189.2979 155.0362 L189.5461 154.7879 "/>
<path d="M189.5461 154.7879 L189.7944 154.2914 "/>
<path d="M189.7944 154.2914 L190.0426 153.2984 "/>
<path d="M190.0426 153.2984 L190.0426 152.0572 "/>
<path d="M190.0426 152.0572 L189.7944 151.0642 "/>
<path d="M189.7944 151.0642 L189.5461 150.5677 "/>
<path d="M189.5461 150.5677 L189.2979 150.3194 "/>
<path d="M189.2979 150.3194 L188.8014 150.0712 "/>
<path d="M184.5811 155.2844 L183.5881 155.2844 "/>
<path d="M183.5881 155.2844 L183.0916 155.0362 "/>
<path d="M183.0916 155.0362 L182.8434 154.7879 "/>
<path d="M182.8434 154.7879 L182.3469 154.0432 "/>
<path d="M182.3469 154.0432 L182.0986 153.0502 "/>
<path d="M182.0986 153.0502 L182.0986 151.0642 "/>
<path d="M182.0986 151.0642 L182.3469 150.5677 "/>
<path d="M182.3469 150.5677 L182.5951 150.3194 "/>
<path d="M182.5951 150.3194 L183.0916 150.0712 "/>
<path d="M183.0916 150.0712 L184.0846 150.0712 "/>
<path d="M184.0846 150.0712 L184.5811 150.3194 "/>
<path d="M184.5811 150.3194 L184.8294 150.5677 "/>
<path d="M184.8294 150.5677 L185.0776 151.0642 "/>
<path d="M185.0776 151.0642 L185.0776 152.3054 "/>
<path d="M185.0776 152.3054 L184.8294 152.8019 "/>
<path d="M184.8294 152.8019 L184.5811 153.0502 "/>
<path d="M184.5811 153.0502 L184.0846 153.2984 "/>
<path d="M184.0846 153.2984 L183.0916 153.2984 "/>
<path d="M183.0916 153.2984 L182.5951 153.0502 "/>
<path d="M182.5951 153.0502 L182.3469 152.8019 "/>
<path d="M182.3469 152.8019 L182.0986 152.3054 "/>
<path d="M179.1196 152.3054 L179.6161 152.0572 "/>
<path d="M179.6161 152.0572 L179.8644 151.8089 "/>
<path d="M179.8644 151.8089 L180.1126 151.3124 "/>
<path d="M180.1126 151.3124 L180.1126 151.0642 "/>
<path d="M180.1126 151.0642 L179.8644 150.5677 "/>
<path d="M179.8644 150.5677 L179.6161 150.3194 "/>
<path d="M179.6161 150.3194 L179.1196 150.0712 "/>
<path d="M179.1196 150.0712 L178.1266 150.0712 "/>
<path d="M178.1266 150.0712 L177.6301 150.3194 "/>
<path d="M177.6301 150.3194 L177.3819 150.5677 "/>
<path d="M177.3819 150.5677 L177.1336 151.0642 "/>
<path d="M177.1336 151.0642 L177.1336 151.3124 "/>
<path d="M177.1336 151.3124 L177.3819 151.8089 "/>
<path d="M177.3819 151.8089 L177.6301 152.0572 "/>
<path d="M177.6301 152.0572 L178.1266 152.3054 "/>
<path d="M178.1266 152.3054 L179.1196 152.3054 "/>
<path d="M179.1196 152.3054 L179.6161 152.5537 "/>
<path d="M179.6161 152.5537 L179.8644 152.8019 "/>
<path d="M179.8644 152.8019 L180.1126 153.2984 "/>
<path d="M180.1126 153.2984 L180.1126 154.2914 "/>
<path d="M180.1126 154.2914 L179.8644 154.7879 "/>
<path d="M179.8644 154.7879 L179.6161 155.0362 "/>
<path d="M179.6161 155.0362 L179.1196 155.2844 "/>
<path d="M179.1196 155.2844 L178.1266 155.2844 "/>
<path d="M178.1266 155.2844 L177.6301 155.0362 "/>
<path d="M177.6301 155.0362 L177.3819 154.7879 "/>
<path d="M177.3819 154.7879 L177.1336 154.2914 "/>
<path d="M177.1336 154.2914 L177.1336 153.2984 "/>
<path d="M177.1336 153.2984 L177.3819 152.8019 "/>
<path d="M177.3819 152.8019 L177.6301 152.5537 "/>
<path d="M177.6301 152.5537 L178.1266 152.3054 "/>
<path d="M175.3959 150.0712 L171.9204 150.0712 "/>
<path d="M171.9204 150.0712 L174.1546 155.2844 "/>
<path d="M169.9344 155.2844 L169.9344 150.0712 "/>
<path d="M169.9344 150.0712 L168.6931 150.0712 "/>
<path d="M168.6931 150.0712 L167.9484 150.3194 "/>
<path d="M167.9484 150.3194 L167.4519 150.8159 "/>
<path d="M167.4519 150.8159 L167.2036 151.3124 "/>
<path d="M167.2036 151.3124 L166.9554 152.3054 "/>
<path d="M166.9554 152.3054 L166.9554 153.0502 "/>
<path d="M166.9554 153.0502 L167.2036 154.0432 "/>
<path d="M167.2036 154.0432 L167.4519 154.5397 "/>
<path d="M167.4519 154.5397 L167.9484 155.0362 "/>
<path d="M167.9484 155.0362 L168.6931 155.2844 "/>
<path d="M168.6931 155.2844 L169.9344 155.2844 "/>
<path d="M164.7211 155.2844 L164.7211 150.0712 "/>
<path d="M164.7211 150.0712 L162.7351 150.0712 "/>
<path d="M162.7351 150.0712 L162.2386 150.3194 "/>
<path d="M162.2386 150.3194 L161.9904 150.5677 "/>
<path d="M161.9904 150.5677 L161.7421 151.0642 "/>
<path d="M161.7421 151.0642 L161.7421 151.8089 "/>
<path d="M161.7421 151.8089 L161.9904 152.3054 "/>
<path d="M161.9904 152.3054 L162.2386 152.5537 "/>
<path d="M162.2386 152.5537 L162.7351 152.8019 "/>
<path d="M162.7351 152.8019 L164.7211 152.8019 "/>
<path d="M160.0044 150.0712 L158.7631 155.2844 "/>
<path d="M158.7631 155.2844 L157.7701 151.5607 "/>
<path d="M157.7701 151.5607 L156.7771 155.2844 "/>
<path d="M156.7771 155.2844 L155.5359 150.0712 "/>
<path d="M153.5499 155.2844 L153.5499 150.0712 "/>
<path d="M153.5499 150.0712 L151.5639 150.0712 "/>
<path d="M151.5639 150.0712 L151.0674 150.3194 "/>
<path d="M151.0674 150.3194 L150.8191 150.5677 "/>
<path d="M150.8191 150.5677 L150.5709 151.0642 "/>
<path d="M150.5709 151.0642 L150.5709 151.8089 "/>
<path d="M150.5709 151.8089 L150.8191 152.3054 "/>
<path d="M150.8191 152.3054 L151.0674 152.5537 "/>
<path d="M151.0674 152.5537 L151.5639 152.8019 "/>
<path d="M151.5639 152.8019 L153.5499 152.8019 "/>
<path d="M145.3576 155.2844 L147.0954 152.8019 "/>
<path d="M148.3366 155.2844 L148.3366 150.0712 "/>
<path d="M148.3366 150.0712 L146.3506 150.0712 "/>
<path d="M146.3506 150.0712 L145.8541 150.3194 "/>
<path d="M145.8541 150.3194 L145.6059 150.5677 "/>
<path d="M145.6059 150.5677 L145.3576 151.0642 "/>
<path d="M145.3576 151.0642 L145.3576 151.8089 "/>
<path d="M145.3576 151.8089 L145.6059 152.3054 "/>
<path d="M145.6059 152.3054 L145.8541 152.5537 "/>
<path d="M145.8541 152.5537 L146.3506 152.8019 "/>
<path d="M146.3506 152.8019 L148.3366 152.8019 "/>
</g><text x="179.8718" y="130.2357" textLength="13.5731" font-size="6.9510" lengthAdjust="spacingAndGlyphs" text-anchor="middle" opacity="0.01" style="font-family:monospace">IC1</text>
<g class="stroked-text"><desc>IC1</desc>
<path d="M184.9609 130.0002 L184.9609 124.7869 "/>
<path d="M179.4994 129.5037 L179.7477 129.7519 "/>
<path d="M179.7477 129.7519 L180.4924 130.0002 "/>
<path d="M180.4924 130.0002 L180.9889 130.0002 "/>
<path d="M180.9889 130.0002 L181.7337 129.7519 "/>
<path d="M181.7337 129.7519 L182.2302 129.2554 "/>
<path d="M182.2302 129.2554 L182.4784 128.7589 "/>
<path d="M182.4784 128.7589 L182.7267 127.7659 "/>
<path d="M182.7267 127.7659 L182.7267 127.0212 "/>
<path d="M182.7267 127.0212 L182.4784 126.0282 "/>
<path d="M182.4784 126.0282 L182.2302 125.5317 "/>
<path d="M182.2302 125.5317 L181.7337 125.0352 "/>
<path d="M181.7337 125.0352 L180.9889 124.7869 "/>
<path d="M180.9889 124.7869 L180.4924 124.7869 "/>
<path d="M180.4924 124.7869 L179.7477 125.0352 "/>
<path d="M179.7477 125.0352 L179.4994 125.2834 "/>
<path d="M174.5344 130.0002 L177.5134 130.0002 "/>
<path d="M176.0239 130.0002 L176.0239 124.7869 "/>
<path d="M176.0239 124.7869 L176.5204 125.5317 "/>
<path d="M176.5204 125.5317 L177.0169 126.0282 "/>
<path d="M177.0169 126.0282 L177.5134 126.2764 "/>
</g><g transform="rotate(-90.000000 89.0962 162.9358)">
<text x="89.0962" y="165.5424" textLength="15.0626" font-size="6.9510" lengthAdjust="spacingAndGlyphs" text-anchor="middle" opacity="0.01" style="font-family:monospace">4k7</text>
</g>
<g class="stroked-text"><desc>4k7</desc>
<path d="M90.2006 166.5354 L86.7251 166.5354 "/>
<path d="M92.1866 167.7767 L88.4628 169.0179 "/>
<path d="M88.4628 169.0179 L88.4628 165.7907 "/>
<path d="M86.7251 163.8047 L91.9383 163.8047 "/>
<path d="M88.7111 163.3082 L86.7251 161.8187 "/>
<path d="M90.2006 161.8187 L88.2146 163.8047 "/>
<path d="M91.9383 160.0809 L91.9383 156.6054 "/>
<path d="M91.9383 156.6054 L86.7251 158.8397 "/>
</g></g>
<g style="fill:#848484; fill-opacity:0.0;  stroke:#848484; stroke-width:0.4171; stroke-opacity:1;  stroke-linecap:round; stroke-linejoin:round;">
<g transform="rotate(-90.000000 80.4943 162.9358)">
<text x="80.4943" y="164.2391" textLength="5.6104" font-size="3.4755" lengthAdjust="spacingAndGlyphs" text-anchor="middle" opacity="0.01" style="font-family:monospace">R4</text>
</g>
<g class="stroked-text"><desc>R4</desc>
<path d="M79.3101 163.3702 L80.5514 164.2391 "/>
<path d="M79.3101 164.8597 L81.9167 164.8597 "/>
<path d="M81.9167 164.8597 L81.9167 163.8667 "/>
<path d="M81.9167 163.8667 L81.7926 163.6185 "/>
<path d="M81.7926 163.6185 L81.6685 163.4944 "/>
<path d="M81.6685 163.4944 L81.4202 163.3702 "/>
<path d="M81.4202 163.3702 L81.0479 163.3702 "/>
<path d="M81.0479 163.3702 L80.7996 163.4944 "/>
<path d="M80.7996 163.4944 L80.6755 163.6185 "/>
<path d="M80.6755 163.6185 L80.5514 163.8667 "/>
<path d="M80.5514 163.8667 L80.5514 164.8597 "/>
<path d="M81.0479 161.1360 L79.3101 161.1360 "/>
<path d="M82.0409 161.7566 L80.1790 162.3772 "/>
<path d="M80.1790 162.3772 L80.1790 160.7636 "/>
</g></g>
<g style="fill:#848484; fill-opacity:0.01;  stroke:#848484; stroke-width:0.7820; stroke-opacity:1;  stroke-linecap:round; stroke-linejoin:round;">
<text x="182.7391" y="161.3067" textLength="15.0626" font-size="6.9510" lengthAdjust="spacingAndGlyphs" text-anchor="middle" opacity="0.01" style="font-family:monospace">4k7</text>
<g class="stroked-text"><desc>4k7</desc>
<path d="M186.3387 157.5956 L186.3387 161.0711 "/>
<path d="M187.5800 155.6096 L188.8212 159.3334 "/>
<path d="M188.8212 159.3334 L185.5940 159.3334 "/>
<path d="M183.6080 161.0711 L183.6080 155.8579 "/>
<path d="M183.1115 159.0851 L181.6220 161.0711 "/>
<path d="M181.6220 157.5956 L183.6080 159.5816 "/>
<path d="M179.8842 155.8579 L176.4087 155.8579 "/>
<path d="M176.4087 155.8579 L178.6430 161.0711 "/>
</g></g>
<g style="fill:#848484; fill-opacity:0.01;  stroke:#848484; stroke-width:0.4171; stroke-opacity:1;  stroke-linecap:round; stroke-linejoin:round;">
<text x="182.7391" y="168.6052" textLength="5.6104" font-size="3.4755" lengthAdjust="spacingAndGlyphs" text-anchor="middle" opacity="0.01" style="font-family:monospace">R1</text>
<g class="stroked-text"><desc>R1</desc>
<path d="M183.1735 168.4861 L184.0424 167.2448 "/>
<path d="M184.6630 168.4861 L184.6630 165.8795 "/>
<path d="M184.6630 165.8795 L183.6700 165.8795 "/>
<path d="M183.6700 165.8795 L183.4218 166.0036 "/>
<path d="M183.4218 166.0036 L183.2977 166.1277 "/>
<path d="M183.2977 166.1277 L183.1735 166.3760 "/>
<path d="M183.1735 166.3760 L183.1735 166.7483 "/>
<path d="M183.1735 166.7483 L183.2977 166.9966 "/>
<path d="M183.2977 166.9966 L183.4218 167.1207 "/>
<path d="M183.4218 167.1207 L183.6700 167.2448 "/>
<path d="M183.6700 167.2448 L184.6630 167.2448 "/>
<path d="M180.6910 168.4861 L182.1805 168.4861 "/>
<path d="M181.4358 168.4861 L181.4358 165.8795 "/>
<path d="M181.4358 165.8795 L181.6840 166.2518 "/>
<path d="M181.6840 166.2518 L181.9323 166.5001 "/>
<path d="M181.9323 166.5001 L182.1805 166.6242 "/>
</g></g>
<g style="fill:#848484; fill-opacity:0.01;  stroke:#848484; stroke-width:0.7820; stroke-opacity:1;  stroke-linecap:round; stroke-linejoin:round;">
<text x="197.9227" y="107.7666" textLength="24.9926" font-size="6.9510" lengthAdjust="spacingAndGlyphs" text-anchor="middle" opacity="0.01" style="font-family:monospace">100nF</text>
<g class="stroked-text"><desc>100nF</desc>
<path d="M205.9908 107.5311 L208.9698 107.5311 "/>
<path d="M207.4803 107.5311 L207.4803 102.3178 "/>
<path d="M207.4803 102.3178 L207.9768 103.0626 "/>
<path d="M207.9768 103.0626 L208.4733 103.5591 "/>
<path d="M208.4733 103.5591 L208.9698 103.8073 "/>
<path d="M202.7636 102.3178 L202.2671 102.3178 "/>
<path d="M202.2671 102.3178 L201.7706 102.5661 "/>
<path d="M201.7706 102.5661 L201.5223 102.8143 "/>
<path d="M201.5223 102.8143 L201.2741 103.3108 "/>
<path d="M201.2741 103.3108 L201.0258 104.3038 "/>
<path d="M201.0258 104.3038 L201.0258 105.5451 "/>
<path d="M201.0258 105.5451 L201.2741 106.5381 "/>
<path d="M201.2741 106.5381 L201.5223 107.0346 "/>
<path d="M201.5223 107.0346 L201.7706 107.2828 "/>
<path d="M201.7706 107.2828 L202.2671 107.5311 "/>
<path d="M202.2671 107.5311 L202.7636 107.5311 "/>
<path d="M202.7636 107.5311 L203.2600 107.2828 "/>
<path d="M203.2600 107.2828 L203.5083 107.0346 "/>
<path d="M203.5083 107.0346 L203.7565 106.5381 "/>
<path d="M203.7565 106.5381 L204.0048 105.5451 "/>
<path d="M204.0048 105.5451 L204.0048 104.3038 "/>
<path d="M204.0048 104.3038 L203.7565 103.3108 "/>
<path d="M203.7565 103.3108 L203.5083 102.8143 "/>
<path d="M203.5083 102.8143 L203.2600 102.5661 "/>
<path d="M203.2600 102.5661 L202.7636 102.3178 "/>
<path d="M197.7986 102.3178 L197.3021 102.3178 "/>
<path d="M197.3021 102.3178 L196.8056 102.5661 "/>
<path d="M196.8056 102.5661 L196.5573 102.8143 "/>
<path d="M196.5573 102.8143 L196.3091 103.3108 "/>
<path d="M196.3091 103.3108 L196.0608 104.3038 "/>
<path d="M196.0608 104.3038 L196.0608 105.5451 "/>
<path d="M196.0608 105.5451 L196.3091 106.5381 "/>
<path d="M196.3091 106.5381 L196.5573 107.0346 "/>
<path d="M196.5573 107.0346 L196.8056 107.2828 "/>
<path d="M196.8056 107.2828 L197.3021 107.5311 "/>
<path d="M197.3021 107.5311 L197.7986 107.5311 "/>
<path d="M197.7986 107.5311 L198.2951 107.2828 "/>
<path d="M198.2951 107.2828 L198.5433 107.0346 "/>
<path d="M198.5433 107.0346 L198.7916 106.5381 "/>
<path d="M198.7916 106.5381 L199.0398 105.5451 "/>
<path d="M199.0398 105.5451 L199.0398 104.3038 "/>
<path d="M199.0398 104.3038 L198.7916 103.3108 "/>
<path d="M198.7916 103.3108 L198.5433 102.8143 "/>
<path d="M198.5433 102.8143 L198.2951 102.5661 "/>
<path d="M198.2951 102.5661 L197.7986 102.3178 "/>
<path d="M193.8266 104.0556 L193.8266 107.5311 "/>
<path d="M193.8266 104.5521 L193.5783 104.3038 "/>
<path d="M193.5783 104.3038 L193.0818 104.0556 "/>
<path d="M193.0818 104.0556 L192.3371 104.0556 "/>
<path d="M192.3371 104.0556 L191.8406 104.3038 "/>
<path d="M191.8406 104.3038 L191.5923 104.8003 "/>
<path d="M191.5923 104.8003 L191.5923 107.5311 "/>
<path d="M187.3721 104.8003 L189.1098 104.8003 "/>
<path d="M189.1098 107.5311 L189.1098 102.3178 "/>
<path d="M189.1098 102.3178 L186.6273 102.3178 "/>
</g></g>
<g style="fill:#848484; fill-opacity:0.01;  stroke:#848484; stroke-width:0.4171; stroke-opacity:1;  stroke-linecap:round; stroke-linejoin:round;">
<text x="197.9227" y="97.7051" textLength="5.6104" font-size="3.4755" lengthAdjust="spacingAndGlyphs" text-anchor="middle" opacity="0.01" style="font-family:monospace">C2</text>
<g class="stroked-text"><desc>C2</desc>
<path d="M198.3571 97.3377 L198.4812 97.4618 "/>
<path d="M198.4812 97.4618 L198.8536 97.5859 "/>
<path d="M198.8536 97.5859 L199.1019 97.5859 "/>
<path d="M199.1019 97.5859 L199.4742 97.4618 "/>
<path d="M199.4742 97.4618 L199.7225 97.2136 "/>
<path d="M199.7225 97.2136 L199.8466 96.9653 "/>
<path d="M199.8466 96.9653 L199.9707 96.4688 "/>
<path d="M199.9707 96.4688 L199.9707 96.0964 "/>
<path d="M199.9707 96.0964 L199.8466 95.5999 "/>
<path d="M199.8466 95.5999 L199.7225 95.3517 "/>
<path d="M199.7225 95.3517 L199.4742 95.1034 "/>
<path d="M199.4742 95.1034 L199.1019 94.9793 "/>
<path d="M199.1019 94.9793 L198.8536 94.9793 "/>
<path d="M198.8536 94.9793 L198.4812 95.1034 "/>
<path d="M198.4812 95.1034 L198.3571 95.2276 "/>
<path d="M197.3641 95.2276 L197.2400 95.1034 "/>
<path d="M197.2400 95.1034 L196.9917 94.9793 "/>
<path d="M196.9917 94.9793 L196.3711 94.9793 "/>
<path d="M196.3711 94.9793 L196.1229 95.1034 "/>
<path d="M196.1229 95.1034 L195.9987 95.2276 "/>
<path d="M195.9987 95.2276 L195.8746 95.4758 "/>
<path d="M195.8746 95.4758 L195.8746 95.7241 "/>
<path d="M195.8746 95.7241 L195.9987 96.0964 "/>
<path d="M195.9987 96.0964 L197.4882 97.5859 "/>
<path d="M197.4882 97.5859 L195.8746 97.5859 "/>
</g></g>
<g style="fill:#848484; fill-opacity:0.0;  stroke:#848484; stroke-width:0.5213; stroke-opacity:1;  stroke-linecap:round; stroke-linejoin:round;">
<path d="M216.2733 128.0201 L205.8468 128.0201 "/>
<path d="M216.2733 134.5366 L216.2733 128.0201 "/>
<path d="M205.8468 128.0201 L205.8468 134.5366 "/>
<path d="M205.8468 134.5366 L216.2733 134.5366 "/>
<path d="M227.3775 167.1716 L227.3775 156.7451 "/>
<path d="M220.8610 167.1716 L227.3775 167.1716 "/>
<path d="M227.3775 156.7451 L220.8610 156.7451 "/>
<path d="M220.8610 156.7451 L220.8610 167.1716 "/>
<path d="M256.1807 113.8661 L271.8204 113.8661 "/>
<path d="M268.1664 105.2613 L259.8241 105.2613 "/>
<path d="M263.9953 105.2613 L263.9953 109.9621 "/>
<path d="M263.9953 105.2613 L268.1664 99.2629 "/>
<path d="M263.9953 105.2613 L260.0890 99.2629 "/>
<path d="M263.9953 99.2629 L263.9953 94.0589 "/>
<path d="M260.0890 99.2629 L268.1664 99.2629 "/>
<path d="M271.8204 89.8852 L271.8204 113.8661 "/>
<path d="M271.8204 89.8852 L256.1807 89.8852 "/>
<path d="M256.1807 89.8852 L256.1807 113.8661 "/>
</g>
<g style="fill:#848484; fill-opacity:0.0;  stroke:#848484; stroke-width:0.7820; stroke-opacity:1;  stroke-linecap:round; stroke-linejoin:round;">
<path d="M242.7847 50.1477 L242.7847 64.9784 "/>
<path d="M243.0496 64.9784 L268.8708 64.9784 "/>
<path d="M268.6060 50.1477 L242.7847 50.1477 "/>
<path d="M269.0032 64.9784 L269.0032 50.1477 "/>
</g>
<g style="fill:#848484; fill-opacity:0.0;  stroke:#848484; stroke-width:0.5213; stroke-opacity:1;  stroke-linecap:round; stroke-linejoin:round;">
<path d="M145.2689 98.8780 L155.6954 98.8780 "/>
<path d="M145.2689 92.3615 L145.2689 98.8780 "/>
<path d="M155.6954 98.8780 L155.6954 92.3615 "/>
<path d="M155.6954 92.3615 L145.2689 92.3615 "/>
<path d="M90.6601 157.7226 L90.6601 168.1491 "/>
<path d="M97.1767 157.7226 L90.6601 157.7226 "/>
<path d="M90.6601 168.1491 L97.1767 168.1491 "/>
<path d="M97.1767 168.1491 L97.1767 157.7226 "/>
<path d="M246.9924 74.3758 L257.4189 74.3758 "/>
<path d="M246.9924 67.8592 L246.9924 74.3758 "/>
<path d="M257.4189 74.3758 L257.4189 67.8592 "/>
<path d="M257.4189 67.8592 L246.9924 67.8592 "/>
<path d="M169.0543 164.0436 L158.6278 164.0436 "/>
<path d="M169.0543 170.5602 L169.0543 164.0436 "/>
<path d="M158.6278 164.0436 L158.6278 170.5602 "/>
<path d="M158.6278 170.5602 L169.0543 170.5602 "/>
<path d="M105.1269 157.7226 L105.1269 168.1491 "/>
<path d="M111.6434 157.7226 L105.1269 157.7226 "/>
<path d="M105.1269 168.1491 L111.6434 168.1491 "/>
<path d="M111.6434 168.1491 L111.6434 157.7226 "/>
<path d="M228.9415 140.1930 L228.9415 129.7665 "/>
<path d="M222.4249 140.1930 L228.9415 140.1930 "/>
<path d="M228.9415 129.7665 L222.4249 129.7665 "/>
<path d="M222.4249 129.7665 L222.4249 140.1930 "/>
<path d="M216.2733 140.0106 L205.8468 140.0106 "/>
<path d="M216.2733 146.5271 L216.2733 140.0106 "/>
<path d="M205.8468 140.0106 L205.8468 146.5271 "/>
<path d="M205.8468 146.5271 L216.2733 146.5271 "/>
<path d="M216.1690 167.1716 L216.1690 156.7451 "/>
<path d="M209.6525 167.1716 L216.1690 167.1716 "/>
<path d="M216.1690 156.7451 L209.6525 156.7451 "/>
<path d="M209.6525 156.7451 L209.6525 167.1716 "/>
<path d="M249.1428 106.8282 L249.1428 96.4017 "/>
<path d="M212.6501 106.8282 L212.6501 96.4017 "/>
<path d="M212.6501 106.8282 A18.5699 18.5699 0.0 0 0 249.1428 106.8282"/>
<path d="M249.1428 96.4017 A18.5699 18.5699 0.0 0 0 212.6501 96.4017"/>
<path d="M174.0460 92.2833 L163.6195 92.2833 "/>
<path d="M174.0460 98.7998 L174.0460 92.2833 "/>
<path d="M163.6195 92.2833 L163.6195 98.7998 "/>
<path d="M163.6195 98.7998 L174.0460 98.7998 "/>
<path d="M189.0993 112.5107 L183.8860 107.2974 "/>
<path d="M189.0993 147.9608 L189.0993 112.5107 "/>
<path d="M183.8860 107.2974 L166.1610 107.2974 "/>
<path d="M166.1610 107.2974 L166.1610 147.9608 "/>
<path d="M166.1610 147.9608 L189.0993 147.9608 "/>
<path d="M77.2360 157.7226 L77.2360 168.1491 "/>
<path d="M83.7526 157.7226 L77.2360 157.7226 "/>
<path d="M77.2360 168.1491 L83.7526 168.1491 "/>
<path d="M83.7526 168.1491 L83.7526 157.7226 "/>
<path d="M177.5258 170.5602 L187.9523 170.5602 "/>
<path d="M177.5258 164.0436 L177.5258 170.5602 "/>
<path d="M187.9523 170.5602 L187.9523 164.0436 "/>
<path d="M187.9523 164.0436 L177.5258 164.0436 "/>
<path d="M203.1359 93.1435 L192.7094 93.1435 "/>
<path d="M203.1359 99.6600 L203.1359 93.1435 "/>
<path d="M192.7094 93.1435 L192.7094 99.6600 "/>
<path d="M192.7094 99.6600 L203.1359 99.6600 "/>
<g>
</g>
<g>
</g>
<g>
</g>
<g>
</g>
<g>
</g>
<g>
</g>
<g>
</g>
<g>
</g>
<g>
</g>
<g>
</g>
<g>
</g>
<g>
</g>
<g>
</g>
<g>
</g>
<g>
</g>
<g>
</g>
<g>
</g>
<g>
</g>
<g>
</g>
<g>
</g>
<g>
</g>
<g>
</g>
<g>
</g>
<g>
</g>
<g>
</g>
<g>
</g>
<g>
</g>
<g>
</g>
<g>
</g>
<g>
</g>
<g>
</g>
<g>
</g>
<g>
</g>
</g> 
<svg:g><svg:g><svg:title>SVG Image created as DRV10987V01-Edge_Cuts.svg date 2023/06/30 12:25:24 </svg:title>
  <svg:desc>Image generated by PCBNEW </svg:desc>
<svg:g style="fill:#C2C200; fill-opacity:1.0000;stroke:#C2C200; stroke-opacity:1.0000; stroke-linecap:round; stroke-linejoin:round;" transform="translate(0 0) scale(1 1)">
</svg:g>
<svg:g style="fill:#C2C200; fill-opacity:0.0;  stroke:#C2C200; stroke-width:0.0000; stroke-opacity:1;  stroke-linecap:round; stroke-linejoin:round;">
</svg:g>
<svg:g style="fill:#C2C200; fill-opacity:0.0;  stroke:#C2C200; stroke-width:0.7820; stroke-opacity:1;  stroke-linecap:round; stroke-linejoin:round;">
<svg:path style="fill:#C2C200; fill-opacity:0.0;  stroke:#C2C200; stroke-width:0.7820; stroke-opacity:1;  stroke-linecap:round; stroke-linejoin:round;fill:none" d="M 279.5934,0.3946 17.4088,0.3946 17.4088,209.6126 279.5934,209.6126 Z"/> 
</svg:g>
<svg:g style="fill:#C2C200; fill-opacity:0.0;  stroke:#C2C200; stroke-width:0.2607; stroke-opacity:1;  stroke-linecap:round; stroke-linejoin:round;">
<svg:path d="M250.1594 53.9138 L250.1594 61.2123 "/>
<svg:path d="M252.7660 63.8190 L259.0219 63.8190 "/>
<svg:path d="M252.7660 51.3072 L259.0219 51.3072 "/>
<svg:path d="M261.6285 53.9138 L261.6285 61.2123 "/>
<svg:path d="M250.1594 61.2123 A2.6066 2.6066 0.0 0 0 252.7660 63.8190"/>
<svg:path d="M252.7660 51.3072 A2.6066 2.6066 0.0 0 0 250.1594 53.9138"/>
<svg:path d="M259.0219 63.8190 A2.6066 2.6066 0.0 0 0 261.6285 61.2123"/>
<svg:path d="M261.6285 53.9138 A2.6066 2.6066 0.0 0 0 259.0219 51.3072"/>
<svg:g>
</svg:g>
<svg:g>
</svg:g>
<svg:g>
</svg:g>
<svg:g>
</svg:g>
<svg:g>
</svg:g>
<svg:g>
</svg:g>
<svg:g>
</svg:g>
<svg:g>
</svg:g>
<svg:g>
</svg:g>
<svg:g>
</svg:g>
<svg:g>
</svg:g>
<svg:g>
</svg:g>
<svg:g>
</svg:g>
<svg:g>
</svg:g>
<svg:g>
</svg:g>
<svg:g>
</svg:g>
<svg:g>
</svg:g>
<svg:g>
</svg:g>
<svg:g>
</svg:g>
<svg:g>
</svg:g>
<svg:g>
</svg:g>
<svg:g>
</svg:g>
<svg:g>
</svg:g>
<svg:g>
</svg:g>
<svg:g>
</svg:g>
<svg:g>
</svg:g>
<svg:g>
</svg:g>
<svg:g>
</svg:g>
<svg:g>
</svg:g>
<svg:g>
</svg:g>
<svg:g>
</svg:g>
<svg:g>
</svg:g>
<svg:g>
</svg:g>
</svg:g> 
</svg:g></svg:g></svg>
