%TF.GenerationSoftware,KiCad,Pcbnew,7.0.5.1-1-g8f565ef7f0-dirty-deb11*%
%TF.CreationDate,2023-06-30T12:24:42+00:00*%
%TF.ProjectId,DRV10987V01,44525631-3039-4383-9756-30312e6b6963,01A*%
%TF.SameCoordinates,Original*%
%TF.FileFunction,Soldermask,Top*%
%TF.FilePolarity,Negative*%
%FSLAX46Y46*%
G04 Gerber Fmt 4.6, Leading zero omitted, Abs format (unit mm)*
G04 Created by KiCad (PCBNEW 7.0.5.1-1-g8f565ef7f0-dirty-deb11) date 2023-06-30 12:24:42*
%MOMM*%
%LPD*%
G01*
G04 APERTURE LIST*
G04 Aperture macros list*
%AMRoundRect*
0 Rectangle with rounded corners*
0 $1 Rounding radius*
0 $2 $3 $4 $5 $6 $7 $8 $9 X,Y pos of 4 corners*
0 Add a 4 corners polygon primitive as box body*
4,1,4,$2,$3,$4,$5,$6,$7,$8,$9,$2,$3,0*
0 Add four circle primitives for the rounded corners*
1,1,$1+$1,$2,$3*
1,1,$1+$1,$4,$5*
1,1,$1+$1,$6,$7*
1,1,$1+$1,$8,$9*
0 Add four rect primitives between the rounded corners*
20,1,$1+$1,$2,$3,$4,$5,0*
20,1,$1+$1,$4,$5,$6,$7,0*
20,1,$1+$1,$6,$7,$8,$9,0*
20,1,$1+$1,$8,$9,$2,$3,0*%
G04 Aperture macros list end*
%ADD10RoundRect,0.250000X-0.250000X-0.475000X0.250000X-0.475000X0.250000X0.475000X-0.250000X0.475000X0*%
%ADD11RoundRect,0.250000X0.475000X-0.250000X0.475000X0.250000X-0.475000X0.250000X-0.475000X-0.250000X0*%
%ADD12R,1.800000X2.500000*%
%ADD13R,1.500000X1.500000*%
%ADD14RoundRect,0.250000X0.250000X0.475000X-0.250000X0.475000X-0.250000X-0.475000X0.250000X-0.475000X0*%
%ADD15RoundRect,0.250000X-0.450000X0.262500X-0.450000X-0.262500X0.450000X-0.262500X0.450000X0.262500X0*%
%ADD16RoundRect,0.250000X0.262500X0.450000X-0.262500X0.450000X-0.262500X-0.450000X0.262500X-0.450000X0*%
%ADD17RoundRect,0.250000X-0.262500X-0.450000X0.262500X-0.450000X0.262500X0.450000X-0.262500X0.450000X0*%
%ADD18R,7.500000X3.000000*%
%ADD19RoundRect,0.100000X-0.637500X-0.100000X0.637500X-0.100000X0.637500X0.100000X-0.637500X0.100000X0*%
%ADD20RoundRect,0.100000X-1.500000X-2.530000X1.500000X-2.530000X1.500000X2.530000X-1.500000X2.530000X0*%
%ADD21C,6.000000*%
%ADD22R,1.500000X3.000000*%
%ADD23O,1.500000X3.000000*%
%ADD24R,1.524000X1.524000*%
%ADD25R,3.000000X1.500000*%
%ADD26O,3.000000X1.500000*%
G04 APERTURE END LIST*
D10*
%TO.C,C5*%
X17530000Y20360000D03*
X19430000Y20360000D03*
%TD*%
D11*
%TO.C,C7*%
X15975000Y13525000D03*
X15975000Y15425000D03*
%TD*%
D12*
%TO.C,D1*%
X8325000Y24000000D03*
X8325000Y28000000D03*
%TD*%
D13*
%TO.C,D2*%
X8000000Y34500000D03*
X11760000Y34500000D03*
%TD*%
D14*
%TO.C,C6*%
X31050000Y27200000D03*
X29150000Y27200000D03*
%TD*%
D15*
%TO.C,R5*%
X40950000Y15200000D03*
X40950000Y13375000D03*
%TD*%
D16*
%TO.C,R6*%
X11500000Y31900000D03*
X9675000Y31900000D03*
%TD*%
D17*
%TO.C,R2*%
X26625000Y13450000D03*
X28450000Y13450000D03*
%TD*%
D15*
%TO.C,R3*%
X38175000Y15200000D03*
X38175000Y13375000D03*
%TD*%
D11*
%TO.C,C1*%
X15675000Y18700000D03*
X15675000Y20600000D03*
%TD*%
D10*
%TO.C,C4*%
X17530000Y18060000D03*
X19430000Y18060000D03*
%TD*%
D11*
%TO.C,C8*%
X18125000Y13525000D03*
X18125000Y15425000D03*
%TD*%
D18*
%TO.C,L1*%
X14675000Y23550000D03*
X14675000Y28550000D03*
%TD*%
D10*
%TO.C,C3*%
X25630000Y27215000D03*
X27530000Y27215000D03*
%TD*%
D19*
%TO.C,IC1*%
X22030000Y24635000D03*
X22030000Y23985000D03*
X22030000Y23335000D03*
X22030000Y22685000D03*
X22030000Y22035000D03*
X22030000Y21385000D03*
X22030000Y20735000D03*
X22030000Y20085000D03*
X22030000Y19435000D03*
X22030000Y18785000D03*
X22030000Y18135000D03*
X22030000Y17485000D03*
X27755000Y17485000D03*
X27755000Y18135000D03*
X27755000Y18785000D03*
X27755000Y19435000D03*
X27755000Y20085000D03*
X27755000Y20735000D03*
X27755000Y21385000D03*
X27755000Y22035000D03*
X27755000Y22685000D03*
X27755000Y23335000D03*
X27755000Y23985000D03*
X27755000Y24635000D03*
D20*
X24892500Y21060000D03*
%TD*%
D15*
%TO.C,R4*%
X43525000Y15200000D03*
X43525000Y13375000D03*
%TD*%
D16*
%TO.C,R1*%
X24825000Y13450000D03*
X23000000Y13450000D03*
%TD*%
D10*
%TO.C,C2*%
X20050000Y27050000D03*
X21950000Y27050000D03*
%TD*%
D21*
%TO.C,M2*%
X50800000Y40640000D03*
%TD*%
D22*
%TO.C,J11*%
X21550000Y35350000D03*
D23*
X26550000Y35350000D03*
%TD*%
D24*
%TO.C,J4*%
X16275000Y8535000D03*
X16275000Y11075000D03*
%TD*%
D21*
%TO.C,M4*%
X50800000Y10160000D03*
%TD*%
D24*
%TO.C,J10*%
X13225000Y16700000D03*
X13225000Y19240000D03*
X10685000Y16700000D03*
X10685000Y19240000D03*
X8145000Y16700000D03*
X8145000Y19240000D03*
%TD*%
D21*
%TO.C,M3*%
X10160000Y10160000D03*
%TD*%
D24*
%TO.C,J2*%
X30800000Y8536250D03*
X30800000Y11076250D03*
X28260000Y8536250D03*
X28260000Y11076250D03*
X25720000Y8536250D03*
X25720000Y11076250D03*
X23180000Y8536250D03*
X23180000Y11076250D03*
X20640000Y8536250D03*
X20640000Y11076250D03*
%TD*%
D21*
%TO.C,M1*%
X10160000Y40640000D03*
%TD*%
D24*
%TO.C,J5*%
X43480000Y8525000D03*
X43480000Y11065000D03*
X40940000Y8525000D03*
X40940000Y11065000D03*
X38400000Y8525000D03*
X38400000Y11065000D03*
%TD*%
D25*
%TO.C,J12*%
X45775000Y30550000D03*
D26*
X45775000Y25550000D03*
X45775000Y20550000D03*
%TD*%
D24*
%TO.C,J6*%
X31235000Y19500000D03*
X33775000Y19500000D03*
X31235000Y22040000D03*
X33775000Y22040000D03*
X31235000Y24580000D03*
X33775000Y24580000D03*
%TD*%
%TO.C,J3*%
X38000000Y43180000D03*
X35460000Y43180000D03*
X38000000Y40640000D03*
X35460000Y40640000D03*
X38000000Y38100000D03*
X35460000Y38100000D03*
X38000000Y35560000D03*
X35460000Y35560000D03*
%TD*%
M02*
