%TF.GenerationSoftware,KiCad,Pcbnew,7.0.5.1-1-g8f565ef7f0-dirty-deb11*%
%TF.CreationDate,2023-07-21T00:54:26+00:00*%
%TF.ProjectId,DRV10987V01,44525631-3039-4383-9756-30312e6b6963,01A*%
%TF.SameCoordinates,Original*%
%TF.FileFunction,Soldermask,Bot*%
%TF.FilePolarity,Negative*%
%FSLAX46Y46*%
G04 Gerber Fmt 4.6, Leading zero omitted, Abs format (unit mm)*
G04 Created by KiCad (PCBNEW 7.0.5.1-1-g8f565ef7f0-dirty-deb11) date 2023-07-21 00:54:26*
%MOMM*%
%LPD*%
G01*
G04 APERTURE LIST*
G04 Aperture macros list*
%AMRoundRect*
0 Rectangle with rounded corners*
0 $1 Rounding radius*
0 $2 $3 $4 $5 $6 $7 $8 $9 X,Y pos of 4 corners*
0 Add a 4 corners polygon primitive as box body*
4,1,4,$2,$3,$4,$5,$6,$7,$8,$9,$2,$3,0*
0 Add four circle primitives for the rounded corners*
1,1,$1+$1,$2,$3*
1,1,$1+$1,$4,$5*
1,1,$1+$1,$6,$7*
1,1,$1+$1,$8,$9*
0 Add four rect primitives between the rounded corners*
20,1,$1+$1,$2,$3,$4,$5,0*
20,1,$1+$1,$4,$5,$6,$7,0*
20,1,$1+$1,$6,$7,$8,$9,0*
20,1,$1+$1,$8,$9,$2,$3,0*%
G04 Aperture macros list end*
%ADD10C,6.400000*%
%ADD11RoundRect,0.200000X0.750000X1.500000X-0.750000X1.500000X-0.750000X-1.500000X0.750000X-1.500000X0*%
%ADD12O,1.900000X3.400000*%
%ADD13RoundRect,0.200000X0.762000X-0.762000X0.762000X0.762000X-0.762000X0.762000X-0.762000X-0.762000X0*%
%ADD14RoundRect,0.200000X-1.500000X0.750000X-1.500000X-0.750000X1.500000X-0.750000X1.500000X0.750000X0*%
%ADD15O,3.400000X1.900000*%
%ADD16RoundRect,0.200000X0.762000X0.762000X-0.762000X0.762000X-0.762000X-0.762000X0.762000X-0.762000X0*%
%ADD17RoundRect,0.200000X-0.762000X-0.762000X0.762000X-0.762000X0.762000X0.762000X-0.762000X0.762000X0*%
%ADD18RoundRect,0.450000X0.250000X0.475000X-0.250000X0.475000X-0.250000X-0.475000X0.250000X-0.475000X0*%
%ADD19RoundRect,0.450000X-0.262500X-0.450000X0.262500X-0.450000X0.262500X0.450000X-0.262500X0.450000X0*%
%ADD20RoundRect,0.450000X-0.250000X-0.475000X0.250000X-0.475000X0.250000X0.475000X-0.250000X0.475000X0*%
%ADD21RoundRect,0.450000X0.400000X0.600000X-0.400000X0.600000X-0.400000X-0.600000X0.400000X-0.600000X0*%
%ADD22RoundRect,0.200000X0.750000X0.750000X-0.750000X0.750000X-0.750000X-0.750000X0.750000X-0.750000X0*%
%ADD23RoundRect,0.200000X-0.750000X-0.750000X0.750000X-0.750000X0.750000X0.750000X-0.750000X0.750000X0*%
%ADD24RoundRect,0.450000X-0.450000X0.262500X-0.450000X-0.262500X0.450000X-0.262500X0.450000X0.262500X0*%
%ADD25RoundRect,0.450000X0.262500X0.450000X-0.262500X0.450000X-0.262500X-0.450000X0.262500X-0.450000X0*%
%ADD26RoundRect,0.450000X0.475000X-0.250000X0.475000X0.250000X-0.475000X0.250000X-0.475000X-0.250000X0*%
%ADD27RoundRect,0.200000X3.750000X-1.500000X3.750000X1.500000X-3.750000X1.500000X-3.750000X-1.500000X0*%
%ADD28RoundRect,0.300000X0.637500X0.100000X-0.637500X0.100000X-0.637500X-0.100000X0.637500X-0.100000X0*%
%ADD29C,0.700000*%
%ADD30RoundRect,0.300000X1.500000X2.530000X-1.500000X2.530000X-1.500000X-2.530000X1.500000X-2.530000X0*%
G04 APERTURE END LIST*
D10*
%TO.C,M2*%
X7400000Y40640000D03*
%TD*%
D11*
%TO.C,J11*%
X36650000Y35350000D03*
D12*
X31650000Y35350000D03*
%TD*%
D10*
%TO.C,M4*%
X7400000Y10160000D03*
%TD*%
D13*
%TO.C,J10*%
X44975000Y16700000D03*
X44975000Y19240000D03*
X47515000Y16700000D03*
X47515000Y19240000D03*
X50055000Y16700000D03*
X50055000Y19240000D03*
%TD*%
D10*
%TO.C,M3*%
X48040000Y10160000D03*
%TD*%
D13*
%TO.C,J2*%
X27400000Y8536250D03*
X27400000Y11076250D03*
X29940000Y8536250D03*
X29940000Y11076250D03*
X32480000Y8536250D03*
X32480000Y11076250D03*
X35020000Y8536250D03*
X35020000Y11076250D03*
X37560000Y8536250D03*
X37560000Y11076250D03*
%TD*%
D10*
%TO.C,M1*%
X48040000Y40640000D03*
%TD*%
D13*
%TO.C,J5*%
X14720000Y8525000D03*
X14720000Y11065000D03*
X17260000Y8525000D03*
X17260000Y11065000D03*
X19800000Y8525000D03*
X19800000Y11065000D03*
%TD*%
D14*
%TO.C,J12*%
X12425000Y30550000D03*
D15*
X12425000Y25550000D03*
X12425000Y20550000D03*
%TD*%
D16*
%TO.C,J6*%
X26965000Y19500000D03*
X24425000Y19500000D03*
X26965000Y22040000D03*
X24425000Y22040000D03*
X26965000Y24580000D03*
X24425000Y24580000D03*
%TD*%
D17*
%TO.C,J3*%
X20200000Y43180000D03*
X22740000Y43180000D03*
X20200000Y40640000D03*
X22740000Y40640000D03*
X20200000Y38100000D03*
X22740000Y38100000D03*
X20200000Y35560000D03*
X22740000Y35560000D03*
%TD*%
D18*
%TO.C,C5*%
X40670000Y20360000D03*
X38770000Y20360000D03*
%TD*%
D19*
%TO.C,R7*%
X35675000Y15400000D03*
X37500000Y15400000D03*
%TD*%
D20*
%TO.C,C7*%
X48783200Y21844000D03*
X50683200Y21844000D03*
%TD*%
D21*
%TO.C,D1*%
X43406000Y13970000D03*
X39906000Y13970000D03*
%TD*%
D22*
%TO.C,D2*%
X49920000Y34500000D03*
D23*
X46160000Y34500000D03*
%TD*%
D20*
%TO.C,C6*%
X27040800Y27200000D03*
X28940800Y27200000D03*
%TD*%
D24*
%TO.C,R5*%
X17250000Y15200000D03*
X17250000Y13375000D03*
%TD*%
D19*
%TO.C,R6*%
X46700000Y31900000D03*
X48525000Y31900000D03*
%TD*%
D25*
%TO.C,R2*%
X31575000Y13450000D03*
X29750000Y13450000D03*
%TD*%
D24*
%TO.C,R3*%
X20025000Y15200000D03*
X20025000Y13375000D03*
%TD*%
D26*
%TO.C,C1*%
X42525000Y18700000D03*
X42525000Y20600000D03*
%TD*%
D18*
%TO.C,C4*%
X40670000Y18060000D03*
X38770000Y18060000D03*
%TD*%
D20*
%TO.C,C8*%
X48783200Y24638000D03*
X50683200Y24638000D03*
%TD*%
D27*
%TO.C,L1*%
X43525000Y23550000D03*
X43525000Y28550000D03*
%TD*%
D18*
%TO.C,C3*%
X32570000Y27215000D03*
X30670000Y27215000D03*
%TD*%
D28*
%TO.C,IC1*%
X36170000Y24635000D03*
X36170000Y23985000D03*
X36170000Y23335000D03*
X36170000Y22685000D03*
X36170000Y22035000D03*
X36170000Y21385000D03*
X36170000Y20735000D03*
X36170000Y20085000D03*
X36170000Y19435000D03*
X36170000Y18785000D03*
X36170000Y18135000D03*
X36170000Y17485000D03*
X30445000Y17485000D03*
X30445000Y18135000D03*
X30445000Y18785000D03*
X30445000Y19435000D03*
X30445000Y20085000D03*
X30445000Y20735000D03*
X30445000Y21385000D03*
X30445000Y22035000D03*
X30445000Y22685000D03*
X30445000Y23335000D03*
X30445000Y23985000D03*
X30445000Y24635000D03*
D29*
X34507500Y18660000D03*
X34507500Y19860000D03*
X34507500Y21060000D03*
X34507500Y22260000D03*
X34507500Y23460000D03*
X33307500Y18660000D03*
X33307500Y19860000D03*
X33307500Y21060000D03*
D30*
X33307500Y21060000D03*
D29*
X33307500Y22260000D03*
X32107500Y18660000D03*
X32107500Y19860000D03*
X32107500Y21060000D03*
X32107500Y22260000D03*
X32107500Y23460000D03*
%TD*%
D24*
%TO.C,R4*%
X14675000Y15200000D03*
X14675000Y13375000D03*
%TD*%
D19*
%TO.C,R1*%
X33375000Y13450000D03*
X35200000Y13450000D03*
%TD*%
D18*
%TO.C,C2*%
X38150000Y27050000D03*
X36250000Y27050000D03*
%TD*%
M02*
