%TF.GenerationSoftware,KiCad,Pcbnew,7.0.5.1-1-g8f565ef7f0-dirty-deb11*%
%TF.CreationDate,2023-06-30T16:12:35+00:00*%
%TF.ProjectId,DRV10987V01,44525631-3039-4383-9756-30312e6b6963,01A*%
%TF.SameCoordinates,Original*%
%TF.FileFunction,Legend,Bot*%
%TF.FilePolarity,Positive*%
%FSLAX46Y46*%
G04 Gerber Fmt 4.6, Leading zero omitted, Abs format (unit mm)*
G04 Created by KiCad (PCBNEW 7.0.5.1-1-g8f565ef7f0-dirty-deb11) date 2023-06-30 16:12:35*
%MOMM*%
%LPD*%
G01*
G04 APERTURE LIST*
%ADD10C,0.150000*%
%ADD11C,0.127000*%
%ADD12C,0.200000*%
%ADD13C,0.300000*%
%ADD14C,0.110000*%
%ADD15C,0.120000*%
%ADD16R,1.524000X1.524000*%
G04 APERTURE END LIST*
D10*
X39625000Y41725000D02*
X39625000Y37000000D01*
D11*
X32156924Y6806366D02*
X32233114Y6853985D01*
X32233114Y6853985D02*
X32347400Y6853985D01*
X32347400Y6853985D02*
X32461686Y6806366D01*
X32461686Y6806366D02*
X32537876Y6711128D01*
X32537876Y6711128D02*
X32575971Y6615890D01*
X32575971Y6615890D02*
X32614067Y6425414D01*
X32614067Y6425414D02*
X32614067Y6282557D01*
X32614067Y6282557D02*
X32575971Y6092081D01*
X32575971Y6092081D02*
X32537876Y5996843D01*
X32537876Y5996843D02*
X32461686Y5901604D01*
X32461686Y5901604D02*
X32347400Y5853985D01*
X32347400Y5853985D02*
X32271209Y5853985D01*
X32271209Y5853985D02*
X32156924Y5901604D01*
X32156924Y5901604D02*
X32118828Y5949224D01*
X32118828Y5949224D02*
X32118828Y6282557D01*
X32118828Y6282557D02*
X32271209Y6282557D01*
X31775971Y5853985D02*
X31775971Y6853985D01*
X31775971Y6853985D02*
X31318828Y5853985D01*
X31318828Y5853985D02*
X31318828Y6853985D01*
X30937876Y5853985D02*
X30937876Y6853985D01*
X30937876Y6853985D02*
X30747400Y6853985D01*
X30747400Y6853985D02*
X30633114Y6806366D01*
X30633114Y6806366D02*
X30556924Y6711128D01*
X30556924Y6711128D02*
X30518829Y6615890D01*
X30518829Y6615890D02*
X30480733Y6425414D01*
X30480733Y6425414D02*
X30480733Y6282557D01*
X30480733Y6282557D02*
X30518829Y6092081D01*
X30518829Y6092081D02*
X30556924Y5996843D01*
X30556924Y5996843D02*
X30633114Y5901604D01*
X30633114Y5901604D02*
X30747400Y5853985D01*
X30747400Y5853985D02*
X30937876Y5853985D01*
X29566448Y5901604D02*
X29452162Y5853985D01*
X29452162Y5853985D02*
X29261686Y5853985D01*
X29261686Y5853985D02*
X29185495Y5901604D01*
X29185495Y5901604D02*
X29147400Y5949224D01*
X29147400Y5949224D02*
X29109305Y6044462D01*
X29109305Y6044462D02*
X29109305Y6139700D01*
X29109305Y6139700D02*
X29147400Y6234938D01*
X29147400Y6234938D02*
X29185495Y6282557D01*
X29185495Y6282557D02*
X29261686Y6330176D01*
X29261686Y6330176D02*
X29414067Y6377795D01*
X29414067Y6377795D02*
X29490257Y6425414D01*
X29490257Y6425414D02*
X29528352Y6473033D01*
X29528352Y6473033D02*
X29566448Y6568271D01*
X29566448Y6568271D02*
X29566448Y6663509D01*
X29566448Y6663509D02*
X29528352Y6758747D01*
X29528352Y6758747D02*
X29490257Y6806366D01*
X29490257Y6806366D02*
X29414067Y6853985D01*
X29414067Y6853985D02*
X29223590Y6853985D01*
X29223590Y6853985D02*
X29109305Y6806366D01*
X28766447Y5853985D02*
X28766447Y6853985D01*
X28766447Y6853985D02*
X28575971Y6853985D01*
X28575971Y6853985D02*
X28461685Y6806366D01*
X28461685Y6806366D02*
X28385495Y6711128D01*
X28385495Y6711128D02*
X28347400Y6615890D01*
X28347400Y6615890D02*
X28309304Y6425414D01*
X28309304Y6425414D02*
X28309304Y6282557D01*
X28309304Y6282557D02*
X28347400Y6092081D01*
X28347400Y6092081D02*
X28385495Y5996843D01*
X28385495Y5996843D02*
X28461685Y5901604D01*
X28461685Y5901604D02*
X28575971Y5853985D01*
X28575971Y5853985D02*
X28766447Y5853985D01*
X28004543Y6139700D02*
X27623590Y6139700D01*
X28080733Y5853985D02*
X27814066Y6853985D01*
X27814066Y6853985D02*
X27547400Y5853985D01*
X26785495Y6853985D02*
X26518828Y5853985D01*
X26518828Y5853985D02*
X26252162Y6853985D01*
X25528352Y5949224D02*
X25566448Y5901604D01*
X25566448Y5901604D02*
X25680733Y5853985D01*
X25680733Y5853985D02*
X25756924Y5853985D01*
X25756924Y5853985D02*
X25871210Y5901604D01*
X25871210Y5901604D02*
X25947400Y5996843D01*
X25947400Y5996843D02*
X25985495Y6092081D01*
X25985495Y6092081D02*
X26023591Y6282557D01*
X26023591Y6282557D02*
X26023591Y6425414D01*
X26023591Y6425414D02*
X25985495Y6615890D01*
X25985495Y6615890D02*
X25947400Y6711128D01*
X25947400Y6711128D02*
X25871210Y6806366D01*
X25871210Y6806366D02*
X25756924Y6853985D01*
X25756924Y6853985D02*
X25680733Y6853985D01*
X25680733Y6853985D02*
X25566448Y6806366D01*
X25566448Y6806366D02*
X25528352Y6758747D01*
X24728352Y5949224D02*
X24766448Y5901604D01*
X24766448Y5901604D02*
X24880733Y5853985D01*
X24880733Y5853985D02*
X24956924Y5853985D01*
X24956924Y5853985D02*
X25071210Y5901604D01*
X25071210Y5901604D02*
X25147400Y5996843D01*
X25147400Y5996843D02*
X25185495Y6092081D01*
X25185495Y6092081D02*
X25223591Y6282557D01*
X25223591Y6282557D02*
X25223591Y6425414D01*
X25223591Y6425414D02*
X25185495Y6615890D01*
X25185495Y6615890D02*
X25147400Y6711128D01*
X25147400Y6711128D02*
X25071210Y6806366D01*
X25071210Y6806366D02*
X24956924Y6853985D01*
X24956924Y6853985D02*
X24880733Y6853985D01*
X24880733Y6853985D02*
X24766448Y6806366D01*
X24766448Y6806366D02*
X24728352Y6758747D01*
X23814067Y5901604D02*
X23699781Y5853985D01*
X23699781Y5853985D02*
X23509305Y5853985D01*
X23509305Y5853985D02*
X23433114Y5901604D01*
X23433114Y5901604D02*
X23395019Y5949224D01*
X23395019Y5949224D02*
X23356924Y6044462D01*
X23356924Y6044462D02*
X23356924Y6139700D01*
X23356924Y6139700D02*
X23395019Y6234938D01*
X23395019Y6234938D02*
X23433114Y6282557D01*
X23433114Y6282557D02*
X23509305Y6330176D01*
X23509305Y6330176D02*
X23661686Y6377795D01*
X23661686Y6377795D02*
X23737876Y6425414D01*
X23737876Y6425414D02*
X23775971Y6473033D01*
X23775971Y6473033D02*
X23814067Y6568271D01*
X23814067Y6568271D02*
X23814067Y6663509D01*
X23814067Y6663509D02*
X23775971Y6758747D01*
X23775971Y6758747D02*
X23737876Y6806366D01*
X23737876Y6806366D02*
X23661686Y6853985D01*
X23661686Y6853985D02*
X23471209Y6853985D01*
X23471209Y6853985D02*
X23356924Y6806366D01*
X22556923Y5949224D02*
X22595019Y5901604D01*
X22595019Y5901604D02*
X22709304Y5853985D01*
X22709304Y5853985D02*
X22785495Y5853985D01*
X22785495Y5853985D02*
X22899781Y5901604D01*
X22899781Y5901604D02*
X22975971Y5996843D01*
X22975971Y5996843D02*
X23014066Y6092081D01*
X23014066Y6092081D02*
X23052162Y6282557D01*
X23052162Y6282557D02*
X23052162Y6425414D01*
X23052162Y6425414D02*
X23014066Y6615890D01*
X23014066Y6615890D02*
X22975971Y6711128D01*
X22975971Y6711128D02*
X22899781Y6806366D01*
X22899781Y6806366D02*
X22785495Y6853985D01*
X22785495Y6853985D02*
X22709304Y6853985D01*
X22709304Y6853985D02*
X22595019Y6806366D01*
X22595019Y6806366D02*
X22556923Y6758747D01*
X21833114Y5853985D02*
X22214066Y5853985D01*
X22214066Y5853985D02*
X22214066Y6853985D01*
X20537876Y6806366D02*
X20614066Y6853985D01*
X20614066Y6853985D02*
X20728352Y6853985D01*
X20728352Y6853985D02*
X20842638Y6806366D01*
X20842638Y6806366D02*
X20918828Y6711128D01*
X20918828Y6711128D02*
X20956923Y6615890D01*
X20956923Y6615890D02*
X20995019Y6425414D01*
X20995019Y6425414D02*
X20995019Y6282557D01*
X20995019Y6282557D02*
X20956923Y6092081D01*
X20956923Y6092081D02*
X20918828Y5996843D01*
X20918828Y5996843D02*
X20842638Y5901604D01*
X20842638Y5901604D02*
X20728352Y5853985D01*
X20728352Y5853985D02*
X20652161Y5853985D01*
X20652161Y5853985D02*
X20537876Y5901604D01*
X20537876Y5901604D02*
X20499780Y5949224D01*
X20499780Y5949224D02*
X20499780Y6282557D01*
X20499780Y6282557D02*
X20652161Y6282557D01*
X20156923Y5853985D02*
X20156923Y6853985D01*
X20156923Y6853985D02*
X19699780Y5853985D01*
X19699780Y5853985D02*
X19699780Y6853985D01*
X19318828Y5853985D02*
X19318828Y6853985D01*
X19318828Y6853985D02*
X19128352Y6853985D01*
X19128352Y6853985D02*
X19014066Y6806366D01*
X19014066Y6806366D02*
X18937876Y6711128D01*
X18937876Y6711128D02*
X18899781Y6615890D01*
X18899781Y6615890D02*
X18861685Y6425414D01*
X18861685Y6425414D02*
X18861685Y6282557D01*
X18861685Y6282557D02*
X18899781Y6092081D01*
X18899781Y6092081D02*
X18937876Y5996843D01*
X18937876Y5996843D02*
X19014066Y5901604D01*
X19014066Y5901604D02*
X19128352Y5853985D01*
X19128352Y5853985D02*
X19318828Y5853985D01*
X29715175Y25009306D02*
X28500889Y25009306D01*
X28500889Y25009306D02*
X28358032Y24937877D01*
X28358032Y24937877D02*
X28286604Y24866448D01*
X28286604Y24866448D02*
X28215175Y24723591D01*
X28215175Y24723591D02*
X28215175Y24437877D01*
X28215175Y24437877D02*
X28286604Y24295020D01*
X28286604Y24295020D02*
X28358032Y24223591D01*
X28358032Y24223591D02*
X28500889Y24152163D01*
X28500889Y24152163D02*
X29715175Y24152163D01*
X29715175Y22509305D02*
X28215175Y22009305D01*
X28215175Y22009305D02*
X29715175Y21509305D01*
X29715175Y20009306D02*
X28215175Y19652163D01*
X28215175Y19652163D02*
X29286604Y19366449D01*
X29286604Y19366449D02*
X28215175Y19080734D01*
X28215175Y19080734D02*
X29715175Y18723591D01*
X36300889Y20040000D02*
X36229461Y20254286D01*
X36229461Y20254286D02*
X36158032Y20325715D01*
X36158032Y20325715D02*
X36015175Y20397143D01*
X36015175Y20397143D02*
X35800889Y20397143D01*
X35800889Y20397143D02*
X35658032Y20325715D01*
X35658032Y20325715D02*
X35586604Y20254286D01*
X35586604Y20254286D02*
X35515175Y20111429D01*
X35515175Y20111429D02*
X35515175Y19540000D01*
X35515175Y19540000D02*
X37015175Y19540000D01*
X37015175Y19540000D02*
X37015175Y20040000D01*
X37015175Y20040000D02*
X36943746Y20182857D01*
X36943746Y20182857D02*
X36872318Y20254286D01*
X36872318Y20254286D02*
X36729461Y20325715D01*
X36729461Y20325715D02*
X36586604Y20325715D01*
X36586604Y20325715D02*
X36443746Y20254286D01*
X36443746Y20254286D02*
X36372318Y20182857D01*
X36372318Y20182857D02*
X36300889Y20040000D01*
X36300889Y20040000D02*
X36300889Y19540000D01*
X35515175Y21754286D02*
X35515175Y21040000D01*
X35515175Y21040000D02*
X37015175Y21040000D01*
X35515175Y22254286D02*
X37015175Y22254286D01*
X37015175Y22254286D02*
X37015175Y22611429D01*
X37015175Y22611429D02*
X36943746Y22825715D01*
X36943746Y22825715D02*
X36800889Y22968572D01*
X36800889Y22968572D02*
X36658032Y23040001D01*
X36658032Y23040001D02*
X36372318Y23111429D01*
X36372318Y23111429D02*
X36158032Y23111429D01*
X36158032Y23111429D02*
X35872318Y23040001D01*
X35872318Y23040001D02*
X35729461Y22968572D01*
X35729461Y22968572D02*
X35586604Y22825715D01*
X35586604Y22825715D02*
X35515175Y22611429D01*
X35515175Y22611429D02*
X35515175Y22254286D01*
X35658032Y24611429D02*
X35586604Y24540001D01*
X35586604Y24540001D02*
X35515175Y24325715D01*
X35515175Y24325715D02*
X35515175Y24182858D01*
X35515175Y24182858D02*
X35586604Y23968572D01*
X35586604Y23968572D02*
X35729461Y23825715D01*
X35729461Y23825715D02*
X35872318Y23754286D01*
X35872318Y23754286D02*
X36158032Y23682858D01*
X36158032Y23682858D02*
X36372318Y23682858D01*
X36372318Y23682858D02*
X36658032Y23754286D01*
X36658032Y23754286D02*
X36800889Y23825715D01*
X36800889Y23825715D02*
X36943746Y23968572D01*
X36943746Y23968572D02*
X37015175Y24182858D01*
X37015175Y24182858D02*
X37015175Y24325715D01*
X37015175Y24325715D02*
X36943746Y24540001D01*
X36943746Y24540001D02*
X36872318Y24611429D01*
X40065175Y30709306D02*
X38850889Y30709306D01*
X38850889Y30709306D02*
X38708032Y30637877D01*
X38708032Y30637877D02*
X38636604Y30566448D01*
X38636604Y30566448D02*
X38565175Y30423591D01*
X38565175Y30423591D02*
X38565175Y30137877D01*
X38565175Y30137877D02*
X38636604Y29995020D01*
X38636604Y29995020D02*
X38708032Y29923591D01*
X38708032Y29923591D02*
X38850889Y29852163D01*
X38850889Y29852163D02*
X40065175Y29852163D01*
X40065175Y25923591D02*
X38565175Y25423591D01*
X38565175Y25423591D02*
X40065175Y24923591D01*
X40065175Y21137878D02*
X38565175Y20780735D01*
X38565175Y20780735D02*
X39636604Y20495021D01*
X39636604Y20495021D02*
X38565175Y20209306D01*
X38565175Y20209306D02*
X40065175Y19852163D01*
X44168094Y5958985D02*
X44168094Y6958985D01*
X44168094Y6958985D02*
X43977618Y6958985D01*
X43977618Y6958985D02*
X43863332Y6911366D01*
X43863332Y6911366D02*
X43787142Y6816128D01*
X43787142Y6816128D02*
X43749047Y6720890D01*
X43749047Y6720890D02*
X43710951Y6530414D01*
X43710951Y6530414D02*
X43710951Y6387557D01*
X43710951Y6387557D02*
X43749047Y6197081D01*
X43749047Y6197081D02*
X43787142Y6101843D01*
X43787142Y6101843D02*
X43863332Y6006604D01*
X43863332Y6006604D02*
X43977618Y5958985D01*
X43977618Y5958985D02*
X44168094Y5958985D01*
X43368094Y5958985D02*
X43368094Y6958985D01*
X42529999Y5958985D02*
X42796666Y6435176D01*
X42987142Y5958985D02*
X42987142Y6958985D01*
X42987142Y6958985D02*
X42682380Y6958985D01*
X42682380Y6958985D02*
X42606190Y6911366D01*
X42606190Y6911366D02*
X42568095Y6863747D01*
X42568095Y6863747D02*
X42529999Y6768509D01*
X42529999Y6768509D02*
X42529999Y6625652D01*
X42529999Y6625652D02*
X42568095Y6530414D01*
X42568095Y6530414D02*
X42606190Y6482795D01*
X42606190Y6482795D02*
X42682380Y6435176D01*
X42682380Y6435176D02*
X42987142Y6435176D01*
X41615714Y6006604D02*
X41501428Y5958985D01*
X41501428Y5958985D02*
X41310952Y5958985D01*
X41310952Y5958985D02*
X41234761Y6006604D01*
X41234761Y6006604D02*
X41196666Y6054224D01*
X41196666Y6054224D02*
X41158571Y6149462D01*
X41158571Y6149462D02*
X41158571Y6244700D01*
X41158571Y6244700D02*
X41196666Y6339938D01*
X41196666Y6339938D02*
X41234761Y6387557D01*
X41234761Y6387557D02*
X41310952Y6435176D01*
X41310952Y6435176D02*
X41463333Y6482795D01*
X41463333Y6482795D02*
X41539523Y6530414D01*
X41539523Y6530414D02*
X41577618Y6578033D01*
X41577618Y6578033D02*
X41615714Y6673271D01*
X41615714Y6673271D02*
X41615714Y6768509D01*
X41615714Y6768509D02*
X41577618Y6863747D01*
X41577618Y6863747D02*
X41539523Y6911366D01*
X41539523Y6911366D02*
X41463333Y6958985D01*
X41463333Y6958985D02*
X41272856Y6958985D01*
X41272856Y6958985D02*
X41158571Y6911366D01*
X40929999Y6958985D02*
X40472856Y6958985D01*
X40701428Y5958985D02*
X40701428Y6958985D01*
X40206189Y5958985D02*
X40206189Y6958985D01*
X40206189Y6958985D02*
X39901427Y6958985D01*
X39901427Y6958985D02*
X39825237Y6911366D01*
X39825237Y6911366D02*
X39787142Y6863747D01*
X39787142Y6863747D02*
X39749046Y6768509D01*
X39749046Y6768509D02*
X39749046Y6625652D01*
X39749046Y6625652D02*
X39787142Y6530414D01*
X39787142Y6530414D02*
X39825237Y6482795D01*
X39825237Y6482795D02*
X39901427Y6435176D01*
X39901427Y6435176D02*
X40206189Y6435176D01*
X38529999Y6482795D02*
X38796665Y6482795D01*
X38796665Y5958985D02*
X38796665Y6958985D01*
X38796665Y6958985D02*
X38415713Y6958985D01*
X37691904Y6911366D02*
X37768094Y6958985D01*
X37768094Y6958985D02*
X37882380Y6958985D01*
X37882380Y6958985D02*
X37996666Y6911366D01*
X37996666Y6911366D02*
X38072856Y6816128D01*
X38072856Y6816128D02*
X38110951Y6720890D01*
X38110951Y6720890D02*
X38149047Y6530414D01*
X38149047Y6530414D02*
X38149047Y6387557D01*
X38149047Y6387557D02*
X38110951Y6197081D01*
X38110951Y6197081D02*
X38072856Y6101843D01*
X38072856Y6101843D02*
X37996666Y6006604D01*
X37996666Y6006604D02*
X37882380Y5958985D01*
X37882380Y5958985D02*
X37806189Y5958985D01*
X37806189Y5958985D02*
X37691904Y6006604D01*
X37691904Y6006604D02*
X37653808Y6054224D01*
X37653808Y6054224D02*
X37653808Y6387557D01*
X37653808Y6387557D02*
X37806189Y6387557D01*
D12*
X16314733Y39766102D02*
X16314733Y40756578D01*
X17057590Y42056579D02*
X17119495Y41932769D01*
X17119495Y41932769D02*
X17119495Y41747055D01*
X17119495Y41747055D02*
X17057590Y41561341D01*
X17057590Y41561341D02*
X16933780Y41437531D01*
X16933780Y41437531D02*
X16809971Y41375626D01*
X16809971Y41375626D02*
X16562352Y41313722D01*
X16562352Y41313722D02*
X16376638Y41313722D01*
X16376638Y41313722D02*
X16129019Y41375626D01*
X16129019Y41375626D02*
X16005209Y41437531D01*
X16005209Y41437531D02*
X15881400Y41561341D01*
X15881400Y41561341D02*
X15819495Y41747055D01*
X15819495Y41747055D02*
X15819495Y41870864D01*
X15819495Y41870864D02*
X15881400Y42056579D01*
X15881400Y42056579D02*
X15943304Y42118483D01*
X15943304Y42118483D02*
X16376638Y42118483D01*
X16376638Y42118483D02*
X16376638Y41870864D01*
X15819495Y42675626D02*
X17119495Y42675626D01*
X17119495Y42675626D02*
X15819495Y43418483D01*
X15819495Y43418483D02*
X17119495Y43418483D01*
X15819495Y44037531D02*
X17119495Y44037531D01*
X17119495Y44037531D02*
X17119495Y44347055D01*
X17119495Y44347055D02*
X17057590Y44532769D01*
X17057590Y44532769D02*
X16933780Y44656579D01*
X16933780Y44656579D02*
X16809971Y44718484D01*
X16809971Y44718484D02*
X16562352Y44780388D01*
X16562352Y44780388D02*
X16376638Y44780388D01*
X16376638Y44780388D02*
X16129019Y44718484D01*
X16129019Y44718484D02*
X16005209Y44656579D01*
X16005209Y44656579D02*
X15881400Y44532769D01*
X15881400Y44532769D02*
X15819495Y44347055D01*
X15819495Y44347055D02*
X15819495Y44037531D01*
D13*
X15067695Y22304763D02*
X16367695Y22304763D01*
X16367695Y22304763D02*
X16367695Y22614287D01*
X16367695Y22614287D02*
X16305790Y22800001D01*
X16305790Y22800001D02*
X16181980Y22923811D01*
X16181980Y22923811D02*
X16058171Y22985716D01*
X16058171Y22985716D02*
X15810552Y23047620D01*
X15810552Y23047620D02*
X15624838Y23047620D01*
X15624838Y23047620D02*
X15377219Y22985716D01*
X15377219Y22985716D02*
X15253409Y22923811D01*
X15253409Y22923811D02*
X15129600Y22800001D01*
X15129600Y22800001D02*
X15067695Y22614287D01*
X15067695Y22614287D02*
X15067695Y22304763D01*
X15067695Y24347620D02*
X15686742Y23914287D01*
X15067695Y23604763D02*
X16367695Y23604763D01*
X16367695Y23604763D02*
X16367695Y24100001D01*
X16367695Y24100001D02*
X16305790Y24223811D01*
X16305790Y24223811D02*
X16243885Y24285716D01*
X16243885Y24285716D02*
X16120076Y24347620D01*
X16120076Y24347620D02*
X15934361Y24347620D01*
X15934361Y24347620D02*
X15810552Y24285716D01*
X15810552Y24285716D02*
X15748647Y24223811D01*
X15748647Y24223811D02*
X15686742Y24100001D01*
X15686742Y24100001D02*
X15686742Y23604763D01*
X16367695Y24719049D02*
X15067695Y25152382D01*
X15067695Y25152382D02*
X16367695Y25585716D01*
X15067695Y26700002D02*
X15067695Y25957145D01*
X15067695Y26328573D02*
X16367695Y26328573D01*
X16367695Y26328573D02*
X16181980Y26204764D01*
X16181980Y26204764D02*
X16058171Y26080954D01*
X16058171Y26080954D02*
X15996266Y25957145D01*
X16367695Y27504763D02*
X16367695Y27628573D01*
X16367695Y27628573D02*
X16305790Y27752382D01*
X16305790Y27752382D02*
X16243885Y27814287D01*
X16243885Y27814287D02*
X16120076Y27876192D01*
X16120076Y27876192D02*
X15872457Y27938097D01*
X15872457Y27938097D02*
X15562933Y27938097D01*
X15562933Y27938097D02*
X15315314Y27876192D01*
X15315314Y27876192D02*
X15191504Y27814287D01*
X15191504Y27814287D02*
X15129600Y27752382D01*
X15129600Y27752382D02*
X15067695Y27628573D01*
X15067695Y27628573D02*
X15067695Y27504763D01*
X15067695Y27504763D02*
X15129600Y27380954D01*
X15129600Y27380954D02*
X15191504Y27319049D01*
X15191504Y27319049D02*
X15315314Y27257144D01*
X15315314Y27257144D02*
X15562933Y27195240D01*
X15562933Y27195240D02*
X15872457Y27195240D01*
X15872457Y27195240D02*
X16120076Y27257144D01*
X16120076Y27257144D02*
X16243885Y27319049D01*
X16243885Y27319049D02*
X16305790Y27380954D01*
X16305790Y27380954D02*
X16367695Y27504763D01*
X15067695Y28557144D02*
X15067695Y28804763D01*
X15067695Y28804763D02*
X15129600Y28928573D01*
X15129600Y28928573D02*
X15191504Y28990477D01*
X15191504Y28990477D02*
X15377219Y29114287D01*
X15377219Y29114287D02*
X15624838Y29176192D01*
X15624838Y29176192D02*
X16120076Y29176192D01*
X16120076Y29176192D02*
X16243885Y29114287D01*
X16243885Y29114287D02*
X16305790Y29052382D01*
X16305790Y29052382D02*
X16367695Y28928573D01*
X16367695Y28928573D02*
X16367695Y28680954D01*
X16367695Y28680954D02*
X16305790Y28557144D01*
X16305790Y28557144D02*
X16243885Y28495239D01*
X16243885Y28495239D02*
X16120076Y28433335D01*
X16120076Y28433335D02*
X15810552Y28433335D01*
X15810552Y28433335D02*
X15686742Y28495239D01*
X15686742Y28495239D02*
X15624838Y28557144D01*
X15624838Y28557144D02*
X15562933Y28680954D01*
X15562933Y28680954D02*
X15562933Y28928573D01*
X15562933Y28928573D02*
X15624838Y29052382D01*
X15624838Y29052382D02*
X15686742Y29114287D01*
X15686742Y29114287D02*
X15810552Y29176192D01*
X15810552Y29919049D02*
X15872457Y29795239D01*
X15872457Y29795239D02*
X15934361Y29733334D01*
X15934361Y29733334D02*
X16058171Y29671430D01*
X16058171Y29671430D02*
X16120076Y29671430D01*
X16120076Y29671430D02*
X16243885Y29733334D01*
X16243885Y29733334D02*
X16305790Y29795239D01*
X16305790Y29795239D02*
X16367695Y29919049D01*
X16367695Y29919049D02*
X16367695Y30166668D01*
X16367695Y30166668D02*
X16305790Y30290477D01*
X16305790Y30290477D02*
X16243885Y30352382D01*
X16243885Y30352382D02*
X16120076Y30414287D01*
X16120076Y30414287D02*
X16058171Y30414287D01*
X16058171Y30414287D02*
X15934361Y30352382D01*
X15934361Y30352382D02*
X15872457Y30290477D01*
X15872457Y30290477D02*
X15810552Y30166668D01*
X15810552Y30166668D02*
X15810552Y29919049D01*
X15810552Y29919049D02*
X15748647Y29795239D01*
X15748647Y29795239D02*
X15686742Y29733334D01*
X15686742Y29733334D02*
X15562933Y29671430D01*
X15562933Y29671430D02*
X15315314Y29671430D01*
X15315314Y29671430D02*
X15191504Y29733334D01*
X15191504Y29733334D02*
X15129600Y29795239D01*
X15129600Y29795239D02*
X15067695Y29919049D01*
X15067695Y29919049D02*
X15067695Y30166668D01*
X15067695Y30166668D02*
X15129600Y30290477D01*
X15129600Y30290477D02*
X15191504Y30352382D01*
X15191504Y30352382D02*
X15315314Y30414287D01*
X15315314Y30414287D02*
X15562933Y30414287D01*
X15562933Y30414287D02*
X15686742Y30352382D01*
X15686742Y30352382D02*
X15748647Y30290477D01*
X15748647Y30290477D02*
X15810552Y30166668D01*
X16367695Y30847620D02*
X16367695Y31714286D01*
X16367695Y31714286D02*
X15067695Y31157144D01*
X16367695Y32023810D02*
X15067695Y32457143D01*
X15067695Y32457143D02*
X16367695Y32890477D01*
X16367695Y33571429D02*
X16367695Y33695239D01*
X16367695Y33695239D02*
X16305790Y33819048D01*
X16305790Y33819048D02*
X16243885Y33880953D01*
X16243885Y33880953D02*
X16120076Y33942858D01*
X16120076Y33942858D02*
X15872457Y34004763D01*
X15872457Y34004763D02*
X15562933Y34004763D01*
X15562933Y34004763D02*
X15315314Y33942858D01*
X15315314Y33942858D02*
X15191504Y33880953D01*
X15191504Y33880953D02*
X15129600Y33819048D01*
X15129600Y33819048D02*
X15067695Y33695239D01*
X15067695Y33695239D02*
X15067695Y33571429D01*
X15067695Y33571429D02*
X15129600Y33447620D01*
X15129600Y33447620D02*
X15191504Y33385715D01*
X15191504Y33385715D02*
X15315314Y33323810D01*
X15315314Y33323810D02*
X15562933Y33261906D01*
X15562933Y33261906D02*
X15872457Y33261906D01*
X15872457Y33261906D02*
X16120076Y33323810D01*
X16120076Y33323810D02*
X16243885Y33385715D01*
X16243885Y33385715D02*
X16305790Y33447620D01*
X16305790Y33447620D02*
X16367695Y33571429D01*
X15067695Y35242858D02*
X15067695Y34500001D01*
X15067695Y34871429D02*
X16367695Y34871429D01*
X16367695Y34871429D02*
X16181980Y34747620D01*
X16181980Y34747620D02*
X16058171Y34623810D01*
X16058171Y34623810D02*
X15996266Y34500001D01*
X15439123Y35738096D02*
X15439123Y36357143D01*
X15067695Y35614286D02*
X16367695Y36047619D01*
X16367695Y36047619D02*
X15067695Y36480953D01*
X12974695Y22552382D02*
X13841361Y22552382D01*
X13717552Y22552382D02*
X13779457Y22614287D01*
X13779457Y22614287D02*
X13841361Y22738097D01*
X13841361Y22738097D02*
X13841361Y22923811D01*
X13841361Y22923811D02*
X13779457Y23047620D01*
X13779457Y23047620D02*
X13655647Y23109525D01*
X13655647Y23109525D02*
X12974695Y23109525D01*
X13655647Y23109525D02*
X13779457Y23171430D01*
X13779457Y23171430D02*
X13841361Y23295239D01*
X13841361Y23295239D02*
X13841361Y23480954D01*
X13841361Y23480954D02*
X13779457Y23604763D01*
X13779457Y23604763D02*
X13655647Y23666668D01*
X13655647Y23666668D02*
X12974695Y23666668D01*
X12974695Y24471430D02*
X13036600Y24347620D01*
X13036600Y24347620D02*
X13160409Y24285715D01*
X13160409Y24285715D02*
X14274695Y24285715D01*
X12974695Y25523810D02*
X13655647Y25523810D01*
X13655647Y25523810D02*
X13779457Y25461905D01*
X13779457Y25461905D02*
X13841361Y25338096D01*
X13841361Y25338096D02*
X13841361Y25090477D01*
X13841361Y25090477D02*
X13779457Y24966667D01*
X13036600Y25523810D02*
X12974695Y25400001D01*
X12974695Y25400001D02*
X12974695Y25090477D01*
X12974695Y25090477D02*
X13036600Y24966667D01*
X13036600Y24966667D02*
X13160409Y24904763D01*
X13160409Y24904763D02*
X13284219Y24904763D01*
X13284219Y24904763D02*
X13408028Y24966667D01*
X13408028Y24966667D02*
X13469933Y25090477D01*
X13469933Y25090477D02*
X13469933Y25400001D01*
X13469933Y25400001D02*
X13531838Y25523810D01*
X12974695Y26142857D02*
X14274695Y26142857D01*
X13779457Y26142857D02*
X13841361Y26266667D01*
X13841361Y26266667D02*
X13841361Y26514286D01*
X13841361Y26514286D02*
X13779457Y26638095D01*
X13779457Y26638095D02*
X13717552Y26700000D01*
X13717552Y26700000D02*
X13593742Y26761905D01*
X13593742Y26761905D02*
X13222314Y26761905D01*
X13222314Y26761905D02*
X13098504Y26700000D01*
X13098504Y26700000D02*
X13036600Y26638095D01*
X13036600Y26638095D02*
X12974695Y26514286D01*
X12974695Y26514286D02*
X12974695Y26266667D01*
X12974695Y26266667D02*
X13036600Y26142857D01*
X13098504Y27319047D02*
X13036600Y27380952D01*
X13036600Y27380952D02*
X12974695Y27319047D01*
X12974695Y27319047D02*
X13036600Y27257143D01*
X13036600Y27257143D02*
X13098504Y27319047D01*
X13098504Y27319047D02*
X12974695Y27319047D01*
X13036600Y28495238D02*
X12974695Y28371429D01*
X12974695Y28371429D02*
X12974695Y28123810D01*
X12974695Y28123810D02*
X13036600Y28000000D01*
X13036600Y28000000D02*
X13098504Y27938095D01*
X13098504Y27938095D02*
X13222314Y27876191D01*
X13222314Y27876191D02*
X13593742Y27876191D01*
X13593742Y27876191D02*
X13717552Y27938095D01*
X13717552Y27938095D02*
X13779457Y28000000D01*
X13779457Y28000000D02*
X13841361Y28123810D01*
X13841361Y28123810D02*
X13841361Y28371429D01*
X13841361Y28371429D02*
X13779457Y28495238D01*
X13841361Y28928572D02*
X13841361Y29609524D01*
X13841361Y29609524D02*
X12974695Y28928572D01*
X12974695Y28928572D02*
X12974695Y29609524D01*
X13036600Y30166667D02*
X12974695Y30166667D01*
X12974695Y30166667D02*
X12850885Y30104762D01*
X12850885Y30104762D02*
X12788980Y30042858D01*
X14150885Y31652382D02*
X14212790Y31714286D01*
X14212790Y31714286D02*
X14274695Y31838096D01*
X14274695Y31838096D02*
X14274695Y32147620D01*
X14274695Y32147620D02*
X14212790Y32271429D01*
X14212790Y32271429D02*
X14150885Y32333334D01*
X14150885Y32333334D02*
X14027076Y32395239D01*
X14027076Y32395239D02*
X13903266Y32395239D01*
X13903266Y32395239D02*
X13717552Y32333334D01*
X13717552Y32333334D02*
X12974695Y31590477D01*
X12974695Y31590477D02*
X12974695Y32395239D01*
X14274695Y33200000D02*
X14274695Y33323810D01*
X14274695Y33323810D02*
X14212790Y33447619D01*
X14212790Y33447619D02*
X14150885Y33509524D01*
X14150885Y33509524D02*
X14027076Y33571429D01*
X14027076Y33571429D02*
X13779457Y33633334D01*
X13779457Y33633334D02*
X13469933Y33633334D01*
X13469933Y33633334D02*
X13222314Y33571429D01*
X13222314Y33571429D02*
X13098504Y33509524D01*
X13098504Y33509524D02*
X13036600Y33447619D01*
X13036600Y33447619D02*
X12974695Y33323810D01*
X12974695Y33323810D02*
X12974695Y33200000D01*
X12974695Y33200000D02*
X13036600Y33076191D01*
X13036600Y33076191D02*
X13098504Y33014286D01*
X13098504Y33014286D02*
X13222314Y32952381D01*
X13222314Y32952381D02*
X13469933Y32890477D01*
X13469933Y32890477D02*
X13779457Y32890477D01*
X13779457Y32890477D02*
X14027076Y32952381D01*
X14027076Y32952381D02*
X14150885Y33014286D01*
X14150885Y33014286D02*
X14212790Y33076191D01*
X14212790Y33076191D02*
X14274695Y33200000D01*
X14150885Y34128572D02*
X14212790Y34190476D01*
X14212790Y34190476D02*
X14274695Y34314286D01*
X14274695Y34314286D02*
X14274695Y34623810D01*
X14274695Y34623810D02*
X14212790Y34747619D01*
X14212790Y34747619D02*
X14150885Y34809524D01*
X14150885Y34809524D02*
X14027076Y34871429D01*
X14027076Y34871429D02*
X13903266Y34871429D01*
X13903266Y34871429D02*
X13717552Y34809524D01*
X13717552Y34809524D02*
X12974695Y34066667D01*
X12974695Y34066667D02*
X12974695Y34871429D01*
X14274695Y35304762D02*
X14274695Y36109524D01*
X14274695Y36109524D02*
X13779457Y35676190D01*
X13779457Y35676190D02*
X13779457Y35861905D01*
X13779457Y35861905D02*
X13717552Y35985714D01*
X13717552Y35985714D02*
X13655647Y36047619D01*
X13655647Y36047619D02*
X13531838Y36109524D01*
X13531838Y36109524D02*
X13222314Y36109524D01*
X13222314Y36109524D02*
X13098504Y36047619D01*
X13098504Y36047619D02*
X13036600Y35985714D01*
X13036600Y35985714D02*
X12974695Y35861905D01*
X12974695Y35861905D02*
X12974695Y35490476D01*
X12974695Y35490476D02*
X13036600Y35366667D01*
X13036600Y35366667D02*
X13098504Y35304762D01*
D12*
X31864733Y39741102D02*
X31864733Y40731578D01*
X31369495Y40236340D02*
X32359971Y40236340D01*
X31369495Y42031579D02*
X31369495Y41288722D01*
X31369495Y41660150D02*
X32669495Y41660150D01*
X32669495Y41660150D02*
X32483780Y41536341D01*
X32483780Y41536341D02*
X32359971Y41412531D01*
X32359971Y41412531D02*
X32298066Y41288722D01*
X32545685Y42526817D02*
X32607590Y42588721D01*
X32607590Y42588721D02*
X32669495Y42712531D01*
X32669495Y42712531D02*
X32669495Y43022055D01*
X32669495Y43022055D02*
X32607590Y43145864D01*
X32607590Y43145864D02*
X32545685Y43207769D01*
X32545685Y43207769D02*
X32421876Y43269674D01*
X32421876Y43269674D02*
X32298066Y43269674D01*
X32298066Y43269674D02*
X32112352Y43207769D01*
X32112352Y43207769D02*
X31369495Y42464912D01*
X31369495Y42464912D02*
X31369495Y43269674D01*
X32669495Y43641102D02*
X31369495Y44074435D01*
X31369495Y44074435D02*
X32669495Y44507769D01*
D11*
X41056365Y34992857D02*
X41103984Y34921428D01*
X41103984Y34921428D02*
X41103984Y34814286D01*
X41103984Y34814286D02*
X41056365Y34707143D01*
X41056365Y34707143D02*
X40961127Y34635714D01*
X40961127Y34635714D02*
X40865889Y34600000D01*
X40865889Y34600000D02*
X40675413Y34564286D01*
X40675413Y34564286D02*
X40532556Y34564286D01*
X40532556Y34564286D02*
X40342080Y34600000D01*
X40342080Y34600000D02*
X40246842Y34635714D01*
X40246842Y34635714D02*
X40151604Y34707143D01*
X40151604Y34707143D02*
X40103984Y34814286D01*
X40103984Y34814286D02*
X40103984Y34885714D01*
X40103984Y34885714D02*
X40151604Y34992857D01*
X40151604Y34992857D02*
X40199223Y35028571D01*
X40199223Y35028571D02*
X40532556Y35028571D01*
X40532556Y35028571D02*
X40532556Y34885714D01*
X40103984Y35350000D02*
X41103984Y35350000D01*
X41103984Y35350000D02*
X40103984Y35778571D01*
X40103984Y35778571D02*
X41103984Y35778571D01*
X40103984Y36135714D02*
X41103984Y36135714D01*
X41103984Y36135714D02*
X41103984Y36314285D01*
X41103984Y36314285D02*
X41056365Y36421428D01*
X41056365Y36421428D02*
X40961127Y36492857D01*
X40961127Y36492857D02*
X40865889Y36528571D01*
X40865889Y36528571D02*
X40675413Y36564285D01*
X40675413Y36564285D02*
X40532556Y36564285D01*
X40532556Y36564285D02*
X40342080Y36528571D01*
X40342080Y36528571D02*
X40246842Y36492857D01*
X40246842Y36492857D02*
X40151604Y36421428D01*
X40151604Y36421428D02*
X40103984Y36314285D01*
X40103984Y36314285D02*
X40103984Y36135714D01*
X40484937Y38028572D02*
X40484937Y38600000D01*
X40103984Y38314286D02*
X40865889Y38314286D01*
X40103984Y39350000D02*
X40103984Y38921429D01*
X40103984Y39135714D02*
X41103984Y39135714D01*
X41103984Y39135714D02*
X40961127Y39064286D01*
X40961127Y39064286D02*
X40865889Y38992857D01*
X40865889Y38992857D02*
X40818270Y38921429D01*
X41008746Y39635715D02*
X41056365Y39671429D01*
X41056365Y39671429D02*
X41103984Y39742857D01*
X41103984Y39742857D02*
X41103984Y39921429D01*
X41103984Y39921429D02*
X41056365Y39992857D01*
X41056365Y39992857D02*
X41008746Y40028572D01*
X41008746Y40028572D02*
X40913508Y40064286D01*
X40913508Y40064286D02*
X40818270Y40064286D01*
X40818270Y40064286D02*
X40675413Y40028572D01*
X40675413Y40028572D02*
X40103984Y39600000D01*
X40103984Y39600000D02*
X40103984Y40064286D01*
X41103984Y40278572D02*
X40103984Y40528572D01*
X40103984Y40528572D02*
X41103984Y40778572D01*
X41056365Y42564287D02*
X41103984Y42492858D01*
X41103984Y42492858D02*
X41103984Y42385716D01*
X41103984Y42385716D02*
X41056365Y42278573D01*
X41056365Y42278573D02*
X40961127Y42207144D01*
X40961127Y42207144D02*
X40865889Y42171430D01*
X40865889Y42171430D02*
X40675413Y42135716D01*
X40675413Y42135716D02*
X40532556Y42135716D01*
X40532556Y42135716D02*
X40342080Y42171430D01*
X40342080Y42171430D02*
X40246842Y42207144D01*
X40246842Y42207144D02*
X40151604Y42278573D01*
X40151604Y42278573D02*
X40103984Y42385716D01*
X40103984Y42385716D02*
X40103984Y42457144D01*
X40103984Y42457144D02*
X40151604Y42564287D01*
X40151604Y42564287D02*
X40199223Y42600001D01*
X40199223Y42600001D02*
X40532556Y42600001D01*
X40532556Y42600001D02*
X40532556Y42457144D01*
X40103984Y42921430D02*
X41103984Y42921430D01*
X41103984Y42921430D02*
X40103984Y43350001D01*
X40103984Y43350001D02*
X41103984Y43350001D01*
X40103984Y43707144D02*
X41103984Y43707144D01*
X41103984Y43707144D02*
X41103984Y43885715D01*
X41103984Y43885715D02*
X41056365Y43992858D01*
X41056365Y43992858D02*
X40961127Y44064287D01*
X40961127Y44064287D02*
X40865889Y44100001D01*
X40865889Y44100001D02*
X40675413Y44135715D01*
X40675413Y44135715D02*
X40532556Y44135715D01*
X40532556Y44135715D02*
X40342080Y44100001D01*
X40342080Y44100001D02*
X40246842Y44064287D01*
X40246842Y44064287D02*
X40151604Y43992858D01*
X40151604Y43992858D02*
X40103984Y43885715D01*
X40103984Y43885715D02*
X40103984Y43707144D01*
D14*
X11484577Y22604511D02*
X11484577Y22033083D01*
X11484577Y22033083D02*
X10913148Y21975940D01*
X10913148Y21975940D02*
X10970291Y22033083D01*
X10970291Y22033083D02*
X11027434Y22147368D01*
X11027434Y22147368D02*
X11027434Y22433083D01*
X11027434Y22433083D02*
X10970291Y22547368D01*
X10970291Y22547368D02*
X10913148Y22604511D01*
X10913148Y22604511D02*
X10798862Y22661654D01*
X10798862Y22661654D02*
X10513148Y22661654D01*
X10513148Y22661654D02*
X10398862Y22604511D01*
X10398862Y22604511D02*
X10341720Y22547368D01*
X10341720Y22547368D02*
X10284577Y22433083D01*
X10284577Y22433083D02*
X10284577Y22147368D01*
X10284577Y22147368D02*
X10341720Y22033083D01*
X10341720Y22033083D02*
X10398862Y21975940D01*
X11484577Y23004511D02*
X10284577Y23404511D01*
X10284577Y23404511D02*
X11484577Y23804511D01*
X10284577Y25290225D02*
X10341720Y25175940D01*
X10341720Y25175940D02*
X10398862Y25118797D01*
X10398862Y25118797D02*
X10513148Y25061654D01*
X10513148Y25061654D02*
X10856005Y25061654D01*
X10856005Y25061654D02*
X10970291Y25118797D01*
X10970291Y25118797D02*
X11027434Y25175940D01*
X11027434Y25175940D02*
X11084577Y25290225D01*
X11084577Y25290225D02*
X11084577Y25461654D01*
X11084577Y25461654D02*
X11027434Y25575940D01*
X11027434Y25575940D02*
X10970291Y25633082D01*
X10970291Y25633082D02*
X10856005Y25690225D01*
X10856005Y25690225D02*
X10513148Y25690225D01*
X10513148Y25690225D02*
X10398862Y25633082D01*
X10398862Y25633082D02*
X10341720Y25575940D01*
X10341720Y25575940D02*
X10284577Y25461654D01*
X10284577Y25461654D02*
X10284577Y25290225D01*
X11084577Y26718796D02*
X10284577Y26718796D01*
X11084577Y26204511D02*
X10456005Y26204511D01*
X10456005Y26204511D02*
X10341720Y26261654D01*
X10341720Y26261654D02*
X10284577Y26375939D01*
X10284577Y26375939D02*
X10284577Y26547368D01*
X10284577Y26547368D02*
X10341720Y26661654D01*
X10341720Y26661654D02*
X10398862Y26718796D01*
X11084577Y27118796D02*
X11084577Y27575939D01*
X11484577Y27290225D02*
X10456005Y27290225D01*
X10456005Y27290225D02*
X10341720Y27347368D01*
X10341720Y27347368D02*
X10284577Y27461653D01*
X10284577Y27461653D02*
X10284577Y27575939D01*
X11084577Y27975939D02*
X9884577Y27975939D01*
X11027434Y27975939D02*
X11084577Y28090224D01*
X11084577Y28090224D02*
X11084577Y28318796D01*
X11084577Y28318796D02*
X11027434Y28433082D01*
X11027434Y28433082D02*
X10970291Y28490224D01*
X10970291Y28490224D02*
X10856005Y28547367D01*
X10856005Y28547367D02*
X10513148Y28547367D01*
X10513148Y28547367D02*
X10398862Y28490224D01*
X10398862Y28490224D02*
X10341720Y28433082D01*
X10341720Y28433082D02*
X10284577Y28318796D01*
X10284577Y28318796D02*
X10284577Y28090224D01*
X10284577Y28090224D02*
X10341720Y27975939D01*
X11084577Y29575938D02*
X10284577Y29575938D01*
X11084577Y29061653D02*
X10456005Y29061653D01*
X10456005Y29061653D02*
X10341720Y29118796D01*
X10341720Y29118796D02*
X10284577Y29233081D01*
X10284577Y29233081D02*
X10284577Y29404510D01*
X10284577Y29404510D02*
X10341720Y29518796D01*
X10341720Y29518796D02*
X10398862Y29575938D01*
X11084577Y29975938D02*
X11084577Y30433081D01*
X11484577Y30147367D02*
X10456005Y30147367D01*
X10456005Y30147367D02*
X10341720Y30204510D01*
X10341720Y30204510D02*
X10284577Y30318795D01*
X10284577Y30318795D02*
X10284577Y30433081D01*
X8352577Y22661654D02*
X8352577Y21975940D01*
X8352577Y22318797D02*
X9552577Y22318797D01*
X9552577Y22318797D02*
X9381148Y22204511D01*
X9381148Y22204511D02*
X9266862Y22090226D01*
X9266862Y22090226D02*
X9209720Y21975940D01*
X9552577Y23404511D02*
X9552577Y23518797D01*
X9552577Y23518797D02*
X9495434Y23633083D01*
X9495434Y23633083D02*
X9438291Y23690225D01*
X9438291Y23690225D02*
X9324005Y23747368D01*
X9324005Y23747368D02*
X9095434Y23804511D01*
X9095434Y23804511D02*
X8809720Y23804511D01*
X8809720Y23804511D02*
X8581148Y23747368D01*
X8581148Y23747368D02*
X8466862Y23690225D01*
X8466862Y23690225D02*
X8409720Y23633083D01*
X8409720Y23633083D02*
X8352577Y23518797D01*
X8352577Y23518797D02*
X8352577Y23404511D01*
X8352577Y23404511D02*
X8409720Y23290225D01*
X8409720Y23290225D02*
X8466862Y23233083D01*
X8466862Y23233083D02*
X8581148Y23175940D01*
X8581148Y23175940D02*
X8809720Y23118797D01*
X8809720Y23118797D02*
X9095434Y23118797D01*
X9095434Y23118797D02*
X9324005Y23175940D01*
X9324005Y23175940D02*
X9438291Y23233083D01*
X9438291Y23233083D02*
X9495434Y23290225D01*
X9495434Y23290225D02*
X9552577Y23404511D01*
X9552577Y24547368D02*
X9552577Y24661654D01*
X9552577Y24661654D02*
X9495434Y24775940D01*
X9495434Y24775940D02*
X9438291Y24833082D01*
X9438291Y24833082D02*
X9324005Y24890225D01*
X9324005Y24890225D02*
X9095434Y24947368D01*
X9095434Y24947368D02*
X8809720Y24947368D01*
X8809720Y24947368D02*
X8581148Y24890225D01*
X8581148Y24890225D02*
X8466862Y24833082D01*
X8466862Y24833082D02*
X8409720Y24775940D01*
X8409720Y24775940D02*
X8352577Y24661654D01*
X8352577Y24661654D02*
X8352577Y24547368D01*
X8352577Y24547368D02*
X8409720Y24433082D01*
X8409720Y24433082D02*
X8466862Y24375940D01*
X8466862Y24375940D02*
X8581148Y24318797D01*
X8581148Y24318797D02*
X8809720Y24261654D01*
X8809720Y24261654D02*
X9095434Y24261654D01*
X9095434Y24261654D02*
X9324005Y24318797D01*
X9324005Y24318797D02*
X9438291Y24375940D01*
X9438291Y24375940D02*
X9495434Y24433082D01*
X9495434Y24433082D02*
X9552577Y24547368D01*
X8352577Y26375940D02*
X9152577Y26375940D01*
X9038291Y26375940D02*
X9095434Y26433083D01*
X9095434Y26433083D02*
X9152577Y26547368D01*
X9152577Y26547368D02*
X9152577Y26718797D01*
X9152577Y26718797D02*
X9095434Y26833083D01*
X9095434Y26833083D02*
X8981148Y26890225D01*
X8981148Y26890225D02*
X8352577Y26890225D01*
X8981148Y26890225D02*
X9095434Y26947368D01*
X9095434Y26947368D02*
X9152577Y27061654D01*
X9152577Y27061654D02*
X9152577Y27233083D01*
X9152577Y27233083D02*
X9095434Y27347368D01*
X9095434Y27347368D02*
X8981148Y27404511D01*
X8981148Y27404511D02*
X8352577Y27404511D01*
X8695434Y27918797D02*
X8695434Y28490225D01*
X8352577Y27804511D02*
X9552577Y28204511D01*
X9552577Y28204511D02*
X8352577Y28604511D01*
X8452577Y34329511D02*
X8452577Y33758083D01*
X8452577Y33758083D02*
X7881148Y33700940D01*
X7881148Y33700940D02*
X7938291Y33758083D01*
X7938291Y33758083D02*
X7995434Y33872368D01*
X7995434Y33872368D02*
X7995434Y34158083D01*
X7995434Y34158083D02*
X7938291Y34272368D01*
X7938291Y34272368D02*
X7881148Y34329511D01*
X7881148Y34329511D02*
X7766862Y34386654D01*
X7766862Y34386654D02*
X7481148Y34386654D01*
X7481148Y34386654D02*
X7366862Y34329511D01*
X7366862Y34329511D02*
X7309720Y34272368D01*
X7309720Y34272368D02*
X7252577Y34158083D01*
X7252577Y34158083D02*
X7252577Y33872368D01*
X7252577Y33872368D02*
X7309720Y33758083D01*
X7309720Y33758083D02*
X7366862Y33700940D01*
X8452577Y34729511D02*
X7252577Y35129511D01*
X7252577Y35129511D02*
X8452577Y35529511D01*
D15*
%TO.C,J11*%
X17690000Y44710000D02*
X18690000Y44710000D01*
X17690000Y43470000D02*
X17690000Y44710000D01*
X17930000Y44470000D02*
X30471000Y44470000D01*
X17930000Y43350000D02*
X30471000Y43350000D01*
X17930000Y37650000D02*
X30471000Y37650000D01*
X17930000Y34850000D02*
X20320000Y34850000D01*
X17930000Y30230000D02*
X17930000Y44470000D01*
X17930000Y30230000D02*
X30471000Y30230000D01*
X19550000Y44350000D02*
X24550000Y44350000D01*
X19550000Y30350000D02*
X19550000Y44350000D01*
X19550000Y30350000D02*
X24550000Y30350000D01*
X20050000Y43050000D02*
X24050000Y43050000D01*
X20050000Y39750000D02*
X20050000Y43050000D01*
X20050000Y39750000D02*
X24050000Y39750000D01*
X20050000Y39050000D02*
X24050000Y39050000D01*
X20050000Y38050000D02*
X20050000Y39050000D01*
X20050000Y38050000D02*
X24050000Y38050000D01*
X21550000Y33199000D02*
X22550000Y33199000D01*
X21550000Y30700000D02*
X21550000Y33199000D01*
X21550000Y30700000D02*
X22550000Y30700000D01*
X22550000Y30700000D02*
X22550000Y33199000D01*
X22780000Y34850000D02*
X25320000Y34850000D01*
X24050000Y39750000D02*
X24050000Y43050000D01*
X24050000Y38050000D02*
X24050000Y39050000D01*
X24550000Y44350000D02*
X29550000Y44350000D01*
X24550000Y30350000D02*
X24550000Y44350000D01*
X24550000Y30350000D02*
X24550000Y44350000D01*
X24550000Y30350000D02*
X29550000Y30350000D01*
X25050000Y43050000D02*
X29050000Y43050000D01*
X25050000Y39750000D02*
X25050000Y43050000D01*
X25050000Y39750000D02*
X29050000Y39750000D01*
X25050000Y39050000D02*
X29050000Y39050000D01*
X25050000Y38050000D02*
X25050000Y39050000D01*
X25050000Y38050000D02*
X29050000Y38050000D01*
X26550000Y33199000D02*
X27550000Y33199000D01*
X26550000Y30700000D02*
X26550000Y33199000D01*
X26550000Y30700000D02*
X27550000Y30700000D01*
X27550000Y30700000D02*
X27550000Y33199000D01*
X27780000Y34850000D02*
X30471000Y34850000D01*
X29050000Y39750000D02*
X29050000Y43050000D01*
X29050000Y38050000D02*
X29050000Y39050000D01*
X29550000Y30350000D02*
X29550000Y44350000D01*
X30471000Y30230000D02*
X30471000Y44470000D01*
D10*
%TO.C,J10*%
X6875000Y15430000D02*
X14495000Y15430000D01*
X14495000Y15430000D02*
X14495000Y20510000D01*
X6875000Y20510000D02*
X6875000Y15430000D01*
X14495000Y20510000D02*
X6875000Y20510000D01*
%TO.C,J2*%
X19370000Y7266250D02*
X32070000Y7266250D01*
X32070000Y7266250D02*
X32070000Y12346250D01*
X19370000Y12346250D02*
X19370000Y7266250D01*
X32070000Y12346250D02*
X19370000Y12346250D01*
%TO.C,J5*%
X37130000Y7255000D02*
X44750000Y7255000D01*
X44750000Y7255000D02*
X44750000Y12335000D01*
X37130000Y12335000D02*
X37130000Y7255000D01*
X44750000Y12335000D02*
X37130000Y12335000D01*
D15*
%TO.C,J12*%
X55135000Y34410000D02*
X55135000Y33410000D01*
X53895000Y34410000D02*
X55135000Y34410000D01*
X54895000Y34170000D02*
X54895000Y16630000D01*
X53775000Y34170000D02*
X53775000Y16630000D01*
X48075000Y34170000D02*
X48075000Y16630000D01*
X45275000Y34170000D02*
X45275000Y31780000D01*
X40655000Y34170000D02*
X54895000Y34170000D01*
X40655000Y34170000D02*
X40655000Y16630000D01*
X54775000Y32550000D02*
X54775000Y27550000D01*
X40775000Y32550000D02*
X54775000Y32550000D01*
X40775000Y32550000D02*
X40775000Y27550000D01*
X53475000Y32050000D02*
X53475000Y28050000D01*
X50175000Y32050000D02*
X53475000Y32050000D01*
X50175000Y32050000D02*
X50175000Y28050000D01*
X49475000Y32050000D02*
X49475000Y28050000D01*
X48475000Y32050000D02*
X49475000Y32050000D01*
X48475000Y32050000D02*
X48475000Y28050000D01*
X43624000Y30550000D02*
X43624000Y29550000D01*
X41125000Y30550000D02*
X43624000Y30550000D01*
X41125000Y30550000D02*
X41125000Y29550000D01*
X41125000Y29550000D02*
X43624000Y29550000D01*
X45275000Y29320000D02*
X45275000Y26780000D01*
X50175000Y28050000D02*
X53475000Y28050000D01*
X48475000Y28050000D02*
X49475000Y28050000D01*
X54775000Y27550000D02*
X54775000Y22550000D01*
X40775000Y27550000D02*
X54775000Y27550000D01*
X40775000Y27550000D02*
X54775000Y27550000D01*
X40775000Y27550000D02*
X40775000Y22550000D01*
X53475000Y27050000D02*
X53475000Y23050000D01*
X50175000Y27050000D02*
X53475000Y27050000D01*
X50175000Y27050000D02*
X50175000Y23050000D01*
X49475000Y27050000D02*
X49475000Y23050000D01*
X48475000Y27050000D02*
X49475000Y27050000D01*
X48475000Y27050000D02*
X48475000Y23050000D01*
X43624000Y25550000D02*
X43624000Y24550000D01*
X41125000Y25550000D02*
X43624000Y25550000D01*
X41125000Y25550000D02*
X41125000Y24550000D01*
X41125000Y24550000D02*
X43624000Y24550000D01*
X45275000Y24320000D02*
X45275000Y21780000D01*
X50175000Y23050000D02*
X53475000Y23050000D01*
X48475000Y23050000D02*
X49475000Y23050000D01*
X54775000Y22550000D02*
X54775000Y17550000D01*
X40775000Y22550000D02*
X54775000Y22550000D01*
X40775000Y22550000D02*
X54775000Y22550000D01*
X40775000Y22550000D02*
X40775000Y17550000D01*
X53475000Y22050000D02*
X53475000Y18050000D01*
X50175000Y22050000D02*
X53475000Y22050000D01*
X50175000Y22050000D02*
X50175000Y18050000D01*
X49475000Y22050000D02*
X49475000Y18050000D01*
X48475000Y22050000D02*
X49475000Y22050000D01*
X48475000Y22050000D02*
X48475000Y18050000D01*
X43624000Y20550000D02*
X43624000Y19550000D01*
X41125000Y20550000D02*
X43624000Y20550000D01*
X41125000Y20550000D02*
X41125000Y19550000D01*
X41125000Y19550000D02*
X43624000Y19550000D01*
X45275000Y19320000D02*
X45275000Y16630000D01*
X50175000Y18050000D02*
X53475000Y18050000D01*
X48475000Y18050000D02*
X49475000Y18050000D01*
X40775000Y17550000D02*
X54775000Y17550000D01*
X40655000Y16630000D02*
X54895000Y16630000D01*
D10*
%TO.C,J6*%
X29965000Y25850000D02*
X29965000Y18230000D01*
X29965000Y18230000D02*
X35045000Y18230000D01*
X35045000Y25850000D02*
X29965000Y25850000D01*
X35045000Y18230000D02*
X35045000Y25850000D01*
%TO.C,J3*%
X39270000Y34290000D02*
X39270000Y44450000D01*
X39270000Y44450000D02*
X34190000Y44450000D01*
X34190000Y34290000D02*
X39270000Y34290000D01*
X34190000Y44450000D02*
X34190000Y34290000D01*
%TD*%
D16*
%TO.C,J2*%
X30800000Y8536250D03*
X30800000Y11076250D03*
X28260000Y8536250D03*
X28260000Y11076250D03*
X25720000Y8536250D03*
X25720000Y11076250D03*
X23180000Y8536250D03*
X23180000Y11076250D03*
X20640000Y8536250D03*
X20640000Y11076250D03*
%TD*%
%TO.C,J3*%
X38000000Y43180000D03*
X35460000Y43180000D03*
X38000000Y40640000D03*
X35460000Y40640000D03*
X38000000Y38100000D03*
X35460000Y38100000D03*
X38000000Y35560000D03*
X35460000Y35560000D03*
%TD*%
M02*
