M48
; DRILL file {KiCad 7.0.5.1-1-g8f565ef7f0-dirty-deb11} date Tue Jul  4 07:55:59 2023
; FORMAT={3:3/ absolute / metric / suppress leading zeros}
; #@! TF.CreationDate,2023-07-04T07:55:59+00:00
; #@! TF.GenerationSoftware,Kicad,Pcbnew,7.0.5.1-1-g8f565ef7f0-dirty-deb11
; #@! TF.FileFunction,Plated,1,2,PTH
FMAT,2
METRIC,TZ
; #@! TA.AperFunction,Plated,PTH,ComponentDrill
T1C0.200
; #@! TA.AperFunction,Plated,PTH,ViaDrill
T2C0.400
; #@! TA.AperFunction,Plated,PTH,ComponentDrill
T3C0.889
; #@! TA.AperFunction,Plated,PTH,ComponentDrill
T4C1.150
; #@! TA.AperFunction,Plated,PTH,ComponentDrill
T5C3.000
%
G90
G05
T1
X32108Y23460
X32108Y22260
X32108Y21060
X32108Y19860
X32108Y18660
X33308Y23460
X33308Y22260
X33308Y21060
X33308Y19860
X33308Y18660
X34508Y23460
X34508Y22260
X34508Y21060
X34508Y19860
X34508Y18660
T2
X11938Y18364
X11963Y23241
X12065Y28397
X13360Y40843
X13386Y36881
X15525Y18550
X15545Y32360
X18085Y27051
X18542Y17958
X19253Y21361
X20676Y32385
X23200Y13750
X23500Y26575
X23520Y11278
X23520Y8966
X24384Y30810
X24875Y13725
X25502Y33147
X27200Y13900
X27825Y30100
X27850Y34375
X28925Y17800
X29275Y40575
X30450Y16825
X31699Y16332
X32080Y17653
X32100Y29175
X32258Y25679
X32258Y24536
X32275Y38450
X33096Y17653
X33220Y27165
X33452Y24536
X34130Y16070
X34468Y24536
X36070Y25360
X38506Y13589
X39649Y15570
X39825Y19225
X39853Y12217
X41529Y9576
X41529Y8103
X42012Y38100
X50876Y28753
X51486Y26848
X51689Y23266
T3
X14720Y11065
X14720Y8525
X17260Y11065
X17260Y8525
X19800Y11065
X19800Y8525
X20200Y43180
X20200Y40640
X20200Y38100
X20200Y35560
X22740Y43180
X22740Y40640
X22740Y38100
X22740Y35560
X24425Y24580
X24425Y22040
X24425Y19500
X26965Y24580
X26965Y22040
X26965Y19500
X27400Y11076
X27400Y8536
X29940Y11076
X29940Y8536
X32480Y11076
X32480Y8536
X35020Y11076
X35020Y8536
X37560Y11076
X37560Y8536
X44975Y19240
X44975Y16700
X47515Y19240
X47515Y16700
X50055Y19240
X50055Y16700
T4
X12425Y30550
X12425Y25550
X12425Y20550
X31650Y35350
X36650Y35350
T5
X7400Y40640
X7400Y10160
X48040Y40640
X48040Y10160
T0
M30
