%TF.GenerationSoftware,KiCad,Pcbnew,7.0.5.1-1-g8f565ef7f0-dirty-deb11*%
%TF.CreationDate,2023-07-04T07:55:59+00:00*%
%TF.ProjectId,DRV10987V01,44525631-3039-4383-9756-30312e6b6963,01A*%
%TF.SameCoordinates,Original*%
%TF.FileFunction,Legend,Top*%
%TF.FilePolarity,Positive*%
%FSLAX46Y46*%
G04 Gerber Fmt 4.6, Leading zero omitted, Abs format (unit mm)*
G04 Created by KiCad (PCBNEW 7.0.5.1-1-g8f565ef7f0-dirty-deb11) date 2023-07-04 07:55:59*
%MOMM*%
%LPD*%
G01*
G04 APERTURE LIST*
%ADD10C,0.150000*%
%ADD11C,0.127000*%
%ADD12C,0.200000*%
%ADD13C,0.300000*%
%ADD14C,0.110000*%
%ADD15C,0.120000*%
%ADD16R,1.524000X1.524000*%
G04 APERTURE END LIST*
D10*
X18575000Y37000000D02*
X18575000Y41725000D01*
D11*
X26043075Y6806366D02*
X25966885Y6853985D01*
X25966885Y6853985D02*
X25852599Y6853985D01*
X25852599Y6853985D02*
X25738313Y6806366D01*
X25738313Y6806366D02*
X25662123Y6711128D01*
X25662123Y6711128D02*
X25624028Y6615890D01*
X25624028Y6615890D02*
X25585932Y6425414D01*
X25585932Y6425414D02*
X25585932Y6282557D01*
X25585932Y6282557D02*
X25624028Y6092081D01*
X25624028Y6092081D02*
X25662123Y5996843D01*
X25662123Y5996843D02*
X25738313Y5901604D01*
X25738313Y5901604D02*
X25852599Y5853985D01*
X25852599Y5853985D02*
X25928790Y5853985D01*
X25928790Y5853985D02*
X26043075Y5901604D01*
X26043075Y5901604D02*
X26081171Y5949224D01*
X26081171Y5949224D02*
X26081171Y6282557D01*
X26081171Y6282557D02*
X25928790Y6282557D01*
X26424028Y5853985D02*
X26424028Y6853985D01*
X26424028Y6853985D02*
X26881171Y5853985D01*
X26881171Y5853985D02*
X26881171Y6853985D01*
X27262123Y5853985D02*
X27262123Y6853985D01*
X27262123Y6853985D02*
X27452599Y6853985D01*
X27452599Y6853985D02*
X27566885Y6806366D01*
X27566885Y6806366D02*
X27643075Y6711128D01*
X27643075Y6711128D02*
X27681170Y6615890D01*
X27681170Y6615890D02*
X27719266Y6425414D01*
X27719266Y6425414D02*
X27719266Y6282557D01*
X27719266Y6282557D02*
X27681170Y6092081D01*
X27681170Y6092081D02*
X27643075Y5996843D01*
X27643075Y5996843D02*
X27566885Y5901604D01*
X27566885Y5901604D02*
X27452599Y5853985D01*
X27452599Y5853985D02*
X27262123Y5853985D01*
X28633551Y5901604D02*
X28747837Y5853985D01*
X28747837Y5853985D02*
X28938313Y5853985D01*
X28938313Y5853985D02*
X29014504Y5901604D01*
X29014504Y5901604D02*
X29052599Y5949224D01*
X29052599Y5949224D02*
X29090694Y6044462D01*
X29090694Y6044462D02*
X29090694Y6139700D01*
X29090694Y6139700D02*
X29052599Y6234938D01*
X29052599Y6234938D02*
X29014504Y6282557D01*
X29014504Y6282557D02*
X28938313Y6330176D01*
X28938313Y6330176D02*
X28785932Y6377795D01*
X28785932Y6377795D02*
X28709742Y6425414D01*
X28709742Y6425414D02*
X28671647Y6473033D01*
X28671647Y6473033D02*
X28633551Y6568271D01*
X28633551Y6568271D02*
X28633551Y6663509D01*
X28633551Y6663509D02*
X28671647Y6758747D01*
X28671647Y6758747D02*
X28709742Y6806366D01*
X28709742Y6806366D02*
X28785932Y6853985D01*
X28785932Y6853985D02*
X28976409Y6853985D01*
X28976409Y6853985D02*
X29090694Y6806366D01*
X29433552Y5853985D02*
X29433552Y6853985D01*
X29433552Y6853985D02*
X29624028Y6853985D01*
X29624028Y6853985D02*
X29738314Y6806366D01*
X29738314Y6806366D02*
X29814504Y6711128D01*
X29814504Y6711128D02*
X29852599Y6615890D01*
X29852599Y6615890D02*
X29890695Y6425414D01*
X29890695Y6425414D02*
X29890695Y6282557D01*
X29890695Y6282557D02*
X29852599Y6092081D01*
X29852599Y6092081D02*
X29814504Y5996843D01*
X29814504Y5996843D02*
X29738314Y5901604D01*
X29738314Y5901604D02*
X29624028Y5853985D01*
X29624028Y5853985D02*
X29433552Y5853985D01*
X30195456Y6139700D02*
X30576409Y6139700D01*
X30119266Y5853985D02*
X30385933Y6853985D01*
X30385933Y6853985D02*
X30652599Y5853985D01*
X31414504Y6853985D02*
X31681171Y5853985D01*
X31681171Y5853985D02*
X31947837Y6853985D01*
X32671647Y5949224D02*
X32633551Y5901604D01*
X32633551Y5901604D02*
X32519266Y5853985D01*
X32519266Y5853985D02*
X32443075Y5853985D01*
X32443075Y5853985D02*
X32328789Y5901604D01*
X32328789Y5901604D02*
X32252599Y5996843D01*
X32252599Y5996843D02*
X32214504Y6092081D01*
X32214504Y6092081D02*
X32176408Y6282557D01*
X32176408Y6282557D02*
X32176408Y6425414D01*
X32176408Y6425414D02*
X32214504Y6615890D01*
X32214504Y6615890D02*
X32252599Y6711128D01*
X32252599Y6711128D02*
X32328789Y6806366D01*
X32328789Y6806366D02*
X32443075Y6853985D01*
X32443075Y6853985D02*
X32519266Y6853985D01*
X32519266Y6853985D02*
X32633551Y6806366D01*
X32633551Y6806366D02*
X32671647Y6758747D01*
X33471647Y5949224D02*
X33433551Y5901604D01*
X33433551Y5901604D02*
X33319266Y5853985D01*
X33319266Y5853985D02*
X33243075Y5853985D01*
X33243075Y5853985D02*
X33128789Y5901604D01*
X33128789Y5901604D02*
X33052599Y5996843D01*
X33052599Y5996843D02*
X33014504Y6092081D01*
X33014504Y6092081D02*
X32976408Y6282557D01*
X32976408Y6282557D02*
X32976408Y6425414D01*
X32976408Y6425414D02*
X33014504Y6615890D01*
X33014504Y6615890D02*
X33052599Y6711128D01*
X33052599Y6711128D02*
X33128789Y6806366D01*
X33128789Y6806366D02*
X33243075Y6853985D01*
X33243075Y6853985D02*
X33319266Y6853985D01*
X33319266Y6853985D02*
X33433551Y6806366D01*
X33433551Y6806366D02*
X33471647Y6758747D01*
X34385932Y5901604D02*
X34500218Y5853985D01*
X34500218Y5853985D02*
X34690694Y5853985D01*
X34690694Y5853985D02*
X34766885Y5901604D01*
X34766885Y5901604D02*
X34804980Y5949224D01*
X34804980Y5949224D02*
X34843075Y6044462D01*
X34843075Y6044462D02*
X34843075Y6139700D01*
X34843075Y6139700D02*
X34804980Y6234938D01*
X34804980Y6234938D02*
X34766885Y6282557D01*
X34766885Y6282557D02*
X34690694Y6330176D01*
X34690694Y6330176D02*
X34538313Y6377795D01*
X34538313Y6377795D02*
X34462123Y6425414D01*
X34462123Y6425414D02*
X34424028Y6473033D01*
X34424028Y6473033D02*
X34385932Y6568271D01*
X34385932Y6568271D02*
X34385932Y6663509D01*
X34385932Y6663509D02*
X34424028Y6758747D01*
X34424028Y6758747D02*
X34462123Y6806366D01*
X34462123Y6806366D02*
X34538313Y6853985D01*
X34538313Y6853985D02*
X34728790Y6853985D01*
X34728790Y6853985D02*
X34843075Y6806366D01*
X35643076Y5949224D02*
X35604980Y5901604D01*
X35604980Y5901604D02*
X35490695Y5853985D01*
X35490695Y5853985D02*
X35414504Y5853985D01*
X35414504Y5853985D02*
X35300218Y5901604D01*
X35300218Y5901604D02*
X35224028Y5996843D01*
X35224028Y5996843D02*
X35185933Y6092081D01*
X35185933Y6092081D02*
X35147837Y6282557D01*
X35147837Y6282557D02*
X35147837Y6425414D01*
X35147837Y6425414D02*
X35185933Y6615890D01*
X35185933Y6615890D02*
X35224028Y6711128D01*
X35224028Y6711128D02*
X35300218Y6806366D01*
X35300218Y6806366D02*
X35414504Y6853985D01*
X35414504Y6853985D02*
X35490695Y6853985D01*
X35490695Y6853985D02*
X35604980Y6806366D01*
X35604980Y6806366D02*
X35643076Y6758747D01*
X36366885Y5853985D02*
X35985933Y5853985D01*
X35985933Y5853985D02*
X35985933Y6853985D01*
X37662123Y6806366D02*
X37585933Y6853985D01*
X37585933Y6853985D02*
X37471647Y6853985D01*
X37471647Y6853985D02*
X37357361Y6806366D01*
X37357361Y6806366D02*
X37281171Y6711128D01*
X37281171Y6711128D02*
X37243076Y6615890D01*
X37243076Y6615890D02*
X37204980Y6425414D01*
X37204980Y6425414D02*
X37204980Y6282557D01*
X37204980Y6282557D02*
X37243076Y6092081D01*
X37243076Y6092081D02*
X37281171Y5996843D01*
X37281171Y5996843D02*
X37357361Y5901604D01*
X37357361Y5901604D02*
X37471647Y5853985D01*
X37471647Y5853985D02*
X37547838Y5853985D01*
X37547838Y5853985D02*
X37662123Y5901604D01*
X37662123Y5901604D02*
X37700219Y5949224D01*
X37700219Y5949224D02*
X37700219Y6282557D01*
X37700219Y6282557D02*
X37547838Y6282557D01*
X38043076Y5853985D02*
X38043076Y6853985D01*
X38043076Y6853985D02*
X38500219Y5853985D01*
X38500219Y5853985D02*
X38500219Y6853985D01*
X38881171Y5853985D02*
X38881171Y6853985D01*
X38881171Y6853985D02*
X39071647Y6853985D01*
X39071647Y6853985D02*
X39185933Y6806366D01*
X39185933Y6806366D02*
X39262123Y6711128D01*
X39262123Y6711128D02*
X39300218Y6615890D01*
X39300218Y6615890D02*
X39338314Y6425414D01*
X39338314Y6425414D02*
X39338314Y6282557D01*
X39338314Y6282557D02*
X39300218Y6092081D01*
X39300218Y6092081D02*
X39262123Y5996843D01*
X39262123Y5996843D02*
X39185933Y5901604D01*
X39185933Y5901604D02*
X39071647Y5853985D01*
X39071647Y5853985D02*
X38881171Y5853985D01*
X28484824Y25152163D02*
X29984824Y24795020D01*
X29984824Y24795020D02*
X28913396Y24509306D01*
X28913396Y24509306D02*
X29984824Y24223591D01*
X29984824Y24223591D02*
X28484824Y23866448D01*
X28484824Y22366448D02*
X29984824Y21866448D01*
X29984824Y21866448D02*
X28484824Y21366448D01*
X28484824Y19723592D02*
X29699110Y19723592D01*
X29699110Y19723592D02*
X29841967Y19652163D01*
X29841967Y19652163D02*
X29913396Y19580734D01*
X29913396Y19580734D02*
X29984824Y19437877D01*
X29984824Y19437877D02*
X29984824Y19152163D01*
X29984824Y19152163D02*
X29913396Y19009306D01*
X29913396Y19009306D02*
X29841967Y18937877D01*
X29841967Y18937877D02*
X29699110Y18866449D01*
X29699110Y18866449D02*
X28484824Y18866449D01*
X21899110Y20040000D02*
X21970538Y20254286D01*
X21970538Y20254286D02*
X22041967Y20325715D01*
X22041967Y20325715D02*
X22184824Y20397143D01*
X22184824Y20397143D02*
X22399110Y20397143D01*
X22399110Y20397143D02*
X22541967Y20325715D01*
X22541967Y20325715D02*
X22613396Y20254286D01*
X22613396Y20254286D02*
X22684824Y20111429D01*
X22684824Y20111429D02*
X22684824Y19540000D01*
X22684824Y19540000D02*
X21184824Y19540000D01*
X21184824Y19540000D02*
X21184824Y20040000D01*
X21184824Y20040000D02*
X21256253Y20182857D01*
X21256253Y20182857D02*
X21327681Y20254286D01*
X21327681Y20254286D02*
X21470538Y20325715D01*
X21470538Y20325715D02*
X21613396Y20325715D01*
X21613396Y20325715D02*
X21756253Y20254286D01*
X21756253Y20254286D02*
X21827681Y20182857D01*
X21827681Y20182857D02*
X21899110Y20040000D01*
X21899110Y20040000D02*
X21899110Y19540000D01*
X22684824Y21754286D02*
X22684824Y21040000D01*
X22684824Y21040000D02*
X21184824Y21040000D01*
X22684824Y22254286D02*
X21184824Y22254286D01*
X21184824Y22254286D02*
X21184824Y22611429D01*
X21184824Y22611429D02*
X21256253Y22825715D01*
X21256253Y22825715D02*
X21399110Y22968572D01*
X21399110Y22968572D02*
X21541967Y23040001D01*
X21541967Y23040001D02*
X21827681Y23111429D01*
X21827681Y23111429D02*
X22041967Y23111429D01*
X22041967Y23111429D02*
X22327681Y23040001D01*
X22327681Y23040001D02*
X22470538Y22968572D01*
X22470538Y22968572D02*
X22613396Y22825715D01*
X22613396Y22825715D02*
X22684824Y22611429D01*
X22684824Y22611429D02*
X22684824Y22254286D01*
X22541967Y24611429D02*
X22613396Y24540001D01*
X22613396Y24540001D02*
X22684824Y24325715D01*
X22684824Y24325715D02*
X22684824Y24182858D01*
X22684824Y24182858D02*
X22613396Y23968572D01*
X22613396Y23968572D02*
X22470538Y23825715D01*
X22470538Y23825715D02*
X22327681Y23754286D01*
X22327681Y23754286D02*
X22041967Y23682858D01*
X22041967Y23682858D02*
X21827681Y23682858D01*
X21827681Y23682858D02*
X21541967Y23754286D01*
X21541967Y23754286D02*
X21399110Y23825715D01*
X21399110Y23825715D02*
X21256253Y23968572D01*
X21256253Y23968572D02*
X21184824Y24182858D01*
X21184824Y24182858D02*
X21184824Y24325715D01*
X21184824Y24325715D02*
X21256253Y24540001D01*
X21256253Y24540001D02*
X21327681Y24611429D01*
X18134824Y30852163D02*
X19634824Y30495020D01*
X19634824Y30495020D02*
X18563396Y30209306D01*
X18563396Y30209306D02*
X19634824Y29923591D01*
X19634824Y29923591D02*
X18134824Y29566448D01*
X18134824Y25780734D02*
X19634824Y25280734D01*
X19634824Y25280734D02*
X18134824Y24780734D01*
X18134824Y20852164D02*
X19349110Y20852164D01*
X19349110Y20852164D02*
X19491967Y20780735D01*
X19491967Y20780735D02*
X19563396Y20709306D01*
X19563396Y20709306D02*
X19634824Y20566449D01*
X19634824Y20566449D02*
X19634824Y20280735D01*
X19634824Y20280735D02*
X19563396Y20137878D01*
X19563396Y20137878D02*
X19491967Y20066449D01*
X19491967Y20066449D02*
X19349110Y19995021D01*
X19349110Y19995021D02*
X18134824Y19995021D01*
X14031905Y5958985D02*
X14031905Y6958985D01*
X14031905Y6958985D02*
X14222381Y6958985D01*
X14222381Y6958985D02*
X14336667Y6911366D01*
X14336667Y6911366D02*
X14412857Y6816128D01*
X14412857Y6816128D02*
X14450952Y6720890D01*
X14450952Y6720890D02*
X14489048Y6530414D01*
X14489048Y6530414D02*
X14489048Y6387557D01*
X14489048Y6387557D02*
X14450952Y6197081D01*
X14450952Y6197081D02*
X14412857Y6101843D01*
X14412857Y6101843D02*
X14336667Y6006604D01*
X14336667Y6006604D02*
X14222381Y5958985D01*
X14222381Y5958985D02*
X14031905Y5958985D01*
X14831905Y5958985D02*
X14831905Y6958985D01*
X15670000Y5958985D02*
X15403333Y6435176D01*
X15212857Y5958985D02*
X15212857Y6958985D01*
X15212857Y6958985D02*
X15517619Y6958985D01*
X15517619Y6958985D02*
X15593809Y6911366D01*
X15593809Y6911366D02*
X15631904Y6863747D01*
X15631904Y6863747D02*
X15670000Y6768509D01*
X15670000Y6768509D02*
X15670000Y6625652D01*
X15670000Y6625652D02*
X15631904Y6530414D01*
X15631904Y6530414D02*
X15593809Y6482795D01*
X15593809Y6482795D02*
X15517619Y6435176D01*
X15517619Y6435176D02*
X15212857Y6435176D01*
X16584285Y6006604D02*
X16698571Y5958985D01*
X16698571Y5958985D02*
X16889047Y5958985D01*
X16889047Y5958985D02*
X16965238Y6006604D01*
X16965238Y6006604D02*
X17003333Y6054224D01*
X17003333Y6054224D02*
X17041428Y6149462D01*
X17041428Y6149462D02*
X17041428Y6244700D01*
X17041428Y6244700D02*
X17003333Y6339938D01*
X17003333Y6339938D02*
X16965238Y6387557D01*
X16965238Y6387557D02*
X16889047Y6435176D01*
X16889047Y6435176D02*
X16736666Y6482795D01*
X16736666Y6482795D02*
X16660476Y6530414D01*
X16660476Y6530414D02*
X16622381Y6578033D01*
X16622381Y6578033D02*
X16584285Y6673271D01*
X16584285Y6673271D02*
X16584285Y6768509D01*
X16584285Y6768509D02*
X16622381Y6863747D01*
X16622381Y6863747D02*
X16660476Y6911366D01*
X16660476Y6911366D02*
X16736666Y6958985D01*
X16736666Y6958985D02*
X16927143Y6958985D01*
X16927143Y6958985D02*
X17041428Y6911366D01*
X17270000Y6958985D02*
X17727143Y6958985D01*
X17498571Y5958985D02*
X17498571Y6958985D01*
X17993810Y5958985D02*
X17993810Y6958985D01*
X17993810Y6958985D02*
X18298572Y6958985D01*
X18298572Y6958985D02*
X18374762Y6911366D01*
X18374762Y6911366D02*
X18412857Y6863747D01*
X18412857Y6863747D02*
X18450953Y6768509D01*
X18450953Y6768509D02*
X18450953Y6625652D01*
X18450953Y6625652D02*
X18412857Y6530414D01*
X18412857Y6530414D02*
X18374762Y6482795D01*
X18374762Y6482795D02*
X18298572Y6435176D01*
X18298572Y6435176D02*
X17993810Y6435176D01*
X19670000Y6482795D02*
X19403334Y6482795D01*
X19403334Y5958985D02*
X19403334Y6958985D01*
X19403334Y6958985D02*
X19784286Y6958985D01*
X20508095Y6911366D02*
X20431905Y6958985D01*
X20431905Y6958985D02*
X20317619Y6958985D01*
X20317619Y6958985D02*
X20203333Y6911366D01*
X20203333Y6911366D02*
X20127143Y6816128D01*
X20127143Y6816128D02*
X20089048Y6720890D01*
X20089048Y6720890D02*
X20050952Y6530414D01*
X20050952Y6530414D02*
X20050952Y6387557D01*
X20050952Y6387557D02*
X20089048Y6197081D01*
X20089048Y6197081D02*
X20127143Y6101843D01*
X20127143Y6101843D02*
X20203333Y6006604D01*
X20203333Y6006604D02*
X20317619Y5958985D01*
X20317619Y5958985D02*
X20393810Y5958985D01*
X20393810Y5958985D02*
X20508095Y6006604D01*
X20508095Y6006604D02*
X20546191Y6054224D01*
X20546191Y6054224D02*
X20546191Y6387557D01*
X20546191Y6387557D02*
X20393810Y6387557D01*
D12*
X41885266Y39766102D02*
X41885266Y40756578D01*
X41142409Y42056579D02*
X41080504Y41932769D01*
X41080504Y41932769D02*
X41080504Y41747055D01*
X41080504Y41747055D02*
X41142409Y41561341D01*
X41142409Y41561341D02*
X41266219Y41437531D01*
X41266219Y41437531D02*
X41390028Y41375626D01*
X41390028Y41375626D02*
X41637647Y41313722D01*
X41637647Y41313722D02*
X41823361Y41313722D01*
X41823361Y41313722D02*
X42070980Y41375626D01*
X42070980Y41375626D02*
X42194790Y41437531D01*
X42194790Y41437531D02*
X42318600Y41561341D01*
X42318600Y41561341D02*
X42380504Y41747055D01*
X42380504Y41747055D02*
X42380504Y41870864D01*
X42380504Y41870864D02*
X42318600Y42056579D01*
X42318600Y42056579D02*
X42256695Y42118483D01*
X42256695Y42118483D02*
X41823361Y42118483D01*
X41823361Y42118483D02*
X41823361Y41870864D01*
X42380504Y42675626D02*
X41080504Y42675626D01*
X41080504Y42675626D02*
X42380504Y43418483D01*
X42380504Y43418483D02*
X41080504Y43418483D01*
X42380504Y44037531D02*
X41080504Y44037531D01*
X41080504Y44037531D02*
X41080504Y44347055D01*
X41080504Y44347055D02*
X41142409Y44532769D01*
X41142409Y44532769D02*
X41266219Y44656579D01*
X41266219Y44656579D02*
X41390028Y44718484D01*
X41390028Y44718484D02*
X41637647Y44780388D01*
X41637647Y44780388D02*
X41823361Y44780388D01*
X41823361Y44780388D02*
X42070980Y44718484D01*
X42070980Y44718484D02*
X42194790Y44656579D01*
X42194790Y44656579D02*
X42318600Y44532769D01*
X42318600Y44532769D02*
X42380504Y44347055D01*
X42380504Y44347055D02*
X42380504Y44037531D01*
D13*
X43132304Y22304763D02*
X41832304Y22304763D01*
X41832304Y22304763D02*
X41832304Y22614287D01*
X41832304Y22614287D02*
X41894209Y22800001D01*
X41894209Y22800001D02*
X42018019Y22923811D01*
X42018019Y22923811D02*
X42141828Y22985716D01*
X42141828Y22985716D02*
X42389447Y23047620D01*
X42389447Y23047620D02*
X42575161Y23047620D01*
X42575161Y23047620D02*
X42822780Y22985716D01*
X42822780Y22985716D02*
X42946590Y22923811D01*
X42946590Y22923811D02*
X43070400Y22800001D01*
X43070400Y22800001D02*
X43132304Y22614287D01*
X43132304Y22614287D02*
X43132304Y22304763D01*
X43132304Y24347620D02*
X42513257Y23914287D01*
X43132304Y23604763D02*
X41832304Y23604763D01*
X41832304Y23604763D02*
X41832304Y24100001D01*
X41832304Y24100001D02*
X41894209Y24223811D01*
X41894209Y24223811D02*
X41956114Y24285716D01*
X41956114Y24285716D02*
X42079923Y24347620D01*
X42079923Y24347620D02*
X42265638Y24347620D01*
X42265638Y24347620D02*
X42389447Y24285716D01*
X42389447Y24285716D02*
X42451352Y24223811D01*
X42451352Y24223811D02*
X42513257Y24100001D01*
X42513257Y24100001D02*
X42513257Y23604763D01*
X41832304Y24719049D02*
X43132304Y25152382D01*
X43132304Y25152382D02*
X41832304Y25585716D01*
X43132304Y26700002D02*
X43132304Y25957145D01*
X43132304Y26328573D02*
X41832304Y26328573D01*
X41832304Y26328573D02*
X42018019Y26204764D01*
X42018019Y26204764D02*
X42141828Y26080954D01*
X42141828Y26080954D02*
X42203733Y25957145D01*
X41832304Y27504763D02*
X41832304Y27628573D01*
X41832304Y27628573D02*
X41894209Y27752382D01*
X41894209Y27752382D02*
X41956114Y27814287D01*
X41956114Y27814287D02*
X42079923Y27876192D01*
X42079923Y27876192D02*
X42327542Y27938097D01*
X42327542Y27938097D02*
X42637066Y27938097D01*
X42637066Y27938097D02*
X42884685Y27876192D01*
X42884685Y27876192D02*
X43008495Y27814287D01*
X43008495Y27814287D02*
X43070400Y27752382D01*
X43070400Y27752382D02*
X43132304Y27628573D01*
X43132304Y27628573D02*
X43132304Y27504763D01*
X43132304Y27504763D02*
X43070400Y27380954D01*
X43070400Y27380954D02*
X43008495Y27319049D01*
X43008495Y27319049D02*
X42884685Y27257144D01*
X42884685Y27257144D02*
X42637066Y27195240D01*
X42637066Y27195240D02*
X42327542Y27195240D01*
X42327542Y27195240D02*
X42079923Y27257144D01*
X42079923Y27257144D02*
X41956114Y27319049D01*
X41956114Y27319049D02*
X41894209Y27380954D01*
X41894209Y27380954D02*
X41832304Y27504763D01*
X43132304Y28557144D02*
X43132304Y28804763D01*
X43132304Y28804763D02*
X43070400Y28928573D01*
X43070400Y28928573D02*
X43008495Y28990477D01*
X43008495Y28990477D02*
X42822780Y29114287D01*
X42822780Y29114287D02*
X42575161Y29176192D01*
X42575161Y29176192D02*
X42079923Y29176192D01*
X42079923Y29176192D02*
X41956114Y29114287D01*
X41956114Y29114287D02*
X41894209Y29052382D01*
X41894209Y29052382D02*
X41832304Y28928573D01*
X41832304Y28928573D02*
X41832304Y28680954D01*
X41832304Y28680954D02*
X41894209Y28557144D01*
X41894209Y28557144D02*
X41956114Y28495239D01*
X41956114Y28495239D02*
X42079923Y28433335D01*
X42079923Y28433335D02*
X42389447Y28433335D01*
X42389447Y28433335D02*
X42513257Y28495239D01*
X42513257Y28495239D02*
X42575161Y28557144D01*
X42575161Y28557144D02*
X42637066Y28680954D01*
X42637066Y28680954D02*
X42637066Y28928573D01*
X42637066Y28928573D02*
X42575161Y29052382D01*
X42575161Y29052382D02*
X42513257Y29114287D01*
X42513257Y29114287D02*
X42389447Y29176192D01*
X42389447Y29919049D02*
X42327542Y29795239D01*
X42327542Y29795239D02*
X42265638Y29733334D01*
X42265638Y29733334D02*
X42141828Y29671430D01*
X42141828Y29671430D02*
X42079923Y29671430D01*
X42079923Y29671430D02*
X41956114Y29733334D01*
X41956114Y29733334D02*
X41894209Y29795239D01*
X41894209Y29795239D02*
X41832304Y29919049D01*
X41832304Y29919049D02*
X41832304Y30166668D01*
X41832304Y30166668D02*
X41894209Y30290477D01*
X41894209Y30290477D02*
X41956114Y30352382D01*
X41956114Y30352382D02*
X42079923Y30414287D01*
X42079923Y30414287D02*
X42141828Y30414287D01*
X42141828Y30414287D02*
X42265638Y30352382D01*
X42265638Y30352382D02*
X42327542Y30290477D01*
X42327542Y30290477D02*
X42389447Y30166668D01*
X42389447Y30166668D02*
X42389447Y29919049D01*
X42389447Y29919049D02*
X42451352Y29795239D01*
X42451352Y29795239D02*
X42513257Y29733334D01*
X42513257Y29733334D02*
X42637066Y29671430D01*
X42637066Y29671430D02*
X42884685Y29671430D01*
X42884685Y29671430D02*
X43008495Y29733334D01*
X43008495Y29733334D02*
X43070400Y29795239D01*
X43070400Y29795239D02*
X43132304Y29919049D01*
X43132304Y29919049D02*
X43132304Y30166668D01*
X43132304Y30166668D02*
X43070400Y30290477D01*
X43070400Y30290477D02*
X43008495Y30352382D01*
X43008495Y30352382D02*
X42884685Y30414287D01*
X42884685Y30414287D02*
X42637066Y30414287D01*
X42637066Y30414287D02*
X42513257Y30352382D01*
X42513257Y30352382D02*
X42451352Y30290477D01*
X42451352Y30290477D02*
X42389447Y30166668D01*
X41832304Y30847620D02*
X41832304Y31714286D01*
X41832304Y31714286D02*
X43132304Y31157144D01*
X41832304Y32023810D02*
X43132304Y32457143D01*
X43132304Y32457143D02*
X41832304Y32890477D01*
X41832304Y33571429D02*
X41832304Y33695239D01*
X41832304Y33695239D02*
X41894209Y33819048D01*
X41894209Y33819048D02*
X41956114Y33880953D01*
X41956114Y33880953D02*
X42079923Y33942858D01*
X42079923Y33942858D02*
X42327542Y34004763D01*
X42327542Y34004763D02*
X42637066Y34004763D01*
X42637066Y34004763D02*
X42884685Y33942858D01*
X42884685Y33942858D02*
X43008495Y33880953D01*
X43008495Y33880953D02*
X43070400Y33819048D01*
X43070400Y33819048D02*
X43132304Y33695239D01*
X43132304Y33695239D02*
X43132304Y33571429D01*
X43132304Y33571429D02*
X43070400Y33447620D01*
X43070400Y33447620D02*
X43008495Y33385715D01*
X43008495Y33385715D02*
X42884685Y33323810D01*
X42884685Y33323810D02*
X42637066Y33261906D01*
X42637066Y33261906D02*
X42327542Y33261906D01*
X42327542Y33261906D02*
X42079923Y33323810D01*
X42079923Y33323810D02*
X41956114Y33385715D01*
X41956114Y33385715D02*
X41894209Y33447620D01*
X41894209Y33447620D02*
X41832304Y33571429D01*
X43132304Y35242858D02*
X43132304Y34500001D01*
X43132304Y34871429D02*
X41832304Y34871429D01*
X41832304Y34871429D02*
X42018019Y34747620D01*
X42018019Y34747620D02*
X42141828Y34623810D01*
X42141828Y34623810D02*
X42203733Y34500001D01*
X42760876Y35738096D02*
X42760876Y36357143D01*
X43132304Y35614286D02*
X41832304Y36047619D01*
X41832304Y36047619D02*
X43132304Y36480953D01*
X45225304Y22552382D02*
X44358638Y22552382D01*
X44482447Y22552382D02*
X44420542Y22614287D01*
X44420542Y22614287D02*
X44358638Y22738097D01*
X44358638Y22738097D02*
X44358638Y22923811D01*
X44358638Y22923811D02*
X44420542Y23047620D01*
X44420542Y23047620D02*
X44544352Y23109525D01*
X44544352Y23109525D02*
X45225304Y23109525D01*
X44544352Y23109525D02*
X44420542Y23171430D01*
X44420542Y23171430D02*
X44358638Y23295239D01*
X44358638Y23295239D02*
X44358638Y23480954D01*
X44358638Y23480954D02*
X44420542Y23604763D01*
X44420542Y23604763D02*
X44544352Y23666668D01*
X44544352Y23666668D02*
X45225304Y23666668D01*
X45225304Y24471430D02*
X45163400Y24347620D01*
X45163400Y24347620D02*
X45039590Y24285715D01*
X45039590Y24285715D02*
X43925304Y24285715D01*
X45225304Y25523810D02*
X44544352Y25523810D01*
X44544352Y25523810D02*
X44420542Y25461905D01*
X44420542Y25461905D02*
X44358638Y25338096D01*
X44358638Y25338096D02*
X44358638Y25090477D01*
X44358638Y25090477D02*
X44420542Y24966667D01*
X45163400Y25523810D02*
X45225304Y25400001D01*
X45225304Y25400001D02*
X45225304Y25090477D01*
X45225304Y25090477D02*
X45163400Y24966667D01*
X45163400Y24966667D02*
X45039590Y24904763D01*
X45039590Y24904763D02*
X44915780Y24904763D01*
X44915780Y24904763D02*
X44791971Y24966667D01*
X44791971Y24966667D02*
X44730066Y25090477D01*
X44730066Y25090477D02*
X44730066Y25400001D01*
X44730066Y25400001D02*
X44668161Y25523810D01*
X45225304Y26142857D02*
X43925304Y26142857D01*
X44420542Y26142857D02*
X44358638Y26266667D01*
X44358638Y26266667D02*
X44358638Y26514286D01*
X44358638Y26514286D02*
X44420542Y26638095D01*
X44420542Y26638095D02*
X44482447Y26700000D01*
X44482447Y26700000D02*
X44606257Y26761905D01*
X44606257Y26761905D02*
X44977685Y26761905D01*
X44977685Y26761905D02*
X45101495Y26700000D01*
X45101495Y26700000D02*
X45163400Y26638095D01*
X45163400Y26638095D02*
X45225304Y26514286D01*
X45225304Y26514286D02*
X45225304Y26266667D01*
X45225304Y26266667D02*
X45163400Y26142857D01*
X45101495Y27319047D02*
X45163400Y27380952D01*
X45163400Y27380952D02*
X45225304Y27319047D01*
X45225304Y27319047D02*
X45163400Y27257143D01*
X45163400Y27257143D02*
X45101495Y27319047D01*
X45101495Y27319047D02*
X45225304Y27319047D01*
X45163400Y28495238D02*
X45225304Y28371429D01*
X45225304Y28371429D02*
X45225304Y28123810D01*
X45225304Y28123810D02*
X45163400Y28000000D01*
X45163400Y28000000D02*
X45101495Y27938095D01*
X45101495Y27938095D02*
X44977685Y27876191D01*
X44977685Y27876191D02*
X44606257Y27876191D01*
X44606257Y27876191D02*
X44482447Y27938095D01*
X44482447Y27938095D02*
X44420542Y28000000D01*
X44420542Y28000000D02*
X44358638Y28123810D01*
X44358638Y28123810D02*
X44358638Y28371429D01*
X44358638Y28371429D02*
X44420542Y28495238D01*
X44358638Y28928572D02*
X44358638Y29609524D01*
X44358638Y29609524D02*
X45225304Y28928572D01*
X45225304Y28928572D02*
X45225304Y29609524D01*
X45163400Y30166667D02*
X45225304Y30166667D01*
X45225304Y30166667D02*
X45349114Y30104762D01*
X45349114Y30104762D02*
X45411019Y30042858D01*
X44049114Y31652382D02*
X43987209Y31714286D01*
X43987209Y31714286D02*
X43925304Y31838096D01*
X43925304Y31838096D02*
X43925304Y32147620D01*
X43925304Y32147620D02*
X43987209Y32271429D01*
X43987209Y32271429D02*
X44049114Y32333334D01*
X44049114Y32333334D02*
X44172923Y32395239D01*
X44172923Y32395239D02*
X44296733Y32395239D01*
X44296733Y32395239D02*
X44482447Y32333334D01*
X44482447Y32333334D02*
X45225304Y31590477D01*
X45225304Y31590477D02*
X45225304Y32395239D01*
X43925304Y33200000D02*
X43925304Y33323810D01*
X43925304Y33323810D02*
X43987209Y33447619D01*
X43987209Y33447619D02*
X44049114Y33509524D01*
X44049114Y33509524D02*
X44172923Y33571429D01*
X44172923Y33571429D02*
X44420542Y33633334D01*
X44420542Y33633334D02*
X44730066Y33633334D01*
X44730066Y33633334D02*
X44977685Y33571429D01*
X44977685Y33571429D02*
X45101495Y33509524D01*
X45101495Y33509524D02*
X45163400Y33447619D01*
X45163400Y33447619D02*
X45225304Y33323810D01*
X45225304Y33323810D02*
X45225304Y33200000D01*
X45225304Y33200000D02*
X45163400Y33076191D01*
X45163400Y33076191D02*
X45101495Y33014286D01*
X45101495Y33014286D02*
X44977685Y32952381D01*
X44977685Y32952381D02*
X44730066Y32890477D01*
X44730066Y32890477D02*
X44420542Y32890477D01*
X44420542Y32890477D02*
X44172923Y32952381D01*
X44172923Y32952381D02*
X44049114Y33014286D01*
X44049114Y33014286D02*
X43987209Y33076191D01*
X43987209Y33076191D02*
X43925304Y33200000D01*
X44049114Y34128572D02*
X43987209Y34190476D01*
X43987209Y34190476D02*
X43925304Y34314286D01*
X43925304Y34314286D02*
X43925304Y34623810D01*
X43925304Y34623810D02*
X43987209Y34747619D01*
X43987209Y34747619D02*
X44049114Y34809524D01*
X44049114Y34809524D02*
X44172923Y34871429D01*
X44172923Y34871429D02*
X44296733Y34871429D01*
X44296733Y34871429D02*
X44482447Y34809524D01*
X44482447Y34809524D02*
X45225304Y34066667D01*
X45225304Y34066667D02*
X45225304Y34871429D01*
X43925304Y35304762D02*
X43925304Y36109524D01*
X43925304Y36109524D02*
X44420542Y35676190D01*
X44420542Y35676190D02*
X44420542Y35861905D01*
X44420542Y35861905D02*
X44482447Y35985714D01*
X44482447Y35985714D02*
X44544352Y36047619D01*
X44544352Y36047619D02*
X44668161Y36109524D01*
X44668161Y36109524D02*
X44977685Y36109524D01*
X44977685Y36109524D02*
X45101495Y36047619D01*
X45101495Y36047619D02*
X45163400Y35985714D01*
X45163400Y35985714D02*
X45225304Y35861905D01*
X45225304Y35861905D02*
X45225304Y35490476D01*
X45225304Y35490476D02*
X45163400Y35366667D01*
X45163400Y35366667D02*
X45101495Y35304762D01*
D12*
X26335266Y39741102D02*
X26335266Y40731578D01*
X26830504Y40236340D02*
X25840028Y40236340D01*
X26830504Y42031579D02*
X26830504Y41288722D01*
X26830504Y41660150D02*
X25530504Y41660150D01*
X25530504Y41660150D02*
X25716219Y41536341D01*
X25716219Y41536341D02*
X25840028Y41412531D01*
X25840028Y41412531D02*
X25901933Y41288722D01*
X25654314Y42526817D02*
X25592409Y42588721D01*
X25592409Y42588721D02*
X25530504Y42712531D01*
X25530504Y42712531D02*
X25530504Y43022055D01*
X25530504Y43022055D02*
X25592409Y43145864D01*
X25592409Y43145864D02*
X25654314Y43207769D01*
X25654314Y43207769D02*
X25778123Y43269674D01*
X25778123Y43269674D02*
X25901933Y43269674D01*
X25901933Y43269674D02*
X26087647Y43207769D01*
X26087647Y43207769D02*
X26830504Y42464912D01*
X26830504Y42464912D02*
X26830504Y43269674D01*
X25530504Y43641102D02*
X26830504Y44074435D01*
X26830504Y44074435D02*
X25530504Y44507769D01*
D11*
X17143634Y34992857D02*
X17096015Y34921428D01*
X17096015Y34921428D02*
X17096015Y34814286D01*
X17096015Y34814286D02*
X17143634Y34707143D01*
X17143634Y34707143D02*
X17238872Y34635714D01*
X17238872Y34635714D02*
X17334110Y34600000D01*
X17334110Y34600000D02*
X17524586Y34564286D01*
X17524586Y34564286D02*
X17667443Y34564286D01*
X17667443Y34564286D02*
X17857919Y34600000D01*
X17857919Y34600000D02*
X17953157Y34635714D01*
X17953157Y34635714D02*
X18048396Y34707143D01*
X18048396Y34707143D02*
X18096015Y34814286D01*
X18096015Y34814286D02*
X18096015Y34885714D01*
X18096015Y34885714D02*
X18048396Y34992857D01*
X18048396Y34992857D02*
X18000776Y35028571D01*
X18000776Y35028571D02*
X17667443Y35028571D01*
X17667443Y35028571D02*
X17667443Y34885714D01*
X18096015Y35350000D02*
X17096015Y35350000D01*
X17096015Y35350000D02*
X18096015Y35778571D01*
X18096015Y35778571D02*
X17096015Y35778571D01*
X18096015Y36135714D02*
X17096015Y36135714D01*
X17096015Y36135714D02*
X17096015Y36314285D01*
X17096015Y36314285D02*
X17143634Y36421428D01*
X17143634Y36421428D02*
X17238872Y36492857D01*
X17238872Y36492857D02*
X17334110Y36528571D01*
X17334110Y36528571D02*
X17524586Y36564285D01*
X17524586Y36564285D02*
X17667443Y36564285D01*
X17667443Y36564285D02*
X17857919Y36528571D01*
X17857919Y36528571D02*
X17953157Y36492857D01*
X17953157Y36492857D02*
X18048396Y36421428D01*
X18048396Y36421428D02*
X18096015Y36314285D01*
X18096015Y36314285D02*
X18096015Y36135714D01*
X17715062Y38028572D02*
X17715062Y38600000D01*
X18096015Y38314286D02*
X17334110Y38314286D01*
X18096015Y39350000D02*
X18096015Y38921429D01*
X18096015Y39135714D02*
X17096015Y39135714D01*
X17096015Y39135714D02*
X17238872Y39064286D01*
X17238872Y39064286D02*
X17334110Y38992857D01*
X17334110Y38992857D02*
X17381729Y38921429D01*
X17191253Y39635715D02*
X17143634Y39671429D01*
X17143634Y39671429D02*
X17096015Y39742857D01*
X17096015Y39742857D02*
X17096015Y39921429D01*
X17096015Y39921429D02*
X17143634Y39992857D01*
X17143634Y39992857D02*
X17191253Y40028572D01*
X17191253Y40028572D02*
X17286491Y40064286D01*
X17286491Y40064286D02*
X17381729Y40064286D01*
X17381729Y40064286D02*
X17524586Y40028572D01*
X17524586Y40028572D02*
X18096015Y39600000D01*
X18096015Y39600000D02*
X18096015Y40064286D01*
X17096015Y40278572D02*
X18096015Y40528572D01*
X18096015Y40528572D02*
X17096015Y40778572D01*
X17143634Y42564287D02*
X17096015Y42492858D01*
X17096015Y42492858D02*
X17096015Y42385716D01*
X17096015Y42385716D02*
X17143634Y42278573D01*
X17143634Y42278573D02*
X17238872Y42207144D01*
X17238872Y42207144D02*
X17334110Y42171430D01*
X17334110Y42171430D02*
X17524586Y42135716D01*
X17524586Y42135716D02*
X17667443Y42135716D01*
X17667443Y42135716D02*
X17857919Y42171430D01*
X17857919Y42171430D02*
X17953157Y42207144D01*
X17953157Y42207144D02*
X18048396Y42278573D01*
X18048396Y42278573D02*
X18096015Y42385716D01*
X18096015Y42385716D02*
X18096015Y42457144D01*
X18096015Y42457144D02*
X18048396Y42564287D01*
X18048396Y42564287D02*
X18000776Y42600001D01*
X18000776Y42600001D02*
X17667443Y42600001D01*
X17667443Y42600001D02*
X17667443Y42457144D01*
X18096015Y42921430D02*
X17096015Y42921430D01*
X17096015Y42921430D02*
X18096015Y43350001D01*
X18096015Y43350001D02*
X17096015Y43350001D01*
X18096015Y43707144D02*
X17096015Y43707144D01*
X17096015Y43707144D02*
X17096015Y43885715D01*
X17096015Y43885715D02*
X17143634Y43992858D01*
X17143634Y43992858D02*
X17238872Y44064287D01*
X17238872Y44064287D02*
X17334110Y44100001D01*
X17334110Y44100001D02*
X17524586Y44135715D01*
X17524586Y44135715D02*
X17667443Y44135715D01*
X17667443Y44135715D02*
X17857919Y44100001D01*
X17857919Y44100001D02*
X17953157Y44064287D01*
X17953157Y44064287D02*
X18048396Y43992858D01*
X18048396Y43992858D02*
X18096015Y43885715D01*
X18096015Y43885715D02*
X18096015Y43707144D01*
D14*
X46715422Y22604511D02*
X46715422Y22033083D01*
X46715422Y22033083D02*
X47286851Y21975940D01*
X47286851Y21975940D02*
X47229708Y22033083D01*
X47229708Y22033083D02*
X47172565Y22147368D01*
X47172565Y22147368D02*
X47172565Y22433083D01*
X47172565Y22433083D02*
X47229708Y22547368D01*
X47229708Y22547368D02*
X47286851Y22604511D01*
X47286851Y22604511D02*
X47401137Y22661654D01*
X47401137Y22661654D02*
X47686851Y22661654D01*
X47686851Y22661654D02*
X47801137Y22604511D01*
X47801137Y22604511D02*
X47858280Y22547368D01*
X47858280Y22547368D02*
X47915422Y22433083D01*
X47915422Y22433083D02*
X47915422Y22147368D01*
X47915422Y22147368D02*
X47858280Y22033083D01*
X47858280Y22033083D02*
X47801137Y21975940D01*
X46715422Y23004511D02*
X47915422Y23404511D01*
X47915422Y23404511D02*
X46715422Y23804511D01*
X47915422Y25290225D02*
X47858280Y25175940D01*
X47858280Y25175940D02*
X47801137Y25118797D01*
X47801137Y25118797D02*
X47686851Y25061654D01*
X47686851Y25061654D02*
X47343994Y25061654D01*
X47343994Y25061654D02*
X47229708Y25118797D01*
X47229708Y25118797D02*
X47172565Y25175940D01*
X47172565Y25175940D02*
X47115422Y25290225D01*
X47115422Y25290225D02*
X47115422Y25461654D01*
X47115422Y25461654D02*
X47172565Y25575940D01*
X47172565Y25575940D02*
X47229708Y25633082D01*
X47229708Y25633082D02*
X47343994Y25690225D01*
X47343994Y25690225D02*
X47686851Y25690225D01*
X47686851Y25690225D02*
X47801137Y25633082D01*
X47801137Y25633082D02*
X47858280Y25575940D01*
X47858280Y25575940D02*
X47915422Y25461654D01*
X47915422Y25461654D02*
X47915422Y25290225D01*
X47115422Y26718796D02*
X47915422Y26718796D01*
X47115422Y26204511D02*
X47743994Y26204511D01*
X47743994Y26204511D02*
X47858280Y26261654D01*
X47858280Y26261654D02*
X47915422Y26375939D01*
X47915422Y26375939D02*
X47915422Y26547368D01*
X47915422Y26547368D02*
X47858280Y26661654D01*
X47858280Y26661654D02*
X47801137Y26718796D01*
X47115422Y27118796D02*
X47115422Y27575939D01*
X46715422Y27290225D02*
X47743994Y27290225D01*
X47743994Y27290225D02*
X47858280Y27347368D01*
X47858280Y27347368D02*
X47915422Y27461653D01*
X47915422Y27461653D02*
X47915422Y27575939D01*
X47115422Y27975939D02*
X48315422Y27975939D01*
X47172565Y27975939D02*
X47115422Y28090224D01*
X47115422Y28090224D02*
X47115422Y28318796D01*
X47115422Y28318796D02*
X47172565Y28433082D01*
X47172565Y28433082D02*
X47229708Y28490224D01*
X47229708Y28490224D02*
X47343994Y28547367D01*
X47343994Y28547367D02*
X47686851Y28547367D01*
X47686851Y28547367D02*
X47801137Y28490224D01*
X47801137Y28490224D02*
X47858280Y28433082D01*
X47858280Y28433082D02*
X47915422Y28318796D01*
X47915422Y28318796D02*
X47915422Y28090224D01*
X47915422Y28090224D02*
X47858280Y27975939D01*
X47115422Y29575938D02*
X47915422Y29575938D01*
X47115422Y29061653D02*
X47743994Y29061653D01*
X47743994Y29061653D02*
X47858280Y29118796D01*
X47858280Y29118796D02*
X47915422Y29233081D01*
X47915422Y29233081D02*
X47915422Y29404510D01*
X47915422Y29404510D02*
X47858280Y29518796D01*
X47858280Y29518796D02*
X47801137Y29575938D01*
X47115422Y29975938D02*
X47115422Y30433081D01*
X46715422Y30147367D02*
X47743994Y30147367D01*
X47743994Y30147367D02*
X47858280Y30204510D01*
X47858280Y30204510D02*
X47915422Y30318795D01*
X47915422Y30318795D02*
X47915422Y30433081D01*
X49847422Y22661654D02*
X49847422Y21975940D01*
X49847422Y22318797D02*
X48647422Y22318797D01*
X48647422Y22318797D02*
X48818851Y22204511D01*
X48818851Y22204511D02*
X48933137Y22090226D01*
X48933137Y22090226D02*
X48990280Y21975940D01*
X48647422Y23404511D02*
X48647422Y23518797D01*
X48647422Y23518797D02*
X48704565Y23633083D01*
X48704565Y23633083D02*
X48761708Y23690225D01*
X48761708Y23690225D02*
X48875994Y23747368D01*
X48875994Y23747368D02*
X49104565Y23804511D01*
X49104565Y23804511D02*
X49390280Y23804511D01*
X49390280Y23804511D02*
X49618851Y23747368D01*
X49618851Y23747368D02*
X49733137Y23690225D01*
X49733137Y23690225D02*
X49790280Y23633083D01*
X49790280Y23633083D02*
X49847422Y23518797D01*
X49847422Y23518797D02*
X49847422Y23404511D01*
X49847422Y23404511D02*
X49790280Y23290225D01*
X49790280Y23290225D02*
X49733137Y23233083D01*
X49733137Y23233083D02*
X49618851Y23175940D01*
X49618851Y23175940D02*
X49390280Y23118797D01*
X49390280Y23118797D02*
X49104565Y23118797D01*
X49104565Y23118797D02*
X48875994Y23175940D01*
X48875994Y23175940D02*
X48761708Y23233083D01*
X48761708Y23233083D02*
X48704565Y23290225D01*
X48704565Y23290225D02*
X48647422Y23404511D01*
X48647422Y24547368D02*
X48647422Y24661654D01*
X48647422Y24661654D02*
X48704565Y24775940D01*
X48704565Y24775940D02*
X48761708Y24833082D01*
X48761708Y24833082D02*
X48875994Y24890225D01*
X48875994Y24890225D02*
X49104565Y24947368D01*
X49104565Y24947368D02*
X49390280Y24947368D01*
X49390280Y24947368D02*
X49618851Y24890225D01*
X49618851Y24890225D02*
X49733137Y24833082D01*
X49733137Y24833082D02*
X49790280Y24775940D01*
X49790280Y24775940D02*
X49847422Y24661654D01*
X49847422Y24661654D02*
X49847422Y24547368D01*
X49847422Y24547368D02*
X49790280Y24433082D01*
X49790280Y24433082D02*
X49733137Y24375940D01*
X49733137Y24375940D02*
X49618851Y24318797D01*
X49618851Y24318797D02*
X49390280Y24261654D01*
X49390280Y24261654D02*
X49104565Y24261654D01*
X49104565Y24261654D02*
X48875994Y24318797D01*
X48875994Y24318797D02*
X48761708Y24375940D01*
X48761708Y24375940D02*
X48704565Y24433082D01*
X48704565Y24433082D02*
X48647422Y24547368D01*
X49847422Y26375940D02*
X49047422Y26375940D01*
X49161708Y26375940D02*
X49104565Y26433083D01*
X49104565Y26433083D02*
X49047422Y26547368D01*
X49047422Y26547368D02*
X49047422Y26718797D01*
X49047422Y26718797D02*
X49104565Y26833083D01*
X49104565Y26833083D02*
X49218851Y26890225D01*
X49218851Y26890225D02*
X49847422Y26890225D01*
X49218851Y26890225D02*
X49104565Y26947368D01*
X49104565Y26947368D02*
X49047422Y27061654D01*
X49047422Y27061654D02*
X49047422Y27233083D01*
X49047422Y27233083D02*
X49104565Y27347368D01*
X49104565Y27347368D02*
X49218851Y27404511D01*
X49218851Y27404511D02*
X49847422Y27404511D01*
X49504565Y27918797D02*
X49504565Y28490225D01*
X49847422Y27804511D02*
X48647422Y28204511D01*
X48647422Y28204511D02*
X49847422Y28604511D01*
X49747422Y34329511D02*
X49747422Y33758083D01*
X49747422Y33758083D02*
X50318851Y33700940D01*
X50318851Y33700940D02*
X50261708Y33758083D01*
X50261708Y33758083D02*
X50204565Y33872368D01*
X50204565Y33872368D02*
X50204565Y34158083D01*
X50204565Y34158083D02*
X50261708Y34272368D01*
X50261708Y34272368D02*
X50318851Y34329511D01*
X50318851Y34329511D02*
X50433137Y34386654D01*
X50433137Y34386654D02*
X50718851Y34386654D01*
X50718851Y34386654D02*
X50833137Y34329511D01*
X50833137Y34329511D02*
X50890280Y34272368D01*
X50890280Y34272368D02*
X50947422Y34158083D01*
X50947422Y34158083D02*
X50947422Y33872368D01*
X50947422Y33872368D02*
X50890280Y33758083D01*
X50890280Y33758083D02*
X50833137Y33700940D01*
X49747422Y34729511D02*
X50947422Y35129511D01*
X50947422Y35129511D02*
X49747422Y35529511D01*
D15*
%TO.C,J11*%
X40510000Y43470000D02*
X40510000Y44710000D01*
X40510000Y44710000D02*
X39510000Y44710000D01*
X40270000Y30230000D02*
X40270000Y44470000D01*
X40270000Y30230000D02*
X27729000Y30230000D01*
X40270000Y34850000D02*
X37880000Y34850000D01*
X40270000Y37650000D02*
X27729000Y37650000D01*
X40270000Y43350000D02*
X27729000Y43350000D01*
X40270000Y44470000D02*
X27729000Y44470000D01*
X38650000Y30350000D02*
X38650000Y44350000D01*
X38650000Y30350000D02*
X33650000Y30350000D01*
X38650000Y44350000D02*
X33650000Y44350000D01*
X38150000Y38050000D02*
X38150000Y39050000D01*
X38150000Y38050000D02*
X34150000Y38050000D01*
X38150000Y39050000D02*
X34150000Y39050000D01*
X38150000Y39750000D02*
X38150000Y43050000D01*
X38150000Y39750000D02*
X34150000Y39750000D01*
X38150000Y43050000D02*
X34150000Y43050000D01*
X36650000Y30700000D02*
X36650000Y33199000D01*
X36650000Y30700000D02*
X35650000Y30700000D01*
X36650000Y33199000D02*
X35650000Y33199000D01*
X35650000Y30700000D02*
X35650000Y33199000D01*
X35420000Y34850000D02*
X32880000Y34850000D01*
X34150000Y38050000D02*
X34150000Y39050000D01*
X34150000Y39750000D02*
X34150000Y43050000D01*
X33650000Y30350000D02*
X33650000Y44350000D01*
X33650000Y30350000D02*
X33650000Y44350000D01*
X33650000Y30350000D02*
X28650000Y30350000D01*
X33650000Y44350000D02*
X28650000Y44350000D01*
X33150000Y38050000D02*
X33150000Y39050000D01*
X33150000Y38050000D02*
X29150000Y38050000D01*
X33150000Y39050000D02*
X29150000Y39050000D01*
X33150000Y39750000D02*
X33150000Y43050000D01*
X33150000Y39750000D02*
X29150000Y39750000D01*
X33150000Y43050000D02*
X29150000Y43050000D01*
X31650000Y30700000D02*
X31650000Y33199000D01*
X31650000Y30700000D02*
X30650000Y30700000D01*
X31650000Y33199000D02*
X30650000Y33199000D01*
X30650000Y30700000D02*
X30650000Y33199000D01*
X30420000Y34850000D02*
X27729000Y34850000D01*
X29150000Y38050000D02*
X29150000Y39050000D01*
X29150000Y39750000D02*
X29150000Y43050000D01*
X28650000Y30350000D02*
X28650000Y44350000D01*
X27729000Y30230000D02*
X27729000Y44470000D01*
D10*
%TO.C,J10*%
X43705000Y15430000D02*
X43705000Y20510000D01*
X51325000Y15430000D02*
X43705000Y15430000D01*
X43705000Y20510000D02*
X51325000Y20510000D01*
X51325000Y20510000D02*
X51325000Y15430000D01*
%TO.C,J2*%
X26130000Y7266250D02*
X26130000Y12346250D01*
X38830000Y7266250D02*
X26130000Y7266250D01*
X26130000Y12346250D02*
X38830000Y12346250D01*
X38830000Y12346250D02*
X38830000Y7266250D01*
%TO.C,J5*%
X13450000Y7255000D02*
X13450000Y12335000D01*
X21070000Y7255000D02*
X13450000Y7255000D01*
X13450000Y12335000D02*
X21070000Y12335000D01*
X21070000Y12335000D02*
X21070000Y7255000D01*
D15*
%TO.C,J12*%
X4305000Y34410000D02*
X3065000Y34410000D01*
X3065000Y34410000D02*
X3065000Y33410000D01*
X17545000Y34170000D02*
X3305000Y34170000D01*
X17545000Y34170000D02*
X17545000Y16630000D01*
X12925000Y34170000D02*
X12925000Y31780000D01*
X10125000Y34170000D02*
X10125000Y16630000D01*
X4425000Y34170000D02*
X4425000Y16630000D01*
X3305000Y34170000D02*
X3305000Y16630000D01*
X17425000Y32550000D02*
X3425000Y32550000D01*
X17425000Y32550000D02*
X17425000Y27550000D01*
X3425000Y32550000D02*
X3425000Y27550000D01*
X9725000Y32050000D02*
X8725000Y32050000D01*
X9725000Y32050000D02*
X9725000Y28050000D01*
X8725000Y32050000D02*
X8725000Y28050000D01*
X8025000Y32050000D02*
X4725000Y32050000D01*
X8025000Y32050000D02*
X8025000Y28050000D01*
X4725000Y32050000D02*
X4725000Y28050000D01*
X17075000Y30550000D02*
X14576000Y30550000D01*
X17075000Y30550000D02*
X17075000Y29550000D01*
X14576000Y30550000D02*
X14576000Y29550000D01*
X17075000Y29550000D02*
X14576000Y29550000D01*
X12925000Y29320000D02*
X12925000Y26780000D01*
X9725000Y28050000D02*
X8725000Y28050000D01*
X8025000Y28050000D02*
X4725000Y28050000D01*
X17425000Y27550000D02*
X3425000Y27550000D01*
X17425000Y27550000D02*
X3425000Y27550000D01*
X17425000Y27550000D02*
X17425000Y22550000D01*
X3425000Y27550000D02*
X3425000Y22550000D01*
X9725000Y27050000D02*
X8725000Y27050000D01*
X9725000Y27050000D02*
X9725000Y23050000D01*
X8725000Y27050000D02*
X8725000Y23050000D01*
X8025000Y27050000D02*
X4725000Y27050000D01*
X8025000Y27050000D02*
X8025000Y23050000D01*
X4725000Y27050000D02*
X4725000Y23050000D01*
X17075000Y25550000D02*
X14576000Y25550000D01*
X17075000Y25550000D02*
X17075000Y24550000D01*
X14576000Y25550000D02*
X14576000Y24550000D01*
X17075000Y24550000D02*
X14576000Y24550000D01*
X12925000Y24320000D02*
X12925000Y21780000D01*
X9725000Y23050000D02*
X8725000Y23050000D01*
X8025000Y23050000D02*
X4725000Y23050000D01*
X17425000Y22550000D02*
X3425000Y22550000D01*
X17425000Y22550000D02*
X3425000Y22550000D01*
X17425000Y22550000D02*
X17425000Y17550000D01*
X3425000Y22550000D02*
X3425000Y17550000D01*
X9725000Y22050000D02*
X8725000Y22050000D01*
X9725000Y22050000D02*
X9725000Y18050000D01*
X8725000Y22050000D02*
X8725000Y18050000D01*
X8025000Y22050000D02*
X4725000Y22050000D01*
X8025000Y22050000D02*
X8025000Y18050000D01*
X4725000Y22050000D02*
X4725000Y18050000D01*
X17075000Y20550000D02*
X14576000Y20550000D01*
X17075000Y20550000D02*
X17075000Y19550000D01*
X14576000Y20550000D02*
X14576000Y19550000D01*
X17075000Y19550000D02*
X14576000Y19550000D01*
X12925000Y19320000D02*
X12925000Y16630000D01*
X9725000Y18050000D02*
X8725000Y18050000D01*
X8025000Y18050000D02*
X4725000Y18050000D01*
X17425000Y17550000D02*
X3425000Y17550000D01*
X17545000Y16630000D02*
X3305000Y16630000D01*
D10*
%TO.C,J6*%
X28235000Y18230000D02*
X23155000Y18230000D01*
X28235000Y25850000D02*
X28235000Y18230000D01*
X23155000Y18230000D02*
X23155000Y25850000D01*
X23155000Y25850000D02*
X28235000Y25850000D01*
%TO.C,J3*%
X18930000Y44450000D02*
X24010000Y44450000D01*
X18930000Y34290000D02*
X18930000Y44450000D01*
X24010000Y44450000D02*
X24010000Y34290000D01*
X24010000Y34290000D02*
X18930000Y34290000D01*
%TD*%
D16*
%TO.C,J2*%
X27400000Y8536250D03*
X27400000Y11076250D03*
X29940000Y8536250D03*
X29940000Y11076250D03*
X32480000Y8536250D03*
X32480000Y11076250D03*
X35020000Y8536250D03*
X35020000Y11076250D03*
X37560000Y8536250D03*
X37560000Y11076250D03*
%TD*%
%TO.C,J3*%
X20200000Y43180000D03*
X22740000Y43180000D03*
X20200000Y40640000D03*
X22740000Y40640000D03*
X20200000Y38100000D03*
X22740000Y38100000D03*
X20200000Y35560000D03*
X22740000Y35560000D03*
%TD*%
M02*
