M48
; DRILL file {KiCad 7.0.5.1-1-g8f565ef7f0-dirty-deb11} date Fri Jun 30 12:05:40 2023
; FORMAT={3:3/ absolute / metric / suppress leading zeros}
; #@! TF.CreationDate,2023-06-30T12:05:40+00:00
; #@! TF.GenerationSoftware,Kicad,Pcbnew,7.0.5.1-1-g8f565ef7f0-dirty-deb11
; #@! TF.FileFunction,Plated,1,2,PTH
FMAT,2
METRIC,TZ
; #@! TA.AperFunction,Plated,PTH,ViaDrill
T1C0.400
; #@! TA.AperFunction,Plated,PTH,ComponentDrill
T2C0.889
; #@! TA.AperFunction,Plated,PTH,ComponentDrill
T3C1.150
; #@! TA.AperFunction,Plated,PTH,ComponentDrill
T4C3.000
%
G90
G05
T1
X7825Y30025
X9075Y30050
X18375Y19225
X22130Y25360
X22375Y16700
X23300Y15450
X23400Y24260
X23400Y23160
X23400Y22160
X23400Y21160
X23400Y20160
X23400Y19160
X24400Y24260
X24400Y23160
X24400Y22160
X24400Y21160
X24400Y20160
X24400Y19160
X24400Y18160
X24980Y27165
X25400Y24260
X25400Y23160
X25400Y22160
X25400Y21160
X25400Y20160
X25400Y19160
X25400Y18160
X25925Y38450
X26100Y29175
X26400Y24260
X26400Y23160
X26400Y22160
X26400Y21160
X26400Y20160
X26400Y19160
X26400Y18160
X27750Y16825
X28925Y40575
X29275Y17800
X30350Y34375
X30375Y30100
X31000Y13900
X33325Y13725
X34700Y26575
X35000Y13750
X42625Y31850
X42675Y18550
T2
X8145Y19240
X8145Y16700
X10685Y19240
X10685Y16700
X13225Y19240
X13225Y16700
X16275Y11075
X16275Y8535
X20640Y11076
X20640Y8536
X23180Y11076
X23180Y8536
X25720Y11076
X25720Y8536
X28260Y11076
X28260Y8536
X30800Y11076
X30800Y8536
X31235Y24580
X31235Y22040
X31235Y19500
X33775Y24580
X33775Y22040
X33775Y19500
X35460Y43180
X35460Y40640
X35460Y38100
X35460Y35560
X38000Y43180
X38000Y40640
X38000Y38100
X38000Y35560
X38400Y11065
X38400Y8525
X40940Y11065
X40940Y8525
X43480Y11065
X43480Y8525
T3
X21550Y35350
X26550Y35350
X45775Y30550
X45775Y25550
X45775Y20550
T4
X10160Y40640
X10160Y10160
X50800Y40640
X50800Y10160
T0
M30
