%TF.GenerationSoftware,KiCad,Pcbnew,7.0.5.1-1-g8f565ef7f0-dirty-deb11*%
%TF.CreationDate,2023-06-30T11:54:53+00:00*%
%TF.ProjectId,DRV10987V01,44525631-3039-4383-9756-30312e6b6963,01A*%
%TF.SameCoordinates,Original*%
%TF.FileFunction,Legend,Bot*%
%TF.FilePolarity,Positive*%
%FSLAX46Y46*%
G04 Gerber Fmt 4.6, Leading zero omitted, Abs format (unit mm)*
G04 Created by KiCad (PCBNEW 7.0.5.1-1-g8f565ef7f0-dirty-deb11) date 2023-06-30 11:54:53*
%MOMM*%
%LPD*%
G01*
G04 APERTURE LIST*
%ADD10C,0.150000*%
%ADD11C,0.127000*%
%ADD12C,0.200000*%
%ADD13C,0.300000*%
%ADD14C,0.110000*%
%ADD15C,0.120000*%
%ADD16R,1.524000X1.524000*%
G04 APERTURE END LIST*
D10*
X39625000Y41725000D02*
X39625000Y37000000D01*
D11*
X32156924Y6806366D02*
X32233114Y6853985D01*
X32233114Y6853985D02*
X32347400Y6853985D01*
X32347400Y6853985D02*
X32461686Y6806366D01*
X32461686Y6806366D02*
X32537876Y6711128D01*
X32537876Y6711128D02*
X32575971Y6615890D01*
X32575971Y6615890D02*
X32614067Y6425414D01*
X32614067Y6425414D02*
X32614067Y6282557D01*
X32614067Y6282557D02*
X32575971Y6092081D01*
X32575971Y6092081D02*
X32537876Y5996843D01*
X32537876Y5996843D02*
X32461686Y5901604D01*
X32461686Y5901604D02*
X32347400Y5853985D01*
X32347400Y5853985D02*
X32271209Y5853985D01*
X32271209Y5853985D02*
X32156924Y5901604D01*
X32156924Y5901604D02*
X32118828Y5949224D01*
X32118828Y5949224D02*
X32118828Y6282557D01*
X32118828Y6282557D02*
X32271209Y6282557D01*
X31775971Y5853985D02*
X31775971Y6853985D01*
X31775971Y6853985D02*
X31318828Y5853985D01*
X31318828Y5853985D02*
X31318828Y6853985D01*
X30937876Y5853985D02*
X30937876Y6853985D01*
X30937876Y6853985D02*
X30747400Y6853985D01*
X30747400Y6853985D02*
X30633114Y6806366D01*
X30633114Y6806366D02*
X30556924Y6711128D01*
X30556924Y6711128D02*
X30518829Y6615890D01*
X30518829Y6615890D02*
X30480733Y6425414D01*
X30480733Y6425414D02*
X30480733Y6282557D01*
X30480733Y6282557D02*
X30518829Y6092081D01*
X30518829Y6092081D02*
X30556924Y5996843D01*
X30556924Y5996843D02*
X30633114Y5901604D01*
X30633114Y5901604D02*
X30747400Y5853985D01*
X30747400Y5853985D02*
X30937876Y5853985D01*
X29566448Y5901604D02*
X29452162Y5853985D01*
X29452162Y5853985D02*
X29261686Y5853985D01*
X29261686Y5853985D02*
X29185495Y5901604D01*
X29185495Y5901604D02*
X29147400Y5949224D01*
X29147400Y5949224D02*
X29109305Y6044462D01*
X29109305Y6044462D02*
X29109305Y6139700D01*
X29109305Y6139700D02*
X29147400Y6234938D01*
X29147400Y6234938D02*
X29185495Y6282557D01*
X29185495Y6282557D02*
X29261686Y6330176D01*
X29261686Y6330176D02*
X29414067Y6377795D01*
X29414067Y6377795D02*
X29490257Y6425414D01*
X29490257Y6425414D02*
X29528352Y6473033D01*
X29528352Y6473033D02*
X29566448Y6568271D01*
X29566448Y6568271D02*
X29566448Y6663509D01*
X29566448Y6663509D02*
X29528352Y6758747D01*
X29528352Y6758747D02*
X29490257Y6806366D01*
X29490257Y6806366D02*
X29414067Y6853985D01*
X29414067Y6853985D02*
X29223590Y6853985D01*
X29223590Y6853985D02*
X29109305Y6806366D01*
X28766447Y5853985D02*
X28766447Y6853985D01*
X28766447Y6853985D02*
X28575971Y6853985D01*
X28575971Y6853985D02*
X28461685Y6806366D01*
X28461685Y6806366D02*
X28385495Y6711128D01*
X28385495Y6711128D02*
X28347400Y6615890D01*
X28347400Y6615890D02*
X28309304Y6425414D01*
X28309304Y6425414D02*
X28309304Y6282557D01*
X28309304Y6282557D02*
X28347400Y6092081D01*
X28347400Y6092081D02*
X28385495Y5996843D01*
X28385495Y5996843D02*
X28461685Y5901604D01*
X28461685Y5901604D02*
X28575971Y5853985D01*
X28575971Y5853985D02*
X28766447Y5853985D01*
X28004543Y6139700D02*
X27623590Y6139700D01*
X28080733Y5853985D02*
X27814066Y6853985D01*
X27814066Y6853985D02*
X27547400Y5853985D01*
X26785495Y6853985D02*
X26518828Y5853985D01*
X26518828Y5853985D02*
X26252162Y6853985D01*
X25528352Y5949224D02*
X25566448Y5901604D01*
X25566448Y5901604D02*
X25680733Y5853985D01*
X25680733Y5853985D02*
X25756924Y5853985D01*
X25756924Y5853985D02*
X25871210Y5901604D01*
X25871210Y5901604D02*
X25947400Y5996843D01*
X25947400Y5996843D02*
X25985495Y6092081D01*
X25985495Y6092081D02*
X26023591Y6282557D01*
X26023591Y6282557D02*
X26023591Y6425414D01*
X26023591Y6425414D02*
X25985495Y6615890D01*
X25985495Y6615890D02*
X25947400Y6711128D01*
X25947400Y6711128D02*
X25871210Y6806366D01*
X25871210Y6806366D02*
X25756924Y6853985D01*
X25756924Y6853985D02*
X25680733Y6853985D01*
X25680733Y6853985D02*
X25566448Y6806366D01*
X25566448Y6806366D02*
X25528352Y6758747D01*
X24728352Y5949224D02*
X24766448Y5901604D01*
X24766448Y5901604D02*
X24880733Y5853985D01*
X24880733Y5853985D02*
X24956924Y5853985D01*
X24956924Y5853985D02*
X25071210Y5901604D01*
X25071210Y5901604D02*
X25147400Y5996843D01*
X25147400Y5996843D02*
X25185495Y6092081D01*
X25185495Y6092081D02*
X25223591Y6282557D01*
X25223591Y6282557D02*
X25223591Y6425414D01*
X25223591Y6425414D02*
X25185495Y6615890D01*
X25185495Y6615890D02*
X25147400Y6711128D01*
X25147400Y6711128D02*
X25071210Y6806366D01*
X25071210Y6806366D02*
X24956924Y6853985D01*
X24956924Y6853985D02*
X24880733Y6853985D01*
X24880733Y6853985D02*
X24766448Y6806366D01*
X24766448Y6806366D02*
X24728352Y6758747D01*
X23814067Y5901604D02*
X23699781Y5853985D01*
X23699781Y5853985D02*
X23509305Y5853985D01*
X23509305Y5853985D02*
X23433114Y5901604D01*
X23433114Y5901604D02*
X23395019Y5949224D01*
X23395019Y5949224D02*
X23356924Y6044462D01*
X23356924Y6044462D02*
X23356924Y6139700D01*
X23356924Y6139700D02*
X23395019Y6234938D01*
X23395019Y6234938D02*
X23433114Y6282557D01*
X23433114Y6282557D02*
X23509305Y6330176D01*
X23509305Y6330176D02*
X23661686Y6377795D01*
X23661686Y6377795D02*
X23737876Y6425414D01*
X23737876Y6425414D02*
X23775971Y6473033D01*
X23775971Y6473033D02*
X23814067Y6568271D01*
X23814067Y6568271D02*
X23814067Y6663509D01*
X23814067Y6663509D02*
X23775971Y6758747D01*
X23775971Y6758747D02*
X23737876Y6806366D01*
X23737876Y6806366D02*
X23661686Y6853985D01*
X23661686Y6853985D02*
X23471209Y6853985D01*
X23471209Y6853985D02*
X23356924Y6806366D01*
X22556923Y5949224D02*
X22595019Y5901604D01*
X22595019Y5901604D02*
X22709304Y5853985D01*
X22709304Y5853985D02*
X22785495Y5853985D01*
X22785495Y5853985D02*
X22899781Y5901604D01*
X22899781Y5901604D02*
X22975971Y5996843D01*
X22975971Y5996843D02*
X23014066Y6092081D01*
X23014066Y6092081D02*
X23052162Y6282557D01*
X23052162Y6282557D02*
X23052162Y6425414D01*
X23052162Y6425414D02*
X23014066Y6615890D01*
X23014066Y6615890D02*
X22975971Y6711128D01*
X22975971Y6711128D02*
X22899781Y6806366D01*
X22899781Y6806366D02*
X22785495Y6853985D01*
X22785495Y6853985D02*
X22709304Y6853985D01*
X22709304Y6853985D02*
X22595019Y6806366D01*
X22595019Y6806366D02*
X22556923Y6758747D01*
X21833114Y5853985D02*
X22214066Y5853985D01*
X22214066Y5853985D02*
X22214066Y6853985D01*
X20537876Y6806366D02*
X20614066Y6853985D01*
X20614066Y6853985D02*
X20728352Y6853985D01*
X20728352Y6853985D02*
X20842638Y6806366D01*
X20842638Y6806366D02*
X20918828Y6711128D01*
X20918828Y6711128D02*
X20956923Y6615890D01*
X20956923Y6615890D02*
X20995019Y6425414D01*
X20995019Y6425414D02*
X20995019Y6282557D01*
X20995019Y6282557D02*
X20956923Y6092081D01*
X20956923Y6092081D02*
X20918828Y5996843D01*
X20918828Y5996843D02*
X20842638Y5901604D01*
X20842638Y5901604D02*
X20728352Y5853985D01*
X20728352Y5853985D02*
X20652161Y5853985D01*
X20652161Y5853985D02*
X20537876Y5901604D01*
X20537876Y5901604D02*
X20499780Y5949224D01*
X20499780Y5949224D02*
X20499780Y6282557D01*
X20499780Y6282557D02*
X20652161Y6282557D01*
X20156923Y5853985D02*
X20156923Y6853985D01*
X20156923Y6853985D02*
X19699780Y5853985D01*
X19699780Y5853985D02*
X19699780Y6853985D01*
X19318828Y5853985D02*
X19318828Y6853985D01*
X19318828Y6853985D02*
X19128352Y6853985D01*
X19128352Y6853985D02*
X19014066Y6806366D01*
X19014066Y6806366D02*
X18937876Y6711128D01*
X18937876Y6711128D02*
X18899781Y6615890D01*
X18899781Y6615890D02*
X18861685Y6425414D01*
X18861685Y6425414D02*
X18861685Y6282557D01*
X18861685Y6282557D02*
X18899781Y6092081D01*
X18899781Y6092081D02*
X18937876Y5996843D01*
X18937876Y5996843D02*
X19014066Y5901604D01*
X19014066Y5901604D02*
X19128352Y5853985D01*
X19128352Y5853985D02*
X19318828Y5853985D01*
X29715175Y25009306D02*
X28500889Y25009306D01*
X28500889Y25009306D02*
X28358032Y24937877D01*
X28358032Y24937877D02*
X28286604Y24866448D01*
X28286604Y24866448D02*
X28215175Y24723591D01*
X28215175Y24723591D02*
X28215175Y24437877D01*
X28215175Y24437877D02*
X28286604Y24295020D01*
X28286604Y24295020D02*
X28358032Y24223591D01*
X28358032Y24223591D02*
X28500889Y24152163D01*
X28500889Y24152163D02*
X29715175Y24152163D01*
X29715175Y22509305D02*
X28215175Y22009305D01*
X28215175Y22009305D02*
X29715175Y21509305D01*
X29715175Y20009306D02*
X28215175Y19652163D01*
X28215175Y19652163D02*
X29286604Y19366449D01*
X29286604Y19366449D02*
X28215175Y19080734D01*
X28215175Y19080734D02*
X29715175Y18723591D01*
X36300889Y20040000D02*
X36229461Y20254286D01*
X36229461Y20254286D02*
X36158032Y20325715D01*
X36158032Y20325715D02*
X36015175Y20397143D01*
X36015175Y20397143D02*
X35800889Y20397143D01*
X35800889Y20397143D02*
X35658032Y20325715D01*
X35658032Y20325715D02*
X35586604Y20254286D01*
X35586604Y20254286D02*
X35515175Y20111429D01*
X35515175Y20111429D02*
X35515175Y19540000D01*
X35515175Y19540000D02*
X37015175Y19540000D01*
X37015175Y19540000D02*
X37015175Y20040000D01*
X37015175Y20040000D02*
X36943746Y20182857D01*
X36943746Y20182857D02*
X36872318Y20254286D01*
X36872318Y20254286D02*
X36729461Y20325715D01*
X36729461Y20325715D02*
X36586604Y20325715D01*
X36586604Y20325715D02*
X36443746Y20254286D01*
X36443746Y20254286D02*
X36372318Y20182857D01*
X36372318Y20182857D02*
X36300889Y20040000D01*
X36300889Y20040000D02*
X36300889Y19540000D01*
X35515175Y21754286D02*
X35515175Y21040000D01*
X35515175Y21040000D02*
X37015175Y21040000D01*
X35515175Y22254286D02*
X37015175Y22254286D01*
X37015175Y22254286D02*
X37015175Y22611429D01*
X37015175Y22611429D02*
X36943746Y22825715D01*
X36943746Y22825715D02*
X36800889Y22968572D01*
X36800889Y22968572D02*
X36658032Y23040001D01*
X36658032Y23040001D02*
X36372318Y23111429D01*
X36372318Y23111429D02*
X36158032Y23111429D01*
X36158032Y23111429D02*
X35872318Y23040001D01*
X35872318Y23040001D02*
X35729461Y22968572D01*
X35729461Y22968572D02*
X35586604Y22825715D01*
X35586604Y22825715D02*
X35515175Y22611429D01*
X35515175Y22611429D02*
X35515175Y22254286D01*
X35658032Y24611429D02*
X35586604Y24540001D01*
X35586604Y24540001D02*
X35515175Y24325715D01*
X35515175Y24325715D02*
X35515175Y24182858D01*
X35515175Y24182858D02*
X35586604Y23968572D01*
X35586604Y23968572D02*
X35729461Y23825715D01*
X35729461Y23825715D02*
X35872318Y23754286D01*
X35872318Y23754286D02*
X36158032Y23682858D01*
X36158032Y23682858D02*
X36372318Y23682858D01*
X36372318Y23682858D02*
X36658032Y23754286D01*
X36658032Y23754286D02*
X36800889Y23825715D01*
X36800889Y23825715D02*
X36943746Y23968572D01*
X36943746Y23968572D02*
X37015175Y24182858D01*
X37015175Y24182858D02*
X37015175Y24325715D01*
X37015175Y24325715D02*
X36943746Y24540001D01*
X36943746Y24540001D02*
X36872318Y24611429D01*
X40065175Y30709306D02*
X38850889Y30709306D01*
X38850889Y30709306D02*
X38708032Y30637877D01*
X38708032Y30637877D02*
X38636604Y30566448D01*
X38636604Y30566448D02*
X38565175Y30423591D01*
X38565175Y30423591D02*
X38565175Y30137877D01*
X38565175Y30137877D02*
X38636604Y29995020D01*
X38636604Y29995020D02*
X38708032Y29923591D01*
X38708032Y29923591D02*
X38850889Y29852163D01*
X38850889Y29852163D02*
X40065175Y29852163D01*
X40065175Y25923591D02*
X38565175Y25423591D01*
X38565175Y25423591D02*
X40065175Y24923591D01*
X40065175Y21137878D02*
X38565175Y20780735D01*
X38565175Y20780735D02*
X39636604Y20495021D01*
X39636604Y20495021D02*
X38565175Y20209306D01*
X38565175Y20209306D02*
X40065175Y19852163D01*
X44168094Y5958985D02*
X44168094Y6958985D01*
X44168094Y6958985D02*
X43977618Y6958985D01*
X43977618Y6958985D02*
X43863332Y6911366D01*
X43863332Y6911366D02*
X43787142Y6816128D01*
X43787142Y6816128D02*
X43749047Y6720890D01*
X43749047Y6720890D02*
X43710951Y6530414D01*
X43710951Y6530414D02*
X43710951Y6387557D01*
X43710951Y6387557D02*
X43749047Y6197081D01*
X43749047Y6197081D02*
X43787142Y6101843D01*
X43787142Y6101843D02*
X43863332Y6006604D01*
X43863332Y6006604D02*
X43977618Y5958985D01*
X43977618Y5958985D02*
X44168094Y5958985D01*
X43368094Y5958985D02*
X43368094Y6958985D01*
X42529999Y5958985D02*
X42796666Y6435176D01*
X42987142Y5958985D02*
X42987142Y6958985D01*
X42987142Y6958985D02*
X42682380Y6958985D01*
X42682380Y6958985D02*
X42606190Y6911366D01*
X42606190Y6911366D02*
X42568095Y6863747D01*
X42568095Y6863747D02*
X42529999Y6768509D01*
X42529999Y6768509D02*
X42529999Y6625652D01*
X42529999Y6625652D02*
X42568095Y6530414D01*
X42568095Y6530414D02*
X42606190Y6482795D01*
X42606190Y6482795D02*
X42682380Y6435176D01*
X42682380Y6435176D02*
X42987142Y6435176D01*
X41615714Y6006604D02*
X41501428Y5958985D01*
X41501428Y5958985D02*
X41310952Y5958985D01*
X41310952Y5958985D02*
X41234761Y6006604D01*
X41234761Y6006604D02*
X41196666Y6054224D01*
X41196666Y6054224D02*
X41158571Y6149462D01*
X41158571Y6149462D02*
X41158571Y6244700D01*
X41158571Y6244700D02*
X41196666Y6339938D01*
X41196666Y6339938D02*
X41234761Y6387557D01*
X41234761Y6387557D02*
X41310952Y6435176D01*
X41310952Y6435176D02*
X41463333Y6482795D01*
X41463333Y6482795D02*
X41539523Y6530414D01*
X41539523Y6530414D02*
X41577618Y6578033D01*
X41577618Y6578033D02*
X41615714Y6673271D01*
X41615714Y6673271D02*
X41615714Y6768509D01*
X41615714Y6768509D02*
X41577618Y6863747D01*
X41577618Y6863747D02*
X41539523Y6911366D01*
X41539523Y6911366D02*
X41463333Y6958985D01*
X41463333Y6958985D02*
X41272856Y6958985D01*
X41272856Y6958985D02*
X41158571Y6911366D01*
X40929999Y6958985D02*
X40472856Y6958985D01*
X40701428Y5958985D02*
X40701428Y6958985D01*
X40206189Y5958985D02*
X40206189Y6958985D01*
X40206189Y6958985D02*
X39901427Y6958985D01*
X39901427Y6958985D02*
X39825237Y6911366D01*
X39825237Y6911366D02*
X39787142Y6863747D01*
X39787142Y6863747D02*
X39749046Y6768509D01*
X39749046Y6768509D02*
X39749046Y6625652D01*
X39749046Y6625652D02*
X39787142Y6530414D01*
X39787142Y6530414D02*
X39825237Y6482795D01*
X39825237Y6482795D02*
X39901427Y6435176D01*
X39901427Y6435176D02*
X40206189Y6435176D01*
X38529999Y6482795D02*
X38796665Y6482795D01*
X38796665Y5958985D02*
X38796665Y6958985D01*
X38796665Y6958985D02*
X38415713Y6958985D01*
X37691904Y6911366D02*
X37768094Y6958985D01*
X37768094Y6958985D02*
X37882380Y6958985D01*
X37882380Y6958985D02*
X37996666Y6911366D01*
X37996666Y6911366D02*
X38072856Y6816128D01*
X38072856Y6816128D02*
X38110951Y6720890D01*
X38110951Y6720890D02*
X38149047Y6530414D01*
X38149047Y6530414D02*
X38149047Y6387557D01*
X38149047Y6387557D02*
X38110951Y6197081D01*
X38110951Y6197081D02*
X38072856Y6101843D01*
X38072856Y6101843D02*
X37996666Y6006604D01*
X37996666Y6006604D02*
X37882380Y5958985D01*
X37882380Y5958985D02*
X37806189Y5958985D01*
X37806189Y5958985D02*
X37691904Y6006604D01*
X37691904Y6006604D02*
X37653808Y6054224D01*
X37653808Y6054224D02*
X37653808Y6387557D01*
X37653808Y6387557D02*
X37806189Y6387557D01*
D12*
X16314733Y39766102D02*
X16314733Y40756578D01*
X17057590Y42056579D02*
X17119495Y41932769D01*
X17119495Y41932769D02*
X17119495Y41747055D01*
X17119495Y41747055D02*
X17057590Y41561341D01*
X17057590Y41561341D02*
X16933780Y41437531D01*
X16933780Y41437531D02*
X16809971Y41375626D01*
X16809971Y41375626D02*
X16562352Y41313722D01*
X16562352Y41313722D02*
X16376638Y41313722D01*
X16376638Y41313722D02*
X16129019Y41375626D01*
X16129019Y41375626D02*
X16005209Y41437531D01*
X16005209Y41437531D02*
X15881400Y41561341D01*
X15881400Y41561341D02*
X15819495Y41747055D01*
X15819495Y41747055D02*
X15819495Y41870864D01*
X15819495Y41870864D02*
X15881400Y42056579D01*
X15881400Y42056579D02*
X15943304Y42118483D01*
X15943304Y42118483D02*
X16376638Y42118483D01*
X16376638Y42118483D02*
X16376638Y41870864D01*
X15819495Y42675626D02*
X17119495Y42675626D01*
X17119495Y42675626D02*
X15819495Y43418483D01*
X15819495Y43418483D02*
X17119495Y43418483D01*
X15819495Y44037531D02*
X17119495Y44037531D01*
X17119495Y44037531D02*
X17119495Y44347055D01*
X17119495Y44347055D02*
X17057590Y44532769D01*
X17057590Y44532769D02*
X16933780Y44656579D01*
X16933780Y44656579D02*
X16809971Y44718484D01*
X16809971Y44718484D02*
X16562352Y44780388D01*
X16562352Y44780388D02*
X16376638Y44780388D01*
X16376638Y44780388D02*
X16129019Y44718484D01*
X16129019Y44718484D02*
X16005209Y44656579D01*
X16005209Y44656579D02*
X15881400Y44532769D01*
X15881400Y44532769D02*
X15819495Y44347055D01*
X15819495Y44347055D02*
X15819495Y44037531D01*
D13*
X20317695Y13479763D02*
X21617695Y13479763D01*
X21617695Y13479763D02*
X21617695Y13789287D01*
X21617695Y13789287D02*
X21555790Y13975001D01*
X21555790Y13975001D02*
X21431980Y14098811D01*
X21431980Y14098811D02*
X21308171Y14160716D01*
X21308171Y14160716D02*
X21060552Y14222620D01*
X21060552Y14222620D02*
X20874838Y14222620D01*
X20874838Y14222620D02*
X20627219Y14160716D01*
X20627219Y14160716D02*
X20503409Y14098811D01*
X20503409Y14098811D02*
X20379600Y13975001D01*
X20379600Y13975001D02*
X20317695Y13789287D01*
X20317695Y13789287D02*
X20317695Y13479763D01*
X20317695Y15522620D02*
X20936742Y15089287D01*
X20317695Y14779763D02*
X21617695Y14779763D01*
X21617695Y14779763D02*
X21617695Y15275001D01*
X21617695Y15275001D02*
X21555790Y15398811D01*
X21555790Y15398811D02*
X21493885Y15460716D01*
X21493885Y15460716D02*
X21370076Y15522620D01*
X21370076Y15522620D02*
X21184361Y15522620D01*
X21184361Y15522620D02*
X21060552Y15460716D01*
X21060552Y15460716D02*
X20998647Y15398811D01*
X20998647Y15398811D02*
X20936742Y15275001D01*
X20936742Y15275001D02*
X20936742Y14779763D01*
X21617695Y15894049D02*
X20317695Y16327382D01*
X20317695Y16327382D02*
X21617695Y16760716D01*
X20317695Y17875002D02*
X20317695Y17132145D01*
X20317695Y17503573D02*
X21617695Y17503573D01*
X21617695Y17503573D02*
X21431980Y17379764D01*
X21431980Y17379764D02*
X21308171Y17255954D01*
X21308171Y17255954D02*
X21246266Y17132145D01*
X21617695Y18679763D02*
X21617695Y18803573D01*
X21617695Y18803573D02*
X21555790Y18927382D01*
X21555790Y18927382D02*
X21493885Y18989287D01*
X21493885Y18989287D02*
X21370076Y19051192D01*
X21370076Y19051192D02*
X21122457Y19113097D01*
X21122457Y19113097D02*
X20812933Y19113097D01*
X20812933Y19113097D02*
X20565314Y19051192D01*
X20565314Y19051192D02*
X20441504Y18989287D01*
X20441504Y18989287D02*
X20379600Y18927382D01*
X20379600Y18927382D02*
X20317695Y18803573D01*
X20317695Y18803573D02*
X20317695Y18679763D01*
X20317695Y18679763D02*
X20379600Y18555954D01*
X20379600Y18555954D02*
X20441504Y18494049D01*
X20441504Y18494049D02*
X20565314Y18432144D01*
X20565314Y18432144D02*
X20812933Y18370240D01*
X20812933Y18370240D02*
X21122457Y18370240D01*
X21122457Y18370240D02*
X21370076Y18432144D01*
X21370076Y18432144D02*
X21493885Y18494049D01*
X21493885Y18494049D02*
X21555790Y18555954D01*
X21555790Y18555954D02*
X21617695Y18679763D01*
X20317695Y19732144D02*
X20317695Y19979763D01*
X20317695Y19979763D02*
X20379600Y20103573D01*
X20379600Y20103573D02*
X20441504Y20165477D01*
X20441504Y20165477D02*
X20627219Y20289287D01*
X20627219Y20289287D02*
X20874838Y20351192D01*
X20874838Y20351192D02*
X21370076Y20351192D01*
X21370076Y20351192D02*
X21493885Y20289287D01*
X21493885Y20289287D02*
X21555790Y20227382D01*
X21555790Y20227382D02*
X21617695Y20103573D01*
X21617695Y20103573D02*
X21617695Y19855954D01*
X21617695Y19855954D02*
X21555790Y19732144D01*
X21555790Y19732144D02*
X21493885Y19670239D01*
X21493885Y19670239D02*
X21370076Y19608335D01*
X21370076Y19608335D02*
X21060552Y19608335D01*
X21060552Y19608335D02*
X20936742Y19670239D01*
X20936742Y19670239D02*
X20874838Y19732144D01*
X20874838Y19732144D02*
X20812933Y19855954D01*
X20812933Y19855954D02*
X20812933Y20103573D01*
X20812933Y20103573D02*
X20874838Y20227382D01*
X20874838Y20227382D02*
X20936742Y20289287D01*
X20936742Y20289287D02*
X21060552Y20351192D01*
X21617695Y20784525D02*
X21617695Y21651191D01*
X21617695Y21651191D02*
X20317695Y21094049D01*
X21617695Y22765477D02*
X21617695Y22146429D01*
X21617695Y22146429D02*
X20998647Y22084525D01*
X20998647Y22084525D02*
X21060552Y22146429D01*
X21060552Y22146429D02*
X21122457Y22270239D01*
X21122457Y22270239D02*
X21122457Y22579763D01*
X21122457Y22579763D02*
X21060552Y22703572D01*
X21060552Y22703572D02*
X20998647Y22765477D01*
X20998647Y22765477D02*
X20874838Y22827382D01*
X20874838Y22827382D02*
X20565314Y22827382D01*
X20565314Y22827382D02*
X20441504Y22765477D01*
X20441504Y22765477D02*
X20379600Y22703572D01*
X20379600Y22703572D02*
X20317695Y22579763D01*
X20317695Y22579763D02*
X20317695Y22270239D01*
X20317695Y22270239D02*
X20379600Y22146429D01*
X20379600Y22146429D02*
X20441504Y22084525D01*
X21617695Y23198810D02*
X20317695Y23632143D01*
X20317695Y23632143D02*
X21617695Y24065477D01*
X21617695Y24746429D02*
X21617695Y24870239D01*
X21617695Y24870239D02*
X21555790Y24994048D01*
X21555790Y24994048D02*
X21493885Y25055953D01*
X21493885Y25055953D02*
X21370076Y25117858D01*
X21370076Y25117858D02*
X21122457Y25179763D01*
X21122457Y25179763D02*
X20812933Y25179763D01*
X20812933Y25179763D02*
X20565314Y25117858D01*
X20565314Y25117858D02*
X20441504Y25055953D01*
X20441504Y25055953D02*
X20379600Y24994048D01*
X20379600Y24994048D02*
X20317695Y24870239D01*
X20317695Y24870239D02*
X20317695Y24746429D01*
X20317695Y24746429D02*
X20379600Y24622620D01*
X20379600Y24622620D02*
X20441504Y24560715D01*
X20441504Y24560715D02*
X20565314Y24498810D01*
X20565314Y24498810D02*
X20812933Y24436906D01*
X20812933Y24436906D02*
X21122457Y24436906D01*
X21122457Y24436906D02*
X21370076Y24498810D01*
X21370076Y24498810D02*
X21493885Y24560715D01*
X21493885Y24560715D02*
X21555790Y24622620D01*
X21555790Y24622620D02*
X21617695Y24746429D01*
X20317695Y26417858D02*
X20317695Y25675001D01*
X20317695Y26046429D02*
X21617695Y26046429D01*
X21617695Y26046429D02*
X21431980Y25922620D01*
X21431980Y25922620D02*
X21308171Y25798810D01*
X21308171Y25798810D02*
X21246266Y25675001D01*
X20689123Y26913096D02*
X20689123Y27532143D01*
X20317695Y26789286D02*
X21617695Y27222619D01*
X21617695Y27222619D02*
X20317695Y27655953D01*
X18224695Y17008334D02*
X19091361Y17008334D01*
X18967552Y17008334D02*
X19029457Y17070239D01*
X19029457Y17070239D02*
X19091361Y17194049D01*
X19091361Y17194049D02*
X19091361Y17379763D01*
X19091361Y17379763D02*
X19029457Y17503572D01*
X19029457Y17503572D02*
X18905647Y17565477D01*
X18905647Y17565477D02*
X18224695Y17565477D01*
X18905647Y17565477D02*
X19029457Y17627382D01*
X19029457Y17627382D02*
X19091361Y17751191D01*
X19091361Y17751191D02*
X19091361Y17936906D01*
X19091361Y17936906D02*
X19029457Y18060715D01*
X19029457Y18060715D02*
X18905647Y18122620D01*
X18905647Y18122620D02*
X18224695Y18122620D01*
X18224695Y18927382D02*
X18286600Y18803572D01*
X18286600Y18803572D02*
X18410409Y18741667D01*
X18410409Y18741667D02*
X19524695Y18741667D01*
X18224695Y19979762D02*
X18905647Y19979762D01*
X18905647Y19979762D02*
X19029457Y19917857D01*
X19029457Y19917857D02*
X19091361Y19794048D01*
X19091361Y19794048D02*
X19091361Y19546429D01*
X19091361Y19546429D02*
X19029457Y19422619D01*
X18286600Y19979762D02*
X18224695Y19855953D01*
X18224695Y19855953D02*
X18224695Y19546429D01*
X18224695Y19546429D02*
X18286600Y19422619D01*
X18286600Y19422619D02*
X18410409Y19360715D01*
X18410409Y19360715D02*
X18534219Y19360715D01*
X18534219Y19360715D02*
X18658028Y19422619D01*
X18658028Y19422619D02*
X18719933Y19546429D01*
X18719933Y19546429D02*
X18719933Y19855953D01*
X18719933Y19855953D02*
X18781838Y19979762D01*
X18224695Y20598809D02*
X19524695Y20598809D01*
X19029457Y20598809D02*
X19091361Y20722619D01*
X19091361Y20722619D02*
X19091361Y20970238D01*
X19091361Y20970238D02*
X19029457Y21094047D01*
X19029457Y21094047D02*
X18967552Y21155952D01*
X18967552Y21155952D02*
X18843742Y21217857D01*
X18843742Y21217857D02*
X18472314Y21217857D01*
X18472314Y21217857D02*
X18348504Y21155952D01*
X18348504Y21155952D02*
X18286600Y21094047D01*
X18286600Y21094047D02*
X18224695Y20970238D01*
X18224695Y20970238D02*
X18224695Y20722619D01*
X18224695Y20722619D02*
X18286600Y20598809D01*
X18348504Y21774999D02*
X18286600Y21836904D01*
X18286600Y21836904D02*
X18224695Y21774999D01*
X18224695Y21774999D02*
X18286600Y21713095D01*
X18286600Y21713095D02*
X18348504Y21774999D01*
X18348504Y21774999D02*
X18224695Y21774999D01*
X18286600Y22951190D02*
X18224695Y22827381D01*
X18224695Y22827381D02*
X18224695Y22579762D01*
X18224695Y22579762D02*
X18286600Y22455952D01*
X18286600Y22455952D02*
X18348504Y22394047D01*
X18348504Y22394047D02*
X18472314Y22332143D01*
X18472314Y22332143D02*
X18843742Y22332143D01*
X18843742Y22332143D02*
X18967552Y22394047D01*
X18967552Y22394047D02*
X19029457Y22455952D01*
X19029457Y22455952D02*
X19091361Y22579762D01*
X19091361Y22579762D02*
X19091361Y22827381D01*
X19091361Y22827381D02*
X19029457Y22951190D01*
X19091361Y23384524D02*
X19091361Y24065476D01*
X19091361Y24065476D02*
X18224695Y23384524D01*
X18224695Y23384524D02*
X18224695Y24065476D01*
D12*
X31864733Y39741102D02*
X31864733Y40731578D01*
X31369495Y40236340D02*
X32359971Y40236340D01*
X31369495Y42031579D02*
X31369495Y41288722D01*
X31369495Y41660150D02*
X32669495Y41660150D01*
X32669495Y41660150D02*
X32483780Y41536341D01*
X32483780Y41536341D02*
X32359971Y41412531D01*
X32359971Y41412531D02*
X32298066Y41288722D01*
X32545685Y42526817D02*
X32607590Y42588721D01*
X32607590Y42588721D02*
X32669495Y42712531D01*
X32669495Y42712531D02*
X32669495Y43022055D01*
X32669495Y43022055D02*
X32607590Y43145864D01*
X32607590Y43145864D02*
X32545685Y43207769D01*
X32545685Y43207769D02*
X32421876Y43269674D01*
X32421876Y43269674D02*
X32298066Y43269674D01*
X32298066Y43269674D02*
X32112352Y43207769D01*
X32112352Y43207769D02*
X31369495Y42464912D01*
X31369495Y42464912D02*
X31369495Y43269674D01*
X32669495Y43641102D02*
X31369495Y44074435D01*
X31369495Y44074435D02*
X32669495Y44507769D01*
D11*
X17358746Y18635715D02*
X17406365Y18683334D01*
X17406365Y18683334D02*
X17453984Y18778572D01*
X17453984Y18778572D02*
X17453984Y19016667D01*
X17453984Y19016667D02*
X17406365Y19111905D01*
X17406365Y19111905D02*
X17358746Y19159524D01*
X17358746Y19159524D02*
X17263508Y19207143D01*
X17263508Y19207143D02*
X17168270Y19207143D01*
X17168270Y19207143D02*
X17025413Y19159524D01*
X17025413Y19159524D02*
X16453984Y18588096D01*
X16453984Y18588096D02*
X16453984Y19207143D01*
X17453984Y19826191D02*
X17453984Y19921429D01*
X17453984Y19921429D02*
X17406365Y20016667D01*
X17406365Y20016667D02*
X17358746Y20064286D01*
X17358746Y20064286D02*
X17263508Y20111905D01*
X17263508Y20111905D02*
X17073032Y20159524D01*
X17073032Y20159524D02*
X16834937Y20159524D01*
X16834937Y20159524D02*
X16644461Y20111905D01*
X16644461Y20111905D02*
X16549223Y20064286D01*
X16549223Y20064286D02*
X16501604Y20016667D01*
X16501604Y20016667D02*
X16453984Y19921429D01*
X16453984Y19921429D02*
X16453984Y19826191D01*
X16453984Y19826191D02*
X16501604Y19730953D01*
X16501604Y19730953D02*
X16549223Y19683334D01*
X16549223Y19683334D02*
X16644461Y19635715D01*
X16644461Y19635715D02*
X16834937Y19588096D01*
X16834937Y19588096D02*
X17073032Y19588096D01*
X17073032Y19588096D02*
X17263508Y19635715D01*
X17263508Y19635715D02*
X17358746Y19683334D01*
X17358746Y19683334D02*
X17406365Y19730953D01*
X17406365Y19730953D02*
X17453984Y19826191D01*
X17358746Y20540477D02*
X17406365Y20588096D01*
X17406365Y20588096D02*
X17453984Y20683334D01*
X17453984Y20683334D02*
X17453984Y20921429D01*
X17453984Y20921429D02*
X17406365Y21016667D01*
X17406365Y21016667D02*
X17358746Y21064286D01*
X17358746Y21064286D02*
X17263508Y21111905D01*
X17263508Y21111905D02*
X17168270Y21111905D01*
X17168270Y21111905D02*
X17025413Y21064286D01*
X17025413Y21064286D02*
X16453984Y20492858D01*
X16453984Y20492858D02*
X16453984Y21111905D01*
X17453984Y21445239D02*
X17453984Y22064286D01*
X17453984Y22064286D02*
X17073032Y21730953D01*
X17073032Y21730953D02*
X17073032Y21873810D01*
X17073032Y21873810D02*
X17025413Y21969048D01*
X17025413Y21969048D02*
X16977794Y22016667D01*
X16977794Y22016667D02*
X16882556Y22064286D01*
X16882556Y22064286D02*
X16644461Y22064286D01*
X16644461Y22064286D02*
X16549223Y22016667D01*
X16549223Y22016667D02*
X16501604Y21969048D01*
X16501604Y21969048D02*
X16453984Y21873810D01*
X16453984Y21873810D02*
X16453984Y21588096D01*
X16453984Y21588096D02*
X16501604Y21492858D01*
X16501604Y21492858D02*
X16549223Y21445239D01*
X14753984Y7634743D02*
X13753984Y7901410D01*
X13753984Y7901410D02*
X14753984Y8168076D01*
X13849223Y8891886D02*
X13801604Y8853790D01*
X13801604Y8853790D02*
X13753984Y8739505D01*
X13753984Y8739505D02*
X13753984Y8663314D01*
X13753984Y8663314D02*
X13801604Y8549028D01*
X13801604Y8549028D02*
X13896842Y8472838D01*
X13896842Y8472838D02*
X13992080Y8434743D01*
X13992080Y8434743D02*
X14182556Y8396647D01*
X14182556Y8396647D02*
X14325413Y8396647D01*
X14325413Y8396647D02*
X14515889Y8434743D01*
X14515889Y8434743D02*
X14611127Y8472838D01*
X14611127Y8472838D02*
X14706365Y8549028D01*
X14706365Y8549028D02*
X14753984Y8663314D01*
X14753984Y8663314D02*
X14753984Y8739505D01*
X14753984Y8739505D02*
X14706365Y8853790D01*
X14706365Y8853790D02*
X14658746Y8891886D01*
X13849223Y9691886D02*
X13801604Y9653790D01*
X13801604Y9653790D02*
X13753984Y9539505D01*
X13753984Y9539505D02*
X13753984Y9463314D01*
X13753984Y9463314D02*
X13801604Y9349028D01*
X13801604Y9349028D02*
X13896842Y9272838D01*
X13896842Y9272838D02*
X13992080Y9234743D01*
X13992080Y9234743D02*
X14182556Y9196647D01*
X14182556Y9196647D02*
X14325413Y9196647D01*
X14325413Y9196647D02*
X14515889Y9234743D01*
X14515889Y9234743D02*
X14611127Y9272838D01*
X14611127Y9272838D02*
X14706365Y9349028D01*
X14706365Y9349028D02*
X14753984Y9463314D01*
X14753984Y9463314D02*
X14753984Y9539505D01*
X14753984Y9539505D02*
X14706365Y9653790D01*
X14706365Y9653790D02*
X14658746Y9691886D01*
X14134937Y10034743D02*
X14134937Y10644266D01*
X14753984Y11406171D02*
X14753984Y11025219D01*
X14753984Y11025219D02*
X14277794Y10987123D01*
X14277794Y10987123D02*
X14325413Y11025219D01*
X14325413Y11025219D02*
X14373032Y11101409D01*
X14373032Y11101409D02*
X14373032Y11291885D01*
X14373032Y11291885D02*
X14325413Y11368076D01*
X14325413Y11368076D02*
X14277794Y11406171D01*
X14277794Y11406171D02*
X14182556Y11444266D01*
X14182556Y11444266D02*
X13944461Y11444266D01*
X13944461Y11444266D02*
X13849223Y11406171D01*
X13849223Y11406171D02*
X13801604Y11368076D01*
X13801604Y11368076D02*
X13753984Y11291885D01*
X13753984Y11291885D02*
X13753984Y11101409D01*
X13753984Y11101409D02*
X13801604Y11025219D01*
X13801604Y11025219D02*
X13849223Y10987123D01*
X14753984Y11672838D02*
X13753984Y11939505D01*
X13753984Y11939505D02*
X14753984Y12206171D01*
X41056365Y34992857D02*
X41103984Y34921428D01*
X41103984Y34921428D02*
X41103984Y34814286D01*
X41103984Y34814286D02*
X41056365Y34707143D01*
X41056365Y34707143D02*
X40961127Y34635714D01*
X40961127Y34635714D02*
X40865889Y34600000D01*
X40865889Y34600000D02*
X40675413Y34564286D01*
X40675413Y34564286D02*
X40532556Y34564286D01*
X40532556Y34564286D02*
X40342080Y34600000D01*
X40342080Y34600000D02*
X40246842Y34635714D01*
X40246842Y34635714D02*
X40151604Y34707143D01*
X40151604Y34707143D02*
X40103984Y34814286D01*
X40103984Y34814286D02*
X40103984Y34885714D01*
X40103984Y34885714D02*
X40151604Y34992857D01*
X40151604Y34992857D02*
X40199223Y35028571D01*
X40199223Y35028571D02*
X40532556Y35028571D01*
X40532556Y35028571D02*
X40532556Y34885714D01*
X40103984Y35350000D02*
X41103984Y35350000D01*
X41103984Y35350000D02*
X40103984Y35778571D01*
X40103984Y35778571D02*
X41103984Y35778571D01*
X40103984Y36135714D02*
X41103984Y36135714D01*
X41103984Y36135714D02*
X41103984Y36314285D01*
X41103984Y36314285D02*
X41056365Y36421428D01*
X41056365Y36421428D02*
X40961127Y36492857D01*
X40961127Y36492857D02*
X40865889Y36528571D01*
X40865889Y36528571D02*
X40675413Y36564285D01*
X40675413Y36564285D02*
X40532556Y36564285D01*
X40532556Y36564285D02*
X40342080Y36528571D01*
X40342080Y36528571D02*
X40246842Y36492857D01*
X40246842Y36492857D02*
X40151604Y36421428D01*
X40151604Y36421428D02*
X40103984Y36314285D01*
X40103984Y36314285D02*
X40103984Y36135714D01*
X40484937Y38028572D02*
X40484937Y38600000D01*
X40103984Y38314286D02*
X40865889Y38314286D01*
X40103984Y39350000D02*
X40103984Y38921429D01*
X40103984Y39135714D02*
X41103984Y39135714D01*
X41103984Y39135714D02*
X40961127Y39064286D01*
X40961127Y39064286D02*
X40865889Y38992857D01*
X40865889Y38992857D02*
X40818270Y38921429D01*
X41008746Y39635715D02*
X41056365Y39671429D01*
X41056365Y39671429D02*
X41103984Y39742857D01*
X41103984Y39742857D02*
X41103984Y39921429D01*
X41103984Y39921429D02*
X41056365Y39992857D01*
X41056365Y39992857D02*
X41008746Y40028572D01*
X41008746Y40028572D02*
X40913508Y40064286D01*
X40913508Y40064286D02*
X40818270Y40064286D01*
X40818270Y40064286D02*
X40675413Y40028572D01*
X40675413Y40028572D02*
X40103984Y39600000D01*
X40103984Y39600000D02*
X40103984Y40064286D01*
X41103984Y40278572D02*
X40103984Y40528572D01*
X40103984Y40528572D02*
X41103984Y40778572D01*
X41056365Y42564287D02*
X41103984Y42492858D01*
X41103984Y42492858D02*
X41103984Y42385716D01*
X41103984Y42385716D02*
X41056365Y42278573D01*
X41056365Y42278573D02*
X40961127Y42207144D01*
X40961127Y42207144D02*
X40865889Y42171430D01*
X40865889Y42171430D02*
X40675413Y42135716D01*
X40675413Y42135716D02*
X40532556Y42135716D01*
X40532556Y42135716D02*
X40342080Y42171430D01*
X40342080Y42171430D02*
X40246842Y42207144D01*
X40246842Y42207144D02*
X40151604Y42278573D01*
X40151604Y42278573D02*
X40103984Y42385716D01*
X40103984Y42385716D02*
X40103984Y42457144D01*
X40103984Y42457144D02*
X40151604Y42564287D01*
X40151604Y42564287D02*
X40199223Y42600001D01*
X40199223Y42600001D02*
X40532556Y42600001D01*
X40532556Y42600001D02*
X40532556Y42457144D01*
X40103984Y42921430D02*
X41103984Y42921430D01*
X41103984Y42921430D02*
X40103984Y43350001D01*
X40103984Y43350001D02*
X41103984Y43350001D01*
X40103984Y43707144D02*
X41103984Y43707144D01*
X41103984Y43707144D02*
X41103984Y43885715D01*
X41103984Y43885715D02*
X41056365Y43992858D01*
X41056365Y43992858D02*
X40961127Y44064287D01*
X40961127Y44064287D02*
X40865889Y44100001D01*
X40865889Y44100001D02*
X40675413Y44135715D01*
X40675413Y44135715D02*
X40532556Y44135715D01*
X40532556Y44135715D02*
X40342080Y44100001D01*
X40342080Y44100001D02*
X40246842Y44064287D01*
X40246842Y44064287D02*
X40151604Y43992858D01*
X40151604Y43992858D02*
X40103984Y43885715D01*
X40103984Y43885715D02*
X40103984Y43707144D01*
D14*
X13416577Y22604511D02*
X13416577Y22033083D01*
X13416577Y22033083D02*
X12845148Y21975940D01*
X12845148Y21975940D02*
X12902291Y22033083D01*
X12902291Y22033083D02*
X12959434Y22147368D01*
X12959434Y22147368D02*
X12959434Y22433083D01*
X12959434Y22433083D02*
X12902291Y22547368D01*
X12902291Y22547368D02*
X12845148Y22604511D01*
X12845148Y22604511D02*
X12730862Y22661654D01*
X12730862Y22661654D02*
X12445148Y22661654D01*
X12445148Y22661654D02*
X12330862Y22604511D01*
X12330862Y22604511D02*
X12273720Y22547368D01*
X12273720Y22547368D02*
X12216577Y22433083D01*
X12216577Y22433083D02*
X12216577Y22147368D01*
X12216577Y22147368D02*
X12273720Y22033083D01*
X12273720Y22033083D02*
X12330862Y21975940D01*
X13416577Y23004511D02*
X12216577Y23404511D01*
X12216577Y23404511D02*
X13416577Y23804511D01*
X13473720Y25061654D02*
X11930862Y24033082D01*
X13416577Y25347368D02*
X13416577Y26090225D01*
X13416577Y26090225D02*
X12959434Y25690225D01*
X12959434Y25690225D02*
X12959434Y25861654D01*
X12959434Y25861654D02*
X12902291Y25975939D01*
X12902291Y25975939D02*
X12845148Y26033082D01*
X12845148Y26033082D02*
X12730862Y26090225D01*
X12730862Y26090225D02*
X12445148Y26090225D01*
X12445148Y26090225D02*
X12330862Y26033082D01*
X12330862Y26033082D02*
X12273720Y25975939D01*
X12273720Y25975939D02*
X12216577Y25861654D01*
X12216577Y25861654D02*
X12216577Y25518797D01*
X12216577Y25518797D02*
X12273720Y25404511D01*
X12273720Y25404511D02*
X12330862Y25347368D01*
X13416577Y26433082D02*
X12216577Y26833082D01*
X12216577Y26833082D02*
X13416577Y27233082D01*
X13416577Y27518796D02*
X13416577Y28261653D01*
X13416577Y28261653D02*
X12959434Y27861653D01*
X12959434Y27861653D02*
X12959434Y28033082D01*
X12959434Y28033082D02*
X12902291Y28147367D01*
X12902291Y28147367D02*
X12845148Y28204510D01*
X12845148Y28204510D02*
X12730862Y28261653D01*
X12730862Y28261653D02*
X12445148Y28261653D01*
X12445148Y28261653D02*
X12330862Y28204510D01*
X12330862Y28204510D02*
X12273720Y28147367D01*
X12273720Y28147367D02*
X12216577Y28033082D01*
X12216577Y28033082D02*
X12216577Y27690225D01*
X12216577Y27690225D02*
X12273720Y27575939D01*
X12273720Y27575939D02*
X12330862Y27518796D01*
X12216577Y29861653D02*
X12273720Y29747368D01*
X12273720Y29747368D02*
X12330862Y29690225D01*
X12330862Y29690225D02*
X12445148Y29633082D01*
X12445148Y29633082D02*
X12788005Y29633082D01*
X12788005Y29633082D02*
X12902291Y29690225D01*
X12902291Y29690225D02*
X12959434Y29747368D01*
X12959434Y29747368D02*
X13016577Y29861653D01*
X13016577Y29861653D02*
X13016577Y30033082D01*
X13016577Y30033082D02*
X12959434Y30147368D01*
X12959434Y30147368D02*
X12902291Y30204510D01*
X12902291Y30204510D02*
X12788005Y30261653D01*
X12788005Y30261653D02*
X12445148Y30261653D01*
X12445148Y30261653D02*
X12330862Y30204510D01*
X12330862Y30204510D02*
X12273720Y30147368D01*
X12273720Y30147368D02*
X12216577Y30033082D01*
X12216577Y30033082D02*
X12216577Y29861653D01*
X13016577Y31290224D02*
X12216577Y31290224D01*
X13016577Y30775939D02*
X12388005Y30775939D01*
X12388005Y30775939D02*
X12273720Y30833082D01*
X12273720Y30833082D02*
X12216577Y30947367D01*
X12216577Y30947367D02*
X12216577Y31118796D01*
X12216577Y31118796D02*
X12273720Y31233082D01*
X12273720Y31233082D02*
X12330862Y31290224D01*
X13016577Y31690224D02*
X13016577Y32147367D01*
X13416577Y31861653D02*
X12388005Y31861653D01*
X12388005Y31861653D02*
X12273720Y31918796D01*
X12273720Y31918796D02*
X12216577Y32033081D01*
X12216577Y32033081D02*
X12216577Y32147367D01*
X13016577Y32547367D02*
X11816577Y32547367D01*
X12959434Y32547367D02*
X13016577Y32661652D01*
X13016577Y32661652D02*
X13016577Y32890224D01*
X13016577Y32890224D02*
X12959434Y33004510D01*
X12959434Y33004510D02*
X12902291Y33061652D01*
X12902291Y33061652D02*
X12788005Y33118795D01*
X12788005Y33118795D02*
X12445148Y33118795D01*
X12445148Y33118795D02*
X12330862Y33061652D01*
X12330862Y33061652D02*
X12273720Y33004510D01*
X12273720Y33004510D02*
X12216577Y32890224D01*
X12216577Y32890224D02*
X12216577Y32661652D01*
X12216577Y32661652D02*
X12273720Y32547367D01*
X13016577Y34147366D02*
X12216577Y34147366D01*
X13016577Y33633081D02*
X12388005Y33633081D01*
X12388005Y33633081D02*
X12273720Y33690224D01*
X12273720Y33690224D02*
X12216577Y33804509D01*
X12216577Y33804509D02*
X12216577Y33975938D01*
X12216577Y33975938D02*
X12273720Y34090224D01*
X12273720Y34090224D02*
X12330862Y34147366D01*
X13016577Y34547366D02*
X13016577Y35004509D01*
X13416577Y34718795D02*
X12388005Y34718795D01*
X12388005Y34718795D02*
X12273720Y34775938D01*
X12273720Y34775938D02*
X12216577Y34890223D01*
X12216577Y34890223D02*
X12216577Y35004509D01*
X10284577Y22661654D02*
X10284577Y21975940D01*
X10284577Y22318797D02*
X11484577Y22318797D01*
X11484577Y22318797D02*
X11313148Y22204511D01*
X11313148Y22204511D02*
X11198862Y22090226D01*
X11198862Y22090226D02*
X11141720Y21975940D01*
X11484577Y23404511D02*
X11484577Y23518797D01*
X11484577Y23518797D02*
X11427434Y23633083D01*
X11427434Y23633083D02*
X11370291Y23690225D01*
X11370291Y23690225D02*
X11256005Y23747368D01*
X11256005Y23747368D02*
X11027434Y23804511D01*
X11027434Y23804511D02*
X10741720Y23804511D01*
X10741720Y23804511D02*
X10513148Y23747368D01*
X10513148Y23747368D02*
X10398862Y23690225D01*
X10398862Y23690225D02*
X10341720Y23633083D01*
X10341720Y23633083D02*
X10284577Y23518797D01*
X10284577Y23518797D02*
X10284577Y23404511D01*
X10284577Y23404511D02*
X10341720Y23290225D01*
X10341720Y23290225D02*
X10398862Y23233083D01*
X10398862Y23233083D02*
X10513148Y23175940D01*
X10513148Y23175940D02*
X10741720Y23118797D01*
X10741720Y23118797D02*
X11027434Y23118797D01*
X11027434Y23118797D02*
X11256005Y23175940D01*
X11256005Y23175940D02*
X11370291Y23233083D01*
X11370291Y23233083D02*
X11427434Y23290225D01*
X11427434Y23290225D02*
X11484577Y23404511D01*
X11484577Y24547368D02*
X11484577Y24661654D01*
X11484577Y24661654D02*
X11427434Y24775940D01*
X11427434Y24775940D02*
X11370291Y24833082D01*
X11370291Y24833082D02*
X11256005Y24890225D01*
X11256005Y24890225D02*
X11027434Y24947368D01*
X11027434Y24947368D02*
X10741720Y24947368D01*
X10741720Y24947368D02*
X10513148Y24890225D01*
X10513148Y24890225D02*
X10398862Y24833082D01*
X10398862Y24833082D02*
X10341720Y24775940D01*
X10341720Y24775940D02*
X10284577Y24661654D01*
X10284577Y24661654D02*
X10284577Y24547368D01*
X10284577Y24547368D02*
X10341720Y24433082D01*
X10341720Y24433082D02*
X10398862Y24375940D01*
X10398862Y24375940D02*
X10513148Y24318797D01*
X10513148Y24318797D02*
X10741720Y24261654D01*
X10741720Y24261654D02*
X11027434Y24261654D01*
X11027434Y24261654D02*
X11256005Y24318797D01*
X11256005Y24318797D02*
X11370291Y24375940D01*
X11370291Y24375940D02*
X11427434Y24433082D01*
X11427434Y24433082D02*
X11484577Y24547368D01*
X10284577Y26375940D02*
X11084577Y26375940D01*
X10970291Y26375940D02*
X11027434Y26433083D01*
X11027434Y26433083D02*
X11084577Y26547368D01*
X11084577Y26547368D02*
X11084577Y26718797D01*
X11084577Y26718797D02*
X11027434Y26833083D01*
X11027434Y26833083D02*
X10913148Y26890225D01*
X10913148Y26890225D02*
X10284577Y26890225D01*
X10913148Y26890225D02*
X11027434Y26947368D01*
X11027434Y26947368D02*
X11084577Y27061654D01*
X11084577Y27061654D02*
X11084577Y27233083D01*
X11084577Y27233083D02*
X11027434Y27347368D01*
X11027434Y27347368D02*
X10913148Y27404511D01*
X10913148Y27404511D02*
X10284577Y27404511D01*
X10627434Y27918797D02*
X10627434Y28490225D01*
X10284577Y27804511D02*
X11484577Y28204511D01*
X11484577Y28204511D02*
X10284577Y28604511D01*
X8409720Y22547368D02*
X8352577Y22433083D01*
X8352577Y22433083D02*
X8352577Y22204511D01*
X8352577Y22204511D02*
X8409720Y22090226D01*
X8409720Y22090226D02*
X8466862Y22033083D01*
X8466862Y22033083D02*
X8581148Y21975940D01*
X8581148Y21975940D02*
X8924005Y21975940D01*
X8924005Y21975940D02*
X9038291Y22033083D01*
X9038291Y22033083D02*
X9095434Y22090226D01*
X9095434Y22090226D02*
X9152577Y22204511D01*
X9152577Y22204511D02*
X9152577Y22433083D01*
X9152577Y22433083D02*
X9095434Y22547368D01*
X8352577Y23233082D02*
X8409720Y23118797D01*
X8409720Y23118797D02*
X8466862Y23061654D01*
X8466862Y23061654D02*
X8581148Y23004511D01*
X8581148Y23004511D02*
X8924005Y23004511D01*
X8924005Y23004511D02*
X9038291Y23061654D01*
X9038291Y23061654D02*
X9095434Y23118797D01*
X9095434Y23118797D02*
X9152577Y23233082D01*
X9152577Y23233082D02*
X9152577Y23404511D01*
X9152577Y23404511D02*
X9095434Y23518797D01*
X9095434Y23518797D02*
X9038291Y23575939D01*
X9038291Y23575939D02*
X8924005Y23633082D01*
X8924005Y23633082D02*
X8581148Y23633082D01*
X8581148Y23633082D02*
X8466862Y23575939D01*
X8466862Y23575939D02*
X8409720Y23518797D01*
X8409720Y23518797D02*
X8352577Y23404511D01*
X8352577Y23404511D02*
X8352577Y23233082D01*
X9152577Y24147368D02*
X8352577Y24147368D01*
X9038291Y24147368D02*
X9095434Y24204511D01*
X9095434Y24204511D02*
X9152577Y24318796D01*
X9152577Y24318796D02*
X9152577Y24490225D01*
X9152577Y24490225D02*
X9095434Y24604511D01*
X9095434Y24604511D02*
X8981148Y24661653D01*
X8981148Y24661653D02*
X8352577Y24661653D01*
X9152577Y25061653D02*
X9152577Y25518796D01*
X8352577Y25233082D02*
X9381148Y25233082D01*
X9381148Y25233082D02*
X9495434Y25290225D01*
X9495434Y25290225D02*
X9552577Y25404510D01*
X9552577Y25404510D02*
X9552577Y25518796D01*
X8352577Y25918796D02*
X9152577Y25918796D01*
X9552577Y25918796D02*
X9495434Y25861653D01*
X9495434Y25861653D02*
X9438291Y25918796D01*
X9438291Y25918796D02*
X9495434Y25975939D01*
X9495434Y25975939D02*
X9552577Y25918796D01*
X9552577Y25918796D02*
X9438291Y25918796D01*
X9152577Y27004510D02*
X8181148Y27004510D01*
X8181148Y27004510D02*
X8066862Y26947368D01*
X8066862Y26947368D02*
X8009720Y26890225D01*
X8009720Y26890225D02*
X7952577Y26775939D01*
X7952577Y26775939D02*
X7952577Y26604510D01*
X7952577Y26604510D02*
X8009720Y26490225D01*
X8409720Y27004510D02*
X8352577Y26890225D01*
X8352577Y26890225D02*
X8352577Y26661653D01*
X8352577Y26661653D02*
X8409720Y26547368D01*
X8409720Y26547368D02*
X8466862Y26490225D01*
X8466862Y26490225D02*
X8581148Y26433082D01*
X8581148Y26433082D02*
X8924005Y26433082D01*
X8924005Y26433082D02*
X9038291Y26490225D01*
X9038291Y26490225D02*
X9095434Y26547368D01*
X9095434Y26547368D02*
X9152577Y26661653D01*
X9152577Y26661653D02*
X9152577Y26890225D01*
X9152577Y26890225D02*
X9095434Y27004510D01*
X9152577Y28090224D02*
X8352577Y28090224D01*
X9152577Y27575939D02*
X8524005Y27575939D01*
X8524005Y27575939D02*
X8409720Y27633082D01*
X8409720Y27633082D02*
X8352577Y27747367D01*
X8352577Y27747367D02*
X8352577Y27918796D01*
X8352577Y27918796D02*
X8409720Y28033082D01*
X8409720Y28033082D02*
X8466862Y28090224D01*
X8352577Y28661653D02*
X9152577Y28661653D01*
X8924005Y28661653D02*
X9038291Y28718796D01*
X9038291Y28718796D02*
X9095434Y28775938D01*
X9095434Y28775938D02*
X9152577Y28890224D01*
X9152577Y28890224D02*
X9152577Y29004510D01*
X8352577Y29918795D02*
X8981148Y29918795D01*
X8981148Y29918795D02*
X9095434Y29861653D01*
X9095434Y29861653D02*
X9152577Y29747367D01*
X9152577Y29747367D02*
X9152577Y29518795D01*
X9152577Y29518795D02*
X9095434Y29404510D01*
X8409720Y29918795D02*
X8352577Y29804510D01*
X8352577Y29804510D02*
X8352577Y29518795D01*
X8352577Y29518795D02*
X8409720Y29404510D01*
X8409720Y29404510D02*
X8524005Y29347367D01*
X8524005Y29347367D02*
X8638291Y29347367D01*
X8638291Y29347367D02*
X8752577Y29404510D01*
X8752577Y29404510D02*
X8809720Y29518795D01*
X8809720Y29518795D02*
X8809720Y29804510D01*
X8809720Y29804510D02*
X8866862Y29918795D01*
X8352577Y30490224D02*
X9552577Y30490224D01*
X9095434Y30490224D02*
X9152577Y30604509D01*
X9152577Y30604509D02*
X9152577Y30833081D01*
X9152577Y30833081D02*
X9095434Y30947367D01*
X9095434Y30947367D02*
X9038291Y31004509D01*
X9038291Y31004509D02*
X8924005Y31061652D01*
X8924005Y31061652D02*
X8581148Y31061652D01*
X8581148Y31061652D02*
X8466862Y31004509D01*
X8466862Y31004509D02*
X8409720Y30947367D01*
X8409720Y30947367D02*
X8352577Y30833081D01*
X8352577Y30833081D02*
X8352577Y30604509D01*
X8352577Y30604509D02*
X8409720Y30490224D01*
X8352577Y31747366D02*
X8409720Y31633081D01*
X8409720Y31633081D02*
X8524005Y31575938D01*
X8524005Y31575938D02*
X9552577Y31575938D01*
X8409720Y32661652D02*
X8352577Y32547366D01*
X8352577Y32547366D02*
X8352577Y32318794D01*
X8352577Y32318794D02*
X8409720Y32204509D01*
X8409720Y32204509D02*
X8524005Y32147366D01*
X8524005Y32147366D02*
X8981148Y32147366D01*
X8981148Y32147366D02*
X9095434Y32204509D01*
X9095434Y32204509D02*
X9152577Y32318794D01*
X9152577Y32318794D02*
X9152577Y32547366D01*
X9152577Y32547366D02*
X9095434Y32661652D01*
X9095434Y32661652D02*
X8981148Y32718794D01*
X8981148Y32718794D02*
X8866862Y32718794D01*
X8866862Y32718794D02*
X8752577Y32147366D01*
D15*
%TO.C,J11*%
X17690000Y44710000D02*
X18690000Y44710000D01*
X17690000Y43470000D02*
X17690000Y44710000D01*
X17930000Y44470000D02*
X30471000Y44470000D01*
X17930000Y43350000D02*
X30471000Y43350000D01*
X17930000Y37650000D02*
X30471000Y37650000D01*
X17930000Y34850000D02*
X20320000Y34850000D01*
X17930000Y30230000D02*
X17930000Y44470000D01*
X17930000Y30230000D02*
X30471000Y30230000D01*
X19550000Y44350000D02*
X24550000Y44350000D01*
X19550000Y30350000D02*
X19550000Y44350000D01*
X19550000Y30350000D02*
X24550000Y30350000D01*
X20050000Y43050000D02*
X24050000Y43050000D01*
X20050000Y39750000D02*
X20050000Y43050000D01*
X20050000Y39750000D02*
X24050000Y39750000D01*
X20050000Y39050000D02*
X24050000Y39050000D01*
X20050000Y38050000D02*
X20050000Y39050000D01*
X20050000Y38050000D02*
X24050000Y38050000D01*
X21550000Y33199000D02*
X22550000Y33199000D01*
X21550000Y30700000D02*
X21550000Y33199000D01*
X21550000Y30700000D02*
X22550000Y30700000D01*
X22550000Y30700000D02*
X22550000Y33199000D01*
X22780000Y34850000D02*
X25320000Y34850000D01*
X24050000Y39750000D02*
X24050000Y43050000D01*
X24050000Y38050000D02*
X24050000Y39050000D01*
X24550000Y44350000D02*
X29550000Y44350000D01*
X24550000Y30350000D02*
X24550000Y44350000D01*
X24550000Y30350000D02*
X24550000Y44350000D01*
X24550000Y30350000D02*
X29550000Y30350000D01*
X25050000Y43050000D02*
X29050000Y43050000D01*
X25050000Y39750000D02*
X25050000Y43050000D01*
X25050000Y39750000D02*
X29050000Y39750000D01*
X25050000Y39050000D02*
X29050000Y39050000D01*
X25050000Y38050000D02*
X25050000Y39050000D01*
X25050000Y38050000D02*
X29050000Y38050000D01*
X26550000Y33199000D02*
X27550000Y33199000D01*
X26550000Y30700000D02*
X26550000Y33199000D01*
X26550000Y30700000D02*
X27550000Y30700000D01*
X27550000Y30700000D02*
X27550000Y33199000D01*
X27780000Y34850000D02*
X30471000Y34850000D01*
X29050000Y39750000D02*
X29050000Y43050000D01*
X29050000Y38050000D02*
X29050000Y39050000D01*
X29550000Y30350000D02*
X29550000Y44350000D01*
X30471000Y30230000D02*
X30471000Y44470000D01*
D10*
%TO.C,J4*%
X15005000Y12345000D02*
X15005000Y7265000D01*
X15005000Y7265000D02*
X17545000Y7265000D01*
X17545000Y12345000D02*
X15005000Y12345000D01*
X17545000Y7265000D02*
X17545000Y12345000D01*
%TO.C,J10*%
X6875000Y15430000D02*
X14495000Y15430000D01*
X14495000Y15430000D02*
X14495000Y20510000D01*
X6875000Y20510000D02*
X6875000Y15430000D01*
X14495000Y20510000D02*
X6875000Y20510000D01*
%TO.C,J2*%
X19370000Y7266250D02*
X32070000Y7266250D01*
X32070000Y7266250D02*
X32070000Y12346250D01*
X19370000Y12346250D02*
X19370000Y7266250D01*
X32070000Y12346250D02*
X19370000Y12346250D01*
%TO.C,J5*%
X37130000Y7255000D02*
X44750000Y7255000D01*
X44750000Y7255000D02*
X44750000Y12335000D01*
X37130000Y12335000D02*
X37130000Y7255000D01*
X44750000Y12335000D02*
X37130000Y12335000D01*
D15*
%TO.C,J12*%
X55135000Y34410000D02*
X55135000Y33410000D01*
X53895000Y34410000D02*
X55135000Y34410000D01*
X54895000Y34170000D02*
X54895000Y16630000D01*
X53775000Y34170000D02*
X53775000Y16630000D01*
X48075000Y34170000D02*
X48075000Y16630000D01*
X45275000Y34170000D02*
X45275000Y31780000D01*
X40655000Y34170000D02*
X54895000Y34170000D01*
X40655000Y34170000D02*
X40655000Y16630000D01*
X54775000Y32550000D02*
X54775000Y27550000D01*
X40775000Y32550000D02*
X54775000Y32550000D01*
X40775000Y32550000D02*
X40775000Y27550000D01*
X53475000Y32050000D02*
X53475000Y28050000D01*
X50175000Y32050000D02*
X53475000Y32050000D01*
X50175000Y32050000D02*
X50175000Y28050000D01*
X49475000Y32050000D02*
X49475000Y28050000D01*
X48475000Y32050000D02*
X49475000Y32050000D01*
X48475000Y32050000D02*
X48475000Y28050000D01*
X43624000Y30550000D02*
X43624000Y29550000D01*
X41125000Y30550000D02*
X43624000Y30550000D01*
X41125000Y30550000D02*
X41125000Y29550000D01*
X41125000Y29550000D02*
X43624000Y29550000D01*
X45275000Y29320000D02*
X45275000Y26780000D01*
X50175000Y28050000D02*
X53475000Y28050000D01*
X48475000Y28050000D02*
X49475000Y28050000D01*
X54775000Y27550000D02*
X54775000Y22550000D01*
X40775000Y27550000D02*
X54775000Y27550000D01*
X40775000Y27550000D02*
X54775000Y27550000D01*
X40775000Y27550000D02*
X40775000Y22550000D01*
X53475000Y27050000D02*
X53475000Y23050000D01*
X50175000Y27050000D02*
X53475000Y27050000D01*
X50175000Y27050000D02*
X50175000Y23050000D01*
X49475000Y27050000D02*
X49475000Y23050000D01*
X48475000Y27050000D02*
X49475000Y27050000D01*
X48475000Y27050000D02*
X48475000Y23050000D01*
X43624000Y25550000D02*
X43624000Y24550000D01*
X41125000Y25550000D02*
X43624000Y25550000D01*
X41125000Y25550000D02*
X41125000Y24550000D01*
X41125000Y24550000D02*
X43624000Y24550000D01*
X45275000Y24320000D02*
X45275000Y21780000D01*
X50175000Y23050000D02*
X53475000Y23050000D01*
X48475000Y23050000D02*
X49475000Y23050000D01*
X54775000Y22550000D02*
X54775000Y17550000D01*
X40775000Y22550000D02*
X54775000Y22550000D01*
X40775000Y22550000D02*
X54775000Y22550000D01*
X40775000Y22550000D02*
X40775000Y17550000D01*
X53475000Y22050000D02*
X53475000Y18050000D01*
X50175000Y22050000D02*
X53475000Y22050000D01*
X50175000Y22050000D02*
X50175000Y18050000D01*
X49475000Y22050000D02*
X49475000Y18050000D01*
X48475000Y22050000D02*
X49475000Y22050000D01*
X48475000Y22050000D02*
X48475000Y18050000D01*
X43624000Y20550000D02*
X43624000Y19550000D01*
X41125000Y20550000D02*
X43624000Y20550000D01*
X41125000Y20550000D02*
X41125000Y19550000D01*
X41125000Y19550000D02*
X43624000Y19550000D01*
X45275000Y19320000D02*
X45275000Y16630000D01*
X50175000Y18050000D02*
X53475000Y18050000D01*
X48475000Y18050000D02*
X49475000Y18050000D01*
X40775000Y17550000D02*
X54775000Y17550000D01*
X40655000Y16630000D02*
X54895000Y16630000D01*
D10*
%TO.C,J6*%
X29965000Y25850000D02*
X29965000Y18230000D01*
X29965000Y18230000D02*
X35045000Y18230000D01*
X35045000Y25850000D02*
X29965000Y25850000D01*
X35045000Y18230000D02*
X35045000Y25850000D01*
%TO.C,J3*%
X39270000Y34290000D02*
X39270000Y44450000D01*
X39270000Y44450000D02*
X34190000Y44450000D01*
X34190000Y34290000D02*
X39270000Y34290000D01*
X34190000Y44450000D02*
X34190000Y34290000D01*
%TD*%
D16*
%TO.C,J4*%
X16275000Y8535000D03*
X16275000Y11075000D03*
%TD*%
%TO.C,J2*%
X30800000Y8536250D03*
X30800000Y11076250D03*
X28260000Y8536250D03*
X28260000Y11076250D03*
X25720000Y8536250D03*
X25720000Y11076250D03*
X23180000Y8536250D03*
X23180000Y11076250D03*
X20640000Y8536250D03*
X20640000Y11076250D03*
%TD*%
%TO.C,J3*%
X38000000Y43180000D03*
X35460000Y43180000D03*
X38000000Y40640000D03*
X35460000Y40640000D03*
X38000000Y38100000D03*
X35460000Y38100000D03*
X38000000Y35560000D03*
X35460000Y35560000D03*
%TD*%
M02*
