%TF.GenerationSoftware,KiCad,Pcbnew,7.0.5.1-1-g8f565ef7f0-dirty-deb11*%
%TF.CreationDate,2023-06-30T16:12:35+00:00*%
%TF.ProjectId,DRV10987V01,44525631-3039-4383-9756-30312e6b6963,01A*%
%TF.SameCoordinates,Original*%
%TF.FileFunction,Soldermask,Bot*%
%TF.FilePolarity,Negative*%
%FSLAX46Y46*%
G04 Gerber Fmt 4.6, Leading zero omitted, Abs format (unit mm)*
G04 Created by KiCad (PCBNEW 7.0.5.1-1-g8f565ef7f0-dirty-deb11) date 2023-06-30 16:12:35*
%MOMM*%
%LPD*%
G01*
G04 APERTURE LIST*
%ADD10C,6.000000*%
%ADD11R,1.500000X3.000000*%
%ADD12O,1.500000X3.000000*%
%ADD13R,1.524000X1.524000*%
%ADD14R,3.000000X1.500000*%
%ADD15O,3.000000X1.500000*%
G04 APERTURE END LIST*
D10*
%TO.C,M2*%
X50800000Y40640000D03*
%TD*%
D11*
%TO.C,J11*%
X21550000Y35350000D03*
D12*
X26550000Y35350000D03*
%TD*%
D10*
%TO.C,M4*%
X50800000Y10160000D03*
%TD*%
D13*
%TO.C,J10*%
X13225000Y16700000D03*
X13225000Y19240000D03*
X10685000Y16700000D03*
X10685000Y19240000D03*
X8145000Y16700000D03*
X8145000Y19240000D03*
%TD*%
D10*
%TO.C,M3*%
X10160000Y10160000D03*
%TD*%
D13*
%TO.C,J2*%
X30800000Y8536250D03*
X30800000Y11076250D03*
X28260000Y8536250D03*
X28260000Y11076250D03*
X25720000Y8536250D03*
X25720000Y11076250D03*
X23180000Y8536250D03*
X23180000Y11076250D03*
X20640000Y8536250D03*
X20640000Y11076250D03*
%TD*%
D10*
%TO.C,M1*%
X10160000Y40640000D03*
%TD*%
D13*
%TO.C,J5*%
X43480000Y8525000D03*
X43480000Y11065000D03*
X40940000Y8525000D03*
X40940000Y11065000D03*
X38400000Y8525000D03*
X38400000Y11065000D03*
%TD*%
D14*
%TO.C,J12*%
X45775000Y30550000D03*
D15*
X45775000Y25550000D03*
X45775000Y20550000D03*
%TD*%
D13*
%TO.C,J6*%
X31235000Y19500000D03*
X33775000Y19500000D03*
X31235000Y22040000D03*
X33775000Y22040000D03*
X31235000Y24580000D03*
X33775000Y24580000D03*
%TD*%
%TO.C,J3*%
X38000000Y43180000D03*
X35460000Y43180000D03*
X38000000Y40640000D03*
X35460000Y40640000D03*
X38000000Y38100000D03*
X35460000Y38100000D03*
X38000000Y35560000D03*
X35460000Y35560000D03*
%TD*%
M02*
