%TF.GenerationSoftware,KiCad,Pcbnew,7.0.5.1-1-g8f565ef7f0-dirty-deb11*%
%TF.CreationDate,2023-06-30T11:54:53+00:00*%
%TF.ProjectId,DRV10987V01,44525631-3039-4383-9756-30312e6b6963,01A*%
%TF.SameCoordinates,Original*%
%TF.FileFunction,Copper,L1,Top*%
%TF.FilePolarity,Positive*%
%FSLAX46Y46*%
G04 Gerber Fmt 4.6, Leading zero omitted, Abs format (unit mm)*
G04 Created by KiCad (PCBNEW 7.0.5.1-1-g8f565ef7f0-dirty-deb11) date 2023-06-30 11:54:53*
%MOMM*%
%LPD*%
G01*
G04 APERTURE LIST*
G04 Aperture macros list*
%AMRoundRect*
0 Rectangle with rounded corners*
0 $1 Rounding radius*
0 $2 $3 $4 $5 $6 $7 $8 $9 X,Y pos of 4 corners*
0 Add a 4 corners polygon primitive as box body*
4,1,4,$2,$3,$4,$5,$6,$7,$8,$9,$2,$3,0*
0 Add four circle primitives for the rounded corners*
1,1,$1+$1,$2,$3*
1,1,$1+$1,$4,$5*
1,1,$1+$1,$6,$7*
1,1,$1+$1,$8,$9*
0 Add four rect primitives between the rounded corners*
20,1,$1+$1,$2,$3,$4,$5,0*
20,1,$1+$1,$4,$5,$6,$7,0*
20,1,$1+$1,$6,$7,$8,$9,0*
20,1,$1+$1,$8,$9,$2,$3,0*%
G04 Aperture macros list end*
%TA.AperFunction,SMDPad,CuDef*%
%ADD10RoundRect,0.250000X-0.250000X-0.475000X0.250000X-0.475000X0.250000X0.475000X-0.250000X0.475000X0*%
%TD*%
%TA.AperFunction,ComponentPad*%
%ADD11C,6.000000*%
%TD*%
%TA.AperFunction,SMDPad,CuDef*%
%ADD12RoundRect,0.250000X0.475000X-0.250000X0.475000X0.250000X-0.475000X0.250000X-0.475000X-0.250000X0*%
%TD*%
%TA.AperFunction,SMDPad,CuDef*%
%ADD13R,1.800000X2.500000*%
%TD*%
%TA.AperFunction,SMDPad,CuDef*%
%ADD14RoundRect,0.250000X0.250000X0.475000X-0.250000X0.475000X-0.250000X-0.475000X0.250000X-0.475000X0*%
%TD*%
%TA.AperFunction,SMDPad,CuDef*%
%ADD15RoundRect,0.250000X-0.450000X0.262500X-0.450000X-0.262500X0.450000X-0.262500X0.450000X0.262500X0*%
%TD*%
%TA.AperFunction,SMDPad,CuDef*%
%ADD16RoundRect,0.250000X-0.262500X-0.450000X0.262500X-0.450000X0.262500X0.450000X-0.262500X0.450000X0*%
%TD*%
%TA.AperFunction,SMDPad,CuDef*%
%ADD17R,7.500000X3.000000*%
%TD*%
%TA.AperFunction,SMDPad,CuDef*%
%ADD18RoundRect,0.100000X-0.637500X-0.100000X0.637500X-0.100000X0.637500X0.100000X-0.637500X0.100000X0*%
%TD*%
%TA.AperFunction,SMDPad,CuDef*%
%ADD19RoundRect,0.100000X-1.500000X-2.530000X1.500000X-2.530000X1.500000X2.530000X-1.500000X2.530000X0*%
%TD*%
%TA.AperFunction,SMDPad,CuDef*%
%ADD20RoundRect,0.250000X0.262500X0.450000X-0.262500X0.450000X-0.262500X-0.450000X0.262500X-0.450000X0*%
%TD*%
%TA.AperFunction,ComponentPad*%
%ADD21R,1.500000X3.000000*%
%TD*%
%TA.AperFunction,ComponentPad*%
%ADD22O,1.500000X3.000000*%
%TD*%
%TA.AperFunction,ComponentPad*%
%ADD23R,1.524000X1.524000*%
%TD*%
%TA.AperFunction,ComponentPad*%
%ADD24R,3.000000X1.500000*%
%TD*%
%TA.AperFunction,ComponentPad*%
%ADD25O,3.000000X1.500000*%
%TD*%
%TA.AperFunction,ViaPad*%
%ADD26C,0.800000*%
%TD*%
%TA.AperFunction,Conductor*%
%ADD27C,0.300000*%
%TD*%
%TA.AperFunction,Conductor*%
%ADD28C,0.500000*%
%TD*%
%TA.AperFunction,Conductor*%
%ADD29C,0.400000*%
%TD*%
G04 APERTURE END LIST*
D10*
%TO.P,C5,1*%
%TO.N,GND*%
X17530000Y20360000D03*
%TO.P,C5,2*%
%TO.N,Net-(IC1-V1P8)*%
X19430000Y20360000D03*
%TD*%
D11*
%TO.P,M2,1*%
%TO.N,GND*%
X50800000Y40640000D03*
%TD*%
D12*
%TO.P,C7,1*%
%TO.N,+5V*%
X15975000Y13525000D03*
%TO.P,C7,2*%
%TO.N,GND*%
X15975000Y15425000D03*
%TD*%
D11*
%TO.P,M4,1*%
%TO.N,GND*%
X50800000Y10160000D03*
%TD*%
D13*
%TO.P,D1,1,K*%
%TO.N,+5V*%
X8325000Y24000000D03*
%TO.P,D1,2,A*%
%TO.N,GND*%
X8325000Y28000000D03*
%TD*%
D14*
%TO.P,C6,1*%
%TO.N,GND*%
X31050000Y27200000D03*
%TO.P,C6,2*%
%TO.N,+12V*%
X29150000Y27200000D03*
%TD*%
D15*
%TO.P,R5,1*%
%TO.N,VDD*%
X40950000Y15200000D03*
%TO.P,R5,2*%
%TO.N,/STEP*%
X40950000Y13375000D03*
%TD*%
D16*
%TO.P,R2,1*%
%TO.N,VDD*%
X26625000Y13450000D03*
%TO.P,R2,2*%
%TO.N,/SDA*%
X28450000Y13450000D03*
%TD*%
D15*
%TO.P,R3,1*%
%TO.N,VDD*%
X38175000Y15200000D03*
%TO.P,R3,2*%
%TO.N,/FG*%
X38175000Y13375000D03*
%TD*%
D12*
%TO.P,C1,1*%
%TO.N,GND*%
X15675000Y18700000D03*
%TO.P,C1,2*%
%TO.N,+5V*%
X15675000Y20600000D03*
%TD*%
D10*
%TO.P,C4,1*%
%TO.N,GND*%
X17530000Y18060000D03*
%TO.P,C4,2*%
%TO.N,Net-(IC1-V3P3)*%
X19430000Y18060000D03*
%TD*%
D11*
%TO.P,M3,1*%
%TO.N,GND*%
X10160000Y10160000D03*
%TD*%
%TO.P,M1,1*%
%TO.N,GND*%
X10160000Y40640000D03*
%TD*%
D12*
%TO.P,C8,1*%
%TO.N,+5V*%
X18125000Y13525000D03*
%TO.P,C8,2*%
%TO.N,GND*%
X18125000Y15425000D03*
%TD*%
D17*
%TO.P,L1,1,1*%
%TO.N,+5V*%
X14675000Y23550000D03*
%TO.P,L1,2,2*%
%TO.N,Net-(IC1-SW)*%
X14675000Y28550000D03*
%TD*%
D10*
%TO.P,C3,1*%
%TO.N,Net-(IC1-VCP)*%
X25630000Y27215000D03*
%TO.P,C3,2*%
%TO.N,+12V*%
X27530000Y27215000D03*
%TD*%
D18*
%TO.P,IC1,1,VCP*%
%TO.N,Net-(IC1-VCP)*%
X22030000Y24635000D03*
%TO.P,IC1,2,CPP*%
%TO.N,Net-(IC1-CPP)*%
X22030000Y23985000D03*
%TO.P,IC1,3,CPN*%
%TO.N,Net-(IC1-CPN)*%
X22030000Y23335000D03*
%TO.P,IC1,4,SW*%
%TO.N,Net-(IC1-SW)*%
X22030000Y22685000D03*
%TO.P,IC1,5,SWGND*%
%TO.N,GND*%
X22030000Y22035000D03*
%TO.P,IC1,6,VREG*%
%TO.N,+5V*%
X22030000Y21385000D03*
%TO.P,IC1,7,V1P8*%
%TO.N,Net-(IC1-V1P8)*%
X22030000Y20735000D03*
%TO.P,IC1,8,GND_1*%
%TO.N,GND*%
X22030000Y20085000D03*
%TO.P,IC1,9,V3P3*%
%TO.N,Net-(IC1-V3P3)*%
X22030000Y19435000D03*
%TO.P,IC1,10,SCL*%
%TO.N,/SCL*%
X22030000Y18785000D03*
%TO.P,IC1,11,SDA*%
%TO.N,/SDA*%
X22030000Y18135000D03*
%TO.P,IC1,12,FG*%
%TO.N,/FG*%
X22030000Y17485000D03*
%TO.P,IC1,13,SPEED*%
%TO.N,/STEP*%
X27755000Y17485000D03*
%TO.P,IC1,14,DIR*%
%TO.N,/DIR*%
X27755000Y18135000D03*
%TO.P,IC1,15,PGND_1*%
%TO.N,GND*%
X27755000Y18785000D03*
%TO.P,IC1,16,PGND_2*%
X27755000Y19435000D03*
%TO.P,IC1,17,U_1*%
%TO.N,/U*%
X27755000Y20085000D03*
%TO.P,IC1,18,U_2*%
X27755000Y20735000D03*
%TO.P,IC1,19,V_1*%
%TO.N,/V*%
X27755000Y21385000D03*
%TO.P,IC1,20,V_2*%
X27755000Y22035000D03*
%TO.P,IC1,21,W_1*%
%TO.N,/W*%
X27755000Y22685000D03*
%TO.P,IC1,22,W_2*%
X27755000Y23335000D03*
%TO.P,IC1,23,VCC_1*%
%TO.N,+12V*%
X27755000Y23985000D03*
%TO.P,IC1,24,VCC_2*%
X27755000Y24635000D03*
D19*
%TO.P,IC1,25,GND_2*%
%TO.N,GND*%
X24892500Y21060000D03*
%TD*%
D15*
%TO.P,R4,1*%
%TO.N,VDD*%
X43525000Y15200000D03*
%TO.P,R4,2*%
%TO.N,/DIR*%
X43525000Y13375000D03*
%TD*%
D20*
%TO.P,R1,1*%
%TO.N,VDD*%
X24825000Y13450000D03*
%TO.P,R1,2*%
%TO.N,/SCL*%
X23000000Y13450000D03*
%TD*%
D10*
%TO.P,C2,1*%
%TO.N,Net-(IC1-CPN)*%
X20050000Y27050000D03*
%TO.P,C2,2*%
%TO.N,Net-(IC1-CPP)*%
X21950000Y27050000D03*
%TD*%
D21*
%TO.P,J11,1*%
%TO.N,GND*%
X21550000Y35350000D03*
D22*
%TO.P,J11,2*%
%TO.N,+12V*%
X26550000Y35350000D03*
%TD*%
D23*
%TO.P,J4,1*%
%TO.N,VDD*%
X16275000Y8535000D03*
%TO.P,J4,2*%
%TO.N,+5V*%
X16275000Y11075000D03*
%TD*%
%TO.P,J10,1*%
%TO.N,GND*%
X13225000Y16700000D03*
%TO.P,J10,2*%
X13225000Y19240000D03*
%TO.P,J10,3*%
%TO.N,+5V*%
X10685000Y16700000D03*
%TO.P,J10,4*%
X10685000Y19240000D03*
%TO.P,J10,5*%
%TO.N,GND*%
X8145000Y16700000D03*
%TO.P,J10,6*%
X8145000Y19240000D03*
%TD*%
%TO.P,J2,1*%
%TO.N,GND*%
X30800000Y8536250D03*
%TO.P,J2,2*%
X30800000Y11076250D03*
%TO.P,J2,3*%
%TO.N,/SDA*%
X28260000Y8536250D03*
%TO.P,J2,4*%
X28260000Y11076250D03*
%TO.P,J2,5*%
%TO.N,VDD*%
X25720000Y8536250D03*
%TO.P,J2,6*%
X25720000Y11076250D03*
%TO.P,J2,7*%
%TO.N,/SCL*%
X23180000Y8536250D03*
%TO.P,J2,8*%
X23180000Y11076250D03*
%TO.P,J2,9*%
%TO.N,GND*%
X20640000Y8536250D03*
%TO.P,J2,10*%
X20640000Y11076250D03*
%TD*%
%TO.P,J5,1*%
%TO.N,/DIR*%
X43480000Y8525000D03*
%TO.P,J5,2*%
X43480000Y11065000D03*
%TO.P,J5,3*%
%TO.N,/STEP*%
X40940000Y8525000D03*
%TO.P,J5,4*%
X40940000Y11065000D03*
%TO.P,J5,5*%
%TO.N,/FG*%
X38400000Y8525000D03*
%TO.P,J5,6*%
X38400000Y11065000D03*
%TD*%
D24*
%TO.P,J12,1*%
%TO.N,/W*%
X45775000Y30550000D03*
D25*
%TO.P,J12,2*%
%TO.N,/V*%
X45775000Y25550000D03*
%TO.P,J12,3*%
%TO.N,/U*%
X45775000Y20550000D03*
%TD*%
D23*
%TO.P,J6,1*%
%TO.N,/U*%
X31235000Y19500000D03*
%TO.P,J6,2*%
X33775000Y19500000D03*
%TO.P,J6,3*%
%TO.N,/V*%
X31235000Y22040000D03*
%TO.P,J6,4*%
X33775000Y22040000D03*
%TO.P,J6,5*%
%TO.N,/W*%
X31235000Y24580000D03*
%TO.P,J6,6*%
X33775000Y24580000D03*
%TD*%
%TO.P,J3,1*%
%TO.N,GND*%
X38000000Y43180000D03*
%TO.P,J3,2*%
X35460000Y43180000D03*
%TO.P,J3,3*%
%TO.N,+12V*%
X38000000Y40640000D03*
%TO.P,J3,4*%
X35460000Y40640000D03*
%TO.P,J3,5*%
X38000000Y38100000D03*
%TO.P,J3,6*%
X35460000Y38100000D03*
%TO.P,J3,7*%
%TO.N,GND*%
X38000000Y35560000D03*
%TO.P,J3,8*%
X35460000Y35560000D03*
%TD*%
D26*
%TO.N,GND*%
X28925000Y40575000D03*
X23300000Y15450000D03*
X24400000Y21160000D03*
X23400000Y23160000D03*
X25400000Y24260000D03*
X7825000Y30025000D03*
X35000000Y13750000D03*
X23400000Y19160000D03*
X24400000Y24260000D03*
X26100000Y29175000D03*
X25400000Y21160000D03*
X26400000Y23160000D03*
X26400000Y21160000D03*
X25925000Y38450000D03*
X24400000Y18160000D03*
X34700000Y26575000D03*
X30350000Y34375000D03*
X9075000Y30050000D03*
X26400000Y20160000D03*
X23400000Y22160000D03*
X23400000Y24260000D03*
X25400000Y22160000D03*
X33325000Y13725000D03*
X24400000Y23160000D03*
X42625000Y31850000D03*
X25400000Y20160000D03*
X30375000Y30100000D03*
X26400000Y22160000D03*
X25400000Y18160000D03*
X24400000Y20160000D03*
X42675000Y18550000D03*
X23400000Y21160000D03*
X26400000Y19160000D03*
X24400000Y22160000D03*
X25400000Y23160000D03*
X24400000Y19160000D03*
X26400000Y24260000D03*
X25400000Y19160000D03*
X18375000Y19225000D03*
X26400000Y18160000D03*
X23400000Y20160000D03*
%TO.N,Net-(IC1-VCP)*%
X22130000Y25360000D03*
X24980000Y27165000D03*
%TO.N,/STEP*%
X27750000Y16825000D03*
%TO.N,/DIR*%
X29275000Y17800000D03*
%TO.N,/FG*%
X22375000Y16700000D03*
%TO.N,VDD*%
X31000000Y13900000D03*
%TD*%
D27*
%TO.N,Net-(IC1-VCP)*%
X22130000Y25360000D02*
X22130000Y24747500D01*
X25630000Y27215000D02*
X25030000Y27215000D01*
X25030000Y27215000D02*
X24980000Y27165000D01*
%TO.N,Net-(IC1-CPN)*%
X20200000Y24363604D02*
X20200000Y26375000D01*
X21228604Y23335000D02*
X20200000Y24363604D01*
X22030000Y23335000D02*
X21228604Y23335000D01*
%TO.N,Net-(IC1-CPP)*%
X21950000Y26240661D02*
X21950000Y27050000D01*
X20875000Y24395710D02*
X20875000Y25165661D01*
X22030000Y23985000D02*
X21285710Y23985000D01*
X20875000Y25165661D02*
X21950000Y26240661D01*
X21285710Y23985000D02*
X20875000Y24395710D01*
%TO.N,Net-(IC1-V3P3)*%
X19630000Y18060000D02*
X19430000Y18060000D01*
X22017500Y19435000D02*
X21005000Y19435000D01*
X21005000Y19435000D02*
X19630000Y18060000D01*
%TO.N,Net-(IC1-V1P8)*%
X22017500Y20735000D02*
X19905000Y20735000D01*
X19905000Y20735000D02*
X19830000Y20660000D01*
%TO.N,/SDA*%
X27700000Y14800000D02*
X26400000Y14800000D01*
X26400000Y14800000D02*
X23065000Y18135000D01*
X28260000Y14240000D02*
X27700000Y14800000D01*
X23065000Y18135000D02*
X22017500Y18135000D01*
X28260000Y8536250D02*
X28260000Y14240000D01*
%TO.N,/SCL*%
X23000000Y14375000D02*
X23000000Y13450000D01*
X20600000Y16775000D02*
X23000000Y14375000D01*
X20600000Y18078896D02*
X20600000Y16775000D01*
X23000000Y13450000D02*
X23180000Y13270000D01*
X23180000Y13270000D02*
X23180000Y8536250D01*
X22030000Y18785000D02*
X21306104Y18785000D01*
X21306104Y18785000D02*
X20600000Y18078896D01*
%TO.N,/STEP*%
X27755000Y16830000D02*
X27755000Y17485000D01*
X27750000Y16825000D02*
X27755000Y16830000D01*
X40940000Y8525000D02*
X40940000Y13365000D01*
D28*
%TO.N,/DIR*%
X43525000Y11105000D02*
X43470000Y11050000D01*
D27*
X43480000Y13330000D02*
X43525000Y13375000D01*
X28940000Y18135000D02*
X27755000Y18135000D01*
X43480000Y8525000D02*
X43480000Y13330000D01*
X29275000Y17800000D02*
X28940000Y18135000D01*
D28*
%TO.N,/FG*%
X38390000Y13160000D02*
X38175000Y13375000D01*
D27*
X22030000Y17485000D02*
X22030000Y17045000D01*
D28*
X38390000Y11050000D02*
X38390000Y13160000D01*
D27*
X22030000Y17045000D02*
X22375000Y16700000D01*
D28*
%TO.N,+5V*%
X13860000Y13525000D02*
X18125000Y13525000D01*
X15975000Y13525000D02*
X15975000Y11375000D01*
X15675000Y22200000D02*
X15675000Y20600000D01*
X10685000Y16700000D02*
X13860000Y13525000D01*
X10675000Y21675000D02*
X12550000Y23550000D01*
D29*
X22030000Y21385000D02*
X20915000Y21385000D01*
X19075000Y23225000D02*
X15150000Y23225000D01*
X20915000Y21385000D02*
X19075000Y23225000D01*
D28*
X10685000Y21665000D02*
X10675000Y21675000D01*
X15975000Y11375000D02*
X16275000Y11075000D01*
X8325000Y24000000D02*
X14225000Y24000000D01*
X10685000Y16700000D02*
X10685000Y21665000D01*
D29*
%TO.N,Net-(IC1-SW)*%
X20715000Y22685000D02*
X18950000Y24450000D01*
X22030000Y22685000D02*
X20715000Y22685000D01*
X15825000Y28250000D02*
X14675000Y28250000D01*
X18950000Y25125000D02*
X15825000Y28250000D01*
X18950000Y24450000D02*
X18950000Y25125000D01*
D28*
%TO.N,VDD*%
X25720000Y13430000D02*
X25720000Y8536250D01*
D27*
X36700000Y14675000D02*
X37225000Y15200000D01*
D28*
X24825000Y13450000D02*
X25700000Y13450000D01*
X25720000Y7595000D02*
X25720000Y8536250D01*
X18200000Y6625000D02*
X24750000Y6625000D01*
D27*
X31000000Y13900000D02*
X31775000Y14675000D01*
D28*
X16290000Y8535000D02*
X18200000Y6625000D01*
X16275000Y8535000D02*
X16290000Y8535000D01*
D27*
X31775000Y14675000D02*
X36700000Y14675000D01*
D28*
X24750000Y6625000D02*
X25720000Y7595000D01*
D27*
X37225000Y15200000D02*
X43525000Y15200000D01*
D28*
X25700000Y13450000D02*
X26475000Y13450000D01*
X25700000Y13450000D02*
X25720000Y13430000D01*
%TD*%
%TA.AperFunction,Conductor*%
%TO.N,+12V*%
G36*
X38908181Y41746706D02*
G01*
X38913902Y41745606D01*
X38956115Y41737484D01*
X38992038Y41722830D01*
X39024415Y41701406D01*
X39051949Y41674068D01*
X39073603Y41641848D01*
X39088515Y41606029D01*
X39098080Y41558166D01*
X39100000Y41538768D01*
X39100000Y37237339D01*
X39096641Y37211769D01*
X39080152Y37150095D01*
X39054630Y37105777D01*
X39019068Y37070097D01*
X38974840Y37044430D01*
X38938417Y37034562D01*
X38913217Y37027734D01*
X38887663Y37024291D01*
X35667510Y37013521D01*
X35062976Y37011500D01*
X31705310Y37000270D01*
X31705308Y37000270D01*
X31705303Y37000269D01*
X31625000Y37000000D01*
X31567180Y36944271D01*
X29610717Y35058524D01*
X29610716Y35058524D01*
X29610716Y35058523D01*
X29550000Y35000000D01*
X29549517Y34915672D01*
X29549516Y34915667D01*
X29500188Y26308039D01*
X29500019Y26304224D01*
X29498258Y26283022D01*
X29495822Y26267938D01*
X29490818Y26247253D01*
X29489778Y26243579D01*
X28738381Y23933644D01*
X28730130Y23915040D01*
X28704827Y23870891D01*
X28677932Y23840619D01*
X28645461Y23816522D01*
X28608699Y23799552D01*
X28559115Y23788123D01*
X28538917Y23785614D01*
X28012554Y23774775D01*
X27915106Y23772768D01*
X27218704Y23758428D01*
X27198928Y23760009D01*
X27150076Y23768908D01*
X27113418Y23783591D01*
X27080434Y23805285D01*
X27052436Y23833123D01*
X27030551Y23865989D01*
X27015661Y23902559D01*
X27006484Y23951355D01*
X27004789Y23971127D01*
X27031232Y25747550D01*
X27031234Y25747683D01*
X27031250Y25748750D01*
X27050000Y30200000D01*
X25260328Y33043862D01*
X25253637Y33056415D01*
X25239079Y33089208D01*
X25231398Y33116544D01*
X25226746Y33152129D01*
X25225921Y33166337D01*
X25251295Y34993287D01*
X25274892Y36692292D01*
X25274996Y36695467D01*
X25275117Y36699111D01*
X25275210Y36700880D01*
X25275695Y36707649D01*
X25290551Y36871073D01*
X25294838Y36892227D01*
X25311251Y36943586D01*
X25332882Y36980677D01*
X25369496Y37020249D01*
X25385800Y37034401D01*
X25976525Y37443365D01*
X32068177Y41660662D01*
X32080938Y41668152D01*
X32114408Y41684566D01*
X32142538Y41693464D01*
X32179375Y41699287D01*
X32194097Y41700496D01*
X38888770Y41748486D01*
X38908181Y41746706D01*
G37*
%TD.AperFunction*%
%TD*%
%TA.AperFunction,Conductor*%
%TO.N,GND*%
G36*
X23224579Y17328943D02*
G01*
X23257551Y17305345D01*
X23624382Y16938514D01*
X23034749Y16935822D01*
X22999818Y17027930D01*
X22999817Y17027932D01*
X22999815Y17027937D01*
X22996756Y17033766D01*
X22983034Y17102275D01*
X22996070Y17147679D01*
X23053146Y17259696D01*
X23053145Y17259696D01*
X23057577Y17268392D01*
X23059689Y17267316D01*
X23091374Y17313656D01*
X23155732Y17340855D01*
X23224579Y17328943D01*
G37*
%TD.AperFunction*%
%TA.AperFunction,Conductor*%
G36*
X26699209Y23968005D02*
G01*
X26699750Y23952675D01*
X26702755Y23917621D01*
X26704830Y23902426D01*
X26704832Y23902414D01*
X26715424Y23846097D01*
X26720236Y23829745D01*
X26721996Y23821934D01*
X26731852Y23759700D01*
X26753968Y23716294D01*
X26766863Y23647624D01*
X26753968Y23603708D01*
X26731853Y23560305D01*
X26731853Y23560304D01*
X26717534Y23469895D01*
X26716002Y23462880D01*
X26703990Y23419959D01*
X26703986Y23419945D01*
X26699891Y23400547D01*
X26699887Y23400520D01*
X26693412Y23355568D01*
X26693407Y23355525D01*
X26691860Y23335780D01*
X26690572Y23239086D01*
X26690822Y23228100D01*
X26690824Y23228047D01*
X26692303Y23202874D01*
X26692305Y23202850D01*
X26693347Y23191895D01*
X26693353Y23191834D01*
X26695414Y23176186D01*
X26695414Y23143816D01*
X26690756Y23108434D01*
X26690752Y23108404D01*
X26690750Y23108379D01*
X26689850Y23099538D01*
X26689848Y23099515D01*
X26689846Y23099492D01*
X26688969Y23087354D01*
X26688782Y23084759D01*
X26688398Y23075784D01*
X26683411Y22701047D01*
X26683959Y22685928D01*
X26686929Y22651361D01*
X26688964Y22636398D01*
X26699354Y22580787D01*
X26699355Y22580784D01*
X26716256Y22522817D01*
X26716266Y22522789D01*
X26720245Y22512904D01*
X26727687Y22486001D01*
X26731852Y22459701D01*
X26731853Y22459697D01*
X26753968Y22416295D01*
X26766864Y22347626D01*
X26753969Y22303708D01*
X26731853Y22260302D01*
X26731852Y22260300D01*
X26717000Y22166525D01*
X26717000Y22148426D01*
X26714543Y22123864D01*
X26711282Y22107729D01*
X26705166Y22062398D01*
X26703795Y22042492D01*
X26701459Y21372798D01*
X26701459Y21372793D01*
X26702147Y21357739D01*
X26705412Y21323438D01*
X26705413Y21323433D01*
X26707568Y21308580D01*
X26707576Y21308532D01*
X26715408Y21268517D01*
X26716372Y21261469D01*
X26717000Y21253490D01*
X26731854Y21159695D01*
X26753968Y21116295D01*
X26766864Y21047626D01*
X26753968Y21003706D01*
X26731854Y20960304D01*
X26731852Y20960300D01*
X26717000Y20866525D01*
X26717000Y20846094D01*
X26712648Y20813530D01*
X26712212Y20811929D01*
X26708244Y20792410D01*
X26702079Y20747126D01*
X26700683Y20727236D01*
X26698046Y20175850D01*
X26698427Y20162703D01*
X26698371Y20157720D01*
X26698256Y20155497D01*
X26697902Y20145775D01*
X26697622Y20087502D01*
X26698290Y20072464D01*
X26701518Y20038124D01*
X26701522Y20038093D01*
X26703660Y20023239D01*
X26703661Y20023231D01*
X26714990Y19965003D01*
X26714805Y19964968D01*
X26715894Y19958234D01*
X26716240Y19958288D01*
X26717000Y19953483D01*
X26717001Y19953482D01*
X26731854Y19859696D01*
X26789450Y19746658D01*
X26789452Y19746656D01*
X26789454Y19746653D01*
X26879152Y19656955D01*
X26879154Y19656954D01*
X26879158Y19656950D01*
X26992196Y19599354D01*
X26992198Y19599353D01*
X27085975Y19584501D01*
X27085981Y19584500D01*
X27126372Y19584501D01*
X27144615Y19583152D01*
X27155990Y19581459D01*
X27190335Y19578066D01*
X27205363Y19577325D01*
X28661040Y19577325D01*
X28728079Y19557640D01*
X28744469Y19545061D01*
X28755000Y19535483D01*
X28755000Y18585500D01*
X28616552Y18585500D01*
X28560258Y18599015D01*
X28517801Y18620648D01*
X28424024Y18635500D01*
X27085982Y18635500D01*
X27006409Y18622897D01*
X26992196Y18620646D01*
X26879158Y18563050D01*
X26879156Y18563049D01*
X26879157Y18563049D01*
X26879152Y18563046D01*
X26789454Y18473348D01*
X26789451Y18473343D01*
X26789450Y18473342D01*
X26782545Y18459790D01*
X26731852Y18360302D01*
X26717000Y18266525D01*
X26717000Y18003483D01*
X26731854Y17909695D01*
X26753968Y17866295D01*
X26766864Y17797626D01*
X26753968Y17753706D01*
X26731854Y17710304D01*
X26731852Y17710300D01*
X26717000Y17616525D01*
X26717000Y17353483D01*
X26725657Y17298826D01*
X26731854Y17259696D01*
X26789450Y17146658D01*
X26789452Y17146656D01*
X26789454Y17146653D01*
X26879152Y17056955D01*
X26879154Y17056954D01*
X26879158Y17056950D01*
X26984001Y17003530D01*
X27034797Y16955555D01*
X27035160Y16954088D01*
X24892797Y16944306D01*
X23403908Y18433195D01*
X23399271Y18438383D01*
X23374879Y18468970D01*
X23374878Y18468971D01*
X23374877Y18468972D01*
X23351973Y18484588D01*
X23326669Y18501839D01*
X23324803Y18503164D01*
X23277886Y18537790D01*
X23277882Y18537793D01*
X23277877Y18537795D01*
X23270297Y18541802D01*
X23262675Y18545472D01*
X23206941Y18562663D01*
X23204752Y18563383D01*
X23151044Y18582176D01*
X23094269Y18622897D01*
X23068521Y18687849D01*
X23067999Y18699200D01*
X23067999Y18916518D01*
X23053146Y19010304D01*
X23053145Y19010306D01*
X23053145Y19010307D01*
X23031032Y19053705D01*
X23018135Y19122374D01*
X23031030Y19166293D01*
X23053146Y19209696D01*
X23058659Y19244500D01*
X23064306Y19280156D01*
X23068000Y19303481D01*
X23067999Y19566518D01*
X23053146Y19660304D01*
X22995550Y19773342D01*
X22995546Y19773346D01*
X22995545Y19773348D01*
X22905847Y19863046D01*
X22905844Y19863048D01*
X22905842Y19863050D01*
X22829017Y19902195D01*
X22792801Y19920648D01*
X22699024Y19935500D01*
X21360982Y19935500D01*
X21267194Y19920646D01*
X21224743Y19899015D01*
X21168448Y19885500D01*
X21130000Y19885500D01*
X21130000Y20284500D01*
X21168448Y20284500D01*
X21224742Y20270985D01*
X21267198Y20249353D01*
X21360975Y20234501D01*
X21360981Y20234500D01*
X22699018Y20234501D01*
X22792804Y20249354D01*
X22905842Y20306950D01*
X22995550Y20396658D01*
X23053146Y20509696D01*
X23053146Y20509698D01*
X23053147Y20509699D01*
X23067999Y20603476D01*
X23068000Y20603481D01*
X23067999Y20866518D01*
X23053146Y20960304D01*
X23053145Y20960306D01*
X23053145Y20960307D01*
X23031032Y21003705D01*
X23018135Y21072374D01*
X23031030Y21116293D01*
X23053146Y21159696D01*
X23068000Y21253481D01*
X23067999Y21516518D01*
X23053146Y21610304D01*
X22995550Y21723342D01*
X22995546Y21723346D01*
X22995545Y21723348D01*
X22905847Y21813046D01*
X22905844Y21813048D01*
X22905842Y21813050D01*
X22829017Y21852195D01*
X22792801Y21870648D01*
X22699024Y21885500D01*
X22699019Y21885500D01*
X22065802Y21885500D01*
X22065799Y21885500D01*
X21173676Y21885500D01*
X21130000Y21898325D01*
X21130000Y22184500D01*
X22075789Y22184500D01*
X22075801Y22184501D01*
X22699017Y22184501D01*
X22699018Y22184501D01*
X22792804Y22199354D01*
X22905842Y22256950D01*
X22995550Y22346658D01*
X23053146Y22459696D01*
X23053146Y22459698D01*
X23053147Y22459699D01*
X23067999Y22553476D01*
X23068000Y22553481D01*
X23067999Y22816518D01*
X23053146Y22910304D01*
X23031030Y22953708D01*
X23018135Y23022374D01*
X23031032Y23066296D01*
X23053146Y23109696D01*
X23053146Y23109698D01*
X23053147Y23109699D01*
X23067999Y23203476D01*
X23068000Y23203481D01*
X23067999Y23466518D01*
X23053146Y23560304D01*
X23053145Y23560306D01*
X23053145Y23560307D01*
X23031032Y23603705D01*
X23018135Y23672374D01*
X23031031Y23716294D01*
X23053146Y23759696D01*
X23068000Y23853481D01*
X23067999Y24116518D01*
X23053146Y24210304D01*
X23053145Y24210306D01*
X23053145Y24210307D01*
X23031032Y24253705D01*
X23018135Y24322374D01*
X23031030Y24366293D01*
X23053146Y24409696D01*
X23068000Y24503481D01*
X23067999Y24766518D01*
X23053146Y24860304D01*
X22995550Y24973342D01*
X22995546Y24973346D01*
X22995545Y24973348D01*
X22908893Y25060000D01*
X26715463Y25060000D01*
X26699209Y23968005D01*
G37*
%TD.AperFunction*%
%TD*%
%TA.AperFunction,Conductor*%
%TO.N,/U*%
G36*
X47214743Y21694401D02*
G01*
X47276353Y21678820D01*
X47320827Y21654079D01*
X47326444Y21648659D01*
X47356918Y21619248D01*
X47383224Y21575678D01*
X47400982Y21514663D01*
X47404899Y21489300D01*
X47445010Y19764543D01*
X47443508Y19744907D01*
X47434878Y19696381D01*
X47420513Y19659916D01*
X47399215Y19627016D01*
X47371827Y19598983D01*
X47339429Y19576924D01*
X47303308Y19561715D01*
X47283293Y19557674D01*
X47254995Y19551959D01*
X47235400Y19550000D01*
X43300000Y19550000D01*
X43288109Y19548571D01*
X43288109Y19548570D01*
X34936060Y18544156D01*
X34934773Y18544018D01*
X34926279Y18543221D01*
X34923687Y18543047D01*
X34915144Y18542696D01*
X34913851Y18542660D01*
X33325024Y18518976D01*
X33206372Y18517207D01*
X30463398Y18476319D01*
X30444851Y18477791D01*
X30398905Y18485836D01*
X30364250Y18498942D01*
X30350516Y18507359D01*
X30324470Y18523321D01*
X30309597Y18534487D01*
X29810137Y18988762D01*
X28884370Y19830779D01*
X28884369Y19830780D01*
X28884367Y19830781D01*
X28827147Y19882825D01*
X28749798Y19882825D01*
X28749796Y19882825D01*
X27212886Y19882825D01*
X27193514Y19884739D01*
X27145719Y19894276D01*
X27109945Y19909145D01*
X27077751Y19930739D01*
X27050422Y19958199D01*
X27028982Y19990495D01*
X27014284Y20026343D01*
X27004975Y20074189D01*
X27003155Y20093556D01*
X27003375Y20139472D01*
X27003799Y20145697D01*
X27003828Y20145919D01*
X27005682Y20160000D01*
X27003989Y20172856D01*
X27003567Y20179553D01*
X27006132Y20715796D01*
X27009606Y20741313D01*
X27026361Y20802865D01*
X27052048Y20847029D01*
X27087729Y20882539D01*
X27132014Y20908013D01*
X27164333Y20916645D01*
X27193640Y20924472D01*
X27219186Y20927825D01*
X28708045Y20927825D01*
X28710839Y20927746D01*
X28715859Y20927463D01*
X28729204Y20926708D01*
X28734755Y20926078D01*
X28738873Y20925373D01*
X28752906Y20922970D01*
X28755649Y20922421D01*
X29164565Y20828377D01*
X30352315Y20555217D01*
X30352316Y20555217D01*
X30375000Y20550000D01*
X30398272Y20550133D01*
X30398277Y20550132D01*
X30398289Y20550133D01*
X30398291Y20550132D01*
X31509309Y20556445D01*
X34763047Y20574932D01*
X34763048Y20574933D01*
X34763067Y20574934D01*
X34775000Y20575000D01*
X34786854Y20576491D01*
X34786860Y20576491D01*
X40470941Y21291157D01*
X43313106Y21648504D01*
X43314452Y21648655D01*
X43323647Y21649549D01*
X43326397Y21649738D01*
X43334529Y21650069D01*
X43335588Y21650111D01*
X43336963Y21650148D01*
X47189266Y21697415D01*
X47214743Y21694401D01*
G37*
%TD.AperFunction*%
%TD*%
%TA.AperFunction,Conductor*%
%TO.N,/W*%
G36*
X47182150Y31673068D02*
G01*
X47230157Y31663442D01*
X47266074Y31648436D01*
X47298353Y31626651D01*
X47325709Y31598954D01*
X47347090Y31566413D01*
X47361653Y31530314D01*
X47370687Y31482187D01*
X47372378Y31462701D01*
X47351701Y29787831D01*
X47347579Y29760757D01*
X47328269Y29696014D01*
X47299114Y29650266D01*
X47248583Y29605419D01*
X47225785Y29590249D01*
X45779167Y28894371D01*
X34868038Y23645704D01*
X34862975Y23643605D01*
X34834259Y23633523D01*
X34812944Y23628600D01*
X34782700Y23625068D01*
X34777229Y23624735D01*
X30388902Y23600356D01*
X30388897Y23600356D01*
X30388895Y23600355D01*
X30388894Y23600355D01*
X30325000Y23600000D01*
X30273146Y23562667D01*
X30273142Y23562664D01*
X28844788Y22534270D01*
X28831603Y22526258D01*
X28796940Y22508737D01*
X28767664Y22499294D01*
X28729293Y22493258D01*
X28713909Y22492055D01*
X27198669Y22492055D01*
X27179194Y22493990D01*
X27151764Y22499494D01*
X27131159Y22503628D01*
X27095226Y22518652D01*
X27062934Y22540463D01*
X27035577Y22568188D01*
X27014203Y22600761D01*
X26999658Y22636892D01*
X26990659Y22685060D01*
X26988985Y22704542D01*
X26993812Y23067235D01*
X26994229Y23073011D01*
X27005682Y23160000D01*
X26996956Y23226274D01*
X26996119Y23240513D01*
X26997201Y23321797D01*
X27000854Y23347156D01*
X27017959Y23408273D01*
X27043756Y23452052D01*
X27079412Y23487237D01*
X27123536Y23512451D01*
X27154752Y23520741D01*
X27184867Y23528738D01*
X27210277Y23532055D01*
X28648903Y23532055D01*
X28746157Y23532055D01*
X28834446Y23644515D01*
X30282656Y25489220D01*
X30298433Y25505192D01*
X30342012Y25540282D01*
X30382178Y25559715D01*
X30436743Y25572104D01*
X30459053Y25574559D01*
X33724572Y25561316D01*
X34715074Y25557298D01*
X34715080Y25557299D01*
X34775000Y25557055D01*
X34825183Y25589804D01*
X34825186Y25589805D01*
X44094195Y31638584D01*
X44106673Y31645496D01*
X44139394Y31660648D01*
X44166727Y31668777D01*
X44188329Y31671921D01*
X44202396Y31673968D01*
X44216654Y31675000D01*
X47162687Y31675000D01*
X47182150Y31673068D01*
G37*
%TD.AperFunction*%
%TD*%
%TA.AperFunction,Conductor*%
%TO.N,/V*%
G36*
X47289481Y26602537D02*
G01*
X47314868Y26598909D01*
X47376040Y26581857D01*
X47419881Y26556074D01*
X47455110Y26520418D01*
X47480364Y26476269D01*
X47496678Y26414895D01*
X47500000Y26389463D01*
X47500000Y24759532D01*
X47496698Y24734178D01*
X47480482Y24672970D01*
X47455378Y24628916D01*
X47420338Y24593277D01*
X47376714Y24567430D01*
X47315793Y24550181D01*
X47290501Y24546450D01*
X43112918Y24475643D01*
X43112915Y24475643D01*
X43075000Y24475000D01*
X40293584Y23325793D01*
X34764492Y21041318D01*
X34759858Y21039668D01*
X34733679Y21031785D01*
X34714405Y21028017D01*
X34706333Y21027258D01*
X34687153Y21025455D01*
X34682279Y21025241D01*
X30282646Y21049958D01*
X30282198Y21049970D01*
X30275947Y21050124D01*
X30274061Y21050206D01*
X30267379Y21050627D01*
X29938512Y21077677D01*
X28839434Y21168077D01*
X28839427Y21168078D01*
X28831250Y21168750D01*
X28823059Y21168750D01*
X27216720Y21168750D01*
X27197364Y21170661D01*
X27149607Y21180182D01*
X27113854Y21195028D01*
X27081675Y21216591D01*
X27054353Y21244008D01*
X27032901Y21276264D01*
X27018181Y21312069D01*
X27008827Y21359860D01*
X27006984Y21379221D01*
X27009259Y22031448D01*
X27012705Y22056993D01*
X27029407Y22118613D01*
X27055074Y22162832D01*
X27090760Y22198392D01*
X27135071Y22223906D01*
X27152079Y22228453D01*
X27196745Y22240392D01*
X27222311Y22243750D01*
X28730924Y22243750D01*
X28730926Y22243750D01*
X28781250Y22243750D01*
X29553269Y22658523D01*
X30327415Y23074435D01*
X30333025Y23077013D01*
X30342387Y23080627D01*
X30364966Y23089340D01*
X30388855Y23095279D01*
X30397251Y23096283D01*
X30422862Y23099344D01*
X30429015Y23099694D01*
X34775000Y23075000D01*
X39796469Y25168500D01*
X43309580Y26633149D01*
X43314323Y26634849D01*
X43341125Y26642941D01*
X43360859Y26646767D01*
X43382683Y26648731D01*
X43388760Y26649277D01*
X43393786Y26649473D01*
X47289481Y26602537D01*
G37*
%TD.AperFunction*%
%TD*%
%TA.AperFunction,Conductor*%
%TO.N,GND*%
G36*
X21076293Y22264815D02*
G01*
X21106297Y22235000D01*
X21130000Y22235000D01*
X21130000Y21835000D01*
X21082755Y21835000D01*
X21015716Y21854685D01*
X20995074Y21871319D01*
X20793574Y22072819D01*
X20760089Y22134142D01*
X20765073Y22203834D01*
X20806945Y22259767D01*
X20872409Y22284184D01*
X20881255Y22284500D01*
X21009254Y22284500D01*
X21076293Y22264815D01*
G37*
%TD.AperFunction*%
%TA.AperFunction,Conductor*%
G36*
X55558539Y45435815D02*
G01*
X55604294Y45383011D01*
X55615500Y45331500D01*
X55615500Y5468500D01*
X55595815Y5401461D01*
X55543011Y5355706D01*
X55491500Y5344500D01*
X5468500Y5344500D01*
X5401461Y5364185D01*
X5355706Y5416989D01*
X5344500Y5468500D01*
X5344500Y15918298D01*
X7183000Y15918298D01*
X7194602Y15859967D01*
X7194603Y15859966D01*
X7238808Y15793809D01*
X7304965Y15749604D01*
X7304966Y15749603D01*
X7363297Y15738001D01*
X7363301Y15738000D01*
X7895000Y15738000D01*
X7895000Y16332468D01*
X7949960Y16294996D01*
X8078002Y16255500D01*
X8178312Y16255500D01*
X8277499Y16270450D01*
X8395000Y16327036D01*
X8395000Y15738000D01*
X8926699Y15738000D01*
X8926702Y15738001D01*
X8985033Y15749603D01*
X8985034Y15749604D01*
X9051191Y15793809D01*
X9095396Y15859966D01*
X9095397Y15859967D01*
X9106999Y15918298D01*
X9107000Y15918302D01*
X9107000Y16450000D01*
X8513927Y16450000D01*
X8563447Y16535772D01*
X8593264Y16666407D01*
X8583251Y16800028D01*
X8534297Y16924760D01*
X8514169Y16950000D01*
X9107000Y16950000D01*
X9107000Y17481699D01*
X9106999Y17481703D01*
X9095397Y17540034D01*
X9095396Y17540035D01*
X9051191Y17606192D01*
X8985034Y17650397D01*
X8985033Y17650398D01*
X8926702Y17662000D01*
X8395000Y17662000D01*
X8395000Y17067533D01*
X8340040Y17105004D01*
X8211998Y17144500D01*
X8111688Y17144500D01*
X8012501Y17129550D01*
X7895000Y17072965D01*
X7895000Y17662000D01*
X7363297Y17662000D01*
X7304966Y17650398D01*
X7304965Y17650397D01*
X7238808Y17606192D01*
X7194603Y17540035D01*
X7194602Y17540034D01*
X7183000Y17481703D01*
X7183000Y16950000D01*
X7776073Y16950000D01*
X7726553Y16864228D01*
X7696736Y16733593D01*
X7706749Y16599972D01*
X7755703Y16475240D01*
X7775831Y16450000D01*
X7183000Y16450000D01*
X7183000Y15918298D01*
X5344500Y15918298D01*
X5344500Y18458298D01*
X7183000Y18458298D01*
X7194602Y18399967D01*
X7194603Y18399966D01*
X7238808Y18333809D01*
X7304965Y18289604D01*
X7304966Y18289603D01*
X7363297Y18278001D01*
X7363301Y18278000D01*
X7895000Y18278000D01*
X7895000Y18872468D01*
X7949960Y18834996D01*
X8078002Y18795500D01*
X8178312Y18795500D01*
X8277499Y18810450D01*
X8395000Y18867036D01*
X8395000Y18278000D01*
X8926699Y18278000D01*
X8926702Y18278001D01*
X8985033Y18289603D01*
X8985034Y18289604D01*
X9051191Y18333809D01*
X9095396Y18399966D01*
X9095397Y18399967D01*
X9106999Y18458298D01*
X9107000Y18458302D01*
X9107000Y18990000D01*
X8513927Y18990000D01*
X8563447Y19075772D01*
X8593264Y19206407D01*
X8583251Y19340028D01*
X8534297Y19464760D01*
X8514169Y19490000D01*
X9107000Y19490000D01*
X9107000Y20021699D01*
X9106999Y20021703D01*
X9095397Y20080034D01*
X9095396Y20080035D01*
X9051191Y20146192D01*
X8985034Y20190397D01*
X8985033Y20190398D01*
X8926702Y20202000D01*
X8395000Y20202000D01*
X8395000Y19607533D01*
X8340040Y19645004D01*
X8211998Y19684500D01*
X8111688Y19684500D01*
X8012501Y19669550D01*
X7895000Y19612965D01*
X7895000Y20202000D01*
X7363297Y20202000D01*
X7304966Y20190398D01*
X7304965Y20190397D01*
X7238808Y20146192D01*
X7194603Y20080035D01*
X7194602Y20080034D01*
X7183000Y20021703D01*
X7183000Y19490000D01*
X7776073Y19490000D01*
X7726553Y19404228D01*
X7696736Y19273593D01*
X7706749Y19139972D01*
X7755703Y19015240D01*
X7775831Y18990000D01*
X7183000Y18990000D01*
X7183000Y18458298D01*
X5344500Y18458298D01*
X5344500Y22730248D01*
X7224500Y22730248D01*
X7236131Y22671771D01*
X7236132Y22671770D01*
X7280447Y22605448D01*
X7346769Y22561133D01*
X7346770Y22561132D01*
X7405247Y22549501D01*
X7405250Y22549500D01*
X7405252Y22549500D01*
X9244750Y22549500D01*
X9244751Y22549501D01*
X9259568Y22552448D01*
X9303229Y22561132D01*
X9303229Y22561133D01*
X9303231Y22561133D01*
X9369552Y22605448D01*
X9413867Y22671769D01*
X9413867Y22671771D01*
X9413868Y22671771D01*
X9425499Y22730248D01*
X9425500Y22730250D01*
X9425500Y23425500D01*
X9445185Y23492539D01*
X9497989Y23538294D01*
X9549500Y23549500D01*
X10600500Y23549500D01*
X10667539Y23529815D01*
X10713294Y23477011D01*
X10724500Y23425500D01*
X10724500Y22412966D01*
X10704815Y22345927D01*
X10688181Y22325285D01*
X10402218Y22039323D01*
X10380522Y22022019D01*
X10377830Y22020328D01*
X10377822Y22020321D01*
X10346043Y21983393D01*
X10342893Y21979998D01*
X10332572Y21969676D01*
X10323915Y21957946D01*
X10321025Y21954322D01*
X10289242Y21917389D01*
X10289238Y21917383D01*
X10287971Y21914477D01*
X10274095Y21890441D01*
X10272206Y21887882D01*
X10256117Y21841903D01*
X10254423Y21837587D01*
X10234936Y21792922D01*
X10234934Y21792915D01*
X10234578Y21789753D01*
X10228405Y21762705D01*
X10227354Y21759702D01*
X10227353Y21759697D01*
X10225532Y21711008D01*
X10225185Y21706383D01*
X10219729Y21657966D01*
X10219729Y21657964D01*
X10220319Y21654848D01*
X10222394Y21627160D01*
X10222275Y21623994D01*
X10222276Y21623991D01*
X10222276Y21623990D01*
X10230275Y21594136D01*
X10234500Y21562045D01*
X10234500Y20326500D01*
X10214815Y20259461D01*
X10162011Y20213706D01*
X10110500Y20202500D01*
X9903247Y20202500D01*
X9844770Y20190869D01*
X9844769Y20190868D01*
X9778447Y20146553D01*
X9734132Y20080231D01*
X9734131Y20080230D01*
X9722500Y20021753D01*
X9722500Y18458248D01*
X9734131Y18399771D01*
X9734132Y18399770D01*
X9778447Y18333448D01*
X9844769Y18289133D01*
X9844770Y18289132D01*
X9903247Y18277501D01*
X9903250Y18277500D01*
X9903252Y18277500D01*
X10110500Y18277500D01*
X10177539Y18257815D01*
X10223294Y18205011D01*
X10234500Y18153500D01*
X10234500Y17786500D01*
X10214815Y17719461D01*
X10162011Y17673706D01*
X10110500Y17662500D01*
X9903247Y17662500D01*
X9844770Y17650869D01*
X9844769Y17650868D01*
X9778447Y17606553D01*
X9734132Y17540231D01*
X9734131Y17540230D01*
X9722500Y17481753D01*
X9722500Y15918248D01*
X9734131Y15859771D01*
X9734132Y15859770D01*
X9778447Y15793448D01*
X9844769Y15749133D01*
X9844770Y15749132D01*
X9903247Y15737501D01*
X9903250Y15737500D01*
X9903252Y15737500D01*
X10959034Y15737500D01*
X11026073Y15717815D01*
X11046715Y15701181D01*
X13521090Y13226807D01*
X13525726Y13221620D01*
X13550121Y13191030D01*
X13550123Y13191028D01*
X13598321Y13158167D01*
X13600212Y13156825D01*
X13647118Y13122207D01*
X13654654Y13118224D01*
X13662319Y13114533D01*
X13662327Y13114528D01*
X13689121Y13106264D01*
X13718089Y13097328D01*
X13720284Y13096606D01*
X13775301Y13077354D01*
X13775305Y13077354D01*
X13783679Y13075770D01*
X13792096Y13074501D01*
X13792098Y13074500D01*
X13850422Y13074500D01*
X13852705Y13074458D01*
X13911010Y13072276D01*
X13920244Y13073316D01*
X13920337Y13072487D01*
X13935636Y13074500D01*
X15025471Y13074500D01*
X15092510Y13054815D01*
X15125241Y13024133D01*
X15177848Y12952852D01*
X15177849Y12952852D01*
X15177850Y12952850D01*
X15287118Y12872207D01*
X15319163Y12860994D01*
X15415298Y12827354D01*
X15422670Y12825744D01*
X15422206Y12823621D01*
X15476982Y12801802D01*
X15517609Y12744959D01*
X15524500Y12704198D01*
X15524500Y12145481D01*
X15504815Y12078442D01*
X15452011Y12032687D01*
X15445973Y12030736D01*
X15446054Y12030542D01*
X15434769Y12025868D01*
X15368447Y11981553D01*
X15324132Y11915231D01*
X15324131Y11915230D01*
X15312500Y11856753D01*
X15312500Y10293248D01*
X15324131Y10234771D01*
X15324132Y10234770D01*
X15368447Y10168448D01*
X15434769Y10124133D01*
X15434770Y10124132D01*
X15493247Y10112501D01*
X15493250Y10112500D01*
X15493252Y10112500D01*
X17056750Y10112500D01*
X17056751Y10112501D01*
X17071568Y10115448D01*
X17115229Y10124132D01*
X17115229Y10124133D01*
X17115231Y10124133D01*
X17181552Y10168448D01*
X17225867Y10234769D01*
X17225867Y10234771D01*
X17225868Y10234771D01*
X17237499Y10293248D01*
X17237500Y10293250D01*
X17237500Y10294548D01*
X19678000Y10294548D01*
X19689602Y10236217D01*
X19689603Y10236216D01*
X19733808Y10170059D01*
X19799965Y10125854D01*
X19799966Y10125853D01*
X19858297Y10114251D01*
X19858301Y10114250D01*
X20390000Y10114250D01*
X20390000Y10708718D01*
X20444960Y10671246D01*
X20573002Y10631750D01*
X20673312Y10631750D01*
X20772499Y10646700D01*
X20890000Y10703286D01*
X20890000Y10114250D01*
X21421699Y10114250D01*
X21421702Y10114251D01*
X21480033Y10125853D01*
X21480034Y10125854D01*
X21546191Y10170059D01*
X21590396Y10236216D01*
X21590397Y10236217D01*
X21601999Y10294548D01*
X21602000Y10294551D01*
X21602000Y10826250D01*
X21008927Y10826250D01*
X21058447Y10912022D01*
X21088264Y11042657D01*
X21078251Y11176278D01*
X21029297Y11301010D01*
X21009169Y11326250D01*
X21602000Y11326250D01*
X21602000Y11857950D01*
X21601999Y11857953D01*
X21590397Y11916284D01*
X21590396Y11916285D01*
X21546191Y11982442D01*
X21480034Y12026647D01*
X21480033Y12026648D01*
X21421702Y12038250D01*
X20890000Y12038250D01*
X20890000Y11443783D01*
X20835040Y11481254D01*
X20706998Y11520750D01*
X20606688Y11520750D01*
X20507501Y11505800D01*
X20390000Y11449215D01*
X20390000Y12038250D01*
X19858297Y12038250D01*
X19799966Y12026648D01*
X19799965Y12026647D01*
X19733808Y11982442D01*
X19689603Y11916285D01*
X19689602Y11916284D01*
X19678000Y11857953D01*
X19678000Y11326250D01*
X20271073Y11326250D01*
X20221553Y11240478D01*
X20191736Y11109843D01*
X20201749Y10976222D01*
X20250703Y10851490D01*
X20270831Y10826250D01*
X19678000Y10826250D01*
X19678000Y10294548D01*
X17237500Y10294548D01*
X17237500Y11856751D01*
X17237499Y11856753D01*
X17225868Y11915230D01*
X17225867Y11915231D01*
X17181552Y11981553D01*
X17115230Y12025868D01*
X17115229Y12025869D01*
X17056752Y12037500D01*
X17056748Y12037500D01*
X16549500Y12037500D01*
X16482461Y12057185D01*
X16436706Y12109989D01*
X16425500Y12161500D01*
X16425500Y12704198D01*
X16445185Y12771237D01*
X16497989Y12816992D01*
X16527519Y12824878D01*
X16527330Y12825744D01*
X16534701Y12827354D01*
X16598790Y12849781D01*
X16662882Y12872207D01*
X16772150Y12952850D01*
X16824758Y13024133D01*
X16880406Y13066384D01*
X16924529Y13074500D01*
X17175471Y13074500D01*
X17242510Y13054815D01*
X17275241Y13024133D01*
X17327848Y12952852D01*
X17327849Y12952852D01*
X17327850Y12952850D01*
X17437118Y12872207D01*
X17479845Y12857256D01*
X17565299Y12827354D01*
X17595730Y12824500D01*
X17595734Y12824500D01*
X18654270Y12824500D01*
X18684699Y12827354D01*
X18684701Y12827354D01*
X18748790Y12849781D01*
X18812882Y12872207D01*
X18922150Y12952850D01*
X19002793Y13062118D01*
X19025219Y13126210D01*
X19047646Y13190299D01*
X19047646Y13190301D01*
X19050500Y13220731D01*
X19050500Y13829270D01*
X19047646Y13859700D01*
X19047646Y13859702D01*
X19012672Y13959650D01*
X19002793Y13987882D01*
X18922150Y14097150D01*
X18812882Y14177793D01*
X18812880Y14177794D01*
X18684700Y14222647D01*
X18654270Y14225500D01*
X18654266Y14225500D01*
X17595734Y14225500D01*
X17595730Y14225500D01*
X17565300Y14222647D01*
X17565298Y14222647D01*
X17437119Y14177794D01*
X17437117Y14177793D01*
X17327848Y14097149D01*
X17275241Y14025867D01*
X17219594Y13983616D01*
X17175471Y13975500D01*
X16924529Y13975500D01*
X16857490Y13995185D01*
X16824759Y14025867D01*
X16772151Y14097149D01*
X16750833Y14112882D01*
X16662882Y14177793D01*
X16662880Y14177794D01*
X16534700Y14222647D01*
X16504270Y14225500D01*
X16504266Y14225500D01*
X15445734Y14225500D01*
X15445730Y14225500D01*
X15415300Y14222647D01*
X15415298Y14222647D01*
X15287119Y14177794D01*
X15287117Y14177793D01*
X15177848Y14097149D01*
X15125241Y14025867D01*
X15069594Y13983616D01*
X15025471Y13975500D01*
X14097966Y13975500D01*
X14030927Y13995185D01*
X14010285Y14011819D01*
X12847104Y15175000D01*
X15050001Y15175000D01*
X15050001Y15120804D01*
X15052851Y15090394D01*
X15097653Y14962355D01*
X15178207Y14853208D01*
X15287354Y14772654D01*
X15415397Y14727851D01*
X15445792Y14725001D01*
X15724999Y14725001D01*
X15724999Y14725002D01*
X15725000Y15175000D01*
X16225000Y15175000D01*
X16225000Y14725001D01*
X16504196Y14725001D01*
X16534606Y14727852D01*
X16662645Y14772654D01*
X16771792Y14853208D01*
X16852346Y14962355D01*
X16897149Y15090396D01*
X16897149Y15090400D01*
X16900000Y15120794D01*
X16900000Y15175000D01*
X17200001Y15175000D01*
X17200001Y15120804D01*
X17202851Y15090394D01*
X17247653Y14962355D01*
X17328207Y14853208D01*
X17437354Y14772654D01*
X17565397Y14727851D01*
X17595792Y14725001D01*
X17874999Y14725001D01*
X17875000Y14725002D01*
X17875000Y15175000D01*
X18375000Y15175000D01*
X18375000Y14725001D01*
X18654196Y14725001D01*
X18684606Y14727852D01*
X18812645Y14772654D01*
X18921792Y14853208D01*
X19002346Y14962355D01*
X19047149Y15090396D01*
X19047149Y15090400D01*
X19050000Y15120794D01*
X19050000Y15175000D01*
X18375000Y15175000D01*
X17875000Y15175000D01*
X17200001Y15175000D01*
X16900000Y15175000D01*
X16225000Y15175000D01*
X15725000Y15175000D01*
X15050001Y15175000D01*
X12847104Y15175000D01*
X12495785Y15526319D01*
X12462300Y15587642D01*
X12467284Y15657334D01*
X12480509Y15675000D01*
X15050000Y15675000D01*
X15725000Y15675000D01*
X15725000Y16125000D01*
X16225000Y16125000D01*
X16225000Y15675000D01*
X16899999Y15675000D01*
X17200000Y15675000D01*
X17875000Y15675000D01*
X17875000Y16125000D01*
X18375000Y16125000D01*
X18375000Y15675000D01*
X19049999Y15675000D01*
X19049999Y15729197D01*
X19047148Y15759607D01*
X19002346Y15887646D01*
X18921792Y15996793D01*
X18812645Y16077347D01*
X18684602Y16122150D01*
X18654207Y16125000D01*
X18375000Y16125000D01*
X17875000Y16125000D01*
X17595804Y16125000D01*
X17565393Y16122149D01*
X17437354Y16077347D01*
X17328207Y15996793D01*
X17247653Y15887646D01*
X17202850Y15759605D01*
X17202850Y15759601D01*
X17200000Y15729207D01*
X17200000Y15675000D01*
X16899999Y15675000D01*
X16899999Y15729197D01*
X16897148Y15759607D01*
X16852346Y15887646D01*
X16771792Y15996793D01*
X16662645Y16077347D01*
X16534602Y16122150D01*
X16504207Y16125000D01*
X16225000Y16125000D01*
X15725000Y16125000D01*
X15445804Y16125000D01*
X15415393Y16122149D01*
X15287354Y16077347D01*
X15178207Y15996793D01*
X15097653Y15887646D01*
X15052850Y15759605D01*
X15052850Y15759601D01*
X15050000Y15729207D01*
X15050000Y15675000D01*
X12480509Y15675000D01*
X12509156Y15713267D01*
X12574620Y15737684D01*
X12583466Y15738000D01*
X12975000Y15738000D01*
X12975000Y16332468D01*
X13029960Y16294996D01*
X13158002Y16255500D01*
X13258312Y16255500D01*
X13357499Y16270450D01*
X13475000Y16327036D01*
X13475000Y15738000D01*
X14006699Y15738000D01*
X14006702Y15738001D01*
X14065033Y15749603D01*
X14065034Y15749604D01*
X14131191Y15793809D01*
X14175396Y15859966D01*
X14175397Y15859967D01*
X14186999Y15918298D01*
X14187000Y15918302D01*
X14187000Y16450000D01*
X13593927Y16450000D01*
X13643447Y16535772D01*
X13673264Y16666407D01*
X13663251Y16800028D01*
X13614297Y16924760D01*
X13594169Y16950000D01*
X14187000Y16950000D01*
X14187000Y17481699D01*
X14186999Y17481703D01*
X14175397Y17540034D01*
X14175396Y17540035D01*
X14131191Y17606192D01*
X14065034Y17650397D01*
X14065033Y17650398D01*
X14006702Y17662000D01*
X13475000Y17662000D01*
X13475000Y17067533D01*
X13420040Y17105004D01*
X13291998Y17144500D01*
X13191688Y17144500D01*
X13092501Y17129550D01*
X12975000Y17072965D01*
X12975000Y17662000D01*
X12443297Y17662000D01*
X12384966Y17650398D01*
X12384965Y17650397D01*
X12318808Y17606192D01*
X12274603Y17540035D01*
X12274602Y17540034D01*
X12263000Y17481703D01*
X12263000Y16950000D01*
X12856073Y16950000D01*
X12806553Y16864228D01*
X12776736Y16733593D01*
X12786749Y16599972D01*
X12835703Y16475240D01*
X12855831Y16450000D01*
X12263000Y16450000D01*
X12263000Y16058466D01*
X12243315Y15991427D01*
X12190511Y15945672D01*
X12121353Y15935728D01*
X12057797Y15964753D01*
X12051319Y15970785D01*
X11683819Y16338285D01*
X11650334Y16399608D01*
X11647500Y16425966D01*
X11647500Y17481751D01*
X11647499Y17481753D01*
X11635868Y17540230D01*
X11635867Y17540231D01*
X11591552Y17606553D01*
X11525230Y17650868D01*
X11525229Y17650869D01*
X11466752Y17662500D01*
X11466748Y17662500D01*
X11259500Y17662500D01*
X11192461Y17682185D01*
X11146706Y17734989D01*
X11135500Y17786500D01*
X11135500Y17810000D01*
X16830001Y17810000D01*
X16830001Y17530804D01*
X16832851Y17500394D01*
X16877653Y17372355D01*
X16958207Y17263208D01*
X17067354Y17182654D01*
X17195397Y17137851D01*
X17225779Y17135002D01*
X17225807Y17135001D01*
X17279999Y17135002D01*
X17280000Y17135002D01*
X17280000Y17810000D01*
X17780000Y17810000D01*
X17780000Y17135001D01*
X17834196Y17135001D01*
X17864606Y17137852D01*
X17992645Y17182654D01*
X18101792Y17263208D01*
X18182346Y17372355D01*
X18227149Y17500396D01*
X18227149Y17500400D01*
X18230000Y17530794D01*
X18230000Y17810000D01*
X17780000Y17810000D01*
X17280000Y17810000D01*
X16830001Y17810000D01*
X11135500Y17810000D01*
X11135500Y18153500D01*
X11155185Y18220539D01*
X11207989Y18266294D01*
X11259500Y18277500D01*
X11466750Y18277500D01*
X11466751Y18277501D01*
X11481568Y18280448D01*
X11525229Y18289132D01*
X11525229Y18289133D01*
X11525231Y18289133D01*
X11591552Y18333448D01*
X11635867Y18399769D01*
X11635867Y18399771D01*
X11635868Y18399771D01*
X11645844Y18449927D01*
X11647500Y18458252D01*
X11647500Y18458298D01*
X12263000Y18458298D01*
X12274602Y18399967D01*
X12274603Y18399966D01*
X12318808Y18333809D01*
X12384965Y18289604D01*
X12384966Y18289603D01*
X12443297Y18278001D01*
X12443301Y18278000D01*
X12975000Y18278000D01*
X12975000Y18872468D01*
X13029960Y18834996D01*
X13158002Y18795500D01*
X13258312Y18795500D01*
X13357499Y18810450D01*
X13475000Y18867036D01*
X13475000Y18278000D01*
X14006699Y18278000D01*
X14006702Y18278001D01*
X14065033Y18289603D01*
X14065034Y18289604D01*
X14131191Y18333809D01*
X14175396Y18399966D01*
X14175397Y18399967D01*
X14185349Y18450000D01*
X14750001Y18450000D01*
X14750001Y18395804D01*
X14752851Y18365394D01*
X14797653Y18237355D01*
X14878207Y18128208D01*
X14987354Y18047654D01*
X15115397Y18002851D01*
X15145792Y18000001D01*
X15424999Y18000001D01*
X15425000Y18000002D01*
X15425000Y18450000D01*
X15925000Y18450000D01*
X15925000Y18000001D01*
X16204196Y18000001D01*
X16234606Y18002852D01*
X16362645Y18047654D01*
X16471792Y18128208D01*
X16552346Y18237355D01*
X16588958Y18341987D01*
X16629680Y18398763D01*
X16658581Y18410221D01*
X16656577Y18411136D01*
X16762782Y18411136D01*
X16763194Y18411055D01*
X16813597Y18362668D01*
X16826748Y18313252D01*
X16830000Y18310000D01*
X17280000Y18310000D01*
X17280000Y18985000D01*
X17780000Y18985000D01*
X17780000Y18310000D01*
X18229999Y18310000D01*
X18229999Y18589197D01*
X18227148Y18619607D01*
X18182346Y18747646D01*
X18101792Y18856793D01*
X17992645Y18937347D01*
X17864602Y18982150D01*
X17834207Y18985000D01*
X17780000Y18985000D01*
X17280000Y18985000D01*
X17279999Y18985001D01*
X17225804Y18985000D01*
X17195393Y18982149D01*
X17067354Y18937347D01*
X16958207Y18856793D01*
X16877653Y18747646D01*
X16832850Y18619605D01*
X16832850Y18619601D01*
X16830000Y18589207D01*
X16830000Y18519362D01*
X16810315Y18452323D01*
X16762782Y18411136D01*
X16656577Y18411136D01*
X16624797Y18425649D01*
X16618319Y18431681D01*
X16600000Y18450000D01*
X15925000Y18450000D01*
X15425000Y18450000D01*
X14750001Y18450000D01*
X14185349Y18450000D01*
X14186999Y18458298D01*
X14187000Y18458302D01*
X14187000Y18950000D01*
X14750000Y18950000D01*
X15424999Y18950000D01*
X15424999Y18950001D01*
X15924999Y18950001D01*
X15925000Y18950000D01*
X16599999Y18950000D01*
X16599999Y19004197D01*
X16597148Y19034607D01*
X16552346Y19162646D01*
X16471792Y19271793D01*
X16362645Y19352347D01*
X16234602Y19397150D01*
X16204207Y19400000D01*
X15925000Y19400000D01*
X15924999Y18950001D01*
X15424999Y18950001D01*
X15424999Y19400000D01*
X15145804Y19400000D01*
X15115393Y19397149D01*
X14987354Y19352347D01*
X14878207Y19271793D01*
X14797653Y19162646D01*
X14752850Y19034605D01*
X14752850Y19034601D01*
X14750000Y19004207D01*
X14750000Y18950000D01*
X14187000Y18950000D01*
X14187000Y18990000D01*
X13593927Y18990000D01*
X13643447Y19075772D01*
X13673264Y19206407D01*
X13663251Y19340028D01*
X13614297Y19464760D01*
X13594169Y19490000D01*
X14187000Y19490000D01*
X14187000Y20021699D01*
X14186999Y20021703D01*
X14175397Y20080034D01*
X14175396Y20080035D01*
X14131191Y20146192D01*
X14065034Y20190397D01*
X14065033Y20190398D01*
X14006702Y20202000D01*
X13475000Y20202000D01*
X13475000Y19607533D01*
X13420040Y19645004D01*
X13291998Y19684500D01*
X13191688Y19684500D01*
X13092501Y19669550D01*
X12975000Y19612965D01*
X12975000Y20202000D01*
X12443297Y20202000D01*
X12384966Y20190398D01*
X12384965Y20190397D01*
X12318808Y20146192D01*
X12274603Y20080035D01*
X12274602Y20080034D01*
X12263000Y20021703D01*
X12263000Y19490000D01*
X12856073Y19490000D01*
X12806553Y19404228D01*
X12776736Y19273593D01*
X12786749Y19139972D01*
X12835703Y19015240D01*
X12855831Y18990000D01*
X12263000Y18990000D01*
X12263000Y18458298D01*
X11647500Y18458298D01*
X11647500Y20021748D01*
X11647500Y20021749D01*
X11647500Y20021751D01*
X11647499Y20021753D01*
X11635868Y20080230D01*
X11635867Y20080231D01*
X11591552Y20146553D01*
X11525230Y20190868D01*
X11525229Y20190869D01*
X11466752Y20202500D01*
X11466748Y20202500D01*
X11259500Y20202500D01*
X11192461Y20222185D01*
X11146706Y20274989D01*
X11135500Y20326500D01*
X11135500Y21447034D01*
X11155185Y21514073D01*
X11171819Y21534715D01*
X11450285Y21813181D01*
X11511608Y21846666D01*
X11537966Y21849500D01*
X15100500Y21849500D01*
X15167539Y21829815D01*
X15213294Y21777011D01*
X15224500Y21725500D01*
X15224500Y21420803D01*
X15204815Y21353764D01*
X15152011Y21308009D01*
X15122481Y21300121D01*
X15122670Y21299256D01*
X15115298Y21297647D01*
X14987119Y21252794D01*
X14987117Y21252793D01*
X14877850Y21172150D01*
X14797207Y21062883D01*
X14797206Y21062881D01*
X14752353Y20934702D01*
X14752353Y20934700D01*
X14749500Y20904270D01*
X14749500Y20295731D01*
X14752353Y20265301D01*
X14752353Y20265299D01*
X14794899Y20143714D01*
X14797207Y20137118D01*
X14877850Y20027850D01*
X14987118Y19947207D01*
X15029845Y19932256D01*
X15115299Y19902354D01*
X15145730Y19899500D01*
X15145734Y19899500D01*
X16204270Y19899500D01*
X16234699Y19902354D01*
X16234701Y19902354D01*
X16298790Y19924781D01*
X16362882Y19947207D01*
X16472150Y20027850D01*
X16552793Y20137118D01*
X16588960Y20240478D01*
X16629680Y20297251D01*
X16694633Y20322998D01*
X16763195Y20309542D01*
X16813597Y20261154D01*
X16830000Y20199520D01*
X16830000Y19830805D01*
X16832851Y19800394D01*
X16877653Y19672355D01*
X16958207Y19563208D01*
X17067354Y19482654D01*
X17195397Y19437851D01*
X17225779Y19435002D01*
X17225807Y19435001D01*
X17279999Y19435002D01*
X17280000Y19435002D01*
X17280000Y20110000D01*
X17780000Y20110000D01*
X17780000Y19435001D01*
X17834196Y19435001D01*
X17864606Y19437852D01*
X17992645Y19482654D01*
X18101792Y19563208D01*
X18182346Y19672355D01*
X18227149Y19800396D01*
X18227149Y19800400D01*
X18230000Y19830794D01*
X18230000Y20110000D01*
X17780000Y20110000D01*
X17280000Y20110000D01*
X17280000Y21285000D01*
X17780000Y21285000D01*
X17780000Y20610000D01*
X18229999Y20610000D01*
X18229999Y20889197D01*
X18227148Y20919607D01*
X18182346Y21047646D01*
X18101792Y21156793D01*
X17992645Y21237347D01*
X17864602Y21282150D01*
X17834207Y21285000D01*
X17780000Y21285000D01*
X17280000Y21285000D01*
X17279999Y21285001D01*
X17225804Y21285000D01*
X17195393Y21282149D01*
X17067354Y21237347D01*
X16958207Y21156793D01*
X16877654Y21047646D01*
X16834767Y20925081D01*
X16794045Y20868305D01*
X16729092Y20842558D01*
X16660531Y20856014D01*
X16610128Y20904401D01*
X16601076Y20927906D01*
X16600139Y20927577D01*
X16558042Y21047881D01*
X16552793Y21062882D01*
X16472150Y21172150D01*
X16362882Y21252793D01*
X16362880Y21252794D01*
X16234701Y21297647D01*
X16227330Y21299256D01*
X16227792Y21301376D01*
X16172996Y21323217D01*
X16132381Y21380069D01*
X16125500Y21420803D01*
X16125500Y21725500D01*
X16145185Y21792539D01*
X16197989Y21838294D01*
X16249500Y21849500D01*
X18444750Y21849500D01*
X18444751Y21849501D01*
X18462560Y21853043D01*
X18503229Y21861132D01*
X18503229Y21861133D01*
X18503231Y21861133D01*
X18569552Y21905448D01*
X18613867Y21971769D01*
X18613867Y21971771D01*
X18613868Y21971771D01*
X18625499Y22030248D01*
X18625500Y22030250D01*
X18625500Y22700500D01*
X18645185Y22767539D01*
X18697989Y22813294D01*
X18749500Y22824500D01*
X18857745Y22824500D01*
X18924784Y22804815D01*
X18945426Y22788181D01*
X20436426Y21297181D01*
X20469911Y21235858D01*
X20464927Y21166166D01*
X20423055Y21110233D01*
X20357591Y21085816D01*
X20348745Y21085500D01*
X20117628Y21085500D01*
X20050589Y21105185D01*
X20017858Y21135866D01*
X20002150Y21157150D01*
X19892882Y21237793D01*
X19892880Y21237794D01*
X19764700Y21282647D01*
X19734270Y21285500D01*
X19734266Y21285500D01*
X19125734Y21285500D01*
X19125730Y21285500D01*
X19095300Y21282647D01*
X19095298Y21282647D01*
X18967119Y21237794D01*
X18967117Y21237793D01*
X18857850Y21157150D01*
X18777207Y21047883D01*
X18777206Y21047881D01*
X18732353Y20919702D01*
X18732353Y20919700D01*
X18729500Y20889270D01*
X18729500Y19830731D01*
X18732353Y19800301D01*
X18732353Y19800299D01*
X18775249Y19677713D01*
X18777207Y19672118D01*
X18857850Y19562850D01*
X18967118Y19482207D01*
X19009845Y19467256D01*
X19095299Y19437354D01*
X19125730Y19434500D01*
X19125734Y19434500D01*
X19734270Y19434500D01*
X19764699Y19437354D01*
X19764701Y19437354D01*
X19843021Y19464760D01*
X19892882Y19482207D01*
X20002150Y19562850D01*
X20082793Y19672118D01*
X20115025Y19764231D01*
X20127646Y19800299D01*
X20127646Y19800301D01*
X20130500Y19830731D01*
X20130500Y20260500D01*
X20150185Y20327539D01*
X20202989Y20373294D01*
X20254500Y20384500D01*
X20976674Y20384500D01*
X21043713Y20364815D01*
X21080565Y20328195D01*
X21108711Y20285000D01*
X21130000Y20285000D01*
X21130000Y19885000D01*
X21108711Y19885000D01*
X21080665Y19841959D01*
X21027574Y19796537D01*
X20992118Y19786607D01*
X20987065Y19785977D01*
X20979386Y19785500D01*
X20975960Y19785500D01*
X20955728Y19782125D01*
X20953196Y19781756D01*
X20903611Y19775575D01*
X20896560Y19773476D01*
X20889617Y19771092D01*
X20845678Y19747314D01*
X20843402Y19746142D01*
X20798515Y19724198D01*
X20792529Y19719925D01*
X20786743Y19715421D01*
X20752902Y19678659D01*
X20751128Y19676811D01*
X20035596Y18961279D01*
X19974273Y18927794D01*
X19904581Y18932778D01*
X19895236Y18936970D01*
X19764700Y18982647D01*
X19734270Y18985500D01*
X19734266Y18985500D01*
X19125734Y18985500D01*
X19125730Y18985500D01*
X19095300Y18982647D01*
X19095298Y18982647D01*
X18967119Y18937794D01*
X18967117Y18937793D01*
X18857850Y18857150D01*
X18777207Y18747883D01*
X18777206Y18747881D01*
X18732353Y18619702D01*
X18732353Y18619700D01*
X18729500Y18589270D01*
X18729500Y17530731D01*
X18732353Y17500301D01*
X18732353Y17500299D01*
X18777124Y17372355D01*
X18777207Y17372118D01*
X18857850Y17262850D01*
X18967118Y17182207D01*
X19002844Y17169706D01*
X19095299Y17137354D01*
X19125730Y17134500D01*
X19125734Y17134500D01*
X19734270Y17134500D01*
X19764699Y17137354D01*
X19764701Y17137354D01*
X19828790Y17159781D01*
X19892882Y17182207D01*
X20002150Y17262850D01*
X20025730Y17294802D01*
X20081375Y17337050D01*
X20151031Y17342509D01*
X20212581Y17309442D01*
X20246483Y17248349D01*
X20249499Y17221166D01*
X20249499Y16824210D01*
X20246861Y16798768D01*
X20244956Y16789685D01*
X20249023Y16757063D01*
X20249500Y16749386D01*
X20249500Y16745960D01*
X20251278Y16735301D01*
X20252876Y16725724D01*
X20253245Y16723192D01*
X20259427Y16673607D01*
X20261520Y16666574D01*
X20263907Y16659621D01*
X20263908Y16659619D01*
X20271608Y16645391D01*
X20287691Y16615670D01*
X20288864Y16613392D01*
X20310802Y16568516D01*
X20310804Y16568514D01*
X20315071Y16562536D01*
X20319582Y16556741D01*
X20356341Y16522902D01*
X20358190Y16521128D01*
X22452595Y14426723D01*
X22486080Y14365400D01*
X22481096Y14295708D01*
X22439224Y14239775D01*
X22438551Y14239274D01*
X22415350Y14222151D01*
X22334707Y14112883D01*
X22334706Y14112881D01*
X22289853Y13984702D01*
X22289853Y13984700D01*
X22287000Y13954270D01*
X22287000Y12945731D01*
X22289853Y12915301D01*
X22289853Y12915299D01*
X22333576Y12790350D01*
X22334707Y12787118D01*
X22415350Y12677850D01*
X22524618Y12597207D01*
X22546612Y12589511D01*
X22652799Y12552354D01*
X22683230Y12549500D01*
X22683234Y12549500D01*
X22705500Y12549500D01*
X22772539Y12529815D01*
X22818294Y12477011D01*
X22829500Y12425500D01*
X22829500Y12162750D01*
X22809815Y12095711D01*
X22757011Y12049956D01*
X22705500Y12038750D01*
X22398247Y12038750D01*
X22339770Y12027119D01*
X22339769Y12027118D01*
X22273447Y11982803D01*
X22229132Y11916481D01*
X22229131Y11916480D01*
X22217500Y11858003D01*
X22217500Y10294498D01*
X22229131Y10236021D01*
X22229132Y10236020D01*
X22273447Y10169698D01*
X22339769Y10125383D01*
X22339770Y10125382D01*
X22398247Y10113751D01*
X22398250Y10113750D01*
X22398252Y10113750D01*
X22705500Y10113750D01*
X22772539Y10094065D01*
X22818294Y10041261D01*
X22829500Y9989750D01*
X22829500Y9622750D01*
X22809815Y9555711D01*
X22757011Y9509956D01*
X22705500Y9498750D01*
X22398247Y9498750D01*
X22339770Y9487119D01*
X22339769Y9487118D01*
X22273447Y9442803D01*
X22229132Y9376481D01*
X22229131Y9376480D01*
X22217500Y9318003D01*
X22217500Y7754498D01*
X22229131Y7696021D01*
X22229132Y7696020D01*
X22273447Y7629698D01*
X22339769Y7585383D01*
X22339770Y7585382D01*
X22398247Y7573751D01*
X22398250Y7573750D01*
X22398252Y7573750D01*
X23961750Y7573750D01*
X23961751Y7573751D01*
X23976568Y7576698D01*
X24020229Y7585382D01*
X24020229Y7585383D01*
X24020231Y7585383D01*
X24086552Y7629698D01*
X24130867Y7696019D01*
X24130867Y7696021D01*
X24130868Y7696021D01*
X24140262Y7743252D01*
X24142500Y7754502D01*
X24142500Y9317998D01*
X24142500Y9317999D01*
X24142500Y9318001D01*
X24142499Y9318003D01*
X24130868Y9376480D01*
X24130867Y9376481D01*
X24086552Y9442803D01*
X24020230Y9487118D01*
X24020229Y9487119D01*
X23961752Y9498750D01*
X23961748Y9498750D01*
X23654500Y9498750D01*
X23587461Y9518435D01*
X23541706Y9571239D01*
X23530500Y9622750D01*
X23530500Y9989750D01*
X23550185Y10056789D01*
X23602989Y10102544D01*
X23654500Y10113750D01*
X23961750Y10113750D01*
X23961751Y10113751D01*
X23976568Y10116698D01*
X24020229Y10125382D01*
X24020229Y10125383D01*
X24020231Y10125383D01*
X24086552Y10169698D01*
X24130867Y10236019D01*
X24130867Y10236021D01*
X24130868Y10236021D01*
X24140262Y10283252D01*
X24142500Y10294502D01*
X24142500Y11857998D01*
X24142500Y11857999D01*
X24142500Y11858001D01*
X24142499Y11858003D01*
X24130868Y11916480D01*
X24130867Y11916481D01*
X24086552Y11982803D01*
X24020230Y12027118D01*
X24020229Y12027119D01*
X23961752Y12038750D01*
X23961748Y12038750D01*
X23654500Y12038750D01*
X23587461Y12058435D01*
X23541706Y12111239D01*
X23530500Y12162750D01*
X23530500Y12575288D01*
X23550185Y12642327D01*
X23580868Y12675059D01*
X23584650Y12677850D01*
X23665293Y12787118D01*
X23695067Y12872208D01*
X23710146Y12915299D01*
X23710146Y12915301D01*
X23713000Y12945731D01*
X23713000Y13954270D01*
X23710146Y13984700D01*
X23710146Y13984702D01*
X23674998Y14085147D01*
X23665293Y14112882D01*
X23584650Y14222150D01*
X23475382Y14302793D01*
X23470541Y14304487D01*
X23429970Y14318684D01*
X23373195Y14359407D01*
X23348621Y14415298D01*
X23347829Y14420041D01*
X23347116Y14424315D01*
X23346756Y14426780D01*
X23340573Y14476392D01*
X23340570Y14476397D01*
X23338477Y14483429D01*
X23336092Y14490376D01*
X23336092Y14490381D01*
X23312307Y14534331D01*
X23311139Y14536601D01*
X23289199Y14581483D01*
X23289193Y14581489D01*
X23284924Y14587469D01*
X23280420Y14593256D01*
X23280418Y14593258D01*
X23243642Y14627113D01*
X23241820Y14628862D01*
X21789867Y16080815D01*
X21779960Y16098958D01*
X21770371Y16102405D01*
X21755814Y16114868D01*
X20986819Y16883864D01*
X20953334Y16945187D01*
X20950500Y16971545D01*
X20950500Y17102667D01*
X20970185Y17169706D01*
X21022989Y17215461D01*
X21092147Y17225405D01*
X21155703Y17196380D01*
X21162181Y17190348D01*
X21219735Y17132794D01*
X21322509Y17087415D01*
X21347635Y17084500D01*
X21562361Y17084501D01*
X21629400Y17064817D01*
X21675155Y17012013D01*
X21685408Y16975842D01*
X21689426Y16943608D01*
X21691520Y16936574D01*
X21693907Y16929621D01*
X21693908Y16929619D01*
X21696538Y16924760D01*
X21717691Y16885670D01*
X21718864Y16883392D01*
X21740802Y16838516D01*
X21740804Y16838514D01*
X21745071Y16832537D01*
X21748875Y16827650D01*
X21749427Y16826251D01*
X21752554Y16821245D01*
X21754433Y16817777D01*
X21753063Y16817035D01*
X21774520Y16762657D01*
X21773965Y16735301D01*
X21769319Y16700002D01*
X21769318Y16699998D01*
X21789955Y16543240D01*
X21789956Y16543238D01*
X21849449Y16399608D01*
X21850464Y16397159D01*
X21941871Y16278034D01*
X21943883Y16272831D01*
X21953024Y16266879D01*
X22072159Y16175464D01*
X22218238Y16114956D01*
X22296619Y16104637D01*
X22374999Y16094318D01*
X22375000Y16094318D01*
X22375001Y16094318D01*
X22436427Y16102405D01*
X22531762Y16114956D01*
X22677841Y16175464D01*
X22803282Y16271718D01*
X22899536Y16397159D01*
X22960044Y16543238D01*
X22976330Y16666940D01*
X22980682Y16699999D01*
X22980682Y16700002D01*
X22964720Y16821245D01*
X22960044Y16856762D01*
X22927499Y16935332D01*
X23765162Y16939156D01*
X26117362Y14586956D01*
X26133486Y14567101D01*
X26138563Y14559331D01*
X26164508Y14539138D01*
X26170260Y14534058D01*
X26172693Y14531625D01*
X26185548Y14522447D01*
X26228672Y14467476D01*
X26235231Y14397915D01*
X26203141Y14335850D01*
X26154460Y14304488D01*
X26152296Y14303731D01*
X26149617Y14302793D01*
X26040350Y14222150D01*
X25959707Y14112883D01*
X25914449Y13983544D01*
X25873727Y13926769D01*
X25808774Y13901022D01*
X25797408Y13900500D01*
X25709578Y13900500D01*
X25707295Y13900543D01*
X25685847Y13901345D01*
X25647180Y13902793D01*
X25580924Y13924972D01*
X25537177Y13979451D01*
X25534779Y13985750D01*
X25510810Y14054247D01*
X25490293Y14112882D01*
X25409650Y14222150D01*
X25300382Y14302793D01*
X25300380Y14302794D01*
X25172200Y14347647D01*
X25141770Y14350500D01*
X25141766Y14350500D01*
X24508234Y14350500D01*
X24508230Y14350500D01*
X24477800Y14347647D01*
X24477798Y14347647D01*
X24349619Y14302794D01*
X24349617Y14302793D01*
X24240350Y14222150D01*
X24159707Y14112883D01*
X24159706Y14112881D01*
X24114853Y13984702D01*
X24114853Y13984700D01*
X24112000Y13954270D01*
X24112000Y12945731D01*
X24114853Y12915301D01*
X24114853Y12915299D01*
X24158576Y12790350D01*
X24159707Y12787118D01*
X24240350Y12677850D01*
X24349618Y12597207D01*
X24371612Y12589511D01*
X24477799Y12552354D01*
X24508230Y12549500D01*
X25144665Y12549500D01*
X25144665Y12548163D01*
X25207471Y12532944D01*
X25255700Y12482390D01*
X25269500Y12425540D01*
X25269500Y12162750D01*
X25249815Y12095711D01*
X25197011Y12049956D01*
X25145500Y12038750D01*
X24938247Y12038750D01*
X24879770Y12027119D01*
X24879769Y12027118D01*
X24813447Y11982803D01*
X24769132Y11916481D01*
X24769131Y11916480D01*
X24757500Y11858003D01*
X24757500Y10294498D01*
X24769131Y10236021D01*
X24769132Y10236020D01*
X24813447Y10169698D01*
X24879769Y10125383D01*
X24879770Y10125382D01*
X24938247Y10113751D01*
X24938250Y10113750D01*
X24938252Y10113750D01*
X25145500Y10113750D01*
X25212539Y10094065D01*
X25258294Y10041261D01*
X25269500Y9989750D01*
X25269500Y9622750D01*
X25249815Y9555711D01*
X25197011Y9509956D01*
X25145500Y9498750D01*
X24938247Y9498750D01*
X24879770Y9487119D01*
X24879769Y9487118D01*
X24813447Y9442803D01*
X24769132Y9376481D01*
X24769131Y9376480D01*
X24757500Y9318003D01*
X24757500Y7754498D01*
X24769131Y7696021D01*
X24769132Y7696020D01*
X24813447Y7629698D01*
X24870140Y7591817D01*
X24914945Y7538205D01*
X24923652Y7468880D01*
X24893497Y7405852D01*
X24888930Y7401034D01*
X24599716Y7111819D01*
X24538393Y7078334D01*
X24512035Y7075500D01*
X18437966Y7075500D01*
X18370927Y7095185D01*
X18350285Y7111819D01*
X17707557Y7754548D01*
X19678000Y7754548D01*
X19689602Y7696217D01*
X19689603Y7696216D01*
X19733808Y7630059D01*
X19799965Y7585854D01*
X19799966Y7585853D01*
X19858297Y7574251D01*
X19858301Y7574250D01*
X20390000Y7574250D01*
X20390000Y8168718D01*
X20444960Y8131246D01*
X20573002Y8091750D01*
X20673312Y8091750D01*
X20772499Y8106700D01*
X20890000Y8163286D01*
X20890000Y7574250D01*
X21421699Y7574250D01*
X21421702Y7574251D01*
X21480033Y7585853D01*
X21480034Y7585854D01*
X21546191Y7630059D01*
X21590396Y7696216D01*
X21590397Y7696217D01*
X21601999Y7754548D01*
X21602000Y7754551D01*
X21602000Y8286250D01*
X21008927Y8286250D01*
X21058447Y8372022D01*
X21088264Y8502657D01*
X21078251Y8636278D01*
X21029297Y8761010D01*
X21009169Y8786250D01*
X21602000Y8786250D01*
X21602000Y9317950D01*
X21601999Y9317953D01*
X21590397Y9376284D01*
X21590396Y9376285D01*
X21546191Y9442442D01*
X21480034Y9486647D01*
X21480033Y9486648D01*
X21421702Y9498250D01*
X20890000Y9498250D01*
X20890000Y8903783D01*
X20835040Y8941254D01*
X20706998Y8980750D01*
X20606688Y8980750D01*
X20507501Y8965800D01*
X20390000Y8909215D01*
X20390000Y9498250D01*
X19858297Y9498250D01*
X19799966Y9486648D01*
X19799965Y9486647D01*
X19733808Y9442442D01*
X19689603Y9376285D01*
X19689602Y9376284D01*
X19678000Y9317953D01*
X19678000Y8786250D01*
X20271073Y8786250D01*
X20221553Y8700478D01*
X20191736Y8569843D01*
X20201749Y8436222D01*
X20250703Y8311490D01*
X20270831Y8286250D01*
X19678000Y8286250D01*
X19678000Y7754548D01*
X17707557Y7754548D01*
X17273819Y8188286D01*
X17240334Y8249609D01*
X17237500Y8275967D01*
X17237500Y9316751D01*
X17237499Y9316753D01*
X17225868Y9375230D01*
X17225867Y9375231D01*
X17181552Y9441553D01*
X17115230Y9485868D01*
X17115229Y9485869D01*
X17056752Y9497500D01*
X17056748Y9497500D01*
X15493252Y9497500D01*
X15493247Y9497500D01*
X15434770Y9485869D01*
X15434769Y9485868D01*
X15368447Y9441553D01*
X15324132Y9375231D01*
X15324131Y9375230D01*
X15312500Y9316753D01*
X15312500Y7753248D01*
X15324131Y7694771D01*
X15324132Y7694770D01*
X15368447Y7628448D01*
X15434769Y7584133D01*
X15434770Y7584132D01*
X15493247Y7572501D01*
X15493250Y7572500D01*
X15493252Y7572500D01*
X16564034Y7572500D01*
X16631073Y7552815D01*
X16651715Y7536181D01*
X17861090Y6326807D01*
X17865726Y6321620D01*
X17890121Y6291030D01*
X17890123Y6291028D01*
X17938321Y6258167D01*
X17940212Y6256825D01*
X17987118Y6222207D01*
X17994654Y6218224D01*
X18002319Y6214533D01*
X18002327Y6214528D01*
X18029121Y6206264D01*
X18058089Y6197328D01*
X18060284Y6196606D01*
X18115301Y6177354D01*
X18115305Y6177354D01*
X18123679Y6175770D01*
X18132096Y6174501D01*
X18132098Y6174500D01*
X18190422Y6174500D01*
X18192705Y6174458D01*
X18251010Y6172276D01*
X18260244Y6173316D01*
X18260337Y6172487D01*
X18275636Y6174500D01*
X24721217Y6174500D01*
X24728155Y6174111D01*
X24760050Y6170517D01*
X24767034Y6169730D01*
X24767034Y6169731D01*
X24767035Y6169730D01*
X24824382Y6180582D01*
X24826577Y6180955D01*
X24884287Y6189652D01*
X24884291Y6189655D01*
X24892447Y6192170D01*
X24900469Y6194976D01*
X24900470Y6194977D01*
X24900472Y6194977D01*
X24952123Y6222277D01*
X24954038Y6223244D01*
X25006642Y6248575D01*
X25006643Y6248577D01*
X25006645Y6248577D01*
X25013695Y6253384D01*
X25020537Y6258433D01*
X25020538Y6258434D01*
X25061821Y6299719D01*
X25063420Y6301259D01*
X25106194Y6340945D01*
X25106196Y6340950D01*
X25111987Y6348210D01*
X25112643Y6347687D01*
X25122032Y6359930D01*
X26018205Y7256104D01*
X26023373Y7260723D01*
X26053970Y7285121D01*
X26086865Y7333371D01*
X26088131Y7335155D01*
X26122793Y7382118D01*
X26122793Y7382121D01*
X26122795Y7382122D01*
X26126787Y7389676D01*
X26130471Y7397325D01*
X26147666Y7453074D01*
X26148392Y7455279D01*
X26160790Y7490709D01*
X26201512Y7547482D01*
X26266465Y7573228D01*
X26277830Y7573750D01*
X26501750Y7573750D01*
X26501751Y7573751D01*
X26516568Y7576698D01*
X26560229Y7585382D01*
X26560229Y7585383D01*
X26560231Y7585383D01*
X26626552Y7629698D01*
X26670867Y7696019D01*
X26670867Y7696021D01*
X26670868Y7696021D01*
X26680262Y7743252D01*
X26682500Y7754502D01*
X26682500Y9317998D01*
X26682500Y9317999D01*
X26682500Y9318001D01*
X26682499Y9318003D01*
X26670868Y9376480D01*
X26670867Y9376481D01*
X26626552Y9442803D01*
X26560230Y9487118D01*
X26560229Y9487119D01*
X26501752Y9498750D01*
X26501748Y9498750D01*
X26294500Y9498750D01*
X26227461Y9518435D01*
X26181706Y9571239D01*
X26170500Y9622750D01*
X26170500Y9989750D01*
X26190185Y10056789D01*
X26242989Y10102544D01*
X26294500Y10113750D01*
X26501750Y10113750D01*
X26501751Y10113751D01*
X26516568Y10116698D01*
X26560229Y10125382D01*
X26560229Y10125383D01*
X26560231Y10125383D01*
X26626552Y10169698D01*
X26670867Y10236019D01*
X26670867Y10236021D01*
X26670868Y10236021D01*
X26680262Y10283252D01*
X26682500Y10294502D01*
X26682500Y11857998D01*
X26682500Y11857999D01*
X26682500Y11858001D01*
X26682499Y11858003D01*
X26670868Y11916480D01*
X26670867Y11916481D01*
X26626552Y11982803D01*
X26560230Y12027118D01*
X26560229Y12027119D01*
X26501752Y12038750D01*
X26501748Y12038750D01*
X26294500Y12038750D01*
X26227461Y12058435D01*
X26181706Y12111239D01*
X26170500Y12162750D01*
X26170500Y12426244D01*
X26190185Y12493283D01*
X26242989Y12539038D01*
X26305335Y12549577D01*
X26305338Y12549635D01*
X26305608Y12549623D01*
X26306080Y12549702D01*
X26308234Y12549500D01*
X26941770Y12549500D01*
X26972199Y12552354D01*
X26972201Y12552354D01*
X27037741Y12575288D01*
X27100382Y12597207D01*
X27209650Y12677850D01*
X27290293Y12787118D01*
X27320067Y12872208D01*
X27335146Y12915299D01*
X27335146Y12915301D01*
X27338000Y12945731D01*
X27338000Y13954270D01*
X27335146Y13984700D01*
X27335146Y13984702D01*
X27299998Y14085147D01*
X27290293Y14112882D01*
X27209650Y14222150D01*
X27204798Y14225731D01*
X27162548Y14281379D01*
X27157091Y14351035D01*
X27190159Y14412584D01*
X27251253Y14446485D01*
X27278433Y14449500D01*
X27503456Y14449500D01*
X27570495Y14429815D01*
X27591137Y14413181D01*
X27757278Y14247040D01*
X27790763Y14185717D01*
X27786639Y14118405D01*
X27739853Y13984699D01*
X27737000Y13954270D01*
X27737000Y12945731D01*
X27739853Y12915301D01*
X27739853Y12915299D01*
X27783576Y12790350D01*
X27784707Y12787118D01*
X27815822Y12744959D01*
X27865348Y12677852D01*
X27871919Y12671282D01*
X27869465Y12668828D01*
X27901380Y12626802D01*
X27909500Y12582668D01*
X27909500Y12162750D01*
X27889815Y12095711D01*
X27837011Y12049956D01*
X27785500Y12038750D01*
X27478247Y12038750D01*
X27419770Y12027119D01*
X27419769Y12027118D01*
X27353447Y11982803D01*
X27309132Y11916481D01*
X27309131Y11916480D01*
X27297500Y11858003D01*
X27297500Y10294498D01*
X27309131Y10236021D01*
X27309132Y10236020D01*
X27353447Y10169698D01*
X27419769Y10125383D01*
X27419770Y10125382D01*
X27478247Y10113751D01*
X27478250Y10113750D01*
X27478252Y10113750D01*
X27785500Y10113750D01*
X27852539Y10094065D01*
X27898294Y10041261D01*
X27909500Y9989750D01*
X27909500Y9622750D01*
X27889815Y9555711D01*
X27837011Y9509956D01*
X27785500Y9498750D01*
X27478247Y9498750D01*
X27419770Y9487119D01*
X27419769Y9487118D01*
X27353447Y9442803D01*
X27309132Y9376481D01*
X27309131Y9376480D01*
X27297500Y9318003D01*
X27297500Y7754498D01*
X27309131Y7696021D01*
X27309132Y7696020D01*
X27353447Y7629698D01*
X27419769Y7585383D01*
X27419770Y7585382D01*
X27478247Y7573751D01*
X27478250Y7573750D01*
X27478252Y7573750D01*
X29041750Y7573750D01*
X29041751Y7573751D01*
X29056568Y7576698D01*
X29100229Y7585382D01*
X29100229Y7585383D01*
X29100231Y7585383D01*
X29166552Y7629698D01*
X29210867Y7696019D01*
X29210867Y7696021D01*
X29210868Y7696021D01*
X29220262Y7743252D01*
X29222500Y7754502D01*
X29222500Y7754548D01*
X29838000Y7754548D01*
X29849602Y7696217D01*
X29849603Y7696216D01*
X29893808Y7630059D01*
X29959965Y7585854D01*
X29959966Y7585853D01*
X30018297Y7574251D01*
X30018301Y7574250D01*
X30550000Y7574250D01*
X30550000Y8168718D01*
X30604960Y8131246D01*
X30733002Y8091750D01*
X30833312Y8091750D01*
X30932499Y8106700D01*
X31050000Y8163286D01*
X31050000Y7574250D01*
X31581699Y7574250D01*
X31581702Y7574251D01*
X31640033Y7585853D01*
X31640034Y7585854D01*
X31706191Y7630059D01*
X31750396Y7696216D01*
X31750397Y7696217D01*
X31759751Y7743248D01*
X37437500Y7743248D01*
X37449131Y7684771D01*
X37449132Y7684770D01*
X37493447Y7618448D01*
X37559769Y7574133D01*
X37559770Y7574132D01*
X37618247Y7562501D01*
X37618250Y7562500D01*
X37618252Y7562500D01*
X39181750Y7562500D01*
X39181751Y7562501D01*
X39196568Y7565448D01*
X39240229Y7574132D01*
X39240229Y7574133D01*
X39240231Y7574133D01*
X39306552Y7618448D01*
X39350867Y7684769D01*
X39350867Y7684771D01*
X39350868Y7684771D01*
X39362499Y7743248D01*
X39977500Y7743248D01*
X39989131Y7684771D01*
X39989132Y7684770D01*
X40033447Y7618448D01*
X40099769Y7574133D01*
X40099770Y7574132D01*
X40158247Y7562501D01*
X40158250Y7562500D01*
X40158252Y7562500D01*
X41721750Y7562500D01*
X41721751Y7562501D01*
X41736568Y7565448D01*
X41780229Y7574132D01*
X41780229Y7574133D01*
X41780231Y7574133D01*
X41846552Y7618448D01*
X41890867Y7684769D01*
X41890867Y7684771D01*
X41890868Y7684771D01*
X41902499Y7743248D01*
X42517500Y7743248D01*
X42529131Y7684771D01*
X42529132Y7684770D01*
X42573447Y7618448D01*
X42639769Y7574133D01*
X42639770Y7574132D01*
X42698247Y7562501D01*
X42698250Y7562500D01*
X42698252Y7562500D01*
X44261750Y7562500D01*
X44261751Y7562501D01*
X44276568Y7565448D01*
X44320229Y7574132D01*
X44320229Y7574133D01*
X44320231Y7574133D01*
X44386552Y7618448D01*
X44430867Y7684769D01*
X44430867Y7684771D01*
X44430868Y7684771D01*
X44442499Y7743248D01*
X44442500Y7743250D01*
X44442500Y9306751D01*
X44442499Y9306753D01*
X44430868Y9365230D01*
X44430867Y9365231D01*
X44386552Y9431553D01*
X44320230Y9475868D01*
X44320229Y9475869D01*
X44261752Y9487500D01*
X44261748Y9487500D01*
X43954500Y9487500D01*
X43887461Y9507185D01*
X43841706Y9559989D01*
X43830500Y9611500D01*
X43830500Y9978500D01*
X43850185Y10045539D01*
X43902989Y10091294D01*
X43954500Y10102500D01*
X44261750Y10102500D01*
X44261751Y10102501D01*
X44276568Y10105448D01*
X44320229Y10114132D01*
X44320229Y10114133D01*
X44320231Y10114133D01*
X44386552Y10158448D01*
X44430867Y10224769D01*
X44430867Y10224771D01*
X44430868Y10224771D01*
X44442499Y10283248D01*
X44442500Y10283250D01*
X44442500Y11846751D01*
X44442499Y11846753D01*
X44430868Y11905230D01*
X44430867Y11905231D01*
X44386552Y11971553D01*
X44320230Y12015868D01*
X44320229Y12015869D01*
X44261752Y12027500D01*
X44261748Y12027500D01*
X43954500Y12027500D01*
X43887461Y12047185D01*
X43841706Y12099989D01*
X43830500Y12151500D01*
X43830500Y12538000D01*
X43850185Y12605039D01*
X43902989Y12650794D01*
X43954500Y12662000D01*
X44029270Y12662000D01*
X44059699Y12664854D01*
X44059701Y12664854D01*
X44123790Y12687281D01*
X44187882Y12709707D01*
X44297150Y12790350D01*
X44377793Y12899618D01*
X44421363Y13024133D01*
X44422646Y13027799D01*
X44422646Y13027801D01*
X44425500Y13058231D01*
X44425500Y13691770D01*
X44422646Y13722200D01*
X44422646Y13722202D01*
X44377793Y13850381D01*
X44377792Y13850383D01*
X44297150Y13959650D01*
X44187882Y14040293D01*
X44187880Y14040294D01*
X44059700Y14085147D01*
X44029270Y14088000D01*
X44029266Y14088000D01*
X43020734Y14088000D01*
X43020730Y14088000D01*
X42990300Y14085147D01*
X42990298Y14085147D01*
X42862119Y14040294D01*
X42862117Y14040293D01*
X42752850Y13959650D01*
X42672207Y13850383D01*
X42672206Y13850381D01*
X42627353Y13722202D01*
X42627353Y13722200D01*
X42624500Y13691770D01*
X42624500Y13058231D01*
X42627353Y13027801D01*
X42627353Y13027799D01*
X42653580Y12952850D01*
X42672207Y12899618D01*
X42752850Y12790350D01*
X42862118Y12709707D01*
X42877862Y12704198D01*
X42990295Y12664855D01*
X42990299Y12664855D01*
X42990301Y12664854D01*
X43017079Y12662343D01*
X43081985Y12636487D01*
X43122611Y12579642D01*
X43129500Y12538885D01*
X43129500Y12151500D01*
X43109815Y12084461D01*
X43057011Y12038706D01*
X43005500Y12027500D01*
X42698247Y12027500D01*
X42639770Y12015869D01*
X42639769Y12015868D01*
X42573447Y11971553D01*
X42529132Y11905231D01*
X42529131Y11905230D01*
X42517500Y11846753D01*
X42517500Y10283248D01*
X42529131Y10224771D01*
X42529132Y10224770D01*
X42573447Y10158448D01*
X42639769Y10114133D01*
X42639770Y10114132D01*
X42698247Y10102501D01*
X42698250Y10102500D01*
X42698252Y10102500D01*
X43005500Y10102500D01*
X43072539Y10082815D01*
X43118294Y10030011D01*
X43129500Y9978500D01*
X43129500Y9611500D01*
X43109815Y9544461D01*
X43057011Y9498706D01*
X43005500Y9487500D01*
X42698247Y9487500D01*
X42639770Y9475869D01*
X42639769Y9475868D01*
X42573447Y9431553D01*
X42529132Y9365231D01*
X42529131Y9365230D01*
X42517500Y9306753D01*
X42517500Y7743248D01*
X41902499Y7743248D01*
X41902500Y7743250D01*
X41902500Y9306751D01*
X41902499Y9306753D01*
X41890868Y9365230D01*
X41890867Y9365231D01*
X41846552Y9431553D01*
X41780230Y9475868D01*
X41780229Y9475869D01*
X41721752Y9487500D01*
X41721748Y9487500D01*
X41414500Y9487500D01*
X41347461Y9507185D01*
X41301706Y9559989D01*
X41290500Y9611500D01*
X41290500Y9978500D01*
X41310185Y10045539D01*
X41362989Y10091294D01*
X41414500Y10102500D01*
X41721750Y10102500D01*
X41721751Y10102501D01*
X41736568Y10105448D01*
X41780229Y10114132D01*
X41780229Y10114133D01*
X41780231Y10114133D01*
X41846552Y10158448D01*
X41890867Y10224769D01*
X41890867Y10224771D01*
X41890868Y10224771D01*
X41902499Y10283248D01*
X41902500Y10283250D01*
X41902500Y11846751D01*
X41902499Y11846753D01*
X41890868Y11905230D01*
X41890867Y11905231D01*
X41846552Y11971553D01*
X41780230Y12015868D01*
X41780229Y12015869D01*
X41721752Y12027500D01*
X41721748Y12027500D01*
X41414500Y12027500D01*
X41347461Y12047185D01*
X41301706Y12099989D01*
X41290500Y12151500D01*
X41290500Y12538000D01*
X41310185Y12605039D01*
X41362989Y12650794D01*
X41414500Y12662000D01*
X41454270Y12662000D01*
X41484699Y12664854D01*
X41484701Y12664854D01*
X41548790Y12687281D01*
X41612882Y12709707D01*
X41722150Y12790350D01*
X41802793Y12899618D01*
X41846363Y13024133D01*
X41847646Y13027799D01*
X41847646Y13027801D01*
X41850500Y13058231D01*
X41850500Y13691770D01*
X41847646Y13722200D01*
X41847646Y13722202D01*
X41802793Y13850381D01*
X41802792Y13850383D01*
X41722150Y13959650D01*
X41612882Y14040293D01*
X41612880Y14040294D01*
X41484700Y14085147D01*
X41454270Y14088000D01*
X41454266Y14088000D01*
X40445734Y14088000D01*
X40445730Y14088000D01*
X40415300Y14085147D01*
X40415298Y14085147D01*
X40287119Y14040294D01*
X40287117Y14040293D01*
X40177850Y13959650D01*
X40097207Y13850383D01*
X40097206Y13850381D01*
X40052353Y13722202D01*
X40052353Y13722200D01*
X40049500Y13691770D01*
X40049500Y13058231D01*
X40052353Y13027801D01*
X40052353Y13027799D01*
X40078580Y12952850D01*
X40097207Y12899618D01*
X40177850Y12790350D01*
X40287118Y12709707D01*
X40329845Y12694756D01*
X40415299Y12664854D01*
X40445730Y12662000D01*
X40445734Y12662000D01*
X40465500Y12662000D01*
X40532539Y12642315D01*
X40578294Y12589511D01*
X40589500Y12538000D01*
X40589500Y12151500D01*
X40569815Y12084461D01*
X40517011Y12038706D01*
X40465500Y12027500D01*
X40158247Y12027500D01*
X40099770Y12015869D01*
X40099769Y12015868D01*
X40033447Y11971553D01*
X39989132Y11905231D01*
X39989131Y11905230D01*
X39977500Y11846753D01*
X39977500Y10283248D01*
X39989131Y10224771D01*
X39989132Y10224770D01*
X40033447Y10158448D01*
X40099769Y10114133D01*
X40099770Y10114132D01*
X40158247Y10102501D01*
X40158250Y10102500D01*
X40158252Y10102500D01*
X40465500Y10102500D01*
X40532539Y10082815D01*
X40578294Y10030011D01*
X40589500Y9978500D01*
X40589500Y9611500D01*
X40569815Y9544461D01*
X40517011Y9498706D01*
X40465500Y9487500D01*
X40158247Y9487500D01*
X40099770Y9475869D01*
X40099769Y9475868D01*
X40033447Y9431553D01*
X39989132Y9365231D01*
X39989131Y9365230D01*
X39977500Y9306753D01*
X39977500Y7743248D01*
X39362499Y7743248D01*
X39362500Y7743250D01*
X39362500Y9306751D01*
X39362499Y9306753D01*
X39350868Y9365230D01*
X39350867Y9365231D01*
X39306552Y9431553D01*
X39240230Y9475868D01*
X39240229Y9475869D01*
X39181752Y9487500D01*
X39181748Y9487500D01*
X37618252Y9487500D01*
X37618247Y9487500D01*
X37559770Y9475869D01*
X37559769Y9475868D01*
X37493447Y9431553D01*
X37449132Y9365231D01*
X37449131Y9365230D01*
X37437500Y9306753D01*
X37437500Y7743248D01*
X31759751Y7743248D01*
X31761999Y7754548D01*
X31762000Y7754551D01*
X31762000Y8286250D01*
X31168927Y8286250D01*
X31218447Y8372022D01*
X31248264Y8502657D01*
X31238251Y8636278D01*
X31189297Y8761010D01*
X31169169Y8786250D01*
X31762000Y8786250D01*
X31762000Y9317950D01*
X31761999Y9317953D01*
X31750397Y9376284D01*
X31750396Y9376285D01*
X31706191Y9442442D01*
X31640034Y9486647D01*
X31640033Y9486648D01*
X31581702Y9498250D01*
X31050000Y9498250D01*
X31050000Y8903783D01*
X30995040Y8941254D01*
X30866998Y8980750D01*
X30766688Y8980750D01*
X30667501Y8965800D01*
X30550000Y8909215D01*
X30550000Y9498250D01*
X30018297Y9498250D01*
X29959966Y9486648D01*
X29959965Y9486647D01*
X29893808Y9442442D01*
X29849603Y9376285D01*
X29849602Y9376284D01*
X29838000Y9317953D01*
X29838000Y8786250D01*
X30431073Y8786250D01*
X30381553Y8700478D01*
X30351736Y8569843D01*
X30361749Y8436222D01*
X30410703Y8311490D01*
X30430831Y8286250D01*
X29838000Y8286250D01*
X29838000Y7754548D01*
X29222500Y7754548D01*
X29222500Y9317998D01*
X29222500Y9317999D01*
X29222500Y9318001D01*
X29222499Y9318003D01*
X29210868Y9376480D01*
X29210867Y9376481D01*
X29166552Y9442803D01*
X29100230Y9487118D01*
X29100229Y9487119D01*
X29041752Y9498750D01*
X29041748Y9498750D01*
X28734500Y9498750D01*
X28667461Y9518435D01*
X28621706Y9571239D01*
X28610500Y9622750D01*
X28610500Y9989750D01*
X28630185Y10056789D01*
X28682989Y10102544D01*
X28734500Y10113750D01*
X29041750Y10113750D01*
X29041751Y10113751D01*
X29056568Y10116698D01*
X29100229Y10125382D01*
X29100229Y10125383D01*
X29100231Y10125383D01*
X29166552Y10169698D01*
X29210867Y10236019D01*
X29210867Y10236021D01*
X29210868Y10236021D01*
X29220262Y10283252D01*
X29222500Y10294502D01*
X29222500Y10294548D01*
X29838000Y10294548D01*
X29849602Y10236217D01*
X29849603Y10236216D01*
X29893808Y10170059D01*
X29959965Y10125854D01*
X29959966Y10125853D01*
X30018297Y10114251D01*
X30018301Y10114250D01*
X30550000Y10114250D01*
X30550000Y10708718D01*
X30604960Y10671246D01*
X30733002Y10631750D01*
X30833312Y10631750D01*
X30932499Y10646700D01*
X31050000Y10703286D01*
X31050000Y10114250D01*
X31581699Y10114250D01*
X31581702Y10114251D01*
X31640033Y10125853D01*
X31640034Y10125854D01*
X31706191Y10170059D01*
X31750396Y10236216D01*
X31750397Y10236217D01*
X31761999Y10294548D01*
X31762000Y10294551D01*
X31762000Y10826250D01*
X31168927Y10826250D01*
X31218447Y10912022D01*
X31248264Y11042657D01*
X31238251Y11176278D01*
X31189297Y11301010D01*
X31169169Y11326250D01*
X31762000Y11326250D01*
X31762000Y11857950D01*
X31761999Y11857953D01*
X31750397Y11916284D01*
X31750396Y11916285D01*
X31706191Y11982442D01*
X31640034Y12026647D01*
X31640033Y12026648D01*
X31581702Y12038250D01*
X31050000Y12038250D01*
X31050000Y11443783D01*
X30995040Y11481254D01*
X30866998Y11520750D01*
X30766688Y11520750D01*
X30667501Y11505800D01*
X30550000Y11449215D01*
X30550000Y12038250D01*
X30018297Y12038250D01*
X29959966Y12026648D01*
X29959965Y12026647D01*
X29893808Y11982442D01*
X29849603Y11916285D01*
X29849602Y11916284D01*
X29838000Y11857953D01*
X29838000Y11326250D01*
X30431073Y11326250D01*
X30381553Y11240478D01*
X30351736Y11109843D01*
X30361749Y10976222D01*
X30410703Y10851490D01*
X30430831Y10826250D01*
X29838000Y10826250D01*
X29838000Y10294548D01*
X29222500Y10294548D01*
X29222500Y11857998D01*
X29222500Y11857999D01*
X29222500Y11858001D01*
X29222499Y11858003D01*
X29210868Y11916480D01*
X29210867Y11916481D01*
X29166552Y11982803D01*
X29100230Y12027118D01*
X29100229Y12027119D01*
X29041752Y12038750D01*
X29041748Y12038750D01*
X28734500Y12038750D01*
X28667461Y12058435D01*
X28621706Y12111239D01*
X28610500Y12162750D01*
X28610500Y12425500D01*
X28630185Y12492539D01*
X28682989Y12538294D01*
X28734500Y12549500D01*
X28766770Y12549500D01*
X28797199Y12552354D01*
X28797201Y12552354D01*
X28862741Y12575288D01*
X28925382Y12597207D01*
X29034650Y12677850D01*
X29115293Y12787118D01*
X29145067Y12872208D01*
X29160146Y12915299D01*
X29160146Y12915301D01*
X29163000Y12945731D01*
X29163000Y13058231D01*
X37274500Y13058231D01*
X37277353Y13027801D01*
X37277353Y13027799D01*
X37303580Y12952850D01*
X37322207Y12899618D01*
X37402850Y12790350D01*
X37512118Y12709707D01*
X37554845Y12694757D01*
X37640299Y12664854D01*
X37670730Y12662000D01*
X37670734Y12662000D01*
X37815500Y12662000D01*
X37882539Y12642315D01*
X37928294Y12589511D01*
X37939500Y12538000D01*
X37939500Y12151500D01*
X37919815Y12084461D01*
X37867011Y12038706D01*
X37815500Y12027500D01*
X37618247Y12027500D01*
X37559770Y12015869D01*
X37559769Y12015868D01*
X37493447Y11971553D01*
X37449132Y11905231D01*
X37449131Y11905230D01*
X37437500Y11846753D01*
X37437500Y10283248D01*
X37449131Y10224771D01*
X37449132Y10224770D01*
X37493447Y10158448D01*
X37559769Y10114133D01*
X37559770Y10114132D01*
X37618247Y10102501D01*
X37618250Y10102500D01*
X37618252Y10102500D01*
X39181750Y10102500D01*
X39181751Y10102501D01*
X39196568Y10105448D01*
X39240229Y10114132D01*
X39240229Y10114133D01*
X39240231Y10114133D01*
X39306552Y10158448D01*
X39350867Y10224769D01*
X39350867Y10224771D01*
X39350868Y10224771D01*
X39362499Y10283248D01*
X39362500Y10283250D01*
X39362500Y11846751D01*
X39362499Y11846753D01*
X39350868Y11905230D01*
X39350867Y11905231D01*
X39306552Y11971553D01*
X39240230Y12015868D01*
X39240229Y12015869D01*
X39181752Y12027500D01*
X39181748Y12027500D01*
X38964500Y12027500D01*
X38897461Y12047185D01*
X38851706Y12099989D01*
X38840500Y12151500D01*
X38840500Y12649042D01*
X38860185Y12716081D01*
X38890863Y12748810D01*
X38947150Y12790350D01*
X39027793Y12899618D01*
X39071363Y13024133D01*
X39072646Y13027799D01*
X39072646Y13027801D01*
X39075500Y13058231D01*
X39075500Y13691770D01*
X39072646Y13722200D01*
X39072646Y13722202D01*
X39027793Y13850381D01*
X39027792Y13850383D01*
X38947150Y13959650D01*
X38837882Y14040293D01*
X38837880Y14040294D01*
X38709700Y14085147D01*
X38679270Y14088000D01*
X38679266Y14088000D01*
X37670734Y14088000D01*
X37670730Y14088000D01*
X37640300Y14085147D01*
X37640298Y14085147D01*
X37512119Y14040294D01*
X37512117Y14040293D01*
X37402850Y13959650D01*
X37322207Y13850383D01*
X37322206Y13850381D01*
X37277353Y13722202D01*
X37277353Y13722200D01*
X37274500Y13691770D01*
X37274500Y13058231D01*
X29163000Y13058231D01*
X29163000Y13899999D01*
X30394318Y13899999D01*
X30414955Y13743240D01*
X30414956Y13743238D01*
X30475464Y13597159D01*
X30571718Y13471718D01*
X30697159Y13375464D01*
X30843238Y13314956D01*
X30921618Y13304638D01*
X30999999Y13294318D01*
X31000000Y13294318D01*
X31000001Y13294318D01*
X31052253Y13301198D01*
X31156762Y13314956D01*
X31302841Y13375464D01*
X31428282Y13471718D01*
X31524536Y13597159D01*
X31585044Y13743238D01*
X31605682Y13900000D01*
X31600866Y13936579D01*
X31611631Y14005612D01*
X31636118Y14040438D01*
X31883864Y14288184D01*
X31945186Y14321666D01*
X31971544Y14324500D01*
X36650789Y14324500D01*
X36676234Y14321862D01*
X36685315Y14319957D01*
X36701005Y14321913D01*
X36717939Y14324023D01*
X36725615Y14324500D01*
X36729035Y14324500D01*
X36729040Y14324500D01*
X36738303Y14326046D01*
X36749278Y14327877D01*
X36751811Y14328247D01*
X36801393Y14334427D01*
X36801399Y14334431D01*
X36808451Y14336530D01*
X36815377Y14338908D01*
X36815381Y14338908D01*
X36845819Y14355381D01*
X36859329Y14362692D01*
X36861590Y14363857D01*
X36906484Y14385802D01*
X36906487Y14385806D01*
X36912453Y14390065D01*
X36918254Y14394581D01*
X36918258Y14394582D01*
X36952101Y14431347D01*
X36953826Y14433146D01*
X37187663Y14666983D01*
X37248984Y14700466D01*
X37318676Y14695482D01*
X37374609Y14653610D01*
X37375099Y14652951D01*
X37402850Y14615350D01*
X37512118Y14534707D01*
X37554845Y14519756D01*
X37640299Y14489854D01*
X37670730Y14487000D01*
X37670734Y14487000D01*
X38679270Y14487000D01*
X38709699Y14489854D01*
X38709701Y14489854D01*
X38773790Y14512281D01*
X38837882Y14534707D01*
X38947150Y14615350D01*
X39027793Y14724618D01*
X39042432Y14766456D01*
X39083155Y14823231D01*
X39148108Y14848978D01*
X39159474Y14849500D01*
X39965526Y14849500D01*
X40032565Y14829815D01*
X40078320Y14777011D01*
X40082567Y14766456D01*
X40097207Y14724618D01*
X40177850Y14615350D01*
X40287118Y14534707D01*
X40329845Y14519757D01*
X40415299Y14489854D01*
X40445730Y14487000D01*
X40445734Y14487000D01*
X41454270Y14487000D01*
X41484699Y14489854D01*
X41484701Y14489854D01*
X41548790Y14512281D01*
X41612882Y14534707D01*
X41722150Y14615350D01*
X41802793Y14724618D01*
X41817432Y14766456D01*
X41858155Y14823231D01*
X41923108Y14848978D01*
X41934474Y14849500D01*
X42540526Y14849500D01*
X42607565Y14829815D01*
X42653320Y14777011D01*
X42657567Y14766456D01*
X42672207Y14724618D01*
X42752850Y14615350D01*
X42862118Y14534707D01*
X42904845Y14519757D01*
X42990299Y14489854D01*
X43020730Y14487000D01*
X43020734Y14487000D01*
X44029270Y14487000D01*
X44059699Y14489854D01*
X44059701Y14489854D01*
X44123790Y14512281D01*
X44187882Y14534707D01*
X44297150Y14615350D01*
X44377793Y14724618D01*
X44414603Y14829815D01*
X44422646Y14852799D01*
X44422646Y14852801D01*
X44425500Y14883231D01*
X44425500Y15516770D01*
X44422646Y15547200D01*
X44422646Y15547202D01*
X44384108Y15657334D01*
X44377793Y15675382D01*
X44297150Y15784650D01*
X44187882Y15865293D01*
X44187880Y15865294D01*
X44059700Y15910147D01*
X44029270Y15913000D01*
X44029266Y15913000D01*
X43020734Y15913000D01*
X43020730Y15913000D01*
X42990300Y15910147D01*
X42990298Y15910147D01*
X42862119Y15865294D01*
X42862117Y15865293D01*
X42752850Y15784650D01*
X42672207Y15675382D01*
X42657567Y15633544D01*
X42616845Y15576769D01*
X42551892Y15551022D01*
X42540526Y15550500D01*
X41934474Y15550500D01*
X41867435Y15570185D01*
X41821680Y15622989D01*
X41817433Y15633544D01*
X41809108Y15657334D01*
X41802793Y15675382D01*
X41722150Y15784650D01*
X41612882Y15865293D01*
X41612880Y15865294D01*
X41484700Y15910147D01*
X41454270Y15913000D01*
X41454266Y15913000D01*
X40445734Y15913000D01*
X40445730Y15913000D01*
X40415300Y15910147D01*
X40415298Y15910147D01*
X40287119Y15865294D01*
X40287117Y15865293D01*
X40177850Y15784650D01*
X40097207Y15675382D01*
X40082567Y15633544D01*
X40041845Y15576769D01*
X39976892Y15551022D01*
X39965526Y15550500D01*
X39159474Y15550500D01*
X39092435Y15570185D01*
X39046680Y15622989D01*
X39042433Y15633544D01*
X39034108Y15657334D01*
X39027793Y15675382D01*
X38947150Y15784650D01*
X38837882Y15865293D01*
X38837880Y15865294D01*
X38709700Y15910147D01*
X38679270Y15913000D01*
X38679266Y15913000D01*
X37670734Y15913000D01*
X37670730Y15913000D01*
X37640300Y15910147D01*
X37640298Y15910147D01*
X37512119Y15865294D01*
X37512117Y15865293D01*
X37402850Y15784650D01*
X37322206Y15675381D01*
X37307558Y15633519D01*
X37266836Y15576743D01*
X37201883Y15550996D01*
X37200759Y15550898D01*
X37195962Y15550501D01*
X37180881Y15547985D01*
X37175716Y15547123D01*
X37173193Y15546755D01*
X37123606Y15540574D01*
X37116575Y15538481D01*
X37109618Y15536093D01*
X37065687Y15512318D01*
X37063411Y15511147D01*
X37018513Y15489197D01*
X37012566Y15484952D01*
X37006739Y15480416D01*
X36972913Y15443671D01*
X36971139Y15441823D01*
X36591137Y15061819D01*
X36529814Y15028334D01*
X36503456Y15025500D01*
X31824212Y15025500D01*
X31798766Y15028139D01*
X31797836Y15028334D01*
X31789686Y15030043D01*
X31789685Y15030043D01*
X31789683Y15030043D01*
X31757062Y15025977D01*
X31749386Y15025500D01*
X31745960Y15025500D01*
X31725817Y15022139D01*
X31725733Y15022125D01*
X31723200Y15021756D01*
X31673611Y15015575D01*
X31666547Y15013472D01*
X31659619Y15011093D01*
X31615679Y14987315D01*
X31613403Y14986144D01*
X31568516Y14964199D01*
X31562564Y14959951D01*
X31556739Y14955417D01*
X31522913Y14918671D01*
X31521139Y14916823D01*
X31140442Y14536126D01*
X31079119Y14502641D01*
X31036579Y14500867D01*
X31019824Y14503073D01*
X31000000Y14505682D01*
X30999998Y14505682D01*
X30999997Y14505682D01*
X30843239Y14485045D01*
X30843237Y14485044D01*
X30697160Y14424537D01*
X30571718Y14328282D01*
X30475463Y14202840D01*
X30414956Y14056763D01*
X30414955Y14056761D01*
X30394318Y13900002D01*
X30394318Y13899999D01*
X29163000Y13899999D01*
X29163000Y13954270D01*
X29160146Y13984700D01*
X29160146Y13984702D01*
X29124998Y14085147D01*
X29115293Y14112882D01*
X29034650Y14222150D01*
X28925382Y14302793D01*
X28925380Y14302794D01*
X28797200Y14347647D01*
X28766770Y14350500D01*
X28766766Y14350500D01*
X28673526Y14350500D01*
X28606487Y14370185D01*
X28562125Y14420041D01*
X28549199Y14446481D01*
X28544928Y14452462D01*
X28540420Y14458253D01*
X28540418Y14458258D01*
X28520719Y14476392D01*
X28503646Y14492110D01*
X28501797Y14493884D01*
X27982637Y15013045D01*
X27966511Y15032902D01*
X27961437Y15040669D01*
X27935487Y15060867D01*
X27929741Y15065941D01*
X27927307Y15068375D01*
X27910609Y15080297D01*
X27908555Y15081829D01*
X27883275Y15101504D01*
X27869126Y15112517D01*
X27869124Y15112518D01*
X27862648Y15116023D01*
X27856066Y15119241D01*
X27808182Y15133497D01*
X27805743Y15134278D01*
X27758484Y15150502D01*
X27751269Y15151706D01*
X27743953Y15152618D01*
X27695139Y15150599D01*
X27694049Y15150553D01*
X27691489Y15150500D01*
X26596544Y15150500D01*
X26529505Y15170185D01*
X26508863Y15186819D01*
X24752019Y16943663D01*
X27159805Y16954657D01*
X27160453Y16947558D01*
X27144318Y16825002D01*
X27144318Y16824999D01*
X27164955Y16668240D01*
X27164956Y16668238D01*
X27225464Y16522159D01*
X27321718Y16396718D01*
X27447159Y16300464D01*
X27593238Y16239956D01*
X27671618Y16229638D01*
X27749999Y16219318D01*
X27750000Y16219318D01*
X27750001Y16219318D01*
X27802254Y16226198D01*
X27906762Y16239956D01*
X28052841Y16300464D01*
X28178282Y16396718D01*
X28274536Y16522159D01*
X28335044Y16668238D01*
X28353885Y16811351D01*
X28355682Y16824999D01*
X28355682Y16825000D01*
X28354690Y16832537D01*
X28339697Y16946417D01*
X28350462Y17015451D01*
X28396842Y17067707D01*
X28448351Y17085776D01*
X28462491Y17087415D01*
X28565265Y17132794D01*
X28644706Y17212235D01*
X28684692Y17302796D01*
X28729776Y17356169D01*
X28796562Y17376697D01*
X28863845Y17357859D01*
X28873606Y17351087D01*
X28917835Y17317148D01*
X28972157Y17275465D01*
X28972158Y17275465D01*
X28972159Y17275464D01*
X29118238Y17214956D01*
X29138914Y17212234D01*
X29274999Y17194318D01*
X29275000Y17194318D01*
X29275001Y17194318D01*
X29327254Y17201198D01*
X29431762Y17214956D01*
X29577841Y17275464D01*
X29703282Y17371718D01*
X29799536Y17497159D01*
X29860044Y17643238D01*
X29880682Y17800000D01*
X29879365Y17810000D01*
X29860044Y17956761D01*
X29860044Y17956762D01*
X29799536Y18102841D01*
X29703282Y18228282D01*
X29577841Y18324536D01*
X29547260Y18337203D01*
X29431762Y18385044D01*
X29431760Y18385045D01*
X29275002Y18405682D01*
X29275000Y18405682D01*
X29257892Y18403430D01*
X29230513Y18399826D01*
X29161478Y18410594D01*
X29138170Y18424911D01*
X29137222Y18425649D01*
X29109126Y18447517D01*
X29109122Y18447519D01*
X29102648Y18451023D01*
X29096066Y18454241D01*
X29048182Y18468497D01*
X29045743Y18469278D01*
X28998484Y18485502D01*
X28991269Y18486706D01*
X28983953Y18487618D01*
X28935139Y18485599D01*
X28934049Y18485553D01*
X28931489Y18485500D01*
X28808326Y18485500D01*
X28741287Y18505185D01*
X28704435Y18541805D01*
X28692579Y18560000D01*
X28755000Y18560000D01*
X28755000Y19634112D01*
X28762923Y19635201D01*
X28826298Y19605784D01*
X28827934Y19604323D01*
X30174902Y18379210D01*
X30182352Y18373049D01*
X30204960Y18356075D01*
X30204977Y18356064D01*
X30204979Y18356062D01*
X30212949Y18350645D01*
X30212962Y18350637D01*
X30212965Y18350635D01*
X30256871Y18323728D01*
X30291558Y18306728D01*
X30326213Y18293622D01*
X30326219Y18293621D01*
X30326220Y18293620D01*
X30342600Y18289132D01*
X30363462Y18283416D01*
X30414173Y18274536D01*
X30423770Y18273318D01*
X30423783Y18273317D01*
X30423782Y18273317D01*
X30451944Y18271082D01*
X30451949Y18271082D01*
X30451960Y18271081D01*
X30461626Y18270770D01*
X34918242Y18337203D01*
X34922222Y18337313D01*
X34933456Y18337775D01*
X34936120Y18337919D01*
X34939778Y18338165D01*
X34941346Y18338270D01*
X34941358Y18338272D01*
X34941403Y18338274D01*
X34944120Y18338492D01*
X34955328Y18339544D01*
X34959284Y18339968D01*
X41778847Y19160086D01*
X43308622Y19344056D01*
X43316032Y19344500D01*
X47240520Y19344500D01*
X47250748Y19345010D01*
X47280531Y19347988D01*
X47290654Y19349512D01*
X47343984Y19360281D01*
X47383054Y19372319D01*
X47419175Y19387528D01*
X47419180Y19387531D01*
X47419183Y19387532D01*
X47455076Y19407055D01*
X47455076Y19407056D01*
X47455085Y19407060D01*
X47487483Y19429119D01*
X47518819Y19455373D01*
X47546207Y19483406D01*
X47571723Y19515342D01*
X47593021Y19548242D01*
X47611712Y19584595D01*
X47626077Y19621060D01*
X47637203Y19660399D01*
X47646730Y19713967D01*
X47648019Y19724128D01*
X47650302Y19753973D01*
X47650573Y19764204D01*
X47627953Y20736871D01*
X47610189Y21500738D01*
X47610188Y21500747D01*
X47610188Y21500756D01*
X47609011Y21514064D01*
X47603055Y21552631D01*
X47600162Y21565675D01*
X47580537Y21633105D01*
X47577022Y21641121D01*
X47559147Y21681890D01*
X47559146Y21681893D01*
X47532840Y21725463D01*
X47532836Y21725467D01*
X47532834Y21725472D01*
X47499621Y21767122D01*
X47499620Y21767123D01*
X47463538Y21801943D01*
X47463533Y21801948D01*
X47420729Y21833661D01*
X47420730Y21833661D01*
X47420728Y21833662D01*
X47420723Y21833666D01*
X47376263Y21858398D01*
X47376251Y21858404D01*
X47326743Y21878046D01*
X47326742Y21878047D01*
X47304367Y21883706D01*
X47258653Y21895266D01*
X47258645Y21895268D01*
X47258639Y21895269D01*
X47258633Y21895270D01*
X47245525Y21897692D01*
X47245493Y21897697D01*
X47206785Y21902276D01*
X47206765Y21902278D01*
X47193444Y21902982D01*
X47193430Y21902982D01*
X47193427Y21902982D01*
X46134905Y21889995D01*
X43332893Y21855614D01*
X43328689Y21855501D01*
X43319331Y21855121D01*
X43316624Y21855011D01*
X43314884Y21854916D01*
X43313760Y21854854D01*
X43313747Y21854854D01*
X43313745Y21854853D01*
X43308106Y21854466D01*
X43307816Y21854442D01*
X43305199Y21854225D01*
X43292998Y21853038D01*
X43288830Y21852571D01*
X35548716Y20879400D01*
X35479744Y20890567D01*
X35427760Y20937251D01*
X35409266Y21004629D01*
X35430136Y21071309D01*
X35483743Y21116121D01*
X35485807Y21116997D01*
X43095720Y24261212D01*
X43140964Y24270590D01*
X47300639Y24341092D01*
X47313906Y24342179D01*
X47352365Y24347852D01*
X47365376Y24350641D01*
X47365380Y24350643D01*
X47365400Y24350647D01*
X47432682Y24369698D01*
X47432686Y24369700D01*
X47432698Y24369703D01*
X47481466Y24390633D01*
X47525090Y24416480D01*
X47566875Y24449203D01*
X47601915Y24484842D01*
X47633924Y24527173D01*
X47659028Y24571227D01*
X47679129Y24620342D01*
X47697049Y24687982D01*
X47699618Y24701040D01*
X47704639Y24739593D01*
X47705500Y24752876D01*
X47705500Y26396138D01*
X47704634Y26409461D01*
X47699582Y26448133D01*
X47696997Y26461234D01*
X47681181Y26520731D01*
X47678970Y26529050D01*
X47678964Y26529068D01*
X47658743Y26578304D01*
X47658739Y26578312D01*
X47633492Y26622450D01*
X47633489Y26622454D01*
X47601293Y26664850D01*
X47566064Y26700506D01*
X47524056Y26733212D01*
X47524055Y26733213D01*
X47524052Y26733215D01*
X47524045Y26733220D01*
X47480220Y26758993D01*
X47480214Y26758996D01*
X47431223Y26779809D01*
X47431221Y26779810D01*
X47431220Y26779810D01*
X47408685Y26786092D01*
X47363611Y26798657D01*
X47352877Y26800910D01*
X47350549Y26801398D01*
X47337680Y26803238D01*
X47311946Y26806915D01*
X47298627Y26807943D01*
X43393680Y26854990D01*
X43393661Y26854990D01*
X43393640Y26854990D01*
X43388398Y26854919D01*
X43383405Y26854725D01*
X43378159Y26854520D01*
X43378137Y26854519D01*
X43373191Y26854200D01*
X43372944Y26854184D01*
X43372942Y26854184D01*
X43372929Y26854183D01*
X43372902Y26854181D01*
X43337256Y26850975D01*
X43337227Y26850971D01*
X43326887Y26849508D01*
X43326854Y26849502D01*
X43296886Y26843692D01*
X43296860Y26843686D01*
X43286748Y26841186D01*
X43286737Y26841183D01*
X43252456Y26830834D01*
X43252408Y26830818D01*
X43247457Y26829185D01*
X43240842Y26826814D01*
X43237784Y26825717D01*
X43237760Y26825708D01*
X43237742Y26825701D01*
X43232919Y26823833D01*
X37889724Y24596205D01*
X37820272Y24588577D01*
X37757721Y24619708D01*
X37721931Y24679715D01*
X37724264Y24749546D01*
X37763980Y24807029D01*
X37788240Y24822393D01*
X47321295Y29408153D01*
X47333689Y29415212D01*
X47368362Y29438284D01*
X47379659Y29446988D01*
X47435523Y29496569D01*
X47472413Y29539823D01*
X47501568Y29585571D01*
X47525197Y29637279D01*
X47546545Y29708857D01*
X47549664Y29722775D01*
X47555933Y29763950D01*
X47557097Y29778164D01*
X47577925Y31465246D01*
X47577548Y31475404D01*
X47574978Y31505021D01*
X47573598Y31515100D01*
X47563625Y31568227D01*
X47552229Y31607196D01*
X47552228Y31607198D01*
X47552228Y31607200D01*
X47537672Y31643281D01*
X47537659Y31643309D01*
X47518836Y31679256D01*
X47518829Y31679267D01*
X47497455Y31711798D01*
X47497448Y31711807D01*
X47471917Y31743362D01*
X47444561Y31771059D01*
X47444554Y31771065D01*
X47444552Y31771067D01*
X47413319Y31796983D01*
X47413313Y31796988D01*
X47413306Y31796993D01*
X47413295Y31797001D01*
X47381030Y31818776D01*
X47381026Y31818778D01*
X47345302Y31838049D01*
X47345296Y31838052D01*
X47345295Y31838052D01*
X47329659Y31844585D01*
X47309374Y31853060D01*
X47270558Y31864931D01*
X47266474Y31865750D01*
X47217566Y31875557D01*
X47217561Y31875558D01*
X47217545Y31875561D01*
X47207530Y31877058D01*
X47207525Y31877059D01*
X47207509Y31877061D01*
X47183488Y31879446D01*
X47177938Y31879996D01*
X47177933Y31879997D01*
X47177927Y31879997D01*
X47177921Y31879998D01*
X47177912Y31879998D01*
X47167771Y31880500D01*
X44212942Y31880500D01*
X44212927Y31880500D01*
X44205530Y31880233D01*
X44205529Y31880233D01*
X44183889Y31878667D01*
X44183794Y31878658D01*
X44176496Y31877863D01*
X44137134Y31872136D01*
X44108134Y31865748D01*
X44080811Y31857621D01*
X44053060Y31847132D01*
X44053048Y31847128D01*
X44053043Y31847125D01*
X44053039Y31847123D01*
X44016945Y31830409D01*
X44010355Y31827064D01*
X44010334Y31827053D01*
X43991386Y31816558D01*
X43984993Y31812709D01*
X34745373Y25783109D01*
X34678473Y25762956D01*
X34677103Y25762954D01*
X30454050Y25780081D01*
X30454049Y25780081D01*
X30454046Y25780081D01*
X30451586Y25779952D01*
X30442385Y25779466D01*
X30408447Y25775731D01*
X30396941Y25773798D01*
X30336686Y25760117D01*
X30336667Y25760112D01*
X30292686Y25744706D01*
X30292667Y25744698D01*
X30252519Y25725274D01*
X30252510Y25725268D01*
X30213121Y25700337D01*
X30165020Y25661606D01*
X30165015Y25661602D01*
X30165003Y25661591D01*
X30156337Y25653762D01*
X30156330Y25653756D01*
X30156330Y25653755D01*
X30132363Y25629493D01*
X30132349Y25629478D01*
X30124628Y25620719D01*
X30124619Y25620708D01*
X29495374Y24819186D01*
X29438494Y24778611D01*
X29368706Y24775228D01*
X29308168Y24810113D01*
X29276100Y24872189D01*
X29279922Y24934115D01*
X29312901Y25035499D01*
X29685813Y26181899D01*
X29686968Y26185697D01*
X29689087Y26193185D01*
X29690091Y26197011D01*
X29696494Y26223476D01*
X29698061Y26231257D01*
X29701762Y26254177D01*
X29702724Y26262057D01*
X29704978Y26289190D01*
X29705230Y26293148D01*
X29705574Y26300923D01*
X29705673Y26304881D01*
X29705877Y26340707D01*
X29725943Y26407629D01*
X29730090Y26413609D01*
X29802793Y26512118D01*
X29841400Y26622450D01*
X29847646Y26640299D01*
X29847646Y26640301D01*
X29850500Y26670731D01*
X29850500Y26950000D01*
X30350001Y26950000D01*
X30350001Y26670804D01*
X30352851Y26640394D01*
X30397653Y26512355D01*
X30478207Y26403208D01*
X30587354Y26322654D01*
X30715397Y26277851D01*
X30745779Y26275002D01*
X30745807Y26275001D01*
X30799999Y26275002D01*
X30800000Y26275002D01*
X30800000Y26950000D01*
X31300000Y26950000D01*
X31300000Y26275001D01*
X31354196Y26275001D01*
X31384606Y26277852D01*
X31512645Y26322654D01*
X31621792Y26403208D01*
X31702346Y26512355D01*
X31747149Y26640396D01*
X31747149Y26640400D01*
X31750000Y26670794D01*
X31750000Y26950000D01*
X31300000Y26950000D01*
X30800000Y26950000D01*
X30350001Y26950000D01*
X29850500Y26950000D01*
X29850500Y27450000D01*
X30350000Y27450000D01*
X30800000Y27450000D01*
X30800000Y28125000D01*
X31300000Y28125000D01*
X31300000Y27450000D01*
X31749999Y27450000D01*
X31749999Y27729197D01*
X31747148Y27759607D01*
X31702346Y27887646D01*
X31621792Y27996793D01*
X31512645Y28077347D01*
X31384602Y28122150D01*
X31354207Y28125000D01*
X31300000Y28125000D01*
X30800000Y28125000D01*
X30799999Y28125001D01*
X30745804Y28125000D01*
X30715393Y28122149D01*
X30587354Y28077347D01*
X30478207Y27996793D01*
X30397653Y27887646D01*
X30352850Y27759605D01*
X30352850Y27759601D01*
X30350000Y27729207D01*
X30350000Y27450000D01*
X29850500Y27450000D01*
X29850500Y27729270D01*
X29847646Y27759700D01*
X29847646Y27759702D01*
X29814006Y27855837D01*
X29802793Y27887882D01*
X29739884Y27973120D01*
X29715915Y28038746D01*
X29715658Y28047440D01*
X29754232Y34778298D01*
X34498000Y34778298D01*
X34509602Y34719967D01*
X34509603Y34719966D01*
X34553808Y34653809D01*
X34619965Y34609604D01*
X34619966Y34609603D01*
X34678297Y34598001D01*
X34678301Y34598000D01*
X35210000Y34598000D01*
X35210000Y35192468D01*
X35264960Y35154996D01*
X35393002Y35115500D01*
X35493312Y35115500D01*
X35592499Y35130450D01*
X35710000Y35187036D01*
X35710000Y34598000D01*
X36241699Y34598000D01*
X36241702Y34598001D01*
X36300033Y34609603D01*
X36300034Y34609604D01*
X36366191Y34653809D01*
X36410396Y34719966D01*
X36410397Y34719967D01*
X36421999Y34778298D01*
X37038000Y34778298D01*
X37049602Y34719967D01*
X37049603Y34719966D01*
X37093808Y34653809D01*
X37159965Y34609604D01*
X37159966Y34609603D01*
X37218297Y34598001D01*
X37218301Y34598000D01*
X37750000Y34598000D01*
X37750000Y35192468D01*
X37804960Y35154996D01*
X37933002Y35115500D01*
X38033312Y35115500D01*
X38132499Y35130450D01*
X38250000Y35187036D01*
X38250000Y34598000D01*
X38781699Y34598000D01*
X38781702Y34598001D01*
X38840033Y34609603D01*
X38840034Y34609604D01*
X38906191Y34653809D01*
X38950396Y34719966D01*
X38950397Y34719967D01*
X38961999Y34778298D01*
X38962000Y34778302D01*
X38962000Y35310000D01*
X38368927Y35310000D01*
X38418447Y35395772D01*
X38448264Y35526407D01*
X38438251Y35660028D01*
X38389297Y35784760D01*
X38369169Y35810000D01*
X38962000Y35810000D01*
X38962000Y36341699D01*
X38961999Y36341703D01*
X38950397Y36400034D01*
X38950396Y36400035D01*
X38906191Y36466192D01*
X38840034Y36510397D01*
X38840033Y36510398D01*
X38781702Y36522000D01*
X38250000Y36522000D01*
X38250000Y35927533D01*
X38195040Y35965004D01*
X38066998Y36004500D01*
X37966688Y36004500D01*
X37867501Y35989550D01*
X37750000Y35932965D01*
X37750000Y36522000D01*
X37218297Y36522000D01*
X37159966Y36510398D01*
X37159965Y36510397D01*
X37093808Y36466192D01*
X37049603Y36400035D01*
X37049602Y36400034D01*
X37038000Y36341703D01*
X37038000Y35810000D01*
X37631073Y35810000D01*
X37581553Y35724228D01*
X37551736Y35593593D01*
X37561749Y35459972D01*
X37610703Y35335240D01*
X37630831Y35310000D01*
X37038000Y35310000D01*
X37038000Y34778298D01*
X36421999Y34778298D01*
X36422000Y34778302D01*
X36422000Y35310000D01*
X35828927Y35310000D01*
X35878447Y35395772D01*
X35908264Y35526407D01*
X35898251Y35660028D01*
X35849297Y35784760D01*
X35829169Y35810000D01*
X36422000Y35810000D01*
X36422000Y36341699D01*
X36421999Y36341703D01*
X36410397Y36400034D01*
X36410396Y36400035D01*
X36366191Y36466192D01*
X36300034Y36510397D01*
X36300033Y36510398D01*
X36241702Y36522000D01*
X35710000Y36522000D01*
X35710000Y35927533D01*
X35655040Y35965004D01*
X35526998Y36004500D01*
X35426688Y36004500D01*
X35327501Y35989550D01*
X35210000Y35932965D01*
X35210000Y36522000D01*
X34678297Y36522000D01*
X34619966Y36510398D01*
X34619965Y36510397D01*
X34553808Y36466192D01*
X34509603Y36400035D01*
X34509602Y36400034D01*
X34498000Y36341703D01*
X34498000Y35810000D01*
X35091073Y35810000D01*
X35041553Y35724228D01*
X35011736Y35593593D01*
X35021749Y35459972D01*
X35070703Y35335240D01*
X35090831Y35310000D01*
X34498000Y35310000D01*
X34498000Y34778298D01*
X29754232Y34778298D01*
X29754700Y34859892D01*
X29774768Y34926815D01*
X29792642Y34948456D01*
X31672354Y36760227D01*
X31734281Y36792576D01*
X31757985Y36794944D01*
X38895061Y36818815D01*
X38908452Y36819735D01*
X38947312Y36824971D01*
X38960476Y36827629D01*
X39028580Y36846081D01*
X39077987Y36866692D01*
X39122215Y36892359D01*
X39164619Y36925027D01*
X39200181Y36960707D01*
X39232711Y37003223D01*
X39258233Y37047541D01*
X39278679Y37097017D01*
X39296902Y37165177D01*
X39299516Y37178347D01*
X39304624Y37217229D01*
X39305500Y37230626D01*
X39305500Y41543838D01*
X39305000Y41553964D01*
X39302082Y41583449D01*
X39300588Y41593469D01*
X39290030Y41646300D01*
X39278231Y41685011D01*
X39263319Y41720830D01*
X39244163Y41756476D01*
X39222509Y41788696D01*
X39196739Y41819897D01*
X39196735Y41819901D01*
X39196728Y41819909D01*
X39169217Y41847224D01*
X39169210Y41847230D01*
X39169205Y41847235D01*
X39153510Y41860010D01*
X39137824Y41872778D01*
X39137819Y41872782D01*
X39137816Y41872784D01*
X39105439Y41894208D01*
X39105433Y41894212D01*
X39069657Y41913108D01*
X39069655Y41913109D01*
X39033745Y41927757D01*
X39033720Y41927766D01*
X38994946Y41939282D01*
X38994929Y41939286D01*
X38942071Y41949456D01*
X38942039Y41949462D01*
X38934763Y41950493D01*
X38931993Y41950885D01*
X38911686Y41952747D01*
X38902480Y41953591D01*
X38892379Y41954017D01*
X38892347Y41954017D01*
X32188792Y41905964D01*
X32182757Y41905695D01*
X32181106Y41905621D01*
X32181101Y41905621D01*
X32181087Y41905620D01*
X32158736Y41903785D01*
X32158665Y41903777D01*
X32151109Y41902871D01*
X32151079Y41902866D01*
X32110476Y41896448D01*
X32110469Y41896447D01*
X32110452Y41896444D01*
X32110437Y41896441D01*
X32110424Y41896438D01*
X32080581Y41889402D01*
X32080545Y41889392D01*
X32052438Y41880500D01*
X32052420Y41880494D01*
X32023921Y41869072D01*
X32023920Y41869072D01*
X31987007Y41850969D01*
X31980229Y41847325D01*
X31960826Y41835936D01*
X31960825Y41835935D01*
X31954373Y41831817D01*
X25264206Y37200162D01*
X25255329Y37193269D01*
X25230542Y37171755D01*
X25222475Y37163938D01*
X25182043Y37120241D01*
X25182039Y37120236D01*
X25155367Y37084209D01*
X25133731Y37047109D01*
X25115506Y37006148D01*
X25115504Y37006143D01*
X25115504Y37006142D01*
X25114571Y37003223D01*
X25097384Y36949442D01*
X25097378Y36949421D01*
X25094552Y36938569D01*
X25094544Y36938533D01*
X25088031Y36906395D01*
X25088030Y36906385D01*
X25086404Y36895283D01*
X25086404Y36895279D01*
X25086403Y36895270D01*
X25086138Y36892357D01*
X25070860Y36724290D01*
X25070093Y36713586D01*
X25069796Y36707939D01*
X25069438Y36697082D01*
X25020390Y33165470D01*
X25020550Y33158154D01*
X25020553Y33158081D01*
X25021802Y33136570D01*
X25021809Y33136483D01*
X25022496Y33129199D01*
X25022498Y33129178D01*
X25027633Y33089901D01*
X25033559Y33060958D01*
X25041241Y33033615D01*
X25041245Y33033604D01*
X25051246Y33005849D01*
X25051261Y33005809D01*
X25067311Y32969661D01*
X25067330Y32969618D01*
X25070545Y32963028D01*
X25070563Y32962992D01*
X25080707Y32943960D01*
X25080728Y32943923D01*
X25084415Y32937567D01*
X25084426Y32937550D01*
X25084432Y32937539D01*
X26810622Y30194553D01*
X26825047Y30171632D01*
X26844098Y30105065D01*
X26834374Y27796817D01*
X26832770Y27782236D01*
X26833058Y27782209D01*
X26829500Y27744269D01*
X26829500Y26685712D01*
X26829604Y26683464D01*
X26829671Y26680329D01*
X26825755Y25750674D01*
X26815474Y25060000D01*
X22905000Y25060000D01*
X22905000Y24922471D01*
X22840265Y24987206D01*
X22834499Y24989752D01*
X22769600Y25018408D01*
X22716224Y25063494D01*
X22695697Y25130281D01*
X22705126Y25179295D01*
X22715044Y25203238D01*
X22735682Y25360000D01*
X22726848Y25427098D01*
X22715044Y25516761D01*
X22715044Y25516762D01*
X22654536Y25662841D01*
X22558282Y25788282D01*
X22432841Y25884536D01*
X22347348Y25919949D01*
X22292946Y25963789D01*
X22270881Y26030083D01*
X22288160Y26097783D01*
X22339298Y26145393D01*
X22353831Y26151545D01*
X22412882Y26172207D01*
X22522150Y26252850D01*
X22602793Y26362118D01*
X22637483Y26461256D01*
X22647646Y26490299D01*
X22647646Y26490301D01*
X22650500Y26520731D01*
X22650500Y27164999D01*
X24374318Y27164999D01*
X24394955Y27008240D01*
X24394956Y27008238D01*
X24455464Y26862159D01*
X24551718Y26736718D01*
X24677159Y26640464D01*
X24823238Y26579956D01*
X24898309Y26570073D01*
X24962204Y26541809D01*
X24981891Y26520771D01*
X25057850Y26417850D01*
X25167118Y26337207D01*
X25208708Y26322654D01*
X25295299Y26292354D01*
X25325730Y26289500D01*
X25325734Y26289500D01*
X25934270Y26289500D01*
X25964699Y26292354D01*
X25964701Y26292354D01*
X26028790Y26314781D01*
X26092882Y26337207D01*
X26202150Y26417850D01*
X26282793Y26527118D01*
X26316151Y26622450D01*
X26327646Y26655299D01*
X26327646Y26655301D01*
X26330500Y26685731D01*
X26330500Y27744270D01*
X26327646Y27774700D01*
X26327646Y27774702D01*
X26282793Y27902881D01*
X26282792Y27902883D01*
X26264407Y27927794D01*
X26202150Y28012150D01*
X26092882Y28092793D01*
X26092880Y28092794D01*
X25964700Y28137647D01*
X25934270Y28140500D01*
X25934266Y28140500D01*
X25325734Y28140500D01*
X25325730Y28140500D01*
X25295300Y28137647D01*
X25295298Y28137647D01*
X25167119Y28092794D01*
X25167117Y28092793D01*
X25057850Y28012150D01*
X24977207Y27902883D01*
X24953781Y27835936D01*
X24913059Y27779160D01*
X24852928Y27753953D01*
X24823237Y27750044D01*
X24677160Y27689537D01*
X24551718Y27593282D01*
X24455463Y27467840D01*
X24394956Y27321763D01*
X24394955Y27321761D01*
X24374318Y27165002D01*
X24374318Y27164999D01*
X22650500Y27164999D01*
X22650500Y27579270D01*
X22647646Y27609700D01*
X22647646Y27609702D01*
X22605832Y27729197D01*
X22602793Y27737882D01*
X22522150Y27847150D01*
X22412882Y27927793D01*
X22412880Y27927794D01*
X22284700Y27972647D01*
X22254270Y27975500D01*
X22254266Y27975500D01*
X21645734Y27975500D01*
X21645730Y27975500D01*
X21615300Y27972647D01*
X21615298Y27972647D01*
X21487119Y27927794D01*
X21487117Y27927793D01*
X21377850Y27847150D01*
X21297207Y27737883D01*
X21297206Y27737881D01*
X21252353Y27609702D01*
X21252353Y27609700D01*
X21249500Y27579270D01*
X21249500Y26520731D01*
X21252353Y26490301D01*
X21252353Y26490299D01*
X21297206Y26362120D01*
X21297209Y26362114D01*
X21352130Y26287699D01*
X21376101Y26222071D01*
X21360785Y26153900D01*
X21340041Y26126385D01*
X20762181Y25548525D01*
X20700858Y25515040D01*
X20631166Y25520024D01*
X20575233Y25561896D01*
X20550816Y25627360D01*
X20550500Y25636206D01*
X20550500Y26137372D01*
X20570185Y26204411D01*
X20600866Y26237143D01*
X20622150Y26252850D01*
X20702793Y26362118D01*
X20737483Y26461256D01*
X20747646Y26490299D01*
X20747646Y26490301D01*
X20750500Y26520731D01*
X20750500Y27579270D01*
X20747646Y27609700D01*
X20747646Y27609702D01*
X20705832Y27729197D01*
X20702793Y27737882D01*
X20622150Y27847150D01*
X20512882Y27927793D01*
X20512880Y27927794D01*
X20384700Y27972647D01*
X20354270Y27975500D01*
X20354266Y27975500D01*
X19745734Y27975500D01*
X19745730Y27975500D01*
X19715300Y27972647D01*
X19715298Y27972647D01*
X19587119Y27927794D01*
X19587117Y27927793D01*
X19477850Y27847150D01*
X19397207Y27737883D01*
X19397206Y27737881D01*
X19352353Y27609702D01*
X19352353Y27609700D01*
X19349500Y27579270D01*
X19349500Y26520731D01*
X19352353Y26490301D01*
X19352353Y26490299D01*
X19397206Y26362120D01*
X19397207Y26362118D01*
X19477850Y26252850D01*
X19587118Y26172207D01*
X19618063Y26161379D01*
X19715295Y26127355D01*
X19715299Y26127355D01*
X19715301Y26127354D01*
X19737078Y26125312D01*
X19801984Y26099456D01*
X19842610Y26042612D01*
X19849500Y26001854D01*
X19849500Y24416256D01*
X19829815Y24349217D01*
X19777011Y24303462D01*
X19707853Y24293518D01*
X19644297Y24322543D01*
X19637819Y24328575D01*
X19386819Y24579574D01*
X19353334Y24640897D01*
X19350500Y24667255D01*
X19350500Y25158841D01*
X19350499Y25158871D01*
X19350499Y25188432D01*
X19350499Y25188433D01*
X19343653Y25209499D01*
X19339111Y25228420D01*
X19337457Y25238867D01*
X19335646Y25250304D01*
X19325586Y25270048D01*
X19318140Y25288026D01*
X19311297Y25309087D01*
X19311296Y25309088D01*
X19311296Y25309090D01*
X19298269Y25327019D01*
X19288104Y25343608D01*
X19278050Y25363342D01*
X18003573Y26637819D01*
X17970088Y26699142D01*
X17975072Y26768834D01*
X18016944Y26824767D01*
X18082408Y26849184D01*
X18091254Y26849500D01*
X18444750Y26849500D01*
X18444751Y26849501D01*
X18459568Y26852448D01*
X18503229Y26861132D01*
X18503229Y26861133D01*
X18503231Y26861133D01*
X18569552Y26905448D01*
X18613867Y26971769D01*
X18613867Y26971771D01*
X18613868Y26971771D01*
X18625499Y27030248D01*
X18625500Y27030250D01*
X18625500Y30069751D01*
X18625499Y30069753D01*
X18613868Y30128230D01*
X18613867Y30128231D01*
X18569552Y30194553D01*
X18503230Y30238868D01*
X18503229Y30238869D01*
X18444752Y30250500D01*
X18444748Y30250500D01*
X10905252Y30250500D01*
X10905247Y30250500D01*
X10846770Y30238869D01*
X10846769Y30238868D01*
X10780447Y30194553D01*
X10736132Y30128231D01*
X10736131Y30128230D01*
X10724500Y30069753D01*
X10724500Y27030248D01*
X10736131Y26971771D01*
X10736132Y26971770D01*
X10780447Y26905448D01*
X10846769Y26861133D01*
X10846770Y26861132D01*
X10905247Y26849501D01*
X10905250Y26849500D01*
X10905252Y26849500D01*
X16607745Y26849500D01*
X16674784Y26829815D01*
X16695426Y26813181D01*
X17437072Y26071535D01*
X18046427Y25462181D01*
X18079912Y25400858D01*
X18074928Y25331166D01*
X18033056Y25275233D01*
X17967592Y25250816D01*
X17958746Y25250500D01*
X10905247Y25250500D01*
X10846770Y25238869D01*
X10846769Y25238868D01*
X10780447Y25194553D01*
X10736132Y25128231D01*
X10736131Y25128230D01*
X10724500Y25069753D01*
X10724500Y24574500D01*
X10704815Y24507461D01*
X10652011Y24461706D01*
X10600500Y24450500D01*
X9549500Y24450500D01*
X9482461Y24470185D01*
X9436706Y24522989D01*
X9425500Y24574500D01*
X9425500Y25269751D01*
X9425499Y25269753D01*
X9413868Y25328230D01*
X9413867Y25328231D01*
X9369552Y25394553D01*
X9303230Y25438868D01*
X9303229Y25438869D01*
X9244752Y25450500D01*
X9244748Y25450500D01*
X7405252Y25450500D01*
X7405247Y25450500D01*
X7346770Y25438869D01*
X7346769Y25438868D01*
X7280447Y25394553D01*
X7236132Y25328231D01*
X7236131Y25328230D01*
X7224500Y25269753D01*
X7224500Y22730248D01*
X5344500Y22730248D01*
X5344500Y27750000D01*
X7225000Y27750000D01*
X7225000Y26730298D01*
X7236602Y26671967D01*
X7236603Y26671966D01*
X7280808Y26605809D01*
X7346965Y26561604D01*
X7346966Y26561603D01*
X7405297Y26550001D01*
X7405301Y26550000D01*
X8075000Y26550000D01*
X8075000Y27750000D01*
X8575000Y27750000D01*
X8575000Y26550000D01*
X9244699Y26550000D01*
X9244702Y26550001D01*
X9303033Y26561603D01*
X9303034Y26561604D01*
X9369191Y26605809D01*
X9413396Y26671966D01*
X9413397Y26671967D01*
X9424999Y26730298D01*
X9425000Y26730301D01*
X9425000Y27750000D01*
X8575000Y27750000D01*
X8075000Y27750000D01*
X7225000Y27750000D01*
X5344500Y27750000D01*
X5344500Y28250000D01*
X7225000Y28250000D01*
X8075000Y28250000D01*
X8075000Y29450000D01*
X8575000Y29450000D01*
X8575000Y28250000D01*
X9425000Y28250000D01*
X9425000Y29269700D01*
X9424999Y29269703D01*
X9413397Y29328034D01*
X9413396Y29328035D01*
X9369191Y29394192D01*
X9303034Y29438397D01*
X9303033Y29438398D01*
X9244702Y29450000D01*
X8575000Y29450000D01*
X8075000Y29450000D01*
X7405297Y29450000D01*
X7346966Y29438398D01*
X7346965Y29438397D01*
X7280808Y29394192D01*
X7236603Y29328035D01*
X7236602Y29328034D01*
X7225000Y29269703D01*
X7225000Y28250000D01*
X5344500Y28250000D01*
X5344500Y33830298D01*
X20600000Y33830298D01*
X20611602Y33771967D01*
X20611603Y33771966D01*
X20655808Y33705809D01*
X20721965Y33661604D01*
X20721966Y33661603D01*
X20780297Y33650001D01*
X20780301Y33650000D01*
X21300000Y33650000D01*
X21300000Y34831178D01*
X21399895Y34789800D01*
X21512310Y34775000D01*
X21587690Y34775000D01*
X21700105Y34789800D01*
X21800000Y34831178D01*
X21800000Y33650000D01*
X22319699Y33650000D01*
X22319702Y33650001D01*
X22378033Y33661603D01*
X22378034Y33661604D01*
X22444191Y33705809D01*
X22488396Y33771966D01*
X22488397Y33771967D01*
X22499999Y33830298D01*
X22500000Y33830301D01*
X22500000Y35100000D01*
X22068823Y35100000D01*
X22110200Y35199895D01*
X22129962Y35350000D01*
X22110200Y35500105D01*
X22068823Y35600000D01*
X22500000Y35600000D01*
X22500000Y36869700D01*
X22499999Y36869703D01*
X22488397Y36928034D01*
X22488396Y36928035D01*
X22444191Y36994192D01*
X22378034Y37038397D01*
X22378033Y37038398D01*
X22319702Y37050000D01*
X21800000Y37050000D01*
X21800000Y35868823D01*
X21700105Y35910200D01*
X21587690Y35925000D01*
X21512310Y35925000D01*
X21399895Y35910200D01*
X21300000Y35868823D01*
X21300000Y37050000D01*
X20780297Y37050000D01*
X20721966Y37038398D01*
X20721965Y37038397D01*
X20655808Y36994192D01*
X20611603Y36928035D01*
X20611602Y36928034D01*
X20600000Y36869703D01*
X20600000Y35600000D01*
X21031177Y35600000D01*
X20989800Y35500105D01*
X20970038Y35350000D01*
X20989800Y35199895D01*
X21031177Y35100000D01*
X20600000Y35100000D01*
X20600000Y33830298D01*
X5344500Y33830298D01*
X5344500Y42398298D01*
X34498000Y42398298D01*
X34509602Y42339967D01*
X34509603Y42339966D01*
X34553808Y42273809D01*
X34619965Y42229604D01*
X34619966Y42229603D01*
X34678297Y42218001D01*
X34678301Y42218000D01*
X35210000Y42218000D01*
X35210000Y42812468D01*
X35264960Y42774996D01*
X35393002Y42735500D01*
X35493312Y42735500D01*
X35592499Y42750450D01*
X35710000Y42807036D01*
X35710000Y42218000D01*
X36241699Y42218000D01*
X36241702Y42218001D01*
X36300033Y42229603D01*
X36300034Y42229604D01*
X36366191Y42273809D01*
X36410396Y42339966D01*
X36410397Y42339967D01*
X36421999Y42398298D01*
X37038000Y42398298D01*
X37049602Y42339967D01*
X37049603Y42339966D01*
X37093808Y42273809D01*
X37159965Y42229604D01*
X37159966Y42229603D01*
X37218297Y42218001D01*
X37218301Y42218000D01*
X37750000Y42218000D01*
X37750000Y42812468D01*
X37804960Y42774996D01*
X37933002Y42735500D01*
X38033312Y42735500D01*
X38132499Y42750450D01*
X38250000Y42807036D01*
X38250000Y42218000D01*
X38781699Y42218000D01*
X38781702Y42218001D01*
X38840033Y42229603D01*
X38840034Y42229604D01*
X38906191Y42273809D01*
X38950396Y42339966D01*
X38950397Y42339967D01*
X38961999Y42398298D01*
X38962000Y42398302D01*
X38962000Y42930000D01*
X38368927Y42930000D01*
X38418447Y43015772D01*
X38448264Y43146407D01*
X38438251Y43280028D01*
X38389297Y43404760D01*
X38369169Y43430000D01*
X38962000Y43430000D01*
X38962000Y43961699D01*
X38961999Y43961703D01*
X38950397Y44020034D01*
X38950396Y44020035D01*
X38906191Y44086192D01*
X38840034Y44130397D01*
X38840033Y44130398D01*
X38781702Y44142000D01*
X38250000Y44142000D01*
X38250000Y43547533D01*
X38195040Y43585004D01*
X38066998Y43624500D01*
X37966688Y43624500D01*
X37867501Y43609550D01*
X37750000Y43552965D01*
X37750000Y44142000D01*
X37218297Y44142000D01*
X37159966Y44130398D01*
X37159965Y44130397D01*
X37093808Y44086192D01*
X37049603Y44020035D01*
X37049602Y44020034D01*
X37038000Y43961703D01*
X37038000Y43430000D01*
X37631073Y43430000D01*
X37581553Y43344228D01*
X37551736Y43213593D01*
X37561749Y43079972D01*
X37610703Y42955240D01*
X37630831Y42930000D01*
X37038000Y42930000D01*
X37038000Y42398298D01*
X36421999Y42398298D01*
X36422000Y42398302D01*
X36422000Y42930000D01*
X35828927Y42930000D01*
X35878447Y43015772D01*
X35908264Y43146407D01*
X35898251Y43280028D01*
X35849297Y43404760D01*
X35829169Y43430000D01*
X36422000Y43430000D01*
X36422000Y43961699D01*
X36421999Y43961703D01*
X36410397Y44020034D01*
X36410396Y44020035D01*
X36366191Y44086192D01*
X36300034Y44130397D01*
X36300033Y44130398D01*
X36241702Y44142000D01*
X35710000Y44142000D01*
X35710000Y43547533D01*
X35655040Y43585004D01*
X35526998Y43624500D01*
X35426688Y43624500D01*
X35327501Y43609550D01*
X35210000Y43552965D01*
X35210000Y44142000D01*
X34678297Y44142000D01*
X34619966Y44130398D01*
X34619965Y44130397D01*
X34553808Y44086192D01*
X34509603Y44020035D01*
X34509602Y44020034D01*
X34498000Y43961703D01*
X34498000Y43430000D01*
X35091073Y43430000D01*
X35041553Y43344228D01*
X35011736Y43213593D01*
X35021749Y43079972D01*
X35070703Y42955240D01*
X35090831Y42930000D01*
X34498000Y42930000D01*
X34498000Y42398298D01*
X5344500Y42398298D01*
X5344500Y45331500D01*
X5364185Y45398539D01*
X5416989Y45444294D01*
X5468500Y45455500D01*
X55491500Y45455500D01*
X55558539Y45435815D01*
G37*
%TD.AperFunction*%
%TD*%
M02*
